G75*
G70*
%OFA0B0*%
%FSLAX24Y24*%
%IPPOS*%
%LPD*%
%AMOC8*
5,1,8,0,0,1.08239X$1,22.5*
%
%ADD10C,0.0500*%
%ADD102O,0.0600X0.1200*%
%ADD106R,0.0591X0.0591*%
%ADD107O,0.0660X0.1320*%
%ADD108C,0.0160*%
%ADD11OC8,0.1000*%
%ADD113C,0.1240*%
%ADD115R,0.0710X0.0630*%
%ADD118O,0.1200X0.0600*%
%ADD121OC8,0.0750*%
%ADD124R,0.0945X0.0945*%
%ADD126R,0.0630X0.0709*%
%ADD128C,0.0100*%
%ADD130C,0.0050*%
%ADD132C,0.0515*%
%ADD14R,0.0396X0.0396*%
%ADD156R,0.0236X0.0866*%
%ADD157R,0.0709X0.0669*%
%ADD16C,0.0400*%
%ADD161R,0.2000X0.1000*%
%ADD162R,0.0500X0.0250*%
%ADD167R,0.0760X0.1500*%
%ADD19R,0.0260X0.0500*%
%ADD21C,0.0750*%
%ADD22C,0.1000*%
%ADD32C,0.0396*%
%ADD34R,0.0591X0.0197*%
%ADD35OC8,0.1500*%
%ADD36C,0.0760*%
%ADD38O,0.0520X0.1040*%
%ADD39C,0.0240*%
%ADD40O,0.2130X0.1065*%
%ADD53O,0.2000X0.1000*%
%ADD57C,0.0200*%
%ADD63R,0.0630X0.0710*%
%ADD66OC8,0.0520*%
%ADD74OC8,0.0560*%
%ADD83O,0.1040X0.0520*%
%ADD84C,0.0520*%
%ADD85OC8,0.0600*%
%ADD86R,0.0709X0.0630*%
%ADD94C,0.0560*%
%ADD96OC8,0.1240*%
%ADD98R,0.0197X0.0591*%
%ADD99R,0.0515X0.0515*%
X002000Y002000D02*
D38*
X013248Y020185D03*
X012248Y020185D03*
X011248Y020185D03*
X010248Y020185D03*
X010248Y023185D03*
X011248Y023185D03*
X012248Y023185D03*
X013248Y023185D03*
X013248Y026185D03*
X012248Y026185D03*
X011248Y026185D03*
X010248Y026185D03*
X010248Y029185D03*
X011248Y029185D03*
X012248Y029185D03*
X013248Y029185D03*
D124*
X014248Y010051D03*
X014248Y008318D03*
X012248Y008318D03*
X012248Y010051D03*
X016248Y010051D03*
X016248Y008318D03*
X018248Y008318D03*
X018248Y010051D03*
D66*
X018248Y023185D03*
X018248Y025185D03*
X016248Y025185D03*
X016248Y023185D03*
X016248Y029185D03*
X018248Y029185D03*
X008248Y028685D03*
X008248Y026685D03*
X008248Y023685D03*
X008248Y019685D03*
D107*
X006248Y020185D03*
X005248Y020185D03*
X004248Y020185D03*
D118*
X021248Y006685D03*
X021248Y007685D03*
X021248Y008685D03*
X021248Y009685D03*
X021248Y010685D03*
X021248Y011685D03*
X021248Y012685D03*
X021248Y013685D03*
X021248Y014685D03*
X021248Y015685D03*
X021248Y016685D03*
X021248Y017685D03*
X021248Y018685D03*
X021248Y019685D03*
X021248Y020685D03*
X021248Y021685D03*
X021248Y022685D03*
X021248Y023685D03*
X021248Y024685D03*
X021248Y025685D03*
D35*
X018248Y012185D03*
X016248Y012185D03*
X014248Y012185D03*
X012248Y012185D03*
X009248Y007685D03*
X007748Y005685D03*
X005748Y007685D03*
X004248Y005685D03*
X012248Y006185D03*
X014248Y006185D03*
X016248Y006185D03*
X018248Y006185D03*
D167*
X009291Y010381D03*
X007815Y010381D03*
X005847Y010381D03*
X004370Y010381D03*
X004370Y016681D03*
X005847Y016681D03*
X007815Y016681D03*
X009291Y016681D03*
D130*
X004961Y015598D02*
X004961Y015500D01*
X004075Y012645D02*
X004075Y012547D01*
X004075Y010775D02*
X004173Y010775D01*
X009291Y010775D02*
X009488Y010775D01*
X009488Y010283D01*
D96*
X011248Y016185D03*
X011248Y018185D03*
X016248Y018685D03*
X008748Y025185D03*
D113*
X016248Y015685D03*
D10*
X021248Y015685D02*
X021248Y014685D01*
X009291Y016681D02*
X009291Y016685D01*
X009248Y016685D01*
X007815Y016685D01*
X007815Y016681D01*
X007815Y016685D02*
X007748Y016685D01*
X005847Y016685D02*
X004370Y016685D01*
X004370Y016681D01*
X005847Y016681D02*
X005847Y016685D01*
D36*
X005847Y016681D02*
X005847Y014685D01*
X012748Y014685D01*
X016248Y014685D01*
X016248Y015685D01*
X016248Y014685D02*
X021248Y014685D01*
X021248Y013685D01*
X021248Y014685D02*
X021248Y015685D01*
X007748Y016685D02*
X007748Y018185D01*
X005248Y018185D01*
X005248Y020185D01*
D39*
X009248Y016685D02*
X011248Y016685D01*
X011248Y016185D01*
X010248Y017185D02*
X012748Y017185D01*
X012748Y014685D01*
X012248Y012185D02*
X012248Y010051D01*
X012248Y008318D02*
X012248Y006185D01*
X014248Y006185D02*
X014248Y008318D01*
X014248Y010051D02*
X014248Y012185D01*
X016248Y012185D02*
X016248Y010185D01*
X016248Y010051D01*
X016248Y010185D01*
X016248Y010051D02*
X016248Y009685D01*
X016248Y008318D02*
X016248Y006185D01*
X018248Y006185D02*
X018248Y008318D01*
X018248Y010051D02*
X018248Y012185D01*
X011248Y018185D02*
X011248Y020185D01*
X010248Y020185D02*
X010248Y023185D01*
X010248Y024685D01*
X011248Y024685D01*
X011248Y026185D01*
X011248Y029185D01*
X011248Y030185D01*
X008248Y030185D01*
X008248Y028685D01*
X011748Y027185D02*
X011748Y024185D01*
X011248Y024185D01*
X011248Y023185D01*
X010248Y020185D02*
X010248Y017185D01*
X009291Y010381D02*
X009291Y007685D01*
X009248Y007685D01*
X007815Y005685D02*
X007748Y005685D01*
X007815Y005685D02*
X007815Y010381D01*
X005847Y010381D02*
X005847Y007685D01*
X005748Y007685D01*
X004370Y005685D02*
X004248Y005685D01*
X004370Y005685D02*
X004370Y010381D01*
X011748Y027185D02*
X012248Y027185D01*
X012248Y029185D01*
X002000Y033120D02*
D98*
X014323Y040777D03*
X014008Y040777D03*
X013693Y040777D03*
X013378Y040777D03*
X013063Y040777D03*
X012748Y040777D03*
X012433Y040777D03*
X012118Y040777D03*
X011803Y040777D03*
X011488Y040777D03*
X011173Y040777D03*
X011173Y045344D03*
X011488Y045344D03*
X011803Y045344D03*
X012118Y045344D03*
X012433Y045344D03*
X012748Y045344D03*
X013063Y045344D03*
X013378Y045344D03*
X013693Y045344D03*
X014008Y045344D03*
X014323Y045344D03*
D34*
X015031Y044636D03*
X015031Y044321D03*
X015031Y044006D03*
X015031Y043691D03*
X015031Y043376D03*
X015031Y043061D03*
X015031Y042746D03*
X015031Y042431D03*
X015031Y042116D03*
X015031Y041801D03*
X015031Y041486D03*
X010464Y041486D03*
X010464Y041801D03*
X010464Y042116D03*
X010464Y042431D03*
X010464Y042746D03*
X010464Y043061D03*
X010464Y043376D03*
X010464Y043691D03*
X010464Y044006D03*
X010464Y044321D03*
X010464Y044636D03*
D84*
X010560Y038373D03*
X012560Y038373D03*
D156*
X012498Y048645D03*
X012998Y048645D03*
X013498Y048645D03*
X013998Y048645D03*
X014498Y048645D03*
X014998Y048645D03*
X015498Y048645D03*
X015998Y048645D03*
X015998Y052976D03*
X015498Y052976D03*
X014998Y052976D03*
X014498Y052976D03*
X013998Y052976D03*
X013498Y052976D03*
X012998Y052976D03*
X012498Y052976D03*
X011998Y052976D03*
X011498Y052976D03*
X010998Y052976D03*
X010498Y052976D03*
X009998Y052976D03*
X009498Y052976D03*
X009498Y048645D03*
X009998Y048645D03*
X010498Y048645D03*
X010998Y048645D03*
X011498Y048645D03*
X011998Y048645D03*
D63*
X010808Y059311D03*
X009688Y059311D03*
X007808Y059311D03*
X006688Y059311D03*
D115*
X008123Y051308D03*
X008123Y050189D03*
X003248Y043871D03*
X003248Y042751D03*
X007248Y036371D03*
X007248Y035251D03*
X013248Y035251D03*
X013248Y036371D03*
X017748Y037751D03*
X017748Y038871D03*
X014498Y060251D03*
X014498Y061371D03*
D86*
X015685Y039987D03*
X015685Y038885D03*
D83*
X004998Y046311D03*
X004998Y048311D03*
X004998Y050311D03*
X004998Y052311D03*
X004998Y054311D03*
X004998Y056311D03*
X002998Y055311D03*
X002998Y051311D03*
X002998Y047311D03*
D157*
X007941Y057311D03*
X009555Y057311D03*
X011191Y057311D03*
X012805Y057311D03*
X014441Y057311D03*
X016055Y057311D03*
D22*
X020248Y061811D03*
X020310Y036811D03*
D11*
X020310Y034811D03*
X020248Y059811D03*
D126*
X015799Y055811D03*
X014697Y055811D03*
X012549Y055811D03*
X011447Y055811D03*
X009299Y055811D03*
X008197Y055811D03*
X012759Y046811D03*
X013861Y046811D03*
D118*
X020748Y046811D03*
X020748Y047811D03*
X020748Y048811D03*
X020748Y049811D03*
X020748Y050811D03*
X020748Y051811D03*
X020748Y052811D03*
X020748Y053811D03*
X020748Y054811D03*
X020748Y055811D03*
X020748Y056811D03*
X020748Y057811D03*
X020748Y045811D03*
X020748Y044811D03*
X020748Y043811D03*
X020748Y042811D03*
X020748Y041811D03*
X020748Y040811D03*
X020748Y039811D03*
X020748Y038811D03*
X003248Y038811D03*
X003248Y039811D03*
X003248Y040811D03*
X003248Y037811D03*
D106*
X005184Y037873D03*
X005184Y039436D03*
X006562Y039436D03*
X006562Y037873D03*
D102*
X005748Y035311D03*
X004748Y035311D03*
X003748Y035311D03*
X009248Y035311D03*
X010248Y035311D03*
X011248Y035311D03*
X015248Y035311D03*
X016248Y035311D03*
X017248Y035311D03*
X017248Y061311D03*
X016248Y061311D03*
X015248Y061311D03*
X011748Y061311D03*
X010748Y061311D03*
X009748Y061311D03*
X005748Y061311D03*
X004748Y061311D03*
X003748Y061311D03*
D39*
X007248Y062811D02*
X007248Y049186D01*
X008123Y049186D01*
X009498Y049186D01*
X009498Y048645D01*
X013498Y048645D02*
X013498Y049248D01*
X014248Y049873D01*
X014998Y049873D01*
X015498Y049873D01*
X018873Y049873D01*
X019810Y050811D01*
X019810Y052123D01*
X020748Y050811D02*
X021248Y050811D01*
X021748Y051311D01*
X021748Y060311D01*
X020248Y061811D01*
X019810Y054811D02*
X020748Y054811D01*
X020748Y040811D02*
X018248Y040811D01*
X018748Y039811D02*
X020748Y039811D01*
X020748Y038811D02*
X019248Y038811D01*
D32*
X019248Y038811D03*
X018748Y039811D03*
X018248Y040811D03*
X016748Y041061D03*
X016373Y041748D03*
X016373Y042811D03*
X016185Y043811D03*
X016248Y044811D03*
X016185Y045623D03*
X015248Y046498D03*
X014748Y046748D03*
X014810Y047498D03*
X016748Y048561D03*
X019810Y052123D03*
X019810Y054811D03*
X019248Y056561D03*
X017748Y054811D03*
X017248Y053811D03*
X015998Y058061D03*
X015998Y059311D03*
X013498Y060311D03*
X012748Y058061D03*
X010248Y060311D03*
X009498Y058061D03*
X007248Y062811D03*
X008748Y047561D03*
X008748Y046811D03*
X008873Y046123D03*
X008998Y045186D03*
X009873Y045186D03*
X010623Y045373D03*
X011435Y042436D03*
X012748Y041748D03*
X014060Y041748D03*
X014060Y042436D03*
X015560Y040748D03*
X014185Y039248D03*
X014748Y038311D03*
X009748Y040686D03*
X009248Y041498D03*
X008873Y039936D03*
X008248Y039436D03*
X007560Y038936D03*
X007123Y040061D03*
X006185Y041498D03*
X005498Y041811D03*
X004935Y043186D03*
X004310Y043561D03*
X005873Y044623D03*
X006248Y045623D03*
X008498Y036811D03*
D128*
X007248Y036811D01*
X007248Y036371D01*
X007248Y036311D01*
X007248Y035251D02*
X005808Y035251D01*
X003748Y036437D02*
X005184Y037873D01*
X005185Y037872D01*
X005185Y039434D01*
X005184Y039436D01*
X005498Y040061D02*
X005935Y039623D01*
X005935Y038311D01*
X006373Y037873D01*
X006562Y037873D01*
X007560Y038936D02*
X008498Y038936D01*
X008685Y039123D01*
X011060Y039123D01*
X012118Y040181D01*
X012118Y040777D01*
X011803Y040777D02*
X011803Y040241D01*
X011060Y039498D01*
X008310Y039498D01*
X008248Y039436D01*
X008873Y039936D02*
X011060Y039936D01*
X011488Y040363D01*
X011488Y040777D01*
X011173Y040777D02*
X011173Y040698D01*
X011185Y040686D01*
X011185Y041561D01*
X011935Y042061D01*
X011935Y043186D01*
X011248Y043873D01*
X011248Y044498D01*
X010623Y045123D01*
X010623Y045373D01*
X011173Y045344D02*
X011185Y045332D01*
X011185Y047623D01*
X010998Y047811D01*
X010998Y048645D01*
X010498Y048645D02*
X010498Y047686D01*
X009873Y047061D01*
X009873Y045186D01*
X008998Y045186D02*
X008998Y043936D01*
X009248Y043686D01*
X010459Y043686D01*
X010464Y043691D01*
X010464Y044006D02*
X010498Y044039D01*
X010498Y044061D01*
X009498Y044061D01*
X009498Y047311D01*
X009998Y047811D01*
X009998Y048645D01*
X010498Y048645D02*
X010498Y048686D01*
X011498Y048645D02*
X011498Y045354D01*
X011488Y045344D01*
X011185Y045332D02*
X011185Y045311D01*
X011803Y045344D02*
X011810Y045399D01*
X011810Y047623D01*
X011998Y047873D01*
X011998Y048645D01*
X012498Y048645D02*
X012498Y047873D01*
X012123Y047498D01*
X012123Y045349D01*
X012118Y045344D01*
X012373Y045404D02*
X012373Y046811D01*
X012759Y046811D01*
X012935Y046248D02*
X013873Y046248D01*
X013873Y046799D01*
X013861Y046811D01*
X013861Y046924D01*
X013873Y046936D01*
X014435Y047498D01*
X014810Y047498D01*
X014748Y046748D02*
X014560Y046748D01*
X014560Y045998D01*
X013693Y045998D01*
X013693Y045344D01*
X014008Y045344D02*
X014008Y045811D01*
X014810Y045811D01*
X014810Y046061D01*
X015248Y046498D01*
X015685Y045936D02*
X016560Y046811D01*
X017310Y046811D01*
X017248Y046811D01*
X017310Y046811D02*
X020748Y046811D01*
X020748Y047811D02*
X017185Y047811D01*
X015123Y045748D01*
X015123Y045498D01*
X014060Y044436D01*
X014060Y042436D01*
X014060Y041748D02*
X014810Y040998D01*
X014810Y039436D01*
X015361Y038885D01*
X015634Y038885D01*
X015685Y038885D01*
X015634Y038885D02*
X015623Y038873D01*
X016123Y038373D01*
X020248Y038373D01*
X020310Y036811D01*
X017748Y037751D02*
X017748Y035811D01*
X017248Y035311D01*
X017748Y037751D02*
X017748Y037811D01*
X017748Y038871D02*
X017748Y040061D01*
X016748Y041061D01*
X016373Y041748D02*
X016248Y041811D01*
X015041Y041811D01*
X015031Y041801D01*
X015031Y042116D02*
X015039Y042123D01*
X016935Y042123D01*
X017248Y041811D01*
X020748Y041811D01*
X020748Y042811D02*
X016373Y042811D01*
X015685Y043061D02*
X015685Y045936D01*
X016185Y045623D02*
X016373Y045811D01*
X020748Y045811D01*
X020748Y044811D02*
X016248Y044811D01*
X016185Y043811D02*
X020748Y043811D01*
X016748Y048561D02*
X015998Y048561D01*
X015998Y048645D01*
X015498Y048645D02*
X015498Y049873D01*
X015498Y049873D01*
X014998Y049873D02*
X014998Y048645D01*
X013873Y047373D02*
X013873Y046936D01*
X013873Y046822D01*
X013861Y046811D01*
X013873Y047373D02*
X013498Y047748D01*
X013498Y048645D01*
X012998Y048645D02*
X012998Y051311D01*
X008125Y051311D01*
X008123Y051308D01*
X008123Y050189D02*
X008123Y049186D01*
X008123Y049186D01*
X006685Y048311D02*
X007435Y047561D01*
X008748Y047561D01*
X008748Y046811D02*
X007435Y046811D01*
X006248Y045623D01*
X005873Y044623D02*
X007373Y046123D01*
X008873Y046123D01*
X010464Y043376D02*
X005310Y043373D01*
X005188Y043498D01*
X005125Y043563D01*
X004310Y043561D01*
X004935Y043186D02*
X005310Y043061D01*
X010464Y043061D01*
X010464Y042746D02*
X003308Y042746D01*
X003248Y042686D01*
X003248Y042751D01*
X004120Y042751D01*
X004123Y042748D01*
X004123Y038061D01*
X003873Y037811D01*
X003248Y037811D01*
X003185Y037811D01*
X003748Y036437D02*
X003748Y035311D01*
X005185Y037811D02*
X005185Y037872D01*
X006562Y039436D02*
X006623Y039436D01*
X006185Y039873D01*
X006185Y041498D01*
X005498Y041811D02*
X005498Y040061D01*
X007123Y040061D02*
X007998Y040748D01*
X009060Y040748D01*
X009685Y040748D01*
X009748Y040686D01*
X009248Y041498D02*
X010560Y041498D01*
X010573Y041486D01*
X010464Y041486D01*
X010573Y041486D02*
X010623Y041436D01*
X010435Y042373D02*
X010464Y042402D01*
X010498Y042436D01*
X011435Y042436D01*
X010464Y042402D02*
X010464Y042431D01*
X012748Y043936D02*
X012435Y044436D01*
X012435Y045248D01*
X012433Y045251D01*
X012433Y045344D01*
X012373Y045404D01*
X012748Y045344D02*
X012748Y044498D01*
X013185Y044061D01*
X013185Y041436D01*
X013060Y041311D01*
X013060Y040811D01*
X013027Y040777D01*
X013063Y040777D01*
X013089Y040777D01*
X013060Y040748D01*
X013060Y040311D01*
X012810Y040061D01*
X012935Y039998D01*
X013378Y039691D02*
X012560Y038873D01*
X011060Y038873D01*
X010560Y038373D01*
X010560Y038373D01*
X012560Y038436D02*
X012560Y038373D01*
X012560Y038436D02*
X013693Y039568D01*
X013693Y040777D01*
X013998Y040811D02*
X013998Y039811D01*
X014185Y039623D01*
X014185Y039248D01*
X014748Y038311D02*
X014748Y036811D01*
X014248Y036311D01*
X013248Y036311D01*
X013248Y036371D01*
X013248Y035251D02*
X011808Y035251D01*
X011748Y035311D01*
X011248Y035311D01*
X013378Y039691D02*
X013378Y040777D01*
X013123Y040811D02*
X013089Y040777D01*
X013027Y040777D02*
X012998Y040748D01*
X012748Y040748D02*
X012748Y041373D01*
X012748Y041748D01*
X012748Y043936D01*
X012748Y045344D02*
X012748Y045998D01*
X012935Y046248D01*
X012998Y048623D02*
X012998Y048645D01*
X013498Y052976D02*
X013498Y054061D01*
X014748Y055311D01*
X014748Y055811D01*
X014697Y055811D01*
X014697Y057112D01*
X014498Y057311D01*
X014441Y057311D01*
X013498Y056311D02*
X013498Y060311D01*
X014498Y060251D02*
X014498Y059561D01*
X015248Y058811D01*
X015248Y055311D01*
X013998Y054061D01*
X013998Y052976D01*
X014498Y052976D02*
X014498Y053811D01*
X015748Y055061D01*
X015748Y055811D01*
X015799Y055811D01*
X015799Y056112D01*
X016248Y056561D01*
X019248Y056561D01*
X017748Y054811D02*
X016248Y054811D01*
X015498Y054061D01*
X015498Y052976D01*
X015998Y052976D02*
X015998Y053811D01*
X016498Y054311D01*
X017248Y054311D01*
X017248Y053811D01*
X016055Y057311D02*
X016055Y058004D01*
X015998Y058061D01*
X015998Y059311D02*
X015998Y059561D01*
X016748Y060311D01*
X016748Y060811D01*
X016248Y061311D01*
X015188Y061371D02*
X014498Y061371D01*
X012748Y058061D02*
X012748Y057311D01*
X012805Y057311D01*
X013498Y056311D02*
X012998Y055811D01*
X012549Y055811D01*
X012498Y055811D01*
X012498Y052976D01*
X011998Y052976D02*
X011998Y059311D01*
X010808Y059311D01*
X010748Y059311D01*
X010248Y060311D02*
X010248Y056311D01*
X009748Y055811D01*
X009299Y055811D01*
X009248Y055811D01*
X009248Y055061D01*
X010498Y053811D01*
X010498Y052976D01*
X009998Y052976D02*
X009998Y053811D01*
X008748Y055061D01*
X008748Y058561D01*
X008248Y059061D01*
X007808Y059311D01*
X006748Y059311D02*
X006688Y059311D01*
X004748Y059311D01*
X003748Y060311D01*
X003748Y061311D01*
X004998Y056311D02*
X005248Y056311D01*
X005748Y055811D01*
X005748Y052311D01*
X004998Y052311D01*
X005748Y052311D02*
X005748Y048311D01*
X006685Y048311D01*
X005748Y048311D02*
X004998Y048311D01*
X004248Y046811D02*
X004248Y050311D01*
X004248Y053811D01*
X004748Y054311D01*
X004998Y054311D01*
X004998Y050311D02*
X004248Y050311D01*
X004248Y046811D02*
X004748Y046311D01*
X004998Y046311D01*
X004998Y046373D01*
X004873Y046248D01*
X003248Y046248D01*
X003248Y043871D01*
X009498Y052976D02*
X009498Y053811D01*
X008248Y055061D01*
X008248Y055811D01*
X008248Y057311D01*
X008248Y057561D01*
X008248Y057311D02*
X007941Y057311D01*
X008197Y055811D02*
X008248Y055811D01*
X009498Y057311D02*
X009498Y058061D01*
X009498Y057311D02*
X009555Y057311D01*
X011191Y057311D02*
X011498Y057561D01*
X011498Y055811D01*
X011498Y052976D01*
X011498Y055811D02*
X011447Y055811D01*
X009688Y059311D02*
X009688Y061311D01*
X015031Y043061D02*
X015685Y043061D01*
X015560Y040748D02*
X015685Y040623D01*
X015685Y039987D01*
X014008Y040777D02*
X014008Y040801D01*
X013998Y040811D01*
X012748Y040777D02*
X012748Y040748D01*
X012748Y040686D01*
D14*
X012935Y039998D03*
X023746Y002000D02*
D99*
X042244Y031685D03*
X041244Y031685D03*
X040244Y031685D03*
X039244Y031685D03*
X038244Y031685D03*
X037244Y031685D03*
X036244Y031685D03*
X035244Y031685D03*
X034244Y031685D03*
X033244Y031685D03*
X032244Y031685D03*
X031244Y031685D03*
X030244Y031685D03*
X029244Y031685D03*
X028244Y031685D03*
X027244Y031685D03*
X026244Y031685D03*
X025244Y031685D03*
D38*
X031244Y028185D03*
X032244Y028185D03*
X033244Y028185D03*
X034244Y028185D03*
D98*
X034114Y022968D03*
X034429Y022968D03*
X034744Y022968D03*
X035059Y022968D03*
X035374Y022968D03*
X035689Y022968D03*
X036004Y022968D03*
X036319Y022968D03*
X033799Y022968D03*
X033484Y022968D03*
X033169Y022968D03*
X033169Y018401D03*
X033484Y018401D03*
X033799Y018401D03*
X034114Y018401D03*
X034429Y018401D03*
X034744Y018401D03*
X035059Y018401D03*
X035374Y018401D03*
X035689Y018401D03*
X036004Y018401D03*
X036319Y018401D03*
D34*
X037027Y019110D03*
X037027Y019425D03*
X037027Y019740D03*
X037027Y020055D03*
X037027Y020370D03*
X037027Y020685D03*
X037027Y021000D03*
X037027Y021315D03*
X037027Y021630D03*
X037027Y021945D03*
X037027Y022260D03*
X032460Y022260D03*
X032460Y021945D03*
X032460Y021630D03*
X032460Y021315D03*
X032460Y021000D03*
X032460Y020685D03*
X032460Y020370D03*
X032460Y020055D03*
X032460Y019740D03*
X032460Y019425D03*
X032460Y019110D03*
D161*
X028244Y018185D03*
X028244Y020185D03*
X028244Y022185D03*
X028244Y024185D03*
X028244Y026185D03*
X028244Y028185D03*
D162*
X032244Y008185D03*
X032244Y007685D03*
X032244Y007185D03*
X032244Y006685D03*
X032244Y006185D03*
X032244Y005685D03*
X032244Y005185D03*
X032244Y004685D03*
X032244Y004185D03*
X032244Y003685D03*
X038244Y003685D03*
X038244Y004185D03*
X038244Y004685D03*
X038244Y005185D03*
X038244Y005685D03*
X038244Y006185D03*
X038244Y006685D03*
X038244Y007185D03*
X038244Y007685D03*
X038244Y008185D03*
D156*
X037431Y010099D03*
X036931Y010099D03*
X036431Y010099D03*
X035931Y010099D03*
X035431Y010099D03*
X034931Y010099D03*
X034431Y010099D03*
X034431Y012146D03*
X034931Y012146D03*
X035431Y012146D03*
X035931Y012146D03*
X036431Y012146D03*
X036931Y012146D03*
X037431Y012146D03*
D83*
X030244Y010685D03*
X030244Y009685D03*
X030244Y008685D03*
X030244Y007685D03*
X030244Y006685D03*
X030244Y005685D03*
X030244Y004685D03*
X030244Y003685D03*
X027244Y003685D03*
X027244Y004685D03*
X027244Y005685D03*
X027244Y006685D03*
X027244Y007685D03*
X027244Y008685D03*
X027244Y009685D03*
X027244Y010685D03*
D21*
X029244Y012685D03*
X029244Y014685D03*
X024744Y006185D03*
X024744Y005185D03*
D121*
X024744Y003185D03*
X024744Y008185D03*
X027244Y012685D03*
X027244Y014685D03*
D118*
X025244Y014685D03*
X025244Y013685D03*
X025244Y015685D03*
X025244Y016685D03*
X025244Y011685D03*
X025244Y010685D03*
X025244Y009685D03*
X030681Y021935D03*
X030681Y022935D03*
X030681Y023935D03*
D85*
X040744Y023685D03*
X040744Y024685D03*
X040744Y025685D03*
X040744Y026685D03*
X041744Y026685D03*
X041744Y025685D03*
X041744Y024685D03*
X041744Y023685D03*
X041744Y022685D03*
X041744Y021685D03*
X041744Y020685D03*
X041744Y019685D03*
X041744Y018685D03*
X041744Y017685D03*
X041744Y016685D03*
X041744Y015685D03*
X041744Y014685D03*
X041744Y013685D03*
X041744Y012685D03*
X041744Y011685D03*
X041744Y010685D03*
X041744Y009685D03*
X041744Y008685D03*
X041744Y007685D03*
X040744Y007685D03*
X040744Y008685D03*
X040744Y009685D03*
X040744Y010685D03*
X040744Y011685D03*
X040744Y012685D03*
X040744Y013685D03*
X040744Y014685D03*
X040744Y015685D03*
X040744Y016685D03*
X040744Y017685D03*
X040744Y018685D03*
X040744Y019685D03*
X040744Y020685D03*
X040744Y021685D03*
X040744Y022685D03*
D63*
X040309Y028435D03*
X041429Y028435D03*
X039054Y028372D03*
X037934Y028372D03*
X028804Y016560D03*
X027684Y016560D03*
D22*
X032744Y013685D03*
X040244Y004685D03*
D11*
X042244Y004685D03*
X030744Y013685D03*
D126*
X034193Y025185D03*
X035295Y025185D03*
D84*
X035444Y016122D03*
X033544Y016122D03*
D39*
X042244Y004622D02*
X041306Y003685D01*
X038306Y003685D01*
X033119Y003685D01*
X032994Y003685D02*
X032994Y008185D01*
X032931Y008185D01*
X032244Y008185D01*
X032244Y003685D02*
X032994Y003685D01*
X038244Y003685D02*
X038306Y003685D01*
X038244Y005685D02*
X040244Y005685D01*
X040244Y004685D01*
X042244Y004685D02*
X042244Y004622D01*
X042619Y006185D02*
X038244Y006185D01*
X038244Y006685D02*
X042681Y006685D01*
X043119Y006685D01*
X040744Y007685D02*
X038744Y007685D01*
X038744Y008185D01*
X038244Y008185D01*
X038244Y007685D02*
X038744Y007685D01*
X037619Y013122D02*
X037181Y014685D01*
X029556Y018185D02*
X028244Y018185D01*
X028244Y020185D02*
X029556Y020185D01*
X029556Y022185D02*
X029556Y022310D01*
X029556Y022185D02*
X028244Y022185D01*
X028306Y022122D01*
X028244Y022185D02*
X028244Y022185D01*
X028244Y024122D02*
X029556Y024122D01*
X028306Y024185D02*
X028244Y024247D01*
X028244Y024185D02*
X028244Y024122D01*
X028244Y024185D02*
X028306Y024185D01*
X028306Y026122D02*
X028306Y026247D01*
X028306Y026310D01*
X028306Y026247D02*
X028244Y026247D01*
X028306Y026247D02*
X029619Y026247D01*
D128*
X030556Y026810D02*
X031494Y025872D01*
X035306Y025872D01*
X035306Y025185D01*
X035295Y025185D01*
X035295Y024299D01*
X035056Y024060D01*
X035056Y022997D01*
X035059Y022995D01*
X035059Y022968D01*
X035059Y019937D01*
X034744Y019622D01*
X034744Y018372D01*
X034744Y015122D01*
X034806Y015122D01*
X034744Y015122D02*
X033556Y015122D01*
X032744Y014310D01*
X032744Y013622D01*
X032806Y013560D01*
X032744Y013622D02*
X032744Y013685D01*
X032744Y011435D01*
X031744Y010435D01*
X031744Y010247D01*
X028306Y010247D01*
X027869Y010685D01*
X027244Y010685D01*
X027244Y012622D02*
X027244Y012685D01*
X027244Y013247D01*
X027681Y013685D01*
X029244Y013685D01*
X030744Y013685D01*
X031494Y014435D01*
X032306Y014435D01*
X033306Y015435D01*
X034369Y015435D01*
X034431Y015497D01*
X034431Y018399D01*
X034429Y018401D01*
X034429Y018432D01*
X034431Y018435D01*
X034431Y019810D01*
X034744Y020122D01*
X034744Y022968D01*
X034710Y022968D01*
X034681Y022997D01*
X034744Y023060D01*
X034744Y023997D01*
X034193Y024549D01*
X034193Y025185D01*
X033994Y024310D02*
X034431Y023872D01*
X034431Y022997D01*
X034402Y022968D01*
X034429Y022968D01*
X034402Y022968D02*
X034369Y022935D01*
X034119Y022973D02*
X034119Y023497D01*
X034056Y023560D01*
X033681Y023560D01*
X033494Y023685D01*
X033869Y024185D02*
X033994Y024310D01*
X034119Y022973D02*
X034114Y022968D01*
X033799Y022968D02*
X033799Y022505D01*
X034369Y021935D01*
X034369Y020247D01*
X033931Y019810D01*
X033931Y019310D01*
X033799Y018401D02*
X033806Y018394D01*
X033806Y017872D01*
X033556Y017622D01*
X034119Y017560D02*
X034119Y018397D01*
X034114Y018401D01*
X034744Y018372D02*
X034744Y018401D01*
X035056Y018435D02*
X035056Y017685D01*
X035119Y017622D01*
X035119Y017560D01*
X035806Y016872D01*
X037681Y016872D01*
X038119Y017060D02*
X037806Y017372D01*
X035681Y017372D01*
X035374Y017680D01*
X035374Y018401D01*
X035059Y018401D02*
X035059Y018432D01*
X035056Y018435D01*
X035689Y018401D02*
X035689Y017872D01*
X035744Y017872D01*
X035744Y017685D01*
X037869Y017685D01*
X038369Y017185D01*
X038369Y014435D01*
X039244Y013560D01*
X039244Y011185D01*
X039806Y010622D01*
X039806Y009685D01*
X040244Y009185D01*
X041181Y009185D01*
X041744Y008685D01*
X041744Y008685D01*
X041306Y008185D02*
X041744Y007747D01*
X041744Y007685D01*
X041306Y008185D02*
X040494Y008185D01*
X039556Y009122D01*
X039556Y010435D01*
X038931Y011060D01*
X038931Y013497D01*
X038119Y014310D01*
X038119Y017060D01*
X038681Y017310D02*
X038681Y014497D01*
X039494Y013685D01*
X039494Y011497D01*
X040181Y010747D01*
X040181Y010185D01*
X041744Y010185D01*
X041744Y009685D01*
X041744Y009622D01*
X041744Y010685D02*
X041744Y011185D01*
X040369Y011185D01*
X039744Y011810D01*
X039744Y013810D01*
X038931Y014685D01*
X038931Y017560D01*
X038869Y017560D01*
X037931Y018435D01*
X036352Y018435D01*
X036319Y018401D01*
X036004Y018401D02*
X035994Y018392D01*
X035994Y017997D01*
X036056Y017935D01*
X036556Y017935D01*
X037119Y017935D01*
X037369Y017935D01*
X037994Y017935D01*
X038681Y017310D01*
X039181Y017685D02*
X039181Y014747D01*
X039931Y013997D01*
X039931Y012185D01*
X041556Y012185D01*
X041744Y011935D01*
X041744Y011685D01*
X041744Y011622D01*
X041744Y012685D02*
X041744Y012935D01*
X041556Y013185D01*
X040181Y013185D01*
X040181Y014060D01*
X039431Y014810D01*
X039431Y017810D01*
X037806Y019435D01*
X037080Y019435D01*
X037027Y019425D01*
X037040Y019122D02*
X037744Y019122D01*
X039181Y017685D01*
X039681Y017997D02*
X039681Y014872D01*
X040369Y014185D01*
X041556Y014185D01*
X041744Y013935D01*
X041744Y013685D01*
X041744Y014685D02*
X041744Y014935D01*
X041494Y015185D01*
X040056Y015185D01*
X039931Y015310D01*
X039931Y018185D01*
X038056Y020060D01*
X037032Y020060D01*
X037027Y020055D01*
X037035Y019747D02*
X037931Y019747D01*
X039681Y017997D01*
X040306Y017185D02*
X041556Y017185D01*
X041744Y016997D01*
X041744Y016685D01*
X041306Y016122D02*
X041744Y015685D01*
X041306Y016122D02*
X040431Y016122D01*
X040244Y016310D01*
X040306Y016185D01*
X041744Y017685D02*
X042056Y017997D01*
X042869Y017997D01*
X042869Y029747D01*
X042744Y029872D01*
X039556Y029872D01*
X039056Y029372D01*
X039056Y028372D01*
X039054Y028372D01*
X039054Y028372D01*
X039744Y028435D02*
X040309Y028435D01*
X040431Y028435D01*
X039744Y028435D02*
X039744Y027747D01*
X039556Y027560D01*
X037181Y027560D01*
X037056Y027435D01*
X036744Y027185D02*
X036556Y027372D01*
X035744Y027372D01*
X035494Y027122D01*
X035494Y027185D01*
X036306Y026997D02*
X037244Y025810D01*
X039494Y025810D01*
X039619Y025685D01*
X040744Y025685D01*
X040181Y026122D02*
X037431Y026122D01*
X036744Y026810D01*
X036744Y027185D01*
X036244Y026622D02*
X033681Y026622D01*
X033244Y027060D01*
X033244Y028185D01*
X032244Y028185D02*
X032244Y028185D01*
X032244Y026747D01*
X032619Y026372D01*
X036181Y026372D01*
X036994Y025247D01*
X039119Y025247D01*
X039431Y024935D01*
X039431Y024935D01*
X039931Y024435D01*
X039931Y022185D01*
X040306Y022185D01*
X041056Y022185D01*
X041306Y021935D01*
X041306Y021310D01*
X041744Y020872D01*
X041744Y020685D01*
X041244Y020872D02*
X040994Y021122D01*
X040119Y021122D01*
X039681Y021685D01*
X039681Y024310D01*
X038994Y024997D01*
X036869Y024997D01*
X036056Y026122D01*
X031869Y026122D01*
X031244Y026747D01*
X031244Y028185D01*
X031244Y028247D01*
X032181Y028247D02*
X032244Y028185D01*
X032244Y028185D01*
X030556Y026810D02*
X030556Y031372D01*
X030244Y031685D01*
X030181Y031685D01*
X030181Y031435D01*
X029806Y031060D01*
X027306Y031060D01*
X027306Y031622D01*
X027244Y031685D01*
X027619Y029872D02*
X025681Y029872D01*
X025306Y030247D01*
X025306Y031622D01*
X025244Y031685D01*
X030056Y028185D02*
X030056Y023935D01*
X030681Y023935D01*
X030681Y022935D02*
X033135Y022935D01*
X033169Y022968D01*
X032460Y022260D02*
X032448Y022247D01*
X031869Y022247D01*
X031619Y021997D01*
X031619Y015560D01*
X031056Y014997D01*
X030744Y014997D01*
X030681Y015435D02*
X030244Y015435D01*
X030681Y015435D02*
X031369Y016122D01*
X031369Y021247D01*
X030681Y021935D01*
X031864Y020055D02*
X031806Y019935D01*
X031806Y015185D01*
X032181Y015622D02*
X031994Y015810D01*
X031994Y019747D01*
X032001Y019740D01*
X032460Y019740D01*
X032460Y020055D02*
X031864Y020055D01*
X032463Y020997D02*
X033119Y020997D01*
X033306Y021185D01*
X033181Y021060D01*
X032931Y021310D02*
X033369Y021747D01*
X033556Y021747D01*
X033806Y021497D01*
X033806Y021310D01*
X033869Y021247D01*
X032931Y021310D02*
X032465Y021310D01*
X032460Y021315D01*
X032460Y021000D02*
X032463Y020997D01*
X035374Y022968D02*
X035374Y023752D01*
X036244Y024622D01*
X038869Y024622D01*
X039431Y024060D01*
X039431Y021372D01*
X039994Y020685D01*
X040681Y020685D01*
X040744Y020622D01*
X040744Y020685D01*
X041244Y020872D02*
X041244Y020060D01*
X041619Y019685D01*
X041744Y019685D01*
X042619Y019247D02*
X042056Y018685D01*
X041744Y018685D01*
X041681Y018685D01*
X042619Y019247D02*
X042619Y028372D01*
X042556Y028435D01*
X041429Y028435D01*
X040744Y026685D02*
X040181Y026122D01*
X039431Y025497D02*
X037181Y025497D01*
X036244Y026622D01*
X036681Y027997D02*
X037056Y028372D01*
X037934Y028372D01*
X037934Y028372D01*
X039431Y025497D02*
X040244Y024685D01*
X040244Y023185D01*
X041056Y023185D01*
X041306Y022935D01*
X041306Y022310D01*
X041744Y021872D01*
X041744Y021685D01*
X040744Y019685D02*
X039931Y019685D01*
X039181Y020685D01*
X039181Y023810D01*
X038681Y024310D01*
X036306Y024310D01*
X035681Y023685D01*
X035681Y022935D01*
X035689Y022942D01*
X035689Y022968D01*
X036004Y022968D02*
X036004Y023570D01*
X036431Y023997D01*
X038431Y023997D01*
X038806Y023622D01*
X038806Y022685D01*
X038806Y022685D01*
X038431Y023372D02*
X038431Y021872D01*
X038494Y021685D01*
X037994Y021497D02*
X037931Y021497D01*
X037744Y021310D01*
X037056Y021310D01*
X037051Y021315D01*
X037027Y021315D01*
X037056Y021622D02*
X037556Y021622D01*
X037931Y021997D01*
X037931Y023060D01*
X038431Y023372D02*
X038119Y023685D01*
X036619Y023685D01*
X036319Y023385D01*
X036319Y022968D01*
X037027Y021630D02*
X037049Y021630D01*
X037056Y021622D01*
X037027Y021000D02*
X036309Y021000D01*
X036306Y020997D01*
X036244Y020372D02*
X036246Y020370D01*
X037027Y020370D01*
X037027Y020685D02*
X035681Y020685D01*
X037027Y019740D02*
X037035Y019747D01*
X037040Y019122D02*
X037027Y019110D01*
X037806Y014122D02*
X037994Y013997D01*
X038619Y013372D01*
X038619Y010872D01*
X039244Y010247D01*
X039244Y009247D01*
X039119Y009122D01*
X037431Y010099D02*
X037431Y010622D01*
X037244Y010810D01*
X037244Y011247D01*
X036931Y011122D02*
X036369Y011122D01*
X036431Y011122D01*
X036431Y010099D01*
X036431Y011122D01*
X036369Y011122D01*
X035931Y011122D01*
X035931Y012146D01*
X036119Y012997D02*
X034869Y014247D01*
X033556Y014247D01*
X034931Y012146D02*
X034931Y011122D01*
X035431Y011122D01*
X035931Y011122D01*
X035431Y011122D02*
X035431Y010099D01*
X034931Y011122D02*
X034431Y011122D01*
X034431Y010099D01*
X034431Y008185D01*
X032994Y008185D01*
X033744Y008185D01*
X031744Y010247D02*
X031744Y004185D01*
X032244Y004185D01*
X031119Y005122D02*
X031056Y005185D01*
X028181Y005185D01*
X027681Y005685D01*
X027244Y005685D01*
X027244Y006685D02*
X028869Y006685D01*
X029431Y006122D01*
X031306Y006122D01*
X031369Y006060D01*
X030306Y005622D02*
X030244Y005685D01*
X030244Y005685D01*
X030244Y005685D01*
X029431Y005685D01*
X028931Y006185D01*
X024744Y006185D01*
X024744Y008185D02*
X025244Y008685D01*
X025244Y009685D01*
X027181Y006685D02*
X027244Y006685D01*
X025244Y013622D02*
X025306Y013685D01*
X025931Y013685D01*
X026494Y014247D01*
X026494Y015685D01*
X025994Y016685D02*
X025244Y016685D01*
X025244Y016685D01*
X025181Y016747D01*
X025994Y016685D02*
X026681Y017372D01*
X028681Y017372D01*
X028804Y017250D01*
X028804Y016560D01*
X028804Y016500D01*
X028806Y016497D01*
X028869Y016560D01*
X030306Y016560D01*
X027994Y015872D02*
X027684Y016182D01*
X027684Y016560D01*
X025244Y013685D02*
X025244Y013622D01*
X036994Y013685D02*
X036994Y012997D01*
X037431Y012560D01*
X037431Y012146D01*
X036931Y012146D02*
X036931Y011122D01*
X036931Y010099D02*
X036931Y004685D01*
X037431Y004185D01*
X038244Y004185D01*
X038244Y004685D02*
X038181Y004747D01*
X038244Y004685D02*
X039119Y004685D01*
X038244Y004685D02*
X038244Y004685D01*
X038244Y005185D02*
X038181Y005185D01*
X038119Y005247D01*
X037681Y005247D01*
X037494Y005435D01*
X037494Y005497D01*
X037431Y005560D01*
X037431Y010099D01*
X038181Y006685D02*
X038244Y006685D01*
D108*
X036369Y011122D02*
X036369Y011122D01*
X032931Y008185D02*
X032931Y003747D01*
X033119Y003747D01*
X033119Y003685D01*
X028306Y028185D02*
X028244Y028185D01*
X028244Y030435D01*
X042244Y030435D01*
X042244Y031685D01*
D32*
X037056Y027435D03*
X036681Y027997D03*
X036306Y026997D03*
X033869Y024185D03*
X033494Y023685D03*
X033869Y021247D03*
X033181Y021060D03*
X033931Y019310D03*
X033556Y017622D03*
X034119Y017560D03*
X032181Y015622D03*
X031806Y015185D03*
X030744Y014997D03*
X030244Y015435D03*
X030306Y016560D03*
X029556Y018185D03*
X029556Y020185D03*
X029556Y022247D03*
X029556Y024122D03*
X029619Y026247D03*
X030056Y028185D03*
X027619Y029872D03*
X035681Y020685D03*
X036244Y020372D03*
X036306Y020997D03*
X037994Y021497D03*
X038494Y021685D03*
X038806Y022685D03*
X037931Y023060D03*
X040306Y017185D03*
X040306Y016185D03*
X037806Y014122D03*
X037181Y014685D03*
X036994Y013685D03*
X037619Y013122D03*
X037244Y011247D03*
X036119Y012997D03*
X033556Y014247D03*
X037681Y016872D03*
X039119Y009122D03*
X039119Y004685D03*
X031369Y006060D03*
X031119Y005122D03*
X026494Y015685D03*
D57*
X026744Y016185D02*
X029244Y013685D01*
X030744Y013685D02*
X032244Y012185D01*
X028244Y018185D02*
X028244Y020185D01*
X028244Y022185D01*
X028244Y024185D01*
X028244Y026185D02*
X028306Y026247D01*
X032744Y025185D02*
X034193Y025185D01*
X034244Y025185D01*
X035244Y031685D02*
X036244Y031685D01*
X037244Y031685D01*
X038244Y031685D01*
X039244Y031685D01*
X040244Y031685D01*
X041244Y031685D01*
X027244Y012685D02*
X026244Y012685D01*
X026244Y009685D01*
X025244Y009685D01*
X026244Y009685D02*
X027244Y009685D01*
X025744Y015685D02*
X025244Y015685D01*
X025744Y015685D02*
X026244Y016185D01*
X026744Y016185D01*
D16*
X032244Y012185D03*
X032744Y025185D03*
D14*
X035494Y027185D03*
X027994Y015872D03*
X042619Y006185D03*
X043119Y006685D03*
X023746Y033620D02*
D98*
X036069Y041277D03*
X035754Y041277D03*
X035439Y041277D03*
X035124Y041277D03*
X034809Y041277D03*
X034494Y041277D03*
X034179Y041277D03*
X033864Y041277D03*
X033549Y041277D03*
X033234Y041277D03*
X032919Y041277D03*
X032919Y045844D03*
X033234Y045844D03*
X033549Y045844D03*
X033864Y045844D03*
X034179Y045844D03*
X034494Y045844D03*
X034809Y045844D03*
X035124Y045844D03*
X035439Y045844D03*
X035754Y045844D03*
X036069Y045844D03*
D34*
X036777Y045136D03*
X036777Y044821D03*
X036777Y044506D03*
X036777Y044191D03*
X036777Y043876D03*
X036777Y043561D03*
X036777Y043246D03*
X036777Y042931D03*
X036777Y042616D03*
X036777Y042301D03*
X036777Y041986D03*
X032210Y041986D03*
X032210Y042301D03*
X032210Y042616D03*
X032210Y042931D03*
X032210Y043246D03*
X032210Y043561D03*
X032210Y043876D03*
X032210Y044191D03*
X032210Y044506D03*
X032210Y044821D03*
X032210Y045136D03*
D84*
X032306Y038873D03*
X034306Y038873D03*
D156*
X034244Y049145D03*
X034744Y049145D03*
X035244Y049145D03*
X035744Y049145D03*
X036244Y049145D03*
X036744Y049145D03*
X037244Y049145D03*
X037744Y049145D03*
X037744Y053476D03*
X037244Y053476D03*
X036744Y053476D03*
X036244Y053476D03*
X035744Y053476D03*
X035244Y053476D03*
X034744Y053476D03*
X034244Y053476D03*
X033744Y053476D03*
X033244Y053476D03*
X032744Y053476D03*
X032244Y053476D03*
X031744Y053476D03*
X031244Y053476D03*
X031244Y049145D03*
X031744Y049145D03*
X032244Y049145D03*
X032744Y049145D03*
X033244Y049145D03*
X033744Y049145D03*
D63*
X032554Y059811D03*
X031434Y059811D03*
X029554Y059811D03*
X028434Y059811D03*
D115*
X029869Y051808D03*
X029869Y050689D03*
X024994Y044371D03*
X024994Y043251D03*
X028994Y036871D03*
X028994Y035751D03*
X034994Y035751D03*
X034994Y036871D03*
X039494Y038251D03*
X039494Y039371D03*
X036244Y060751D03*
X036244Y061871D03*
D86*
X037431Y040487D03*
X037431Y039385D03*
D83*
X026744Y046811D03*
X026744Y048811D03*
X026744Y050811D03*
X026744Y052811D03*
X026744Y054811D03*
X026744Y056811D03*
X024744Y055811D03*
X024744Y051811D03*
X024744Y047811D03*
D157*
X029687Y057811D03*
X031301Y057811D03*
X032937Y057811D03*
X034551Y057811D03*
X036187Y057811D03*
X037801Y057811D03*
D22*
X041994Y062311D03*
X042056Y037311D03*
D11*
X042056Y035311D03*
X041994Y060311D03*
D126*
X037545Y056311D03*
X036443Y056311D03*
X034295Y056311D03*
X033193Y056311D03*
X031045Y056311D03*
X029943Y056311D03*
X034505Y047311D03*
X035607Y047311D03*
D118*
X042494Y047311D03*
X042494Y048311D03*
X042494Y049311D03*
X042494Y050311D03*
X042494Y051311D03*
X042494Y052311D03*
X042494Y053311D03*
X042494Y054311D03*
X042494Y055311D03*
X042494Y056311D03*
X042494Y057311D03*
X042494Y058311D03*
X042494Y046311D03*
X042494Y045311D03*
X042494Y044311D03*
X042494Y043311D03*
X042494Y042311D03*
X042494Y041311D03*
X042494Y040311D03*
X042494Y039311D03*
X024994Y039311D03*
X024994Y040311D03*
X024994Y041311D03*
X024994Y038311D03*
D106*
X026930Y038373D03*
X026930Y039936D03*
X028308Y039936D03*
X028308Y038373D03*
D102*
X027494Y035811D03*
X026494Y035811D03*
X025494Y035811D03*
X030994Y035811D03*
X031994Y035811D03*
X032994Y035811D03*
X036994Y035811D03*
X037994Y035811D03*
X038994Y035811D03*
X038994Y061811D03*
X037994Y061811D03*
X036994Y061811D03*
X033494Y061811D03*
X032494Y061811D03*
X031494Y061811D03*
X027494Y061811D03*
X026494Y061811D03*
X025494Y061811D03*
D39*
X028994Y063311D02*
X028994Y049686D01*
X029869Y049686D01*
X031244Y049686D01*
X031244Y049145D01*
X035244Y049145D02*
X035244Y049748D01*
X035994Y050373D01*
X036744Y050373D01*
X037244Y050373D01*
X040619Y050373D01*
X041556Y051311D01*
X041556Y052623D01*
X042494Y051311D02*
X042994Y051311D01*
X043494Y051811D01*
X043494Y060811D01*
X041994Y062311D01*
X041556Y055311D02*
X042494Y055311D01*
X042494Y041311D02*
X039994Y041311D01*
X040494Y040311D02*
X042494Y040311D01*
X042494Y039311D02*
X040994Y039311D01*
D32*
X040994Y039311D03*
X040494Y040311D03*
X039994Y041311D03*
X038494Y041561D03*
X038119Y042248D03*
X038119Y043311D03*
X037931Y044311D03*
X037994Y045311D03*
X037931Y046123D03*
X036994Y046998D03*
X036494Y047248D03*
X036556Y047998D03*
X038494Y049061D03*
X041556Y052623D03*
X041556Y055311D03*
X040994Y057061D03*
X039494Y055311D03*
X038994Y054311D03*
X037744Y058561D03*
X037744Y059811D03*
X035244Y060811D03*
X034494Y058561D03*
X031994Y060811D03*
X031244Y058561D03*
X028994Y063311D03*
X030494Y048061D03*
X030494Y047311D03*
X030619Y046623D03*
X030744Y045686D03*
X031619Y045686D03*
X032369Y045873D03*
X033181Y042936D03*
X034494Y042248D03*
X035806Y042248D03*
X035806Y042936D03*
X037306Y041248D03*
X035931Y039748D03*
X036494Y038811D03*
X031494Y041186D03*
X030994Y041998D03*
X030619Y040436D03*
X029994Y039936D03*
X029306Y039436D03*
X028869Y040561D03*
X027931Y041998D03*
X027244Y042311D03*
X026681Y043686D03*
X026056Y044061D03*
X027619Y045123D03*
X027994Y046123D03*
X030244Y037311D03*
D128*
X028994Y037311D01*
X028994Y036871D01*
X028994Y036811D01*
X028994Y035751D02*
X027554Y035751D01*
X025494Y036937D02*
X026930Y038373D01*
X026931Y038372D01*
X026931Y039934D01*
X026930Y039936D01*
X027244Y040561D02*
X027681Y040123D01*
X027681Y038811D01*
X028119Y038373D01*
X028308Y038373D01*
X029306Y039436D02*
X030244Y039436D01*
X030431Y039623D01*
X032806Y039623D01*
X033864Y040681D01*
X033864Y041277D01*
X033549Y041277D02*
X033549Y040741D01*
X032806Y039998D01*
X030056Y039998D01*
X029994Y039936D01*
X030619Y040436D02*
X032806Y040436D01*
X033234Y040863D01*
X033234Y041277D01*
X032919Y041277D02*
X032919Y041198D01*
X032931Y041186D01*
X032931Y042061D01*
X033681Y042561D01*
X033681Y043686D01*
X032994Y044373D01*
X032994Y044998D01*
X032369Y045623D01*
X032369Y045873D01*
X032919Y045844D02*
X032931Y045832D01*
X032931Y048123D01*
X032744Y048311D01*
X032744Y049145D01*
X032244Y049145D02*
X032244Y048186D01*
X031619Y047561D01*
X031619Y045686D01*
X030744Y045686D02*
X030744Y044436D01*
X030994Y044186D01*
X032205Y044186D01*
X032210Y044191D01*
X032210Y044506D02*
X032244Y044539D01*
X032244Y044561D01*
X031244Y044561D01*
X031244Y047811D01*
X031744Y048311D01*
X031744Y049145D01*
X032244Y049145D02*
X032244Y049186D01*
X033244Y049145D02*
X033244Y045854D01*
X033234Y045844D01*
X032931Y045832D02*
X032931Y045811D01*
X033549Y045844D02*
X033556Y045899D01*
X033556Y048123D01*
X033744Y048373D01*
X033744Y049145D01*
X034244Y049145D02*
X034244Y048373D01*
X033869Y047998D01*
X033869Y045849D01*
X033864Y045844D01*
X034119Y045904D02*
X034119Y047311D01*
X034505Y047311D01*
X034681Y046748D02*
X035619Y046748D01*
X035619Y047299D01*
X035607Y047311D01*
X035607Y047424D01*
X035619Y047436D01*
X036181Y047998D01*
X036556Y047998D01*
X036494Y047248D02*
X036306Y047248D01*
X036306Y046498D01*
X035439Y046498D01*
X035439Y045844D01*
X035754Y045844D02*
X035754Y046311D01*
X036556Y046311D01*
X036556Y046561D01*
X036994Y046998D01*
X037431Y046436D02*
X038306Y047311D01*
X039056Y047311D01*
X038994Y047311D01*
X039056Y047311D02*
X042494Y047311D01*
X042494Y048311D02*
X038931Y048311D01*
X036869Y046248D01*
X036869Y045998D01*
X035806Y044936D01*
X035806Y042936D01*
X035806Y042248D02*
X036556Y041498D01*
X036556Y039936D01*
X037107Y039385D01*
X037380Y039385D01*
X037431Y039385D01*
X037380Y039385D02*
X037369Y039373D01*
X037869Y038873D01*
X041994Y038873D01*
X042056Y037311D01*
X039494Y038251D02*
X039494Y036311D01*
X038994Y035811D01*
X039494Y038251D02*
X039494Y038311D01*
X039494Y039371D02*
X039494Y040561D01*
X038494Y041561D01*
X038119Y042248D02*
X037994Y042311D01*
X036787Y042311D01*
X036777Y042301D01*
X036777Y042616D02*
X036785Y042623D01*
X038681Y042623D01*
X038994Y042311D01*
X042494Y042311D01*
X042494Y043311D02*
X038119Y043311D01*
X037431Y043561D02*
X037431Y046436D01*
X037931Y046123D02*
X038119Y046311D01*
X042494Y046311D01*
X042494Y045311D02*
X037994Y045311D01*
X037931Y044311D02*
X042494Y044311D01*
X038494Y049061D02*
X037744Y049061D01*
X037744Y049145D01*
X037244Y049145D02*
X037244Y050373D01*
X037244Y050373D01*
X036744Y050373D02*
X036744Y049145D01*
X035619Y047873D02*
X035619Y047436D01*
X035619Y047322D01*
X035607Y047311D01*
X035619Y047873D02*
X035244Y048248D01*
X035244Y049145D01*
X034744Y049145D02*
X034744Y051811D01*
X029871Y051811D01*
X029869Y051808D01*
X029869Y050689D02*
X029869Y049686D01*
X029869Y049686D01*
X028431Y048811D02*
X029181Y048061D01*
X030494Y048061D01*
X030494Y047311D02*
X029181Y047311D01*
X027994Y046123D01*
X027619Y045123D02*
X029119Y046623D01*
X030619Y046623D01*
X032210Y043876D02*
X027056Y043873D01*
X026934Y043998D01*
X026871Y044063D01*
X026056Y044061D01*
X026681Y043686D02*
X027056Y043561D01*
X032210Y043561D01*
X032210Y043246D02*
X025054Y043246D01*
X024994Y043186D01*
X024994Y043251D01*
X025866Y043251D01*
X025869Y043248D01*
X025869Y038561D01*
X025619Y038311D01*
X024994Y038311D01*
X024931Y038311D01*
X025494Y036937D02*
X025494Y035811D01*
X026931Y038311D02*
X026931Y038372D01*
X028308Y039936D02*
X028369Y039936D01*
X027931Y040373D01*
X027931Y041998D01*
X027244Y042311D02*
X027244Y040561D01*
X028869Y040561D02*
X029744Y041248D01*
X030806Y041248D01*
X031431Y041248D01*
X031494Y041186D01*
X030994Y041998D02*
X032306Y041998D01*
X032319Y041986D01*
X032210Y041986D01*
X032319Y041986D02*
X032369Y041936D01*
X032181Y042873D02*
X032210Y042902D01*
X032244Y042936D01*
X033181Y042936D01*
X032210Y042902D02*
X032210Y042931D01*
X034494Y044436D02*
X034181Y044936D01*
X034181Y045748D01*
X034179Y045751D01*
X034179Y045844D01*
X034119Y045904D01*
X034494Y045844D02*
X034494Y044998D01*
X034931Y044561D01*
X034931Y041936D01*
X034806Y041811D01*
X034806Y041311D01*
X034773Y041277D01*
X034809Y041277D01*
X034835Y041277D01*
X034806Y041248D01*
X034806Y040811D01*
X034556Y040561D01*
X034681Y040498D01*
X035124Y040191D02*
X034306Y039373D01*
X032806Y039373D01*
X032306Y038873D01*
X032306Y038873D01*
X034306Y038936D02*
X034306Y038873D01*
X034306Y038936D02*
X035439Y040068D01*
X035439Y041277D01*
X035744Y041311D02*
X035744Y040311D01*
X035931Y040123D01*
X035931Y039748D01*
X036494Y038811D02*
X036494Y037311D01*
X035994Y036811D01*
X034994Y036811D01*
X034994Y036871D01*
X034994Y035751D02*
X033554Y035751D01*
X033494Y035811D01*
X032994Y035811D01*
X035124Y040191D02*
X035124Y041277D01*
X034869Y041311D02*
X034835Y041277D01*
X034773Y041277D02*
X034744Y041248D01*
X034494Y041248D02*
X034494Y041873D01*
X034494Y042248D01*
X034494Y044436D01*
X034494Y045844D02*
X034494Y046498D01*
X034681Y046748D01*
X034744Y049123D02*
X034744Y049145D01*
X035244Y053476D02*
X035244Y054561D01*
X036494Y055811D01*
X036494Y056311D01*
X036443Y056311D01*
X036443Y057612D01*
X036244Y057811D01*
X036187Y057811D01*
X035244Y056811D02*
X035244Y060811D01*
X036244Y060751D02*
X036244Y060061D01*
X036994Y059311D01*
X036994Y055811D01*
X035744Y054561D01*
X035744Y053476D01*
X036244Y053476D02*
X036244Y054311D01*
X037494Y055561D01*
X037494Y056311D01*
X037545Y056311D01*
X037545Y056612D01*
X037994Y057061D01*
X040994Y057061D01*
X039494Y055311D02*
X037994Y055311D01*
X037244Y054561D01*
X037244Y053476D01*
X037744Y053476D02*
X037744Y054311D01*
X038244Y054811D01*
X038994Y054811D01*
X038994Y054311D01*
X037801Y057811D02*
X037801Y058504D01*
X037744Y058561D01*
X037744Y059811D02*
X037744Y060061D01*
X038494Y060811D01*
X038494Y061311D01*
X037994Y061811D01*
X036934Y061871D02*
X036244Y061871D01*
X034494Y058561D02*
X034494Y057811D01*
X034551Y057811D01*
X035244Y056811D02*
X034744Y056311D01*
X034295Y056311D01*
X034244Y056311D01*
X034244Y053476D01*
X033744Y053476D02*
X033744Y059811D01*
X032554Y059811D01*
X032494Y059811D01*
X031994Y060811D02*
X031994Y056811D01*
X031494Y056311D01*
X031045Y056311D01*
X030994Y056311D01*
X030994Y055561D01*
X032244Y054311D01*
X032244Y053476D01*
X031744Y053476D02*
X031744Y054311D01*
X030494Y055561D01*
X030494Y059061D01*
X029994Y059561D01*
X029554Y059811D01*
X028494Y059811D02*
X028434Y059811D01*
X026494Y059811D01*
X025494Y060811D01*
X025494Y061811D01*
X026744Y056811D02*
X026994Y056811D01*
X027494Y056311D01*
X027494Y052811D01*
X026744Y052811D01*
X027494Y052811D02*
X027494Y048811D01*
X028431Y048811D01*
X027494Y048811D02*
X026744Y048811D01*
X025994Y047311D02*
X025994Y050811D01*
X025994Y054311D01*
X026494Y054811D01*
X026744Y054811D01*
X026744Y050811D02*
X025994Y050811D01*
X025994Y047311D02*
X026494Y046811D01*
X026744Y046811D01*
X026744Y046873D01*
X026619Y046748D01*
X024994Y046748D01*
X024994Y044371D01*
X031244Y053476D02*
X031244Y054311D01*
X029994Y055561D01*
X029994Y056311D01*
X029994Y057811D01*
X029994Y058061D01*
X029994Y057811D02*
X029687Y057811D01*
X029943Y056311D02*
X029994Y056311D01*
X031244Y057811D02*
X031244Y058561D01*
X031244Y057811D02*
X031301Y057811D01*
X032937Y057811D02*
X033244Y058061D01*
X033244Y056311D01*
X033244Y053476D01*
X033244Y056311D02*
X033193Y056311D01*
X031434Y059811D02*
X031434Y061811D01*
X036777Y043561D02*
X037431Y043561D01*
X037306Y041248D02*
X037431Y041123D01*
X037431Y040487D01*
X035754Y041277D02*
X035754Y041301D01*
X035744Y041311D01*
X034494Y041277D02*
X034494Y041248D01*
X034494Y041186D01*
D14*
X034681Y040498D03*
X044742Y002000D02*
D98*
X057065Y009657D03*
X056750Y009657D03*
X056435Y009657D03*
X056120Y009657D03*
X055805Y009657D03*
X055490Y009657D03*
X055175Y009657D03*
X054860Y009657D03*
X054545Y009657D03*
X054230Y009657D03*
X053915Y009657D03*
X053915Y014224D03*
X054230Y014224D03*
X054545Y014224D03*
X054860Y014224D03*
X055175Y014224D03*
X055490Y014224D03*
X055805Y014224D03*
X056120Y014224D03*
X056435Y014224D03*
X056750Y014224D03*
X057065Y014224D03*
D34*
X057773Y013516D03*
X057773Y013201D03*
X057773Y012886D03*
X057773Y012571D03*
X057773Y012256D03*
X057773Y011941D03*
X057773Y011626D03*
X057773Y011311D03*
X057773Y010996D03*
X057773Y010681D03*
X057773Y010366D03*
X053206Y010366D03*
X053206Y010681D03*
X053206Y010996D03*
X053206Y011311D03*
X053206Y011626D03*
X053206Y011941D03*
X053206Y012256D03*
X053206Y012571D03*
X053206Y012886D03*
X053206Y013201D03*
X053206Y013516D03*
D84*
X053302Y007253D03*
X055302Y007253D03*
D156*
X055240Y017525D03*
X055740Y017525D03*
X056240Y017525D03*
X056740Y017525D03*
X057240Y017525D03*
X057740Y017525D03*
X058240Y017525D03*
X058740Y017525D03*
X058740Y021856D03*
X058240Y021856D03*
X057740Y021856D03*
X057240Y021856D03*
X056740Y021856D03*
X056240Y021856D03*
X055740Y021856D03*
X055240Y021856D03*
X054740Y021856D03*
X054240Y021856D03*
X053740Y021856D03*
X053240Y021856D03*
X052740Y021856D03*
X052240Y021856D03*
X052240Y017525D03*
X052740Y017525D03*
X053240Y017525D03*
X053740Y017525D03*
X054240Y017525D03*
X054740Y017525D03*
D63*
X053550Y028191D03*
X052430Y028191D03*
X050550Y028191D03*
X049430Y028191D03*
D115*
X050865Y020188D03*
X050865Y019069D03*
X045990Y012751D03*
X045990Y011631D03*
X049990Y005251D03*
X049990Y004131D03*
X055990Y004131D03*
X055990Y005251D03*
X060490Y006631D03*
X060490Y007751D03*
X057240Y029131D03*
X057240Y030251D03*
D86*
X058427Y008867D03*
X058427Y007765D03*
D83*
X047740Y015191D03*
X047740Y017191D03*
X047740Y019191D03*
X047740Y021191D03*
X047740Y023191D03*
X047740Y025191D03*
X045740Y024191D03*
X045740Y020191D03*
X045740Y016191D03*
D157*
X050683Y026191D03*
X052297Y026191D03*
X053933Y026191D03*
X055547Y026191D03*
X057183Y026191D03*
X058797Y026191D03*
D22*
X062990Y030691D03*
X063052Y005691D03*
D11*
X063052Y003691D03*
X062990Y028691D03*
D126*
X058541Y024691D03*
X057439Y024691D03*
X055291Y024691D03*
X054189Y024691D03*
X052041Y024691D03*
X050939Y024691D03*
X055501Y015691D03*
X056603Y015691D03*
D118*
X063490Y015691D03*
X063490Y016691D03*
X063490Y017691D03*
X063490Y018691D03*
X063490Y019691D03*
X063490Y020691D03*
X063490Y021691D03*
X063490Y022691D03*
X063490Y023691D03*
X063490Y024691D03*
X063490Y025691D03*
X063490Y026691D03*
X063490Y014691D03*
X063490Y013691D03*
X063490Y012691D03*
X063490Y011691D03*
X063490Y010691D03*
X063490Y009691D03*
X063490Y008691D03*
X063490Y007691D03*
X045990Y007691D03*
X045990Y008691D03*
X045990Y009691D03*
X045990Y006691D03*
D106*
X047926Y006753D03*
X047926Y008316D03*
X049304Y008316D03*
X049304Y006753D03*
D102*
X048490Y004191D03*
X047490Y004191D03*
X046490Y004191D03*
X051990Y004191D03*
X052990Y004191D03*
X053990Y004191D03*
X057990Y004191D03*
X058990Y004191D03*
X059990Y004191D03*
X059990Y030191D03*
X058990Y030191D03*
X057990Y030191D03*
X054490Y030191D03*
X053490Y030191D03*
X052490Y030191D03*
X048490Y030191D03*
X047490Y030191D03*
X046490Y030191D03*
D39*
X049990Y031691D02*
X049990Y018066D01*
X050865Y018066D01*
X052240Y018066D01*
X052240Y017525D01*
X056240Y017525D02*
X056240Y018128D01*
X056990Y018753D01*
X057740Y018753D01*
X058240Y018753D01*
X061615Y018753D01*
X062552Y019691D01*
X062552Y021003D01*
X063490Y019691D02*
X063990Y019691D01*
X064490Y020191D01*
X064490Y029191D01*
X062990Y030691D01*
X062552Y023691D02*
X063490Y023691D01*
X063490Y009691D02*
X060990Y009691D01*
X061490Y008691D02*
X063490Y008691D01*
X063490Y007691D02*
X061990Y007691D01*
D32*
X061990Y007691D03*
X061490Y008691D03*
X060990Y009691D03*
X059490Y009941D03*
X059115Y010628D03*
X059115Y011691D03*
X058927Y012691D03*
X058990Y013691D03*
X058927Y014503D03*
X057990Y015378D03*
X057490Y015628D03*
X057552Y016378D03*
X059490Y017441D03*
X062552Y021003D03*
X062552Y023691D03*
X061990Y025441D03*
X060490Y023691D03*
X059990Y022691D03*
X058740Y026941D03*
X058740Y028191D03*
X056240Y029191D03*
X055490Y026941D03*
X052990Y029191D03*
X052240Y026941D03*
X049990Y031691D03*
X051490Y016441D03*
X051490Y015691D03*
X051615Y015003D03*
X051740Y014066D03*
X052615Y014066D03*
X053365Y014253D03*
X054177Y011316D03*
X055490Y010628D03*
X056802Y010628D03*
X056802Y011316D03*
X058302Y009628D03*
X056927Y008128D03*
X057490Y007191D03*
X052490Y009566D03*
X051990Y010378D03*
X051615Y008816D03*
X050990Y008316D03*
X050302Y007816D03*
X049865Y008941D03*
X048927Y010378D03*
X048240Y010691D03*
X047677Y012066D03*
X047052Y012441D03*
X048615Y013503D03*
X048990Y014503D03*
X051240Y005691D03*
D128*
X049990Y005691D01*
X049990Y005251D01*
X049990Y005191D01*
X049990Y004131D02*
X048550Y004131D01*
X046490Y005317D02*
X047926Y006753D01*
X047927Y006752D01*
X047927Y008314D01*
X047926Y008316D01*
X048240Y008941D02*
X048677Y008503D01*
X048677Y007191D01*
X049115Y006753D01*
X049304Y006753D01*
X050302Y007816D02*
X051240Y007816D01*
X051427Y008003D01*
X053802Y008003D01*
X054860Y009061D01*
X054860Y009657D01*
X054545Y009657D02*
X054545Y009121D01*
X053802Y008378D01*
X051052Y008378D01*
X050990Y008316D01*
X051615Y008816D02*
X053802Y008816D01*
X054230Y009243D01*
X054230Y009657D01*
X053915Y009657D02*
X053915Y009578D01*
X053927Y009566D01*
X053927Y010441D01*
X054677Y010941D01*
X054677Y012066D01*
X053990Y012753D01*
X053990Y013378D01*
X053365Y014003D01*
X053365Y014253D01*
X053915Y014224D02*
X053927Y014212D01*
X053927Y016503D01*
X053740Y016691D01*
X053740Y017525D01*
X053240Y017525D02*
X053240Y016566D01*
X052615Y015941D01*
X052615Y014066D01*
X051740Y014066D02*
X051740Y012816D01*
X051990Y012566D01*
X053201Y012566D01*
X053206Y012571D01*
X053206Y012886D02*
X053240Y012919D01*
X053240Y012941D01*
X052240Y012941D01*
X052240Y016191D01*
X052740Y016691D01*
X052740Y017525D01*
X053240Y017525D02*
X053240Y017566D01*
X054240Y017525D02*
X054240Y014234D01*
X054230Y014224D01*
X053927Y014212D02*
X053927Y014191D01*
X054545Y014224D02*
X054552Y014279D01*
X054552Y016503D01*
X054740Y016753D01*
X054740Y017525D01*
X055240Y017525D02*
X055240Y016753D01*
X054865Y016378D01*
X054865Y014229D01*
X054860Y014224D01*
X055115Y014284D02*
X055115Y015691D01*
X055501Y015691D01*
X055677Y015128D02*
X056615Y015128D01*
X056615Y015679D01*
X056603Y015691D01*
X056603Y015804D01*
X056615Y015816D01*
X057177Y016378D01*
X057552Y016378D01*
X057490Y015628D02*
X057302Y015628D01*
X057302Y014878D01*
X056435Y014878D01*
X056435Y014224D01*
X056750Y014224D02*
X056750Y014691D01*
X057552Y014691D01*
X057552Y014941D01*
X057990Y015378D01*
X058427Y014816D02*
X059302Y015691D01*
X060052Y015691D01*
X059990Y015691D01*
X060052Y015691D02*
X063490Y015691D01*
X063490Y016691D02*
X059927Y016691D01*
X057865Y014628D01*
X057865Y014378D01*
X056802Y013316D01*
X056802Y011316D01*
X056802Y010628D02*
X057552Y009878D01*
X057552Y008316D01*
X058103Y007765D01*
X058376Y007765D01*
X058427Y007765D01*
X058376Y007765D02*
X058365Y007753D01*
X058865Y007253D01*
X062990Y007253D01*
X063052Y005691D01*
X060490Y006631D02*
X060490Y004691D01*
X059990Y004191D01*
X060490Y006631D02*
X060490Y006691D01*
X060490Y007751D02*
X060490Y008941D01*
X059490Y009941D01*
X059115Y010628D02*
X058990Y010691D01*
X057783Y010691D01*
X057773Y010681D01*
X057773Y010996D02*
X057781Y011003D01*
X059677Y011003D01*
X059990Y010691D01*
X063490Y010691D01*
X063490Y011691D02*
X059115Y011691D01*
X058427Y011941D02*
X058427Y014816D01*
X058927Y014503D02*
X059115Y014691D01*
X063490Y014691D01*
X063490Y013691D02*
X058990Y013691D01*
X058927Y012691D02*
X063490Y012691D01*
X059490Y017441D02*
X058740Y017441D01*
X058740Y017525D01*
X058240Y017525D02*
X058240Y018753D01*
X058240Y018753D01*
X057740Y018753D02*
X057740Y017525D01*
X056615Y016253D02*
X056615Y015816D01*
X056615Y015702D01*
X056603Y015691D01*
X056615Y016253D02*
X056240Y016628D01*
X056240Y017525D01*
X055740Y017525D02*
X055740Y020191D01*
X050867Y020191D01*
X050865Y020188D01*
X050865Y019069D02*
X050865Y018066D01*
X050865Y018066D01*
X049427Y017191D02*
X050177Y016441D01*
X051490Y016441D01*
X051490Y015691D02*
X050177Y015691D01*
X048990Y014503D01*
X048615Y013503D02*
X050115Y015003D01*
X051615Y015003D01*
X053206Y012256D02*
X048052Y012253D01*
X047930Y012378D01*
X047867Y012443D01*
X047052Y012441D01*
X047677Y012066D02*
X048052Y011941D01*
X053206Y011941D01*
X053206Y011626D02*
X046050Y011626D01*
X045990Y011566D01*
X045990Y011631D01*
X046862Y011631D01*
X046865Y011628D01*
X046865Y006941D01*
X046615Y006691D01*
X045990Y006691D01*
X045927Y006691D01*
X046490Y005317D02*
X046490Y004191D01*
X047927Y006691D02*
X047927Y006752D01*
X049304Y008316D02*
X049365Y008316D01*
X048927Y008753D01*
X048927Y010378D01*
X048240Y010691D02*
X048240Y008941D01*
X049865Y008941D02*
X050740Y009628D01*
X051802Y009628D01*
X052427Y009628D01*
X052490Y009566D01*
X051990Y010378D02*
X053302Y010378D01*
X053315Y010366D01*
X053206Y010366D01*
X053315Y010366D02*
X053365Y010316D01*
X053177Y011253D02*
X053206Y011282D01*
X053240Y011316D01*
X054177Y011316D01*
X053206Y011282D02*
X053206Y011311D01*
X055490Y012816D02*
X055177Y013316D01*
X055177Y014128D01*
X055175Y014131D01*
X055175Y014224D01*
X055115Y014284D01*
X055490Y014224D02*
X055490Y013378D01*
X055927Y012941D01*
X055927Y010316D01*
X055802Y010191D01*
X055802Y009691D01*
X055769Y009657D01*
X055805Y009657D01*
X055831Y009657D01*
X055802Y009628D01*
X055802Y009191D01*
X055552Y008941D01*
X055677Y008878D01*
X056120Y008571D02*
X055302Y007753D01*
X053802Y007753D01*
X053302Y007253D01*
X053302Y007253D01*
X055302Y007316D02*
X055302Y007253D01*
X055302Y007316D02*
X056435Y008448D01*
X056435Y009657D01*
X056740Y009691D02*
X056740Y008691D01*
X056927Y008503D01*
X056927Y008128D01*
X057490Y007191D02*
X057490Y005691D01*
X056990Y005191D01*
X055990Y005191D01*
X055990Y005251D01*
X055990Y004131D02*
X054550Y004131D01*
X054490Y004191D01*
X053990Y004191D01*
X056120Y008571D02*
X056120Y009657D01*
X055865Y009691D02*
X055831Y009657D01*
X055769Y009657D02*
X055740Y009628D01*
X055490Y009628D02*
X055490Y010253D01*
X055490Y010628D01*
X055490Y012816D01*
X055490Y014224D02*
X055490Y014878D01*
X055677Y015128D01*
X055740Y017503D02*
X055740Y017525D01*
X056240Y021856D02*
X056240Y022941D01*
X057490Y024191D01*
X057490Y024691D01*
X057439Y024691D01*
X057439Y025992D01*
X057240Y026191D01*
X057183Y026191D01*
X056240Y025191D02*
X056240Y029191D01*
X057240Y029131D02*
X057240Y028441D01*
X057990Y027691D01*
X057990Y024191D01*
X056740Y022941D01*
X056740Y021856D01*
X057240Y021856D02*
X057240Y022691D01*
X058490Y023941D01*
X058490Y024691D01*
X058541Y024691D01*
X058541Y024992D01*
X058990Y025441D01*
X061990Y025441D01*
X060490Y023691D02*
X058990Y023691D01*
X058240Y022941D01*
X058240Y021856D01*
X058740Y021856D02*
X058740Y022691D01*
X059240Y023191D01*
X059990Y023191D01*
X059990Y022691D01*
X058797Y026191D02*
X058797Y026884D01*
X058740Y026941D01*
X058740Y028191D02*
X058740Y028441D01*
X059490Y029191D01*
X059490Y029691D01*
X058990Y030191D01*
X057930Y030251D02*
X057240Y030251D01*
X055490Y026941D02*
X055490Y026191D01*
X055547Y026191D01*
X056240Y025191D02*
X055740Y024691D01*
X055291Y024691D01*
X055240Y024691D01*
X055240Y021856D01*
X054740Y021856D02*
X054740Y028191D01*
X053550Y028191D01*
X053490Y028191D01*
X052990Y029191D02*
X052990Y025191D01*
X052490Y024691D01*
X052041Y024691D01*
X051990Y024691D01*
X051990Y023941D01*
X053240Y022691D01*
X053240Y021856D01*
X052740Y021856D02*
X052740Y022691D01*
X051490Y023941D01*
X051490Y027441D01*
X050990Y027941D01*
X050550Y028191D01*
X049490Y028191D02*
X049430Y028191D01*
X047490Y028191D01*
X046490Y029191D01*
X046490Y030191D01*
X047740Y025191D02*
X047990Y025191D01*
X048490Y024691D01*
X048490Y021191D01*
X047740Y021191D01*
X048490Y021191D02*
X048490Y017191D01*
X049427Y017191D01*
X048490Y017191D02*
X047740Y017191D01*
X046990Y015691D02*
X046990Y019191D01*
X046990Y022691D01*
X047490Y023191D01*
X047740Y023191D01*
X047740Y019191D02*
X046990Y019191D01*
X046990Y015691D02*
X047490Y015191D01*
X047740Y015191D01*
X047740Y015253D01*
X047615Y015128D01*
X045990Y015128D01*
X045990Y012751D01*
X052240Y021856D02*
X052240Y022691D01*
X050990Y023941D01*
X050990Y024691D01*
X050990Y026191D01*
X050990Y026441D01*
X050990Y026191D02*
X050683Y026191D01*
X050939Y024691D02*
X050990Y024691D01*
X052240Y026191D02*
X052240Y026941D01*
X052240Y026191D02*
X052297Y026191D01*
X053933Y026191D02*
X054240Y026441D01*
X054240Y024691D01*
X054240Y021856D01*
X054240Y024691D02*
X054189Y024691D01*
X052430Y028191D02*
X052430Y030191D01*
X057773Y011941D02*
X058427Y011941D01*
X058302Y009628D02*
X058427Y009503D01*
X058427Y008867D01*
X056750Y009657D02*
X056750Y009681D01*
X056740Y009691D01*
X055490Y009657D02*
X055490Y009628D01*
X055490Y009566D01*
D14*
X055677Y008878D03*
X066488Y002000D02*
D98*
X078811Y009657D03*
X078496Y009657D03*
X078181Y009657D03*
X077866Y009657D03*
X077551Y009657D03*
X077236Y009657D03*
X076921Y009657D03*
X076606Y009657D03*
X076291Y009657D03*
X075976Y009657D03*
X075661Y009657D03*
X075661Y014224D03*
X075976Y014224D03*
X076291Y014224D03*
X076606Y014224D03*
X076921Y014224D03*
X077236Y014224D03*
X077551Y014224D03*
X077866Y014224D03*
X078181Y014224D03*
X078496Y014224D03*
X078811Y014224D03*
D34*
X079519Y013516D03*
X079519Y013201D03*
X079519Y012886D03*
X079519Y012571D03*
X079519Y012256D03*
X079519Y011941D03*
X079519Y011626D03*
X079519Y011311D03*
X079519Y010996D03*
X079519Y010681D03*
X079519Y010366D03*
X074952Y010366D03*
X074952Y010681D03*
X074952Y010996D03*
X074952Y011311D03*
X074952Y011626D03*
X074952Y011941D03*
X074952Y012256D03*
X074952Y012571D03*
X074952Y012886D03*
X074952Y013201D03*
X074952Y013516D03*
D84*
X075048Y007253D03*
X077048Y007253D03*
D156*
X076986Y017525D03*
X077486Y017525D03*
X077986Y017525D03*
X078486Y017525D03*
X078986Y017525D03*
X079486Y017525D03*
X079986Y017525D03*
X080486Y017525D03*
X080486Y021856D03*
X079986Y021856D03*
X079486Y021856D03*
X078986Y021856D03*
X078486Y021856D03*
X077986Y021856D03*
X077486Y021856D03*
X076986Y021856D03*
X076486Y021856D03*
X075986Y021856D03*
X075486Y021856D03*
X074986Y021856D03*
X074486Y021856D03*
X073986Y021856D03*
X073986Y017525D03*
X074486Y017525D03*
X074986Y017525D03*
X075486Y017525D03*
X075986Y017525D03*
X076486Y017525D03*
D63*
X075296Y028191D03*
X074176Y028191D03*
X072296Y028191D03*
X071176Y028191D03*
D115*
X072611Y020188D03*
X072611Y019069D03*
X067736Y012751D03*
X067736Y011631D03*
X071736Y005251D03*
X071736Y004131D03*
X077736Y004131D03*
X077736Y005251D03*
X082236Y006631D03*
X082236Y007751D03*
X078986Y029131D03*
X078986Y030251D03*
D86*
X080173Y008867D03*
X080173Y007765D03*
D83*
X069486Y015191D03*
X069486Y017191D03*
X069486Y019191D03*
X069486Y021191D03*
X069486Y023191D03*
X069486Y025191D03*
X067486Y024191D03*
X067486Y020191D03*
X067486Y016191D03*
D157*
X072429Y026191D03*
X074043Y026191D03*
X075679Y026191D03*
X077293Y026191D03*
X078929Y026191D03*
X080543Y026191D03*
D22*
X084736Y030691D03*
X084798Y005691D03*
D11*
X084798Y003691D03*
X084736Y028691D03*
D126*
X080287Y024691D03*
X079185Y024691D03*
X077037Y024691D03*
X075935Y024691D03*
X073787Y024691D03*
X072685Y024691D03*
X077247Y015691D03*
X078349Y015691D03*
D118*
X085236Y015691D03*
X085236Y016691D03*
X085236Y017691D03*
X085236Y018691D03*
X085236Y019691D03*
X085236Y020691D03*
X085236Y021691D03*
X085236Y022691D03*
X085236Y023691D03*
X085236Y024691D03*
X085236Y025691D03*
X085236Y026691D03*
X085236Y014691D03*
X085236Y013691D03*
X085236Y012691D03*
X085236Y011691D03*
X085236Y010691D03*
X085236Y009691D03*
X085236Y008691D03*
X085236Y007691D03*
X067736Y007691D03*
X067736Y008691D03*
X067736Y009691D03*
X067736Y006691D03*
D106*
X069672Y006753D03*
X069672Y008316D03*
X071050Y008316D03*
X071050Y006753D03*
D102*
X070236Y004191D03*
X069236Y004191D03*
X068236Y004191D03*
X073736Y004191D03*
X074736Y004191D03*
X075736Y004191D03*
X079736Y004191D03*
X080736Y004191D03*
X081736Y004191D03*
X081736Y030191D03*
X080736Y030191D03*
X079736Y030191D03*
X076236Y030191D03*
X075236Y030191D03*
X074236Y030191D03*
X070236Y030191D03*
X069236Y030191D03*
X068236Y030191D03*
D39*
X071736Y031691D02*
X071736Y018066D01*
X072611Y018066D01*
X073986Y018066D01*
X073986Y017525D01*
X077986Y017525D02*
X077986Y018128D01*
X078736Y018753D01*
X079486Y018753D01*
X079986Y018753D01*
X083361Y018753D01*
X084298Y019691D01*
X084298Y021003D01*
X085236Y019691D02*
X085736Y019691D01*
X086236Y020191D01*
X086236Y029191D01*
X084736Y030691D01*
X084298Y023691D02*
X085236Y023691D01*
X085236Y009691D02*
X082736Y009691D01*
X083236Y008691D02*
X085236Y008691D01*
X085236Y007691D02*
X083736Y007691D01*
D32*
X083736Y007691D03*
X083236Y008691D03*
X082736Y009691D03*
X081236Y009941D03*
X080861Y010628D03*
X080861Y011691D03*
X080673Y012691D03*
X080736Y013691D03*
X080673Y014503D03*
X079736Y015378D03*
X079236Y015628D03*
X079298Y016378D03*
X081236Y017441D03*
X084298Y021003D03*
X084298Y023691D03*
X083736Y025441D03*
X082236Y023691D03*
X081736Y022691D03*
X080486Y026941D03*
X080486Y028191D03*
X077986Y029191D03*
X077236Y026941D03*
X074736Y029191D03*
X073986Y026941D03*
X071736Y031691D03*
X073236Y016441D03*
X073236Y015691D03*
X073361Y015003D03*
X073486Y014066D03*
X074361Y014066D03*
X075111Y014253D03*
X075923Y011316D03*
X077236Y010628D03*
X078548Y010628D03*
X078548Y011316D03*
X080048Y009628D03*
X078673Y008128D03*
X079236Y007191D03*
X074236Y009566D03*
X073736Y010378D03*
X073361Y008816D03*
X072736Y008316D03*
X072048Y007816D03*
X071611Y008941D03*
X070673Y010378D03*
X069986Y010691D03*
X069423Y012066D03*
X068798Y012441D03*
X070361Y013503D03*
X070736Y014503D03*
X072986Y005691D03*
D128*
X071736Y005691D01*
X071736Y005251D01*
X071736Y005191D01*
X071736Y004131D02*
X070296Y004131D01*
X068236Y005317D02*
X069672Y006753D01*
X069673Y006752D01*
X069673Y008314D01*
X069672Y008316D01*
X069986Y008941D02*
X070423Y008503D01*
X070423Y007191D01*
X070861Y006753D01*
X071050Y006753D01*
X072048Y007816D02*
X072986Y007816D01*
X073173Y008003D01*
X075548Y008003D01*
X076606Y009061D01*
X076606Y009657D01*
X076291Y009657D02*
X076291Y009121D01*
X075548Y008378D01*
X072798Y008378D01*
X072736Y008316D01*
X073361Y008816D02*
X075548Y008816D01*
X075976Y009243D01*
X075976Y009657D01*
X075661Y009657D02*
X075661Y009578D01*
X075673Y009566D01*
X075673Y010441D01*
X076423Y010941D01*
X076423Y012066D01*
X075736Y012753D01*
X075736Y013378D01*
X075111Y014003D01*
X075111Y014253D01*
X075661Y014224D02*
X075673Y014212D01*
X075673Y016503D01*
X075486Y016691D01*
X075486Y017525D01*
X074986Y017525D02*
X074986Y016566D01*
X074361Y015941D01*
X074361Y014066D01*
X073486Y014066D02*
X073486Y012816D01*
X073736Y012566D01*
X074947Y012566D01*
X074952Y012571D01*
X074952Y012886D02*
X074986Y012919D01*
X074986Y012941D01*
X073986Y012941D01*
X073986Y016191D01*
X074486Y016691D01*
X074486Y017525D01*
X074986Y017525D02*
X074986Y017566D01*
X075986Y017525D02*
X075986Y014234D01*
X075976Y014224D01*
X075673Y014212D02*
X075673Y014191D01*
X076291Y014224D02*
X076298Y014279D01*
X076298Y016503D01*
X076486Y016753D01*
X076486Y017525D01*
X076986Y017525D02*
X076986Y016753D01*
X076611Y016378D01*
X076611Y014229D01*
X076606Y014224D01*
X076861Y014284D02*
X076861Y015691D01*
X077247Y015691D01*
X077423Y015128D02*
X078361Y015128D01*
X078361Y015679D01*
X078349Y015691D01*
X078349Y015804D01*
X078361Y015816D01*
X078923Y016378D01*
X079298Y016378D01*
X079236Y015628D02*
X079048Y015628D01*
X079048Y014878D01*
X078181Y014878D01*
X078181Y014224D01*
X078496Y014224D02*
X078496Y014691D01*
X079298Y014691D01*
X079298Y014941D01*
X079736Y015378D01*
X080173Y014816D02*
X081048Y015691D01*
X081798Y015691D01*
X081736Y015691D01*
X081798Y015691D02*
X085236Y015691D01*
X085236Y016691D02*
X081673Y016691D01*
X079611Y014628D01*
X079611Y014378D01*
X078548Y013316D01*
X078548Y011316D01*
X078548Y010628D02*
X079298Y009878D01*
X079298Y008316D01*
X079849Y007765D01*
X080122Y007765D01*
X080173Y007765D01*
X080122Y007765D02*
X080111Y007753D01*
X080611Y007253D01*
X084736Y007253D01*
X084798Y005691D01*
X082236Y006631D02*
X082236Y004691D01*
X081736Y004191D01*
X082236Y006631D02*
X082236Y006691D01*
X082236Y007751D02*
X082236Y008941D01*
X081236Y009941D01*
X080861Y010628D02*
X080736Y010691D01*
X079529Y010691D01*
X079519Y010681D01*
X079519Y010996D02*
X079527Y011003D01*
X081423Y011003D01*
X081736Y010691D01*
X085236Y010691D01*
X085236Y011691D02*
X080861Y011691D01*
X080173Y011941D02*
X080173Y014816D01*
X080673Y014503D02*
X080861Y014691D01*
X085236Y014691D01*
X085236Y013691D02*
X080736Y013691D01*
X080673Y012691D02*
X085236Y012691D01*
X081236Y017441D02*
X080486Y017441D01*
X080486Y017525D01*
X079986Y017525D02*
X079986Y018753D01*
X079986Y018753D01*
X079486Y018753D02*
X079486Y017525D01*
X078361Y016253D02*
X078361Y015816D01*
X078361Y015702D01*
X078349Y015691D01*
X078361Y016253D02*
X077986Y016628D01*
X077986Y017525D01*
X077486Y017525D02*
X077486Y020191D01*
X072613Y020191D01*
X072611Y020188D01*
X072611Y019069D02*
X072611Y018066D01*
X072611Y018066D01*
X071173Y017191D02*
X071923Y016441D01*
X073236Y016441D01*
X073236Y015691D02*
X071923Y015691D01*
X070736Y014503D01*
X070361Y013503D02*
X071861Y015003D01*
X073361Y015003D01*
X074952Y012256D02*
X069798Y012253D01*
X069676Y012378D01*
X069613Y012443D01*
X068798Y012441D01*
X069423Y012066D02*
X069798Y011941D01*
X074952Y011941D01*
X074952Y011626D02*
X067796Y011626D01*
X067736Y011566D01*
X067736Y011631D01*
X068608Y011631D01*
X068611Y011628D01*
X068611Y006941D01*
X068361Y006691D01*
X067736Y006691D01*
X067673Y006691D01*
X068236Y005317D02*
X068236Y004191D01*
X069673Y006691D02*
X069673Y006752D01*
X071050Y008316D02*
X071111Y008316D01*
X070673Y008753D01*
X070673Y010378D01*
X069986Y010691D02*
X069986Y008941D01*
X071611Y008941D02*
X072486Y009628D01*
X073548Y009628D01*
X074173Y009628D01*
X074236Y009566D01*
X073736Y010378D02*
X075048Y010378D01*
X075061Y010366D01*
X074952Y010366D01*
X075061Y010366D02*
X075111Y010316D01*
X074923Y011253D02*
X074952Y011282D01*
X074986Y011316D01*
X075923Y011316D01*
X074952Y011282D02*
X074952Y011311D01*
X077236Y012816D02*
X076923Y013316D01*
X076923Y014128D01*
X076921Y014131D01*
X076921Y014224D01*
X076861Y014284D01*
X077236Y014224D02*
X077236Y013378D01*
X077673Y012941D01*
X077673Y010316D01*
X077548Y010191D01*
X077548Y009691D01*
X077515Y009657D01*
X077551Y009657D01*
X077577Y009657D01*
X077548Y009628D01*
X077548Y009191D01*
X077298Y008941D01*
X077423Y008878D01*
X077866Y008571D02*
X077048Y007753D01*
X075548Y007753D01*
X075048Y007253D01*
X075048Y007253D01*
X077048Y007316D02*
X077048Y007253D01*
X077048Y007316D02*
X078181Y008448D01*
X078181Y009657D01*
X078486Y009691D02*
X078486Y008691D01*
X078673Y008503D01*
X078673Y008128D01*
X079236Y007191D02*
X079236Y005691D01*
X078736Y005191D01*
X077736Y005191D01*
X077736Y005251D01*
X077736Y004131D02*
X076296Y004131D01*
X076236Y004191D01*
X075736Y004191D01*
X077866Y008571D02*
X077866Y009657D01*
X077611Y009691D02*
X077577Y009657D01*
X077515Y009657D02*
X077486Y009628D01*
X077236Y009628D02*
X077236Y010253D01*
X077236Y010628D01*
X077236Y012816D01*
X077236Y014224D02*
X077236Y014878D01*
X077423Y015128D01*
X077486Y017503D02*
X077486Y017525D01*
X077986Y021856D02*
X077986Y022941D01*
X079236Y024191D01*
X079236Y024691D01*
X079185Y024691D01*
X079185Y025992D01*
X078986Y026191D01*
X078929Y026191D01*
X077986Y025191D02*
X077986Y029191D01*
X078986Y029131D02*
X078986Y028441D01*
X079736Y027691D01*
X079736Y024191D01*
X078486Y022941D01*
X078486Y021856D01*
X078986Y021856D02*
X078986Y022691D01*
X080236Y023941D01*
X080236Y024691D01*
X080287Y024691D01*
X080287Y024992D01*
X080736Y025441D01*
X083736Y025441D01*
X082236Y023691D02*
X080736Y023691D01*
X079986Y022941D01*
X079986Y021856D01*
X080486Y021856D02*
X080486Y022691D01*
X080986Y023191D01*
X081736Y023191D01*
X081736Y022691D01*
X080543Y026191D02*
X080543Y026884D01*
X080486Y026941D01*
X080486Y028191D02*
X080486Y028441D01*
X081236Y029191D01*
X081236Y029691D01*
X080736Y030191D01*
X079676Y030251D02*
X078986Y030251D01*
X077236Y026941D02*
X077236Y026191D01*
X077293Y026191D01*
X077986Y025191D02*
X077486Y024691D01*
X077037Y024691D01*
X076986Y024691D01*
X076986Y021856D01*
X076486Y021856D02*
X076486Y028191D01*
X075296Y028191D01*
X075236Y028191D01*
X074736Y029191D02*
X074736Y025191D01*
X074236Y024691D01*
X073787Y024691D01*
X073736Y024691D01*
X073736Y023941D01*
X074986Y022691D01*
X074986Y021856D01*
X074486Y021856D02*
X074486Y022691D01*
X073236Y023941D01*
X073236Y027441D01*
X072736Y027941D01*
X072296Y028191D01*
X071236Y028191D02*
X071176Y028191D01*
X069236Y028191D01*
X068236Y029191D01*
X068236Y030191D01*
X069486Y025191D02*
X069736Y025191D01*
X070236Y024691D01*
X070236Y021191D01*
X069486Y021191D01*
X070236Y021191D02*
X070236Y017191D01*
X071173Y017191D01*
X070236Y017191D02*
X069486Y017191D01*
X068736Y015691D02*
X068736Y019191D01*
X068736Y022691D01*
X069236Y023191D01*
X069486Y023191D01*
X069486Y019191D02*
X068736Y019191D01*
X068736Y015691D02*
X069236Y015191D01*
X069486Y015191D01*
X069486Y015253D01*
X069361Y015128D01*
X067736Y015128D01*
X067736Y012751D01*
X073986Y021856D02*
X073986Y022691D01*
X072736Y023941D01*
X072736Y024691D01*
X072736Y026191D01*
X072736Y026441D01*
X072736Y026191D02*
X072429Y026191D01*
X072685Y024691D02*
X072736Y024691D01*
X073986Y026191D02*
X073986Y026941D01*
X073986Y026191D02*
X074043Y026191D01*
X075679Y026191D02*
X075986Y026441D01*
X075986Y024691D01*
X075986Y021856D01*
X075986Y024691D02*
X075935Y024691D01*
X074176Y028191D02*
X074176Y030191D01*
X079519Y011941D02*
X080173Y011941D01*
X080048Y009628D02*
X080173Y009503D01*
X080173Y008867D01*
X078496Y009657D02*
X078496Y009681D01*
X078486Y009691D01*
X077236Y009657D02*
X077236Y009628D01*
X077236Y009566D01*
D14*
X077423Y008878D03*
X045492Y033620D02*
D19*
X051177Y035850D03*
X051571Y035850D03*
X051965Y035850D03*
X052358Y035850D03*
X052752Y035850D03*
X053146Y035850D03*
X053539Y035850D03*
X053933Y035850D03*
X054327Y035850D03*
X054721Y035850D03*
X055114Y035850D03*
X055508Y035850D03*
X068302Y035600D03*
X068696Y035600D03*
X069090Y035600D03*
X069483Y035600D03*
X069877Y035600D03*
X070271Y035600D03*
X070664Y035600D03*
X071058Y035600D03*
X071452Y035600D03*
X071846Y035600D03*
X072239Y035600D03*
X072633Y035600D03*
X072677Y062262D03*
X072284Y062262D03*
X071890Y062262D03*
X071496Y062262D03*
X071102Y062262D03*
X070709Y062262D03*
X070315Y062262D03*
X069921Y062262D03*
X069528Y062262D03*
X069134Y062262D03*
X068740Y062262D03*
X068347Y062262D03*
X055677Y062262D03*
X055284Y062262D03*
X054890Y062262D03*
X054496Y062262D03*
X054102Y062262D03*
X053709Y062262D03*
X053315Y062262D03*
X052921Y062262D03*
X052528Y062262D03*
X052134Y062262D03*
X051740Y062262D03*
X051347Y062262D03*
D94*
X080302Y039369D03*
D74*
X079302Y039369D03*
X079302Y040369D03*
X080302Y040369D03*
X080302Y041369D03*
X079302Y041369D03*
X079302Y042369D03*
X080302Y042369D03*
X080302Y043369D03*
X079302Y043369D03*
X079302Y044369D03*
X080302Y044369D03*
X080302Y045369D03*
X079302Y045369D03*
X079302Y046369D03*
X080302Y046369D03*
X080302Y047369D03*
X079302Y047369D03*
X079302Y048369D03*
X080302Y048369D03*
X080302Y049369D03*
X079302Y049369D03*
X079302Y050369D03*
X080302Y050369D03*
X080302Y051369D03*
X079302Y051369D03*
X079302Y052369D03*
X080302Y052369D03*
X080302Y053369D03*
X079302Y053369D03*
X079302Y054369D03*
X080302Y054369D03*
X080302Y055369D03*
X079302Y055369D03*
X079302Y056369D03*
X080302Y056369D03*
X080302Y057369D03*
X079302Y057369D03*
X079302Y058369D03*
X080302Y058369D03*
D83*
X047677Y039369D03*
X047677Y040369D03*
X047677Y041369D03*
X047677Y042369D03*
X047677Y043369D03*
X047677Y044369D03*
X047677Y045369D03*
X047677Y046369D03*
X047677Y047369D03*
X047677Y048369D03*
X047677Y049369D03*
X047677Y050369D03*
X047677Y051369D03*
X047677Y052369D03*
X047677Y053369D03*
X047677Y054369D03*
X047677Y055369D03*
X047677Y056369D03*
X047677Y057369D03*
X047677Y058369D03*
X055177Y058369D03*
X055177Y057369D03*
X055177Y056369D03*
X055177Y055369D03*
X055177Y054369D03*
X055177Y053369D03*
X055177Y052369D03*
X055177Y051369D03*
X055177Y050369D03*
X055177Y049369D03*
X055177Y048369D03*
X055177Y047369D03*
X055177Y046369D03*
X055177Y045369D03*
X055177Y044369D03*
X055177Y043369D03*
X055177Y042369D03*
X055177Y041369D03*
X055177Y040369D03*
X055177Y039369D03*
X061177Y039369D03*
X061177Y040369D03*
X061177Y041369D03*
X061177Y042369D03*
X061177Y043369D03*
X061177Y044369D03*
X061177Y045369D03*
X061177Y046369D03*
X061177Y047369D03*
X061177Y048369D03*
X061177Y049369D03*
X061177Y050369D03*
X061177Y051369D03*
X061177Y052369D03*
X061177Y053369D03*
X061177Y054369D03*
X061177Y055369D03*
X061177Y056369D03*
X061177Y057369D03*
X061177Y058369D03*
X067177Y058369D03*
X067177Y057369D03*
X067177Y056369D03*
X067177Y055369D03*
X067177Y054369D03*
X067177Y053369D03*
X067177Y052369D03*
X067177Y051369D03*
X067177Y050369D03*
X067177Y049369D03*
X067177Y048369D03*
X067177Y047369D03*
X067177Y046369D03*
X067177Y045369D03*
X067177Y044369D03*
X067177Y043369D03*
X067177Y042369D03*
X067177Y041369D03*
X067177Y040369D03*
X067177Y039369D03*
X073177Y039369D03*
X073177Y040369D03*
X073177Y041369D03*
X073177Y042369D03*
X073177Y043369D03*
X073177Y044369D03*
X073177Y045369D03*
X073177Y046369D03*
X073177Y047369D03*
X073177Y048369D03*
X073177Y049369D03*
X073177Y050369D03*
X073177Y051369D03*
X073177Y052369D03*
X073177Y053369D03*
X073177Y054369D03*
X073177Y055369D03*
X073177Y056369D03*
X073177Y057369D03*
X073177Y058369D03*
X081927Y054744D03*
X081927Y053744D03*
X081927Y052744D03*
X081927Y050869D03*
X081927Y049869D03*
X081927Y048869D03*
X084927Y048869D03*
X084927Y049869D03*
X084927Y050869D03*
X084927Y052744D03*
X084927Y053744D03*
X084927Y054744D03*
D63*
X076237Y049369D03*
X075117Y049369D03*
X070487Y049369D03*
X069367Y049369D03*
X064487Y049369D03*
X063367Y049369D03*
X058362Y049369D03*
X057242Y049369D03*
D126*
X057251Y047619D03*
X058353Y047619D03*
X063376Y047619D03*
X064478Y047619D03*
X069376Y047744D03*
X070478Y047744D03*
X075126Y047744D03*
X076228Y047744D03*
D107*
X052552Y045244D03*
X051552Y045244D03*
X050552Y045244D03*
D40*
X083427Y038844D03*
X083427Y036994D03*
X083427Y035144D03*
D102*
X066177Y035744D03*
X065177Y035744D03*
X064177Y035744D03*
X063177Y035744D03*
X061177Y035744D03*
X060177Y035744D03*
X059177Y035744D03*
X058177Y035744D03*
X058177Y061869D03*
X059177Y061869D03*
X060177Y061869D03*
X061177Y061869D03*
X063177Y061869D03*
X064177Y061869D03*
X065177Y061869D03*
X066177Y061869D03*
D106*
X082988Y058869D03*
X084366Y058869D03*
X084366Y056869D03*
X082988Y056869D03*
X082988Y046869D03*
X084366Y046869D03*
X084366Y044869D03*
X082988Y044869D03*
D53*
X076552Y046369D03*
X076552Y040369D03*
D132*
X076983Y036387D03*
X075802Y036387D03*
X075802Y035206D03*
X076983Y035206D03*
X076802Y061350D03*
X075621Y061350D03*
X075621Y062531D03*
X076802Y062531D03*
D10*
X073177Y045369D02*
X073052Y045369D01*
X067177Y045369D02*
X067052Y045369D01*
X073052Y039369D02*
X073177Y039369D01*
X076552Y039619D02*
X076552Y040369D01*
X076552Y039619D02*
X078677Y037494D01*
X081677Y037494D01*
X082177Y036994D01*
X083427Y036994D01*
X076983Y036387D02*
X076983Y035175D01*
X076927Y035119D01*
X076983Y035175D02*
X076983Y035206D01*
X055177Y045369D02*
X055052Y045369D01*
X051552Y045244D02*
X051552Y042369D01*
D14*
X051552Y042369D03*
X055177Y046369D03*
X061177Y046369D03*
X067177Y046369D03*
X073177Y046369D03*
X077177Y049994D03*
X074552Y051369D03*
X079302Y042369D03*
D128*
X082697Y045159D02*
X082988Y044869D01*
X082697Y045159D02*
X080717Y047139D01*
X080717Y047549D01*
X080317Y047949D01*
X079887Y047949D01*
X079887Y048809D01*
X080177Y049099D01*
X080302Y049369D01*
X081067Y049459D02*
X081067Y048789D01*
X082697Y047159D01*
X082988Y046869D01*
X084366Y046869D02*
X084367Y046579D01*
X084367Y045159D01*
X084366Y044869D01*
X084366Y046869D02*
X084557Y047159D01*
X084557Y048619D01*
X084927Y048869D01*
X081927Y049869D02*
X081557Y050119D01*
X080717Y050959D01*
X080717Y051809D01*
X080427Y052099D01*
X080302Y052369D01*
X081537Y052979D02*
X081927Y052744D01*
X081537Y052979D02*
X080427Y054089D01*
X080427Y054099D01*
X080302Y054369D01*
X080427Y055089D02*
X080427Y055099D01*
X080302Y055369D01*
X080427Y055089D02*
X081537Y053979D01*
X081927Y053744D01*
X081927Y054744D02*
X081537Y054979D01*
X080427Y056089D01*
X080427Y056099D01*
X080302Y056369D01*
X080577Y057159D02*
X080577Y057249D01*
X080302Y057369D01*
X080577Y057159D02*
X082697Y057159D01*
X082988Y056869D01*
X084366Y056869D02*
X084557Y056579D01*
X084557Y054999D01*
X084927Y054744D01*
X084366Y056869D02*
X084367Y057159D01*
X084367Y058579D01*
X084366Y058869D01*
X084077Y059159D01*
X084077Y059299D01*
X080797Y059299D01*
X077407Y062689D01*
X077407Y063499D01*
X072157Y063499D01*
X071227Y062569D01*
X071227Y062509D01*
X071102Y062262D01*
X070977Y062509D01*
X070977Y062569D01*
X070897Y062649D01*
X064307Y062649D01*
X064307Y062459D01*
X064177Y061869D01*
X063747Y061389D02*
X066667Y058469D01*
X067177Y058369D01*
X067757Y057979D02*
X065427Y057979D01*
X065427Y059159D01*
X063307Y061279D01*
X063177Y061869D01*
X063747Y061389D02*
X063747Y062979D01*
X054237Y062979D01*
X053837Y062579D01*
X053837Y062509D01*
X053709Y062262D01*
X053587Y062269D01*
X053437Y062269D01*
X053315Y062262D01*
X053047Y062019D02*
X052921Y062262D01*
X052797Y062269D01*
X052657Y062269D01*
X052528Y062262D01*
X052134Y062262D02*
X052007Y062269D01*
X051867Y062269D01*
X051740Y062262D01*
X053047Y062019D02*
X053047Y061729D01*
X054102Y062262D02*
X054227Y062509D01*
X054227Y062569D01*
X054307Y062649D01*
X057747Y062649D01*
X057747Y061389D01*
X057997Y061139D01*
X059047Y061139D01*
X059047Y061279D01*
X059177Y061869D01*
X058867Y062509D02*
X058467Y062109D01*
X058177Y061869D01*
X058867Y062509D02*
X058867Y062599D01*
X061357Y062599D01*
X062337Y061619D01*
X062337Y060339D01*
X062667Y060009D01*
X062667Y055629D01*
X064657Y053639D01*
X064987Y053179D02*
X064987Y054329D01*
X062997Y056319D01*
X062997Y057199D02*
X062997Y058259D01*
X062337Y057329D02*
X062337Y055699D01*
X062667Y055369D01*
X062667Y055159D01*
X065627Y052199D01*
X065627Y047979D01*
X067387Y047979D01*
X070137Y045229D01*
X070137Y035859D01*
X070147Y035849D01*
X070271Y035600D01*
X070397Y035609D01*
X070537Y035609D01*
X070664Y035600D01*
X070927Y035859D02*
X070927Y045329D01*
X067827Y048429D01*
X067827Y048539D01*
X067387Y048979D01*
X065807Y048979D01*
X065807Y052359D01*
X064987Y053179D01*
X065167Y053259D02*
X065167Y055029D01*
X062997Y057199D01*
X062337Y055089D02*
X063827Y053599D01*
X063827Y040959D01*
X063497Y041839D02*
X062487Y042849D01*
X062487Y047879D01*
X063377Y047969D02*
X063376Y047619D01*
X063377Y047969D02*
X063377Y049019D01*
X063367Y049369D01*
X062767Y049369D01*
X062337Y050479D02*
X063497Y050479D01*
X064487Y049369D02*
X064797Y049719D01*
X065297Y049719D01*
X067177Y049369D02*
X069367Y049369D01*
X069377Y049019D01*
X069377Y048089D01*
X069376Y047744D01*
X069827Y047529D02*
X069827Y049769D01*
X067617Y051979D01*
X066707Y051979D01*
X066707Y052019D01*
X065497Y053229D01*
X065497Y055089D01*
X066527Y055839D02*
X066807Y056119D01*
X067177Y056369D01*
X066667Y056479D01*
X062727Y060419D01*
X062007Y060579D02*
X062007Y045759D01*
X062157Y045609D01*
X064478Y047619D02*
X064787Y047269D01*
X066207Y045849D01*
X066207Y043219D01*
X066807Y042619D01*
X067177Y042369D01*
X067827Y042839D02*
X067547Y043119D01*
X067177Y043369D01*
X067827Y042839D02*
X067827Y036199D01*
X068177Y035849D01*
X068302Y035600D01*
X068177Y035359D01*
X067647Y034829D01*
X063467Y034829D01*
X063467Y035319D01*
X063177Y035744D01*
X064177Y035744D02*
X064057Y036339D01*
X062377Y038019D01*
X062377Y039759D01*
X060967Y039759D01*
X060527Y040199D01*
X060527Y050839D01*
X060807Y051119D01*
X061177Y051369D01*
X060377Y051429D02*
X058667Y049719D01*
X058362Y049369D01*
X057907Y049759D02*
X057907Y039739D01*
X059057Y038589D01*
X059057Y036339D01*
X059177Y035744D01*
X058747Y035249D02*
X058987Y035009D01*
X061057Y035009D01*
X061057Y035149D01*
X061177Y035744D01*
X058747Y035249D02*
X058747Y038639D01*
X055827Y041559D01*
X055827Y050839D01*
X055547Y051119D01*
X055177Y051369D01*
X055547Y052119D02*
X055177Y052369D01*
X055547Y052119D02*
X057907Y049759D01*
X057242Y049369D02*
X056647Y049369D01*
X057242Y049369D02*
X057247Y049019D01*
X057247Y047969D01*
X057251Y047619D01*
X058353Y047619D02*
X058357Y047269D01*
X058357Y042609D01*
X061827Y040569D02*
X064747Y037649D01*
X064747Y035249D01*
X064987Y035009D01*
X066057Y035009D01*
X066057Y035149D01*
X066177Y035744D01*
X068567Y035849D02*
X068696Y035600D01*
X068567Y035849D02*
X068567Y036219D01*
X068957Y035859D02*
X068957Y043409D01*
X067387Y044979D01*
X066387Y044979D01*
X066387Y046899D01*
X069827Y047529D02*
X071717Y045639D01*
X071717Y035849D01*
X071846Y035600D01*
X071967Y035609D01*
X072117Y035609D01*
X072239Y035600D01*
X071452Y035600D02*
X071327Y035609D01*
X071187Y035609D01*
X071058Y035600D01*
X070937Y035849D01*
X070927Y035859D01*
X070007Y035349D02*
X070007Y035289D01*
X070077Y035219D01*
X074217Y035219D01*
X074217Y035229D01*
X074377Y035389D01*
X075627Y035389D01*
X075802Y035206D01*
X070007Y035349D02*
X069997Y035359D01*
X069877Y035600D01*
X069483Y035600D02*
X069357Y035849D01*
X069357Y036139D01*
X068967Y035849D02*
X069090Y035600D01*
X068967Y035849D02*
X068957Y035859D01*
X061827Y040569D02*
X061827Y051839D01*
X061547Y052119D01*
X061177Y052369D01*
X060527Y053069D02*
X060527Y053839D01*
X060807Y054119D01*
X061177Y054369D01*
X060527Y053069D02*
X059717Y052259D01*
X055177Y054369D02*
X054807Y054119D01*
X054527Y053839D01*
X054527Y038789D01*
X053867Y038129D01*
X054717Y037889D02*
X054717Y036099D01*
X054721Y035850D01*
X054847Y035859D01*
X054987Y035859D01*
X055114Y035850D01*
X054387Y036099D02*
X054327Y035850D01*
X054197Y035859D01*
X054057Y035859D01*
X053933Y035850D01*
X053539Y035850D02*
X053527Y036099D01*
X053527Y056839D01*
X054807Y058119D01*
X055177Y058369D01*
X055177Y057369D02*
X054807Y057119D01*
X054167Y056479D01*
X054167Y039859D01*
X054017Y039709D01*
X054347Y039209D02*
X054347Y055659D01*
X054807Y056119D01*
X055177Y056369D01*
X058607Y058759D02*
X055417Y061949D01*
X055417Y062009D01*
X055407Y062019D01*
X055284Y062262D01*
X055017Y062019D02*
X054890Y062262D01*
X055017Y062019D02*
X055017Y061729D01*
X054627Y061649D02*
X054627Y062009D01*
X054617Y062019D01*
X054496Y062262D01*
X054627Y061649D02*
X059147Y057129D01*
X061677Y059579D02*
X060307Y060949D01*
X060307Y061279D01*
X060177Y061869D01*
X061177Y061869D02*
X061307Y061279D01*
X062007Y060579D01*
X064777Y061139D02*
X066047Y061139D01*
X066047Y061279D01*
X066177Y061869D01*
X068740Y062262D02*
X068867Y062269D01*
X069007Y062269D01*
X069134Y062262D01*
X069257Y062019D01*
X069267Y062009D01*
X069267Y060159D01*
X070047Y060379D02*
X070047Y062019D01*
X069921Y062262D01*
X069797Y062269D01*
X069657Y062269D01*
X069528Y062262D01*
X070315Y062262D02*
X070437Y062269D01*
X070587Y062269D01*
X070709Y062262D01*
X070837Y062019D01*
X070837Y060589D01*
X071627Y062009D02*
X071627Y055799D01*
X072807Y054619D01*
X073177Y054369D01*
X072967Y054759D02*
X073827Y054759D01*
X073827Y053899D01*
X073547Y053619D01*
X073177Y053369D01*
X072807Y052619D02*
X073177Y052369D01*
X072807Y052619D02*
X068447Y056979D01*
X068447Y057289D01*
X067757Y057979D01*
X067977Y057289D02*
X067977Y056449D01*
X072807Y051619D01*
X073177Y051369D01*
X072237Y050979D02*
X074537Y050979D01*
X074552Y050994D01*
X074552Y051369D01*
X075117Y049369D02*
X073177Y049369D01*
X071707Y049719D02*
X070797Y049719D01*
X070487Y049369D01*
X070478Y047744D02*
X070787Y047759D01*
X072527Y047759D01*
X072527Y042899D01*
X072807Y042619D01*
X073177Y042369D01*
X072527Y047759D02*
X074817Y047759D01*
X075126Y047744D01*
X075917Y048089D02*
X076228Y047744D01*
X075917Y048089D02*
X075427Y048579D01*
X075427Y049019D01*
X075117Y049369D01*
X076237Y049369D02*
X076302Y049369D01*
X076927Y049994D01*
X077177Y049994D01*
X077802Y050244D02*
X077802Y058494D01*
X075677Y060619D01*
X075677Y061369D01*
X075659Y061350D01*
X075621Y061350D01*
X075677Y061369D02*
X075677Y062494D01*
X075640Y062531D01*
X075621Y062531D01*
X076802Y062531D02*
X076797Y062279D01*
X076797Y061599D01*
X076802Y061350D01*
X076802Y060119D01*
X078177Y058744D01*
X078177Y050869D01*
X078677Y050369D01*
X079302Y050369D01*
X079302Y049369D02*
X078677Y049369D01*
X077802Y050244D01*
X072967Y054759D02*
X072017Y055709D01*
X072017Y062019D01*
X071890Y062262D01*
X071627Y062009D02*
X071617Y062019D01*
X071496Y062262D01*
X072284Y062262D02*
X072287Y062019D01*
X072287Y056139D01*
X072807Y055619D01*
X073177Y055369D01*
X067177Y053369D02*
X066807Y053619D01*
X066527Y053899D01*
X066527Y055839D01*
X065167Y053259D02*
X066807Y051619D01*
X067177Y051369D01*
X080302Y058369D02*
X080487Y058579D01*
X082697Y058579D01*
X082988Y058869D01*
X076802Y061350D02*
X076802Y061369D01*
X072617Y061729D02*
X072617Y062019D01*
X072677Y062262D01*
X057117Y062019D02*
X055797Y062019D01*
X055677Y062262D01*
X053037Y051349D02*
X053037Y039259D01*
X052087Y038309D01*
X052087Y036099D01*
X051965Y035850D01*
X052358Y035850D02*
X052487Y036099D01*
X052487Y036749D01*
X052877Y036389D02*
X052877Y036099D01*
X052752Y035850D01*
X053146Y035850D02*
X053267Y035859D01*
X053417Y035859D01*
X053539Y035850D01*
X054387Y036099D02*
X054387Y036819D01*
X054197Y039059D02*
X054347Y039209D01*
X051177Y035850D02*
X051297Y035609D01*
X051307Y035599D01*
X051307Y035539D01*
X051377Y035469D01*
X057887Y035469D01*
X058177Y035744D01*
D16*
X054387Y036819D03*
X054717Y037889D03*
X053867Y038129D03*
X054197Y039059D03*
X054017Y039709D03*
X052487Y036749D03*
X052877Y036389D03*
X058357Y042609D03*
X062157Y045609D03*
X062487Y047879D03*
X062767Y049369D03*
X062337Y050479D03*
X063497Y050479D03*
X065297Y049719D03*
X066387Y046899D03*
X071707Y049719D03*
X072237Y050979D03*
X065497Y055089D03*
X064657Y053639D03*
X062337Y055089D03*
X062997Y056319D03*
X062337Y057329D03*
X062997Y058259D03*
X061677Y059579D03*
X062727Y060419D03*
X064777Y061139D03*
X069267Y060159D03*
X070047Y060379D03*
X070837Y060589D03*
X072617Y061729D03*
X067977Y057289D03*
X059717Y052259D03*
X060377Y051429D03*
X056647Y049369D03*
X053037Y051349D03*
X059147Y057129D03*
X058607Y058759D03*
X055017Y061729D03*
X053047Y061729D03*
X057117Y062019D03*
X081067Y049459D03*
X063827Y040959D03*
X063497Y041839D03*
X068567Y036219D03*
X069357Y036139D03*
M02*
