%
T01C0.126000
X49177Y35869
X80177Y35869
X80177Y61869
X49177Y61869
T02C0.130000
X5248Y27085
X51552Y39344
T03C0.044000
X6248Y20185
X5248Y20185
X4248Y20185
X52552Y45244
X51552Y45244
X50552Y45244
T04C0.040000
X21248Y6685
X21248Y7685
X21248Y8685
X21248Y9685
X21248Y10685
X21248Y11685
X21248Y12685
X21248Y13685
X21248Y14685
X21248Y15685
X21248Y16685
X21248Y17685
X21248Y18685
X21248Y19685
X21248Y20685
X21248Y21685
X21248Y22685
X21248Y23685
X21248Y24685
X21248Y25685
X16248Y18685
X16248Y15685
X20310Y34811
X20310Y36811
X20748Y38811
X20748Y39811
X20748Y40811
X20748Y41811
X20748Y42811
X20748Y43811
X20748Y44811
X20748Y45811
X20748Y46811
X20748Y47811
X20748Y48811
X20748Y49811
X20748Y50811
X20748Y51811
X20748Y52811
X20748Y53811
X20748Y54811
X20748Y55811
X20748Y56811
X20748Y57811
X20248Y59811
X20248Y61811
X17248Y61311
X16248Y61311
X15248Y61311
X11748Y61311
X10748Y61311
X9748Y61311
X5748Y61311
X4748Y61311
X3748Y61311
X3248Y40811
X3248Y39811
X3248Y38811
X3248Y37811
X3748Y35311
X4748Y35311
X5748Y35311
X9248Y35311
X10248Y35311
X11248Y35311
X15248Y35311
X16248Y35311
X17248Y35311
X42244Y4685
X40244Y4685
X40744Y7685
X40744Y8685
X40744Y9685
X40744Y10685
X40744Y11685
X40744Y12685
X40744Y13685
X40744Y14685
X40744Y15685
X40744Y16685
X40744Y17685
X40744Y18685
X40744Y19685
X40744Y20685
X40744Y21685
X40744Y22685
X40744Y23685
X40744Y24685
X40744Y25685
X40744Y26685
X41744Y26685
X41744Y25685
X41744Y24685
X41744Y23685
X41744Y22685
X41744Y21685
X41744Y20685
X41744Y19685
X41744Y18685
X41744Y17685
X41744Y16685
X41744Y15685
X41744Y14685
X41744Y13685
X41744Y12685
X41744Y11685
X41744Y10685
X41744Y9685
X41744Y8685
X41744Y7685
X32744Y13685
X30744Y13685
X25244Y13685
X25244Y14685
X25244Y15685
X25244Y16685
X25244Y11685
X25244Y10685
X25244Y9685
X30681Y21935
X30681Y22935
X30681Y23935
X42056Y35311
X42056Y37311
X42494Y39311
X42494Y40311
X42494Y41311
X42494Y42311
X42494Y43311
X42494Y44311
X42494Y45311
X42494Y46311
X42494Y47311
X42494Y48311
X42494Y49311
X42494Y50311
X42494Y51311
X42494Y52311
X42494Y53311
X42494Y54311
X42494Y55311
X42494Y56311
X42494Y57311
X42494Y58311
X41994Y60311
X41994Y62311
X38994Y61811
X37994Y61811
X36994Y61811
X33494Y61811
X32494Y61811
X31494Y61811
X27494Y61811
X26494Y61811
X25494Y61811
X24994Y41311
X24994Y40311
X24994Y39311
X24994Y38311
X25494Y35811
X26494Y35811
X27494Y35811
X30994Y35811
X31994Y35811
X32994Y35811
X36994Y35811
X37994Y35811
X38994Y35811
X63052Y3691
X63052Y5691
X63490Y7691
X63490Y8691
X63490Y9691
X63490Y10691
X63490Y11691
X63490Y12691
X63490Y13691
X63490Y14691
X63490Y15691
X63490Y16691
X63490Y17691
X63490Y18691
X63490Y19691
X63490Y20691
X63490Y21691
X63490Y22691
X63490Y23691
X63490Y24691
X63490Y25691
X63490Y26691
X62990Y28691
X62990Y30691
X59990Y30191
X58990Y30191
X57990Y30191
X54490Y30191
X53490Y30191
X52490Y30191
X48490Y30191
X47490Y30191
X46490Y30191
X45990Y9691
X45990Y8691
X45990Y7691
X45990Y6691
X46490Y4191
X47490Y4191
X48490Y4191
X51990Y4191
X52990Y4191
X53990Y4191
X57990Y4191
X58990Y4191
X59990Y4191
X84798Y3691
X84798Y5691
X85236Y7691
X85236Y8691
X85236Y9691
X85236Y10691
X85236Y11691
X85236Y12691
X85236Y13691
X85236Y14691
X85236Y15691
X85236Y16691
X85236Y17691
X85236Y18691
X85236Y19691
X85236Y20691
X85236Y21691
X85236Y22691
X85236Y23691
X85236Y24691
X85236Y25691
X85236Y26691
X84736Y28691
X84736Y30691
X81736Y30191
X80736Y30191
X79736Y30191
X76236Y30191
X75236Y30191
X74236Y30191
X70236Y30191
X69236Y30191
X68236Y30191
X67736Y9691
X67736Y8691
X67736Y7691
X67736Y6691
X68236Y4191
X69236Y4191
X70236Y4191
X73736Y4191
X74736Y4191
X75736Y4191
X79736Y4191
X80736Y4191
X81736Y4191
X66177Y35744
X65177Y35744
X64177Y35744
X63177Y35744
X61177Y35744
X60177Y35744
X59177Y35744
X58177Y35744
X58177Y61869
X59177Y61869
X60177Y61869
X61177Y61869
X63177Y61869
X64177Y61869
X65177Y61869
X66177Y61869
T05C0.036000
X80302Y54369
X79302Y54369
X79302Y55369
X80302Y55369
X80302Y56369
X79302Y56369
X79302Y57369
X80302Y57369
X80302Y58369
X79302Y58369
X79302Y53369
X80302Y53369
X80302Y52369
X79302Y52369
X79302Y51369
X80302Y51369
X80302Y50369
X79302Y50369
X79302Y49369
X80302Y49369
X80302Y48369
X79302Y48369
X79302Y47369
X80302Y47369
X80302Y46369
X79302Y46369
X79302Y45369
X80302Y45369
X80302Y44369
X79302Y44369
X79302Y43369
X80302Y43369
X80302Y42369
X79302Y42369
X79302Y41369
X80302Y41369
X80302Y40369
X79302Y40369
X79302Y39369
X80302Y39369
T06C0.032000
X13248Y20185
X12248Y20185
X11248Y20185
X10248Y20185
X8248Y19685
X10248Y23185
X11248Y23185
X12248Y23185
X13248Y23185
X13248Y26185
X12248Y26185
X11248Y26185
X10248Y26185
X8248Y26685
X8248Y28685
X10248Y29185
X11248Y29185
X12248Y29185
X13248Y29185
X16248Y29185
X18248Y29185
X18248Y25185
X18248Y23185
X16248Y23185
X16248Y25185
X8248Y23685
X10560Y38373
X12560Y38373
X4998Y46311
X4998Y48311
X4998Y50311
X4998Y52311
X4998Y54311
X4998Y56311
X2998Y55311
X2998Y51311
X2998Y47311
X31244Y28185
X32244Y28185
X33244Y28185
X34244Y28185
X33544Y16122
X35444Y16122
X30244Y10685
X30244Y9685
X30244Y8685
X30244Y7685
X30244Y6685
X30244Y5685
X30244Y4685
X30244Y3685
X27244Y3685
X27244Y4685
X27244Y5685
X27244Y6685
X27244Y7685
X27244Y8685
X27244Y9685
X27244Y10685
X27244Y12685
X27244Y14685
X29244Y14685
X29244Y12685
X24744Y8185
X24744Y6185
X24744Y5185
X24744Y3185
X32306Y38873
X34306Y38873
X26744Y46811
X26744Y48811
X26744Y50811
X26744Y52811
X26744Y54811
X26744Y56811
X24744Y55811
X24744Y51811
X24744Y47811
X53302Y7253
X55302Y7253
X47740Y15191
X47740Y17191
X47740Y19191
X47740Y21191
X47740Y23191
X47740Y25191
X45740Y24191
X45740Y20191
X45740Y16191
X75048Y7253
X77048Y7253
X69486Y15191
X69486Y17191
X69486Y19191
X69486Y21191
X69486Y23191
X69486Y25191
X67486Y24191
X67486Y20191
X67486Y16191
X73177Y39369
X73177Y40369
X73177Y41369
X73177Y42369
X73177Y43369
X73177Y44369
X73177Y45369
X73177Y46369
X73177Y47369
X73177Y48369
X73177Y49369
X73177Y50369
X73177Y51369
X73177Y52369
X73177Y53369
X73177Y54369
X73177Y55369
X73177Y56369
X73177Y57369
X73177Y58369
X67177Y58369
X67177Y57369
X67177Y56369
X67177Y55369
X67177Y54369
X67177Y53369
X67177Y52369
X67177Y51369
X67177Y50369
X67177Y49369
X67177Y48369
X67177Y47369
X67177Y46369
X67177Y45369
X67177Y44369
X67177Y43369
X67177Y42369
X67177Y41369
X67177Y40369
X67177Y39369
X61177Y39369
X61177Y40369
X61177Y41369
X61177Y42369
X61177Y43369
X61177Y44369
X61177Y45369
X61177Y46369
X61177Y47369
X61177Y48369
X61177Y49369
X61177Y50369
X61177Y51369
X61177Y52369
X61177Y53369
X61177Y54369
X61177Y55369
X61177Y56369
X61177Y57369
X61177Y58369
X55177Y58369
X55177Y57369
X55177Y56369
X55177Y55369
X55177Y54369
X55177Y53369
X55177Y52369
X55177Y51369
X55177Y50369
X55177Y49369
X55177Y48369
X55177Y47369
X55177Y46369
X55177Y45369
X55177Y44369
X55177Y43369
X55177Y42369
X55177Y41369
X55177Y40369
X55177Y39369
X47677Y39369
X47677Y40369
X47677Y41369
X47677Y42369
X47677Y43369
X47677Y44369
X47677Y45369
X47677Y46369
X47677Y47369
X47677Y48369
X47677Y49369
X47677Y50369
X47677Y51369
X47677Y52369
X47677Y53369
X47677Y54369
X47677Y55369
X47677Y56369
X47677Y57369
X47677Y58369
X81927Y54744
X81927Y53744
X81927Y52744
X81927Y50869
X81927Y49869
X81927Y48869
X84927Y48869
X84927Y49869
X84927Y50869
X84927Y52744
X84927Y53744
X84927Y54744
T07C0.031500
X33244Y31685
X34244Y31685
X35244Y31685
X36244Y31685
X37244Y31685
X38244Y31685
X39244Y31685
X40244Y31685
X41244Y31685
X42244Y31685
X32244Y31685
X31244Y31685
X30244Y31685
X29244Y31685
X28244Y31685
X27244Y31685
X26244Y31685
X25244Y31685
X75621Y61350
X76802Y61350
X76802Y62531
X75621Y62531
X75802Y36387
X76983Y36387
X76983Y35206
X75802Y35206
T08C0.024000
X32244Y12185
X32744Y25185
X72617Y61729
X70837Y60589
X70047Y60379
X69267Y60159
X67977Y57289
X65497Y55089
X64657Y53639
X62337Y55089
X62997Y56319
X62337Y57329
X62997Y58259
X61677Y59579
X62727Y60419
X64777Y61139
X58607Y58759
X59147Y57129
X55017Y61729
X53047Y61729
X57117Y62019
X59717Y52259
X60377Y51429
X62337Y50479
X63497Y50479
X62767Y49369
X62487Y47879
X65297Y49719
X66387Y46899
X62157Y45609
X58357Y42609
X54017Y39709
X54197Y39059
X53867Y38129
X54717Y37889
X54387Y36819
X52877Y36389
X52487Y36749
X63497Y41839
X63827Y40959
X68567Y36219
X69357Y36139
X81067Y49459
X72237Y50979
X71707Y49719
X56647Y49369
X53037Y51349
T09C0.023600
X19248Y38811
X18748Y39811
X18248Y40811
X16748Y41061
X16373Y41748
X16373Y42811
X16185Y43811
X16248Y44811
X16185Y45623
X15248Y46498
X14748Y46748
X14810Y47498
X16748Y48561
X19810Y52123
X19810Y54811
X19248Y56561
X17748Y54811
X17248Y53811
X15998Y58061
X15998Y59311
X13498Y60311
X12748Y58061
X10248Y60311
X9498Y58061
X7248Y62811
X8748Y47561
X8748Y46811
X8873Y46123
X8998Y45186
X9873Y45186
X10623Y45373
X11435Y42436
X12748Y41748
X14060Y41748
X14060Y42436
X15560Y40748
X14185Y39248
X14748Y38311
X12935Y39998
X9748Y40686
X9248Y41498
X8873Y39936
X8248Y39436
X7560Y38936
X7123Y40061
X6185Y41498
X5498Y41811
X4935Y43186
X4310Y43561
X5873Y44623
X6248Y45623
X8498Y36811
X42619Y6185
X43119Y6685
X39119Y4685
X39119Y9122
X37244Y11247
X36119Y12997
X36994Y13685
X37181Y14685
X37806Y14122
X37619Y13122
X37681Y16872
X36244Y20372
X36306Y20997
X35681Y20685
X33869Y21247
X33181Y21060
X33931Y19310
X33556Y17622
X34119Y17560
X32181Y15622
X31806Y15185
X30744Y14997
X30244Y15435
X30306Y16560
X29556Y18185
X29556Y20185
X29556Y22247
X29556Y24122
X29619Y26247
X30056Y28185
X27619Y29872
X33494Y23685
X33869Y24185
X35494Y27185
X36306Y26997
X37056Y27435
X36681Y27997
X37931Y23060
X38806Y22685
X38494Y21685
X37994Y21497
X40306Y17185
X40306Y16185
X33556Y14247
X27994Y15872
X26494Y15685
X31369Y6060
X31119Y5122
X40994Y39311
X40494Y40311
X39994Y41311
X38494Y41561
X38119Y42248
X38119Y43311
X37931Y44311
X37994Y45311
X37931Y46123
X36994Y46998
X36494Y47248
X36556Y47998
X38494Y49061
X41556Y52623
X41556Y55311
X40994Y57061
X39494Y55311
X38994Y54311
X37744Y58561
X37744Y59811
X35244Y60811
X34494Y58561
X31994Y60811
X31244Y58561
X28994Y63311
X30494Y48061
X30494Y47311
X30619Y46623
X30744Y45686
X31619Y45686
X32369Y45873
X33181Y42936
X34494Y42248
X35806Y42248
X35806Y42936
X37306Y41248
X35931Y39748
X36494Y38811
X34681Y40498
X31494Y41186
X30994Y41998
X30619Y40436
X29994Y39936
X29306Y39436
X28869Y40561
X27931Y41998
X27244Y42311
X26681Y43686
X26056Y44061
X27619Y45123
X27994Y46123
X30244Y37311
X61990Y7691
X61490Y8691
X60990Y9691
X59490Y9941
X59115Y10628
X59115Y11691
X58927Y12691
X58990Y13691
X58927Y14503
X57990Y15378
X57490Y15628
X57552Y16378
X59490Y17441
X62552Y21003
X62552Y23691
X61990Y25441
X60490Y23691
X59990Y22691
X58740Y26941
X58740Y28191
X56240Y29191
X55490Y26941
X52990Y29191
X52240Y26941
X49990Y31691
X51490Y16441
X51490Y15691
X51615Y15003
X51740Y14066
X52615Y14066
X53365Y14253
X54177Y11316
X55490Y10628
X56802Y10628
X56802Y11316
X58302Y9628
X56927Y8128
X57490Y7191
X55677Y8878
X52490Y9566
X51990Y10378
X51615Y8816
X50990Y8316
X50302Y7816
X49865Y8941
X48927Y10378
X48240Y10691
X47677Y12066
X47052Y12441
X48615Y13503
X48990Y14503
X51240Y5691
X83736Y7691
X83236Y8691
X82736Y9691
X81236Y9941
X80861Y10628
X80861Y11691
X80673Y12691
X80736Y13691
X80673Y14503
X79736Y15378
X79236Y15628
X79298Y16378
X81236Y17441
X84298Y21003
X84298Y23691
X83736Y25441
X82236Y23691
X81736Y22691
X80486Y26941
X80486Y28191
X77986Y29191
X77236Y26941
X74736Y29191
X73986Y26941
X71736Y31691
X73236Y16441
X73236Y15691
X73361Y15003
X73486Y14066
X74361Y14066
X75111Y14253
X75923Y11316
X77236Y10628
X78548Y10628
X78548Y11316
X80048Y9628
X78673Y8128
X79236Y7191
X77423Y8878
X74236Y9566
X73736Y10378
X73361Y8816
X72736Y8316
X72048Y7816
X71611Y8941
X70673Y10378
X69986Y10691
X69423Y12066
X68798Y12441
X70361Y13503
X70736Y14503
X72986Y5691
X51552Y42369
X55177Y46369
X61177Y46369
X67177Y46369
X73177Y46369
X77177Y49994
X74552Y51369
X79302Y42369
X78164Y34812
X74621Y34812
X74440Y62925
X77983Y62925
T10C0.110000
X76552Y43369
T11C0.071000
X83427Y38844
X83427Y36994
X83427Y35144
T12C0.052000
X76552Y46369
X76552Y40369
T13C0.079000
X11248Y16185
X11248Y18185
X8748Y25185
T14C0.055000
X12248Y12185
X14248Y12185
X16248Y12185
X18248Y12185
X18248Y6185
X16248Y6185
X14248Y6185
X12248Y6185
X9248Y7685
X7748Y5685
X5748Y7685
X4248Y5685
M30
