%
M48
M72
T01C0.01181
T02C0.02362
T03C0.03150
T04C0.04000
%
T01
X410922Y22177
X415297Y24052
X419672Y25302
X424672Y25302
X435297Y25927
X434672Y9677
X439672Y9677
X442797Y7802
X445922Y9677
X449989Y7999
X457172Y16552
X450297Y51552
X439672Y56552
X424672Y66552
X416547Y69677
X417172Y82177
X421547Y86552
X418422Y98427
X422172Y105927
X410922Y105927
X387797Y107177
X388422Y115302
X388422Y121552
X381547Y125927
X370922Y135302
X378816Y145302
X385922Y147802
X390922Y148427
X388422Y152177
X370922Y150302
X387797Y170302
X389047Y181865
X394047Y184677
X409047Y185927
X420297Y185927
X457172Y167802
X424047Y155927
X426547Y145927
X403501Y136006
X435297Y115927
X445297Y115927
X444672Y120927
X445297Y125302
X458422Y115927
X446547Y109052
X451547Y103427
X458422Y103427
X445922Y97802
X450297Y92177
X445922Y84677
X442797Y80302
X454672Y75927
X462797Y85302
X462797Y92177
X400297Y75302
X399672Y65927
X382172Y76552
X391547Y84677
X391547Y90302
X378422Y183115
T02
X379047Y15927
X384672Y15927
X414672Y40927
X422172Y40927
X419047Y49052
X449672Y34677
X459047Y29677
X382797Y52177
X382797Y58427
X477797Y82802
X419672Y125927
X426547Y135927
X451547Y133427
X469672Y133427
X474672Y167802
X403422Y165927
X387172Y138427
X389047Y130302
X405969Y195880
X390922Y228427
T03
X420297Y166552
X420040Y195880
X419984Y239365
T04
X465597Y32679
X475597Y32679
X475597Y42679
X465597Y42679
X465597Y52679
X475597Y52679
X475597Y62679
X465597Y62679
X465597Y72679
X475597Y72679
M30
