G75*
%MOIN*%
%OFA0B0*%
%FSLAX25Y25*%
%IPPOS*%
%LPD*%
%AMOC8*
5,1,8,0,0,1.08239X$1,22.5*
%
%ADD10R,0.03950X0.05524*%
%ADD11C,0.05950*%
%ADD12R,0.03950X0.04343*%
%ADD13OC8,0.08200*%
%ADD14R,0.17100X0.04700*%
%ADD15R,0.08674X0.03202*%
%ADD16R,0.08674X0.03162*%
%ADD17R,0.14973X0.11351*%
%ADD18R,0.12611X0.05721*%
%ADD19C,0.03581*%
%ADD20C,0.04762*%
D10*
X0381129Y0177802D03*
X0388215Y0177802D03*
X0388215Y0187802D03*
X0381129Y0187802D03*
X0381129Y0196552D03*
X0388215Y0196552D03*
X0446129Y0070302D03*
X0453215Y0070302D03*
X0453215Y0062802D03*
X0446129Y0062802D03*
X0446129Y0055302D03*
X0453215Y0055302D03*
X0453215Y0047802D03*
X0446129Y0047802D03*
D11*
X0420297Y0166552D03*
X0420040Y0195880D03*
X0419984Y0239365D03*
D12*
X0375075Y0164306D03*
X0371335Y0156038D03*
X0378816Y0156038D03*
D13*
X0465597Y0072679D03*
X0475597Y0072679D03*
X0475597Y0062679D03*
X0465597Y0062679D03*
X0465597Y0052679D03*
X0475597Y0052679D03*
X0475597Y0042679D03*
X0465597Y0042679D03*
X0465597Y0032679D03*
X0475597Y0032679D03*
D14*
X0431222Y0030927D03*
X0431222Y0040927D03*
X0431222Y0050927D03*
X0431222Y0060927D03*
X0431222Y0070927D03*
X0431222Y0080927D03*
X0431222Y0090927D03*
X0431222Y0100927D03*
X0431222Y0110927D03*
X0431222Y0120927D03*
X0431222Y0130927D03*
X0431222Y0140927D03*
X0431222Y0150927D03*
X0431222Y0160927D03*
X0431222Y0170927D03*
X0431222Y0180927D03*
X0431222Y0190927D03*
X0431222Y0200927D03*
X0431222Y0210927D03*
X0431222Y0220927D03*
X0403122Y0220927D03*
X0403122Y0210927D03*
X0403122Y0200927D03*
X0403122Y0190927D03*
X0403122Y0180927D03*
X0403122Y0170927D03*
X0403122Y0160927D03*
X0403122Y0150927D03*
X0403122Y0140927D03*
X0403122Y0130927D03*
X0403122Y0120927D03*
X0403122Y0110927D03*
X0403122Y0100927D03*
X0403122Y0090927D03*
X0403122Y0080927D03*
X0403122Y0070927D03*
X0403122Y0060927D03*
X0403122Y0050927D03*
X0403122Y0040927D03*
X0403122Y0030927D03*
D15*
X0370046Y0175617D03*
X0370046Y0179554D03*
X0370046Y0183491D03*
X0370046Y0187428D03*
X0370046Y0191365D03*
X0370046Y0199239D03*
X0370046Y0203176D03*
X0370046Y0207113D03*
X0370046Y0211050D03*
X0370046Y0214987D03*
D16*
X0370046Y0195302D03*
D17*
X0359022Y0163806D03*
X0359022Y0226798D03*
D18*
X0381867Y0101552D03*
X0381867Y0091552D03*
X0381867Y0081552D03*
X0381867Y0071552D03*
D19*
X0382172Y0076552D03*
X0391547Y0084677D03*
X0391547Y0090302D03*
X0387797Y0107177D03*
X0388422Y0115302D03*
X0388422Y0121552D03*
X0381547Y0125927D03*
X0370922Y0135302D03*
X0378816Y0145302D03*
X0385922Y0147802D03*
X0390922Y0148427D03*
X0388422Y0152177D03*
X0370922Y0150302D03*
X0387797Y0170302D03*
X0389047Y0181865D03*
X0394047Y0184677D03*
X0409047Y0185927D03*
X0420297Y0185927D03*
X0457172Y0167802D03*
X0424047Y0155927D03*
X0426547Y0145927D03*
X0403501Y0136006D03*
X0435297Y0115927D03*
X0445297Y0115927D03*
X0444672Y0120927D03*
X0445297Y0125302D03*
X0458422Y0115927D03*
X0446547Y0109052D03*
X0451547Y0103427D03*
X0458422Y0103427D03*
X0445922Y0097802D03*
X0450297Y0092177D03*
X0445922Y0084677D03*
X0442797Y0080302D03*
X0454672Y0075927D03*
X0462797Y0085302D03*
X0462797Y0092177D03*
X0421547Y0086552D03*
X0417172Y0082177D03*
X0416547Y0069677D03*
X0424672Y0066552D03*
X0439672Y0056552D03*
X0450297Y0051552D03*
X0435297Y0025927D03*
X0424672Y0025302D03*
X0419672Y0025302D03*
X0415297Y0024052D03*
X0410922Y0022177D03*
X0434672Y0009677D03*
X0439672Y0009677D03*
X0442797Y0007802D03*
X0445922Y0009677D03*
X0449989Y0007999D03*
X0457172Y0016552D03*
X0399672Y0065927D03*
X0400297Y0075302D03*
X0418422Y0098427D03*
X0422172Y0105927D03*
X0410922Y0105927D03*
X0378422Y0183115D03*
D20*
X0403422Y0165927D03*
X0387172Y0138427D03*
X0389047Y0130302D03*
X0419672Y0125927D03*
X0426547Y0135927D03*
X0451547Y0133427D03*
X0469672Y0133427D03*
X0474672Y0167802D03*
X0405969Y0195880D03*
X0390922Y0228427D03*
X0477797Y0082802D03*
X0419047Y0049052D03*
X0422172Y0040927D03*
X0414672Y0040927D03*
X0382797Y0052177D03*
X0382797Y0058427D03*
X0384672Y0015927D03*
X0379047Y0015927D03*
X0449672Y0034677D03*
X0459047Y0029677D03*
M02*
