G75*
%MOIN*%
%OFA0B0*%
%FSLAX25Y25*%
%IPPOS*%
%LPD*%
%AMOC8*
5,1,8,0,0,1.08239X$1,22.5*
%
%ADD10R,0.27178X0.27178*%
%ADD11R,0.12611X0.07099*%
%ADD12R,0.05524X0.03950*%
%ADD13R,0.03950X0.05524*%
%ADD14R,0.06312X0.05524*%
%ADD15R,0.07099X0.14580*%
%ADD16R,0.07493X0.07887*%
%ADD17C,0.05950*%
%ADD18R,0.06706X0.02769*%
%ADD19R,0.02769X0.06706*%
%ADD20OC8,0.08200*%
%ADD21R,0.05600X0.09600*%
%ADD22R,0.14973X0.09461*%
%ADD23R,0.06800X0.03800*%
%ADD24C,0.01575*%
%ADD25R,0.02756X0.01575*%
%ADD26R,0.01575X0.02756*%
%ADD27R,0.20000X0.20000*%
%ADD28R,0.15800X0.15800*%
%ADD29C,0.03581*%
%ADD30C,0.04762*%
D10*
X0371547Y0167177D03*
X0371547Y0199052D03*
X0371547Y0230302D03*
X0440297Y0230927D03*
X0440297Y0199052D03*
X0440297Y0168427D03*
D11*
X0462935Y0159372D03*
X0462935Y0177482D03*
X0462935Y0189997D03*
X0462935Y0208107D03*
X0462935Y0221872D03*
X0462935Y0239982D03*
X0394185Y0239357D03*
X0394185Y0221247D03*
X0394185Y0208107D03*
X0394185Y0189997D03*
X0394185Y0176232D03*
X0394185Y0158122D03*
D12*
X0430297Y0127596D03*
X0440297Y0127596D03*
X0440297Y0120509D03*
X0440297Y0115721D03*
X0430297Y0115721D03*
X0430297Y0120509D03*
X0430297Y0108634D03*
X0430297Y0103846D03*
X0430297Y0096759D03*
X0430297Y0091971D03*
X0430297Y0084884D03*
X0440297Y0084884D03*
X0440297Y0091971D03*
X0440297Y0096759D03*
X0440297Y0103846D03*
X0440297Y0108634D03*
X0412258Y0091374D03*
X0405947Y0091374D03*
X0399791Y0091374D03*
X0399791Y0084287D03*
X0405947Y0084287D03*
X0412258Y0084287D03*
X0381547Y0099259D03*
X0374672Y0099259D03*
X0374672Y0106346D03*
X0381547Y0106346D03*
X0381547Y0113634D03*
X0381547Y0120721D03*
X0357797Y0109471D03*
X0357797Y0102384D03*
X0369672Y0076971D03*
X0369672Y0069884D03*
X0369047Y0056971D03*
X0369047Y0049884D03*
X0369047Y0036971D03*
X0369047Y0029884D03*
X0368422Y0016971D03*
X0368422Y0009884D03*
X0452587Y0012605D03*
X0452587Y0019692D03*
D13*
X0388215Y0029052D03*
X0388215Y0035302D03*
X0381129Y0035302D03*
X0381129Y0029052D03*
X0396754Y0074677D03*
X0403840Y0074677D03*
X0409254Y0074677D03*
X0416340Y0074677D03*
X0421754Y0074677D03*
X0428840Y0074677D03*
X0434254Y0074677D03*
X0441340Y0074677D03*
X0471754Y0159052D03*
X0478840Y0159052D03*
X0470090Y0167802D03*
X0463004Y0167802D03*
X0462379Y0198427D03*
X0469465Y0198427D03*
X0470090Y0230927D03*
X0463004Y0230927D03*
X0408215Y0228427D03*
X0401129Y0228427D03*
X0400292Y0199108D03*
X0393205Y0199108D03*
X0391441Y0166865D03*
X0398528Y0166865D03*
D14*
X0360922Y0089333D03*
X0360922Y0077522D03*
X0360922Y0069333D03*
X0360922Y0057522D03*
X0360922Y0049333D03*
X0360922Y0037522D03*
X0360922Y0028708D03*
X0360922Y0016897D03*
D15*
X0469943Y0087068D03*
X0469943Y0108328D03*
X0470040Y0123318D03*
X0470040Y0144578D03*
D16*
X0451439Y0141715D03*
X0451439Y0125573D03*
D17*
X0420297Y0166552D03*
X0420040Y0195880D03*
X0419984Y0239365D03*
D18*
X0397462Y0053550D03*
X0397462Y0050401D03*
X0397462Y0047251D03*
X0397462Y0044101D03*
X0397462Y0040952D03*
X0397462Y0037802D03*
X0397462Y0034653D03*
X0397462Y0031503D03*
X0397462Y0028353D03*
X0397462Y0025204D03*
X0397462Y0022054D03*
X0443132Y0022054D03*
X0443132Y0025204D03*
X0443132Y0028353D03*
X0443132Y0031503D03*
X0443132Y0034653D03*
X0443132Y0037802D03*
X0443132Y0040952D03*
X0443132Y0044101D03*
X0443132Y0047251D03*
X0443132Y0050401D03*
X0443132Y0053550D03*
D19*
X0436045Y0060637D03*
X0432895Y0060637D03*
X0429746Y0060637D03*
X0426596Y0060637D03*
X0423447Y0060637D03*
X0420297Y0060637D03*
X0417147Y0060637D03*
X0413998Y0060637D03*
X0410848Y0060637D03*
X0407698Y0060637D03*
X0404549Y0060637D03*
X0404549Y0014968D03*
X0407698Y0014968D03*
X0410848Y0014968D03*
X0413998Y0014968D03*
X0417147Y0014968D03*
X0420297Y0014968D03*
X0423447Y0014968D03*
X0426596Y0014968D03*
X0429746Y0014968D03*
X0432895Y0014968D03*
X0436045Y0014968D03*
D20*
X0465597Y0032679D03*
X0475597Y0032679D03*
X0475597Y0042679D03*
X0465597Y0042679D03*
X0465597Y0052679D03*
X0475597Y0052679D03*
X0475597Y0062679D03*
X0465597Y0062679D03*
X0465597Y0072679D03*
X0475597Y0072679D03*
D21*
X0356197Y0118727D03*
X0365297Y0118727D03*
X0374397Y0118727D03*
D22*
X0365297Y0143128D03*
D23*
X0458303Y0024446D03*
X0458303Y0009446D03*
X0480303Y0009446D03*
X0480303Y0024446D03*
D24*
X0414780Y0099672D03*
X0412812Y0099672D03*
X0410843Y0099672D03*
X0408875Y0099672D03*
X0406906Y0099672D03*
X0404938Y0099672D03*
X0402969Y0099672D03*
X0401001Y0099672D03*
X0399032Y0099672D03*
X0397064Y0099672D03*
X0395292Y0101444D03*
X0395292Y0103412D03*
X0395292Y0105381D03*
X0395292Y0107349D03*
X0395292Y0109318D03*
X0395292Y0111286D03*
X0395292Y0113255D03*
X0395292Y0115223D03*
X0395292Y0117192D03*
X0395292Y0119160D03*
X0397064Y0120932D03*
X0399032Y0120932D03*
X0401001Y0120932D03*
X0402969Y0120932D03*
X0404938Y0120932D03*
X0406906Y0120932D03*
X0408875Y0120932D03*
X0410843Y0120932D03*
X0412812Y0120932D03*
X0414780Y0120932D03*
X0416552Y0119160D03*
X0416552Y0117192D03*
X0416552Y0115223D03*
X0416552Y0111286D03*
X0416552Y0107349D03*
X0416552Y0105381D03*
X0416552Y0103412D03*
X0416552Y0101444D03*
D25*
X0417930Y0103412D03*
X0417930Y0105381D03*
X0417930Y0107349D03*
X0417930Y0109318D03*
X0417930Y0111286D03*
X0417930Y0113255D03*
X0417930Y0115223D03*
X0417930Y0117192D03*
X0417930Y0119160D03*
X0393914Y0119160D03*
X0393914Y0117192D03*
X0393914Y0115223D03*
X0393914Y0113255D03*
X0393914Y0111286D03*
X0393914Y0109318D03*
X0393914Y0107349D03*
X0393914Y0105381D03*
X0393914Y0103412D03*
X0393914Y0101444D03*
D26*
X0397064Y0098294D03*
X0399032Y0098294D03*
X0401001Y0098294D03*
X0402969Y0098294D03*
X0404938Y0098294D03*
X0406906Y0098294D03*
X0408875Y0098294D03*
X0410843Y0098294D03*
X0412812Y0098294D03*
X0414780Y0098294D03*
X0414780Y0122310D03*
X0412812Y0122310D03*
X0410843Y0122310D03*
X0408875Y0122310D03*
X0406906Y0122310D03*
X0404938Y0122310D03*
X0402969Y0122310D03*
X0401001Y0122310D03*
X0399032Y0122310D03*
X0397064Y0122310D03*
D27*
X0405922Y0110302D03*
D28*
X0405922Y0110302D03*
D29*
X0410922Y0105927D03*
X0418422Y0098427D03*
X0422172Y0105927D03*
X0435297Y0115927D03*
X0445297Y0115927D03*
X0444672Y0120927D03*
X0445297Y0125302D03*
X0458422Y0115927D03*
X0446547Y0109052D03*
X0451547Y0103427D03*
X0458422Y0103427D03*
X0445922Y0097802D03*
X0450297Y0092177D03*
X0445922Y0084677D03*
X0442797Y0080302D03*
X0454672Y0075927D03*
X0462797Y0085302D03*
X0462797Y0092177D03*
X0421547Y0086552D03*
X0417172Y0082177D03*
X0416547Y0069677D03*
X0424672Y0066552D03*
X0439672Y0056552D03*
X0450297Y0051552D03*
X0435297Y0025927D03*
X0424672Y0025302D03*
X0419672Y0025302D03*
X0415297Y0024052D03*
X0410922Y0022177D03*
X0434672Y0009677D03*
X0439672Y0009677D03*
X0442797Y0007802D03*
X0445922Y0009677D03*
X0449989Y0007999D03*
X0457172Y0016552D03*
X0399672Y0065927D03*
X0400297Y0075302D03*
X0391547Y0084677D03*
X0391547Y0090302D03*
X0382172Y0076552D03*
X0387797Y0107177D03*
X0388422Y0115302D03*
X0388422Y0121552D03*
X0381547Y0125927D03*
X0370922Y0135302D03*
X0378816Y0145302D03*
X0385922Y0147802D03*
X0390922Y0148427D03*
X0388422Y0152177D03*
X0370922Y0150302D03*
X0387797Y0170302D03*
X0389047Y0181865D03*
X0394047Y0184677D03*
X0409047Y0185927D03*
X0420297Y0185927D03*
X0457172Y0167802D03*
X0424047Y0155927D03*
X0426547Y0145927D03*
X0403501Y0136006D03*
X0378422Y0183115D03*
D30*
X0403422Y0165927D03*
X0387172Y0138427D03*
X0389047Y0130302D03*
X0419672Y0125927D03*
X0426547Y0135927D03*
X0451547Y0133427D03*
X0469672Y0133427D03*
X0474672Y0167802D03*
X0405969Y0195880D03*
X0390922Y0228427D03*
X0477797Y0082802D03*
X0419047Y0049052D03*
X0422172Y0040927D03*
X0414672Y0040927D03*
X0382797Y0052177D03*
X0382797Y0058427D03*
X0384672Y0015927D03*
X0379047Y0015927D03*
X0449672Y0034677D03*
X0459047Y0029677D03*
M02*
