G75*
G70*
%OFA0B0*%
%FSLAX24Y24*%
%IPPOS*%
%LPD*%
%AMOC8*
5,1,8,0,0,1.08239X$1,22.5*
%
%ADD10C,0.0820*%
%ADD11R,0.0552X0.0395*%
%ADD12R,0.1080X0.0580*%
%ADD13C,0.0680*%
%ADD14R,0.0631X0.0552*%
%ADD15R,0.0280X0.0660*%
%ADD16R,0.0660X0.0280*%
%ADD17OC8,0.0820*%
%ADD18R,0.0395X0.0552*%
%ADD19R,0.0395X0.0434*%
%ADD20R,0.0690X0.0592*%
%ADD21R,0.0595X0.0595*%
%ADD22R,0.0710X0.1458*%
%ADD23C,0.0480*%
%ADD24R,0.0476X0.0476*%
D10*
X009629Y007428D03*
X010629Y007328D03*
X011629Y007428D03*
X012629Y007328D03*
X013629Y007428D03*
X014629Y007328D03*
X015629Y007428D03*
X016629Y007328D03*
X017629Y007428D03*
X018629Y007328D03*
X036794Y007428D03*
X037794Y007328D03*
X038794Y007428D03*
X039794Y007328D03*
X040794Y007428D03*
X041794Y007328D03*
X042794Y007428D03*
X043794Y007328D03*
X044794Y007428D03*
X045794Y007328D03*
X045794Y044336D03*
X044794Y044436D03*
X043794Y044336D03*
X042794Y044436D03*
X041794Y044336D03*
X040794Y044436D03*
X039794Y044336D03*
X038794Y044436D03*
X037794Y044336D03*
X036794Y044436D03*
X018629Y044336D03*
X017629Y044436D03*
X016629Y044336D03*
X015629Y044436D03*
X014629Y044336D03*
X013629Y044436D03*
X012629Y044336D03*
X011629Y044436D03*
X010629Y044336D03*
X009629Y044436D03*
D11*
X009432Y042772D03*
X009432Y042063D03*
X014747Y041591D03*
X014747Y040882D03*
X018290Y042457D03*
X018290Y043165D03*
X020652Y041984D03*
X020652Y041276D03*
X022621Y041276D03*
X022621Y041984D03*
X024589Y041984D03*
X024589Y041276D03*
X026558Y041276D03*
X026558Y041984D03*
X028526Y041984D03*
X028526Y041276D03*
X030495Y041276D03*
X030495Y041984D03*
X032463Y041984D03*
X032463Y041276D03*
X034432Y041276D03*
X034432Y041984D03*
X037188Y042063D03*
X037188Y042772D03*
X038369Y041197D03*
X038369Y040488D03*
X039550Y042063D03*
X039550Y042772D03*
X033054Y032535D03*
X033054Y031827D03*
X032070Y031827D03*
X032070Y032535D03*
X022227Y032220D03*
X022227Y032929D03*
X022227Y031354D03*
X022227Y030646D03*
X022227Y029780D03*
X022227Y029071D03*
X010967Y036394D03*
X010967Y037102D03*
X009865Y037102D03*
X009865Y036394D03*
X008763Y036394D03*
X008763Y037102D03*
X007660Y037102D03*
X007660Y036394D03*
X007542Y027654D03*
X007542Y026945D03*
X008802Y026945D03*
X008802Y027654D03*
X006204Y027654D03*
X006204Y026945D03*
X004865Y026945D03*
X004865Y027654D03*
D12*
X005320Y025020D03*
X005320Y024020D03*
X005320Y023020D03*
X005320Y022020D03*
X008820Y022020D03*
X008820Y023020D03*
X008820Y024020D03*
X008820Y025020D03*
X007485Y031862D03*
X007485Y032862D03*
X007485Y033862D03*
X007485Y034862D03*
X010985Y034862D03*
X010985Y033862D03*
X010985Y032862D03*
X010985Y031862D03*
D13*
X041912Y021945D03*
X041912Y021157D03*
X041912Y020370D03*
X041912Y019583D03*
X041912Y018795D03*
X041912Y018008D03*
X041912Y017220D03*
X041912Y016433D03*
X041912Y015646D03*
X041912Y014858D03*
X050574Y014858D03*
X050574Y015646D03*
X050574Y016433D03*
X050574Y017220D03*
X050574Y018008D03*
X050574Y018795D03*
X050574Y019583D03*
X050574Y020370D03*
X050574Y021157D03*
X050574Y021945D03*
D14*
X034432Y043402D03*
X034432Y044583D03*
X032463Y044583D03*
X032463Y043402D03*
X030495Y043402D03*
X030495Y044583D03*
X028526Y044583D03*
X028526Y043402D03*
X026558Y043402D03*
X026558Y044583D03*
X024589Y044583D03*
X024589Y043402D03*
X022621Y043402D03*
X022621Y044583D03*
X020652Y044583D03*
X020652Y043402D03*
D15*
X025379Y035969D03*
X025689Y035969D03*
X026009Y035969D03*
X026319Y035969D03*
X026639Y035969D03*
X026949Y035969D03*
X027269Y035969D03*
X027579Y035969D03*
X027899Y035969D03*
X028209Y035969D03*
X028529Y035969D03*
X028839Y035969D03*
X029159Y035969D03*
X029469Y035969D03*
X029789Y035969D03*
X030099Y035969D03*
X030099Y029969D03*
X029789Y029969D03*
X029469Y029969D03*
X029159Y029969D03*
X028839Y029969D03*
X028529Y029969D03*
X028209Y029969D03*
X027899Y029969D03*
X027579Y029969D03*
X027269Y029969D03*
X026949Y029969D03*
X026639Y029969D03*
X026319Y029969D03*
X026009Y029969D03*
X025689Y029969D03*
X025379Y029969D03*
D16*
X024739Y030609D03*
X024739Y030919D03*
X024739Y031239D03*
X024739Y031549D03*
X024739Y031869D03*
X024739Y032179D03*
X024739Y032499D03*
X024739Y032809D03*
X024739Y033129D03*
X024739Y033439D03*
X024739Y033759D03*
X024739Y034069D03*
X024739Y034389D03*
X024739Y034699D03*
X024739Y035019D03*
X024739Y035329D03*
X030739Y035329D03*
X030739Y035019D03*
X030739Y034699D03*
X030739Y034389D03*
X030739Y034069D03*
X030739Y033759D03*
X030739Y033439D03*
X030739Y033129D03*
X030739Y032809D03*
X030739Y032499D03*
X030739Y032179D03*
X030739Y031869D03*
X030739Y031549D03*
X030739Y031239D03*
X030739Y030919D03*
X030739Y030609D03*
D17*
X030133Y012406D03*
X029133Y012406D03*
X028133Y012406D03*
X027133Y012406D03*
X026133Y012406D03*
X026133Y011406D03*
X027133Y011406D03*
X028133Y011406D03*
X029133Y011406D03*
X030133Y011406D03*
D18*
X015101Y011512D03*
X014393Y011512D03*
X011164Y042417D03*
X010456Y042417D03*
D19*
X009235Y020016D03*
X008861Y019189D03*
X009609Y019189D03*
D20*
X013182Y014366D03*
X013182Y012594D03*
X016312Y012594D03*
X016312Y014366D03*
D21*
X016715Y017189D03*
X016715Y018189D03*
X016715Y019189D03*
X016715Y020189D03*
X016715Y021189D03*
D22*
X016715Y040173D03*
X016715Y042299D03*
X012778Y042299D03*
X012778Y040173D03*
D23*
X010101Y042929D03*
X007719Y035429D03*
X020908Y031886D03*
X021440Y031945D03*
X022805Y032822D03*
X021912Y033776D03*
X024156Y032772D03*
X024055Y032197D03*
X023555Y031322D03*
X025928Y030567D03*
X026400Y031118D03*
X027030Y031472D03*
X028430Y030572D03*
X028805Y030947D03*
X029305Y030947D03*
X028586Y031413D03*
X029708Y032535D03*
X028054Y033717D03*
X028305Y034947D03*
X027930Y035322D03*
X028930Y035322D03*
X026696Y034602D03*
X026164Y034661D03*
X025337Y033776D03*
X026046Y028953D03*
X029038Y029189D03*
X029555Y029197D03*
X031597Y029169D03*
X031952Y030173D03*
X034373Y029465D03*
X030930Y026822D03*
X030337Y024661D03*
X032424Y022575D03*
X039786Y020449D03*
X036499Y013795D03*
X026125Y015016D03*
X023920Y012811D03*
X022818Y012299D03*
X016204Y011610D03*
X018526Y018835D03*
X018881Y019661D03*
X020908Y022339D03*
X021440Y024701D03*
X010810Y022339D03*
X010810Y019189D03*
X031814Y036591D03*
X032621Y037280D03*
X033369Y037024D03*
X036499Y040154D03*
X037180Y039322D03*
X038305Y039947D03*
X039430Y040572D03*
X039944Y040685D03*
X037680Y042339D03*
X038684Y043343D03*
X041164Y043815D03*
X035692Y044583D03*
X039944Y029622D03*
D24*
X039944Y029031D03*
X036007Y029031D03*
X035219Y032575D03*
X029708Y026866D03*
X030101Y025488D03*
X032070Y023520D03*
X032070Y021551D03*
X035219Y021551D03*
X036007Y023520D03*
X027542Y021551D03*
X027542Y026866D03*
M02*
