%
M48
M72
T01C0.0236
T02C0.0240
T03C0.0315
T04C0.0400
%
T01
X27542Y21551
X32070Y21551
X32070Y23520
X30101Y25488
X29708Y26866
X27542Y26866
X35219Y21551
X36007Y23520
X36007Y29031
X39944Y29031
X35219Y32575
T02
X31952Y30173
X31597Y29169
X29555Y29197
X29038Y29189
X28430Y30572
X28805Y30947
X29305Y30947
X28586Y31413
X29708Y32535
X28054Y33717
X28305Y34947
X27930Y35322
X28930Y35322
X26696Y34602
X26164Y34661
X25337Y33776
X24156Y32772
X24055Y32197
X23555Y31322
X22805Y32822
X21912Y33776
X21440Y31945
X20908Y31886
X25928Y30567
X26400Y31118
X27030Y31472
X26046Y28953
X30930Y26822
X30337Y24661
X32424Y22575
X39786Y20449
X36499Y13795
X26125Y15016
X23920Y12811
X22818Y12299
X16204Y11610
X18526Y18835
X18881Y19661
X20908Y22339
X21440Y24701
X10810Y22339
X10810Y19189
X7719Y35429
X10101Y42929
X31814Y36591
X32621Y37280
X33369Y37024
X36499Y40154
X37180Y39322
X38305Y39947
X39430Y40572
X39944Y40685
X37680Y42339
X38684Y43343
X41164Y43815
X35692Y44583
X34373Y29465
X39944Y29622
T03
X41912Y21945
X41912Y21157
X41912Y20370
X41912Y19583
X41912Y18795
X41912Y18008
X41912Y17220
X41912Y16433
X41912Y15646
X41912Y14858
X50574Y14858
X50574Y15646
X50574Y16433
X50574Y17220
X50574Y18008
X50574Y18795
X50574Y19583
X50574Y20370
X50574Y21157
X50574Y21945
X16715Y21189
X16715Y20189
X16715Y19189
X16715Y18189
X16715Y17189
T04
X9629Y7428
X10629Y7328
X11629Y7428
X12629Y7328
X13629Y7428
X14629Y7328
X15629Y7428
X16629Y7328
X17629Y7428
X18629Y7328
X26133Y11406
X27133Y11406
X28133Y11406
X29133Y11406
X30133Y11406
X30133Y12406
X29133Y12406
X28133Y12406
X27133Y12406
X26133Y12406
X36794Y7428
X37794Y7328
X38794Y7428
X39794Y7328
X40794Y7428
X41794Y7328
X42794Y7428
X43794Y7328
X44794Y7428
X45794Y7328
X45794Y44336
X44794Y44436
X43794Y44336
X42794Y44436
X41794Y44336
X40794Y44436
X39794Y44336
X38794Y44436
X37794Y44336
X36794Y44436
X18629Y44336
X17629Y44436
X16629Y44336
X15629Y44436
X14629Y44336
X13629Y44436
X12629Y44336
X11629Y44436
X10629Y44336
X9629Y44436
M30
