G75*
G70*
%OFA0B0*%
%FSLAX24Y24*%
%IPPOS*%
%LPD*%
%AMOC8*
5,1,8,0,0,1.08239X$1,22.5*
%
%ADD10C,0.0740*%
%ADD11C,0.0600*%
%ADD12OC8,0.0740*%
%ADD13R,0.0515X0.0515*%
%ADD14C,0.0100*%
%ADD15C,0.0400*%
%ADD16C,0.0160*%
%ADD17R,0.0396X0.0396*%
D10*
X009629Y007428D03*
X010629Y007328D03*
X011629Y007428D03*
X012629Y007328D03*
X013629Y007428D03*
X014629Y007328D03*
X015629Y007428D03*
X016629Y007328D03*
X017629Y007428D03*
X018629Y007328D03*
X036794Y007428D03*
X037794Y007328D03*
X038794Y007428D03*
X039794Y007328D03*
X040794Y007428D03*
X041794Y007328D03*
X042794Y007428D03*
X043794Y007328D03*
X044794Y007428D03*
X045794Y007328D03*
X045794Y044336D03*
X044794Y044436D03*
X043794Y044336D03*
X042794Y044436D03*
X041794Y044336D03*
X040794Y044436D03*
X039794Y044336D03*
X038794Y044436D03*
X037794Y044336D03*
X036794Y044436D03*
X018629Y044336D03*
X017629Y044436D03*
X016629Y044336D03*
X015629Y044436D03*
X014629Y044336D03*
X013629Y044436D03*
X012629Y044336D03*
X011629Y044436D03*
X010629Y044336D03*
X009629Y044436D03*
D11*
X041912Y021945D03*
X041912Y021157D03*
X041912Y020370D03*
X041912Y019583D03*
X041912Y018795D03*
X041912Y018008D03*
X041912Y017220D03*
X041912Y016433D03*
X041912Y015646D03*
X041912Y014858D03*
X050574Y014858D03*
X050574Y015646D03*
X050574Y016433D03*
X050574Y017220D03*
X050574Y018008D03*
X050574Y018795D03*
X050574Y019583D03*
X050574Y020370D03*
X050574Y021157D03*
X050574Y021945D03*
D12*
X030133Y012406D03*
X029133Y012406D03*
X028133Y012406D03*
X027133Y012406D03*
X026133Y012406D03*
X026133Y011406D03*
X027133Y011406D03*
X028133Y011406D03*
X029133Y011406D03*
X030133Y011406D03*
D13*
X016715Y017189D03*
X016715Y018189D03*
X016715Y019189D03*
X016715Y020189D03*
X016715Y021189D03*
D14*
X018881Y019661D02*
X018881Y018717D01*
X017385Y017220D01*
X016715Y017220D01*
X016715Y017189D01*
X016715Y018189D02*
X016715Y018205D01*
X017345Y018835D01*
X018526Y018835D01*
X016715Y019189D02*
X021440Y024701D01*
X021834Y024504D02*
X021834Y026866D01*
X019117Y029583D01*
X019117Y031472D01*
X021755Y034110D01*
X028605Y034110D01*
X030287Y032429D01*
X037180Y039322D01*
X036499Y040154D02*
X033369Y037024D01*
X032621Y037280D02*
X037680Y042339D01*
X038211Y043343D02*
X038684Y043343D01*
X038211Y043343D02*
X031834Y036965D01*
X031834Y036610D01*
X031814Y036591D01*
X031180Y035322D02*
X040180Y044322D01*
X039794Y044336D01*
X040794Y044436D02*
X041180Y044322D01*
X031805Y034947D01*
X028305Y034947D01*
X027930Y035322D02*
X027930Y035947D01*
X036536Y044947D01*
X042680Y044947D01*
X043180Y044447D01*
X042794Y044436D01*
X042180Y044322D02*
X041794Y044336D01*
X042180Y044322D02*
X042180Y042447D01*
X029555Y029822D01*
X027180Y029822D01*
X024805Y032197D01*
X024055Y032197D01*
X023723Y032339D02*
X023723Y032024D01*
X026558Y029189D01*
X029038Y029189D01*
X029555Y029197D02*
X029555Y027697D01*
X030680Y026572D01*
X030680Y012187D01*
X030180Y011687D01*
X030180Y011437D01*
X030133Y011406D01*
X030305Y010812D02*
X030930Y011437D01*
X030930Y026822D01*
X029708Y026866D02*
X030101Y025488D01*
X030337Y024661D02*
X026046Y028953D01*
X027188Y029543D02*
X033526Y029543D01*
X041912Y021157D01*
X041912Y021945D02*
X041873Y021965D01*
X034373Y029465D01*
X031952Y030173D02*
X031952Y031945D01*
X043763Y043756D01*
X043763Y044307D01*
X043794Y044336D01*
X041164Y043815D02*
X031952Y034602D01*
X026696Y034602D01*
X026164Y034661D02*
X035692Y044583D01*
X039430Y040572D02*
X029430Y030572D01*
X028430Y030572D01*
X028290Y030213D02*
X029550Y030213D01*
X039944Y040606D01*
X039944Y040685D01*
X038305Y039947D02*
X029305Y030947D01*
X028805Y030947D02*
X030287Y032429D01*
X029708Y032535D02*
X028586Y031413D01*
X028290Y030213D02*
X027030Y031472D01*
X026400Y031118D02*
X026282Y031118D01*
X024215Y033185D01*
X022680Y033185D01*
X021440Y031945D01*
X020908Y031886D02*
X022444Y033421D01*
X025456Y033421D01*
X025751Y033717D01*
X028054Y033717D01*
X028930Y035322D02*
X031180Y035322D01*
X025337Y033776D02*
X021912Y033776D01*
X022805Y032822D02*
X022805Y032072D01*
X023555Y031322D01*
X023723Y032339D02*
X024156Y032772D01*
X025928Y030567D02*
X026164Y030567D01*
X027188Y029543D01*
X027542Y026866D02*
X027542Y021551D01*
X032070Y021551D02*
X035219Y021551D01*
X032424Y022575D02*
X039708Y022575D01*
X041912Y020370D01*
X042345Y019228D02*
X041912Y018795D01*
X042345Y019228D02*
X042345Y027220D01*
X039944Y029622D01*
X031597Y029169D02*
X031597Y012634D01*
X036794Y007437D01*
X036794Y007428D01*
X037739Y007378D02*
X036499Y008618D01*
X036499Y013795D01*
X030305Y010812D02*
X029930Y010812D01*
X029430Y011312D01*
X029180Y011312D01*
X029133Y011406D01*
X028133Y011406D02*
X028113Y011354D01*
X027641Y010882D01*
X025928Y010882D01*
X025633Y011177D01*
X025633Y011236D01*
X026133Y011406D02*
X026125Y011433D01*
X026125Y011669D01*
X023920Y012811D02*
X026125Y015016D01*
X023211Y014071D02*
X021046Y016236D01*
X021046Y022339D01*
X020908Y022339D01*
X020456Y023126D02*
X021834Y024504D01*
X020456Y023126D02*
X020456Y016433D01*
X022818Y014071D01*
X022818Y012299D01*
X023211Y012102D02*
X023211Y014071D01*
X023211Y012102D02*
X025967Y009346D01*
X025967Y006787D01*
X025869Y006787D01*
X025967Y006787D02*
X038152Y006787D01*
X038743Y007378D01*
X038794Y007428D01*
X037794Y007328D02*
X037739Y007378D01*
X039786Y007339D02*
X039794Y007328D01*
X039786Y007339D02*
X039786Y020449D01*
X050554Y018835D02*
X050574Y018795D01*
X011629Y044436D02*
X011578Y044406D01*
X010101Y042929D01*
X007719Y035429D01*
X010810Y022339D02*
X010810Y019189D01*
D15*
X010810Y019189D03*
X010810Y022339D03*
X018526Y018835D03*
X018881Y019661D03*
X020908Y022339D03*
X021440Y024701D03*
X026046Y028953D03*
X025928Y030567D03*
X026400Y031118D03*
X027030Y031472D03*
X028430Y030572D03*
X028805Y030947D03*
X029305Y030947D03*
X028586Y031413D03*
X029708Y032535D03*
X028054Y033717D03*
X028305Y034947D03*
X027930Y035322D03*
X028930Y035322D03*
X026696Y034602D03*
X026164Y034661D03*
X025337Y033776D03*
X024156Y032772D03*
X024055Y032197D03*
X023555Y031322D03*
X022805Y032822D03*
X021912Y033776D03*
X021440Y031945D03*
X020908Y031886D03*
X029038Y029189D03*
X029555Y029197D03*
X031597Y029169D03*
X031952Y030173D03*
X034373Y029465D03*
X030930Y026822D03*
X030337Y024661D03*
X032424Y022575D03*
X039786Y020449D03*
X036499Y013795D03*
X026125Y015016D03*
X023920Y012811D03*
X022818Y012299D03*
X016204Y011610D03*
X039944Y029622D03*
X031814Y036591D03*
X032621Y037280D03*
X033369Y037024D03*
X036499Y040154D03*
X037180Y039322D03*
X038305Y039947D03*
X039430Y040572D03*
X039944Y040685D03*
X037680Y042339D03*
X038684Y043343D03*
X041164Y043815D03*
X035692Y044583D03*
X010101Y042929D03*
X007719Y035429D03*
D16*
X032070Y023520D02*
X036007Y023520D01*
X036007Y029031D02*
X039944Y029031D01*
X035219Y032575D02*
X052149Y032575D01*
X052149Y018795D01*
X052109Y018835D01*
X050554Y018835D01*
D17*
X039944Y029031D03*
X036007Y029031D03*
X035219Y032575D03*
X029708Y026866D03*
X030101Y025488D03*
X032070Y023520D03*
X032070Y021551D03*
X035219Y021551D03*
X036007Y023520D03*
X027542Y021551D03*
X027542Y026866D03*
M02*
