G75*
G70*
%OFA0B0*%
%FSLAX24Y24*%
%IPPOS*%
%LPD*%
%AMOC8*
5,1,8,0,0,1.08239X$1,22.5*
%
%ADD10C,0.0160*%
%ADD11C,0.0740*%
%ADD12R,0.0472X0.0315*%
%ADD13R,0.1000X0.0500*%
%ADD14C,0.0600*%
%ADD15R,0.0551X0.0472*%
%ADD16R,0.0200X0.0580*%
%ADD17R,0.0580X0.0200*%
%ADD18OC8,0.0740*%
%ADD19R,0.0315X0.0472*%
%ADD20R,0.0315X0.0354*%
%ADD21R,0.0610X0.0512*%
%ADD22R,0.0515X0.0515*%
%ADD23R,0.0630X0.1378*%
%ADD24C,0.0100*%
%ADD25C,0.0660*%
%ADD26C,0.0320*%
%ADD27C,0.0400*%
%ADD28R,0.0396X0.0396*%
D10*
X000180Y006197D02*
X055298Y006197D01*
X055298Y037693D01*
X047424Y045567D01*
X008054Y045567D01*
X000180Y037693D01*
X000180Y006197D01*
X000740Y006757D02*
X000740Y037461D01*
X008286Y045007D01*
X035899Y045007D01*
X035797Y044929D01*
X035763Y044943D01*
X035620Y044943D01*
X035488Y044888D01*
X035387Y044787D01*
X035332Y044654D01*
X035332Y044511D01*
X035387Y044379D01*
X035488Y044277D01*
X035620Y044223D01*
X035763Y044223D01*
X035896Y044277D01*
X035997Y044379D01*
X036052Y044511D01*
X036052Y044595D01*
X036265Y044758D01*
X036357Y044748D01*
X036345Y044736D01*
X036264Y044541D01*
X036264Y044330D01*
X036345Y044136D01*
X036494Y043987D01*
X036689Y043906D01*
X036900Y043906D01*
X036970Y043935D01*
X036970Y043089D01*
X036885Y043089D01*
X036792Y042995D01*
X036792Y042548D01*
X036885Y042454D01*
X037338Y042454D01*
X037320Y042410D01*
X037320Y042380D01*
X036885Y042380D01*
X036792Y042287D01*
X036792Y041839D01*
X036885Y041746D01*
X036970Y041746D01*
X036970Y039621D01*
X036875Y039526D01*
X036820Y039393D01*
X036820Y039250D01*
X036875Y039118D01*
X036976Y039017D01*
X037108Y038962D01*
X037252Y038962D01*
X037384Y039017D01*
X037485Y039118D01*
X037490Y039129D01*
X037490Y030322D01*
X037613Y030199D01*
X039576Y028236D01*
X039576Y020748D01*
X039481Y020653D01*
X039426Y020520D01*
X039426Y020377D01*
X039481Y020245D01*
X039582Y020144D01*
X039715Y020089D01*
X039858Y020089D01*
X039990Y020144D01*
X040091Y020245D01*
X040146Y020377D01*
X040146Y020520D01*
X040091Y020653D01*
X039996Y020748D01*
X039996Y028091D01*
X042135Y025952D01*
X042135Y022350D01*
X042004Y022405D01*
X041821Y022405D01*
X041652Y022335D01*
X041522Y022205D01*
X039996Y022205D01*
X039996Y022047D02*
X041457Y022047D01*
X041452Y022036D02*
X041452Y021853D01*
X041522Y021684D01*
X041652Y021555D01*
X041661Y021551D01*
X041652Y021547D01*
X041522Y021418D01*
X041452Y021249D01*
X041452Y021066D01*
X041522Y020897D01*
X041652Y020768D01*
X041661Y020764D01*
X041652Y020760D01*
X041522Y020631D01*
X041452Y020462D01*
X040146Y020462D01*
X040116Y020303D02*
X041452Y020303D01*
X041452Y020279D02*
X041522Y020110D01*
X041652Y019980D01*
X041661Y019976D01*
X041652Y019973D01*
X041522Y019843D01*
X041452Y019674D01*
X041452Y019491D01*
X041522Y019322D01*
X041652Y019193D01*
X041661Y019189D01*
X041652Y019185D01*
X041522Y019056D01*
X041452Y018887D01*
X041452Y018704D01*
X041522Y018535D01*
X041652Y018405D01*
X041661Y018402D01*
X041652Y018398D01*
X041522Y018268D01*
X041452Y018099D01*
X041452Y017916D01*
X041522Y017747D01*
X041652Y017618D01*
X041661Y017614D01*
X041652Y017610D01*
X041522Y017481D01*
X041452Y017312D01*
X041452Y017129D01*
X041522Y016960D01*
X041652Y016831D01*
X041661Y016827D01*
X041652Y016823D01*
X041522Y016694D01*
X041452Y016525D01*
X041452Y016342D01*
X041522Y016173D01*
X041652Y016043D01*
X041661Y016039D01*
X041652Y016036D01*
X041522Y015906D01*
X041452Y015737D01*
X041452Y015554D01*
X041522Y015385D01*
X041648Y015260D01*
X041600Y015224D01*
X041546Y015171D01*
X041502Y015110D01*
X041467Y015043D01*
X041444Y014971D01*
X041432Y014896D01*
X041432Y014858D01*
X041432Y014820D01*
X041444Y014746D01*
X041467Y014674D01*
X041502Y014607D01*
X041546Y014546D01*
X041600Y014492D01*
X041661Y014448D01*
X041728Y014413D01*
X041783Y014396D01*
X040600Y013213D01*
X040600Y007921D01*
X040494Y007877D01*
X040345Y007728D01*
X040273Y007556D01*
X040243Y007628D01*
X040094Y007777D01*
X039900Y007858D01*
X039689Y007858D01*
X039494Y007777D01*
X039345Y007628D01*
X039315Y007556D01*
X039243Y007728D01*
X039094Y007877D01*
X038900Y007958D01*
X038689Y007958D01*
X038494Y007877D01*
X038345Y007728D01*
X038273Y007556D01*
X038243Y007628D01*
X038094Y007777D01*
X037900Y007858D01*
X037689Y007858D01*
X037494Y007777D01*
X037345Y007628D01*
X037315Y007556D01*
X037243Y007728D01*
X037094Y007877D01*
X036900Y007958D01*
X036689Y007958D01*
X036494Y007877D01*
X036345Y007728D01*
X036264Y007533D01*
X036264Y007323D01*
X036345Y007128D01*
X036494Y006979D01*
X036689Y006898D01*
X036900Y006898D01*
X037094Y006979D01*
X037243Y007128D01*
X037273Y007200D01*
X037345Y007028D01*
X037494Y006879D01*
X037689Y006798D01*
X037900Y006798D01*
X038094Y006879D01*
X038243Y007028D01*
X038315Y007200D01*
X038345Y007128D01*
X038494Y006979D01*
X038689Y006898D01*
X038900Y006898D01*
X039094Y006979D01*
X039243Y007128D01*
X039273Y007200D01*
X039345Y007028D01*
X039494Y006879D01*
X039689Y006798D01*
X039900Y006798D01*
X040094Y006879D01*
X040243Y007028D01*
X040315Y007200D01*
X040345Y007128D01*
X040494Y006979D01*
X040689Y006898D01*
X040900Y006898D01*
X041094Y006979D01*
X041243Y007128D01*
X041273Y007200D01*
X041345Y007028D01*
X041494Y006879D01*
X041689Y006798D01*
X041900Y006798D01*
X042094Y006879D01*
X042243Y007028D01*
X042315Y007200D01*
X042345Y007128D01*
X042494Y006979D01*
X042689Y006898D01*
X042900Y006898D01*
X043094Y006979D01*
X043243Y007128D01*
X043273Y007200D01*
X043345Y007028D01*
X043494Y006879D01*
X043689Y006798D01*
X043900Y006798D01*
X044094Y006879D01*
X044243Y007028D01*
X044315Y007200D01*
X044345Y007128D01*
X044494Y006979D01*
X044689Y006898D01*
X044900Y006898D01*
X045094Y006979D01*
X045243Y007128D01*
X045273Y007200D01*
X045345Y007028D01*
X045494Y006879D01*
X045689Y006798D01*
X045900Y006798D01*
X046094Y006879D01*
X046243Y007028D01*
X046324Y007223D01*
X046324Y007433D01*
X046243Y007628D01*
X046094Y007777D01*
X045900Y007858D01*
X045689Y007858D01*
X045494Y007777D01*
X045345Y007628D01*
X045315Y007556D01*
X045243Y007728D01*
X045094Y007877D01*
X044900Y007958D01*
X044689Y007958D01*
X044494Y007877D01*
X044345Y007728D01*
X044273Y007556D01*
X044243Y007628D01*
X044094Y007777D01*
X043900Y007858D01*
X043689Y007858D01*
X043494Y007777D01*
X043345Y007628D01*
X043315Y007556D01*
X043243Y007728D01*
X043094Y007877D01*
X042900Y007958D01*
X042689Y007958D01*
X042494Y007877D01*
X042345Y007728D01*
X042273Y007556D01*
X042243Y007628D01*
X042094Y007777D01*
X041900Y007858D01*
X041689Y007858D01*
X041494Y007777D01*
X041345Y007628D01*
X041315Y007556D01*
X041243Y007728D01*
X041094Y007877D01*
X041020Y007908D01*
X041020Y013039D01*
X042432Y014451D01*
X042555Y014574D01*
X042555Y026126D01*
X040008Y028673D01*
X040208Y028673D01*
X040302Y028767D01*
X040302Y028791D01*
X052696Y028791D01*
X052696Y015886D01*
X050972Y015886D01*
X050964Y015906D01*
X050834Y016036D01*
X050825Y016039D01*
X050834Y016043D01*
X050964Y016173D01*
X051034Y016342D01*
X051034Y016525D01*
X050964Y016694D01*
X050834Y016823D01*
X050825Y016827D01*
X050834Y016831D01*
X050964Y016960D01*
X051034Y017129D01*
X051034Y017312D01*
X050964Y017481D01*
X050834Y017610D01*
X050825Y017614D01*
X050834Y017618D01*
X050964Y017747D01*
X051034Y017916D01*
X051034Y018099D01*
X050964Y018268D01*
X050834Y018398D01*
X050825Y018402D01*
X050834Y018405D01*
X050964Y018535D01*
X051034Y018704D01*
X051034Y018887D01*
X050964Y019056D01*
X050834Y019185D01*
X050825Y019189D01*
X050834Y019193D01*
X050964Y019322D01*
X051034Y019491D01*
X051034Y019674D01*
X050964Y019843D01*
X050834Y019973D01*
X050825Y019976D01*
X050834Y019980D01*
X050964Y020110D01*
X051034Y020279D01*
X051034Y020462D01*
X052696Y020462D01*
X052696Y020620D02*
X050968Y020620D01*
X050964Y020631D02*
X050834Y020760D01*
X050825Y020764D01*
X050834Y020768D01*
X050964Y020897D01*
X051034Y021066D01*
X051034Y021249D01*
X050964Y021418D01*
X050834Y021547D01*
X050825Y021551D01*
X050834Y021555D01*
X050964Y021684D01*
X051034Y021853D01*
X051034Y022036D01*
X050964Y022205D01*
X052696Y022205D01*
X052696Y022047D02*
X051029Y022047D01*
X051034Y021888D02*
X052696Y021888D01*
X052696Y021730D02*
X050983Y021730D01*
X050851Y021571D02*
X052696Y021571D01*
X052696Y021413D02*
X050966Y021413D01*
X051031Y021254D02*
X052696Y021254D01*
X052696Y021096D02*
X051034Y021096D01*
X050980Y020937D02*
X052696Y020937D01*
X052696Y020779D02*
X050846Y020779D01*
X050964Y020631D02*
X051034Y020462D01*
X051034Y020303D02*
X052696Y020303D01*
X052696Y020145D02*
X050978Y020145D01*
X050841Y019986D02*
X052696Y019986D01*
X052696Y019828D02*
X050970Y019828D01*
X051034Y019669D02*
X052696Y019669D01*
X052696Y019511D02*
X051034Y019511D01*
X050976Y019352D02*
X052696Y019352D01*
X052696Y019194D02*
X050835Y019194D01*
X050972Y019035D02*
X052696Y019035D01*
X052696Y018877D02*
X051034Y018877D01*
X051034Y018718D02*
X052696Y018718D01*
X052696Y018560D02*
X050974Y018560D01*
X050826Y018401D02*
X052696Y018401D01*
X052696Y018243D02*
X050974Y018243D01*
X051034Y018084D02*
X052696Y018084D01*
X052696Y017926D02*
X051034Y017926D01*
X050972Y017767D02*
X052696Y017767D01*
X052696Y017609D02*
X050836Y017609D01*
X050976Y017450D02*
X052696Y017450D01*
X052696Y017292D02*
X051034Y017292D01*
X051034Y017133D02*
X052696Y017133D01*
X052696Y016975D02*
X050970Y016975D01*
X050841Y016816D02*
X052696Y016816D01*
X052696Y016658D02*
X050978Y016658D01*
X051034Y016499D02*
X052696Y016499D01*
X052696Y016341D02*
X051033Y016341D01*
X050968Y016182D02*
X052696Y016182D01*
X052696Y016024D02*
X050846Y016024D01*
X050574Y015646D02*
X052936Y015646D01*
X052936Y029031D01*
X039944Y029031D01*
X040302Y029271D02*
X040302Y029296D01*
X040214Y029383D01*
X040249Y029418D01*
X040304Y029550D01*
X040304Y029694D01*
X040249Y029826D01*
X040154Y029921D01*
X040154Y040386D01*
X040249Y040481D01*
X040304Y040613D01*
X040304Y040757D01*
X040249Y040889D01*
X040148Y040990D01*
X040015Y041045D01*
X039872Y041045D01*
X039740Y040990D01*
X039640Y040890D01*
X039640Y041746D01*
X039853Y041746D01*
X039946Y041839D01*
X039946Y042287D01*
X039853Y042380D01*
X039248Y042380D01*
X039154Y042287D01*
X039154Y041839D01*
X039220Y041773D01*
X039220Y041273D01*
X039184Y041308D01*
X038894Y041599D01*
X038894Y043043D01*
X038989Y043139D01*
X039044Y043271D01*
X039044Y043414D01*
X038989Y043546D01*
X038888Y043648D01*
X038756Y043703D01*
X038612Y043703D01*
X038515Y043662D01*
X038515Y043978D01*
X038689Y043906D01*
X038900Y043906D01*
X038991Y043944D01*
X039157Y043779D01*
X039220Y043716D01*
X039220Y043062D01*
X039154Y042995D01*
X039154Y042548D01*
X039248Y042454D01*
X039853Y042454D01*
X039946Y042548D01*
X039946Y042995D01*
X039853Y043089D01*
X039640Y043089D01*
X039640Y043826D01*
X039689Y043806D01*
X039900Y043806D01*
X040094Y043887D01*
X040243Y044036D01*
X040315Y044208D01*
X040345Y044136D01*
X040494Y043987D01*
X040689Y043906D01*
X040812Y043906D01*
X040804Y043887D01*
X040804Y043743D01*
X040859Y043611D01*
X040960Y043510D01*
X041093Y043455D01*
X041236Y043455D01*
X041368Y043510D01*
X041463Y043605D01*
X044263Y043605D01*
X044600Y043942D01*
X044689Y043906D01*
X044900Y043906D01*
X045094Y043987D01*
X045243Y044136D01*
X045273Y044208D01*
X045345Y044036D01*
X045494Y043887D01*
X045689Y043806D01*
X045900Y043806D01*
X046094Y043887D01*
X046243Y044036D01*
X046324Y044230D01*
X046324Y044441D01*
X046243Y044636D01*
X046094Y044785D01*
X045900Y044866D01*
X045689Y044866D01*
X045589Y044825D01*
X045407Y045007D01*
X047192Y045007D01*
X054738Y037461D01*
X054738Y006757D01*
X000740Y006757D01*
X000740Y006831D02*
X010444Y006831D01*
X010523Y006798D02*
X010734Y006798D01*
X010929Y006879D01*
X011078Y007028D01*
X011113Y007112D01*
X011120Y007112D01*
X011144Y007097D01*
X011197Y007110D01*
X011329Y006979D01*
X011523Y006898D01*
X011734Y006898D01*
X011929Y006979D01*
X012062Y007112D01*
X012095Y007112D01*
X012096Y007111D01*
X012145Y007111D01*
X012180Y007028D01*
X012329Y006879D01*
X012523Y006798D01*
X012734Y006798D01*
X012929Y006879D01*
X013078Y007028D01*
X013113Y007112D01*
X013120Y007112D01*
X013144Y007097D01*
X013197Y007110D01*
X013329Y006979D01*
X013523Y006898D01*
X013734Y006898D01*
X013929Y006979D01*
X014078Y007128D01*
X014108Y007200D01*
X014180Y007028D01*
X014329Y006879D01*
X014523Y006798D01*
X014734Y006798D01*
X014929Y006879D01*
X015078Y007028D01*
X015113Y007112D01*
X015120Y007112D01*
X015144Y007097D01*
X015197Y007110D01*
X015329Y006979D01*
X015523Y006898D01*
X015734Y006898D01*
X015929Y006979D01*
X016078Y007128D01*
X016108Y007200D01*
X016180Y007028D01*
X016329Y006879D01*
X016523Y006798D01*
X016734Y006798D01*
X016929Y006879D01*
X017078Y007028D01*
X017113Y007112D01*
X017120Y007112D01*
X017144Y007097D01*
X017197Y007110D01*
X017329Y006979D01*
X017523Y006898D01*
X017734Y006898D01*
X017929Y006979D01*
X018062Y007112D01*
X018095Y007112D01*
X018096Y007111D01*
X018145Y007111D01*
X018180Y007028D01*
X018329Y006879D01*
X018523Y006798D01*
X018734Y006798D01*
X018929Y006879D01*
X019078Y007028D01*
X019159Y007223D01*
X019159Y007433D01*
X019078Y007628D01*
X018929Y007777D01*
X018734Y007858D01*
X018523Y007858D01*
X018329Y007777D01*
X018180Y007628D01*
X018150Y007556D01*
X018078Y007728D01*
X017929Y007877D01*
X017734Y007958D01*
X017523Y007958D01*
X017329Y007877D01*
X017180Y007728D01*
X017108Y007556D01*
X017078Y007628D01*
X016929Y007777D01*
X016734Y007858D01*
X016523Y007858D01*
X016329Y007777D01*
X016208Y007657D01*
X016207Y007657D01*
X016150Y007672D01*
X016123Y007657D01*
X016108Y007657D01*
X016078Y007728D01*
X015929Y007877D01*
X015734Y007958D01*
X015523Y007958D01*
X015329Y007877D01*
X015180Y007728D01*
X015108Y007556D01*
X015078Y007628D01*
X014929Y007777D01*
X014734Y007858D01*
X014523Y007858D01*
X014329Y007777D01*
X014180Y007628D01*
X014150Y007556D01*
X014078Y007728D01*
X013929Y007877D01*
X013734Y007958D01*
X013523Y007958D01*
X013329Y007877D01*
X013180Y007728D01*
X013108Y007556D01*
X013078Y007628D01*
X012929Y007777D01*
X012734Y007858D01*
X012523Y007858D01*
X012329Y007777D01*
X012180Y007628D01*
X012150Y007556D01*
X012078Y007728D01*
X011929Y007877D01*
X011734Y007958D01*
X011523Y007958D01*
X011329Y007877D01*
X011180Y007728D01*
X011108Y007556D01*
X011078Y007628D01*
X010929Y007777D01*
X010734Y007858D01*
X010523Y007858D01*
X010329Y007777D01*
X010208Y007657D01*
X010207Y007657D01*
X010150Y007672D01*
X010123Y007657D01*
X010108Y007657D01*
X010078Y007728D01*
X009929Y007877D01*
X009734Y007958D01*
X009523Y007958D01*
X009329Y007877D01*
X009180Y007728D01*
X009106Y007551D01*
X009100Y007546D01*
X009100Y007539D01*
X009095Y007534D01*
X009095Y007453D01*
X009090Y007372D01*
X009095Y007367D01*
X009095Y007360D01*
X009099Y007356D01*
X009099Y007323D01*
X009180Y007128D01*
X009329Y006979D01*
X009523Y006898D01*
X009734Y006898D01*
X009929Y006979D01*
X010078Y007128D01*
X010108Y007200D01*
X010180Y007028D01*
X010329Y006879D01*
X010523Y006798D01*
X010814Y006831D02*
X012444Y006831D01*
X012218Y006989D02*
X011940Y006989D01*
X011318Y006989D02*
X011040Y006989D01*
X011080Y007623D02*
X011136Y007623D01*
X011233Y007782D02*
X010918Y007782D01*
X010340Y007782D02*
X010024Y007782D01*
X009777Y007940D02*
X011481Y007940D01*
X011777Y007940D02*
X013481Y007940D01*
X013233Y007782D02*
X012918Y007782D01*
X013080Y007623D02*
X013136Y007623D01*
X013040Y006989D02*
X013318Y006989D01*
X012814Y006831D02*
X014444Y006831D01*
X014218Y006989D02*
X013940Y006989D01*
X014086Y007148D02*
X014130Y007148D01*
X014122Y007623D02*
X014178Y007623D01*
X014024Y007782D02*
X014340Y007782D01*
X014918Y007782D02*
X015233Y007782D01*
X015136Y007623D02*
X015080Y007623D01*
X015481Y007940D02*
X013777Y007940D01*
X012340Y007782D02*
X012024Y007782D01*
X012122Y007623D02*
X012178Y007623D01*
X010218Y006989D02*
X009940Y006989D01*
X010086Y007148D02*
X010130Y007148D01*
X009318Y006989D02*
X000740Y006989D01*
X000740Y007148D02*
X009171Y007148D01*
X009106Y007306D02*
X000740Y007306D01*
X000740Y007465D02*
X009095Y007465D01*
X009136Y007623D02*
X000740Y007623D01*
X000740Y007782D02*
X009233Y007782D01*
X009481Y007940D02*
X000740Y007940D01*
X000740Y008099D02*
X040600Y008099D01*
X040600Y008257D02*
X000740Y008257D01*
X000740Y008416D02*
X040600Y008416D01*
X040600Y008574D02*
X000740Y008574D01*
X000740Y008733D02*
X040600Y008733D01*
X040600Y008891D02*
X000740Y008891D01*
X000740Y009050D02*
X040600Y009050D01*
X040600Y009208D02*
X000740Y009208D01*
X000740Y009367D02*
X040600Y009367D01*
X040600Y009525D02*
X000740Y009525D01*
X000740Y009684D02*
X040600Y009684D01*
X040600Y009842D02*
X000740Y009842D01*
X000740Y010001D02*
X040600Y010001D01*
X040600Y010159D02*
X000740Y010159D01*
X000740Y010318D02*
X040600Y010318D01*
X040600Y010476D02*
X000740Y010476D01*
X000740Y010635D02*
X040600Y010635D01*
X040600Y010793D02*
X000740Y010793D01*
X000740Y010952D02*
X025837Y010952D01*
X025913Y010876D02*
X026352Y010876D01*
X026633Y011156D01*
X026913Y010876D01*
X027352Y010876D01*
X027633Y011156D01*
X027913Y010876D01*
X028352Y010876D01*
X028633Y011156D01*
X028913Y010876D01*
X029352Y010876D01*
X029633Y011156D01*
X029913Y010876D01*
X030352Y010876D01*
X030663Y011186D01*
X030663Y011625D01*
X030396Y011891D01*
X030683Y012178D01*
X030683Y012386D01*
X030153Y012386D01*
X030153Y012426D01*
X030113Y012426D01*
X030113Y012956D01*
X029905Y012956D01*
X029633Y012683D01*
X029361Y012956D01*
X029153Y012956D01*
X029153Y012426D01*
X029113Y012426D01*
X029113Y012956D01*
X028905Y012956D01*
X028633Y012683D01*
X028361Y012956D01*
X028153Y012956D01*
X028153Y012426D01*
X028113Y012426D01*
X028113Y012956D01*
X027905Y012956D01*
X027633Y012683D01*
X027361Y012956D01*
X027153Y012956D01*
X027153Y012426D01*
X027113Y012426D01*
X027113Y012956D01*
X026905Y012956D01*
X026619Y012669D01*
X026352Y012936D01*
X025913Y012936D01*
X025605Y012627D01*
X024873Y012627D01*
X024248Y013252D01*
X024125Y013375D01*
X013692Y013375D01*
X013117Y013950D01*
X013553Y013950D01*
X013647Y014044D01*
X013647Y014688D01*
X013553Y014782D01*
X012811Y014782D01*
X012717Y014688D01*
X012717Y014351D01*
X009091Y017977D01*
X009091Y018858D01*
X009179Y018946D01*
X009179Y019432D01*
X009085Y019526D01*
X008801Y019526D01*
X008646Y019681D01*
X008898Y019932D01*
X008898Y019815D01*
X008910Y019769D01*
X008934Y019728D01*
X008967Y019695D01*
X009008Y019671D01*
X009054Y019659D01*
X009235Y019659D01*
X009235Y020016D01*
X010908Y020016D01*
X010908Y020173D01*
X010882Y019549D02*
X010738Y019549D01*
X010606Y019494D01*
X010541Y019429D01*
X009927Y019429D01*
X009927Y019432D01*
X009833Y019526D01*
X009385Y019526D01*
X009292Y019432D01*
X009292Y018946D01*
X009385Y018852D01*
X009833Y018852D01*
X009927Y018946D01*
X009927Y018949D01*
X010541Y018949D01*
X010606Y018884D01*
X010738Y018829D01*
X010882Y018829D01*
X011014Y018884D01*
X011115Y018985D01*
X011170Y019117D01*
X011170Y019261D01*
X011115Y019393D01*
X011014Y019494D01*
X010882Y019549D01*
X010974Y019511D02*
X016298Y019511D01*
X016298Y019513D02*
X016392Y019606D01*
X017039Y019606D01*
X017133Y019513D01*
X017133Y018865D01*
X017039Y018771D01*
X016392Y018771D01*
X016298Y018865D01*
X016298Y019513D01*
X016298Y019352D02*
X011132Y019352D01*
X011170Y019194D02*
X016298Y019194D01*
X016298Y019035D02*
X011136Y019035D01*
X010997Y018877D02*
X016298Y018877D01*
X016392Y018606D02*
X016298Y018513D01*
X016298Y017865D01*
X016392Y017771D01*
X017039Y017771D01*
X017133Y017865D01*
X017133Y018513D01*
X017039Y018606D01*
X016392Y018606D01*
X016345Y018560D02*
X009091Y018560D01*
X009091Y018718D02*
X018185Y018718D01*
X018166Y018763D02*
X018221Y018631D01*
X018323Y018529D01*
X018455Y018475D01*
X018598Y018475D01*
X018730Y018529D01*
X018832Y018631D01*
X018886Y018763D01*
X018886Y018898D01*
X027122Y027133D01*
X027122Y029519D01*
X027332Y029519D01*
X027332Y027224D01*
X027278Y027224D01*
X027184Y027131D01*
X027184Y026602D01*
X027278Y026508D01*
X027807Y026508D01*
X027900Y026602D01*
X027900Y027131D01*
X027807Y027224D01*
X027752Y027224D01*
X027752Y029509D01*
X027923Y029338D01*
X027752Y029338D01*
X027752Y029496D02*
X027765Y029496D01*
X027923Y029338D02*
X027923Y028323D01*
X027917Y028317D01*
X027923Y028237D01*
X027923Y028157D01*
X027928Y028151D01*
X027929Y028143D01*
X027989Y028091D01*
X028046Y028034D01*
X028054Y028034D01*
X029349Y026900D01*
X029349Y026602D01*
X029443Y026508D01*
X029972Y026508D01*
X030066Y026602D01*
X030066Y027131D01*
X029972Y027224D01*
X029617Y027224D01*
X028343Y028339D01*
X028343Y029512D01*
X028336Y029519D01*
X028345Y029519D01*
X028345Y029110D01*
X028468Y028987D01*
X030570Y026885D01*
X030570Y026750D01*
X030625Y026618D01*
X030726Y026517D01*
X030858Y026462D01*
X031002Y026462D01*
X031134Y026517D01*
X031235Y026618D01*
X031290Y026750D01*
X031290Y026893D01*
X031235Y027026D01*
X031134Y027127D01*
X031002Y027182D01*
X030867Y027182D01*
X029424Y028625D01*
X031842Y028625D01*
X032039Y028821D01*
X032162Y028945D01*
X032162Y029874D01*
X032257Y029969D01*
X032287Y030043D01*
X032567Y029763D01*
X032568Y029756D01*
X032568Y022905D01*
X032496Y022935D01*
X032361Y022935D01*
X032134Y023162D01*
X032334Y023162D01*
X032428Y023255D01*
X032428Y023784D01*
X032334Y023878D01*
X032051Y023878D01*
X030459Y025469D01*
X030459Y025753D01*
X030366Y025846D01*
X029837Y025846D01*
X029743Y025753D01*
X029743Y025224D01*
X029837Y025130D01*
X030120Y025130D01*
X030240Y025011D01*
X030134Y024967D01*
X030032Y024865D01*
X029977Y024733D01*
X029977Y024590D01*
X030032Y024457D01*
X030134Y024356D01*
X030266Y024301D01*
X030400Y024301D01*
X032064Y022638D01*
X032064Y022503D01*
X032119Y022371D01*
X032220Y022270D01*
X032352Y022215D01*
X032496Y022215D01*
X032568Y022245D01*
X032568Y021756D01*
X032428Y021616D01*
X032428Y021816D01*
X032334Y021909D01*
X031805Y021909D01*
X031712Y021816D01*
X031712Y021761D01*
X027900Y021761D01*
X027900Y021816D01*
X027807Y021909D01*
X027278Y021909D01*
X027184Y021816D01*
X027184Y021287D01*
X027278Y021193D01*
X027807Y021193D01*
X027900Y021287D01*
X027900Y021341D01*
X031712Y021341D01*
X031712Y021287D01*
X031805Y021193D01*
X032005Y021193D01*
X026188Y015376D01*
X026053Y015376D01*
X025921Y015321D01*
X025820Y015220D01*
X025765Y015087D01*
X025765Y014944D01*
X025820Y014812D01*
X025921Y014711D01*
X026053Y014656D01*
X026196Y014656D01*
X026329Y014711D01*
X026430Y014812D01*
X026485Y014944D01*
X026485Y015079D01*
X032988Y021582D01*
X032988Y029607D01*
X033341Y029255D01*
X034074Y029255D01*
X034169Y029159D01*
X034301Y029105D01*
X034445Y029105D01*
X034577Y029159D01*
X034678Y029261D01*
X034733Y029393D01*
X034733Y029536D01*
X034678Y029668D01*
X034577Y029770D01*
X034445Y029825D01*
X034301Y029825D01*
X034169Y029770D01*
X034074Y029675D01*
X033515Y029675D01*
X031603Y031587D01*
X031690Y031587D01*
X031767Y031509D01*
X032372Y031509D01*
X032450Y031587D01*
X032674Y031587D01*
X032752Y031509D01*
X033357Y031509D01*
X033450Y031603D01*
X033450Y032051D01*
X033357Y032144D01*
X032752Y032144D01*
X032674Y032067D01*
X032450Y032067D01*
X032372Y032144D01*
X031767Y032144D01*
X031690Y032067D01*
X031209Y032067D01*
X031209Y032178D01*
X030739Y032178D01*
X030269Y032178D01*
X030269Y032055D01*
X030274Y032037D01*
X026274Y032037D01*
X026151Y031914D01*
X025639Y031402D01*
X025639Y031205D01*
X025202Y030768D01*
X025209Y030795D01*
X025209Y030918D01*
X024739Y030918D01*
X024269Y030918D01*
X024269Y030795D01*
X024273Y030782D01*
X022623Y030782D01*
X022623Y030869D01*
X022530Y030963D01*
X022015Y030963D01*
X022015Y031017D01*
X022227Y031017D01*
X022227Y031354D01*
X022227Y031354D01*
X022227Y031017D01*
X022487Y031017D01*
X022533Y031029D01*
X022574Y031053D01*
X022608Y031086D01*
X022631Y031127D01*
X022643Y031173D01*
X022643Y031354D01*
X022227Y031354D01*
X022227Y031354D01*
X022227Y031692D01*
X022015Y031692D01*
X022015Y031883D01*
X022227Y031883D01*
X022227Y032220D01*
X022227Y032220D01*
X022227Y031883D01*
X022487Y031883D01*
X022533Y031895D01*
X022574Y031919D01*
X022608Y031952D01*
X022631Y031994D01*
X022643Y032039D01*
X022643Y032220D01*
X022227Y032220D01*
X022227Y032220D01*
X022227Y032558D01*
X022015Y032558D01*
X022015Y032612D01*
X022290Y032612D01*
X022358Y032601D01*
X022373Y032612D01*
X022506Y032612D01*
X022601Y032517D01*
X022733Y032462D01*
X022877Y032462D01*
X023009Y032517D01*
X023110Y032618D01*
X023165Y032750D01*
X023165Y032893D01*
X023110Y033026D01*
X023009Y033127D01*
X022877Y033182D01*
X022733Y033182D01*
X022623Y033136D01*
X022623Y033153D01*
X022530Y033247D01*
X022152Y033247D01*
X023017Y034112D01*
X024269Y034112D01*
X024269Y034069D01*
X024739Y034069D01*
X024739Y034068D01*
X024269Y034068D01*
X024269Y033945D01*
X024281Y033899D01*
X024289Y033886D01*
X024289Y033106D01*
X024228Y033132D01*
X024085Y033132D01*
X023952Y033077D01*
X023851Y032976D01*
X023796Y032843D01*
X023796Y032700D01*
X023851Y032568D01*
X023898Y032521D01*
X023851Y032502D01*
X023750Y032401D01*
X023695Y032268D01*
X023695Y032125D01*
X023750Y031993D01*
X023851Y031892D01*
X023983Y031837D01*
X024127Y031837D01*
X024259Y031892D01*
X024289Y031922D01*
X024289Y031532D01*
X023854Y031532D01*
X023759Y031627D01*
X023627Y031682D01*
X023483Y031682D01*
X023351Y031627D01*
X023250Y031526D01*
X023195Y031393D01*
X023195Y031250D01*
X023250Y031118D01*
X023351Y031017D01*
X023483Y030962D01*
X023627Y030962D01*
X023759Y031017D01*
X023854Y031112D01*
X024218Y031112D01*
X024220Y031110D01*
X024273Y031057D01*
X024269Y031042D01*
X024269Y030919D01*
X024739Y030919D01*
X024739Y030918D01*
X024739Y030919D01*
X025209Y030919D01*
X025209Y031042D01*
X025197Y031088D01*
X025189Y031101D01*
X025189Y031362D01*
X025517Y031362D01*
X027725Y033570D01*
X027749Y033513D01*
X027850Y033411D01*
X027982Y033357D01*
X028126Y033357D01*
X028258Y033411D01*
X028353Y033507D01*
X030289Y033507D01*
X030289Y033336D01*
X030211Y033336D01*
X029771Y032895D01*
X029636Y032895D01*
X029504Y032841D01*
X029402Y032739D01*
X029348Y032607D01*
X029348Y032464D01*
X029402Y032332D01*
X029504Y032230D01*
X029636Y032175D01*
X029779Y032175D01*
X029911Y032230D01*
X030013Y032332D01*
X030068Y032464D01*
X030068Y032598D01*
X030289Y032820D01*
X030289Y032361D01*
X030281Y032348D01*
X030269Y032302D01*
X030269Y032179D01*
X030739Y032179D01*
X030739Y032178D01*
X030739Y032179D01*
X031209Y032179D01*
X031209Y032302D01*
X031197Y032348D01*
X031189Y032361D01*
X031189Y033307D01*
X033456Y035573D01*
X033579Y035696D01*
X033579Y036725D01*
X033674Y036820D01*
X033729Y036952D01*
X033729Y037095D01*
X033674Y037228D01*
X033573Y037329D01*
X033441Y037384D01*
X033297Y037384D01*
X033165Y037329D01*
X033064Y037228D01*
X033009Y037095D01*
X033009Y036952D01*
X033064Y036820D01*
X033159Y036725D01*
X033159Y035870D01*
X031189Y033901D01*
X031189Y033956D01*
X032688Y035455D01*
X032811Y035578D01*
X032811Y036969D01*
X032825Y036974D01*
X032926Y037076D01*
X032981Y037208D01*
X032981Y037351D01*
X032926Y037483D01*
X032825Y037585D01*
X032693Y037640D01*
X032670Y037640D01*
X034640Y039610D01*
X034640Y040958D01*
X034734Y040958D01*
X034828Y041052D01*
X034828Y041499D01*
X034734Y041593D01*
X034129Y041593D01*
X034036Y041499D01*
X034036Y041052D01*
X034129Y040958D01*
X034220Y040958D01*
X034220Y039784D01*
X030359Y035923D01*
X030359Y036325D01*
X030265Y036419D01*
X029949Y036419D01*
X032640Y039110D01*
X032640Y040958D01*
X032766Y040958D01*
X032860Y041052D01*
X032860Y041499D01*
X032766Y041593D01*
X032161Y041593D01*
X032067Y041499D01*
X032067Y041052D01*
X032161Y040958D01*
X032220Y040958D01*
X032220Y039284D01*
X029468Y036532D01*
X029355Y036419D01*
X029324Y036419D01*
X030640Y037735D01*
X030640Y040958D01*
X030797Y040958D01*
X030891Y041052D01*
X030891Y041499D01*
X030797Y041593D01*
X030192Y041593D01*
X030099Y041499D01*
X030099Y041052D01*
X030192Y040958D01*
X030220Y040958D01*
X030220Y037909D01*
X028765Y036454D01*
X028765Y040958D01*
X028829Y040958D01*
X028923Y041052D01*
X028923Y041499D01*
X028829Y041593D01*
X028224Y041593D01*
X028130Y041499D01*
X028130Y041052D01*
X028224Y040958D01*
X028345Y040958D01*
X028345Y038204D01*
X028267Y038282D01*
X026890Y039659D01*
X026890Y040988D01*
X026954Y041052D01*
X026954Y041499D01*
X026860Y041593D01*
X026255Y041593D01*
X026162Y041499D01*
X026162Y041052D01*
X026255Y040958D01*
X026470Y040958D01*
X026470Y039704D01*
X024986Y041188D01*
X024986Y041499D01*
X024892Y041593D01*
X024287Y041593D01*
X024193Y041499D01*
X024193Y041356D01*
X024142Y041407D01*
X023017Y041407D01*
X023017Y041499D01*
X022923Y041593D01*
X022318Y041593D01*
X022225Y041499D01*
X022225Y041324D01*
X022142Y041407D01*
X021049Y041407D01*
X021049Y041499D01*
X020955Y041593D01*
X020350Y041593D01*
X020256Y041499D01*
X020256Y041052D01*
X020350Y040958D01*
X020955Y040958D01*
X020984Y040987D01*
X021968Y040987D01*
X024550Y038405D01*
X019345Y038405D01*
X019257Y038369D01*
X019189Y038301D01*
X015986Y035098D01*
X011645Y035098D01*
X011645Y035178D01*
X011551Y035272D01*
X011225Y035272D01*
X011225Y036076D01*
X011270Y036076D01*
X011364Y036170D01*
X011364Y036617D01*
X011270Y036711D01*
X010665Y036711D01*
X010571Y036617D01*
X010571Y036170D01*
X010665Y036076D01*
X010745Y036076D01*
X010745Y035272D01*
X010419Y035272D01*
X010325Y035178D01*
X010325Y034546D01*
X010419Y034452D01*
X011551Y034452D01*
X011645Y034546D01*
X011645Y034618D01*
X016133Y034618D01*
X016221Y034655D01*
X019492Y037925D01*
X020035Y037925D01*
X019965Y037896D01*
X019898Y037829D01*
X016222Y034153D01*
X011645Y034153D01*
X011645Y034178D01*
X011551Y034272D01*
X010419Y034272D01*
X010325Y034178D01*
X010325Y033917D01*
X010105Y033917D01*
X010105Y036076D01*
X010168Y036076D01*
X010261Y036170D01*
X010261Y036617D01*
X010168Y036711D01*
X009563Y036711D01*
X009469Y036617D01*
X009469Y036170D01*
X009563Y036076D01*
X009625Y036076D01*
X009625Y033708D01*
X009662Y033620D01*
X009740Y033541D01*
X009808Y033474D01*
X009896Y033437D01*
X011094Y033437D01*
X011130Y033452D01*
X011551Y033452D01*
X011645Y033546D01*
X011645Y033673D01*
X016369Y033673D01*
X016458Y033710D01*
X020201Y037453D01*
X020860Y037453D01*
X016616Y033209D01*
X011615Y033209D01*
X011551Y033272D01*
X010419Y033272D01*
X010325Y033178D01*
X010325Y032894D01*
X009335Y032894D01*
X009318Y032910D01*
X009318Y036008D01*
X009281Y036097D01*
X009214Y036164D01*
X009159Y036219D01*
X009159Y036617D01*
X009065Y036711D01*
X008460Y036711D01*
X008366Y036617D01*
X008366Y036170D01*
X008460Y036076D01*
X008623Y036076D01*
X008838Y035861D01*
X008838Y032763D01*
X008874Y032675D01*
X009032Y032518D01*
X009099Y032450D01*
X009187Y032414D01*
X011094Y032414D01*
X011182Y032450D01*
X011184Y032452D01*
X011551Y032452D01*
X011645Y032546D01*
X011645Y032729D01*
X016763Y032729D01*
X016851Y032765D01*
X021146Y037059D01*
X021967Y037059D01*
X021949Y037041D01*
X017092Y032185D01*
X017061Y032185D01*
X016973Y032148D01*
X016927Y032102D01*
X011645Y032102D01*
X011645Y032178D01*
X011551Y032272D01*
X010419Y032272D01*
X010325Y032178D01*
X010325Y032102D01*
X008688Y032102D01*
X008688Y035654D01*
X008651Y035742D01*
X008584Y035810D01*
X008057Y036337D01*
X008057Y036617D01*
X007963Y036711D01*
X007358Y036711D01*
X007264Y036617D01*
X007264Y036170D01*
X007358Y036076D01*
X007638Y036076D01*
X008208Y035507D01*
X008208Y031818D01*
X008244Y031730D01*
X008248Y031726D01*
X008316Y031659D01*
X008404Y031622D01*
X010325Y031622D01*
X010325Y031546D01*
X010419Y031452D01*
X011551Y031452D01*
X011645Y031546D01*
X011645Y031622D01*
X016933Y031622D01*
X012104Y026792D01*
X009213Y027138D01*
X009302Y027227D01*
X009425Y027350D01*
X009425Y028347D01*
X009442Y028395D01*
X009425Y028430D01*
X009425Y028469D01*
X009389Y028505D01*
X007958Y031452D01*
X008051Y031452D01*
X008145Y031546D01*
X008145Y032178D01*
X008051Y032272D01*
X007758Y032272D01*
X007758Y032452D01*
X008051Y032452D01*
X008145Y032546D01*
X008145Y033178D01*
X008051Y033272D01*
X007758Y033272D01*
X007758Y033452D01*
X008051Y033452D01*
X008145Y033546D01*
X008145Y034178D01*
X008051Y034272D01*
X007758Y034272D01*
X007758Y034452D01*
X008051Y034452D01*
X008145Y034546D01*
X008145Y035178D01*
X008051Y035272D01*
X008044Y035272D01*
X008079Y035358D01*
X008079Y035501D01*
X008025Y035633D01*
X007923Y035734D01*
X007791Y035789D01*
X007648Y035789D01*
X007515Y035734D01*
X007414Y035633D01*
X007359Y035501D01*
X007359Y035358D01*
X007395Y035272D01*
X006919Y035272D01*
X006825Y035178D01*
X006825Y034546D01*
X006919Y034452D01*
X007338Y034452D01*
X007338Y034272D01*
X006919Y034272D01*
X006825Y034178D01*
X006825Y033546D01*
X006919Y033452D01*
X007338Y033452D01*
X007338Y033272D01*
X006919Y033272D01*
X006825Y033178D01*
X006825Y032546D01*
X006919Y032452D01*
X007338Y032452D01*
X007338Y032272D01*
X006919Y032272D01*
X006825Y032178D01*
X006825Y031546D01*
X006919Y031452D01*
X007491Y031452D01*
X009005Y028334D01*
X009005Y027991D01*
X008802Y027991D01*
X008542Y027991D01*
X008496Y027979D01*
X008455Y027955D01*
X008422Y027922D01*
X008398Y027881D01*
X008386Y027835D01*
X008386Y027654D01*
X008802Y027654D01*
X008802Y027991D01*
X008802Y027654D01*
X008802Y027654D01*
X008802Y027654D01*
X008386Y027654D01*
X008386Y027529D01*
X007958Y027529D01*
X007958Y027654D01*
X007958Y027835D01*
X007946Y027881D01*
X007922Y027922D01*
X007889Y027955D01*
X007848Y027979D01*
X007802Y027991D01*
X007542Y027991D01*
X007282Y027991D01*
X007237Y027979D01*
X007195Y027955D01*
X007162Y027922D01*
X007138Y027881D01*
X007126Y027835D01*
X007126Y027654D01*
X007542Y027654D01*
X007542Y027991D01*
X007542Y027654D01*
X007542Y027654D01*
X007542Y027654D01*
X007126Y027654D01*
X007126Y027529D01*
X006620Y027529D01*
X006620Y027654D01*
X006620Y027835D01*
X006608Y027881D01*
X006584Y027922D01*
X006550Y027955D01*
X006509Y027979D01*
X006464Y027991D01*
X006204Y027991D01*
X006204Y027654D01*
X006204Y027654D01*
X006620Y027654D01*
X006204Y027654D01*
X006204Y027654D01*
X006204Y027991D01*
X005944Y027991D01*
X005898Y027979D01*
X005857Y027955D01*
X005823Y027922D01*
X005800Y027881D01*
X005787Y027835D01*
X005787Y027654D01*
X006204Y027654D01*
X006204Y027654D01*
X005787Y027654D01*
X005787Y027529D01*
X005281Y027529D01*
X005281Y027654D01*
X005281Y027835D01*
X005269Y027881D01*
X005245Y027922D01*
X005212Y027955D01*
X005171Y027979D01*
X005125Y027991D01*
X004865Y027991D01*
X004605Y027991D01*
X004559Y027979D01*
X004518Y027955D01*
X004485Y027922D01*
X004461Y027881D01*
X004449Y027835D01*
X004449Y027654D01*
X004865Y027654D01*
X004865Y027991D01*
X004865Y027654D01*
X004865Y027654D01*
X004865Y027654D01*
X005281Y027654D01*
X004865Y027654D01*
X004865Y027654D01*
X004449Y027654D01*
X004449Y027472D01*
X004452Y027459D01*
X004399Y027406D01*
X004281Y027288D01*
X004281Y026464D01*
X004404Y026341D01*
X005049Y025696D01*
X005049Y025430D01*
X004753Y025430D01*
X004660Y025336D01*
X004660Y024703D01*
X004753Y024610D01*
X004893Y024610D01*
X004893Y024430D01*
X004753Y024430D01*
X004660Y024336D01*
X004660Y023703D01*
X004753Y023610D01*
X004893Y023610D01*
X004893Y023430D01*
X004753Y023430D01*
X004660Y023336D01*
X004660Y022703D01*
X004753Y022610D01*
X004893Y022610D01*
X004893Y022430D01*
X004753Y022430D01*
X004660Y022336D01*
X004660Y021703D01*
X004753Y021610D01*
X005263Y021610D01*
X005285Y021601D01*
X005480Y021601D01*
X005502Y021610D01*
X005886Y021610D01*
X005980Y021703D01*
X005980Y021754D01*
X008139Y019594D01*
X008262Y019471D01*
X008544Y019190D01*
X008544Y018946D01*
X008637Y018852D01*
X008671Y018852D01*
X008671Y017803D01*
X008794Y017680D01*
X013415Y013059D01*
X013463Y013010D01*
X012811Y013010D01*
X012717Y012917D01*
X012717Y012272D01*
X012811Y012179D01*
X013553Y012179D01*
X013647Y012272D01*
X013647Y012826D01*
X014183Y012291D01*
X014183Y011908D01*
X014169Y011908D01*
X014075Y011814D01*
X014075Y011209D01*
X014169Y011116D01*
X014616Y011116D01*
X014710Y011209D01*
X014710Y011814D01*
X014616Y011908D01*
X014603Y011908D01*
X014603Y012465D01*
X014112Y012955D01*
X015885Y012955D01*
X015847Y012917D01*
X015847Y012436D01*
X015674Y012263D01*
X015551Y012140D01*
X015319Y011908D01*
X014878Y011908D01*
X014784Y011814D01*
X014784Y011209D01*
X014878Y011116D01*
X015325Y011116D01*
X015419Y011209D01*
X015419Y011414D01*
X015761Y011756D01*
X015844Y011673D01*
X015844Y011539D01*
X015898Y011406D01*
X016000Y011305D01*
X016132Y011250D01*
X016275Y011250D01*
X016408Y011305D01*
X016509Y011406D01*
X016564Y011539D01*
X016564Y011682D01*
X016509Y011814D01*
X016408Y011915D01*
X016275Y011970D01*
X016141Y011970D01*
X016058Y012053D01*
X016183Y012179D01*
X016683Y012179D01*
X016777Y012272D01*
X016777Y012416D01*
X022576Y012566D01*
X022513Y012503D01*
X022458Y012371D01*
X022458Y012228D01*
X022513Y012095D01*
X022614Y011994D01*
X022746Y011939D01*
X022881Y011939D01*
X023518Y011302D01*
X025603Y011302D01*
X025603Y011186D01*
X025913Y010876D01*
X025678Y011110D02*
X000740Y011110D01*
X000740Y011269D02*
X014075Y011269D01*
X014075Y011427D02*
X000740Y011427D01*
X000740Y011586D02*
X014075Y011586D01*
X014075Y011744D02*
X000740Y011744D01*
X000740Y011903D02*
X014164Y011903D01*
X014183Y012061D02*
X000740Y012061D01*
X000740Y012220D02*
X012769Y012220D01*
X012717Y012378D02*
X000740Y012378D01*
X000740Y012537D02*
X012717Y012537D01*
X012717Y012695D02*
X000740Y012695D01*
X000740Y012854D02*
X012717Y012854D01*
X013144Y013329D02*
X000740Y013329D01*
X000740Y013171D02*
X013303Y013171D01*
X013461Y013012D02*
X000740Y013012D01*
X000740Y013488D02*
X012986Y013488D01*
X012827Y013646D02*
X000740Y013646D01*
X000740Y013805D02*
X012669Y013805D01*
X012510Y013963D02*
X000740Y013963D01*
X000740Y014122D02*
X012352Y014122D01*
X012193Y014280D02*
X000740Y014280D01*
X000740Y014439D02*
X012035Y014439D01*
X011876Y014597D02*
X000740Y014597D01*
X000740Y014756D02*
X011718Y014756D01*
X011559Y014914D02*
X000740Y014914D01*
X000740Y015073D02*
X011401Y015073D01*
X011242Y015231D02*
X000740Y015231D01*
X000740Y015390D02*
X011084Y015390D01*
X010925Y015548D02*
X000740Y015548D01*
X000740Y015707D02*
X010767Y015707D01*
X010608Y015865D02*
X000740Y015865D01*
X000740Y016024D02*
X010450Y016024D01*
X010291Y016182D02*
X000740Y016182D01*
X000740Y016341D02*
X010133Y016341D01*
X009974Y016499D02*
X000740Y016499D01*
X000740Y016658D02*
X009816Y016658D01*
X009657Y016816D02*
X000740Y016816D01*
X000740Y016975D02*
X009499Y016975D01*
X009340Y017133D02*
X000740Y017133D01*
X000740Y017292D02*
X009182Y017292D01*
X009023Y017450D02*
X000740Y017450D01*
X000740Y017609D02*
X008865Y017609D01*
X008706Y017767D02*
X000740Y017767D01*
X000740Y017926D02*
X008671Y017926D01*
X008671Y018084D02*
X000740Y018084D01*
X000740Y018243D02*
X008671Y018243D01*
X008671Y018401D02*
X000740Y018401D01*
X000740Y018560D02*
X008671Y018560D01*
X008671Y018718D02*
X000740Y018718D01*
X000740Y018877D02*
X008612Y018877D01*
X008544Y019035D02*
X000740Y019035D01*
X000740Y019194D02*
X008540Y019194D01*
X008381Y019352D02*
X000740Y019352D01*
X000740Y019511D02*
X008223Y019511D01*
X008064Y019669D02*
X000740Y019669D01*
X000740Y019828D02*
X007906Y019828D01*
X007747Y019986D02*
X000740Y019986D01*
X000740Y020145D02*
X007589Y020145D01*
X007430Y020303D02*
X000740Y020303D01*
X000740Y020462D02*
X007272Y020462D01*
X007113Y020620D02*
X000740Y020620D01*
X000740Y020779D02*
X006955Y020779D01*
X006796Y020937D02*
X000740Y020937D01*
X000740Y021096D02*
X006638Y021096D01*
X006479Y021254D02*
X000740Y021254D01*
X000740Y021413D02*
X006321Y021413D01*
X006162Y021571D02*
X000740Y021571D01*
X000740Y021730D02*
X004660Y021730D01*
X004660Y021888D02*
X000740Y021888D01*
X000740Y022047D02*
X004660Y022047D01*
X004660Y022205D02*
X000740Y022205D01*
X000740Y022364D02*
X004688Y022364D01*
X004893Y022522D02*
X000740Y022522D01*
X000740Y022681D02*
X004682Y022681D01*
X004660Y022839D02*
X000740Y022839D01*
X000740Y022998D02*
X004660Y022998D01*
X004660Y023156D02*
X000740Y023156D01*
X000740Y023315D02*
X004660Y023315D01*
X004893Y023473D02*
X000740Y023473D01*
X000740Y023632D02*
X004731Y023632D01*
X004660Y023790D02*
X000740Y023790D01*
X000740Y023949D02*
X004660Y023949D01*
X004660Y024107D02*
X000740Y024107D01*
X000740Y024266D02*
X004660Y024266D01*
X004748Y024424D02*
X000740Y024424D01*
X000740Y024583D02*
X004893Y024583D01*
X004660Y024741D02*
X000740Y024741D01*
X000740Y024900D02*
X004660Y024900D01*
X004660Y025058D02*
X000740Y025058D01*
X000740Y025217D02*
X004660Y025217D01*
X004699Y025375D02*
X000740Y025375D01*
X000740Y025534D02*
X005049Y025534D01*
X005049Y025692D02*
X000740Y025692D01*
X000740Y025851D02*
X004894Y025851D01*
X004736Y026009D02*
X000740Y026009D01*
X000740Y026168D02*
X004577Y026168D01*
X004419Y026326D02*
X000740Y026326D01*
X000740Y026485D02*
X004281Y026485D01*
X004281Y026643D02*
X000740Y026643D01*
X000740Y026802D02*
X004281Y026802D01*
X004281Y026960D02*
X000740Y026960D01*
X000740Y027119D02*
X004281Y027119D01*
X004281Y027277D02*
X000740Y027277D01*
X000740Y027436D02*
X004429Y027436D01*
X004449Y027594D02*
X000740Y027594D01*
X000740Y027753D02*
X004449Y027753D01*
X004479Y027911D02*
X000740Y027911D01*
X000740Y028070D02*
X009005Y028070D01*
X009005Y028228D02*
X000740Y028228D01*
X000740Y028387D02*
X008980Y028387D01*
X008903Y028545D02*
X000740Y028545D01*
X000740Y028704D02*
X008826Y028704D01*
X008749Y028862D02*
X000740Y028862D01*
X000740Y029021D02*
X008672Y029021D01*
X008595Y029179D02*
X000740Y029179D01*
X000740Y029338D02*
X008518Y029338D01*
X008441Y029496D02*
X000740Y029496D01*
X000740Y029655D02*
X008364Y029655D01*
X008287Y029813D02*
X000740Y029813D01*
X000740Y029972D02*
X008210Y029972D01*
X008133Y030130D02*
X000740Y030130D01*
X000740Y030289D02*
X008056Y030289D01*
X007979Y030447D02*
X000740Y030447D01*
X000740Y030606D02*
X007902Y030606D01*
X007825Y030764D02*
X000740Y030764D01*
X000740Y030923D02*
X007748Y030923D01*
X007671Y031081D02*
X000740Y031081D01*
X000740Y031240D02*
X007594Y031240D01*
X007517Y031398D02*
X000740Y031398D01*
X000740Y031557D02*
X006825Y031557D01*
X006825Y031715D02*
X000740Y031715D01*
X000740Y031874D02*
X006825Y031874D01*
X006825Y032032D02*
X000740Y032032D01*
X000740Y032191D02*
X006838Y032191D01*
X006863Y032508D02*
X000740Y032508D01*
X000740Y032666D02*
X006825Y032666D01*
X006825Y032825D02*
X000740Y032825D01*
X000740Y032983D02*
X006825Y032983D01*
X006825Y033142D02*
X000740Y033142D01*
X000740Y033300D02*
X007338Y033300D01*
X007758Y033300D02*
X008208Y033300D01*
X008208Y033142D02*
X008145Y033142D01*
X008145Y032983D02*
X008208Y032983D01*
X008208Y032825D02*
X008145Y032825D01*
X008145Y032666D02*
X008208Y032666D01*
X008208Y032508D02*
X008107Y032508D01*
X008208Y032349D02*
X007758Y032349D01*
X008133Y032191D02*
X008208Y032191D01*
X008208Y032032D02*
X008145Y032032D01*
X008145Y031874D02*
X008208Y031874D01*
X008259Y031715D02*
X008145Y031715D01*
X008145Y031557D02*
X010325Y031557D01*
X010338Y032191D02*
X008688Y032191D01*
X008688Y032349D02*
X017257Y032349D01*
X017098Y032191D02*
X011633Y032191D01*
X011607Y032508D02*
X017415Y032508D01*
X017574Y032666D02*
X011645Y032666D01*
X011046Y032654D02*
X010985Y032715D01*
X010985Y032862D01*
X011091Y032969D01*
X016715Y032969D01*
X021046Y037299D01*
X026007Y037299D01*
X026009Y037223D01*
X026009Y035969D01*
X026319Y035969D02*
X026319Y037690D01*
X026322Y037693D01*
X020101Y037693D01*
X016322Y033913D01*
X011036Y033913D01*
X010985Y033862D01*
X010985Y033738D01*
X011046Y033677D01*
X009944Y033677D01*
X009865Y033756D01*
X009865Y036394D01*
X009865Y036765D02*
X009605Y036765D01*
X009559Y036777D01*
X009518Y036801D01*
X009485Y036834D01*
X009461Y036875D01*
X009449Y036921D01*
X009449Y037102D01*
X009865Y037102D01*
X009865Y037102D01*
X009865Y036765D01*
X010125Y036765D01*
X010171Y036777D01*
X010212Y036801D01*
X010245Y036834D01*
X010269Y036875D01*
X010281Y036921D01*
X010281Y037102D01*
X009865Y037102D01*
X009865Y036765D01*
X009865Y036787D02*
X009865Y036787D01*
X009865Y036946D02*
X009865Y036946D01*
X009865Y037102D02*
X009865Y037102D01*
X009865Y037102D01*
X009449Y037102D01*
X009449Y037284D01*
X009461Y037329D01*
X009485Y037370D01*
X009518Y037404D01*
X009559Y037428D01*
X009605Y037440D01*
X009865Y037440D01*
X009865Y037102D01*
X010281Y037102D01*
X010281Y037284D01*
X010269Y037329D01*
X010245Y037370D01*
X010212Y037404D01*
X010171Y037428D01*
X010125Y037440D01*
X009865Y037440D01*
X009865Y037102D01*
X009865Y037102D01*
X009865Y037104D02*
X009865Y037104D01*
X009865Y037263D02*
X009865Y037263D01*
X009865Y037421D02*
X009865Y037421D01*
X009549Y037421D02*
X009079Y037421D01*
X009068Y037428D02*
X009023Y037440D01*
X008763Y037440D01*
X008763Y037102D01*
X008763Y036765D01*
X009023Y036765D01*
X009068Y036777D01*
X009109Y036801D01*
X009143Y036834D01*
X009167Y036875D01*
X009179Y036921D01*
X009179Y037102D01*
X008763Y037102D01*
X008763Y037102D01*
X008763Y037102D01*
X008763Y036765D01*
X008503Y036765D01*
X008457Y036777D01*
X008416Y036801D01*
X008382Y036834D01*
X008359Y036875D01*
X008346Y036921D01*
X008346Y037102D01*
X008763Y037102D01*
X009179Y037102D01*
X009179Y037284D01*
X009167Y037329D01*
X009143Y037370D01*
X009109Y037404D01*
X009068Y037428D01*
X009179Y037263D02*
X009449Y037263D01*
X009449Y037104D02*
X009179Y037104D01*
X009179Y036946D02*
X009449Y036946D01*
X009542Y036787D02*
X009086Y036787D01*
X009147Y036629D02*
X009480Y036629D01*
X009469Y036470D02*
X009159Y036470D01*
X009159Y036312D02*
X009469Y036312D01*
X009485Y036153D02*
X009224Y036153D01*
X009318Y035995D02*
X009625Y035995D01*
X009625Y035836D02*
X009318Y035836D01*
X009318Y035678D02*
X009625Y035678D01*
X009625Y035519D02*
X009318Y035519D01*
X009318Y035361D02*
X009625Y035361D01*
X009625Y035202D02*
X009318Y035202D01*
X009318Y035044D02*
X009625Y035044D01*
X009625Y034885D02*
X009318Y034885D01*
X009318Y034727D02*
X009625Y034727D01*
X009625Y034568D02*
X009318Y034568D01*
X009318Y034410D02*
X009625Y034410D01*
X009625Y034251D02*
X009318Y034251D01*
X009318Y034093D02*
X009625Y034093D01*
X009625Y033934D02*
X009318Y033934D01*
X009318Y033776D02*
X009625Y033776D01*
X009664Y033617D02*
X009318Y033617D01*
X009318Y033459D02*
X009844Y033459D01*
X010105Y033934D02*
X010325Y033934D01*
X010325Y034093D02*
X010105Y034093D01*
X010105Y034251D02*
X010398Y034251D01*
X010325Y034568D02*
X010105Y034568D01*
X010105Y034410D02*
X016479Y034410D01*
X016637Y034568D02*
X011645Y034568D01*
X011572Y034251D02*
X016320Y034251D01*
X016294Y034727D02*
X016796Y034727D01*
X016954Y034885D02*
X016452Y034885D01*
X016611Y035044D02*
X017113Y035044D01*
X017271Y035202D02*
X016769Y035202D01*
X016928Y035361D02*
X017430Y035361D01*
X017588Y035519D02*
X017086Y035519D01*
X017245Y035678D02*
X017747Y035678D01*
X017905Y035836D02*
X017403Y035836D01*
X017562Y035995D02*
X018064Y035995D01*
X018222Y036153D02*
X017720Y036153D01*
X017879Y036312D02*
X018381Y036312D01*
X018539Y036470D02*
X018037Y036470D01*
X018196Y036629D02*
X018698Y036629D01*
X018856Y036787D02*
X018354Y036787D01*
X018513Y036946D02*
X019015Y036946D01*
X019173Y037104D02*
X018671Y037104D01*
X018830Y037263D02*
X019332Y037263D01*
X019490Y037421D02*
X018988Y037421D01*
X019147Y037580D02*
X019649Y037580D01*
X019807Y037738D02*
X019305Y037738D01*
X019464Y037897D02*
X019967Y037897D01*
X020169Y037421D02*
X020829Y037421D01*
X020670Y037263D02*
X020011Y037263D01*
X019852Y037104D02*
X020512Y037104D01*
X020353Y036946D02*
X019694Y036946D01*
X019535Y036787D02*
X020195Y036787D01*
X020036Y036629D02*
X019377Y036629D01*
X019218Y036470D02*
X019878Y036470D01*
X019719Y036312D02*
X019060Y036312D01*
X018901Y036153D02*
X019561Y036153D01*
X019402Y035995D02*
X018743Y035995D01*
X018584Y035836D02*
X019244Y035836D01*
X019085Y035678D02*
X018426Y035678D01*
X018267Y035519D02*
X018927Y035519D01*
X018768Y035361D02*
X018109Y035361D01*
X017950Y035202D02*
X018610Y035202D01*
X018451Y035044D02*
X017792Y035044D01*
X017633Y034885D02*
X018293Y034885D01*
X018134Y034727D02*
X017475Y034727D01*
X017316Y034568D02*
X017976Y034568D01*
X017817Y034410D02*
X017158Y034410D01*
X016999Y034251D02*
X017659Y034251D01*
X017500Y034093D02*
X016841Y034093D01*
X016682Y033934D02*
X017342Y033934D01*
X017183Y033776D02*
X016524Y033776D01*
X016866Y033459D02*
X011558Y033459D01*
X011645Y033617D02*
X017025Y033617D01*
X016708Y033300D02*
X009318Y033300D01*
X009318Y033142D02*
X010325Y033142D01*
X010325Y032983D02*
X009318Y032983D01*
X009078Y032811D02*
X009235Y032654D01*
X011046Y032654D01*
X010985Y031862D02*
X008452Y031862D01*
X008448Y031866D01*
X008448Y035606D01*
X007660Y036394D01*
X007660Y036765D02*
X007920Y036765D01*
X007966Y036777D01*
X008007Y036801D01*
X008041Y036834D01*
X008064Y036875D01*
X008077Y036921D01*
X008077Y037102D01*
X007660Y037102D01*
X007660Y037102D01*
X007660Y036765D01*
X007400Y036765D01*
X007355Y036777D01*
X007314Y036801D01*
X007280Y036834D01*
X007256Y036875D01*
X007244Y036921D01*
X007244Y037102D01*
X007660Y037102D01*
X007660Y037102D01*
X007660Y036765D01*
X007660Y036787D02*
X007660Y036787D01*
X007660Y036946D02*
X007660Y036946D01*
X007660Y037102D02*
X007660Y037102D01*
X007244Y037102D01*
X007244Y037284D01*
X007256Y037329D01*
X007280Y037370D01*
X007314Y037404D01*
X007355Y037428D01*
X007400Y037440D01*
X007660Y037440D01*
X007660Y037102D01*
X007660Y037102D01*
X008077Y037102D01*
X008077Y037284D01*
X008064Y037329D01*
X008041Y037370D01*
X008007Y037404D01*
X007966Y037428D01*
X007920Y037440D01*
X007660Y037440D01*
X007660Y037102D01*
X007660Y037104D02*
X007660Y037104D01*
X007660Y037263D02*
X007660Y037263D01*
X007660Y037421D02*
X007660Y037421D01*
X007344Y037421D02*
X000740Y037421D01*
X000740Y037263D02*
X007244Y037263D01*
X007244Y037104D02*
X000740Y037104D01*
X000740Y036946D02*
X007244Y036946D01*
X007337Y036787D02*
X000740Y036787D01*
X000740Y036629D02*
X007276Y036629D01*
X007264Y036470D02*
X000740Y036470D01*
X000740Y036312D02*
X007264Y036312D01*
X007281Y036153D02*
X000740Y036153D01*
X000740Y035995D02*
X007720Y035995D01*
X007878Y035836D02*
X000740Y035836D01*
X000740Y035678D02*
X007459Y035678D01*
X007367Y035519D02*
X000740Y035519D01*
X000740Y035361D02*
X007359Y035361D01*
X006849Y035202D02*
X000740Y035202D01*
X000740Y035044D02*
X006825Y035044D01*
X006825Y034885D02*
X000740Y034885D01*
X000740Y034727D02*
X006825Y034727D01*
X006825Y034568D02*
X000740Y034568D01*
X000740Y034410D02*
X007338Y034410D01*
X007758Y034410D02*
X008208Y034410D01*
X008208Y034568D02*
X008145Y034568D01*
X008145Y034727D02*
X008208Y034727D01*
X008208Y034885D02*
X008145Y034885D01*
X008145Y035044D02*
X008208Y035044D01*
X008208Y035202D02*
X008121Y035202D01*
X008079Y035361D02*
X008208Y035361D01*
X008195Y035519D02*
X008072Y035519D01*
X008037Y035678D02*
X007980Y035678D01*
X008399Y035995D02*
X008704Y035995D01*
X008838Y035836D02*
X008557Y035836D01*
X008678Y035678D02*
X008838Y035678D01*
X008838Y035519D02*
X008688Y035519D01*
X008688Y035361D02*
X008838Y035361D01*
X008838Y035202D02*
X008688Y035202D01*
X008688Y035044D02*
X008838Y035044D01*
X008838Y034885D02*
X008688Y034885D01*
X008688Y034727D02*
X008838Y034727D01*
X008838Y034568D02*
X008688Y034568D01*
X008688Y034410D02*
X008838Y034410D01*
X008838Y034251D02*
X008688Y034251D01*
X008688Y034093D02*
X008838Y034093D01*
X008838Y033934D02*
X008688Y033934D01*
X008688Y033776D02*
X008838Y033776D01*
X008838Y033617D02*
X008688Y033617D01*
X008688Y033459D02*
X008838Y033459D01*
X008838Y033300D02*
X008688Y033300D01*
X008688Y033142D02*
X008838Y033142D01*
X008838Y032983D02*
X008688Y032983D01*
X008688Y032825D02*
X008838Y032825D01*
X008883Y032666D02*
X008688Y032666D01*
X008688Y032508D02*
X009041Y032508D01*
X009078Y032811D02*
X009078Y035961D01*
X008684Y036354D01*
X008723Y036354D01*
X008763Y036394D01*
X008763Y036787D02*
X008763Y036787D01*
X008763Y036946D02*
X008763Y036946D01*
X008763Y037102D02*
X008763Y037102D01*
X008763Y037102D01*
X008346Y037102D01*
X008346Y037284D01*
X008359Y037329D01*
X008382Y037370D01*
X008416Y037404D01*
X008457Y037428D01*
X008503Y037440D01*
X008763Y037440D01*
X008763Y037102D01*
X008763Y037104D02*
X008763Y037104D01*
X008763Y037263D02*
X008763Y037263D01*
X008763Y037421D02*
X008763Y037421D01*
X008446Y037421D02*
X007977Y037421D01*
X008077Y037263D02*
X008346Y037263D01*
X008346Y037104D02*
X008077Y037104D01*
X008077Y036946D02*
X008346Y036946D01*
X008439Y036787D02*
X007984Y036787D01*
X008045Y036629D02*
X008378Y036629D01*
X008366Y036470D02*
X008057Y036470D01*
X008082Y036312D02*
X008366Y036312D01*
X008383Y036153D02*
X008240Y036153D01*
X010105Y035995D02*
X010745Y035995D01*
X010745Y035836D02*
X010105Y035836D01*
X010105Y035678D02*
X010745Y035678D01*
X010745Y035519D02*
X010105Y035519D01*
X010105Y035361D02*
X010745Y035361D01*
X010349Y035202D02*
X010105Y035202D01*
X010105Y035044D02*
X010325Y035044D01*
X010325Y034885D02*
X010105Y034885D01*
X010105Y034727D02*
X010325Y034727D01*
X010985Y034862D02*
X010985Y036376D01*
X010967Y036394D01*
X010967Y036765D02*
X010707Y036765D01*
X010662Y036777D01*
X010621Y036801D01*
X010587Y036834D01*
X010563Y036875D01*
X010551Y036921D01*
X010551Y037102D01*
X010967Y037102D01*
X010967Y037102D01*
X010967Y037102D01*
X010967Y036765D01*
X011227Y036765D01*
X011273Y036777D01*
X011314Y036801D01*
X011348Y036834D01*
X011371Y036875D01*
X011384Y036921D01*
X011384Y037102D01*
X010967Y037102D01*
X010551Y037102D01*
X010551Y037284D01*
X010563Y037329D01*
X010587Y037370D01*
X010621Y037404D01*
X010662Y037428D01*
X010707Y037440D01*
X010967Y037440D01*
X010967Y037102D01*
X010967Y036765D01*
X010967Y036787D02*
X010967Y036787D01*
X010967Y036946D02*
X010967Y036946D01*
X010967Y037102D02*
X010967Y037102D01*
X010967Y037102D01*
X010967Y037440D01*
X011227Y037440D01*
X011273Y037428D01*
X011314Y037404D01*
X011348Y037370D01*
X011371Y037329D01*
X011384Y037284D01*
X011384Y037102D01*
X010967Y037102D01*
X010967Y037104D02*
X010967Y037104D01*
X010967Y037263D02*
X010967Y037263D01*
X010967Y037421D02*
X010967Y037421D01*
X010651Y037421D02*
X010181Y037421D01*
X010281Y037263D02*
X010551Y037263D01*
X010551Y037104D02*
X010281Y037104D01*
X010281Y036946D02*
X010551Y036946D01*
X010644Y036787D02*
X010188Y036787D01*
X010250Y036629D02*
X010583Y036629D01*
X010571Y036470D02*
X010261Y036470D01*
X010261Y036312D02*
X010571Y036312D01*
X010588Y036153D02*
X010245Y036153D01*
X011225Y035995D02*
X016883Y035995D01*
X017041Y036153D02*
X011347Y036153D01*
X011364Y036312D02*
X017200Y036312D01*
X017358Y036470D02*
X011364Y036470D01*
X011352Y036629D02*
X017517Y036629D01*
X017675Y036787D02*
X011291Y036787D01*
X011384Y036946D02*
X017834Y036946D01*
X017992Y037104D02*
X011384Y037104D01*
X011384Y037263D02*
X018151Y037263D01*
X018309Y037421D02*
X011284Y037421D01*
X011225Y035836D02*
X016724Y035836D01*
X016566Y035678D02*
X011225Y035678D01*
X011225Y035519D02*
X016407Y035519D01*
X016249Y035361D02*
X011225Y035361D01*
X011621Y035202D02*
X016090Y035202D01*
X016086Y034858D02*
X019393Y038165D01*
X026637Y038165D01*
X026639Y038163D01*
X026639Y035969D01*
X025689Y035969D02*
X025689Y036824D01*
X025692Y036906D01*
X022152Y036906D01*
X017109Y031862D01*
X017109Y031945D01*
X017109Y031862D02*
X010985Y031862D01*
X011645Y031557D02*
X016868Y031557D01*
X016710Y031398D02*
X007984Y031398D01*
X008061Y031240D02*
X016551Y031240D01*
X016393Y031081D02*
X008138Y031081D01*
X008215Y030923D02*
X016234Y030923D01*
X016076Y030764D02*
X008292Y030764D01*
X008369Y030606D02*
X015917Y030606D01*
X015759Y030447D02*
X008446Y030447D01*
X008523Y030289D02*
X015600Y030289D01*
X015442Y030130D02*
X008600Y030130D01*
X008677Y029972D02*
X015283Y029972D01*
X015125Y029813D02*
X008754Y029813D01*
X008831Y029655D02*
X014966Y029655D01*
X014808Y029496D02*
X008908Y029496D01*
X008985Y029338D02*
X014649Y029338D01*
X014491Y029179D02*
X009062Y029179D01*
X009139Y029021D02*
X014332Y029021D01*
X014174Y028862D02*
X009216Y028862D01*
X009292Y028704D02*
X014015Y028704D01*
X013857Y028545D02*
X009369Y028545D01*
X009439Y028387D02*
X013698Y028387D01*
X013540Y028228D02*
X009425Y028228D01*
X009425Y028070D02*
X013381Y028070D01*
X013223Y027911D02*
X009425Y027911D01*
X009425Y027753D02*
X013064Y027753D01*
X012906Y027594D02*
X009425Y027594D01*
X009425Y027436D02*
X012747Y027436D01*
X012589Y027277D02*
X009353Y027277D01*
X009370Y027119D02*
X012430Y027119D01*
X012272Y026960D02*
X010697Y026960D01*
X012025Y026802D02*
X012113Y026802D01*
X008802Y027753D02*
X008802Y027753D01*
X008802Y027911D02*
X008802Y027911D01*
X008416Y027911D02*
X007928Y027911D01*
X007958Y027753D02*
X008386Y027753D01*
X008386Y027594D02*
X007958Y027594D01*
X007958Y027654D02*
X007542Y027654D01*
X007958Y027654D01*
X007542Y027654D02*
X007542Y027654D01*
X007542Y027753D02*
X007542Y027753D01*
X007542Y027911D02*
X007542Y027911D01*
X007156Y027911D02*
X006590Y027911D01*
X006620Y027753D02*
X007126Y027753D01*
X007126Y027594D02*
X006620Y027594D01*
X006204Y027753D02*
X006204Y027753D01*
X006204Y027911D02*
X006204Y027911D01*
X005817Y027911D02*
X005251Y027911D01*
X005281Y027753D02*
X005787Y027753D01*
X005787Y027594D02*
X005281Y027594D01*
X004865Y027753D02*
X004865Y027753D01*
X004865Y027911D02*
X004865Y027911D01*
X007338Y032349D02*
X000740Y032349D01*
X000740Y033459D02*
X006912Y033459D01*
X006825Y033617D02*
X000740Y033617D01*
X000740Y033776D02*
X006825Y033776D01*
X006825Y033934D02*
X000740Y033934D01*
X000740Y034093D02*
X006825Y034093D01*
X006898Y034251D02*
X000740Y034251D01*
X000859Y037580D02*
X018468Y037580D01*
X018626Y037738D02*
X001017Y037738D01*
X001176Y037897D02*
X018785Y037897D01*
X018943Y038055D02*
X001334Y038055D01*
X001493Y038214D02*
X019102Y038214D01*
X019265Y038372D02*
X001651Y038372D01*
X001810Y038531D02*
X024424Y038531D01*
X024265Y038689D02*
X001968Y038689D01*
X002127Y038848D02*
X024107Y038848D01*
X023948Y039006D02*
X002285Y039006D01*
X002444Y039165D02*
X023790Y039165D01*
X023631Y039323D02*
X017112Y039323D01*
X017100Y039317D02*
X017141Y039340D01*
X017174Y039374D01*
X017198Y039415D01*
X017210Y039461D01*
X017210Y040096D01*
X016793Y040096D01*
X016793Y040251D01*
X016638Y040251D01*
X016638Y041042D01*
X016377Y041042D01*
X016331Y041030D01*
X016290Y041006D01*
X016256Y040973D01*
X016233Y040932D01*
X016220Y040886D01*
X016220Y040251D01*
X016638Y040251D01*
X016638Y040096D01*
X016220Y040096D01*
X016220Y039461D01*
X016233Y039415D01*
X016256Y039374D01*
X016290Y039340D01*
X016331Y039317D01*
X016377Y039304D01*
X016638Y039304D01*
X016638Y040096D01*
X016793Y040096D01*
X016793Y039304D01*
X017054Y039304D01*
X017100Y039317D01*
X017210Y039482D02*
X023473Y039482D01*
X023314Y039640D02*
X017210Y039640D01*
X017210Y039799D02*
X023156Y039799D01*
X022997Y039957D02*
X017210Y039957D01*
X017210Y040251D02*
X017210Y040886D01*
X017198Y040932D01*
X017174Y040973D01*
X017141Y041006D01*
X017100Y041030D01*
X017054Y041042D01*
X016793Y041042D01*
X016793Y040251D01*
X017210Y040251D01*
X017210Y040274D02*
X022680Y040274D01*
X022522Y040433D02*
X017210Y040433D01*
X017210Y040591D02*
X022363Y040591D01*
X022205Y040750D02*
X017210Y040750D01*
X017204Y040908D02*
X022046Y040908D01*
X022165Y041384D02*
X022225Y041384D01*
X022268Y041542D02*
X021006Y041542D01*
X020955Y041667D02*
X021049Y041760D01*
X021049Y042208D01*
X020955Y042302D01*
X020890Y042302D01*
X020890Y043005D01*
X020994Y043005D01*
X021088Y043099D01*
X021088Y043704D01*
X020994Y043798D01*
X020311Y043798D01*
X020217Y043704D01*
X020217Y043099D01*
X020311Y043005D01*
X020470Y043005D01*
X020470Y042302D01*
X020350Y042302D01*
X020256Y042208D01*
X020256Y041760D01*
X020350Y041667D01*
X020955Y041667D01*
X020989Y041701D02*
X022284Y041701D01*
X022318Y041667D02*
X022225Y041760D01*
X022225Y042208D01*
X022318Y042302D01*
X022470Y042302D01*
X022470Y043005D01*
X022279Y043005D01*
X022185Y043099D01*
X022185Y043704D01*
X022279Y043798D01*
X022963Y043798D01*
X023057Y043704D01*
X023057Y043099D01*
X022963Y043005D01*
X022890Y043005D01*
X022890Y042302D01*
X022923Y042302D01*
X023017Y042208D01*
X023017Y041760D01*
X022923Y041667D01*
X022318Y041667D01*
X022225Y041859D02*
X021049Y041859D01*
X021049Y042018D02*
X022225Y042018D01*
X022225Y042176D02*
X021049Y042176D01*
X020890Y042335D02*
X022470Y042335D01*
X022470Y042493D02*
X020890Y042493D01*
X020890Y042652D02*
X022470Y042652D01*
X022470Y042810D02*
X020890Y042810D01*
X020890Y042969D02*
X022470Y042969D01*
X022185Y043127D02*
X021088Y043127D01*
X021088Y043286D02*
X022185Y043286D01*
X022185Y043444D02*
X021088Y043444D01*
X021088Y043603D02*
X022185Y043603D01*
X022243Y043761D02*
X021031Y043761D01*
X020952Y044166D02*
X020998Y044179D01*
X021039Y044202D01*
X021072Y044236D01*
X021096Y044277D01*
X021108Y044323D01*
X021108Y044545D01*
X020691Y044545D01*
X020691Y044621D01*
X021108Y044621D01*
X021108Y044843D01*
X021096Y044888D01*
X021072Y044929D01*
X021039Y044963D01*
X020998Y044987D01*
X020952Y044999D01*
X020691Y044999D01*
X020691Y044621D01*
X020614Y044621D01*
X020614Y044545D01*
X020197Y044545D01*
X020197Y044323D01*
X020209Y044277D01*
X020233Y044236D01*
X020266Y044202D01*
X020307Y044179D01*
X020353Y044166D01*
X020614Y044166D01*
X020614Y044545D01*
X020691Y044545D01*
X020691Y044166D01*
X020952Y044166D01*
X021073Y044237D02*
X022201Y044237D01*
X022201Y044236D02*
X022235Y044202D01*
X022276Y044179D01*
X022322Y044166D01*
X022583Y044166D01*
X022583Y044545D01*
X022165Y044545D01*
X022165Y044323D01*
X022178Y044277D01*
X022201Y044236D01*
X022165Y044395D02*
X021108Y044395D01*
X021108Y044712D02*
X022165Y044712D01*
X022165Y044621D02*
X022165Y044843D01*
X022178Y044888D01*
X022201Y044929D01*
X022235Y044963D01*
X022276Y044987D01*
X022322Y044999D01*
X022583Y044999D01*
X022583Y044621D01*
X022659Y044621D01*
X022659Y044999D01*
X022920Y044999D01*
X022966Y044987D01*
X023007Y044963D01*
X023041Y044929D01*
X023064Y044888D01*
X023077Y044843D01*
X023077Y044621D01*
X022659Y044621D01*
X022659Y044545D01*
X023077Y044545D01*
X023077Y044323D01*
X023064Y044277D01*
X023041Y044236D01*
X023007Y044202D01*
X022966Y044179D01*
X022920Y044166D01*
X022659Y044166D01*
X022659Y044545D01*
X022583Y044545D01*
X022583Y044621D01*
X022165Y044621D01*
X022173Y044871D02*
X021100Y044871D01*
X020691Y044871D02*
X020614Y044871D01*
X020614Y044999D02*
X020614Y044621D01*
X020197Y044621D01*
X020197Y044843D01*
X020209Y044888D01*
X020233Y044929D01*
X020266Y044963D01*
X020307Y044987D01*
X020353Y044999D01*
X020614Y044999D01*
X020614Y044712D02*
X020691Y044712D01*
X020691Y044554D02*
X022583Y044554D01*
X022659Y044554D02*
X024551Y044554D01*
X024551Y044545D02*
X024134Y044545D01*
X024134Y044323D01*
X024146Y044277D01*
X024170Y044236D01*
X024203Y044202D01*
X024244Y044179D01*
X024290Y044166D01*
X024551Y044166D01*
X024551Y044545D01*
X024551Y044621D01*
X024134Y044621D01*
X024134Y044843D01*
X024146Y044888D01*
X024170Y044929D01*
X024203Y044963D01*
X024244Y044987D01*
X024290Y044999D01*
X024551Y044999D01*
X024551Y044621D01*
X024628Y044621D01*
X025045Y044621D01*
X025045Y044843D01*
X025033Y044888D01*
X025009Y044929D01*
X024976Y044963D01*
X024935Y044987D01*
X024889Y044999D01*
X024628Y044999D01*
X024628Y044621D01*
X024628Y044545D01*
X025045Y044545D01*
X025045Y044323D01*
X025033Y044277D01*
X025009Y044236D01*
X024976Y044202D01*
X024935Y044179D01*
X024889Y044166D01*
X024628Y044166D01*
X024628Y044545D01*
X024551Y044545D01*
X024628Y044554D02*
X026520Y044554D01*
X026520Y044545D02*
X026102Y044545D01*
X026102Y044323D01*
X026115Y044277D01*
X026138Y044236D01*
X026172Y044202D01*
X026213Y044179D01*
X026259Y044166D01*
X026520Y044166D01*
X026520Y044545D01*
X026520Y044621D01*
X026520Y044999D01*
X026259Y044999D01*
X026213Y044987D01*
X026172Y044963D01*
X026138Y044929D01*
X026115Y044888D01*
X026102Y044843D01*
X026102Y044621D01*
X026520Y044621D01*
X026596Y044621D01*
X026596Y044999D01*
X026857Y044999D01*
X026903Y044987D01*
X026944Y044963D01*
X026978Y044929D01*
X027001Y044888D01*
X027014Y044843D01*
X027014Y044621D01*
X026596Y044621D01*
X026596Y044545D01*
X027014Y044545D01*
X027014Y044323D01*
X027001Y044277D01*
X026978Y044236D01*
X026944Y044202D01*
X026903Y044179D01*
X026857Y044166D01*
X026596Y044166D01*
X026596Y044545D01*
X026520Y044545D01*
X026596Y044554D02*
X028488Y044554D01*
X028488Y044545D02*
X028071Y044545D01*
X028071Y044323D01*
X028083Y044277D01*
X028107Y044236D01*
X028140Y044202D01*
X028181Y044179D01*
X028227Y044166D01*
X028488Y044166D01*
X028488Y044545D01*
X028488Y044621D01*
X028071Y044621D01*
X028071Y044843D01*
X028083Y044888D01*
X028107Y044929D01*
X028140Y044963D01*
X028181Y044987D01*
X028227Y044999D01*
X028488Y044999D01*
X028488Y044621D01*
X028565Y044621D01*
X028982Y044621D01*
X028982Y044843D01*
X028970Y044888D01*
X028946Y044929D01*
X028913Y044963D01*
X028872Y044987D01*
X028826Y044999D01*
X028565Y044999D01*
X028565Y044621D01*
X028565Y044545D01*
X028982Y044545D01*
X028982Y044323D01*
X028970Y044277D01*
X028946Y044236D01*
X028913Y044202D01*
X028872Y044179D01*
X028826Y044166D01*
X028565Y044166D01*
X028565Y044545D01*
X028488Y044545D01*
X028565Y044554D02*
X030457Y044554D01*
X030457Y044545D02*
X030039Y044545D01*
X030039Y044323D01*
X030052Y044277D01*
X030075Y044236D01*
X030109Y044202D01*
X030150Y044179D01*
X030196Y044166D01*
X030457Y044166D01*
X030457Y044545D01*
X030457Y044621D01*
X030457Y044999D01*
X030196Y044999D01*
X030150Y044987D01*
X030109Y044963D01*
X030075Y044929D01*
X030052Y044888D01*
X030039Y044843D01*
X030039Y044621D01*
X030457Y044621D01*
X030533Y044621D01*
X030533Y044999D01*
X030794Y044999D01*
X030840Y044987D01*
X030881Y044963D01*
X030915Y044929D01*
X030938Y044888D01*
X030951Y044843D01*
X030951Y044621D01*
X030533Y044621D01*
X030533Y044545D01*
X030951Y044545D01*
X030951Y044323D01*
X030938Y044277D01*
X030915Y044236D01*
X030881Y044202D01*
X030840Y044179D01*
X030794Y044166D01*
X030533Y044166D01*
X030533Y044545D01*
X030457Y044545D01*
X030533Y044554D02*
X032425Y044554D01*
X032425Y044545D02*
X032008Y044545D01*
X032008Y044323D01*
X032020Y044277D01*
X032044Y044236D01*
X032077Y044202D01*
X032118Y044179D01*
X032164Y044166D01*
X032425Y044166D01*
X032425Y044545D01*
X032425Y044621D01*
X032008Y044621D01*
X032008Y044843D01*
X032020Y044888D01*
X032044Y044929D01*
X032077Y044963D01*
X032118Y044987D01*
X032164Y044999D01*
X032425Y044999D01*
X032425Y044621D01*
X032502Y044621D01*
X032919Y044621D01*
X032919Y044843D01*
X032907Y044888D01*
X032883Y044929D01*
X032850Y044963D01*
X032809Y044987D01*
X032763Y044999D01*
X032502Y044999D01*
X032502Y044621D01*
X032502Y044545D01*
X032919Y044545D01*
X032919Y044323D01*
X032907Y044277D01*
X032883Y044236D01*
X032850Y044202D01*
X032809Y044179D01*
X032763Y044166D01*
X032502Y044166D01*
X032502Y044545D01*
X032425Y044545D01*
X032502Y044554D02*
X034394Y044554D01*
X034394Y044545D02*
X033976Y044545D01*
X033976Y044323D01*
X033989Y044277D01*
X034012Y044236D01*
X034046Y044202D01*
X034087Y044179D01*
X034133Y044166D01*
X034394Y044166D01*
X034394Y044545D01*
X034394Y044621D01*
X034394Y044999D01*
X034133Y044999D01*
X034087Y044987D01*
X034046Y044963D01*
X034012Y044929D01*
X033989Y044888D01*
X033976Y044843D01*
X033976Y044621D01*
X034394Y044621D01*
X034470Y044621D01*
X034470Y044999D01*
X034731Y044999D01*
X034777Y044987D01*
X034818Y044963D01*
X034852Y044929D01*
X034875Y044888D01*
X034888Y044843D01*
X034888Y044621D01*
X034470Y044621D01*
X034470Y044545D01*
X034888Y044545D01*
X034888Y044323D01*
X034875Y044277D01*
X034852Y044236D01*
X034818Y044202D01*
X034777Y044179D01*
X034731Y044166D01*
X034470Y044166D01*
X034470Y044545D01*
X034394Y044545D01*
X034470Y044554D02*
X035332Y044554D01*
X035356Y044712D02*
X034888Y044712D01*
X034880Y044871D02*
X035471Y044871D01*
X035380Y044395D02*
X034888Y044395D01*
X034852Y044237D02*
X035586Y044237D01*
X035798Y044237D02*
X036303Y044237D01*
X036264Y044395D02*
X036004Y044395D01*
X036052Y044554D02*
X036269Y044554D01*
X036205Y044712D02*
X036335Y044712D01*
X036402Y044078D02*
X019096Y044078D01*
X019078Y044036D02*
X019159Y044230D01*
X019159Y044441D01*
X019078Y044636D01*
X018929Y044785D01*
X018734Y044866D01*
X018523Y044866D01*
X018329Y044785D01*
X018180Y044636D01*
X018150Y044564D01*
X018078Y044736D01*
X017929Y044885D01*
X017734Y044966D01*
X017523Y044966D01*
X017329Y044885D01*
X017180Y044736D01*
X017108Y044564D01*
X017078Y044636D01*
X016929Y044785D01*
X016734Y044866D01*
X016523Y044866D01*
X016329Y044785D01*
X016180Y044636D01*
X016150Y044564D01*
X016078Y044736D01*
X015929Y044885D01*
X015734Y044966D01*
X015523Y044966D01*
X015329Y044885D01*
X015180Y044736D01*
X015139Y044637D01*
X015024Y044751D01*
X014994Y044764D01*
X014906Y044851D01*
X014726Y044926D01*
X013831Y044926D01*
X013734Y044966D01*
X013523Y044966D01*
X013329Y044885D01*
X013180Y044736D01*
X013108Y044564D01*
X013078Y044636D01*
X013075Y044639D01*
X013044Y044713D01*
X012906Y044851D01*
X012726Y044926D01*
X011831Y044926D01*
X011734Y044966D01*
X011523Y044966D01*
X011329Y044885D01*
X011180Y044736D01*
X011118Y044587D01*
X011099Y044624D01*
X011048Y044694D01*
X010987Y044755D01*
X010917Y044806D01*
X010840Y044846D01*
X010758Y044872D01*
X010672Y044886D01*
X010649Y044886D01*
X010649Y044356D01*
X010609Y044356D01*
X010609Y044886D01*
X010586Y044886D01*
X010500Y044872D01*
X010418Y044846D01*
X010341Y044806D01*
X010271Y044755D01*
X010209Y044694D01*
X010158Y044624D01*
X010151Y044609D01*
X010139Y044647D01*
X010099Y044724D01*
X010048Y044794D01*
X009987Y044855D01*
X009917Y044906D01*
X009840Y044946D01*
X009758Y044972D01*
X009672Y044986D01*
X009649Y044986D01*
X009649Y044456D01*
X009609Y044456D01*
X009609Y044986D01*
X009586Y044986D01*
X009500Y044972D01*
X009418Y044946D01*
X009341Y044906D01*
X009271Y044855D01*
X009209Y044794D01*
X009158Y044724D01*
X009119Y044647D01*
X009092Y044565D01*
X009079Y044479D01*
X009079Y044456D01*
X009609Y044456D01*
X009609Y044416D01*
X009649Y044416D01*
X009649Y043886D01*
X009672Y043886D01*
X009758Y043899D01*
X009840Y043926D01*
X009917Y043965D01*
X009987Y044016D01*
X010048Y044078D01*
X010099Y044148D01*
X010107Y044163D01*
X010119Y044125D01*
X010158Y044048D01*
X010209Y043978D01*
X010271Y043916D01*
X010341Y043865D01*
X010418Y043826D01*
X010500Y043799D01*
X010586Y043786D01*
X010609Y043786D01*
X010609Y044316D01*
X010649Y044316D01*
X010649Y043786D01*
X010672Y043786D01*
X010758Y043799D01*
X010840Y043826D01*
X010917Y043865D01*
X010987Y043916D01*
X011048Y043978D01*
X011099Y044048D01*
X011139Y044125D01*
X011159Y044186D01*
X011180Y044136D01*
X011329Y043987D01*
X011501Y043915D01*
X011501Y043447D01*
X010779Y042725D01*
X010757Y042764D01*
X010724Y042798D01*
X010683Y042821D01*
X010637Y042834D01*
X010456Y042834D01*
X010456Y042417D01*
X010456Y042001D01*
X010637Y042001D01*
X010683Y042013D01*
X010724Y042037D01*
X010757Y042071D01*
X010779Y042109D01*
X010887Y042002D01*
X011067Y041927D01*
X011262Y041927D01*
X011442Y042002D01*
X012139Y042699D01*
X012139Y042351D01*
X012213Y042171D01*
X012303Y042081D01*
X012303Y041544D01*
X012397Y041450D01*
X013160Y041450D01*
X013253Y041544D01*
X013253Y042165D01*
X013268Y042202D01*
X013268Y042397D01*
X013253Y042433D01*
X013253Y043054D01*
X013160Y043148D01*
X013119Y043148D01*
X013119Y044134D01*
X013150Y044208D01*
X013180Y044136D01*
X013329Y043987D01*
X013523Y043906D01*
X013734Y043906D01*
X013831Y043946D01*
X014257Y043946D01*
X014257Y043107D01*
X014332Y042927D01*
X014469Y042789D01*
X014557Y042753D01*
X014557Y041908D01*
X014444Y041908D01*
X014351Y041814D01*
X014351Y041367D01*
X014444Y041273D01*
X015049Y041273D01*
X015143Y041367D01*
X015143Y041814D01*
X015049Y041908D01*
X014977Y041908D01*
X014977Y042715D01*
X015907Y042715D01*
X016087Y042789D01*
X016225Y042927D01*
X016237Y042955D01*
X016240Y042955D01*
X016240Y041544D01*
X016334Y041450D01*
X017097Y041450D01*
X017190Y041544D01*
X017190Y042955D01*
X017894Y042955D01*
X017894Y042942D01*
X017988Y042848D01*
X018593Y042848D01*
X018686Y042942D01*
X018686Y043389D01*
X018593Y043483D01*
X017988Y043483D01*
X017894Y043389D01*
X017894Y043375D01*
X016270Y043375D01*
X016225Y043482D01*
X016087Y043620D01*
X015907Y043695D01*
X015237Y043695D01*
X015237Y044078D01*
X015329Y043987D01*
X015523Y043906D01*
X015734Y043906D01*
X015929Y043987D01*
X016078Y044136D01*
X016108Y044208D01*
X016180Y044036D01*
X016329Y043887D01*
X016523Y043806D01*
X016734Y043806D01*
X016929Y043887D01*
X017078Y044036D01*
X017150Y044208D01*
X017180Y044136D01*
X017329Y043987D01*
X017523Y043906D01*
X017734Y043906D01*
X017929Y043987D01*
X018078Y044136D01*
X018108Y044208D01*
X018180Y044036D01*
X018329Y043887D01*
X018523Y043806D01*
X018734Y043806D01*
X018929Y043887D01*
X019078Y044036D01*
X018962Y043920D02*
X036655Y043920D01*
X036934Y043920D02*
X036970Y043920D01*
X036970Y043761D02*
X034810Y043761D01*
X034774Y043798D02*
X034090Y043798D01*
X033996Y043704D01*
X033996Y043099D01*
X034090Y043005D01*
X034220Y043005D01*
X034220Y042302D01*
X034129Y042302D01*
X034036Y042208D01*
X034036Y041760D01*
X034129Y041667D01*
X034734Y041667D01*
X034828Y041760D01*
X034828Y042208D01*
X034734Y042302D01*
X034640Y042302D01*
X034640Y043005D01*
X034774Y043005D01*
X034868Y043099D01*
X034868Y043704D01*
X034774Y043798D01*
X034868Y043603D02*
X036970Y043603D01*
X036970Y043444D02*
X034868Y043444D01*
X034868Y043286D02*
X036970Y043286D01*
X036970Y043127D02*
X034868Y043127D01*
X034640Y042969D02*
X036792Y042969D01*
X036792Y042810D02*
X034640Y042810D01*
X034640Y042652D02*
X036792Y042652D01*
X036846Y042493D02*
X034640Y042493D01*
X034640Y042335D02*
X036840Y042335D01*
X036792Y042176D02*
X034828Y042176D01*
X034828Y042018D02*
X036792Y042018D01*
X036792Y041859D02*
X034828Y041859D01*
X034769Y041701D02*
X036970Y041701D01*
X036970Y041542D02*
X034785Y041542D01*
X034828Y041384D02*
X036970Y041384D01*
X036970Y041225D02*
X034828Y041225D01*
X034828Y041067D02*
X036970Y041067D01*
X036970Y040908D02*
X034640Y040908D01*
X034640Y040750D02*
X036970Y040750D01*
X036970Y040591D02*
X034640Y040591D01*
X034640Y040433D02*
X036269Y040433D01*
X036295Y040459D02*
X036194Y040357D01*
X036139Y040225D01*
X036139Y040082D01*
X036194Y039950D01*
X036289Y039854D01*
X036289Y029372D01*
X036271Y029390D01*
X035742Y029390D01*
X035649Y029296D01*
X035649Y028767D01*
X035742Y028673D01*
X035767Y028673D01*
X035767Y023878D01*
X035742Y023878D01*
X035649Y023784D01*
X035649Y023255D01*
X035742Y023162D01*
X036271Y023162D01*
X036289Y023179D01*
X036289Y014094D01*
X036194Y013999D01*
X036139Y013867D01*
X036139Y013724D01*
X036194Y013591D01*
X036295Y013490D01*
X036427Y013435D01*
X036571Y013435D01*
X036703Y013490D01*
X036804Y013591D01*
X036859Y013724D01*
X036859Y013867D01*
X036804Y013999D01*
X036709Y014094D01*
X036709Y039854D01*
X036804Y039950D01*
X036859Y040082D01*
X036859Y040225D01*
X036804Y040357D01*
X036703Y040459D01*
X036571Y040514D01*
X036427Y040514D01*
X036295Y040459D01*
X036159Y040274D02*
X034640Y040274D01*
X034640Y040116D02*
X036139Y040116D01*
X036190Y039957D02*
X034640Y039957D01*
X034640Y039799D02*
X036289Y039799D01*
X036289Y039640D02*
X034640Y039640D01*
X034512Y039482D02*
X036289Y039482D01*
X036289Y039323D02*
X034354Y039323D01*
X034195Y039165D02*
X036289Y039165D01*
X036289Y039006D02*
X034037Y039006D01*
X033878Y038848D02*
X036289Y038848D01*
X036289Y038689D02*
X033720Y038689D01*
X033561Y038531D02*
X036289Y038531D01*
X036289Y038372D02*
X033403Y038372D01*
X033244Y038214D02*
X036289Y038214D01*
X036289Y038055D02*
X033086Y038055D01*
X032927Y037897D02*
X036289Y037897D01*
X036289Y037738D02*
X032769Y037738D01*
X032830Y037580D02*
X036289Y037580D01*
X036289Y037421D02*
X032952Y037421D01*
X032981Y037263D02*
X033099Y037263D01*
X033013Y037104D02*
X032938Y037104D01*
X033012Y036946D02*
X032811Y036946D01*
X032811Y036787D02*
X033096Y036787D01*
X033159Y036629D02*
X032811Y036629D01*
X032811Y036470D02*
X033159Y036470D01*
X033159Y036312D02*
X032811Y036312D01*
X032811Y036153D02*
X033159Y036153D01*
X033159Y035995D02*
X032811Y035995D01*
X032811Y035836D02*
X033125Y035836D01*
X032966Y035678D02*
X032811Y035678D01*
X032808Y035519D02*
X032752Y035519D01*
X032649Y035361D02*
X032594Y035361D01*
X032491Y035202D02*
X032435Y035202D01*
X032332Y035044D02*
X032277Y035044D01*
X032174Y034885D02*
X032118Y034885D01*
X032015Y034727D02*
X031960Y034727D01*
X031857Y034568D02*
X031801Y034568D01*
X031698Y034410D02*
X031643Y034410D01*
X031540Y034251D02*
X031484Y034251D01*
X031381Y034093D02*
X031326Y034093D01*
X031223Y033934D02*
X031189Y033934D01*
X031500Y033617D02*
X036289Y033617D01*
X036289Y033459D02*
X031341Y033459D01*
X031189Y033300D02*
X036289Y033300D01*
X036289Y033142D02*
X031189Y033142D01*
X031189Y032983D02*
X036289Y032983D01*
X036289Y032825D02*
X035577Y032825D01*
X035577Y032839D02*
X035484Y032933D01*
X034955Y032933D01*
X034861Y032839D01*
X034861Y032310D01*
X034955Y032217D01*
X035009Y032217D01*
X035009Y021909D01*
X034955Y021909D01*
X034861Y021816D01*
X034861Y021287D01*
X034955Y021193D01*
X035484Y021193D01*
X035577Y021287D01*
X035577Y021816D01*
X035484Y021909D01*
X035429Y021909D01*
X035429Y032217D01*
X035484Y032217D01*
X035577Y032310D01*
X035577Y032839D01*
X035577Y032666D02*
X036289Y032666D01*
X036289Y032508D02*
X035577Y032508D01*
X035577Y032349D02*
X036289Y032349D01*
X036289Y032191D02*
X035429Y032191D01*
X035429Y032032D02*
X036289Y032032D01*
X036289Y031874D02*
X035429Y031874D01*
X035429Y031715D02*
X036289Y031715D01*
X036289Y031557D02*
X035429Y031557D01*
X035429Y031398D02*
X036289Y031398D01*
X036289Y031240D02*
X035429Y031240D01*
X035429Y031081D02*
X036289Y031081D01*
X036289Y030923D02*
X035429Y030923D01*
X035429Y030764D02*
X036289Y030764D01*
X036289Y030606D02*
X035429Y030606D01*
X035429Y030447D02*
X036289Y030447D01*
X036289Y030289D02*
X035429Y030289D01*
X035429Y030130D02*
X036289Y030130D01*
X036289Y029972D02*
X035429Y029972D01*
X035429Y029813D02*
X036289Y029813D01*
X036289Y029655D02*
X035429Y029655D01*
X035429Y029496D02*
X036289Y029496D01*
X036709Y029496D02*
X038316Y029496D01*
X038474Y029338D02*
X036709Y029338D01*
X036709Y029179D02*
X038633Y029179D01*
X038791Y029021D02*
X036709Y029021D01*
X036709Y028862D02*
X038950Y028862D01*
X039108Y028704D02*
X036709Y028704D01*
X036709Y028545D02*
X039267Y028545D01*
X039425Y028387D02*
X036709Y028387D01*
X036709Y028228D02*
X039576Y028228D01*
X039576Y028070D02*
X036709Y028070D01*
X036709Y027911D02*
X039576Y027911D01*
X039576Y027753D02*
X036709Y027753D01*
X036709Y027594D02*
X039576Y027594D01*
X039576Y027436D02*
X036709Y027436D01*
X036709Y027277D02*
X039576Y027277D01*
X039576Y027119D02*
X036709Y027119D01*
X036709Y026960D02*
X039576Y026960D01*
X039576Y026802D02*
X036709Y026802D01*
X036709Y026643D02*
X039576Y026643D01*
X039576Y026485D02*
X036709Y026485D01*
X036709Y026326D02*
X039576Y026326D01*
X039576Y026168D02*
X036709Y026168D01*
X036709Y026009D02*
X039576Y026009D01*
X039576Y025851D02*
X036709Y025851D01*
X036709Y025692D02*
X039576Y025692D01*
X039576Y025534D02*
X036709Y025534D01*
X036709Y025375D02*
X039576Y025375D01*
X039576Y025217D02*
X036709Y025217D01*
X036709Y025058D02*
X039576Y025058D01*
X039576Y024900D02*
X036709Y024900D01*
X036709Y024741D02*
X039576Y024741D01*
X039576Y024583D02*
X036709Y024583D01*
X036709Y024424D02*
X039576Y024424D01*
X039576Y024266D02*
X036709Y024266D01*
X036709Y024107D02*
X039576Y024107D01*
X039576Y023949D02*
X036709Y023949D01*
X036709Y023790D02*
X039576Y023790D01*
X039576Y023632D02*
X036709Y023632D01*
X036709Y023473D02*
X039576Y023473D01*
X039576Y023315D02*
X036709Y023315D01*
X036709Y023156D02*
X039576Y023156D01*
X039576Y022998D02*
X036709Y022998D01*
X036709Y022839D02*
X039576Y022839D01*
X039576Y022681D02*
X036709Y022681D01*
X036709Y022522D02*
X039576Y022522D01*
X039576Y022364D02*
X036709Y022364D01*
X036709Y022205D02*
X039576Y022205D01*
X039576Y022047D02*
X036709Y022047D01*
X036709Y021888D02*
X039576Y021888D01*
X039576Y021730D02*
X036709Y021730D01*
X036709Y021571D02*
X039576Y021571D01*
X039576Y021413D02*
X036709Y021413D01*
X036709Y021254D02*
X039576Y021254D01*
X039576Y021096D02*
X036709Y021096D01*
X036709Y020937D02*
X039576Y020937D01*
X039576Y020779D02*
X036709Y020779D01*
X036709Y020620D02*
X039468Y020620D01*
X039426Y020462D02*
X036709Y020462D01*
X036709Y020303D02*
X039457Y020303D01*
X039581Y020145D02*
X036709Y020145D01*
X036709Y019986D02*
X041645Y019986D01*
X041516Y019828D02*
X036709Y019828D01*
X036709Y019669D02*
X041452Y019669D01*
X041452Y019511D02*
X036709Y019511D01*
X036709Y019352D02*
X041510Y019352D01*
X041651Y019194D02*
X036709Y019194D01*
X036709Y019035D02*
X041514Y019035D01*
X041452Y018877D02*
X036709Y018877D01*
X036709Y018718D02*
X041452Y018718D01*
X041512Y018560D02*
X036709Y018560D01*
X036709Y018401D02*
X041660Y018401D01*
X041512Y018243D02*
X036709Y018243D01*
X036709Y018084D02*
X041452Y018084D01*
X041452Y017926D02*
X036709Y017926D01*
X036709Y017767D02*
X041514Y017767D01*
X041650Y017609D02*
X036709Y017609D01*
X036709Y017450D02*
X041510Y017450D01*
X041452Y017292D02*
X036709Y017292D01*
X036709Y017133D02*
X041452Y017133D01*
X041516Y016975D02*
X036709Y016975D01*
X036709Y016816D02*
X041645Y016816D01*
X041507Y016658D02*
X036709Y016658D01*
X036709Y016499D02*
X041452Y016499D01*
X041453Y016341D02*
X036709Y016341D01*
X036709Y016182D02*
X041518Y016182D01*
X041640Y016024D02*
X036709Y016024D01*
X036709Y015865D02*
X041505Y015865D01*
X041452Y015707D02*
X036709Y015707D01*
X036709Y015548D02*
X041455Y015548D01*
X041520Y015390D02*
X036709Y015390D01*
X036709Y015231D02*
X041609Y015231D01*
X041483Y015073D02*
X036709Y015073D01*
X036709Y014914D02*
X041435Y014914D01*
X041432Y014858D02*
X041912Y014858D01*
X041432Y014858D01*
X041443Y014756D02*
X036709Y014756D01*
X036709Y014597D02*
X041509Y014597D01*
X041678Y014439D02*
X036709Y014439D01*
X036709Y014280D02*
X041667Y014280D01*
X041509Y014122D02*
X036709Y014122D01*
X036819Y013963D02*
X041350Y013963D01*
X041192Y013805D02*
X036859Y013805D01*
X036827Y013646D02*
X041033Y013646D01*
X040875Y013488D02*
X036697Y013488D01*
X036300Y013488D02*
X013580Y013488D01*
X013421Y013646D02*
X036171Y013646D01*
X036139Y013805D02*
X013263Y013805D01*
X013566Y013963D02*
X015901Y013963D01*
X015896Y013966D02*
X015937Y013943D01*
X015983Y013930D01*
X016264Y013930D01*
X016264Y014318D01*
X016360Y014318D01*
X016360Y014414D01*
X016797Y014414D01*
X016797Y014646D01*
X016785Y014692D01*
X016761Y014733D01*
X016728Y014766D01*
X016686Y014790D01*
X016641Y014802D01*
X016360Y014802D01*
X016360Y014414D01*
X016264Y014414D01*
X016264Y014318D01*
X015827Y014318D01*
X015827Y014087D01*
X015839Y014041D01*
X015863Y014000D01*
X015896Y013966D01*
X015827Y014122D02*
X013647Y014122D01*
X013647Y014280D02*
X015827Y014280D01*
X015827Y014414D02*
X015827Y014646D01*
X015839Y014692D01*
X015863Y014733D01*
X015896Y014766D01*
X015937Y014790D01*
X015983Y014802D01*
X016264Y014802D01*
X016264Y014414D01*
X015827Y014414D01*
X015827Y014439D02*
X013647Y014439D01*
X013647Y014597D02*
X015827Y014597D01*
X015886Y014756D02*
X013580Y014756D01*
X012784Y014756D02*
X012312Y014756D01*
X012470Y014597D02*
X012717Y014597D01*
X012717Y014439D02*
X012629Y014439D01*
X012153Y014914D02*
X025777Y014914D01*
X025765Y015073D02*
X011995Y015073D01*
X011836Y015231D02*
X025831Y015231D01*
X026202Y015390D02*
X011678Y015390D01*
X011519Y015548D02*
X026361Y015548D01*
X026519Y015707D02*
X011361Y015707D01*
X011202Y015865D02*
X026678Y015865D01*
X026836Y016024D02*
X011044Y016024D01*
X010885Y016182D02*
X026995Y016182D01*
X027153Y016341D02*
X010727Y016341D01*
X010568Y016499D02*
X027312Y016499D01*
X027470Y016658D02*
X010410Y016658D01*
X010251Y016816D02*
X016347Y016816D01*
X016392Y016771D02*
X017039Y016771D01*
X017133Y016865D01*
X017133Y017513D01*
X017039Y017606D01*
X016392Y017606D01*
X016298Y017513D01*
X016298Y016865D01*
X016392Y016771D01*
X016298Y016975D02*
X010093Y016975D01*
X009934Y017133D02*
X016298Y017133D01*
X016298Y017292D02*
X009776Y017292D01*
X009617Y017450D02*
X016298Y017450D01*
X016298Y017926D02*
X009142Y017926D01*
X009091Y018084D02*
X016298Y018084D01*
X016298Y018243D02*
X009091Y018243D01*
X009091Y018401D02*
X016298Y018401D01*
X017086Y018560D02*
X018292Y018560D01*
X018166Y018763D02*
X018166Y018906D01*
X018221Y019039D01*
X018323Y019140D01*
X018455Y019195D01*
X018589Y019195D01*
X018729Y019334D01*
X018677Y019356D01*
X018576Y019457D01*
X018521Y019590D01*
X018521Y019733D01*
X018576Y019865D01*
X018677Y019967D01*
X018809Y020021D01*
X018952Y020021D01*
X019030Y019989D01*
X020027Y020987D01*
X017133Y020987D01*
X017133Y020865D01*
X017039Y020771D01*
X016392Y020771D01*
X016298Y020865D01*
X016298Y020947D01*
X009913Y020947D01*
X009338Y020373D01*
X009416Y020373D01*
X009462Y020361D01*
X009503Y020337D01*
X009537Y020303D01*
X016278Y020303D01*
X016278Y020189D02*
X016715Y020189D01*
X016278Y020189D01*
X016278Y020470D01*
X016290Y020516D01*
X016314Y020557D01*
X016347Y020590D01*
X016388Y020614D01*
X016434Y020626D01*
X016715Y020626D01*
X016715Y020189D01*
X016715Y020189D01*
X016715Y020189D01*
X016715Y020189D01*
X016715Y019751D01*
X016434Y019751D01*
X016388Y019764D01*
X016347Y019787D01*
X016314Y019821D01*
X016290Y019862D01*
X016278Y019908D01*
X016278Y020189D01*
X016278Y020145D02*
X009573Y020145D01*
X009573Y020217D02*
X009573Y020016D01*
X009235Y020016D01*
X009235Y020016D01*
X009235Y020016D01*
X009573Y020016D01*
X009573Y019815D01*
X009560Y019769D01*
X009537Y019728D01*
X009503Y019695D01*
X009462Y019671D01*
X009416Y019659D01*
X009235Y019659D01*
X009235Y020016D01*
X009235Y019986D02*
X009235Y019986D01*
X009235Y019828D02*
X009235Y019828D01*
X009235Y019669D02*
X009235Y019669D01*
X009100Y019511D02*
X009370Y019511D01*
X009292Y019352D02*
X009179Y019352D01*
X009179Y019194D02*
X009292Y019194D01*
X009292Y019035D02*
X009179Y019035D01*
X009110Y018877D02*
X009360Y018877D01*
X009609Y019189D02*
X010810Y019189D01*
X010646Y019511D02*
X009848Y019511D01*
X009573Y019828D02*
X016310Y019828D01*
X016278Y019986D02*
X009573Y019986D01*
X009573Y020217D02*
X009560Y020262D01*
X009537Y020303D01*
X009427Y020462D02*
X016278Y020462D01*
X016412Y020620D02*
X009586Y020620D01*
X009744Y020779D02*
X016384Y020779D01*
X016298Y020937D02*
X009903Y020937D01*
X008898Y019828D02*
X008793Y019828D01*
X008658Y019669D02*
X009014Y019669D01*
X009457Y019669D02*
X018521Y019669D01*
X018553Y019511D02*
X017133Y019511D01*
X017133Y019352D02*
X018686Y019352D01*
X018453Y019194D02*
X017133Y019194D01*
X017133Y019035D02*
X018220Y019035D01*
X018166Y018877D02*
X017133Y018877D01*
X017133Y018401D02*
X029214Y018401D01*
X029372Y018560D02*
X018761Y018560D01*
X018868Y018718D02*
X029531Y018718D01*
X029689Y018877D02*
X018886Y018877D01*
X019024Y019035D02*
X029848Y019035D01*
X030006Y019194D02*
X019183Y019194D01*
X019341Y019352D02*
X030165Y019352D01*
X030323Y019511D02*
X019500Y019511D01*
X019658Y019669D02*
X030482Y019669D01*
X030640Y019828D02*
X019817Y019828D01*
X019975Y019986D02*
X030799Y019986D01*
X030957Y020145D02*
X020134Y020145D01*
X020292Y020303D02*
X031116Y020303D01*
X031274Y020462D02*
X020451Y020462D01*
X020609Y020620D02*
X031433Y020620D01*
X031591Y020779D02*
X020768Y020779D01*
X020926Y020937D02*
X031750Y020937D01*
X031908Y021096D02*
X021085Y021096D01*
X021243Y021254D02*
X027217Y021254D01*
X027184Y021413D02*
X021402Y021413D01*
X021560Y021571D02*
X027184Y021571D01*
X027184Y021730D02*
X021719Y021730D01*
X021877Y021888D02*
X027257Y021888D01*
X027828Y021888D02*
X031784Y021888D01*
X032355Y021888D02*
X032568Y021888D01*
X032568Y022047D02*
X022036Y022047D01*
X022194Y022205D02*
X032568Y022205D01*
X032988Y022205D02*
X035009Y022205D01*
X035009Y022047D02*
X032988Y022047D01*
X032988Y021888D02*
X034934Y021888D01*
X034861Y021730D02*
X032988Y021730D01*
X032977Y021571D02*
X034861Y021571D01*
X034861Y021413D02*
X032819Y021413D01*
X032660Y021254D02*
X034894Y021254D01*
X035545Y021254D02*
X036289Y021254D01*
X036289Y021096D02*
X032502Y021096D01*
X032343Y020937D02*
X036289Y020937D01*
X036289Y020779D02*
X032185Y020779D01*
X032026Y020620D02*
X036289Y020620D01*
X036289Y020462D02*
X031868Y020462D01*
X031709Y020303D02*
X036289Y020303D01*
X036289Y020145D02*
X031551Y020145D01*
X031392Y019986D02*
X036289Y019986D01*
X036289Y019828D02*
X031234Y019828D01*
X031075Y019669D02*
X036289Y019669D01*
X036289Y019511D02*
X030917Y019511D01*
X030758Y019352D02*
X036289Y019352D01*
X036289Y019194D02*
X030600Y019194D01*
X030441Y019035D02*
X036289Y019035D01*
X036289Y018877D02*
X030283Y018877D01*
X030124Y018718D02*
X036289Y018718D01*
X036289Y018560D02*
X029966Y018560D01*
X029807Y018401D02*
X036289Y018401D01*
X036289Y018243D02*
X029649Y018243D01*
X029490Y018084D02*
X036289Y018084D01*
X036289Y017926D02*
X029332Y017926D01*
X029173Y017767D02*
X036289Y017767D01*
X036289Y017609D02*
X029015Y017609D01*
X028856Y017450D02*
X036289Y017450D01*
X036289Y017292D02*
X028698Y017292D01*
X028539Y017133D02*
X036289Y017133D01*
X036289Y016975D02*
X028381Y016975D01*
X028222Y016816D02*
X036289Y016816D01*
X036289Y016658D02*
X028064Y016658D01*
X027905Y016499D02*
X036289Y016499D01*
X036289Y016341D02*
X027747Y016341D01*
X027588Y016182D02*
X036289Y016182D01*
X036289Y016024D02*
X027430Y016024D01*
X027271Y015865D02*
X036289Y015865D01*
X036289Y015707D02*
X027113Y015707D01*
X026954Y015548D02*
X036289Y015548D01*
X036289Y015390D02*
X026796Y015390D01*
X026637Y015231D02*
X036289Y015231D01*
X036289Y015073D02*
X026485Y015073D01*
X026473Y014914D02*
X036289Y014914D01*
X036289Y014756D02*
X026374Y014756D01*
X025876Y014756D02*
X016738Y014756D01*
X016797Y014597D02*
X036289Y014597D01*
X036289Y014439D02*
X016797Y014439D01*
X016797Y014318D02*
X016360Y014318D01*
X016360Y013930D01*
X016641Y013930D01*
X016686Y013943D01*
X016728Y013966D01*
X016761Y014000D01*
X016785Y014041D01*
X016797Y014087D01*
X016797Y014318D01*
X016797Y014280D02*
X036289Y014280D01*
X036289Y014122D02*
X016797Y014122D01*
X016723Y013963D02*
X036179Y013963D01*
X040600Y013171D02*
X024330Y013171D01*
X024488Y013012D02*
X040600Y013012D01*
X040600Y012854D02*
X030462Y012854D01*
X030361Y012956D02*
X030683Y012633D01*
X030683Y012426D01*
X030153Y012426D01*
X030153Y012956D01*
X030361Y012956D01*
X030153Y012854D02*
X030113Y012854D01*
X030113Y012695D02*
X030153Y012695D01*
X030153Y012537D02*
X030113Y012537D01*
X030113Y012426D02*
X030113Y012386D01*
X029583Y012386D01*
X029153Y012386D01*
X029153Y012426D01*
X030113Y012426D01*
X029803Y012854D02*
X029462Y012854D01*
X029621Y012695D02*
X029645Y012695D01*
X029153Y012695D02*
X029113Y012695D01*
X029113Y012537D02*
X029153Y012537D01*
X029113Y012426D02*
X029113Y012386D01*
X028583Y012386D01*
X028153Y012386D01*
X028153Y012426D01*
X029113Y012426D01*
X029113Y012854D02*
X029153Y012854D01*
X028803Y012854D02*
X028462Y012854D01*
X028621Y012695D02*
X028645Y012695D01*
X028153Y012695D02*
X028113Y012695D01*
X028113Y012537D02*
X028153Y012537D01*
X028113Y012426D02*
X028113Y012386D01*
X027583Y012386D01*
X027153Y012386D01*
X027153Y012426D01*
X028113Y012426D01*
X028113Y012854D02*
X028153Y012854D01*
X027803Y012854D02*
X027462Y012854D01*
X027621Y012695D02*
X027645Y012695D01*
X027153Y012695D02*
X027113Y012695D01*
X027113Y012537D02*
X027153Y012537D01*
X027153Y012854D02*
X027113Y012854D01*
X026803Y012854D02*
X026434Y012854D01*
X026592Y012695D02*
X026645Y012695D01*
X025832Y012854D02*
X024647Y012854D01*
X024805Y012695D02*
X025673Y012695D01*
X025603Y011269D02*
X016320Y011269D01*
X016087Y011269D02*
X015419Y011269D01*
X015432Y011427D02*
X015890Y011427D01*
X015844Y011586D02*
X015590Y011586D01*
X015749Y011744D02*
X015773Y011744D01*
X016066Y012061D02*
X022547Y012061D01*
X022461Y012220D02*
X016725Y012220D01*
X016777Y012378D02*
X022461Y012378D01*
X022546Y012537D02*
X021446Y012537D01*
X022917Y011903D02*
X016420Y011903D01*
X016538Y011744D02*
X023076Y011744D01*
X023234Y011586D02*
X016564Y011586D01*
X016518Y011427D02*
X023393Y011427D01*
X024171Y013329D02*
X040716Y013329D01*
X041020Y013012D02*
X054738Y013012D01*
X054738Y012854D02*
X041020Y012854D01*
X041020Y012695D02*
X054738Y012695D01*
X054738Y012537D02*
X041020Y012537D01*
X041020Y012378D02*
X054738Y012378D01*
X054738Y012220D02*
X041020Y012220D01*
X041020Y012061D02*
X054738Y012061D01*
X054738Y011903D02*
X041020Y011903D01*
X041020Y011744D02*
X054738Y011744D01*
X054738Y011586D02*
X041020Y011586D01*
X041020Y011427D02*
X054738Y011427D01*
X054738Y011269D02*
X041020Y011269D01*
X041020Y011110D02*
X054738Y011110D01*
X054738Y010952D02*
X041020Y010952D01*
X041020Y010793D02*
X054738Y010793D01*
X054738Y010635D02*
X041020Y010635D01*
X041020Y010476D02*
X054738Y010476D01*
X054738Y010318D02*
X041020Y010318D01*
X041020Y010159D02*
X054738Y010159D01*
X054738Y010001D02*
X041020Y010001D01*
X041020Y009842D02*
X054738Y009842D01*
X054738Y009684D02*
X041020Y009684D01*
X041020Y009525D02*
X054738Y009525D01*
X054738Y009367D02*
X041020Y009367D01*
X041020Y009208D02*
X054738Y009208D01*
X054738Y009050D02*
X041020Y009050D01*
X041020Y008891D02*
X054738Y008891D01*
X054738Y008733D02*
X041020Y008733D01*
X041020Y008574D02*
X054738Y008574D01*
X054738Y008416D02*
X041020Y008416D01*
X041020Y008257D02*
X054738Y008257D01*
X054738Y008099D02*
X041020Y008099D01*
X041020Y007940D02*
X042646Y007940D01*
X042399Y007782D02*
X042083Y007782D01*
X042245Y007623D02*
X042301Y007623D01*
X042293Y007148D02*
X042337Y007148D01*
X042205Y006989D02*
X042483Y006989D01*
X041979Y006831D02*
X043609Y006831D01*
X043383Y006989D02*
X043105Y006989D01*
X043252Y007148D02*
X043295Y007148D01*
X043287Y007623D02*
X043343Y007623D01*
X043190Y007782D02*
X043505Y007782D01*
X044083Y007782D02*
X044399Y007782D01*
X044301Y007623D02*
X044245Y007623D01*
X044293Y007148D02*
X044337Y007148D01*
X044205Y006989D02*
X044483Y006989D01*
X043979Y006831D02*
X045609Y006831D01*
X045383Y006989D02*
X045105Y006989D01*
X045252Y007148D02*
X045295Y007148D01*
X045287Y007623D02*
X045343Y007623D01*
X045190Y007782D02*
X045505Y007782D01*
X046083Y007782D02*
X054738Y007782D01*
X054738Y007940D02*
X044942Y007940D01*
X044646Y007940D02*
X042942Y007940D01*
X041505Y007782D02*
X041190Y007782D01*
X041287Y007623D02*
X041343Y007623D01*
X041295Y007148D02*
X041252Y007148D01*
X041383Y006989D02*
X041105Y006989D01*
X041609Y006831D02*
X039979Y006831D01*
X040205Y006989D02*
X040483Y006989D01*
X040337Y007148D02*
X040293Y007148D01*
X040301Y007623D02*
X040245Y007623D01*
X040399Y007782D02*
X040083Y007782D01*
X040600Y007940D02*
X038942Y007940D01*
X039190Y007782D02*
X039505Y007782D01*
X039343Y007623D02*
X039287Y007623D01*
X039295Y007148D02*
X039252Y007148D01*
X039383Y006989D02*
X039105Y006989D01*
X039609Y006831D02*
X037979Y006831D01*
X038205Y006989D02*
X038483Y006989D01*
X038337Y007148D02*
X038293Y007148D01*
X038301Y007623D02*
X038245Y007623D01*
X038399Y007782D02*
X038083Y007782D01*
X037505Y007782D02*
X037190Y007782D01*
X037287Y007623D02*
X037343Y007623D01*
X037295Y007148D02*
X037252Y007148D01*
X037383Y006989D02*
X037105Y006989D01*
X037609Y006831D02*
X018814Y006831D01*
X019040Y006989D02*
X036483Y006989D01*
X036337Y007148D02*
X019128Y007148D01*
X019159Y007306D02*
X036271Y007306D01*
X036264Y007465D02*
X019146Y007465D01*
X019080Y007623D02*
X036301Y007623D01*
X036399Y007782D02*
X018918Y007782D01*
X018340Y007782D02*
X018024Y007782D01*
X018122Y007623D02*
X018178Y007623D01*
X017777Y007940D02*
X036646Y007940D01*
X036942Y007940D02*
X038646Y007940D01*
X040600Y010952D02*
X030429Y010952D01*
X030587Y011110D02*
X040600Y011110D01*
X040600Y011269D02*
X030663Y011269D01*
X030663Y011427D02*
X040600Y011427D01*
X040600Y011586D02*
X030663Y011586D01*
X030543Y011744D02*
X040600Y011744D01*
X040600Y011903D02*
X030408Y011903D01*
X030566Y012061D02*
X040600Y012061D01*
X040600Y012220D02*
X030683Y012220D01*
X030683Y012378D02*
X040600Y012378D01*
X040600Y012537D02*
X030683Y012537D01*
X030621Y012695D02*
X040600Y012695D01*
X041152Y013171D02*
X054738Y013171D01*
X054738Y013329D02*
X041310Y013329D01*
X041469Y013488D02*
X054738Y013488D01*
X054738Y013646D02*
X041627Y013646D01*
X041786Y013805D02*
X054738Y013805D01*
X054738Y013963D02*
X041944Y013963D01*
X042103Y014122D02*
X054738Y014122D01*
X054738Y014280D02*
X042261Y014280D01*
X042420Y014439D02*
X050384Y014439D01*
X050313Y014468D02*
X050482Y014398D01*
X050665Y014398D01*
X050834Y014468D01*
X050964Y014598D01*
X051034Y014767D01*
X051034Y014950D01*
X050964Y015119D01*
X050834Y015248D01*
X050825Y015252D01*
X050834Y015256D01*
X050964Y015385D01*
X050972Y015406D01*
X052984Y015406D01*
X053072Y015442D01*
X053139Y015510D01*
X053176Y015598D01*
X053176Y029079D01*
X053139Y029167D01*
X053072Y029235D01*
X052984Y029271D01*
X040302Y029271D01*
X040260Y029338D02*
X054738Y029338D01*
X054738Y029496D02*
X040281Y029496D01*
X040304Y029655D02*
X054738Y029655D01*
X054738Y029813D02*
X040254Y029813D01*
X040154Y029972D02*
X054738Y029972D01*
X054738Y030130D02*
X040154Y030130D01*
X040154Y030289D02*
X054738Y030289D01*
X054738Y030447D02*
X040154Y030447D01*
X040154Y030606D02*
X054738Y030606D01*
X054738Y030764D02*
X040154Y030764D01*
X040154Y030923D02*
X054738Y030923D01*
X054738Y031081D02*
X040154Y031081D01*
X040154Y031240D02*
X054738Y031240D01*
X054738Y031398D02*
X040154Y031398D01*
X040154Y031557D02*
X054738Y031557D01*
X054738Y031715D02*
X040154Y031715D01*
X040154Y031874D02*
X054738Y031874D01*
X054738Y032032D02*
X040154Y032032D01*
X040154Y032191D02*
X054738Y032191D01*
X054738Y032349D02*
X040154Y032349D01*
X040154Y032508D02*
X054738Y032508D01*
X054738Y032666D02*
X040154Y032666D01*
X040154Y032825D02*
X054738Y032825D01*
X054738Y032983D02*
X040154Y032983D01*
X040154Y033142D02*
X054738Y033142D01*
X054738Y033300D02*
X040154Y033300D01*
X040154Y033459D02*
X054738Y033459D01*
X054738Y033617D02*
X040154Y033617D01*
X040154Y033776D02*
X054738Y033776D01*
X054738Y033934D02*
X040154Y033934D01*
X040154Y034093D02*
X054738Y034093D01*
X054738Y034251D02*
X040154Y034251D01*
X040154Y034410D02*
X054738Y034410D01*
X054738Y034568D02*
X040154Y034568D01*
X040154Y034727D02*
X054738Y034727D01*
X054738Y034885D02*
X040154Y034885D01*
X040154Y035044D02*
X054738Y035044D01*
X054738Y035202D02*
X040154Y035202D01*
X040154Y035361D02*
X054738Y035361D01*
X054738Y035519D02*
X040154Y035519D01*
X040154Y035678D02*
X054738Y035678D01*
X054738Y035836D02*
X040154Y035836D01*
X040154Y035995D02*
X054738Y035995D01*
X054738Y036153D02*
X040154Y036153D01*
X040154Y036312D02*
X054738Y036312D01*
X054738Y036470D02*
X040154Y036470D01*
X040154Y036629D02*
X054738Y036629D01*
X054738Y036787D02*
X040154Y036787D01*
X040154Y036946D02*
X054738Y036946D01*
X054738Y037104D02*
X040154Y037104D01*
X040154Y037263D02*
X054738Y037263D01*
X054738Y037421D02*
X040154Y037421D01*
X040154Y037580D02*
X054619Y037580D01*
X054461Y037738D02*
X040154Y037738D01*
X040154Y037897D02*
X054302Y037897D01*
X054144Y038055D02*
X040154Y038055D01*
X040154Y038214D02*
X053985Y038214D01*
X053827Y038372D02*
X040154Y038372D01*
X040154Y038531D02*
X053668Y038531D01*
X053510Y038689D02*
X040154Y038689D01*
X040154Y038848D02*
X053351Y038848D01*
X053193Y039006D02*
X040154Y039006D01*
X040154Y039165D02*
X053034Y039165D01*
X052876Y039323D02*
X040154Y039323D01*
X040154Y039482D02*
X052717Y039482D01*
X052559Y039640D02*
X040154Y039640D01*
X040154Y039799D02*
X052400Y039799D01*
X052242Y039957D02*
X040154Y039957D01*
X040154Y040116D02*
X052083Y040116D01*
X051925Y040274D02*
X040154Y040274D01*
X040201Y040433D02*
X051766Y040433D01*
X051608Y040591D02*
X040295Y040591D01*
X040304Y040750D02*
X051449Y040750D01*
X051291Y040908D02*
X040230Y040908D01*
X039658Y040908D02*
X039640Y040908D01*
X039640Y041067D02*
X051132Y041067D01*
X050974Y041225D02*
X039640Y041225D01*
X039640Y041384D02*
X050815Y041384D01*
X050657Y041542D02*
X039640Y041542D01*
X039640Y041701D02*
X050498Y041701D01*
X050340Y041859D02*
X039946Y041859D01*
X039946Y042018D02*
X050181Y042018D01*
X050023Y042176D02*
X039946Y042176D01*
X039898Y042335D02*
X049864Y042335D01*
X049706Y042493D02*
X039892Y042493D01*
X039946Y042652D02*
X049547Y042652D01*
X049389Y042810D02*
X039946Y042810D01*
X039946Y042969D02*
X049230Y042969D01*
X049072Y043127D02*
X039640Y043127D01*
X039640Y043286D02*
X048913Y043286D01*
X048755Y043444D02*
X039640Y043444D01*
X039640Y043603D02*
X040867Y043603D01*
X040804Y043761D02*
X039640Y043761D01*
X039220Y043603D02*
X038933Y043603D01*
X039031Y043444D02*
X039220Y043444D01*
X039220Y043286D02*
X039044Y043286D01*
X038978Y043127D02*
X039220Y043127D01*
X039154Y042969D02*
X038894Y042969D01*
X038894Y042810D02*
X039154Y042810D01*
X039154Y042652D02*
X038894Y042652D01*
X038894Y042493D02*
X039208Y042493D01*
X039202Y042335D02*
X038894Y042335D01*
X038894Y042176D02*
X039154Y042176D01*
X039154Y042018D02*
X038894Y042018D01*
X038894Y041859D02*
X039154Y041859D01*
X039220Y041701D02*
X038894Y041701D01*
X038950Y041542D02*
X039220Y041542D01*
X039220Y041384D02*
X039109Y041384D01*
X039184Y041308D02*
X039184Y041308D01*
X036970Y040433D02*
X036729Y040433D01*
X036838Y040274D02*
X036970Y040274D01*
X036970Y040116D02*
X036859Y040116D01*
X036807Y039957D02*
X036970Y039957D01*
X036970Y039799D02*
X036709Y039799D01*
X036709Y039640D02*
X036970Y039640D01*
X036857Y039482D02*
X036709Y039482D01*
X036709Y039323D02*
X036820Y039323D01*
X036855Y039165D02*
X036709Y039165D01*
X036709Y039006D02*
X037001Y039006D01*
X036709Y038848D02*
X037490Y038848D01*
X037490Y039006D02*
X037359Y039006D01*
X037490Y038689D02*
X036709Y038689D01*
X036709Y038531D02*
X037490Y038531D01*
X037490Y038372D02*
X036709Y038372D01*
X036709Y038214D02*
X037490Y038214D01*
X037490Y038055D02*
X036709Y038055D01*
X036709Y037897D02*
X037490Y037897D01*
X037490Y037738D02*
X036709Y037738D01*
X036709Y037580D02*
X037490Y037580D01*
X037490Y037421D02*
X036709Y037421D01*
X036709Y037263D02*
X037490Y037263D01*
X037490Y037104D02*
X036709Y037104D01*
X036709Y036946D02*
X037490Y036946D01*
X037490Y036787D02*
X036709Y036787D01*
X036709Y036629D02*
X037490Y036629D01*
X037490Y036470D02*
X036709Y036470D01*
X036709Y036312D02*
X037490Y036312D01*
X037490Y036153D02*
X036709Y036153D01*
X036709Y035995D02*
X037490Y035995D01*
X037490Y035836D02*
X036709Y035836D01*
X036709Y035678D02*
X037490Y035678D01*
X037490Y035519D02*
X036709Y035519D01*
X036709Y035361D02*
X037490Y035361D01*
X037490Y035202D02*
X036709Y035202D01*
X036709Y035044D02*
X037490Y035044D01*
X037490Y034885D02*
X036709Y034885D01*
X036709Y034727D02*
X037490Y034727D01*
X037490Y034568D02*
X036709Y034568D01*
X036709Y034410D02*
X037490Y034410D01*
X037490Y034251D02*
X036709Y034251D01*
X036709Y034093D02*
X037490Y034093D01*
X037490Y033934D02*
X036709Y033934D01*
X036709Y033776D02*
X037490Y033776D01*
X037490Y033617D02*
X036709Y033617D01*
X036709Y033459D02*
X037490Y033459D01*
X037490Y033300D02*
X036709Y033300D01*
X036709Y033142D02*
X037490Y033142D01*
X037490Y032983D02*
X036709Y032983D01*
X036709Y032825D02*
X037490Y032825D01*
X037490Y032666D02*
X036709Y032666D01*
X036709Y032508D02*
X037490Y032508D01*
X037490Y032349D02*
X036709Y032349D01*
X036709Y032191D02*
X037490Y032191D01*
X037490Y032032D02*
X036709Y032032D01*
X036709Y031874D02*
X037490Y031874D01*
X037490Y031715D02*
X036709Y031715D01*
X036709Y031557D02*
X037490Y031557D01*
X037490Y031398D02*
X036709Y031398D01*
X036709Y031240D02*
X037490Y031240D01*
X037490Y031081D02*
X036709Y031081D01*
X036709Y030923D02*
X037490Y030923D01*
X037490Y030764D02*
X036709Y030764D01*
X036709Y030606D02*
X037490Y030606D01*
X037490Y030447D02*
X036709Y030447D01*
X036709Y030289D02*
X037523Y030289D01*
X037682Y030130D02*
X036709Y030130D01*
X036709Y029972D02*
X037840Y029972D01*
X037999Y029813D02*
X036709Y029813D01*
X036709Y029655D02*
X038157Y029655D01*
X036007Y029031D02*
X036007Y023520D01*
X035649Y023473D02*
X035429Y023473D01*
X035429Y023315D02*
X035649Y023315D01*
X035429Y023156D02*
X036289Y023156D01*
X036289Y022998D02*
X035429Y022998D01*
X035429Y022839D02*
X036289Y022839D01*
X036289Y022681D02*
X035429Y022681D01*
X035429Y022522D02*
X036289Y022522D01*
X036289Y022364D02*
X035429Y022364D01*
X035429Y022205D02*
X036289Y022205D01*
X036289Y022047D02*
X035429Y022047D01*
X035505Y021888D02*
X036289Y021888D01*
X036289Y021730D02*
X035577Y021730D01*
X035577Y021571D02*
X036289Y021571D01*
X036289Y021413D02*
X035577Y021413D01*
X035009Y022364D02*
X032988Y022364D01*
X032988Y022522D02*
X035009Y022522D01*
X035009Y022681D02*
X032988Y022681D01*
X032988Y022839D02*
X035009Y022839D01*
X035009Y022998D02*
X032988Y022998D01*
X032988Y023156D02*
X035009Y023156D01*
X035009Y023315D02*
X032988Y023315D01*
X032988Y023473D02*
X035009Y023473D01*
X035009Y023632D02*
X032988Y023632D01*
X032988Y023790D02*
X035009Y023790D01*
X035009Y023949D02*
X032988Y023949D01*
X032988Y024107D02*
X035009Y024107D01*
X035009Y024266D02*
X032988Y024266D01*
X032988Y024424D02*
X035009Y024424D01*
X035009Y024583D02*
X032988Y024583D01*
X032988Y024741D02*
X035009Y024741D01*
X035009Y024900D02*
X032988Y024900D01*
X032988Y025058D02*
X035009Y025058D01*
X035009Y025217D02*
X032988Y025217D01*
X032988Y025375D02*
X035009Y025375D01*
X035009Y025534D02*
X032988Y025534D01*
X032988Y025692D02*
X035009Y025692D01*
X035009Y025851D02*
X032988Y025851D01*
X032988Y026009D02*
X035009Y026009D01*
X035009Y026168D02*
X032988Y026168D01*
X032988Y026326D02*
X035009Y026326D01*
X035009Y026485D02*
X032988Y026485D01*
X032988Y026643D02*
X035009Y026643D01*
X035009Y026802D02*
X032988Y026802D01*
X032988Y026960D02*
X035009Y026960D01*
X035009Y027119D02*
X032988Y027119D01*
X032988Y027277D02*
X035009Y027277D01*
X035009Y027436D02*
X032988Y027436D01*
X032988Y027594D02*
X035009Y027594D01*
X035009Y027753D02*
X032988Y027753D01*
X032988Y027911D02*
X035009Y027911D01*
X035009Y028070D02*
X032988Y028070D01*
X032988Y028228D02*
X035009Y028228D01*
X035009Y028387D02*
X032988Y028387D01*
X032988Y028545D02*
X035009Y028545D01*
X035009Y028704D02*
X032988Y028704D01*
X032988Y028862D02*
X035009Y028862D01*
X035009Y029021D02*
X032988Y029021D01*
X032988Y029179D02*
X034149Y029179D01*
X034597Y029179D02*
X035009Y029179D01*
X035009Y029338D02*
X034710Y029338D01*
X034733Y029496D02*
X035009Y029496D01*
X035009Y029655D02*
X034684Y029655D01*
X034472Y029813D02*
X035009Y029813D01*
X035009Y029972D02*
X033218Y029972D01*
X033376Y029813D02*
X034274Y029813D01*
X035009Y030130D02*
X033059Y030130D01*
X032901Y030289D02*
X035009Y030289D01*
X035009Y030447D02*
X032742Y030447D01*
X032584Y030606D02*
X035009Y030606D01*
X035009Y030764D02*
X032425Y030764D01*
X032267Y030923D02*
X035009Y030923D01*
X035009Y031081D02*
X032108Y031081D01*
X031950Y031240D02*
X035009Y031240D01*
X035009Y031398D02*
X031791Y031398D01*
X031720Y031557D02*
X031633Y031557D01*
X032070Y031827D02*
X033054Y031827D01*
X033054Y032198D02*
X032794Y032198D01*
X032748Y032210D01*
X032707Y032234D01*
X032674Y032267D01*
X032650Y032308D01*
X032638Y032354D01*
X032638Y032535D01*
X033054Y032535D01*
X033054Y032198D01*
X033054Y032535D01*
X033054Y032535D01*
X033054Y032535D01*
X033470Y032535D01*
X033470Y032354D01*
X033458Y032308D01*
X033434Y032267D01*
X033401Y032234D01*
X033360Y032210D01*
X033314Y032198D01*
X033054Y032198D01*
X033054Y032349D02*
X033054Y032349D01*
X033054Y032508D02*
X033054Y032508D01*
X033054Y032535D02*
X033054Y032535D01*
X033470Y032535D01*
X033470Y032717D01*
X033458Y032762D01*
X033434Y032803D01*
X033401Y032837D01*
X033360Y032861D01*
X033314Y032873D01*
X033054Y032873D01*
X032794Y032873D01*
X032748Y032861D01*
X032707Y032837D01*
X032674Y032803D01*
X032650Y032762D01*
X032638Y032717D01*
X032638Y032535D01*
X033054Y032535D01*
X033054Y032873D01*
X033054Y032535D01*
X033054Y032535D01*
X033054Y032666D02*
X033054Y032666D01*
X033054Y032825D02*
X033054Y032825D01*
X032695Y032825D02*
X032429Y032825D01*
X032417Y032837D02*
X032375Y032861D01*
X032330Y032873D01*
X032070Y032873D01*
X032070Y032535D01*
X032070Y032198D01*
X032330Y032198D01*
X032375Y032210D01*
X032417Y032234D01*
X032450Y032267D01*
X032474Y032308D01*
X032486Y032354D01*
X032486Y032535D01*
X032070Y032535D01*
X032070Y032535D01*
X032070Y032535D01*
X032070Y032198D01*
X031810Y032198D01*
X031764Y032210D01*
X031723Y032234D01*
X031690Y032267D01*
X031666Y032308D01*
X031654Y032354D01*
X031654Y032535D01*
X032070Y032535D01*
X032486Y032535D01*
X032486Y032717D01*
X032474Y032762D01*
X032450Y032803D01*
X032417Y032837D01*
X032486Y032666D02*
X032638Y032666D01*
X032638Y032508D02*
X032486Y032508D01*
X032485Y032349D02*
X032639Y032349D01*
X032070Y032349D02*
X032070Y032349D01*
X032070Y032508D02*
X032070Y032508D01*
X032070Y032535D02*
X032070Y032535D01*
X032070Y032535D01*
X031654Y032535D01*
X031654Y032717D01*
X031666Y032762D01*
X031690Y032803D01*
X031723Y032837D01*
X031764Y032861D01*
X031810Y032873D01*
X032070Y032873D01*
X032070Y032535D01*
X032070Y032666D02*
X032070Y032666D01*
X032070Y032825D02*
X032070Y032825D01*
X031711Y032825D02*
X031189Y032825D01*
X031189Y032666D02*
X031654Y032666D01*
X031654Y032508D02*
X031189Y032508D01*
X031196Y032349D02*
X031655Y032349D01*
X031209Y032191D02*
X035009Y032191D01*
X035009Y032032D02*
X033450Y032032D01*
X033450Y031874D02*
X035009Y031874D01*
X035009Y031715D02*
X033450Y031715D01*
X033404Y031557D02*
X035009Y031557D01*
X034861Y032349D02*
X033469Y032349D01*
X033470Y032508D02*
X034861Y032508D01*
X034861Y032666D02*
X033470Y032666D01*
X033413Y032825D02*
X034861Y032825D01*
X036289Y033776D02*
X031658Y033776D01*
X031817Y033934D02*
X036289Y033934D01*
X036289Y034093D02*
X031975Y034093D01*
X032134Y034251D02*
X036289Y034251D01*
X036289Y034410D02*
X032292Y034410D01*
X032451Y034568D02*
X036289Y034568D01*
X036289Y034727D02*
X032609Y034727D01*
X032768Y034885D02*
X036289Y034885D01*
X036289Y035044D02*
X032926Y035044D01*
X033085Y035202D02*
X036289Y035202D01*
X036289Y035361D02*
X033243Y035361D01*
X033402Y035519D02*
X036289Y035519D01*
X036289Y035678D02*
X033560Y035678D01*
X033579Y035836D02*
X036289Y035836D01*
X036289Y035995D02*
X033579Y035995D01*
X033579Y036153D02*
X036289Y036153D01*
X036289Y036312D02*
X033579Y036312D01*
X033579Y036470D02*
X036289Y036470D01*
X036289Y036629D02*
X033579Y036629D01*
X033642Y036787D02*
X036289Y036787D01*
X036289Y036946D02*
X033726Y036946D01*
X033725Y037104D02*
X036289Y037104D01*
X036289Y037263D02*
X033639Y037263D01*
X032650Y038214D02*
X031744Y038214D01*
X031903Y038372D02*
X032809Y038372D01*
X032967Y038531D02*
X032061Y038531D01*
X032220Y038689D02*
X033126Y038689D01*
X033284Y038848D02*
X032378Y038848D01*
X032537Y039006D02*
X033443Y039006D01*
X033601Y039165D02*
X032640Y039165D01*
X032640Y039323D02*
X033760Y039323D01*
X033918Y039482D02*
X032640Y039482D01*
X032640Y039640D02*
X034077Y039640D01*
X034220Y039799D02*
X032640Y039799D01*
X032640Y039957D02*
X034220Y039957D01*
X034220Y040116D02*
X032640Y040116D01*
X032640Y040274D02*
X034220Y040274D01*
X034220Y040433D02*
X032640Y040433D01*
X032640Y040591D02*
X034220Y040591D01*
X034220Y040750D02*
X032640Y040750D01*
X032640Y040908D02*
X034220Y040908D01*
X034036Y041067D02*
X032860Y041067D01*
X032860Y041225D02*
X034036Y041225D01*
X034036Y041384D02*
X032860Y041384D01*
X032817Y041542D02*
X034079Y041542D01*
X034095Y041701D02*
X032800Y041701D01*
X032766Y041667D02*
X032860Y041760D01*
X032860Y042208D01*
X032766Y042302D01*
X032765Y042302D01*
X032765Y043005D01*
X032805Y043005D01*
X032899Y043099D01*
X032899Y043704D01*
X032805Y043798D01*
X032122Y043798D01*
X032028Y043704D01*
X032028Y043099D01*
X032122Y043005D01*
X032345Y043005D01*
X032345Y042302D01*
X032161Y042302D01*
X032067Y042208D01*
X032067Y041760D01*
X032161Y041667D01*
X032766Y041667D01*
X032860Y041859D02*
X034036Y041859D01*
X034036Y042018D02*
X032860Y042018D01*
X032860Y042176D02*
X034036Y042176D01*
X034220Y042335D02*
X032765Y042335D01*
X032765Y042493D02*
X034220Y042493D01*
X034220Y042652D02*
X032765Y042652D01*
X032765Y042810D02*
X034220Y042810D01*
X034220Y042969D02*
X032765Y042969D01*
X032899Y043127D02*
X033996Y043127D01*
X033996Y043286D02*
X032899Y043286D01*
X032899Y043444D02*
X033996Y043444D01*
X033996Y043603D02*
X032899Y043603D01*
X032842Y043761D02*
X034054Y043761D01*
X034012Y044237D02*
X032884Y044237D01*
X032919Y044395D02*
X033976Y044395D01*
X033976Y044712D02*
X032919Y044712D01*
X032911Y044871D02*
X033984Y044871D01*
X034394Y044871D02*
X034470Y044871D01*
X034470Y044712D02*
X034394Y044712D01*
X034394Y044395D02*
X034470Y044395D01*
X034470Y044237D02*
X034394Y044237D01*
X032502Y044237D02*
X032425Y044237D01*
X032425Y044395D02*
X032502Y044395D01*
X032502Y044712D02*
X032425Y044712D01*
X032425Y044871D02*
X032502Y044871D01*
X032015Y044871D02*
X030943Y044871D01*
X030951Y044712D02*
X032008Y044712D01*
X032008Y044395D02*
X030951Y044395D01*
X030915Y044237D02*
X032043Y044237D01*
X032085Y043761D02*
X030873Y043761D01*
X030837Y043798D02*
X030153Y043798D01*
X030059Y043704D01*
X030059Y043099D01*
X030153Y043005D01*
X030345Y043005D01*
X030345Y042302D01*
X030192Y042302D01*
X030099Y042208D01*
X030099Y041760D01*
X030192Y041667D01*
X030797Y041667D01*
X030891Y041760D01*
X030891Y042208D01*
X030797Y042302D01*
X030765Y042302D01*
X030765Y043005D01*
X030837Y043005D01*
X030931Y043099D01*
X030931Y043704D01*
X030837Y043798D01*
X030931Y043603D02*
X032028Y043603D01*
X032028Y043444D02*
X030931Y043444D01*
X030931Y043286D02*
X032028Y043286D01*
X032028Y043127D02*
X030931Y043127D01*
X030765Y042969D02*
X032345Y042969D01*
X032345Y042810D02*
X030765Y042810D01*
X030765Y042652D02*
X032345Y042652D01*
X032345Y042493D02*
X030765Y042493D01*
X030765Y042335D02*
X032345Y042335D01*
X032067Y042176D02*
X030891Y042176D01*
X030891Y042018D02*
X032067Y042018D01*
X032067Y041859D02*
X030891Y041859D01*
X030832Y041701D02*
X032127Y041701D01*
X032110Y041542D02*
X030848Y041542D01*
X030891Y041384D02*
X032067Y041384D01*
X032067Y041225D02*
X030891Y041225D01*
X030891Y041067D02*
X032067Y041067D01*
X032220Y040908D02*
X030640Y040908D01*
X030640Y040750D02*
X032220Y040750D01*
X032220Y040591D02*
X030640Y040591D01*
X030640Y040433D02*
X032220Y040433D01*
X032220Y040274D02*
X030640Y040274D01*
X030640Y040116D02*
X032220Y040116D01*
X032220Y039957D02*
X030640Y039957D01*
X030640Y039799D02*
X032220Y039799D01*
X032220Y039640D02*
X030640Y039640D01*
X030640Y039482D02*
X032220Y039482D01*
X032220Y039323D02*
X030640Y039323D01*
X030640Y039165D02*
X032101Y039165D01*
X031943Y039006D02*
X030640Y039006D01*
X030640Y038848D02*
X031784Y038848D01*
X031626Y038689D02*
X030640Y038689D01*
X030640Y038531D02*
X031467Y038531D01*
X031309Y038372D02*
X030640Y038372D01*
X030640Y038214D02*
X031150Y038214D01*
X030992Y038055D02*
X030640Y038055D01*
X030640Y037897D02*
X030833Y037897D01*
X030675Y037738D02*
X030640Y037738D01*
X030516Y037580D02*
X030485Y037580D01*
X030358Y037421D02*
X030327Y037421D01*
X030199Y037263D02*
X030168Y037263D01*
X030041Y037104D02*
X030010Y037104D01*
X029882Y036946D02*
X029851Y036946D01*
X029724Y036787D02*
X029693Y036787D01*
X029565Y036629D02*
X029534Y036629D01*
X029407Y036470D02*
X029376Y036470D01*
X029099Y036787D02*
X028765Y036787D01*
X028765Y036629D02*
X028940Y036629D01*
X028782Y036470D02*
X028765Y036470D01*
X028765Y036946D02*
X029257Y036946D01*
X029416Y037104D02*
X028765Y037104D01*
X028765Y037263D02*
X029574Y037263D01*
X029733Y037421D02*
X028765Y037421D01*
X028765Y037580D02*
X029891Y037580D01*
X030050Y037738D02*
X028765Y037738D01*
X028765Y037897D02*
X030208Y037897D01*
X030220Y038055D02*
X028765Y038055D01*
X028765Y038214D02*
X030220Y038214D01*
X030220Y038372D02*
X028765Y038372D01*
X028765Y038531D02*
X030220Y038531D01*
X030220Y038689D02*
X028765Y038689D01*
X028765Y038848D02*
X030220Y038848D01*
X030220Y039006D02*
X028765Y039006D01*
X028765Y039165D02*
X030220Y039165D01*
X030220Y039323D02*
X028765Y039323D01*
X028765Y039482D02*
X030220Y039482D01*
X030220Y039640D02*
X028765Y039640D01*
X028765Y039799D02*
X030220Y039799D01*
X030220Y039957D02*
X028765Y039957D01*
X028765Y040116D02*
X030220Y040116D01*
X030220Y040274D02*
X028765Y040274D01*
X028765Y040433D02*
X030220Y040433D01*
X030220Y040591D02*
X028765Y040591D01*
X028765Y040750D02*
X030220Y040750D01*
X030220Y040908D02*
X028765Y040908D01*
X028923Y041067D02*
X030099Y041067D01*
X030099Y041225D02*
X028923Y041225D01*
X028923Y041384D02*
X030099Y041384D01*
X030142Y041542D02*
X028880Y041542D01*
X028829Y041667D02*
X028923Y041760D01*
X028923Y042208D01*
X028829Y042302D01*
X028765Y042302D01*
X028765Y043005D01*
X028868Y043005D01*
X028962Y043099D01*
X028962Y043704D01*
X028868Y043798D01*
X028185Y043798D01*
X028091Y043704D01*
X028091Y043099D01*
X028185Y043005D01*
X028345Y043005D01*
X028345Y042302D01*
X028224Y042302D01*
X028130Y042208D01*
X028130Y041760D01*
X028224Y041667D01*
X028829Y041667D01*
X028863Y041701D02*
X030158Y041701D01*
X030099Y041859D02*
X028923Y041859D01*
X028923Y042018D02*
X030099Y042018D01*
X030099Y042176D02*
X028923Y042176D01*
X028765Y042335D02*
X030345Y042335D01*
X030345Y042493D02*
X028765Y042493D01*
X028765Y042652D02*
X030345Y042652D01*
X030345Y042810D02*
X028765Y042810D01*
X028765Y042969D02*
X030345Y042969D01*
X030059Y043127D02*
X028962Y043127D01*
X028962Y043286D02*
X030059Y043286D01*
X030059Y043444D02*
X028962Y043444D01*
X028962Y043603D02*
X030059Y043603D01*
X030117Y043761D02*
X028905Y043761D01*
X028947Y044237D02*
X030075Y044237D01*
X030039Y044395D02*
X028982Y044395D01*
X028982Y044712D02*
X030039Y044712D01*
X030047Y044871D02*
X028974Y044871D01*
X028565Y044871D02*
X028488Y044871D01*
X028488Y044712D02*
X028565Y044712D01*
X028565Y044395D02*
X028488Y044395D01*
X028488Y044237D02*
X028565Y044237D01*
X028106Y044237D02*
X026978Y044237D01*
X027014Y044395D02*
X028071Y044395D01*
X028071Y044712D02*
X027014Y044712D01*
X027006Y044871D02*
X028078Y044871D01*
X028148Y043761D02*
X026936Y043761D01*
X026900Y043798D02*
X026216Y043798D01*
X026122Y043704D01*
X026122Y043099D01*
X026216Y043005D01*
X026345Y043005D01*
X026345Y042302D01*
X026255Y042302D01*
X026162Y042208D01*
X026162Y041760D01*
X026255Y041667D01*
X026860Y041667D01*
X026954Y041760D01*
X026954Y042208D01*
X026860Y042302D01*
X026765Y042302D01*
X026765Y043005D01*
X026900Y043005D01*
X026994Y043099D01*
X026994Y043704D01*
X026900Y043798D01*
X026994Y043603D02*
X028091Y043603D01*
X028091Y043444D02*
X026994Y043444D01*
X026994Y043286D02*
X028091Y043286D01*
X028091Y043127D02*
X026994Y043127D01*
X026765Y042969D02*
X028345Y042969D01*
X028345Y042810D02*
X026765Y042810D01*
X026765Y042652D02*
X028345Y042652D01*
X028345Y042493D02*
X026765Y042493D01*
X026765Y042335D02*
X028345Y042335D01*
X028130Y042176D02*
X026954Y042176D01*
X026954Y042018D02*
X028130Y042018D01*
X028130Y041859D02*
X026954Y041859D01*
X026895Y041701D02*
X028190Y041701D01*
X028173Y041542D02*
X026911Y041542D01*
X026954Y041384D02*
X028130Y041384D01*
X028130Y041225D02*
X026954Y041225D01*
X026954Y041067D02*
X028130Y041067D01*
X028345Y040908D02*
X026890Y040908D01*
X026890Y040750D02*
X028345Y040750D01*
X028345Y040591D02*
X026890Y040591D01*
X026890Y040433D02*
X028345Y040433D01*
X028345Y040274D02*
X026890Y040274D01*
X026890Y040116D02*
X028345Y040116D01*
X028345Y039957D02*
X026890Y039957D01*
X026890Y039799D02*
X028345Y039799D01*
X028345Y039640D02*
X026908Y039640D01*
X027067Y039482D02*
X028345Y039482D01*
X028345Y039323D02*
X027225Y039323D01*
X027384Y039165D02*
X028345Y039165D01*
X028345Y039006D02*
X027542Y039006D01*
X027701Y038848D02*
X028345Y038848D01*
X028345Y038689D02*
X027859Y038689D01*
X028018Y038531D02*
X028345Y038531D01*
X028345Y038372D02*
X028176Y038372D01*
X028335Y038214D02*
X028345Y038214D01*
X030318Y036787D02*
X031224Y036787D01*
X031382Y036946D02*
X030476Y036946D01*
X030635Y037104D02*
X031541Y037104D01*
X031699Y037263D02*
X030793Y037263D01*
X030952Y037421D02*
X031858Y037421D01*
X032016Y037580D02*
X031110Y037580D01*
X031269Y037738D02*
X032175Y037738D01*
X032333Y037897D02*
X031427Y037897D01*
X031586Y038055D02*
X032492Y038055D01*
X031065Y036629D02*
X030159Y036629D01*
X030001Y036470D02*
X030907Y036470D01*
X030748Y036312D02*
X030359Y036312D01*
X030359Y036153D02*
X030590Y036153D01*
X030431Y035995D02*
X030359Y035995D01*
X030289Y033459D02*
X028305Y033459D01*
X027803Y033459D02*
X027614Y033459D01*
X027456Y033300D02*
X030176Y033300D01*
X030017Y033142D02*
X027297Y033142D01*
X027139Y032983D02*
X029859Y032983D01*
X029488Y032825D02*
X026980Y032825D01*
X026822Y032666D02*
X029372Y032666D01*
X029348Y032508D02*
X026663Y032508D01*
X026505Y032349D02*
X029395Y032349D01*
X029599Y032191D02*
X026346Y032191D01*
X026270Y032032D02*
X026188Y032032D01*
X026111Y031874D02*
X026029Y031874D01*
X025953Y031715D02*
X025871Y031715D01*
X025794Y031557D02*
X025712Y031557D01*
X025639Y031398D02*
X025554Y031398D01*
X025639Y031240D02*
X025189Y031240D01*
X025199Y031081D02*
X025516Y031081D01*
X025357Y030923D02*
X025209Y030923D01*
X024269Y030923D02*
X022570Y030923D01*
X022603Y031081D02*
X023286Y031081D01*
X023199Y031240D02*
X022643Y031240D01*
X022643Y031354D02*
X022643Y031536D01*
X022631Y031581D01*
X022608Y031622D01*
X022574Y031656D01*
X022533Y031680D01*
X022487Y031692D01*
X022227Y031692D01*
X022227Y031354D01*
X022227Y031354D01*
X022643Y031354D01*
X022643Y031398D02*
X023197Y031398D01*
X023281Y031557D02*
X022638Y031557D01*
X022227Y031557D02*
X022227Y031557D01*
X022227Y031398D02*
X022227Y031398D01*
X022227Y031240D02*
X022227Y031240D01*
X022227Y031081D02*
X022227Y031081D01*
X022015Y031715D02*
X024289Y031715D01*
X024289Y031557D02*
X023829Y031557D01*
X023894Y031874D02*
X022015Y031874D01*
X022227Y032032D02*
X022227Y032032D01*
X022227Y032191D02*
X022227Y032191D01*
X022227Y032220D02*
X022643Y032220D01*
X022643Y032402D01*
X022631Y032447D01*
X022608Y032488D01*
X022574Y032522D01*
X022533Y032546D01*
X022487Y032558D01*
X022227Y032558D01*
X022227Y032220D01*
X022227Y032220D01*
X022227Y032349D02*
X022227Y032349D01*
X022227Y032508D02*
X022227Y032508D01*
X022588Y032508D02*
X022622Y032508D01*
X022643Y032349D02*
X023729Y032349D01*
X023695Y032191D02*
X022643Y032191D01*
X022642Y032032D02*
X023733Y032032D01*
X023865Y032508D02*
X022988Y032508D01*
X023130Y032666D02*
X023810Y032666D01*
X023796Y032825D02*
X023165Y032825D01*
X023128Y032983D02*
X023859Y032983D01*
X024289Y033142D02*
X022973Y033142D01*
X022637Y033142D02*
X022623Y033142D01*
X022364Y033459D02*
X024289Y033459D01*
X024289Y033617D02*
X022523Y033617D01*
X022681Y033776D02*
X024289Y033776D01*
X024272Y033934D02*
X022840Y033934D01*
X022998Y034093D02*
X024269Y034093D01*
X024289Y033300D02*
X022206Y033300D01*
X024216Y031874D02*
X024289Y031874D01*
X024248Y031081D02*
X023824Y031081D01*
X026949Y029969D02*
X026952Y029966D01*
X027122Y029496D02*
X027332Y029496D01*
X027332Y029338D02*
X027122Y029338D01*
X027122Y029179D02*
X027332Y029179D01*
X027332Y029021D02*
X027122Y029021D01*
X027122Y028862D02*
X027332Y028862D01*
X027332Y028704D02*
X027122Y028704D01*
X027122Y028545D02*
X027332Y028545D01*
X027332Y028387D02*
X027122Y028387D01*
X027122Y028228D02*
X027332Y028228D01*
X027332Y028070D02*
X027122Y028070D01*
X027122Y027911D02*
X027332Y027911D01*
X027332Y027753D02*
X027122Y027753D01*
X027122Y027594D02*
X027332Y027594D01*
X027332Y027436D02*
X027122Y027436D01*
X027122Y027277D02*
X027332Y027277D01*
X027184Y027119D02*
X027108Y027119D01*
X027184Y026960D02*
X026949Y026960D01*
X026791Y026802D02*
X027184Y026802D01*
X027184Y026643D02*
X026632Y026643D01*
X026474Y026485D02*
X030803Y026485D01*
X030614Y026643D02*
X030066Y026643D01*
X030066Y026802D02*
X030570Y026802D01*
X030494Y026960D02*
X030066Y026960D01*
X030066Y027119D02*
X030336Y027119D01*
X030177Y027277D02*
X029556Y027277D01*
X029375Y027436D02*
X030019Y027436D01*
X029860Y027594D02*
X029194Y027594D01*
X029013Y027753D02*
X029702Y027753D01*
X029543Y027911D02*
X028832Y027911D01*
X028651Y028070D02*
X029385Y028070D01*
X029226Y028228D02*
X028470Y028228D01*
X028343Y028387D02*
X029068Y028387D01*
X028909Y028545D02*
X028343Y028545D01*
X028343Y028704D02*
X028751Y028704D01*
X028592Y028862D02*
X028343Y028862D01*
X028343Y029021D02*
X028434Y029021D01*
X028345Y029179D02*
X028343Y029179D01*
X028343Y029338D02*
X028345Y029338D01*
X028343Y029496D02*
X028345Y029496D01*
X027923Y029179D02*
X027752Y029179D01*
X027752Y029021D02*
X027923Y029021D01*
X027923Y028862D02*
X027752Y028862D01*
X027752Y028704D02*
X027923Y028704D01*
X027923Y028545D02*
X027752Y028545D01*
X027752Y028387D02*
X027923Y028387D01*
X027923Y028228D02*
X027752Y028228D01*
X027752Y028070D02*
X028010Y028070D01*
X028194Y027911D02*
X027752Y027911D01*
X027752Y027753D02*
X028375Y027753D01*
X028556Y027594D02*
X027752Y027594D01*
X027752Y027436D02*
X028738Y027436D01*
X028919Y027277D02*
X027752Y027277D01*
X027900Y027119D02*
X029100Y027119D01*
X029281Y026960D02*
X027900Y026960D01*
X027900Y026802D02*
X029349Y026802D01*
X029349Y026643D02*
X027900Y026643D01*
X026315Y026326D02*
X032568Y026326D01*
X032568Y026168D02*
X026157Y026168D01*
X025998Y026009D02*
X032568Y026009D01*
X032568Y025851D02*
X025840Y025851D01*
X025681Y025692D02*
X029743Y025692D01*
X029743Y025534D02*
X025523Y025534D01*
X025364Y025375D02*
X029743Y025375D01*
X029750Y025217D02*
X025206Y025217D01*
X025047Y025058D02*
X030192Y025058D01*
X030067Y024900D02*
X024889Y024900D01*
X024730Y024741D02*
X029981Y024741D01*
X029980Y024583D02*
X024572Y024583D01*
X024413Y024424D02*
X030065Y024424D01*
X030436Y024266D02*
X024255Y024266D01*
X024096Y024107D02*
X030595Y024107D01*
X030753Y023949D02*
X023938Y023949D01*
X023779Y023790D02*
X030912Y023790D01*
X031070Y023632D02*
X023621Y023632D01*
X023462Y023473D02*
X031229Y023473D01*
X031387Y023315D02*
X023304Y023315D01*
X023145Y023156D02*
X031546Y023156D01*
X031704Y022998D02*
X022987Y022998D01*
X022828Y022839D02*
X031863Y022839D01*
X032021Y022681D02*
X022670Y022681D01*
X022511Y022522D02*
X032064Y022522D01*
X032126Y022364D02*
X022353Y022364D01*
X019978Y020937D02*
X017133Y020937D01*
X017047Y020779D02*
X019819Y020779D01*
X019661Y020620D02*
X017019Y020620D01*
X016997Y020626D02*
X017042Y020614D01*
X017083Y020590D01*
X017117Y020557D01*
X017141Y020516D01*
X017153Y020470D01*
X017153Y020189D01*
X016715Y020189D01*
X016715Y020626D01*
X016997Y020626D01*
X017153Y020462D02*
X019502Y020462D01*
X019344Y020303D02*
X017153Y020303D01*
X017153Y020189D02*
X016715Y020189D01*
X016715Y019751D01*
X016997Y019751D01*
X017042Y019764D01*
X017083Y019787D01*
X017117Y019821D01*
X017141Y019862D01*
X017153Y019908D01*
X017153Y020189D01*
X017153Y020145D02*
X019185Y020145D01*
X018725Y019986D02*
X017153Y019986D01*
X017121Y019828D02*
X018560Y019828D01*
X016715Y019828D02*
X016715Y019828D01*
X016715Y019986D02*
X016715Y019986D01*
X016715Y020145D02*
X016715Y020145D01*
X016715Y020189D02*
X016715Y020189D01*
X016715Y020303D02*
X016715Y020303D01*
X016715Y020462D02*
X016715Y020462D01*
X016715Y020620D02*
X016715Y020620D01*
X017133Y018243D02*
X029055Y018243D01*
X028897Y018084D02*
X017133Y018084D01*
X017133Y017926D02*
X028738Y017926D01*
X028580Y017767D02*
X009300Y017767D01*
X009459Y017609D02*
X028421Y017609D01*
X028263Y017450D02*
X017133Y017450D01*
X017133Y017292D02*
X028104Y017292D01*
X027946Y017133D02*
X017133Y017133D01*
X017133Y016975D02*
X027787Y016975D01*
X027629Y016816D02*
X017084Y016816D01*
X016360Y014756D02*
X016264Y014756D01*
X016264Y014597D02*
X016360Y014597D01*
X016360Y014439D02*
X016264Y014439D01*
X016264Y014280D02*
X016360Y014280D01*
X016360Y014122D02*
X016264Y014122D01*
X016264Y013963D02*
X016360Y013963D01*
X015847Y012854D02*
X014214Y012854D01*
X014372Y012695D02*
X015847Y012695D01*
X015847Y012537D02*
X014531Y012537D01*
X014603Y012378D02*
X015789Y012378D01*
X015630Y012220D02*
X014603Y012220D01*
X014603Y012061D02*
X015472Y012061D01*
X014872Y011903D02*
X014622Y011903D01*
X014710Y011744D02*
X014784Y011744D01*
X014784Y011586D02*
X014710Y011586D01*
X014710Y011427D02*
X014784Y011427D01*
X014784Y011269D02*
X014710Y011269D01*
X014183Y012220D02*
X013595Y012220D01*
X013647Y012378D02*
X014095Y012378D01*
X013937Y012537D02*
X013647Y012537D01*
X013647Y012695D02*
X013778Y012695D01*
X015777Y007940D02*
X017481Y007940D01*
X017233Y007782D02*
X016918Y007782D01*
X017080Y007623D02*
X017136Y007623D01*
X017040Y006989D02*
X017318Y006989D01*
X016814Y006831D02*
X018444Y006831D01*
X018218Y006989D02*
X017940Y006989D01*
X016444Y006831D02*
X014814Y006831D01*
X015040Y006989D02*
X015318Y006989D01*
X015940Y006989D02*
X016218Y006989D01*
X016130Y007148D02*
X016086Y007148D01*
X016024Y007782D02*
X016340Y007782D01*
X026429Y010952D02*
X026837Y010952D01*
X026678Y011110D02*
X026587Y011110D01*
X027429Y010952D02*
X027837Y010952D01*
X027678Y011110D02*
X027587Y011110D01*
X028429Y010952D02*
X028837Y010952D01*
X028678Y011110D02*
X028587Y011110D01*
X029429Y010952D02*
X029837Y010952D01*
X029678Y011110D02*
X029587Y011110D01*
X039991Y020145D02*
X041508Y020145D01*
X041452Y020279D02*
X041452Y020462D01*
X041518Y020620D02*
X040105Y020620D01*
X039996Y020779D02*
X041640Y020779D01*
X041506Y020937D02*
X039996Y020937D01*
X039996Y021096D02*
X041452Y021096D01*
X041455Y021254D02*
X039996Y021254D01*
X039996Y021413D02*
X041520Y021413D01*
X041635Y021571D02*
X039996Y021571D01*
X039996Y021730D02*
X041503Y021730D01*
X041452Y021888D02*
X039996Y021888D01*
X039996Y022364D02*
X041722Y022364D01*
X041522Y022205D02*
X041452Y022036D01*
X042103Y022364D02*
X042135Y022364D01*
X042135Y022522D02*
X039996Y022522D01*
X039996Y022681D02*
X042135Y022681D01*
X042135Y022839D02*
X039996Y022839D01*
X039996Y022998D02*
X042135Y022998D01*
X042135Y023156D02*
X039996Y023156D01*
X039996Y023315D02*
X042135Y023315D01*
X042135Y023473D02*
X039996Y023473D01*
X039996Y023632D02*
X042135Y023632D01*
X042135Y023790D02*
X039996Y023790D01*
X039996Y023949D02*
X042135Y023949D01*
X042135Y024107D02*
X039996Y024107D01*
X039996Y024266D02*
X042135Y024266D01*
X042135Y024424D02*
X039996Y024424D01*
X039996Y024583D02*
X042135Y024583D01*
X042135Y024741D02*
X039996Y024741D01*
X039996Y024900D02*
X042135Y024900D01*
X042135Y025058D02*
X039996Y025058D01*
X039996Y025217D02*
X042135Y025217D01*
X042135Y025375D02*
X039996Y025375D01*
X039996Y025534D02*
X042135Y025534D01*
X042135Y025692D02*
X039996Y025692D01*
X039996Y025851D02*
X042135Y025851D01*
X042078Y026009D02*
X039996Y026009D01*
X039996Y026168D02*
X041920Y026168D01*
X041761Y026326D02*
X039996Y026326D01*
X039996Y026485D02*
X041603Y026485D01*
X041444Y026643D02*
X039996Y026643D01*
X039996Y026802D02*
X041286Y026802D01*
X041127Y026960D02*
X039996Y026960D01*
X039996Y027119D02*
X040969Y027119D01*
X040810Y027277D02*
X039996Y027277D01*
X039996Y027436D02*
X040652Y027436D01*
X040493Y027594D02*
X039996Y027594D01*
X039996Y027753D02*
X040335Y027753D01*
X040176Y027911D02*
X039996Y027911D01*
X039996Y028070D02*
X040018Y028070D01*
X040295Y028387D02*
X052696Y028387D01*
X052696Y028545D02*
X040136Y028545D01*
X040239Y028704D02*
X052696Y028704D01*
X052696Y028228D02*
X040453Y028228D01*
X040612Y028070D02*
X052696Y028070D01*
X052696Y027911D02*
X040770Y027911D01*
X040929Y027753D02*
X052696Y027753D01*
X052696Y027594D02*
X041087Y027594D01*
X041246Y027436D02*
X052696Y027436D01*
X052696Y027277D02*
X041404Y027277D01*
X041563Y027119D02*
X052696Y027119D01*
X052696Y026960D02*
X041721Y026960D01*
X041880Y026802D02*
X052696Y026802D01*
X052696Y026643D02*
X042038Y026643D01*
X042197Y026485D02*
X052696Y026485D01*
X052696Y026326D02*
X042355Y026326D01*
X042514Y026168D02*
X052696Y026168D01*
X052696Y026009D02*
X042555Y026009D01*
X042555Y025851D02*
X052696Y025851D01*
X052696Y025692D02*
X042555Y025692D01*
X042555Y025534D02*
X052696Y025534D01*
X052696Y025375D02*
X042555Y025375D01*
X042555Y025217D02*
X052696Y025217D01*
X052696Y025058D02*
X042555Y025058D01*
X042555Y024900D02*
X052696Y024900D01*
X052696Y024741D02*
X042555Y024741D01*
X042555Y024583D02*
X052696Y024583D01*
X052696Y024424D02*
X042555Y024424D01*
X042555Y024266D02*
X052696Y024266D01*
X052696Y024107D02*
X042555Y024107D01*
X042555Y023949D02*
X052696Y023949D01*
X052696Y023790D02*
X042555Y023790D01*
X042555Y023632D02*
X052696Y023632D01*
X052696Y023473D02*
X042555Y023473D01*
X042555Y023315D02*
X052696Y023315D01*
X052696Y023156D02*
X042555Y023156D01*
X042555Y022998D02*
X052696Y022998D01*
X052696Y022839D02*
X042555Y022839D01*
X042555Y022681D02*
X052696Y022681D01*
X052696Y022522D02*
X042555Y022522D01*
X042555Y022364D02*
X050383Y022364D01*
X050313Y022335D02*
X050184Y022205D01*
X042555Y022205D01*
X042555Y022047D02*
X050118Y022047D01*
X050114Y022036D02*
X050114Y021853D01*
X050184Y021684D01*
X050313Y021555D01*
X050322Y021551D01*
X050313Y021547D01*
X050184Y021418D01*
X050114Y021249D01*
X050114Y021066D01*
X050184Y020897D01*
X050313Y020768D01*
X050322Y020764D01*
X050313Y020760D01*
X050184Y020631D01*
X050114Y020462D01*
X042555Y020462D01*
X042555Y020620D02*
X050179Y020620D01*
X050114Y020462D02*
X050114Y020279D01*
X050184Y020110D01*
X050313Y019980D01*
X050322Y019976D01*
X050313Y019973D01*
X050184Y019843D01*
X050114Y019674D01*
X050114Y019491D01*
X050184Y019322D01*
X050313Y019193D01*
X050322Y019189D01*
X050313Y019185D01*
X050184Y019056D01*
X050114Y018887D01*
X050114Y018704D01*
X050184Y018535D01*
X050313Y018405D01*
X050322Y018402D01*
X050313Y018398D01*
X050184Y018268D01*
X050114Y018099D01*
X050114Y017916D01*
X050184Y017747D01*
X050313Y017618D01*
X050322Y017614D01*
X050313Y017610D01*
X050184Y017481D01*
X050114Y017312D01*
X050114Y017129D01*
X050184Y016960D01*
X050313Y016831D01*
X050322Y016827D01*
X050313Y016823D01*
X050184Y016694D01*
X050114Y016525D01*
X050114Y016342D01*
X050184Y016173D01*
X050313Y016043D01*
X050322Y016039D01*
X050313Y016036D01*
X050184Y015906D01*
X050114Y015737D01*
X050114Y015554D01*
X050184Y015385D01*
X050313Y015256D01*
X050322Y015252D01*
X050313Y015248D01*
X050184Y015119D01*
X050114Y014950D01*
X050114Y014767D01*
X050184Y014598D01*
X050313Y014468D01*
X050184Y014597D02*
X042555Y014597D01*
X042555Y014756D02*
X050118Y014756D01*
X050114Y014914D02*
X042555Y014914D01*
X042555Y015073D02*
X050165Y015073D01*
X050296Y015231D02*
X042555Y015231D01*
X042555Y015390D02*
X050182Y015390D01*
X050116Y015548D02*
X042555Y015548D01*
X042555Y015707D02*
X050114Y015707D01*
X050167Y015865D02*
X042555Y015865D01*
X042555Y016024D02*
X050301Y016024D01*
X050180Y016182D02*
X042555Y016182D01*
X042555Y016341D02*
X050114Y016341D01*
X050114Y016499D02*
X042555Y016499D01*
X042555Y016658D02*
X050169Y016658D01*
X050306Y016816D02*
X042555Y016816D01*
X042555Y016975D02*
X050178Y016975D01*
X050114Y017133D02*
X042555Y017133D01*
X042555Y017292D02*
X050114Y017292D01*
X050171Y017450D02*
X042555Y017450D01*
X042555Y017609D02*
X050312Y017609D01*
X050175Y017767D02*
X042555Y017767D01*
X042555Y017926D02*
X050114Y017926D01*
X050114Y018084D02*
X042555Y018084D01*
X042555Y018243D02*
X050173Y018243D01*
X050322Y018401D02*
X042555Y018401D01*
X042555Y018560D02*
X050173Y018560D01*
X050114Y018718D02*
X042555Y018718D01*
X042555Y018877D02*
X050114Y018877D01*
X050175Y019035D02*
X042555Y019035D01*
X042555Y019194D02*
X050312Y019194D01*
X050171Y019352D02*
X042555Y019352D01*
X042555Y019511D02*
X050114Y019511D01*
X050114Y019669D02*
X042555Y019669D01*
X042555Y019828D02*
X050177Y019828D01*
X050307Y019986D02*
X042555Y019986D01*
X042555Y020145D02*
X050169Y020145D01*
X050114Y020303D02*
X042555Y020303D01*
X042555Y020779D02*
X050302Y020779D01*
X050167Y020937D02*
X042555Y020937D01*
X042555Y021096D02*
X050114Y021096D01*
X050116Y021254D02*
X042555Y021254D01*
X042555Y021413D02*
X050182Y021413D01*
X050297Y021571D02*
X042555Y021571D01*
X042555Y021730D02*
X050165Y021730D01*
X050114Y021888D02*
X042555Y021888D01*
X035767Y023949D02*
X035429Y023949D01*
X035429Y024107D02*
X035767Y024107D01*
X035767Y024266D02*
X035429Y024266D01*
X035429Y024424D02*
X035767Y024424D01*
X035767Y024583D02*
X035429Y024583D01*
X035429Y024741D02*
X035767Y024741D01*
X035767Y024900D02*
X035429Y024900D01*
X035429Y025058D02*
X035767Y025058D01*
X035767Y025217D02*
X035429Y025217D01*
X035429Y025375D02*
X035767Y025375D01*
X035767Y025534D02*
X035429Y025534D01*
X035429Y025692D02*
X035767Y025692D01*
X035767Y025851D02*
X035429Y025851D01*
X035429Y026009D02*
X035767Y026009D01*
X035767Y026168D02*
X035429Y026168D01*
X035429Y026326D02*
X035767Y026326D01*
X035767Y026485D02*
X035429Y026485D01*
X035429Y026643D02*
X035767Y026643D01*
X035767Y026802D02*
X035429Y026802D01*
X035429Y026960D02*
X035767Y026960D01*
X035767Y027119D02*
X035429Y027119D01*
X035429Y027277D02*
X035767Y027277D01*
X035767Y027436D02*
X035429Y027436D01*
X035429Y027594D02*
X035767Y027594D01*
X035767Y027753D02*
X035429Y027753D01*
X035429Y027911D02*
X035767Y027911D01*
X035767Y028070D02*
X035429Y028070D01*
X035429Y028228D02*
X035767Y028228D01*
X035767Y028387D02*
X035429Y028387D01*
X035429Y028545D02*
X035767Y028545D01*
X035712Y028704D02*
X035429Y028704D01*
X035429Y028862D02*
X035649Y028862D01*
X035649Y029021D02*
X035429Y029021D01*
X035429Y029179D02*
X035649Y029179D01*
X035691Y029338D02*
X035429Y029338D01*
X033258Y029338D02*
X032988Y029338D01*
X032988Y029496D02*
X033099Y029496D01*
X032568Y029496D02*
X032162Y029496D01*
X032162Y029338D02*
X032568Y029338D01*
X032568Y029179D02*
X032162Y029179D01*
X032162Y029021D02*
X032568Y029021D01*
X032568Y028862D02*
X032080Y028862D01*
X031921Y028704D02*
X032568Y028704D01*
X032568Y028545D02*
X029503Y028545D01*
X029662Y028387D02*
X032568Y028387D01*
X032568Y028228D02*
X029820Y028228D01*
X029979Y028070D02*
X032568Y028070D01*
X032568Y027911D02*
X030137Y027911D01*
X030296Y027753D02*
X032568Y027753D01*
X032568Y027594D02*
X030454Y027594D01*
X030613Y027436D02*
X032568Y027436D01*
X032568Y027277D02*
X030771Y027277D01*
X031142Y027119D02*
X032568Y027119D01*
X032568Y026960D02*
X031262Y026960D01*
X031290Y026802D02*
X032568Y026802D01*
X032568Y026643D02*
X031246Y026643D01*
X031057Y026485D02*
X032568Y026485D01*
X032568Y025692D02*
X030459Y025692D01*
X030459Y025534D02*
X032568Y025534D01*
X032568Y025375D02*
X030553Y025375D01*
X030712Y025217D02*
X032568Y025217D01*
X032568Y025058D02*
X030870Y025058D01*
X031029Y024900D02*
X032568Y024900D01*
X032568Y024741D02*
X031187Y024741D01*
X031346Y024583D02*
X032568Y024583D01*
X032568Y024424D02*
X031504Y024424D01*
X031663Y024266D02*
X032568Y024266D01*
X032568Y024107D02*
X031821Y024107D01*
X031980Y023949D02*
X032568Y023949D01*
X032568Y023790D02*
X032422Y023790D01*
X032428Y023632D02*
X032568Y023632D01*
X032568Y023473D02*
X032428Y023473D01*
X032428Y023315D02*
X032568Y023315D01*
X032568Y023156D02*
X032140Y023156D01*
X032298Y022998D02*
X032568Y022998D01*
X032070Y023520D02*
X030101Y025488D01*
X032428Y021730D02*
X032542Y021730D01*
X031744Y021254D02*
X027868Y021254D01*
X035429Y023632D02*
X035649Y023632D01*
X035655Y023790D02*
X035429Y023790D01*
X032568Y029655D02*
X032162Y029655D01*
X032162Y029813D02*
X032516Y029813D01*
X032358Y029972D02*
X032258Y029972D01*
X032420Y031557D02*
X032704Y031557D01*
X032070Y031827D02*
X030781Y031827D01*
X030739Y031869D01*
X030269Y032191D02*
X029816Y032191D01*
X030020Y032349D02*
X030282Y032349D01*
X030289Y032508D02*
X030068Y032508D01*
X030136Y032666D02*
X030289Y032666D01*
X021853Y036946D02*
X021032Y036946D01*
X020874Y036787D02*
X021695Y036787D01*
X021536Y036629D02*
X020715Y036629D01*
X020557Y036470D02*
X021378Y036470D01*
X021219Y036312D02*
X020398Y036312D01*
X020240Y036153D02*
X021061Y036153D01*
X020902Y035995D02*
X020081Y035995D01*
X019923Y035836D02*
X020744Y035836D01*
X020585Y035678D02*
X019764Y035678D01*
X019606Y035519D02*
X020427Y035519D01*
X020268Y035361D02*
X019447Y035361D01*
X019289Y035202D02*
X020110Y035202D01*
X019951Y035044D02*
X019130Y035044D01*
X018972Y034885D02*
X019793Y034885D01*
X019634Y034727D02*
X018813Y034727D01*
X018655Y034568D02*
X019476Y034568D01*
X019317Y034410D02*
X018496Y034410D01*
X018338Y034251D02*
X019159Y034251D01*
X019000Y034093D02*
X018179Y034093D01*
X018021Y033934D02*
X018842Y033934D01*
X018683Y033776D02*
X017862Y033776D01*
X017704Y033617D02*
X018525Y033617D01*
X018366Y033459D02*
X017545Y033459D01*
X017387Y033300D02*
X018208Y033300D01*
X018049Y033142D02*
X017228Y033142D01*
X017070Y032983D02*
X017891Y032983D01*
X017732Y032825D02*
X016911Y032825D01*
X016086Y034858D02*
X010989Y034858D01*
X010985Y034862D01*
X008208Y034251D02*
X008072Y034251D01*
X008145Y034093D02*
X008208Y034093D01*
X008208Y033934D02*
X008145Y033934D01*
X008145Y033776D02*
X008208Y033776D01*
X008208Y033617D02*
X008145Y033617D01*
X008208Y033459D02*
X008058Y033459D01*
X012353Y039340D02*
X012394Y039317D01*
X012440Y039304D01*
X012701Y039304D01*
X012701Y040096D01*
X012283Y040096D01*
X012283Y039461D01*
X012296Y039415D01*
X012319Y039374D01*
X012353Y039340D01*
X012382Y039323D02*
X002602Y039323D01*
X002761Y039482D02*
X012283Y039482D01*
X012283Y039640D02*
X002919Y039640D01*
X003078Y039799D02*
X012283Y039799D01*
X012283Y039957D02*
X003236Y039957D01*
X003395Y040116D02*
X012701Y040116D01*
X012701Y040096D02*
X012701Y040251D01*
X012701Y041042D01*
X012440Y041042D01*
X012394Y041030D01*
X012353Y041006D01*
X012319Y040973D01*
X012296Y040932D01*
X012283Y040886D01*
X012283Y040251D01*
X012701Y040251D01*
X012856Y040251D01*
X012856Y041042D01*
X013117Y041042D01*
X013163Y041030D01*
X013204Y041006D01*
X013237Y040973D01*
X013261Y040932D01*
X013273Y040886D01*
X013273Y040251D01*
X012856Y040251D01*
X012856Y040096D01*
X013273Y040096D01*
X013273Y039461D01*
X013261Y039415D01*
X013237Y039374D01*
X013204Y039340D01*
X013163Y039317D01*
X013117Y039304D01*
X012856Y039304D01*
X012856Y040096D01*
X012701Y040096D01*
X012701Y039957D02*
X012856Y039957D01*
X012856Y039799D02*
X012701Y039799D01*
X012701Y039640D02*
X012856Y039640D01*
X012856Y039482D02*
X012701Y039482D01*
X012701Y039323D02*
X012856Y039323D01*
X013175Y039323D02*
X016319Y039323D01*
X016220Y039482D02*
X013273Y039482D01*
X013273Y039640D02*
X016220Y039640D01*
X016220Y039799D02*
X013273Y039799D01*
X013273Y039957D02*
X016220Y039957D01*
X016220Y040274D02*
X013273Y040274D01*
X013273Y040433D02*
X016220Y040433D01*
X016220Y040591D02*
X015105Y040591D01*
X015094Y040580D02*
X015127Y040614D01*
X015151Y040655D01*
X015163Y040701D01*
X015163Y040882D01*
X015163Y041063D01*
X015151Y041109D01*
X015127Y041150D01*
X015094Y041183D01*
X015053Y041207D01*
X015007Y041219D01*
X014747Y041219D01*
X014747Y040882D01*
X014747Y040882D01*
X015163Y040882D01*
X014747Y040882D01*
X014747Y040882D01*
X014747Y041219D01*
X014487Y041219D01*
X014441Y041207D01*
X014400Y041183D01*
X014367Y041150D01*
X014343Y041109D01*
X014331Y041063D01*
X014331Y040882D01*
X014747Y040882D01*
X014747Y040882D01*
X014747Y040544D01*
X015007Y040544D01*
X015053Y040557D01*
X015094Y040580D01*
X015163Y040750D02*
X016220Y040750D01*
X016227Y040908D02*
X015163Y040908D01*
X015162Y041067D02*
X020256Y041067D01*
X020256Y041225D02*
X004504Y041225D01*
X004346Y041067D02*
X014332Y041067D01*
X014331Y040908D02*
X013267Y040908D01*
X013273Y040750D02*
X014331Y040750D01*
X014331Y040701D02*
X014343Y040655D01*
X014367Y040614D01*
X014400Y040580D01*
X014441Y040557D01*
X014487Y040544D01*
X014747Y040544D01*
X014747Y040882D01*
X014747Y040882D01*
X014331Y040882D01*
X014331Y040701D01*
X014389Y040591D02*
X013273Y040591D01*
X012856Y040591D02*
X012701Y040591D01*
X012701Y040433D02*
X012856Y040433D01*
X012856Y040274D02*
X012701Y040274D01*
X012856Y040116D02*
X016638Y040116D01*
X016793Y040116D02*
X022839Y040116D01*
X022974Y041542D02*
X024236Y041542D01*
X024287Y041667D02*
X024193Y041760D01*
X024193Y042208D01*
X024287Y042302D01*
X024470Y042302D01*
X024470Y043005D01*
X024248Y043005D01*
X024154Y043099D01*
X024154Y043704D01*
X024248Y043798D01*
X024931Y043798D01*
X025025Y043704D01*
X025025Y043099D01*
X024931Y043005D01*
X024890Y043005D01*
X024890Y042302D01*
X024892Y042302D01*
X024986Y042208D01*
X024986Y041760D01*
X024892Y041667D01*
X024287Y041667D01*
X024253Y041701D02*
X022958Y041701D01*
X023017Y041859D02*
X024193Y041859D01*
X024193Y042018D02*
X023017Y042018D01*
X023017Y042176D02*
X024193Y042176D01*
X024470Y042335D02*
X022890Y042335D01*
X022890Y042493D02*
X024470Y042493D01*
X024470Y042652D02*
X022890Y042652D01*
X022890Y042810D02*
X024470Y042810D01*
X024470Y042969D02*
X022890Y042969D01*
X023057Y043127D02*
X024154Y043127D01*
X024154Y043286D02*
X023057Y043286D01*
X023057Y043444D02*
X024154Y043444D01*
X024154Y043603D02*
X023057Y043603D01*
X022999Y043761D02*
X024211Y043761D01*
X024169Y044237D02*
X023041Y044237D01*
X023077Y044395D02*
X024134Y044395D01*
X024134Y044712D02*
X023077Y044712D01*
X023069Y044871D02*
X024141Y044871D01*
X024551Y044871D02*
X024628Y044871D01*
X024628Y044712D02*
X024551Y044712D01*
X024551Y044395D02*
X024628Y044395D01*
X024628Y044237D02*
X024551Y044237D01*
X025010Y044237D02*
X026138Y044237D01*
X026102Y044395D02*
X025045Y044395D01*
X025045Y044712D02*
X026102Y044712D01*
X026110Y044871D02*
X025037Y044871D01*
X024968Y043761D02*
X026180Y043761D01*
X026122Y043603D02*
X025025Y043603D01*
X025025Y043444D02*
X026122Y043444D01*
X026122Y043286D02*
X025025Y043286D01*
X025025Y043127D02*
X026122Y043127D01*
X026345Y042969D02*
X024890Y042969D01*
X024890Y042810D02*
X026345Y042810D01*
X026345Y042652D02*
X024890Y042652D01*
X024890Y042493D02*
X026345Y042493D01*
X026345Y042335D02*
X024890Y042335D01*
X024986Y042176D02*
X026162Y042176D01*
X026162Y042018D02*
X024986Y042018D01*
X024986Y041859D02*
X026162Y041859D01*
X026221Y041701D02*
X024926Y041701D01*
X024943Y041542D02*
X026205Y041542D01*
X026162Y041384D02*
X024986Y041384D01*
X024986Y041225D02*
X026162Y041225D01*
X026162Y041067D02*
X025107Y041067D01*
X025265Y040908D02*
X026470Y040908D01*
X026470Y040750D02*
X025424Y040750D01*
X025582Y040591D02*
X026470Y040591D01*
X026470Y040433D02*
X025741Y040433D01*
X025899Y040274D02*
X026470Y040274D01*
X026470Y040116D02*
X026058Y040116D01*
X026216Y039957D02*
X026470Y039957D01*
X026470Y039799D02*
X026375Y039799D01*
X024193Y041384D02*
X024165Y041384D01*
X022659Y044237D02*
X022583Y044237D01*
X022583Y044395D02*
X022659Y044395D01*
X022659Y044712D02*
X022583Y044712D01*
X022583Y044871D02*
X022659Y044871D01*
X020691Y044395D02*
X020614Y044395D01*
X020614Y044237D02*
X020691Y044237D01*
X020614Y044554D02*
X019112Y044554D01*
X019159Y044395D02*
X020197Y044395D01*
X020232Y044237D02*
X019159Y044237D01*
X019002Y044712D02*
X020197Y044712D01*
X020204Y044871D02*
X017943Y044871D01*
X018088Y044712D02*
X018256Y044712D01*
X018162Y044078D02*
X018021Y044078D01*
X017768Y043920D02*
X018295Y043920D01*
X018631Y043444D02*
X020217Y043444D01*
X020217Y043286D02*
X018686Y043286D01*
X018686Y043127D02*
X020217Y043127D01*
X020470Y042969D02*
X018686Y042969D01*
X018596Y042782D02*
X018550Y042794D01*
X018290Y042794D01*
X018030Y042794D01*
X017985Y042782D01*
X017943Y042758D01*
X017910Y042725D01*
X017886Y042684D01*
X017874Y042638D01*
X017874Y042457D01*
X018290Y042457D01*
X018290Y042794D01*
X018290Y042457D01*
X018290Y042457D01*
X018290Y042457D01*
X017874Y042457D01*
X017874Y042276D01*
X017886Y042230D01*
X017910Y042189D01*
X017943Y042155D01*
X017985Y042131D01*
X018030Y042119D01*
X018290Y042119D01*
X018290Y042457D01*
X018706Y042457D01*
X018706Y042638D01*
X018694Y042684D01*
X018670Y042725D01*
X018637Y042758D01*
X018596Y042782D01*
X018703Y042652D02*
X020470Y042652D01*
X020470Y042810D02*
X017190Y042810D01*
X017190Y042652D02*
X017878Y042652D01*
X017874Y042493D02*
X017190Y042493D01*
X017190Y042335D02*
X017874Y042335D01*
X017922Y042176D02*
X017190Y042176D01*
X017190Y042018D02*
X020256Y042018D01*
X020256Y042176D02*
X018658Y042176D01*
X018670Y042189D02*
X018694Y042230D01*
X018706Y042276D01*
X018706Y042457D01*
X018290Y042457D01*
X018290Y042457D01*
X018290Y042457D01*
X018290Y042119D01*
X018550Y042119D01*
X018596Y042131D01*
X018637Y042155D01*
X018670Y042189D01*
X018706Y042335D02*
X020470Y042335D01*
X020470Y042493D02*
X018706Y042493D01*
X018290Y042493D02*
X018290Y042493D01*
X018290Y042335D02*
X018290Y042335D01*
X018290Y042176D02*
X018290Y042176D01*
X018290Y042652D02*
X018290Y042652D01*
X017949Y043444D02*
X016241Y043444D01*
X016105Y043603D02*
X020217Y043603D01*
X020274Y043761D02*
X015237Y043761D01*
X015237Y043920D02*
X015489Y043920D01*
X015768Y043920D02*
X016295Y043920D01*
X016162Y044078D02*
X016021Y044078D01*
X016088Y044712D02*
X016256Y044712D01*
X015943Y044871D02*
X017314Y044871D01*
X017170Y044712D02*
X017002Y044712D01*
X017096Y044078D02*
X017237Y044078D01*
X017489Y043920D02*
X016962Y043920D01*
X016240Y042810D02*
X016109Y042810D01*
X016240Y042652D02*
X014977Y042652D01*
X014977Y042493D02*
X016240Y042493D01*
X016240Y042335D02*
X014977Y042335D01*
X014977Y042176D02*
X016240Y042176D01*
X016240Y042018D02*
X014977Y042018D01*
X015098Y041859D02*
X016240Y041859D01*
X016240Y041701D02*
X015143Y041701D01*
X015143Y041542D02*
X016242Y041542D01*
X016638Y040908D02*
X016793Y040908D01*
X016793Y040750D02*
X016638Y040750D01*
X016638Y040591D02*
X016793Y040591D01*
X016793Y040433D02*
X016638Y040433D01*
X016638Y040274D02*
X016793Y040274D01*
X016793Y039957D02*
X016638Y039957D01*
X016638Y039799D02*
X016793Y039799D01*
X016793Y039640D02*
X016638Y039640D01*
X016638Y039482D02*
X016793Y039482D01*
X016793Y039323D02*
X016638Y039323D01*
X014747Y040591D02*
X014747Y040591D01*
X014747Y040750D02*
X014747Y040750D01*
X014747Y040908D02*
X014747Y040908D01*
X014747Y041067D02*
X014747Y041067D01*
X015143Y041384D02*
X020256Y041384D01*
X020299Y041542D02*
X017189Y041542D01*
X017190Y041701D02*
X020316Y041701D01*
X020256Y041859D02*
X017190Y041859D01*
X014557Y042018D02*
X013253Y042018D01*
X013258Y042176D02*
X014557Y042176D01*
X014557Y042335D02*
X013268Y042335D01*
X013253Y042493D02*
X014557Y042493D01*
X014557Y042652D02*
X013253Y042652D01*
X013253Y042810D02*
X014448Y042810D01*
X014314Y042969D02*
X013253Y042969D01*
X013180Y043127D02*
X014257Y043127D01*
X014257Y043286D02*
X013119Y043286D01*
X013119Y043444D02*
X014257Y043444D01*
X014257Y043603D02*
X013119Y043603D01*
X013119Y043761D02*
X014257Y043761D01*
X014257Y043920D02*
X013768Y043920D01*
X013489Y043920D02*
X013119Y043920D01*
X013119Y044078D02*
X013237Y044078D01*
X013170Y044712D02*
X013045Y044712D01*
X012859Y044871D02*
X013314Y044871D01*
X014859Y044871D02*
X015314Y044871D01*
X015170Y044712D02*
X015063Y044712D01*
X012139Y042652D02*
X012092Y042652D01*
X012139Y042493D02*
X011933Y042493D01*
X011775Y042335D02*
X012146Y042335D01*
X012211Y042176D02*
X011616Y042176D01*
X011458Y042018D02*
X012303Y042018D01*
X012303Y041859D02*
X009828Y041859D01*
X009828Y041839D02*
X009828Y042182D01*
X010118Y042472D01*
X010118Y042417D01*
X010118Y042157D01*
X010130Y042112D01*
X010154Y042071D01*
X010188Y042037D01*
X010229Y042013D01*
X010274Y042001D01*
X010456Y042001D01*
X010456Y042417D01*
X010456Y042417D01*
X010456Y042417D01*
X010118Y042417D01*
X010456Y042417D01*
X010456Y042417D01*
X010456Y042834D01*
X010451Y042834D01*
X010461Y042858D01*
X010461Y043001D01*
X010406Y043133D01*
X010305Y043234D01*
X010173Y043289D01*
X010030Y043289D01*
X009897Y043234D01*
X009796Y043133D01*
X009773Y043077D01*
X009738Y043097D01*
X009692Y043109D01*
X009432Y043109D01*
X009432Y042772D01*
X009432Y042772D01*
X009432Y043109D01*
X009172Y043109D01*
X009126Y043097D01*
X009085Y043073D01*
X009052Y043040D01*
X009028Y042999D01*
X009016Y042953D01*
X009016Y042772D01*
X009432Y042772D01*
X009432Y042772D01*
X009016Y042772D01*
X009016Y042590D01*
X009028Y042545D01*
X009052Y042504D01*
X009085Y042470D01*
X009126Y042446D01*
X009172Y042434D01*
X009432Y042434D01*
X009486Y042434D01*
X009433Y042380D01*
X009129Y042380D01*
X009036Y042287D01*
X009036Y041839D01*
X009129Y041746D01*
X009734Y041746D01*
X009828Y041839D01*
X009828Y042018D02*
X010221Y042018D01*
X010118Y042176D02*
X009828Y042176D01*
X009981Y042335D02*
X010118Y042335D01*
X010456Y042335D02*
X010456Y042335D01*
X010456Y042493D02*
X010456Y042493D01*
X010456Y042652D02*
X010456Y042652D01*
X010456Y042810D02*
X010456Y042810D01*
X010461Y042969D02*
X011023Y042969D01*
X011181Y043127D02*
X010409Y043127D01*
X010181Y043286D02*
X011340Y043286D01*
X011498Y043444D02*
X006723Y043444D01*
X006565Y043286D02*
X010022Y043286D01*
X009794Y043127D02*
X006406Y043127D01*
X006248Y042969D02*
X009020Y042969D01*
X009016Y042810D02*
X006089Y042810D01*
X005931Y042652D02*
X009016Y042652D01*
X009062Y042493D02*
X005772Y042493D01*
X005614Y042335D02*
X009084Y042335D01*
X009036Y042176D02*
X005455Y042176D01*
X005297Y042018D02*
X009036Y042018D01*
X009036Y041859D02*
X005138Y041859D01*
X004980Y041701D02*
X012303Y041701D01*
X012305Y041542D02*
X004821Y041542D01*
X004663Y041384D02*
X014351Y041384D01*
X014351Y041542D02*
X013252Y041542D01*
X013253Y041701D02*
X014351Y041701D01*
X014396Y041859D02*
X013253Y041859D01*
X012856Y040908D02*
X012701Y040908D01*
X012701Y040750D02*
X012856Y040750D01*
X012283Y040750D02*
X004029Y040750D01*
X004187Y040908D02*
X012289Y040908D01*
X012283Y040591D02*
X003870Y040591D01*
X003712Y040433D02*
X012283Y040433D01*
X012283Y040274D02*
X003553Y040274D01*
X006882Y043603D02*
X011501Y043603D01*
X011501Y043761D02*
X007040Y043761D01*
X007199Y043920D02*
X009437Y043920D01*
X009418Y043926D02*
X009500Y043899D01*
X009586Y043886D01*
X009609Y043886D01*
X009609Y044416D01*
X009079Y044416D01*
X009079Y044393D01*
X009092Y044307D01*
X009119Y044225D01*
X009158Y044148D01*
X009209Y044078D01*
X007357Y044078D01*
X007516Y044237D02*
X009115Y044237D01*
X009079Y044395D02*
X007674Y044395D01*
X007833Y044554D02*
X009091Y044554D01*
X009152Y044712D02*
X007991Y044712D01*
X008150Y044871D02*
X009292Y044871D01*
X009609Y044871D02*
X009649Y044871D01*
X009649Y044712D02*
X009609Y044712D01*
X009609Y044554D02*
X009649Y044554D01*
X009649Y044395D02*
X009609Y044395D01*
X009609Y044237D02*
X009649Y044237D01*
X009649Y044078D02*
X009609Y044078D01*
X009609Y043920D02*
X009649Y043920D01*
X009821Y043920D02*
X010267Y043920D01*
X010143Y044078D02*
X010049Y044078D01*
X010609Y044078D02*
X010649Y044078D01*
X010649Y043920D02*
X010609Y043920D01*
X010609Y044237D02*
X010649Y044237D01*
X010649Y044395D02*
X010609Y044395D01*
X010609Y044554D02*
X010649Y044554D01*
X010649Y044712D02*
X010609Y044712D01*
X010609Y044871D02*
X010649Y044871D01*
X010762Y044871D02*
X011314Y044871D01*
X011170Y044712D02*
X011030Y044712D01*
X010496Y044871D02*
X009966Y044871D01*
X010105Y044712D02*
X010228Y044712D01*
X009271Y044016D02*
X009209Y044078D01*
X009271Y044016D02*
X009341Y043965D01*
X009418Y043926D01*
X009432Y042969D02*
X009432Y042969D01*
X009432Y042810D02*
X009432Y042810D01*
X009432Y042772D02*
X009432Y042434D01*
X009432Y042772D01*
X009432Y042772D01*
X009432Y042652D02*
X009432Y042652D01*
X009432Y042493D02*
X009432Y042493D01*
X010456Y042176D02*
X010456Y042176D01*
X010456Y042018D02*
X010456Y042018D01*
X010690Y042018D02*
X010871Y042018D01*
X010864Y042810D02*
X010701Y042810D01*
X010991Y043920D02*
X011489Y043920D01*
X011237Y044078D02*
X011115Y044078D01*
X026520Y044237D02*
X026596Y044237D01*
X026596Y044395D02*
X026520Y044395D01*
X026520Y044712D02*
X026596Y044712D01*
X026596Y044871D02*
X026520Y044871D01*
X030457Y044871D02*
X030533Y044871D01*
X030533Y044712D02*
X030457Y044712D01*
X030457Y044395D02*
X030533Y044395D01*
X030533Y044237D02*
X030457Y044237D01*
X038515Y043920D02*
X038655Y043920D01*
X038515Y043761D02*
X039175Y043761D01*
X039015Y043920D02*
X038934Y043920D01*
X040128Y043920D02*
X040655Y043920D01*
X040402Y044078D02*
X040261Y044078D01*
X041461Y043603D02*
X048596Y043603D01*
X048438Y043761D02*
X044419Y043761D01*
X044578Y043920D02*
X044655Y043920D01*
X044934Y043920D02*
X045461Y043920D01*
X045327Y044078D02*
X045186Y044078D01*
X045543Y044871D02*
X047328Y044871D01*
X047487Y044712D02*
X046167Y044712D01*
X046278Y044554D02*
X047645Y044554D01*
X047804Y044395D02*
X046324Y044395D01*
X046324Y044237D02*
X047962Y044237D01*
X048121Y044078D02*
X046261Y044078D01*
X046128Y043920D02*
X048279Y043920D01*
X053127Y029179D02*
X054738Y029179D01*
X054738Y029021D02*
X053176Y029021D01*
X053176Y028862D02*
X054738Y028862D01*
X054738Y028704D02*
X053176Y028704D01*
X053176Y028545D02*
X054738Y028545D01*
X054738Y028387D02*
X053176Y028387D01*
X053176Y028228D02*
X054738Y028228D01*
X054738Y028070D02*
X053176Y028070D01*
X053176Y027911D02*
X054738Y027911D01*
X054738Y027753D02*
X053176Y027753D01*
X053176Y027594D02*
X054738Y027594D01*
X054738Y027436D02*
X053176Y027436D01*
X053176Y027277D02*
X054738Y027277D01*
X054738Y027119D02*
X053176Y027119D01*
X053176Y026960D02*
X054738Y026960D01*
X054738Y026802D02*
X053176Y026802D01*
X053176Y026643D02*
X054738Y026643D01*
X054738Y026485D02*
X053176Y026485D01*
X053176Y026326D02*
X054738Y026326D01*
X054738Y026168D02*
X053176Y026168D01*
X053176Y026009D02*
X054738Y026009D01*
X054738Y025851D02*
X053176Y025851D01*
X053176Y025692D02*
X054738Y025692D01*
X054738Y025534D02*
X053176Y025534D01*
X053176Y025375D02*
X054738Y025375D01*
X054738Y025217D02*
X053176Y025217D01*
X053176Y025058D02*
X054738Y025058D01*
X054738Y024900D02*
X053176Y024900D01*
X053176Y024741D02*
X054738Y024741D01*
X054738Y024583D02*
X053176Y024583D01*
X053176Y024424D02*
X054738Y024424D01*
X054738Y024266D02*
X053176Y024266D01*
X053176Y024107D02*
X054738Y024107D01*
X054738Y023949D02*
X053176Y023949D01*
X053176Y023790D02*
X054738Y023790D01*
X054738Y023632D02*
X053176Y023632D01*
X053176Y023473D02*
X054738Y023473D01*
X054738Y023315D02*
X053176Y023315D01*
X053176Y023156D02*
X054738Y023156D01*
X054738Y022998D02*
X053176Y022998D01*
X053176Y022839D02*
X054738Y022839D01*
X054738Y022681D02*
X053176Y022681D01*
X053176Y022522D02*
X054738Y022522D01*
X054738Y022364D02*
X053176Y022364D01*
X053176Y022205D02*
X054738Y022205D01*
X054738Y022047D02*
X053176Y022047D01*
X053176Y021888D02*
X054738Y021888D01*
X054738Y021730D02*
X053176Y021730D01*
X053176Y021571D02*
X054738Y021571D01*
X054738Y021413D02*
X053176Y021413D01*
X053176Y021254D02*
X054738Y021254D01*
X054738Y021096D02*
X053176Y021096D01*
X053176Y020937D02*
X054738Y020937D01*
X054738Y020779D02*
X053176Y020779D01*
X053176Y020620D02*
X054738Y020620D01*
X054738Y020462D02*
X053176Y020462D01*
X053176Y020303D02*
X054738Y020303D01*
X054738Y020145D02*
X053176Y020145D01*
X053176Y019986D02*
X054738Y019986D01*
X054738Y019828D02*
X053176Y019828D01*
X053176Y019669D02*
X054738Y019669D01*
X054738Y019511D02*
X053176Y019511D01*
X053176Y019352D02*
X054738Y019352D01*
X054738Y019194D02*
X053176Y019194D01*
X053176Y019035D02*
X054738Y019035D01*
X054738Y018877D02*
X053176Y018877D01*
X053176Y018718D02*
X054738Y018718D01*
X054738Y018560D02*
X053176Y018560D01*
X053176Y018401D02*
X054738Y018401D01*
X054738Y018243D02*
X053176Y018243D01*
X053176Y018084D02*
X054738Y018084D01*
X054738Y017926D02*
X053176Y017926D01*
X053176Y017767D02*
X054738Y017767D01*
X054738Y017609D02*
X053176Y017609D01*
X053176Y017450D02*
X054738Y017450D01*
X054738Y017292D02*
X053176Y017292D01*
X053176Y017133D02*
X054738Y017133D01*
X054738Y016975D02*
X053176Y016975D01*
X053176Y016816D02*
X054738Y016816D01*
X054738Y016658D02*
X053176Y016658D01*
X053176Y016499D02*
X054738Y016499D01*
X054738Y016341D02*
X053176Y016341D01*
X053176Y016182D02*
X054738Y016182D01*
X054738Y016024D02*
X053176Y016024D01*
X053176Y015865D02*
X054738Y015865D01*
X054738Y015707D02*
X053176Y015707D01*
X053155Y015548D02*
X054738Y015548D01*
X054738Y015390D02*
X050966Y015390D01*
X050851Y015231D02*
X054738Y015231D01*
X054738Y015073D02*
X050983Y015073D01*
X051034Y014914D02*
X054738Y014914D01*
X054738Y014756D02*
X051029Y014756D01*
X050963Y014597D02*
X054738Y014597D01*
X054738Y014439D02*
X050763Y014439D01*
X054738Y007623D02*
X046245Y007623D01*
X046311Y007465D02*
X054738Y007465D01*
X054738Y007306D02*
X046324Y007306D01*
X046293Y007148D02*
X054738Y007148D01*
X054738Y006989D02*
X046205Y006989D01*
X045979Y006831D02*
X054738Y006831D01*
X041912Y014858D02*
X041912Y014858D01*
X050114Y022036D02*
X050184Y022205D01*
X050313Y022335D02*
X050482Y022405D01*
X050665Y022405D01*
X050834Y022335D01*
X050964Y022205D01*
X050764Y022364D02*
X052696Y022364D01*
X010623Y018877D02*
X009858Y018877D01*
X009217Y022091D02*
X008883Y022091D01*
X006004Y021730D02*
X005980Y021730D01*
D11*
X009629Y007428D03*
X010629Y007328D03*
X011629Y007428D03*
X012629Y007328D03*
X013629Y007428D03*
X014629Y007328D03*
X015629Y007428D03*
X016629Y007328D03*
X017629Y007428D03*
X018629Y007328D03*
X036794Y007428D03*
X037794Y007328D03*
X038794Y007428D03*
X039794Y007328D03*
X040794Y007428D03*
X041794Y007328D03*
X042794Y007428D03*
X043794Y007328D03*
X044794Y007428D03*
X045794Y007328D03*
X045794Y044336D03*
X044794Y044436D03*
X043794Y044336D03*
X042794Y044436D03*
X041794Y044336D03*
X040794Y044436D03*
X039794Y044336D03*
X038794Y044436D03*
X037794Y044336D03*
X036794Y044436D03*
X018629Y044336D03*
X017629Y044436D03*
X016629Y044336D03*
X015629Y044436D03*
X014629Y044336D03*
X013629Y044436D03*
X012629Y044336D03*
X011629Y044436D03*
X010629Y044336D03*
X009629Y044436D03*
D12*
X009432Y042772D03*
X009432Y042063D03*
X014747Y041591D03*
X014747Y040882D03*
X018290Y042457D03*
X018290Y043165D03*
X020652Y041984D03*
X020652Y041276D03*
X022621Y041276D03*
X022621Y041984D03*
X024589Y041984D03*
X024589Y041276D03*
X026558Y041276D03*
X026558Y041984D03*
X028526Y041984D03*
X028526Y041276D03*
X030495Y041276D03*
X030495Y041984D03*
X032463Y041984D03*
X032463Y041276D03*
X034432Y041276D03*
X034432Y041984D03*
X037188Y042063D03*
X037188Y042772D03*
X038369Y041197D03*
X038369Y040488D03*
X039550Y042063D03*
X039550Y042772D03*
X033054Y032535D03*
X033054Y031827D03*
X032070Y031827D03*
X032070Y032535D03*
X022227Y032220D03*
X022227Y032929D03*
X022227Y031354D03*
X022227Y030646D03*
X022227Y029780D03*
X022227Y029071D03*
X010967Y036394D03*
X010967Y037102D03*
X009865Y037102D03*
X009865Y036394D03*
X008763Y036394D03*
X008763Y037102D03*
X007660Y037102D03*
X007660Y036394D03*
X007542Y027654D03*
X007542Y026945D03*
X008802Y026945D03*
X008802Y027654D03*
X006204Y027654D03*
X006204Y026945D03*
X004865Y026945D03*
X004865Y027654D03*
D13*
X005320Y025020D03*
X005320Y024020D03*
X005320Y023020D03*
X005320Y022020D03*
X008820Y022020D03*
X008820Y023020D03*
X008820Y024020D03*
X008820Y025020D03*
X007485Y031862D03*
X007485Y032862D03*
X007485Y033862D03*
X007485Y034862D03*
X010985Y034862D03*
X010985Y033862D03*
X010985Y032862D03*
X010985Y031862D03*
D14*
X041912Y021945D03*
X041912Y021157D03*
X041912Y020370D03*
X041912Y019583D03*
X041912Y018795D03*
X041912Y018008D03*
X041912Y017220D03*
X041912Y016433D03*
X041912Y015646D03*
X041912Y014858D03*
X050574Y014858D03*
X050574Y015646D03*
X050574Y016433D03*
X050574Y017220D03*
X050574Y018008D03*
X050574Y018795D03*
X050574Y019583D03*
X050574Y020370D03*
X050574Y021157D03*
X050574Y021945D03*
D15*
X034432Y043402D03*
X034432Y044583D03*
X032463Y044583D03*
X032463Y043402D03*
X030495Y043402D03*
X030495Y044583D03*
X028526Y044583D03*
X028526Y043402D03*
X026558Y043402D03*
X026558Y044583D03*
X024589Y044583D03*
X024589Y043402D03*
X022621Y043402D03*
X022621Y044583D03*
X020652Y044583D03*
X020652Y043402D03*
D16*
X025379Y035969D03*
X025689Y035969D03*
X026009Y035969D03*
X026319Y035969D03*
X026639Y035969D03*
X026949Y035969D03*
X027269Y035969D03*
X027579Y035969D03*
X027899Y035969D03*
X028209Y035969D03*
X028529Y035969D03*
X028839Y035969D03*
X029159Y035969D03*
X029469Y035969D03*
X029789Y035969D03*
X030099Y035969D03*
X030099Y029969D03*
X029789Y029969D03*
X029469Y029969D03*
X029159Y029969D03*
X028839Y029969D03*
X028529Y029969D03*
X028209Y029969D03*
X027899Y029969D03*
X027579Y029969D03*
X027269Y029969D03*
X026949Y029969D03*
X026639Y029969D03*
X026319Y029969D03*
X026009Y029969D03*
X025689Y029969D03*
X025379Y029969D03*
D17*
X024739Y030609D03*
X024739Y030919D03*
X024739Y031239D03*
X024739Y031549D03*
X024739Y031869D03*
X024739Y032179D03*
X024739Y032499D03*
X024739Y032809D03*
X024739Y033129D03*
X024739Y033439D03*
X024739Y033759D03*
X024739Y034069D03*
X024739Y034389D03*
X024739Y034699D03*
X024739Y035019D03*
X024739Y035329D03*
X030739Y035329D03*
X030739Y035019D03*
X030739Y034699D03*
X030739Y034389D03*
X030739Y034069D03*
X030739Y033759D03*
X030739Y033439D03*
X030739Y033129D03*
X030739Y032809D03*
X030739Y032499D03*
X030739Y032179D03*
X030739Y031869D03*
X030739Y031549D03*
X030739Y031239D03*
X030739Y030919D03*
X030739Y030609D03*
D18*
X030133Y012406D03*
X029133Y012406D03*
X028133Y012406D03*
X027133Y012406D03*
X026133Y012406D03*
X026133Y011406D03*
X027133Y011406D03*
X028133Y011406D03*
X029133Y011406D03*
X030133Y011406D03*
D19*
X015101Y011512D03*
X014393Y011512D03*
X011164Y042417D03*
X010456Y042417D03*
D20*
X009235Y020016D03*
X008861Y019189D03*
X009609Y019189D03*
D21*
X013182Y014366D03*
X013182Y012594D03*
X016312Y012594D03*
X016312Y014366D03*
D22*
X016715Y017189D03*
X016715Y018189D03*
X016715Y019189D03*
X016715Y020189D03*
X016715Y021189D03*
D23*
X016715Y040173D03*
X016715Y042299D03*
X012778Y042299D03*
X012778Y040173D03*
D24*
X012759Y040213D01*
X012641Y040213D01*
X010456Y042398D01*
X010456Y042417D01*
X010456Y044051D01*
X010629Y044336D01*
X010305Y044447D01*
X010805Y044947D01*
X020305Y044947D01*
X020555Y044697D01*
X020652Y044583D01*
X020680Y044572D01*
X022555Y044572D01*
X022621Y044583D01*
X022680Y044572D01*
X024555Y044572D01*
X024589Y044583D01*
X024680Y044572D01*
X026555Y044572D01*
X026558Y044583D01*
X026680Y044572D01*
X028430Y044572D01*
X028526Y044583D01*
X028555Y044572D01*
X030430Y044572D01*
X030495Y044583D01*
X030555Y044572D01*
X032430Y044572D01*
X032463Y044583D01*
X032555Y044572D01*
X034430Y044572D01*
X034432Y044583D01*
X034555Y044572D01*
X034930Y044197D01*
X034930Y036072D01*
X031055Y032197D01*
X030805Y032197D01*
X030739Y032179D01*
X030680Y032197D01*
X026430Y032197D01*
X025180Y030947D01*
X024805Y030947D01*
X024739Y030919D01*
X024680Y031197D02*
X024739Y031239D01*
X024680Y031197D02*
X024430Y031197D01*
X024305Y031322D01*
X023555Y031322D01*
X024055Y032197D02*
X024680Y032197D01*
X024739Y032179D01*
X024805Y031947D02*
X024739Y031869D01*
X024805Y031947D02*
X025305Y031947D01*
X028305Y034947D01*
X027930Y035322D02*
X025180Y032572D01*
X024805Y032572D01*
X024739Y032499D01*
X024708Y032772D02*
X024156Y032772D01*
X024708Y032772D02*
X024739Y032809D01*
X024739Y033129D02*
X024747Y033185D01*
X025515Y033185D01*
X026696Y034366D01*
X026696Y034602D01*
X026164Y034661D02*
X026164Y034130D01*
X025456Y033421D01*
X024747Y033421D01*
X024739Y033439D01*
X024739Y033759D02*
X024747Y033776D01*
X025337Y033776D01*
X024680Y034322D02*
X024739Y034389D01*
X024680Y034322D02*
X022930Y034322D01*
X021805Y033197D01*
X021805Y029447D01*
X022180Y029072D01*
X022227Y029071D01*
X023802Y029071D01*
X025849Y031118D01*
X025849Y031315D01*
X026361Y031827D01*
X030692Y031827D01*
X030739Y031869D01*
X030771Y031827D01*
X031066Y031827D01*
X033428Y029465D01*
X034373Y029465D01*
X032805Y029822D02*
X032778Y029780D01*
X032778Y021669D01*
X026125Y015016D01*
X024038Y013165D02*
X013645Y013165D01*
X013625Y013146D01*
X014393Y012378D01*
X014393Y011512D01*
X015101Y011512D02*
X015141Y011551D01*
X015259Y011551D01*
X015761Y012053D01*
X016204Y011610D01*
X015761Y012053D02*
X016263Y012555D01*
X016312Y012594D01*
X016322Y012614D01*
X023920Y012811D01*
X023999Y012693D01*
X024786Y011906D01*
X027345Y011906D01*
X027739Y011512D01*
X028133Y011512D01*
X028133Y011406D01*
X028180Y011312D01*
X028133Y012406D02*
X028055Y012437D01*
X027180Y012437D01*
X027133Y012406D01*
X026133Y012406D02*
X026125Y012417D01*
X024786Y012417D01*
X024038Y013165D01*
X022818Y012299D02*
X023605Y011512D01*
X025967Y011512D01*
X026133Y011406D01*
X026180Y011312D01*
X026430Y011312D01*
X028133Y012406D02*
X028180Y012437D01*
X029055Y012437D01*
X029133Y012406D01*
X029180Y012437D01*
X030055Y012437D01*
X030133Y012406D01*
X036499Y013795D02*
X036499Y040154D01*
X037180Y039322D02*
X037180Y041947D01*
X037188Y042063D01*
X037680Y042339D02*
X037700Y042339D01*
X037700Y030409D01*
X039786Y028323D01*
X039786Y020449D01*
X035219Y021551D02*
X035219Y032575D01*
X031814Y035173D02*
X031814Y036591D01*
X032601Y037260D02*
X032601Y035665D01*
X031007Y034071D01*
X030739Y034069D01*
X030771Y034071D01*
X031007Y034071D01*
X031066Y034425D02*
X030771Y034425D01*
X030739Y034389D01*
X031066Y034425D02*
X031814Y035173D01*
X033369Y035783D02*
X033369Y037024D01*
X032621Y037280D02*
X032601Y037260D01*
X033369Y035783D02*
X031066Y033480D01*
X030771Y033480D01*
X030739Y033439D01*
X030711Y033717D02*
X030739Y033759D01*
X030711Y033717D02*
X028054Y033717D01*
X028930Y035072D02*
X028930Y035322D01*
X028930Y035072D02*
X025430Y031572D01*
X024805Y031572D01*
X024739Y031549D01*
X024739Y030609D02*
X024680Y030572D01*
X022305Y030572D01*
X022227Y030646D01*
X022305Y030572D02*
X022305Y029822D01*
X022227Y029780D01*
X022227Y029071D02*
X022227Y027614D01*
X024432Y025409D01*
X024432Y025370D01*
X020259Y021197D01*
X016755Y021197D01*
X016715Y021189D01*
X016715Y021157D01*
X009826Y021157D01*
X008349Y019681D01*
X008841Y019189D01*
X008861Y019189D01*
X008881Y019150D01*
X008881Y017890D01*
X013625Y013146D01*
X016263Y014386D02*
X016312Y014366D01*
X016263Y014386D02*
X021381Y015469D01*
X016715Y020134D01*
X016715Y020189D01*
X016715Y020193D01*
X015948Y020173D01*
X010908Y020173D01*
X008349Y019681D02*
X005692Y022339D01*
X005383Y022339D01*
X005383Y022091D02*
X005320Y022020D01*
X005383Y022966D02*
X005320Y023020D01*
X005383Y023091D01*
X005383Y023966D02*
X005320Y024020D01*
X005383Y024091D01*
X005383Y024966D02*
X005320Y025020D01*
X005259Y025252D01*
X005259Y025783D01*
X004491Y026551D01*
X004491Y027201D01*
X004609Y027319D01*
X009097Y027319D01*
X009215Y027437D01*
X009215Y028382D01*
X007542Y031827D01*
X007485Y031862D01*
X007548Y031947D01*
X007548Y032822D01*
X007485Y032862D01*
X007548Y032947D01*
X007548Y033822D01*
X007485Y033862D01*
X007548Y033947D01*
X007548Y034822D01*
X007485Y034862D01*
X007542Y034898D01*
X007719Y035075D01*
X007719Y035429D01*
X006798Y036322D02*
X007548Y037072D01*
X007660Y037102D01*
X007673Y037072D01*
X008673Y037072D01*
X008763Y037102D01*
X008798Y037072D01*
X009798Y037072D01*
X009865Y037102D01*
X009923Y037072D01*
X010923Y037072D01*
X010967Y037102D01*
X011048Y037197D01*
X005930Y041072D01*
X009180Y044322D01*
X009629Y044436D01*
X010101Y042929D02*
X010101Y042752D01*
X009452Y042102D01*
X009432Y042063D01*
X012778Y040173D02*
X013467Y040862D01*
X014708Y040862D01*
X014747Y040882D01*
X015416Y040213D01*
X016715Y040213D01*
X016715Y040173D01*
X014747Y041591D02*
X014767Y041630D01*
X014767Y043205D01*
X015810Y043205D02*
X016125Y043165D01*
X016715Y043165D01*
X016715Y042299D01*
X016715Y043165D02*
X018290Y043165D01*
X020652Y043402D02*
X020680Y043322D01*
X020680Y042072D01*
X020652Y041984D01*
X020652Y041276D02*
X020680Y041197D01*
X022055Y041197D01*
X024805Y038447D01*
X026680Y038447D01*
X027180Y037947D01*
X027180Y036072D01*
X027269Y035969D01*
X027555Y036072D02*
X027579Y035969D01*
X027555Y036072D02*
X027555Y037947D01*
X026805Y038697D01*
X026555Y038697D01*
X024055Y041197D01*
X022680Y041197D01*
X022621Y041276D01*
X022621Y041984D02*
X022680Y042072D01*
X022680Y043322D01*
X022621Y043402D01*
X024589Y043402D02*
X024680Y043322D01*
X024680Y042072D01*
X024589Y041984D01*
X024589Y041276D02*
X024680Y041197D01*
X027930Y037947D01*
X027930Y036072D01*
X027899Y035969D01*
X028180Y036072D02*
X028209Y035969D01*
X028180Y036072D02*
X028180Y038072D01*
X026680Y039572D01*
X026680Y041197D01*
X026558Y041276D01*
X026558Y041984D02*
X026555Y042072D01*
X026555Y043322D01*
X026558Y043402D01*
X028526Y043402D02*
X028555Y043322D01*
X028555Y042072D01*
X028526Y041984D01*
X028526Y041276D02*
X028555Y041197D01*
X028555Y036072D01*
X028529Y035969D01*
X028805Y036072D02*
X028839Y035969D01*
X028805Y036072D02*
X028805Y036197D01*
X030430Y037822D01*
X030430Y041197D01*
X030495Y041276D01*
X030495Y041984D02*
X030555Y042072D01*
X030555Y043322D01*
X030495Y043402D01*
X032463Y043402D02*
X032555Y043322D01*
X032555Y042072D01*
X032463Y041984D01*
X032463Y041276D02*
X032430Y041197D01*
X032430Y039197D01*
X029555Y036322D01*
X029555Y036072D01*
X029469Y035969D01*
X029180Y035947D02*
X029159Y035969D01*
X029180Y035947D02*
X029180Y035572D01*
X029305Y035447D01*
X030180Y035447D01*
X034430Y039697D01*
X034430Y041197D01*
X034432Y041276D01*
X034432Y041984D02*
X034430Y042072D01*
X034430Y043322D01*
X034432Y043402D01*
X035692Y044583D02*
X036204Y044976D01*
X036558Y044937D01*
X045180Y044937D01*
X045771Y044346D01*
X045794Y044336D01*
X044794Y044436D02*
X044767Y044406D01*
X044176Y043815D01*
X041164Y043815D01*
X039550Y042772D02*
X039430Y042822D01*
X039430Y043803D01*
X039305Y043928D01*
X038794Y044436D01*
X038305Y044322D02*
X037794Y044336D01*
X038305Y044322D02*
X038305Y041197D01*
X038369Y041197D01*
X038684Y041512D02*
X039097Y041098D01*
X039078Y041079D01*
X039078Y029307D01*
X042345Y026039D01*
X042345Y014661D01*
X040810Y013126D01*
X040810Y007457D01*
X040794Y007428D01*
X040751Y007437D01*
X039794Y007328D02*
X039747Y007378D01*
X032070Y021551D02*
X027542Y021551D01*
X030337Y024661D02*
X032424Y022575D01*
X030930Y026822D02*
X028555Y029197D01*
X028555Y029947D01*
X028529Y029969D01*
X028555Y030072D01*
X028555Y030197D01*
X028430Y030322D01*
X028430Y030572D01*
X028805Y030947D02*
X028805Y030072D01*
X028839Y029969D01*
X029159Y029969D02*
X029180Y029947D01*
X029180Y029572D01*
X029555Y029197D01*
X029393Y028835D02*
X031755Y028835D01*
X031952Y029031D01*
X031952Y030173D01*
X032805Y029822D02*
X031055Y031572D01*
X030805Y031572D01*
X030739Y031549D01*
X029353Y031413D02*
X031597Y029169D01*
X029393Y028835D02*
X029038Y029189D01*
X028133Y029425D02*
X028133Y028244D01*
X029708Y026866D01*
X027542Y026866D02*
X027542Y029932D01*
X027579Y029969D01*
X027269Y029969D02*
X027227Y029996D01*
X027227Y030291D01*
X026400Y031118D01*
X026046Y031000D02*
X026282Y030764D01*
X026282Y029976D01*
X026319Y029969D01*
X026046Y029937D02*
X026009Y029969D01*
X026046Y029937D02*
X026046Y028953D01*
X026637Y028362D02*
X024747Y026472D01*
X024747Y025409D01*
X018999Y019661D01*
X018881Y019661D01*
X018526Y018835D02*
X026912Y027220D01*
X026912Y029898D01*
X026949Y029969D01*
X026639Y029969D02*
X026637Y029937D01*
X026637Y028362D01*
X027899Y029659D02*
X028133Y029425D01*
X027899Y029659D02*
X027899Y029969D01*
X029159Y029969D02*
X029180Y030072D01*
X029180Y030322D01*
X029305Y030447D01*
X029305Y030947D01*
X029353Y031413D02*
X028586Y031413D01*
X029708Y032535D02*
X030298Y033126D01*
X030711Y033126D01*
X030739Y033129D01*
X027030Y031472D02*
X026282Y031472D01*
X026046Y031236D01*
X026046Y031000D01*
X025928Y030567D02*
X025692Y030331D01*
X025692Y029976D01*
X025689Y029969D01*
X022305Y031447D02*
X022227Y031354D01*
X022305Y031447D02*
X022305Y032197D01*
X022227Y032220D01*
X022305Y032822D02*
X022227Y032929D01*
X022305Y032822D02*
X022805Y032822D01*
X021912Y033776D02*
X010810Y022339D01*
X009449Y023091D02*
X008883Y023091D01*
X008820Y023020D01*
X008758Y023091D01*
X006258Y025591D01*
X006258Y026841D01*
X006204Y026945D01*
X006204Y027654D02*
X006258Y027716D01*
X007508Y027716D01*
X007542Y027654D01*
X007633Y027716D01*
X008758Y027716D01*
X008802Y027654D01*
X008883Y026966D02*
X008802Y026945D01*
X008883Y026841D01*
X008883Y025091D01*
X008820Y025020D01*
X008758Y024091D02*
X008820Y024020D01*
X008883Y024091D01*
X010074Y024091D01*
X021305Y035322D01*
X024680Y035322D01*
X024739Y035329D01*
X024739Y035019D02*
X024680Y034947D01*
X021305Y034947D01*
X009449Y023091D01*
X009217Y022091D02*
X021430Y034697D01*
X024680Y034697D01*
X024739Y034699D01*
X025305Y035947D02*
X025379Y035969D01*
X025305Y035947D02*
X021555Y035947D01*
X012180Y026572D01*
X008883Y026966D01*
X007633Y026841D02*
X007542Y026945D01*
X007633Y026841D02*
X007633Y025216D01*
X008758Y024091D01*
X008133Y023216D02*
X008133Y022716D01*
X008758Y022091D01*
X008820Y022020D01*
X008883Y022091D01*
X008133Y023216D02*
X004883Y026466D01*
X004883Y026841D01*
X004865Y026945D01*
X004865Y027654D02*
X004758Y027716D01*
X006923Y031447D01*
X006798Y031572D01*
X006798Y036322D01*
X006133Y027716D02*
X004883Y027716D01*
X004865Y027654D01*
X006133Y027716D02*
X006204Y027654D01*
X020908Y031886D02*
X020908Y022339D01*
X021440Y024701D02*
X021440Y031945D01*
X037188Y042772D02*
X037180Y042822D01*
X037180Y044322D01*
X036794Y044436D01*
X038684Y043343D02*
X038684Y041512D01*
X039430Y041947D02*
X039550Y042063D01*
X039430Y041947D02*
X039430Y040572D01*
X039944Y040685D02*
X039944Y029622D01*
X038305Y039947D02*
X038305Y040447D01*
X038369Y040488D01*
X017629Y007428D02*
X017305Y007322D01*
X018180Y007322D01*
X018629Y007328D01*
X017629Y007428D02*
X017180Y007322D01*
X016305Y007322D01*
X016629Y007328D01*
X016180Y007447D01*
X015305Y007447D01*
X015629Y007428D01*
X015180Y007322D01*
X014305Y007322D01*
X014629Y007328D01*
X013629Y007428D02*
X013180Y007322D01*
X012305Y007322D01*
X012629Y007328D01*
X012180Y007322D01*
X011305Y007322D01*
X011629Y007428D01*
X011180Y007322D01*
X010305Y007322D01*
X010629Y007328D01*
X010180Y007447D01*
X009305Y007447D01*
X009629Y007428D01*
D25*
X005383Y022091D02*
X005383Y022339D01*
X005383Y022966D01*
X005383Y023091D02*
X005383Y023966D01*
X005383Y024091D02*
X005383Y024966D01*
X011164Y042417D02*
X011991Y043244D01*
X011991Y044386D01*
X011941Y044436D01*
X011629Y044436D01*
X012629Y044436D01*
X012629Y044336D01*
X012629Y042449D01*
X012778Y042299D01*
X014747Y043205D02*
X014767Y043205D01*
X015810Y043205D01*
X014747Y043205D02*
X014747Y044336D01*
X014629Y044336D01*
X014629Y044436D01*
X013629Y044436D01*
X010629Y044436D02*
X010629Y044336D01*
X010629Y044436D02*
X009629Y044436D01*
D26*
X040337Y014858D02*
X034235Y008756D01*
X030223Y012496D01*
X030133Y012406D01*
X040337Y014858D02*
X041912Y014858D01*
D27*
X036499Y013795D03*
X039786Y020449D03*
X032424Y022575D03*
X030337Y024661D03*
X030930Y026822D03*
X031597Y029169D03*
X031952Y030173D03*
X034373Y029465D03*
X029555Y029197D03*
X029038Y029189D03*
X028430Y030572D03*
X028805Y030947D03*
X029305Y030947D03*
X028586Y031413D03*
X029708Y032535D03*
X028054Y033717D03*
X028305Y034947D03*
X027930Y035322D03*
X028930Y035322D03*
X026696Y034602D03*
X026164Y034661D03*
X025337Y033776D03*
X024156Y032772D03*
X024055Y032197D03*
X023555Y031322D03*
X022805Y032822D03*
X021912Y033776D03*
X021440Y031945D03*
X020908Y031886D03*
X025928Y030567D03*
X026400Y031118D03*
X027030Y031472D03*
X026046Y028953D03*
X021440Y024701D03*
X020908Y022339D03*
X018881Y019661D03*
X018526Y018835D03*
X026125Y015016D03*
X023920Y012811D03*
X022818Y012299D03*
X016204Y011610D03*
X010810Y019189D03*
X010810Y022339D03*
X007719Y035429D03*
X010101Y042929D03*
X031814Y036591D03*
X032621Y037280D03*
X033369Y037024D03*
X036499Y040154D03*
X037180Y039322D03*
X038305Y039947D03*
X039430Y040572D03*
X039944Y040685D03*
X037680Y042339D03*
X038684Y043343D03*
X041164Y043815D03*
X035692Y044583D03*
X039944Y029622D03*
D28*
X039944Y029031D03*
X036007Y029031D03*
X035219Y032575D03*
X029708Y026866D03*
X030101Y025488D03*
X032070Y023520D03*
X032070Y021551D03*
X035219Y021551D03*
X036007Y023520D03*
X027542Y021551D03*
X027542Y026866D03*
M02*
