%
M48
M72
T01C0.02362
T02C0.03150
T03C0.03200
T04C0.03937
T05C0.04000
T06C0.04700
T07C0.05000
T08C0.07874
T09C0.07900
T10C0.11811
%
T01
X92833Y235000
X157833Y207500
X172833Y207500
X177833Y200000
X185333Y200000
X177833Y180000
X202833Y155000
X230333Y145000
X240333Y185000
X267833Y225000
X292833Y225000
X302833Y225000
X312833Y225000
X322833Y225000
X322833Y255000
X312833Y255000
X302833Y255000
X292833Y255000
X332833Y255000
X357833Y225000
X367833Y225000
X402833Y227500
X425333Y227500
X402833Y192500
X400333Y157500
X387833Y155000
X377833Y160000
X367833Y152500
X327833Y165000
X185333Y240000
X177833Y252500
X142833Y405000
X142833Y427500
X142833Y460000
X192833Y455000
X235333Y480000
X245333Y492500
X220333Y507500
X202833Y512500
X200333Y540000
X180333Y555000
X197833Y567500
X192833Y582500
X237833Y590000
X250333Y558957
X237833Y536250
X275333Y495000
X250333Y456250
X277833Y440000
X277833Y420000
X315333Y417500
X315333Y435000
X332833Y445000
X332833Y422500
X330333Y495000
X342833Y495000
X362833Y495000
X380333Y500000
X400333Y507500
X415333Y520000
X422833Y527500
X445333Y535000
X457833Y547500
X460333Y532500
X470333Y532500
X447833Y502500
X435333Y502500
X465333Y480000
X482833Y492500
X527833Y545000
X552833Y545000
X532833Y597500
X570333Y622500
X507833Y690000
X450333Y605512
X435333Y590000
X462833Y580000
X440333Y552500
X422833Y552500
X410333Y567500
X405333Y580000
X390333Y575000
X385333Y547500
X387833Y532500
X405333Y550000
X365333Y517500
X350333Y562500
X295333Y572500
X415333Y440000
X415333Y412500
T02
X155333Y182500
X187085Y140000
X194959Y140000
X202833Y140000
X210707Y140000
X218581Y140000
X217833Y195000
X65333Y405000
X195333Y502500
X265333Y535000
X267833Y520000
X305333Y530000
X305333Y545000
X255333Y582500
X162833Y655000
X75333Y595000
X372833Y555000
T03
X162833Y220000
X162833Y240000
X207833Y242500
X207833Y222500
X142833Y622500
X162833Y622500
X522833Y240000
X522833Y220000
X512833Y187500
X492833Y187500
X575333Y220000
X575333Y240000
T04
X153896Y146437
X161770Y146437
X576396Y596437
X576396Y588563
X576396Y548937
X576396Y541063
T05
X507833Y620000
X517833Y620000
T06
X82833Y540157
X82833Y559843
T07
X120836Y653003
X170333Y702500
T08
X62833Y483500
X100333Y476000
X100333Y457500
X100333Y439000
X62833Y431500
T09
X260255Y684626
X260255Y644626
X401593Y642126
X401593Y682126
T10
X94703Y200866
X71081Y374094
X106514Y630000
X555333Y630000
X590766Y374094
X567144Y200866
M30
