G75*
%MOIN*%
%OFA0B0*%
%FSLAX25Y25*%
%IPPOS*%
%LPD*%
%AMOC8*
5,1,8,0,0,1.08239X$1,22.5*
%
%ADD10C,0.05950*%
%ADD11R,0.06706X0.02572*%
%ADD12C,0.07850*%
%ADD13R,0.05950X0.05950*%
%ADD14R,0.05524X0.03950*%
%ADD15C,0.18900*%
%ADD16OC8,0.18900*%
%ADD17R,0.03950X0.05524*%
%ADD18R,0.07887X0.07099*%
%ADD19R,0.07099X0.07887*%
%ADD20R,0.05524X0.06312*%
%ADD21R,0.07493X0.07887*%
%ADD22R,0.06312X0.05524*%
%ADD23R,0.04619X0.02020*%
%ADD24C,0.06737*%
%ADD25R,0.06737X0.06737*%
%ADD26R,0.27178X0.27178*%
%ADD27R,0.07099X0.12611*%
%ADD28C,0.07800*%
%ADD29C,0.06800*%
%ADD30R,0.13800X0.13800*%
%ADD31R,0.12611X0.12611*%
%ADD32R,0.03162X0.03950*%
%ADD33R,0.13398X0.07887*%
%ADD34R,0.05524X0.02965*%
%ADD35R,0.12296X0.06784*%
%ADD36R,0.17100X0.04700*%
%ADD37R,0.04700X0.17100*%
%ADD38C,0.10800*%
%ADD39C,0.04762*%
%ADD40C,0.16611*%
D10*
X0155333Y0182500D03*
X0187085Y0140000D03*
X0194959Y0140000D03*
X0202833Y0140000D03*
X0210707Y0140000D03*
X0217833Y0195000D03*
X0065333Y0405000D03*
X0195333Y0502500D03*
X0265333Y0535000D03*
X0267833Y0520000D03*
X0305333Y0530000D03*
X0305333Y0545000D03*
X0255333Y0582500D03*
X0162833Y0655000D03*
X0075333Y0595000D03*
X0372833Y0555000D03*
D11*
X0398385Y0541339D03*
X0398385Y0538780D03*
X0398385Y0536220D03*
X0398385Y0533661D03*
X0417282Y0533661D03*
X0417282Y0536220D03*
X0417282Y0538780D03*
X0417282Y0541339D03*
D12*
X0086358Y0540157D02*
X0079308Y0540157D01*
X0079308Y0559843D02*
X0086358Y0559843D01*
D13*
X0218581Y0140000D03*
D14*
X0217833Y0156457D03*
X0217833Y0163543D03*
X0192833Y0163543D03*
X0192833Y0156457D03*
X0182833Y0156457D03*
X0182833Y0163543D03*
X0237833Y0498957D03*
X0237833Y0506043D03*
X0247833Y0506043D03*
X0247833Y0498957D03*
X0237833Y0561457D03*
X0237833Y0568543D03*
X0237833Y0573957D03*
X0237833Y0581043D03*
X0250333Y0573543D03*
X0250333Y0566457D03*
X0397833Y0566457D03*
X0397833Y0573543D03*
D15*
X0401593Y0642126D03*
X0260255Y0644626D03*
D16*
X0260255Y0684626D03*
X0401593Y0682126D03*
D17*
X0451790Y0572500D03*
X0458877Y0572500D03*
X0458877Y0562500D03*
X0451790Y0562500D03*
X0454290Y0525000D03*
X0461377Y0525000D03*
X0461377Y0515000D03*
X0454290Y0515000D03*
X0403877Y0522500D03*
X0396790Y0522500D03*
X0286377Y0547500D03*
X0286377Y0555000D03*
X0286377Y0562500D03*
X0286377Y0570000D03*
X0279290Y0570000D03*
X0279290Y0562500D03*
X0279290Y0555000D03*
X0279290Y0547500D03*
X0511790Y0545000D03*
X0518877Y0545000D03*
X0516790Y0597500D03*
X0523877Y0597500D03*
D18*
X0477833Y0594488D03*
X0477833Y0605512D03*
X0465333Y0605512D03*
X0465333Y0594488D03*
X0475333Y0513012D03*
X0475333Y0501988D03*
D19*
X0469822Y0550000D03*
X0480845Y0550000D03*
X0100845Y0580000D03*
X0089822Y0580000D03*
X0089822Y0592500D03*
X0100845Y0592500D03*
X0100845Y0605000D03*
X0089822Y0605000D03*
D20*
X0384428Y0557500D03*
X0396239Y0557500D03*
X0429428Y0562500D03*
X0429428Y0572500D03*
X0441239Y0572500D03*
X0441239Y0562500D03*
X0443739Y0525000D03*
X0443739Y0515000D03*
X0431928Y0515000D03*
X0431928Y0525000D03*
D21*
X0127833Y0619429D03*
X0127833Y0635571D03*
D22*
X0237833Y0528406D03*
X0247833Y0528406D03*
X0247833Y0516594D03*
X0237833Y0516594D03*
D23*
X0245924Y0544016D03*
X0245924Y0545984D03*
X0245924Y0547953D03*
X0245924Y0549921D03*
X0245924Y0551890D03*
X0262735Y0551890D03*
X0262735Y0549921D03*
X0262735Y0547953D03*
X0262735Y0545984D03*
X0262735Y0544016D03*
D24*
X0576396Y0541063D03*
X0576396Y0588563D03*
X0153896Y0146437D03*
D25*
X0161770Y0146437D03*
X0576396Y0548937D03*
X0576396Y0596437D03*
D26*
X0130333Y0172500D03*
X0327833Y0555000D03*
D27*
X0318778Y0532362D03*
X0336888Y0532362D03*
X0139388Y0195138D03*
X0121278Y0195138D03*
D28*
X0159333Y0220000D02*
X0166333Y0220000D01*
X0166333Y0240000D02*
X0159333Y0240000D01*
X0204333Y0242500D02*
X0211333Y0242500D01*
X0211333Y0222500D02*
X0204333Y0222500D01*
X0492833Y0191000D02*
X0492833Y0184000D01*
X0512833Y0184000D02*
X0512833Y0191000D01*
X0519333Y0220000D02*
X0526333Y0220000D01*
X0526333Y0240000D02*
X0519333Y0240000D01*
X0571833Y0240000D02*
X0578833Y0240000D01*
X0578833Y0220000D02*
X0571833Y0220000D01*
X0162833Y0619000D02*
X0162833Y0626000D01*
X0142833Y0626000D02*
X0142833Y0619000D01*
D29*
X0507833Y0617000D02*
X0507833Y0623000D01*
X0517833Y0623000D02*
X0517833Y0617000D01*
D30*
X0100333Y0476000D03*
X0100333Y0457500D03*
X0100333Y0439000D03*
D31*
X0062833Y0431500D03*
X0062833Y0483500D03*
D32*
X0082833Y0510079D03*
X0082833Y0519921D03*
D33*
X0351583Y0513976D03*
X0351583Y0536024D03*
D34*
X0492715Y0538760D03*
X0492715Y0542500D03*
X0492715Y0546240D03*
X0502952Y0546240D03*
X0502952Y0538760D03*
X0507952Y0586260D03*
X0507952Y0593740D03*
X0497715Y0593740D03*
X0497715Y0590000D03*
X0497715Y0586260D03*
D35*
X0217085Y0582500D03*
X0217085Y0567736D03*
X0217085Y0552972D03*
X0217085Y0538209D03*
X0217085Y0523445D03*
X0127833Y0523445D03*
X0127833Y0538209D03*
X0127833Y0552972D03*
X0127833Y0567736D03*
X0127833Y0582500D03*
D36*
X0128783Y0470000D03*
X0128783Y0460000D03*
X0128783Y0450000D03*
X0128783Y0440000D03*
X0128783Y0430000D03*
X0128783Y0420000D03*
X0128783Y0410000D03*
X0128783Y0400000D03*
X0128783Y0390000D03*
X0128783Y0380000D03*
X0128783Y0370000D03*
X0128783Y0360000D03*
X0128783Y0350000D03*
X0128783Y0340000D03*
X0128783Y0330000D03*
X0128783Y0320000D03*
X0128783Y0310000D03*
X0128783Y0300000D03*
X0128783Y0290000D03*
X0128783Y0280000D03*
X0156883Y0280000D03*
X0156883Y0290000D03*
X0156883Y0300000D03*
X0156883Y0310000D03*
X0156883Y0320000D03*
X0156883Y0330000D03*
X0156883Y0340000D03*
X0156883Y0350000D03*
X0156883Y0360000D03*
X0156883Y0370000D03*
X0156883Y0380000D03*
X0156883Y0390000D03*
X0156883Y0400000D03*
X0156883Y0410000D03*
X0156883Y0420000D03*
X0156883Y0430000D03*
X0156883Y0440000D03*
X0156883Y0450000D03*
X0156883Y0460000D03*
X0156883Y0470000D03*
X0263783Y0470000D03*
X0263783Y0460000D03*
X0263783Y0450000D03*
X0263783Y0440000D03*
X0263783Y0430000D03*
X0263783Y0420000D03*
X0263783Y0410000D03*
X0263783Y0400000D03*
X0263783Y0390000D03*
X0263783Y0380000D03*
X0263783Y0370000D03*
X0263783Y0360000D03*
X0263783Y0350000D03*
X0263783Y0340000D03*
X0263783Y0330000D03*
X0263783Y0320000D03*
X0263783Y0310000D03*
X0263783Y0300000D03*
X0263783Y0290000D03*
X0291883Y0290000D03*
X0291883Y0300000D03*
X0291883Y0310000D03*
X0291883Y0320000D03*
X0291883Y0330000D03*
X0291883Y0340000D03*
X0291883Y0350000D03*
X0291883Y0360000D03*
X0291883Y0370000D03*
X0291883Y0380000D03*
X0291883Y0390000D03*
X0291883Y0400000D03*
X0291883Y0410000D03*
X0291883Y0420000D03*
X0291883Y0430000D03*
X0291883Y0440000D03*
X0291883Y0450000D03*
X0291883Y0460000D03*
X0291883Y0470000D03*
X0291883Y0480000D03*
X0263783Y0480000D03*
X0401283Y0480000D03*
X0401283Y0470000D03*
X0401283Y0460000D03*
X0401283Y0450000D03*
X0401283Y0440000D03*
X0401283Y0430000D03*
X0401283Y0420000D03*
X0401283Y0410000D03*
X0401283Y0400000D03*
X0401283Y0390000D03*
X0401283Y0380000D03*
X0401283Y0370000D03*
X0401283Y0360000D03*
X0401283Y0350000D03*
X0401283Y0340000D03*
X0401283Y0330000D03*
X0401283Y0320000D03*
X0401283Y0310000D03*
X0401283Y0300000D03*
X0401283Y0290000D03*
X0429383Y0290000D03*
X0429383Y0300000D03*
X0429383Y0310000D03*
X0429383Y0320000D03*
X0429383Y0330000D03*
X0429383Y0340000D03*
X0429383Y0350000D03*
X0429383Y0360000D03*
X0429383Y0370000D03*
X0429383Y0380000D03*
X0429383Y0390000D03*
X0429383Y0400000D03*
X0429383Y0410000D03*
X0429383Y0420000D03*
X0429383Y0430000D03*
X0429383Y0440000D03*
X0429383Y0450000D03*
X0429383Y0460000D03*
X0429383Y0470000D03*
X0429383Y0480000D03*
X0538783Y0467500D03*
X0538783Y0457500D03*
X0538783Y0447500D03*
X0538783Y0437500D03*
X0538783Y0427500D03*
X0538783Y0417500D03*
X0538783Y0407500D03*
X0538783Y0397500D03*
X0538783Y0387500D03*
X0538783Y0377500D03*
X0538783Y0367500D03*
X0538783Y0357500D03*
X0538783Y0347500D03*
X0538783Y0337500D03*
X0538783Y0327500D03*
X0538783Y0317500D03*
X0538783Y0307500D03*
X0538783Y0297500D03*
X0538783Y0287500D03*
X0538783Y0277500D03*
X0566883Y0277500D03*
X0566883Y0287500D03*
X0566883Y0297500D03*
X0566883Y0307500D03*
X0566883Y0317500D03*
X0566883Y0327500D03*
X0566883Y0337500D03*
X0566883Y0347500D03*
X0566883Y0357500D03*
X0566883Y0367500D03*
X0566883Y0377500D03*
X0566883Y0387500D03*
X0566883Y0397500D03*
X0566883Y0407500D03*
X0566883Y0417500D03*
X0566883Y0427500D03*
X0566883Y0437500D03*
X0566883Y0447500D03*
X0566883Y0457500D03*
X0566883Y0467500D03*
D37*
X0447833Y0206550D03*
X0437833Y0206550D03*
X0427833Y0206550D03*
X0417833Y0206550D03*
X0407833Y0206550D03*
X0397833Y0206550D03*
X0387833Y0206550D03*
X0377833Y0206550D03*
X0367833Y0206550D03*
X0357833Y0206550D03*
X0347833Y0206550D03*
X0337833Y0206550D03*
X0327833Y0206550D03*
X0317833Y0206550D03*
X0307833Y0206550D03*
X0297833Y0206550D03*
X0287833Y0206550D03*
X0277833Y0206550D03*
X0267833Y0206550D03*
X0257833Y0206550D03*
X0257833Y0178450D03*
X0267833Y0178450D03*
X0277833Y0178450D03*
X0287833Y0178450D03*
X0297833Y0178450D03*
X0307833Y0178450D03*
X0317833Y0178450D03*
X0327833Y0178450D03*
X0337833Y0178450D03*
X0347833Y0178450D03*
X0357833Y0178450D03*
X0367833Y0178450D03*
X0377833Y0178450D03*
X0387833Y0178450D03*
X0397833Y0178450D03*
X0407833Y0178450D03*
X0417833Y0178450D03*
X0427833Y0178450D03*
X0437833Y0178450D03*
X0447833Y0178450D03*
D38*
X0120836Y0653003D03*
X0170333Y0702500D03*
D39*
X0237833Y0590000D03*
X0250333Y0558957D03*
X0237833Y0536250D03*
X0220333Y0507500D03*
X0202833Y0512500D03*
X0200333Y0540000D03*
X0180333Y0555000D03*
X0197833Y0567500D03*
X0192833Y0582500D03*
X0245333Y0492500D03*
X0235333Y0480000D03*
X0250333Y0456250D03*
X0277833Y0440000D03*
X0277833Y0420000D03*
X0315333Y0417500D03*
X0315333Y0435000D03*
X0332833Y0445000D03*
X0332833Y0422500D03*
X0330333Y0495000D03*
X0342833Y0495000D03*
X0362833Y0495000D03*
X0380333Y0500000D03*
X0400333Y0507500D03*
X0415333Y0520000D03*
X0422833Y0527500D03*
X0445333Y0535000D03*
X0457833Y0547500D03*
X0460333Y0532500D03*
X0470333Y0532500D03*
X0447833Y0502500D03*
X0435333Y0502500D03*
X0465333Y0480000D03*
X0482833Y0492500D03*
X0527833Y0545000D03*
X0552833Y0545000D03*
X0532833Y0597500D03*
X0570333Y0622500D03*
X0507833Y0690000D03*
X0450333Y0605512D03*
X0435333Y0590000D03*
X0462833Y0580000D03*
X0440333Y0552500D03*
X0422833Y0552500D03*
X0410333Y0567500D03*
X0405333Y0580000D03*
X0390333Y0575000D03*
X0385333Y0547500D03*
X0387833Y0532500D03*
X0405333Y0550000D03*
X0365333Y0517500D03*
X0350333Y0562500D03*
X0295333Y0572500D03*
X0275333Y0495000D03*
X0192833Y0455000D03*
X0142833Y0460000D03*
X0142833Y0427500D03*
X0142833Y0405000D03*
X0177833Y0252500D03*
X0185333Y0240000D03*
X0172833Y0207500D03*
X0177833Y0200000D03*
X0185333Y0200000D03*
X0177833Y0180000D03*
X0157833Y0207500D03*
X0202833Y0155000D03*
X0230333Y0145000D03*
X0240333Y0185000D03*
X0267833Y0225000D03*
X0292833Y0225000D03*
X0302833Y0225000D03*
X0312833Y0225000D03*
X0322833Y0225000D03*
X0322833Y0255000D03*
X0312833Y0255000D03*
X0302833Y0255000D03*
X0292833Y0255000D03*
X0332833Y0255000D03*
X0357833Y0225000D03*
X0367833Y0225000D03*
X0402833Y0227500D03*
X0425333Y0227500D03*
X0402833Y0192500D03*
X0400333Y0157500D03*
X0387833Y0155000D03*
X0377833Y0160000D03*
X0367833Y0152500D03*
X0327833Y0165000D03*
X0415333Y0412500D03*
X0415333Y0440000D03*
X0092833Y0235000D03*
D40*
X0094703Y0200866D03*
X0071081Y0374094D03*
X0106514Y0630000D03*
X0555333Y0630000D03*
X0590766Y0374094D03*
X0567144Y0200866D03*
M02*
