G75*
G70*
%OFA0B0*%
%FSLAX24Y24*%
%IPPOS*%
%LPD*%
%AMOC8*
5,1,8,0,0,1.08239X$1,22.5*
%
%ADD10R,0.0315X0.0472*%
%ADD11R,0.0260X0.0800*%
%ADD12R,0.0472X0.0315*%
%ADD13R,0.0610X0.0512*%
%ADD14R,0.0315X0.0354*%
%ADD15R,0.0200X0.0580*%
%ADD16R,0.0580X0.0200*%
%ADD17R,0.0472X0.0551*%
%ADD18R,0.0709X0.0669*%
%ADD19R,0.0669X0.0709*%
%ADD20R,0.0866X0.0709*%
%ADD21R,0.0472X0.0217*%
%ADD22R,0.2638X0.2638*%
%ADD23R,0.0630X0.1181*%
%ADD24R,0.0709X0.1260*%
%ADD25R,0.0630X0.0709*%
%ADD26R,0.0382X0.0122*%
%ADD27R,0.0512X0.0610*%
%ADD28R,0.0177X0.0591*%
%ADD29R,0.0598X0.1150*%
%ADD30R,0.0709X0.0630*%
D10*
X043597Y014353D03*
X044306Y014353D03*
X044385Y013172D03*
X045093Y013172D03*
X043912Y015534D03*
X043203Y015534D03*
X045762Y010416D03*
X046471Y010416D03*
X052987Y008586D03*
X053696Y008586D03*
X056510Y009452D03*
X057219Y009452D03*
X057219Y010397D03*
X056510Y010397D03*
X054038Y002448D03*
X053329Y002448D03*
X075014Y021125D03*
X075723Y021125D03*
X069896Y024589D03*
X069188Y024589D03*
X069188Y025377D03*
X069896Y025377D03*
X073125Y026164D03*
X073833Y026164D03*
X065566Y026046D03*
X064857Y026046D03*
X063007Y024983D03*
X062298Y024983D03*
X056999Y028235D03*
X056290Y028235D03*
X057255Y029979D03*
X057963Y029979D03*
X058085Y034432D03*
X057377Y034432D03*
X067613Y031676D03*
X068322Y031676D03*
X071944Y031676D03*
X072652Y031676D03*
X054148Y023015D03*
X053440Y023015D03*
X043518Y024196D03*
X042810Y024196D03*
X042810Y025377D03*
X043518Y025377D03*
X043518Y026558D03*
X042810Y026558D03*
X043203Y028920D03*
X043912Y028920D03*
X043912Y029904D03*
X043203Y029904D03*
X043203Y030889D03*
X043912Y030889D03*
D11*
X070760Y026981D03*
X071260Y026981D03*
X071760Y026981D03*
X072260Y026981D03*
X072260Y024561D03*
X071760Y024561D03*
X071260Y024561D03*
X070760Y024561D03*
D12*
X066550Y024609D03*
X066550Y025318D03*
X063814Y025337D03*
X063814Y026046D03*
X063833Y024550D03*
X063833Y023841D03*
X061274Y023841D03*
X061274Y024550D03*
X058518Y022582D03*
X058518Y021873D03*
X058518Y021007D03*
X058518Y020298D03*
X056510Y026007D03*
X055723Y026007D03*
X055723Y026715D03*
X056510Y026715D03*
X056455Y029334D03*
X056455Y030042D03*
X047219Y028566D03*
X047219Y027857D03*
X056550Y035259D03*
X056550Y035967D03*
X058912Y035967D03*
X058912Y035259D03*
X080054Y023349D03*
X080881Y023369D03*
X080881Y022660D03*
X080054Y022641D03*
X055192Y008723D03*
X054404Y008723D03*
X054404Y008015D03*
X055192Y008015D03*
X045822Y005259D03*
X044837Y005259D03*
X044837Y004550D03*
X045822Y004550D03*
X045920Y011243D03*
X045920Y011952D03*
X044739Y011952D03*
X044739Y011243D03*
X081747Y007227D03*
X081747Y006519D03*
X083243Y005101D03*
X083243Y004393D03*
D13*
X085103Y004215D03*
X088233Y004215D03*
X088233Y002444D03*
X085103Y002444D03*
D14*
X082121Y004511D03*
X081373Y004511D03*
X081747Y005337D03*
D15*
X054000Y024385D03*
X053690Y024385D03*
X053370Y024385D03*
X053060Y024385D03*
X052740Y024385D03*
X052430Y024385D03*
X052110Y024385D03*
X051800Y024385D03*
X051480Y024385D03*
X051170Y024385D03*
X050850Y024385D03*
X050540Y024385D03*
X050220Y024385D03*
X049910Y024385D03*
X049590Y024385D03*
X049280Y024385D03*
X049280Y030385D03*
X049590Y030385D03*
X049910Y030385D03*
X050220Y030385D03*
X050540Y030385D03*
X050850Y030385D03*
X051170Y030385D03*
X051480Y030385D03*
X051800Y030385D03*
X052110Y030385D03*
X052430Y030385D03*
X052740Y030385D03*
X053060Y030385D03*
X053370Y030385D03*
X053690Y030385D03*
X054000Y030385D03*
D16*
X054640Y029745D03*
X054640Y029435D03*
X054640Y029115D03*
X054640Y028805D03*
X054640Y028485D03*
X054640Y028175D03*
X054640Y027855D03*
X054640Y027545D03*
X054640Y027225D03*
X054640Y026915D03*
X054640Y026595D03*
X054640Y026285D03*
X054640Y025965D03*
X054640Y025655D03*
X054640Y025335D03*
X054640Y025025D03*
X048640Y025025D03*
X048640Y025335D03*
X048640Y025655D03*
X048640Y025965D03*
X048640Y026285D03*
X048640Y026595D03*
X048640Y026915D03*
X048640Y027225D03*
X048640Y027545D03*
X048640Y027855D03*
X048640Y028175D03*
X048640Y028485D03*
X048640Y028805D03*
X048640Y029115D03*
X048640Y029435D03*
X048640Y029745D03*
D17*
X040211Y013172D03*
X041392Y013172D03*
X041392Y014353D03*
X040211Y014353D03*
X040211Y015534D03*
X041392Y015534D03*
X041392Y024196D03*
X040211Y024196D03*
X040211Y025377D03*
X041392Y025377D03*
X041392Y026558D03*
X040211Y026558D03*
D18*
X076018Y023231D03*
X077633Y023231D03*
D19*
X078991Y021735D03*
X078991Y020121D03*
X071825Y014314D03*
X071825Y012700D03*
D20*
X073656Y012503D03*
X073656Y014511D03*
D21*
X076471Y020672D03*
X077495Y020672D03*
X077495Y021046D03*
X077495Y021420D03*
X076471Y021420D03*
X065940Y024589D03*
X064916Y024589D03*
X064916Y024963D03*
X064916Y025337D03*
X065940Y025337D03*
X046629Y009609D03*
X046629Y009235D03*
X046629Y008861D03*
X045605Y008861D03*
X045605Y009609D03*
D22*
X048105Y003566D03*
X059306Y010023D03*
X079955Y017641D03*
X072298Y034038D03*
X067967Y034038D03*
X063636Y034038D03*
D23*
X062731Y031774D03*
X064542Y031774D03*
X067062Y031774D03*
X068873Y031774D03*
X071392Y031774D03*
X073203Y031774D03*
X079050Y015377D03*
X080861Y015377D03*
X060211Y007759D03*
X058400Y007759D03*
X049010Y005830D03*
X047199Y005830D03*
D24*
X054699Y005967D03*
X056904Y005967D03*
D25*
X059148Y012778D03*
X060251Y012778D03*
X060251Y014353D03*
X059148Y014353D03*
X059148Y015928D03*
X060251Y015928D03*
D26*
X055422Y010080D03*
X055422Y009883D03*
X055422Y009686D03*
X055422Y009489D03*
X055422Y009292D03*
X053741Y009292D03*
X053741Y009489D03*
X053741Y009686D03*
X053741Y009883D03*
X053741Y010080D03*
D27*
X046451Y025465D03*
X044680Y025465D03*
X044680Y028595D03*
X046451Y028595D03*
D28*
X067583Y025928D03*
X067839Y025928D03*
X068095Y025928D03*
X068351Y025928D03*
X068351Y024038D03*
X068095Y024038D03*
X067839Y024038D03*
X067583Y024038D03*
D29*
X067672Y015141D03*
X069148Y015141D03*
X066196Y015141D03*
X064719Y015141D03*
X063243Y015141D03*
X063243Y006215D03*
X064719Y006215D03*
X066196Y006215D03*
X067672Y006215D03*
X069148Y006215D03*
D30*
X043755Y005456D03*
X043755Y004353D03*
X043558Y011046D03*
X043558Y012149D03*
M02*
