%
M48
M72
T01C0.0157
T02C0.0236
T03C0.0240
T04C0.0315
T05C0.0394
T06C0.0400
T07C0.0470
T08C0.0787
T09C0.0790
%
T01
X47495Y8841
X48282Y9629
X49857Y7267
X49857Y6479
X52810Y9432
X61274Y13566
X61274Y15141
X76629Y22030
X80959Y23999
X72298Y27739
X70329Y27739
X69503Y27542
X68833Y25928
X67377Y25141
X53597Y28723
X66392Y31676
X70329Y31676
X57731Y35613
T02
X51570Y28389
X50388Y27109
X57731Y23015
X57021Y18760
X61834Y14197
X72731Y11302
T03
X74385Y10259
X77810Y11243
X82810Y5534
X80566Y2975
X52652Y10219
X53203Y13566
X50644Y19432
X51038Y19826
X52967Y22975
X55133Y23920
X53479Y25023
X52967Y25023
X55762Y25416
X58912Y25731
X59739Y26558
X61589Y25377
X64345Y25810
X66196Y25849
X67731Y26676
X67770Y24668
X58991Y22227
X56274Y27188
X53282Y29038
X50566Y29786
X50211Y28920
X47731Y28841
X47140Y29511
X46589Y29471
X48046Y30416
X50251Y30967
X52298Y30967
X56117Y31991
X57377Y31597
X62101Y31597
X58912Y34786
X51196Y35219
X48991Y37857
X46196Y27975
X47731Y27227
T04
X45920Y21440
X62534Y24196
X62633Y26263
X65900Y18428
X77711Y18428
X82928Y6086
X43656Y6774
X43558Y9629
X57337Y37975
X58125Y37975
X58912Y37975
X59699Y37975
X60487Y37975
T05
X63243Y37188
X64030Y37188
X66786Y37188
X67573Y37188
X70329Y37188
X71117Y37188
T06
X78991Y36920
X78991Y35920
X78991Y34920
X78991Y33920
X78991Y32920
X78991Y31920
X78991Y30920
X78991Y29920
X78991Y28920
X78991Y37920
X48314Y37786
X47314Y37786
X46314Y37786
X45314Y37786
X44314Y37786
X44314Y36786
X45314Y36786
X46314Y36786
X47314Y36786
X48314Y36786
X41983Y36920
X41983Y35920
X41983Y34920
X41983Y33920
X41983Y32920
X41983Y31920
X41983Y30920
X41983Y29920
X41983Y28920
X41983Y37920
X41983Y10755
X41983Y9755
X41983Y8755
X41983Y7755
X41983Y6755
X41983Y5755
X41983Y4755
X41983Y3755
X41983Y2755
X41983Y1755
X78991Y1755
X78991Y2755
X78991Y3755
X78991Y4755
X78991Y5755
X78991Y6755
X78991Y7755
X78991Y8755
X78991Y9755
X78991Y10755
X81869Y3050
X81869Y2050
T07
X63046Y2436
X61077Y2436
T08
X40005Y17265
X43755Y18015
X43755Y19865
X43755Y21715
X40005Y22465
T09
X88026Y25837
X88026Y29837
X88046Y13991
X88046Y9991
M30
