G75*
G70*
%OFA0B0*%
%FSLAX24Y24*%
%IPPOS*%
%LPD*%
%AMOC8*
5,1,8,0,0,1.08239X$1,22.5*
%
%ADD10C,0.0030*%
%ADD11C,0.0050*%
%ADD12R,0.0600X0.1260*%
%ADD13C,0.0040*%
D10*
X043227Y005977D02*
X043227Y006170D01*
X043420Y006170D02*
X043420Y005977D01*
X043323Y005880D01*
X043227Y005977D01*
X043521Y005977D02*
X043521Y005928D01*
X043570Y005880D01*
X043666Y005880D01*
X043715Y005928D01*
X043814Y005928D02*
X043814Y005880D01*
X043862Y005880D01*
X043862Y005928D01*
X043814Y005928D01*
X043963Y005928D02*
X044012Y005880D01*
X044108Y005880D01*
X044157Y005928D01*
X044060Y006025D02*
X044012Y006025D01*
X043963Y005977D01*
X043963Y005928D01*
X044012Y006025D02*
X043963Y006074D01*
X043963Y006122D01*
X044012Y006170D01*
X044108Y006170D01*
X044157Y006122D01*
X043715Y006122D02*
X043666Y006170D01*
X043570Y006170D01*
X043521Y006122D01*
X043521Y006074D01*
X043570Y006025D01*
X043521Y005977D01*
X043570Y006025D02*
X043618Y006025D01*
X043692Y008734D02*
X043789Y008734D01*
X043837Y008783D01*
X043837Y008879D02*
X043741Y008928D01*
X043692Y008928D01*
X043644Y008879D01*
X043644Y008783D01*
X043692Y008734D01*
X043543Y008831D02*
X043446Y008734D01*
X043349Y008831D01*
X043349Y009025D01*
X043543Y009025D02*
X043543Y008831D01*
X043644Y009025D02*
X043837Y009025D01*
X043837Y008879D01*
X045661Y020545D02*
X045564Y020642D01*
X045564Y020836D01*
X045758Y020836D02*
X045758Y020642D01*
X045661Y020545D01*
X045859Y020545D02*
X046052Y020545D01*
X045859Y020739D01*
X045859Y020787D01*
X045907Y020836D01*
X046004Y020836D01*
X046052Y020787D01*
X046250Y020836D02*
X046250Y020545D01*
X046347Y020545D02*
X046153Y020545D01*
X046347Y020739D02*
X046250Y020836D01*
X061491Y025090D02*
X061684Y025090D01*
X061588Y025090D02*
X061588Y024800D01*
X061785Y024800D02*
X061979Y024800D01*
X061979Y025090D01*
X062079Y025090D02*
X062175Y025090D01*
X062127Y025090D02*
X062127Y024800D01*
X062175Y024800D02*
X062079Y024800D01*
X062373Y024945D02*
X062470Y024945D01*
X062470Y024800D02*
X062470Y025090D01*
X062277Y025090D01*
X062277Y025368D02*
X062470Y025368D01*
X062373Y025368D02*
X062373Y025658D01*
X062470Y025562D01*
X062571Y025658D02*
X062765Y025368D01*
X062866Y025513D02*
X062914Y025465D01*
X063060Y025465D01*
X063060Y025368D02*
X063060Y025658D01*
X062914Y025658D01*
X062866Y025610D01*
X062866Y025513D01*
X063161Y025513D02*
X063354Y025513D01*
X063354Y025562D02*
X063257Y025658D01*
X063161Y025562D01*
X063161Y025368D01*
X063354Y025368D02*
X063354Y025562D01*
X063455Y025610D02*
X063504Y025658D01*
X063600Y025658D01*
X063649Y025610D01*
X063649Y025417D01*
X063600Y025368D01*
X063504Y025368D01*
X063455Y025417D01*
X063503Y025090D02*
X063455Y025042D01*
X063455Y024945D01*
X063503Y024897D01*
X063649Y024897D01*
X063649Y024800D02*
X063649Y025090D01*
X063503Y025090D01*
X063354Y025090D02*
X063354Y024800D01*
X063257Y024897D01*
X063160Y024800D01*
X063160Y025090D01*
X063059Y025090D02*
X062963Y024994D01*
X062866Y025090D01*
X062866Y024800D01*
X062765Y024752D02*
X062571Y024752D01*
X063059Y024800D02*
X063059Y025090D01*
X062176Y025417D02*
X061982Y025610D01*
X061982Y025417D01*
X062030Y025368D01*
X062127Y025368D01*
X062176Y025417D01*
X062176Y025610D01*
X062127Y025658D01*
X062030Y025658D01*
X061982Y025610D01*
X061881Y025610D02*
X061833Y025658D01*
X061736Y025658D01*
X061687Y025610D01*
X061881Y025417D01*
X061833Y025368D01*
X061736Y025368D01*
X061687Y025417D01*
X061687Y025610D01*
X061881Y025610D02*
X061881Y025417D01*
X082621Y005433D02*
X082669Y005481D01*
X082766Y005481D01*
X082815Y005433D01*
X082815Y005385D01*
X082766Y005336D01*
X082669Y005336D01*
X082621Y005288D01*
X082621Y005239D01*
X082669Y005191D01*
X082766Y005191D01*
X082815Y005239D01*
X082914Y005191D02*
X083011Y005191D01*
X082963Y005191D02*
X082963Y005481D01*
X083011Y005481D02*
X082914Y005481D01*
X083112Y005433D02*
X083161Y005481D01*
X083306Y005481D01*
X083306Y005191D01*
X083161Y005191D01*
X083112Y005239D01*
X083112Y005433D01*
D11*
X072885Y034038D02*
X070485Y034038D01*
X070459Y034040D01*
X070433Y034045D01*
X070408Y034053D01*
X070385Y034065D01*
X070363Y034079D01*
X070344Y034097D01*
X070326Y034116D01*
X070312Y034138D01*
X070300Y034161D01*
X070292Y034186D01*
X070287Y034212D01*
X070285Y034238D01*
X070285Y036288D01*
X070287Y036314D01*
X070292Y036340D01*
X070300Y036365D01*
X070312Y036388D01*
X070326Y036410D01*
X070344Y036429D01*
X070363Y036447D01*
X070385Y036461D01*
X070408Y036473D01*
X070433Y036481D01*
X070459Y036486D01*
X070485Y036488D01*
X072885Y036488D01*
X072911Y036486D01*
X072937Y036481D01*
X072962Y036473D01*
X072985Y036461D01*
X073007Y036447D01*
X073026Y036429D01*
X073044Y036410D01*
X073058Y036388D01*
X073070Y036365D01*
X073078Y036340D01*
X073083Y036314D01*
X073085Y036288D01*
X073085Y034238D01*
X073083Y034212D01*
X073078Y034186D01*
X073070Y034161D01*
X073058Y034138D01*
X073044Y034116D01*
X073026Y034097D01*
X073007Y034079D01*
X072985Y034065D01*
X072962Y034053D01*
X072937Y034045D01*
X072911Y034040D01*
X072885Y034038D01*
X071585Y034538D02*
X071335Y034538D01*
X071335Y034788D01*
X071585Y034538D02*
X071585Y035288D01*
X070835Y035288D01*
X071585Y035288D02*
X072085Y034788D01*
X072085Y035288D01*
X072085Y035788D01*
X071585Y035288D01*
X071585Y036038D01*
X071835Y036038D01*
X071835Y035788D01*
X072085Y035288D02*
X072585Y035288D01*
X068361Y036288D02*
X068361Y034238D01*
X068359Y034212D01*
X068354Y034186D01*
X068346Y034161D01*
X068334Y034138D01*
X068320Y034116D01*
X068302Y034097D01*
X068283Y034079D01*
X068261Y034065D01*
X068238Y034053D01*
X068213Y034045D01*
X068187Y034040D01*
X068161Y034038D01*
X065761Y034038D01*
X065735Y034040D01*
X065709Y034045D01*
X065684Y034053D01*
X065661Y034065D01*
X065639Y034079D01*
X065620Y034097D01*
X065602Y034116D01*
X065588Y034138D01*
X065576Y034161D01*
X065568Y034186D01*
X065563Y034212D01*
X065561Y034238D01*
X065561Y036288D01*
X065563Y036314D01*
X065568Y036340D01*
X065576Y036365D01*
X065588Y036388D01*
X065602Y036410D01*
X065620Y036429D01*
X065639Y036447D01*
X065661Y036461D01*
X065684Y036473D01*
X065709Y036481D01*
X065735Y036486D01*
X065761Y036488D01*
X068161Y036488D01*
X068187Y036486D01*
X068213Y036481D01*
X068238Y036473D01*
X068261Y036461D01*
X068283Y036447D01*
X068302Y036429D01*
X068320Y036410D01*
X068334Y036388D01*
X068346Y036365D01*
X068354Y036340D01*
X068359Y036314D01*
X068361Y036288D01*
X067111Y036038D02*
X067111Y035788D01*
X067361Y035788D02*
X066861Y035288D01*
X066111Y035288D01*
X066611Y034788D02*
X066611Y034538D01*
X066861Y034538D01*
X066861Y035288D01*
X066861Y036038D01*
X067111Y036038D01*
X067361Y035788D02*
X067361Y035288D01*
X067361Y034788D01*
X066861Y035288D01*
X067361Y035288D02*
X067861Y035288D01*
D12*
X068261Y035263D03*
X070385Y035263D03*
X072985Y035263D03*
X065661Y035263D03*
D13*
X065732Y036558D02*
X065425Y036558D01*
X065118Y036558D02*
X065118Y036788D01*
X064965Y036942D01*
X064965Y037019D01*
X064811Y037019D02*
X064581Y037019D01*
X064504Y036942D01*
X064504Y036865D01*
X064581Y036788D01*
X064811Y036788D01*
X064811Y036558D02*
X064581Y036558D01*
X064504Y036635D01*
X064504Y036712D01*
X064581Y036788D01*
X064351Y036788D02*
X064044Y036788D01*
X064044Y036865D02*
X064044Y036558D01*
X063890Y036635D02*
X063814Y036558D01*
X063660Y036558D01*
X063584Y036635D01*
X063430Y036712D02*
X063123Y037019D01*
X063430Y037019D02*
X063430Y036558D01*
X063353Y036788D02*
X063123Y036558D01*
X063584Y036942D02*
X063660Y037019D01*
X063814Y037019D01*
X063890Y036942D01*
X063890Y036635D01*
X064044Y036865D02*
X064197Y037019D01*
X064351Y036865D01*
X064351Y036558D01*
X064811Y036558D02*
X064811Y037019D01*
X065118Y036788D02*
X065272Y036942D01*
X065272Y037019D01*
X065732Y037019D02*
X065732Y036558D01*
X066039Y036788D02*
X066192Y036788D01*
X066192Y036558D02*
X066192Y037019D01*
X065885Y037019D01*
X066806Y036942D02*
X066806Y036788D01*
X066883Y036712D01*
X067113Y036712D01*
X067113Y036558D02*
X067113Y037019D01*
X066883Y037019D01*
X066806Y036942D01*
X067267Y037019D02*
X067420Y037019D01*
X067343Y037019D02*
X067343Y036558D01*
X067267Y036558D02*
X067420Y036558D01*
X067574Y036558D02*
X067574Y037019D01*
X067574Y036788D02*
X067880Y036788D01*
X068078Y036788D02*
X067848Y036558D01*
X067880Y036558D02*
X067880Y037019D01*
X067848Y037019D02*
X068154Y036712D01*
X068034Y036635D02*
X068111Y036558D01*
X068264Y036558D01*
X068341Y036635D01*
X068341Y036942D01*
X068264Y037019D01*
X068111Y037019D01*
X068034Y036942D01*
X068154Y037019D02*
X068154Y036558D01*
X068308Y036635D02*
X068385Y036558D01*
X068538Y036558D01*
X068615Y036635D01*
X068615Y036942D01*
X068538Y037019D01*
X068385Y037019D01*
X068308Y036942D01*
X068768Y036865D02*
X068768Y036558D01*
X068768Y036788D02*
X069075Y036788D01*
X069075Y036865D02*
X068922Y037019D01*
X068768Y036865D01*
X069075Y036865D02*
X069075Y036558D01*
X069229Y036635D02*
X069305Y036558D01*
X069536Y036558D01*
X069536Y037019D01*
X069305Y037019D01*
X069229Y036942D01*
X069229Y036865D01*
X069305Y036788D01*
X069536Y036788D01*
X069689Y036942D02*
X069689Y037019D01*
X069689Y036942D02*
X069843Y036788D01*
X069843Y036558D01*
X069843Y036788D02*
X069996Y036942D01*
X069996Y037019D01*
X070456Y037019D02*
X070456Y036558D01*
X070149Y036558D01*
X070763Y036788D02*
X070917Y036788D01*
X070917Y036558D02*
X070917Y037019D01*
X070610Y037019D01*
X071531Y037019D02*
X071838Y036712D01*
X071761Y036788D02*
X071531Y036558D01*
X071377Y036482D02*
X071070Y036482D01*
X071838Y036558D02*
X071838Y037019D01*
X071991Y036942D02*
X072068Y037019D01*
X072221Y037019D01*
X072298Y036942D01*
X072298Y036635D01*
X072221Y036558D01*
X072068Y036558D01*
X071991Y036635D01*
X072451Y036558D02*
X072605Y036558D01*
X072528Y036558D02*
X072528Y037019D01*
X072605Y037019D02*
X072451Y037019D01*
X072758Y037019D02*
X073065Y036712D01*
X072989Y036788D02*
X072758Y036558D01*
X073065Y036558D02*
X073065Y037019D01*
X069305Y036788D02*
X069229Y036712D01*
X069229Y036635D01*
X066653Y036482D02*
X066346Y036482D01*
X066346Y033769D02*
X066653Y033769D01*
X066653Y033308D01*
X066346Y033308D01*
X066466Y033308D02*
X066773Y033308D01*
X066806Y033385D02*
X066883Y033308D01*
X067113Y033308D01*
X067113Y033769D01*
X066883Y033769D01*
X066806Y033692D01*
X066806Y033385D01*
X066927Y033308D02*
X067234Y033308D01*
X066927Y033615D01*
X066927Y033692D01*
X067003Y033769D01*
X067157Y033769D01*
X067234Y033692D01*
X067267Y033692D02*
X067343Y033769D01*
X067497Y033769D01*
X067574Y033692D01*
X067574Y033385D01*
X067497Y033308D01*
X067343Y033308D01*
X067267Y033385D01*
X067267Y033692D01*
X067387Y033692D02*
X067464Y033769D01*
X067617Y033769D01*
X067694Y033692D01*
X067694Y033385D01*
X067617Y033308D01*
X067464Y033308D01*
X067387Y033385D01*
X067387Y033692D01*
X067727Y033769D02*
X067880Y033769D01*
X067924Y033769D02*
X068154Y033769D01*
X068154Y033308D01*
X067924Y033308D01*
X067848Y033385D01*
X067848Y033692D01*
X067924Y033769D01*
X067804Y033769D02*
X067804Y033308D01*
X067880Y033308D02*
X067727Y033308D01*
X068034Y033385D02*
X068111Y033308D01*
X068341Y033308D01*
X068341Y033769D01*
X068111Y033769D01*
X068034Y033692D01*
X068034Y033385D01*
X068308Y033308D02*
X068461Y033462D01*
X068385Y033462D02*
X068615Y033462D01*
X068615Y033308D02*
X068615Y033769D01*
X068385Y033769D01*
X068308Y033692D01*
X068308Y033538D01*
X068385Y033462D01*
X068768Y033308D02*
X069075Y033308D01*
X069075Y033769D01*
X068768Y033769D01*
X068922Y033538D02*
X069075Y033538D01*
X069229Y033308D02*
X069229Y033769D01*
X069536Y033769D02*
X069229Y033308D01*
X069536Y033308D02*
X069536Y033769D01*
X069689Y033769D02*
X069996Y033769D01*
X069996Y033308D01*
X069689Y033308D01*
X069843Y033538D02*
X069996Y033538D01*
X070149Y033692D02*
X070456Y033385D01*
X070456Y033308D01*
X070149Y033308D01*
X070149Y033692D02*
X070149Y033769D01*
X070456Y033769D01*
X070610Y033538D02*
X070917Y033538D01*
X071070Y033308D02*
X071377Y033308D01*
X071377Y033769D01*
X071070Y033769D01*
X071224Y033538D02*
X071377Y033538D01*
X071531Y033385D02*
X071607Y033308D01*
X071838Y033308D01*
X071838Y033769D01*
X071607Y033769D01*
X071531Y033692D01*
X071531Y033385D01*
X071991Y033385D02*
X071991Y033692D01*
X072068Y033769D01*
X072221Y033769D01*
X072298Y033692D01*
X072298Y033385D01*
X072221Y033308D01*
X072068Y033308D01*
X071991Y033385D01*
X072451Y033308D02*
X072605Y033308D01*
X072528Y033308D02*
X072528Y033769D01*
X072605Y033769D02*
X072451Y033769D01*
X072758Y033692D02*
X072835Y033769D01*
X073065Y033769D01*
X073065Y033308D01*
X072835Y033308D01*
X072758Y033385D01*
X072758Y033692D01*
X066773Y033615D02*
X066620Y033769D01*
X066620Y033308D01*
X066653Y033538D02*
X066499Y033538D01*
X066313Y033538D02*
X066006Y033538D01*
X065885Y033538D02*
X066192Y033538D01*
X066313Y033538D02*
X066083Y033769D01*
X066083Y033308D01*
X065852Y033308D02*
X065852Y033615D01*
X065699Y033769D01*
X065546Y033615D01*
X065546Y033308D01*
X065425Y033308D02*
X065732Y033308D01*
X065732Y033385D01*
X065425Y033692D01*
X065425Y033769D01*
X065732Y033769D01*
X065852Y033538D02*
X065546Y033538D01*
X065392Y033538D02*
X065162Y033538D01*
X065085Y033462D01*
X065085Y033385D01*
X065162Y033308D01*
X065392Y033308D01*
X065392Y033769D01*
X065162Y033769D01*
X065085Y033692D01*
X065085Y033615D01*
X065162Y033538D01*
X065118Y033538D02*
X065272Y033538D01*
X065272Y033308D02*
X065272Y033769D01*
X064965Y033769D01*
X064811Y033769D02*
X064504Y033308D01*
X064504Y033769D01*
X064351Y033769D02*
X064351Y033308D01*
X064044Y033308D01*
X063890Y033308D02*
X063890Y033769D01*
X063660Y033769D01*
X063584Y033692D01*
X063584Y033538D01*
X063660Y033462D01*
X063890Y033462D01*
X063737Y033462D02*
X063584Y033308D01*
X063430Y033308D02*
X063200Y033308D01*
X063123Y033385D01*
X063123Y033692D01*
X063200Y033769D01*
X063430Y033769D01*
X063430Y033308D01*
X062970Y033385D02*
X062893Y033308D01*
X062739Y033308D01*
X062663Y033385D01*
X062663Y033692D01*
X062739Y033769D01*
X062893Y033769D01*
X062970Y033692D01*
X062970Y033385D01*
X062509Y033308D02*
X062202Y033615D01*
X062202Y033692D01*
X062279Y033769D01*
X062433Y033769D01*
X062509Y033692D01*
X062509Y033308D02*
X062202Y033308D01*
X062049Y033308D02*
X061742Y033308D01*
X061895Y033308D02*
X061895Y033769D01*
X062049Y033615D01*
X061588Y033538D02*
X061282Y033538D01*
X061128Y033538D02*
X060821Y033538D01*
X060821Y033615D02*
X060821Y033308D01*
X060668Y033308D02*
X060437Y033308D01*
X060361Y033385D01*
X060361Y033462D01*
X060437Y033538D01*
X060668Y033538D01*
X060821Y033615D02*
X060975Y033769D01*
X061128Y033615D01*
X061128Y033308D01*
X061358Y033308D02*
X061358Y033769D01*
X061588Y033538D01*
X060668Y033308D02*
X060668Y033769D01*
X060437Y033769D01*
X060361Y033692D01*
X060361Y033615D01*
X060437Y033538D01*
X064044Y033769D02*
X064351Y033769D01*
X064351Y033538D02*
X064197Y033538D01*
X064811Y033308D02*
X064811Y033769D01*
X064965Y033308D02*
X065272Y033308D01*
M02*
