G75*
G70*
%OFA0B0*%
%FSLAX24Y24*%
%IPPOS*%
%LPD*%
%AMOC8*
5,1,8,0,0,1.08239X$1,22.5*
%
%ADD10C,0.0820*%
%ADD11C,0.0785*%
%ADD12C,0.0680*%
%ADD13C,0.1890*%
%ADD14OC8,0.1890*%
%ADD15OC8,0.0820*%
%ADD16R,0.1380X0.1380*%
%ADD17R,0.1261X0.1261*%
%ADD18R,0.0595X0.0595*%
%ADD19C,0.0595*%
%ADD20R,0.1080X0.1480*%
%ADD21C,0.0674*%
%ADD22R,0.0674X0.0674*%
%ADD23R,0.0476X0.0476*%
%ADD24C,0.0397*%
%ADD25C,0.0480*%
%ADD26C,0.0476*%
D10*
X041983Y001755D03*
X041983Y002755D03*
X041983Y003755D03*
X041983Y004755D03*
X041983Y005755D03*
X041983Y006755D03*
X041983Y007755D03*
X041983Y008755D03*
X041983Y009755D03*
X041983Y010755D03*
X078991Y010755D03*
X078991Y009755D03*
X078991Y008755D03*
X078991Y007755D03*
X078991Y006755D03*
X078991Y005755D03*
X078991Y004755D03*
X078991Y003755D03*
X078991Y002755D03*
X078991Y001755D03*
X078991Y028920D03*
X078991Y029920D03*
X078991Y030920D03*
X078991Y031920D03*
X078991Y032920D03*
X078991Y033920D03*
X078991Y034920D03*
X078991Y035920D03*
X078991Y036920D03*
X078991Y037920D03*
X041983Y037920D03*
X041983Y036920D03*
X041983Y035920D03*
X041983Y034920D03*
X041983Y033920D03*
X041983Y032920D03*
X041983Y031920D03*
X041983Y030920D03*
X041983Y029920D03*
X041983Y028920D03*
D11*
X061077Y002788D02*
X061077Y002083D01*
X063046Y002083D02*
X063046Y002788D01*
D12*
X081569Y003050D02*
X082169Y003050D01*
X082169Y002050D02*
X081569Y002050D01*
D13*
X088046Y009991D03*
X088026Y025837D03*
D14*
X088026Y029837D03*
X088046Y013991D03*
D15*
X048314Y036786D03*
X047314Y036786D03*
X046314Y036786D03*
X045314Y036786D03*
X044314Y036786D03*
X044314Y037786D03*
X045314Y037786D03*
X046314Y037786D03*
X047314Y037786D03*
X048314Y037786D03*
D16*
X043755Y021715D03*
X043755Y019865D03*
X043755Y018015D03*
D17*
X040005Y017265D03*
X040005Y022465D03*
D18*
X065900Y018428D03*
X077711Y018428D03*
X057337Y037975D03*
D19*
X058125Y037975D03*
X058912Y037975D03*
X059699Y037975D03*
X060487Y037975D03*
X062633Y026263D03*
X062534Y024196D03*
X045920Y021440D03*
X043558Y009629D03*
X043656Y006774D03*
X082928Y006086D03*
D20*
X073085Y035263D03*
X070285Y035263D03*
X068361Y035263D03*
X065561Y035263D03*
D21*
X064030Y037188D03*
X067573Y037188D03*
X071117Y037188D03*
D22*
X070329Y037188D03*
X066786Y037188D03*
X063243Y037188D03*
D23*
X051570Y028389D03*
X050388Y027109D03*
X057731Y023015D03*
X057021Y018760D03*
X072731Y011302D03*
D24*
X061274Y013566D03*
X061274Y015141D03*
X052810Y009432D03*
X049857Y007267D03*
X049857Y006479D03*
X047495Y008841D03*
X048282Y009629D03*
X076629Y022030D03*
X080959Y023999D03*
X072298Y027739D03*
X070329Y027739D03*
X069503Y027542D03*
X068833Y025928D03*
X067377Y025141D03*
X053597Y028723D03*
X066392Y031676D03*
X070329Y031676D03*
X057731Y035613D03*
D25*
X058912Y034786D03*
X056117Y031991D03*
X057377Y031597D03*
X062101Y031597D03*
X053282Y029038D03*
X050566Y029786D03*
X050211Y028920D03*
X047731Y028841D03*
X047140Y029511D03*
X046589Y029471D03*
X048046Y030416D03*
X050251Y030967D03*
X052298Y030967D03*
X046196Y027975D03*
X047731Y027227D03*
X052967Y025023D03*
X053479Y025023D03*
X055762Y025416D03*
X058912Y025731D03*
X059739Y026558D03*
X061589Y025377D03*
X064345Y025810D03*
X066196Y025849D03*
X067731Y026676D03*
X067770Y024668D03*
X058991Y022227D03*
X055133Y023920D03*
X052967Y022975D03*
X051038Y019826D03*
X050644Y019432D03*
X053203Y013566D03*
X052652Y010219D03*
X074385Y010259D03*
X077810Y011243D03*
X082810Y005534D03*
X080566Y002975D03*
X056274Y027188D03*
X051196Y035219D03*
X048991Y037857D03*
D26*
X061834Y014197D03*
M02*
