G75*
G70*
%OFA0B0*%
%FSLAX24Y24*%
%IPPOS*%
%LPD*%
%AMOC8*
5,1,8,0,0,1.08239X$1,22.5*
%
%ADD10C,0.0820*%
%ADD11R,0.0395X0.0552*%
%ADD12R,0.0340X0.0880*%
%ADD13R,0.0552X0.0395*%
%ADD14R,0.0690X0.0592*%
%ADD15C,0.0785*%
%ADD16C,0.0680*%
%ADD17R,0.0395X0.0434*%
%ADD18R,0.0280X0.0660*%
%ADD19R,0.0660X0.0280*%
%ADD20C,0.1890*%
%ADD21OC8,0.1890*%
%ADD22R,0.0552X0.0631*%
%ADD23OC8,0.0820*%
%ADD24R,0.1380X0.1380*%
%ADD25R,0.1261X0.1261*%
%ADD26R,0.0789X0.0749*%
%ADD27R,0.0749X0.0789*%
%ADD28R,0.0946X0.0789*%
%ADD29R,0.0552X0.0297*%
%ADD30R,0.0595X0.0595*%
%ADD31R,0.2718X0.2718*%
%ADD32R,0.0710X0.1261*%
%ADD33C,0.0595*%
%ADD34R,0.0789X0.1340*%
%ADD35R,0.0710X0.0789*%
%ADD36R,0.0462X0.0202*%
%ADD37R,0.0592X0.0690*%
%ADD38R,0.0257X0.0671*%
%ADD39C,0.0674*%
%ADD40R,0.0674X0.0674*%
%ADD41R,0.0678X0.1230*%
%ADD42R,0.0789X0.0710*%
%ADD43R,0.0476X0.0476*%
%ADD44C,0.0397*%
%ADD45C,0.0480*%
%ADD46C,0.0476*%
D10*
X041983Y001755D03*
X041983Y002755D03*
X041983Y003755D03*
X041983Y004755D03*
X041983Y005755D03*
X041983Y006755D03*
X041983Y007755D03*
X041983Y008755D03*
X041983Y009755D03*
X041983Y010755D03*
X078991Y010755D03*
X078991Y009755D03*
X078991Y008755D03*
X078991Y007755D03*
X078991Y006755D03*
X078991Y005755D03*
X078991Y004755D03*
X078991Y003755D03*
X078991Y002755D03*
X078991Y001755D03*
X078991Y028920D03*
X078991Y029920D03*
X078991Y030920D03*
X078991Y031920D03*
X078991Y032920D03*
X078991Y033920D03*
X078991Y034920D03*
X078991Y035920D03*
X078991Y036920D03*
X078991Y037920D03*
X041983Y037920D03*
X041983Y036920D03*
X041983Y035920D03*
X041983Y034920D03*
X041983Y033920D03*
X041983Y032920D03*
X041983Y031920D03*
X041983Y030920D03*
X041983Y029920D03*
X041983Y028920D03*
D11*
X043203Y028920D03*
X043912Y028920D03*
X043912Y029904D03*
X043203Y029904D03*
X043203Y030889D03*
X043912Y030889D03*
X043518Y026558D03*
X042810Y026558D03*
X042810Y025377D03*
X043518Y025377D03*
X043518Y024196D03*
X042810Y024196D03*
X053440Y023015D03*
X054148Y023015D03*
X062298Y024983D03*
X063007Y024983D03*
X064857Y026046D03*
X065566Y026046D03*
X069188Y025377D03*
X069896Y025377D03*
X069896Y024589D03*
X069188Y024589D03*
X073125Y026164D03*
X073833Y026164D03*
X075014Y021125D03*
X075723Y021125D03*
X056999Y028235D03*
X056290Y028235D03*
X057255Y029979D03*
X057963Y029979D03*
X058085Y034432D03*
X057377Y034432D03*
X067613Y031676D03*
X068322Y031676D03*
X071944Y031676D03*
X072652Y031676D03*
X043912Y015534D03*
X043203Y015534D03*
X043597Y014353D03*
X044306Y014353D03*
X044385Y013172D03*
X045093Y013172D03*
X045762Y010416D03*
X046471Y010416D03*
X052987Y008586D03*
X053696Y008586D03*
X056510Y009452D03*
X057219Y009452D03*
X057219Y010397D03*
X056510Y010397D03*
X054038Y002448D03*
X053329Y002448D03*
D12*
X070760Y024561D03*
X071260Y024561D03*
X071760Y024561D03*
X072260Y024561D03*
X072260Y026981D03*
X071760Y026981D03*
X071260Y026981D03*
X070760Y026981D03*
D13*
X066550Y025318D03*
X066550Y024609D03*
X063833Y024550D03*
X063833Y023841D03*
X061274Y023841D03*
X061274Y024550D03*
X063814Y025337D03*
X063814Y026046D03*
X058518Y022582D03*
X058518Y021873D03*
X058518Y021007D03*
X058518Y020298D03*
X056510Y026007D03*
X055723Y026007D03*
X055723Y026715D03*
X056510Y026715D03*
X056455Y029334D03*
X056455Y030042D03*
X047219Y028566D03*
X047219Y027857D03*
X056550Y035259D03*
X056550Y035967D03*
X058912Y035967D03*
X058912Y035259D03*
X080054Y023349D03*
X080881Y023369D03*
X080881Y022660D03*
X080054Y022641D03*
X055192Y008723D03*
X054404Y008723D03*
X054404Y008015D03*
X055192Y008015D03*
X045822Y005259D03*
X044837Y005259D03*
X044837Y004550D03*
X045822Y004550D03*
X045920Y011243D03*
X045920Y011952D03*
X044739Y011952D03*
X044739Y011243D03*
X081747Y007227D03*
X081747Y006519D03*
X083243Y005101D03*
X083243Y004393D03*
D14*
X085103Y004215D03*
X088233Y004215D03*
X088233Y002444D03*
X085103Y002444D03*
D15*
X063046Y002083D02*
X063046Y002788D01*
X061077Y002788D02*
X061077Y002083D01*
D16*
X081569Y002050D02*
X082169Y002050D01*
X082169Y003050D02*
X081569Y003050D01*
D17*
X081373Y004511D03*
X082121Y004511D03*
X081747Y005337D03*
D18*
X054000Y024385D03*
X053690Y024385D03*
X053370Y024385D03*
X053060Y024385D03*
X052740Y024385D03*
X052430Y024385D03*
X052110Y024385D03*
X051800Y024385D03*
X051480Y024385D03*
X051170Y024385D03*
X050850Y024385D03*
X050540Y024385D03*
X050220Y024385D03*
X049910Y024385D03*
X049590Y024385D03*
X049280Y024385D03*
X049280Y030385D03*
X049590Y030385D03*
X049910Y030385D03*
X050220Y030385D03*
X050540Y030385D03*
X050850Y030385D03*
X051170Y030385D03*
X051480Y030385D03*
X051800Y030385D03*
X052110Y030385D03*
X052430Y030385D03*
X052740Y030385D03*
X053060Y030385D03*
X053370Y030385D03*
X053690Y030385D03*
X054000Y030385D03*
D19*
X054640Y029745D03*
X054640Y029435D03*
X054640Y029115D03*
X054640Y028805D03*
X054640Y028485D03*
X054640Y028175D03*
X054640Y027855D03*
X054640Y027545D03*
X054640Y027225D03*
X054640Y026915D03*
X054640Y026595D03*
X054640Y026285D03*
X054640Y025965D03*
X054640Y025655D03*
X054640Y025335D03*
X054640Y025025D03*
X048640Y025025D03*
X048640Y025335D03*
X048640Y025655D03*
X048640Y025965D03*
X048640Y026285D03*
X048640Y026595D03*
X048640Y026915D03*
X048640Y027225D03*
X048640Y027545D03*
X048640Y027855D03*
X048640Y028175D03*
X048640Y028485D03*
X048640Y028805D03*
X048640Y029115D03*
X048640Y029435D03*
X048640Y029745D03*
D20*
X088026Y025837D03*
X088046Y009991D03*
D21*
X088046Y013991D03*
X088026Y029837D03*
D22*
X040211Y013172D03*
X041392Y013172D03*
X041392Y014353D03*
X040211Y014353D03*
X040211Y015534D03*
X041392Y015534D03*
X041392Y024196D03*
X040211Y024196D03*
X040211Y025377D03*
X041392Y025377D03*
X041392Y026558D03*
X040211Y026558D03*
D23*
X044314Y036786D03*
X045314Y036786D03*
X046314Y036786D03*
X047314Y036786D03*
X048314Y036786D03*
X048314Y037786D03*
X047314Y037786D03*
X046314Y037786D03*
X045314Y037786D03*
X044314Y037786D03*
D24*
X043755Y021715D03*
X043755Y019865D03*
X043755Y018015D03*
D25*
X040005Y017265D03*
X040005Y022465D03*
D26*
X076018Y023231D03*
X077633Y023231D03*
D27*
X078991Y021735D03*
X078991Y020121D03*
X071825Y014314D03*
X071825Y012700D03*
D28*
X073656Y012503D03*
X073656Y014511D03*
D29*
X076471Y020672D03*
X077495Y020672D03*
X077495Y021046D03*
X077495Y021420D03*
X076471Y021420D03*
X065940Y024589D03*
X064916Y024589D03*
X064916Y024963D03*
X064916Y025337D03*
X065940Y025337D03*
X046629Y009609D03*
X046629Y009235D03*
X046629Y008861D03*
X045605Y008861D03*
X045605Y009609D03*
D30*
X065900Y018428D03*
X077711Y018428D03*
X057337Y037975D03*
D31*
X063636Y034038D03*
X067967Y034038D03*
X072298Y034038D03*
X079955Y017641D03*
X059306Y010023D03*
X048105Y003566D03*
D32*
X049010Y005830D03*
X047199Y005830D03*
X058400Y007759D03*
X060211Y007759D03*
X079050Y015377D03*
X080861Y015377D03*
X073203Y031774D03*
X071392Y031774D03*
X068873Y031774D03*
X067062Y031774D03*
X064542Y031774D03*
X062731Y031774D03*
D33*
X062633Y026263D03*
X062534Y024196D03*
X045920Y021440D03*
X043558Y009629D03*
X043656Y006774D03*
X082928Y006086D03*
X060487Y037975D03*
X059699Y037975D03*
X058912Y037975D03*
X058125Y037975D03*
D34*
X056904Y005967D03*
X054699Y005967D03*
D35*
X059148Y012778D03*
X060251Y012778D03*
X060251Y014353D03*
X059148Y014353D03*
X059148Y015928D03*
X060251Y015928D03*
D36*
X055422Y010080D03*
X055422Y009883D03*
X055422Y009686D03*
X055422Y009489D03*
X055422Y009292D03*
X053741Y009292D03*
X053741Y009489D03*
X053741Y009686D03*
X053741Y009883D03*
X053741Y010080D03*
D37*
X046451Y025465D03*
X044680Y025465D03*
X044680Y028595D03*
X046451Y028595D03*
D38*
X067583Y025928D03*
X067839Y025928D03*
X068095Y025928D03*
X068351Y025928D03*
X068351Y024038D03*
X068095Y024038D03*
X067839Y024038D03*
X067583Y024038D03*
D39*
X067573Y037188D03*
X064030Y037188D03*
X071117Y037188D03*
D40*
X070329Y037188D03*
X066786Y037188D03*
X063243Y037188D03*
D41*
X063243Y015141D03*
X064719Y015141D03*
X066196Y015141D03*
X067672Y015141D03*
X069148Y015141D03*
X069148Y006215D03*
X067672Y006215D03*
X066196Y006215D03*
X064719Y006215D03*
X063243Y006215D03*
D42*
X043755Y005456D03*
X043755Y004353D03*
X043558Y011046D03*
X043558Y012149D03*
D43*
X057021Y018760D03*
X057731Y023015D03*
X050388Y027109D03*
X051570Y028389D03*
X072731Y011302D03*
D44*
X061274Y013566D03*
X061274Y015141D03*
X052810Y009432D03*
X049857Y007267D03*
X049857Y006479D03*
X047495Y008841D03*
X048282Y009629D03*
X076629Y022030D03*
X080959Y023999D03*
X072298Y027739D03*
X070329Y027739D03*
X069503Y027542D03*
X068833Y025928D03*
X067377Y025141D03*
X053597Y028723D03*
X066392Y031676D03*
X070329Y031676D03*
X057731Y035613D03*
D45*
X058912Y034786D03*
X056117Y031991D03*
X057377Y031597D03*
X062101Y031597D03*
X053282Y029038D03*
X050566Y029786D03*
X050211Y028920D03*
X047731Y028841D03*
X047140Y029511D03*
X046589Y029471D03*
X048046Y030416D03*
X050251Y030967D03*
X052298Y030967D03*
X046196Y027975D03*
X047731Y027227D03*
X052967Y025023D03*
X053479Y025023D03*
X055762Y025416D03*
X058912Y025731D03*
X059739Y026558D03*
X061589Y025377D03*
X064345Y025810D03*
X066196Y025849D03*
X067731Y026676D03*
X067770Y024668D03*
X058991Y022227D03*
X055133Y023920D03*
X052967Y022975D03*
X051038Y019826D03*
X050644Y019432D03*
X053203Y013566D03*
X052652Y010219D03*
X074385Y010259D03*
X077810Y011243D03*
X082810Y005534D03*
X080566Y002975D03*
X056274Y027188D03*
X051196Y035219D03*
X048991Y037857D03*
D46*
X061834Y014197D03*
M02*
