G75*
G70*
%OFA0B0*%
%FSLAX24Y24*%
%IPPOS*%
%LPD*%
%AMOC8*
5,1,8,0,0,1.08239X$1,22.5*
%
%ADD10C,0.0740*%
%ADD11C,0.0705*%
%ADD12C,0.0600*%
%ADD13C,0.1810*%
%ADD14OC8,0.1810*%
%ADD15OC8,0.0740*%
%ADD16R,0.1300X0.1300*%
%ADD17R,0.1181X0.1181*%
%ADD18R,0.0515X0.0515*%
%ADD19C,0.0515*%
%ADD20R,0.1000X0.1400*%
%ADD21C,0.0594*%
%ADD22R,0.0594X0.0594*%
%ADD23R,0.0396X0.0396*%
%ADD24C,0.1000*%
%ADD25C,0.0657*%
%ADD26C,0.0317*%
%ADD27C,0.0150*%
%ADD28C,0.0400*%
%ADD29C,0.1500*%
%ADD30C,0.2540*%
%ADD31C,0.0760*%
%ADD32C,0.0100*%
%ADD33C,0.0240*%
%ADD34C,0.0660*%
%ADD35C,0.0396*%
%ADD36C,0.2539*%
%ADD37C,0.0320*%
%ADD38C,0.0157*%
%ADD39C,0.0160*%
%ADD40C,0.0400*%
D10*
X041983Y001755D03*
X041983Y002755D03*
X041983Y003755D03*
X041983Y004755D03*
X041983Y005755D03*
X041983Y006755D03*
X041983Y007755D03*
X041983Y008755D03*
X041983Y009755D03*
X041983Y010755D03*
X078991Y010755D03*
X078991Y009755D03*
X078991Y008755D03*
X078991Y007755D03*
X078991Y006755D03*
X078991Y005755D03*
X078991Y004755D03*
X078991Y003755D03*
X078991Y002755D03*
X078991Y001755D03*
X078991Y028920D03*
X078991Y029920D03*
X078991Y030920D03*
X078991Y031920D03*
X078991Y032920D03*
X078991Y033920D03*
X078991Y034920D03*
X078991Y035920D03*
X078991Y036920D03*
X078991Y037920D03*
X041983Y037920D03*
X041983Y036920D03*
X041983Y035920D03*
X041983Y034920D03*
X041983Y033920D03*
X041983Y032920D03*
X041983Y031920D03*
X041983Y030920D03*
X041983Y029920D03*
X041983Y028920D03*
D11*
X061077Y002788D02*
X061077Y002083D01*
X063046Y002083D02*
X063046Y002788D01*
D12*
X081569Y003050D02*
X082169Y003050D01*
X082169Y002050D02*
X081569Y002050D01*
D13*
X088046Y009991D03*
X088026Y025837D03*
D14*
X088026Y029837D03*
X088046Y013991D03*
D15*
X048314Y036786D03*
X047314Y036786D03*
X046314Y036786D03*
X045314Y036786D03*
X044314Y036786D03*
X044314Y037786D03*
X045314Y037786D03*
X046314Y037786D03*
X047314Y037786D03*
X048314Y037786D03*
D16*
X043755Y021715D03*
X043755Y019865D03*
X043755Y018015D03*
D17*
X040005Y017265D03*
X040005Y022465D03*
D18*
X065900Y018428D03*
X077711Y018428D03*
X057337Y037975D03*
D19*
X058125Y037975D03*
X058912Y037975D03*
X059699Y037975D03*
X060487Y037975D03*
X062633Y026263D03*
X062534Y024196D03*
X045920Y021440D03*
X043558Y009629D03*
X043656Y006774D03*
X082928Y006086D03*
D20*
X073085Y035263D03*
X070285Y035263D03*
X068361Y035263D03*
X065561Y035263D03*
D21*
X064030Y037188D03*
X067573Y037188D03*
X071117Y037188D03*
D22*
X070329Y037188D03*
X066786Y037188D03*
X063243Y037188D03*
D23*
X051570Y028389D03*
X050388Y027109D03*
X057731Y023015D03*
X057021Y018760D03*
X072731Y011302D03*
D24*
X078991Y010755D02*
X078991Y009755D01*
X078991Y008755D01*
X078991Y007755D01*
X061077Y002436D02*
X060971Y002542D01*
X060093Y002542D01*
X049857Y006479D02*
X049857Y007267D01*
X049857Y008054D02*
X051235Y009432D01*
X052810Y009432D01*
X048282Y009629D02*
X047495Y008841D01*
X057731Y023015D02*
X054916Y025042D01*
X051570Y028389D01*
X051510Y028448D01*
X051510Y028231D01*
X050388Y027109D01*
X051510Y028448D02*
X051510Y032247D01*
X051491Y032267D01*
X065561Y035263D02*
X067180Y033645D01*
X070329Y033645D01*
X071510Y033645D01*
X073873Y031282D01*
X070329Y033645D02*
X070285Y033689D01*
X070285Y035263D01*
D25*
X057731Y035613D02*
X057337Y035219D01*
X051629Y035219D01*
X051491Y035082D01*
X051491Y032267D01*
D26*
X057731Y035613D03*
X066392Y031676D03*
X070329Y031676D03*
X070329Y027739D03*
X069503Y027542D03*
X072298Y027739D03*
X068833Y025928D03*
X067377Y025141D03*
X076629Y022030D03*
X080959Y023999D03*
X061274Y015141D03*
X061274Y013566D03*
X052810Y009432D03*
X049857Y007267D03*
X049857Y006479D03*
X047495Y008841D03*
X048282Y009629D03*
X053597Y028723D03*
D27*
X053282Y029038D02*
X053282Y032030D01*
X055959Y034708D01*
X057534Y034708D01*
X058243Y035416D01*
X058243Y037857D01*
X058125Y037975D01*
X051491Y035082D02*
X051196Y035219D01*
X050644Y036204D02*
X048991Y037857D01*
X048873Y037227D02*
X048314Y037786D01*
X048873Y037227D02*
X048873Y036597D01*
X046196Y033920D01*
X046196Y030967D01*
X050251Y030967D01*
X050369Y030574D02*
X048715Y030574D01*
X047652Y029511D01*
X047652Y029274D01*
X047731Y029196D01*
X047731Y028841D01*
X047849Y028448D02*
X048322Y028920D01*
X050211Y028920D01*
X050566Y029078D02*
X050605Y029038D01*
X050605Y028802D01*
X049030Y027227D01*
X047731Y027227D01*
X046196Y027975D02*
X046196Y030967D01*
X047140Y029511D02*
X048046Y030416D01*
X046589Y029471D02*
X047613Y028448D01*
X047849Y028448D01*
X050566Y029078D02*
X050566Y029786D01*
X052298Y029511D02*
X052298Y030967D01*
X050644Y030849D02*
X050644Y036204D01*
X056117Y031991D02*
X058912Y034786D01*
X057377Y031597D02*
X062101Y031597D01*
X057613Y028172D02*
X059621Y026164D01*
X062534Y026164D01*
X062633Y026263D01*
X062337Y026558D02*
X062455Y026676D01*
X067731Y026676D01*
X066196Y025849D02*
X067377Y024668D01*
X067770Y024668D01*
X064345Y025810D02*
X063558Y025810D01*
X059581Y021834D01*
X057416Y021834D01*
X055329Y023920D01*
X055133Y023920D01*
X052967Y022975D02*
X052967Y025023D01*
X053479Y025023D02*
X068636Y009865D01*
X075684Y009865D01*
X077062Y011243D01*
X077810Y011243D01*
X077101Y011637D02*
X079070Y011637D01*
X082928Y007778D01*
X082928Y006086D01*
X082967Y005534D02*
X082810Y005534D01*
X082967Y005534D02*
X085999Y008566D01*
X085999Y009826D01*
X077101Y011637D02*
X075723Y010259D01*
X074385Y010259D01*
X080566Y002975D02*
X080566Y002582D01*
X078873Y000889D01*
X046825Y000889D01*
X041983Y005731D01*
X041983Y005755D01*
X050644Y012227D02*
X052652Y010219D01*
X050644Y012227D02*
X050644Y019432D01*
X051038Y019826D02*
X053203Y017660D01*
X053203Y013566D01*
X058991Y022227D02*
X058991Y024471D01*
X056274Y027188D01*
X056156Y027582D02*
X057062Y027582D01*
X058912Y025731D01*
X059778Y025377D02*
X057259Y027897D01*
X053912Y027897D01*
X052298Y029511D01*
X050644Y030849D02*
X050369Y030574D01*
X054089Y028231D02*
X054227Y028172D01*
X057613Y028172D01*
X056156Y027582D02*
X055762Y027188D01*
X055762Y025416D01*
X059778Y025377D02*
X061589Y025377D01*
X062337Y026558D02*
X059739Y026558D01*
D28*
X059739Y026558D03*
X058912Y025731D03*
X061589Y025377D03*
X064345Y025810D03*
X066196Y025849D03*
X067731Y026676D03*
X067770Y024668D03*
X058991Y022227D03*
X055133Y023920D03*
X052967Y022975D03*
X052967Y025023D03*
X053479Y025023D03*
X055762Y025416D03*
X056274Y027188D03*
X053282Y029038D03*
X050566Y029786D03*
X050211Y028920D03*
X047731Y028841D03*
X047140Y029511D03*
X046589Y029471D03*
X048046Y030416D03*
X050251Y030967D03*
X052298Y030967D03*
X056117Y031991D03*
X057377Y031597D03*
X062101Y031597D03*
X058912Y034786D03*
X051196Y035219D03*
X048991Y037857D03*
X046196Y027975D03*
X047731Y027227D03*
X051038Y019826D03*
X050644Y019432D03*
X053203Y013566D03*
X052652Y010219D03*
X074385Y010259D03*
X077810Y011243D03*
X082810Y005534D03*
X080566Y002975D03*
D29*
X075448Y011302D02*
X072731Y011302D01*
X075448Y011302D02*
X077298Y013152D01*
X061834Y014197D02*
X061563Y014197D01*
X060935Y014825D01*
X048282Y012778D02*
X048282Y009629D01*
X049857Y008054D01*
X049857Y007267D01*
X043755Y018015D02*
X043755Y019865D01*
X043755Y021715D02*
X046432Y021715D01*
X045133Y023015D01*
X045133Y034629D01*
X045211Y034589D01*
X046432Y021715D02*
X046707Y021440D01*
X046432Y021715D02*
X047101Y021321D01*
D30*
X046707Y021440D02*
X053364Y021387D01*
X054096Y021730D01*
X056824Y018960D01*
X057021Y018760D01*
X060807Y014915D01*
X060935Y014825D01*
X061834Y014197D01*
X062062Y014038D01*
X068361Y008054D01*
X071114Y007718D01*
X078991Y007755D01*
X085290Y010219D02*
X085684Y009826D01*
X085999Y009826D01*
X087881Y009826D01*
X088046Y009991D01*
X085290Y010219D02*
X085172Y013152D01*
X077298Y013152D01*
X085172Y013152D02*
X085290Y015141D01*
X088026Y017877D01*
X088026Y025837D01*
X086196Y025837D01*
X080959Y025837D01*
X078400Y025837D01*
X073873Y030365D01*
X073873Y031282D01*
X077495Y025837D02*
X078400Y025837D01*
X043755Y018015D02*
X043755Y012582D01*
X045526Y010810D01*
X045526Y005101D01*
X048282Y002345D01*
X059896Y002345D01*
X060093Y002542D01*
D31*
X078991Y006755D02*
X078991Y007755D01*
X068361Y035263D02*
X068361Y036400D01*
X067869Y036893D01*
X065561Y035963D02*
X065561Y035263D01*
D32*
X039363Y016544D02*
X039363Y002406D01*
X041059Y000710D01*
X046714Y000710D01*
X042421Y005003D01*
X042483Y004854D01*
X042483Y004655D01*
X042407Y004472D01*
X042266Y004331D01*
X042082Y004255D01*
X041883Y004255D01*
X041700Y004179D01*
X041559Y004038D01*
X041483Y003854D01*
X041483Y003655D01*
X041559Y003472D01*
X041700Y003331D01*
X041883Y003255D01*
X041700Y003179D01*
X041559Y003038D01*
X041483Y002854D01*
X041483Y002655D01*
X041559Y002472D01*
X041700Y002331D01*
X041883Y002255D01*
X041700Y002179D01*
X041559Y002038D01*
X041483Y001854D01*
X041483Y001655D01*
X041559Y001472D01*
X041700Y001331D01*
X041883Y001255D01*
X042082Y001255D01*
X042266Y001331D01*
X042407Y001472D01*
X042483Y001655D01*
X042483Y001854D01*
X042407Y002038D01*
X042266Y002179D01*
X042082Y002255D01*
X042266Y002331D01*
X042407Y002472D01*
X042483Y002655D01*
X042483Y002854D01*
X042407Y003038D01*
X042266Y003179D01*
X042082Y003255D01*
X042266Y003331D01*
X042407Y003472D01*
X042483Y003655D01*
X042483Y003854D01*
X042407Y004038D01*
X042266Y004179D01*
X042082Y004255D01*
X041883Y004255D01*
X041700Y004331D01*
X041559Y004472D01*
X041483Y004655D01*
X041483Y004854D01*
X041559Y005038D01*
X041700Y005179D01*
X041883Y005255D01*
X042082Y005255D01*
X042144Y005280D01*
X042231Y005193D01*
X042082Y005255D01*
X041883Y005255D01*
X041700Y005331D01*
X041559Y005472D01*
X041483Y005655D01*
X041483Y005854D01*
X041559Y006038D01*
X041700Y006179D01*
X041883Y006255D01*
X042082Y006255D01*
X042266Y006331D01*
X042407Y006472D01*
X042483Y006655D01*
X042483Y006854D01*
X042407Y007038D01*
X042266Y007179D01*
X042082Y007255D01*
X042266Y007331D01*
X042407Y007472D01*
X042483Y007655D01*
X042483Y007854D01*
X042407Y008038D01*
X042266Y008179D01*
X042082Y008255D01*
X042266Y008331D01*
X042407Y008472D01*
X042483Y008655D01*
X042483Y008854D01*
X042407Y009038D01*
X042266Y009179D01*
X042082Y009255D01*
X042266Y009331D01*
X042407Y009472D01*
X042483Y009655D01*
X042483Y009854D01*
X042407Y010038D01*
X042266Y010179D01*
X042082Y010255D01*
X042266Y010331D01*
X042407Y010472D01*
X042483Y010655D01*
X042483Y010854D01*
X042407Y011038D01*
X042266Y011179D01*
X042082Y011255D01*
X041883Y011255D01*
X041700Y011179D01*
X041559Y011038D01*
X041483Y010854D01*
X041483Y010655D01*
X041559Y010472D01*
X041700Y010331D01*
X041883Y010255D01*
X041700Y010179D01*
X041559Y010038D01*
X041483Y009854D01*
X041483Y009655D01*
X041559Y009472D01*
X041700Y009331D01*
X041883Y009255D01*
X041700Y009179D01*
X041559Y009038D01*
X041483Y008854D01*
X041483Y008655D01*
X041559Y008472D01*
X041700Y008331D01*
X041883Y008255D01*
X041700Y008179D01*
X041559Y008038D01*
X041483Y007854D01*
X041483Y007655D01*
X041559Y007472D01*
X041700Y007331D01*
X041883Y007255D01*
X041700Y007179D01*
X041559Y007038D01*
X041483Y006854D01*
X041483Y006655D01*
X041559Y006472D01*
X041700Y006331D01*
X041883Y006255D01*
X042082Y006255D01*
X042266Y006179D01*
X042407Y006038D01*
X042483Y005854D01*
X042483Y005655D01*
X042444Y005560D01*
X046910Y001094D01*
X047650Y001094D01*
X047423Y001225D01*
X047162Y001486D01*
X047162Y001486D01*
X044406Y004242D01*
X044222Y004561D01*
X044126Y004917D01*
X044126Y010230D01*
X042634Y011722D01*
X042450Y012041D01*
X042355Y012397D01*
X042355Y018199D01*
X042450Y018555D01*
X042634Y018875D01*
X042875Y019115D01*
X042875Y020040D01*
X042975Y020282D01*
X042975Y020569D01*
X043051Y020645D01*
X043338Y020645D01*
X043580Y020745D01*
X043930Y020745D01*
X044171Y020645D01*
X044458Y020645D01*
X044535Y020569D01*
X044535Y020282D01*
X044635Y020040D01*
X044635Y019115D01*
X044875Y018875D01*
X045059Y018555D01*
X045155Y018199D01*
X045155Y013161D01*
X046386Y011930D01*
X046386Y011930D01*
X046647Y011670D01*
X046831Y011350D01*
X046926Y010994D01*
X046926Y005681D01*
X048862Y003745D01*
X059377Y003745D01*
X059553Y003847D01*
X059909Y003942D01*
X060277Y003942D01*
X060634Y003847D01*
X060953Y003662D01*
X061213Y003402D01*
X061325Y003208D01*
X061351Y003197D01*
X061486Y003062D01*
X061560Y002884D01*
X061560Y002844D01*
X061612Y002793D01*
X061707Y002561D01*
X061707Y002311D01*
X061612Y002079D01*
X061560Y002027D01*
X061560Y001987D01*
X061486Y001810D01*
X061351Y001674D01*
X061173Y001601D01*
X061132Y001601D01*
X060756Y001225D01*
X060528Y001094D01*
X074393Y001094D01*
X078669Y005370D01*
X078567Y005472D01*
X078491Y005655D01*
X078491Y005854D01*
X078567Y006038D01*
X078708Y006179D01*
X078873Y006247D01*
X078869Y006248D01*
X078791Y006273D01*
X078718Y006310D01*
X078652Y006358D01*
X078594Y006416D01*
X078546Y006482D01*
X078509Y006555D01*
X078484Y006633D01*
X078472Y006705D01*
X078941Y006705D01*
X078941Y006805D01*
X078941Y007705D01*
X078472Y007705D01*
X078484Y007633D01*
X078509Y007555D01*
X078546Y007482D01*
X078594Y007416D01*
X078652Y007358D01*
X078718Y007310D01*
X078791Y007273D01*
X078847Y007255D01*
X078791Y007237D01*
X078718Y007200D01*
X078652Y007151D01*
X078594Y007094D01*
X078546Y007027D01*
X078509Y006954D01*
X078484Y006877D01*
X078472Y006805D01*
X078941Y006805D01*
X079041Y006805D01*
X079509Y006805D01*
X079498Y006877D01*
X079473Y006954D01*
X079436Y007027D01*
X079387Y007094D01*
X079330Y007151D01*
X079263Y007200D01*
X079190Y007237D01*
X079135Y007255D01*
X079190Y007273D01*
X079263Y007310D01*
X079330Y007358D01*
X079387Y007416D01*
X079436Y007482D01*
X079473Y007555D01*
X079498Y007633D01*
X079509Y007705D01*
X079041Y007705D01*
X079041Y007805D01*
X079509Y007805D01*
X079498Y007877D01*
X079473Y007954D01*
X079436Y008027D01*
X079387Y008094D01*
X079330Y008151D01*
X079263Y008200D01*
X079190Y008237D01*
X079135Y008255D01*
X079190Y008273D01*
X079263Y008310D01*
X079330Y008358D01*
X079387Y008416D01*
X079436Y008482D01*
X079473Y008555D01*
X079498Y008633D01*
X079509Y008705D01*
X079041Y008705D01*
X079041Y008805D01*
X079509Y008805D01*
X079498Y008877D01*
X079473Y008954D01*
X079436Y009027D01*
X079387Y009094D01*
X079330Y009151D01*
X079263Y009200D01*
X079190Y009237D01*
X079135Y009255D01*
X079190Y009273D01*
X079263Y009310D01*
X079330Y009358D01*
X079387Y009416D01*
X079436Y009482D01*
X079473Y009555D01*
X079498Y009633D01*
X079509Y009705D01*
X079041Y009705D01*
X079041Y009805D01*
X079509Y009805D01*
X079498Y009877D01*
X079473Y009954D01*
X079436Y010027D01*
X079387Y010094D01*
X079330Y010151D01*
X079263Y010200D01*
X079190Y010237D01*
X079135Y010255D01*
X079190Y010273D01*
X079263Y010310D01*
X079330Y010358D01*
X079387Y010416D01*
X079436Y010482D01*
X079473Y010555D01*
X079498Y010633D01*
X079509Y010705D01*
X079041Y010705D01*
X079041Y010805D01*
X079509Y010805D01*
X079498Y010877D01*
X079478Y010938D01*
X079778Y010638D01*
X079778Y006479D01*
X079376Y006077D01*
X079274Y006179D01*
X079109Y006247D01*
X079113Y006248D01*
X079190Y006273D01*
X079263Y006310D01*
X079330Y006358D01*
X079387Y006416D01*
X079436Y006482D01*
X079473Y006555D01*
X079498Y006633D01*
X079509Y006705D01*
X079041Y006705D01*
X079041Y006805D01*
X079041Y007273D01*
X079041Y007705D01*
X078941Y007705D01*
X078941Y007805D01*
X078941Y008705D01*
X078472Y008705D01*
X078484Y008633D01*
X078509Y008555D01*
X078546Y008482D01*
X078594Y008416D01*
X078652Y008358D01*
X078718Y008310D01*
X078791Y008273D01*
X078847Y008255D01*
X078791Y008237D01*
X078718Y008200D01*
X078652Y008151D01*
X078594Y008094D01*
X078546Y008027D01*
X078509Y007954D01*
X078484Y007877D01*
X078472Y007805D01*
X078941Y007805D01*
X079041Y007805D01*
X079041Y008236D01*
X079041Y008705D01*
X078941Y008705D01*
X078941Y008805D01*
X078941Y009705D01*
X078472Y009705D01*
X078484Y009633D01*
X078509Y009555D01*
X078546Y009482D01*
X078594Y009416D01*
X078652Y009358D01*
X078718Y009310D01*
X078791Y009273D01*
X078847Y009255D01*
X078791Y009237D01*
X078718Y009200D01*
X078652Y009151D01*
X078594Y009094D01*
X078546Y009027D01*
X078509Y008954D01*
X078484Y008877D01*
X078472Y008805D01*
X078941Y008805D01*
X079041Y008805D01*
X079041Y009236D01*
X079041Y009705D01*
X078941Y009705D01*
X078941Y009805D01*
X078941Y010705D01*
X078472Y010705D01*
X078484Y010633D01*
X078509Y010555D01*
X078546Y010482D01*
X078594Y010416D01*
X078652Y010358D01*
X078718Y010310D01*
X078791Y010273D01*
X078847Y010255D01*
X078791Y010237D01*
X078718Y010200D01*
X078652Y010151D01*
X078594Y010094D01*
X078546Y010027D01*
X078509Y009954D01*
X078484Y009877D01*
X078472Y009805D01*
X078941Y009805D01*
X079041Y009805D01*
X079041Y010236D01*
X079041Y010705D01*
X078941Y010705D01*
X078941Y010805D01*
X078472Y010805D01*
X078484Y010877D01*
X078509Y010954D01*
X078546Y011027D01*
X078594Y011094D01*
X078652Y011151D01*
X078718Y011200D01*
X078726Y011204D01*
X078140Y011204D01*
X078140Y011177D01*
X078089Y011056D01*
X077997Y010963D01*
X077875Y010913D01*
X077744Y010913D01*
X077623Y010963D01*
X077548Y011038D01*
X077147Y011038D01*
X075889Y009780D01*
X075769Y009660D01*
X068552Y009660D01*
X053519Y024693D01*
X053413Y024693D01*
X053292Y024743D01*
X053223Y024812D01*
X053172Y024761D01*
X053172Y023237D01*
X053247Y023162D01*
X053297Y023041D01*
X053297Y022910D01*
X053247Y022788D01*
X053154Y022696D01*
X053033Y022645D01*
X052902Y022645D01*
X052780Y022696D01*
X052687Y022788D01*
X052637Y022910D01*
X052637Y023041D01*
X052687Y023162D01*
X052762Y023237D01*
X052762Y024761D01*
X052687Y024836D01*
X052637Y024957D01*
X052637Y025088D01*
X052687Y025209D01*
X052780Y025302D01*
X052902Y025353D01*
X053033Y025353D01*
X053154Y025302D01*
X053223Y025233D01*
X053292Y025302D01*
X053413Y025353D01*
X053545Y025353D01*
X053666Y025302D01*
X053759Y025209D01*
X053809Y025088D01*
X053809Y024982D01*
X054803Y023988D01*
X054853Y024107D01*
X054946Y024200D01*
X054985Y024216D01*
X054607Y024488D01*
X054559Y024508D01*
X054507Y024561D01*
X054446Y024604D01*
X054419Y024649D01*
X051619Y027448D01*
X050745Y026575D01*
X050514Y026479D01*
X050263Y026479D01*
X050032Y026575D01*
X049854Y026752D01*
X049758Y026984D01*
X049758Y027234D01*
X049854Y027466D01*
X050880Y028492D01*
X050880Y029684D01*
X050845Y029599D01*
X050771Y029525D01*
X050771Y029163D01*
X050810Y029123D01*
X050810Y028717D01*
X049235Y027142D01*
X049115Y027022D01*
X047993Y027022D01*
X047918Y026947D01*
X047797Y026897D01*
X047665Y026897D01*
X047544Y026947D01*
X047451Y027040D01*
X047401Y027162D01*
X047401Y027293D01*
X047451Y027414D01*
X047544Y027507D01*
X047665Y027557D01*
X047797Y027557D01*
X047918Y027507D01*
X047993Y027432D01*
X048945Y027432D01*
X050116Y028603D01*
X050024Y028640D01*
X049950Y028715D01*
X048406Y028715D01*
X048054Y028363D01*
X047934Y028243D01*
X047528Y028243D01*
X046629Y029141D01*
X046524Y029141D01*
X046402Y029192D01*
X046401Y029193D01*
X046401Y028237D01*
X046475Y028162D01*
X046526Y028041D01*
X046526Y027910D01*
X046475Y027788D01*
X046382Y027696D01*
X046261Y027645D01*
X046130Y027645D01*
X046009Y027696D01*
X045916Y027788D01*
X045866Y027910D01*
X045866Y028041D01*
X045916Y028162D01*
X045991Y028237D01*
X045991Y034005D01*
X048272Y036286D01*
X048107Y036286D01*
X047814Y036579D01*
X047814Y036993D01*
X048107Y037286D01*
X048521Y037286D01*
X048668Y037139D01*
X048668Y037142D01*
X048522Y037288D01*
X048521Y037286D01*
X048107Y037286D01*
X047814Y037579D01*
X047814Y037993D01*
X048107Y038286D01*
X048521Y038286D01*
X048737Y038070D01*
X048804Y038137D01*
X048925Y038187D01*
X049056Y038187D01*
X049178Y038137D01*
X049271Y038044D01*
X049321Y037923D01*
X049321Y037817D01*
X050849Y036289D01*
X050849Y030764D01*
X050729Y030644D01*
X050454Y030369D01*
X048800Y030369D01*
X047857Y029426D01*
X047857Y029359D01*
X047936Y029281D01*
X047936Y029103D01*
X048011Y029028D01*
X048049Y028937D01*
X048237Y029125D01*
X049950Y029125D01*
X050024Y029200D01*
X050146Y029250D01*
X050277Y029250D01*
X050361Y029215D01*
X050361Y029525D01*
X050286Y029599D01*
X050236Y029721D01*
X050236Y029852D01*
X050286Y029973D01*
X050379Y030066D01*
X050500Y030116D01*
X050631Y030116D01*
X050753Y030066D01*
X050845Y029973D01*
X050880Y029888D01*
X050880Y032094D01*
X050849Y032094D01*
X050880Y032094D02*
X050861Y032141D01*
X050861Y032392D01*
X050957Y032623D01*
X051032Y032699D01*
X051032Y034930D01*
X051009Y034940D01*
X050916Y035032D01*
X050866Y035154D01*
X050866Y035285D01*
X050916Y035406D01*
X051009Y035499D01*
X051130Y035549D01*
X051261Y035549D01*
X051296Y035535D01*
X051369Y035608D01*
X051537Y035678D01*
X057147Y035678D01*
X057471Y036002D01*
X057640Y036072D01*
X057822Y036072D01*
X057991Y036002D01*
X058038Y035955D01*
X058038Y037592D01*
X057905Y037647D01*
X057796Y037756D01*
X057737Y037898D01*
X057737Y038052D01*
X057796Y038195D01*
X057905Y038304D01*
X058048Y038363D01*
X058202Y038363D01*
X058344Y038304D01*
X058453Y038195D01*
X058512Y038052D01*
X058512Y037898D01*
X058453Y037756D01*
X058448Y037750D01*
X058448Y035331D01*
X058328Y035211D01*
X057619Y034503D01*
X056044Y034503D01*
X053487Y031945D01*
X053487Y029300D01*
X053562Y029225D01*
X053612Y029104D01*
X053612Y029013D01*
X053655Y029013D01*
X053761Y028969D01*
X054335Y028395D01*
X054343Y028377D01*
X057698Y028377D01*
X059421Y026654D01*
X059459Y026745D01*
X059552Y026838D01*
X059673Y026888D01*
X059804Y026888D01*
X059926Y026838D01*
X060001Y026763D01*
X062252Y026763D01*
X062370Y026881D01*
X067469Y026881D01*
X067544Y026956D01*
X067665Y027006D01*
X067797Y027006D01*
X067918Y026956D01*
X068011Y026863D01*
X068061Y026742D01*
X068061Y026610D01*
X068011Y026489D01*
X067918Y026396D01*
X067797Y026346D01*
X067665Y026346D01*
X067544Y026396D01*
X067469Y026471D01*
X065591Y026471D01*
X065614Y026447D01*
X065654Y026407D01*
X065654Y026406D01*
X065655Y026406D01*
X065676Y026353D01*
X065698Y026301D01*
X065698Y026300D01*
X065699Y026299D01*
X065698Y026242D01*
X065698Y022320D01*
X070423Y022320D01*
X073085Y024983D01*
X073085Y026952D01*
X072503Y027534D01*
X072462Y027493D01*
X072356Y027449D01*
X072240Y027449D01*
X072134Y027493D01*
X072052Y027575D01*
X072008Y027681D01*
X072008Y028029D01*
X071510Y028526D01*
X069952Y028526D01*
X070575Y027903D01*
X070619Y027797D01*
X070619Y027681D01*
X070575Y027575D01*
X070494Y027493D01*
X070387Y027449D01*
X070272Y027449D01*
X070165Y027493D01*
X069132Y028526D01*
X067573Y028526D01*
X064818Y031282D01*
X064818Y039020D01*
X041059Y039020D01*
X039363Y037324D01*
X039363Y023186D01*
X040649Y023186D01*
X040725Y023109D01*
X040725Y021821D01*
X040649Y021744D01*
X039363Y021744D01*
X039363Y017986D01*
X040649Y017986D01*
X040725Y017909D01*
X040725Y016621D01*
X040649Y016544D01*
X039363Y016544D01*
X039363Y016531D02*
X042355Y016531D01*
X042355Y016433D02*
X039363Y016433D01*
X039363Y016334D02*
X042355Y016334D01*
X042355Y016236D02*
X039363Y016236D01*
X039363Y016137D02*
X042355Y016137D01*
X042355Y016039D02*
X039363Y016039D01*
X039363Y015940D02*
X042355Y015940D01*
X042355Y015842D02*
X039363Y015842D01*
X039363Y015743D02*
X042355Y015743D01*
X042355Y015645D02*
X039363Y015645D01*
X039363Y015546D02*
X042355Y015546D01*
X042355Y015448D02*
X039363Y015448D01*
X039363Y015349D02*
X042355Y015349D01*
X042355Y015251D02*
X039363Y015251D01*
X039363Y015152D02*
X042355Y015152D01*
X042355Y015054D02*
X039363Y015054D01*
X039363Y014955D02*
X042355Y014955D01*
X042355Y014857D02*
X039363Y014857D01*
X039363Y014758D02*
X042355Y014758D01*
X042355Y014660D02*
X039363Y014660D01*
X039363Y014561D02*
X042355Y014561D01*
X042355Y014463D02*
X039363Y014463D01*
X039363Y014364D02*
X042355Y014364D01*
X042355Y014266D02*
X039363Y014266D01*
X039363Y014167D02*
X042355Y014167D01*
X042355Y014069D02*
X039363Y014069D01*
X039363Y013970D02*
X042355Y013970D01*
X042355Y013872D02*
X039363Y013872D01*
X039363Y013773D02*
X042355Y013773D01*
X042355Y013675D02*
X039363Y013675D01*
X039363Y013576D02*
X042355Y013576D01*
X042355Y013478D02*
X039363Y013478D01*
X039363Y013379D02*
X042355Y013379D01*
X042355Y013281D02*
X039363Y013281D01*
X039363Y013182D02*
X042355Y013182D01*
X042355Y013084D02*
X039363Y013084D01*
X039363Y012985D02*
X042355Y012985D01*
X042355Y012887D02*
X039363Y012887D01*
X039363Y012788D02*
X042355Y012788D01*
X042355Y012690D02*
X039363Y012690D01*
X039363Y012591D02*
X042355Y012591D01*
X042355Y012493D02*
X039363Y012493D01*
X039363Y012394D02*
X042355Y012394D01*
X042382Y012296D02*
X039363Y012296D01*
X039363Y012197D02*
X042408Y012197D01*
X042435Y012099D02*
X039363Y012099D01*
X039363Y012000D02*
X042474Y012000D01*
X042531Y011902D02*
X039363Y011902D01*
X039363Y011803D02*
X042588Y011803D01*
X042652Y011705D02*
X039363Y011705D01*
X039363Y011606D02*
X042750Y011606D01*
X042849Y011508D02*
X039363Y011508D01*
X039363Y011409D02*
X042947Y011409D01*
X043046Y011311D02*
X039363Y011311D01*
X039363Y011212D02*
X041780Y011212D01*
X041635Y011114D02*
X039363Y011114D01*
X039363Y011015D02*
X041550Y011015D01*
X041509Y010917D02*
X039363Y010917D01*
X039363Y010818D02*
X041483Y010818D01*
X041483Y010720D02*
X039363Y010720D01*
X039363Y010621D02*
X041497Y010621D01*
X041538Y010523D02*
X039363Y010523D01*
X039363Y010424D02*
X041607Y010424D01*
X041713Y010326D02*
X039363Y010326D01*
X039363Y010227D02*
X041816Y010227D01*
X041883Y010255D02*
X042082Y010255D01*
X041883Y010255D01*
X041650Y010129D02*
X039363Y010129D01*
X039363Y010030D02*
X041556Y010030D01*
X041515Y009932D02*
X039363Y009932D01*
X039363Y009833D02*
X041483Y009833D01*
X041483Y009735D02*
X039363Y009735D01*
X039363Y009636D02*
X041491Y009636D01*
X041532Y009538D02*
X039363Y009538D01*
X039363Y009439D02*
X041592Y009439D01*
X041690Y009341D02*
X039363Y009341D01*
X039363Y009242D02*
X041853Y009242D01*
X041883Y009255D02*
X042082Y009255D01*
X041883Y009255D01*
X042113Y009242D02*
X043479Y009242D01*
X043481Y009241D02*
X043635Y009241D01*
X043777Y009300D01*
X043886Y009409D01*
X043945Y009552D01*
X043945Y009706D01*
X043886Y009848D01*
X043777Y009957D01*
X043635Y010016D01*
X043481Y010016D01*
X043338Y009957D01*
X043229Y009848D01*
X043170Y009706D01*
X043170Y009552D01*
X043229Y009409D01*
X043338Y009300D01*
X043481Y009241D01*
X043636Y009242D02*
X044126Y009242D01*
X044126Y009144D02*
X042301Y009144D01*
X042400Y009045D02*
X044126Y009045D01*
X044126Y008947D02*
X042445Y008947D01*
X042483Y008848D02*
X044126Y008848D01*
X044126Y008750D02*
X042483Y008750D01*
X042481Y008651D02*
X044126Y008651D01*
X044126Y008553D02*
X042440Y008553D01*
X042389Y008454D02*
X044126Y008454D01*
X044126Y008356D02*
X042291Y008356D01*
X042286Y008159D02*
X044126Y008159D01*
X044126Y008257D02*
X042088Y008257D01*
X042082Y008255D02*
X041883Y008255D01*
X042082Y008255D01*
X041878Y008257D02*
X039363Y008257D01*
X039363Y008159D02*
X041680Y008159D01*
X041581Y008060D02*
X039363Y008060D01*
X039363Y007962D02*
X041527Y007962D01*
X041487Y007863D02*
X039363Y007863D01*
X039363Y007765D02*
X041483Y007765D01*
X041483Y007666D02*
X039363Y007666D01*
X039363Y007568D02*
X041519Y007568D01*
X041562Y007469D02*
X039363Y007469D01*
X039363Y007371D02*
X041660Y007371D01*
X041695Y007174D02*
X039363Y007174D01*
X039363Y007272D02*
X041842Y007272D01*
X041883Y007255D02*
X042082Y007255D01*
X041883Y007255D01*
X042124Y007272D02*
X044126Y007272D01*
X044126Y007174D02*
X042271Y007174D01*
X042370Y007075D02*
X043409Y007075D01*
X043437Y007103D02*
X043328Y006994D01*
X043269Y006852D01*
X043269Y006697D01*
X043328Y006555D01*
X043437Y006446D01*
X043579Y006387D01*
X043733Y006387D01*
X043876Y006446D01*
X043985Y006555D01*
X044044Y006697D01*
X044044Y006852D01*
X043985Y006994D01*
X043876Y007103D01*
X043733Y007162D01*
X043579Y007162D01*
X043437Y007103D01*
X043320Y006977D02*
X042432Y006977D01*
X042473Y006878D02*
X043280Y006878D01*
X043269Y006780D02*
X042483Y006780D01*
X042483Y006681D02*
X043275Y006681D01*
X043316Y006583D02*
X042453Y006583D01*
X042412Y006484D02*
X043399Y006484D01*
X043914Y006484D02*
X044126Y006484D01*
X044126Y006386D02*
X042321Y006386D01*
X042160Y006287D02*
X044126Y006287D01*
X044126Y006189D02*
X042242Y006189D01*
X042355Y006090D02*
X044126Y006090D01*
X044126Y005992D02*
X042426Y005992D01*
X042467Y005893D02*
X044126Y005893D01*
X044126Y005795D02*
X042483Y005795D01*
X042483Y005696D02*
X044126Y005696D01*
X044126Y005598D02*
X042459Y005598D01*
X042505Y005499D02*
X044126Y005499D01*
X044126Y005401D02*
X042604Y005401D01*
X042702Y005302D02*
X044126Y005302D01*
X044126Y005204D02*
X042801Y005204D01*
X042899Y005105D02*
X044126Y005105D01*
X044126Y005007D02*
X042998Y005007D01*
X043096Y004908D02*
X044129Y004908D01*
X044155Y004810D02*
X043195Y004810D01*
X043293Y004711D02*
X044181Y004711D01*
X044208Y004613D02*
X043392Y004613D01*
X043490Y004514D02*
X044249Y004514D01*
X044306Y004416D02*
X043589Y004416D01*
X043687Y004317D02*
X044362Y004317D01*
X044429Y004219D02*
X043786Y004219D01*
X043884Y004120D02*
X044528Y004120D01*
X044626Y004022D02*
X043983Y004022D01*
X044081Y003923D02*
X044725Y003923D01*
X044823Y003825D02*
X044180Y003825D01*
X044278Y003726D02*
X044922Y003726D01*
X045020Y003628D02*
X044377Y003628D01*
X044475Y003529D02*
X045119Y003529D01*
X045217Y003431D02*
X044574Y003431D01*
X044672Y003332D02*
X045316Y003332D01*
X045414Y003234D02*
X044771Y003234D01*
X044869Y003135D02*
X045513Y003135D01*
X045611Y003037D02*
X044968Y003037D01*
X045066Y002938D02*
X045710Y002938D01*
X045808Y002840D02*
X045165Y002840D01*
X045263Y002741D02*
X045907Y002741D01*
X046005Y002643D02*
X045362Y002643D01*
X045460Y002544D02*
X046104Y002544D01*
X046202Y002446D02*
X045559Y002446D01*
X045657Y002347D02*
X046301Y002347D01*
X046399Y002249D02*
X045756Y002249D01*
X045854Y002150D02*
X046498Y002150D01*
X046596Y002052D02*
X045953Y002052D01*
X046051Y001953D02*
X046695Y001953D01*
X046793Y001855D02*
X046150Y001855D01*
X046248Y001756D02*
X046892Y001756D01*
X046990Y001658D02*
X046347Y001658D01*
X046445Y001559D02*
X047089Y001559D01*
X047187Y001461D02*
X046544Y001461D01*
X046642Y001362D02*
X047286Y001362D01*
X047384Y001264D02*
X046741Y001264D01*
X046839Y001165D02*
X047527Y001165D01*
X046653Y000771D02*
X040998Y000771D01*
X040900Y000870D02*
X046555Y000870D01*
X046456Y000968D02*
X040801Y000968D01*
X040703Y001067D02*
X046358Y001067D01*
X046259Y001165D02*
X040604Y001165D01*
X040506Y001264D02*
X041862Y001264D01*
X041669Y001362D02*
X040407Y001362D01*
X040309Y001461D02*
X041570Y001461D01*
X041523Y001559D02*
X040210Y001559D01*
X040112Y001658D02*
X041483Y001658D01*
X041483Y001756D02*
X040013Y001756D01*
X039915Y001855D02*
X041483Y001855D01*
X041524Y001953D02*
X039816Y001953D01*
X039718Y002052D02*
X041573Y002052D01*
X041671Y002150D02*
X039619Y002150D01*
X039521Y002249D02*
X041868Y002249D01*
X041883Y002255D02*
X042082Y002255D01*
X041883Y002255D01*
X042098Y002249D02*
X045176Y002249D01*
X045077Y002347D02*
X042282Y002347D01*
X042381Y002446D02*
X044979Y002446D01*
X044880Y002544D02*
X042437Y002544D01*
X042478Y002643D02*
X044782Y002643D01*
X044683Y002741D02*
X042483Y002741D01*
X042483Y002840D02*
X044585Y002840D01*
X044486Y002938D02*
X042448Y002938D01*
X042407Y003037D02*
X044388Y003037D01*
X044289Y003135D02*
X042310Y003135D01*
X042267Y003332D02*
X044092Y003332D01*
X043994Y003431D02*
X042366Y003431D01*
X042431Y003529D02*
X043895Y003529D01*
X043797Y003628D02*
X042471Y003628D01*
X042483Y003726D02*
X043698Y003726D01*
X043600Y003825D02*
X042483Y003825D01*
X042454Y003923D02*
X043501Y003923D01*
X043403Y004022D02*
X042414Y004022D01*
X042325Y004120D02*
X043304Y004120D01*
X043206Y004219D02*
X042170Y004219D01*
X042233Y004317D02*
X043107Y004317D01*
X043009Y004416D02*
X042351Y004416D01*
X042424Y004514D02*
X042910Y004514D01*
X042812Y004613D02*
X042465Y004613D01*
X042483Y004711D02*
X042713Y004711D01*
X042615Y004810D02*
X042483Y004810D01*
X042461Y004908D02*
X042516Y004908D01*
X042221Y005204D02*
X042206Y005204D01*
X041760Y005204D02*
X039363Y005204D01*
X039363Y005302D02*
X041770Y005302D01*
X041630Y005401D02*
X039363Y005401D01*
X039363Y005499D02*
X041548Y005499D01*
X041507Y005598D02*
X039363Y005598D01*
X039363Y005696D02*
X041483Y005696D01*
X041483Y005795D02*
X039363Y005795D01*
X039363Y005893D02*
X041499Y005893D01*
X041540Y005992D02*
X039363Y005992D01*
X039363Y006090D02*
X041611Y006090D01*
X041723Y006189D02*
X039363Y006189D01*
X039363Y006287D02*
X041806Y006287D01*
X041645Y006386D02*
X039363Y006386D01*
X039363Y006484D02*
X041554Y006484D01*
X041513Y006583D02*
X039363Y006583D01*
X039363Y006681D02*
X041483Y006681D01*
X041483Y006780D02*
X039363Y006780D01*
X039363Y006878D02*
X041493Y006878D01*
X041534Y006977D02*
X039363Y006977D01*
X039363Y007075D02*
X041596Y007075D01*
X042306Y007371D02*
X044126Y007371D01*
X044126Y007469D02*
X042404Y007469D01*
X042447Y007568D02*
X044126Y007568D01*
X044126Y007666D02*
X042483Y007666D01*
X042483Y007765D02*
X044126Y007765D01*
X044126Y007863D02*
X042479Y007863D01*
X042439Y007962D02*
X044126Y007962D01*
X044126Y008060D02*
X042385Y008060D01*
X041675Y008356D02*
X039363Y008356D01*
X039363Y008454D02*
X041577Y008454D01*
X041526Y008553D02*
X039363Y008553D01*
X039363Y008651D02*
X041485Y008651D01*
X041483Y008750D02*
X039363Y008750D01*
X039363Y008848D02*
X041483Y008848D01*
X041521Y008947D02*
X039363Y008947D01*
X039363Y009045D02*
X041566Y009045D01*
X041665Y009144D02*
X039363Y009144D01*
X042276Y009341D02*
X043298Y009341D01*
X043217Y009439D02*
X042374Y009439D01*
X042434Y009538D02*
X043176Y009538D01*
X043170Y009636D02*
X042475Y009636D01*
X042483Y009735D02*
X043182Y009735D01*
X043223Y009833D02*
X042483Y009833D01*
X042451Y009932D02*
X043312Y009932D01*
X043803Y009932D02*
X044126Y009932D01*
X044126Y010030D02*
X042410Y010030D01*
X042316Y010129D02*
X044126Y010129D01*
X044126Y010227D02*
X042149Y010227D01*
X042253Y010326D02*
X044031Y010326D01*
X043932Y010424D02*
X042359Y010424D01*
X042428Y010523D02*
X043834Y010523D01*
X043735Y010621D02*
X042469Y010621D01*
X042483Y010720D02*
X043637Y010720D01*
X043538Y010818D02*
X042483Y010818D01*
X042457Y010917D02*
X043440Y010917D01*
X043341Y011015D02*
X042416Y011015D01*
X042331Y011114D02*
X043243Y011114D01*
X043144Y011212D02*
X042186Y011212D01*
X043893Y009833D02*
X044126Y009833D01*
X044126Y009735D02*
X043933Y009735D01*
X043945Y009636D02*
X044126Y009636D01*
X044126Y009538D02*
X043939Y009538D01*
X043899Y009439D02*
X044126Y009439D01*
X044126Y009341D02*
X043817Y009341D01*
X046926Y009341D02*
X078676Y009341D01*
X078577Y009439D02*
X046926Y009439D01*
X046926Y009538D02*
X078518Y009538D01*
X078483Y009636D02*
X046926Y009636D01*
X046926Y009735D02*
X068477Y009735D01*
X068379Y009833D02*
X046926Y009833D01*
X046926Y009932D02*
X052485Y009932D01*
X052465Y009940D02*
X052587Y009889D01*
X052718Y009889D01*
X052839Y009940D01*
X052932Y010032D01*
X052982Y010154D01*
X052982Y010285D01*
X052932Y010406D01*
X052839Y010499D01*
X052718Y010549D01*
X052612Y010549D01*
X050849Y012312D01*
X050849Y019170D01*
X050924Y019245D01*
X050974Y019366D01*
X050974Y019496D01*
X051078Y019496D01*
X052998Y017575D01*
X052998Y013828D01*
X052924Y013753D01*
X052873Y013631D01*
X052873Y013500D01*
X052924Y013379D01*
X053016Y013286D01*
X053138Y013236D01*
X053269Y013236D01*
X053390Y013286D01*
X053483Y013379D01*
X053533Y013500D01*
X053533Y013631D01*
X053483Y013753D01*
X053408Y013828D01*
X053408Y017745D01*
X053288Y017865D01*
X051368Y019786D01*
X051368Y019891D01*
X051318Y020013D01*
X051225Y020105D01*
X051104Y020156D01*
X050972Y020156D01*
X050851Y020105D01*
X050758Y020013D01*
X050708Y019891D01*
X050708Y019762D01*
X050579Y019762D01*
X050457Y019712D01*
X050365Y019619D01*
X050314Y019498D01*
X050314Y019366D01*
X050365Y019245D01*
X050439Y019170D01*
X050439Y012142D01*
X052322Y010259D01*
X052322Y010154D01*
X052372Y010032D01*
X052465Y009940D01*
X052375Y010030D02*
X046926Y010030D01*
X046926Y010129D02*
X052333Y010129D01*
X052322Y010227D02*
X046926Y010227D01*
X046926Y010326D02*
X052256Y010326D01*
X052158Y010424D02*
X046926Y010424D01*
X046926Y010523D02*
X052059Y010523D01*
X051961Y010621D02*
X046926Y010621D01*
X046926Y010720D02*
X051862Y010720D01*
X051764Y010818D02*
X046926Y010818D01*
X046926Y010917D02*
X051665Y010917D01*
X051567Y011015D02*
X046921Y011015D01*
X046894Y011114D02*
X051468Y011114D01*
X051370Y011212D02*
X046868Y011212D01*
X046841Y011311D02*
X051271Y011311D01*
X051173Y011409D02*
X046797Y011409D01*
X046740Y011508D02*
X051074Y011508D01*
X050976Y011606D02*
X046683Y011606D01*
X046612Y011705D02*
X050877Y011705D01*
X050779Y011803D02*
X046513Y011803D01*
X046415Y011902D02*
X050680Y011902D01*
X050582Y012000D02*
X046316Y012000D01*
X046218Y012099D02*
X050483Y012099D01*
X050439Y012197D02*
X046119Y012197D01*
X046021Y012296D02*
X050439Y012296D01*
X050439Y012394D02*
X045922Y012394D01*
X045824Y012493D02*
X050439Y012493D01*
X050439Y012591D02*
X045725Y012591D01*
X045627Y012690D02*
X050439Y012690D01*
X050439Y012788D02*
X045528Y012788D01*
X045430Y012887D02*
X050439Y012887D01*
X050439Y012985D02*
X045331Y012985D01*
X045233Y013084D02*
X050439Y013084D01*
X050439Y013182D02*
X045155Y013182D01*
X045155Y013281D02*
X050439Y013281D01*
X050439Y013379D02*
X045155Y013379D01*
X045155Y013478D02*
X050439Y013478D01*
X050439Y013576D02*
X045155Y013576D01*
X045155Y013675D02*
X050439Y013675D01*
X050439Y013773D02*
X045155Y013773D01*
X045155Y013872D02*
X050439Y013872D01*
X050439Y013970D02*
X045155Y013970D01*
X045155Y014069D02*
X050439Y014069D01*
X050439Y014167D02*
X045155Y014167D01*
X045155Y014266D02*
X050439Y014266D01*
X050439Y014364D02*
X045155Y014364D01*
X045155Y014463D02*
X050439Y014463D01*
X050439Y014561D02*
X045155Y014561D01*
X045155Y014660D02*
X050439Y014660D01*
X050439Y014758D02*
X045155Y014758D01*
X045155Y014857D02*
X050439Y014857D01*
X050439Y014955D02*
X045155Y014955D01*
X045155Y015054D02*
X050439Y015054D01*
X050439Y015152D02*
X045155Y015152D01*
X045155Y015251D02*
X050439Y015251D01*
X050439Y015349D02*
X045155Y015349D01*
X045155Y015448D02*
X050439Y015448D01*
X050439Y015546D02*
X045155Y015546D01*
X045155Y015645D02*
X050439Y015645D01*
X050439Y015743D02*
X045155Y015743D01*
X045155Y015842D02*
X050439Y015842D01*
X050439Y015940D02*
X045155Y015940D01*
X045155Y016039D02*
X050439Y016039D01*
X050439Y016137D02*
X045155Y016137D01*
X045155Y016236D02*
X050439Y016236D01*
X050439Y016334D02*
X045155Y016334D01*
X045155Y016433D02*
X050439Y016433D01*
X050439Y016531D02*
X045155Y016531D01*
X045155Y016630D02*
X050439Y016630D01*
X050439Y016728D02*
X045155Y016728D01*
X045155Y016827D02*
X050439Y016827D01*
X050439Y016925D02*
X045155Y016925D01*
X045155Y017024D02*
X050439Y017024D01*
X050439Y017122D02*
X045155Y017122D01*
X045155Y017221D02*
X050439Y017221D01*
X050439Y017319D02*
X045155Y017319D01*
X045155Y017418D02*
X050439Y017418D01*
X050439Y017516D02*
X045155Y017516D01*
X045155Y017615D02*
X050439Y017615D01*
X050439Y017713D02*
X045155Y017713D01*
X045155Y017812D02*
X050439Y017812D01*
X050439Y017910D02*
X045155Y017910D01*
X045155Y018009D02*
X050439Y018009D01*
X050439Y018107D02*
X045155Y018107D01*
X045153Y018206D02*
X050439Y018206D01*
X050439Y018304D02*
X045127Y018304D01*
X045100Y018403D02*
X050439Y018403D01*
X050439Y018501D02*
X045074Y018501D01*
X045034Y018600D02*
X050439Y018600D01*
X050439Y018698D02*
X044977Y018698D01*
X044920Y018797D02*
X050439Y018797D01*
X050439Y018895D02*
X044854Y018895D01*
X044756Y018994D02*
X050439Y018994D01*
X050439Y019092D02*
X044657Y019092D01*
X044635Y019191D02*
X050419Y019191D01*
X050346Y019289D02*
X044635Y019289D01*
X044635Y019388D02*
X050314Y019388D01*
X050314Y019486D02*
X044635Y019486D01*
X044635Y019585D02*
X050350Y019585D01*
X050429Y019683D02*
X044635Y019683D01*
X044635Y019782D02*
X050708Y019782D01*
X050708Y019880D02*
X044635Y019880D01*
X044635Y019979D02*
X050744Y019979D01*
X050823Y020077D02*
X044619Y020077D01*
X044578Y020176D02*
X058036Y020176D01*
X057938Y020274D02*
X044538Y020274D01*
X044535Y020373D02*
X057839Y020373D01*
X057741Y020471D02*
X044535Y020471D01*
X044534Y020570D02*
X057642Y020570D01*
X057544Y020668D02*
X044115Y020668D01*
X044424Y020915D02*
X044462Y020925D01*
X044497Y020945D01*
X044525Y020973D01*
X044544Y021007D01*
X044555Y021045D01*
X044555Y021665D01*
X043805Y021665D01*
X043805Y021765D01*
X044555Y021765D01*
X044555Y022385D01*
X044544Y022423D01*
X044525Y022457D01*
X044497Y022485D01*
X044462Y022505D01*
X044424Y022515D01*
X043805Y022515D01*
X043805Y021765D01*
X043705Y021765D01*
X043705Y022515D01*
X043085Y022515D01*
X043047Y022505D01*
X043012Y022485D01*
X042985Y022457D01*
X042965Y022423D01*
X042955Y022385D01*
X042955Y021765D01*
X043705Y021765D01*
X043705Y021665D01*
X043805Y021665D01*
X043805Y020915D01*
X044424Y020915D01*
X044515Y020964D02*
X057248Y020964D01*
X057150Y021062D02*
X046076Y021062D01*
X046134Y021091D01*
X046185Y021129D01*
X046231Y021174D01*
X046268Y021226D01*
X046298Y021283D01*
X046317Y021344D01*
X046327Y021408D01*
X046327Y021411D01*
X045949Y021411D01*
X045949Y021469D01*
X045891Y021469D01*
X045891Y021847D01*
X045888Y021847D01*
X045825Y021837D01*
X045764Y021817D01*
X045706Y021788D01*
X045654Y021751D01*
X045609Y021705D01*
X045571Y021653D01*
X044555Y021653D01*
X044555Y021555D02*
X045529Y021555D01*
X045523Y021535D02*
X045512Y021472D01*
X045512Y021469D01*
X045891Y021469D01*
X045891Y021411D01*
X045512Y021411D01*
X045512Y021408D01*
X045523Y021344D01*
X045542Y021283D01*
X045571Y021226D01*
X045609Y021174D01*
X045654Y021129D01*
X045706Y021091D01*
X045764Y021062D01*
X044555Y021062D01*
X044555Y021161D02*
X045623Y021161D01*
X045555Y021259D02*
X044555Y021259D01*
X044555Y021358D02*
X045520Y021358D01*
X045523Y021535D02*
X045542Y021596D01*
X045571Y021653D01*
X045656Y021752D02*
X043805Y021752D01*
X043805Y021850D02*
X043705Y021850D01*
X043705Y021752D02*
X040656Y021752D01*
X040725Y021850D02*
X042955Y021850D01*
X042955Y021949D02*
X040725Y021949D01*
X040725Y022047D02*
X042955Y022047D01*
X042955Y022146D02*
X040725Y022146D01*
X040725Y022244D02*
X042955Y022244D01*
X042955Y022343D02*
X040725Y022343D01*
X040725Y022441D02*
X042975Y022441D01*
X043705Y022441D02*
X043805Y022441D01*
X043805Y022343D02*
X043705Y022343D01*
X043705Y022244D02*
X043805Y022244D01*
X043805Y022146D02*
X043705Y022146D01*
X043705Y022047D02*
X043805Y022047D01*
X043805Y021949D02*
X043705Y021949D01*
X043705Y021665D02*
X042955Y021665D01*
X042955Y021045D01*
X042965Y021007D01*
X042985Y020973D01*
X043012Y020945D01*
X043047Y020925D01*
X043085Y020915D01*
X043705Y020915D01*
X043705Y021665D01*
X043705Y021653D02*
X043805Y021653D01*
X043805Y021555D02*
X043705Y021555D01*
X043705Y021456D02*
X043805Y021456D01*
X043805Y021358D02*
X043705Y021358D01*
X043705Y021259D02*
X043805Y021259D01*
X043805Y021161D02*
X043705Y021161D01*
X043705Y021062D02*
X043805Y021062D01*
X043805Y020964D02*
X043705Y020964D01*
X043394Y020668D02*
X039363Y020668D01*
X039363Y020570D02*
X042975Y020570D01*
X042975Y020471D02*
X039363Y020471D01*
X039363Y020373D02*
X042975Y020373D01*
X042972Y020274D02*
X039363Y020274D01*
X039363Y020176D02*
X042931Y020176D01*
X042890Y020077D02*
X039363Y020077D01*
X039363Y019979D02*
X042875Y019979D01*
X042875Y019880D02*
X039363Y019880D01*
X039363Y019782D02*
X042875Y019782D01*
X042875Y019683D02*
X039363Y019683D01*
X039363Y019585D02*
X042875Y019585D01*
X042875Y019486D02*
X039363Y019486D01*
X039363Y019388D02*
X042875Y019388D01*
X042875Y019289D02*
X039363Y019289D01*
X039363Y019191D02*
X042875Y019191D01*
X042852Y019092D02*
X039363Y019092D01*
X039363Y018994D02*
X042753Y018994D01*
X042655Y018895D02*
X039363Y018895D01*
X039363Y018797D02*
X042589Y018797D01*
X042532Y018698D02*
X039363Y018698D01*
X039363Y018600D02*
X042475Y018600D01*
X042435Y018501D02*
X039363Y018501D01*
X039363Y018403D02*
X042409Y018403D01*
X042383Y018304D02*
X039363Y018304D01*
X039363Y018206D02*
X042356Y018206D01*
X042355Y018107D02*
X039363Y018107D01*
X039363Y018009D02*
X042355Y018009D01*
X042355Y017910D02*
X040725Y017910D01*
X040725Y017812D02*
X042355Y017812D01*
X042355Y017713D02*
X040725Y017713D01*
X040725Y017615D02*
X042355Y017615D01*
X042355Y017516D02*
X040725Y017516D01*
X040725Y017418D02*
X042355Y017418D01*
X042355Y017319D02*
X040725Y017319D01*
X040725Y017221D02*
X042355Y017221D01*
X042355Y017122D02*
X040725Y017122D01*
X040725Y017024D02*
X042355Y017024D01*
X042355Y016925D02*
X040725Y016925D01*
X040725Y016827D02*
X042355Y016827D01*
X042355Y016728D02*
X040725Y016728D01*
X040725Y016630D02*
X042355Y016630D01*
X050849Y016630D02*
X052998Y016630D01*
X052998Y016728D02*
X050849Y016728D01*
X050849Y016827D02*
X052998Y016827D01*
X052998Y016925D02*
X050849Y016925D01*
X050849Y017024D02*
X052998Y017024D01*
X052998Y017122D02*
X050849Y017122D01*
X050849Y017221D02*
X052998Y017221D01*
X052998Y017319D02*
X050849Y017319D01*
X050849Y017418D02*
X052998Y017418D01*
X052998Y017516D02*
X050849Y017516D01*
X050849Y017615D02*
X052959Y017615D01*
X052861Y017713D02*
X050849Y017713D01*
X050849Y017812D02*
X052762Y017812D01*
X052664Y017910D02*
X050849Y017910D01*
X050849Y018009D02*
X052565Y018009D01*
X052467Y018107D02*
X050849Y018107D01*
X050849Y018206D02*
X052368Y018206D01*
X052270Y018304D02*
X050849Y018304D01*
X050849Y018403D02*
X052171Y018403D01*
X052073Y018501D02*
X050849Y018501D01*
X050849Y018600D02*
X051974Y018600D01*
X051876Y018698D02*
X050849Y018698D01*
X050849Y018797D02*
X051777Y018797D01*
X051679Y018895D02*
X050849Y018895D01*
X050849Y018994D02*
X051580Y018994D01*
X051482Y019092D02*
X050849Y019092D01*
X050870Y019191D02*
X051383Y019191D01*
X051285Y019289D02*
X050942Y019289D01*
X050974Y019388D02*
X051186Y019388D01*
X051088Y019486D02*
X050974Y019486D01*
X051372Y019782D02*
X058430Y019782D01*
X058332Y019880D02*
X051368Y019880D01*
X051332Y019979D02*
X058233Y019979D01*
X058135Y020077D02*
X051253Y020077D01*
X051471Y019683D02*
X058529Y019683D01*
X058627Y019585D02*
X051569Y019585D01*
X051668Y019486D02*
X058726Y019486D01*
X058824Y019388D02*
X051766Y019388D01*
X051865Y019289D02*
X058923Y019289D01*
X059021Y019191D02*
X051963Y019191D01*
X052062Y019092D02*
X059120Y019092D01*
X059218Y018994D02*
X052160Y018994D01*
X052259Y018895D02*
X059317Y018895D01*
X059415Y018797D02*
X052357Y018797D01*
X052456Y018698D02*
X059514Y018698D01*
X059612Y018600D02*
X052554Y018600D01*
X052653Y018501D02*
X059711Y018501D01*
X059809Y018403D02*
X052751Y018403D01*
X052850Y018304D02*
X059908Y018304D01*
X060006Y018206D02*
X052948Y018206D01*
X053047Y018107D02*
X060105Y018107D01*
X060203Y018009D02*
X053145Y018009D01*
X053244Y017910D02*
X060302Y017910D01*
X060400Y017812D02*
X053342Y017812D01*
X053288Y017865D02*
X053288Y017865D01*
X053408Y017713D02*
X060499Y017713D01*
X060597Y017615D02*
X053408Y017615D01*
X053408Y017516D02*
X060696Y017516D01*
X060794Y017418D02*
X053408Y017418D01*
X053408Y017319D02*
X060893Y017319D01*
X060991Y017221D02*
X053408Y017221D01*
X053408Y017122D02*
X061090Y017122D01*
X061188Y017024D02*
X053408Y017024D01*
X053408Y016925D02*
X061287Y016925D01*
X061385Y016827D02*
X053408Y016827D01*
X053408Y016728D02*
X061484Y016728D01*
X061582Y016630D02*
X053408Y016630D01*
X053408Y016531D02*
X061681Y016531D01*
X061779Y016433D02*
X053408Y016433D01*
X053408Y016334D02*
X061878Y016334D01*
X061976Y016236D02*
X053408Y016236D01*
X053408Y016137D02*
X062075Y016137D01*
X062173Y016039D02*
X053408Y016039D01*
X053408Y015940D02*
X062272Y015940D01*
X062370Y015842D02*
X053408Y015842D01*
X053408Y015743D02*
X062469Y015743D01*
X062567Y015645D02*
X053408Y015645D01*
X053408Y015546D02*
X062666Y015546D01*
X062764Y015448D02*
X053408Y015448D01*
X053408Y015349D02*
X062863Y015349D01*
X062961Y015251D02*
X053408Y015251D01*
X053408Y015152D02*
X063060Y015152D01*
X063158Y015054D02*
X053408Y015054D01*
X053408Y014955D02*
X063257Y014955D01*
X063355Y014857D02*
X053408Y014857D01*
X053408Y014758D02*
X063454Y014758D01*
X063552Y014660D02*
X053408Y014660D01*
X053408Y014561D02*
X063651Y014561D01*
X063749Y014463D02*
X053408Y014463D01*
X053408Y014364D02*
X063848Y014364D01*
X063946Y014266D02*
X053408Y014266D01*
X053408Y014167D02*
X064045Y014167D01*
X064143Y014069D02*
X053408Y014069D01*
X053408Y013970D02*
X064242Y013970D01*
X064340Y013872D02*
X053408Y013872D01*
X053463Y013773D02*
X064439Y013773D01*
X064537Y013675D02*
X053516Y013675D01*
X053533Y013576D02*
X064636Y013576D01*
X064734Y013478D02*
X053524Y013478D01*
X053483Y013379D02*
X064833Y013379D01*
X064931Y013281D02*
X053377Y013281D01*
X053030Y013281D02*
X050849Y013281D01*
X050849Y013379D02*
X052924Y013379D01*
X052883Y013478D02*
X050849Y013478D01*
X050849Y013576D02*
X052873Y013576D01*
X052891Y013675D02*
X050849Y013675D01*
X050849Y013773D02*
X052944Y013773D01*
X052998Y013872D02*
X050849Y013872D01*
X050849Y013970D02*
X052998Y013970D01*
X052998Y014069D02*
X050849Y014069D01*
X050849Y014167D02*
X052998Y014167D01*
X052998Y014266D02*
X050849Y014266D01*
X050849Y014364D02*
X052998Y014364D01*
X052998Y014463D02*
X050849Y014463D01*
X050849Y014561D02*
X052998Y014561D01*
X052998Y014660D02*
X050849Y014660D01*
X050849Y014758D02*
X052998Y014758D01*
X052998Y014857D02*
X050849Y014857D01*
X050849Y014955D02*
X052998Y014955D01*
X052998Y015054D02*
X050849Y015054D01*
X050849Y015152D02*
X052998Y015152D01*
X052998Y015251D02*
X050849Y015251D01*
X050849Y015349D02*
X052998Y015349D01*
X052998Y015448D02*
X050849Y015448D01*
X050849Y015546D02*
X052998Y015546D01*
X052998Y015645D02*
X050849Y015645D01*
X050849Y015743D02*
X052998Y015743D01*
X052998Y015842D02*
X050849Y015842D01*
X050849Y015940D02*
X052998Y015940D01*
X052998Y016039D02*
X050849Y016039D01*
X050849Y016137D02*
X052998Y016137D01*
X052998Y016236D02*
X050849Y016236D01*
X050849Y016334D02*
X052998Y016334D01*
X052998Y016433D02*
X050849Y016433D01*
X050849Y016531D02*
X052998Y016531D01*
X052219Y019471D02*
X053364Y021387D01*
X055771Y022441D02*
X044534Y022441D01*
X044555Y022343D02*
X055869Y022343D01*
X055968Y022244D02*
X044555Y022244D01*
X044555Y022146D02*
X056066Y022146D01*
X056165Y022047D02*
X044555Y022047D01*
X044555Y021949D02*
X056263Y021949D01*
X056362Y021850D02*
X044555Y021850D01*
X044555Y021456D02*
X045891Y021456D01*
X045891Y021411D02*
X045949Y021411D01*
X045949Y021032D01*
X045952Y021032D01*
X046015Y021042D01*
X046076Y021062D01*
X045949Y021062D02*
X045891Y021062D01*
X045891Y021032D02*
X045891Y021411D01*
X045891Y021358D02*
X045949Y021358D01*
X045949Y021456D02*
X056756Y021456D01*
X056854Y021358D02*
X046319Y021358D01*
X046285Y021259D02*
X056953Y021259D01*
X057051Y021161D02*
X046217Y021161D01*
X045949Y021161D02*
X045891Y021161D01*
X045891Y021259D02*
X045949Y021259D01*
X045949Y021469D02*
X046327Y021469D01*
X046327Y021472D01*
X046317Y021535D01*
X046298Y021596D01*
X046268Y021653D01*
X046231Y021705D01*
X046185Y021751D01*
X046134Y021788D01*
X046076Y021817D01*
X046015Y021837D01*
X045952Y021847D01*
X045949Y021847D01*
X045949Y021469D01*
X045949Y021555D02*
X045891Y021555D01*
X045891Y021653D02*
X045949Y021653D01*
X045949Y021752D02*
X045891Y021752D01*
X046184Y021752D02*
X056460Y021752D01*
X056559Y021653D02*
X046269Y021653D01*
X046311Y021555D02*
X056657Y021555D01*
X057347Y020865D02*
X039363Y020865D01*
X039363Y020767D02*
X057445Y020767D01*
X055672Y022540D02*
X040725Y022540D01*
X040725Y022638D02*
X055574Y022638D01*
X055475Y022737D02*
X053195Y022737D01*
X053266Y022835D02*
X055377Y022835D01*
X055278Y022934D02*
X053297Y022934D01*
X053297Y023032D02*
X055180Y023032D01*
X055081Y023131D02*
X053260Y023131D01*
X053180Y023229D02*
X054983Y023229D01*
X054884Y023328D02*
X053172Y023328D01*
X053172Y023426D02*
X054786Y023426D01*
X054687Y023525D02*
X053172Y023525D01*
X053172Y023623D02*
X054589Y023623D01*
X054490Y023722D02*
X053172Y023722D01*
X053172Y023820D02*
X054392Y023820D01*
X054293Y023919D02*
X053172Y023919D01*
X053172Y024017D02*
X054195Y024017D01*
X054096Y024116D02*
X053172Y024116D01*
X053172Y024214D02*
X053998Y024214D01*
X053899Y024313D02*
X053172Y024313D01*
X053172Y024411D02*
X053801Y024411D01*
X053702Y024510D02*
X053172Y024510D01*
X053172Y024608D02*
X053604Y024608D01*
X053379Y024707D02*
X053172Y024707D01*
X053216Y024805D02*
X053230Y024805D01*
X052762Y024707D02*
X039363Y024707D01*
X039363Y024805D02*
X052718Y024805D01*
X052659Y024904D02*
X039363Y024904D01*
X039363Y025002D02*
X052637Y025002D01*
X052642Y025101D02*
X039363Y025101D01*
X039363Y025199D02*
X052683Y025199D01*
X052776Y025298D02*
X039363Y025298D01*
X039363Y025396D02*
X053671Y025396D01*
X053671Y025298D02*
X053770Y025298D01*
X053763Y025199D02*
X053868Y025199D01*
X053804Y025101D02*
X053967Y025101D01*
X054065Y025002D02*
X053809Y025002D01*
X053888Y024904D02*
X054164Y024904D01*
X054262Y024805D02*
X053986Y024805D01*
X054085Y024707D02*
X054361Y024707D01*
X054444Y024608D02*
X054183Y024608D01*
X054282Y024510D02*
X054558Y024510D01*
X054714Y024411D02*
X054380Y024411D01*
X054479Y024313D02*
X054851Y024313D01*
X054980Y024214D02*
X054577Y024214D01*
X054676Y024116D02*
X054861Y024116D01*
X054815Y024017D02*
X054774Y024017D01*
X052762Y024017D02*
X039363Y024017D01*
X039363Y023919D02*
X052762Y023919D01*
X052762Y023820D02*
X039363Y023820D01*
X039363Y023722D02*
X052762Y023722D01*
X052762Y023623D02*
X039363Y023623D01*
X039363Y023525D02*
X052762Y023525D01*
X052762Y023426D02*
X039363Y023426D01*
X039363Y023328D02*
X052762Y023328D01*
X052754Y023229D02*
X039363Y023229D01*
X040704Y023131D02*
X052674Y023131D01*
X052637Y023032D02*
X040725Y023032D01*
X040725Y022934D02*
X052637Y022934D01*
X052668Y022835D02*
X040725Y022835D01*
X040725Y022737D02*
X052739Y022737D01*
X052762Y024116D02*
X039363Y024116D01*
X039363Y024214D02*
X052762Y024214D01*
X052762Y024313D02*
X039363Y024313D01*
X039363Y024411D02*
X052762Y024411D01*
X052762Y024510D02*
X039363Y024510D01*
X039363Y024608D02*
X052762Y024608D01*
X053159Y025298D02*
X053287Y025298D01*
X053573Y025495D02*
X039363Y025495D01*
X039363Y025593D02*
X053474Y025593D01*
X053376Y025692D02*
X039363Y025692D01*
X039363Y025790D02*
X053277Y025790D01*
X053179Y025889D02*
X039363Y025889D01*
X039363Y025987D02*
X053080Y025987D01*
X052982Y026086D02*
X039363Y026086D01*
X039363Y026184D02*
X052883Y026184D01*
X052785Y026283D02*
X039363Y026283D01*
X039363Y026381D02*
X052686Y026381D01*
X052588Y026480D02*
X050515Y026480D01*
X050262Y026480D02*
X039363Y026480D01*
X039363Y026578D02*
X050029Y026578D01*
X049930Y026677D02*
X039363Y026677D01*
X039363Y026775D02*
X049845Y026775D01*
X049804Y026874D02*
X039363Y026874D01*
X039363Y026972D02*
X047519Y026972D01*
X047439Y027071D02*
X039363Y027071D01*
X039363Y027169D02*
X047401Y027169D01*
X047401Y027268D02*
X039363Y027268D01*
X039363Y027366D02*
X047431Y027366D01*
X047502Y027465D02*
X039363Y027465D01*
X039363Y027563D02*
X049076Y027563D01*
X048978Y027465D02*
X047960Y027465D01*
X047942Y026972D02*
X049763Y026972D01*
X049758Y027071D02*
X049163Y027071D01*
X049262Y027169D02*
X049758Y027169D01*
X049772Y027268D02*
X049360Y027268D01*
X049459Y027366D02*
X049813Y027366D01*
X049854Y027465D02*
X049557Y027465D01*
X049656Y027563D02*
X049951Y027563D01*
X050050Y027662D02*
X049754Y027662D01*
X049853Y027760D02*
X050148Y027760D01*
X050247Y027859D02*
X049951Y027859D01*
X050050Y027957D02*
X050345Y027957D01*
X050444Y028056D02*
X050148Y028056D01*
X050247Y028154D02*
X050542Y028154D01*
X050641Y028253D02*
X050345Y028253D01*
X050444Y028351D02*
X050739Y028351D01*
X050838Y028450D02*
X050542Y028450D01*
X050641Y028548D02*
X050880Y028548D01*
X050880Y028647D02*
X050739Y028647D01*
X050810Y028745D02*
X050880Y028745D01*
X050880Y028844D02*
X050810Y028844D01*
X050810Y028942D02*
X050880Y028942D01*
X050880Y029041D02*
X050810Y029041D01*
X050794Y029139D02*
X050880Y029139D01*
X050880Y029238D02*
X050771Y029238D01*
X050771Y029336D02*
X050880Y029336D01*
X050880Y029435D02*
X050771Y029435D01*
X050779Y029533D02*
X050880Y029533D01*
X050880Y029632D02*
X050859Y029632D01*
X050864Y029927D02*
X050880Y029927D01*
X050880Y030026D02*
X050793Y030026D01*
X050880Y030124D02*
X048556Y030124D01*
X048654Y030223D02*
X050880Y030223D01*
X050880Y030321D02*
X048753Y030321D01*
X048457Y030026D02*
X050338Y030026D01*
X050267Y029927D02*
X048359Y029927D01*
X048260Y029829D02*
X050236Y029829D01*
X050236Y029730D02*
X048162Y029730D01*
X048063Y029632D02*
X050273Y029632D01*
X050352Y029533D02*
X047965Y029533D01*
X047866Y029435D02*
X050361Y029435D01*
X050361Y029336D02*
X047881Y029336D01*
X047936Y029238D02*
X050115Y029238D01*
X049964Y029139D02*
X047936Y029139D01*
X047999Y029041D02*
X048152Y029041D01*
X048054Y028942D02*
X048046Y028942D01*
X048338Y028647D02*
X050018Y028647D01*
X050061Y028548D02*
X048239Y028548D01*
X048141Y028450D02*
X049963Y028450D01*
X049864Y028351D02*
X048042Y028351D01*
X047944Y028253D02*
X049766Y028253D01*
X049667Y028154D02*
X046479Y028154D01*
X046519Y028056D02*
X049569Y028056D01*
X049470Y027957D02*
X046526Y027957D01*
X046504Y027859D02*
X049372Y027859D01*
X049273Y027760D02*
X046447Y027760D01*
X046301Y027662D02*
X049175Y027662D01*
X047518Y028253D02*
X046401Y028253D01*
X046401Y028351D02*
X047420Y028351D01*
X047321Y028450D02*
X046401Y028450D01*
X046401Y028548D02*
X047223Y028548D01*
X047124Y028647D02*
X046401Y028647D01*
X046401Y028745D02*
X047026Y028745D01*
X046927Y028844D02*
X046401Y028844D01*
X046401Y028942D02*
X046829Y028942D01*
X046730Y029041D02*
X046401Y029041D01*
X046401Y029139D02*
X046632Y029139D01*
X045991Y029139D02*
X042433Y029139D01*
X042407Y029203D02*
X042266Y029344D01*
X042082Y029420D01*
X041883Y029420D01*
X041700Y029344D01*
X041559Y029203D01*
X041483Y029020D01*
X041483Y028821D01*
X041559Y028637D01*
X041700Y028496D01*
X041883Y028420D01*
X042082Y028420D01*
X042266Y028496D01*
X042407Y028637D01*
X042483Y028821D01*
X042483Y029020D01*
X042407Y029203D01*
X042373Y029238D02*
X045991Y029238D01*
X045991Y029336D02*
X042274Y029336D01*
X042266Y029496D02*
X042407Y029637D01*
X042483Y029821D01*
X042483Y030020D01*
X042407Y030203D01*
X042266Y030344D01*
X042082Y030420D01*
X041883Y030420D01*
X041700Y030344D01*
X041559Y030203D01*
X041483Y030020D01*
X041483Y029821D01*
X041559Y029637D01*
X041700Y029496D01*
X041883Y029420D01*
X042082Y029420D01*
X042266Y029496D01*
X042303Y029533D02*
X045991Y029533D01*
X045991Y029435D02*
X042117Y029435D01*
X041849Y029435D02*
X039363Y029435D01*
X039363Y029533D02*
X041663Y029533D01*
X041564Y029632D02*
X039363Y029632D01*
X039363Y029730D02*
X041520Y029730D01*
X041483Y029829D02*
X039363Y029829D01*
X039363Y029927D02*
X041483Y029927D01*
X041485Y030026D02*
X039363Y030026D01*
X039363Y030124D02*
X041526Y030124D01*
X041578Y030223D02*
X039363Y030223D01*
X039363Y030321D02*
X041677Y030321D01*
X041700Y030496D02*
X041883Y030420D01*
X042082Y030420D01*
X042266Y030496D01*
X042407Y030637D01*
X042483Y030821D01*
X042483Y031020D01*
X042407Y031203D01*
X042266Y031344D01*
X042082Y031420D01*
X041883Y031420D01*
X041700Y031344D01*
X041559Y031203D01*
X041483Y031020D01*
X041483Y030821D01*
X041559Y030637D01*
X041700Y030496D01*
X041678Y030518D02*
X039363Y030518D01*
X039363Y030420D02*
X041882Y030420D01*
X042084Y030420D02*
X045991Y030420D01*
X045991Y030518D02*
X042288Y030518D01*
X042386Y030617D02*
X045991Y030617D01*
X045991Y030715D02*
X042439Y030715D01*
X042480Y030814D02*
X045991Y030814D01*
X045991Y030912D02*
X042483Y030912D01*
X042483Y031011D02*
X045991Y031011D01*
X045991Y031109D02*
X042446Y031109D01*
X042403Y031208D02*
X045991Y031208D01*
X045991Y031306D02*
X042304Y031306D01*
X042266Y031496D02*
X042407Y031637D01*
X042483Y031821D01*
X042483Y032020D01*
X042407Y032203D01*
X042266Y032344D01*
X042082Y032420D01*
X041883Y032420D01*
X041700Y032344D01*
X041559Y032203D01*
X041483Y032020D01*
X041483Y031821D01*
X041559Y031637D01*
X041700Y031496D01*
X041883Y031420D01*
X042082Y031420D01*
X042266Y031496D01*
X042273Y031503D02*
X045991Y031503D01*
X045991Y031405D02*
X042120Y031405D01*
X041846Y031405D02*
X039363Y031405D01*
X039363Y031503D02*
X041693Y031503D01*
X041594Y031602D02*
X039363Y031602D01*
X039363Y031700D02*
X041533Y031700D01*
X041492Y031799D02*
X039363Y031799D01*
X039363Y031897D02*
X041483Y031897D01*
X041483Y031996D02*
X039363Y031996D01*
X039363Y032094D02*
X041514Y032094D01*
X041555Y032193D02*
X039363Y032193D01*
X039363Y032291D02*
X041647Y032291D01*
X041810Y032390D02*
X039363Y032390D01*
X039363Y032488D02*
X041720Y032488D01*
X041700Y032496D02*
X041883Y032420D01*
X042082Y032420D01*
X042266Y032496D01*
X042407Y032637D01*
X042483Y032821D01*
X042483Y033020D01*
X042407Y033203D01*
X042266Y033344D01*
X042082Y033420D01*
X041883Y033420D01*
X041700Y033344D01*
X041559Y033203D01*
X041483Y033020D01*
X041483Y032821D01*
X041559Y032637D01*
X041700Y032496D01*
X041609Y032587D02*
X039363Y032587D01*
X039363Y032685D02*
X041539Y032685D01*
X041498Y032784D02*
X039363Y032784D01*
X039363Y032882D02*
X041483Y032882D01*
X041483Y032981D02*
X039363Y032981D01*
X039363Y033079D02*
X041508Y033079D01*
X041548Y033178D02*
X039363Y033178D01*
X039363Y033276D02*
X041632Y033276D01*
X041773Y033375D02*
X039363Y033375D01*
X039363Y033473D02*
X041756Y033473D01*
X041700Y033496D02*
X041883Y033420D01*
X042082Y033420D01*
X042266Y033496D01*
X042407Y033637D01*
X042483Y033821D01*
X042483Y034020D01*
X042407Y034203D01*
X042266Y034344D01*
X042082Y034420D01*
X041883Y034420D01*
X041700Y034344D01*
X041559Y034203D01*
X041483Y034020D01*
X041483Y033821D01*
X041559Y033637D01*
X041700Y033496D01*
X041624Y033572D02*
X039363Y033572D01*
X039363Y033670D02*
X041545Y033670D01*
X041505Y033769D02*
X039363Y033769D01*
X039363Y033867D02*
X041483Y033867D01*
X041483Y033966D02*
X039363Y033966D01*
X039363Y034064D02*
X041501Y034064D01*
X041542Y034163D02*
X039363Y034163D01*
X039363Y034261D02*
X041617Y034261D01*
X041737Y034360D02*
X039363Y034360D01*
X039363Y034458D02*
X041792Y034458D01*
X041883Y034420D02*
X042082Y034420D01*
X042266Y034496D01*
X042407Y034637D01*
X042483Y034821D01*
X042483Y035020D01*
X042407Y035203D01*
X042266Y035344D01*
X042082Y035420D01*
X041883Y035420D01*
X041700Y035344D01*
X041559Y035203D01*
X041483Y035020D01*
X041483Y034821D01*
X041559Y034637D01*
X041700Y034496D01*
X041883Y034420D01*
X041639Y034557D02*
X039363Y034557D01*
X039363Y034655D02*
X041552Y034655D01*
X041511Y034754D02*
X039363Y034754D01*
X039363Y034852D02*
X041483Y034852D01*
X041483Y034951D02*
X039363Y034951D01*
X039363Y035049D02*
X041495Y035049D01*
X041536Y035148D02*
X039363Y035148D01*
X039363Y035246D02*
X041602Y035246D01*
X041701Y035345D02*
X039363Y035345D01*
X039363Y035443D02*
X041828Y035443D01*
X041883Y035420D02*
X042082Y035420D01*
X042266Y035496D01*
X042407Y035637D01*
X042483Y035821D01*
X042483Y036020D01*
X042407Y036203D01*
X042266Y036344D01*
X042082Y036420D01*
X041883Y036420D01*
X041700Y036344D01*
X041559Y036203D01*
X041483Y036020D01*
X041483Y035821D01*
X041559Y035637D01*
X041700Y035496D01*
X041883Y035420D01*
X042138Y035443D02*
X047429Y035443D01*
X047527Y035542D02*
X042311Y035542D01*
X042408Y035640D02*
X047626Y035640D01*
X047724Y035739D02*
X042449Y035739D01*
X042483Y035837D02*
X047823Y035837D01*
X047921Y035936D02*
X042483Y035936D01*
X042477Y036034D02*
X048020Y036034D01*
X048118Y036133D02*
X042436Y036133D01*
X042379Y036231D02*
X048217Y036231D01*
X048063Y036330D02*
X047564Y036330D01*
X047521Y036286D02*
X047814Y036579D01*
X047814Y036993D01*
X047521Y037286D01*
X047107Y037286D01*
X046814Y036993D01*
X046814Y036579D01*
X047107Y036286D01*
X047521Y036286D01*
X047663Y036428D02*
X047965Y036428D01*
X047866Y036527D02*
X047761Y036527D01*
X047814Y036625D02*
X047814Y036625D01*
X047814Y036724D02*
X047814Y036724D01*
X047814Y036822D02*
X047814Y036822D01*
X047814Y036921D02*
X047814Y036921D01*
X047788Y037019D02*
X047839Y037019D01*
X047938Y037118D02*
X047689Y037118D01*
X047591Y037216D02*
X048036Y037216D01*
X048078Y037315D02*
X047549Y037315D01*
X047521Y037286D02*
X047814Y037579D01*
X047814Y037993D01*
X047521Y038286D01*
X047107Y038286D01*
X046814Y037993D01*
X046814Y037579D01*
X047107Y037286D01*
X047521Y037286D01*
X047648Y037413D02*
X047980Y037413D01*
X047881Y037512D02*
X047746Y037512D01*
X047814Y037610D02*
X047814Y037610D01*
X047814Y037709D02*
X047814Y037709D01*
X047814Y037807D02*
X047814Y037807D01*
X047814Y037906D02*
X047814Y037906D01*
X047803Y038004D02*
X047824Y038004D01*
X047923Y038103D02*
X047704Y038103D01*
X047606Y038201D02*
X048021Y038201D01*
X048606Y038201D02*
X056950Y038201D01*
X056950Y038287D02*
X056950Y037664D01*
X057026Y037588D01*
X057649Y037588D01*
X057725Y037664D01*
X057725Y038287D01*
X057649Y038363D01*
X057026Y038363D01*
X056950Y038287D01*
X056963Y038300D02*
X042311Y038300D01*
X042266Y038344D02*
X042082Y038420D01*
X041883Y038420D01*
X041700Y038344D01*
X041559Y038203D01*
X041483Y038020D01*
X041483Y037821D01*
X041559Y037637D01*
X041700Y037496D01*
X041883Y037420D01*
X041700Y037344D01*
X041559Y037203D01*
X041483Y037020D01*
X041483Y036821D01*
X041559Y036637D01*
X041700Y036496D01*
X041883Y036420D01*
X042082Y036420D01*
X042266Y036496D01*
X042407Y036637D01*
X042483Y036821D01*
X042483Y037020D01*
X042407Y037203D01*
X042266Y037344D01*
X042082Y037420D01*
X041883Y037420D01*
X042082Y037420D01*
X042266Y037496D01*
X042407Y037637D01*
X042483Y037821D01*
X042483Y038020D01*
X042407Y038203D01*
X042266Y038344D01*
X042136Y038398D02*
X064818Y038398D01*
X064818Y038300D02*
X060711Y038300D01*
X060706Y038304D02*
X060564Y038363D01*
X060410Y038363D01*
X060267Y038304D01*
X060158Y038195D01*
X060099Y038052D01*
X060099Y037898D01*
X060158Y037756D01*
X060267Y037647D01*
X060410Y037588D01*
X060564Y037588D01*
X060706Y037647D01*
X060815Y037756D01*
X060874Y037898D01*
X060874Y038052D01*
X060815Y038195D01*
X060706Y038304D01*
X060809Y038201D02*
X064818Y038201D01*
X064818Y038103D02*
X060854Y038103D01*
X060874Y038004D02*
X064818Y038004D01*
X064818Y037906D02*
X060874Y037906D01*
X060837Y037807D02*
X064818Y037807D01*
X064818Y037709D02*
X060768Y037709D01*
X060618Y037610D02*
X062863Y037610D01*
X062854Y037605D02*
X062826Y037577D01*
X062806Y037543D01*
X062796Y037504D01*
X062796Y037236D01*
X063194Y037236D01*
X063194Y037139D01*
X063291Y037139D01*
X063291Y036741D01*
X063559Y036741D01*
X063598Y036751D01*
X063632Y036771D01*
X063660Y036799D01*
X063679Y036833D01*
X063690Y036871D01*
X063690Y036925D01*
X063788Y036826D01*
X063945Y036761D01*
X064115Y036761D01*
X064272Y036826D01*
X064392Y036946D01*
X064457Y037103D01*
X064457Y037273D01*
X064392Y037430D01*
X064272Y037550D01*
X064115Y037615D01*
X063945Y037615D01*
X063788Y037550D01*
X063690Y037451D01*
X063690Y037504D01*
X063679Y037543D01*
X063660Y037577D01*
X063632Y037605D01*
X063598Y037625D01*
X063559Y037635D01*
X063291Y037635D01*
X063291Y037236D01*
X063194Y037236D01*
X063194Y037635D01*
X062926Y037635D01*
X062888Y037625D01*
X062854Y037605D01*
X062798Y037512D02*
X058448Y037512D01*
X058448Y037610D02*
X058781Y037610D01*
X058835Y037588D02*
X058989Y037588D01*
X059132Y037647D01*
X059241Y037756D01*
X059300Y037898D01*
X059300Y038052D01*
X059241Y038195D01*
X059132Y038304D01*
X058989Y038363D01*
X058835Y038363D01*
X058693Y038304D01*
X058584Y038195D01*
X058525Y038052D01*
X058525Y037898D01*
X058584Y037756D01*
X058693Y037647D01*
X058835Y037588D01*
X059043Y037610D02*
X059569Y037610D01*
X059622Y037588D02*
X059777Y037588D01*
X059919Y037647D01*
X060028Y037756D01*
X060087Y037898D01*
X060087Y038052D01*
X060028Y038195D01*
X059919Y038304D01*
X059777Y038363D01*
X059622Y038363D01*
X059480Y038304D01*
X059371Y038195D01*
X059312Y038052D01*
X059312Y037898D01*
X059371Y037756D01*
X059480Y037647D01*
X059622Y037588D01*
X059830Y037610D02*
X060356Y037610D01*
X060206Y037709D02*
X059981Y037709D01*
X060049Y037807D02*
X060137Y037807D01*
X060099Y037906D02*
X060087Y037906D01*
X060087Y038004D02*
X060099Y038004D01*
X060120Y038103D02*
X060066Y038103D01*
X060022Y038201D02*
X060165Y038201D01*
X060263Y038300D02*
X059923Y038300D01*
X059476Y038300D02*
X059136Y038300D01*
X059234Y038201D02*
X059377Y038201D01*
X059333Y038103D02*
X059279Y038103D01*
X059300Y038004D02*
X059312Y038004D01*
X059300Y037906D02*
X059312Y037906D01*
X059350Y037807D02*
X059262Y037807D01*
X059193Y037709D02*
X059418Y037709D01*
X058631Y037709D02*
X058448Y037709D01*
X058474Y037807D02*
X058562Y037807D01*
X058525Y037906D02*
X058512Y037906D01*
X058512Y038004D02*
X058525Y038004D01*
X058545Y038103D02*
X058491Y038103D01*
X058447Y038201D02*
X058590Y038201D01*
X058688Y038300D02*
X058348Y038300D01*
X057901Y038300D02*
X057712Y038300D01*
X057725Y038201D02*
X057803Y038201D01*
X057758Y038103D02*
X057725Y038103D01*
X057725Y038004D02*
X057737Y038004D01*
X057725Y037906D02*
X057737Y037906D01*
X057725Y037807D02*
X057775Y037807D01*
X057725Y037709D02*
X057843Y037709D01*
X057994Y037610D02*
X057671Y037610D01*
X058038Y037512D02*
X049626Y037512D01*
X049528Y037610D02*
X057004Y037610D01*
X056950Y037709D02*
X049429Y037709D01*
X049331Y037807D02*
X056950Y037807D01*
X056950Y037906D02*
X049321Y037906D01*
X049287Y038004D02*
X056950Y038004D01*
X056950Y038103D02*
X049212Y038103D01*
X048770Y038103D02*
X048704Y038103D01*
X049725Y037413D02*
X058038Y037413D01*
X058038Y037315D02*
X049823Y037315D01*
X049922Y037216D02*
X058038Y037216D01*
X058038Y037118D02*
X050020Y037118D01*
X050119Y037019D02*
X058038Y037019D01*
X058038Y036921D02*
X050217Y036921D01*
X050316Y036822D02*
X058038Y036822D01*
X058038Y036724D02*
X050414Y036724D01*
X050513Y036625D02*
X058038Y036625D01*
X058038Y036527D02*
X050611Y036527D01*
X050710Y036428D02*
X058038Y036428D01*
X058038Y036330D02*
X050808Y036330D01*
X050849Y036231D02*
X058038Y036231D01*
X058038Y036133D02*
X050849Y036133D01*
X050849Y036034D02*
X057549Y036034D01*
X057405Y035936D02*
X050849Y035936D01*
X050849Y035837D02*
X057306Y035837D01*
X057208Y035739D02*
X050849Y035739D01*
X050849Y035640D02*
X051446Y035640D01*
X051302Y035542D02*
X051280Y035542D01*
X051111Y035542D02*
X050849Y035542D01*
X050849Y035443D02*
X050953Y035443D01*
X050890Y035345D02*
X050849Y035345D01*
X050849Y035246D02*
X050866Y035246D01*
X050868Y035148D02*
X050849Y035148D01*
X050849Y035049D02*
X050909Y035049D01*
X050849Y034951D02*
X050998Y034951D01*
X051032Y034852D02*
X050849Y034852D01*
X050849Y034754D02*
X051032Y034754D01*
X051032Y034655D02*
X050849Y034655D01*
X050849Y034557D02*
X051032Y034557D01*
X051032Y034458D02*
X050849Y034458D01*
X050849Y034360D02*
X051032Y034360D01*
X051032Y034261D02*
X050849Y034261D01*
X050849Y034163D02*
X051032Y034163D01*
X051032Y034064D02*
X050849Y034064D01*
X050849Y033966D02*
X051032Y033966D01*
X051032Y033867D02*
X050849Y033867D01*
X050849Y033769D02*
X051032Y033769D01*
X051032Y033670D02*
X050849Y033670D01*
X050849Y033572D02*
X051032Y033572D01*
X051032Y033473D02*
X050849Y033473D01*
X050849Y033375D02*
X051032Y033375D01*
X051032Y033276D02*
X050849Y033276D01*
X050849Y033178D02*
X051032Y033178D01*
X051032Y033079D02*
X050849Y033079D01*
X050849Y032981D02*
X051032Y032981D01*
X051032Y032882D02*
X050849Y032882D01*
X050849Y032784D02*
X051032Y032784D01*
X051018Y032685D02*
X050849Y032685D01*
X050849Y032587D02*
X050941Y032587D01*
X050901Y032488D02*
X050849Y032488D01*
X050849Y032390D02*
X050861Y032390D01*
X050849Y032291D02*
X050861Y032291D01*
X050849Y032193D02*
X050861Y032193D01*
X050849Y031996D02*
X050880Y031996D01*
X050880Y031897D02*
X050849Y031897D01*
X050849Y031799D02*
X050880Y031799D01*
X050880Y031700D02*
X050849Y031700D01*
X050849Y031602D02*
X050880Y031602D01*
X050880Y031503D02*
X050849Y031503D01*
X050849Y031405D02*
X050880Y031405D01*
X050880Y031306D02*
X050849Y031306D01*
X050849Y031208D02*
X050880Y031208D01*
X050880Y031109D02*
X050849Y031109D01*
X050849Y031011D02*
X050880Y031011D01*
X050880Y030912D02*
X050849Y030912D01*
X050849Y030814D02*
X050880Y030814D01*
X050880Y030715D02*
X050800Y030715D01*
X050880Y030617D02*
X050702Y030617D01*
X050603Y030518D02*
X050880Y030518D01*
X050880Y030420D02*
X050505Y030420D01*
X050361Y029238D02*
X050307Y029238D01*
X051536Y027366D02*
X051701Y027366D01*
X051800Y027268D02*
X051438Y027268D01*
X051339Y027169D02*
X051898Y027169D01*
X051997Y027071D02*
X051241Y027071D01*
X051142Y026972D02*
X052095Y026972D01*
X052194Y026874D02*
X051044Y026874D01*
X050945Y026775D02*
X052292Y026775D01*
X052391Y026677D02*
X050847Y026677D01*
X050748Y026578D02*
X052489Y026578D01*
X054281Y028450D02*
X069209Y028450D01*
X069307Y028351D02*
X057724Y028351D01*
X057822Y028253D02*
X069406Y028253D01*
X069504Y028154D02*
X057921Y028154D01*
X058019Y028056D02*
X069603Y028056D01*
X069701Y027957D02*
X058118Y027957D01*
X058216Y027859D02*
X069800Y027859D01*
X069898Y027760D02*
X058315Y027760D01*
X058413Y027662D02*
X069997Y027662D01*
X070095Y027563D02*
X058512Y027563D01*
X058610Y027465D02*
X070234Y027465D01*
X070425Y027465D02*
X072203Y027465D01*
X072064Y027563D02*
X070564Y027563D01*
X070611Y027662D02*
X072016Y027662D01*
X072008Y027760D02*
X070619Y027760D01*
X070594Y027859D02*
X072008Y027859D01*
X072008Y027957D02*
X070522Y027957D01*
X070423Y028056D02*
X071981Y028056D01*
X071883Y028154D02*
X070325Y028154D01*
X070226Y028253D02*
X071784Y028253D01*
X071686Y028351D02*
X070128Y028351D01*
X070029Y028450D02*
X071587Y028450D01*
X072902Y028450D02*
X078311Y028450D01*
X078301Y028459D02*
X078530Y028230D01*
X078829Y028106D01*
X079153Y028106D01*
X079452Y028230D01*
X079681Y028459D01*
X079805Y028758D01*
X079805Y029082D01*
X079681Y029381D01*
X079642Y029420D01*
X079681Y029459D01*
X079805Y029758D01*
X079805Y030082D01*
X079681Y030381D01*
X079642Y030420D01*
X086701Y030420D01*
X086678Y030396D02*
X086678Y029279D01*
X087468Y028489D01*
X088585Y028489D01*
X089375Y029279D01*
X089375Y030396D01*
X088585Y031186D01*
X087468Y031186D01*
X086678Y030396D01*
X086678Y030321D02*
X079705Y030321D01*
X079746Y030223D02*
X086678Y030223D01*
X086678Y030124D02*
X079787Y030124D01*
X079805Y030026D02*
X086678Y030026D01*
X086678Y029927D02*
X079805Y029927D01*
X079805Y029829D02*
X086678Y029829D01*
X086678Y029730D02*
X079793Y029730D01*
X079752Y029632D02*
X086678Y029632D01*
X086678Y029533D02*
X079711Y029533D01*
X079656Y029435D02*
X086678Y029435D01*
X086678Y029336D02*
X079699Y029336D01*
X079740Y029238D02*
X086719Y029238D01*
X086817Y029139D02*
X079781Y029139D01*
X079805Y029041D02*
X086916Y029041D01*
X087014Y028942D02*
X079805Y028942D01*
X079805Y028844D02*
X087113Y028844D01*
X087211Y028745D02*
X079799Y028745D01*
X079758Y028647D02*
X087310Y028647D01*
X087408Y028548D02*
X079717Y028548D01*
X079671Y028450D02*
X089484Y028450D01*
X089484Y028548D02*
X088644Y028548D01*
X088743Y028647D02*
X089484Y028647D01*
X089484Y028745D02*
X088841Y028745D01*
X088940Y028844D02*
X089484Y028844D01*
X089484Y028942D02*
X089038Y028942D01*
X089137Y029041D02*
X089484Y029041D01*
X089484Y029139D02*
X089235Y029139D01*
X089334Y029238D02*
X089484Y029238D01*
X089484Y029336D02*
X089375Y029336D01*
X089375Y029435D02*
X089484Y029435D01*
X089484Y029533D02*
X089375Y029533D01*
X089375Y029632D02*
X089484Y029632D01*
X089484Y029730D02*
X089375Y029730D01*
X089375Y029829D02*
X089484Y029829D01*
X089484Y029927D02*
X089375Y029927D01*
X089375Y030026D02*
X089484Y030026D01*
X089484Y030124D02*
X089375Y030124D01*
X089375Y030223D02*
X089484Y030223D01*
X089484Y030321D02*
X089375Y030321D01*
X089351Y030420D02*
X089484Y030420D01*
X089484Y030518D02*
X089253Y030518D01*
X089154Y030617D02*
X089484Y030617D01*
X089484Y030715D02*
X089056Y030715D01*
X088957Y030814D02*
X089484Y030814D01*
X089484Y030912D02*
X088859Y030912D01*
X088760Y031011D02*
X089484Y031011D01*
X089484Y031109D02*
X088662Y031109D01*
X089484Y031208D02*
X079753Y031208D01*
X079712Y031306D02*
X089484Y031306D01*
X089484Y031405D02*
X079657Y031405D01*
X079642Y031420D02*
X079681Y031459D01*
X079805Y031758D01*
X079805Y032082D01*
X079681Y032381D01*
X079642Y032420D01*
X079681Y032459D01*
X079805Y032758D01*
X079805Y033082D01*
X079681Y033381D01*
X079642Y033420D01*
X079681Y033459D01*
X079805Y033758D01*
X079805Y034082D01*
X079681Y034381D01*
X079642Y034420D01*
X079681Y034459D01*
X079805Y034758D01*
X079805Y035082D01*
X079681Y035381D01*
X079642Y035420D01*
X079681Y035459D01*
X079805Y035758D01*
X079805Y036082D01*
X079681Y036381D01*
X079642Y036420D01*
X079681Y036459D01*
X079805Y036758D01*
X079805Y037082D01*
X079681Y037381D01*
X079642Y037420D01*
X079681Y037459D01*
X079805Y037758D01*
X079805Y038082D01*
X079681Y038381D01*
X079452Y038610D01*
X079153Y038734D01*
X078829Y038734D01*
X078530Y038610D01*
X078301Y038381D01*
X078177Y038082D01*
X078177Y037758D01*
X078301Y037459D01*
X078340Y037420D01*
X078301Y037381D01*
X078177Y037082D01*
X078177Y036758D01*
X078301Y036459D01*
X078340Y036420D01*
X078301Y036381D01*
X078177Y036082D01*
X078177Y035758D01*
X078301Y035459D01*
X078340Y035420D01*
X078301Y035381D01*
X078177Y035082D01*
X078177Y034758D01*
X078301Y034459D01*
X078340Y034420D01*
X078301Y034381D01*
X078177Y034082D01*
X078177Y033758D01*
X078301Y033459D01*
X078340Y033420D01*
X078301Y033381D01*
X078177Y033082D01*
X078177Y032758D01*
X078301Y032459D01*
X078340Y032420D01*
X078301Y032381D01*
X078177Y032082D01*
X078177Y031758D01*
X078301Y031459D01*
X078340Y031420D01*
X078301Y031381D01*
X078177Y031082D01*
X078177Y030758D01*
X078301Y030459D01*
X078340Y030420D01*
X078301Y030381D01*
X078177Y030082D01*
X078177Y029758D01*
X078301Y029459D01*
X078340Y029420D01*
X078301Y029381D01*
X078177Y029082D01*
X078177Y028758D01*
X078301Y028459D01*
X078264Y028548D02*
X072902Y028548D01*
X072902Y028647D02*
X078223Y028647D01*
X078183Y028745D02*
X072902Y028745D01*
X072902Y028844D02*
X078177Y028844D01*
X078177Y028942D02*
X072902Y028942D01*
X072902Y029041D02*
X078177Y029041D01*
X078201Y029139D02*
X072902Y029139D01*
X072902Y029238D02*
X078242Y029238D01*
X078282Y029336D02*
X072902Y029336D01*
X072902Y029435D02*
X078326Y029435D01*
X078270Y029533D02*
X072902Y029533D01*
X072902Y029632D02*
X078230Y029632D01*
X078189Y029730D02*
X072902Y029730D01*
X072902Y029828D02*
X072810Y030050D01*
X070671Y032188D01*
X070449Y032280D01*
X070209Y032280D01*
X069987Y032188D01*
X069818Y032018D01*
X069726Y031796D01*
X069726Y031556D01*
X069818Y031334D01*
X071694Y029457D01*
X071694Y029130D01*
X071510Y029314D01*
X069608Y029314D01*
X066734Y032188D01*
X066512Y032280D01*
X066272Y032280D01*
X066050Y032188D01*
X065881Y032018D01*
X065789Y031796D01*
X065789Y031556D01*
X065881Y031334D01*
X067901Y029314D01*
X067573Y029314D01*
X065605Y031282D01*
X065605Y035213D01*
X065611Y035213D01*
X065611Y034413D01*
X066081Y034413D01*
X066119Y034423D01*
X066153Y034443D01*
X066181Y034471D01*
X066201Y034505D01*
X066211Y034544D01*
X066211Y035213D01*
X065611Y035213D01*
X065611Y035313D01*
X066211Y035313D01*
X066211Y035983D01*
X066201Y036021D01*
X066181Y036055D01*
X066153Y036083D01*
X066119Y036103D01*
X066081Y036113D01*
X065611Y036113D01*
X065611Y035313D01*
X065605Y035313D01*
X065605Y039020D01*
X087789Y039020D01*
X089484Y037324D01*
X089484Y002679D01*
X080172Y011991D01*
X079449Y011991D01*
X079363Y012076D01*
X079173Y012155D01*
X076998Y012155D01*
X076807Y012076D01*
X076722Y011991D01*
X070723Y011991D01*
X070723Y021427D01*
X076749Y021427D01*
X076971Y021519D01*
X077140Y021688D01*
X077232Y021910D01*
X077232Y022150D01*
X077140Y022372D01*
X076971Y022542D01*
X076749Y022634D01*
X071917Y022634D01*
X073873Y024589D01*
X073873Y026952D01*
X072902Y027923D01*
X072902Y029828D01*
X072901Y029829D02*
X078177Y029829D01*
X078177Y029927D02*
X072860Y029927D01*
X072820Y030026D02*
X078177Y030026D01*
X078195Y030124D02*
X072735Y030124D01*
X072637Y030223D02*
X078235Y030223D01*
X078276Y030321D02*
X072538Y030321D01*
X072440Y030420D02*
X078339Y030420D01*
X078277Y030518D02*
X072341Y030518D01*
X072243Y030617D02*
X078236Y030617D01*
X078195Y030715D02*
X072144Y030715D01*
X072046Y030814D02*
X078177Y030814D01*
X078177Y030912D02*
X071947Y030912D01*
X071849Y031011D02*
X078177Y031011D01*
X078188Y031109D02*
X071750Y031109D01*
X071652Y031208D02*
X078229Y031208D01*
X078270Y031306D02*
X071553Y031306D01*
X071455Y031405D02*
X078324Y031405D01*
X078283Y031503D02*
X071356Y031503D01*
X071258Y031602D02*
X078242Y031602D01*
X078201Y031700D02*
X071159Y031700D01*
X071061Y031799D02*
X078177Y031799D01*
X078177Y031897D02*
X070962Y031897D01*
X070864Y031996D02*
X078177Y031996D01*
X078182Y032094D02*
X070765Y032094D01*
X070660Y032193D02*
X078223Y032193D01*
X078264Y032291D02*
X065605Y032291D01*
X065605Y032193D02*
X066062Y032193D01*
X065957Y032094D02*
X065605Y032094D01*
X065605Y031996D02*
X065871Y031996D01*
X065830Y031897D02*
X065605Y031897D01*
X065605Y031799D02*
X065790Y031799D01*
X065789Y031700D02*
X065605Y031700D01*
X065605Y031602D02*
X065789Y031602D01*
X065811Y031503D02*
X065605Y031503D01*
X065605Y031405D02*
X065851Y031405D01*
X065909Y031306D02*
X065605Y031306D01*
X065680Y031208D02*
X066007Y031208D01*
X066106Y031109D02*
X065778Y031109D01*
X065877Y031011D02*
X066204Y031011D01*
X066303Y030912D02*
X065975Y030912D01*
X066074Y030814D02*
X066401Y030814D01*
X066500Y030715D02*
X066172Y030715D01*
X066271Y030617D02*
X066598Y030617D01*
X066697Y030518D02*
X066369Y030518D01*
X066468Y030420D02*
X066795Y030420D01*
X066894Y030321D02*
X066566Y030321D01*
X066665Y030223D02*
X066992Y030223D01*
X067091Y030124D02*
X066763Y030124D01*
X066862Y030026D02*
X067189Y030026D01*
X067288Y029927D02*
X066960Y029927D01*
X067059Y029829D02*
X067386Y029829D01*
X067485Y029730D02*
X067157Y029730D01*
X067256Y029632D02*
X067583Y029632D01*
X067682Y029533D02*
X067354Y029533D01*
X067453Y029435D02*
X067780Y029435D01*
X067879Y029336D02*
X067551Y029336D01*
X067158Y028942D02*
X053788Y028942D01*
X053887Y028844D02*
X067256Y028844D01*
X067355Y028745D02*
X053985Y028745D01*
X054084Y028647D02*
X067453Y028647D01*
X067552Y028548D02*
X054182Y028548D01*
X053612Y029041D02*
X067059Y029041D01*
X066961Y029139D02*
X053598Y029139D01*
X053550Y029238D02*
X066862Y029238D01*
X066764Y029336D02*
X053487Y029336D01*
X053487Y029435D02*
X066665Y029435D01*
X066567Y029533D02*
X053487Y029533D01*
X053487Y029632D02*
X066468Y029632D01*
X066370Y029730D02*
X053487Y029730D01*
X053487Y029829D02*
X066271Y029829D01*
X066173Y029927D02*
X053487Y029927D01*
X053487Y030026D02*
X066074Y030026D01*
X065976Y030124D02*
X053487Y030124D01*
X053487Y030223D02*
X065877Y030223D01*
X065779Y030321D02*
X053487Y030321D01*
X053487Y030420D02*
X065680Y030420D01*
X065582Y030518D02*
X053487Y030518D01*
X053487Y030617D02*
X065483Y030617D01*
X065385Y030715D02*
X053487Y030715D01*
X053487Y030814D02*
X065286Y030814D01*
X065188Y030912D02*
X053487Y030912D01*
X053487Y031011D02*
X065089Y031011D01*
X064991Y031109D02*
X053487Y031109D01*
X053487Y031208D02*
X064892Y031208D01*
X064818Y031306D02*
X062260Y031306D01*
X062288Y031318D02*
X062381Y031410D01*
X062431Y031532D01*
X062431Y031663D01*
X062381Y031784D01*
X062288Y031877D01*
X062167Y031927D01*
X062035Y031927D01*
X061914Y031877D01*
X061839Y031802D01*
X057638Y031802D01*
X057564Y031877D01*
X057442Y031927D01*
X057311Y031927D01*
X057190Y031877D01*
X057097Y031784D01*
X057047Y031663D01*
X057047Y031532D01*
X057097Y031410D01*
X057190Y031318D01*
X057311Y031267D01*
X057442Y031267D01*
X057564Y031318D01*
X057638Y031392D01*
X061839Y031392D01*
X061914Y031318D01*
X062035Y031267D01*
X062167Y031267D01*
X062288Y031318D01*
X062375Y031405D02*
X064818Y031405D01*
X064818Y031503D02*
X062419Y031503D01*
X062431Y031602D02*
X064818Y031602D01*
X064818Y031700D02*
X062416Y031700D01*
X062366Y031799D02*
X064818Y031799D01*
X064818Y031897D02*
X062240Y031897D01*
X061962Y031897D02*
X057515Y031897D01*
X057238Y031897D02*
X056435Y031897D01*
X056447Y031925D02*
X056447Y032031D01*
X058872Y034456D01*
X058978Y034456D01*
X059099Y034507D01*
X059192Y034599D01*
X059242Y034721D01*
X059242Y034852D01*
X064818Y034852D01*
X064818Y034754D02*
X059242Y034754D01*
X059242Y034852D02*
X059192Y034973D01*
X059099Y035066D01*
X058978Y035116D01*
X058846Y035116D01*
X058725Y035066D01*
X058632Y034973D01*
X058582Y034852D01*
X058582Y034746D01*
X056157Y032321D01*
X056051Y032321D01*
X055930Y032271D01*
X055837Y032178D01*
X055787Y032057D01*
X055787Y031925D01*
X055837Y031804D01*
X055930Y031711D01*
X056051Y031661D01*
X056182Y031661D01*
X056304Y031711D01*
X056397Y031804D01*
X056447Y031925D01*
X056447Y031996D02*
X064818Y031996D01*
X064818Y032094D02*
X056510Y032094D01*
X056608Y032193D02*
X064818Y032193D01*
X064818Y032291D02*
X056707Y032291D01*
X056805Y032390D02*
X064818Y032390D01*
X064818Y032488D02*
X056904Y032488D01*
X057002Y032587D02*
X064818Y032587D01*
X064818Y032685D02*
X057101Y032685D01*
X057199Y032784D02*
X064818Y032784D01*
X064818Y032882D02*
X057298Y032882D01*
X057396Y032981D02*
X064818Y032981D01*
X064818Y033079D02*
X057495Y033079D01*
X057593Y033178D02*
X064818Y033178D01*
X064818Y033276D02*
X057692Y033276D01*
X057790Y033375D02*
X064818Y033375D01*
X064818Y033473D02*
X057889Y033473D01*
X057987Y033572D02*
X064818Y033572D01*
X064818Y033670D02*
X058086Y033670D01*
X058184Y033769D02*
X064818Y033769D01*
X064818Y033867D02*
X058283Y033867D01*
X058381Y033966D02*
X064818Y033966D01*
X064818Y034064D02*
X058480Y034064D01*
X058578Y034163D02*
X064818Y034163D01*
X064818Y034261D02*
X058677Y034261D01*
X058775Y034360D02*
X064818Y034360D01*
X064818Y034458D02*
X058982Y034458D01*
X059149Y034557D02*
X064818Y034557D01*
X064818Y034655D02*
X059215Y034655D01*
X059201Y034951D02*
X064818Y034951D01*
X064818Y035049D02*
X059116Y035049D01*
X058708Y035049D02*
X058166Y035049D01*
X058264Y035148D02*
X064818Y035148D01*
X064818Y035246D02*
X058363Y035246D01*
X058448Y035345D02*
X064818Y035345D01*
X064818Y035443D02*
X058448Y035443D01*
X058448Y035542D02*
X064818Y035542D01*
X064818Y035640D02*
X058448Y035640D01*
X058448Y035739D02*
X064818Y035739D01*
X064818Y035837D02*
X058448Y035837D01*
X058448Y035936D02*
X064818Y035936D01*
X064818Y036034D02*
X058448Y036034D01*
X058448Y036133D02*
X064818Y036133D01*
X064818Y036231D02*
X058448Y036231D01*
X058448Y036330D02*
X064818Y036330D01*
X064818Y036428D02*
X058448Y036428D01*
X058448Y036527D02*
X064818Y036527D01*
X064818Y036625D02*
X058448Y036625D01*
X058448Y036724D02*
X064818Y036724D01*
X064818Y036822D02*
X064263Y036822D01*
X064367Y036921D02*
X064818Y036921D01*
X064818Y037019D02*
X064422Y037019D01*
X064457Y037118D02*
X064818Y037118D01*
X064818Y037216D02*
X064457Y037216D01*
X064440Y037315D02*
X064818Y037315D01*
X064818Y037413D02*
X064399Y037413D01*
X064310Y037512D02*
X064818Y037512D01*
X064818Y037610D02*
X064126Y037610D01*
X063934Y037610D02*
X063622Y037610D01*
X063688Y037512D02*
X063750Y037512D01*
X063291Y037512D02*
X063194Y037512D01*
X063194Y037610D02*
X063291Y037610D01*
X063291Y037413D02*
X063194Y037413D01*
X063194Y037315D02*
X063291Y037315D01*
X063194Y037216D02*
X058448Y037216D01*
X058448Y037118D02*
X062796Y037118D01*
X062796Y037139D02*
X062796Y036871D01*
X062806Y036833D01*
X062826Y036799D01*
X062854Y036771D01*
X062888Y036751D01*
X062926Y036741D01*
X063194Y036741D01*
X063194Y037139D01*
X062796Y037139D01*
X062796Y037019D02*
X058448Y037019D01*
X058448Y036921D02*
X062796Y036921D01*
X062813Y036822D02*
X058448Y036822D01*
X058448Y037315D02*
X062796Y037315D01*
X062796Y037413D02*
X058448Y037413D01*
X058038Y036034D02*
X057913Y036034D01*
X058067Y034951D02*
X058623Y034951D01*
X058582Y034852D02*
X057969Y034852D01*
X057870Y034754D02*
X058582Y034754D01*
X058491Y034655D02*
X057772Y034655D01*
X057673Y034557D02*
X058392Y034557D01*
X058294Y034458D02*
X056000Y034458D01*
X055901Y034360D02*
X058195Y034360D01*
X058097Y034261D02*
X055803Y034261D01*
X055704Y034163D02*
X057998Y034163D01*
X057900Y034064D02*
X055606Y034064D01*
X055507Y033966D02*
X057801Y033966D01*
X057703Y033867D02*
X055409Y033867D01*
X055310Y033769D02*
X057604Y033769D01*
X057506Y033670D02*
X055212Y033670D01*
X055113Y033572D02*
X057407Y033572D01*
X057309Y033473D02*
X055015Y033473D01*
X054916Y033375D02*
X057210Y033375D01*
X057112Y033276D02*
X054818Y033276D01*
X054719Y033178D02*
X057013Y033178D01*
X056915Y033079D02*
X054621Y033079D01*
X054522Y032981D02*
X056816Y032981D01*
X056718Y032882D02*
X054424Y032882D01*
X054325Y032784D02*
X056619Y032784D01*
X056521Y032685D02*
X054227Y032685D01*
X054128Y032587D02*
X056422Y032587D01*
X056324Y032488D02*
X054030Y032488D01*
X053931Y032390D02*
X056225Y032390D01*
X055979Y032291D02*
X053833Y032291D01*
X053734Y032193D02*
X055852Y032193D01*
X055802Y032094D02*
X053636Y032094D01*
X053537Y031996D02*
X055787Y031996D01*
X055799Y031897D02*
X053487Y031897D01*
X053487Y031799D02*
X055843Y031799D01*
X055957Y031700D02*
X053487Y031700D01*
X053487Y031602D02*
X057047Y031602D01*
X057062Y031700D02*
X056277Y031700D01*
X056391Y031799D02*
X057111Y031799D01*
X057058Y031503D02*
X053487Y031503D01*
X053487Y031405D02*
X057103Y031405D01*
X057217Y031306D02*
X053487Y031306D01*
X057536Y031306D02*
X061942Y031306D01*
X065605Y032390D02*
X078309Y032390D01*
X078289Y032488D02*
X065605Y032488D01*
X065605Y032587D02*
X078248Y032587D01*
X078207Y032685D02*
X065605Y032685D01*
X065605Y032784D02*
X078177Y032784D01*
X078177Y032882D02*
X065605Y032882D01*
X065605Y032981D02*
X078177Y032981D01*
X078177Y033079D02*
X065605Y033079D01*
X065605Y033178D02*
X078217Y033178D01*
X078257Y033276D02*
X065605Y033276D01*
X065605Y033375D02*
X078298Y033375D01*
X078295Y033473D02*
X065605Y033473D01*
X065605Y033572D02*
X078254Y033572D01*
X078214Y033670D02*
X065605Y033670D01*
X065605Y033769D02*
X078177Y033769D01*
X078177Y033867D02*
X065605Y033867D01*
X065605Y033966D02*
X078177Y033966D01*
X078177Y034064D02*
X065605Y034064D01*
X065605Y034163D02*
X067669Y034163D01*
X067610Y034187D02*
X067773Y034120D01*
X068949Y034120D01*
X069112Y034187D01*
X069237Y034312D01*
X069305Y034475D01*
X069305Y036052D01*
X069237Y036215D01*
X069185Y036267D01*
X069185Y036564D01*
X069059Y036867D01*
X068335Y037591D01*
X068135Y037674D01*
X067993Y037816D01*
X067721Y037928D01*
X067426Y037928D01*
X067154Y037816D01*
X066973Y037635D01*
X066835Y037635D01*
X066835Y037339D01*
X066833Y037335D01*
X066833Y037236D01*
X066738Y037236D01*
X066738Y037139D01*
X066833Y037139D01*
X066833Y037041D01*
X066835Y037037D01*
X066835Y036741D01*
X066973Y036741D01*
X067087Y036627D01*
X067170Y036426D01*
X067455Y036142D01*
X067417Y036052D01*
X067417Y034475D01*
X067485Y034312D01*
X067610Y034187D01*
X067536Y034261D02*
X065605Y034261D01*
X065605Y034360D02*
X067465Y034360D01*
X067424Y034458D02*
X066168Y034458D01*
X066211Y034557D02*
X067417Y034557D01*
X067417Y034655D02*
X066211Y034655D01*
X066211Y034754D02*
X067417Y034754D01*
X067417Y034852D02*
X066211Y034852D01*
X066211Y034951D02*
X067417Y034951D01*
X067417Y035049D02*
X066211Y035049D01*
X066211Y035148D02*
X067417Y035148D01*
X067417Y035246D02*
X065611Y035246D01*
X065605Y035148D02*
X065611Y035148D01*
X065605Y035049D02*
X065611Y035049D01*
X065605Y034951D02*
X065611Y034951D01*
X065605Y034852D02*
X065611Y034852D01*
X065605Y034754D02*
X065611Y034754D01*
X065605Y034655D02*
X065611Y034655D01*
X065605Y034557D02*
X065611Y034557D01*
X065605Y034458D02*
X065611Y034458D01*
X065605Y035345D02*
X065611Y035345D01*
X065605Y035443D02*
X065611Y035443D01*
X065605Y035542D02*
X065611Y035542D01*
X065605Y035640D02*
X065611Y035640D01*
X065605Y035739D02*
X065611Y035739D01*
X065605Y035837D02*
X065611Y035837D01*
X065605Y035936D02*
X065611Y035936D01*
X065605Y036034D02*
X065611Y036034D01*
X065605Y036133D02*
X067451Y036133D01*
X067417Y036034D02*
X066193Y036034D01*
X066211Y035936D02*
X067417Y035936D01*
X067417Y035837D02*
X066211Y035837D01*
X066211Y035739D02*
X067417Y035739D01*
X067417Y035640D02*
X066211Y035640D01*
X066211Y035542D02*
X067417Y035542D01*
X067417Y035443D02*
X066211Y035443D01*
X066211Y035345D02*
X067417Y035345D01*
X069305Y035345D02*
X069635Y035345D01*
X069635Y035313D02*
X070235Y035313D01*
X070235Y035213D01*
X069635Y035213D01*
X069635Y034544D01*
X069646Y034505D01*
X069665Y034471D01*
X069693Y034443D01*
X069727Y034423D01*
X069766Y034413D01*
X070235Y034413D01*
X070235Y035213D01*
X070335Y035213D01*
X070335Y034413D01*
X070805Y034413D01*
X070843Y034423D01*
X070877Y034443D01*
X070905Y034471D01*
X070925Y034505D01*
X070935Y034544D01*
X070935Y035213D01*
X070335Y035213D01*
X070335Y035313D01*
X070235Y035313D01*
X070235Y036113D01*
X069766Y036113D01*
X069727Y036103D01*
X069693Y036083D01*
X069665Y036055D01*
X069646Y036021D01*
X069635Y035983D01*
X069635Y035313D01*
X069635Y035443D02*
X069305Y035443D01*
X069305Y035542D02*
X069635Y035542D01*
X069635Y035640D02*
X069305Y035640D01*
X069305Y035739D02*
X069635Y035739D01*
X069635Y035837D02*
X069305Y035837D01*
X069305Y035936D02*
X069635Y035936D01*
X069653Y036034D02*
X069305Y036034D01*
X069271Y036133D02*
X071078Y036133D01*
X070979Y036231D02*
X069221Y036231D01*
X069185Y036330D02*
X070881Y036330D01*
X070782Y036428D02*
X069185Y036428D01*
X069185Y036527D02*
X070684Y036527D01*
X070585Y036625D02*
X069159Y036625D01*
X069119Y036724D02*
X070487Y036724D01*
X070469Y036741D02*
X072142Y035069D01*
X072142Y034475D01*
X072209Y034312D01*
X072334Y034187D01*
X072497Y034120D01*
X073674Y034120D01*
X073837Y034187D01*
X073961Y034312D01*
X074029Y034475D01*
X074029Y036052D01*
X073961Y036215D01*
X073837Y036339D01*
X073674Y036407D01*
X072992Y036407D01*
X071555Y037844D01*
X071271Y037962D01*
X070963Y037962D01*
X070679Y037844D01*
X070469Y037635D01*
X070378Y037635D01*
X070378Y037426D01*
X070343Y037342D01*
X070343Y037236D01*
X070281Y037236D01*
X070281Y037139D01*
X070343Y037139D01*
X070343Y037034D01*
X070378Y036950D01*
X070378Y036741D01*
X070469Y036741D01*
X070378Y036822D02*
X070281Y036822D01*
X070281Y036741D02*
X070281Y037139D01*
X069883Y037139D01*
X069883Y036871D01*
X069893Y036833D01*
X069913Y036799D01*
X069940Y036771D01*
X069975Y036751D01*
X070013Y036741D01*
X070281Y036741D01*
X070281Y036921D02*
X070378Y036921D01*
X070349Y037019D02*
X070281Y037019D01*
X070281Y037118D02*
X070343Y037118D01*
X070281Y037216D02*
X068710Y037216D01*
X068612Y037315D02*
X069883Y037315D01*
X069883Y037236D02*
X070281Y037236D01*
X070281Y037635D01*
X070013Y037635D01*
X069975Y037625D01*
X069940Y037605D01*
X069913Y037577D01*
X069893Y037543D01*
X069883Y037504D01*
X069883Y037236D01*
X069883Y037118D02*
X068809Y037118D01*
X068907Y037019D02*
X069883Y037019D01*
X069883Y036921D02*
X069006Y036921D01*
X069078Y036822D02*
X069899Y036822D01*
X070281Y037315D02*
X070343Y037315D01*
X070373Y037413D02*
X070281Y037413D01*
X070281Y037512D02*
X070378Y037512D01*
X070378Y037610D02*
X070281Y037610D01*
X070543Y037709D02*
X068100Y037709D01*
X068002Y037807D02*
X070642Y037807D01*
X070828Y037906D02*
X067776Y037906D01*
X067371Y037906D02*
X065605Y037906D01*
X065605Y038004D02*
X078177Y038004D01*
X078177Y037906D02*
X071406Y037906D01*
X071592Y037807D02*
X078177Y037807D01*
X078198Y037709D02*
X071690Y037709D01*
X071789Y037610D02*
X078239Y037610D01*
X078279Y037512D02*
X071887Y037512D01*
X071986Y037413D02*
X078333Y037413D01*
X078273Y037315D02*
X072084Y037315D01*
X072183Y037216D02*
X078233Y037216D01*
X078192Y037118D02*
X072281Y037118D01*
X072380Y037019D02*
X078177Y037019D01*
X078177Y036921D02*
X072478Y036921D01*
X072577Y036822D02*
X078177Y036822D01*
X078191Y036724D02*
X072675Y036724D01*
X072774Y036625D02*
X078232Y036625D01*
X078273Y036527D02*
X072872Y036527D01*
X072971Y036428D02*
X078332Y036428D01*
X078280Y036330D02*
X073846Y036330D01*
X073945Y036231D02*
X078239Y036231D01*
X078198Y036133D02*
X073995Y036133D01*
X074029Y036034D02*
X078177Y036034D01*
X078177Y035936D02*
X074029Y035936D01*
X074029Y035837D02*
X078177Y035837D01*
X078185Y035739D02*
X074029Y035739D01*
X074029Y035640D02*
X078226Y035640D01*
X078267Y035542D02*
X074029Y035542D01*
X074029Y035443D02*
X078317Y035443D01*
X078286Y035345D02*
X074029Y035345D01*
X074029Y035246D02*
X078245Y035246D01*
X078204Y035148D02*
X074029Y035148D01*
X074029Y035049D02*
X078177Y035049D01*
X078177Y034951D02*
X074029Y034951D01*
X074029Y034852D02*
X078177Y034852D01*
X078179Y034754D02*
X074029Y034754D01*
X074029Y034655D02*
X078220Y034655D01*
X078261Y034557D02*
X074029Y034557D01*
X074022Y034458D02*
X078302Y034458D01*
X078292Y034360D02*
X073981Y034360D01*
X073911Y034261D02*
X078251Y034261D01*
X078210Y034163D02*
X073777Y034163D01*
X072393Y034163D02*
X069053Y034163D01*
X069186Y034261D02*
X072260Y034261D01*
X072189Y034360D02*
X069257Y034360D01*
X069298Y034458D02*
X069678Y034458D01*
X069635Y034557D02*
X069305Y034557D01*
X069305Y034655D02*
X069635Y034655D01*
X069635Y034754D02*
X069305Y034754D01*
X069305Y034852D02*
X069635Y034852D01*
X069635Y034951D02*
X069305Y034951D01*
X069305Y035049D02*
X069635Y035049D01*
X069635Y035148D02*
X069305Y035148D01*
X069305Y035246D02*
X070235Y035246D01*
X070235Y035148D02*
X070335Y035148D01*
X070335Y035246D02*
X071964Y035246D01*
X071866Y035345D02*
X070935Y035345D01*
X070935Y035313D02*
X070935Y035983D01*
X070925Y036021D01*
X070905Y036055D01*
X070877Y036083D01*
X070843Y036103D01*
X070805Y036113D01*
X070335Y036113D01*
X070335Y035313D01*
X070935Y035313D01*
X070935Y035443D02*
X071767Y035443D01*
X071669Y035542D02*
X070935Y035542D01*
X070935Y035640D02*
X071570Y035640D01*
X071472Y035739D02*
X070935Y035739D01*
X070935Y035837D02*
X071373Y035837D01*
X071275Y035936D02*
X070935Y035936D01*
X070918Y036034D02*
X071176Y036034D01*
X070335Y036034D02*
X070235Y036034D01*
X070235Y035936D02*
X070335Y035936D01*
X070335Y035837D02*
X070235Y035837D01*
X070235Y035739D02*
X070335Y035739D01*
X070335Y035640D02*
X070235Y035640D01*
X070235Y035542D02*
X070335Y035542D01*
X070335Y035443D02*
X070235Y035443D01*
X070235Y035345D02*
X070335Y035345D01*
X070335Y035049D02*
X070235Y035049D01*
X070235Y034951D02*
X070335Y034951D01*
X070335Y034852D02*
X070235Y034852D01*
X070235Y034754D02*
X070335Y034754D01*
X070335Y034655D02*
X070235Y034655D01*
X070235Y034557D02*
X070335Y034557D01*
X070335Y034458D02*
X070235Y034458D01*
X070892Y034458D02*
X072149Y034458D01*
X072142Y034557D02*
X070935Y034557D01*
X070935Y034655D02*
X072142Y034655D01*
X072142Y034754D02*
X070935Y034754D01*
X070935Y034852D02*
X072142Y034852D01*
X072142Y034951D02*
X070935Y034951D01*
X070935Y035049D02*
X072142Y035049D01*
X072063Y035148D02*
X070935Y035148D01*
X067365Y036231D02*
X065605Y036231D01*
X065605Y036330D02*
X067267Y036330D01*
X067170Y036428D02*
X065605Y036428D01*
X065605Y036527D02*
X067129Y036527D01*
X067088Y036625D02*
X065605Y036625D01*
X065605Y036724D02*
X066990Y036724D01*
X066835Y036822D02*
X066738Y036822D01*
X066738Y036741D02*
X066738Y037139D01*
X066339Y037139D01*
X066339Y036871D01*
X066349Y036833D01*
X066369Y036799D01*
X066397Y036771D01*
X066431Y036751D01*
X066469Y036741D01*
X066738Y036741D01*
X066738Y036921D02*
X066835Y036921D01*
X066835Y037019D02*
X066738Y037019D01*
X066738Y037118D02*
X066833Y037118D01*
X066738Y037216D02*
X065605Y037216D01*
X065605Y037118D02*
X066339Y037118D01*
X066339Y037019D02*
X065605Y037019D01*
X065605Y036921D02*
X066339Y036921D01*
X066356Y036822D02*
X065605Y036822D01*
X065605Y037315D02*
X066339Y037315D01*
X066339Y037236D02*
X066738Y037236D01*
X066738Y037635D01*
X066469Y037635D01*
X066431Y037625D01*
X066397Y037605D01*
X066369Y037577D01*
X066349Y037543D01*
X066339Y037504D01*
X066339Y037236D01*
X066339Y037413D02*
X065605Y037413D01*
X065605Y037512D02*
X066341Y037512D01*
X066406Y037610D02*
X065605Y037610D01*
X065605Y037709D02*
X067047Y037709D01*
X067145Y037807D02*
X065605Y037807D01*
X065605Y038103D02*
X078186Y038103D01*
X078226Y038201D02*
X065605Y038201D01*
X065605Y038300D02*
X078267Y038300D01*
X078318Y038398D02*
X065605Y038398D01*
X065605Y038497D02*
X078417Y038497D01*
X078515Y038595D02*
X065605Y038595D01*
X065605Y038694D02*
X078732Y038694D01*
X079250Y038694D02*
X088115Y038694D01*
X088017Y038792D02*
X065605Y038792D01*
X065605Y038891D02*
X087918Y038891D01*
X087820Y038989D02*
X065605Y038989D01*
X064818Y038989D02*
X041028Y038989D01*
X040930Y038891D02*
X064818Y038891D01*
X064818Y038792D02*
X040831Y038792D01*
X040733Y038694D02*
X064818Y038694D01*
X064818Y038595D02*
X040634Y038595D01*
X040536Y038497D02*
X064818Y038497D01*
X066738Y037610D02*
X066835Y037610D01*
X066835Y037512D02*
X066738Y037512D01*
X066738Y037413D02*
X066835Y037413D01*
X066833Y037315D02*
X066738Y037315D01*
X068289Y037610D02*
X069950Y037610D01*
X069884Y037512D02*
X068415Y037512D01*
X068513Y037413D02*
X069883Y037413D01*
X063798Y036822D02*
X063673Y036822D01*
X063690Y036921D02*
X063694Y036921D01*
X063291Y036921D02*
X063194Y036921D01*
X063194Y037019D02*
X063291Y037019D01*
X063291Y037118D02*
X063194Y037118D01*
X063194Y036822D02*
X063291Y036822D01*
X066723Y032193D02*
X069999Y032193D01*
X069894Y032094D02*
X066828Y032094D01*
X066927Y031996D02*
X069808Y031996D01*
X069768Y031897D02*
X067025Y031897D01*
X067124Y031799D02*
X069727Y031799D01*
X069726Y031700D02*
X067222Y031700D01*
X067321Y031602D02*
X069726Y031602D01*
X069748Y031503D02*
X067419Y031503D01*
X067518Y031405D02*
X069788Y031405D01*
X069846Y031306D02*
X067616Y031306D01*
X067715Y031208D02*
X069944Y031208D01*
X070043Y031109D02*
X067813Y031109D01*
X067912Y031011D02*
X070141Y031011D01*
X070240Y030912D02*
X068010Y030912D01*
X068109Y030814D02*
X070338Y030814D01*
X070437Y030715D02*
X068207Y030715D01*
X068306Y030617D02*
X070535Y030617D01*
X070634Y030518D02*
X068404Y030518D01*
X068503Y030420D02*
X070732Y030420D01*
X070831Y030321D02*
X068601Y030321D01*
X068700Y030223D02*
X070929Y030223D01*
X071028Y030124D02*
X068798Y030124D01*
X068897Y030026D02*
X071126Y030026D01*
X071225Y029927D02*
X068995Y029927D01*
X069094Y029829D02*
X071323Y029829D01*
X071422Y029730D02*
X069192Y029730D01*
X069291Y029632D02*
X071520Y029632D01*
X071619Y029533D02*
X069389Y029533D01*
X069488Y029435D02*
X071694Y029435D01*
X071694Y029336D02*
X069586Y029336D01*
X071587Y029238D02*
X071694Y029238D01*
X071685Y029139D02*
X071694Y029139D01*
X072902Y028351D02*
X078409Y028351D01*
X078508Y028253D02*
X072902Y028253D01*
X072902Y028154D02*
X078714Y028154D01*
X079268Y028154D02*
X089484Y028154D01*
X089484Y028056D02*
X072902Y028056D01*
X072902Y027957D02*
X089484Y027957D01*
X089484Y027859D02*
X072966Y027859D01*
X073064Y027760D02*
X089484Y027760D01*
X089484Y027662D02*
X073163Y027662D01*
X073261Y027563D02*
X089484Y027563D01*
X089484Y027465D02*
X073360Y027465D01*
X073458Y027366D02*
X089484Y027366D01*
X089484Y027268D02*
X073557Y027268D01*
X073655Y027169D02*
X089484Y027169D01*
X089484Y027071D02*
X073754Y027071D01*
X073852Y026972D02*
X089484Y026972D01*
X089484Y026874D02*
X088228Y026874D01*
X088203Y026879D02*
X088085Y026892D01*
X088076Y026892D01*
X088076Y025887D01*
X089081Y025887D01*
X089081Y025897D01*
X089068Y026014D01*
X089042Y026130D01*
X089002Y026242D01*
X088951Y026349D01*
X088888Y026449D01*
X088814Y026542D01*
X088730Y026625D01*
X088638Y026699D01*
X088537Y026762D01*
X088431Y026814D01*
X088319Y026853D01*
X088203Y026879D01*
X088076Y026874D02*
X087976Y026874D01*
X087976Y026892D02*
X087967Y026892D01*
X087849Y026879D01*
X087734Y026853D01*
X087622Y026814D01*
X087515Y026762D01*
X087415Y026699D01*
X087322Y026625D01*
X087238Y026542D01*
X087164Y026449D01*
X087101Y026349D01*
X087050Y026242D01*
X087011Y026130D01*
X086985Y026014D01*
X086971Y025897D01*
X086971Y025887D01*
X087976Y025887D01*
X087976Y025787D01*
X088076Y025787D01*
X088076Y024782D01*
X088085Y024782D01*
X088203Y024796D01*
X088319Y024822D01*
X088431Y024861D01*
X088537Y024913D01*
X088638Y024976D01*
X088730Y025050D01*
X088814Y025133D01*
X088888Y025226D01*
X088951Y025326D01*
X089002Y025433D01*
X089042Y025545D01*
X089068Y025660D01*
X089081Y025778D01*
X089081Y025787D01*
X088076Y025787D01*
X088076Y025887D01*
X087976Y025887D01*
X087976Y026892D01*
X087976Y026775D02*
X088076Y026775D01*
X088076Y026677D02*
X087976Y026677D01*
X087976Y026578D02*
X088076Y026578D01*
X088076Y026480D02*
X087976Y026480D01*
X087976Y026381D02*
X088076Y026381D01*
X088076Y026283D02*
X087976Y026283D01*
X087976Y026184D02*
X088076Y026184D01*
X088076Y026086D02*
X087976Y026086D01*
X087976Y025987D02*
X088076Y025987D01*
X088076Y025889D02*
X087976Y025889D01*
X087976Y025790D02*
X073873Y025790D01*
X073873Y025692D02*
X086981Y025692D01*
X086985Y025660D02*
X087011Y025545D01*
X087050Y025433D01*
X087101Y025326D01*
X087164Y025226D01*
X087238Y025133D01*
X087322Y025050D01*
X087415Y024976D01*
X087515Y024913D01*
X087622Y024861D01*
X087734Y024822D01*
X087849Y024796D01*
X087967Y024782D01*
X087976Y024782D01*
X087976Y025787D01*
X086971Y025787D01*
X086971Y025778D01*
X086985Y025660D01*
X087000Y025593D02*
X073873Y025593D01*
X073873Y025495D02*
X087029Y025495D01*
X087068Y025396D02*
X073873Y025396D01*
X073873Y025298D02*
X087120Y025298D01*
X087186Y025199D02*
X073873Y025199D01*
X073873Y025101D02*
X087271Y025101D01*
X087382Y025002D02*
X073873Y025002D01*
X073873Y024904D02*
X087534Y024904D01*
X087808Y024805D02*
X073873Y024805D01*
X073873Y024707D02*
X089484Y024707D01*
X089484Y024805D02*
X088244Y024805D01*
X088076Y024805D02*
X087976Y024805D01*
X087976Y024904D02*
X088076Y024904D01*
X088076Y025002D02*
X087976Y025002D01*
X087976Y025101D02*
X088076Y025101D01*
X088076Y025199D02*
X087976Y025199D01*
X087976Y025298D02*
X088076Y025298D01*
X088076Y025396D02*
X087976Y025396D01*
X087976Y025495D02*
X088076Y025495D01*
X088076Y025593D02*
X087976Y025593D01*
X087976Y025692D02*
X088076Y025692D01*
X088076Y025790D02*
X089484Y025790D01*
X089484Y025692D02*
X089071Y025692D01*
X089053Y025593D02*
X089484Y025593D01*
X089484Y025495D02*
X089024Y025495D01*
X088985Y025396D02*
X089484Y025396D01*
X089484Y025298D02*
X088933Y025298D01*
X088867Y025199D02*
X089484Y025199D01*
X089484Y025101D02*
X088781Y025101D01*
X088671Y025002D02*
X089484Y025002D01*
X089484Y024904D02*
X088518Y024904D01*
X089484Y024608D02*
X073873Y024608D01*
X073793Y024510D02*
X089484Y024510D01*
X089484Y024411D02*
X073694Y024411D01*
X073596Y024313D02*
X089484Y024313D01*
X089484Y024214D02*
X073497Y024214D01*
X073399Y024116D02*
X089484Y024116D01*
X089484Y024017D02*
X073300Y024017D01*
X073202Y023919D02*
X089484Y023919D01*
X089484Y023820D02*
X073103Y023820D01*
X073005Y023722D02*
X089484Y023722D01*
X089484Y023623D02*
X072906Y023623D01*
X072808Y023525D02*
X089484Y023525D01*
X089484Y023426D02*
X072709Y023426D01*
X072611Y023328D02*
X089484Y023328D01*
X089484Y023229D02*
X072512Y023229D01*
X072414Y023131D02*
X089484Y023131D01*
X089484Y023032D02*
X072315Y023032D01*
X072217Y022934D02*
X089484Y022934D01*
X089484Y022835D02*
X072118Y022835D01*
X072020Y022737D02*
X089484Y022737D01*
X089484Y022638D02*
X071921Y022638D01*
X071331Y023229D02*
X065698Y023229D01*
X065698Y023131D02*
X071233Y023131D01*
X071134Y023032D02*
X065698Y023032D01*
X065698Y022934D02*
X071036Y022934D01*
X070937Y022835D02*
X065698Y022835D01*
X065698Y022737D02*
X070839Y022737D01*
X070740Y022638D02*
X065698Y022638D01*
X065698Y022540D02*
X070642Y022540D01*
X070543Y022441D02*
X065698Y022441D01*
X065698Y022343D02*
X070445Y022343D01*
X070723Y021358D02*
X089484Y021358D01*
X089484Y021456D02*
X076820Y021456D01*
X077007Y021555D02*
X089484Y021555D01*
X089484Y021653D02*
X077105Y021653D01*
X077167Y021752D02*
X089484Y021752D01*
X089484Y021850D02*
X077207Y021850D01*
X077232Y021949D02*
X089484Y021949D01*
X089484Y022047D02*
X077232Y022047D01*
X077232Y022146D02*
X089484Y022146D01*
X089484Y022244D02*
X077194Y022244D01*
X077153Y022343D02*
X089484Y022343D01*
X089484Y022441D02*
X077072Y022441D01*
X076973Y022540D02*
X089484Y022540D01*
X089484Y021259D02*
X070723Y021259D01*
X070723Y021161D02*
X089484Y021161D01*
X089484Y021062D02*
X070723Y021062D01*
X070723Y020964D02*
X089484Y020964D01*
X089484Y020865D02*
X070723Y020865D01*
X070723Y020767D02*
X089484Y020767D01*
X089484Y020668D02*
X070723Y020668D01*
X070723Y020570D02*
X089484Y020570D01*
X089484Y020471D02*
X070723Y020471D01*
X070723Y020373D02*
X089484Y020373D01*
X089484Y020274D02*
X070723Y020274D01*
X070723Y020176D02*
X089484Y020176D01*
X089484Y020077D02*
X070723Y020077D01*
X070723Y019979D02*
X089484Y019979D01*
X089484Y019880D02*
X070723Y019880D01*
X070723Y019782D02*
X089484Y019782D01*
X089484Y019683D02*
X070723Y019683D01*
X070723Y019585D02*
X089484Y019585D01*
X089484Y019486D02*
X070723Y019486D01*
X070723Y019388D02*
X089484Y019388D01*
X089484Y019289D02*
X070723Y019289D01*
X070723Y019191D02*
X089484Y019191D01*
X089484Y019092D02*
X078147Y019092D01*
X078220Y019062D02*
X078057Y019129D01*
X077366Y019129D01*
X077202Y019062D01*
X077078Y018937D01*
X077010Y018774D01*
X077010Y018082D01*
X077078Y017919D01*
X077202Y017794D01*
X077366Y017727D01*
X078057Y017727D01*
X078220Y017794D01*
X078345Y017919D01*
X078412Y018082D01*
X078412Y018774D01*
X078345Y018937D01*
X078220Y019062D01*
X078288Y018994D02*
X089484Y018994D01*
X089484Y018895D02*
X078362Y018895D01*
X078403Y018797D02*
X089484Y018797D01*
X089484Y018698D02*
X078412Y018698D01*
X078412Y018600D02*
X089484Y018600D01*
X089484Y018501D02*
X078412Y018501D01*
X078412Y018403D02*
X089484Y018403D01*
X089484Y018304D02*
X078412Y018304D01*
X078412Y018206D02*
X089484Y018206D01*
X089484Y018107D02*
X078412Y018107D01*
X078382Y018009D02*
X089484Y018009D01*
X089484Y017910D02*
X078336Y017910D01*
X078237Y017812D02*
X089484Y017812D01*
X089484Y017713D02*
X070723Y017713D01*
X070723Y017615D02*
X089484Y017615D01*
X089484Y017516D02*
X070723Y017516D01*
X070723Y017418D02*
X089484Y017418D01*
X089484Y017319D02*
X070723Y017319D01*
X070723Y017221D02*
X089484Y017221D01*
X089484Y017122D02*
X070723Y017122D01*
X070723Y017024D02*
X089484Y017024D01*
X089484Y016925D02*
X070723Y016925D01*
X070723Y016827D02*
X089484Y016827D01*
X089484Y016728D02*
X070723Y016728D01*
X070723Y016630D02*
X089484Y016630D01*
X089484Y016531D02*
X070723Y016531D01*
X070723Y016433D02*
X089484Y016433D01*
X089484Y016334D02*
X070723Y016334D01*
X070723Y016236D02*
X089484Y016236D01*
X089484Y016137D02*
X070723Y016137D01*
X070723Y016039D02*
X089484Y016039D01*
X089484Y015940D02*
X070723Y015940D01*
X070723Y015842D02*
X089484Y015842D01*
X089484Y015743D02*
X070723Y015743D01*
X070723Y015645D02*
X089484Y015645D01*
X089484Y015546D02*
X070723Y015546D01*
X070723Y015448D02*
X089484Y015448D01*
X089484Y015349D02*
X070723Y015349D01*
X070723Y015251D02*
X087398Y015251D01*
X087487Y015340D02*
X086697Y014550D01*
X086697Y013432D01*
X087487Y012642D01*
X088605Y012642D01*
X089395Y013432D01*
X089395Y014550D01*
X088605Y015340D01*
X087487Y015340D01*
X087300Y015152D02*
X070723Y015152D01*
X070723Y015054D02*
X087201Y015054D01*
X087103Y014955D02*
X070723Y014955D01*
X070723Y014857D02*
X087004Y014857D01*
X086906Y014758D02*
X070723Y014758D01*
X070723Y014660D02*
X086807Y014660D01*
X086709Y014561D02*
X070723Y014561D01*
X070723Y014463D02*
X086697Y014463D01*
X086697Y014364D02*
X070723Y014364D01*
X070723Y014266D02*
X086697Y014266D01*
X086697Y014167D02*
X070723Y014167D01*
X070723Y014069D02*
X086697Y014069D01*
X086697Y013970D02*
X070723Y013970D01*
X070723Y013872D02*
X086697Y013872D01*
X086697Y013773D02*
X070723Y013773D01*
X070723Y013675D02*
X086697Y013675D01*
X086697Y013576D02*
X070723Y013576D01*
X070723Y013478D02*
X086697Y013478D01*
X086751Y013379D02*
X070723Y013379D01*
X070723Y013281D02*
X086849Y013281D01*
X086948Y013182D02*
X070723Y013182D01*
X070723Y013084D02*
X087046Y013084D01*
X087145Y012985D02*
X070723Y012985D01*
X070723Y012887D02*
X087243Y012887D01*
X087342Y012788D02*
X070723Y012788D01*
X070723Y012690D02*
X087440Y012690D01*
X088652Y012690D02*
X089484Y012690D01*
X089484Y012788D02*
X088750Y012788D01*
X088849Y012887D02*
X089484Y012887D01*
X089484Y012985D02*
X088947Y012985D01*
X089046Y013084D02*
X089484Y013084D01*
X089484Y013182D02*
X089144Y013182D01*
X089243Y013281D02*
X089484Y013281D01*
X089484Y013379D02*
X089341Y013379D01*
X089395Y013478D02*
X089484Y013478D01*
X089484Y013576D02*
X089395Y013576D01*
X089395Y013675D02*
X089484Y013675D01*
X089484Y013773D02*
X089395Y013773D01*
X089395Y013872D02*
X089484Y013872D01*
X089484Y013970D02*
X089395Y013970D01*
X089395Y014069D02*
X089484Y014069D01*
X089484Y014167D02*
X089395Y014167D01*
X089395Y014266D02*
X089484Y014266D01*
X089484Y014364D02*
X089395Y014364D01*
X089395Y014463D02*
X089484Y014463D01*
X089484Y014561D02*
X089383Y014561D01*
X089285Y014660D02*
X089484Y014660D01*
X089484Y014758D02*
X089186Y014758D01*
X089088Y014857D02*
X089484Y014857D01*
X089484Y014955D02*
X088989Y014955D01*
X088891Y015054D02*
X089484Y015054D01*
X089484Y015152D02*
X088792Y015152D01*
X088694Y015251D02*
X089484Y015251D01*
X089484Y012591D02*
X070723Y012591D01*
X070723Y012493D02*
X089484Y012493D01*
X089484Y012394D02*
X070723Y012394D01*
X070723Y012296D02*
X089484Y012296D01*
X089484Y012197D02*
X070723Y012197D01*
X070723Y012099D02*
X076861Y012099D01*
X076731Y012000D02*
X070723Y012000D01*
X067689Y010523D02*
X052783Y010523D01*
X052914Y010424D02*
X067788Y010424D01*
X067886Y010326D02*
X052965Y010326D01*
X052982Y010227D02*
X067985Y010227D01*
X068083Y010129D02*
X052972Y010129D01*
X052930Y010030D02*
X068182Y010030D01*
X068280Y009932D02*
X052820Y009932D01*
X052540Y010621D02*
X067591Y010621D01*
X067492Y010720D02*
X052442Y010720D01*
X052343Y010818D02*
X067394Y010818D01*
X067295Y010917D02*
X052245Y010917D01*
X052146Y011015D02*
X067197Y011015D01*
X067098Y011114D02*
X052048Y011114D01*
X051949Y011212D02*
X067000Y011212D01*
X066901Y011311D02*
X051851Y011311D01*
X051752Y011409D02*
X066803Y011409D01*
X066704Y011508D02*
X051654Y011508D01*
X051555Y011606D02*
X066606Y011606D01*
X066507Y011705D02*
X051457Y011705D01*
X051358Y011803D02*
X066409Y011803D01*
X066310Y011902D02*
X051260Y011902D01*
X051161Y012000D02*
X066212Y012000D01*
X066113Y012099D02*
X051063Y012099D01*
X050964Y012197D02*
X066015Y012197D01*
X065916Y012296D02*
X050866Y012296D01*
X050849Y012394D02*
X065818Y012394D01*
X065719Y012493D02*
X050849Y012493D01*
X050849Y012591D02*
X065621Y012591D01*
X065522Y012690D02*
X050849Y012690D01*
X050849Y012788D02*
X065424Y012788D01*
X065325Y012887D02*
X050849Y012887D01*
X050849Y012985D02*
X065227Y012985D01*
X065128Y013084D02*
X050849Y013084D01*
X050849Y013182D02*
X065030Y013182D01*
X075843Y009735D02*
X078941Y009735D01*
X078941Y009833D02*
X079041Y009833D01*
X079041Y009735D02*
X079778Y009735D01*
X079778Y009833D02*
X079505Y009833D01*
X079480Y009932D02*
X079778Y009932D01*
X079778Y010030D02*
X079434Y010030D01*
X079352Y010129D02*
X079778Y010129D01*
X079778Y010227D02*
X079209Y010227D01*
X079285Y010326D02*
X079778Y010326D01*
X079778Y010424D02*
X079393Y010424D01*
X079456Y010523D02*
X079778Y010523D01*
X079778Y010621D02*
X079494Y010621D01*
X079507Y010818D02*
X079598Y010818D01*
X079500Y010917D02*
X079485Y010917D01*
X079697Y010720D02*
X079041Y010720D01*
X079041Y010621D02*
X078941Y010621D01*
X078941Y010523D02*
X079041Y010523D01*
X079041Y010424D02*
X078941Y010424D01*
X078941Y010326D02*
X079041Y010326D01*
X079041Y010227D02*
X078941Y010227D01*
X078941Y010129D02*
X079041Y010129D01*
X079041Y010030D02*
X078941Y010030D01*
X078941Y009932D02*
X079041Y009932D01*
X079041Y009636D02*
X078941Y009636D01*
X078941Y009538D02*
X079041Y009538D01*
X079041Y009439D02*
X078941Y009439D01*
X078941Y009341D02*
X079041Y009341D01*
X079041Y009242D02*
X078941Y009242D01*
X078941Y009144D02*
X079041Y009144D01*
X079041Y009045D02*
X078941Y009045D01*
X078941Y008947D02*
X079041Y008947D01*
X079041Y008848D02*
X078941Y008848D01*
X078941Y008750D02*
X046926Y008750D01*
X046926Y008848D02*
X078479Y008848D01*
X078506Y008947D02*
X046926Y008947D01*
X046926Y009045D02*
X078559Y009045D01*
X078644Y009144D02*
X046926Y009144D01*
X046926Y009242D02*
X078808Y009242D01*
X079174Y009242D02*
X079778Y009242D01*
X079778Y009144D02*
X079337Y009144D01*
X079423Y009045D02*
X079778Y009045D01*
X079778Y008947D02*
X079475Y008947D01*
X079503Y008848D02*
X079778Y008848D01*
X079778Y008750D02*
X079041Y008750D01*
X079041Y008651D02*
X078941Y008651D01*
X078941Y008553D02*
X079041Y008553D01*
X079041Y008454D02*
X078941Y008454D01*
X078941Y008356D02*
X079041Y008356D01*
X079041Y008257D02*
X078941Y008257D01*
X078941Y008159D02*
X079041Y008159D01*
X079041Y008060D02*
X078941Y008060D01*
X078941Y007962D02*
X079041Y007962D01*
X079041Y007863D02*
X078941Y007863D01*
X078941Y007765D02*
X046926Y007765D01*
X046926Y007863D02*
X078481Y007863D01*
X078513Y007962D02*
X046926Y007962D01*
X046926Y008060D02*
X078570Y008060D01*
X078662Y008159D02*
X046926Y008159D01*
X046926Y008257D02*
X078840Y008257D01*
X078656Y008356D02*
X046926Y008356D01*
X046926Y008454D02*
X078567Y008454D01*
X078510Y008553D02*
X046926Y008553D01*
X046926Y008651D02*
X078481Y008651D01*
X079142Y008257D02*
X079778Y008257D01*
X079778Y008159D02*
X079320Y008159D01*
X079412Y008060D02*
X079778Y008060D01*
X079778Y007962D02*
X079469Y007962D01*
X079500Y007863D02*
X079778Y007863D01*
X079778Y007765D02*
X079041Y007765D01*
X079041Y007666D02*
X078941Y007666D01*
X078941Y007568D02*
X079041Y007568D01*
X079041Y007469D02*
X078941Y007469D01*
X078941Y007371D02*
X079041Y007371D01*
X079041Y007272D02*
X078941Y007272D01*
X078941Y007174D02*
X079041Y007174D01*
X079041Y007075D02*
X078941Y007075D01*
X078941Y006977D02*
X079041Y006977D01*
X079041Y006878D02*
X078941Y006878D01*
X078941Y006780D02*
X046926Y006780D01*
X046926Y006878D02*
X078484Y006878D01*
X078520Y006977D02*
X046926Y006977D01*
X046926Y007075D02*
X078581Y007075D01*
X078682Y007174D02*
X046926Y007174D01*
X046926Y007272D02*
X078794Y007272D01*
X078640Y007371D02*
X046926Y007371D01*
X046926Y007469D02*
X078556Y007469D01*
X078505Y007568D02*
X046926Y007568D01*
X046926Y007666D02*
X078478Y007666D01*
X079188Y007272D02*
X079778Y007272D01*
X079778Y007174D02*
X079299Y007174D01*
X079401Y007075D02*
X079778Y007075D01*
X079778Y006977D02*
X079461Y006977D01*
X079498Y006878D02*
X079778Y006878D01*
X079778Y006780D02*
X079041Y006780D01*
X079506Y006681D02*
X079778Y006681D01*
X079778Y006583D02*
X079482Y006583D01*
X079436Y006484D02*
X079778Y006484D01*
X079685Y006386D02*
X079357Y006386D01*
X079218Y006287D02*
X079586Y006287D01*
X079488Y006189D02*
X079250Y006189D01*
X079363Y006090D02*
X079389Y006090D01*
X078763Y006287D02*
X046926Y006287D01*
X046926Y006189D02*
X078731Y006189D01*
X078619Y006090D02*
X046926Y006090D01*
X046926Y005992D02*
X078548Y005992D01*
X078507Y005893D02*
X046926Y005893D01*
X046926Y005795D02*
X078491Y005795D01*
X078491Y005696D02*
X046926Y005696D01*
X047010Y005598D02*
X078515Y005598D01*
X078556Y005499D02*
X047108Y005499D01*
X047207Y005401D02*
X078638Y005401D01*
X078601Y005302D02*
X047305Y005302D01*
X047404Y005204D02*
X078503Y005204D01*
X078404Y005105D02*
X047502Y005105D01*
X047601Y005007D02*
X078306Y005007D01*
X078207Y004908D02*
X047699Y004908D01*
X047798Y004810D02*
X078109Y004810D01*
X078010Y004711D02*
X047896Y004711D01*
X047995Y004613D02*
X077912Y004613D01*
X077813Y004514D02*
X048093Y004514D01*
X048192Y004416D02*
X077715Y004416D01*
X077616Y004317D02*
X048290Y004317D01*
X048389Y004219D02*
X077518Y004219D01*
X077419Y004120D02*
X048487Y004120D01*
X048586Y004022D02*
X077321Y004022D01*
X077222Y003923D02*
X060349Y003923D01*
X060672Y003825D02*
X077124Y003825D01*
X077025Y003726D02*
X060843Y003726D01*
X060988Y003628D02*
X076927Y003628D01*
X076828Y003529D02*
X061086Y003529D01*
X061185Y003431D02*
X076730Y003431D01*
X076631Y003332D02*
X061254Y003332D01*
X061311Y003234D02*
X062860Y003234D01*
X062773Y003197D02*
X062950Y003271D01*
X063142Y003271D01*
X063319Y003197D01*
X063455Y003062D01*
X063528Y002884D01*
X063528Y001987D01*
X063455Y001810D01*
X063319Y001674D01*
X063142Y001601D01*
X062950Y001601D01*
X062773Y001674D01*
X062637Y001810D01*
X062563Y001987D01*
X062563Y002884D01*
X062637Y003062D01*
X062773Y003197D01*
X062710Y003135D02*
X061413Y003135D01*
X061497Y003037D02*
X062626Y003037D01*
X062586Y002938D02*
X061538Y002938D01*
X061565Y002840D02*
X062563Y002840D01*
X062563Y002741D02*
X061633Y002741D01*
X061674Y002643D02*
X062563Y002643D01*
X062563Y002544D02*
X061707Y002544D01*
X061707Y002446D02*
X062563Y002446D01*
X062563Y002347D02*
X061707Y002347D01*
X061682Y002249D02*
X062563Y002249D01*
X062563Y002150D02*
X061641Y002150D01*
X061584Y002052D02*
X062563Y002052D01*
X062578Y001953D02*
X061546Y001953D01*
X061505Y001855D02*
X062618Y001855D01*
X062691Y001756D02*
X061432Y001756D01*
X061310Y001658D02*
X062813Y001658D01*
X063279Y001658D02*
X074957Y001658D01*
X075055Y001756D02*
X063401Y001756D01*
X063473Y001855D02*
X075154Y001855D01*
X075252Y001953D02*
X063514Y001953D01*
X063528Y002052D02*
X075351Y002052D01*
X075449Y002150D02*
X063528Y002150D01*
X063528Y002249D02*
X075548Y002249D01*
X075646Y002347D02*
X063528Y002347D01*
X063528Y002446D02*
X075745Y002446D01*
X075843Y002544D02*
X063528Y002544D01*
X063528Y002643D02*
X075942Y002643D01*
X076040Y002741D02*
X063528Y002741D01*
X063528Y002840D02*
X076139Y002840D01*
X076237Y002938D02*
X063506Y002938D01*
X063465Y003037D02*
X076336Y003037D01*
X076434Y003135D02*
X063382Y003135D01*
X063232Y003234D02*
X076533Y003234D01*
X074858Y001559D02*
X061090Y001559D01*
X060991Y001461D02*
X074760Y001461D01*
X074661Y001362D02*
X060893Y001362D01*
X060794Y001264D02*
X074563Y001264D01*
X074464Y001165D02*
X060652Y001165D01*
X059837Y003923D02*
X048684Y003923D01*
X048783Y003825D02*
X059514Y003825D01*
X071117Y007188D02*
X071114Y007718D01*
X075942Y009833D02*
X078477Y009833D01*
X078501Y009932D02*
X076040Y009932D01*
X076139Y010030D02*
X078548Y010030D01*
X078629Y010129D02*
X076237Y010129D01*
X076336Y010227D02*
X078772Y010227D01*
X078697Y010326D02*
X076434Y010326D01*
X076533Y010424D02*
X078588Y010424D01*
X078526Y010523D02*
X076631Y010523D01*
X076730Y010621D02*
X078488Y010621D01*
X078474Y010818D02*
X076927Y010818D01*
X077025Y010917D02*
X077736Y010917D01*
X077884Y010917D02*
X078497Y010917D01*
X078540Y011015D02*
X078048Y011015D01*
X078113Y011114D02*
X078614Y011114D01*
X078941Y010720D02*
X076828Y010720D01*
X077124Y011015D02*
X077571Y011015D01*
X079440Y012000D02*
X089484Y012000D01*
X089484Y011902D02*
X080261Y011902D01*
X080360Y011803D02*
X089484Y011803D01*
X089484Y011705D02*
X080458Y011705D01*
X080557Y011606D02*
X089484Y011606D01*
X089484Y011508D02*
X080655Y011508D01*
X080754Y011409D02*
X089484Y011409D01*
X089484Y011311D02*
X080852Y011311D01*
X080951Y011212D02*
X089484Y011212D01*
X089484Y011114D02*
X081049Y011114D01*
X081148Y011015D02*
X087791Y011015D01*
X087753Y011006D02*
X087642Y010967D01*
X087535Y010916D01*
X087434Y010853D01*
X087342Y010779D01*
X087258Y010695D01*
X087184Y010602D01*
X087121Y010502D01*
X087070Y010395D01*
X087031Y010284D01*
X087004Y010168D01*
X086991Y010050D01*
X086991Y010041D01*
X087996Y010041D01*
X087996Y011046D01*
X087987Y011046D01*
X087869Y011033D01*
X087753Y011006D01*
X087536Y010917D02*
X081246Y010917D01*
X081345Y010818D02*
X087391Y010818D01*
X087282Y010720D02*
X081443Y010720D01*
X081542Y010621D02*
X087199Y010621D01*
X087134Y010523D02*
X081640Y010523D01*
X081739Y010424D02*
X087083Y010424D01*
X087045Y010326D02*
X081837Y010326D01*
X081936Y010227D02*
X087018Y010227D01*
X087000Y010129D02*
X082034Y010129D01*
X082133Y010030D02*
X087996Y010030D01*
X087996Y010041D02*
X087996Y009941D01*
X088096Y009941D01*
X088096Y010041D01*
X089101Y010041D01*
X089101Y010050D01*
X089088Y010168D01*
X089061Y010284D01*
X089022Y010395D01*
X088971Y010502D01*
X088908Y010602D01*
X088834Y010695D01*
X088750Y010779D01*
X088657Y010853D01*
X088557Y010916D01*
X088450Y010967D01*
X088338Y011006D01*
X088223Y011033D01*
X088105Y011046D01*
X088096Y011046D01*
X088096Y010041D01*
X087996Y010041D01*
X087996Y010129D02*
X088096Y010129D01*
X088096Y010227D02*
X087996Y010227D01*
X087996Y010326D02*
X088096Y010326D01*
X088096Y010424D02*
X087996Y010424D01*
X087996Y010523D02*
X088096Y010523D01*
X088096Y010621D02*
X087996Y010621D01*
X087996Y010720D02*
X088096Y010720D01*
X088096Y010818D02*
X087996Y010818D01*
X087996Y010917D02*
X088096Y010917D01*
X088096Y011015D02*
X087996Y011015D01*
X088301Y011015D02*
X089484Y011015D01*
X089484Y010917D02*
X088556Y010917D01*
X088701Y010818D02*
X089484Y010818D01*
X089484Y010720D02*
X088809Y010720D01*
X088893Y010621D02*
X089484Y010621D01*
X089484Y010523D02*
X088958Y010523D01*
X089008Y010424D02*
X089484Y010424D01*
X089484Y010326D02*
X089047Y010326D01*
X089074Y010227D02*
X089484Y010227D01*
X089484Y010129D02*
X089092Y010129D01*
X089101Y009941D02*
X088096Y009941D01*
X088096Y008936D01*
X088105Y008936D01*
X088223Y008949D01*
X088338Y008976D01*
X088450Y009015D01*
X088557Y009066D01*
X088657Y009129D01*
X088750Y009203D01*
X088834Y009287D01*
X088908Y009380D01*
X088971Y009480D01*
X089022Y009587D01*
X089061Y009699D01*
X089088Y009814D01*
X089101Y009932D01*
X089101Y009941D01*
X089101Y009932D02*
X089484Y009932D01*
X089484Y010030D02*
X088096Y010030D01*
X088096Y009932D02*
X087996Y009932D01*
X087996Y009941D02*
X087996Y008936D01*
X087987Y008936D01*
X087869Y008949D01*
X087753Y008976D01*
X087642Y009015D01*
X087535Y009066D01*
X087434Y009129D01*
X087342Y009203D01*
X087258Y009287D01*
X087184Y009380D01*
X087121Y009480D01*
X087070Y009587D01*
X087031Y009699D01*
X087004Y009814D01*
X086991Y009932D01*
X086991Y009941D01*
X087996Y009941D01*
X087996Y009833D02*
X088096Y009833D01*
X088096Y009735D02*
X087996Y009735D01*
X087996Y009636D02*
X088096Y009636D01*
X088096Y009538D02*
X087996Y009538D01*
X087996Y009439D02*
X088096Y009439D01*
X088096Y009341D02*
X087996Y009341D01*
X087996Y009242D02*
X088096Y009242D01*
X088096Y009144D02*
X087996Y009144D01*
X087996Y009045D02*
X088096Y009045D01*
X088096Y008947D02*
X087996Y008947D01*
X087894Y008947D02*
X083216Y008947D01*
X083118Y009045D02*
X087579Y009045D01*
X087417Y009144D02*
X083019Y009144D01*
X082921Y009242D02*
X087303Y009242D01*
X087215Y009341D02*
X082822Y009341D01*
X082724Y009439D02*
X087147Y009439D01*
X087093Y009538D02*
X082625Y009538D01*
X082527Y009636D02*
X087052Y009636D01*
X087022Y009735D02*
X082428Y009735D01*
X082330Y009833D02*
X087002Y009833D01*
X086991Y009932D02*
X082231Y009932D01*
X083315Y008848D02*
X089484Y008848D01*
X089484Y008750D02*
X083413Y008750D01*
X083512Y008651D02*
X089484Y008651D01*
X089484Y008553D02*
X083610Y008553D01*
X083709Y008454D02*
X089484Y008454D01*
X089484Y008356D02*
X083807Y008356D01*
X083906Y008257D02*
X089484Y008257D01*
X089484Y008159D02*
X084004Y008159D01*
X084103Y008060D02*
X089484Y008060D01*
X089484Y007962D02*
X084201Y007962D01*
X084300Y007863D02*
X089484Y007863D01*
X089484Y007765D02*
X084398Y007765D01*
X084497Y007666D02*
X089484Y007666D01*
X089484Y007568D02*
X084595Y007568D01*
X084694Y007469D02*
X089484Y007469D01*
X089484Y007371D02*
X084792Y007371D01*
X084891Y007272D02*
X089484Y007272D01*
X089484Y007174D02*
X084989Y007174D01*
X085088Y007075D02*
X089484Y007075D01*
X089484Y006977D02*
X085186Y006977D01*
X085285Y006878D02*
X089484Y006878D01*
X089484Y006780D02*
X085383Y006780D01*
X085482Y006681D02*
X089484Y006681D01*
X089484Y006583D02*
X085580Y006583D01*
X085679Y006484D02*
X089484Y006484D01*
X089484Y006386D02*
X085777Y006386D01*
X085876Y006287D02*
X089484Y006287D01*
X089484Y006189D02*
X085974Y006189D01*
X086073Y006090D02*
X089484Y006090D01*
X089484Y005992D02*
X086171Y005992D01*
X086270Y005893D02*
X089484Y005893D01*
X089484Y005795D02*
X086368Y005795D01*
X086467Y005696D02*
X089484Y005696D01*
X089484Y005598D02*
X086565Y005598D01*
X086664Y005499D02*
X089484Y005499D01*
X089484Y005401D02*
X086762Y005401D01*
X086861Y005302D02*
X089484Y005302D01*
X089484Y005204D02*
X086959Y005204D01*
X087058Y005105D02*
X089484Y005105D01*
X089484Y005007D02*
X087156Y005007D01*
X087255Y004908D02*
X089484Y004908D01*
X089484Y004810D02*
X087353Y004810D01*
X087452Y004711D02*
X089484Y004711D01*
X089484Y004613D02*
X087550Y004613D01*
X087649Y004514D02*
X089484Y004514D01*
X089484Y004416D02*
X087747Y004416D01*
X087846Y004317D02*
X089484Y004317D01*
X089484Y004219D02*
X087944Y004219D01*
X088043Y004120D02*
X089484Y004120D01*
X089484Y004022D02*
X088141Y004022D01*
X088240Y003923D02*
X089484Y003923D01*
X089484Y003825D02*
X088338Y003825D01*
X088437Y003726D02*
X089484Y003726D01*
X089484Y003628D02*
X088535Y003628D01*
X088634Y003529D02*
X089484Y003529D01*
X089484Y003431D02*
X088732Y003431D01*
X088831Y003332D02*
X089484Y003332D01*
X089484Y003234D02*
X088929Y003234D01*
X089028Y003135D02*
X089484Y003135D01*
X089484Y003037D02*
X089126Y003037D01*
X089225Y002938D02*
X089484Y002938D01*
X089484Y002840D02*
X089323Y002840D01*
X089422Y002741D02*
X089484Y002741D01*
X078625Y006386D02*
X046926Y006386D01*
X046926Y006484D02*
X078545Y006484D01*
X078500Y006583D02*
X046926Y006583D01*
X046926Y006681D02*
X078476Y006681D01*
X079342Y007371D02*
X079778Y007371D01*
X079778Y007469D02*
X079426Y007469D01*
X079477Y007568D02*
X079778Y007568D01*
X079778Y007666D02*
X079503Y007666D01*
X079326Y008356D02*
X079778Y008356D01*
X079778Y008454D02*
X079415Y008454D01*
X079471Y008553D02*
X079778Y008553D01*
X079778Y008651D02*
X079501Y008651D01*
X079305Y009341D02*
X079778Y009341D01*
X079778Y009439D02*
X079404Y009439D01*
X079464Y009538D02*
X079778Y009538D01*
X079778Y009636D02*
X079498Y009636D01*
X079310Y012099D02*
X089484Y012099D01*
X089484Y009833D02*
X089090Y009833D01*
X089070Y009735D02*
X089484Y009735D01*
X089484Y009636D02*
X089039Y009636D01*
X088998Y009538D02*
X089484Y009538D01*
X089484Y009439D02*
X088945Y009439D01*
X088877Y009341D02*
X089484Y009341D01*
X089484Y009242D02*
X088789Y009242D01*
X088675Y009144D02*
X089484Y009144D01*
X089484Y009045D02*
X088513Y009045D01*
X088198Y008947D02*
X089484Y008947D01*
X077185Y017812D02*
X070723Y017812D01*
X070723Y017910D02*
X077087Y017910D01*
X077041Y018009D02*
X070723Y018009D01*
X070723Y018107D02*
X077010Y018107D01*
X077010Y018206D02*
X070723Y018206D01*
X070723Y018304D02*
X077010Y018304D01*
X077010Y018403D02*
X070723Y018403D01*
X070723Y018501D02*
X077010Y018501D01*
X077010Y018600D02*
X070723Y018600D01*
X070723Y018698D02*
X077010Y018698D01*
X077020Y018797D02*
X070723Y018797D01*
X070723Y018895D02*
X077060Y018895D01*
X077134Y018994D02*
X070723Y018994D01*
X070723Y019092D02*
X077276Y019092D01*
X071824Y023722D02*
X065698Y023722D01*
X065698Y023820D02*
X071922Y023820D01*
X072021Y023919D02*
X065698Y023919D01*
X065698Y024017D02*
X072119Y024017D01*
X072218Y024116D02*
X065698Y024116D01*
X065698Y024214D02*
X072316Y024214D01*
X072415Y024313D02*
X065698Y024313D01*
X065698Y024411D02*
X067561Y024411D01*
X067583Y024388D02*
X067705Y024338D01*
X067836Y024338D01*
X067957Y024388D01*
X068050Y024481D01*
X068100Y024603D01*
X068100Y024734D01*
X068050Y024855D01*
X067957Y024948D01*
X067836Y024998D01*
X067705Y024998D01*
X067599Y024954D01*
X067621Y024977D01*
X067665Y025083D01*
X067665Y025134D01*
X068251Y025719D01*
X068634Y025719D01*
X068670Y025683D01*
X068776Y025639D01*
X068891Y025639D01*
X068997Y025683D01*
X069078Y025764D01*
X069122Y025871D01*
X069122Y025985D01*
X069078Y026092D01*
X068997Y026173D01*
X068891Y026217D01*
X068776Y026217D01*
X068670Y026173D01*
X068634Y026137D01*
X068078Y026137D01*
X067370Y025429D01*
X067319Y025429D01*
X067213Y025385D01*
X067132Y025304D01*
X067102Y025233D01*
X066526Y025809D01*
X066526Y025915D01*
X066475Y026036D01*
X066382Y026129D01*
X066261Y026179D01*
X066130Y026179D01*
X066009Y026129D01*
X065916Y026036D01*
X065866Y025915D01*
X065866Y025784D01*
X065916Y025662D01*
X066009Y025570D01*
X066130Y025519D01*
X066236Y025519D01*
X067172Y024583D01*
X067292Y024463D01*
X067509Y024463D01*
X067583Y024388D01*
X067245Y024510D02*
X065698Y024510D01*
X065698Y024608D02*
X067147Y024608D01*
X067048Y024707D02*
X065698Y024707D01*
X065698Y024805D02*
X066950Y024805D01*
X066851Y024904D02*
X065698Y024904D01*
X065698Y025002D02*
X066753Y025002D01*
X066654Y025101D02*
X065698Y025101D01*
X065698Y025199D02*
X066556Y025199D01*
X066457Y025298D02*
X065698Y025298D01*
X065698Y025396D02*
X066359Y025396D01*
X066260Y025495D02*
X065698Y025495D01*
X065698Y025593D02*
X065985Y025593D01*
X065904Y025692D02*
X065698Y025692D01*
X065698Y025790D02*
X065866Y025790D01*
X065866Y025889D02*
X065698Y025889D01*
X065698Y025987D02*
X065895Y025987D01*
X065965Y026086D02*
X065698Y026086D01*
X065698Y026184D02*
X068697Y026184D01*
X068970Y026184D02*
X073085Y026184D01*
X073085Y026086D02*
X069081Y026086D01*
X069121Y025987D02*
X073085Y025987D01*
X073085Y025889D02*
X069122Y025889D01*
X069089Y025790D02*
X073085Y025790D01*
X073085Y025692D02*
X069005Y025692D01*
X068661Y025692D02*
X068223Y025692D01*
X068124Y025593D02*
X073085Y025593D01*
X073085Y025495D02*
X068026Y025495D01*
X067927Y025396D02*
X073085Y025396D01*
X073085Y025298D02*
X067829Y025298D01*
X067730Y025199D02*
X073085Y025199D01*
X073085Y025101D02*
X067665Y025101D01*
X067632Y025002D02*
X073085Y025002D01*
X073006Y024904D02*
X068002Y024904D01*
X068071Y024805D02*
X072907Y024805D01*
X072809Y024707D02*
X068100Y024707D01*
X068100Y024608D02*
X072710Y024608D01*
X072612Y024510D02*
X068062Y024510D01*
X067980Y024411D02*
X072513Y024411D01*
X071725Y023623D02*
X065698Y023623D01*
X065698Y023525D02*
X071627Y023525D01*
X071528Y023426D02*
X065698Y023426D01*
X065698Y023328D02*
X071430Y023328D01*
X067632Y025692D02*
X066643Y025692D01*
X066545Y025790D02*
X067731Y025790D01*
X067829Y025889D02*
X066526Y025889D01*
X066496Y025987D02*
X067928Y025987D01*
X068026Y026086D02*
X066426Y026086D01*
X066742Y025593D02*
X067534Y025593D01*
X067435Y025495D02*
X066840Y025495D01*
X066939Y025396D02*
X067239Y025396D01*
X067129Y025298D02*
X067037Y025298D01*
X067581Y026381D02*
X065665Y026381D01*
X065698Y026283D02*
X073085Y026283D01*
X073085Y026381D02*
X067881Y026381D01*
X068001Y026480D02*
X073085Y026480D01*
X073085Y026578D02*
X068048Y026578D01*
X068061Y026677D02*
X073085Y026677D01*
X073085Y026775D02*
X068047Y026775D01*
X068000Y026874D02*
X073085Y026874D01*
X073065Y026972D02*
X067879Y026972D01*
X067583Y026972D02*
X059103Y026972D01*
X059201Y026874D02*
X059638Y026874D01*
X059489Y026775D02*
X059300Y026775D01*
X059398Y026677D02*
X059431Y026677D01*
X059839Y026874D02*
X062363Y026874D01*
X062264Y026775D02*
X059988Y026775D01*
X059004Y027071D02*
X072966Y027071D01*
X072868Y027169D02*
X058906Y027169D01*
X058807Y027268D02*
X072769Y027268D01*
X072671Y027366D02*
X058709Y027366D01*
X046091Y027662D02*
X039363Y027662D01*
X039363Y027760D02*
X045944Y027760D01*
X045887Y027859D02*
X039363Y027859D01*
X039363Y027957D02*
X045866Y027957D01*
X045872Y028056D02*
X039363Y028056D01*
X039363Y028154D02*
X045912Y028154D01*
X045991Y028253D02*
X039363Y028253D01*
X039363Y028351D02*
X045991Y028351D01*
X045991Y028450D02*
X042153Y028450D01*
X042318Y028548D02*
X045991Y028548D01*
X045991Y028647D02*
X042411Y028647D01*
X042452Y028745D02*
X045991Y028745D01*
X045991Y028844D02*
X042483Y028844D01*
X042483Y028942D02*
X045991Y028942D01*
X045991Y029041D02*
X042474Y029041D01*
X042401Y029632D02*
X045991Y029632D01*
X045991Y029730D02*
X042445Y029730D01*
X042483Y029829D02*
X045991Y029829D01*
X045991Y029927D02*
X042483Y029927D01*
X042480Y030026D02*
X045991Y030026D01*
X045991Y030124D02*
X042440Y030124D01*
X042388Y030223D02*
X045991Y030223D01*
X045991Y030321D02*
X042289Y030321D01*
X041579Y030617D02*
X039363Y030617D01*
X039363Y030715D02*
X041527Y030715D01*
X041486Y030814D02*
X039363Y030814D01*
X039363Y030912D02*
X041483Y030912D01*
X041483Y031011D02*
X039363Y031011D01*
X039363Y031109D02*
X041520Y031109D01*
X041563Y031208D02*
X039363Y031208D01*
X039363Y031306D02*
X041662Y031306D01*
X042371Y031602D02*
X045991Y031602D01*
X045991Y031700D02*
X042433Y031700D01*
X042474Y031799D02*
X045991Y031799D01*
X045991Y031897D02*
X042483Y031897D01*
X042483Y031996D02*
X045991Y031996D01*
X045991Y032094D02*
X042452Y032094D01*
X042411Y032193D02*
X045991Y032193D01*
X045991Y032291D02*
X042319Y032291D01*
X042156Y032390D02*
X045991Y032390D01*
X045991Y032488D02*
X042246Y032488D01*
X042356Y032587D02*
X045991Y032587D01*
X045991Y032685D02*
X042427Y032685D01*
X042468Y032784D02*
X045991Y032784D01*
X045991Y032882D02*
X042483Y032882D01*
X042483Y032981D02*
X045991Y032981D01*
X045991Y033079D02*
X042458Y033079D01*
X042418Y033178D02*
X045991Y033178D01*
X045991Y033276D02*
X042334Y033276D01*
X042192Y033375D02*
X045991Y033375D01*
X045991Y033473D02*
X042210Y033473D01*
X042341Y033572D02*
X045991Y033572D01*
X045991Y033670D02*
X042421Y033670D01*
X042461Y033769D02*
X045991Y033769D01*
X045991Y033867D02*
X042483Y033867D01*
X042483Y033966D02*
X045991Y033966D01*
X046050Y034064D02*
X042465Y034064D01*
X042424Y034163D02*
X046148Y034163D01*
X046247Y034261D02*
X042349Y034261D01*
X042229Y034360D02*
X046345Y034360D01*
X046444Y034458D02*
X042174Y034458D01*
X042326Y034557D02*
X046542Y034557D01*
X046641Y034655D02*
X042414Y034655D01*
X042455Y034754D02*
X046739Y034754D01*
X046838Y034852D02*
X042483Y034852D01*
X042483Y034951D02*
X046936Y034951D01*
X047035Y035049D02*
X042471Y035049D01*
X042430Y035148D02*
X047133Y035148D01*
X047232Y035246D02*
X042364Y035246D01*
X042265Y035345D02*
X047330Y035345D01*
X047063Y036330D02*
X046564Y036330D01*
X046521Y036286D02*
X046814Y036579D01*
X046814Y036993D01*
X046521Y037286D01*
X046107Y037286D01*
X045814Y036993D01*
X045814Y036579D01*
X046107Y036286D01*
X046521Y036286D01*
X046663Y036428D02*
X046965Y036428D01*
X046866Y036527D02*
X046761Y036527D01*
X046814Y036625D02*
X046814Y036625D01*
X046814Y036724D02*
X046814Y036724D01*
X046814Y036822D02*
X046814Y036822D01*
X046814Y036921D02*
X046814Y036921D01*
X046788Y037019D02*
X046839Y037019D01*
X046938Y037118D02*
X046689Y037118D01*
X046591Y037216D02*
X047036Y037216D01*
X047078Y037315D02*
X046549Y037315D01*
X046521Y037286D02*
X046814Y037579D01*
X046814Y037993D01*
X046521Y038286D01*
X046107Y038286D01*
X045814Y037993D01*
X045814Y037579D01*
X046107Y037286D01*
X046521Y037286D01*
X046648Y037413D02*
X046980Y037413D01*
X046881Y037512D02*
X046746Y037512D01*
X046814Y037610D02*
X046814Y037610D01*
X046814Y037709D02*
X046814Y037709D01*
X046814Y037807D02*
X046814Y037807D01*
X046814Y037906D02*
X046814Y037906D01*
X046803Y038004D02*
X046824Y038004D01*
X046923Y038103D02*
X046704Y038103D01*
X046606Y038201D02*
X047021Y038201D01*
X046021Y038201D02*
X045606Y038201D01*
X045521Y038286D02*
X045107Y038286D01*
X044814Y037993D01*
X044814Y037579D01*
X045107Y037286D01*
X044814Y036993D01*
X044814Y036579D01*
X045107Y036286D01*
X045521Y036286D01*
X045814Y036579D01*
X045814Y036993D01*
X045521Y037286D01*
X045107Y037286D01*
X045521Y037286D01*
X045814Y037579D01*
X045814Y037993D01*
X045521Y038286D01*
X045704Y038103D02*
X045923Y038103D01*
X045824Y038004D02*
X045803Y038004D01*
X045814Y037906D02*
X045814Y037906D01*
X045814Y037807D02*
X045814Y037807D01*
X045814Y037709D02*
X045814Y037709D01*
X045814Y037610D02*
X045814Y037610D01*
X045881Y037512D02*
X045746Y037512D01*
X045648Y037413D02*
X045980Y037413D01*
X046078Y037315D02*
X045549Y037315D01*
X045591Y037216D02*
X046036Y037216D01*
X045938Y037118D02*
X045689Y037118D01*
X045788Y037019D02*
X045839Y037019D01*
X045814Y036921D02*
X045814Y036921D01*
X045814Y036822D02*
X045814Y036822D01*
X045814Y036724D02*
X045814Y036724D01*
X045814Y036625D02*
X045814Y036625D01*
X045866Y036527D02*
X045761Y036527D01*
X045663Y036428D02*
X045965Y036428D01*
X046063Y036330D02*
X045564Y036330D01*
X045063Y036330D02*
X044564Y036330D01*
X044521Y036286D02*
X044814Y036579D01*
X044814Y036993D01*
X044521Y037286D01*
X044107Y037286D01*
X043814Y036993D01*
X043814Y036579D01*
X044107Y036286D01*
X044521Y036286D01*
X044663Y036428D02*
X044965Y036428D01*
X044866Y036527D02*
X044761Y036527D01*
X044814Y036625D02*
X044814Y036625D01*
X044814Y036724D02*
X044814Y036724D01*
X044814Y036822D02*
X044814Y036822D01*
X044814Y036921D02*
X044814Y036921D01*
X044788Y037019D02*
X044839Y037019D01*
X044938Y037118D02*
X044689Y037118D01*
X044591Y037216D02*
X045036Y037216D01*
X045078Y037315D02*
X044549Y037315D01*
X044521Y037286D02*
X044814Y037579D01*
X044814Y037993D01*
X044521Y038286D01*
X044107Y038286D01*
X043814Y037993D01*
X043814Y037579D01*
X044107Y037286D01*
X044521Y037286D01*
X044648Y037413D02*
X044980Y037413D01*
X044881Y037512D02*
X044746Y037512D01*
X044814Y037610D02*
X044814Y037610D01*
X044814Y037709D02*
X044814Y037709D01*
X044814Y037807D02*
X044814Y037807D01*
X044814Y037906D02*
X044814Y037906D01*
X044803Y038004D02*
X044824Y038004D01*
X044923Y038103D02*
X044704Y038103D01*
X044606Y038201D02*
X045021Y038201D01*
X044021Y038201D02*
X042408Y038201D01*
X042449Y038103D02*
X043923Y038103D01*
X043824Y038004D02*
X042483Y038004D01*
X042483Y037906D02*
X043814Y037906D01*
X043814Y037807D02*
X042477Y037807D01*
X042437Y037709D02*
X043814Y037709D01*
X043814Y037610D02*
X042380Y037610D01*
X042281Y037512D02*
X043881Y037512D01*
X043980Y037413D02*
X042099Y037413D01*
X042296Y037315D02*
X044078Y037315D01*
X044036Y037216D02*
X042394Y037216D01*
X042442Y037118D02*
X043938Y037118D01*
X043839Y037019D02*
X042483Y037019D01*
X042483Y036921D02*
X043814Y036921D01*
X043814Y036822D02*
X042483Y036822D01*
X042443Y036724D02*
X043814Y036724D01*
X043814Y036625D02*
X042395Y036625D01*
X042296Y036527D02*
X043866Y036527D01*
X043965Y036428D02*
X042102Y036428D01*
X042281Y036330D02*
X044063Y036330D01*
X041864Y036428D02*
X039363Y036428D01*
X039363Y036330D02*
X041685Y036330D01*
X041587Y036231D02*
X039363Y036231D01*
X039363Y036133D02*
X041530Y036133D01*
X041489Y036034D02*
X039363Y036034D01*
X039363Y035936D02*
X041483Y035936D01*
X041483Y035837D02*
X039363Y035837D01*
X039363Y035739D02*
X041517Y035739D01*
X041558Y035640D02*
X039363Y035640D01*
X039363Y035542D02*
X041654Y035542D01*
X041669Y036527D02*
X039363Y036527D01*
X039363Y036625D02*
X041571Y036625D01*
X041523Y036724D02*
X039363Y036724D01*
X039363Y036822D02*
X041483Y036822D01*
X041483Y036921D02*
X039363Y036921D01*
X039363Y037019D02*
X041483Y037019D01*
X041524Y037118D02*
X039363Y037118D01*
X039363Y037216D02*
X041572Y037216D01*
X041670Y037315D02*
X039363Y037315D01*
X039452Y037413D02*
X041866Y037413D01*
X041684Y037512D02*
X039551Y037512D01*
X039649Y037610D02*
X041586Y037610D01*
X041529Y037709D02*
X039748Y037709D01*
X039846Y037807D02*
X041489Y037807D01*
X041483Y037906D02*
X039945Y037906D01*
X040043Y038004D02*
X041483Y038004D01*
X041517Y038103D02*
X040142Y038103D01*
X040240Y038201D02*
X041558Y038201D01*
X041655Y038300D02*
X040339Y038300D01*
X040437Y038398D02*
X041830Y038398D01*
X048591Y037216D02*
X048594Y037216D01*
X041692Y029336D02*
X039363Y029336D01*
X039363Y029238D02*
X041593Y029238D01*
X041532Y029139D02*
X039363Y029139D01*
X039363Y029041D02*
X041492Y029041D01*
X041483Y028942D02*
X039363Y028942D01*
X039363Y028844D02*
X041483Y028844D01*
X041514Y028745D02*
X039363Y028745D01*
X039363Y028647D02*
X041555Y028647D01*
X041648Y028548D02*
X039363Y028548D01*
X039363Y028450D02*
X041812Y028450D01*
X042955Y021653D02*
X039363Y021653D01*
X039363Y021555D02*
X042955Y021555D01*
X042955Y021456D02*
X039363Y021456D01*
X039363Y021358D02*
X042955Y021358D01*
X042955Y021259D02*
X039363Y021259D01*
X039363Y021161D02*
X042955Y021161D01*
X042955Y021062D02*
X039363Y021062D01*
X039363Y020964D02*
X042994Y020964D01*
X045764Y021062D02*
X045825Y021042D01*
X045888Y021032D01*
X045891Y021032D01*
X072393Y027465D02*
X072572Y027465D01*
X073873Y026874D02*
X087825Y026874D01*
X087542Y026775D02*
X073873Y026775D01*
X073873Y026677D02*
X087386Y026677D01*
X087275Y026578D02*
X073873Y026578D01*
X073873Y026480D02*
X087189Y026480D01*
X087122Y026381D02*
X073873Y026381D01*
X073873Y026283D02*
X087070Y026283D01*
X087030Y026184D02*
X073873Y026184D01*
X073873Y026086D02*
X087001Y026086D01*
X086981Y025987D02*
X073873Y025987D01*
X073873Y025889D02*
X086971Y025889D01*
X088511Y026775D02*
X089484Y026775D01*
X089484Y026677D02*
X088666Y026677D01*
X088778Y026578D02*
X089484Y026578D01*
X089484Y026480D02*
X088864Y026480D01*
X088931Y026381D02*
X089484Y026381D01*
X089484Y026283D02*
X088983Y026283D01*
X089023Y026184D02*
X089484Y026184D01*
X089484Y026086D02*
X089052Y026086D01*
X089071Y025987D02*
X089484Y025987D01*
X089484Y025889D02*
X089081Y025889D01*
X089484Y028253D02*
X079474Y028253D01*
X079572Y028351D02*
X089484Y028351D01*
X086799Y030518D02*
X079705Y030518D01*
X079681Y030459D02*
X079805Y030758D01*
X079805Y031082D01*
X079681Y031381D01*
X079642Y031420D01*
X079699Y031503D02*
X089484Y031503D01*
X089484Y031602D02*
X079740Y031602D01*
X079780Y031700D02*
X089484Y031700D01*
X089484Y031799D02*
X079805Y031799D01*
X079805Y031897D02*
X089484Y031897D01*
X089484Y031996D02*
X079805Y031996D01*
X079800Y032094D02*
X089484Y032094D01*
X089484Y032193D02*
X079759Y032193D01*
X079718Y032291D02*
X089484Y032291D01*
X089484Y032390D02*
X079672Y032390D01*
X079693Y032488D02*
X089484Y032488D01*
X089484Y032587D02*
X079733Y032587D01*
X079774Y032685D02*
X089484Y032685D01*
X089484Y032784D02*
X079805Y032784D01*
X079805Y032882D02*
X089484Y032882D01*
X089484Y032981D02*
X079805Y032981D01*
X079805Y033079D02*
X089484Y033079D01*
X089484Y033178D02*
X079765Y033178D01*
X079724Y033276D02*
X089484Y033276D01*
X089484Y033375D02*
X079683Y033375D01*
X079686Y033473D02*
X089484Y033473D01*
X089484Y033572D02*
X079727Y033572D01*
X079768Y033670D02*
X089484Y033670D01*
X089484Y033769D02*
X079805Y033769D01*
X079805Y033867D02*
X089484Y033867D01*
X089484Y033966D02*
X079805Y033966D01*
X079805Y034064D02*
X089484Y034064D01*
X089484Y034163D02*
X079771Y034163D01*
X079730Y034261D02*
X089484Y034261D01*
X089484Y034360D02*
X079690Y034360D01*
X079679Y034458D02*
X089484Y034458D01*
X089484Y034557D02*
X079721Y034557D01*
X079762Y034655D02*
X089484Y034655D01*
X089484Y034754D02*
X079803Y034754D01*
X079805Y034852D02*
X089484Y034852D01*
X089484Y034951D02*
X079805Y034951D01*
X079805Y035049D02*
X089484Y035049D01*
X089484Y035148D02*
X079777Y035148D01*
X079737Y035246D02*
X089484Y035246D01*
X089484Y035345D02*
X079696Y035345D01*
X079664Y035443D02*
X089484Y035443D01*
X089484Y035542D02*
X079715Y035542D01*
X079756Y035640D02*
X089484Y035640D01*
X089484Y035739D02*
X079796Y035739D01*
X079805Y035837D02*
X089484Y035837D01*
X089484Y035936D02*
X079805Y035936D01*
X079805Y036034D02*
X089484Y036034D01*
X089484Y036133D02*
X079784Y036133D01*
X079743Y036231D02*
X089484Y036231D01*
X089484Y036330D02*
X079702Y036330D01*
X079649Y036428D02*
X089484Y036428D01*
X089484Y036527D02*
X079709Y036527D01*
X079749Y036625D02*
X089484Y036625D01*
X089484Y036724D02*
X079790Y036724D01*
X079805Y036822D02*
X089484Y036822D01*
X089484Y036921D02*
X079805Y036921D01*
X079805Y037019D02*
X089484Y037019D01*
X089484Y037118D02*
X079790Y037118D01*
X079749Y037216D02*
X089484Y037216D01*
X089484Y037315D02*
X079708Y037315D01*
X079649Y037413D02*
X089396Y037413D01*
X089297Y037512D02*
X079702Y037512D01*
X079743Y037610D02*
X089199Y037610D01*
X089100Y037709D02*
X079784Y037709D01*
X079805Y037807D02*
X089002Y037807D01*
X088903Y037906D02*
X079805Y037906D01*
X079805Y038004D02*
X088805Y038004D01*
X088706Y038103D02*
X079796Y038103D01*
X079755Y038201D02*
X088608Y038201D01*
X088509Y038300D02*
X079714Y038300D01*
X079664Y038398D02*
X088411Y038398D01*
X088312Y038497D02*
X079565Y038497D01*
X079467Y038595D02*
X088214Y038595D01*
X087390Y031109D02*
X079793Y031109D01*
X079805Y031011D02*
X087292Y031011D01*
X087193Y030912D02*
X079805Y030912D01*
X079805Y030814D02*
X087095Y030814D01*
X086996Y030715D02*
X079787Y030715D01*
X079746Y030617D02*
X086898Y030617D01*
X079681Y030459D02*
X079642Y030420D01*
X044126Y007075D02*
X043904Y007075D01*
X043992Y006977D02*
X044126Y006977D01*
X044126Y006878D02*
X044033Y006878D01*
X044044Y006780D02*
X044126Y006780D01*
X044126Y006681D02*
X044037Y006681D01*
X043996Y006583D02*
X044126Y006583D01*
X041626Y005105D02*
X039363Y005105D01*
X039363Y005007D02*
X041546Y005007D01*
X041505Y004908D02*
X039363Y004908D01*
X039363Y004810D02*
X041483Y004810D01*
X041483Y004711D02*
X039363Y004711D01*
X039363Y004613D02*
X041501Y004613D01*
X041541Y004514D02*
X039363Y004514D01*
X039363Y004416D02*
X041615Y004416D01*
X041733Y004317D02*
X039363Y004317D01*
X039363Y004219D02*
X041796Y004219D01*
X041641Y004120D02*
X039363Y004120D01*
X039363Y004022D02*
X041552Y004022D01*
X041511Y003923D02*
X039363Y003923D01*
X039363Y003825D02*
X041483Y003825D01*
X041483Y003726D02*
X039363Y003726D01*
X039363Y003628D02*
X041494Y003628D01*
X041535Y003529D02*
X039363Y003529D01*
X039363Y003431D02*
X041600Y003431D01*
X041699Y003332D02*
X039363Y003332D01*
X039363Y003234D02*
X041832Y003234D01*
X041883Y003255D02*
X042082Y003255D01*
X041883Y003255D01*
X042134Y003234D02*
X044191Y003234D01*
X045274Y002150D02*
X042295Y002150D01*
X042393Y002052D02*
X045373Y002052D01*
X045471Y001953D02*
X042442Y001953D01*
X042483Y001855D02*
X045570Y001855D01*
X045668Y001756D02*
X042483Y001756D01*
X042483Y001658D02*
X045767Y001658D01*
X045865Y001559D02*
X042443Y001559D01*
X042396Y001461D02*
X045964Y001461D01*
X046062Y001362D02*
X042297Y001362D01*
X042103Y001264D02*
X046161Y001264D01*
X041684Y002347D02*
X039422Y002347D01*
X039363Y002446D02*
X041585Y002446D01*
X041529Y002544D02*
X039363Y002544D01*
X039363Y002643D02*
X041488Y002643D01*
X041483Y002741D02*
X039363Y002741D01*
X039363Y002840D02*
X041483Y002840D01*
X041518Y002938D02*
X039363Y002938D01*
X039363Y003037D02*
X041558Y003037D01*
X041656Y003135D02*
X039363Y003135D01*
D33*
X060482Y015142D02*
X060709Y014915D01*
X060807Y014915D01*
D34*
X069503Y027542D02*
X068912Y028133D01*
X065211Y028133D01*
X063243Y030101D01*
X063243Y037188D01*
X063046Y037188D01*
X061570Y038664D01*
X043459Y038664D01*
X043164Y038369D01*
X043164Y036597D01*
X045133Y034629D01*
X065561Y035963D02*
X066589Y036991D01*
X070285Y037144D02*
X070285Y035263D01*
X071117Y037188D02*
X073041Y035263D01*
X073085Y035263D01*
X070329Y037188D02*
X070285Y037144D01*
D35*
X061834Y014197D03*
D36*
X048282Y012778D02*
X047101Y013960D01*
X047101Y021321D01*
D37*
X056824Y018960D02*
X056824Y018957D01*
X057021Y018760D01*
X065408Y022030D02*
X065408Y026243D01*
X062633Y026263D01*
X066392Y031676D02*
X070329Y027739D01*
X072298Y027739D02*
X072298Y029708D01*
X070329Y031676D01*
X077219Y025562D02*
X077495Y025837D01*
X077219Y025562D02*
X077219Y025101D01*
X076924Y025101D01*
X080959Y025837D02*
X080959Y023999D01*
X076629Y022030D02*
X065408Y022030D01*
X054089Y028231D02*
X053597Y028723D01*
D38*
X067377Y025141D02*
X068164Y025928D01*
X068833Y025928D01*
D39*
X086196Y025837D02*
X086353Y025995D01*
D40*
X067869Y036893D02*
X067573Y037188D01*
X066786Y037188D02*
X066589Y036991D01*
M02*
