%
M48
M72
T01C0.01500
T02C0.01969
T03C0.02756
T04C0.03150
T05C0.03200
T06C0.03937
T07C0.04000
T08C0.04700
T09C0.05000
T10C0.07874
T11C0.07900
T12C0.12500
%
T01
X508333Y138400
X508533Y147400
X581933Y188200
X599733Y163800
X605533Y150000
X616333Y138200
X613133Y128400
X667333Y127400
X714533Y159000
X714733Y167800
X695133Y183000
X683333Y168600
X662933Y163000
X643533Y188200
X705933Y209200
X721333Y209200
X736133Y215400
X756533Y215000
X762333Y202800
X774533Y188400
X788733Y185600
X789933Y176600
X785533Y171800
X786533Y164400
X782533Y158200
X788933Y154800
X796933Y164400
X801933Y171800
X819733Y171800
X819333Y164400
X829533Y153800
X837133Y164400
X809333Y184200
X799933Y195800
X798733Y205400
X790933Y209000
X788533Y226200
X760733Y239200
X799133Y243800
X837333Y237400
X838533Y260800
X816933Y293400
X793533Y288400
X737733Y308200
X756933Y332600
X733333Y358600
X739333Y361800
X773533Y365400
X804933Y348000
X844215Y350481
X762733Y399400
X756933Y396000
X734333Y391400
X704133Y343800
X671383Y343600
X670333Y339200
X673333Y312800
X682333Y312800
X672933Y303800
X704533Y311400
X704733Y296400
X621433Y337400
X607133Y347900
X590533Y341300
X581733Y345200
X580033Y340800
X583133Y350850
X714133Y224400
X743933Y194600
X768733Y171800
X774733Y164600
X738533Y163400
X766733Y133400
X680933Y90000
X663733Y90200
X645133Y82000
X636933Y82000
X832933Y35200
X920533Y47800
X920733Y55000
X950533Y200600
X882333Y266000
X863733Y290800
X854333Y423400
X942333Y479800
X917933Y491600
X934533Y497200
T02
X842333Y382600
X826133Y380800
X823333Y370000
X815133Y362800
X798933Y360000
X779933Y347400
X767733Y356400
X759333Y346800
X766733Y340000
X773733Y327400
X772133Y319600
X758933Y311400
X755533Y307400
X763333Y302200
X767133Y294600
X766533Y276000
X761133Y261800
X753733Y261600
X738533Y264200
X731133Y262200
X723533Y262200
X723333Y272400
X713133Y253600
X718333Y246400
X728933Y245000
X739933Y246800
X725533Y233200
X735133Y221800
X742533Y221400
X744933Y225800
X752533Y226200
X759333Y223200
X766933Y218800
X750533Y206600
X745733Y201600
X716533Y208800
X711133Y205400
X705933Y199000
X706533Y188000
X699733Y187600
X702333Y174600
X702133Y166800
X722333Y174200
X755533Y157200
X759333Y152800
X754733Y148000
X751133Y152200
X751133Y135400
X757933Y136600
X774933Y143600
X772933Y148400
X779333Y147000
X781133Y137000
X791533Y120600
X773333Y115000
X782333Y106200
X825333Y105200
X862733Y105800
X841533Y135800
X863933Y140600
X864133Y160800
X863533Y180800
X885333Y196200
X889133Y200800
X889133Y190600
X866533Y210800
X891133Y220600
X897133Y221200
X900133Y230400
X911533Y236800
X916133Y245200
X927933Y256000
X910933Y267200
X916333Y277200
X900133Y262600
X898133Y256000
X892733Y267000
X864733Y256400
X862933Y250200
X890133Y242800
X863133Y229000
X834933Y251200
X828533Y247000
X813733Y244000
X806933Y244400
X808333Y253200
X819333Y267200
X818933Y273800
X828733Y273800
X830733Y267200
X804133Y287200
X795333Y306600
X807933Y322200
X807533Y327600
X818733Y322800
X829733Y348000
X749933Y323200
X731933Y325200
X730933Y317400
X720933Y322200
X694733Y335000
X684733Y331000
X682333Y321400
X673533Y321400
X672933Y329400
X672333Y335000
X661533Y310000
X686533Y304000
X694933Y298800
X686133Y291600
X641933Y258400
X643133Y238400
X642133Y218000
X634333Y203600
X650333Y203400
X628133Y193400
X628133Y183200
X644133Y175600
X653133Y163400
X669133Y158000
X678333Y146200
X684133Y143800
X677933Y139000
X683733Y135600
X691733Y137400
X701933Y137400
X695733Y127400
X684533Y127200
X684933Y112800
X695733Y100600
X695533Y90000
X701733Y82600
X720933Y83400
X679733Y100000
X645733Y113200
X634333Y113400
X618733Y113600
X598133Y128400
X595333Y142200
X586533Y147400
X581933Y141200
X579133Y158000
X589133Y158200
X596933Y156600
X644733Y138800
X675533Y193000
X681133Y195400
X672133Y220000
X676133Y224600
X677933Y229000
X683133Y230200
X682933Y236200
X686933Y239200
X691333Y227600
X691133Y222000
X684933Y221800
X697333Y228800
X707533Y239400
X769533Y242600
X817933Y214800
X830733Y224600
X829933Y230200
X838733Y197000
X837933Y174600
X785733Y198400
X782333Y190000
X818533Y137600
X951533Y140600
X951533Y160800
X952133Y180600
X952133Y190200
X968933Y195400
X965733Y205800
X972133Y186000
X1008733Y201000
X1008333Y212600
X987533Y261600
X978133Y261200
X952133Y270800
X950933Y290600
X738133Y350200
X727733Y351400
X702333Y385000
X709133Y395200
X609333Y392200
X581133Y394000
X583933Y337500
X583533Y324400
X552733Y248600
X553733Y238600
X526933Y236800
X553933Y218400
X556933Y198400
X546533Y193400
X539933Y183000
X540133Y173400
X553133Y118400
X553733Y108600
X855733Y31200
T03
X702333Y127600
X716133Y134400
X727333Y135600
X735933Y135800
X744933Y135200
X685333Y416800
X585333Y440600
X550533Y459600
X575133Y491400
X809533Y423400
T04
X761755Y448085
X864276Y386356
X780691Y377953
X724426Y377156
X708830Y376978
X716811Y357474
X704320Y280028
X704320Y260815
X570022Y361760
X588266Y506978
X598266Y506978
X608266Y506978
X917910Y537149
X944149Y521674
X965047Y500438
X797407Y100544
X787407Y100544
X777407Y100544
X767407Y100544
X757407Y100544
X747407Y100544
X737407Y100544
X727407Y100544
X717407Y100544
X707407Y100544
X707407Y90544
X717407Y90544
X727407Y90544
X737407Y90544
X747407Y90544
X757407Y90544
X767407Y90544
X777407Y90544
X787407Y90544
X797407Y90544
X814355Y84587
X830407Y84685
X880557Y33665
X888431Y33665
X896305Y33665
X904179Y33665
X912053Y33665
T05
X492938Y300106
X511732Y293266
X593272Y289183
X607414Y275041
X528340Y412770
X508340Y412770
X986429Y106434
X1000571Y92292
X907214Y89519
X907214Y69519
T06
X492842Y329718
X492842Y337592
X492897Y357190
X492897Y365064
X492918Y383566
X492918Y391440
T07
X755530Y543714
X755530Y553714
X765933Y55800
X775933Y55800
X785933Y55800
X795933Y55800
X805933Y55800
X815933Y55800
X825933Y55800
X835933Y55800
X845933Y55800
X855933Y55800
X706051Y55800
X696051Y55800
X686051Y55800
X676051Y55800
X666051Y55800
X656051Y55800
X646051Y55800
X636051Y55800
X626051Y55800
X616051Y55800
T08
X989402Y412869
X989402Y432554
T09
X917325Y455144
X917325Y385144
X610243Y542012
X556620Y497017
T10
X983558Y377808
X983558Y359308
X983558Y340808
X1021058Y333308
X1021058Y385308
T11
X830717Y480441
X830717Y520441
X688382Y520278
X688382Y480278
T12
X758386Y573926
X983333Y468450
X908333Y316876
X608333Y316876
X532546Y468450
X562073Y60970
X953806Y60970
M30
