G75*
%MOIN*%
%OFA0B0*%
%FSLAX25Y25*%
%IPPOS*%
%LPD*%
%AMOC8*
5,1,8,0,0,1.08239X$1,22.5*
%
%ADD10C,0.05950*%
%ADD11R,0.27178X0.27178*%
%ADD12R,0.12611X0.07099*%
%ADD13R,0.06706X0.02572*%
%ADD14R,0.07493X0.07887*%
%ADD15C,0.07850*%
%ADD16R,0.05950X0.05950*%
%ADD17R,0.05524X0.03950*%
%ADD18R,0.07099X0.07887*%
%ADD19C,0.18900*%
%ADD20OC8,0.18900*%
%ADD21R,0.03950X0.05524*%
%ADD22R,0.07887X0.07099*%
%ADD23R,0.02965X0.05524*%
%ADD24R,0.06312X0.05524*%
%ADD25R,0.07887X0.07493*%
%ADD26R,0.04619X0.02020*%
%ADD27C,0.06737*%
%ADD28R,0.06737X0.06737*%
%ADD29R,0.05524X0.06312*%
%ADD30C,0.07800*%
%ADD31R,0.12611X0.05721*%
%ADD32R,0.17100X0.04700*%
%ADD33C,0.06800*%
%ADD34R,0.13800X0.13800*%
%ADD35R,0.12611X0.12611*%
%ADD36R,0.13398X0.07887*%
%ADD37R,0.07099X0.12611*%
%ADD38C,0.10800*%
%ADD39R,0.08674X0.03556*%
%ADD40R,0.25800X0.40800*%
%ADD41R,0.18800X0.06800*%
%ADD42R,0.12296X0.06784*%
%ADD43R,0.04300X0.05300*%
%ADD44C,0.05950*%
%ADD45R,0.01981X0.08674*%
%ADD46R,0.08674X0.01981*%
%ADD47R,0.09461X0.03162*%
%ADD48C,0.04369*%
%ADD49C,0.03900*%
%ADD50C,0.05156*%
%ADD51C,0.17300*%
D10*
X0570022Y0361760D03*
X0708830Y0376978D03*
X0724426Y0377156D03*
X0716811Y0357474D03*
X0780691Y0377953D03*
X0864276Y0386356D03*
X0761755Y0448085D03*
X0917910Y0537149D03*
X0944149Y0521674D03*
X0965047Y0500438D03*
X0704320Y0280028D03*
X0704320Y0260815D03*
X0707407Y0100544D03*
X0717407Y0100544D03*
X0727407Y0100544D03*
X0737407Y0100544D03*
X0747407Y0100544D03*
X0757407Y0100544D03*
X0767407Y0100544D03*
X0777407Y0100544D03*
X0787407Y0100544D03*
X0797407Y0100544D03*
X0797407Y0090544D03*
X0787407Y0090544D03*
X0777407Y0090544D03*
X0767407Y0090544D03*
X0757407Y0090544D03*
X0747407Y0090544D03*
X0737407Y0090544D03*
X0727407Y0090544D03*
X0717407Y0090544D03*
X0707407Y0090544D03*
X0814355Y0084587D03*
X0830407Y0084685D03*
X0880557Y0033665D03*
X0888431Y0033665D03*
X0896305Y0033665D03*
X0904179Y0033665D03*
D11*
X0801694Y0139064D03*
X0780993Y0413397D03*
D12*
X0824332Y0148119D03*
X0824332Y0130009D03*
D13*
X0757267Y0315479D03*
X0757267Y0318038D03*
X0757267Y0320597D03*
X0757267Y0323156D03*
X0738369Y0323156D03*
X0738369Y0320597D03*
X0738369Y0318038D03*
X0738369Y0315479D03*
D14*
X0828214Y0402379D03*
X0840428Y0402399D03*
X0840428Y0418541D03*
X0828214Y0418521D03*
X0918000Y0497690D03*
X0918000Y0513832D03*
D15*
X0985877Y0432554D02*
X0992927Y0432554D01*
X0992927Y0412869D02*
X0985877Y0412869D01*
D16*
X0912053Y0033665D03*
D17*
X0911982Y0044260D03*
X0911982Y0051347D03*
X0896533Y0051743D03*
X0896533Y0044657D03*
X0888594Y0044888D03*
X0888594Y0051974D03*
X0805673Y0113316D03*
X0797362Y0113269D03*
X0797362Y0120356D03*
X0805673Y0120403D03*
X0766764Y0121163D03*
X0761043Y0121106D03*
X0754941Y0121034D03*
X0754941Y0128121D03*
X0761043Y0128192D03*
X0766764Y0128250D03*
X0746705Y0128342D03*
X0746705Y0121255D03*
X0737798Y0121310D03*
X0737798Y0128396D03*
X0728791Y0128549D03*
X0728791Y0121463D03*
X0718838Y0121502D03*
X0718838Y0128589D03*
X0708690Y0128745D03*
X0708690Y0121658D03*
X0700560Y0199211D03*
X0694149Y0199153D03*
X0687529Y0200897D03*
X0680833Y0200897D03*
X0674361Y0200897D03*
X0674361Y0207984D03*
X0680833Y0207984D03*
X0687529Y0207984D03*
X0694149Y0206240D03*
X0700560Y0206298D03*
X0723309Y0250131D03*
X0723309Y0257217D03*
X0731177Y0257114D03*
X0731177Y0250027D03*
X0738595Y0252041D03*
X0738595Y0259128D03*
X0745539Y0257138D03*
X0745539Y0250051D03*
X0753730Y0249912D03*
X0753730Y0256999D03*
X0761723Y0257164D03*
X0761723Y0250078D03*
X0798647Y0347789D03*
X0798647Y0354876D03*
X0763184Y0373313D03*
X0763184Y0380400D03*
X0733852Y0379761D03*
X0733852Y0372674D03*
X0854281Y0411430D03*
X0854281Y0418516D03*
X0862440Y0418645D03*
X0862440Y0411558D03*
X0928116Y0502287D03*
X0934540Y0502361D03*
X0934540Y0509447D03*
X0928116Y0509373D03*
X0770757Y0549461D03*
X0770757Y0556548D03*
X0551693Y0481541D03*
X0551693Y0474455D03*
X0519765Y0446312D03*
X0519765Y0439226D03*
X0512565Y0439226D03*
X0512565Y0446312D03*
X0504309Y0446312D03*
X0504309Y0439226D03*
X0540246Y0404837D03*
X0540246Y0397750D03*
X0547901Y0397868D03*
X0547901Y0404955D03*
X0550179Y0353676D03*
X0540425Y0353563D03*
X0540425Y0346476D03*
X0550179Y0346589D03*
D18*
X0701962Y0401634D03*
X0701925Y0411509D03*
X0712949Y0411509D03*
X0712986Y0401634D03*
X0712911Y0421181D03*
X0701887Y0421181D03*
X0819048Y0116509D03*
X0830072Y0116509D03*
D19*
X0688382Y0480278D03*
X0830717Y0520441D03*
D20*
X0830717Y0480441D03*
X0688382Y0520278D03*
D21*
X0613903Y0466837D03*
X0606816Y0466837D03*
X0554161Y0420818D03*
X0547075Y0420818D03*
X0730606Y0403736D03*
X0737693Y0403736D03*
X0753477Y0404945D03*
X0753477Y0410614D03*
X0753440Y0416473D03*
X0753388Y0422232D03*
X0753372Y0427965D03*
X0760458Y0427965D03*
X0760475Y0422232D03*
X0760527Y0416473D03*
X0760563Y0410614D03*
X0760563Y0404945D03*
X0830816Y0395405D03*
X0837903Y0395405D03*
X0750315Y0350152D03*
X0743228Y0350152D03*
X0743913Y0330774D03*
X0751000Y0330774D03*
X0751026Y0307337D03*
X0743939Y0307337D03*
X0770907Y0288507D03*
X0770907Y0282484D03*
X0777994Y0282484D03*
X0777994Y0288507D03*
X0799966Y0300864D03*
X0799931Y0306743D03*
X0799919Y0312881D03*
X0807006Y0312881D03*
X0807018Y0306743D03*
X0807052Y0300864D03*
X0808012Y0271568D03*
X0808442Y0265104D03*
X0801355Y0265104D03*
X0800926Y0271568D03*
X0805549Y0236679D03*
X0812636Y0236679D03*
X0812780Y0228669D03*
X0805694Y0228669D03*
X0805593Y0210704D03*
X0805634Y0203784D03*
X0812721Y0203784D03*
X0812680Y0210704D03*
X0719991Y0239557D03*
X0712905Y0239557D03*
X0830590Y0105200D03*
X0837677Y0105200D03*
X0675677Y0090000D03*
X0668590Y0090000D03*
X0947531Y0479789D03*
X0954618Y0479789D03*
D22*
X0796644Y0338481D03*
X0786437Y0338645D03*
X0786437Y0327622D03*
X0796644Y0327457D03*
X0723410Y0289775D03*
X0723410Y0278752D03*
X0711961Y0320350D03*
X0701951Y0320455D03*
X0701951Y0331478D03*
X0711961Y0331374D03*
D23*
X0724056Y0335072D03*
X0731537Y0335072D03*
X0731537Y0345309D03*
X0727796Y0345309D03*
X0724056Y0345309D03*
X0764032Y0345463D03*
X0767773Y0345463D03*
X0771513Y0345463D03*
X0771513Y0335226D03*
X0764032Y0335226D03*
X0830630Y0377124D03*
X0834370Y0377124D03*
X0838110Y0377124D03*
X0838110Y0387361D03*
X0830630Y0387361D03*
X0807829Y0291855D03*
X0800349Y0291855D03*
X0800349Y0281618D03*
X0804089Y0281618D03*
X0807829Y0281618D03*
D24*
X0754388Y0370904D03*
X0742800Y0370708D03*
X0742800Y0382519D03*
X0754388Y0382715D03*
X0550924Y0377602D03*
X0538108Y0377545D03*
X0538108Y0389356D03*
X0550924Y0389413D03*
X0551139Y0338472D03*
X0539070Y0338305D03*
X0539070Y0326494D03*
X0551139Y0326661D03*
D25*
X0610288Y0435038D03*
X0626430Y0435038D03*
D26*
X0725642Y0398022D03*
X0725642Y0396053D03*
X0725642Y0394085D03*
X0725642Y0392116D03*
X0725642Y0390148D03*
X0742453Y0390148D03*
X0742453Y0392116D03*
X0742453Y0394085D03*
X0742453Y0396053D03*
X0742453Y0398022D03*
D27*
X0492918Y0383566D03*
X0492897Y0357190D03*
X0492842Y0329718D03*
D28*
X0492842Y0337592D03*
X0492897Y0365064D03*
X0492918Y0391440D03*
D29*
X0741628Y0341160D03*
X0753440Y0341160D03*
X0945298Y0470129D03*
X0957109Y0470129D03*
D30*
X0494135Y0303395D02*
X0491741Y0296817D01*
X0510535Y0289977D02*
X0512929Y0296555D01*
X0590797Y0286708D02*
X0595747Y0291658D01*
X0609889Y0277516D02*
X0604939Y0272566D01*
X0528340Y0409270D02*
X0528340Y0416270D01*
X0508340Y0416270D02*
X0508340Y0409270D01*
X0983954Y0103959D02*
X0988904Y0108909D01*
X1003046Y0094767D02*
X0998096Y0089817D01*
X0910714Y0089519D02*
X0903714Y0089519D01*
X0903714Y0069519D02*
X0910714Y0069519D01*
D31*
X0996142Y0196858D03*
X0996142Y0206858D03*
X0996142Y0216858D03*
X0996142Y0226858D03*
X0997729Y0274008D03*
X0997729Y0284008D03*
X0997729Y0294008D03*
X0997729Y0304008D03*
X0520565Y0230847D03*
X0520565Y0220847D03*
X0520565Y0210847D03*
X0520565Y0200847D03*
X0520768Y0180693D03*
X0520768Y0170693D03*
X0520768Y0160693D03*
X0520768Y0150693D03*
D32*
X0539882Y0148441D03*
X0539882Y0158441D03*
X0539882Y0168441D03*
X0539882Y0178441D03*
X0539882Y0188441D03*
X0539882Y0198441D03*
X0539882Y0208441D03*
X0539882Y0218441D03*
X0539882Y0228441D03*
X0539882Y0238441D03*
X0539882Y0248441D03*
X0539882Y0258441D03*
X0539882Y0268441D03*
X0539882Y0278441D03*
X0539882Y0288441D03*
X0567982Y0288441D03*
X0567982Y0278441D03*
X0567982Y0268441D03*
X0567982Y0258441D03*
X0567982Y0248441D03*
X0567982Y0238441D03*
X0567982Y0228441D03*
X0567982Y0218441D03*
X0567982Y0208441D03*
X0567982Y0198441D03*
X0567982Y0188441D03*
X0567982Y0178441D03*
X0567982Y0168441D03*
X0567982Y0158441D03*
X0567982Y0148441D03*
X0567982Y0138441D03*
X0567982Y0128441D03*
X0567982Y0118441D03*
X0567982Y0108441D03*
X0567982Y0098441D03*
X0539882Y0098441D03*
X0539882Y0108441D03*
X0539882Y0118441D03*
X0539882Y0128441D03*
X0539882Y0138441D03*
X0628304Y0138365D03*
X0628304Y0128365D03*
X0628304Y0118365D03*
X0628304Y0108365D03*
X0628304Y0098365D03*
X0656404Y0098365D03*
X0656404Y0108365D03*
X0656404Y0118365D03*
X0656404Y0128365D03*
X0656404Y0138365D03*
X0656404Y0148365D03*
X0656404Y0158365D03*
X0656404Y0168365D03*
X0656404Y0178365D03*
X0656404Y0188365D03*
X0656404Y0198365D03*
X0656404Y0208365D03*
X0656404Y0218365D03*
X0656404Y0228365D03*
X0656404Y0238365D03*
X0656404Y0248365D03*
X0656404Y0258365D03*
X0656404Y0268365D03*
X0656404Y0278365D03*
X0656404Y0288365D03*
X0628304Y0288365D03*
X0628304Y0278365D03*
X0628304Y0268365D03*
X0628304Y0258365D03*
X0628304Y0248365D03*
X0628304Y0238365D03*
X0628304Y0228365D03*
X0628304Y0218365D03*
X0628304Y0208365D03*
X0628304Y0198365D03*
X0628304Y0188365D03*
X0628304Y0178365D03*
X0628304Y0168365D03*
X0628304Y0158365D03*
X0628304Y0148365D03*
X0849953Y0150771D03*
X0849953Y0140771D03*
X0849953Y0130771D03*
X0849953Y0120771D03*
X0849953Y0110771D03*
X0849953Y0100771D03*
X0878053Y0100771D03*
X0878053Y0110771D03*
X0878053Y0120771D03*
X0878053Y0130771D03*
X0878053Y0140771D03*
X0878053Y0150771D03*
X0878053Y0160771D03*
X0878053Y0170771D03*
X0878053Y0180771D03*
X0878053Y0190771D03*
X0878053Y0200771D03*
X0878053Y0210771D03*
X0878053Y0220771D03*
X0878053Y0230771D03*
X0878053Y0240771D03*
X0878053Y0250771D03*
X0878053Y0260771D03*
X0878053Y0270771D03*
X0878053Y0280771D03*
X0878053Y0290771D03*
X0849953Y0290771D03*
X0849953Y0280771D03*
X0849953Y0270771D03*
X0849953Y0260771D03*
X0849953Y0250771D03*
X0849953Y0240771D03*
X0849953Y0230771D03*
X0849953Y0220771D03*
X0849953Y0210771D03*
X0849953Y0200771D03*
X0849953Y0190771D03*
X0849953Y0180771D03*
X0849953Y0170771D03*
X0849953Y0160771D03*
X0937647Y0160635D03*
X0937647Y0170635D03*
X0937647Y0180635D03*
X0937647Y0190635D03*
X0937647Y0200635D03*
X0937647Y0210635D03*
X0937647Y0220635D03*
X0937647Y0230635D03*
X0937647Y0240635D03*
X0937647Y0250635D03*
X0937647Y0260635D03*
X0937647Y0270635D03*
X0937647Y0280635D03*
X0937647Y0290635D03*
X0965747Y0290635D03*
X0965747Y0280635D03*
X0965747Y0270635D03*
X0965747Y0260635D03*
X0965747Y0250635D03*
X0965747Y0240635D03*
X0965747Y0230635D03*
X0965747Y0220635D03*
X0965747Y0210635D03*
X0965747Y0200635D03*
X0965747Y0190635D03*
X0965747Y0180635D03*
X0965747Y0170635D03*
X0965747Y0160635D03*
X0965747Y0150635D03*
X0965747Y0140635D03*
X0965747Y0130635D03*
X0965747Y0120635D03*
X0965747Y0110635D03*
X0965747Y0100635D03*
X0937647Y0100635D03*
X0937647Y0110635D03*
X0937647Y0120635D03*
X0937647Y0130635D03*
X0937647Y0140635D03*
X0937647Y0150635D03*
D33*
X0855933Y0058800D02*
X0855933Y0052800D01*
X0845933Y0052800D02*
X0845933Y0058800D01*
X0835933Y0058800D02*
X0835933Y0052800D01*
X0825933Y0052800D02*
X0825933Y0058800D01*
X0815933Y0058800D02*
X0815933Y0052800D01*
X0805933Y0052800D02*
X0805933Y0058800D01*
X0795933Y0058800D02*
X0795933Y0052800D01*
X0785933Y0052800D02*
X0785933Y0058800D01*
X0775933Y0058800D02*
X0775933Y0052800D01*
X0765933Y0052800D02*
X0765933Y0058800D01*
X0706051Y0058800D02*
X0706051Y0052800D01*
X0696051Y0052800D02*
X0696051Y0058800D01*
X0686051Y0058800D02*
X0686051Y0052800D01*
X0676051Y0052800D02*
X0676051Y0058800D01*
X0666051Y0058800D02*
X0666051Y0052800D01*
X0656051Y0052800D02*
X0656051Y0058800D01*
X0646051Y0058800D02*
X0646051Y0052800D01*
X0636051Y0052800D02*
X0636051Y0058800D01*
X0626051Y0058800D02*
X0626051Y0052800D01*
X0616051Y0052800D02*
X0616051Y0058800D01*
X0752530Y0543714D02*
X0758530Y0543714D01*
X0758530Y0553714D02*
X0752530Y0553714D01*
D34*
X0983558Y0377808D03*
X0983558Y0359308D03*
X0983558Y0340808D03*
D35*
X1021058Y0333308D03*
X1021058Y0385308D03*
D36*
X0809296Y0393967D03*
X0809296Y0416014D03*
D37*
X0790048Y0390759D03*
X0771938Y0390759D03*
D38*
X0917325Y0385144D03*
X0917325Y0455144D03*
X0610243Y0542012D03*
X0556620Y0497017D03*
D39*
X0813438Y0195643D03*
X0813438Y0188163D03*
X0800053Y0191903D03*
D40*
X0570680Y0467190D03*
D41*
X0609680Y0477190D03*
X0609680Y0457190D03*
D42*
X0596016Y0410461D03*
X0596016Y0395698D03*
X0596016Y0380934D03*
X0596016Y0366170D03*
X0596016Y0351406D03*
X0685268Y0351406D03*
X0685268Y0366170D03*
X0685268Y0380934D03*
X0685268Y0395698D03*
X0685268Y0410461D03*
D43*
X0550876Y0428429D03*
X0540876Y0428429D03*
X0540876Y0452929D03*
X0550876Y0453029D03*
D44*
X0588266Y0504403D02*
X0588266Y0509553D01*
X0598266Y0509553D02*
X0598266Y0504403D01*
X0608266Y0504403D02*
X0608266Y0509553D01*
D45*
X0737096Y0232719D03*
X0739065Y0232719D03*
X0741033Y0232719D03*
X0743002Y0232719D03*
X0744970Y0232719D03*
X0746939Y0232719D03*
X0748907Y0232719D03*
X0750876Y0232719D03*
X0752844Y0232719D03*
X0754813Y0232719D03*
X0756781Y0232719D03*
X0758750Y0232719D03*
X0760718Y0232719D03*
X0762687Y0232719D03*
X0764655Y0232719D03*
X0766624Y0232719D03*
X0766624Y0185475D03*
X0764655Y0185475D03*
X0762687Y0185475D03*
X0760718Y0185475D03*
X0758750Y0185475D03*
X0756781Y0185475D03*
X0754813Y0185475D03*
X0752844Y0185475D03*
X0750876Y0185475D03*
X0748907Y0185475D03*
X0746939Y0185475D03*
X0744970Y0185475D03*
X0743002Y0185475D03*
X0741033Y0185475D03*
X0739065Y0185475D03*
X0737096Y0185475D03*
D46*
X0728238Y0194333D03*
X0728238Y0196301D03*
X0728238Y0198270D03*
X0728238Y0200238D03*
X0728238Y0202207D03*
X0728238Y0204175D03*
X0728238Y0206144D03*
X0728238Y0208112D03*
X0728238Y0210081D03*
X0728238Y0212049D03*
X0728238Y0214018D03*
X0728238Y0215986D03*
X0728238Y0217955D03*
X0728238Y0219923D03*
X0728238Y0221892D03*
X0728238Y0223860D03*
X0775482Y0223860D03*
X0775482Y0221892D03*
X0775482Y0219923D03*
X0775482Y0217955D03*
X0775482Y0215986D03*
X0775482Y0214018D03*
X0775482Y0212049D03*
X0775482Y0210081D03*
X0775482Y0208112D03*
X0775482Y0206144D03*
X0775482Y0204175D03*
X0775482Y0202207D03*
X0775482Y0200238D03*
X0775482Y0198270D03*
X0775482Y0196301D03*
X0775482Y0194333D03*
D47*
X0758955Y0277361D03*
X0758955Y0282361D03*
X0758955Y0287361D03*
X0758955Y0292361D03*
X0738482Y0292361D03*
X0738482Y0287361D03*
X0738482Y0282361D03*
X0738482Y0277361D03*
D48*
X0738533Y0264200D03*
X0731133Y0262200D03*
X0723533Y0262200D03*
X0723333Y0272400D03*
X0713133Y0253600D03*
X0718333Y0246400D03*
X0728933Y0245000D03*
X0739933Y0246800D03*
X0753733Y0261600D03*
X0761133Y0261800D03*
X0766533Y0276000D03*
X0767133Y0294600D03*
X0763333Y0302200D03*
X0755533Y0307400D03*
X0758933Y0311400D03*
X0772133Y0319600D03*
X0773733Y0327400D03*
X0766733Y0340000D03*
X0759333Y0346800D03*
X0767733Y0356400D03*
X0779933Y0347400D03*
X0798933Y0360000D03*
X0815133Y0362800D03*
X0823333Y0370000D03*
X0826133Y0380800D03*
X0842333Y0382600D03*
X0829733Y0348000D03*
X0807533Y0327600D03*
X0807933Y0322200D03*
X0818733Y0322800D03*
X0795333Y0306600D03*
X0804133Y0287200D03*
X0818933Y0273800D03*
X0819333Y0267200D03*
X0830733Y0267200D03*
X0828733Y0273800D03*
X0834933Y0251200D03*
X0828533Y0247000D03*
X0813733Y0244000D03*
X0806933Y0244400D03*
X0808333Y0253200D03*
X0829933Y0230200D03*
X0830733Y0224600D03*
X0817933Y0214800D03*
X0838733Y0197000D03*
X0837933Y0174600D03*
X0863533Y0180800D03*
X0885333Y0196200D03*
X0889133Y0200800D03*
X0889133Y0190600D03*
X0866533Y0210800D03*
X0891133Y0220600D03*
X0897133Y0221200D03*
X0900133Y0230400D03*
X0911533Y0236800D03*
X0916133Y0245200D03*
X0927933Y0256000D03*
X0910933Y0267200D03*
X0916333Y0277200D03*
X0900133Y0262600D03*
X0898133Y0256000D03*
X0892733Y0267000D03*
X0864733Y0256400D03*
X0862933Y0250200D03*
X0890133Y0242800D03*
X0863133Y0229000D03*
X0785733Y0198400D03*
X0782333Y0190000D03*
X0750533Y0206600D03*
X0745733Y0201600D03*
X0766933Y0218800D03*
X0759333Y0223200D03*
X0752533Y0226200D03*
X0744933Y0225800D03*
X0742533Y0221400D03*
X0735133Y0221800D03*
X0725533Y0233200D03*
X0707533Y0239400D03*
X0697333Y0228800D03*
X0691333Y0227600D03*
X0691133Y0222000D03*
X0684933Y0221800D03*
X0683133Y0230200D03*
X0677933Y0229000D03*
X0676133Y0224600D03*
X0672133Y0220000D03*
X0650333Y0203400D03*
X0634333Y0203600D03*
X0628133Y0193400D03*
X0628133Y0183200D03*
X0644133Y0175600D03*
X0653133Y0163400D03*
X0669133Y0158000D03*
X0678333Y0146200D03*
X0684133Y0143800D03*
X0677933Y0139000D03*
X0683733Y0135600D03*
X0691733Y0137400D03*
X0701933Y0137400D03*
X0695733Y0127400D03*
X0684533Y0127200D03*
X0684933Y0112800D03*
X0695733Y0100600D03*
X0695533Y0090000D03*
X0701733Y0082600D03*
X0720933Y0083400D03*
X0679733Y0100000D03*
X0645733Y0113200D03*
X0634333Y0113400D03*
X0618733Y0113600D03*
X0598133Y0128400D03*
X0595333Y0142200D03*
X0586533Y0147400D03*
X0581933Y0141200D03*
X0579133Y0158000D03*
X0589133Y0158200D03*
X0596933Y0156600D03*
X0644733Y0138800D03*
X0702133Y0166800D03*
X0702333Y0174600D03*
X0699733Y0187600D03*
X0706533Y0188000D03*
X0705933Y0199000D03*
X0711133Y0205400D03*
X0716533Y0208800D03*
X0681133Y0195400D03*
X0675533Y0193000D03*
X0642133Y0218000D03*
X0643133Y0238400D03*
X0641933Y0258400D03*
X0682933Y0236200D03*
X0686933Y0239200D03*
X0686133Y0291600D03*
X0694933Y0298800D03*
X0686533Y0304000D03*
X0682333Y0321400D03*
X0673533Y0321400D03*
X0672933Y0329400D03*
X0672333Y0335000D03*
X0684733Y0331000D03*
X0694733Y0335000D03*
X0720933Y0322200D03*
X0730933Y0317400D03*
X0731933Y0325200D03*
X0749933Y0323200D03*
X0738133Y0350200D03*
X0727733Y0351400D03*
X0702333Y0385000D03*
X0709133Y0395200D03*
X0609333Y0392200D03*
X0581133Y0394000D03*
X0583933Y0337500D03*
X0583533Y0324400D03*
X0661533Y0310000D03*
X0552733Y0248600D03*
X0553733Y0238600D03*
X0526933Y0236800D03*
X0553933Y0218400D03*
X0556933Y0198400D03*
X0546533Y0193400D03*
X0539933Y0183000D03*
X0540133Y0173400D03*
X0553133Y0118400D03*
X0553733Y0108600D03*
X0722333Y0174200D03*
X0755533Y0157200D03*
X0759333Y0152800D03*
X0754733Y0148000D03*
X0751133Y0152200D03*
X0751133Y0135400D03*
X0757933Y0136600D03*
X0774933Y0143600D03*
X0772933Y0148400D03*
X0779333Y0147000D03*
X0781133Y0137000D03*
X0791533Y0120600D03*
X0773333Y0115000D03*
X0782333Y0106200D03*
X0825333Y0105200D03*
X0862733Y0105800D03*
X0841533Y0135800D03*
X0863933Y0140600D03*
X0864133Y0160800D03*
X0818533Y0137600D03*
X0951533Y0140600D03*
X0951533Y0160800D03*
X0952133Y0180600D03*
X0952133Y0190200D03*
X0968933Y0195400D03*
X0965733Y0205800D03*
X0972133Y0186000D03*
X1008733Y0201000D03*
X1008333Y0212600D03*
X0987533Y0261600D03*
X0978133Y0261200D03*
X0952133Y0270800D03*
X0950933Y0290600D03*
X0769533Y0242600D03*
X0855733Y0031200D03*
D49*
X0832933Y0035200D03*
X0920533Y0047800D03*
X0920733Y0055000D03*
X0829533Y0153800D03*
X0837133Y0164400D03*
X0819333Y0164400D03*
X0819733Y0171800D03*
X0801933Y0171800D03*
X0796933Y0164400D03*
X0786533Y0164400D03*
X0782533Y0158200D03*
X0788933Y0154800D03*
X0774733Y0164600D03*
X0768733Y0171800D03*
X0785533Y0171800D03*
X0789933Y0176600D03*
X0788733Y0185600D03*
X0809333Y0184200D03*
X0799933Y0195800D03*
X0798733Y0205400D03*
X0790933Y0209000D03*
X0788533Y0226200D03*
X0760733Y0239200D03*
X0756533Y0215000D03*
X0762333Y0202800D03*
X0774533Y0188400D03*
X0743933Y0194600D03*
X0721333Y0209200D03*
X0705933Y0209200D03*
X0714133Y0224400D03*
X0736133Y0215400D03*
X0695133Y0183000D03*
X0683333Y0168600D03*
X0662933Y0163000D03*
X0643533Y0188200D03*
X0599733Y0163800D03*
X0605533Y0150000D03*
X0616333Y0138200D03*
X0613133Y0128400D03*
X0667333Y0127400D03*
X0714533Y0159000D03*
X0714733Y0167800D03*
X0738533Y0163400D03*
X0766733Y0133400D03*
X0680933Y0090000D03*
X0663733Y0090200D03*
X0645133Y0082000D03*
X0636933Y0082000D03*
X0508333Y0138400D03*
X0508533Y0147400D03*
X0581933Y0188200D03*
X0704733Y0296400D03*
X0704533Y0311400D03*
X0682333Y0312800D03*
X0673333Y0312800D03*
X0672933Y0303800D03*
X0670333Y0339200D03*
X0671383Y0343600D03*
X0704133Y0343800D03*
X0733333Y0358600D03*
X0739333Y0361800D03*
X0773533Y0365400D03*
X0804933Y0348000D03*
X0844215Y0350481D03*
X0762733Y0399400D03*
X0756933Y0396000D03*
X0734333Y0391400D03*
X0756933Y0332600D03*
X0737733Y0308200D03*
X0793533Y0288400D03*
X0816933Y0293400D03*
X0838533Y0260800D03*
X0837333Y0237400D03*
X0799133Y0243800D03*
X0863733Y0290800D03*
X0882333Y0266000D03*
X0950533Y0200600D03*
X0621433Y0337400D03*
X0607133Y0347900D03*
X0590533Y0341300D03*
X0581733Y0345200D03*
X0580033Y0340800D03*
X0583133Y0350850D03*
X0854333Y0423400D03*
X0942333Y0479800D03*
X0917933Y0491600D03*
X0934533Y0497200D03*
D50*
X0809533Y0423400D03*
X0685333Y0416800D03*
X0585333Y0440600D03*
X0550533Y0459600D03*
X0575133Y0491400D03*
X0716133Y0134400D03*
X0727333Y0135600D03*
X0735933Y0135800D03*
X0744933Y0135200D03*
X0702333Y0127600D03*
D51*
X0562073Y0060970D03*
X0953806Y0060970D03*
X0908333Y0316876D03*
X0983333Y0468450D03*
X0758386Y0573926D03*
X0532546Y0468450D03*
X0608333Y0316876D03*
M02*
