G75*
G70*
%OFA0B0*%
%FSLAX24Y24*%
%IPPOS*%
%LPD*%
%AMOC8*
5,1,8,0,0,1.08239X$1,22.5*
%
%ADD10C,0.0820*%
%ADD11R,0.0552X0.0395*%
%ADD12R,0.0395X0.0178*%
%ADD13R,0.1340X0.2678*%
%ADD14R,0.0395X0.0552*%
%ADD15R,0.0660X0.0280*%
%ADD16R,0.0280X0.0660*%
%ADD17R,0.0631X0.0552*%
%ADD18R,0.0710X0.1458*%
%ADD19OC8,0.0820*%
%ADD20R,0.0297X0.0552*%
%ADD21R,0.0820X0.0820*%
%ADD22R,0.0867X0.0320*%
%ADD23R,0.0867X0.0316*%
%ADD24R,0.1497X0.1135*%
%ADD25C,0.0595*%
%ADD26R,0.0434X0.0395*%
%ADD27R,0.0690X0.0592*%
%ADD28R,0.0710X0.0789*%
%ADD29C,0.0390*%
%ADD30C,0.0440*%
%ADD31C,0.0476*%
D10*
X043901Y012928D03*
X044001Y013928D03*
X043901Y014928D03*
X043901Y017259D03*
X044001Y018259D03*
X043901Y019259D03*
X048282Y001411D03*
X049282Y001311D03*
X050282Y001411D03*
X051282Y001311D03*
X052282Y001411D03*
X053282Y001311D03*
X054282Y001411D03*
X055282Y001311D03*
X056282Y001411D03*
X057282Y001311D03*
X075448Y001411D03*
X076448Y001311D03*
X077448Y001411D03*
X078448Y001311D03*
X079448Y001411D03*
X080448Y001311D03*
X081448Y001411D03*
X082448Y001311D03*
X083448Y001411D03*
X084448Y001311D03*
X090064Y013778D03*
X089964Y014778D03*
X090064Y015778D03*
X090064Y018109D03*
X089964Y019109D03*
X090064Y020109D03*
X084448Y038319D03*
X083448Y038419D03*
X082448Y038319D03*
X081448Y038419D03*
X080448Y038319D03*
X079448Y038419D03*
X078448Y038319D03*
X077448Y038419D03*
X076448Y038319D03*
X075448Y038419D03*
X057282Y038319D03*
X056282Y038419D03*
X055282Y038319D03*
X054282Y038419D03*
X053282Y038319D03*
X052282Y038419D03*
X051282Y038319D03*
X050282Y038419D03*
X049282Y038319D03*
X048282Y038419D03*
D11*
X052219Y035967D03*
X053400Y035967D03*
X053400Y035259D03*
X052219Y035259D03*
X055762Y035259D03*
X056944Y035259D03*
X056944Y035967D03*
X055762Y035967D03*
X062849Y035652D03*
X062849Y036361D03*
X065211Y036361D03*
X065211Y035652D03*
X067573Y035652D03*
X067573Y036361D03*
X069936Y036361D03*
X069936Y035652D03*
X073823Y033654D03*
X074611Y033586D03*
X074611Y033015D03*
X073823Y032946D03*
X074611Y032306D03*
X077072Y032749D03*
X077908Y032749D03*
X077908Y033458D03*
X077072Y033458D03*
X074611Y034294D03*
X075054Y036440D03*
X076235Y036440D03*
X076235Y037149D03*
X075054Y037149D03*
X077416Y037227D03*
X077416Y036519D03*
X080172Y033310D03*
X080172Y032601D03*
X077416Y031440D03*
X077416Y030731D03*
X073725Y030584D03*
X072741Y030584D03*
X071757Y030584D03*
X071757Y031292D03*
X072741Y031292D03*
X073725Y031292D03*
X073233Y027011D03*
X073233Y026302D03*
X074217Y026223D03*
X074217Y025515D03*
X075152Y025337D03*
X075152Y024629D03*
X063489Y022877D03*
X063489Y022168D03*
X061028Y022513D03*
X060142Y022513D03*
X059207Y022513D03*
X059207Y023221D03*
X060142Y023221D03*
X061028Y023221D03*
X058125Y021253D03*
X058125Y020544D03*
X058125Y019973D03*
X058912Y019904D03*
X058912Y020613D03*
X058125Y019265D03*
X055615Y020052D03*
X054778Y020052D03*
X054778Y020761D03*
X055615Y020761D03*
X052514Y020859D03*
X052514Y020150D03*
X055270Y022365D03*
X055270Y023074D03*
X059601Y026893D03*
X059601Y027601D03*
X058617Y027680D03*
X058617Y028389D03*
X057633Y028566D03*
X057633Y029274D03*
X072987Y015692D03*
X072987Y014983D03*
X072987Y014314D03*
X072298Y014294D03*
X072987Y013605D03*
X075349Y014294D03*
X076235Y014294D03*
X076235Y015003D03*
X075349Y015003D03*
X072298Y015003D03*
X071904Y012641D03*
X071904Y011932D03*
X070920Y011932D03*
X070920Y012641D03*
X069936Y012641D03*
X069936Y011932D03*
X075841Y011932D03*
X075841Y012641D03*
X078548Y014147D03*
X078548Y014855D03*
X071314Y008113D03*
X071314Y007404D03*
X072495Y007326D03*
X072495Y006617D03*
X073676Y006145D03*
X073676Y005436D03*
X067131Y003930D03*
X067131Y003221D03*
X062160Y006893D03*
X061274Y006893D03*
X060388Y006893D03*
X060388Y007601D03*
X061274Y007601D03*
X062160Y007601D03*
X057239Y005318D03*
X056314Y005475D03*
X055605Y005456D03*
X055605Y004747D03*
X056314Y004767D03*
X057239Y004609D03*
X053243Y004885D03*
X052495Y004885D03*
X052495Y004176D03*
X053243Y004176D03*
X050349Y003861D03*
X050349Y004570D03*
X056353Y006499D03*
X056353Y007208D03*
X060881Y011223D03*
X060881Y011932D03*
X059995Y012109D03*
X059995Y012818D03*
X059010Y012995D03*
X059010Y013704D03*
D12*
X059373Y011104D03*
X059373Y010844D03*
X059373Y010584D03*
X059373Y010324D03*
X059373Y010064D03*
X059373Y009804D03*
X059373Y009544D03*
X059375Y009284D03*
X059373Y009024D03*
X059373Y008764D03*
X059373Y008504D03*
X059373Y008244D03*
X059373Y007984D03*
X059373Y007724D03*
X057073Y007724D03*
X057073Y007984D03*
X057073Y008244D03*
X057073Y008504D03*
X057073Y008764D03*
X057073Y009024D03*
X057071Y009284D03*
X057073Y009544D03*
X057073Y009804D03*
X057073Y010064D03*
X057073Y010324D03*
X057073Y010584D03*
X057073Y010844D03*
X057073Y011104D03*
X072920Y011092D03*
X072920Y010832D03*
X072920Y010572D03*
X072920Y010312D03*
X072917Y010052D03*
X072920Y009792D03*
X072920Y009532D03*
X072920Y009272D03*
X072920Y009012D03*
X072920Y008752D03*
X072920Y008492D03*
X072920Y008232D03*
X075220Y008232D03*
X075220Y008492D03*
X075220Y008752D03*
X075220Y009012D03*
X075220Y009272D03*
X075220Y009532D03*
X075220Y009792D03*
X075222Y010052D03*
X075220Y010312D03*
X075220Y010572D03*
X075220Y010832D03*
X075220Y011092D03*
X075220Y011352D03*
X075220Y011612D03*
X072920Y011612D03*
X072920Y011352D03*
X057995Y023492D03*
X057995Y023752D03*
X057995Y024012D03*
X057995Y024272D03*
X057995Y024532D03*
X057995Y024792D03*
X057998Y025052D03*
X057995Y025312D03*
X057995Y025572D03*
X057995Y025832D03*
X057995Y026092D03*
X057995Y026352D03*
X057995Y026612D03*
X057995Y026872D03*
X055695Y026872D03*
X055695Y026612D03*
X055695Y026352D03*
X055695Y026092D03*
X055695Y025832D03*
X055695Y025572D03*
X055695Y025312D03*
X055693Y025052D03*
X055695Y024792D03*
X055695Y024532D03*
X055695Y024272D03*
X055695Y024012D03*
X055695Y023752D03*
X055695Y023492D03*
X074691Y027031D03*
X074691Y027291D03*
X074691Y027551D03*
X074691Y027811D03*
X074691Y028071D03*
X074691Y028331D03*
X074691Y028591D03*
X074689Y028851D03*
X074691Y029111D03*
X074691Y029371D03*
X074691Y029631D03*
X074691Y029891D03*
X074691Y030151D03*
X074691Y030411D03*
X076991Y030411D03*
X076991Y030151D03*
X076991Y029891D03*
X076991Y029631D03*
X076991Y029371D03*
X076991Y029111D03*
X076994Y028851D03*
X076991Y028591D03*
X076991Y028331D03*
X076991Y028071D03*
X076991Y027811D03*
X076991Y027551D03*
X076991Y027291D03*
X076991Y027031D03*
D13*
X075841Y028721D03*
X056845Y025182D03*
X074070Y009922D03*
X058223Y009414D03*
D14*
X056058Y008999D03*
X055349Y008999D03*
X055507Y008034D03*
X056215Y008034D03*
X053853Y007542D03*
X053144Y007542D03*
X050703Y007542D03*
X049995Y007542D03*
X047554Y007542D03*
X046845Y007542D03*
X049601Y005889D03*
X050310Y005889D03*
X050979Y005889D03*
X051688Y005889D03*
X050290Y005180D03*
X049581Y005180D03*
X049719Y004215D03*
X049010Y004215D03*
X055703Y004117D03*
X056412Y004117D03*
X058853Y006853D03*
X059562Y006853D03*
X061510Y008822D03*
X062219Y008822D03*
X062101Y010003D03*
X062810Y010003D03*
X062810Y011086D03*
X062101Y011086D03*
X062101Y012168D03*
X062810Y012168D03*
X068794Y009530D03*
X069503Y009530D03*
X069503Y008586D03*
X068794Y008586D03*
X068794Y007562D03*
X069503Y007562D03*
X069975Y010711D03*
X070684Y010711D03*
X072928Y012483D03*
X073636Y012483D03*
X075487Y013645D03*
X076196Y013645D03*
X077062Y013172D03*
X077770Y013172D03*
X078440Y013172D03*
X079148Y013172D03*
X079444Y011302D03*
X078735Y011302D03*
X076983Y011105D03*
X076274Y011105D03*
X076274Y010219D03*
X076983Y010219D03*
X077081Y008940D03*
X076373Y008940D03*
X077948Y006578D03*
X078656Y006578D03*
X081097Y006578D03*
X081806Y006578D03*
X084247Y006578D03*
X084955Y006578D03*
X085034Y011302D03*
X085743Y011302D03*
X082593Y011302D03*
X081885Y011302D03*
X078459Y015830D03*
X077751Y015830D03*
X074148Y016597D03*
X073440Y016597D03*
X064975Y022178D03*
X064266Y022178D03*
X065129Y022950D03*
X065837Y022950D03*
X061038Y024786D03*
X060329Y024786D03*
X061215Y026066D03*
X061924Y026066D03*
X061924Y027247D03*
X061215Y027247D03*
X061215Y028428D03*
X061924Y028428D03*
X054739Y026164D03*
X054030Y026164D03*
X054030Y024944D03*
X054739Y024944D03*
X054936Y023625D03*
X054227Y023625D03*
X052573Y023704D03*
X051865Y023704D03*
X049424Y023802D03*
X048715Y023802D03*
X046274Y023802D03*
X045566Y023802D03*
X052062Y022070D03*
X052052Y021469D03*
X052760Y021469D03*
X052770Y022070D03*
X053341Y021784D03*
X054050Y021784D03*
X057623Y022621D03*
X058331Y022621D03*
X053361Y019127D03*
X052652Y019127D03*
X056589Y018487D03*
X057298Y018487D03*
X054640Y012168D03*
X053932Y012168D03*
X051491Y012168D03*
X050782Y012168D03*
X048341Y012267D03*
X047633Y012267D03*
X055310Y010397D03*
X056018Y010397D03*
X079424Y025377D03*
X080133Y025377D03*
X082573Y025377D03*
X083282Y025377D03*
X085723Y025377D03*
X086432Y025377D03*
X078755Y027739D03*
X078046Y027739D03*
X078046Y028920D03*
X078755Y028920D03*
X080211Y030101D03*
X080920Y030101D03*
X078558Y030200D03*
X077849Y030200D03*
X075359Y031184D03*
X074650Y031184D03*
X073007Y032109D03*
X072298Y032109D03*
X077062Y032149D03*
X077770Y032149D03*
X078636Y031824D03*
X079345Y031824D03*
X079965Y031824D03*
X080674Y031824D03*
X083361Y030101D03*
X084070Y030101D03*
X086510Y030052D03*
X087219Y030052D03*
X080034Y034383D03*
X079325Y034383D03*
X072455Y029117D03*
X071747Y029117D03*
X071570Y027837D03*
X070861Y027837D03*
X070861Y026656D03*
X071570Y026656D03*
X071570Y025849D03*
X070861Y025849D03*
X057396Y031676D03*
X056688Y031676D03*
X053361Y028526D03*
X052652Y028526D03*
X050211Y028526D03*
X049503Y028526D03*
X047062Y028526D03*
X046353Y028526D03*
D15*
X063442Y020306D03*
X063442Y019996D03*
X063442Y019676D03*
X063442Y019366D03*
X063442Y019046D03*
X063442Y018736D03*
X063442Y018416D03*
X063442Y018106D03*
X063442Y017786D03*
X063442Y017476D03*
X063442Y017156D03*
X063442Y016846D03*
X063442Y016526D03*
X063442Y016216D03*
X063442Y015896D03*
X063442Y015586D03*
X069442Y015586D03*
X069442Y015896D03*
X069442Y016216D03*
X069442Y016526D03*
X069442Y016846D03*
X069442Y017156D03*
X069442Y017476D03*
X069442Y017786D03*
X069442Y018106D03*
X069442Y018416D03*
X069442Y018736D03*
X069442Y019046D03*
X069442Y019366D03*
X069442Y019676D03*
X069442Y019996D03*
X069442Y020306D03*
D16*
X068802Y020946D03*
X068492Y020946D03*
X068172Y020946D03*
X067862Y020946D03*
X067542Y020946D03*
X067232Y020946D03*
X066912Y020946D03*
X066602Y020946D03*
X066282Y020946D03*
X065972Y020946D03*
X065652Y020946D03*
X065342Y020946D03*
X065022Y020946D03*
X064712Y020946D03*
X064392Y020946D03*
X064082Y020946D03*
X064082Y014946D03*
X064392Y014946D03*
X064712Y014946D03*
X065022Y014946D03*
X065342Y014946D03*
X065652Y014946D03*
X065972Y014946D03*
X066282Y014946D03*
X066602Y014946D03*
X066912Y014946D03*
X067232Y014946D03*
X067542Y014946D03*
X067862Y014946D03*
X068172Y014946D03*
X068492Y014946D03*
X068802Y014946D03*
D17*
X069936Y037267D03*
X069936Y038448D03*
X067573Y038448D03*
X065211Y038448D03*
X065211Y037267D03*
X067573Y037267D03*
X062849Y037267D03*
X062849Y038448D03*
D18*
X065162Y004737D03*
X065162Y002611D03*
D19*
X081961Y035408D03*
X082961Y035408D03*
X083961Y035408D03*
X084961Y035408D03*
X085961Y035408D03*
X085961Y036408D03*
X084961Y036408D03*
X083961Y036408D03*
X082961Y036408D03*
X081961Y036408D03*
D20*
X079316Y033615D03*
X078568Y033615D03*
X078568Y032591D03*
X078942Y032591D03*
X079316Y032591D03*
X076412Y032591D03*
X076038Y032591D03*
X075664Y032591D03*
X075664Y033615D03*
X076412Y033615D03*
X057022Y020918D03*
X056648Y020918D03*
X056274Y020918D03*
X056274Y019895D03*
X057022Y019895D03*
X054119Y019895D03*
X053371Y019895D03*
X053371Y020918D03*
X053745Y020918D03*
X054119Y020918D03*
X073843Y015160D03*
X074591Y015160D03*
X076944Y015160D03*
X077692Y015160D03*
X077692Y014137D03*
X077318Y014137D03*
X076944Y014137D03*
X074591Y014137D03*
X074217Y014137D03*
X073843Y014137D03*
X054759Y005318D03*
X054385Y005318D03*
X054010Y005318D03*
X054010Y004294D03*
X054759Y004294D03*
X051707Y004196D03*
X050959Y004196D03*
X050959Y005219D03*
X051333Y005219D03*
X051707Y005219D03*
D21*
X044001Y015928D03*
X044001Y020259D03*
X089964Y017109D03*
X089964Y012778D03*
D22*
X091589Y006479D03*
X091589Y006086D03*
X091589Y005692D03*
X091589Y005298D03*
X091589Y004904D03*
X091589Y004117D03*
X091589Y003723D03*
X091589Y003330D03*
X091589Y002936D03*
X091589Y002542D03*
X041196Y002542D03*
X041196Y002936D03*
X041196Y003330D03*
X041196Y003723D03*
X041196Y004117D03*
X041196Y004904D03*
X041196Y005298D03*
X041196Y005692D03*
X041196Y006086D03*
X041196Y006479D03*
X041196Y024983D03*
X041196Y025377D03*
X041196Y025771D03*
X041196Y026164D03*
X041196Y026558D03*
X041196Y027345D03*
X041196Y027739D03*
X041196Y028133D03*
X041196Y028526D03*
X041196Y028920D03*
X091589Y028920D03*
X091589Y028526D03*
X091589Y028133D03*
X091589Y027739D03*
X091589Y027345D03*
X091589Y026558D03*
X091589Y026164D03*
X091589Y025771D03*
X091589Y025377D03*
X091589Y024983D03*
D23*
X091589Y026952D03*
X041196Y026952D03*
X041196Y004511D03*
X091589Y004511D03*
D24*
X040093Y001361D03*
X040093Y007660D03*
X040093Y023802D03*
X040093Y030101D03*
X092692Y030101D03*
X092692Y023802D03*
X092692Y007660D03*
X092692Y001361D03*
D25*
X079089Y008546D03*
X082239Y009334D03*
X085388Y010121D03*
X084995Y013271D03*
X074660Y013467D03*
X069394Y010219D03*
X062849Y009117D03*
X052888Y005436D03*
X046560Y005790D03*
X046392Y008704D03*
X049483Y009609D03*
X052751Y010515D03*
X055654Y019422D03*
X055703Y021410D03*
X046412Y021834D03*
X045133Y025180D03*
X048282Y025967D03*
X051432Y026755D03*
X076432Y031942D03*
X076383Y034727D03*
X086570Y032168D03*
X087733Y028723D03*
X084583Y027936D03*
X081483Y027149D03*
D26*
X082534Y023389D03*
X083361Y023015D03*
X082534Y022641D03*
X051550Y014924D03*
X050723Y014550D03*
X051550Y014176D03*
X081205Y004540D03*
X082032Y004166D03*
X081205Y003792D03*
X050251Y030515D03*
X049424Y030889D03*
X050251Y031263D03*
D27*
X057692Y030741D03*
X060822Y030741D03*
X060822Y032513D03*
X057692Y032513D03*
D28*
X055526Y036794D03*
X054424Y036794D03*
X052377Y036794D03*
X051274Y036794D03*
D29*
X056591Y032894D03*
X053794Y031282D03*
X053007Y030495D03*
X052219Y031282D03*
X056491Y030849D03*
X056451Y028428D03*
X053794Y028133D03*
X052810Y027444D03*
X054680Y027198D03*
X055467Y027247D03*
X054089Y025574D03*
X055073Y024442D03*
X053745Y023950D03*
X053105Y023507D03*
X054089Y023064D03*
X051038Y021834D03*
X049857Y023467D03*
X046707Y023408D03*
X043755Y023900D03*
X047495Y028133D03*
X050644Y028133D03*
X046707Y030495D03*
X045920Y031282D03*
X047495Y031282D03*
X043755Y029314D03*
X058814Y026460D03*
X060930Y026607D03*
X062416Y025613D03*
X064286Y024885D03*
X066196Y023841D03*
X064739Y023408D03*
X063597Y023408D03*
X062219Y023231D03*
X062199Y022208D03*
X062022Y021519D03*
X060408Y020672D03*
X059601Y020337D03*
X057534Y020298D03*
X056629Y019904D03*
X057416Y019584D03*
X056668Y019452D03*
X055999Y018369D03*
X054778Y019235D03*
X058125Y018664D03*
X058676Y019294D03*
X060211Y018290D03*
X060841Y019038D03*
X061786Y018054D03*
X060782Y017483D03*
X062298Y017168D03*
X064050Y017916D03*
X064050Y018704D03*
X064030Y019688D03*
X065014Y020062D03*
X066392Y019668D03*
X062298Y020337D03*
X064640Y021774D03*
X066806Y022936D03*
X068636Y022149D03*
X068932Y021519D03*
X069306Y021853D03*
X071294Y022030D03*
X072199Y021164D03*
X069306Y023389D03*
X069896Y024058D03*
X068341Y023861D03*
X068341Y024530D03*
X067593Y024983D03*
X070093Y025967D03*
X070428Y026341D03*
X071707Y027286D03*
X073676Y027444D03*
X073755Y026597D03*
X076383Y025721D03*
X078164Y025967D03*
X078991Y025771D03*
X079778Y026460D03*
X078154Y026706D03*
X078696Y028280D03*
X077465Y029461D03*
X079040Y029904D03*
X079778Y030456D03*
X078646Y030741D03*
X081471Y031991D03*
X079710Y032335D03*
X078218Y032188D03*
X076383Y034235D03*
X075585Y034412D03*
X074936Y034747D03*
X073774Y034334D03*
X071274Y035987D03*
X069936Y035082D03*
X068322Y034904D03*
X067514Y034708D03*
X068322Y033881D03*
X069699Y032503D03*
X071097Y031578D03*
X069247Y031302D03*
X066570Y030928D03*
X064955Y032129D03*
X064030Y031282D03*
X063912Y030613D03*
X062652Y030613D03*
X061471Y032129D03*
X063184Y034767D03*
X062672Y034983D03*
X072711Y038152D03*
X074404Y038566D03*
X090172Y034353D03*
X086077Y030495D03*
X082948Y030456D03*
X091373Y029334D03*
X088518Y026538D03*
X085270Y025771D03*
X082140Y025771D03*
X079778Y023408D03*
X079188Y022818D03*
X080369Y022818D03*
X085487Y022818D03*
X086077Y023408D03*
X086668Y022818D03*
X088735Y023802D03*
X089227Y023556D03*
X089247Y024078D03*
X089227Y024589D03*
X088735Y024294D03*
X091550Y024570D03*
X085349Y020554D03*
X087455Y019767D03*
X087948Y020013D03*
X087948Y019521D03*
X088440Y019767D03*
X088440Y019274D03*
X087948Y018979D03*
X087455Y019176D03*
X080408Y017700D03*
X082062Y016145D03*
X079385Y013960D03*
X079778Y013172D03*
X078051Y013670D03*
X076629Y013645D03*
X073445Y014747D03*
X074660Y015731D03*
X073400Y016086D03*
X070762Y016952D03*
X070959Y017621D03*
X071629Y018763D03*
X068774Y017286D03*
X068774Y016538D03*
X068322Y015534D03*
X069877Y015239D03*
X070428Y014845D03*
X069621Y014511D03*
X067160Y013841D03*
X065487Y014373D03*
X063715Y014550D03*
X063262Y014511D03*
X062318Y014156D03*
X062042Y014845D03*
X062849Y015200D03*
X062790Y015692D03*
X062672Y016184D03*
X064030Y015711D03*
X065723Y016794D03*
X064306Y017109D03*
X066156Y015534D03*
X063302Y013349D03*
X063262Y012680D03*
X062140Y012641D03*
X062436Y011617D03*
X063715Y010869D03*
X062810Y010554D03*
X064089Y009274D03*
X064404Y008782D03*
X063144Y008330D03*
X060782Y008684D03*
X060388Y008271D03*
X058223Y008645D03*
X058223Y009432D03*
X058223Y010219D03*
X060133Y010987D03*
X056766Y011479D03*
X056196Y011420D03*
X055172Y011774D03*
X054503Y011086D03*
X054385Y010495D03*
X053499Y010495D03*
X055546Y009806D03*
X056550Y008723D03*
X055034Y007621D03*
X055546Y007188D03*
X054385Y007149D03*
X051235Y007149D03*
X049168Y005790D03*
X048085Y004904D03*
X047593Y004412D03*
X047199Y004904D03*
X046707Y004412D03*
X046215Y004019D03*
X045723Y004412D03*
X046215Y004904D03*
X047199Y003920D03*
X048085Y003920D03*
X054385Y004078D03*
X058243Y005436D03*
X060329Y005436D03*
X063440Y004757D03*
X064030Y005101D03*
X066294Y005101D03*
X067180Y004806D03*
X068656Y005672D03*
X067672Y006381D03*
X069148Y007109D03*
X069601Y006873D03*
X070329Y006381D03*
X070014Y005889D03*
X074759Y006381D03*
X075448Y007759D03*
X076432Y007857D03*
X078007Y007660D03*
X077396Y006873D03*
X080546Y006873D03*
X083696Y006873D03*
X086471Y004314D03*
X087160Y004314D03*
X087160Y003625D03*
X086471Y003625D03*
X086668Y003034D03*
X087357Y003034D03*
X087849Y003526D03*
X087849Y004215D03*
X077121Y009432D03*
X075644Y010613D03*
X077514Y011105D03*
X078184Y011547D03*
X077022Y011794D03*
X081333Y011547D03*
X084483Y011597D03*
X087967Y015780D03*
X077180Y016125D03*
X069640Y013271D03*
X069168Y013093D03*
X069857Y011282D03*
X069522Y010908D03*
X068302Y010160D03*
X068302Y009176D03*
X069070Y009038D03*
X070113Y008664D03*
X071806Y008448D03*
X071215Y010810D03*
X071904Y011302D03*
X065093Y010141D03*
X064936Y006873D03*
X052022Y011774D03*
X048892Y011971D03*
X050349Y009609D03*
X051235Y009609D03*
X048085Y008723D03*
X047199Y008723D03*
X048085Y007050D03*
X041885Y009826D03*
X041589Y010219D03*
X041885Y010613D03*
X041589Y011007D03*
X041196Y010613D03*
X042377Y010219D03*
X042081Y014845D03*
X041688Y015337D03*
X041294Y014845D03*
X041294Y015830D03*
X042081Y015830D03*
X041688Y016322D03*
X047199Y014944D03*
X048774Y014944D03*
X053499Y014944D03*
X054286Y014255D03*
X054975Y014944D03*
X056963Y015830D03*
X058125Y014058D03*
X056510Y013900D03*
X057731Y013074D03*
X061255Y015830D03*
X047160Y017916D03*
X059207Y023900D03*
X062022Y024530D03*
X064503Y026263D03*
X064463Y026735D03*
X063892Y026873D03*
X063617Y027582D03*
X063459Y029255D03*
X062948Y029176D03*
X068302Y027700D03*
X070762Y028369D03*
X073823Y029757D03*
X072692Y030141D03*
D30*
X075841Y029511D03*
X075841Y028723D03*
X075841Y027936D03*
X079680Y027149D03*
X080566Y027149D03*
X082829Y027936D03*
X083715Y027936D03*
X085979Y028723D03*
X086865Y028723D03*
X072298Y022424D03*
X056845Y024294D03*
X056845Y025180D03*
X056845Y026066D03*
X053007Y026755D03*
X052219Y026755D03*
X049857Y025967D03*
X049070Y025967D03*
X046707Y025180D03*
X045920Y025180D03*
X051629Y020180D03*
X074070Y010810D03*
X074070Y009924D03*
X074070Y009038D03*
X078105Y008546D03*
X079975Y008546D03*
X081255Y009334D03*
X083125Y009334D03*
X084503Y010121D03*
X086274Y010121D03*
D31*
X066629Y007936D03*
X061117Y016322D03*
X061589Y016834D03*
X049463Y033054D03*
X049463Y034826D03*
M02*
