%
M48
M72
T01C0.0150
T02C0.0200
T03C0.0236
T04C0.0315
T05C0.0400
%
T01
X41196Y10613
X41589Y10219
X41885Y9826
X42377Y10219
X41885Y10613
X41589Y11007
X47199Y8723
X48085Y8723
X50349Y9609
X51235Y9609
X53499Y10495
X54385Y10495
X54503Y11086
X55172Y11774
X56196Y11420
X56766Y11479
X58223Y10219
X58223Y9432
X58223Y8645
X56550Y8723
X55034Y7621
X55546Y7188
X54385Y7149
X51235Y7149
X49168Y5790
X48085Y4904
X47593Y4412
X47199Y4904
X46707Y4412
X46215Y4019
X45723Y4412
X46215Y4904
X47199Y3920
X48085Y3920
X54385Y4078
X58243Y5436
X60329Y5436
X63440Y4757
X64030Y5101
X66294Y5101
X67180Y4806
X68656Y5672
X67672Y6381
X69148Y7109
X69601Y6873
X70329Y6381
X70014Y5889
X74759Y6381
X75448Y7759
X76432Y7857
X78007Y7660
X77396Y6873
X80546Y6873
X83696Y6873
X86471Y4314
X87160Y4314
X87160Y3625
X86471Y3625
X86668Y3034
X87357Y3034
X87849Y3526
X87849Y4215
X77121Y9432
X75644Y10613
X77514Y11105
X78184Y11547
X77022Y11794
X79778Y13172
X79385Y13960
X78051Y13670
X76629Y13645
X73445Y14747
X74660Y15731
X73400Y16086
X70762Y16952
X70959Y17621
X71629Y18763
X68774Y17286
X68774Y16538
X68322Y15534
X69877Y15239
X70428Y14845
X69621Y14511
X67160Y13841
X65487Y14373
X63715Y14550
X63262Y14511
X62318Y14156
X62042Y14845
X62849Y15200
X62790Y15692
X62672Y16184
X64030Y15711
X65723Y16794
X64306Y17109
X64050Y17916
X64050Y18704
X64030Y19688
X65014Y20062
X66392Y19668
X62298Y20337
X60408Y20672
X59601Y20337
X57534Y20298
X56629Y19904
X57416Y19584
X56668Y19452
X55999Y18369
X54778Y19235
X58125Y18664
X58676Y19294
X60211Y18290
X60841Y19038
X61786Y18054
X60782Y17483
X62298Y17168
X61255Y15830
X58125Y14058
X56510Y13900
X57731Y13074
X54286Y14255
X54975Y14944
X53499Y14944
X56963Y15830
X63302Y13349
X63262Y12680
X62140Y12641
X62436Y11617
X63715Y10869
X62810Y10554
X64089Y9274
X64404Y8782
X63144Y8330
X60782Y8684
X60388Y8271
X64936Y6873
X69070Y9038
X68302Y9176
X68302Y10160
X69522Y10908
X69857Y11282
X71215Y10810
X71904Y11302
X69168Y13093
X69640Y13271
X66156Y15534
X77180Y16125
X80408Y17700
X82062Y16145
X87967Y15780
X87948Y18979
X87455Y19176
X87455Y19767
X87948Y20013
X87948Y19521
X88440Y19767
X88440Y19274
X85349Y20554
X85487Y22818
X86077Y23408
X86668Y22818
X88735Y23802
X89227Y23556
X89247Y24078
X89227Y24589
X88735Y24294
X91550Y24570
X88518Y26538
X85270Y25771
X82140Y25771
X79778Y26460
X78991Y25771
X78164Y25967
X76383Y25721
X78154Y26706
X78696Y28280
X77465Y29461
X79040Y29904
X79778Y30456
X78646Y30741
X81471Y31991
X79710Y32335
X78218Y32188
X76383Y34235
X75585Y34412
X74936Y34747
X73774Y34334
X71274Y35987
X69936Y35082
X68322Y34904
X67514Y34708
X68322Y33881
X69699Y32503
X71097Y31578
X69247Y31302
X66570Y30928
X64955Y32129
X64030Y31282
X63912Y30613
X62652Y30613
X61471Y32129
X56591Y32894
X53794Y31282
X53007Y30495
X52219Y31282
X56491Y30849
X56451Y28428
X53794Y28133
X52810Y27444
X54680Y27198
X55467Y27247
X54089Y25574
X55073Y24442
X53745Y23950
X53105Y23507
X54089Y23064
X51038Y21834
X49857Y23467
X46707Y23408
X43755Y23900
X47495Y28133
X50644Y28133
X46707Y30495
X45920Y31282
X47495Y31282
X43755Y29314
X58814Y26460
X60930Y26607
X62416Y25613
X64286Y24885
X66196Y23841
X64739Y23408
X63597Y23408
X62219Y23231
X62199Y22208
X62022Y21519
X64640Y21774
X66806Y22936
X68636Y22149
X68932Y21519
X69306Y21853
X71294Y22030
X72199Y21164
X69306Y23389
X69896Y24058
X68341Y23861
X68341Y24530
X67593Y24983
X70093Y25967
X70428Y26341
X71707Y27286
X73676Y27444
X73755Y26597
X70762Y28369
X68302Y27700
X64463Y26735
X64503Y26263
X63892Y26873
X63617Y27582
X63459Y29255
X62948Y29176
X72692Y30141
X73823Y29757
X82948Y30456
X86077Y30495
X91373Y29334
X90172Y34353
X74404Y38566
X72711Y38152
X63184Y34767
X62672Y34983
X62022Y24530
X59207Y23900
X47160Y17916
X42081Y15830
X41688Y15337
X42081Y14845
X41294Y14845
X41294Y15830
X41688Y16322
X47199Y14944
X48774Y14944
X48892Y11971
X52022Y11774
X55546Y9806
X60133Y10987
X65093Y10141
X70113Y8664
X71806Y8448
X81333Y11547
X84483Y11597
X80369Y22818
X79778Y23408
X79188Y22818
X48085Y7050
T02
X74070Y9038
X74070Y9924
X74070Y10810
X78105Y8546
X79975Y8546
X81255Y9334
X83125Y9334
X84503Y10121
X86274Y10121
X72298Y22424
X79680Y27149
X80566Y27149
X82829Y27936
X83715Y27936
X85979Y28723
X86865Y28723
X75841Y28723
X75841Y27936
X75841Y29511
X56845Y26066
X56845Y25180
X56845Y24294
X53007Y26755
X52219Y26755
X49857Y25967
X49070Y25967
X46707Y25180
X45920Y25180
X51629Y20180
T03
X61117Y16322
X61589Y16834
X66629Y7936
X49463Y33054
X49463Y34826
T04
X51432Y26755
X48282Y25967
X45133Y25180
X46412Y21834
X55703Y21410
X55654Y19422
X74660Y13467
X69394Y10219
X62849Y9117
X52888Y5436
X46560Y5790
X46392Y8704
X49483Y9609
X52751Y10515
X79089Y8546
X82239Y9334
X85388Y10121
X84995Y13271
X81483Y27149
X84583Y27936
X87733Y28723
X86570Y32168
X76432Y31942
X76383Y34727
T05
X81961Y35408
X82961Y35408
X83961Y35408
X84961Y35408
X85961Y35408
X85961Y36408
X84961Y36408
X83961Y36408
X82961Y36408
X81961Y36408
X82448Y38319
X83448Y38419
X84448Y38319
X81448Y38419
X80448Y38319
X79448Y38419
X78448Y38319
X77448Y38419
X76448Y38319
X75448Y38419
X57282Y38319
X56282Y38419
X55282Y38319
X54282Y38419
X53282Y38319
X52282Y38419
X51282Y38319
X50282Y38419
X49282Y38319
X48282Y38419
X44001Y20259
X43901Y19259
X44001Y18259
X43901Y17259
X44001Y15928
X43901Y14928
X44001Y13928
X43901Y12928
X48282Y1411
X49282Y1311
X50282Y1411
X51282Y1311
X52282Y1411
X53282Y1311
X54282Y1411
X55282Y1311
X56282Y1411
X57282Y1311
X75448Y1411
X76448Y1311
X77448Y1411
X78448Y1311
X79448Y1411
X80448Y1311
X81448Y1411
X82448Y1311
X83448Y1411
X84448Y1311
X89964Y12778
X90064Y13778
X89964Y14778
X90064Y15778
X89964Y17109
X90064Y18109
X89964Y19109
X90064Y20109
M30
