G75*
G70*
%OFA0B0*%
%FSLAX24Y24*%
%IPPOS*%
%LPD*%
%AMOC8*
5,1,8,0,0,1.08239X$1,22.5*
%
%ADD10R,0.0472X0.0315*%
%ADD11R,0.0315X0.0098*%
%ADD12C,0.0050*%
%ADD13R,0.0315X0.0472*%
%ADD14R,0.0580X0.0200*%
%ADD15R,0.0200X0.0580*%
%ADD16R,0.0551X0.0472*%
%ADD17R,0.0630X0.1378*%
%ADD18R,0.0217X0.0472*%
%ADD19R,0.0787X0.0240*%
%ADD20R,0.0787X0.0236*%
%ADD21R,0.1417X0.1055*%
%ADD22R,0.0354X0.0315*%
%ADD23R,0.0610X0.0512*%
%ADD24R,0.0630X0.0709*%
D10*
X050349Y003861D03*
X050349Y004570D03*
X052495Y004885D03*
X053243Y004885D03*
X053243Y004176D03*
X052495Y004176D03*
X055605Y004747D03*
X056314Y004767D03*
X057239Y004609D03*
X057239Y005318D03*
X056314Y005475D03*
X055605Y005456D03*
X056353Y006499D03*
X056353Y007208D03*
X060388Y006893D03*
X061274Y006893D03*
X062160Y006893D03*
X062160Y007601D03*
X061274Y007601D03*
X060388Y007601D03*
X060881Y011223D03*
X060881Y011932D03*
X059995Y012109D03*
X059995Y012818D03*
X059010Y012995D03*
X059010Y013704D03*
X069936Y012641D03*
X069936Y011932D03*
X070920Y011932D03*
X070920Y012641D03*
X071904Y012641D03*
X071904Y011932D03*
X072987Y013605D03*
X072298Y014294D03*
X072987Y014314D03*
X072987Y014983D03*
X072298Y015003D03*
X072987Y015692D03*
X075349Y015003D03*
X076235Y015003D03*
X076235Y014294D03*
X075349Y014294D03*
X075841Y012641D03*
X075841Y011932D03*
X078548Y014147D03*
X078548Y014855D03*
X071314Y008113D03*
X071314Y007404D03*
X072495Y007326D03*
X072495Y006617D03*
X073676Y006145D03*
X073676Y005436D03*
X067131Y003930D03*
X067131Y003221D03*
X058125Y019265D03*
X058125Y019973D03*
X058125Y020544D03*
X058912Y020613D03*
X058912Y019904D03*
X058125Y021253D03*
X059207Y022513D03*
X060142Y022513D03*
X061028Y022513D03*
X061028Y023221D03*
X060142Y023221D03*
X059207Y023221D03*
X055270Y023074D03*
X055270Y022365D03*
X055615Y020761D03*
X054778Y020761D03*
X054778Y020052D03*
X055615Y020052D03*
X052514Y020150D03*
X052514Y020859D03*
X063489Y022168D03*
X063489Y022877D03*
X059601Y026893D03*
X059601Y027601D03*
X058617Y027680D03*
X058617Y028389D03*
X057633Y028566D03*
X057633Y029274D03*
X056944Y035259D03*
X055762Y035259D03*
X055762Y035967D03*
X056944Y035967D03*
X053400Y035967D03*
X052219Y035967D03*
X052219Y035259D03*
X053400Y035259D03*
X062849Y035652D03*
X062849Y036361D03*
X065211Y036361D03*
X065211Y035652D03*
X067573Y035652D03*
X067573Y036361D03*
X069936Y036361D03*
X069936Y035652D03*
X073823Y033654D03*
X074611Y033586D03*
X074611Y033015D03*
X073823Y032946D03*
X074611Y032306D03*
X077072Y032749D03*
X077908Y032749D03*
X077908Y033458D03*
X077072Y033458D03*
X074611Y034294D03*
X075054Y036440D03*
X076235Y036440D03*
X076235Y037149D03*
X075054Y037149D03*
X077416Y037227D03*
X077416Y036519D03*
X080172Y033310D03*
X080172Y032601D03*
X077416Y031440D03*
X077416Y030731D03*
X073725Y030584D03*
X072741Y030584D03*
X071757Y030584D03*
X071757Y031292D03*
X072741Y031292D03*
X073725Y031292D03*
X073233Y027011D03*
X073233Y026302D03*
X074217Y026223D03*
X074217Y025515D03*
X075152Y025337D03*
X075152Y024629D03*
D11*
X074691Y027031D03*
X074691Y027291D03*
X074691Y027551D03*
X074691Y027811D03*
X074691Y028071D03*
X074691Y028331D03*
X074691Y028591D03*
X074689Y028851D03*
X074691Y029111D03*
X074691Y029371D03*
X074691Y029631D03*
X074691Y029891D03*
X074691Y030151D03*
X074691Y030411D03*
X076991Y030411D03*
X076991Y030151D03*
X076991Y029891D03*
X076991Y029631D03*
X076991Y029371D03*
X076991Y029111D03*
X076994Y028851D03*
X076991Y028591D03*
X076991Y028331D03*
X076991Y028071D03*
X076991Y027811D03*
X076991Y027551D03*
X076991Y027291D03*
X076991Y027031D03*
X057995Y026872D03*
X057995Y026612D03*
X057995Y026352D03*
X057995Y026092D03*
X057995Y025832D03*
X057995Y025572D03*
X057995Y025312D03*
X057998Y025052D03*
X057995Y024792D03*
X057995Y024532D03*
X057995Y024272D03*
X057995Y024012D03*
X057995Y023752D03*
X057995Y023492D03*
X055695Y023492D03*
X055695Y023752D03*
X055695Y024012D03*
X055695Y024272D03*
X055695Y024532D03*
X055695Y024792D03*
X055693Y025052D03*
X055695Y025312D03*
X055695Y025572D03*
X055695Y025832D03*
X055695Y026092D03*
X055695Y026352D03*
X055695Y026612D03*
X055695Y026872D03*
X072920Y011612D03*
X072920Y011352D03*
X072920Y011092D03*
X072920Y010832D03*
X072920Y010572D03*
X072920Y010312D03*
X072917Y010052D03*
X072920Y009792D03*
X072920Y009532D03*
X072920Y009272D03*
X072920Y009012D03*
X072920Y008752D03*
X072920Y008492D03*
X072920Y008232D03*
X075220Y008232D03*
X075220Y008492D03*
X075220Y008752D03*
X075220Y009012D03*
X075220Y009272D03*
X075220Y009532D03*
X075220Y009792D03*
X075222Y010052D03*
X075220Y010312D03*
X075220Y010572D03*
X075220Y010832D03*
X075220Y011092D03*
X075220Y011352D03*
X075220Y011612D03*
X059373Y011104D03*
X059373Y010844D03*
X059373Y010584D03*
X059373Y010324D03*
X059373Y010064D03*
X059373Y009804D03*
X059373Y009544D03*
X059375Y009284D03*
X059373Y009024D03*
X059373Y008764D03*
X059373Y008504D03*
X059373Y008244D03*
X059373Y007984D03*
X059373Y007724D03*
X057073Y007724D03*
X057073Y007984D03*
X057073Y008244D03*
X057073Y008504D03*
X057073Y008764D03*
X057073Y009024D03*
X057071Y009284D03*
X057073Y009544D03*
X057073Y009804D03*
X057073Y010064D03*
X057073Y010324D03*
X057073Y010584D03*
X057073Y010844D03*
X057073Y011104D03*
D12*
X057928Y009708D02*
X058518Y009708D01*
X058518Y009117D01*
X057928Y009117D01*
X057928Y009708D01*
X057928Y009686D02*
X058518Y009686D01*
X058518Y009638D02*
X057928Y009638D01*
X057928Y009589D02*
X058518Y009589D01*
X058518Y009541D02*
X057928Y009541D01*
X057928Y009492D02*
X058518Y009492D01*
X058518Y009444D02*
X057928Y009444D01*
X057928Y009395D02*
X058518Y009395D01*
X058518Y009347D02*
X057928Y009347D01*
X057928Y009298D02*
X058518Y009298D01*
X058518Y009250D02*
X057928Y009250D01*
X057928Y009201D02*
X058518Y009201D01*
X058518Y009153D02*
X057928Y009153D01*
X073774Y009629D02*
X073774Y010219D01*
X074365Y010219D01*
X074365Y009629D01*
X073774Y009629D01*
X073774Y009638D02*
X074365Y009638D01*
X074365Y009686D02*
X073774Y009686D01*
X073774Y009735D02*
X074365Y009735D01*
X074365Y009783D02*
X073774Y009783D01*
X073774Y009832D02*
X074365Y009832D01*
X074365Y009880D02*
X073774Y009880D01*
X073774Y009929D02*
X074365Y009929D01*
X074365Y009977D02*
X073774Y009977D01*
X073774Y010026D02*
X074365Y010026D01*
X074365Y010074D02*
X073774Y010074D01*
X073774Y010123D02*
X074365Y010123D01*
X074365Y010171D02*
X073774Y010171D01*
X057140Y024885D02*
X056550Y024885D01*
X056550Y025475D01*
X057140Y025475D01*
X057140Y024885D01*
X057140Y024915D02*
X056550Y024915D01*
X056550Y024964D02*
X057140Y024964D01*
X057140Y025012D02*
X056550Y025012D01*
X056550Y025061D02*
X057140Y025061D01*
X057140Y025109D02*
X056550Y025109D01*
X056550Y025158D02*
X057140Y025158D01*
X057140Y025206D02*
X056550Y025206D01*
X056550Y025255D02*
X057140Y025255D01*
X057140Y025303D02*
X056550Y025303D01*
X056550Y025352D02*
X057140Y025352D01*
X057140Y025400D02*
X056550Y025400D01*
X056550Y025449D02*
X057140Y025449D01*
X075546Y028428D02*
X075546Y029019D01*
X076136Y029019D01*
X076136Y028428D01*
X075546Y028428D01*
X075546Y028456D02*
X076136Y028456D01*
X076136Y028504D02*
X075546Y028504D01*
X075546Y028553D02*
X076136Y028553D01*
X076136Y028601D02*
X075546Y028601D01*
X075546Y028650D02*
X076136Y028650D01*
X076136Y028698D02*
X075546Y028698D01*
X075546Y028747D02*
X076136Y028747D01*
X076136Y028795D02*
X075546Y028795D01*
X075546Y028844D02*
X076136Y028844D01*
X076136Y028892D02*
X075546Y028892D01*
X075546Y028941D02*
X076136Y028941D01*
X076136Y028989D02*
X075546Y028989D01*
D13*
X078046Y028920D03*
X078755Y028920D03*
X078755Y027739D03*
X078046Y027739D03*
X079424Y025377D03*
X080133Y025377D03*
X082573Y025377D03*
X083282Y025377D03*
X085723Y025377D03*
X086432Y025377D03*
X086510Y030052D03*
X087219Y030052D03*
X084070Y030101D03*
X083361Y030101D03*
X080920Y030101D03*
X080211Y030101D03*
X078558Y030200D03*
X077849Y030200D03*
X075359Y031184D03*
X074650Y031184D03*
X073007Y032109D03*
X072298Y032109D03*
X077062Y032149D03*
X077770Y032149D03*
X078636Y031824D03*
X079345Y031824D03*
X079965Y031824D03*
X080674Y031824D03*
X080034Y034383D03*
X079325Y034383D03*
X072455Y029117D03*
X071747Y029117D03*
X071570Y027837D03*
X070861Y027837D03*
X070861Y026656D03*
X071570Y026656D03*
X071570Y025849D03*
X070861Y025849D03*
X065837Y022950D03*
X065129Y022950D03*
X064975Y022178D03*
X064266Y022178D03*
X061038Y024786D03*
X060329Y024786D03*
X061215Y026066D03*
X061924Y026066D03*
X061924Y027247D03*
X061215Y027247D03*
X061215Y028428D03*
X061924Y028428D03*
X054739Y026164D03*
X054030Y026164D03*
X054030Y024944D03*
X054739Y024944D03*
X054936Y023625D03*
X054227Y023625D03*
X052573Y023704D03*
X051865Y023704D03*
X049424Y023802D03*
X048715Y023802D03*
X046274Y023802D03*
X045566Y023802D03*
X052062Y022070D03*
X052052Y021469D03*
X052760Y021469D03*
X052770Y022070D03*
X053341Y021784D03*
X054050Y021784D03*
X057623Y022621D03*
X058331Y022621D03*
X053361Y019127D03*
X052652Y019127D03*
X056589Y018487D03*
X057298Y018487D03*
X054640Y012168D03*
X053932Y012168D03*
X051491Y012168D03*
X050782Y012168D03*
X048341Y012267D03*
X047633Y012267D03*
X055310Y010397D03*
X056018Y010397D03*
X056058Y008999D03*
X055349Y008999D03*
X055507Y008034D03*
X056215Y008034D03*
X053853Y007542D03*
X053144Y007542D03*
X050703Y007542D03*
X049995Y007542D03*
X047554Y007542D03*
X046845Y007542D03*
X049601Y005889D03*
X050310Y005889D03*
X050979Y005889D03*
X051688Y005889D03*
X050290Y005180D03*
X049581Y005180D03*
X049719Y004215D03*
X049010Y004215D03*
X055703Y004117D03*
X056412Y004117D03*
X058853Y006853D03*
X059562Y006853D03*
X061510Y008822D03*
X062219Y008822D03*
X062101Y010003D03*
X062810Y010003D03*
X062810Y011086D03*
X062101Y011086D03*
X062101Y012168D03*
X062810Y012168D03*
X068794Y009530D03*
X069503Y009530D03*
X069503Y008586D03*
X068794Y008586D03*
X068794Y007562D03*
X069503Y007562D03*
X069975Y010711D03*
X070684Y010711D03*
X072928Y012483D03*
X073636Y012483D03*
X075487Y013645D03*
X076196Y013645D03*
X077062Y013172D03*
X077770Y013172D03*
X078440Y013172D03*
X079148Y013172D03*
X079444Y011302D03*
X078735Y011302D03*
X076983Y011105D03*
X076274Y011105D03*
X076274Y010219D03*
X076983Y010219D03*
X077081Y008940D03*
X076373Y008940D03*
X077948Y006578D03*
X078656Y006578D03*
X081097Y006578D03*
X081806Y006578D03*
X084247Y006578D03*
X084955Y006578D03*
X085034Y011302D03*
X085743Y011302D03*
X082593Y011302D03*
X081885Y011302D03*
X078459Y015830D03*
X077751Y015830D03*
X074148Y016597D03*
X073440Y016597D03*
X053361Y028526D03*
X052652Y028526D03*
X050211Y028526D03*
X049503Y028526D03*
X047062Y028526D03*
X046353Y028526D03*
X056688Y031676D03*
X057396Y031676D03*
D14*
X063442Y020306D03*
X063442Y019996D03*
X063442Y019676D03*
X063442Y019366D03*
X063442Y019046D03*
X063442Y018736D03*
X063442Y018416D03*
X063442Y018106D03*
X063442Y017786D03*
X063442Y017476D03*
X063442Y017156D03*
X063442Y016846D03*
X063442Y016526D03*
X063442Y016216D03*
X063442Y015896D03*
X063442Y015586D03*
X069442Y015586D03*
X069442Y015896D03*
X069442Y016216D03*
X069442Y016526D03*
X069442Y016846D03*
X069442Y017156D03*
X069442Y017476D03*
X069442Y017786D03*
X069442Y018106D03*
X069442Y018416D03*
X069442Y018736D03*
X069442Y019046D03*
X069442Y019366D03*
X069442Y019676D03*
X069442Y019996D03*
X069442Y020306D03*
D15*
X068802Y020946D03*
X068492Y020946D03*
X068172Y020946D03*
X067862Y020946D03*
X067542Y020946D03*
X067232Y020946D03*
X066912Y020946D03*
X066602Y020946D03*
X066282Y020946D03*
X065972Y020946D03*
X065652Y020946D03*
X065342Y020946D03*
X065022Y020946D03*
X064712Y020946D03*
X064392Y020946D03*
X064082Y020946D03*
X064082Y014946D03*
X064392Y014946D03*
X064712Y014946D03*
X065022Y014946D03*
X065342Y014946D03*
X065652Y014946D03*
X065972Y014946D03*
X066282Y014946D03*
X066602Y014946D03*
X066912Y014946D03*
X067232Y014946D03*
X067542Y014946D03*
X067862Y014946D03*
X068172Y014946D03*
X068492Y014946D03*
X068802Y014946D03*
D16*
X069936Y037267D03*
X069936Y038448D03*
X067573Y038448D03*
X065211Y038448D03*
X065211Y037267D03*
X067573Y037267D03*
X062849Y037267D03*
X062849Y038448D03*
D17*
X065162Y004737D03*
X065162Y002611D03*
D18*
X054759Y004294D03*
X054010Y004294D03*
X054010Y005318D03*
X054385Y005318D03*
X054759Y005318D03*
X051707Y005219D03*
X051333Y005219D03*
X050959Y005219D03*
X050959Y004196D03*
X051707Y004196D03*
X073843Y014137D03*
X074217Y014137D03*
X074591Y014137D03*
X076944Y014137D03*
X077318Y014137D03*
X077692Y014137D03*
X077692Y015160D03*
X076944Y015160D03*
X074591Y015160D03*
X073843Y015160D03*
X057022Y019895D03*
X056274Y019895D03*
X056274Y020918D03*
X056648Y020918D03*
X057022Y020918D03*
X054119Y020918D03*
X053745Y020918D03*
X053371Y020918D03*
X053371Y019895D03*
X054119Y019895D03*
X075664Y032591D03*
X076038Y032591D03*
X076412Y032591D03*
X076412Y033615D03*
X075664Y033615D03*
X078568Y033615D03*
X079316Y033615D03*
X079316Y032591D03*
X078942Y032591D03*
X078568Y032591D03*
D19*
X091589Y028920D03*
X091589Y028526D03*
X091589Y028133D03*
X091589Y027739D03*
X091589Y027345D03*
X091589Y026558D03*
X091589Y026164D03*
X091589Y025771D03*
X091589Y025377D03*
X091589Y024983D03*
X091589Y006479D03*
X091589Y006086D03*
X091589Y005692D03*
X091589Y005298D03*
X091589Y004904D03*
X091589Y004117D03*
X091589Y003723D03*
X091589Y003330D03*
X091589Y002936D03*
X091589Y002542D03*
X041196Y002542D03*
X041196Y002936D03*
X041196Y003330D03*
X041196Y003723D03*
X041196Y004117D03*
X041196Y004904D03*
X041196Y005298D03*
X041196Y005692D03*
X041196Y006086D03*
X041196Y006479D03*
X041196Y024983D03*
X041196Y025377D03*
X041196Y025771D03*
X041196Y026164D03*
X041196Y026558D03*
X041196Y027345D03*
X041196Y027739D03*
X041196Y028133D03*
X041196Y028526D03*
X041196Y028920D03*
D20*
X041196Y026952D03*
X091589Y026952D03*
X091589Y004511D03*
X041196Y004511D03*
D21*
X040093Y001361D03*
X040093Y007660D03*
X040093Y023802D03*
X040093Y030101D03*
X092692Y030101D03*
X092692Y023802D03*
X092692Y007660D03*
X092692Y001361D03*
D22*
X082032Y004166D03*
X081205Y003792D03*
X081205Y004540D03*
X051550Y014176D03*
X050723Y014550D03*
X051550Y014924D03*
X082534Y022641D03*
X083361Y023015D03*
X082534Y023389D03*
X050251Y030515D03*
X049424Y030889D03*
X050251Y031263D03*
D23*
X057692Y030741D03*
X060822Y030741D03*
X060822Y032513D03*
X057692Y032513D03*
D24*
X055526Y036794D03*
X054424Y036794D03*
X052377Y036794D03*
X051274Y036794D03*
M02*
