G75*
%MOIN*%
%OFA0B0*%
%FSLAX25Y25*%
%IPPOS*%
%LPD*%
%AMOC8*
5,1,8,0,0,1.08239X$1,22.5*
%
%ADD10R,0.02402X0.07874*%
%ADD11R,0.02362X0.07874*%
%ADD12R,0.10551X0.14173*%
%ADD13C,0.06000*%
%ADD14C,0.00300*%
%ADD15C,0.00400*%
%ADD16C,0.15811*%
%ADD17C,0.01200*%
D10*
X0038815Y0027393D03*
X0042752Y0027393D03*
X0046689Y0027393D03*
X0050626Y0027393D03*
X0054563Y0027393D03*
X0062437Y0027393D03*
X0066374Y0027393D03*
X0070311Y0027393D03*
X0074248Y0027393D03*
X0078185Y0027393D03*
D11*
X0058500Y0027393D03*
D12*
X0027004Y0016369D03*
X0089996Y0016369D03*
D13*
X0088500Y0046019D02*
X0088500Y0052019D01*
X0078500Y0052019D02*
X0078500Y0046019D01*
X0068500Y0046019D02*
X0068500Y0052019D01*
X0058500Y0052019D02*
X0058500Y0046019D01*
X0048500Y0046019D02*
X0048500Y0052019D01*
X0038500Y0052019D02*
X0038500Y0046019D01*
X0028500Y0046019D02*
X0028500Y0052019D01*
X0098500Y0052019D02*
X0098500Y0046019D01*
D14*
X0103074Y0044093D02*
X0093500Y0044093D01*
X0093500Y0043795D02*
X0102776Y0043795D01*
X0102477Y0043496D02*
X0093478Y0043496D01*
X0093500Y0043519D02*
X0093500Y0052519D01*
X0096500Y0055519D01*
X0099500Y0055519D01*
X0103500Y0051519D01*
X0103500Y0044519D01*
X0081500Y0022519D01*
X0073500Y0022519D01*
X0073000Y0023019D01*
X0073000Y0030519D01*
X0073500Y0031019D01*
X0081500Y0031019D01*
X0093500Y0043519D01*
X0093192Y0043198D02*
X0102179Y0043198D01*
X0101880Y0042899D02*
X0092905Y0042899D01*
X0092619Y0042601D02*
X0101582Y0042601D01*
X0101283Y0042302D02*
X0092332Y0042302D01*
X0092045Y0042004D02*
X0100985Y0042004D01*
X0100686Y0041705D02*
X0091759Y0041705D01*
X0091472Y0041407D02*
X0100388Y0041407D01*
X0100089Y0041108D02*
X0091186Y0041108D01*
X0090899Y0040810D02*
X0099791Y0040810D01*
X0099492Y0040511D02*
X0090613Y0040511D01*
X0090326Y0040213D02*
X0099194Y0040213D01*
X0098895Y0039914D02*
X0090039Y0039914D01*
X0089753Y0039616D02*
X0098597Y0039616D01*
X0098298Y0039317D02*
X0089466Y0039317D01*
X0089180Y0039019D02*
X0098000Y0039019D01*
X0097701Y0038720D02*
X0088893Y0038720D01*
X0088607Y0038422D02*
X0097403Y0038422D01*
X0097104Y0038123D02*
X0088320Y0038123D01*
X0088033Y0037825D02*
X0096806Y0037825D01*
X0096507Y0037526D02*
X0087747Y0037526D01*
X0087460Y0037228D02*
X0096209Y0037228D01*
X0095910Y0036929D02*
X0087174Y0036929D01*
X0086887Y0036631D02*
X0095612Y0036631D01*
X0095313Y0036332D02*
X0086601Y0036332D01*
X0086314Y0036034D02*
X0095015Y0036034D01*
X0094716Y0035735D02*
X0086027Y0035735D01*
X0085741Y0035437D02*
X0094418Y0035437D01*
X0094119Y0035138D02*
X0085454Y0035138D01*
X0085168Y0034839D02*
X0093821Y0034839D01*
X0093522Y0034541D02*
X0084881Y0034541D01*
X0084595Y0034242D02*
X0093224Y0034242D01*
X0092925Y0033944D02*
X0084308Y0033944D01*
X0084021Y0033645D02*
X0092627Y0033645D01*
X0092328Y0033347D02*
X0083735Y0033347D01*
X0083448Y0033048D02*
X0092030Y0033048D01*
X0091731Y0032750D02*
X0083162Y0032750D01*
X0082875Y0032451D02*
X0091432Y0032451D01*
X0091134Y0032153D02*
X0082589Y0032153D01*
X0082302Y0031854D02*
X0090835Y0031854D01*
X0090537Y0031556D02*
X0082015Y0031556D01*
X0081729Y0031257D02*
X0090238Y0031257D01*
X0089940Y0030959D02*
X0073440Y0030959D01*
X0073141Y0030660D02*
X0089641Y0030660D01*
X0089343Y0030362D02*
X0073000Y0030362D01*
X0073000Y0030063D02*
X0089044Y0030063D01*
X0088746Y0029765D02*
X0073000Y0029765D01*
X0073000Y0029466D02*
X0088447Y0029466D01*
X0088149Y0029168D02*
X0073000Y0029168D01*
X0073000Y0028869D02*
X0087850Y0028869D01*
X0087552Y0028571D02*
X0073000Y0028571D01*
X0073000Y0028272D02*
X0087253Y0028272D01*
X0086955Y0027974D02*
X0073000Y0027974D01*
X0073000Y0027675D02*
X0086656Y0027675D01*
X0086358Y0027377D02*
X0073000Y0027377D01*
X0073000Y0027078D02*
X0086059Y0027078D01*
X0085761Y0026780D02*
X0073000Y0026780D01*
X0073000Y0026481D02*
X0085462Y0026481D01*
X0085164Y0026183D02*
X0073000Y0026183D01*
X0073000Y0025884D02*
X0084865Y0025884D01*
X0084567Y0025586D02*
X0073000Y0025586D01*
X0073000Y0025287D02*
X0084268Y0025287D01*
X0083970Y0024989D02*
X0073000Y0024989D01*
X0073000Y0024690D02*
X0083671Y0024690D01*
X0083373Y0024392D02*
X0073000Y0024392D01*
X0073000Y0024093D02*
X0083074Y0024093D01*
X0082776Y0023795D02*
X0073000Y0023795D01*
X0073000Y0023496D02*
X0082477Y0023496D01*
X0082179Y0023198D02*
X0073000Y0023198D01*
X0073120Y0022899D02*
X0081880Y0022899D01*
X0081582Y0022601D02*
X0073418Y0022601D01*
X0093500Y0044392D02*
X0103373Y0044392D01*
X0103500Y0044690D02*
X0093500Y0044690D01*
X0093500Y0044989D02*
X0103500Y0044989D01*
X0103500Y0045287D02*
X0093500Y0045287D01*
X0093500Y0045586D02*
X0103500Y0045586D01*
X0103500Y0045884D02*
X0093500Y0045884D01*
X0093500Y0046183D02*
X0103500Y0046183D01*
X0103500Y0046481D02*
X0093500Y0046481D01*
X0093500Y0046780D02*
X0103500Y0046780D01*
X0103500Y0047078D02*
X0093500Y0047078D01*
X0093500Y0047377D02*
X0103500Y0047377D01*
X0103500Y0047675D02*
X0093500Y0047675D01*
X0093500Y0047974D02*
X0103500Y0047974D01*
X0103500Y0048272D02*
X0093500Y0048272D01*
X0093500Y0048571D02*
X0103500Y0048571D01*
X0103500Y0048870D02*
X0093500Y0048870D01*
X0093500Y0049168D02*
X0103500Y0049168D01*
X0103500Y0049467D02*
X0093500Y0049467D01*
X0093500Y0049765D02*
X0103500Y0049765D01*
X0103500Y0050064D02*
X0093500Y0050064D01*
X0093500Y0050362D02*
X0103500Y0050362D01*
X0103500Y0050661D02*
X0093500Y0050661D01*
X0093500Y0050959D02*
X0103500Y0050959D01*
X0103500Y0051258D02*
X0093500Y0051258D01*
X0093500Y0051556D02*
X0103463Y0051556D01*
X0103164Y0051855D02*
X0093500Y0051855D01*
X0093500Y0052153D02*
X0102866Y0052153D01*
X0102567Y0052452D02*
X0093500Y0052452D01*
X0093731Y0052750D02*
X0102269Y0052750D01*
X0101970Y0053049D02*
X0094030Y0053049D01*
X0094328Y0053347D02*
X0101672Y0053347D01*
X0101373Y0053646D02*
X0094627Y0053646D01*
X0094925Y0053944D02*
X0101075Y0053944D01*
X0100776Y0054243D02*
X0095224Y0054243D01*
X0095522Y0054541D02*
X0100478Y0054541D01*
X0100179Y0054840D02*
X0095821Y0054840D01*
X0096119Y0055138D02*
X0099881Y0055138D01*
X0099582Y0055437D02*
X0096418Y0055437D01*
D15*
X0092000Y0054019D02*
X0092000Y0044519D01*
X0080500Y0032519D01*
X0073000Y0032519D01*
X0071500Y0031019D01*
X0071500Y0023019D01*
X0071000Y0022519D01*
X0066000Y0022519D01*
X0065500Y0023019D01*
X0065500Y0031519D01*
X0069500Y0036019D01*
X0075500Y0036019D01*
X0084000Y0044519D01*
X0084000Y0054019D01*
X0085500Y0055519D01*
X0090500Y0055519D01*
X0092000Y0054019D01*
X0092000Y0053838D02*
X0084000Y0053838D01*
X0084000Y0053440D02*
X0092000Y0053440D01*
X0092000Y0053041D02*
X0084000Y0053041D01*
X0084000Y0052643D02*
X0092000Y0052643D01*
X0092000Y0052244D02*
X0084000Y0052244D01*
X0084000Y0051846D02*
X0092000Y0051846D01*
X0092000Y0051447D02*
X0084000Y0051447D01*
X0084000Y0051049D02*
X0092000Y0051049D01*
X0092000Y0050650D02*
X0084000Y0050650D01*
X0084000Y0050252D02*
X0092000Y0050252D01*
X0092000Y0049853D02*
X0084000Y0049853D01*
X0084000Y0049455D02*
X0092000Y0049455D01*
X0092000Y0049056D02*
X0084000Y0049056D01*
X0084000Y0048658D02*
X0092000Y0048658D01*
X0092000Y0048259D02*
X0084000Y0048259D01*
X0084000Y0047861D02*
X0092000Y0047861D01*
X0092000Y0047462D02*
X0084000Y0047462D01*
X0084000Y0047064D02*
X0092000Y0047064D01*
X0092000Y0046665D02*
X0084000Y0046665D01*
X0084000Y0046267D02*
X0092000Y0046267D01*
X0092000Y0045868D02*
X0084000Y0045868D01*
X0084000Y0045470D02*
X0092000Y0045470D01*
X0092000Y0045071D02*
X0084000Y0045071D01*
X0084000Y0044672D02*
X0092000Y0044672D01*
X0091765Y0044274D02*
X0083755Y0044274D01*
X0083357Y0043875D02*
X0091383Y0043875D01*
X0091001Y0043477D02*
X0082958Y0043477D01*
X0082560Y0043078D02*
X0090620Y0043078D01*
X0090238Y0042680D02*
X0082161Y0042680D01*
X0081763Y0042281D02*
X0089856Y0042281D01*
X0089474Y0041883D02*
X0081364Y0041883D01*
X0080966Y0041484D02*
X0089092Y0041484D01*
X0088710Y0041086D02*
X0080567Y0041086D01*
X0080168Y0040687D02*
X0088328Y0040687D01*
X0087946Y0040289D02*
X0079770Y0040289D01*
X0079371Y0039890D02*
X0087564Y0039890D01*
X0087182Y0039492D02*
X0078973Y0039492D01*
X0078574Y0039093D02*
X0086801Y0039093D01*
X0086419Y0038695D02*
X0078176Y0038695D01*
X0077777Y0038296D02*
X0086037Y0038296D01*
X0085655Y0037898D02*
X0077379Y0037898D01*
X0076980Y0037499D02*
X0085273Y0037499D01*
X0084891Y0037101D02*
X0076582Y0037101D01*
X0076183Y0036702D02*
X0084509Y0036702D01*
X0084127Y0036304D02*
X0075785Y0036304D01*
X0075000Y0037519D02*
X0069000Y0037519D01*
X0064000Y0032019D01*
X0064000Y0022519D01*
X0063500Y0022019D01*
X0058000Y0022019D01*
X0057000Y0023019D01*
X0057000Y0032519D01*
X0066000Y0041519D01*
X0070000Y0041519D01*
X0073000Y0044519D01*
X0073000Y0053519D01*
X0075000Y0055519D01*
X0080000Y0055519D01*
X0082000Y0053519D01*
X0082000Y0044519D01*
X0075000Y0037519D01*
X0075379Y0037898D02*
X0062379Y0037898D01*
X0062777Y0038296D02*
X0075777Y0038296D01*
X0076176Y0038695D02*
X0063176Y0038695D01*
X0063574Y0039093D02*
X0076574Y0039093D01*
X0076973Y0039492D02*
X0063973Y0039492D01*
X0064371Y0039890D02*
X0077371Y0039890D01*
X0077770Y0040289D02*
X0064770Y0040289D01*
X0065168Y0040687D02*
X0078168Y0040687D01*
X0078567Y0041086D02*
X0065567Y0041086D01*
X0065966Y0041484D02*
X0078966Y0041484D01*
X0079364Y0041883D02*
X0070364Y0041883D01*
X0070763Y0042281D02*
X0079763Y0042281D01*
X0080161Y0042680D02*
X0071161Y0042680D01*
X0071560Y0043078D02*
X0080560Y0043078D01*
X0080958Y0043477D02*
X0071958Y0043477D01*
X0072357Y0043875D02*
X0081357Y0043875D01*
X0081755Y0044274D02*
X0072755Y0044274D01*
X0073000Y0044672D02*
X0082000Y0044672D01*
X0082000Y0045071D02*
X0073000Y0045071D01*
X0073000Y0045470D02*
X0082000Y0045470D01*
X0082000Y0045868D02*
X0073000Y0045868D01*
X0073000Y0046267D02*
X0082000Y0046267D01*
X0082000Y0046665D02*
X0073000Y0046665D01*
X0073000Y0047064D02*
X0082000Y0047064D01*
X0082000Y0047462D02*
X0073000Y0047462D01*
X0073000Y0047861D02*
X0082000Y0047861D01*
X0082000Y0048259D02*
X0073000Y0048259D01*
X0073000Y0048658D02*
X0082000Y0048658D01*
X0082000Y0049056D02*
X0073000Y0049056D01*
X0073000Y0049455D02*
X0082000Y0049455D01*
X0082000Y0049853D02*
X0073000Y0049853D01*
X0073000Y0050252D02*
X0082000Y0050252D01*
X0082000Y0050650D02*
X0073000Y0050650D01*
X0073000Y0051049D02*
X0082000Y0051049D01*
X0082000Y0051447D02*
X0073000Y0051447D01*
X0073000Y0051846D02*
X0082000Y0051846D01*
X0082000Y0052244D02*
X0073000Y0052244D01*
X0073000Y0052643D02*
X0082000Y0052643D01*
X0082000Y0053041D02*
X0073000Y0053041D01*
X0073000Y0053440D02*
X0082000Y0053440D01*
X0081681Y0053838D02*
X0073319Y0053838D01*
X0073718Y0054237D02*
X0081282Y0054237D01*
X0080884Y0054635D02*
X0074116Y0054635D01*
X0074515Y0055034D02*
X0080485Y0055034D01*
X0080087Y0055432D02*
X0074913Y0055432D01*
X0084218Y0054237D02*
X0091782Y0054237D01*
X0091384Y0054635D02*
X0084616Y0054635D01*
X0085015Y0055034D02*
X0090985Y0055034D01*
X0090587Y0055432D02*
X0085413Y0055432D01*
X0068982Y0037499D02*
X0061980Y0037499D01*
X0061582Y0037101D02*
X0068620Y0037101D01*
X0068258Y0036702D02*
X0061183Y0036702D01*
X0060785Y0036304D02*
X0067895Y0036304D01*
X0067533Y0035905D02*
X0060386Y0035905D01*
X0059988Y0035507D02*
X0067171Y0035507D01*
X0066808Y0035108D02*
X0059589Y0035108D01*
X0059191Y0034710D02*
X0066446Y0034710D01*
X0066084Y0034311D02*
X0058792Y0034311D01*
X0058394Y0033913D02*
X0065722Y0033913D01*
X0065359Y0033514D02*
X0057995Y0033514D01*
X0057597Y0033116D02*
X0064997Y0033116D01*
X0064635Y0032717D02*
X0057198Y0032717D01*
X0057000Y0032319D02*
X0064273Y0032319D01*
X0064000Y0031920D02*
X0057000Y0031920D01*
X0057000Y0031522D02*
X0064000Y0031522D01*
X0064000Y0031123D02*
X0057000Y0031123D01*
X0057000Y0030725D02*
X0064000Y0030725D01*
X0064000Y0030326D02*
X0057000Y0030326D01*
X0057000Y0029928D02*
X0064000Y0029928D01*
X0064000Y0029529D02*
X0057000Y0029529D01*
X0057000Y0029131D02*
X0064000Y0029131D01*
X0064000Y0028732D02*
X0057000Y0028732D01*
X0057000Y0028334D02*
X0064000Y0028334D01*
X0064000Y0027935D02*
X0057000Y0027935D01*
X0057000Y0027537D02*
X0064000Y0027537D01*
X0064000Y0027138D02*
X0057000Y0027138D01*
X0057000Y0026739D02*
X0064000Y0026739D01*
X0064000Y0026341D02*
X0057000Y0026341D01*
X0057000Y0025942D02*
X0064000Y0025942D01*
X0064000Y0025544D02*
X0057000Y0025544D01*
X0057000Y0025145D02*
X0064000Y0025145D01*
X0064000Y0024747D02*
X0057000Y0024747D01*
X0057000Y0024348D02*
X0064000Y0024348D01*
X0064000Y0023950D02*
X0057000Y0023950D01*
X0057000Y0023551D02*
X0064000Y0023551D01*
X0064000Y0023153D02*
X0057000Y0023153D01*
X0057265Y0022754D02*
X0064000Y0022754D01*
X0063837Y0022356D02*
X0057663Y0022356D01*
X0065500Y0023153D02*
X0071500Y0023153D01*
X0071500Y0023551D02*
X0065500Y0023551D01*
X0065500Y0023950D02*
X0071500Y0023950D01*
X0071500Y0024348D02*
X0065500Y0024348D01*
X0065500Y0024747D02*
X0071500Y0024747D01*
X0071500Y0025145D02*
X0065500Y0025145D01*
X0065500Y0025544D02*
X0071500Y0025544D01*
X0071500Y0025942D02*
X0065500Y0025942D01*
X0065500Y0026341D02*
X0071500Y0026341D01*
X0071500Y0026739D02*
X0065500Y0026739D01*
X0065500Y0027138D02*
X0071500Y0027138D01*
X0071500Y0027537D02*
X0065500Y0027537D01*
X0065500Y0027935D02*
X0071500Y0027935D01*
X0071500Y0028334D02*
X0065500Y0028334D01*
X0065500Y0028732D02*
X0071500Y0028732D01*
X0071500Y0029131D02*
X0065500Y0029131D01*
X0065500Y0029529D02*
X0071500Y0029529D01*
X0071500Y0029928D02*
X0065500Y0029928D01*
X0065500Y0030326D02*
X0071500Y0030326D01*
X0071500Y0030725D02*
X0065500Y0030725D01*
X0065500Y0031123D02*
X0071604Y0031123D01*
X0072003Y0031522D02*
X0065502Y0031522D01*
X0065857Y0031920D02*
X0072401Y0031920D01*
X0072800Y0032319D02*
X0066211Y0032319D01*
X0066565Y0032717D02*
X0080690Y0032717D01*
X0081072Y0033116D02*
X0066919Y0033116D01*
X0067274Y0033514D02*
X0081454Y0033514D01*
X0081836Y0033913D02*
X0067628Y0033913D01*
X0067982Y0034311D02*
X0082218Y0034311D01*
X0082600Y0034710D02*
X0068336Y0034710D01*
X0068691Y0035108D02*
X0082981Y0035108D01*
X0083363Y0035507D02*
X0069045Y0035507D01*
X0069399Y0035905D02*
X0083745Y0035905D01*
X0071235Y0022754D02*
X0065765Y0022754D01*
D16*
X0107988Y0031460D03*
X0013500Y0031460D03*
D17*
X0028500Y0041519D02*
X0032500Y0037519D01*
X0032500Y0026519D01*
X0038000Y0021019D01*
X0053500Y0021019D01*
X0054563Y0022082D01*
X0054563Y0027393D01*
X0051000Y0027767D02*
X0050626Y0027393D01*
X0051000Y0027767D02*
X0051000Y0038019D01*
X0054800Y0041819D01*
X0060240Y0041819D01*
X0067440Y0049019D01*
X0068500Y0049019D01*
X0058500Y0049019D02*
X0058000Y0048519D01*
X0054000Y0048519D01*
X0052700Y0049819D01*
X0052700Y0053759D01*
X0050240Y0056219D01*
X0046760Y0056219D01*
X0042752Y0052211D01*
X0042752Y0027393D01*
X0046689Y0027393D02*
X0046689Y0047208D01*
X0048500Y0049019D01*
X0038815Y0048704D02*
X0038500Y0049019D01*
X0038815Y0048704D02*
X0038815Y0027393D01*
X0028500Y0041519D02*
X0028500Y0049019D01*
M02*
