%
M48
M72
T01C0.0150
T02C0.0197
T03C0.0200
T04C0.0400
%
T01
X41196Y10802
X41589Y11196
X41885Y10802
X41589Y10408
X41885Y10015
X42377Y10408
X47199Y8912
X48085Y8912
X50349Y9798
X51235Y9798
X53499Y10684
X54385Y10684
X54503Y11274
X55172Y11963
X56196Y11609
X56766Y11668
X57731Y13263
X58125Y14247
X56510Y14089
X54975Y15133
X54286Y14444
X53499Y15133
X48774Y15133
X47987Y14660
X47199Y15133
X42081Y15034
X41688Y15526
X41294Y15034
X41294Y16019
X41688Y16511
X42081Y16019
X47199Y18381
X51038Y22022
X54089Y23253
X53105Y23696
X53745Y24139
X55073Y24631
X54089Y25763
X54680Y27387
X55467Y27436
X53794Y28322
X52810Y27633
X50644Y28322
X47495Y28322
X43755Y29503
X46707Y30684
X45920Y31471
X47495Y31471
X52219Y31471
X53794Y31471
X53007Y30684
X56491Y31038
X56591Y33083
X61865Y32357
X64030Y31471
X63853Y30743
X63459Y29444
X62948Y29365
X63617Y27770
X63892Y27062
X64463Y26924
X64503Y26452
X62416Y25802
X60930Y26796
X58814Y26648
X56451Y28617
X64286Y25074
X66196Y24030
X64739Y23597
X63597Y23597
X62219Y23420
X62199Y22396
X62022Y21707
X60408Y20861
X59601Y20526
X58676Y19522
X58125Y18971
X56589Y19641
X60329Y18558
X60625Y17810
X61865Y17318
X61491Y17081
X62022Y16530
X62672Y16373
X62790Y15881
X62849Y15389
X62042Y15034
X62318Y14345
X63262Y14700
X63715Y14739
X64148Y14483
X65487Y14562
X67160Y14030
X69168Y13282
X69640Y13459
X69621Y14700
X70428Y15034
X69877Y15428
X68322Y15723
X68774Y16727
X68774Y17475
X70762Y17141
X70959Y17810
X71629Y18952
X66392Y19857
X65014Y20251
X64030Y19877
X64050Y18893
X64050Y18105
X64345Y16707
X64030Y15900
X66156Y15723
X63302Y13538
X63262Y12869
X62140Y12830
X62436Y11806
X63715Y11058
X62810Y10743
X60133Y11176
X58223Y10408
X58223Y9621
X58223Y8833
X56550Y8912
X55546Y9995
X55034Y7810
X55546Y7377
X54385Y7337
X51235Y7337
X49168Y5979
X48085Y5093
X47593Y4601
X47199Y4109
X46707Y4601
X46215Y4207
X45723Y4601
X46215Y5093
X47199Y5093
X48085Y4109
X54385Y4267
X57652Y5625
X60329Y5625
X63440Y4946
X64030Y5290
X66294Y5290
X67180Y4995
X68656Y5861
X67672Y6570
X66392Y7505
X65211Y7062
X69148Y7298
X69601Y7062
X70329Y6570
X70014Y6078
X74759Y6570
X75448Y7948
X76432Y8046
X78007Y7849
X77396Y7062
X80546Y7062
X83696Y7062
X86471Y4503
X87160Y4503
X87849Y4404
X87849Y3715
X87357Y3223
X87160Y3814
X86471Y3814
X86668Y3223
X71806Y8637
X70113Y8853
X69070Y9227
X68302Y9365
X68302Y10349
X69522Y11097
X69857Y11471
X71215Y10999
X71904Y11491
X75644Y10802
X77121Y9621
X77514Y11294
X78184Y11736
X77022Y11983
X79778Y13361
X79385Y14148
X77180Y16314
X74660Y15920
X80408Y17889
X82062Y16333
X87967Y15969
X87948Y19168
X87455Y19365
X87455Y19956
X87948Y20202
X87948Y19709
X88440Y19463
X88440Y19956
X85349Y20743
X85487Y23007
X86077Y23597
X86668Y23007
X88735Y23991
X89227Y23745
X89247Y24267
X89227Y24778
X88735Y24483
X91550Y24759
X88518Y26727
X85270Y25959
X82140Y25959
X79778Y26648
X78991Y25959
X78164Y26156
X78154Y26894
X76383Y25910
X73755Y26786
X71707Y27475
X70428Y26530
X70093Y26156
X67593Y25172
X68341Y24719
X68341Y24050
X69896Y24247
X69306Y23578
X68636Y22337
X68932Y21707
X69306Y22042
X71294Y22219
X72199Y21353
X66806Y23125
X64640Y21963
X62140Y20723
X60920Y19345
X49857Y23656
X46707Y23597
X43755Y24089
X59207Y24089
X62022Y24719
X68302Y27889
X70762Y28558
X73676Y27633
X73823Y29946
X72692Y30330
X69247Y31491
X71097Y31767
X69699Y32692
X68322Y34070
X68322Y35093
X67003Y34956
X69936Y35270
X71274Y36176
X73774Y34522
X75585Y34601
X76383Y34424
X81471Y32180
X78646Y30930
X79040Y30093
X79778Y30644
X77465Y29650
X78696Y28469
X82948Y30644
X86077Y30684
X91373Y29522
X90172Y34542
X72711Y38341
X63184Y34956
X64955Y32318
X66570Y31117
X79778Y23597
X79188Y23007
X80369Y23007
X81333Y11736
X84483Y11786
X65211Y10330
X63814Y9306
X63184Y8952
X64483Y8971
X60782Y8873
X60388Y8459
X52022Y11963
X48892Y12160
X48085Y7239
T02
X46560Y5979
X52888Y5625
X46392Y8893
X49483Y9798
X52751Y10704
X62849Y9306
X69394Y10408
X74660Y13656
X82239Y9522
X85388Y10310
X79089Y8735
X84995Y13459
X55615Y19414
X55861Y21481
X46412Y22022
X45133Y25369
X48282Y26156
X51432Y26944
X76432Y32209
X76383Y34916
X86570Y32357
X87733Y28912
X84583Y28125
X81483Y27337
T03
X80566Y27337
X79680Y27337
X75841Y28125
X75841Y28912
X75841Y29700
X82829Y28125
X83715Y28125
X85979Y28912
X86865Y28912
X72298Y22613
X56845Y24483
X56845Y25369
X56845Y26255
X53007Y26944
X52219Y26944
X49857Y26156
X49070Y26156
X46707Y25369
X45920Y25369
X51629Y20369
X74070Y10999
X74070Y10113
X74070Y9227
X78105Y8735
X79975Y8735
X81255Y9522
X83125Y9522
X84503Y10310
X86274Y10310
T04
X89964Y12967
X90064Y13967
X89964Y14967
X90064Y15967
X89964Y17298
X90064Y18298
X89964Y19298
X90064Y20298
X85961Y35597
X84961Y35597
X83961Y35597
X82961Y35597
X81961Y35597
X81961Y36597
X82961Y36597
X83961Y36597
X84961Y36597
X85961Y36597
X84448Y38508
X83448Y38608
X82448Y38508
X81448Y38608
X80448Y38508
X79448Y38608
X78448Y38508
X77448Y38608
X76448Y38508
X75448Y38608
X57282Y38508
X56282Y38608
X55282Y38508
X54282Y38608
X53282Y38508
X52282Y38608
X51282Y38508
X50282Y38608
X49282Y38508
X48282Y38608
X44001Y20448
X43901Y19448
X44001Y18448
X43901Y17448
X44001Y16117
X43901Y15117
X44001Y14117
X43901Y13117
X48282Y1600
X49282Y1500
X50282Y1600
X51282Y1500
X52282Y1600
X53282Y1500
X54282Y1600
X55282Y1500
X56282Y1600
X57282Y1500
X75448Y1600
X76448Y1500
X77448Y1600
X78448Y1500
X79448Y1600
X80448Y1500
X81448Y1600
X82448Y1500
X83448Y1600
X84448Y1500
M30
