G75*
G70*
%OFA0B0*%
%FSLAX24Y24*%
%IPPOS*%
%LPD*%
%AMOC8*
5,1,8,0,0,1.08239X$1,22.5*
%
%ADD10R,0.0472X0.0315*%
%ADD11R,0.0315X0.0098*%
%ADD12C,0.0050*%
%ADD13R,0.0315X0.0472*%
%ADD14R,0.0580X0.0200*%
%ADD15R,0.0200X0.0580*%
%ADD16R,0.0551X0.0472*%
%ADD17R,0.0630X0.1378*%
%ADD18R,0.0217X0.0472*%
%ADD19R,0.0787X0.0240*%
%ADD20R,0.0787X0.0236*%
%ADD21R,0.1417X0.1055*%
%ADD22R,0.0354X0.0315*%
%ADD23R,0.0610X0.0512*%
%ADD24R,0.1378X0.0630*%
D10*
X050349Y004050D03*
X050349Y004759D03*
X052495Y005074D03*
X053243Y005074D03*
X053243Y004365D03*
X052495Y004365D03*
X055566Y005034D03*
X056648Y005034D03*
X056648Y005743D03*
X055566Y005743D03*
X056353Y006688D03*
X056353Y007396D03*
X060388Y007081D03*
X061274Y007081D03*
X062160Y007081D03*
X062160Y007790D03*
X061274Y007790D03*
X060388Y007790D03*
X060881Y011412D03*
X060881Y012121D03*
X059995Y012298D03*
X059995Y013007D03*
X059010Y013184D03*
X059010Y013893D03*
X069936Y012830D03*
X070920Y012830D03*
X071904Y012830D03*
X071904Y012121D03*
X070920Y012121D03*
X069936Y012121D03*
X072987Y013794D03*
X072987Y014503D03*
X072987Y015172D03*
X072298Y015192D03*
X072298Y014483D03*
X072987Y015881D03*
X075349Y015192D03*
X075349Y014483D03*
X076235Y014483D03*
X076235Y015192D03*
X078548Y015044D03*
X078548Y014335D03*
X075841Y012830D03*
X075841Y012121D03*
X071314Y008302D03*
X071314Y007593D03*
X072495Y007515D03*
X072495Y006806D03*
X073676Y006333D03*
X073676Y005625D03*
X067131Y004119D03*
X067131Y003410D03*
X058125Y019454D03*
X058125Y020162D03*
X058125Y020733D03*
X058912Y020802D03*
X058912Y020093D03*
X058125Y021442D03*
X059207Y022702D03*
X060142Y022702D03*
X061028Y022702D03*
X061028Y023410D03*
X060142Y023410D03*
X059207Y023410D03*
X055270Y023263D03*
X055270Y022554D03*
X055615Y020950D03*
X054778Y020950D03*
X054778Y020241D03*
X055615Y020241D03*
X052514Y020339D03*
X052514Y021048D03*
X063489Y022357D03*
X063489Y023066D03*
X059601Y027081D03*
X059601Y027790D03*
X058617Y027869D03*
X058617Y028578D03*
X057633Y028755D03*
X057633Y029463D03*
X051333Y034660D03*
X050349Y034660D03*
X050349Y035369D03*
X051333Y035369D03*
X062849Y035841D03*
X062849Y036550D03*
X065211Y036550D03*
X065211Y035841D03*
X067573Y035841D03*
X067573Y036550D03*
X069936Y036550D03*
X069936Y035841D03*
X074611Y034483D03*
X074611Y033774D03*
X073823Y033843D03*
X073823Y033135D03*
X074611Y033204D03*
X074611Y032495D03*
X073725Y031481D03*
X072741Y031481D03*
X071757Y031481D03*
X071757Y030772D03*
X072741Y030772D03*
X073725Y030772D03*
X077416Y030920D03*
X077416Y031629D03*
X080172Y032790D03*
X080172Y033499D03*
X077908Y033646D03*
X077072Y033646D03*
X077072Y032938D03*
X077908Y032938D03*
X077416Y036707D03*
X076235Y036629D03*
X075054Y036629D03*
X075054Y037337D03*
X076235Y037337D03*
X077416Y037416D03*
X073233Y027200D03*
X073233Y026491D03*
X074217Y026412D03*
X074217Y025704D03*
X075152Y025526D03*
X075152Y024818D03*
D11*
X074691Y027220D03*
X074691Y027480D03*
X074691Y027740D03*
X074691Y028000D03*
X074691Y028260D03*
X074691Y028520D03*
X074691Y028780D03*
X074689Y029040D03*
X074691Y029300D03*
X074691Y029560D03*
X074691Y029820D03*
X074691Y030080D03*
X074691Y030340D03*
X074691Y030600D03*
X076991Y030600D03*
X076991Y030340D03*
X076991Y030080D03*
X076991Y029820D03*
X076991Y029560D03*
X076991Y029300D03*
X076994Y029040D03*
X076991Y028780D03*
X076991Y028520D03*
X076991Y028260D03*
X076991Y028000D03*
X076991Y027740D03*
X076991Y027480D03*
X076991Y027220D03*
X057995Y027061D03*
X057995Y026801D03*
X057995Y026541D03*
X057995Y026281D03*
X057995Y026021D03*
X057995Y025761D03*
X057995Y025501D03*
X057998Y025241D03*
X057995Y024981D03*
X057995Y024721D03*
X057995Y024461D03*
X057995Y024201D03*
X057995Y023941D03*
X057995Y023681D03*
X055695Y023681D03*
X055695Y023941D03*
X055695Y024201D03*
X055695Y024461D03*
X055695Y024721D03*
X055695Y024981D03*
X055693Y025241D03*
X055695Y025501D03*
X055695Y025761D03*
X055695Y026021D03*
X055695Y026281D03*
X055695Y026541D03*
X055695Y026801D03*
X055695Y027061D03*
X072920Y011801D03*
X072920Y011541D03*
X072920Y011281D03*
X072920Y011021D03*
X072920Y010761D03*
X072920Y010501D03*
X072917Y010241D03*
X072920Y009981D03*
X072920Y009721D03*
X072920Y009461D03*
X072920Y009201D03*
X072920Y008941D03*
X072920Y008681D03*
X072920Y008421D03*
X075220Y008421D03*
X075220Y008681D03*
X075220Y008941D03*
X075220Y009201D03*
X075220Y009461D03*
X075220Y009721D03*
X075220Y009981D03*
X075222Y010241D03*
X075220Y010501D03*
X075220Y010761D03*
X075220Y011021D03*
X075220Y011281D03*
X075220Y011541D03*
X075220Y011801D03*
X059373Y011293D03*
X059373Y011033D03*
X059373Y010773D03*
X059373Y010513D03*
X059373Y010253D03*
X059373Y009993D03*
X059373Y009733D03*
X059375Y009473D03*
X059373Y009213D03*
X059373Y008953D03*
X059373Y008693D03*
X059373Y008433D03*
X059373Y008173D03*
X059373Y007913D03*
X057073Y007913D03*
X057073Y008173D03*
X057073Y008433D03*
X057073Y008693D03*
X057073Y008953D03*
X057073Y009213D03*
X057071Y009473D03*
X057073Y009733D03*
X057073Y009993D03*
X057073Y010253D03*
X057073Y010513D03*
X057073Y010773D03*
X057073Y011033D03*
X057073Y011293D03*
D12*
X057928Y009896D02*
X058518Y009896D01*
X058518Y009306D01*
X057928Y009306D01*
X057928Y009896D01*
X057928Y009875D02*
X058518Y009875D01*
X058518Y009826D02*
X057928Y009826D01*
X057928Y009778D02*
X058518Y009778D01*
X058518Y009729D02*
X057928Y009729D01*
X057928Y009681D02*
X058518Y009681D01*
X058518Y009632D02*
X057928Y009632D01*
X057928Y009584D02*
X058518Y009584D01*
X058518Y009535D02*
X057928Y009535D01*
X057928Y009487D02*
X058518Y009487D01*
X058518Y009438D02*
X057928Y009438D01*
X057928Y009390D02*
X058518Y009390D01*
X058518Y009341D02*
X057928Y009341D01*
X073774Y009818D02*
X073774Y010408D01*
X074365Y010408D01*
X074365Y009818D01*
X073774Y009818D01*
X073774Y009826D02*
X074365Y009826D01*
X074365Y009875D02*
X073774Y009875D01*
X073774Y009923D02*
X074365Y009923D01*
X074365Y009972D02*
X073774Y009972D01*
X073774Y010020D02*
X074365Y010020D01*
X074365Y010069D02*
X073774Y010069D01*
X073774Y010117D02*
X074365Y010117D01*
X074365Y010166D02*
X073774Y010166D01*
X073774Y010214D02*
X074365Y010214D01*
X074365Y010263D02*
X073774Y010263D01*
X073774Y010311D02*
X074365Y010311D01*
X074365Y010360D02*
X073774Y010360D01*
X057140Y025074D02*
X056550Y025074D01*
X056550Y025664D01*
X057140Y025664D01*
X057140Y025074D01*
X057140Y025104D02*
X056550Y025104D01*
X056550Y025153D02*
X057140Y025153D01*
X057140Y025201D02*
X056550Y025201D01*
X056550Y025250D02*
X057140Y025250D01*
X057140Y025298D02*
X056550Y025298D01*
X056550Y025347D02*
X057140Y025347D01*
X057140Y025395D02*
X056550Y025395D01*
X056550Y025444D02*
X057140Y025444D01*
X057140Y025492D02*
X056550Y025492D01*
X056550Y025541D02*
X057140Y025541D01*
X057140Y025589D02*
X056550Y025589D01*
X056550Y025638D02*
X057140Y025638D01*
X075546Y028617D02*
X075546Y029207D01*
X076136Y029207D01*
X076136Y028617D01*
X075546Y028617D01*
X075546Y028645D02*
X076136Y028645D01*
X076136Y028693D02*
X075546Y028693D01*
X075546Y028742D02*
X076136Y028742D01*
X076136Y028790D02*
X075546Y028790D01*
X075546Y028839D02*
X076136Y028839D01*
X076136Y028887D02*
X075546Y028887D01*
X075546Y028936D02*
X076136Y028936D01*
X076136Y028984D02*
X075546Y028984D01*
X075546Y029033D02*
X076136Y029033D01*
X076136Y029081D02*
X075546Y029081D01*
X075546Y029130D02*
X076136Y029130D01*
X076136Y029178D02*
X075546Y029178D01*
D13*
X078046Y029109D03*
X078755Y029109D03*
X078755Y027928D03*
X078046Y027928D03*
X077849Y030389D03*
X078558Y030389D03*
X080211Y030290D03*
X080920Y030290D03*
X083361Y030290D03*
X084070Y030290D03*
X086510Y030241D03*
X087219Y030241D03*
X080674Y032013D03*
X079965Y032013D03*
X079345Y032013D03*
X078636Y032013D03*
X075359Y031373D03*
X074650Y031373D03*
X072455Y029306D03*
X071747Y029306D03*
X071570Y028026D03*
X070861Y028026D03*
X070861Y026845D03*
X071570Y026845D03*
X071570Y026038D03*
X070861Y026038D03*
X065837Y023139D03*
X065129Y023139D03*
X064975Y022367D03*
X064266Y022367D03*
X058331Y022810D03*
X057623Y022810D03*
X054936Y023814D03*
X054227Y023814D03*
X052573Y023893D03*
X051865Y023893D03*
X049424Y023991D03*
X048715Y023991D03*
X046274Y023991D03*
X045566Y023991D03*
X052012Y021973D03*
X052721Y021973D03*
X053341Y021973D03*
X054050Y021973D03*
X053361Y019316D03*
X052652Y019316D03*
X054030Y025133D03*
X054739Y025133D03*
X054739Y026353D03*
X054030Y026353D03*
X053361Y028715D03*
X052652Y028715D03*
X050211Y028715D03*
X049503Y028715D03*
X047062Y028715D03*
X046353Y028715D03*
X057278Y033637D03*
X057987Y033637D03*
X055625Y035113D03*
X054916Y035113D03*
X054916Y035999D03*
X055625Y035999D03*
X061215Y028617D03*
X061924Y028617D03*
X061924Y027436D03*
X061215Y027436D03*
X061215Y026255D03*
X061924Y026255D03*
X061038Y024975D03*
X060329Y024975D03*
X079424Y025566D03*
X080133Y025566D03*
X082573Y025566D03*
X083282Y025566D03*
X085723Y025566D03*
X086432Y025566D03*
X080034Y034572D03*
X079325Y034572D03*
X078459Y016019D03*
X077751Y016019D03*
X077770Y013361D03*
X078440Y013361D03*
X079148Y013361D03*
X077062Y013361D03*
X073636Y012672D03*
X072928Y012672D03*
X076274Y011294D03*
X076983Y011294D03*
X078735Y011491D03*
X079444Y011491D03*
X081885Y011491D03*
X082593Y011491D03*
X085034Y011491D03*
X085743Y011491D03*
X076983Y010408D03*
X076274Y010408D03*
X076373Y009129D03*
X077081Y009129D03*
X077948Y006767D03*
X078656Y006767D03*
X081097Y006767D03*
X081806Y006767D03*
X084247Y006767D03*
X084955Y006767D03*
X070684Y010900D03*
X069975Y010900D03*
X069503Y009719D03*
X068794Y009719D03*
X068794Y008774D03*
X069503Y008774D03*
X069503Y007751D03*
X068794Y007751D03*
X062810Y010192D03*
X062101Y010192D03*
X062101Y011274D03*
X062810Y011274D03*
X062810Y012357D03*
X062101Y012357D03*
X056018Y010585D03*
X055310Y010585D03*
X055349Y009188D03*
X056058Y009188D03*
X056215Y008223D03*
X055507Y008223D03*
X053853Y007731D03*
X053144Y007731D03*
X050703Y007731D03*
X049995Y007731D03*
X047554Y007731D03*
X046845Y007731D03*
X049601Y006078D03*
X050310Y006078D03*
X050979Y006078D03*
X051688Y006078D03*
X049719Y004404D03*
X049010Y004404D03*
X055703Y004306D03*
X056412Y004306D03*
X058853Y007042D03*
X059562Y007042D03*
X061510Y009011D03*
X062219Y009011D03*
X054640Y012357D03*
X053932Y012357D03*
X051491Y012357D03*
X050782Y012357D03*
X048341Y012456D03*
X047633Y012456D03*
D14*
X063442Y015775D03*
X063442Y016085D03*
X063442Y016405D03*
X063442Y016715D03*
X063442Y017035D03*
X063442Y017345D03*
X063442Y017665D03*
X063442Y017975D03*
X063442Y018295D03*
X063442Y018605D03*
X063442Y018925D03*
X063442Y019235D03*
X063442Y019555D03*
X063442Y019865D03*
X063442Y020185D03*
X063442Y020495D03*
X069442Y020495D03*
X069442Y020185D03*
X069442Y019865D03*
X069442Y019555D03*
X069442Y019235D03*
X069442Y018925D03*
X069442Y018605D03*
X069442Y018295D03*
X069442Y017975D03*
X069442Y017665D03*
X069442Y017345D03*
X069442Y017035D03*
X069442Y016715D03*
X069442Y016405D03*
X069442Y016085D03*
X069442Y015775D03*
D15*
X068802Y015135D03*
X068492Y015135D03*
X068172Y015135D03*
X067862Y015135D03*
X067542Y015135D03*
X067232Y015135D03*
X066912Y015135D03*
X066602Y015135D03*
X066282Y015135D03*
X065972Y015135D03*
X065652Y015135D03*
X065342Y015135D03*
X065022Y015135D03*
X064712Y015135D03*
X064392Y015135D03*
X064082Y015135D03*
X064082Y021135D03*
X064392Y021135D03*
X064712Y021135D03*
X065022Y021135D03*
X065342Y021135D03*
X065652Y021135D03*
X065972Y021135D03*
X066282Y021135D03*
X066602Y021135D03*
X066912Y021135D03*
X067232Y021135D03*
X067542Y021135D03*
X067862Y021135D03*
X068172Y021135D03*
X068492Y021135D03*
X068802Y021135D03*
D16*
X069936Y037456D03*
X069936Y038637D03*
X067573Y038637D03*
X065211Y038637D03*
X065211Y037456D03*
X067573Y037456D03*
X062849Y037456D03*
X062849Y038637D03*
D17*
X053203Y037062D03*
X053203Y034936D03*
X065162Y004926D03*
X065162Y002800D03*
D18*
X054759Y004483D03*
X054010Y004483D03*
X054010Y005507D03*
X054385Y005507D03*
X054759Y005507D03*
X051707Y005408D03*
X051333Y005408D03*
X050959Y005408D03*
X050959Y004385D03*
X051707Y004385D03*
X073843Y014326D03*
X074217Y014326D03*
X074591Y014326D03*
X074591Y015349D03*
X073843Y015349D03*
X076944Y015349D03*
X077692Y015349D03*
X077692Y014326D03*
X077318Y014326D03*
X076944Y014326D03*
X057022Y020083D03*
X056274Y020083D03*
X056274Y021107D03*
X056648Y021107D03*
X057022Y021107D03*
X054119Y021107D03*
X053745Y021107D03*
X053371Y021107D03*
X053371Y020083D03*
X054119Y020083D03*
X075664Y032780D03*
X076038Y032780D03*
X076412Y032780D03*
X078568Y032780D03*
X078942Y032780D03*
X079316Y032780D03*
X079316Y033804D03*
X078568Y033804D03*
X076412Y033804D03*
X075664Y033804D03*
D19*
X091589Y029109D03*
X091589Y028715D03*
X091589Y028322D03*
X091589Y027928D03*
X091589Y027534D03*
X091589Y026747D03*
X091589Y026353D03*
X091589Y025959D03*
X091589Y025566D03*
X091589Y025172D03*
X091589Y006668D03*
X091589Y006274D03*
X091589Y005881D03*
X091589Y005487D03*
X091589Y005093D03*
X091589Y004306D03*
X091589Y003912D03*
X091589Y003519D03*
X091589Y003125D03*
X091589Y002731D03*
X041196Y002731D03*
X041196Y003125D03*
X041196Y003519D03*
X041196Y003912D03*
X041196Y004306D03*
X041196Y005093D03*
X041196Y005487D03*
X041196Y005881D03*
X041196Y006274D03*
X041196Y006668D03*
X041196Y025172D03*
X041196Y025566D03*
X041196Y025959D03*
X041196Y026353D03*
X041196Y026747D03*
X041196Y027534D03*
X041196Y027928D03*
X041196Y028322D03*
X041196Y028715D03*
X041196Y029109D03*
D20*
X041196Y027141D03*
X091589Y027141D03*
X091589Y004700D03*
X041196Y004700D03*
D21*
X040093Y001550D03*
X040093Y007849D03*
X040093Y023991D03*
X040093Y030290D03*
X092692Y030290D03*
X092692Y023991D03*
X092692Y007849D03*
X092692Y001550D03*
D22*
X082032Y004355D03*
X081205Y003981D03*
X081205Y004729D03*
X051550Y014365D03*
X050723Y014739D03*
X051550Y015113D03*
X082534Y022830D03*
X082534Y023578D03*
X083361Y023204D03*
X050251Y030704D03*
X049424Y031078D03*
X050251Y031452D03*
D23*
X057692Y030930D03*
X060822Y030930D03*
X060822Y032702D03*
X057692Y032702D03*
D24*
X049640Y036294D03*
X047514Y036294D03*
M02*
