G75*
G70*
%OFA0B0*%
%FSLAX24Y24*%
%IPPOS*%
%LPD*%
%AMOC8*
5,1,8,0,0,1.08239X$1,22.5*
%
%ADD10R,0.2718X0.2718*%
%ADD11R,0.0710X0.1261*%
%ADD12C,0.0820*%
%ADD13R,0.0552X0.0395*%
%ADD14R,0.0789X0.1340*%
%ADD15R,0.0395X0.0552*%
%ADD16R,0.1458X0.0710*%
%ADD17R,0.1080X0.1480*%
%ADD18OC8,0.0820*%
%ADD19R,0.0820X0.0820*%
%ADD20C,0.0477*%
%ADD21R,0.0710X0.1458*%
%ADD22C,0.0390*%
%ADD23C,0.0440*%
D10*
X047199Y009700D03*
X050349Y009700D03*
X053499Y009700D03*
X054286Y014424D03*
X051136Y014424D03*
X047987Y014424D03*
X049070Y025959D03*
X045920Y025959D03*
X052219Y025959D03*
X053007Y030684D03*
X049857Y030684D03*
X046707Y030684D03*
X079778Y023597D03*
X082928Y023597D03*
X086077Y023597D03*
X086865Y028322D03*
X083715Y028322D03*
X080566Y028322D03*
X079089Y009522D03*
X082239Y009522D03*
X085388Y009522D03*
X084601Y004798D03*
X081451Y004798D03*
X078302Y004798D03*
D11*
X079207Y007062D03*
X080546Y007062D03*
X082357Y007062D03*
X083696Y007062D03*
X085507Y007062D03*
X077396Y007062D03*
X078184Y011786D03*
X079995Y011786D03*
X081333Y011786D03*
X083144Y011786D03*
X084483Y011786D03*
X086294Y011786D03*
X055192Y012160D03*
X053381Y012160D03*
X052042Y012160D03*
X050231Y012160D03*
X048892Y012160D03*
X047081Y012160D03*
X046294Y007436D03*
X048105Y007436D03*
X049444Y007436D03*
X051255Y007436D03*
X052593Y007436D03*
X054404Y007436D03*
X053125Y023696D03*
X051314Y023696D03*
X049975Y023696D03*
X048164Y023696D03*
X046825Y023696D03*
X045014Y023696D03*
X045802Y028420D03*
X047613Y028420D03*
X048951Y028420D03*
X050762Y028420D03*
X052101Y028420D03*
X053912Y028420D03*
X078873Y025861D03*
X080684Y025861D03*
X082022Y025861D03*
X083833Y025861D03*
X085172Y025861D03*
X086983Y025861D03*
X087770Y030585D03*
X085959Y030585D03*
X084621Y030585D03*
X082810Y030585D03*
X081471Y030585D03*
X079660Y030585D03*
D12*
X080448Y038508D03*
X081448Y038608D03*
X082448Y038508D03*
X083448Y038608D03*
X084448Y038508D03*
X079448Y038608D03*
X078448Y038508D03*
X077448Y038608D03*
X076448Y038508D03*
X075448Y038608D03*
X057282Y038508D03*
X056282Y038608D03*
X055282Y038508D03*
X054282Y038608D03*
X053282Y038508D03*
X052282Y038608D03*
X051282Y038508D03*
X050282Y038608D03*
X049282Y038508D03*
X048282Y038608D03*
X090064Y020298D03*
X089964Y019298D03*
X090064Y018298D03*
X090064Y015967D03*
X089964Y014967D03*
X090064Y013967D03*
X084448Y001500D03*
X083448Y001600D03*
X082448Y001500D03*
X081448Y001600D03*
X080448Y001500D03*
X079448Y001600D03*
X078448Y001500D03*
X077448Y001600D03*
X076448Y001500D03*
X075448Y001600D03*
X057282Y001500D03*
X056282Y001600D03*
X055282Y001500D03*
X054282Y001600D03*
X053282Y001500D03*
X052282Y001600D03*
X051282Y001500D03*
X050282Y001600D03*
X049282Y001500D03*
X048282Y001600D03*
X043901Y013117D03*
X044001Y014117D03*
X043901Y015117D03*
X043901Y017448D03*
X044001Y018448D03*
X043901Y019448D03*
D13*
X045900Y023341D03*
X045900Y024050D03*
X049070Y024030D03*
X049070Y023322D03*
X052259Y023341D03*
X052259Y024050D03*
X049857Y027967D03*
X049857Y028676D03*
X046727Y028696D03*
X046727Y027987D03*
X053026Y028125D03*
X053026Y028833D03*
X044198Y030920D03*
X044198Y031629D03*
X079798Y026156D03*
X079798Y025448D03*
X082908Y025467D03*
X082908Y026176D03*
X086097Y026156D03*
X086097Y025448D03*
X088587Y023361D03*
X088587Y022652D03*
X086845Y030211D03*
X086845Y030920D03*
X083715Y030920D03*
X083715Y030211D03*
X080566Y030172D03*
X080566Y030881D03*
X054247Y012495D03*
X054247Y011786D03*
X051136Y011786D03*
X051136Y012495D03*
X047987Y012495D03*
X047987Y011786D03*
X047160Y007751D03*
X047160Y007042D03*
X050349Y007062D03*
X050349Y007770D03*
X053479Y007790D03*
X053479Y007081D03*
X078302Y007377D03*
X078302Y006668D03*
X081432Y006747D03*
X081432Y007456D03*
X084581Y007416D03*
X084581Y006707D03*
X089818Y003135D03*
X089818Y002426D03*
X085408Y011491D03*
X085408Y012200D03*
X082219Y012121D03*
X082219Y011412D03*
X079089Y011452D03*
X079089Y012160D03*
D14*
X086156Y013164D03*
X088361Y013164D03*
X050959Y004601D03*
X048755Y004601D03*
X045644Y022170D03*
X043440Y022170D03*
X087731Y032505D03*
X089936Y032505D03*
D15*
X066058Y018676D03*
X065349Y018676D03*
X065349Y017889D03*
X066058Y017889D03*
X041255Y009522D03*
X040546Y009522D03*
D16*
X040133Y005093D03*
X042259Y005093D03*
X042406Y024680D03*
X040280Y024680D03*
X040280Y027633D03*
X042406Y027633D03*
X090329Y027387D03*
X092455Y027387D03*
X092455Y030192D03*
X090329Y030192D03*
X090477Y010330D03*
X092603Y010330D03*
X092711Y007357D03*
X090585Y007357D03*
D17*
X090054Y004459D03*
X092854Y004459D03*
X092814Y024538D03*
X090014Y024538D03*
X042721Y030580D03*
X039921Y030580D03*
X039892Y007873D03*
X042692Y007873D03*
D18*
X081961Y035597D03*
X082961Y035597D03*
X083961Y035597D03*
X084961Y035597D03*
X085961Y035597D03*
X085961Y036597D03*
X084961Y036597D03*
X083961Y036597D03*
X082961Y036597D03*
X081961Y036597D03*
D19*
X044001Y020448D03*
X044001Y016117D03*
X089964Y017298D03*
X089964Y012967D03*
D20*
X084995Y013459D03*
X085388Y010310D03*
X082239Y009522D03*
X079089Y008735D03*
X069394Y010408D03*
X062849Y009306D03*
X052751Y010704D03*
X049483Y009798D03*
X046392Y008893D03*
X046560Y005979D03*
X052888Y005625D03*
X074660Y013656D03*
X055615Y019414D03*
X055861Y021481D03*
X046412Y022022D03*
X045133Y025369D03*
X048282Y026156D03*
X051432Y026944D03*
X076432Y032209D03*
X076383Y034916D03*
X086570Y032357D03*
X087733Y028912D03*
X084583Y028125D03*
X081483Y027337D03*
D21*
X044109Y004207D03*
X044109Y002081D03*
D22*
X046215Y004207D03*
X045723Y004601D03*
X046215Y005093D03*
X046707Y004601D03*
X047199Y004109D03*
X047593Y004601D03*
X047199Y005093D03*
X048085Y005093D03*
X048085Y004109D03*
X049168Y005979D03*
X048085Y007239D03*
X048085Y008912D03*
X047199Y008912D03*
X050349Y009798D03*
X051235Y009798D03*
X053499Y010684D03*
X054385Y010684D03*
X054503Y011274D03*
X055172Y011963D03*
X056196Y011609D03*
X056766Y011668D03*
X057731Y013263D03*
X058125Y014247D03*
X056510Y014089D03*
X054975Y015133D03*
X054286Y014444D03*
X053499Y015133D03*
X048774Y015133D03*
X047987Y014660D03*
X047199Y015133D03*
X042081Y015034D03*
X041688Y015526D03*
X041294Y015034D03*
X041294Y016019D03*
X041688Y016511D03*
X042081Y016019D03*
X047199Y018381D03*
X051038Y022022D03*
X054089Y023253D03*
X053105Y023696D03*
X053745Y024139D03*
X055073Y024631D03*
X054089Y025763D03*
X054680Y027387D03*
X055467Y027436D03*
X053794Y028322D03*
X052810Y027633D03*
X050644Y028322D03*
X047495Y028322D03*
X043755Y029503D03*
X046707Y030684D03*
X045920Y031471D03*
X047495Y031471D03*
X052219Y031471D03*
X053794Y031471D03*
X053007Y030684D03*
X056491Y031038D03*
X056591Y033083D03*
X061865Y032357D03*
X064030Y031471D03*
X063853Y030743D03*
X063459Y029444D03*
X062948Y029365D03*
X063617Y027770D03*
X063892Y027062D03*
X064463Y026924D03*
X064503Y026452D03*
X062416Y025802D03*
X060930Y026796D03*
X058814Y026648D03*
X056451Y028617D03*
X064286Y025074D03*
X066196Y024030D03*
X064739Y023597D03*
X063597Y023597D03*
X062219Y023420D03*
X062199Y022396D03*
X062022Y021707D03*
X060408Y020861D03*
X059601Y020526D03*
X058676Y019522D03*
X058125Y018971D03*
X056589Y019641D03*
X060329Y018558D03*
X060625Y017810D03*
X061865Y017318D03*
X061491Y017081D03*
X062022Y016530D03*
X062672Y016373D03*
X062790Y015881D03*
X062849Y015389D03*
X062042Y015034D03*
X062318Y014345D03*
X063262Y014700D03*
X063715Y014739D03*
X064148Y014483D03*
X065487Y014562D03*
X067160Y014030D03*
X069168Y013282D03*
X069640Y013459D03*
X069621Y014700D03*
X070428Y015034D03*
X069877Y015428D03*
X068322Y015723D03*
X068774Y016727D03*
X068774Y017475D03*
X070762Y017141D03*
X070959Y017810D03*
X071629Y018952D03*
X066392Y019857D03*
X065014Y020251D03*
X064030Y019877D03*
X064050Y018893D03*
X064050Y018105D03*
X064345Y016707D03*
X064030Y015900D03*
X066156Y015723D03*
X063302Y013538D03*
X063262Y012869D03*
X062140Y012830D03*
X062436Y011806D03*
X063715Y011058D03*
X062810Y010743D03*
X060133Y011176D03*
X058223Y010408D03*
X058223Y009621D03*
X058223Y008833D03*
X056550Y008912D03*
X055546Y009995D03*
X055034Y007810D03*
X055546Y007377D03*
X054385Y007337D03*
X051235Y007337D03*
X057652Y005625D03*
X060329Y005625D03*
X063440Y004946D03*
X064030Y005290D03*
X066294Y005290D03*
X067180Y004995D03*
X068656Y005861D03*
X067672Y006570D03*
X066392Y007505D03*
X065211Y007062D03*
X069148Y007298D03*
X069601Y007062D03*
X070329Y006570D03*
X070014Y006078D03*
X074759Y006570D03*
X075448Y007948D03*
X076432Y008046D03*
X078007Y007849D03*
X077396Y007062D03*
X080546Y007062D03*
X083696Y007062D03*
X086471Y004503D03*
X087160Y004503D03*
X087849Y004404D03*
X087849Y003715D03*
X087357Y003223D03*
X087160Y003814D03*
X086471Y003814D03*
X086668Y003223D03*
X071806Y008637D03*
X070113Y008853D03*
X069070Y009227D03*
X068302Y009365D03*
X068302Y010349D03*
X069522Y011097D03*
X069857Y011471D03*
X071215Y010999D03*
X071904Y011491D03*
X075644Y010802D03*
X077121Y009621D03*
X077514Y011294D03*
X078184Y011736D03*
X077022Y011983D03*
X079778Y013361D03*
X079385Y014148D03*
X077180Y016314D03*
X074660Y015920D03*
X080408Y017889D03*
X082062Y016333D03*
X087967Y015969D03*
X087948Y019168D03*
X087455Y019365D03*
X087455Y019956D03*
X087948Y020202D03*
X087948Y019709D03*
X088440Y019463D03*
X088440Y019956D03*
X085349Y020743D03*
X085487Y023007D03*
X086077Y023597D03*
X086668Y023007D03*
X088735Y023991D03*
X089227Y023745D03*
X089247Y024267D03*
X089227Y024778D03*
X088735Y024483D03*
X091550Y024759D03*
X088518Y026727D03*
X085270Y025959D03*
X082140Y025959D03*
X079778Y026648D03*
X078991Y025959D03*
X078164Y026156D03*
X078154Y026894D03*
X076383Y025910D03*
X073755Y026786D03*
X071707Y027475D03*
X070428Y026530D03*
X070093Y026156D03*
X067593Y025172D03*
X068341Y024719D03*
X068341Y024050D03*
X069896Y024247D03*
X069306Y023578D03*
X068636Y022337D03*
X068932Y021707D03*
X069306Y022042D03*
X071294Y022219D03*
X072199Y021353D03*
X066806Y023125D03*
X064640Y021963D03*
X062140Y020723D03*
X060920Y019345D03*
X049857Y023656D03*
X046707Y023597D03*
X043755Y024089D03*
X059207Y024089D03*
X062022Y024719D03*
X068302Y027889D03*
X070762Y028558D03*
X073676Y027633D03*
X073823Y029946D03*
X072692Y030330D03*
X069247Y031491D03*
X071097Y031767D03*
X069699Y032692D03*
X068322Y034070D03*
X068322Y035093D03*
X067003Y034956D03*
X069936Y035270D03*
X071274Y036176D03*
X073774Y034522D03*
X075585Y034601D03*
X076383Y034424D03*
X081471Y032180D03*
X078646Y030930D03*
X079040Y030093D03*
X079778Y030644D03*
X077465Y029650D03*
X078696Y028469D03*
X082948Y030644D03*
X086077Y030684D03*
X091373Y029522D03*
X090172Y034542D03*
X072711Y038341D03*
X063184Y034956D03*
X064955Y032318D03*
X066570Y031117D03*
X079778Y023597D03*
X079188Y023007D03*
X080369Y023007D03*
X081333Y011736D03*
X084483Y011786D03*
X065211Y010330D03*
X063814Y009306D03*
X063184Y008952D03*
X064483Y008971D03*
X060782Y008873D03*
X060388Y008459D03*
X052022Y011963D03*
X048892Y012160D03*
X042377Y010408D03*
X041885Y010015D03*
X041589Y010408D03*
X041885Y010802D03*
X041589Y011196D03*
X041196Y010802D03*
X054385Y004267D03*
D23*
X074070Y009227D03*
X074070Y010113D03*
X074070Y010999D03*
X078105Y008735D03*
X079975Y008735D03*
X081255Y009522D03*
X083125Y009522D03*
X084503Y010310D03*
X086274Y010310D03*
X072298Y022613D03*
X079680Y027337D03*
X080566Y027337D03*
X082829Y028125D03*
X083715Y028125D03*
X085979Y028912D03*
X086865Y028912D03*
X075841Y028912D03*
X075841Y028125D03*
X075841Y029700D03*
X056845Y026255D03*
X056845Y025369D03*
X056845Y024483D03*
X053007Y026944D03*
X052219Y026944D03*
X049857Y026156D03*
X049070Y026156D03*
X046707Y025369D03*
X045920Y025369D03*
X051629Y020369D03*
M02*
