G75*
G70*
%OFA0B0*%
%FSLAX24Y24*%
%IPPOS*%
%LPD*%
%AMOC8*
5,1,8,0,0,1.08239X$1,22.5*
%
%ADD10R,0.2638X0.2638*%
%ADD11R,0.0630X0.1181*%
%ADD12C,0.0740*%
%ADD13R,0.0472X0.0315*%
%ADD14R,0.0709X0.1260*%
%ADD15R,0.0315X0.0472*%
%ADD16R,0.1378X0.0630*%
%ADD17R,0.1000X0.1400*%
%ADD18OC8,0.0740*%
%ADD19R,0.0740X0.0740*%
%ADD20C,0.0397*%
%ADD21R,0.0630X0.1378*%
%ADD22C,0.0400*%
%ADD23C,0.0860*%
%ADD24C,0.0310*%
%ADD25C,0.0100*%
%ADD26C,0.0360*%
%ADD27C,0.0160*%
%ADD28C,0.0660*%
%ADD29C,0.1000*%
%ADD30C,0.0240*%
%ADD31C,0.1500*%
%ADD32C,0.0120*%
%ADD33C,0.2540*%
%ADD34C,0.0240*%
%ADD35C,0.0320*%
%ADD36C,0.0560*%
%ADD37C,0.0500*%
%ADD38C,0.0760*%
D10*
X047199Y009700D03*
X050349Y009700D03*
X053499Y009700D03*
X054286Y014424D03*
X051136Y014424D03*
X047987Y014424D03*
X049070Y025959D03*
X045920Y025959D03*
X052219Y025959D03*
X053007Y030684D03*
X049857Y030684D03*
X046707Y030684D03*
X079778Y023597D03*
X082928Y023597D03*
X086077Y023597D03*
X086865Y028322D03*
X083715Y028322D03*
X080566Y028322D03*
X079089Y009522D03*
X082239Y009522D03*
X085388Y009522D03*
X084601Y004798D03*
X081451Y004798D03*
X078302Y004798D03*
D11*
X079207Y007062D03*
X080546Y007062D03*
X082357Y007062D03*
X083696Y007062D03*
X085507Y007062D03*
X077396Y007062D03*
X078184Y011786D03*
X079995Y011786D03*
X081333Y011786D03*
X083144Y011786D03*
X084483Y011786D03*
X086294Y011786D03*
X055192Y012160D03*
X053381Y012160D03*
X052042Y012160D03*
X050231Y012160D03*
X048892Y012160D03*
X047081Y012160D03*
X046294Y007436D03*
X048105Y007436D03*
X049444Y007436D03*
X051255Y007436D03*
X052593Y007436D03*
X054404Y007436D03*
X053125Y023696D03*
X051314Y023696D03*
X049975Y023696D03*
X048164Y023696D03*
X046825Y023696D03*
X045014Y023696D03*
X045802Y028420D03*
X047613Y028420D03*
X048951Y028420D03*
X050762Y028420D03*
X052101Y028420D03*
X053912Y028420D03*
X078873Y025861D03*
X080684Y025861D03*
X082022Y025861D03*
X083833Y025861D03*
X085172Y025861D03*
X086983Y025861D03*
X087770Y030585D03*
X085959Y030585D03*
X084621Y030585D03*
X082810Y030585D03*
X081471Y030585D03*
X079660Y030585D03*
D12*
X080448Y038508D03*
X081448Y038608D03*
X082448Y038508D03*
X083448Y038608D03*
X084448Y038508D03*
X079448Y038608D03*
X078448Y038508D03*
X077448Y038608D03*
X076448Y038508D03*
X075448Y038608D03*
X057282Y038508D03*
X056282Y038608D03*
X055282Y038508D03*
X054282Y038608D03*
X053282Y038508D03*
X052282Y038608D03*
X051282Y038508D03*
X050282Y038608D03*
X049282Y038508D03*
X048282Y038608D03*
X090064Y020298D03*
X089964Y019298D03*
X090064Y018298D03*
X090064Y015967D03*
X089964Y014967D03*
X090064Y013967D03*
X084448Y001500D03*
X083448Y001600D03*
X082448Y001500D03*
X081448Y001600D03*
X080448Y001500D03*
X079448Y001600D03*
X078448Y001500D03*
X077448Y001600D03*
X076448Y001500D03*
X075448Y001600D03*
X057282Y001500D03*
X056282Y001600D03*
X055282Y001500D03*
X054282Y001600D03*
X053282Y001500D03*
X052282Y001600D03*
X051282Y001500D03*
X050282Y001600D03*
X049282Y001500D03*
X048282Y001600D03*
X043901Y013117D03*
X044001Y014117D03*
X043901Y015117D03*
X043901Y017448D03*
X044001Y018448D03*
X043901Y019448D03*
D13*
X045900Y023341D03*
X045900Y024050D03*
X049070Y024030D03*
X049070Y023322D03*
X052259Y023341D03*
X052259Y024050D03*
X049857Y027967D03*
X049857Y028676D03*
X046727Y028696D03*
X046727Y027987D03*
X053026Y028125D03*
X053026Y028833D03*
X044198Y030920D03*
X044198Y031629D03*
X079798Y026156D03*
X079798Y025448D03*
X082908Y025467D03*
X082908Y026176D03*
X086097Y026156D03*
X086097Y025448D03*
X088587Y023361D03*
X088587Y022652D03*
X086845Y030211D03*
X086845Y030920D03*
X083715Y030920D03*
X083715Y030211D03*
X080566Y030172D03*
X080566Y030881D03*
X054247Y012495D03*
X054247Y011786D03*
X051136Y011786D03*
X051136Y012495D03*
X047987Y012495D03*
X047987Y011786D03*
X047160Y007751D03*
X047160Y007042D03*
X050349Y007062D03*
X050349Y007770D03*
X053479Y007790D03*
X053479Y007081D03*
X078302Y007377D03*
X078302Y006668D03*
X081432Y006747D03*
X081432Y007456D03*
X084581Y007416D03*
X084581Y006707D03*
X089818Y003135D03*
X089818Y002426D03*
X085408Y011491D03*
X085408Y012200D03*
X082219Y012121D03*
X082219Y011412D03*
X079089Y011452D03*
X079089Y012160D03*
D14*
X086156Y013164D03*
X088361Y013164D03*
X050959Y004601D03*
X048755Y004601D03*
X045644Y022170D03*
X043440Y022170D03*
X087731Y032505D03*
X089936Y032505D03*
D15*
X066058Y018676D03*
X065349Y018676D03*
X065349Y017889D03*
X066058Y017889D03*
X041255Y009522D03*
X040546Y009522D03*
D16*
X040133Y005093D03*
X042259Y005093D03*
X042406Y024680D03*
X040280Y024680D03*
X040280Y027633D03*
X042406Y027633D03*
X090329Y027387D03*
X092455Y027387D03*
X092455Y030192D03*
X090329Y030192D03*
X090477Y010330D03*
X092603Y010330D03*
X092711Y007357D03*
X090585Y007357D03*
D17*
X090054Y004459D03*
X092854Y004459D03*
X092814Y024538D03*
X090014Y024538D03*
X042721Y030580D03*
X039921Y030580D03*
X039892Y007873D03*
X042692Y007873D03*
D18*
X081961Y035597D03*
X082961Y035597D03*
X083961Y035597D03*
X084961Y035597D03*
X085961Y035597D03*
X085961Y036597D03*
X084961Y036597D03*
X083961Y036597D03*
X082961Y036597D03*
X081961Y036597D03*
D19*
X044001Y020448D03*
X044001Y016117D03*
X089964Y017298D03*
X089964Y012967D03*
D20*
X084995Y013459D03*
X085388Y010310D03*
X082239Y009522D03*
X079089Y008735D03*
X069394Y010408D03*
X062849Y009306D03*
X052751Y010704D03*
X049483Y009798D03*
X046392Y008893D03*
X046560Y005979D03*
X052888Y005625D03*
X074660Y013656D03*
X055615Y019414D03*
X055861Y021481D03*
X046412Y022022D03*
X045133Y025369D03*
X048282Y026156D03*
X051432Y026944D03*
X076432Y032209D03*
X076383Y034916D03*
X086570Y032357D03*
X087733Y028912D03*
X084583Y028125D03*
X081483Y027337D03*
D21*
X044109Y004207D03*
X044109Y002081D03*
D22*
X046491Y006904D02*
X046688Y007062D01*
X047160Y007042D01*
X046392Y007337D01*
X046294Y007436D01*
X047160Y007751D02*
X048046Y007711D01*
X048105Y007436D01*
X049444Y007436D02*
X049542Y007337D01*
X049680Y007042D01*
X050349Y007062D01*
X051255Y007436D02*
X051196Y007692D01*
X050349Y007770D01*
X052593Y007436D02*
X052692Y007337D01*
X052810Y007003D01*
X053479Y007790D02*
X054345Y007731D01*
X054404Y007436D01*
X067672Y006570D02*
X070329Y006570D01*
X077396Y007062D02*
X077613Y007062D01*
X078184Y011393D02*
X078282Y011491D01*
X078184Y011393D02*
X078184Y011736D01*
X081333Y011736D02*
X081550Y011786D01*
X081392Y011491D01*
X058125Y014247D02*
X058125Y018971D01*
X051412Y023597D02*
X051314Y023696D01*
X048164Y023696D02*
X048164Y023597D01*
X045014Y023597D02*
X045014Y023696D01*
X044001Y020448D02*
X044247Y020251D01*
X045034Y019463D01*
X045034Y016854D01*
X044001Y016117D01*
X042967Y017495D02*
X042967Y014542D01*
X043558Y013952D01*
X043738Y013952D01*
X044001Y014117D01*
X042967Y017495D02*
X043723Y018251D01*
X044001Y018448D01*
X079798Y026156D02*
X080566Y026117D01*
X080585Y025959D01*
X080684Y025861D01*
X082908Y026176D02*
X083735Y026176D01*
X086097Y026156D02*
X086904Y026137D01*
X086983Y025861D01*
X087770Y030585D02*
X087731Y030940D01*
X086845Y030920D01*
X084601Y030900D02*
X084621Y030585D01*
X084601Y030900D02*
X083715Y030920D01*
X081471Y030585D02*
X081432Y030881D01*
X080566Y030881D01*
D23*
X081471Y030585D02*
X081471Y031314D01*
X081471Y032180D01*
X081648Y032357D01*
X084601Y032357D02*
X084621Y032337D01*
X084621Y030585D01*
X086993Y032357D02*
X087751Y032357D01*
X087751Y030605D01*
X087770Y030585D01*
X086865Y028322D02*
X086865Y025861D01*
X086983Y025861D01*
X083735Y026176D02*
X083715Y028125D01*
X083715Y028322D01*
X080566Y028322D02*
X080566Y027928D01*
X080566Y027337D01*
X080566Y026117D01*
X067573Y025251D02*
X067573Y015723D01*
X067573Y014030D01*
X067573Y006668D01*
X067672Y006570D01*
X066392Y007505D02*
X066392Y015723D01*
X066392Y017889D01*
X066392Y018774D01*
X066392Y019857D01*
X066392Y020546D01*
X066392Y023007D01*
X066392Y024070D01*
X066392Y031078D01*
X066392Y033046D01*
X056631Y033046D01*
X057190Y034227D02*
X067573Y034227D01*
X067672Y033538D01*
X067672Y033341D01*
X067573Y033243D01*
X067573Y025251D01*
X065211Y027337D02*
X065065Y023090D01*
X065021Y021831D01*
X065014Y021629D01*
X065014Y020251D01*
X065014Y018578D01*
X065014Y018479D01*
X065017Y018381D01*
X065106Y014553D01*
X065211Y010330D01*
X065211Y007062D01*
X065211Y006668D01*
X053302Y002042D02*
X053302Y001520D01*
X053282Y001500D01*
X050940Y005487D02*
X050940Y005979D01*
X049660Y005979D01*
X049680Y007042D01*
X049660Y005979D02*
X049168Y005979D01*
X046560Y005979D01*
X046510Y005979D01*
X046510Y006176D01*
X050940Y005979D02*
X052239Y006393D01*
X052810Y006393D01*
X052810Y007003D01*
X089227Y005143D02*
X089227Y003912D01*
X052219Y025959D02*
X052101Y025959D01*
X052101Y026944D01*
X052101Y028144D01*
X052101Y028420D01*
X048951Y028420D02*
X048973Y028015D01*
X049070Y026156D01*
X049070Y025959D02*
X048951Y025959D01*
X045920Y025959D02*
X045920Y028026D01*
X045920Y028420D01*
X045802Y028420D01*
X049463Y037770D02*
X056550Y031471D01*
X064030Y031471D01*
X065211Y031471D01*
X065211Y027337D01*
X057190Y034227D02*
X053091Y038327D01*
X052810Y038608D01*
X051282Y038508D02*
X050282Y038608D01*
X049463Y037770D02*
X049070Y037770D01*
X049070Y038295D01*
D24*
X056591Y033083D03*
X053794Y031471D03*
X052219Y031471D03*
X053007Y030684D03*
X056491Y031038D03*
X061865Y032357D03*
X064030Y031471D03*
X063853Y030743D03*
X063459Y029444D03*
X062948Y029365D03*
X063617Y027770D03*
X063892Y027062D03*
X064463Y026924D03*
X064503Y026452D03*
X062416Y025802D03*
X060930Y026796D03*
X058814Y026648D03*
X055467Y027436D03*
X054680Y027387D03*
X053794Y028322D03*
X052810Y027633D03*
X050644Y028322D03*
X047495Y028322D03*
X043755Y029503D03*
X046707Y030684D03*
X045920Y031471D03*
X047495Y031471D03*
X056451Y028617D03*
X054089Y025763D03*
X055073Y024631D03*
X053745Y024139D03*
X053105Y023696D03*
X054089Y023253D03*
X051038Y022022D03*
X046707Y023597D03*
X043755Y024089D03*
X049857Y023656D03*
X056589Y019641D03*
X058125Y018971D03*
X058676Y019522D03*
X060329Y018558D03*
X060625Y017810D03*
X061865Y017318D03*
X061491Y017081D03*
X062022Y016530D03*
X062672Y016373D03*
X062790Y015881D03*
X062849Y015389D03*
X062042Y015034D03*
X062318Y014345D03*
X063262Y014700D03*
X063715Y014739D03*
X064148Y014483D03*
X065487Y014562D03*
X067160Y014030D03*
X069168Y013282D03*
X069640Y013459D03*
X069621Y014700D03*
X070428Y015034D03*
X069877Y015428D03*
X068322Y015723D03*
X068774Y016727D03*
X068774Y017475D03*
X070762Y017141D03*
X070959Y017810D03*
X071629Y018952D03*
X066392Y019857D03*
X065014Y020251D03*
X064030Y019877D03*
X064050Y018893D03*
X064050Y018105D03*
X064345Y016707D03*
X064030Y015900D03*
X066156Y015723D03*
X063302Y013538D03*
X063262Y012869D03*
X062140Y012830D03*
X062436Y011806D03*
X063715Y011058D03*
X062810Y010743D03*
X060133Y011176D03*
X058223Y010408D03*
X058223Y009621D03*
X058223Y008833D03*
X056550Y008912D03*
X055546Y009995D03*
X054385Y010684D03*
X053499Y010684D03*
X054503Y011274D03*
X055172Y011963D03*
X056196Y011609D03*
X056766Y011668D03*
X057731Y013263D03*
X058125Y014247D03*
X056510Y014089D03*
X054975Y015133D03*
X054286Y014444D03*
X053499Y015133D03*
X048774Y015133D03*
X047987Y014660D03*
X047199Y015133D03*
X042081Y015034D03*
X041688Y015526D03*
X041294Y015034D03*
X041294Y016019D03*
X041688Y016511D03*
X042081Y016019D03*
X047199Y018381D03*
X059601Y020526D03*
X060408Y020861D03*
X062140Y020723D03*
X062022Y021707D03*
X062199Y022396D03*
X064640Y021963D03*
X066806Y023125D03*
X068636Y022337D03*
X068932Y021707D03*
X069306Y022042D03*
X071294Y022219D03*
X072199Y021353D03*
X069306Y023578D03*
X069896Y024247D03*
X068341Y024050D03*
X068341Y024719D03*
X067593Y025172D03*
X066196Y024030D03*
X064739Y023597D03*
X063597Y023597D03*
X062219Y023420D03*
X062022Y024719D03*
X059207Y024089D03*
X064286Y025074D03*
X070093Y026156D03*
X070428Y026530D03*
X071707Y027475D03*
X073676Y027633D03*
X073755Y026786D03*
X076383Y025910D03*
X078164Y026156D03*
X078991Y025959D03*
X079778Y026648D03*
X078154Y026894D03*
X078696Y028469D03*
X077465Y029650D03*
X079040Y030093D03*
X079778Y030644D03*
X078646Y030930D03*
X081471Y032180D03*
X082948Y030644D03*
X086077Y030684D03*
X091373Y029522D03*
X088518Y026727D03*
X085270Y025959D03*
X082140Y025959D03*
X079778Y023597D03*
X079188Y023007D03*
X080369Y023007D03*
X085487Y023007D03*
X086077Y023597D03*
X086668Y023007D03*
X088735Y023991D03*
X089227Y023745D03*
X089247Y024267D03*
X089227Y024778D03*
X088735Y024483D03*
X091550Y024759D03*
X085349Y020743D03*
X087455Y019956D03*
X087948Y020202D03*
X087948Y019709D03*
X088440Y019463D03*
X088440Y019956D03*
X087455Y019365D03*
X087948Y019168D03*
X082062Y016333D03*
X080408Y017889D03*
X077180Y016314D03*
X074660Y015920D03*
X079385Y014148D03*
X079778Y013361D03*
X081333Y011736D03*
X078184Y011736D03*
X077514Y011294D03*
X077022Y011983D03*
X075644Y010802D03*
X077121Y009621D03*
X076432Y008046D03*
X075448Y007948D03*
X077396Y007062D03*
X078007Y007849D03*
X080546Y007062D03*
X083696Y007062D03*
X086471Y004503D03*
X087160Y004503D03*
X087849Y004404D03*
X087849Y003715D03*
X087357Y003223D03*
X087160Y003814D03*
X086471Y003814D03*
X086668Y003223D03*
X074759Y006570D03*
X070329Y006570D03*
X070014Y006078D03*
X069601Y007062D03*
X069148Y007298D03*
X067672Y006570D03*
X068656Y005861D03*
X067180Y004995D03*
X066294Y005290D03*
X064030Y005290D03*
X063440Y004946D03*
X060329Y005625D03*
X057652Y005625D03*
X055546Y007377D03*
X055034Y007810D03*
X054385Y007337D03*
X051235Y007337D03*
X049168Y005979D03*
X048085Y005093D03*
X047593Y004601D03*
X047199Y004109D03*
X046707Y004601D03*
X046215Y004207D03*
X045723Y004601D03*
X046215Y005093D03*
X047199Y005093D03*
X048085Y004109D03*
X054385Y004267D03*
X048085Y007239D03*
X048085Y008912D03*
X047199Y008912D03*
X050349Y009798D03*
X051235Y009798D03*
X052022Y011963D03*
X048892Y012160D03*
X042377Y010408D03*
X041885Y010015D03*
X041589Y010408D03*
X041885Y010802D03*
X041589Y011196D03*
X041196Y010802D03*
X060388Y008459D03*
X060782Y008873D03*
X063184Y008952D03*
X063814Y009306D03*
X064483Y008971D03*
X065211Y010330D03*
X068302Y010349D03*
X068302Y009365D03*
X069070Y009227D03*
X070113Y008853D03*
X071806Y008637D03*
X066392Y007505D03*
X065211Y007062D03*
X069522Y011097D03*
X069857Y011471D03*
X071215Y010999D03*
X071904Y011491D03*
X084483Y011786D03*
X087967Y015969D03*
X060920Y019345D03*
X068302Y027889D03*
X070762Y028558D03*
X073823Y029946D03*
X072692Y030330D03*
X069247Y031491D03*
X071097Y031767D03*
X069699Y032692D03*
X068322Y034070D03*
X068322Y035093D03*
X067003Y034956D03*
X069936Y035270D03*
X071274Y036176D03*
X073774Y034522D03*
X075585Y034601D03*
X076383Y034424D03*
X072711Y038341D03*
X063184Y034956D03*
X064955Y032318D03*
X066570Y031117D03*
X090172Y034542D03*
D25*
X088715Y033204D02*
X086825Y035093D01*
X084975Y035093D01*
X084975Y035585D01*
X084961Y035597D01*
X084916Y035605D01*
X083971Y035605D01*
X083961Y035597D01*
X083912Y035605D01*
X082967Y035605D01*
X082961Y035597D01*
X083961Y036597D02*
X083951Y036609D01*
X083951Y037219D01*
X078448Y038508D02*
X078440Y038499D01*
X074168Y034916D02*
X073459Y034916D01*
X074168Y034916D02*
X074168Y033440D01*
X071392Y030664D01*
X071392Y022633D01*
X071629Y022396D01*
X071629Y018952D01*
X069640Y018459D02*
X068774Y017475D01*
X068774Y016727D02*
X069837Y017711D01*
X069837Y023774D01*
X069562Y024050D01*
X069562Y024385D01*
X069699Y024522D01*
X069896Y024247D02*
X070034Y024109D01*
X070034Y015585D01*
X069877Y015428D01*
X070231Y015310D02*
X070231Y026019D01*
X070093Y026156D01*
X070428Y026530D02*
X070428Y015034D01*
X070231Y015310D02*
X069621Y014700D01*
X069640Y014660D01*
X069640Y013459D01*
X069168Y013282D02*
X069522Y012928D01*
X069522Y011097D01*
X069857Y011471D02*
X071294Y012908D01*
X071294Y022219D01*
X071097Y022534D02*
X070959Y022396D01*
X070959Y017810D01*
X070625Y017278D02*
X070625Y026255D01*
X070762Y026393D01*
X070762Y028558D01*
X068636Y027515D02*
X068302Y027889D01*
X068636Y027515D02*
X068636Y022337D01*
X068932Y021707D02*
X068400Y021176D01*
X068400Y016550D01*
X068833Y016156D01*
X068833Y010487D01*
X069404Y009916D01*
X069404Y007554D01*
X069148Y007298D01*
X069601Y007081D02*
X069601Y007062D01*
X069601Y007081D02*
X070251Y007731D01*
X070329Y007751D01*
X070113Y008853D02*
X070251Y008991D01*
X070251Y010487D01*
X073085Y013322D01*
X079345Y013322D01*
X079345Y013617D01*
X082062Y016333D01*
X080408Y017889D02*
X073755Y026786D01*
X076471Y027456D02*
X076471Y029227D01*
X078558Y031314D01*
X081471Y031314D01*
X076432Y032200D02*
X076432Y032209D01*
X076432Y032200D02*
X075625Y032200D01*
X073361Y029936D01*
X073361Y024818D01*
X069640Y023715D02*
X069640Y018459D01*
X070625Y017278D02*
X070762Y017141D01*
X068636Y015408D02*
X068322Y015723D01*
X067987Y015723D02*
X067573Y015723D01*
X068636Y015408D02*
X068636Y009660D01*
X069070Y009227D01*
X068302Y009365D02*
X068302Y010349D01*
X064483Y008971D02*
X064483Y015448D01*
X064030Y015900D01*
X063341Y015743D02*
X064010Y016767D01*
X064010Y018066D01*
X064050Y018105D01*
X064050Y018893D02*
X063636Y019227D01*
X063597Y023597D01*
X064739Y023597D02*
X065065Y023090D01*
X066392Y023007D02*
X066806Y023125D01*
X066392Y024070D02*
X066196Y024030D01*
X067593Y025172D02*
X067573Y025251D01*
X068341Y024719D02*
X068341Y024050D01*
X069247Y023991D02*
X069640Y023715D01*
X069306Y023578D02*
X069306Y022042D01*
X071097Y022534D02*
X071097Y031767D01*
X072692Y031707D02*
X072692Y030330D01*
X072692Y031707D02*
X075585Y034601D01*
X066570Y031117D02*
X066392Y031078D01*
X065782Y031707D02*
X065172Y032318D01*
X064955Y032318D01*
X065782Y031707D02*
X065782Y027081D01*
X065762Y027062D01*
X065762Y017593D01*
X065802Y017554D01*
X065802Y006097D01*
X064975Y006097D01*
X064148Y006924D01*
X064148Y014483D01*
X063341Y014818D02*
X063341Y015743D01*
X063046Y016176D02*
X063125Y016235D01*
X064345Y016707D02*
X064385Y016747D01*
X064385Y019995D01*
X064286Y020093D01*
X064286Y025074D01*
X063951Y025861D02*
X064503Y026452D01*
X063951Y025861D02*
X063951Y019956D01*
X064030Y019877D01*
X062042Y020349D02*
X062140Y020723D01*
X062042Y020349D02*
X062199Y017298D01*
X062022Y016530D01*
X061491Y017081D02*
X061491Y027908D01*
X062948Y029365D01*
X063302Y029247D02*
X063459Y029444D01*
X063302Y029247D02*
X061688Y027633D01*
X061688Y018085D01*
X061865Y017318D01*
X060329Y018558D02*
X060920Y019345D01*
X059010Y019385D02*
X058814Y019188D01*
X058381Y019188D01*
X058262Y019306D01*
X055959Y019306D01*
X055959Y019286D01*
X055743Y019070D01*
X055270Y019070D01*
X055270Y020881D01*
X055861Y021471D01*
X055861Y021481D01*
X059010Y020861D02*
X059010Y019385D01*
X058676Y019522D02*
X056589Y019522D01*
X056589Y019641D01*
X059010Y020861D02*
X060408Y020861D01*
X061255Y021274D02*
X061255Y028184D01*
X063853Y030743D01*
X056550Y031471D02*
X056491Y031038D01*
X053091Y038327D02*
X053282Y038519D01*
X053282Y038508D01*
X049286Y038519D02*
X049070Y038295D01*
X049282Y038508D02*
X049286Y038519D01*
X076471Y027456D02*
X077455Y026471D01*
X077455Y026156D01*
X078164Y026156D01*
X088499Y026747D02*
X088499Y032672D01*
X088715Y032889D01*
X088715Y033204D01*
X091373Y029522D02*
X091373Y024936D01*
X091550Y024759D01*
X088518Y026727D02*
X088499Y026747D01*
X087593Y021097D02*
X090054Y021097D01*
X090054Y020310D01*
X090064Y020298D01*
X089964Y019298D02*
X089975Y019286D01*
X090566Y018696D01*
X090566Y015566D01*
X089975Y014975D01*
X089964Y014967D01*
X089463Y013459D02*
X089463Y016806D01*
X089955Y017298D01*
X089964Y017298D01*
X087239Y020743D02*
X085349Y020743D01*
X087239Y020743D02*
X087593Y021097D01*
X079385Y014148D02*
X077180Y016314D01*
X074975Y018066D02*
X074975Y013971D01*
X074660Y013656D01*
X067573Y014030D02*
X067160Y014030D01*
X065487Y014562D02*
X065106Y014553D01*
X063341Y014818D02*
X063262Y014700D01*
X062475Y014188D02*
X062318Y014345D01*
X062475Y014188D02*
X062475Y011885D01*
X062436Y011806D01*
X062140Y012830D02*
X061825Y013066D01*
X061825Y014778D01*
X062042Y015034D01*
X063302Y013538D02*
X063302Y012908D01*
X063262Y012869D01*
X063184Y009444D02*
X059601Y013026D01*
X057219Y013164D02*
X060782Y009601D01*
X060782Y008873D01*
X063184Y008952D02*
X063184Y009444D01*
X063518Y009011D02*
X063814Y009306D01*
X063518Y009011D02*
X063518Y008814D01*
X060329Y005625D01*
X057652Y005625D02*
X052888Y005625D01*
X042377Y010408D02*
X041684Y010260D01*
X043901Y015117D02*
X043912Y015133D01*
X056510Y014089D02*
X057072Y013528D01*
X057101Y013558D01*
X057101Y013578D01*
X057072Y013528D02*
X057219Y013381D01*
X057219Y013164D01*
X062810Y010743D02*
X062849Y010782D01*
X070014Y006078D02*
X070014Y005861D01*
X068656Y005861D01*
X084995Y013459D02*
X086294Y011786D01*
X089463Y013459D02*
X089955Y012967D01*
X089964Y012967D01*
X074975Y018066D02*
X072199Y021353D01*
X066845Y020546D02*
X066392Y020546D01*
X065021Y021831D02*
X064640Y021963D01*
X062199Y022396D02*
X062199Y023204D01*
X062219Y023420D01*
X066156Y015723D02*
X066392Y015723D01*
D26*
X074070Y010999D03*
X074070Y010113D03*
X074070Y009227D03*
X078105Y008735D03*
X079975Y008735D03*
X081255Y009522D03*
X083125Y009522D03*
X084503Y010310D03*
X086274Y010310D03*
X072298Y022613D03*
X079680Y027337D03*
X080566Y027337D03*
X082829Y028125D03*
X083715Y028125D03*
X085979Y028912D03*
X086865Y028912D03*
X075841Y028912D03*
X075841Y028125D03*
X075841Y029700D03*
X056845Y026255D03*
X056845Y025369D03*
X056845Y024483D03*
X053007Y026944D03*
X052219Y026944D03*
X049857Y026156D03*
X049070Y026156D03*
X046707Y025369D03*
X045920Y025369D03*
X051629Y020369D03*
D27*
X039393Y004605D02*
X039393Y000929D01*
X048971Y000929D01*
X048916Y000952D01*
X048734Y001134D01*
X048733Y001136D01*
X048649Y001052D01*
X048411Y000953D01*
X048153Y000953D01*
X047916Y001052D01*
X047734Y001234D01*
X047635Y001471D01*
X047635Y001729D01*
X047734Y001966D01*
X047916Y002148D01*
X048153Y002247D01*
X048411Y002247D01*
X048649Y002148D01*
X048831Y001966D01*
X048831Y001964D01*
X048916Y002048D01*
X049153Y002147D01*
X049411Y002147D01*
X049649Y002048D01*
X049733Y001964D01*
X049734Y001966D01*
X049916Y002148D01*
X050153Y002247D01*
X050411Y002247D01*
X050649Y002148D01*
X050831Y001966D01*
X050831Y001964D01*
X050916Y002048D01*
X051153Y002147D01*
X051411Y002147D01*
X051649Y002048D01*
X051733Y001964D01*
X051734Y001966D01*
X051916Y002148D01*
X052153Y002247D01*
X052411Y002247D01*
X052649Y002148D01*
X052831Y001966D01*
X052872Y001867D01*
X052924Y001920D01*
X052994Y001970D01*
X053071Y002010D01*
X053153Y002036D01*
X053239Y002050D01*
X053262Y002050D01*
X053262Y001520D01*
X053302Y001520D01*
X053302Y002050D01*
X053325Y002050D01*
X053411Y002036D01*
X053493Y002010D01*
X053570Y001970D01*
X053640Y001920D01*
X053702Y001858D01*
X053753Y001788D01*
X053760Y001773D01*
X053772Y001811D01*
X053812Y001888D01*
X053863Y001958D01*
X053924Y002020D01*
X053994Y002070D01*
X054071Y002110D01*
X054153Y002136D01*
X054239Y002150D01*
X054262Y002150D01*
X054262Y001620D01*
X054302Y001620D01*
X054302Y002150D01*
X054325Y002150D01*
X054411Y002136D01*
X054493Y002110D01*
X054570Y002070D01*
X054640Y002020D01*
X054702Y001958D01*
X054753Y001888D01*
X054792Y001811D01*
X054804Y001773D01*
X054812Y001788D01*
X054863Y001858D01*
X054924Y001920D01*
X054994Y001970D01*
X055071Y002010D01*
X055153Y002036D01*
X055239Y002050D01*
X055262Y002050D01*
X055262Y001520D01*
X055302Y001520D01*
X055302Y002050D01*
X055325Y002050D01*
X055411Y002036D01*
X055493Y002010D01*
X055570Y001970D01*
X055640Y001920D01*
X055702Y001858D01*
X055753Y001788D01*
X055760Y001773D01*
X055772Y001811D01*
X055812Y001888D01*
X055863Y001958D01*
X055924Y002020D01*
X055994Y002070D01*
X056071Y002110D01*
X056153Y002136D01*
X056239Y002150D01*
X056262Y002150D01*
X056262Y001620D01*
X056302Y001620D01*
X056302Y002150D01*
X056325Y002150D01*
X056411Y002136D01*
X056493Y002110D01*
X056570Y002070D01*
X056640Y002020D01*
X056702Y001958D01*
X056753Y001888D01*
X056792Y001811D01*
X056804Y001773D01*
X056812Y001788D01*
X056863Y001858D01*
X056924Y001920D01*
X056994Y001970D01*
X057071Y002010D01*
X057153Y002036D01*
X057239Y002050D01*
X057262Y002050D01*
X057262Y001520D01*
X057302Y001520D01*
X057302Y002050D01*
X057325Y002050D01*
X057411Y002036D01*
X057493Y002010D01*
X057570Y001970D01*
X057640Y001920D01*
X057702Y001858D01*
X057753Y001788D01*
X057792Y001711D01*
X057819Y001629D01*
X057832Y001543D01*
X057832Y001520D01*
X057302Y001520D01*
X057302Y001480D01*
X057302Y000950D01*
X057325Y000950D01*
X057411Y000964D01*
X057493Y000990D01*
X057570Y001030D01*
X057640Y001080D01*
X057702Y001142D01*
X057753Y001212D01*
X057792Y001289D01*
X057819Y001371D01*
X057832Y001457D01*
X057832Y001480D01*
X057302Y001480D01*
X057262Y001480D01*
X057262Y000950D01*
X057239Y000950D01*
X057153Y000964D01*
X057071Y000990D01*
X056994Y001030D01*
X056924Y001080D01*
X056863Y001142D01*
X056812Y001212D01*
X056772Y001289D01*
X056760Y001327D01*
X056753Y001312D01*
X056702Y001242D01*
X056640Y001180D01*
X056570Y001130D01*
X056493Y001090D01*
X056411Y001064D01*
X056325Y001050D01*
X056302Y001050D01*
X056302Y001580D01*
X056262Y001580D01*
X056262Y001050D01*
X056239Y001050D01*
X056153Y001064D01*
X056071Y001090D01*
X055994Y001130D01*
X055924Y001180D01*
X055863Y001242D01*
X055812Y001312D01*
X055804Y001327D01*
X055792Y001289D01*
X055753Y001212D01*
X055702Y001142D01*
X055640Y001080D01*
X055570Y001030D01*
X055493Y000990D01*
X055411Y000964D01*
X055325Y000950D01*
X055302Y000950D01*
X055302Y001480D01*
X055262Y001480D01*
X055262Y000950D01*
X055239Y000950D01*
X055153Y000964D01*
X055071Y000990D01*
X054994Y001030D01*
X054924Y001080D01*
X054863Y001142D01*
X054812Y001212D01*
X054772Y001289D01*
X054760Y001327D01*
X054753Y001312D01*
X054702Y001242D01*
X054640Y001180D01*
X054570Y001130D01*
X054493Y001090D01*
X054411Y001064D01*
X054325Y001050D01*
X054302Y001050D01*
X054302Y001580D01*
X054262Y001580D01*
X054262Y001050D01*
X054239Y001050D01*
X054153Y001064D01*
X054071Y001090D01*
X053994Y001130D01*
X053924Y001180D01*
X053863Y001242D01*
X053812Y001312D01*
X053804Y001327D01*
X053792Y001289D01*
X053753Y001212D01*
X053702Y001142D01*
X053640Y001080D01*
X053570Y001030D01*
X053493Y000990D01*
X053411Y000964D01*
X053325Y000950D01*
X053302Y000950D01*
X053302Y001480D01*
X053262Y001480D01*
X053262Y000950D01*
X053239Y000950D01*
X053153Y000964D01*
X053071Y000990D01*
X052994Y001030D01*
X052924Y001080D01*
X052863Y001142D01*
X052812Y001212D01*
X052811Y001214D01*
X052649Y001052D01*
X052411Y000953D01*
X052153Y000953D01*
X051916Y001052D01*
X051831Y001136D01*
X051831Y001134D01*
X051649Y000952D01*
X051594Y000929D01*
X076136Y000929D01*
X076081Y000952D01*
X075899Y001134D01*
X075898Y001136D01*
X075814Y001052D01*
X075576Y000953D01*
X075319Y000953D01*
X075081Y001052D01*
X074899Y001234D01*
X074801Y001471D01*
X074801Y001729D01*
X074899Y001966D01*
X075081Y002148D01*
X075319Y002247D01*
X075576Y002247D01*
X075814Y002148D01*
X075996Y001966D01*
X075997Y001964D01*
X076081Y002048D01*
X076319Y002147D01*
X076576Y002147D01*
X076814Y002048D01*
X076898Y001964D01*
X076899Y001966D01*
X077081Y002148D01*
X077319Y002247D01*
X077576Y002247D01*
X077814Y002148D01*
X077996Y001966D01*
X077997Y001964D01*
X078081Y002048D01*
X078319Y002147D01*
X078576Y002147D01*
X078814Y002048D01*
X078898Y001964D01*
X078899Y001966D01*
X079081Y002148D01*
X079319Y002247D01*
X079576Y002247D01*
X079814Y002148D01*
X079996Y001966D01*
X079997Y001964D01*
X080081Y002048D01*
X080319Y002147D01*
X080576Y002147D01*
X080814Y002048D01*
X080898Y001964D01*
X080899Y001966D01*
X081081Y002148D01*
X081319Y002247D01*
X081576Y002247D01*
X081814Y002148D01*
X081996Y001966D01*
X081997Y001964D01*
X082081Y002048D01*
X082319Y002147D01*
X082576Y002147D01*
X082814Y002048D01*
X082898Y001964D01*
X082899Y001966D01*
X083081Y002148D01*
X083319Y002247D01*
X083576Y002247D01*
X083814Y002148D01*
X083996Y001966D01*
X083997Y001964D01*
X084081Y002048D01*
X084319Y002147D01*
X084576Y002147D01*
X084814Y002048D01*
X084996Y001866D01*
X085094Y001629D01*
X085094Y001371D01*
X084996Y001134D01*
X084814Y000952D01*
X084759Y000929D01*
X093391Y000929D01*
X093391Y003583D01*
X093378Y003579D01*
X092934Y003579D01*
X092934Y004379D01*
X092774Y004379D01*
X092774Y003579D01*
X092330Y003579D01*
X092284Y003591D01*
X092243Y003615D01*
X092210Y003648D01*
X092186Y003689D01*
X092174Y003735D01*
X092174Y004379D01*
X092774Y004379D01*
X092774Y004539D01*
X092774Y005339D01*
X092330Y005339D01*
X092284Y005327D01*
X092243Y005303D01*
X092210Y005269D01*
X092186Y005228D01*
X092174Y005183D01*
X092174Y004539D01*
X092774Y004539D01*
X092934Y004539D01*
X092934Y005339D01*
X093378Y005339D01*
X093391Y005335D01*
X093391Y006862D01*
X092789Y006862D01*
X092789Y007280D01*
X092789Y007435D01*
X092634Y007435D01*
X092634Y007852D01*
X091999Y007852D01*
X091953Y007840D01*
X091912Y007816D01*
X091878Y007783D01*
X091855Y007742D01*
X091842Y007696D01*
X091842Y007435D01*
X092634Y007435D01*
X092634Y007280D01*
X091842Y007280D01*
X091842Y007018D01*
X091855Y006973D01*
X091878Y006932D01*
X091912Y006898D01*
X091953Y006874D01*
X091999Y006862D01*
X092634Y006862D01*
X092634Y007280D01*
X092789Y007280D01*
X093391Y007280D01*
X093391Y007435D01*
X092789Y007435D01*
X092789Y007852D01*
X093391Y007852D01*
X093391Y009864D01*
X093361Y009847D01*
X093316Y009835D01*
X092680Y009835D01*
X092680Y010252D01*
X092526Y010252D01*
X092526Y009835D01*
X091890Y009835D01*
X091845Y009847D01*
X091804Y009871D01*
X091770Y009904D01*
X091746Y009945D01*
X091734Y009991D01*
X091734Y010252D01*
X092526Y010252D01*
X092526Y010407D01*
X092526Y010824D01*
X091890Y010824D01*
X091845Y010812D01*
X091804Y010789D01*
X091770Y010755D01*
X091746Y010714D01*
X091734Y010668D01*
X091734Y010407D01*
X092526Y010407D01*
X092680Y010407D01*
X092680Y010824D01*
X093316Y010824D01*
X093361Y010812D01*
X093391Y010795D01*
X093391Y023674D01*
X093384Y023670D01*
X093338Y023658D01*
X092894Y023658D01*
X092894Y024458D01*
X092734Y024458D01*
X092134Y024458D01*
X092134Y023814D01*
X092147Y023768D01*
X092170Y023727D01*
X092204Y023694D01*
X092245Y023670D01*
X092291Y023658D01*
X092734Y023658D01*
X092734Y024458D01*
X092734Y024618D01*
X092734Y025418D01*
X092291Y025418D01*
X092245Y025405D01*
X092204Y025382D01*
X092170Y025348D01*
X092147Y025307D01*
X092134Y025261D01*
X092134Y024618D01*
X092734Y024618D01*
X092894Y024618D01*
X092894Y025418D01*
X093338Y025418D01*
X093384Y025405D01*
X093391Y025401D01*
X093391Y031633D01*
X091683Y033341D01*
X090744Y033341D01*
X090940Y033228D01*
X091131Y033037D01*
X091267Y032803D01*
X091337Y032541D01*
X091337Y030400D01*
X091356Y030327D01*
X091356Y029954D01*
X091459Y029954D01*
X091586Y029901D01*
X091586Y030114D01*
X092378Y030114D01*
X092533Y030114D01*
X092533Y029697D01*
X093168Y029697D01*
X093214Y029709D01*
X093255Y029733D01*
X093288Y029766D01*
X093312Y029807D01*
X093324Y029853D01*
X093324Y030114D01*
X092533Y030114D01*
X092533Y030269D01*
X093324Y030269D01*
X093324Y030530D01*
X093312Y030576D01*
X093288Y030617D01*
X093255Y030651D01*
X093214Y030674D01*
X093168Y030687D01*
X092533Y030687D01*
X092533Y030269D01*
X092378Y030269D01*
X092378Y030114D01*
X092378Y029697D01*
X091768Y029697D01*
X091805Y029608D01*
X091805Y029437D01*
X091739Y029278D01*
X091700Y029239D01*
X091700Y027870D01*
X091743Y027882D01*
X092378Y027882D01*
X092378Y027464D01*
X092533Y027464D01*
X093324Y027464D01*
X093324Y027725D01*
X093312Y027771D01*
X093288Y027812D01*
X093255Y027846D01*
X093214Y027869D01*
X093168Y027882D01*
X092533Y027882D01*
X092533Y027464D01*
X092533Y027309D01*
X093324Y027309D01*
X093324Y027048D01*
X093312Y027002D01*
X093288Y026961D01*
X093255Y026928D01*
X093214Y026904D01*
X093168Y026892D01*
X092533Y026892D01*
X092533Y027309D01*
X092378Y027309D01*
X092378Y026892D01*
X091743Y026892D01*
X091700Y026903D01*
X091700Y025164D01*
X091794Y025125D01*
X091916Y025003D01*
X091982Y024845D01*
X091982Y024673D01*
X091916Y024514D01*
X091794Y024393D01*
X091636Y024327D01*
X091464Y024327D01*
X091305Y024393D01*
X091270Y024428D01*
X091151Y024222D01*
X090960Y024031D01*
X090791Y023934D01*
X090791Y023783D01*
X090749Y023681D01*
X090671Y023603D01*
X090570Y023561D01*
X090241Y023561D01*
X090184Y023349D01*
X090049Y023114D01*
X089858Y022923D01*
X089623Y022788D01*
X089362Y022718D01*
X089092Y022718D01*
X089003Y022742D01*
X089003Y022652D01*
X088587Y022652D01*
X088587Y022652D01*
X088587Y022315D01*
X088327Y022315D01*
X088282Y022327D01*
X088241Y022351D01*
X088207Y022384D01*
X088183Y022425D01*
X088171Y022471D01*
X088171Y022652D01*
X088587Y022652D01*
X088587Y022652D01*
X088587Y022315D01*
X088847Y022315D01*
X088893Y022327D01*
X088934Y022351D01*
X088968Y022384D01*
X088991Y022425D01*
X089003Y022471D01*
X089003Y022652D01*
X088587Y022652D01*
X088171Y022652D01*
X088171Y022834D01*
X088183Y022879D01*
X088207Y022920D01*
X088238Y022951D01*
X088194Y022969D01*
X088116Y023047D01*
X088074Y023148D01*
X088074Y023232D01*
X088051Y023383D01*
X088074Y023481D01*
X088074Y023574D01*
X088116Y023675D01*
X088194Y023753D01*
X088200Y023756D01*
X088200Y024914D01*
X088270Y025175D01*
X088405Y025409D01*
X088597Y025600D01*
X088831Y025735D01*
X089092Y025805D01*
X089303Y025805D01*
X089303Y030003D01*
X089283Y030076D01*
X089283Y032059D01*
X089277Y032065D01*
X089159Y032350D01*
X089159Y032659D01*
X089277Y032945D01*
X089305Y032972D01*
X089305Y033190D01*
X089347Y033291D01*
X089397Y033341D01*
X089012Y033341D01*
X089042Y033269D01*
X089042Y032824D01*
X088992Y032703D01*
X089177Y032703D01*
X089159Y032544D02*
X088833Y032544D01*
X088826Y032537D02*
X088900Y032611D01*
X088992Y032703D01*
X089042Y032861D02*
X089243Y032861D01*
X089305Y033020D02*
X089042Y033020D01*
X089042Y033178D02*
X089305Y033178D01*
X089392Y033337D02*
X089014Y033337D01*
X090260Y033587D02*
X090260Y032456D01*
X090990Y033178D02*
X091846Y033178D01*
X092004Y033020D02*
X091141Y033020D01*
X091233Y032861D02*
X092163Y032861D01*
X092321Y032703D02*
X091293Y032703D01*
X091336Y032544D02*
X092480Y032544D01*
X092638Y032386D02*
X091337Y032386D01*
X091337Y032227D02*
X092797Y032227D01*
X092955Y032069D02*
X091337Y032069D01*
X091337Y031910D02*
X093114Y031910D01*
X093272Y031752D02*
X091337Y031752D01*
X091337Y031593D02*
X093391Y031593D01*
X093391Y031435D02*
X091337Y031435D01*
X091337Y031276D02*
X093391Y031276D01*
X093391Y031118D02*
X091337Y031118D01*
X091337Y030959D02*
X093391Y030959D01*
X093391Y030801D02*
X091337Y030801D01*
X091337Y030642D02*
X091648Y030642D01*
X091656Y030651D02*
X091622Y030617D01*
X091599Y030576D01*
X091586Y030530D01*
X091586Y030269D01*
X092378Y030269D01*
X092378Y030687D01*
X091743Y030687D01*
X091697Y030674D01*
X091656Y030651D01*
X091586Y030484D02*
X091337Y030484D01*
X091356Y030325D02*
X091586Y030325D01*
X091356Y030167D02*
X092378Y030167D01*
X092533Y030167D02*
X093391Y030167D01*
X093391Y030325D02*
X093324Y030325D01*
X093324Y030484D02*
X093391Y030484D01*
X093391Y030642D02*
X093263Y030642D01*
X092533Y030642D02*
X092378Y030642D01*
X092378Y030484D02*
X092533Y030484D01*
X092533Y030325D02*
X092378Y030325D01*
X092378Y030008D02*
X092533Y030008D01*
X092533Y029850D02*
X092378Y029850D01*
X091770Y029691D02*
X093391Y029691D01*
X093391Y029533D02*
X091805Y029533D01*
X091779Y029374D02*
X093391Y029374D01*
X093391Y029216D02*
X091700Y029216D01*
X091700Y029057D02*
X093391Y029057D01*
X093391Y028899D02*
X091700Y028899D01*
X091700Y028740D02*
X093391Y028740D01*
X093391Y028582D02*
X091700Y028582D01*
X091700Y028423D02*
X093391Y028423D01*
X093391Y028265D02*
X091700Y028265D01*
X091700Y028106D02*
X093391Y028106D01*
X093391Y027948D02*
X091700Y027948D01*
X092378Y027789D02*
X092533Y027789D01*
X092533Y027631D02*
X092378Y027631D01*
X092378Y027472D02*
X092533Y027472D01*
X092533Y027314D02*
X093391Y027314D01*
X093391Y027472D02*
X093324Y027472D01*
X093324Y027631D02*
X093391Y027631D01*
X093391Y027789D02*
X093301Y027789D01*
X093324Y027155D02*
X093391Y027155D01*
X093391Y026997D02*
X093309Y026997D01*
X093391Y026838D02*
X091700Y026838D01*
X091700Y026680D02*
X093391Y026680D01*
X093391Y026521D02*
X091700Y026521D01*
X091700Y026363D02*
X093391Y026363D01*
X093391Y026204D02*
X091700Y026204D01*
X091700Y026046D02*
X093391Y026046D01*
X093391Y025887D02*
X091700Y025887D01*
X091700Y025729D02*
X093391Y025729D01*
X093391Y025570D02*
X091700Y025570D01*
X091700Y025412D02*
X092270Y025412D01*
X092134Y025253D02*
X091700Y025253D01*
X091824Y025095D02*
X092134Y025095D01*
X092134Y024936D02*
X091944Y024936D01*
X091982Y024778D02*
X092134Y024778D01*
X092134Y024619D02*
X091960Y024619D01*
X091863Y024461D02*
X092734Y024461D01*
X092734Y024619D02*
X092894Y024619D01*
X092894Y024778D02*
X092734Y024778D01*
X092734Y024936D02*
X092894Y024936D01*
X092894Y025095D02*
X092734Y025095D01*
X092734Y025253D02*
X092894Y025253D01*
X092894Y025412D02*
X092734Y025412D01*
X093359Y025412D02*
X093391Y025412D01*
X092894Y024302D02*
X092734Y024302D01*
X092734Y024144D02*
X092894Y024144D01*
X092894Y023985D02*
X092734Y023985D01*
X092734Y023827D02*
X092894Y023827D01*
X092894Y023668D02*
X092734Y023668D01*
X092250Y023668D02*
X090737Y023668D01*
X090791Y023827D02*
X092134Y023827D01*
X092134Y023985D02*
X090881Y023985D01*
X091073Y024144D02*
X092134Y024144D01*
X092134Y024302D02*
X091197Y024302D01*
X090227Y023510D02*
X093391Y023510D01*
X093379Y023668D02*
X093391Y023668D01*
X093391Y023351D02*
X090185Y023351D01*
X090094Y023193D02*
X093391Y023193D01*
X093391Y023034D02*
X089969Y023034D01*
X089776Y022876D02*
X093391Y022876D01*
X093391Y022717D02*
X089003Y022717D01*
X089003Y022559D02*
X093391Y022559D01*
X093391Y022400D02*
X088977Y022400D01*
X088587Y022400D02*
X088587Y022400D01*
X088587Y022559D02*
X088587Y022559D01*
X088587Y022652D02*
X088587Y022652D01*
X088171Y022717D02*
X087576Y022717D01*
X087576Y022559D02*
X088171Y022559D01*
X088198Y022400D02*
X087576Y022400D01*
X087576Y022255D02*
X087576Y023517D01*
X086157Y023517D01*
X086157Y022098D01*
X087420Y022098D01*
X087466Y022111D01*
X087507Y022134D01*
X087540Y022168D01*
X087564Y022209D01*
X087576Y022255D01*
X087573Y022242D02*
X093391Y022242D01*
X093391Y022083D02*
X078400Y022083D01*
X078400Y022108D02*
X078436Y022098D01*
X079698Y022098D01*
X079698Y023517D01*
X079858Y023517D01*
X079858Y022098D01*
X081121Y022098D01*
X081167Y022111D01*
X081208Y022134D01*
X081241Y022168D01*
X081265Y022209D01*
X081277Y022255D01*
X081277Y023517D01*
X079858Y023517D01*
X079858Y023677D01*
X079858Y025013D01*
X079698Y025013D01*
X079698Y023677D01*
X079698Y023517D01*
X078400Y023517D01*
X078400Y023677D01*
X079698Y023677D01*
X079858Y023677D01*
X081277Y023677D01*
X081277Y024940D01*
X081265Y024986D01*
X081241Y025027D01*
X081208Y025060D01*
X081190Y025070D01*
X081233Y025114D01*
X081276Y025215D01*
X081276Y026507D01*
X081272Y026514D01*
X081272Y026726D01*
X081646Y026726D01*
X081551Y026686D01*
X081473Y026608D01*
X081430Y026507D01*
X081430Y025215D01*
X081473Y025114D01*
X081516Y025070D01*
X081498Y025060D01*
X081465Y025027D01*
X081441Y024986D01*
X081429Y024940D01*
X081429Y023677D01*
X082848Y023677D01*
X082848Y023517D01*
X083008Y023517D01*
X083008Y023677D01*
X084427Y023677D01*
X084427Y024940D01*
X084414Y024986D01*
X084391Y025027D01*
X084357Y025060D01*
X084340Y025070D01*
X084383Y025114D01*
X084425Y025215D01*
X084425Y025704D01*
X084440Y025740D01*
X084440Y025982D01*
X084429Y026008D01*
X084443Y026043D01*
X084436Y026726D01*
X084796Y026726D01*
X084700Y026686D01*
X084622Y026608D01*
X084580Y026507D01*
X084580Y025215D01*
X084622Y025114D01*
X084666Y025070D01*
X084648Y025060D01*
X084614Y025027D01*
X084591Y024986D01*
X084579Y024940D01*
X084579Y023677D01*
X085997Y023677D01*
X085997Y023517D01*
X084579Y023517D01*
X084579Y022255D01*
X084591Y022209D01*
X084614Y022168D01*
X084648Y022134D01*
X084689Y022111D01*
X084735Y022098D01*
X085997Y022098D01*
X085997Y023517D01*
X086157Y023517D01*
X086157Y023677D01*
X086157Y025013D01*
X085997Y025013D01*
X085997Y023677D01*
X086157Y023677D01*
X087576Y023677D01*
X087576Y024940D01*
X087564Y024986D01*
X087540Y025027D01*
X087507Y025060D01*
X087489Y025070D01*
X087533Y025114D01*
X087575Y025215D01*
X087575Y025453D01*
X087582Y025461D01*
X087690Y025720D01*
X087690Y026002D01*
X087582Y026261D01*
X087575Y026269D01*
X087575Y026507D01*
X087572Y026514D01*
X087572Y026726D01*
X088087Y026726D01*
X088087Y026641D01*
X088152Y026483D01*
X088274Y026361D01*
X088432Y026295D01*
X088604Y026295D01*
X088763Y026361D01*
X088884Y026483D01*
X088950Y026641D01*
X088950Y026813D01*
X088884Y026972D01*
X088826Y027031D01*
X088826Y032537D01*
X088826Y032386D02*
X089159Y032386D01*
X089210Y032227D02*
X088826Y032227D01*
X088826Y032069D02*
X089275Y032069D01*
X089283Y031910D02*
X088826Y031910D01*
X088826Y031752D02*
X089283Y031752D01*
X089283Y031593D02*
X088826Y031593D01*
X088826Y031435D02*
X089283Y031435D01*
X089283Y031276D02*
X088826Y031276D01*
X088826Y031118D02*
X089283Y031118D01*
X089283Y030959D02*
X088826Y030959D01*
X088826Y030801D02*
X089283Y030801D01*
X089283Y030642D02*
X088826Y030642D01*
X088826Y030484D02*
X089283Y030484D01*
X089283Y030325D02*
X088826Y030325D01*
X088826Y030167D02*
X089283Y030167D01*
X089301Y030008D02*
X088826Y030008D01*
X088826Y029850D02*
X089303Y029850D01*
X089303Y029691D02*
X088826Y029691D01*
X088826Y029533D02*
X089303Y029533D01*
X089303Y029374D02*
X088826Y029374D01*
X088826Y029216D02*
X089303Y029216D01*
X089303Y029057D02*
X088826Y029057D01*
X088826Y028899D02*
X089303Y028899D01*
X089303Y028740D02*
X088826Y028740D01*
X088826Y028582D02*
X089303Y028582D01*
X089303Y028423D02*
X088826Y028423D01*
X088826Y028265D02*
X089303Y028265D01*
X089303Y028106D02*
X088826Y028106D01*
X088826Y027948D02*
X089303Y027948D01*
X089303Y027789D02*
X088826Y027789D01*
X088826Y027631D02*
X089303Y027631D01*
X089303Y027472D02*
X088826Y027472D01*
X088826Y027314D02*
X089303Y027314D01*
X089303Y027155D02*
X088826Y027155D01*
X088859Y026997D02*
X089303Y026997D01*
X089303Y026838D02*
X088940Y026838D01*
X088950Y026680D02*
X089303Y026680D01*
X089303Y026521D02*
X088901Y026521D01*
X088765Y026363D02*
X089303Y026363D01*
X089303Y026204D02*
X087606Y026204D01*
X087575Y026363D02*
X088272Y026363D01*
X088136Y026521D02*
X087572Y026521D01*
X087572Y026680D02*
X088087Y026680D01*
X087671Y026046D02*
X089303Y026046D01*
X089303Y025887D02*
X087690Y025887D01*
X087690Y025729D02*
X088820Y025729D01*
X088567Y025570D02*
X087628Y025570D01*
X087575Y025412D02*
X088408Y025412D01*
X088316Y025253D02*
X087575Y025253D01*
X087514Y025095D02*
X088249Y025095D01*
X088206Y024936D02*
X087576Y024936D01*
X087576Y024778D02*
X088200Y024778D01*
X088200Y024619D02*
X087576Y024619D01*
X087576Y024461D02*
X088200Y024461D01*
X088200Y024302D02*
X087576Y024302D01*
X087576Y024144D02*
X088200Y024144D01*
X088200Y023985D02*
X087576Y023985D01*
X087576Y023827D02*
X088200Y023827D01*
X088113Y023668D02*
X086157Y023668D01*
X086157Y023510D02*
X085997Y023510D01*
X085997Y023668D02*
X083008Y023668D01*
X083008Y023517D02*
X084427Y023517D01*
X084427Y022255D01*
X084414Y022209D01*
X084391Y022168D01*
X084357Y022134D01*
X084316Y022111D01*
X084270Y022098D01*
X083008Y022098D01*
X083008Y023517D01*
X083008Y023510D02*
X082848Y023510D01*
X082848Y023517D02*
X082848Y022098D01*
X081585Y022098D01*
X081539Y022111D01*
X081498Y022134D01*
X081465Y022168D01*
X081441Y022209D01*
X081429Y022255D01*
X081429Y023517D01*
X082848Y023517D01*
X082848Y023668D02*
X079858Y023668D01*
X079858Y023510D02*
X079698Y023510D01*
X079698Y023668D02*
X078400Y023668D01*
X079698Y023827D02*
X079858Y023827D01*
X079858Y023985D02*
X079698Y023985D01*
X079698Y024144D02*
X079858Y024144D01*
X079858Y024302D02*
X079698Y024302D01*
X079698Y024461D02*
X079858Y024461D01*
X079858Y024619D02*
X079698Y024619D01*
X079698Y024778D02*
X079858Y024778D01*
X079858Y024936D02*
X079698Y024936D01*
X081215Y025095D02*
X081491Y025095D01*
X081430Y025253D02*
X081276Y025253D01*
X081276Y025412D02*
X081430Y025412D01*
X081430Y025570D02*
X081276Y025570D01*
X081276Y025729D02*
X081430Y025729D01*
X081430Y025887D02*
X081276Y025887D01*
X081276Y026046D02*
X081430Y026046D01*
X081430Y026204D02*
X081276Y026204D01*
X081276Y026363D02*
X081430Y026363D01*
X081437Y026521D02*
X081272Y026521D01*
X081272Y026680D02*
X081544Y026680D01*
X084437Y026680D02*
X084694Y026680D01*
X084586Y026521D02*
X084438Y026521D01*
X084440Y026363D02*
X084580Y026363D01*
X084580Y026204D02*
X084442Y026204D01*
X084443Y026046D02*
X084580Y026046D01*
X084580Y025887D02*
X084440Y025887D01*
X084435Y025729D02*
X084580Y025729D01*
X084580Y025570D02*
X084425Y025570D01*
X084425Y025412D02*
X084580Y025412D01*
X084580Y025253D02*
X084425Y025253D01*
X084364Y025095D02*
X084641Y025095D01*
X084579Y024936D02*
X084427Y024936D01*
X084427Y024778D02*
X084579Y024778D01*
X084579Y024619D02*
X084427Y024619D01*
X084427Y024461D02*
X084579Y024461D01*
X084579Y024302D02*
X084427Y024302D01*
X084427Y024144D02*
X084579Y024144D01*
X084579Y023985D02*
X084427Y023985D01*
X084427Y023827D02*
X084579Y023827D01*
X084579Y023510D02*
X084427Y023510D01*
X084427Y023351D02*
X084579Y023351D01*
X084579Y023193D02*
X084427Y023193D01*
X084427Y023034D02*
X084579Y023034D01*
X084579Y022876D02*
X084427Y022876D01*
X084427Y022717D02*
X084579Y022717D01*
X084579Y022559D02*
X084427Y022559D01*
X084427Y022400D02*
X084579Y022400D01*
X084582Y022242D02*
X084423Y022242D01*
X083008Y022242D02*
X082848Y022242D01*
X082848Y022400D02*
X083008Y022400D01*
X083008Y022559D02*
X082848Y022559D01*
X082848Y022717D02*
X083008Y022717D01*
X083008Y022876D02*
X082848Y022876D01*
X082848Y023034D02*
X083008Y023034D01*
X083008Y023193D02*
X082848Y023193D01*
X082848Y023351D02*
X083008Y023351D01*
X081429Y023351D02*
X081277Y023351D01*
X081277Y023193D02*
X081429Y023193D01*
X081429Y023034D02*
X081277Y023034D01*
X081277Y022876D02*
X081429Y022876D01*
X081429Y022717D02*
X081277Y022717D01*
X081277Y022559D02*
X081429Y022559D01*
X081429Y022400D02*
X081277Y022400D01*
X081274Y022242D02*
X081432Y022242D01*
X079858Y022242D02*
X079698Y022242D01*
X079698Y022400D02*
X079858Y022400D01*
X079858Y022559D02*
X079698Y022559D01*
X079698Y022717D02*
X079858Y022717D01*
X079858Y022876D02*
X079698Y022876D01*
X079698Y023034D02*
X079858Y023034D01*
X079858Y023193D02*
X079698Y023193D01*
X079698Y023351D02*
X079858Y023351D01*
X081277Y023510D02*
X081429Y023510D01*
X081429Y023827D02*
X081277Y023827D01*
X081277Y023985D02*
X081429Y023985D01*
X081429Y024144D02*
X081277Y024144D01*
X081277Y024302D02*
X081429Y024302D01*
X081429Y024461D02*
X081277Y024461D01*
X081277Y024619D02*
X081429Y024619D01*
X081429Y024778D02*
X081277Y024778D01*
X081277Y024936D02*
X081429Y024936D01*
X085997Y024936D02*
X086157Y024936D01*
X086157Y024778D02*
X085997Y024778D01*
X085997Y024619D02*
X086157Y024619D01*
X086157Y024461D02*
X085997Y024461D01*
X085997Y024302D02*
X086157Y024302D01*
X086157Y024144D02*
X085997Y024144D01*
X085997Y023985D02*
X086157Y023985D01*
X086157Y023827D02*
X085997Y023827D01*
X085997Y023351D02*
X086157Y023351D01*
X086157Y023193D02*
X085997Y023193D01*
X085997Y023034D02*
X086157Y023034D01*
X086157Y022876D02*
X085997Y022876D01*
X085997Y022717D02*
X086157Y022717D01*
X086157Y022559D02*
X085997Y022559D01*
X085997Y022400D02*
X086157Y022400D01*
X086157Y022242D02*
X085997Y022242D01*
X087103Y021070D02*
X087316Y021282D01*
X087408Y021374D01*
X087528Y021424D01*
X090119Y021424D01*
X090239Y021374D01*
X090331Y021282D01*
X090381Y021162D01*
X090381Y020867D01*
X090431Y020846D01*
X090613Y020664D01*
X090711Y020427D01*
X090711Y020169D01*
X090613Y019932D01*
X090431Y019750D01*
X090429Y019749D01*
X090513Y019664D01*
X090611Y019427D01*
X090611Y019169D01*
X090595Y019129D01*
X090843Y018881D01*
X090892Y018761D01*
X090892Y015501D01*
X090843Y015381D01*
X090596Y015134D01*
X090611Y015096D01*
X090611Y014839D01*
X090513Y014601D01*
X090429Y014517D01*
X090431Y014516D01*
X090613Y014334D01*
X090711Y014096D01*
X090711Y013839D01*
X090613Y013601D01*
X090538Y013526D01*
X090569Y013494D01*
X090611Y013392D01*
X090611Y012542D01*
X090569Y012440D01*
X090491Y012363D01*
X090390Y012320D01*
X089848Y012320D01*
X090078Y012187D01*
X090366Y011899D01*
X090570Y011547D01*
X090622Y011352D01*
X090859Y011292D01*
X091095Y011160D01*
X091289Y010972D01*
X091377Y010825D01*
X091401Y010801D01*
X091422Y010750D01*
X091428Y010740D01*
X091432Y010726D01*
X091443Y010700D01*
X091443Y010687D01*
X091502Y010480D01*
X091506Y010209D01*
X091443Y009960D01*
X091443Y009959D01*
X091442Y009958D01*
X091440Y009947D01*
X091432Y009934D01*
X091401Y009858D01*
X091376Y009833D01*
X091308Y009711D01*
X091119Y009517D01*
X090887Y009379D01*
X090675Y009318D01*
X090675Y008384D01*
X090720Y008384D01*
X090982Y008314D01*
X091216Y008179D01*
X091407Y007988D01*
X091484Y007853D01*
X091509Y007829D01*
X091535Y007765D01*
X091542Y007753D01*
X091546Y007740D01*
X091551Y007727D01*
X091551Y007720D01*
X091612Y007492D01*
X091612Y007222D01*
X091551Y006994D01*
X091551Y006987D01*
X091546Y006974D01*
X091542Y006961D01*
X091535Y006949D01*
X091509Y006885D01*
X091484Y006861D01*
X091407Y006727D01*
X091216Y006535D01*
X090982Y006400D01*
X090720Y006330D01*
X090675Y006330D01*
X090675Y005713D01*
X090774Y005346D01*
X090774Y005330D01*
X090789Y005316D01*
X090831Y005214D01*
X090831Y004797D01*
X090940Y004734D01*
X091131Y004543D01*
X091267Y004309D01*
X091337Y004047D01*
X091337Y003777D01*
X091267Y003516D01*
X091131Y003282D01*
X090940Y003091D01*
X090706Y002955D01*
X090445Y002885D01*
X090315Y002885D01*
X090289Y002820D01*
X090211Y002742D01*
X090167Y002725D01*
X090198Y002694D01*
X090222Y002653D01*
X090234Y002607D01*
X090234Y002426D01*
X089818Y002426D01*
X089818Y002426D01*
X090234Y002426D01*
X090234Y002245D01*
X090222Y002199D01*
X090198Y002158D01*
X090164Y002124D01*
X090123Y002101D01*
X090078Y002089D01*
X089818Y002089D01*
X089818Y002426D01*
X089818Y002426D01*
X089818Y002089D01*
X089558Y002089D01*
X089512Y002101D01*
X089471Y002124D01*
X089437Y002158D01*
X089414Y002199D01*
X089401Y002245D01*
X089401Y002426D01*
X089818Y002426D01*
X089818Y002426D01*
X089401Y002426D01*
X089401Y002607D01*
X089414Y002653D01*
X089437Y002694D01*
X089468Y002725D01*
X089425Y002742D01*
X089347Y002820D01*
X089320Y002885D01*
X089092Y002885D01*
X088831Y002955D01*
X088781Y002984D01*
X088651Y002984D01*
X088513Y002777D01*
X088493Y002728D01*
X088455Y002691D01*
X088426Y002647D01*
X088382Y002617D01*
X088344Y002580D01*
X088296Y002560D01*
X088252Y002530D01*
X088200Y002520D01*
X088151Y002500D01*
X088098Y002500D01*
X088046Y002489D01*
X087994Y002500D01*
X087754Y002500D01*
X087541Y002442D01*
X087271Y002442D01*
X087058Y002500D01*
X086733Y002500D01*
X086694Y002490D01*
X086629Y002500D01*
X086563Y002500D01*
X086526Y002515D01*
X086487Y002521D01*
X086430Y002555D01*
X086370Y002580D01*
X086341Y002608D01*
X086307Y002629D01*
X086268Y002681D01*
X086221Y002728D01*
X086206Y002765D01*
X086182Y002797D01*
X086166Y002861D01*
X086141Y002922D01*
X086141Y002962D01*
X086044Y003349D01*
X086030Y003335D01*
X085989Y003311D01*
X085944Y003299D01*
X084681Y003299D01*
X084681Y004718D01*
X084521Y004718D01*
X083102Y004718D01*
X083102Y003455D01*
X083114Y003410D01*
X083138Y003369D01*
X083172Y003335D01*
X083213Y003311D01*
X083258Y003299D01*
X084521Y003299D01*
X084521Y004718D01*
X084521Y004878D01*
X083102Y004878D01*
X083102Y006141D01*
X083114Y006186D01*
X083138Y006227D01*
X083172Y006261D01*
X083189Y006271D01*
X083146Y006314D01*
X083104Y006416D01*
X083104Y007249D01*
X083034Y007131D01*
X082949Y007048D01*
X082949Y006416D01*
X082907Y006314D01*
X082863Y006271D01*
X082881Y006261D01*
X082914Y006227D01*
X082938Y006186D01*
X082950Y006141D01*
X082950Y004878D01*
X081531Y004878D01*
X081531Y004718D01*
X081531Y003299D01*
X082794Y003299D01*
X082840Y003311D01*
X082881Y003335D01*
X082914Y003369D01*
X082938Y003410D01*
X082950Y003455D01*
X082950Y004718D01*
X081531Y004718D01*
X081371Y004718D01*
X079953Y004718D01*
X079953Y003455D01*
X079965Y003410D01*
X079989Y003369D01*
X080022Y003335D01*
X080063Y003311D01*
X080109Y003299D01*
X081371Y003299D01*
X081371Y004718D01*
X081371Y004878D01*
X079953Y004878D01*
X079953Y006141D01*
X079965Y006186D01*
X079989Y006227D01*
X080022Y006261D01*
X080040Y006271D01*
X079996Y006314D01*
X079954Y006416D01*
X079954Y007294D01*
X079945Y007277D01*
X079799Y007125D01*
X079799Y006416D01*
X079757Y006314D01*
X079714Y006271D01*
X079731Y006261D01*
X079765Y006227D01*
X079788Y006186D01*
X079801Y006141D01*
X079801Y004878D01*
X078382Y004878D01*
X078382Y004718D01*
X079801Y004718D01*
X079801Y003455D01*
X079788Y003410D01*
X079765Y003369D01*
X079731Y003335D01*
X079690Y003311D01*
X079644Y003299D01*
X078382Y003299D01*
X078382Y004718D01*
X078222Y004718D01*
X078222Y003299D01*
X076959Y003299D01*
X076913Y003311D01*
X076872Y003335D01*
X076839Y003369D01*
X076815Y003410D01*
X076803Y003455D01*
X076803Y004718D01*
X078222Y004718D01*
X078222Y004878D01*
X076803Y004878D01*
X076803Y006141D01*
X076815Y006186D01*
X076839Y006227D01*
X076872Y006261D01*
X076890Y006271D01*
X076847Y006314D01*
X076805Y006416D01*
X076805Y007197D01*
X076708Y007157D01*
X076232Y007157D01*
X074955Y005881D01*
X070400Y005881D01*
X070381Y005833D01*
X070340Y005792D01*
X070292Y005676D01*
X070200Y005584D01*
X070079Y005534D01*
X068940Y005534D01*
X068901Y005495D01*
X068742Y005429D01*
X068570Y005429D01*
X068412Y005495D01*
X068290Y005616D01*
X068224Y005775D01*
X068224Y005881D01*
X067856Y005881D01*
X067813Y005863D01*
X067531Y005863D01*
X067488Y005881D01*
X066048Y005881D01*
X065987Y005820D01*
X065867Y005770D01*
X064910Y005770D01*
X064790Y005820D01*
X064729Y005881D01*
X061048Y005881D01*
X060761Y005594D01*
X060761Y005539D01*
X060695Y005380D01*
X060574Y005259D01*
X060415Y005193D01*
X060243Y005193D01*
X060085Y005259D01*
X059963Y005380D01*
X059898Y005539D01*
X059898Y005711D01*
X059963Y005869D01*
X059975Y005881D01*
X059900Y005881D01*
X058001Y003981D01*
X057877Y003930D01*
X057847Y003930D01*
X057337Y003420D01*
X048381Y003420D01*
X048226Y003574D01*
X044928Y003574D01*
X044854Y003500D01*
X044782Y003420D01*
X044759Y003405D01*
X044739Y003386D01*
X044646Y003332D01*
X044597Y003300D01*
X044581Y003284D01*
X044557Y003274D01*
X044555Y003273D01*
X044551Y003271D01*
X044517Y003258D01*
X044505Y003251D01*
X044492Y003247D01*
X044479Y003242D01*
X044472Y003242D01*
X044401Y003223D01*
X044298Y003189D01*
X044271Y003188D01*
X044244Y003181D01*
X044136Y003181D01*
X044028Y003175D01*
X044001Y003181D01*
X042123Y003181D01*
X041862Y003251D01*
X041628Y003386D01*
X041437Y003577D01*
X041302Y003811D01*
X041232Y004072D01*
X041232Y004294D01*
X041063Y004463D01*
X040952Y004654D01*
X040932Y004634D01*
X040891Y004611D01*
X040845Y004598D01*
X040210Y004598D01*
X040210Y005016D01*
X040055Y005016D01*
X040055Y004598D01*
X039420Y004598D01*
X039393Y004605D01*
X039393Y004490D02*
X041047Y004490D01*
X040956Y004648D02*
X040946Y004648D01*
X041194Y004331D02*
X039393Y004331D01*
X039393Y004173D02*
X041232Y004173D01*
X041247Y004014D02*
X039393Y004014D01*
X039393Y003856D02*
X041290Y003856D01*
X041367Y003697D02*
X039393Y003697D01*
X039393Y003539D02*
X041475Y003539D01*
X041637Y003380D02*
X039393Y003380D01*
X039393Y003222D02*
X041969Y003222D01*
X043614Y002794D02*
X043614Y002159D01*
X044031Y002159D01*
X044031Y002004D01*
X043614Y002004D01*
X043614Y001369D01*
X043626Y001323D01*
X043650Y001282D01*
X043683Y001248D01*
X043724Y001225D01*
X043770Y001213D01*
X044031Y001213D01*
X044031Y002004D01*
X044186Y002004D01*
X044186Y001213D01*
X044448Y001213D01*
X044493Y001225D01*
X044534Y001248D01*
X044568Y001282D01*
X044592Y001323D01*
X044604Y001369D01*
X044604Y002004D01*
X044186Y002004D01*
X044186Y002159D01*
X044031Y002159D01*
X044031Y002950D01*
X043770Y002950D01*
X043724Y002938D01*
X043683Y002915D01*
X043650Y002881D01*
X043626Y002840D01*
X043614Y002794D01*
X043614Y002746D02*
X039393Y002746D01*
X039393Y002588D02*
X043614Y002588D01*
X043614Y002429D02*
X039393Y002429D01*
X039393Y002271D02*
X043614Y002271D01*
X043614Y001954D02*
X039393Y001954D01*
X039393Y002112D02*
X044031Y002112D01*
X044186Y002112D02*
X047880Y002112D01*
X047729Y001954D02*
X044604Y001954D01*
X044604Y001795D02*
X047663Y001795D01*
X047635Y001637D02*
X044604Y001637D01*
X044604Y001478D02*
X047635Y001478D01*
X047698Y001320D02*
X044590Y001320D01*
X044186Y001320D02*
X044031Y001320D01*
X044031Y001478D02*
X044186Y001478D01*
X044186Y001637D02*
X044031Y001637D01*
X044031Y001795D02*
X044186Y001795D01*
X044186Y001954D02*
X044031Y001954D01*
X044186Y002159D02*
X044604Y002159D01*
X044604Y002794D01*
X044592Y002840D01*
X044568Y002881D01*
X044534Y002915D01*
X044493Y002938D01*
X044448Y002950D01*
X044186Y002950D01*
X044186Y002159D01*
X044186Y002271D02*
X044031Y002271D01*
X044031Y002429D02*
X044186Y002429D01*
X044186Y002588D02*
X044031Y002588D01*
X044031Y002746D02*
X044186Y002746D01*
X044186Y002905D02*
X044031Y002905D01*
X043674Y002905D02*
X039393Y002905D01*
X039393Y003063D02*
X086116Y003063D01*
X086148Y002905D02*
X044544Y002905D01*
X044604Y002746D02*
X086214Y002746D01*
X086361Y002588D02*
X044604Y002588D01*
X044604Y002429D02*
X089401Y002429D01*
X089401Y002271D02*
X044604Y002271D01*
X043614Y001795D02*
X039393Y001795D01*
X039393Y001637D02*
X043614Y001637D01*
X043614Y001478D02*
X039393Y001478D01*
X039393Y001320D02*
X043628Y001320D01*
X047806Y001161D02*
X039393Y001161D01*
X039393Y001003D02*
X048033Y001003D01*
X048531Y001003D02*
X048864Y001003D01*
X048685Y002112D02*
X049070Y002112D01*
X049494Y002112D02*
X049880Y002112D01*
X050685Y002112D02*
X051070Y002112D01*
X051494Y002112D02*
X051880Y002112D01*
X052685Y002112D02*
X054079Y002112D01*
X054262Y002112D02*
X054302Y002112D01*
X054302Y001954D02*
X054262Y001954D01*
X054262Y001795D02*
X054302Y001795D01*
X054302Y001637D02*
X054262Y001637D01*
X054262Y001478D02*
X054302Y001478D01*
X054302Y001320D02*
X054262Y001320D01*
X054262Y001161D02*
X054302Y001161D01*
X054614Y001161D02*
X054848Y001161D01*
X054762Y001320D02*
X054757Y001320D01*
X055046Y001003D02*
X053518Y001003D01*
X053302Y001003D02*
X053262Y001003D01*
X053262Y001161D02*
X053302Y001161D01*
X053302Y001320D02*
X053262Y001320D01*
X053262Y001478D02*
X053302Y001478D01*
X053302Y001637D02*
X053262Y001637D01*
X053262Y001795D02*
X053302Y001795D01*
X053302Y001954D02*
X053262Y001954D01*
X052971Y001954D02*
X052836Y001954D01*
X053593Y001954D02*
X053859Y001954D01*
X053767Y001795D02*
X053747Y001795D01*
X053802Y001320D02*
X053808Y001320D01*
X053716Y001161D02*
X053950Y001161D01*
X053046Y001003D02*
X052531Y001003D01*
X052758Y001161D02*
X052848Y001161D01*
X052033Y001003D02*
X051700Y001003D01*
X054485Y002112D02*
X056079Y002112D01*
X056262Y002112D02*
X056302Y002112D01*
X056302Y001954D02*
X056262Y001954D01*
X056262Y001795D02*
X056302Y001795D01*
X056302Y001637D02*
X056262Y001637D01*
X056262Y001478D02*
X056302Y001478D01*
X056302Y001320D02*
X056262Y001320D01*
X056262Y001161D02*
X056302Y001161D01*
X056614Y001161D02*
X056848Y001161D01*
X056762Y001320D02*
X056757Y001320D01*
X057046Y001003D02*
X055518Y001003D01*
X055302Y001003D02*
X055262Y001003D01*
X055262Y001161D02*
X055302Y001161D01*
X055302Y001320D02*
X055262Y001320D01*
X055262Y001478D02*
X055302Y001478D01*
X055302Y001637D02*
X055262Y001637D01*
X055262Y001795D02*
X055302Y001795D01*
X055302Y001954D02*
X055262Y001954D01*
X054971Y001954D02*
X054705Y001954D01*
X054797Y001795D02*
X054817Y001795D01*
X055593Y001954D02*
X055859Y001954D01*
X055767Y001795D02*
X055747Y001795D01*
X055802Y001320D02*
X055808Y001320D01*
X055716Y001161D02*
X055950Y001161D01*
X056797Y001795D02*
X056817Y001795D01*
X056705Y001954D02*
X056971Y001954D01*
X057262Y001954D02*
X057302Y001954D01*
X057302Y001795D02*
X057262Y001795D01*
X057262Y001637D02*
X057302Y001637D01*
X057302Y001478D02*
X057262Y001478D01*
X057262Y001320D02*
X057302Y001320D01*
X057302Y001161D02*
X057262Y001161D01*
X057262Y001003D02*
X057302Y001003D01*
X057518Y001003D02*
X075199Y001003D01*
X074971Y001161D02*
X057716Y001161D01*
X057802Y001320D02*
X074863Y001320D01*
X074801Y001478D02*
X057832Y001478D01*
X057816Y001637D02*
X074801Y001637D01*
X074828Y001795D02*
X057747Y001795D01*
X057593Y001954D02*
X074894Y001954D01*
X075045Y002112D02*
X056485Y002112D01*
X057456Y003539D02*
X076803Y003539D01*
X076803Y003697D02*
X057615Y003697D01*
X057773Y003856D02*
X076803Y003856D01*
X076803Y004014D02*
X058034Y004014D01*
X058192Y004173D02*
X076803Y004173D01*
X076803Y004331D02*
X058351Y004331D01*
X058509Y004490D02*
X076803Y004490D01*
X076803Y004648D02*
X058668Y004648D01*
X058826Y004807D02*
X078222Y004807D01*
X078222Y004648D02*
X078382Y004648D01*
X078382Y004490D02*
X078222Y004490D01*
X078222Y004331D02*
X078382Y004331D01*
X078382Y004173D02*
X078222Y004173D01*
X078222Y004014D02*
X078382Y004014D01*
X078382Y003856D02*
X078222Y003856D01*
X078222Y003697D02*
X078382Y003697D01*
X078382Y003539D02*
X078222Y003539D01*
X078222Y003380D02*
X078382Y003380D01*
X079772Y003380D02*
X079982Y003380D01*
X079953Y003539D02*
X079801Y003539D01*
X079801Y003697D02*
X079953Y003697D01*
X079953Y003856D02*
X079801Y003856D01*
X079801Y004014D02*
X079953Y004014D01*
X079953Y004173D02*
X079801Y004173D01*
X079801Y004331D02*
X079953Y004331D01*
X079953Y004490D02*
X079801Y004490D01*
X079801Y004648D02*
X079953Y004648D01*
X079953Y004965D02*
X079801Y004965D01*
X079801Y005124D02*
X079953Y005124D01*
X079953Y005282D02*
X079801Y005282D01*
X079801Y005441D02*
X079953Y005441D01*
X079953Y005599D02*
X079801Y005599D01*
X079801Y005758D02*
X079953Y005758D01*
X079953Y005916D02*
X079801Y005916D01*
X079801Y006075D02*
X079953Y006075D01*
X079994Y006233D02*
X079759Y006233D01*
X079789Y006392D02*
X079964Y006392D01*
X079954Y006550D02*
X079799Y006550D01*
X079799Y006709D02*
X079954Y006709D01*
X079954Y006867D02*
X079799Y006867D01*
X079799Y007026D02*
X079954Y007026D01*
X079954Y007184D02*
X079856Y007184D01*
X082949Y007026D02*
X083104Y007026D01*
X083104Y007184D02*
X083065Y007184D01*
X083104Y006867D02*
X082949Y006867D01*
X082949Y006709D02*
X083104Y006709D01*
X083104Y006550D02*
X082949Y006550D01*
X082939Y006392D02*
X083114Y006392D01*
X083144Y006233D02*
X082908Y006233D01*
X082950Y006075D02*
X083102Y006075D01*
X083102Y005916D02*
X082950Y005916D01*
X082950Y005758D02*
X083102Y005758D01*
X083102Y005599D02*
X082950Y005599D01*
X082950Y005441D02*
X083102Y005441D01*
X083102Y005282D02*
X082950Y005282D01*
X082950Y005124D02*
X083102Y005124D01*
X083102Y004965D02*
X082950Y004965D01*
X082950Y004648D02*
X083102Y004648D01*
X083102Y004490D02*
X082950Y004490D01*
X082950Y004331D02*
X083102Y004331D01*
X083102Y004173D02*
X082950Y004173D01*
X082950Y004014D02*
X083102Y004014D01*
X083102Y003856D02*
X082950Y003856D01*
X082950Y003697D02*
X083102Y003697D01*
X083102Y003539D02*
X082950Y003539D01*
X082921Y003380D02*
X083131Y003380D01*
X084521Y003380D02*
X084681Y003380D01*
X084681Y003539D02*
X084521Y003539D01*
X084521Y003697D02*
X084681Y003697D01*
X084681Y003856D02*
X084521Y003856D01*
X084521Y004014D02*
X084681Y004014D01*
X084681Y004173D02*
X084521Y004173D01*
X084521Y004331D02*
X084681Y004331D01*
X084681Y004490D02*
X084521Y004490D01*
X084521Y004648D02*
X084681Y004648D01*
X084521Y004807D02*
X081531Y004807D01*
X081531Y004648D02*
X081371Y004648D01*
X081371Y004490D02*
X081531Y004490D01*
X081531Y004331D02*
X081371Y004331D01*
X081371Y004173D02*
X081531Y004173D01*
X081531Y004014D02*
X081371Y004014D01*
X081371Y003856D02*
X081531Y003856D01*
X081531Y003697D02*
X081371Y003697D01*
X081371Y003539D02*
X081531Y003539D01*
X081531Y003380D02*
X081371Y003380D01*
X081045Y002112D02*
X080659Y002112D01*
X080236Y002112D02*
X079850Y002112D01*
X079045Y002112D02*
X078659Y002112D01*
X078236Y002112D02*
X077850Y002112D01*
X077045Y002112D02*
X076659Y002112D01*
X076236Y002112D02*
X075850Y002112D01*
X075696Y001003D02*
X076030Y001003D01*
X076832Y003380D02*
X044730Y003380D01*
X044893Y003539D02*
X048262Y003539D01*
X044399Y003222D02*
X086076Y003222D01*
X088353Y002588D02*
X089401Y002588D01*
X089421Y002746D02*
X088500Y002746D01*
X088598Y002905D02*
X089019Y002905D01*
X090215Y002746D02*
X093391Y002746D01*
X093391Y002588D02*
X090234Y002588D01*
X090234Y002429D02*
X093391Y002429D01*
X093391Y002271D02*
X090234Y002271D01*
X090143Y002112D02*
X093391Y002112D01*
X093391Y001954D02*
X084908Y001954D01*
X085025Y001795D02*
X093391Y001795D01*
X093391Y001637D02*
X085091Y001637D01*
X085094Y001478D02*
X093391Y001478D01*
X093391Y001320D02*
X085073Y001320D01*
X085007Y001161D02*
X093391Y001161D01*
X093391Y001003D02*
X084865Y001003D01*
X084659Y002112D02*
X089492Y002112D01*
X089818Y002112D02*
X089818Y002112D01*
X089818Y002271D02*
X089818Y002271D01*
X090518Y002905D02*
X093391Y002905D01*
X093391Y003063D02*
X090893Y003063D01*
X091072Y003222D02*
X093391Y003222D01*
X093391Y003380D02*
X091188Y003380D01*
X091273Y003539D02*
X093391Y003539D01*
X092934Y003697D02*
X092774Y003697D01*
X092774Y003856D02*
X092934Y003856D01*
X092934Y004014D02*
X092774Y004014D01*
X092774Y004173D02*
X092934Y004173D01*
X092934Y004331D02*
X092774Y004331D01*
X092774Y004490D02*
X091162Y004490D01*
X091253Y004331D02*
X092174Y004331D01*
X092174Y004173D02*
X091303Y004173D01*
X091337Y004014D02*
X092174Y004014D01*
X092174Y003856D02*
X091337Y003856D01*
X091315Y003697D02*
X092184Y003697D01*
X092174Y004648D02*
X091026Y004648D01*
X090831Y004807D02*
X092174Y004807D01*
X092174Y004965D02*
X090831Y004965D01*
X090831Y005124D02*
X092174Y005124D01*
X092223Y005282D02*
X090802Y005282D01*
X090748Y005441D02*
X093391Y005441D01*
X093391Y005599D02*
X090706Y005599D01*
X090675Y005758D02*
X093391Y005758D01*
X093391Y005916D02*
X090675Y005916D01*
X090675Y006075D02*
X093391Y006075D01*
X093391Y006233D02*
X090675Y006233D01*
X090951Y006392D02*
X093391Y006392D01*
X093391Y006550D02*
X091231Y006550D01*
X091389Y006709D02*
X093391Y006709D01*
X092789Y006867D02*
X092634Y006867D01*
X092634Y007026D02*
X092789Y007026D01*
X092789Y007184D02*
X092634Y007184D01*
X092634Y007343D02*
X091612Y007343D01*
X091610Y007501D02*
X091842Y007501D01*
X091842Y007660D02*
X091567Y007660D01*
X091513Y007818D02*
X091916Y007818D01*
X091413Y007977D02*
X093391Y007977D01*
X093391Y008135D02*
X091259Y008135D01*
X091016Y008294D02*
X093391Y008294D01*
X093391Y008452D02*
X090675Y008452D01*
X090675Y008611D02*
X093391Y008611D01*
X093391Y008769D02*
X090675Y008769D01*
X090675Y008928D02*
X093391Y008928D01*
X093391Y009086D02*
X090675Y009086D01*
X090675Y009245D02*
X093391Y009245D01*
X093391Y009403D02*
X090929Y009403D01*
X091163Y009562D02*
X093391Y009562D01*
X093391Y009720D02*
X091313Y009720D01*
X091409Y009879D02*
X091795Y009879D01*
X091734Y010037D02*
X091462Y010037D01*
X091502Y010196D02*
X091734Y010196D01*
X091504Y010354D02*
X092526Y010354D01*
X092681Y010354D02*
X093391Y010354D01*
X093391Y010407D02*
X092681Y010407D01*
X092681Y010252D01*
X093391Y010252D01*
X093391Y010407D01*
X092680Y010513D02*
X092526Y010513D01*
X092526Y010671D02*
X092680Y010671D01*
X092680Y010196D02*
X092526Y010196D01*
X092526Y010037D02*
X092680Y010037D01*
X092680Y009879D02*
X092526Y009879D01*
X091734Y010513D02*
X091492Y010513D01*
X091447Y010671D02*
X091735Y010671D01*
X091374Y010830D02*
X093391Y010830D01*
X093391Y010988D02*
X091272Y010988D01*
X091109Y011147D02*
X093391Y011147D01*
X093391Y011305D02*
X090807Y011305D01*
X090592Y011464D02*
X093391Y011464D01*
X093391Y011622D02*
X090526Y011622D01*
X090435Y011781D02*
X093391Y011781D01*
X093391Y011939D02*
X090326Y011939D01*
X090168Y012098D02*
X093391Y012098D01*
X093391Y012256D02*
X089959Y012256D01*
X090544Y012415D02*
X093391Y012415D01*
X093391Y012573D02*
X090611Y012573D01*
X090611Y012732D02*
X093391Y012732D01*
X093391Y012890D02*
X090611Y012890D01*
X090611Y013049D02*
X093391Y013049D01*
X093391Y013207D02*
X090611Y013207D01*
X090611Y013366D02*
X093391Y013366D01*
X093391Y013524D02*
X090539Y013524D01*
X090647Y013683D02*
X093391Y013683D01*
X093391Y013841D02*
X090711Y013841D01*
X090711Y014000D02*
X093391Y014000D01*
X093391Y014158D02*
X090685Y014158D01*
X090620Y014317D02*
X093391Y014317D01*
X093391Y014475D02*
X090471Y014475D01*
X090526Y014634D02*
X093391Y014634D01*
X093391Y014792D02*
X090592Y014792D01*
X090611Y014951D02*
X093391Y014951D01*
X093391Y015109D02*
X090606Y015109D01*
X090730Y015268D02*
X093391Y015268D01*
X093391Y015426D02*
X090862Y015426D01*
X090892Y015585D02*
X093391Y015585D01*
X093391Y015743D02*
X090892Y015743D01*
X090892Y015902D02*
X093391Y015902D01*
X093391Y016060D02*
X090892Y016060D01*
X090892Y016219D02*
X093391Y016219D01*
X093391Y016377D02*
X090892Y016377D01*
X090892Y016536D02*
X093391Y016536D01*
X093391Y016694D02*
X090892Y016694D01*
X090892Y016853D02*
X093391Y016853D01*
X093391Y017011D02*
X090892Y017011D01*
X090892Y017170D02*
X093391Y017170D01*
X093391Y017328D02*
X090892Y017328D01*
X090892Y017487D02*
X093391Y017487D01*
X093391Y017645D02*
X090892Y017645D01*
X090892Y017804D02*
X093391Y017804D01*
X093391Y017962D02*
X090892Y017962D01*
X090892Y018121D02*
X093391Y018121D01*
X093391Y018279D02*
X090892Y018279D01*
X090892Y018438D02*
X093391Y018438D01*
X093391Y018596D02*
X090892Y018596D01*
X090892Y018755D02*
X093391Y018755D01*
X093391Y018913D02*
X090810Y018913D01*
X090652Y019072D02*
X093391Y019072D01*
X093391Y019230D02*
X090611Y019230D01*
X090611Y019389D02*
X093391Y019389D01*
X093391Y019547D02*
X090561Y019547D01*
X090471Y019706D02*
X093391Y019706D01*
X093391Y019864D02*
X090546Y019864D01*
X090651Y020023D02*
X093391Y020023D01*
X093391Y020181D02*
X090711Y020181D01*
X090711Y020340D02*
X093391Y020340D01*
X093391Y020498D02*
X090682Y020498D01*
X090616Y020657D02*
X093391Y020657D01*
X093391Y020815D02*
X090462Y020815D01*
X090381Y020974D02*
X093391Y020974D01*
X093391Y021132D02*
X090381Y021132D01*
X090322Y021291D02*
X093391Y021291D01*
X093391Y021449D02*
X078400Y021449D01*
X078400Y021291D02*
X087325Y021291D01*
X087166Y021132D02*
X085537Y021132D01*
X085594Y021109D02*
X085435Y021175D01*
X085263Y021175D01*
X085104Y021109D01*
X084983Y020988D01*
X084917Y020829D01*
X084917Y020657D01*
X084983Y020498D01*
X085104Y020377D01*
X085263Y020311D01*
X085435Y020311D01*
X085594Y020377D01*
X085633Y020416D01*
X086941Y020416D01*
X086912Y020214D01*
X086940Y019976D01*
X086940Y019918D01*
X086921Y019845D01*
X086921Y019033D01*
X086940Y018959D01*
X086940Y016032D01*
X086932Y015960D01*
X086940Y015898D01*
X086940Y015834D01*
X086959Y015764D01*
X087334Y013092D01*
X087334Y010962D01*
X087404Y010701D01*
X087539Y010467D01*
X087582Y010424D01*
X087582Y005037D01*
X086926Y005037D01*
X086811Y005007D01*
X086770Y005048D01*
X086576Y005128D01*
X086366Y005128D01*
X086173Y005048D01*
X086100Y004975D01*
X086100Y006141D01*
X086088Y006186D01*
X086064Y006227D01*
X086030Y006261D01*
X086013Y006271D01*
X086056Y006314D01*
X086098Y006416D01*
X086098Y006968D01*
X086237Y007110D01*
X086369Y007345D01*
X086436Y007607D01*
X086433Y007927D01*
X086762Y007927D01*
X086864Y007969D01*
X086942Y008047D01*
X086984Y008148D01*
X086984Y010896D01*
X086942Y010998D01*
X086864Y011076D01*
X086860Y011078D01*
X086886Y011141D01*
X086886Y012432D01*
X086854Y012508D01*
X086854Y012820D01*
X086933Y013010D01*
X086933Y013319D01*
X086854Y013509D01*
X086854Y013516D01*
X086787Y013677D01*
X086787Y013849D01*
X086745Y013951D01*
X086667Y014029D01*
X086566Y014071D01*
X086394Y014071D01*
X086232Y014138D01*
X080861Y014138D01*
X080861Y014670D01*
X082092Y015902D01*
X082148Y015902D01*
X086940Y015902D01*
X086940Y016060D02*
X082399Y016060D01*
X082428Y016089D02*
X082494Y016248D01*
X082494Y016419D01*
X082428Y016578D01*
X082306Y016700D01*
X082148Y016765D01*
X081976Y016765D01*
X081817Y016700D01*
X081696Y016578D01*
X081630Y016419D01*
X081630Y016364D01*
X080482Y015216D01*
X078400Y017298D01*
X078400Y020028D01*
X079976Y017920D01*
X079976Y017803D01*
X080042Y017644D01*
X080164Y017522D01*
X080322Y017457D01*
X080494Y017457D01*
X080653Y017522D01*
X080774Y017644D01*
X080840Y017803D01*
X080840Y017974D01*
X080774Y018133D01*
X080653Y018255D01*
X080494Y018320D01*
X080493Y018320D01*
X078400Y021119D01*
X078400Y022108D01*
X078400Y021925D02*
X093391Y021925D01*
X093391Y021766D02*
X078400Y021766D01*
X078400Y021608D02*
X093391Y021608D01*
X088182Y022876D02*
X087576Y022876D01*
X087576Y023034D02*
X088129Y023034D01*
X088074Y023193D02*
X087576Y023193D01*
X087576Y023351D02*
X088055Y023351D01*
X088074Y023510D02*
X087576Y023510D01*
X087103Y021070D02*
X085633Y021070D01*
X085594Y021109D01*
X085161Y021132D02*
X078400Y021132D01*
X078509Y020974D02*
X084977Y020974D01*
X084917Y020815D02*
X078628Y020815D01*
X078746Y020657D02*
X084917Y020657D01*
X084983Y020498D02*
X078865Y020498D01*
X078983Y020340D02*
X085193Y020340D01*
X085505Y020340D02*
X086930Y020340D01*
X086916Y020181D02*
X079102Y020181D01*
X079220Y020023D02*
X086935Y020023D01*
X086926Y019864D02*
X079339Y019864D01*
X079457Y019706D02*
X086921Y019706D01*
X086921Y019547D02*
X079576Y019547D01*
X079694Y019389D02*
X086921Y019389D01*
X086921Y019230D02*
X079813Y019230D01*
X079931Y019072D02*
X086921Y019072D01*
X086940Y018913D02*
X080050Y018913D01*
X080168Y018755D02*
X086940Y018755D01*
X086940Y018596D02*
X080287Y018596D01*
X080405Y018438D02*
X086940Y018438D01*
X086940Y018279D02*
X080593Y018279D01*
X080779Y018121D02*
X086940Y018121D01*
X086940Y017962D02*
X080840Y017962D01*
X080840Y017804D02*
X086940Y017804D01*
X086940Y017645D02*
X080775Y017645D01*
X080567Y017487D02*
X086940Y017487D01*
X086940Y017328D02*
X078400Y017328D01*
X078400Y017487D02*
X080249Y017487D01*
X080041Y017645D02*
X078400Y017645D01*
X078400Y017804D02*
X079976Y017804D01*
X079945Y017962D02*
X078400Y017962D01*
X078400Y018121D02*
X079826Y018121D01*
X079708Y018279D02*
X078400Y018279D01*
X078400Y018438D02*
X079589Y018438D01*
X079471Y018596D02*
X078400Y018596D01*
X078400Y018755D02*
X079352Y018755D01*
X079234Y018913D02*
X078400Y018913D01*
X078400Y019072D02*
X079115Y019072D01*
X078997Y019230D02*
X078400Y019230D01*
X078400Y019389D02*
X078878Y019389D01*
X078760Y019547D02*
X078400Y019547D01*
X078400Y019706D02*
X078641Y019706D01*
X078522Y019864D02*
X078400Y019864D01*
X078400Y020023D02*
X078404Y020023D01*
X073361Y023676D02*
X072298Y022613D01*
X073361Y023676D02*
X073361Y024818D01*
X076333Y025959D02*
X076383Y025910D01*
X069699Y024522D02*
X069699Y032692D01*
X069247Y031491D02*
X069247Y023991D01*
X064463Y026924D02*
X064463Y027534D01*
X064227Y027770D01*
X063617Y027770D01*
X060930Y026796D02*
X060930Y024877D01*
X056304Y020251D01*
X059601Y020526D02*
X059601Y013026D01*
X055664Y014344D02*
X055664Y014504D01*
X054366Y014504D01*
X054206Y014504D01*
X054206Y014344D01*
X052787Y014344D01*
X052787Y013081D01*
X052799Y013036D01*
X052823Y012995D01*
X052857Y012961D01*
X052874Y012951D01*
X052831Y012908D01*
X052789Y012806D01*
X052789Y011515D01*
X052804Y011477D01*
X052808Y011295D01*
X052418Y011295D01*
X052514Y011335D01*
X052592Y011413D01*
X052634Y011515D01*
X052634Y012806D01*
X052592Y012908D01*
X052548Y012951D01*
X052566Y012961D01*
X052599Y012995D01*
X052623Y013036D01*
X052635Y013081D01*
X052635Y014344D01*
X051216Y014344D01*
X051216Y014504D01*
X051056Y014504D01*
X051056Y014344D01*
X049638Y014344D01*
X049638Y013081D01*
X049650Y013036D01*
X049674Y012995D01*
X049707Y012961D01*
X049725Y012951D01*
X049681Y012908D01*
X049639Y012806D01*
X049639Y011515D01*
X049652Y011484D01*
X049654Y011295D01*
X049268Y011295D01*
X049364Y011335D01*
X049442Y011413D01*
X049484Y011515D01*
X049484Y012806D01*
X049442Y012908D01*
X049399Y012951D01*
X049416Y012961D01*
X049450Y012995D01*
X049474Y013036D01*
X049486Y013081D01*
X049486Y014344D01*
X048067Y014344D01*
X048067Y014504D01*
X049486Y014504D01*
X049486Y015767D01*
X049474Y015812D01*
X049450Y015853D01*
X049416Y015887D01*
X049375Y015911D01*
X049329Y015923D01*
X048067Y015923D01*
X048067Y014504D01*
X047907Y014504D01*
X047907Y015923D01*
X046644Y015923D01*
X046599Y015911D01*
X046557Y015887D01*
X046524Y015853D01*
X046500Y015812D01*
X046488Y015767D01*
X046488Y014504D01*
X047907Y014504D01*
X047907Y014344D01*
X046488Y014344D01*
X046488Y013081D01*
X046500Y013036D01*
X046524Y012995D01*
X046557Y012961D01*
X046575Y012951D01*
X046532Y012908D01*
X046490Y012806D01*
X046490Y011515D01*
X046501Y011486D01*
X046501Y011295D01*
X045826Y011295D01*
X045724Y011253D01*
X045646Y011175D01*
X045604Y011074D01*
X045604Y008326D01*
X045646Y008224D01*
X045724Y008146D01*
X045728Y008144D01*
X045702Y008081D01*
X045702Y006790D01*
X045718Y006752D01*
X045738Y006001D01*
X045804Y005854D01*
X045804Y005839D01*
X045891Y005628D01*
X044571Y005628D01*
X044544Y005634D01*
X044436Y005628D01*
X044328Y005628D01*
X044302Y005621D01*
X044274Y005620D01*
X044171Y005586D01*
X044067Y005558D01*
X044043Y005544D01*
X044017Y005536D01*
X043926Y005477D01*
X043833Y005423D01*
X043813Y005404D01*
X043790Y005389D01*
X043718Y005308D01*
X043644Y005234D01*
X043284Y005234D01*
X043224Y005456D01*
X043224Y005463D01*
X043219Y005476D01*
X043215Y005490D01*
X043209Y005502D01*
X043182Y005565D01*
X043158Y005590D01*
X043080Y005724D01*
X042911Y005893D01*
X042911Y006870D01*
X043023Y006897D01*
X043247Y006897D01*
X043348Y006939D01*
X043426Y007017D01*
X043468Y007118D01*
X043468Y007195D01*
X043494Y007219D01*
X043636Y007449D01*
X043714Y007708D01*
X043722Y007978D01*
X043660Y008241D01*
X043532Y008479D01*
X043468Y008546D01*
X043468Y008628D01*
X043426Y008730D01*
X043348Y008808D01*
X043247Y008850D01*
X043009Y008850D01*
X042911Y008880D01*
X042911Y009300D01*
X042917Y009409D01*
X042911Y009434D01*
X042911Y009461D01*
X042883Y009566D01*
X042849Y009724D01*
X042903Y009778D01*
X043038Y010012D01*
X043108Y010273D01*
X043108Y010543D01*
X043038Y010805D01*
X042903Y011039D01*
X042712Y011230D01*
X042478Y011365D01*
X042344Y011401D01*
X042334Y011411D01*
X042261Y011492D01*
X042238Y011507D01*
X042220Y011525D01*
X042125Y011580D01*
X042034Y011639D01*
X042008Y011647D01*
X041986Y011660D01*
X041880Y011689D01*
X041776Y011722D01*
X041750Y011724D01*
X041724Y011730D01*
X041615Y011730D01*
X041506Y011736D01*
X041480Y011730D01*
X041454Y011730D01*
X041349Y011702D01*
X041242Y011679D01*
X041218Y011667D01*
X041193Y011660D01*
X041098Y011606D01*
X041001Y011556D01*
X040982Y011538D01*
X040959Y011525D01*
X040882Y011448D01*
X040801Y011375D01*
X040786Y011353D01*
X040768Y011334D01*
X040713Y011240D01*
X040654Y011148D01*
X040646Y011123D01*
X040632Y011100D01*
X040604Y010994D01*
X040571Y010891D01*
X040569Y010864D01*
X040562Y010839D01*
X040562Y010730D01*
X040557Y010621D01*
X040562Y010595D01*
X040562Y010273D01*
X040632Y010012D01*
X040675Y009939D01*
X040546Y009939D01*
X040546Y009522D01*
X040546Y009106D01*
X040727Y009106D01*
X040773Y009118D01*
X040814Y009142D01*
X040844Y009173D01*
X040858Y009141D01*
X040858Y007658D01*
X040856Y007528D01*
X040858Y007523D01*
X040858Y005585D01*
X040845Y005588D01*
X040210Y005588D01*
X040210Y005171D01*
X040055Y005171D01*
X040055Y005588D01*
X039420Y005588D01*
X039393Y005581D01*
X039393Y006993D01*
X039812Y006993D01*
X039812Y007793D01*
X039972Y007793D01*
X039972Y007953D01*
X040572Y007953D01*
X040572Y008597D01*
X040559Y008643D01*
X040536Y008684D01*
X040502Y008717D01*
X040461Y008741D01*
X040415Y008753D01*
X039972Y008753D01*
X039972Y007953D01*
X039812Y007953D01*
X039812Y008753D01*
X039393Y008753D01*
X039393Y029701D01*
X039397Y029700D01*
X039841Y029700D01*
X039841Y030500D01*
X040001Y030500D01*
X040001Y029700D01*
X040445Y029700D01*
X040491Y029712D01*
X040532Y029736D01*
X040565Y029770D01*
X040589Y029811D01*
X040601Y029856D01*
X040601Y030500D01*
X040001Y030500D01*
X040001Y030660D01*
X039841Y030660D01*
X039841Y031460D01*
X039397Y031460D01*
X039393Y031459D01*
X039393Y031633D01*
X040806Y033046D01*
X053696Y033046D01*
X054680Y032062D01*
X054680Y028226D01*
X054504Y028226D01*
X054504Y029066D01*
X054462Y029167D01*
X054418Y029211D01*
X054436Y029221D01*
X054469Y029254D01*
X054493Y029295D01*
X054505Y029341D01*
X054505Y030604D01*
X053087Y030604D01*
X053087Y030764D01*
X054505Y030764D01*
X054505Y032026D01*
X054493Y032072D01*
X054469Y032113D01*
X054436Y032147D01*
X054395Y032170D01*
X054349Y032183D01*
X053087Y032183D01*
X053087Y030764D01*
X052927Y030764D01*
X052927Y032183D01*
X051664Y032183D01*
X051618Y032170D01*
X051577Y032147D01*
X051544Y032113D01*
X051520Y032072D01*
X051508Y032026D01*
X051508Y030764D01*
X052927Y030764D01*
X052927Y030604D01*
X052927Y029360D01*
X053087Y029360D01*
X053087Y030604D01*
X052927Y030604D01*
X051508Y030604D01*
X051508Y029341D01*
X051520Y029295D01*
X051544Y029254D01*
X051577Y029221D01*
X051595Y029211D01*
X051551Y029167D01*
X051509Y029066D01*
X051509Y028828D01*
X051502Y028820D01*
X051394Y028561D01*
X051394Y027555D01*
X051139Y027555D01*
X051234Y027595D01*
X051312Y027673D01*
X051354Y027774D01*
X051354Y029066D01*
X051312Y029167D01*
X051269Y029211D01*
X051286Y029221D01*
X051320Y029254D01*
X051344Y029295D01*
X051356Y029341D01*
X051356Y030604D01*
X049937Y030604D01*
X049937Y030764D01*
X049777Y030764D01*
X049777Y032183D01*
X048514Y032183D01*
X048469Y032170D01*
X048428Y032147D01*
X048394Y032113D01*
X048370Y032072D01*
X048358Y032026D01*
X048358Y030764D01*
X049777Y030764D01*
X049777Y030604D01*
X048358Y030604D01*
X048358Y029341D01*
X048370Y029295D01*
X048394Y029254D01*
X048428Y029221D01*
X048445Y029211D01*
X048402Y029167D01*
X048360Y029066D01*
X048360Y028819D01*
X048332Y028789D01*
X048238Y028524D01*
X048264Y028026D01*
X048289Y027555D01*
X047989Y027555D01*
X048085Y027595D01*
X048163Y027673D01*
X048205Y027774D01*
X048205Y029066D01*
X048163Y029167D01*
X048119Y029211D01*
X048137Y029221D01*
X048170Y029254D01*
X048194Y029295D01*
X048206Y029341D01*
X048206Y030604D01*
X046787Y030604D01*
X046787Y029223D01*
X046627Y029223D01*
X046627Y030604D01*
X045208Y030604D01*
X045208Y029341D01*
X045221Y029295D01*
X045244Y029254D01*
X045278Y029221D01*
X045296Y029211D01*
X045252Y029167D01*
X045210Y029066D01*
X045210Y028828D01*
X045203Y028820D01*
X045095Y028561D01*
X045095Y028279D01*
X045203Y028020D01*
X045210Y028012D01*
X045210Y027774D01*
X045213Y027767D01*
X045213Y027555D01*
X044546Y027555D01*
X044444Y027513D01*
X044366Y027435D01*
X044324Y027333D01*
X044324Y024585D01*
X044366Y024484D01*
X044444Y024406D01*
X044449Y024404D01*
X044423Y024341D01*
X044423Y023754D01*
X044408Y023718D01*
X044408Y022545D01*
X044407Y022543D01*
X044407Y022524D01*
X044317Y022720D01*
X044145Y022928D01*
X043925Y023085D01*
X043672Y023179D01*
X043433Y023202D01*
X043433Y023623D01*
X043439Y023617D01*
X043644Y023533D01*
X043865Y023533D01*
X044070Y023617D01*
X044227Y023774D01*
X044311Y023979D01*
X044311Y029614D01*
X044227Y029818D01*
X044070Y029975D01*
X043865Y030060D01*
X043644Y030060D01*
X043595Y030039D01*
X043678Y030184D01*
X043734Y030393D01*
X044302Y030393D01*
X044496Y030473D01*
X044522Y030500D01*
X044591Y030528D01*
X044668Y030606D01*
X044711Y030708D01*
X044711Y030782D01*
X044724Y030815D01*
X044724Y031025D01*
X044711Y031058D01*
X044711Y031133D01*
X044668Y031234D01*
X044591Y031312D01*
X044547Y031330D01*
X044578Y031361D01*
X044601Y031402D01*
X044614Y031448D01*
X044614Y031629D01*
X044614Y031810D01*
X044601Y031856D01*
X044578Y031897D01*
X044544Y031930D01*
X044503Y031954D01*
X044457Y031966D01*
X044198Y031966D01*
X044198Y031629D01*
X044614Y031629D01*
X044198Y031629D01*
X044198Y031629D01*
X044197Y031629D01*
X044197Y031629D01*
X043781Y031629D01*
X043781Y031810D01*
X043794Y031856D01*
X043817Y031897D01*
X043851Y031930D01*
X043892Y031954D01*
X043938Y031966D01*
X044197Y031966D01*
X044197Y031629D01*
X043781Y031629D01*
X043781Y031448D01*
X043781Y031447D01*
X043446Y031447D01*
X043378Y031515D01*
X043276Y031557D01*
X043043Y031557D01*
X042856Y031607D01*
X042586Y031607D01*
X042399Y031557D01*
X042166Y031557D01*
X042064Y031515D01*
X041986Y031437D01*
X041944Y031335D01*
X041944Y031255D01*
X041584Y030896D01*
X041449Y030662D01*
X041379Y030400D01*
X041379Y022690D01*
X041254Y022618D01*
X041063Y022427D01*
X040928Y022192D01*
X040858Y021931D01*
X040858Y021822D01*
X040731Y021602D01*
X040661Y021341D01*
X040661Y014997D01*
X040731Y014736D01*
X040866Y014502D01*
X041057Y014311D01*
X041291Y014176D01*
X041552Y014106D01*
X041823Y014106D01*
X042084Y014176D01*
X042318Y014311D01*
X042490Y014483D01*
X042490Y014447D01*
X042563Y014272D01*
X043153Y013681D01*
X043288Y013547D01*
X043379Y013509D01*
X043353Y013483D01*
X043255Y013246D01*
X043255Y012988D01*
X043353Y012751D01*
X043535Y012569D01*
X043773Y012470D01*
X044030Y012470D01*
X044268Y012569D01*
X044450Y012751D01*
X044548Y012988D01*
X044548Y013246D01*
X044450Y013483D01*
X044366Y013568D01*
X044368Y013569D01*
X044550Y013751D01*
X044648Y013988D01*
X044648Y014246D01*
X044550Y014483D01*
X044368Y014665D01*
X044366Y014666D01*
X044450Y014751D01*
X044460Y014776D01*
X044489Y014776D01*
X044507Y014771D01*
X044560Y014776D01*
X044613Y014776D01*
X044630Y014783D01*
X044648Y014785D01*
X044695Y014810D01*
X044744Y014830D01*
X044757Y014843D01*
X044773Y014852D01*
X044807Y014893D01*
X044845Y014931D01*
X044852Y014947D01*
X047318Y017963D01*
X047444Y018015D01*
X047566Y018136D01*
X047631Y018295D01*
X047631Y018467D01*
X047566Y018625D01*
X047444Y018747D01*
X047285Y018813D01*
X047114Y018813D01*
X046955Y018747D01*
X046833Y018625D01*
X046768Y018467D01*
X046768Y018416D01*
X045516Y016887D01*
X045511Y016909D01*
X045511Y019558D01*
X045438Y019733D01*
X045304Y019868D01*
X044648Y020524D01*
X044648Y020588D01*
X044758Y020543D01*
X050549Y020543D01*
X055169Y015923D01*
X054366Y015923D01*
X054366Y014504D01*
X054366Y014344D01*
X054366Y012929D01*
X054206Y012929D01*
X054206Y014344D01*
X054366Y014344D01*
X055664Y014344D01*
X055664Y014475D02*
X054366Y014475D01*
X054366Y014317D02*
X054206Y014317D01*
X054206Y014475D02*
X051216Y014475D01*
X051216Y014504D02*
X052635Y014504D01*
X052635Y015767D01*
X052623Y015812D01*
X052599Y015853D01*
X052566Y015887D01*
X052525Y015911D01*
X052479Y015923D01*
X051216Y015923D01*
X051216Y014504D01*
X051216Y014634D02*
X051056Y014634D01*
X051056Y014504D02*
X051056Y015923D01*
X049794Y015923D01*
X049748Y015911D01*
X049707Y015887D01*
X049674Y015853D01*
X049650Y015812D01*
X049638Y015767D01*
X049638Y014504D01*
X051056Y014504D01*
X051056Y014475D02*
X048067Y014475D01*
X048067Y014634D02*
X047907Y014634D01*
X047907Y014792D02*
X048067Y014792D01*
X048067Y014951D02*
X047907Y014951D01*
X047907Y015109D02*
X048067Y015109D01*
X048067Y015268D02*
X047907Y015268D01*
X047907Y015426D02*
X048067Y015426D01*
X048067Y015585D02*
X047907Y015585D01*
X047907Y015743D02*
X048067Y015743D01*
X048067Y015902D02*
X047907Y015902D01*
X046583Y015902D02*
X045632Y015902D01*
X045503Y015743D02*
X046488Y015743D01*
X046488Y015585D02*
X045373Y015585D01*
X045243Y015426D02*
X046488Y015426D01*
X046488Y015268D02*
X045114Y015268D01*
X044984Y015109D02*
X046488Y015109D01*
X046488Y014951D02*
X044854Y014951D01*
X044663Y014792D02*
X046488Y014792D01*
X046488Y014634D02*
X044399Y014634D01*
X044553Y014475D02*
X047907Y014475D01*
X048282Y014424D02*
X048381Y014522D01*
X048381Y015034D01*
X048479Y015133D01*
X048774Y015133D01*
X049486Y015109D02*
X049638Y015109D01*
X049638Y014951D02*
X049486Y014951D01*
X049486Y014792D02*
X049638Y014792D01*
X049638Y014634D02*
X049486Y014634D01*
X049486Y014317D02*
X049638Y014317D01*
X049638Y014158D02*
X049486Y014158D01*
X049486Y014000D02*
X049638Y014000D01*
X049638Y013841D02*
X049486Y013841D01*
X049486Y013683D02*
X049638Y013683D01*
X049638Y013524D02*
X049486Y013524D01*
X049486Y013366D02*
X049638Y013366D01*
X049638Y013207D02*
X049486Y013207D01*
X049477Y013049D02*
X049646Y013049D01*
X049674Y012890D02*
X049449Y012890D01*
X049484Y012732D02*
X049639Y012732D01*
X049639Y012573D02*
X049484Y012573D01*
X049484Y012415D02*
X049639Y012415D01*
X049639Y012256D02*
X049484Y012256D01*
X049484Y012098D02*
X049639Y012098D01*
X049639Y011939D02*
X049484Y011939D01*
X049484Y011781D02*
X049639Y011781D01*
X049639Y011622D02*
X049484Y011622D01*
X049463Y011464D02*
X049652Y011464D01*
X049654Y011305D02*
X049293Y011305D01*
X046501Y011305D02*
X042581Y011305D01*
X042795Y011147D02*
X045634Y011147D01*
X045604Y010988D02*
X042932Y010988D01*
X043024Y010830D02*
X045604Y010830D01*
X045604Y010671D02*
X043074Y010671D01*
X043108Y010513D02*
X045604Y010513D01*
X045604Y010354D02*
X043108Y010354D01*
X043088Y010196D02*
X045604Y010196D01*
X045604Y010037D02*
X043045Y010037D01*
X042961Y009879D02*
X045604Y009879D01*
X045604Y009720D02*
X042850Y009720D01*
X042884Y009562D02*
X045604Y009562D01*
X045604Y009403D02*
X042917Y009403D01*
X042911Y009245D02*
X045604Y009245D01*
X045604Y009086D02*
X042911Y009086D01*
X042911Y008928D02*
X045604Y008928D01*
X045604Y008769D02*
X043387Y008769D01*
X043468Y008611D02*
X045604Y008611D01*
X045604Y008452D02*
X043546Y008452D01*
X043631Y008294D02*
X045617Y008294D01*
X045725Y008135D02*
X043685Y008135D01*
X043722Y007977D02*
X045702Y007977D01*
X045702Y007818D02*
X043717Y007818D01*
X043700Y007660D02*
X045702Y007660D01*
X045702Y007501D02*
X043652Y007501D01*
X043571Y007343D02*
X045702Y007343D01*
X045702Y007184D02*
X043468Y007184D01*
X043430Y007026D02*
X045702Y007026D01*
X045702Y006867D02*
X042911Y006867D01*
X042911Y006709D02*
X045719Y006709D01*
X045723Y006550D02*
X042911Y006550D01*
X042911Y006392D02*
X045728Y006392D01*
X045732Y006233D02*
X042911Y006233D01*
X042911Y006075D02*
X045736Y006075D01*
X045776Y005916D02*
X042911Y005916D01*
X043046Y005758D02*
X045837Y005758D01*
X044212Y005599D02*
X043152Y005599D01*
X043228Y005441D02*
X043864Y005441D01*
X043692Y005282D02*
X043271Y005282D01*
X040858Y005599D02*
X039393Y005599D01*
X039393Y005758D02*
X040858Y005758D01*
X040858Y005916D02*
X039393Y005916D01*
X039393Y006075D02*
X040858Y006075D01*
X040858Y006233D02*
X039393Y006233D01*
X039393Y006392D02*
X040858Y006392D01*
X040858Y006550D02*
X039393Y006550D01*
X039393Y006709D02*
X040858Y006709D01*
X040858Y006867D02*
X039393Y006867D01*
X039812Y007026D02*
X039972Y007026D01*
X039972Y006993D02*
X040415Y006993D01*
X040461Y007006D01*
X040502Y007029D01*
X040536Y007063D01*
X040559Y007104D01*
X040572Y007150D01*
X040572Y007793D01*
X039972Y007793D01*
X039972Y006993D01*
X039972Y007184D02*
X039812Y007184D01*
X039812Y007343D02*
X039972Y007343D01*
X039972Y007501D02*
X039812Y007501D01*
X039812Y007660D02*
X039972Y007660D01*
X039972Y007818D02*
X040858Y007818D01*
X040858Y007660D02*
X040572Y007660D01*
X040572Y007501D02*
X040858Y007501D01*
X040858Y007343D02*
X040572Y007343D01*
X040572Y007184D02*
X040858Y007184D01*
X040858Y007026D02*
X040496Y007026D01*
X040572Y007977D02*
X040858Y007977D01*
X040858Y008135D02*
X040572Y008135D01*
X040572Y008294D02*
X040858Y008294D01*
X040858Y008452D02*
X040572Y008452D01*
X040568Y008611D02*
X040858Y008611D01*
X040858Y008769D02*
X039393Y008769D01*
X039393Y008928D02*
X040858Y008928D01*
X040858Y009086D02*
X039393Y009086D01*
X039393Y009245D02*
X040213Y009245D01*
X040208Y009263D02*
X040221Y009217D01*
X040244Y009176D01*
X040278Y009142D01*
X040319Y009118D01*
X040365Y009106D01*
X040546Y009106D01*
X040546Y009522D01*
X040546Y009522D01*
X040208Y009522D01*
X040208Y009263D01*
X040208Y009403D02*
X039393Y009403D01*
X039393Y009562D02*
X040208Y009562D01*
X040208Y009522D02*
X040546Y009522D01*
X040546Y009522D01*
X040546Y009522D01*
X040546Y009939D01*
X040365Y009939D01*
X040319Y009926D01*
X040278Y009903D01*
X040244Y009869D01*
X040221Y009828D01*
X040208Y009782D01*
X040208Y009522D01*
X040208Y009720D02*
X039393Y009720D01*
X039393Y009879D02*
X040254Y009879D01*
X040546Y009879D02*
X040546Y009879D01*
X040546Y009720D02*
X040546Y009720D01*
X040546Y009562D02*
X040546Y009562D01*
X040546Y009403D02*
X040546Y009403D01*
X040546Y009245D02*
X040546Y009245D01*
X040626Y010037D02*
X039393Y010037D01*
X039393Y010196D02*
X040583Y010196D01*
X040562Y010354D02*
X039393Y010354D01*
X039393Y010513D02*
X040562Y010513D01*
X040559Y010671D02*
X039393Y010671D01*
X039393Y010830D02*
X040562Y010830D01*
X040602Y010988D02*
X039393Y010988D01*
X039393Y011147D02*
X040653Y011147D01*
X040751Y011305D02*
X039393Y011305D01*
X039393Y011464D02*
X040897Y011464D01*
X041127Y011622D02*
X039393Y011622D01*
X039393Y011781D02*
X046490Y011781D01*
X046490Y011939D02*
X039393Y011939D01*
X039393Y012098D02*
X046490Y012098D01*
X046490Y012256D02*
X039393Y012256D01*
X039393Y012415D02*
X046490Y012415D01*
X046490Y012573D02*
X044273Y012573D01*
X044431Y012732D02*
X046490Y012732D01*
X046525Y012890D02*
X044508Y012890D01*
X044548Y013049D02*
X046497Y013049D01*
X046488Y013207D02*
X044548Y013207D01*
X044498Y013366D02*
X046488Y013366D01*
X046488Y013524D02*
X044409Y013524D01*
X044482Y013683D02*
X046488Y013683D01*
X046488Y013841D02*
X044587Y013841D01*
X044648Y014000D02*
X046488Y014000D01*
X046488Y014158D02*
X044648Y014158D01*
X044619Y014317D02*
X046488Y014317D01*
X047199Y014424D02*
X047199Y015133D01*
X044542Y015133D02*
X043912Y015133D01*
X044542Y015133D02*
X047199Y018381D01*
X046821Y018596D02*
X045511Y018596D01*
X045511Y018438D02*
X046768Y018438D01*
X046656Y018279D02*
X045511Y018279D01*
X045511Y018121D02*
X046526Y018121D01*
X046396Y017962D02*
X045511Y017962D01*
X045511Y017804D02*
X046266Y017804D01*
X046137Y017645D02*
X045511Y017645D01*
X045511Y017487D02*
X046007Y017487D01*
X045877Y017328D02*
X045511Y017328D01*
X045511Y017170D02*
X045748Y017170D01*
X045618Y017011D02*
X045511Y017011D01*
X046151Y016536D02*
X054556Y016536D01*
X054398Y016694D02*
X046281Y016694D01*
X046411Y016853D02*
X054239Y016853D01*
X054081Y017011D02*
X046540Y017011D01*
X046670Y017170D02*
X053922Y017170D01*
X053764Y017328D02*
X046800Y017328D01*
X046929Y017487D02*
X053605Y017487D01*
X053447Y017645D02*
X047059Y017645D01*
X047189Y017804D02*
X053288Y017804D01*
X053130Y017962D02*
X047318Y017962D01*
X047550Y018121D02*
X052971Y018121D01*
X052813Y018279D02*
X047625Y018279D01*
X047631Y018438D02*
X052654Y018438D01*
X052496Y018596D02*
X047578Y018596D01*
X047425Y018755D02*
X052337Y018755D01*
X052179Y018913D02*
X045511Y018913D01*
X045511Y018755D02*
X046974Y018755D01*
X045511Y019072D02*
X052020Y019072D01*
X051862Y019230D02*
X045511Y019230D01*
X045511Y019389D02*
X051703Y019389D01*
X051545Y019547D02*
X045511Y019547D01*
X045450Y019706D02*
X051386Y019706D01*
X051228Y019864D02*
X045307Y019864D01*
X045149Y020023D02*
X051069Y020023D01*
X050911Y020181D02*
X044990Y020181D01*
X044832Y020340D02*
X050752Y020340D01*
X050594Y020498D02*
X044673Y020498D01*
X043440Y022170D02*
X042180Y021796D01*
X041048Y022400D02*
X039393Y022400D01*
X039393Y022242D02*
X040956Y022242D01*
X040898Y022083D02*
X039393Y022083D01*
X039393Y021925D02*
X040858Y021925D01*
X040826Y021766D02*
X039393Y021766D01*
X039393Y021608D02*
X040734Y021608D01*
X040690Y021449D02*
X039393Y021449D01*
X039393Y021291D02*
X040661Y021291D01*
X040661Y021132D02*
X039393Y021132D01*
X039393Y020974D02*
X040661Y020974D01*
X040661Y020815D02*
X039393Y020815D01*
X039393Y020657D02*
X040661Y020657D01*
X040661Y020498D02*
X039393Y020498D01*
X039393Y020340D02*
X040661Y020340D01*
X040661Y020181D02*
X039393Y020181D01*
X039393Y020023D02*
X040661Y020023D01*
X040661Y019864D02*
X039393Y019864D01*
X039393Y019706D02*
X040661Y019706D01*
X040661Y019547D02*
X039393Y019547D01*
X039393Y019389D02*
X040661Y019389D01*
X040661Y019230D02*
X039393Y019230D01*
X039393Y019072D02*
X040661Y019072D01*
X040661Y018913D02*
X039393Y018913D01*
X039393Y018755D02*
X040661Y018755D01*
X040661Y018596D02*
X039393Y018596D01*
X039393Y018438D02*
X040661Y018438D01*
X040661Y018279D02*
X039393Y018279D01*
X039393Y018121D02*
X040661Y018121D01*
X040661Y017962D02*
X039393Y017962D01*
X039393Y017804D02*
X040661Y017804D01*
X040661Y017645D02*
X039393Y017645D01*
X039393Y017487D02*
X040661Y017487D01*
X040661Y017328D02*
X039393Y017328D01*
X039393Y017170D02*
X040661Y017170D01*
X040661Y017011D02*
X039393Y017011D01*
X039393Y016853D02*
X040661Y016853D01*
X040661Y016694D02*
X039393Y016694D01*
X039393Y016536D02*
X040661Y016536D01*
X040661Y016377D02*
X039393Y016377D01*
X039393Y016219D02*
X040661Y016219D01*
X040661Y016060D02*
X039393Y016060D01*
X039393Y015902D02*
X040661Y015902D01*
X040661Y015743D02*
X039393Y015743D01*
X039393Y015585D02*
X040661Y015585D01*
X040661Y015426D02*
X039393Y015426D01*
X039393Y015268D02*
X040661Y015268D01*
X040661Y015109D02*
X039393Y015109D01*
X039393Y014951D02*
X040673Y014951D01*
X040716Y014792D02*
X039393Y014792D01*
X039393Y014634D02*
X040790Y014634D01*
X040893Y014475D02*
X039393Y014475D01*
X039393Y014317D02*
X041051Y014317D01*
X041356Y014158D02*
X039393Y014158D01*
X039393Y014000D02*
X042835Y014000D01*
X042677Y014158D02*
X042019Y014158D01*
X042324Y014317D02*
X042544Y014317D01*
X042490Y014475D02*
X042483Y014475D01*
X042994Y013841D02*
X039393Y013841D01*
X039393Y013683D02*
X043152Y013683D01*
X043343Y013524D02*
X039393Y013524D01*
X039393Y013366D02*
X043304Y013366D01*
X043255Y013207D02*
X039393Y013207D01*
X039393Y013049D02*
X043255Y013049D01*
X043295Y012890D02*
X039393Y012890D01*
X039393Y012732D02*
X043372Y012732D01*
X043530Y012573D02*
X039393Y012573D01*
X042059Y011622D02*
X046490Y011622D01*
X046501Y011464D02*
X042286Y011464D01*
X039972Y008611D02*
X039812Y008611D01*
X039812Y008452D02*
X039972Y008452D01*
X039972Y008294D02*
X039812Y008294D01*
X039812Y008135D02*
X039972Y008135D01*
X039972Y007977D02*
X039812Y007977D01*
X040055Y005441D02*
X040210Y005441D01*
X040210Y005282D02*
X040055Y005282D01*
X040055Y004965D02*
X040210Y004965D01*
X040210Y004807D02*
X040055Y004807D01*
X040055Y004648D02*
X040210Y004648D01*
X052442Y011305D02*
X052808Y011305D01*
X052805Y011464D02*
X052613Y011464D01*
X052634Y011622D02*
X052789Y011622D01*
X052789Y011781D02*
X052634Y011781D01*
X052634Y011939D02*
X052789Y011939D01*
X052789Y012098D02*
X052634Y012098D01*
X052634Y012256D02*
X052789Y012256D01*
X052789Y012415D02*
X052634Y012415D01*
X052634Y012573D02*
X052789Y012573D01*
X052789Y012732D02*
X052634Y012732D01*
X052599Y012890D02*
X052824Y012890D01*
X052796Y013049D02*
X052627Y013049D01*
X052635Y013207D02*
X052787Y013207D01*
X052787Y013366D02*
X052635Y013366D01*
X052635Y013524D02*
X052787Y013524D01*
X052787Y013683D02*
X052635Y013683D01*
X052635Y013841D02*
X052787Y013841D01*
X052787Y014000D02*
X052635Y014000D01*
X052635Y014158D02*
X052787Y014158D01*
X052787Y014317D02*
X052635Y014317D01*
X052787Y014504D02*
X054206Y014504D01*
X054206Y015923D01*
X052943Y015923D01*
X052898Y015911D01*
X052857Y015887D01*
X052823Y015853D01*
X052799Y015812D01*
X052787Y015767D01*
X052787Y014504D01*
X052787Y014634D02*
X052635Y014634D01*
X052635Y014792D02*
X052787Y014792D01*
X052787Y014951D02*
X052635Y014951D01*
X052635Y015109D02*
X052787Y015109D01*
X052787Y015268D02*
X052635Y015268D01*
X052635Y015426D02*
X052787Y015426D01*
X052787Y015585D02*
X052635Y015585D01*
X052635Y015743D02*
X052787Y015743D01*
X052883Y015902D02*
X052540Y015902D01*
X051216Y015902D02*
X051056Y015902D01*
X051056Y015743D02*
X051216Y015743D01*
X051216Y015585D02*
X051056Y015585D01*
X051056Y015426D02*
X051216Y015426D01*
X051216Y015268D02*
X051056Y015268D01*
X051056Y015109D02*
X051216Y015109D01*
X051216Y014951D02*
X051056Y014951D01*
X051056Y014792D02*
X051216Y014792D01*
X049638Y015268D02*
X049486Y015268D01*
X049486Y015426D02*
X049638Y015426D01*
X049638Y015585D02*
X049486Y015585D01*
X049486Y015743D02*
X049638Y015743D01*
X049733Y015902D02*
X049390Y015902D01*
X046021Y016377D02*
X054715Y016377D01*
X054873Y016219D02*
X045892Y016219D01*
X045762Y016060D02*
X055032Y016060D01*
X054366Y015902D02*
X054206Y015902D01*
X054206Y015743D02*
X054366Y015743D01*
X054366Y015585D02*
X054206Y015585D01*
X054206Y015426D02*
X054366Y015426D01*
X054366Y015268D02*
X054206Y015268D01*
X054206Y015109D02*
X054366Y015109D01*
X054366Y014951D02*
X054206Y014951D01*
X054206Y014792D02*
X054366Y014792D01*
X054366Y014634D02*
X054206Y014634D01*
X054206Y014158D02*
X054366Y014158D01*
X054366Y014000D02*
X054206Y014000D01*
X054206Y013841D02*
X054366Y013841D01*
X054366Y013683D02*
X054206Y013683D01*
X054206Y013524D02*
X054366Y013524D01*
X054366Y013366D02*
X054206Y013366D01*
X054206Y013207D02*
X054366Y013207D01*
X054366Y013049D02*
X054206Y013049D01*
X059955Y017810D02*
X059955Y019778D01*
X061255Y021274D01*
X065014Y018578D02*
X065349Y018676D01*
X065017Y018381D02*
X065349Y017889D01*
X066058Y017889D02*
X066392Y017889D01*
X066058Y018676D02*
X066392Y018774D01*
X060625Y017810D02*
X059955Y017810D01*
X051284Y021973D02*
X051235Y021973D01*
X051087Y021973D01*
X051038Y022022D01*
X051235Y022022D02*
X051235Y021973D01*
X048085Y022022D02*
X048085Y023696D01*
X048085Y023794D01*
X048085Y023696D02*
X048164Y023696D01*
X044423Y023827D02*
X044249Y023827D01*
X044311Y023985D02*
X044423Y023985D01*
X044423Y024144D02*
X044311Y024144D01*
X044311Y024302D02*
X044423Y024302D01*
X044389Y024461D02*
X044311Y024461D01*
X044311Y024619D02*
X044324Y024619D01*
X044311Y024778D02*
X044324Y024778D01*
X044311Y024936D02*
X044324Y024936D01*
X044311Y025095D02*
X044324Y025095D01*
X044311Y025253D02*
X044324Y025253D01*
X044311Y025412D02*
X044324Y025412D01*
X044311Y025570D02*
X044324Y025570D01*
X044311Y025729D02*
X044324Y025729D01*
X044311Y025887D02*
X044324Y025887D01*
X044311Y026046D02*
X044324Y026046D01*
X044311Y026204D02*
X044324Y026204D01*
X044311Y026363D02*
X044324Y026363D01*
X044311Y026521D02*
X044324Y026521D01*
X044311Y026680D02*
X044324Y026680D01*
X044311Y026838D02*
X044324Y026838D01*
X044311Y026997D02*
X044324Y026997D01*
X044311Y027155D02*
X044324Y027155D01*
X044311Y027314D02*
X044324Y027314D01*
X044311Y027472D02*
X044404Y027472D01*
X044311Y027631D02*
X045213Y027631D01*
X045210Y027789D02*
X044311Y027789D01*
X044311Y027948D02*
X045210Y027948D01*
X045167Y028106D02*
X044311Y028106D01*
X044311Y028265D02*
X045101Y028265D01*
X045095Y028423D02*
X044311Y028423D01*
X044311Y028582D02*
X045104Y028582D01*
X045169Y028740D02*
X044311Y028740D01*
X044311Y028899D02*
X045210Y028899D01*
X045210Y029057D02*
X044311Y029057D01*
X044311Y029216D02*
X045287Y029216D01*
X045208Y029374D02*
X044311Y029374D01*
X044311Y029533D02*
X045208Y029533D01*
X045208Y029691D02*
X044279Y029691D01*
X044195Y029850D02*
X045208Y029850D01*
X045208Y030008D02*
X043989Y030008D01*
X043668Y030167D02*
X045208Y030167D01*
X045208Y030325D02*
X043716Y030325D01*
X044506Y030484D02*
X045208Y030484D01*
X045208Y030764D02*
X046627Y030764D01*
X046627Y030604D01*
X046787Y030604D01*
X046787Y030764D01*
X046627Y030764D01*
X046627Y032183D01*
X045365Y032183D01*
X045319Y032170D01*
X045278Y032147D01*
X045244Y032113D01*
X045221Y032072D01*
X045208Y032026D01*
X045208Y030764D01*
X045208Y030801D02*
X044718Y030801D01*
X044724Y030959D02*
X045208Y030959D01*
X045208Y031118D02*
X044711Y031118D01*
X044626Y031276D02*
X045208Y031276D01*
X045208Y031435D02*
X044610Y031435D01*
X044614Y031593D02*
X045208Y031593D01*
X045208Y031752D02*
X044614Y031752D01*
X044564Y031910D02*
X045208Y031910D01*
X045220Y032069D02*
X039829Y032069D01*
X039671Y031910D02*
X043831Y031910D01*
X043781Y031752D02*
X039512Y031752D01*
X039393Y031593D02*
X042535Y031593D01*
X042907Y031593D02*
X043781Y031593D01*
X044198Y031629D02*
X044198Y031914D01*
X044247Y031963D01*
X044197Y031910D02*
X044198Y031910D01*
X044197Y031752D02*
X044198Y031752D01*
X041986Y031435D02*
X040513Y031435D01*
X040532Y031424D02*
X040491Y031448D01*
X040445Y031460D01*
X040001Y031460D01*
X040001Y030660D01*
X040601Y030660D01*
X040601Y031304D01*
X040589Y031350D01*
X040565Y031391D01*
X040532Y031424D01*
X040601Y031276D02*
X041944Y031276D01*
X041807Y031118D02*
X040601Y031118D01*
X040601Y030959D02*
X041648Y030959D01*
X041530Y030801D02*
X040601Y030801D01*
X040601Y030484D02*
X041402Y030484D01*
X041379Y030325D02*
X040601Y030325D01*
X040601Y030167D02*
X041379Y030167D01*
X041379Y030008D02*
X040601Y030008D01*
X040599Y029850D02*
X041379Y029850D01*
X041379Y029691D02*
X039393Y029691D01*
X039393Y029533D02*
X041379Y029533D01*
X041379Y029374D02*
X039393Y029374D01*
X039393Y029216D02*
X041379Y029216D01*
X041379Y029057D02*
X039393Y029057D01*
X039393Y028899D02*
X041379Y028899D01*
X041379Y028740D02*
X039393Y028740D01*
X039393Y028582D02*
X041379Y028582D01*
X041379Y028423D02*
X039393Y028423D01*
X039393Y028265D02*
X041379Y028265D01*
X041379Y028106D02*
X041054Y028106D01*
X041039Y028115D02*
X040993Y028128D01*
X040358Y028128D01*
X040358Y027710D01*
X041149Y027710D01*
X041149Y027971D01*
X041137Y028017D01*
X041113Y028058D01*
X041080Y028092D01*
X041039Y028115D01*
X041149Y027948D02*
X041379Y027948D01*
X041379Y027789D02*
X041149Y027789D01*
X041149Y027555D02*
X040358Y027555D01*
X040358Y027710D01*
X040203Y027710D01*
X040203Y028128D01*
X039568Y028128D01*
X039522Y028115D01*
X039481Y028092D01*
X039447Y028058D01*
X039423Y028017D01*
X039411Y027971D01*
X039411Y027710D01*
X040203Y027710D01*
X040203Y027555D01*
X040358Y027555D01*
X040358Y027138D01*
X040993Y027138D01*
X041039Y027150D01*
X041080Y027174D01*
X041113Y027207D01*
X041137Y027248D01*
X041149Y027294D01*
X041149Y027555D01*
X041149Y027472D02*
X041379Y027472D01*
X041379Y027314D02*
X041149Y027314D01*
X041048Y027155D02*
X041379Y027155D01*
X041379Y026997D02*
X039393Y026997D01*
X039393Y027155D02*
X039512Y027155D01*
X039522Y027150D02*
X039568Y027138D01*
X040203Y027138D01*
X040203Y027555D01*
X039411Y027555D01*
X039411Y027294D01*
X039423Y027248D01*
X039447Y027207D01*
X039481Y027174D01*
X039522Y027150D01*
X039411Y027314D02*
X039393Y027314D01*
X039393Y027472D02*
X039411Y027472D01*
X039393Y027631D02*
X040203Y027631D01*
X040358Y027631D02*
X041379Y027631D01*
X041379Y026838D02*
X039393Y026838D01*
X039393Y026680D02*
X041379Y026680D01*
X041379Y026521D02*
X039393Y026521D01*
X039393Y026363D02*
X041379Y026363D01*
X041379Y026204D02*
X039393Y026204D01*
X039393Y026046D02*
X041379Y026046D01*
X041379Y025887D02*
X039393Y025887D01*
X039393Y025729D02*
X041379Y025729D01*
X041379Y025570D02*
X039393Y025570D01*
X039393Y025412D02*
X041379Y025412D01*
X041379Y025253D02*
X039393Y025253D01*
X039481Y025139D02*
X039447Y025105D01*
X039423Y025064D01*
X039411Y025019D01*
X039411Y024757D01*
X040203Y024757D01*
X040203Y024602D01*
X040358Y024602D01*
X040358Y024185D01*
X040993Y024185D01*
X041039Y024197D01*
X041080Y024221D01*
X041113Y024254D01*
X041137Y024295D01*
X041149Y024341D01*
X041149Y024602D01*
X040358Y024602D01*
X040358Y024757D01*
X041149Y024757D01*
X041149Y025019D01*
X041137Y025064D01*
X041113Y025105D01*
X041080Y025139D01*
X041039Y025163D01*
X040993Y025175D01*
X040358Y025175D01*
X040358Y024757D01*
X040203Y024757D01*
X040203Y025175D01*
X039568Y025175D01*
X039522Y025163D01*
X039481Y025139D01*
X039441Y025095D02*
X039393Y025095D01*
X039393Y024936D02*
X039411Y024936D01*
X039411Y024778D02*
X039393Y024778D01*
X039393Y024619D02*
X040203Y024619D01*
X040203Y024602D02*
X039411Y024602D01*
X039411Y024341D01*
X039423Y024295D01*
X039447Y024254D01*
X039481Y024221D01*
X039522Y024197D01*
X039568Y024185D01*
X040203Y024185D01*
X040203Y024602D01*
X040203Y024461D02*
X040358Y024461D01*
X040358Y024619D02*
X041379Y024619D01*
X041379Y024461D02*
X041149Y024461D01*
X041139Y024302D02*
X041379Y024302D01*
X041379Y024144D02*
X039393Y024144D01*
X039393Y024302D02*
X039422Y024302D01*
X039411Y024461D02*
X039393Y024461D01*
X040203Y024302D02*
X040358Y024302D01*
X040358Y024778D02*
X040203Y024778D01*
X040203Y024936D02*
X040358Y024936D01*
X040358Y025095D02*
X040203Y025095D01*
X041119Y025095D02*
X041379Y025095D01*
X041379Y024936D02*
X041149Y024936D01*
X041149Y024778D02*
X041379Y024778D01*
X041379Y023985D02*
X039393Y023985D01*
X039393Y023827D02*
X041379Y023827D01*
X041379Y023668D02*
X039393Y023668D01*
X039393Y023510D02*
X041379Y023510D01*
X041379Y023351D02*
X039393Y023351D01*
X039393Y023193D02*
X041379Y023193D01*
X041379Y023034D02*
X039393Y023034D01*
X039393Y022876D02*
X041379Y022876D01*
X041379Y022717D02*
X039393Y022717D01*
X039393Y022559D02*
X041195Y022559D01*
X043433Y023351D02*
X044408Y023351D01*
X044408Y023193D02*
X043530Y023193D01*
X043433Y023510D02*
X044408Y023510D01*
X044408Y023668D02*
X044121Y023668D01*
X043996Y023034D02*
X044408Y023034D01*
X044408Y022876D02*
X044188Y022876D01*
X044318Y022717D02*
X044408Y022717D01*
X044391Y022559D02*
X044408Y022559D01*
X045644Y022170D02*
X045920Y022269D01*
X046412Y022022D01*
X040358Y027155D02*
X040203Y027155D01*
X040203Y027314D02*
X040358Y027314D01*
X040358Y027472D02*
X040203Y027472D01*
X040203Y027789D02*
X040358Y027789D01*
X040358Y027948D02*
X040203Y027948D01*
X040203Y028106D02*
X040358Y028106D01*
X039506Y028106D02*
X039393Y028106D01*
X039393Y027948D02*
X039411Y027948D01*
X039411Y027789D02*
X039393Y027789D01*
X039841Y029850D02*
X040001Y029850D01*
X040001Y030008D02*
X039841Y030008D01*
X039841Y030167D02*
X040001Y030167D01*
X040001Y030325D02*
X039841Y030325D01*
X039841Y030484D02*
X040001Y030484D01*
X040001Y030642D02*
X041444Y030642D01*
X040001Y030801D02*
X039841Y030801D01*
X039841Y030959D02*
X040001Y030959D01*
X040001Y031118D02*
X039841Y031118D01*
X039841Y031276D02*
X040001Y031276D01*
X040001Y031435D02*
X039841Y031435D01*
X039988Y032227D02*
X054514Y032227D01*
X054494Y032069D02*
X054673Y032069D01*
X054680Y031910D02*
X054505Y031910D01*
X054505Y031752D02*
X054680Y031752D01*
X054680Y031593D02*
X054505Y031593D01*
X054505Y031435D02*
X054680Y031435D01*
X054680Y031276D02*
X054505Y031276D01*
X054505Y031118D02*
X054680Y031118D01*
X054680Y030959D02*
X054505Y030959D01*
X054505Y030801D02*
X054680Y030801D01*
X054680Y030642D02*
X053087Y030642D01*
X053087Y030484D02*
X052927Y030484D01*
X052927Y030642D02*
X049937Y030642D01*
X049937Y030764D02*
X051356Y030764D01*
X051356Y032026D01*
X051344Y032072D01*
X051320Y032113D01*
X051286Y032147D01*
X051245Y032170D01*
X051200Y032183D01*
X049937Y032183D01*
X049937Y030764D01*
X049937Y030801D02*
X049777Y030801D01*
X049777Y030959D02*
X049937Y030959D01*
X049937Y031118D02*
X049777Y031118D01*
X049777Y031276D02*
X049937Y031276D01*
X049937Y031435D02*
X049777Y031435D01*
X049777Y031593D02*
X049937Y031593D01*
X049937Y031752D02*
X049777Y031752D01*
X049777Y031910D02*
X049937Y031910D01*
X049937Y032069D02*
X049777Y032069D01*
X048369Y032069D02*
X048195Y032069D01*
X048194Y032072D02*
X048170Y032113D01*
X048137Y032147D01*
X048096Y032170D01*
X048050Y032183D01*
X046787Y032183D01*
X046787Y030764D01*
X048206Y030764D01*
X048206Y032026D01*
X048194Y032072D01*
X048206Y031910D02*
X048358Y031910D01*
X048358Y031752D02*
X048206Y031752D01*
X048206Y031593D02*
X048358Y031593D01*
X048358Y031435D02*
X048206Y031435D01*
X048206Y031276D02*
X048358Y031276D01*
X048358Y031118D02*
X048206Y031118D01*
X048206Y030959D02*
X048358Y030959D01*
X048358Y030801D02*
X048206Y030801D01*
X048206Y030484D02*
X048358Y030484D01*
X048358Y030325D02*
X048206Y030325D01*
X048206Y030167D02*
X048358Y030167D01*
X048358Y030008D02*
X048206Y030008D01*
X048206Y029850D02*
X048358Y029850D01*
X048358Y029691D02*
X048206Y029691D01*
X048206Y029533D02*
X048358Y029533D01*
X048358Y029374D02*
X048206Y029374D01*
X048128Y029216D02*
X048436Y029216D01*
X048360Y029057D02*
X048205Y029057D01*
X048205Y028899D02*
X048360Y028899D01*
X048315Y028740D02*
X048205Y028740D01*
X048205Y028582D02*
X048259Y028582D01*
X048243Y028423D02*
X048205Y028423D01*
X048205Y028265D02*
X048252Y028265D01*
X048260Y028106D02*
X048205Y028106D01*
X048205Y027948D02*
X048268Y027948D01*
X048277Y027789D02*
X048205Y027789D01*
X048285Y027631D02*
X048121Y027631D01*
X046787Y029374D02*
X046627Y029374D01*
X046627Y029533D02*
X046787Y029533D01*
X046787Y029691D02*
X046627Y029691D01*
X046627Y029850D02*
X046787Y029850D01*
X046787Y030008D02*
X046627Y030008D01*
X046627Y030167D02*
X046787Y030167D01*
X046787Y030325D02*
X046627Y030325D01*
X046627Y030484D02*
X046787Y030484D01*
X046787Y030642D02*
X049777Y030642D01*
X051356Y030484D02*
X051508Y030484D01*
X051508Y030325D02*
X051356Y030325D01*
X051356Y030167D02*
X051508Y030167D01*
X051508Y030008D02*
X051356Y030008D01*
X051356Y029850D02*
X051508Y029850D01*
X051508Y029691D02*
X051356Y029691D01*
X051356Y029533D02*
X051508Y029533D01*
X051508Y029374D02*
X051356Y029374D01*
X051278Y029216D02*
X051586Y029216D01*
X051509Y029057D02*
X051354Y029057D01*
X051354Y028899D02*
X051509Y028899D01*
X051469Y028740D02*
X051354Y028740D01*
X051354Y028582D02*
X051403Y028582D01*
X051394Y028423D02*
X051354Y028423D01*
X051354Y028265D02*
X051394Y028265D01*
X051394Y028106D02*
X051354Y028106D01*
X051354Y027948D02*
X051394Y027948D01*
X051394Y027789D02*
X051354Y027789D01*
X051394Y027631D02*
X051270Y027631D01*
X054504Y028265D02*
X054680Y028265D01*
X054680Y028423D02*
X054504Y028423D01*
X054504Y028582D02*
X054680Y028582D01*
X054680Y028740D02*
X054504Y028740D01*
X054504Y028899D02*
X054680Y028899D01*
X054680Y029057D02*
X054504Y029057D01*
X054427Y029216D02*
X054680Y029216D01*
X054680Y029374D02*
X054505Y029374D01*
X054505Y029533D02*
X054680Y029533D01*
X054680Y029691D02*
X054505Y029691D01*
X054505Y029850D02*
X054680Y029850D01*
X054680Y030008D02*
X054505Y030008D01*
X054505Y030167D02*
X054680Y030167D01*
X054680Y030325D02*
X054505Y030325D01*
X054505Y030484D02*
X054680Y030484D01*
X053087Y030325D02*
X052927Y030325D01*
X052927Y030167D02*
X053087Y030167D01*
X053087Y030008D02*
X052927Y030008D01*
X052927Y029850D02*
X053087Y029850D01*
X053087Y029691D02*
X052927Y029691D01*
X052927Y029533D02*
X053087Y029533D01*
X053087Y029374D02*
X052927Y029374D01*
X052927Y030801D02*
X053087Y030801D01*
X053087Y030959D02*
X052927Y030959D01*
X052927Y031118D02*
X053087Y031118D01*
X053087Y031276D02*
X052927Y031276D01*
X052927Y031435D02*
X053087Y031435D01*
X053087Y031593D02*
X052927Y031593D01*
X052927Y031752D02*
X053087Y031752D01*
X053087Y031910D02*
X052927Y031910D01*
X052927Y032069D02*
X053087Y032069D01*
X054039Y032703D02*
X040463Y032703D01*
X040305Y032544D02*
X054197Y032544D01*
X054356Y032386D02*
X040146Y032386D01*
X040622Y032861D02*
X053880Y032861D01*
X053722Y033020D02*
X040780Y033020D01*
X044684Y030642D02*
X046627Y030642D01*
X046627Y030801D02*
X046787Y030801D01*
X046787Y030959D02*
X046627Y030959D01*
X046627Y031118D02*
X046787Y031118D01*
X046787Y031276D02*
X046627Y031276D01*
X046627Y031435D02*
X046787Y031435D01*
X046787Y031593D02*
X046627Y031593D01*
X046627Y031752D02*
X046787Y031752D01*
X046787Y031910D02*
X046627Y031910D01*
X046627Y032069D02*
X046787Y032069D01*
X051344Y032069D02*
X051519Y032069D01*
X051508Y031910D02*
X051356Y031910D01*
X051356Y031752D02*
X051508Y031752D01*
X051508Y031593D02*
X051356Y031593D01*
X051356Y031435D02*
X051508Y031435D01*
X051508Y031276D02*
X051356Y031276D01*
X051356Y031118D02*
X051508Y031118D01*
X051508Y030959D02*
X051356Y030959D01*
X051356Y030801D02*
X051508Y030801D01*
X063184Y034956D02*
X066570Y038341D01*
X072711Y038341D01*
X070054Y037928D02*
X078440Y037928D01*
X078440Y038499D01*
X083951Y037219D02*
X072357Y037219D01*
X071274Y036176D01*
X069936Y035270D02*
X071136Y034070D01*
X072613Y034070D01*
X073459Y034916D01*
X068322Y035093D02*
X068322Y034070D01*
X067003Y034956D02*
X070054Y037928D01*
X090172Y034542D02*
X090260Y033587D01*
X090751Y033337D02*
X091687Y033337D01*
X091586Y030008D02*
X091356Y030008D01*
X093324Y030008D02*
X093391Y030008D01*
X093391Y029850D02*
X093324Y029850D01*
X092533Y027155D02*
X092378Y027155D01*
X092378Y026997D02*
X092533Y026997D01*
X086940Y017170D02*
X078528Y017170D01*
X078687Y017011D02*
X086940Y017011D01*
X086940Y016853D02*
X078845Y016853D01*
X079004Y016694D02*
X081812Y016694D01*
X081678Y016536D02*
X079162Y016536D01*
X079321Y016377D02*
X081630Y016377D01*
X081485Y016219D02*
X079479Y016219D01*
X079638Y016060D02*
X081326Y016060D01*
X081168Y015902D02*
X079796Y015902D01*
X079955Y015743D02*
X081009Y015743D01*
X080851Y015585D02*
X080113Y015585D01*
X080272Y015426D02*
X080692Y015426D01*
X080534Y015268D02*
X080430Y015268D01*
X081141Y014951D02*
X087073Y014951D01*
X087051Y015109D02*
X081300Y015109D01*
X081458Y015268D02*
X087029Y015268D01*
X087006Y015426D02*
X081617Y015426D01*
X081775Y015585D02*
X086984Y015585D01*
X086962Y015743D02*
X081934Y015743D01*
X082148Y015902D02*
X082306Y015967D01*
X082428Y016089D01*
X082482Y016219D02*
X086940Y016219D01*
X086940Y016377D02*
X082494Y016377D01*
X082445Y016536D02*
X086940Y016536D01*
X086940Y016694D02*
X082311Y016694D01*
X080983Y014792D02*
X087095Y014792D01*
X087118Y014634D02*
X080861Y014634D01*
X080861Y014475D02*
X087140Y014475D01*
X087162Y014317D02*
X080861Y014317D01*
X080861Y014158D02*
X087184Y014158D01*
X087207Y014000D02*
X086696Y014000D01*
X086787Y013841D02*
X087229Y013841D01*
X087251Y013683D02*
X086787Y013683D01*
X086851Y013524D02*
X087273Y013524D01*
X087296Y013366D02*
X086913Y013366D01*
X086933Y013207D02*
X087318Y013207D01*
X087334Y013049D02*
X086933Y013049D01*
X086884Y012890D02*
X087334Y012890D01*
X087334Y012732D02*
X086854Y012732D01*
X086854Y012573D02*
X087334Y012573D01*
X087334Y012415D02*
X086886Y012415D01*
X086886Y012256D02*
X087334Y012256D01*
X087334Y012098D02*
X086886Y012098D01*
X086886Y011939D02*
X087334Y011939D01*
X087334Y011781D02*
X086886Y011781D01*
X086886Y011622D02*
X087334Y011622D01*
X087334Y011464D02*
X086886Y011464D01*
X086886Y011305D02*
X087334Y011305D01*
X087334Y011147D02*
X086886Y011147D01*
X086946Y010988D02*
X087334Y010988D01*
X087369Y010830D02*
X086984Y010830D01*
X086984Y010671D02*
X087421Y010671D01*
X087513Y010513D02*
X086984Y010513D01*
X086984Y010354D02*
X087582Y010354D01*
X087582Y010196D02*
X086984Y010196D01*
X086984Y010037D02*
X087582Y010037D01*
X087582Y009879D02*
X086984Y009879D01*
X086984Y009720D02*
X087582Y009720D01*
X087582Y009562D02*
X086984Y009562D01*
X086984Y009403D02*
X087582Y009403D01*
X087582Y009245D02*
X086984Y009245D01*
X086984Y009086D02*
X087582Y009086D01*
X087582Y008928D02*
X086984Y008928D01*
X086984Y008769D02*
X087582Y008769D01*
X087582Y008611D02*
X086984Y008611D01*
X086984Y008452D02*
X087582Y008452D01*
X087582Y008294D02*
X086984Y008294D01*
X086979Y008135D02*
X087582Y008135D01*
X087582Y007977D02*
X086872Y007977D01*
X086434Y007818D02*
X087582Y007818D01*
X087582Y007660D02*
X086436Y007660D01*
X086409Y007501D02*
X087582Y007501D01*
X087582Y007343D02*
X086368Y007343D01*
X086279Y007184D02*
X087582Y007184D01*
X087582Y007026D02*
X086155Y007026D01*
X086098Y006867D02*
X087582Y006867D01*
X087582Y006709D02*
X086098Y006709D01*
X086098Y006550D02*
X087582Y006550D01*
X087582Y006392D02*
X086088Y006392D01*
X086058Y006233D02*
X087582Y006233D01*
X087582Y006075D02*
X086100Y006075D01*
X086100Y005916D02*
X087582Y005916D01*
X087582Y005758D02*
X086100Y005758D01*
X086100Y005599D02*
X087582Y005599D01*
X087582Y005441D02*
X086100Y005441D01*
X086100Y005282D02*
X087582Y005282D01*
X087582Y005124D02*
X086586Y005124D01*
X086356Y005124D02*
X086100Y005124D01*
X081371Y004807D02*
X078382Y004807D01*
X076803Y004965D02*
X058985Y004965D01*
X059143Y005124D02*
X076803Y005124D01*
X076803Y005282D02*
X060598Y005282D01*
X060721Y005441D02*
X068542Y005441D01*
X068770Y005441D02*
X076803Y005441D01*
X076803Y005599D02*
X070215Y005599D01*
X070326Y005758D02*
X076803Y005758D01*
X076803Y005916D02*
X074991Y005916D01*
X075150Y006075D02*
X076803Y006075D01*
X076845Y006233D02*
X075308Y006233D01*
X075467Y006392D02*
X076815Y006392D01*
X076805Y006550D02*
X075625Y006550D01*
X075784Y006709D02*
X076805Y006709D01*
X076805Y006867D02*
X075942Y006867D01*
X076101Y007026D02*
X076805Y007026D01*
X076805Y007184D02*
X076774Y007184D01*
X071215Y010162D02*
X070477Y009424D01*
X070477Y007898D01*
X070329Y007751D01*
X068231Y005758D02*
X060925Y005758D01*
X060766Y005599D02*
X068307Y005599D01*
X060061Y005282D02*
X059302Y005282D01*
X059460Y005441D02*
X059938Y005441D01*
X059898Y005599D02*
X059619Y005599D01*
X059777Y005758D02*
X059917Y005758D01*
X069394Y010408D02*
X074660Y015674D01*
X074660Y015920D01*
X079778Y013361D02*
X079995Y013361D01*
X085388Y010310D02*
X085388Y009522D01*
X091491Y006867D02*
X091979Y006867D01*
X091842Y007026D02*
X091560Y007026D01*
X091602Y007184D02*
X091842Y007184D01*
X092634Y007501D02*
X092789Y007501D01*
X092789Y007343D02*
X093391Y007343D01*
X092789Y007660D02*
X092634Y007660D01*
X092634Y007818D02*
X092789Y007818D01*
X092774Y005282D02*
X092934Y005282D01*
X092934Y005124D02*
X092774Y005124D01*
X092774Y004965D02*
X092934Y004965D01*
X092934Y004807D02*
X092774Y004807D01*
X092774Y004648D02*
X092934Y004648D01*
X084236Y002112D02*
X083850Y002112D01*
X083045Y002112D02*
X082659Y002112D01*
X082236Y002112D02*
X081850Y002112D01*
X071215Y010162D02*
X071215Y010999D01*
D28*
X078105Y008735D02*
X078892Y009522D01*
X079089Y009522D01*
X081255Y009522D02*
X082239Y009522D01*
X085388Y009522D02*
X086274Y010310D01*
X090054Y004459D02*
X090310Y003912D01*
X051314Y022101D02*
X051235Y022022D01*
X051314Y022101D02*
X051314Y022416D01*
X051314Y023400D01*
X051314Y023696D01*
X048164Y023597D02*
X048164Y023302D01*
X048164Y022101D01*
X048085Y022022D01*
X045644Y022170D02*
X045014Y022426D01*
X045014Y023341D01*
X045014Y023597D01*
X045133Y025369D02*
X045226Y025369D01*
X045403Y025442D02*
X045920Y025959D01*
X045920Y025369D02*
X046707Y025369D01*
X045403Y025442D02*
X045382Y025424D01*
X045359Y025407D01*
X045334Y025394D01*
X045309Y025383D01*
X045282Y025375D01*
X045254Y025371D01*
X045226Y025369D01*
X048282Y026156D02*
X049070Y026156D01*
X049007Y026022D02*
X049070Y025959D01*
X048951Y025959D02*
X049557Y025959D01*
X049733Y026033D02*
X049857Y026156D01*
X049734Y026032D02*
X049713Y026014D01*
X049690Y025997D01*
X049665Y025984D01*
X049640Y025973D01*
X049613Y025965D01*
X049585Y025961D01*
X049557Y025959D01*
X049070Y026157D02*
X049052Y026138D01*
X049037Y026118D01*
X049025Y026096D01*
X049016Y026072D01*
X049010Y026047D01*
X049007Y026022D01*
X051432Y026944D02*
X053007Y026944D01*
X052219Y026944D02*
X052101Y026944D01*
X051235Y038066D02*
X051282Y038508D01*
X079680Y027337D02*
X080566Y027337D01*
X081156Y027337D01*
X080566Y027928D01*
X081156Y027337D02*
X081451Y027337D01*
X082829Y028125D02*
X083125Y028125D01*
X083125Y028617D01*
X083223Y028617D01*
X083715Y028125D01*
X083125Y028125D01*
X083715Y028322D02*
X083715Y029011D01*
X085979Y028912D02*
X086865Y028912D01*
X087455Y028912D01*
X086865Y028322D01*
X087455Y028912D02*
X087751Y028912D01*
X083735Y026176D02*
X083735Y025959D01*
X083833Y025861D01*
X040133Y005093D02*
X040113Y005093D01*
X039916Y004896D01*
D29*
X039916Y002357D01*
X041117Y001452D01*
X044109Y002081D01*
X044503Y001432D01*
X046018Y002731D01*
X046117Y002731D01*
X046215Y002830D01*
X056845Y002731D01*
X054282Y002235D01*
X054282Y001600D01*
X053744Y001600D01*
X053302Y002042D01*
X054282Y001600D02*
X054382Y001500D01*
X055282Y001500D01*
X055382Y001600D01*
X056282Y001600D01*
X056382Y001500D01*
X057282Y001500D01*
X046510Y006176D02*
X046491Y006904D01*
X047199Y009700D02*
X047199Y010684D01*
X047278Y010526D01*
X047278Y011609D01*
X050428Y011550D02*
X050448Y009896D01*
X050349Y009798D01*
X053499Y010684D02*
X053597Y010782D01*
X053577Y011648D01*
X041294Y013361D02*
X039916Y013361D01*
X039916Y027731D01*
X040049Y027731D01*
X040049Y027864D01*
X040280Y027633D01*
X040280Y024680D01*
X045103Y022022D02*
X045644Y022170D01*
X045103Y022022D02*
X046412Y022022D01*
X048085Y022022D01*
X051038Y022022D01*
X040049Y027864D02*
X039921Y027992D01*
X039921Y030580D01*
X039921Y030738D01*
X041688Y032505D01*
X043607Y032505D01*
X044148Y031963D01*
X044247Y031963D01*
X045428Y031963D01*
X046707Y030684D01*
X051235Y038066D02*
X056437Y033227D01*
X056591Y033083D01*
X056631Y033046D01*
X081648Y032357D02*
X084601Y032357D01*
X086570Y032357D01*
X086993Y032357D01*
X087731Y032505D01*
X089936Y032505D02*
X090211Y032505D01*
X090260Y032456D01*
X090310Y032406D01*
X090310Y030211D02*
X090329Y030192D01*
X092455Y030192D02*
X092455Y027387D01*
X092455Y024897D01*
X092814Y024538D01*
X092814Y024429D01*
X090802Y022022D01*
X092948Y022022D01*
X092603Y010330D01*
X092869Y010310D01*
X092869Y007357D01*
X092898Y007357D01*
X092869Y007357D02*
X092711Y007357D01*
X092849Y004459D01*
X092849Y001845D01*
X085782Y001845D01*
X092849Y004459D02*
X092854Y004459D01*
X083144Y011786D02*
X083125Y011806D01*
X083125Y013361D01*
X079995Y013361D01*
X079995Y012770D01*
X079995Y011786D01*
X083125Y013361D02*
X086077Y013361D01*
X086077Y013164D01*
X086156Y013164D01*
X086077Y013164D02*
X086077Y012278D01*
X090654Y022022D02*
X090802Y022022D01*
X086373Y022269D02*
X086274Y022367D01*
X086274Y023400D01*
X086077Y023597D01*
X090014Y024538D02*
X090329Y024853D01*
X039916Y013361D02*
X039916Y009326D01*
X039916Y007893D01*
X039916Y004896D01*
X039892Y007873D02*
X039916Y007893D01*
D30*
X061865Y032357D02*
X064916Y032357D01*
X064955Y032318D01*
X056591Y033083D02*
X056581Y033083D01*
X056437Y033227D01*
D31*
X053007Y030684D02*
X052652Y030684D01*
X049857Y030684D01*
X046707Y030684D01*
X042721Y030580D02*
X042406Y030265D01*
X042406Y027633D01*
X042406Y024680D01*
X042406Y022269D01*
X043440Y022170D01*
X042180Y021796D02*
X042081Y021796D01*
X042180Y021698D01*
X041688Y021206D01*
X041688Y016511D01*
X041688Y015526D01*
X041688Y015133D01*
X041294Y013361D02*
X043262Y011589D01*
X044640Y011589D01*
X047003Y014424D01*
X047199Y014424D01*
X048282Y014424D01*
X054286Y014424D01*
X042081Y010408D02*
X041589Y010408D01*
X041589Y010704D01*
X041684Y010260D01*
X041885Y009326D01*
X041885Y007652D01*
X042027Y007893D01*
X042692Y007873D01*
X041885Y007652D02*
X041885Y005093D01*
X042259Y005093D01*
X042259Y004207D01*
X044109Y004207D01*
X044463Y004601D01*
X045723Y004601D01*
X046707Y004601D01*
X047593Y004601D01*
X048755Y004601D01*
X047888Y004601D02*
X047593Y004601D01*
X050940Y004621D02*
X050959Y004601D01*
X050940Y004621D02*
X050940Y005487D01*
X062751Y004306D02*
X065802Y002830D01*
X078302Y004306D02*
X078302Y004798D01*
X084601Y004798D02*
X084601Y004207D01*
X085192Y004207D01*
X085782Y001845D01*
X087406Y003469D02*
X087406Y004011D01*
X087062Y004011D01*
X087406Y004011D02*
X088243Y004011D01*
X089227Y004011D01*
X089227Y003912D01*
X089818Y003912D01*
X090310Y003912D01*
X090585Y007357D02*
X089129Y007357D01*
X089129Y007456D01*
X085408Y007731D02*
X085388Y009522D01*
X082239Y009522D02*
X082219Y007770D01*
X079109Y007889D02*
X079089Y008735D01*
X079089Y009522D01*
X088361Y011097D02*
X088361Y011196D01*
X088361Y013164D01*
X087967Y015969D01*
X087967Y020152D01*
X087948Y020202D01*
X087948Y019709D02*
X087948Y019168D01*
X089079Y022022D02*
X086373Y022269D01*
X089079Y022022D02*
X090654Y022022D01*
X089227Y023745D02*
X089227Y024778D01*
X089247Y024267D02*
X089247Y024119D01*
X089345Y024119D01*
X090329Y024853D02*
X090329Y027387D01*
X090329Y030192D01*
X090310Y030211D02*
X090310Y032406D01*
X042081Y021796D02*
X041885Y021796D01*
X089129Y010457D02*
X089129Y010310D01*
X090477Y010330D01*
D32*
X079995Y012770D02*
X076727Y012770D01*
X076727Y009227D01*
X075448Y007948D01*
X076432Y008046D02*
X077121Y008637D01*
X077514Y008637D01*
X077514Y011294D01*
X077022Y011983D02*
X077022Y009719D01*
X077121Y009621D01*
X076924Y007849D02*
X076629Y007554D01*
X076924Y007849D02*
X078007Y007849D01*
X074759Y006570D02*
X072692Y008637D01*
X071806Y008637D01*
X071904Y010211D02*
X077416Y004700D01*
X078203Y004700D01*
X078302Y004798D01*
X071904Y010211D02*
X071904Y011491D01*
X062849Y009306D02*
X057810Y004267D01*
X054385Y004267D01*
X052810Y006393D02*
X052888Y006471D01*
X055034Y007810D02*
X055073Y010467D01*
X056196Y011609D01*
X055802Y011550D02*
X055487Y011235D01*
X054503Y011274D01*
X055802Y011550D02*
X055782Y012042D01*
X057731Y013263D02*
X059818Y011176D01*
X060133Y011176D01*
X060388Y009719D02*
X055684Y014424D01*
X054286Y014424D01*
X060388Y009719D02*
X060388Y008459D01*
X062022Y021707D02*
X061904Y021865D01*
X061904Y024444D01*
X062022Y024719D01*
X059168Y025103D02*
X059207Y024089D01*
X059168Y025103D02*
X053563Y030708D01*
X053794Y030723D01*
X053794Y031471D01*
X052652Y030684D02*
X052219Y031117D01*
X052219Y031471D01*
X053007Y030684D02*
X053056Y030733D01*
X053400Y030733D01*
X053563Y030708D01*
X056451Y028617D02*
X056845Y028617D01*
X058814Y026648D01*
X054680Y027387D02*
X054483Y027288D01*
X053745Y026550D01*
X053745Y024139D01*
X054237Y023400D02*
X054089Y023253D01*
X054581Y022711D02*
X054483Y022613D01*
X051510Y022613D02*
X051314Y022416D01*
X054237Y025566D02*
X054089Y025713D01*
X054089Y025763D01*
X054286Y027534D02*
X054581Y027830D01*
X071707Y027475D02*
X071707Y028814D01*
X076383Y033489D01*
X076383Y034424D01*
X078646Y030930D02*
X078646Y028519D01*
X078696Y028469D01*
X079040Y027731D02*
X079040Y030093D01*
X079040Y027731D02*
X078203Y026894D01*
X078154Y026894D01*
X078499Y026648D02*
X079778Y026648D01*
X078499Y026648D02*
X078351Y026501D01*
X077711Y026501D01*
X076333Y025959D02*
X074660Y027633D01*
X073676Y027633D01*
X073823Y029503D02*
X073823Y029946D01*
X073823Y029503D02*
X079729Y023597D01*
X079778Y023597D01*
X088587Y022652D02*
X088696Y022652D01*
X089079Y022022D01*
D33*
X086077Y023597D02*
X082928Y023597D01*
X079778Y023597D01*
X054286Y014424D02*
X051136Y014424D01*
X048282Y014424D01*
X047987Y014424D01*
X062751Y004306D02*
X062997Y004306D01*
X078302Y004306D01*
X078302Y004798D02*
X081451Y004798D01*
X084601Y004798D01*
X089129Y005143D02*
X089129Y007456D01*
X089129Y010457D01*
X089129Y010950D01*
X089227Y005143D02*
X089129Y005143D01*
X065802Y002830D02*
X056845Y002731D01*
D34*
X055369Y006471D02*
X052888Y006471D01*
X054385Y007337D02*
X054385Y007416D01*
X054404Y007436D01*
X055546Y007377D02*
X055546Y009995D01*
X056097Y009267D02*
X056097Y007200D01*
X055369Y006471D01*
X051235Y007337D02*
X051235Y007416D01*
X051255Y007436D01*
X048085Y007239D02*
X048026Y007731D01*
X047160Y007751D01*
X047199Y008912D02*
X047199Y009700D01*
X047278Y011609D02*
X047247Y011711D01*
X047199Y011865D01*
X047199Y012062D01*
X048873Y012141D02*
X048873Y011865D01*
X048892Y011885D01*
X048892Y012160D01*
X048873Y012141D01*
X050231Y012160D02*
X050372Y011724D01*
X050428Y011550D01*
X052022Y011963D02*
X052042Y011983D01*
X052042Y012160D01*
X053381Y012160D02*
X053479Y012062D01*
X053561Y011716D01*
X053577Y011648D01*
X054247Y012495D02*
X054739Y012160D01*
X055192Y012160D01*
X055192Y011983D01*
X055172Y011963D01*
X055782Y012042D02*
X057495Y012042D01*
X057495Y009857D01*
X056550Y008912D01*
X056097Y009267D02*
X056766Y009936D01*
X056766Y011668D01*
X053499Y010684D02*
X053499Y009700D01*
X050349Y009700D02*
X050349Y009798D01*
X041885Y009326D02*
X041688Y009522D01*
X041255Y009522D01*
X040546Y009522D02*
X040113Y009522D01*
X039916Y009326D01*
X055615Y019414D02*
X056304Y020103D01*
X056304Y020251D01*
X051629Y020369D02*
X051629Y020940D01*
X044837Y020940D01*
X043607Y022170D01*
X043440Y022170D01*
X051510Y022613D02*
X054483Y022613D01*
X054581Y022711D02*
X054581Y024877D01*
X055467Y025763D01*
X055467Y027436D01*
X055959Y027830D02*
X054581Y027830D01*
X054286Y027534D02*
X052810Y027633D01*
X055959Y027830D02*
X055959Y025566D01*
X055073Y024631D01*
X054237Y025566D02*
X054237Y023400D01*
X077465Y027534D02*
X077711Y026501D01*
X077465Y027534D02*
X077465Y029650D01*
X079660Y030585D02*
X079759Y030684D01*
X079778Y030644D01*
X080566Y030172D01*
X082810Y030585D02*
X082928Y030644D01*
X082948Y030644D01*
X083715Y030211D01*
X085959Y030585D02*
X086058Y030684D01*
X086077Y030684D01*
X086845Y030211D01*
X085270Y025959D02*
X086097Y025448D01*
X085270Y025959D02*
X085172Y025861D01*
X082908Y025467D02*
X082140Y025959D01*
X082121Y025959D01*
X082022Y025861D01*
X079798Y025448D02*
X078991Y025959D01*
X078971Y025959D01*
X078873Y025861D01*
X075644Y010802D02*
X074857Y010015D01*
X074857Y007849D01*
X075152Y007554D01*
X076629Y007554D01*
D35*
X087554Y002141D02*
X087701Y002141D01*
X089818Y002141D01*
X089818Y002426D01*
X089818Y003135D02*
X089818Y003420D01*
X063715Y011058D02*
X063715Y014739D01*
X062849Y015389D02*
X062849Y010782D01*
X062790Y015881D02*
X063046Y016176D01*
X063125Y016235D02*
X063144Y016648D01*
X063144Y026314D01*
X063892Y027062D01*
X062416Y025802D02*
X062672Y025349D01*
X062672Y016373D01*
D36*
X043755Y024089D02*
X043755Y029503D01*
X063440Y004946D02*
X062997Y004306D01*
X085782Y001845D02*
X087701Y001845D01*
X087701Y002141D01*
D37*
X088046Y003026D02*
X086668Y003026D01*
X086471Y003814D01*
X087406Y004060D01*
X086471Y004060D01*
X086471Y003814D01*
X086471Y004060D02*
X086471Y004503D01*
X086471Y004601D01*
X088243Y004011D02*
X088243Y003322D01*
X088046Y003026D01*
X084581Y006707D02*
X084050Y006707D01*
X083696Y007062D01*
X084581Y007416D02*
X085467Y007416D01*
X085487Y007436D01*
X085487Y007652D01*
X085408Y007731D01*
X085408Y007160D01*
X085507Y007062D01*
X082357Y007062D02*
X082298Y007121D01*
X082298Y007416D01*
X082219Y007495D01*
X082219Y007770D01*
X082298Y007416D02*
X081432Y007456D01*
X080861Y006747D02*
X080546Y007062D01*
X080861Y006747D02*
X081432Y006747D01*
X079207Y007062D02*
X078814Y007456D01*
X078656Y007456D01*
X078577Y007377D01*
X078302Y007377D01*
X078656Y007456D02*
X079109Y007889D01*
X077495Y007160D02*
X077396Y007062D01*
X077790Y006668D01*
X078302Y006668D01*
X078282Y011491D02*
X078282Y011885D01*
X078184Y011736D01*
X078282Y011491D02*
X079089Y011452D01*
X079995Y011786D02*
X079955Y012101D01*
X079089Y012160D01*
X081333Y011736D02*
X081432Y011885D01*
X081392Y011491D01*
X082219Y011412D01*
X083144Y011786D02*
X083066Y012062D01*
X082219Y012121D01*
X084483Y011786D02*
X084936Y011786D01*
X085408Y011491D01*
X086196Y011885D02*
X086294Y011786D01*
X086196Y011885D02*
X086077Y012278D01*
X085408Y012200D01*
X080369Y023007D02*
X079778Y023597D01*
X079188Y023007D01*
X088587Y023361D02*
X089247Y024267D01*
X089345Y024119D01*
X089764Y024538D01*
X090014Y024538D01*
X073774Y034522D02*
X072790Y033538D01*
X067672Y033538D01*
X053892Y028774D02*
X053892Y028440D01*
X053912Y028420D01*
X053892Y028774D02*
X053833Y028833D01*
X053026Y028833D01*
X053026Y028125D02*
X052121Y028125D01*
X052101Y028144D01*
X050802Y028459D02*
X050762Y028420D01*
X050802Y028459D02*
X050802Y028696D01*
X050782Y028676D01*
X049857Y028676D01*
X049857Y027967D02*
X049020Y027967D01*
X048973Y028015D01*
X047613Y028420D02*
X047613Y028696D01*
X046727Y028696D01*
X046727Y027987D02*
X045959Y027987D01*
X045920Y028026D01*
X043061Y030920D02*
X042721Y030580D01*
X043061Y030920D02*
X044198Y030920D01*
X045900Y024050D02*
X046786Y024050D01*
X046806Y024030D01*
X046806Y023715D01*
X046825Y023696D01*
X045900Y023341D02*
X045014Y023341D01*
X048164Y023302D02*
X048184Y023322D01*
X049070Y023322D01*
X049975Y023696D02*
X049975Y024030D01*
X049070Y024030D01*
X051314Y023400D02*
X051373Y023341D01*
X052259Y023341D01*
X053125Y023696D02*
X053164Y023735D01*
X053164Y023952D01*
X053066Y024050D01*
X052259Y024050D01*
X052022Y012495D02*
X051136Y012495D01*
X052022Y012495D02*
X052062Y012456D01*
X052062Y012180D01*
X052042Y012160D01*
X051136Y011786D02*
X050434Y011786D01*
X050372Y011724D01*
X048932Y012200D02*
X048932Y012475D01*
X048912Y012495D01*
X047987Y012495D01*
X047199Y012062D02*
X047180Y012062D01*
X047081Y012160D01*
X047302Y011786D02*
X047242Y011727D01*
X047247Y011711D02*
X047302Y011766D01*
X047302Y011786D01*
X047987Y011786D01*
X048892Y012160D02*
X048932Y012200D01*
X053561Y011716D02*
X053632Y011786D01*
X054247Y011786D01*
X053479Y007081D02*
X052888Y007081D01*
X052810Y007003D01*
D38*
X088361Y010950D02*
X088361Y011196D01*
X088361Y010950D02*
X089129Y010950D01*
X089818Y003912D02*
X089818Y003420D01*
M02*
