%
M48
M72
T01C0.0197
T02C0.0200
T03C0.0236
T04C0.0240
T05C0.0315
T06C0.0400
T07C0.0470
T08C0.0512
T09C0.0787
T10C0.0790
%
T01
X43755Y5889
X44936Y3920
X82928Y6086
X45920Y21440
X61747Y26164
X67751Y24294
T02
X61077Y32857
X60290Y33645
X59503Y34432
X61077Y34432
X59503Y32857
X46038Y14668
X46274Y6912
X46944Y6912
T03
X55703Y7424
X55703Y10810
X48085Y12050
X60802Y14412
X60807Y14915
X71944Y11302
X57711Y23133
X54881Y23698
X50388Y27109
X51570Y28389
X55526Y28310
X62062Y31282
X63026Y28487
X71117Y28920
X71980Y30170
X73479Y30495
X71333Y25613
X69247Y23428
X76924Y25101
X45133Y33015
T04
X46865Y31912
X46196Y31715
X47928Y30810
X48636Y31361
X48991Y31755
X49306Y30967
X50172Y31834
X50644Y29786
X52298Y29432
X53951Y28566
X48164Y30101
X55566Y31834
X58755Y31834
X53715Y35534
X51983Y35416
X48400Y34471
X60054Y26952
X54385Y24196
X53991Y23802
X53322Y22975
X53322Y24983
X53833Y24983
X49975Y25337
X46432Y26164
X58479Y21086
X50211Y19747
X49778Y19471
X67101Y25849
X67810Y27936
X53499Y10456
X52455Y10692
X52849Y9826
X72731Y6164
X80762Y2857
X81786Y1046
X74385Y10259
T05
X77711Y17641
X65900Y17641
T06
X78991Y10755
X78991Y9755
X78991Y8755
X78991Y7755
X78991Y6755
X78991Y5755
X78991Y4755
X78991Y3755
X78991Y2755
X78991Y1755
X81869Y2050
X81869Y3050
X41983Y2755
X41983Y1755
X41983Y3755
X41983Y4755
X41983Y5755
X41983Y6755
X41983Y7755
X41983Y8755
X41983Y9755
X41983Y10755
X41983Y28920
X41983Y29920
X41983Y30920
X41983Y31920
X41983Y32920
X41983Y33920
X41983Y34920
X41983Y35920
X41983Y36920
X41983Y37920
X49463Y38025
X50463Y37925
X51463Y38025
X52463Y37925
X53463Y38025
X53432Y33751
X52432Y33751
X51432Y33751
X51432Y32751
X52432Y32751
X53432Y32751
X50432Y32751
X49432Y32751
X49432Y33751
X50432Y33751
X78991Y33920
X78991Y34920
X78991Y35920
X78991Y36920
X78991Y37920
X78991Y32920
X78991Y31920
X78991Y30920
X78991Y29920
X78991Y28920
T07
X54778Y2436
X52810Y2436
T08
X59306Y37778
X61274Y37778
X69542Y37975
X71510Y37975
X74660Y37975
X76629Y37975
T09
X40005Y17265
X43755Y18015
X43755Y19865
X43755Y21715
X40005Y22465
T10
X88026Y25837
X88026Y29837
X88046Y13991
X88046Y9991
M30
