G75*
%MOIN*%
%OFA0B0*%
%FSLAX25Y25*%
%IPPOS*%
%LPD*%
%AMOC8*
5,1,8,0,0,1.08239X$1,22.5*
%
%ADD10C,0.02000*%
%ADD11C,0.00800*%
%ADD12C,0.00200*%
%ADD13C,0.00400*%
%ADD14R,0.01969X0.03445*%
%ADD15C,0.00600*%
%ADD16C,0.00500*%
D10*
X0002000Y0003901D02*
X0002000Y0062019D01*
X0119500Y0062019D01*
X0119500Y0003901D01*
X0002000Y0003901D01*
D11*
X0033303Y0009184D02*
X0033894Y0009184D01*
X0083106Y0009184D01*
X0083697Y0009184D01*
X0083697Y0024932D01*
X0081630Y0024932D01*
X0035370Y0024932D01*
X0033303Y0024932D01*
X0033303Y0009184D01*
D12*
X0033894Y0009184D02*
X0035370Y0010661D01*
X0035370Y0013121D01*
X0033402Y0013121D01*
X0035370Y0013121D02*
X0036354Y0013121D01*
X0036354Y0015582D01*
X0080646Y0015582D01*
X0080646Y0013121D01*
X0081630Y0013121D01*
X0081630Y0010661D01*
X0083106Y0009184D01*
X0081630Y0010661D02*
X0035370Y0010661D01*
X0035370Y0022472D02*
X0033402Y0022472D01*
X0035370Y0022472D02*
X0035370Y0024932D01*
X0037831Y0024440D02*
X0037831Y0022472D01*
X0039799Y0022472D01*
X0039799Y0024440D01*
X0041768Y0024440D02*
X0041768Y0022472D01*
X0043736Y0022472D01*
X0043736Y0024440D01*
X0045705Y0024440D02*
X0045705Y0022472D01*
X0047673Y0022472D01*
X0047673Y0024440D01*
X0049642Y0024440D02*
X0049642Y0022472D01*
X0051610Y0022472D01*
X0051610Y0024440D01*
X0053579Y0024440D02*
X0053579Y0022472D01*
X0055547Y0022472D01*
X0055547Y0024440D01*
X0057516Y0024440D02*
X0057516Y0022472D01*
X0059484Y0022472D01*
X0059484Y0024440D01*
X0061453Y0024440D02*
X0061453Y0022472D01*
X0063421Y0022472D01*
X0063421Y0024440D01*
X0065390Y0024440D02*
X0065390Y0022472D01*
X0067358Y0022472D01*
X0067358Y0024440D01*
X0069327Y0024440D02*
X0069327Y0022472D01*
X0071295Y0022472D01*
X0071295Y0024440D01*
X0073264Y0024440D02*
X0073264Y0022472D01*
X0075232Y0022472D01*
X0075232Y0024440D01*
X0077201Y0024440D02*
X0077201Y0022472D01*
X0079169Y0022472D01*
X0079169Y0024440D01*
X0081630Y0024932D02*
X0081630Y0022472D01*
X0083598Y0022472D01*
X0083598Y0013121D02*
X0081630Y0013121D01*
D13*
X0069817Y0008000D02*
X0069817Y0003400D01*
X0068540Y0003400D02*
X0071095Y0003400D01*
X0066256Y0005317D02*
X0065618Y0005700D01*
X0064979Y0006083D01*
X0064595Y0004167D02*
X0064670Y0004124D01*
X0064746Y0004085D01*
X0064824Y0004048D01*
X0064903Y0004016D01*
X0064984Y0003986D01*
X0065066Y0003960D01*
X0065149Y0003938D01*
X0065233Y0003919D01*
X0065317Y0003903D01*
X0065402Y0003892D01*
X0065488Y0003884D01*
X0065573Y0003879D01*
X0065659Y0003878D01*
X0065745Y0003881D01*
X0065831Y0003887D01*
X0065916Y0003897D01*
X0066001Y0003911D01*
X0065618Y0003400D02*
X0065618Y0008000D01*
X0065234Y0007489D02*
X0065181Y0007477D01*
X0065129Y0007462D01*
X0065078Y0007442D01*
X0065029Y0007420D01*
X0064981Y0007394D01*
X0064935Y0007364D01*
X0064892Y0007332D01*
X0064851Y0007296D01*
X0064812Y0007258D01*
X0064777Y0007217D01*
X0064744Y0007173D01*
X0064715Y0007128D01*
X0064689Y0007080D01*
X0064666Y0007030D01*
X0064647Y0006980D01*
X0064632Y0006928D01*
X0064620Y0006874D01*
X0064613Y0006821D01*
X0064609Y0006767D01*
X0064608Y0006712D01*
X0064612Y0006658D01*
X0064620Y0006604D01*
X0064631Y0006551D01*
X0064646Y0006499D01*
X0064665Y0006448D01*
X0064688Y0006399D01*
X0064713Y0006351D01*
X0064743Y0006305D01*
X0064775Y0006262D01*
X0064810Y0006220D01*
X0064849Y0006182D01*
X0064890Y0006146D01*
X0064933Y0006113D01*
X0064978Y0006084D01*
X0065234Y0007489D02*
X0065319Y0007503D01*
X0065404Y0007513D01*
X0065490Y0007519D01*
X0065576Y0007522D01*
X0065662Y0007521D01*
X0065747Y0007516D01*
X0065833Y0007508D01*
X0065918Y0007497D01*
X0066002Y0007481D01*
X0066086Y0007462D01*
X0066169Y0007440D01*
X0066251Y0007414D01*
X0066332Y0007384D01*
X0066411Y0007352D01*
X0066489Y0007315D01*
X0066565Y0007276D01*
X0066640Y0007233D01*
X0068540Y0006978D02*
X0069817Y0008000D01*
X0066257Y0005316D02*
X0066302Y0005287D01*
X0066345Y0005254D01*
X0066386Y0005218D01*
X0066425Y0005180D01*
X0066460Y0005138D01*
X0066492Y0005095D01*
X0066522Y0005049D01*
X0066547Y0005001D01*
X0066570Y0004952D01*
X0066589Y0004901D01*
X0066604Y0004849D01*
X0066615Y0004796D01*
X0066623Y0004742D01*
X0066627Y0004688D01*
X0066626Y0004633D01*
X0066622Y0004579D01*
X0066615Y0004526D01*
X0066603Y0004472D01*
X0066588Y0004420D01*
X0066569Y0004370D01*
X0066546Y0004320D01*
X0066520Y0004272D01*
X0066491Y0004227D01*
X0066458Y0004183D01*
X0066423Y0004142D01*
X0066384Y0004104D01*
X0066343Y0004068D01*
X0066300Y0004036D01*
X0066254Y0004006D01*
X0066206Y0003980D01*
X0066157Y0003958D01*
X0066106Y0003938D01*
X0066054Y0003923D01*
X0066001Y0003911D01*
X0062545Y0004678D02*
X0062545Y0008000D01*
X0059990Y0008000D02*
X0059990Y0004678D01*
X0059992Y0004608D01*
X0059998Y0004537D01*
X0060007Y0004468D01*
X0060021Y0004399D01*
X0060038Y0004330D01*
X0060059Y0004263D01*
X0060084Y0004197D01*
X0060112Y0004133D01*
X0060144Y0004070D01*
X0060179Y0004009D01*
X0060218Y0003950D01*
X0060259Y0003893D01*
X0060304Y0003839D01*
X0060352Y0003787D01*
X0060402Y0003738D01*
X0060456Y0003691D01*
X0060511Y0003648D01*
X0060569Y0003608D01*
X0060629Y0003571D01*
X0060691Y0003538D01*
X0060755Y0003508D01*
X0060820Y0003481D01*
X0060886Y0003458D01*
X0060954Y0003439D01*
X0061023Y0003424D01*
X0061092Y0003412D01*
X0061162Y0003404D01*
X0061233Y0003400D01*
X0061303Y0003400D01*
X0061374Y0003404D01*
X0061444Y0003412D01*
X0061513Y0003424D01*
X0061582Y0003439D01*
X0061650Y0003458D01*
X0061716Y0003481D01*
X0061781Y0003508D01*
X0061845Y0003538D01*
X0061907Y0003571D01*
X0061967Y0003608D01*
X0062025Y0003648D01*
X0062080Y0003691D01*
X0062134Y0003738D01*
X0062184Y0003787D01*
X0062232Y0003839D01*
X0062277Y0003893D01*
X0062318Y0003950D01*
X0062357Y0004009D01*
X0062392Y0004070D01*
X0062424Y0004133D01*
X0062452Y0004197D01*
X0062477Y0004263D01*
X0062498Y0004330D01*
X0062515Y0004399D01*
X0062529Y0004468D01*
X0062538Y0004537D01*
X0062544Y0004608D01*
X0062546Y0004678D01*
D14*
X0062437Y0013859D03*
X0058500Y0013859D03*
X0054563Y0013859D03*
X0050626Y0013859D03*
X0046689Y0013859D03*
X0042752Y0013859D03*
X0038815Y0013859D03*
X0066374Y0013859D03*
X0070311Y0013859D03*
X0074248Y0013859D03*
X0078185Y0013859D03*
D15*
X0076000Y0044019D02*
X0073500Y0046519D01*
X0071000Y0044019D01*
X0066000Y0044019D01*
X0063500Y0046519D01*
X0061000Y0044019D01*
X0056000Y0044019D01*
X0053500Y0046519D01*
X0051000Y0044019D01*
X0046000Y0044019D01*
X0043500Y0046519D01*
X0041000Y0044019D01*
X0036000Y0044019D01*
X0033500Y0046519D01*
X0031000Y0044019D01*
X0026000Y0044019D01*
X0023500Y0046519D01*
X0023500Y0051519D01*
X0026000Y0054019D01*
X0031000Y0054019D01*
X0033500Y0051519D01*
X0036000Y0054019D01*
X0041000Y0054019D01*
X0043500Y0051519D01*
X0043500Y0046519D01*
X0043500Y0051519D02*
X0046000Y0054019D01*
X0051000Y0054019D01*
X0053500Y0051519D01*
X0056000Y0054019D01*
X0061000Y0054019D01*
X0063500Y0051519D01*
X0066000Y0054019D01*
X0071000Y0054019D01*
X0073500Y0051519D01*
X0073500Y0046519D01*
X0076000Y0044019D02*
X0081000Y0044019D01*
X0083500Y0046519D01*
X0086000Y0044019D01*
X0091000Y0044019D01*
X0093500Y0046519D01*
X0096000Y0044019D01*
X0101000Y0044019D01*
X0103500Y0046519D01*
X0103500Y0051519D01*
X0101000Y0054019D01*
X0096000Y0054019D01*
X0093500Y0051519D01*
X0093500Y0046519D01*
X0093500Y0051519D02*
X0091000Y0054019D01*
X0086000Y0054019D01*
X0083500Y0051519D01*
X0083500Y0046519D01*
X0083500Y0051519D02*
X0081000Y0054019D01*
X0076000Y0054019D01*
X0073500Y0051519D01*
X0063500Y0051519D02*
X0063500Y0046519D01*
X0053500Y0046519D02*
X0053500Y0051519D01*
X0033500Y0051519D02*
X0033500Y0046519D01*
D16*
X0034079Y0056469D02*
X0031579Y0056469D01*
X0032829Y0056469D02*
X0032829Y0060969D01*
X0031579Y0059969D01*
X0028554Y0060969D02*
X0028623Y0060967D01*
X0028692Y0060961D01*
X0028760Y0060952D01*
X0028827Y0060939D01*
X0028894Y0060922D01*
X0028960Y0060901D01*
X0029024Y0060877D01*
X0029087Y0060849D01*
X0029149Y0060818D01*
X0029209Y0060784D01*
X0029266Y0060746D01*
X0029322Y0060705D01*
X0029375Y0060662D01*
X0029426Y0060615D01*
X0029474Y0060566D01*
X0029519Y0060514D01*
X0029561Y0060459D01*
X0029600Y0060403D01*
X0029637Y0060344D01*
X0029669Y0060283D01*
X0029699Y0060221D01*
X0029725Y0060157D01*
X0029747Y0060092D01*
X0029766Y0060026D01*
X0029781Y0059959D01*
X0029792Y0059891D01*
X0029800Y0059822D01*
X0029804Y0059753D01*
X0029804Y0059685D01*
X0029800Y0059616D01*
X0029792Y0059547D01*
X0029781Y0059479D01*
X0029766Y0059412D01*
X0029747Y0059346D01*
X0029725Y0059281D01*
X0029699Y0059217D01*
X0029669Y0059155D01*
X0029637Y0059094D01*
X0029600Y0059035D01*
X0029561Y0058979D01*
X0029519Y0058924D01*
X0029474Y0058872D01*
X0029426Y0058823D01*
X0029375Y0058776D01*
X0029322Y0058733D01*
X0029266Y0058692D01*
X0029209Y0058654D01*
X0029149Y0058620D01*
X0029087Y0058589D01*
X0029024Y0058561D01*
X0028960Y0058537D01*
X0028894Y0058516D01*
X0028827Y0058499D01*
X0028760Y0058486D01*
X0028692Y0058477D01*
X0028623Y0058471D01*
X0028554Y0058469D01*
X0027304Y0058469D01*
X0024950Y0057469D02*
X0024950Y0060969D01*
X0027304Y0060969D02*
X0028554Y0060969D01*
X0027304Y0060969D02*
X0027304Y0056469D01*
X0023950Y0056469D02*
X0023450Y0056469D01*
X0023950Y0056469D02*
X0024010Y0056471D01*
X0024071Y0056476D01*
X0024130Y0056485D01*
X0024189Y0056498D01*
X0024248Y0056514D01*
X0024305Y0056534D01*
X0024360Y0056557D01*
X0024415Y0056584D01*
X0024467Y0056613D01*
X0024518Y0056646D01*
X0024567Y0056682D01*
X0024613Y0056720D01*
X0024657Y0056762D01*
X0024699Y0056806D01*
X0024737Y0056852D01*
X0024773Y0056901D01*
X0024806Y0056952D01*
X0024835Y0057004D01*
X0024862Y0057059D01*
X0024885Y0057114D01*
X0024905Y0057171D01*
X0024921Y0057230D01*
X0024934Y0057289D01*
X0024943Y0057348D01*
X0024948Y0057409D01*
X0024950Y0057469D01*
M02*
