G75*
%MOIN*%
%OFA0B0*%
%FSLAX25Y25*%
%IPPOS*%
%LPD*%
%AMOC8*
5,1,8,0,0,1.08239X$1,22.5*
%
%ADD10C,0.00000*%
%ADD11C,0.05150*%
%ADD12R,0.26378X0.26378*%
%ADD13R,0.11811X0.06299*%
%ADD14R,0.05906X0.01772*%
%ADD15R,0.06693X0.07087*%
%ADD16C,0.07050*%
%ADD17R,0.05150X0.05150*%
%ADD18R,0.04724X0.03150*%
%ADD19R,0.06299X0.07087*%
%ADD20C,0.18100*%
%ADD21OC8,0.18100*%
%ADD22R,0.03150X0.04724*%
%ADD23R,0.07087X0.06299*%
%ADD24R,0.02165X0.04724*%
%ADD25R,0.05512X0.04724*%
%ADD26R,0.07087X0.06693*%
%ADD27R,0.03819X0.01220*%
%ADD28C,0.05937*%
%ADD29R,0.05937X0.05937*%
%ADD30R,0.04724X0.05512*%
%ADD31C,0.07000*%
%ADD32R,0.11811X0.04921*%
%ADD33R,0.16300X0.03900*%
%ADD34C,0.06000*%
%ADD35R,0.13000X0.13000*%
%ADD36R,0.11811X0.11811*%
%ADD37R,0.12598X0.07087*%
%ADD38R,0.06299X0.11811*%
%ADD39C,0.10000*%
%ADD40R,0.07874X0.02756*%
%ADD41R,0.25000X0.40000*%
%ADD42R,0.18000X0.06000*%
%ADD43R,0.11496X0.05984*%
%ADD44R,0.03500X0.04500*%
%ADD45C,0.05150*%
%ADD46R,0.01181X0.07874*%
%ADD47R,0.07874X0.01181*%
%ADD48R,0.08661X0.02362*%
%ADD49C,0.01200*%
%ADD50C,0.01000*%
%ADD51C,0.03569*%
%ADD52C,0.00800*%
%ADD53C,0.01600*%
%ADD54C,0.03100*%
%ADD55C,0.02400*%
%ADD56C,0.04000*%
%ADD57C,0.03200*%
%ADD58C,0.06600*%
%ADD59C,0.04356*%
%ADD60C,0.05000*%
%ADD61C,0.16500*%
%ADD62C,0.07600*%
%ADD63C,0.15000*%
D10*
X0475168Y0140855D02*
X0475168Y0416445D01*
X0915866Y0005886D02*
X0922306Y0009707D01*
X0928653Y0013679D01*
X0934905Y0017802D01*
X0941056Y0022072D01*
X0947104Y0026487D01*
X0953045Y0031045D01*
X0958877Y0035743D01*
X0964595Y0040578D01*
X0970196Y0045547D01*
X0975678Y0050648D01*
X0981037Y0055878D01*
X0986270Y0061235D01*
X0991374Y0066713D01*
X0996346Y0072312D01*
X1001184Y0078028D01*
X1005885Y0083856D01*
X1010446Y0089795D01*
X1014865Y0095841D01*
X1019138Y0101990D01*
X1023264Y0108239D01*
X1027240Y0114584D01*
X1031065Y0121022D01*
X1034735Y0127549D01*
X1038249Y0134161D01*
X1041605Y0140855D01*
X1041605Y0416445D01*
X1041606Y0416445D02*
X1038174Y0423287D01*
X1034576Y0430044D01*
X1030815Y0436711D01*
X1026894Y0443285D01*
X1022814Y0449761D01*
X1018577Y0456136D01*
X1014187Y0462407D01*
X1009646Y0468569D01*
X1004957Y0474619D01*
X1000121Y0480553D01*
X0995143Y0486368D01*
X0990026Y0492060D01*
X0984771Y0497626D01*
X0979383Y0503063D01*
X0973864Y0508367D01*
X0968218Y0513536D01*
X0962448Y0518566D01*
X0956557Y0523454D01*
X0950550Y0528198D01*
X0944428Y0532794D01*
X0938197Y0537240D01*
X0931860Y0541533D01*
X0925420Y0545671D01*
X0918882Y0549651D01*
X0912249Y0553472D01*
X0905525Y0557130D01*
X0898714Y0560623D01*
X0891820Y0563950D01*
X0884848Y0567108D01*
X0877800Y0570096D01*
X0870682Y0572912D01*
X0863498Y0575554D01*
X0856252Y0578021D01*
X0848948Y0580311D01*
X0841590Y0582422D01*
X0834184Y0584355D01*
X0826732Y0586106D01*
X0819240Y0587676D01*
X0811712Y0589064D01*
X0804153Y0590268D01*
X0796567Y0591288D01*
X0788958Y0592124D01*
X0781331Y0592774D01*
X0773691Y0593239D01*
X0766041Y0593518D01*
X0758387Y0593611D01*
X0750733Y0593518D01*
X0743083Y0593239D01*
X0735443Y0592774D01*
X0727816Y0592124D01*
X0720207Y0591288D01*
X0712621Y0590268D01*
X0705062Y0589064D01*
X0697534Y0587676D01*
X0690042Y0586106D01*
X0682590Y0584355D01*
X0675184Y0582422D01*
X0667826Y0580311D01*
X0660522Y0578021D01*
X0653276Y0575554D01*
X0646092Y0572912D01*
X0638974Y0570096D01*
X0631926Y0567108D01*
X0624954Y0563950D01*
X0618060Y0560623D01*
X0611249Y0557130D01*
X0604525Y0553472D01*
X0597892Y0549651D01*
X0591354Y0545671D01*
X0584914Y0541533D01*
X0578577Y0537240D01*
X0572346Y0532794D01*
X0566224Y0528198D01*
X0560217Y0523454D01*
X0554326Y0518566D01*
X0548556Y0513536D01*
X0542910Y0508367D01*
X0537391Y0503063D01*
X0532003Y0497626D01*
X0526748Y0492060D01*
X0521631Y0486368D01*
X0516653Y0480553D01*
X0511817Y0474619D01*
X0507128Y0468569D01*
X0502587Y0462407D01*
X0498197Y0456136D01*
X0493960Y0449761D01*
X0489880Y0443285D01*
X0485959Y0436711D01*
X0482198Y0430044D01*
X0478600Y0423287D01*
X0475168Y0416445D01*
X0475168Y0140855D02*
X0478524Y0134161D01*
X0482038Y0127548D01*
X0485708Y0121021D01*
X0489533Y0114584D01*
X0493509Y0108239D01*
X0497635Y0101990D01*
X0501908Y0095841D01*
X0506327Y0089795D01*
X0510888Y0083856D01*
X0515589Y0078028D01*
X0520427Y0072312D01*
X0525399Y0066714D01*
X0530503Y0061235D01*
X0535736Y0055879D01*
X0541095Y0050648D01*
X0546577Y0045547D01*
X0552178Y0040578D01*
X0557896Y0035743D01*
X0563728Y0031045D01*
X0569669Y0026488D01*
X0575717Y0022072D01*
X0581868Y0017802D01*
X0588119Y0013680D01*
X0594466Y0009707D01*
X0600906Y0005886D01*
X0915866Y0005886D01*
D11*
X0904179Y0033665D03*
X0896305Y0033665D03*
X0888431Y0033665D03*
X0880557Y0033665D03*
X0830407Y0084685D03*
X0814355Y0084587D03*
X0797407Y0090544D03*
X0787407Y0090544D03*
X0777407Y0090544D03*
X0767407Y0090544D03*
X0757407Y0090544D03*
X0747407Y0090544D03*
X0737407Y0090544D03*
X0727407Y0090544D03*
X0717407Y0090544D03*
X0707407Y0090544D03*
X0707407Y0100544D03*
X0717407Y0100544D03*
X0727407Y0100544D03*
X0737407Y0100544D03*
X0747407Y0100544D03*
X0757407Y0100544D03*
X0767407Y0100544D03*
X0777407Y0100544D03*
X0787407Y0100544D03*
X0797407Y0100544D03*
X0704320Y0260815D03*
X0704320Y0280028D03*
X0716811Y0357474D03*
X0708830Y0376978D03*
X0724426Y0377156D03*
X0780691Y0377953D03*
X0864276Y0386356D03*
X0761755Y0448085D03*
X0917910Y0537149D03*
X0944149Y0521674D03*
X0965047Y0500438D03*
X0570022Y0361760D03*
D12*
X0780993Y0413397D03*
X0801694Y0139064D03*
D13*
X0824332Y0148119D03*
X0824332Y0130009D03*
D14*
X0757267Y0315479D03*
X0757267Y0318038D03*
X0757267Y0320597D03*
X0757267Y0323156D03*
X0738369Y0323156D03*
X0738369Y0320597D03*
X0738369Y0318038D03*
X0738369Y0315479D03*
D15*
X0828214Y0402379D03*
X0840428Y0402399D03*
X0840428Y0418541D03*
X0828214Y0418521D03*
X0918000Y0497690D03*
X0918000Y0513832D03*
D16*
X0985877Y0432554D02*
X0992927Y0432554D01*
X0992927Y0412869D02*
X0985877Y0412869D01*
D17*
X0912053Y0033665D03*
D18*
X0911982Y0044260D03*
X0911982Y0051347D03*
X0896533Y0051743D03*
X0896533Y0044657D03*
X0888594Y0044888D03*
X0888594Y0051974D03*
X0805673Y0113316D03*
X0797362Y0113269D03*
X0797362Y0120356D03*
X0805673Y0120403D03*
X0766764Y0121163D03*
X0761043Y0121106D03*
X0754941Y0121034D03*
X0754941Y0128121D03*
X0761043Y0128192D03*
X0766764Y0128250D03*
X0746705Y0128342D03*
X0746705Y0121255D03*
X0737798Y0121310D03*
X0737798Y0128396D03*
X0728791Y0128549D03*
X0728791Y0121463D03*
X0718838Y0121502D03*
X0718838Y0128589D03*
X0708690Y0128745D03*
X0708690Y0121658D03*
X0700560Y0199211D03*
X0694149Y0199153D03*
X0687529Y0200897D03*
X0680833Y0200897D03*
X0674361Y0200897D03*
X0674361Y0207984D03*
X0680833Y0207984D03*
X0687529Y0207984D03*
X0694149Y0206240D03*
X0700560Y0206298D03*
X0723309Y0250131D03*
X0723309Y0257217D03*
X0731177Y0257114D03*
X0731177Y0250027D03*
X0738595Y0252041D03*
X0738595Y0259128D03*
X0745539Y0257138D03*
X0745539Y0250051D03*
X0753730Y0249912D03*
X0753730Y0256999D03*
X0761723Y0257164D03*
X0761723Y0250078D03*
X0798647Y0347789D03*
X0798647Y0354876D03*
X0763184Y0373313D03*
X0763184Y0380400D03*
X0733852Y0379761D03*
X0733852Y0372674D03*
X0854281Y0411430D03*
X0854281Y0418516D03*
X0862440Y0418645D03*
X0862440Y0411558D03*
X0928116Y0502287D03*
X0934540Y0502361D03*
X0934540Y0509447D03*
X0928116Y0509373D03*
X0770757Y0549461D03*
X0770757Y0556548D03*
X0551693Y0481541D03*
X0551693Y0474455D03*
X0519765Y0446312D03*
X0519765Y0439226D03*
X0512565Y0439226D03*
X0512565Y0446312D03*
X0504309Y0446312D03*
X0504309Y0439226D03*
X0540246Y0404837D03*
X0540246Y0397750D03*
X0547901Y0397868D03*
X0547901Y0404955D03*
X0550179Y0353676D03*
X0540425Y0353563D03*
X0540425Y0346476D03*
X0550179Y0346589D03*
D19*
X0701962Y0401634D03*
X0701925Y0411509D03*
X0712949Y0411509D03*
X0712986Y0401634D03*
X0712911Y0421181D03*
X0701887Y0421181D03*
X0819048Y0116509D03*
X0830072Y0116509D03*
D20*
X0688382Y0480278D03*
X0830717Y0520441D03*
D21*
X0830717Y0480441D03*
X0688382Y0520278D03*
D22*
X0613903Y0466837D03*
X0606816Y0466837D03*
X0554161Y0420818D03*
X0547075Y0420818D03*
X0730606Y0403736D03*
X0737693Y0403736D03*
X0753477Y0404945D03*
X0753477Y0410614D03*
X0753440Y0416473D03*
X0753388Y0422232D03*
X0753372Y0427965D03*
X0760458Y0427965D03*
X0760475Y0422232D03*
X0760527Y0416473D03*
X0760563Y0410614D03*
X0760563Y0404945D03*
X0830816Y0395405D03*
X0837903Y0395405D03*
X0750315Y0350152D03*
X0743228Y0350152D03*
X0743913Y0330774D03*
X0751000Y0330774D03*
X0751026Y0307337D03*
X0743939Y0307337D03*
X0770907Y0288507D03*
X0770907Y0282484D03*
X0777994Y0282484D03*
X0777994Y0288507D03*
X0799966Y0300864D03*
X0799931Y0306743D03*
X0799919Y0312881D03*
X0807006Y0312881D03*
X0807018Y0306743D03*
X0807052Y0300864D03*
X0808012Y0271568D03*
X0808442Y0265104D03*
X0801355Y0265104D03*
X0800926Y0271568D03*
X0805549Y0236679D03*
X0812636Y0236679D03*
X0812780Y0228669D03*
X0805694Y0228669D03*
X0805593Y0210704D03*
X0805634Y0203784D03*
X0812721Y0203784D03*
X0812680Y0210704D03*
X0719991Y0239557D03*
X0712905Y0239557D03*
X0830590Y0105200D03*
X0837677Y0105200D03*
X0675677Y0090000D03*
X0668590Y0090000D03*
X0947531Y0479789D03*
X0954618Y0479789D03*
D23*
X0796644Y0338481D03*
X0786437Y0338645D03*
X0786437Y0327622D03*
X0796644Y0327457D03*
X0723410Y0289775D03*
X0723410Y0278752D03*
X0711961Y0320350D03*
X0701951Y0320455D03*
X0701951Y0331478D03*
X0711961Y0331374D03*
D24*
X0724056Y0335072D03*
X0731537Y0335072D03*
X0731537Y0345309D03*
X0727796Y0345309D03*
X0724056Y0345309D03*
X0764032Y0345463D03*
X0767773Y0345463D03*
X0771513Y0345463D03*
X0771513Y0335226D03*
X0764032Y0335226D03*
X0830630Y0377124D03*
X0834370Y0377124D03*
X0838110Y0377124D03*
X0838110Y0387361D03*
X0830630Y0387361D03*
X0807829Y0291855D03*
X0800349Y0291855D03*
X0800349Y0281618D03*
X0804089Y0281618D03*
X0807829Y0281618D03*
D25*
X0754388Y0370904D03*
X0742800Y0370708D03*
X0742800Y0382519D03*
X0754388Y0382715D03*
X0550924Y0377602D03*
X0538108Y0377545D03*
X0538108Y0389356D03*
X0550924Y0389413D03*
X0551139Y0338472D03*
X0539070Y0338305D03*
X0539070Y0326494D03*
X0551139Y0326661D03*
D26*
X0610288Y0435038D03*
X0626430Y0435038D03*
D27*
X0725642Y0398022D03*
X0725642Y0396053D03*
X0725642Y0394085D03*
X0725642Y0392116D03*
X0725642Y0390148D03*
X0742453Y0390148D03*
X0742453Y0392116D03*
X0742453Y0394085D03*
X0742453Y0396053D03*
X0742453Y0398022D03*
D28*
X0492918Y0383566D03*
X0492897Y0357190D03*
X0492842Y0329718D03*
D29*
X0492842Y0337592D03*
X0492897Y0365064D03*
X0492918Y0391440D03*
D30*
X0741628Y0341160D03*
X0753440Y0341160D03*
X0945298Y0470129D03*
X0957109Y0470129D03*
D31*
X0609889Y0277516D02*
X0604939Y0272566D01*
X0590797Y0286708D02*
X0595747Y0291658D01*
X0512929Y0296555D02*
X0510535Y0289977D01*
X0491741Y0296817D02*
X0494135Y0303395D01*
X0508340Y0409270D02*
X0508340Y0416270D01*
X0528340Y0416270D02*
X0528340Y0409270D01*
X0983954Y0103959D02*
X0988904Y0108909D01*
X1003046Y0094767D02*
X0998096Y0089817D01*
X0910714Y0089519D02*
X0903714Y0089519D01*
X0903714Y0069519D02*
X0910714Y0069519D01*
D32*
X0996142Y0196858D03*
X0996142Y0206858D03*
X0996142Y0216858D03*
X0996142Y0226858D03*
X0997729Y0274008D03*
X0997729Y0284008D03*
X0997729Y0294008D03*
X0997729Y0304008D03*
X0520565Y0230847D03*
X0520565Y0220847D03*
X0520565Y0210847D03*
X0520565Y0200847D03*
X0520768Y0180693D03*
X0520768Y0170693D03*
X0520768Y0160693D03*
X0520768Y0150693D03*
D33*
X0539882Y0148441D03*
X0539882Y0158441D03*
X0539882Y0168441D03*
X0539882Y0178441D03*
X0539882Y0188441D03*
X0539882Y0198441D03*
X0539882Y0208441D03*
X0539882Y0218441D03*
X0539882Y0228441D03*
X0539882Y0238441D03*
X0539882Y0248441D03*
X0539882Y0258441D03*
X0539882Y0268441D03*
X0539882Y0278441D03*
X0539882Y0288441D03*
X0567982Y0288441D03*
X0567982Y0278441D03*
X0567982Y0268441D03*
X0567982Y0258441D03*
X0567982Y0248441D03*
X0567982Y0238441D03*
X0567982Y0228441D03*
X0567982Y0218441D03*
X0567982Y0208441D03*
X0567982Y0198441D03*
X0567982Y0188441D03*
X0567982Y0178441D03*
X0567982Y0168441D03*
X0567982Y0158441D03*
X0567982Y0148441D03*
X0567982Y0138441D03*
X0567982Y0128441D03*
X0567982Y0118441D03*
X0567982Y0108441D03*
X0567982Y0098441D03*
X0539882Y0098441D03*
X0539882Y0108441D03*
X0539882Y0118441D03*
X0539882Y0128441D03*
X0539882Y0138441D03*
X0628304Y0138365D03*
X0628304Y0128365D03*
X0628304Y0118365D03*
X0628304Y0108365D03*
X0628304Y0098365D03*
X0656404Y0098365D03*
X0656404Y0108365D03*
X0656404Y0118365D03*
X0656404Y0128365D03*
X0656404Y0138365D03*
X0656404Y0148365D03*
X0656404Y0158365D03*
X0656404Y0168365D03*
X0656404Y0178365D03*
X0656404Y0188365D03*
X0656404Y0198365D03*
X0656404Y0208365D03*
X0656404Y0218365D03*
X0656404Y0228365D03*
X0656404Y0238365D03*
X0656404Y0248365D03*
X0656404Y0258365D03*
X0656404Y0268365D03*
X0656404Y0278365D03*
X0656404Y0288365D03*
X0628304Y0288365D03*
X0628304Y0278365D03*
X0628304Y0268365D03*
X0628304Y0258365D03*
X0628304Y0248365D03*
X0628304Y0238365D03*
X0628304Y0228365D03*
X0628304Y0218365D03*
X0628304Y0208365D03*
X0628304Y0198365D03*
X0628304Y0188365D03*
X0628304Y0178365D03*
X0628304Y0168365D03*
X0628304Y0158365D03*
X0628304Y0148365D03*
X0849953Y0150771D03*
X0849953Y0140771D03*
X0849953Y0130771D03*
X0849953Y0120771D03*
X0849953Y0110771D03*
X0849953Y0100771D03*
X0878053Y0100771D03*
X0878053Y0110771D03*
X0878053Y0120771D03*
X0878053Y0130771D03*
X0878053Y0140771D03*
X0878053Y0150771D03*
X0878053Y0160771D03*
X0878053Y0170771D03*
X0878053Y0180771D03*
X0878053Y0190771D03*
X0878053Y0200771D03*
X0878053Y0210771D03*
X0878053Y0220771D03*
X0878053Y0230771D03*
X0878053Y0240771D03*
X0878053Y0250771D03*
X0878053Y0260771D03*
X0878053Y0270771D03*
X0878053Y0280771D03*
X0878053Y0290771D03*
X0849953Y0290771D03*
X0849953Y0280771D03*
X0849953Y0270771D03*
X0849953Y0260771D03*
X0849953Y0250771D03*
X0849953Y0240771D03*
X0849953Y0230771D03*
X0849953Y0220771D03*
X0849953Y0210771D03*
X0849953Y0200771D03*
X0849953Y0190771D03*
X0849953Y0180771D03*
X0849953Y0170771D03*
X0849953Y0160771D03*
X0937647Y0160635D03*
X0937647Y0170635D03*
X0937647Y0180635D03*
X0937647Y0190635D03*
X0937647Y0200635D03*
X0937647Y0210635D03*
X0937647Y0220635D03*
X0937647Y0230635D03*
X0937647Y0240635D03*
X0937647Y0250635D03*
X0937647Y0260635D03*
X0937647Y0270635D03*
X0937647Y0280635D03*
X0937647Y0290635D03*
X0965747Y0290635D03*
X0965747Y0280635D03*
X0965747Y0270635D03*
X0965747Y0260635D03*
X0965747Y0250635D03*
X0965747Y0240635D03*
X0965747Y0230635D03*
X0965747Y0220635D03*
X0965747Y0210635D03*
X0965747Y0200635D03*
X0965747Y0190635D03*
X0965747Y0180635D03*
X0965747Y0170635D03*
X0965747Y0160635D03*
X0965747Y0150635D03*
X0965747Y0140635D03*
X0965747Y0130635D03*
X0965747Y0120635D03*
X0965747Y0110635D03*
X0965747Y0100635D03*
X0937647Y0100635D03*
X0937647Y0110635D03*
X0937647Y0120635D03*
X0937647Y0130635D03*
X0937647Y0140635D03*
X0937647Y0150635D03*
D34*
X0855933Y0058800D02*
X0855933Y0052800D01*
X0845933Y0052800D02*
X0845933Y0058800D01*
X0835933Y0058800D02*
X0835933Y0052800D01*
X0825933Y0052800D02*
X0825933Y0058800D01*
X0815933Y0058800D02*
X0815933Y0052800D01*
X0805933Y0052800D02*
X0805933Y0058800D01*
X0795933Y0058800D02*
X0795933Y0052800D01*
X0785933Y0052800D02*
X0785933Y0058800D01*
X0775933Y0058800D02*
X0775933Y0052800D01*
X0765933Y0052800D02*
X0765933Y0058800D01*
X0706051Y0058800D02*
X0706051Y0052800D01*
X0696051Y0052800D02*
X0696051Y0058800D01*
X0686051Y0058800D02*
X0686051Y0052800D01*
X0676051Y0052800D02*
X0676051Y0058800D01*
X0666051Y0058800D02*
X0666051Y0052800D01*
X0656051Y0052800D02*
X0656051Y0058800D01*
X0646051Y0058800D02*
X0646051Y0052800D01*
X0636051Y0052800D02*
X0636051Y0058800D01*
X0626051Y0058800D02*
X0626051Y0052800D01*
X0616051Y0052800D02*
X0616051Y0058800D01*
X0752530Y0543714D02*
X0758530Y0543714D01*
X0758530Y0553714D02*
X0752530Y0553714D01*
D35*
X0983558Y0377808D03*
X0983558Y0359308D03*
X0983558Y0340808D03*
D36*
X1021058Y0333308D03*
X1021058Y0385308D03*
D37*
X0809296Y0393967D03*
X0809296Y0416014D03*
D38*
X0790048Y0390759D03*
X0771938Y0390759D03*
D39*
X0917325Y0385144D03*
X0917325Y0455144D03*
X0610243Y0542012D03*
X0556620Y0497017D03*
D40*
X0813438Y0195643D03*
X0813438Y0188163D03*
X0800053Y0191903D03*
D41*
X0570680Y0467190D03*
D42*
X0609680Y0477190D03*
X0609680Y0457190D03*
D43*
X0596016Y0410461D03*
X0596016Y0395698D03*
X0596016Y0380934D03*
X0596016Y0366170D03*
X0596016Y0351406D03*
X0685268Y0351406D03*
X0685268Y0366170D03*
X0685268Y0380934D03*
X0685268Y0395698D03*
X0685268Y0410461D03*
D44*
X0550876Y0428429D03*
X0540876Y0428429D03*
X0540876Y0452929D03*
X0550876Y0453029D03*
D45*
X0588266Y0504403D02*
X0588266Y0509553D01*
X0598266Y0509553D02*
X0598266Y0504403D01*
X0608266Y0504403D02*
X0608266Y0509553D01*
D46*
X0737096Y0232719D03*
X0739065Y0232719D03*
X0741033Y0232719D03*
X0743002Y0232719D03*
X0744970Y0232719D03*
X0746939Y0232719D03*
X0748907Y0232719D03*
X0750876Y0232719D03*
X0752844Y0232719D03*
X0754813Y0232719D03*
X0756781Y0232719D03*
X0758750Y0232719D03*
X0760718Y0232719D03*
X0762687Y0232719D03*
X0764655Y0232719D03*
X0766624Y0232719D03*
X0766624Y0185475D03*
X0764655Y0185475D03*
X0762687Y0185475D03*
X0760718Y0185475D03*
X0758750Y0185475D03*
X0756781Y0185475D03*
X0754813Y0185475D03*
X0752844Y0185475D03*
X0750876Y0185475D03*
X0748907Y0185475D03*
X0746939Y0185475D03*
X0744970Y0185475D03*
X0743002Y0185475D03*
X0741033Y0185475D03*
X0739065Y0185475D03*
X0737096Y0185475D03*
D47*
X0728238Y0194333D03*
X0728238Y0196301D03*
X0728238Y0198270D03*
X0728238Y0200238D03*
X0728238Y0202207D03*
X0728238Y0204175D03*
X0728238Y0206144D03*
X0728238Y0208112D03*
X0728238Y0210081D03*
X0728238Y0212049D03*
X0728238Y0214018D03*
X0728238Y0215986D03*
X0728238Y0217955D03*
X0728238Y0219923D03*
X0728238Y0221892D03*
X0728238Y0223860D03*
X0775482Y0223860D03*
X0775482Y0221892D03*
X0775482Y0219923D03*
X0775482Y0217955D03*
X0775482Y0215986D03*
X0775482Y0214018D03*
X0775482Y0212049D03*
X0775482Y0210081D03*
X0775482Y0208112D03*
X0775482Y0206144D03*
X0775482Y0204175D03*
X0775482Y0202207D03*
X0775482Y0200238D03*
X0775482Y0198270D03*
X0775482Y0196301D03*
X0775482Y0194333D03*
D48*
X0758955Y0277361D03*
X0758955Y0282361D03*
X0758955Y0287361D03*
X0758955Y0292361D03*
X0738482Y0292361D03*
X0738482Y0287361D03*
X0738482Y0282361D03*
X0738482Y0277361D03*
D49*
X0711961Y0320350D02*
X0702056Y0320350D01*
X0701951Y0320455D01*
X0701951Y0331478D02*
X0711856Y0331478D01*
X0711961Y0331374D01*
X0685268Y0351406D02*
X0685268Y0366170D01*
X0733852Y0379761D02*
X0733852Y0384718D01*
X0736733Y0387600D01*
X0758933Y0387600D01*
X0762933Y0383600D01*
X0762933Y0380650D01*
X0763184Y0380400D01*
X0771534Y0380400D01*
X0772533Y0379400D01*
X0772533Y0372200D01*
X0775533Y0369200D01*
X0779933Y0369200D01*
X0780133Y0369000D01*
X0780133Y0366200D01*
X0780133Y0347600D01*
X0779933Y0347400D01*
X0718733Y0396313D02*
X0718733Y0405200D01*
X0718733Y0416200D01*
X0735699Y0427965D01*
X0753372Y0427965D01*
X0760458Y0427965D02*
X0760458Y0422248D01*
X0760475Y0422232D01*
X0760458Y0416542D02*
X0760527Y0416473D01*
X0760458Y0416542D02*
X0760458Y0427965D01*
X0766133Y0414000D02*
X0780390Y0414000D01*
X0780993Y0413397D01*
X0766133Y0414000D02*
X0762747Y0410614D01*
X0760563Y0410614D01*
X0760563Y0404945D01*
X0712986Y0401634D02*
X0712986Y0411471D01*
X0712949Y0411509D01*
X0712949Y0422815D01*
X0713333Y0423200D01*
X0713333Y0421604D01*
X0712911Y0421181D01*
X0620528Y0470554D02*
X0620528Y0494715D01*
X0608266Y0506978D01*
X0615302Y0514014D02*
X0600868Y0528448D01*
X0578180Y0528448D01*
X0563096Y0515864D01*
X0566553Y0512403D02*
X0578074Y0523925D01*
X0589997Y0523925D01*
X0597329Y0516593D01*
X0597329Y0507915D01*
X0598266Y0506978D01*
X0588266Y0506978D02*
X0587494Y0507749D01*
X0551693Y0485307D02*
X0544611Y0492388D01*
X0541398Y0491656D02*
X0546910Y0486143D01*
X0546910Y0476550D01*
X0549193Y0474268D01*
X0551693Y0474455D01*
X0551693Y0471990D01*
X0554583Y0469100D01*
X0554583Y0440350D01*
X0553333Y0439100D01*
X0519890Y0439100D01*
X0519765Y0439226D01*
X0512165Y0439226D01*
X0512565Y0439226D01*
X0512565Y0446312D02*
X0512165Y0446312D01*
X0508533Y0446312D01*
X0504309Y0446312D01*
X0504309Y0439226D02*
X0503783Y0438100D01*
X0502333Y0438100D01*
X0497833Y0433600D01*
X0497833Y0426600D01*
X0498340Y0419607D01*
X0508340Y0412770D01*
X0537833Y0422100D02*
X0537833Y0427100D01*
X0539004Y0428429D01*
X0540876Y0428429D01*
X0537833Y0422100D02*
X0539833Y0420100D01*
X0543857Y0420100D01*
X0547075Y0420818D01*
X0550833Y0412600D02*
X0548333Y0405387D01*
X0547901Y0404955D01*
X0547783Y0404837D01*
X0540246Y0404837D01*
X0540246Y0397750D02*
X0540246Y0395805D01*
X0537977Y0393536D01*
X0537977Y0389488D01*
X0538108Y0389356D01*
X0547901Y0395844D02*
X0549980Y0393764D01*
X0550895Y0393764D01*
X0551009Y0393650D01*
X0551009Y0389497D01*
X0550924Y0389413D01*
X0547901Y0395844D02*
X0547901Y0397868D01*
X0550179Y0353676D02*
X0550066Y0353563D01*
X0540425Y0353563D01*
X0540425Y0346476D02*
X0540425Y0343659D01*
X0538702Y0341936D01*
X0538702Y0338674D01*
X0539070Y0338305D01*
X0550179Y0343556D02*
X0551138Y0342597D01*
X0550179Y0343556D02*
X0550179Y0346589D01*
X0519765Y0446312D02*
X0519765Y0474100D01*
X0538679Y0493935D01*
X0551693Y0485307D02*
X0551693Y0481541D01*
X0606816Y0466837D02*
X0606816Y0458454D01*
X0609680Y0457190D01*
X0613903Y0466837D02*
X0616812Y0466837D01*
X0620528Y0470554D01*
X0911533Y0236800D02*
X0911533Y0227200D01*
X0911733Y0227000D01*
X0982333Y0199400D02*
X0984875Y0196858D01*
X0996142Y0196858D01*
X1002875Y0206858D02*
X1008733Y0201000D01*
X1008133Y0206600D02*
X1013733Y0206600D01*
X1014133Y0206200D01*
X1014133Y0298000D01*
X1008333Y0303800D01*
X0997937Y0303800D01*
X0997729Y0304008D01*
X1014133Y0298000D02*
X1014733Y0297400D01*
X1005533Y0283800D02*
X0997937Y0283800D01*
X0997729Y0284008D01*
X1005533Y0283800D02*
X1008533Y0280800D01*
X1008533Y0212800D01*
X1008333Y0212600D01*
X1004533Y0210200D02*
X1008133Y0206600D01*
X1004533Y0210200D02*
X1004533Y0223200D01*
X1004733Y0224000D01*
X1004533Y0224600D01*
X1002275Y0226858D01*
X0996142Y0226858D01*
X0996142Y0206858D02*
X1002875Y0206858D01*
X1014133Y0206200D02*
X1014133Y0192400D01*
X0965747Y0160635D02*
X0951698Y0160635D01*
X0951533Y0160800D01*
X0825533Y0105000D02*
X0825533Y0099800D01*
X0825533Y0105000D02*
X0825333Y0105200D01*
X0835933Y0055800D02*
X0845933Y0055800D01*
X0836533Y0038800D02*
X0832933Y0035200D01*
X0836533Y0038800D02*
X0869733Y0038800D01*
X0874868Y0033665D01*
X0880557Y0033665D01*
X0880557Y0044024D01*
X0884733Y0048200D01*
X0896333Y0048200D01*
X0896533Y0048000D01*
X0896533Y0044657D01*
X0896533Y0033893D01*
X0896305Y0033665D01*
X0888431Y0033665D02*
X0888431Y0044725D01*
X0888594Y0044888D01*
X0785933Y0055800D02*
X0785933Y0024400D01*
X0785733Y0024200D01*
X0785933Y0055800D02*
X0775933Y0055800D01*
X0765933Y0055800D01*
D50*
X0721333Y0083000D02*
X0720933Y0083400D01*
X0732551Y0095400D02*
X0727407Y0100544D01*
X0732551Y0095400D02*
X0770733Y0095400D01*
X0772133Y0096800D01*
X0772133Y0103000D01*
X0774933Y0121200D02*
X0766801Y0121200D01*
X0766764Y0121163D01*
X0766706Y0121106D01*
X0761043Y0121106D01*
X0754941Y0121034D02*
X0754719Y0121255D01*
X0746705Y0121255D01*
X0746651Y0121310D01*
X0737798Y0121310D01*
X0737645Y0121463D01*
X0728791Y0121463D01*
X0728751Y0121502D01*
X0718838Y0121502D01*
X0718682Y0121658D01*
X0708690Y0121658D01*
X0707407Y0120375D01*
X0707407Y0100544D01*
X0729333Y0124800D02*
X0728933Y0125200D01*
X0728933Y0128407D01*
X0728791Y0128549D01*
X0729333Y0129092D01*
X0729333Y0134600D01*
X0728333Y0135600D01*
X0727333Y0135600D01*
X0735933Y0135800D02*
X0737333Y0135800D01*
X0738133Y0135000D01*
X0738133Y0128731D01*
X0737798Y0128396D01*
X0745333Y0129714D02*
X0746705Y0128342D01*
X0746933Y0128570D01*
X0745333Y0129714D02*
X0745333Y0134800D01*
X0744933Y0135200D01*
X0748133Y0138400D01*
X0751133Y0135400D02*
X0751133Y0125800D01*
X0750133Y0124800D01*
X0729333Y0124800D01*
X0718838Y0128589D02*
X0718533Y0128893D01*
X0718533Y0133600D01*
X0717733Y0134400D01*
X0716133Y0134400D01*
X0708690Y0128745D02*
X0707545Y0127600D01*
X0702333Y0127600D01*
X0666333Y0145400D02*
X0666333Y0147600D01*
X0668533Y0149800D01*
X0737933Y0149800D01*
X0746939Y0158805D01*
X0746939Y0185475D01*
X0739133Y0185543D02*
X0739133Y0190800D01*
X0739133Y0185543D02*
X0739065Y0185475D01*
X0737096Y0185475D02*
X0737096Y0181363D01*
X0730133Y0174400D01*
X0724733Y0174400D01*
X0722333Y0174200D01*
X0705933Y0199000D02*
X0705322Y0199211D01*
X0700560Y0199211D01*
X0700502Y0199153D01*
X0694149Y0199153D01*
X0692404Y0200897D01*
X0687529Y0200897D01*
X0680833Y0200897D01*
X0674361Y0200897D01*
X0674361Y0207984D02*
X0680833Y0207984D01*
X0687529Y0207984D01*
X0694149Y0206240D02*
X0700502Y0206240D01*
X0700560Y0206298D01*
X0691133Y0233200D02*
X0667933Y0210000D01*
X0667933Y0173400D01*
X0666533Y0172000D01*
X0639533Y0166800D02*
X0639533Y0159200D01*
X0628304Y0158365D02*
X0627939Y0158000D01*
X0618733Y0158000D01*
X0616533Y0155800D01*
X0616533Y0147200D01*
X0618233Y0145500D01*
X0619333Y0144400D01*
X0665333Y0144400D01*
X0666333Y0145400D01*
X0656404Y0138365D02*
X0655968Y0138800D01*
X0644733Y0138800D01*
X0628933Y0148995D02*
X0628304Y0148365D01*
X0628933Y0148995D02*
X0628933Y0151400D01*
X0628468Y0168200D02*
X0628304Y0168365D01*
X0628468Y0168200D02*
X0638133Y0168200D01*
X0639533Y0166800D01*
X0618733Y0113600D02*
X0527933Y0113600D01*
X0524033Y0117500D01*
X0524033Y0133700D01*
X0528933Y0138600D01*
X0539723Y0138600D01*
X0539882Y0138441D01*
X0691133Y0233200D02*
X0725533Y0233200D01*
X0728238Y0221892D02*
X0734041Y0221892D01*
X0735133Y0221800D01*
X0744933Y0225800D02*
X0744970Y0230437D01*
X0744970Y0232719D01*
X0759333Y0223200D02*
X0761133Y0223200D01*
X0761733Y0224800D01*
X0762687Y0228153D01*
X0762687Y0232719D01*
X0769533Y0242600D02*
X0775482Y0236651D01*
X0775482Y0223860D01*
X0775482Y0221892D02*
X0781825Y0221892D01*
X0775482Y0219923D02*
X0768610Y0219923D01*
X0766933Y0218800D01*
X0775482Y0212049D02*
X0794183Y0212049D01*
X0796733Y0214600D01*
X0817733Y0214600D01*
X0817933Y0214800D01*
X0812721Y0211063D02*
X0812680Y0210704D01*
X0824429Y0210704D01*
X0824133Y0210200D01*
X0824933Y0204000D02*
X0824717Y0203784D01*
X0812721Y0203784D01*
X0813438Y0203066D01*
X0813438Y0195643D01*
X0813482Y0195600D01*
X0820733Y0195600D01*
X0824133Y0192200D01*
X0824133Y0186400D01*
X0813438Y0188163D02*
X0811170Y0188163D01*
X0809133Y0200600D02*
X0809133Y0210200D01*
X0808333Y0211000D01*
X0805697Y0211000D01*
X0805593Y0210704D01*
X0805490Y0211000D01*
X0798333Y0211000D01*
X0793477Y0206144D01*
X0775482Y0206144D01*
X0775482Y0204175D02*
X0797509Y0204175D01*
X0798733Y0205400D01*
X0785852Y0210081D02*
X0775482Y0210081D01*
X0775482Y0202207D02*
X0781926Y0202207D01*
X0785733Y0198400D01*
X0788133Y0191200D02*
X0793333Y0191200D01*
X0788133Y0191200D02*
X0784933Y0188000D01*
X0784133Y0188000D01*
X0782333Y0189800D01*
X0782333Y0190000D01*
X0756781Y0185475D02*
X0756781Y0164352D01*
X0762333Y0158800D01*
X0762533Y0158800D01*
X0772933Y0148400D01*
X0774133Y0144400D02*
X0774933Y0143600D01*
X0781133Y0137000D02*
X0781133Y0127400D01*
X0774933Y0121200D01*
X0766764Y0128250D02*
X0766706Y0128192D01*
X0761043Y0128192D01*
X0760971Y0128121D01*
X0754941Y0128121D01*
X0825533Y0099800D02*
X0841233Y0084100D01*
X0915833Y0084100D01*
X0918333Y0086600D01*
X0918333Y0094100D01*
X0919733Y0095500D01*
X0990433Y0095500D01*
X1000133Y0105200D01*
X0987633Y0121100D01*
X0987633Y0179300D01*
X0987575Y0180958D01*
X0995833Y0189100D01*
X0997849Y0191116D01*
X1008733Y0191116D01*
X1008733Y0201000D01*
X1014133Y0192400D02*
X1008333Y0186600D01*
X0998333Y0186600D01*
X0990833Y0179100D01*
X0990833Y0121600D01*
X1003333Y0107850D01*
X1003333Y0104650D01*
X0992033Y0092100D01*
X0923833Y0092100D01*
X0923333Y0091600D01*
X0923333Y0086600D01*
X0918333Y0081600D01*
X0878333Y0081600D01*
X0876933Y0079600D01*
X0897733Y0058800D01*
X0925933Y0058800D01*
X0927533Y0057200D01*
X0927533Y0053800D01*
X0925477Y0051743D01*
X0896533Y0051743D01*
X0876933Y0079600D02*
X0835492Y0079600D01*
X0830407Y0084685D01*
X0831333Y0207800D02*
X0839533Y0216000D01*
X0873282Y0216000D01*
X0878053Y0220771D01*
X0878053Y0230771D02*
X0877824Y0230800D01*
X0877333Y0234800D02*
X0887533Y0234800D01*
X0877333Y0234800D02*
X0874533Y0236800D01*
X0865933Y0236800D01*
X0877882Y0240600D02*
X0878053Y0240771D01*
X0849953Y0250771D02*
X0849924Y0250800D01*
X0849953Y0230771D02*
X0849382Y0230200D01*
X0829933Y0230200D01*
X0830733Y0224600D02*
X0959712Y0224600D01*
X0965747Y0230635D01*
X0937647Y0230635D02*
X0934012Y0227000D01*
X0911733Y0227000D01*
X0927933Y0250800D02*
X0940533Y0250800D01*
X0940733Y0250600D01*
X0937683Y0250600D01*
X0937647Y0250635D01*
X0927933Y0250800D02*
X0911533Y0267200D01*
X0910933Y0267200D01*
X0840733Y0275400D02*
X0839133Y0273800D01*
X0828733Y0273800D01*
X0830733Y0267200D02*
X0832333Y0267200D01*
X0819333Y0267200D02*
X0819133Y0267000D01*
X0818333Y0273200D02*
X0818933Y0273800D01*
X0808012Y0271568D02*
X0807101Y0271568D01*
X0804933Y0269400D01*
X0804933Y0262200D01*
X0803733Y0261000D01*
X0766933Y0261000D01*
X0762933Y0265000D01*
X0749133Y0265000D01*
X0745933Y0261800D01*
X0745933Y0257532D01*
X0745539Y0257138D01*
X0758955Y0277361D02*
X0764172Y0277361D01*
X0766533Y0276000D01*
X0770907Y0282484D02*
X0759078Y0282484D01*
X0758955Y0282361D01*
X0759316Y0287000D02*
X0758955Y0287361D01*
X0759316Y0287000D02*
X0767533Y0287000D01*
X0769040Y0288507D01*
X0770907Y0288507D01*
X0774933Y0287400D02*
X0774933Y0279600D01*
X0776333Y0278200D01*
X0790333Y0278200D01*
X0795733Y0272800D01*
X0795733Y0267200D01*
X0797533Y0265400D01*
X0801060Y0265400D01*
X0801355Y0265104D01*
X0800926Y0271568D02*
X0800958Y0271600D01*
X0803733Y0271600D01*
X0804089Y0271956D01*
X0804089Y0281618D01*
X0804089Y0286156D01*
X0804133Y0287200D01*
X0807884Y0291800D02*
X0807829Y0291855D01*
X0799966Y0299719D01*
X0799966Y0300864D01*
X0799931Y0306743D02*
X0796590Y0306743D01*
X0795333Y0306600D01*
X0791933Y0311600D02*
X0791933Y0290000D01*
X0793533Y0288400D01*
X0793333Y0291600D02*
X0800094Y0291600D01*
X0800349Y0291855D01*
X0793333Y0291600D02*
X0791733Y0293200D01*
X0791733Y0311600D01*
X0793014Y0312881D01*
X0799919Y0312881D01*
X0793214Y0312881D01*
X0791933Y0311600D01*
X0789733Y0314600D02*
X0791533Y0316400D01*
X0789733Y0314600D02*
X0789733Y0290200D01*
X0783533Y0282400D01*
X0778078Y0282400D01*
X0777994Y0282484D01*
X0774933Y0287400D02*
X0776040Y0288507D01*
X0777994Y0288507D01*
X0767133Y0294600D02*
X0764495Y0292361D01*
X0758955Y0292361D01*
X0738933Y0282000D02*
X0738572Y0282361D01*
X0738482Y0282361D01*
X0751026Y0307337D02*
X0754671Y0307337D01*
X0755533Y0307400D01*
X0751026Y0307337D02*
X0750733Y0307630D01*
X0750733Y0311000D01*
X0746255Y0315479D01*
X0738369Y0315479D01*
X0738525Y0323000D02*
X0738369Y0323156D01*
X0738525Y0323000D02*
X0744933Y0323000D01*
X0744933Y0329753D01*
X0743913Y0330774D01*
X0743913Y0338875D01*
X0741628Y0341160D01*
X0753440Y0341160D02*
X0753933Y0341654D01*
X0753933Y0349000D01*
X0752781Y0350152D01*
X0750315Y0350152D01*
X0764032Y0345463D02*
X0764032Y0341899D01*
X0760933Y0338800D01*
X0760933Y0330800D01*
X0761933Y0329800D01*
X0761933Y0321200D01*
X0761333Y0320600D01*
X0757270Y0320600D01*
X0757267Y0320597D01*
X0757267Y0323156D02*
X0757533Y0323423D01*
X0757533Y0327200D01*
X0753960Y0330774D01*
X0751000Y0330774D01*
X0751226Y0331000D01*
X0749933Y0323200D02*
X0757223Y0323200D01*
X0757267Y0323156D01*
X0757267Y0315479D02*
X0752455Y0315479D01*
X0744933Y0323000D01*
X0764032Y0332701D02*
X0764032Y0335226D01*
X0764032Y0338299D01*
X0766733Y0340000D01*
X0771513Y0341621D02*
X0773333Y0339800D01*
X0773333Y0339600D01*
X0781133Y0331800D01*
X0786133Y0331800D01*
X0786133Y0327925D01*
X0786437Y0327622D01*
X0796480Y0327622D01*
X0796644Y0327457D01*
X0796644Y0338481D02*
X0796480Y0338645D01*
X0786437Y0338645D01*
X0786391Y0338600D01*
X0777333Y0338600D01*
X0775133Y0340800D01*
X0775133Y0347600D01*
X0773533Y0349200D01*
X0769733Y0349200D01*
X0767773Y0347239D01*
X0767773Y0345463D01*
X0771513Y0345463D02*
X0771513Y0341621D01*
X0764032Y0332701D02*
X0776133Y0320600D01*
X0806333Y0320600D01*
X0807933Y0322200D01*
X0815133Y0325000D02*
X0815133Y0362800D01*
X0823333Y0370000D02*
X0829809Y0376476D01*
X0829809Y0377124D01*
X0826133Y0380800D01*
X0829809Y0377124D02*
X0830630Y0377124D01*
X0834370Y0377124D02*
X0834370Y0352636D01*
X0829733Y0348000D01*
X0819533Y0347200D02*
X0833933Y0332800D01*
X0824133Y0323000D02*
X0823933Y0322800D01*
X0818733Y0322800D01*
X0807006Y0312881D02*
X0807006Y0306755D01*
X0807018Y0306743D01*
X0807018Y0300898D01*
X0807052Y0300864D01*
X0807884Y0291800D02*
X0810733Y0291800D01*
X0812133Y0290400D01*
X0812133Y0266200D01*
X0811038Y0265104D01*
X0808442Y0265104D01*
X0808012Y0271568D02*
X0807829Y0271751D01*
X0807829Y0281618D01*
X0800349Y0281618D02*
X0800349Y0278216D01*
X0795733Y0273600D01*
X0795733Y0272800D01*
X0816933Y0293400D02*
X0823133Y0293400D01*
X0824133Y0292400D01*
X0819533Y0347200D02*
X0819533Y0380200D01*
X0826695Y0387361D01*
X0830630Y0387361D01*
X0830630Y0395219D01*
X0830816Y0395405D01*
X0829128Y0395405D01*
X0827733Y0396800D01*
X0827733Y0401899D01*
X0828214Y0402379D01*
X0835533Y0395200D02*
X0837698Y0395200D01*
X0837903Y0395405D01*
X0840339Y0395405D01*
X0841333Y0396400D01*
X0841333Y0401494D01*
X0840428Y0402399D01*
X0835533Y0395200D02*
X0834370Y0394036D01*
X0834370Y0377124D01*
X0838110Y0377124D02*
X0864658Y0377124D01*
X0870333Y0382800D01*
X0870333Y0403665D01*
X0862440Y0411558D01*
X0862311Y0411430D01*
X0854281Y0411430D01*
X0863271Y0387361D02*
X0842733Y0387361D01*
X0842333Y0386961D01*
X0842333Y0382600D01*
X0842733Y0387361D02*
X0838110Y0387361D01*
X0838110Y0388377D01*
X0838733Y0389000D01*
X0863271Y0387361D02*
X0864276Y0386356D01*
X0790048Y0390759D02*
X0789933Y0390644D01*
X0789933Y0383800D01*
X0786733Y0380600D01*
X0786733Y0373200D01*
X0785333Y0371800D01*
X0776533Y0371800D01*
X0775133Y0373200D01*
X0775133Y0381400D01*
X0773133Y0383400D01*
X0767933Y0383400D01*
X0761186Y0390148D01*
X0742453Y0390148D01*
X0742453Y0392116D02*
X0770581Y0392116D01*
X0771938Y0390759D01*
X0774974Y0390759D01*
X0780133Y0385600D01*
X0780133Y0378510D01*
X0780691Y0377953D01*
X0767533Y0375400D02*
X0767533Y0366800D01*
X0765933Y0365200D01*
X0720608Y0365200D01*
X0708830Y0376978D01*
X0708830Y0383297D01*
X0721533Y0396000D01*
X0725589Y0396000D01*
X0725642Y0396053D01*
X0728786Y0396053D01*
X0730533Y0397800D01*
X0730533Y0403663D01*
X0730606Y0403736D01*
X0733933Y0406400D02*
X0731933Y0408400D01*
X0721933Y0408400D01*
X0718733Y0405200D01*
X0713333Y0402400D02*
X0713333Y0423200D01*
X0701925Y0421144D02*
X0701887Y0421181D01*
X0701925Y0421144D02*
X0701925Y0411509D01*
X0701962Y0411471D01*
X0701962Y0405200D01*
X0701962Y0401634D01*
X0701962Y0391571D01*
X0702133Y0391400D01*
X0713821Y0391400D01*
X0718733Y0396313D01*
X0718733Y0397000D01*
X0719733Y0398000D01*
X0725621Y0398000D01*
X0725642Y0398022D01*
X0725642Y0394085D02*
X0725558Y0394000D01*
X0722333Y0394000D01*
X0718333Y0390000D01*
X0718333Y0389000D01*
X0724426Y0382908D01*
X0724426Y0377156D01*
X0725382Y0376200D01*
X0742133Y0376200D01*
X0742800Y0376867D01*
X0742800Y0382519D01*
X0733852Y0384882D02*
X0733852Y0379761D01*
X0733852Y0384882D02*
X0728533Y0390200D01*
X0725695Y0390200D01*
X0725642Y0390148D01*
X0725642Y0392116D02*
X0729249Y0392116D01*
X0733933Y0396800D01*
X0733933Y0406400D01*
X0742453Y0414320D02*
X0742453Y0398022D01*
X0742453Y0396053D02*
X0744986Y0396053D01*
X0746333Y0397400D01*
X0746333Y0408200D01*
X0748133Y0410000D01*
X0752863Y0410000D01*
X0753477Y0410614D01*
X0753477Y0404945D02*
X0753332Y0404800D01*
X0749933Y0404800D01*
X0749133Y0404000D01*
X0749133Y0397200D01*
X0746018Y0394085D01*
X0742453Y0394085D01*
X0754388Y0382715D02*
X0754388Y0378545D01*
X0756733Y0376200D01*
X0766733Y0376200D01*
X0767533Y0375400D01*
X0763184Y0373313D02*
X0763184Y0372250D01*
X0761333Y0370400D01*
X0754893Y0370400D01*
X0754388Y0370904D01*
X0742800Y0370708D02*
X0741692Y0369600D01*
X0735133Y0369600D01*
X0733852Y0370882D01*
X0733852Y0372674D01*
X0716811Y0357474D02*
X0716685Y0357600D01*
X0709133Y0357600D01*
X0700563Y0366170D01*
X0685268Y0366170D01*
X0671258Y0344100D02*
X0671383Y0343600D01*
X0671258Y0344100D02*
X0670833Y0344100D01*
X0670233Y0339300D02*
X0670333Y0339200D01*
X0621883Y0336600D02*
X0621433Y0337400D01*
X0550833Y0412600D02*
X0550833Y0428386D01*
X0550876Y0428429D01*
X0533376Y0443107D02*
X0508533Y0442950D01*
X0508533Y0446312D01*
X0533376Y0443107D02*
X0540876Y0452929D01*
X0550876Y0453029D02*
X0550876Y0457443D01*
X0550533Y0459600D01*
X0544611Y0492388D02*
X0544611Y0496553D01*
X0555633Y0507575D01*
X0587043Y0507575D01*
X0588266Y0506978D01*
X0566553Y0512403D02*
X0563856Y0510100D01*
X0555383Y0510100D01*
X0541398Y0496115D01*
X0541398Y0491656D01*
X0538679Y0493935D02*
X0538679Y0496146D01*
X0555833Y0513300D01*
X0560532Y0513300D01*
X0563096Y0515864D01*
X0742453Y0414320D02*
X0750333Y0422200D01*
X0753356Y0422200D01*
X0753388Y0422232D01*
X0753388Y0416525D01*
X0753440Y0416473D01*
X0907933Y0509800D02*
X0912533Y0505200D01*
X0921933Y0505200D01*
X0924847Y0502287D01*
X0928116Y0502287D01*
X0928116Y0509373D02*
X0927333Y0510156D01*
X0927333Y0512600D01*
X0926102Y0513832D01*
X0918000Y0513832D01*
X0907933Y0509800D02*
X0907933Y0527173D01*
X0917910Y0537149D01*
X0934540Y0512065D02*
X0944149Y0521674D01*
X0934540Y0512065D02*
X0934540Y0509447D01*
X0934466Y0509373D01*
X0928116Y0509373D01*
X0954618Y0479789D02*
X0957144Y0479789D01*
X0958333Y0478600D01*
X0958333Y0471353D01*
X0957109Y0470129D01*
X0966133Y0442200D02*
X0997733Y0442200D01*
X1002133Y0437800D01*
X1002133Y0426200D01*
X1000533Y0424600D01*
X0983533Y0424600D01*
X0972133Y0413200D01*
X0972133Y0406600D01*
X0985733Y0393000D01*
X1001333Y0393000D01*
X1005733Y0388600D01*
X1005733Y0355600D01*
X1001933Y0351800D01*
X0991171Y0351800D01*
X0991258Y0351887D01*
X0991456Y0352229D01*
X0991558Y0352611D01*
X0991558Y0358808D01*
X0984058Y0358808D01*
X0984058Y0359808D01*
X0991558Y0359808D01*
X0991558Y0366006D01*
X0991456Y0366387D01*
X0991258Y0366729D01*
X0990979Y0367009D01*
X0990637Y0367206D01*
X0990255Y0367308D01*
X0984058Y0367308D01*
X0984058Y0359808D01*
X0983058Y0359808D01*
X0983058Y0358808D01*
X0975558Y0358808D01*
X0975558Y0352611D01*
X0975660Y0352229D01*
X0975858Y0351887D01*
X0975945Y0351800D01*
X0965933Y0351800D01*
X0950133Y0359800D01*
X0950133Y0437200D01*
X0966133Y0442200D01*
X0965408Y0441973D02*
X0997960Y0441973D01*
X0998959Y0440975D02*
X0962213Y0440975D01*
X0959017Y0439976D02*
X0999957Y0439976D01*
X1000956Y0438978D02*
X0955822Y0438978D01*
X0952627Y0437979D02*
X1001954Y0437979D01*
X1002133Y0436981D02*
X0995308Y0436981D01*
X0995561Y0436852D02*
X0994856Y0437211D01*
X0994104Y0437455D01*
X0993323Y0437579D01*
X0989902Y0437579D01*
X0989902Y0433054D01*
X0988902Y0433054D01*
X0988902Y0432054D01*
X0980869Y0432054D01*
X0980976Y0431378D01*
X0981220Y0430625D01*
X0981579Y0429921D01*
X0982044Y0429281D01*
X0982604Y0428721D01*
X0983244Y0428256D01*
X0983948Y0427897D01*
X0984701Y0427653D01*
X0985482Y0427529D01*
X0988902Y0427529D01*
X0988902Y0432054D01*
X0989902Y0432054D01*
X0989902Y0427529D01*
X0993323Y0427529D01*
X0994104Y0427653D01*
X0994856Y0427897D01*
X0995561Y0428256D01*
X0996201Y0428721D01*
X0996760Y0429281D01*
X0997225Y0429921D01*
X0997584Y0430625D01*
X0997829Y0431378D01*
X0997936Y0432054D01*
X0989902Y0432054D01*
X0989902Y0433054D01*
X0997936Y0433054D01*
X0997829Y0433731D01*
X0997584Y0434483D01*
X0997225Y0435188D01*
X0996760Y0435828D01*
X0996201Y0436387D01*
X0995561Y0436852D01*
X0996606Y0435982D02*
X1002133Y0435982D01*
X1002133Y0434984D02*
X0997329Y0434984D01*
X0997746Y0433985D02*
X1002133Y0433985D01*
X1002133Y0432987D02*
X0989902Y0432987D01*
X0989902Y0433985D02*
X0988902Y0433985D01*
X0988902Y0433054D02*
X0988902Y0437579D01*
X0985482Y0437579D01*
X0984701Y0437455D01*
X0983948Y0437211D01*
X0983244Y0436852D01*
X0982604Y0436387D01*
X0982044Y0435828D01*
X0981579Y0435188D01*
X0981220Y0434483D01*
X0980976Y0433731D01*
X0980869Y0433054D01*
X0988902Y0433054D01*
X0988902Y0432987D02*
X0950133Y0432987D01*
X0950133Y0433985D02*
X0981059Y0433985D01*
X0981475Y0434984D02*
X0950133Y0434984D01*
X0950133Y0435982D02*
X0982199Y0435982D01*
X0983496Y0436981D02*
X0950133Y0436981D01*
X0950133Y0431988D02*
X0980879Y0431988D01*
X0981102Y0430990D02*
X0950133Y0430990D01*
X0950133Y0429991D02*
X0981543Y0429991D01*
X0982332Y0428993D02*
X0950133Y0428993D01*
X0950133Y0427994D02*
X0983758Y0427994D01*
X0982933Y0424000D02*
X0950133Y0424000D01*
X0950133Y0423002D02*
X0981935Y0423002D01*
X0980936Y0422003D02*
X0950133Y0422003D01*
X0950133Y0421005D02*
X0979938Y0421005D01*
X0978939Y0420006D02*
X0950133Y0420006D01*
X0950133Y0419008D02*
X0977941Y0419008D01*
X0976942Y0418009D02*
X0950133Y0418009D01*
X0950133Y0417010D02*
X0975944Y0417010D01*
X0974945Y0416012D02*
X0950133Y0416012D01*
X0950133Y0415013D02*
X0973947Y0415013D01*
X0972948Y0414015D02*
X0950133Y0414015D01*
X0950133Y0413016D02*
X0972133Y0413016D01*
X0972133Y0412018D02*
X0950133Y0412018D01*
X0950133Y0411019D02*
X0972133Y0411019D01*
X0972133Y0410021D02*
X0950133Y0410021D01*
X0950133Y0409022D02*
X0972133Y0409022D01*
X0972133Y0408024D02*
X0950133Y0408024D01*
X0950133Y0407025D02*
X0972133Y0407025D01*
X0972706Y0406027D02*
X0950133Y0406027D01*
X0950133Y0405028D02*
X0973705Y0405028D01*
X0974703Y0404030D02*
X0950133Y0404030D01*
X0950133Y0403031D02*
X0975702Y0403031D01*
X0976701Y0402033D02*
X0950133Y0402033D01*
X0950133Y0401034D02*
X0977699Y0401034D01*
X0978698Y0400036D02*
X0950133Y0400036D01*
X0950133Y0399037D02*
X0979696Y0399037D01*
X0980695Y0398039D02*
X0950133Y0398039D01*
X0950133Y0397040D02*
X0981693Y0397040D01*
X0982692Y0396042D02*
X0950133Y0396042D01*
X0950133Y0395043D02*
X0983690Y0395043D01*
X0984689Y0394045D02*
X0950133Y0394045D01*
X0950133Y0393046D02*
X0985687Y0393046D01*
X0984058Y0385808D02*
X0984058Y0378308D01*
X0991558Y0378308D01*
X0991558Y0384506D01*
X0991456Y0384887D01*
X0991258Y0385229D01*
X0990979Y0385509D01*
X0990637Y0385706D01*
X0990255Y0385808D01*
X0984058Y0385808D01*
X0984058Y0385058D02*
X0983058Y0385058D01*
X0983058Y0385808D02*
X0976860Y0385808D01*
X0976479Y0385706D01*
X0976137Y0385509D01*
X0975858Y0385229D01*
X0975660Y0384887D01*
X0975558Y0384506D01*
X0975558Y0378308D01*
X0983058Y0378308D01*
X0983058Y0377308D01*
X0984058Y0377308D01*
X0984058Y0378308D01*
X0983058Y0378308D01*
X0983058Y0385808D01*
X0983058Y0384060D02*
X0984058Y0384060D01*
X0984058Y0383061D02*
X0983058Y0383061D01*
X0983058Y0382063D02*
X0984058Y0382063D01*
X0984058Y0381064D02*
X0983058Y0381064D01*
X0983058Y0380066D02*
X0984058Y0380066D01*
X0984058Y0379067D02*
X0983058Y0379067D01*
X0983058Y0378069D02*
X0950133Y0378069D01*
X0950133Y0379067D02*
X0975558Y0379067D01*
X0975558Y0380066D02*
X0950133Y0380066D01*
X0950133Y0381064D02*
X0975558Y0381064D01*
X0975558Y0382063D02*
X0950133Y0382063D01*
X0950133Y0383061D02*
X0975558Y0383061D01*
X0975558Y0384060D02*
X0950133Y0384060D01*
X0950133Y0385058D02*
X0975759Y0385058D01*
X0975558Y0377308D02*
X0975558Y0371111D01*
X0975660Y0370729D01*
X0975858Y0370387D01*
X0976137Y0370108D01*
X0976479Y0369910D01*
X0976860Y0369808D01*
X0983058Y0369808D01*
X0983058Y0377308D01*
X0975558Y0377308D01*
X0975558Y0377070D02*
X0950133Y0377070D01*
X0950133Y0376072D02*
X0975558Y0376072D01*
X0975558Y0375073D02*
X0950133Y0375073D01*
X0950133Y0374074D02*
X0975558Y0374074D01*
X0975558Y0373076D02*
X0950133Y0373076D01*
X0950133Y0372077D02*
X0975558Y0372077D01*
X0975566Y0371079D02*
X0950133Y0371079D01*
X0950133Y0370080D02*
X0976184Y0370080D01*
X0976860Y0367308D02*
X0976479Y0367206D01*
X0976137Y0367009D01*
X0975858Y0366729D01*
X0975660Y0366387D01*
X0975558Y0366006D01*
X0975558Y0359808D01*
X0983058Y0359808D01*
X0983058Y0367308D01*
X0976860Y0367308D01*
X0976269Y0367085D02*
X0950133Y0367085D01*
X0950133Y0368083D02*
X1005733Y0368083D01*
X1005733Y0367085D02*
X0990847Y0367085D01*
X0991536Y0366086D02*
X1005733Y0366086D01*
X1005733Y0365088D02*
X0991558Y0365088D01*
X0991558Y0364089D02*
X1005733Y0364089D01*
X1005733Y0363091D02*
X0991558Y0363091D01*
X0991558Y0362092D02*
X1005733Y0362092D01*
X1005733Y0361094D02*
X0991558Y0361094D01*
X0991558Y0360095D02*
X1005733Y0360095D01*
X1005733Y0359097D02*
X0984058Y0359097D01*
X0984058Y0360095D02*
X0983058Y0360095D01*
X0983058Y0359097D02*
X0951522Y0359097D01*
X0950133Y0360095D02*
X0975558Y0360095D01*
X0975558Y0361094D02*
X0950133Y0361094D01*
X0950133Y0362092D02*
X0975558Y0362092D01*
X0975558Y0363091D02*
X0950133Y0363091D01*
X0950133Y0364089D02*
X0975558Y0364089D01*
X0975558Y0365088D02*
X0950133Y0365088D01*
X0950133Y0366086D02*
X0975579Y0366086D01*
X0983058Y0366086D02*
X0984058Y0366086D01*
X0984058Y0365088D02*
X0983058Y0365088D01*
X0983058Y0364089D02*
X0984058Y0364089D01*
X0984058Y0363091D02*
X0983058Y0363091D01*
X0983058Y0362092D02*
X0984058Y0362092D01*
X0984058Y0361094D02*
X0983058Y0361094D01*
X0983058Y0367085D02*
X0984058Y0367085D01*
X0984058Y0369808D02*
X0990255Y0369808D01*
X0990637Y0369910D01*
X0990979Y0370108D01*
X0991258Y0370387D01*
X0991456Y0370729D01*
X0991558Y0371111D01*
X0991558Y0377308D01*
X0984058Y0377308D01*
X0984058Y0369808D01*
X0984058Y0370080D02*
X0983058Y0370080D01*
X0983058Y0371079D02*
X0984058Y0371079D01*
X0984058Y0372077D02*
X0983058Y0372077D01*
X0983058Y0373076D02*
X0984058Y0373076D01*
X0984058Y0374074D02*
X0983058Y0374074D01*
X0983058Y0375073D02*
X0984058Y0375073D01*
X0984058Y0376072D02*
X0983058Y0376072D01*
X0983058Y0377070D02*
X0984058Y0377070D01*
X0984058Y0378069D02*
X1005733Y0378069D01*
X1005733Y0379067D02*
X0991558Y0379067D01*
X0991558Y0380066D02*
X1005733Y0380066D01*
X1005733Y0381064D02*
X0991558Y0381064D01*
X0991558Y0382063D02*
X1005733Y0382063D01*
X1005733Y0383061D02*
X0991558Y0383061D01*
X0991558Y0384060D02*
X1005733Y0384060D01*
X1005733Y0385058D02*
X0991357Y0385058D01*
X0991558Y0377070D02*
X1005733Y0377070D01*
X1005733Y0376072D02*
X0991558Y0376072D01*
X0991558Y0375073D02*
X1005733Y0375073D01*
X1005733Y0374074D02*
X0991558Y0374074D01*
X0991558Y0373076D02*
X1005733Y0373076D01*
X1005733Y0372077D02*
X0991558Y0372077D01*
X0991549Y0371079D02*
X1005733Y0371079D01*
X1005733Y0370080D02*
X0990931Y0370080D01*
X1005733Y0369082D02*
X0950133Y0369082D01*
X0953494Y0358098D02*
X0975558Y0358098D01*
X0975558Y0357100D02*
X0955466Y0357100D01*
X0957438Y0356101D02*
X0975558Y0356101D01*
X0975558Y0355103D02*
X0959410Y0355103D01*
X0961382Y0354104D02*
X0975558Y0354104D01*
X0975558Y0353106D02*
X0963354Y0353106D01*
X0965327Y0352107D02*
X0975730Y0352107D01*
X0991385Y0352107D02*
X1002241Y0352107D01*
X1003239Y0353106D02*
X0991558Y0353106D01*
X0991558Y0354104D02*
X1004238Y0354104D01*
X1005236Y0355103D02*
X0991558Y0355103D01*
X0991558Y0356101D02*
X1005733Y0356101D01*
X1005733Y0357100D02*
X0991558Y0357100D01*
X0991558Y0358098D02*
X1005733Y0358098D01*
X1005733Y0386057D02*
X0950133Y0386057D01*
X0950133Y0387055D02*
X1005733Y0387055D01*
X1005733Y0388054D02*
X0950133Y0388054D01*
X0950133Y0389052D02*
X1005281Y0389052D01*
X1004283Y0390051D02*
X0950133Y0390051D01*
X0950133Y0391049D02*
X1003284Y0391049D01*
X1002286Y0392048D02*
X0950133Y0392048D01*
X0950133Y0424999D02*
X1000932Y0424999D01*
X1001930Y0425997D02*
X0950133Y0425997D01*
X0950133Y0426996D02*
X1002133Y0426996D01*
X1002133Y0427994D02*
X0995046Y0427994D01*
X0996472Y0428993D02*
X1002133Y0428993D01*
X1002133Y0429991D02*
X0997261Y0429991D01*
X0997702Y0430990D02*
X1002133Y0430990D01*
X1002133Y0431988D02*
X0997925Y0431988D01*
X0989902Y0431988D02*
X0988902Y0431988D01*
X0988902Y0430990D02*
X0989902Y0430990D01*
X0989902Y0429991D02*
X0988902Y0429991D01*
X0988902Y0428993D02*
X0989902Y0428993D01*
X0989902Y0427994D02*
X0988902Y0427994D01*
X0988902Y0434984D02*
X0989902Y0434984D01*
X0989902Y0435982D02*
X0988902Y0435982D01*
X0988902Y0436981D02*
X0989902Y0436981D01*
X0824333Y0219000D02*
X0824133Y0219000D01*
X0823533Y0218400D01*
X0823802Y0218469D02*
X0824333Y0219000D01*
D51*
X0817933Y0214800D03*
X0830733Y0224600D03*
X0829933Y0230200D03*
X0813733Y0244000D03*
X0806933Y0244400D03*
X0808333Y0253200D03*
X0828533Y0247000D03*
X0834933Y0251200D03*
X0830733Y0267200D03*
X0828733Y0273800D03*
X0818933Y0273800D03*
X0819333Y0267200D03*
X0804133Y0287200D03*
X0795333Y0306600D03*
X0772133Y0319600D03*
X0758933Y0311400D03*
X0755533Y0307400D03*
X0763333Y0302200D03*
X0767133Y0294600D03*
X0766533Y0276000D03*
X0761133Y0261800D03*
X0753733Y0261600D03*
X0738533Y0264200D03*
X0731133Y0262200D03*
X0723533Y0262200D03*
X0723333Y0272400D03*
X0713133Y0253600D03*
X0718333Y0246400D03*
X0728933Y0245000D03*
X0739933Y0246800D03*
X0725533Y0233200D03*
X0735133Y0221800D03*
X0742533Y0221400D03*
X0744933Y0225800D03*
X0752533Y0226200D03*
X0759333Y0223200D03*
X0766933Y0218800D03*
X0750533Y0206600D03*
X0745733Y0201600D03*
X0716533Y0208800D03*
X0711133Y0205400D03*
X0705933Y0199000D03*
X0706533Y0188000D03*
X0699733Y0187600D03*
X0702333Y0174600D03*
X0702133Y0166800D03*
X0722333Y0174200D03*
X0755533Y0157200D03*
X0759333Y0152800D03*
X0754733Y0148000D03*
X0751133Y0152200D03*
X0751133Y0135400D03*
X0757933Y0136600D03*
X0774933Y0143600D03*
X0772933Y0148400D03*
X0779333Y0147000D03*
X0781133Y0137000D03*
X0791533Y0120600D03*
X0773333Y0115000D03*
X0782333Y0106200D03*
X0825333Y0105200D03*
X0862733Y0105800D03*
X0841533Y0135800D03*
X0863933Y0140600D03*
X0864133Y0160800D03*
X0863533Y0180800D03*
X0885333Y0196200D03*
X0889133Y0200800D03*
X0889133Y0190600D03*
X0866533Y0210800D03*
X0891133Y0220600D03*
X0897133Y0221200D03*
X0900133Y0230400D03*
X0911533Y0236800D03*
X0916133Y0245200D03*
X0927933Y0256000D03*
X0910933Y0267200D03*
X0916333Y0277200D03*
X0900133Y0262600D03*
X0898133Y0256000D03*
X0892733Y0267000D03*
X0864733Y0256400D03*
X0862933Y0250200D03*
X0890133Y0242800D03*
X0863133Y0229000D03*
X0838733Y0197000D03*
X0837933Y0174600D03*
X0785733Y0198400D03*
X0782333Y0190000D03*
X0707533Y0239400D03*
X0697333Y0228800D03*
X0691333Y0227600D03*
X0691133Y0222000D03*
X0684933Y0221800D03*
X0683133Y0230200D03*
X0677933Y0229000D03*
X0676133Y0224600D03*
X0672133Y0220000D03*
X0650333Y0203400D03*
X0634333Y0203600D03*
X0628133Y0193400D03*
X0628133Y0183200D03*
X0644133Y0175600D03*
X0653133Y0163400D03*
X0669133Y0158000D03*
X0678333Y0146200D03*
X0684133Y0143800D03*
X0677933Y0139000D03*
X0683733Y0135600D03*
X0691733Y0137400D03*
X0701933Y0137400D03*
X0695733Y0127400D03*
X0684533Y0127200D03*
X0684933Y0112800D03*
X0695733Y0100600D03*
X0695533Y0090000D03*
X0701733Y0082600D03*
X0720933Y0083400D03*
X0679733Y0100000D03*
X0645733Y0113200D03*
X0634333Y0113400D03*
X0618733Y0113600D03*
X0598133Y0128400D03*
X0595333Y0142200D03*
X0586533Y0147400D03*
X0581933Y0141200D03*
X0579133Y0158000D03*
X0589133Y0158200D03*
X0596933Y0156600D03*
X0644733Y0138800D03*
X0675533Y0193000D03*
X0681133Y0195400D03*
X0642133Y0218000D03*
X0643133Y0238400D03*
X0641933Y0258400D03*
X0682933Y0236200D03*
X0686933Y0239200D03*
X0686133Y0291600D03*
X0694933Y0298800D03*
X0686533Y0304000D03*
X0682333Y0321400D03*
X0673533Y0321400D03*
X0672933Y0329400D03*
X0672333Y0335000D03*
X0684733Y0331000D03*
X0694733Y0335000D03*
X0720933Y0322200D03*
X0730933Y0317400D03*
X0731933Y0325200D03*
X0749933Y0323200D03*
X0766733Y0340000D03*
X0759333Y0346800D03*
X0767733Y0356400D03*
X0779933Y0347400D03*
X0798933Y0360000D03*
X0815133Y0362800D03*
X0823333Y0370000D03*
X0826133Y0380800D03*
X0842333Y0382600D03*
X0829733Y0348000D03*
X0807533Y0327600D03*
X0807933Y0322200D03*
X0818733Y0322800D03*
X0773733Y0327400D03*
X0738133Y0350200D03*
X0727733Y0351400D03*
X0702333Y0385000D03*
X0709133Y0395200D03*
X0609333Y0392200D03*
X0581133Y0394000D03*
X0583933Y0337500D03*
X0583533Y0324400D03*
X0661533Y0310000D03*
X0552733Y0248600D03*
X0553733Y0238600D03*
X0526933Y0236800D03*
X0553933Y0218400D03*
X0556933Y0198400D03*
X0546533Y0193400D03*
X0539933Y0183000D03*
X0540133Y0173400D03*
X0553133Y0118400D03*
X0553733Y0108600D03*
X0769533Y0242600D03*
X0818533Y0137600D03*
X0951533Y0140600D03*
X0951533Y0160800D03*
X0952133Y0180600D03*
X0952133Y0190200D03*
X0968933Y0195400D03*
X0965733Y0205800D03*
X0972133Y0186000D03*
X1008733Y0201000D03*
X1008333Y0212600D03*
X0987533Y0261600D03*
X0978133Y0261200D03*
X0952133Y0270800D03*
X0950933Y0290600D03*
X0855733Y0031200D03*
D52*
X0883333Y0056600D02*
X0887959Y0051974D01*
X0888594Y0051974D01*
X0887933Y0055000D02*
X0920733Y0055000D01*
X0920533Y0047800D02*
X0906133Y0047800D01*
X0904179Y0045846D01*
X0904179Y0033665D01*
X0911982Y0033736D02*
X0911982Y0044260D01*
X0911982Y0051347D02*
X0896930Y0051347D01*
X0896533Y0051743D01*
X0897790Y0051743D01*
X0887933Y0055000D02*
X0884133Y0058800D01*
X0871333Y0058800D01*
X0854333Y0075800D01*
X0816733Y0075800D01*
X0815733Y0074800D01*
X0715933Y0074800D01*
X0705933Y0084800D01*
X0704933Y0084800D01*
X0701933Y0087800D01*
X0701933Y0093400D01*
X0698933Y0096400D01*
X0687933Y0096400D01*
X0684933Y0099400D01*
X0684933Y0112800D01*
X0682533Y0119800D02*
X0688533Y0119800D01*
X0691733Y0123000D01*
X0691733Y0128400D01*
X0693933Y0130600D01*
X0699333Y0130600D01*
X0699933Y0131200D01*
X0704133Y0131200D01*
X0712733Y0139800D01*
X0722133Y0139800D01*
X0723533Y0141200D01*
X0762933Y0141200D01*
X0764133Y0142400D01*
X0767133Y0142400D01*
X0769533Y0140000D01*
X0779533Y0140000D01*
X0782733Y0143200D01*
X0782733Y0149200D01*
X0760718Y0171215D01*
X0760718Y0185475D01*
X0758750Y0185475D02*
X0758750Y0167584D01*
X0779333Y0147000D01*
X0774933Y0143600D02*
X0774533Y0144000D01*
X0763733Y0144000D01*
X0750876Y0156858D01*
X0750876Y0185475D01*
X0750876Y0201658D01*
X0742533Y0210000D01*
X0735533Y0210000D01*
X0735533Y0214800D01*
X0736133Y0215400D01*
X0739133Y0217600D02*
X0739133Y0223200D01*
X0737533Y0224800D01*
X0733533Y0224800D01*
X0732533Y0223800D01*
X0728298Y0223800D01*
X0728238Y0223860D01*
X0727698Y0224400D01*
X0714133Y0224400D01*
X0706210Y0219923D02*
X0697333Y0228800D01*
X0691333Y0227600D02*
X0700978Y0217955D01*
X0728238Y0217955D01*
X0728238Y0219923D02*
X0706210Y0219923D01*
X0708783Y0212049D02*
X0705933Y0209200D01*
X0708783Y0212049D02*
X0728238Y0212049D01*
X0688783Y0212049D01*
X0687733Y0211000D01*
X0687733Y0208188D01*
X0687529Y0207984D01*
X0694149Y0206240D02*
X0698181Y0202207D01*
X0728238Y0202207D01*
X0728245Y0202200D01*
X0733133Y0202200D01*
X0733733Y0202800D01*
X0733733Y0210000D01*
X0728319Y0210000D01*
X0728238Y0210081D01*
X0728238Y0208112D02*
X0722421Y0208112D01*
X0721333Y0209200D01*
X0719189Y0206144D02*
X0716533Y0208800D01*
X0719189Y0206144D02*
X0728238Y0206144D01*
X0728238Y0204175D02*
X0712358Y0204175D01*
X0711133Y0205400D01*
X0718333Y0194400D02*
X0682133Y0194400D01*
X0681133Y0195400D01*
X0676133Y0192400D02*
X0675533Y0193000D01*
X0676133Y0192400D02*
X0719533Y0192400D01*
X0723435Y0196301D01*
X0728238Y0196301D01*
X0728238Y0194333D02*
X0727333Y0193428D01*
X0727333Y0192200D01*
X0714733Y0179600D01*
X0714733Y0167800D01*
X0706533Y0171200D02*
X0702133Y0166800D01*
X0706533Y0171200D02*
X0706533Y0188000D01*
X0702333Y0185000D02*
X0699733Y0187600D01*
X0702333Y0185000D02*
X0702333Y0174600D01*
X0695333Y0179800D02*
X0695333Y0182800D01*
X0695133Y0183000D01*
X0695333Y0179800D02*
X0683333Y0167800D01*
X0682533Y0167800D01*
X0683333Y0168600D01*
X0666533Y0172000D02*
X0612333Y0172000D01*
X0596933Y0156600D01*
X0599733Y0163800D02*
X0590133Y0173400D01*
X0556133Y0173400D01*
X0552933Y0176600D01*
X0549933Y0176600D01*
X0549933Y0200600D01*
X0548533Y0202000D01*
X0530933Y0202000D01*
X0529780Y0200847D01*
X0520565Y0200847D01*
X0521933Y0205800D02*
X0529333Y0205800D01*
X0530733Y0204400D01*
X0564133Y0204400D01*
X0565133Y0203400D01*
X0589133Y0203400D01*
X0617933Y0174600D01*
X0641933Y0174600D01*
X0642933Y0175600D01*
X0644133Y0175600D01*
X0643533Y0188200D02*
X0643698Y0188365D01*
X0656404Y0188365D01*
X0656404Y0198365D02*
X0656333Y0198435D01*
X0656333Y0201600D01*
X0655733Y0202200D01*
X0651333Y0202200D01*
X0650333Y0203200D01*
X0650333Y0203400D01*
X0634333Y0203600D02*
X0634333Y0198800D01*
X0633733Y0198200D01*
X0628468Y0198200D01*
X0628304Y0198365D01*
X0628133Y0193400D02*
X0628133Y0188535D01*
X0628304Y0188365D01*
X0628133Y0183200D02*
X0628133Y0178535D01*
X0628304Y0178365D01*
X0639533Y0159200D02*
X0639533Y0159000D01*
X0643533Y0155000D01*
X0735533Y0155000D01*
X0743002Y0162468D01*
X0743002Y0185475D01*
X0741133Y0185374D02*
X0741033Y0185475D01*
X0741133Y0185374D02*
X0741133Y0178600D01*
X0739533Y0177000D01*
X0736933Y0177000D01*
X0722933Y0163000D01*
X0662933Y0163000D01*
X0656333Y0162600D02*
X0656333Y0158435D01*
X0656404Y0158365D01*
X0656768Y0158000D01*
X0669133Y0158000D01*
X0656333Y0162600D02*
X0655933Y0163000D01*
X0653133Y0163400D01*
X0678333Y0146200D02*
X0679933Y0147800D01*
X0738533Y0147800D01*
X0748907Y0158174D01*
X0748907Y0185475D01*
X0744970Y0185475D02*
X0744970Y0161237D01*
X0736133Y0152400D01*
X0629933Y0152400D01*
X0628933Y0151400D01*
X0615333Y0142400D02*
X0680133Y0142400D01*
X0682333Y0140200D01*
X0684133Y0140200D01*
X0687333Y0137000D01*
X0687333Y0134400D01*
X0685133Y0132200D01*
X0680533Y0132200D01*
X0678133Y0129800D01*
X0678133Y0127000D01*
X0680733Y0124400D01*
X0680733Y0121600D01*
X0682533Y0119800D01*
X0678333Y0124000D02*
X0678333Y0106800D01*
X0683333Y0101800D01*
X0683333Y0097800D01*
X0687733Y0093400D01*
X0698333Y0093400D01*
X0699133Y0092600D01*
X0699133Y0085200D01*
X0701733Y0082600D01*
X0695533Y0090000D02*
X0695533Y0068200D01*
X0696333Y0067400D01*
X0856733Y0067400D01*
X0867533Y0056600D01*
X0883333Y0056600D01*
X0911982Y0033736D02*
X0912053Y0033665D01*
X0878053Y0110771D02*
X0878053Y0111720D01*
X0878133Y0111800D01*
X0891933Y0125800D02*
X0893533Y0127400D01*
X0893533Y0185400D01*
X0895733Y0187600D01*
X0895733Y0205600D01*
X0906133Y0216000D01*
X0928933Y0216000D01*
X0929133Y0216200D01*
X0961312Y0216200D01*
X0965747Y0220635D01*
X0965747Y0210635D02*
X0965733Y0210621D01*
X0965733Y0205800D01*
X0965747Y0200635D02*
X0968933Y0197449D01*
X0968933Y0195400D01*
X0965747Y0190635D02*
X0970383Y0186000D01*
X0972133Y0186000D01*
X0982333Y0199400D02*
X0982333Y0243400D01*
X0980933Y0244800D01*
X0924333Y0244800D01*
X0913133Y0256000D01*
X0898133Y0256000D01*
X0894533Y0253400D02*
X0894533Y0263600D01*
X0895533Y0263600D01*
X0896933Y0265000D01*
X0896933Y0274200D01*
X0895733Y0275400D01*
X0840733Y0275400D01*
X0832333Y0267200D02*
X0867133Y0267200D01*
X0868133Y0266200D01*
X0868133Y0241800D01*
X0869133Y0240800D01*
X0878024Y0240800D01*
X0878053Y0240771D01*
X0878224Y0250600D02*
X0878053Y0250771D01*
X0878224Y0250600D02*
X0889133Y0250600D01*
X0890133Y0249600D01*
X0890133Y0242800D01*
X0893933Y0240200D02*
X0888533Y0234800D01*
X0887533Y0234800D01*
X0893933Y0240200D02*
X0893933Y0250800D01*
X0891333Y0253400D01*
X0891333Y0265600D01*
X0892733Y0267000D01*
X0900133Y0262600D02*
X0912333Y0262600D01*
X0927933Y0247000D01*
X0985533Y0247000D01*
X0987733Y0244800D01*
X0987733Y0218000D01*
X0988875Y0216858D01*
X0996142Y0216858D01*
X0965747Y0240635D02*
X0965712Y0240600D01*
X0953133Y0240600D01*
X0949733Y0237200D01*
X0928733Y0237200D01*
X0916333Y0249600D01*
X0898333Y0249600D01*
X0894533Y0253400D01*
X0912133Y0245400D02*
X0915933Y0245400D01*
X0916133Y0245200D01*
X0912133Y0245400D02*
X0900133Y0233400D01*
X0900133Y0230400D01*
X0903133Y0227000D02*
X0902733Y0226600D01*
X0865533Y0226600D01*
X0863133Y0229000D01*
X0864933Y0234400D02*
X0868733Y0230600D01*
X0877882Y0230600D01*
X0878053Y0230771D01*
X0865933Y0236800D02*
X0837933Y0236800D01*
X0837333Y0237400D01*
X0832733Y0234400D02*
X0864933Y0234400D01*
X0862933Y0250200D02*
X0850524Y0250200D01*
X0849953Y0250771D01*
X0849524Y0251200D01*
X0834933Y0251200D01*
X0830533Y0256400D02*
X0825533Y0251400D01*
X0825533Y0234600D01*
X0829933Y0230200D01*
X0832733Y0234400D02*
X0831133Y0236000D01*
X0831133Y0245400D01*
X0829333Y0247200D01*
X0828733Y0247200D01*
X0828533Y0247000D01*
X0822533Y0248400D02*
X0805533Y0248400D01*
X0803733Y0246600D01*
X0803733Y0241400D01*
X0805549Y0239584D01*
X0805549Y0236679D01*
X0805470Y0236600D01*
X0802933Y0236600D01*
X0784288Y0217955D01*
X0775482Y0217955D01*
X0775437Y0218000D01*
X0770733Y0218000D01*
X0769733Y0217000D01*
X0769733Y0215800D01*
X0769333Y0215400D01*
X0762933Y0215400D01*
X0758133Y0210600D01*
X0754733Y0210600D01*
X0754133Y0211200D01*
X0754133Y0212600D01*
X0750333Y0216400D01*
X0750333Y0221200D01*
X0748933Y0222600D01*
X0748933Y0224948D01*
X0748907Y0224974D01*
X0748907Y0232719D01*
X0748907Y0245974D01*
X0749733Y0246800D01*
X0749733Y0250000D01*
X0753642Y0250000D01*
X0753730Y0249912D01*
X0756781Y0245136D02*
X0761723Y0250078D01*
X0761723Y0251210D01*
X0759333Y0253600D01*
X0743333Y0253600D01*
X0741333Y0255600D01*
X0735733Y0255600D01*
X0733533Y0253400D01*
X0726533Y0253400D01*
X0725779Y0252645D01*
X0725779Y0252600D01*
X0723309Y0250131D01*
X0723333Y0250107D01*
X0723333Y0246200D01*
X0736815Y0232719D01*
X0737096Y0232719D01*
X0737133Y0232682D01*
X0737133Y0228200D01*
X0740533Y0224800D01*
X0741333Y0224800D01*
X0742533Y0223600D01*
X0742533Y0221400D01*
X0739133Y0217600D02*
X0750533Y0206600D01*
X0750333Y0207252D01*
X0750333Y0216400D01*
X0756533Y0215000D02*
X0758333Y0215000D01*
X0766733Y0223400D01*
X0766733Y0232609D01*
X0766624Y0232719D01*
X0760718Y0232719D02*
X0760718Y0238985D01*
X0760733Y0239200D01*
X0758750Y0232719D02*
X0758750Y0227216D01*
X0758733Y0227200D01*
X0753533Y0227200D01*
X0752533Y0226200D01*
X0756781Y0232719D02*
X0756781Y0245136D01*
X0746939Y0248651D02*
X0745539Y0250051D01*
X0746939Y0248651D02*
X0746939Y0232719D01*
X0743002Y0232719D02*
X0743002Y0237732D01*
X0736133Y0244800D01*
X0736133Y0249000D01*
X0738533Y0249000D01*
X0738733Y0249979D01*
X0738733Y0248000D01*
X0739933Y0246800D01*
X0738733Y0249979D02*
X0738595Y0252041D01*
X0738595Y0259128D02*
X0738595Y0262862D01*
X0738533Y0264200D01*
X0731133Y0262200D02*
X0731133Y0261400D01*
X0731177Y0261356D01*
X0731177Y0257114D01*
X0731177Y0250027D02*
X0731133Y0249984D01*
X0731133Y0247200D01*
X0728933Y0245000D01*
X0731133Y0246800D02*
X0731533Y0246800D01*
X0741033Y0237300D01*
X0741033Y0232719D01*
X0730333Y0236000D02*
X0730333Y0228800D01*
X0728133Y0226600D01*
X0728133Y0223965D01*
X0728238Y0223860D01*
X0728238Y0215986D02*
X0697147Y0215986D01*
X0691133Y0222000D01*
X0684933Y0221800D02*
X0692715Y0214018D01*
X0728238Y0214018D01*
X0733733Y0210000D02*
X0735533Y0210000D01*
X0738333Y0200200D02*
X0728276Y0200200D01*
X0728238Y0200238D01*
X0728238Y0198270D02*
X0722203Y0198270D01*
X0718333Y0194400D01*
X0738333Y0200200D02*
X0743933Y0194600D01*
X0747533Y0193200D02*
X0745133Y0190800D01*
X0739133Y0190800D01*
X0747533Y0193200D02*
X0747533Y0196400D01*
X0745533Y0198400D01*
X0745533Y0201600D01*
X0745733Y0201600D01*
X0762333Y0202800D02*
X0762333Y0191600D01*
X0766333Y0191600D01*
X0766533Y0191400D01*
X0766533Y0185565D01*
X0766624Y0185475D01*
X0764655Y0185475D02*
X0764655Y0180478D01*
X0768533Y0176600D01*
X0789933Y0176600D01*
X0789733Y0170400D02*
X0798933Y0179600D01*
X0798933Y0180000D01*
X0773733Y0180000D01*
X0770733Y0183000D01*
X0770733Y0189200D01*
X0768533Y0191400D01*
X0768533Y0212200D01*
X0770333Y0214000D01*
X0775464Y0214000D01*
X0775482Y0214018D01*
X0787951Y0214018D01*
X0802333Y0228400D01*
X0805425Y0228400D01*
X0805694Y0228669D01*
X0807933Y0233000D02*
X0809333Y0234400D01*
X0809333Y0239400D01*
X0806933Y0241800D01*
X0806933Y0244400D01*
X0812636Y0241897D02*
X0812636Y0236679D01*
X0812636Y0241897D02*
X0813733Y0244000D01*
X0808333Y0253200D02*
X0809133Y0254000D01*
X0816533Y0254000D01*
X0816533Y0260600D01*
X0819333Y0263400D01*
X0819333Y0267200D01*
X0814533Y0265400D02*
X0814533Y0269400D01*
X0818933Y0273800D01*
X0814533Y0265400D02*
X0808133Y0259000D01*
X0790333Y0259000D01*
X0781825Y0250492D01*
X0781825Y0221892D01*
X0785120Y0215986D02*
X0775482Y0215986D01*
X0785120Y0215986D02*
X0802133Y0233000D01*
X0807933Y0233000D01*
X0799133Y0243800D02*
X0788533Y0233200D01*
X0788533Y0226200D01*
X0789652Y0210081D02*
X0785852Y0210081D01*
X0789652Y0210081D02*
X0790933Y0209000D01*
X0798533Y0202200D02*
X0799933Y0202200D01*
X0801533Y0203800D01*
X0805618Y0203800D01*
X0805634Y0203784D01*
X0809133Y0200600D02*
X0809133Y0199400D01*
X0807933Y0198200D01*
X0807933Y0192600D01*
X0808733Y0191800D01*
X0811733Y0191800D01*
X0813133Y0190400D01*
X0813133Y0188468D01*
X0813438Y0188163D01*
X0809333Y0184200D02*
X0805733Y0188200D01*
X0805733Y0194800D01*
X0803733Y0196800D01*
X0803733Y0198400D01*
X0803133Y0199000D01*
X0798533Y0199000D01*
X0793333Y0193800D01*
X0793333Y0191200D01*
X0791133Y0194800D02*
X0782333Y0194800D01*
X0781133Y0196000D01*
X0781133Y0199800D01*
X0780695Y0200238D01*
X0775482Y0200238D01*
X0775444Y0200200D01*
X0770933Y0200200D01*
X0770333Y0199600D01*
X0770333Y0192400D01*
X0770533Y0192400D01*
X0774533Y0188400D01*
X0778333Y0191482D02*
X0775482Y0194333D01*
X0775349Y0194200D01*
X0778333Y0191482D02*
X0778333Y0184000D01*
X0780133Y0182200D01*
X0801733Y0182200D01*
X0802933Y0181000D01*
X0802933Y0180000D01*
X0791733Y0168800D01*
X0791733Y0159800D01*
X0790133Y0158200D01*
X0787133Y0158200D01*
X0784733Y0155800D01*
X0784733Y0153800D01*
X0786533Y0152000D01*
X0786533Y0116000D01*
X0779733Y0109200D01*
X0772133Y0109200D01*
X0772133Y0103000D01*
X0782333Y0106200D02*
X0782333Y0084600D01*
X0780733Y0083000D01*
X0721333Y0083000D01*
X0695733Y0100600D02*
X0695733Y0127400D01*
X0697533Y0133400D02*
X0690733Y0133400D01*
X0684533Y0127200D01*
X0678333Y0124000D02*
X0670533Y0131800D01*
X0611133Y0131800D01*
X0577933Y0165000D01*
X0558533Y0165000D01*
X0552133Y0171400D01*
X0544333Y0171400D01*
X0541185Y0168251D01*
X0539882Y0168251D01*
X0539882Y0168441D01*
X0540133Y0173400D02*
X0540133Y0178189D01*
X0539882Y0178441D01*
X0539933Y0183000D02*
X0539933Y0188389D01*
X0539882Y0188441D01*
X0546533Y0193400D02*
X0546533Y0197600D01*
X0545933Y0198200D01*
X0540123Y0198200D01*
X0539882Y0198441D01*
X0556933Y0198400D02*
X0567941Y0198400D01*
X0567982Y0198441D01*
X0567982Y0188441D02*
X0581693Y0188441D01*
X0581933Y0188200D01*
X0567533Y0162000D02*
X0567933Y0161600D01*
X0567933Y0158489D01*
X0567982Y0158441D01*
X0568423Y0158000D01*
X0579133Y0158000D01*
X0585533Y0154200D02*
X0544123Y0154200D01*
X0539882Y0158441D01*
X0531133Y0162000D02*
X0529826Y0160693D01*
X0520768Y0160693D01*
X0520768Y0170693D02*
X0520661Y0170800D01*
X0527333Y0170800D01*
X0529333Y0172800D01*
X0529333Y0184200D01*
X0522133Y0191400D01*
X0516533Y0191400D01*
X0511133Y0196800D01*
X0511133Y0219000D01*
X0513333Y0221200D01*
X0520211Y0221200D01*
X0520565Y0220847D01*
X0520565Y0230847D02*
X0521180Y0230847D01*
X0526933Y0236800D01*
X0520565Y0210847D02*
X0520565Y0207169D01*
X0521933Y0205800D01*
X0520768Y0180693D02*
X0506426Y0180693D01*
X0499133Y0173400D01*
X0499133Y0146800D01*
X0502733Y0143200D01*
X0522133Y0143200D01*
X0523333Y0142000D01*
X0551933Y0142000D01*
X0555533Y0138400D01*
X0569533Y0138400D01*
X0570133Y0137800D01*
X0568623Y0137800D01*
X0567982Y0138441D01*
X0570133Y0137800D02*
X0578333Y0137800D01*
X0592133Y0124000D01*
X0637333Y0124000D01*
X0639733Y0126400D01*
X0644733Y0126400D01*
X0647733Y0123400D01*
X0665733Y0123400D01*
X0667933Y0121200D01*
X0667933Y0105000D01*
X0672933Y0100000D01*
X0679733Y0100000D01*
X0680933Y0090000D02*
X0675677Y0090000D01*
X0680933Y0090000D02*
X0680933Y0082000D01*
X0677733Y0078800D01*
X0648333Y0078800D01*
X0645133Y0082000D01*
X0636933Y0082000D02*
X0628333Y0091600D01*
X0625833Y0094500D01*
X0529833Y0094500D01*
X0519733Y0107100D01*
X0519733Y0127000D01*
X0508333Y0138400D01*
X0520768Y0149565D02*
X0525733Y0144600D01*
X0554533Y0144600D01*
X0556933Y0142200D01*
X0580933Y0142200D01*
X0581933Y0141200D01*
X0584133Y0145000D02*
X0586533Y0147400D01*
X0584133Y0145000D02*
X0557733Y0145000D01*
X0554733Y0148000D01*
X0542533Y0148000D01*
X0542093Y0148441D01*
X0539882Y0148441D01*
X0531133Y0162000D02*
X0567533Y0162000D01*
X0585533Y0154200D02*
X0588133Y0151600D01*
X0588533Y0151000D01*
X0595333Y0144200D01*
X0595333Y0142200D01*
X0605533Y0150000D02*
X0607733Y0150000D01*
X0615333Y0142400D01*
X0616498Y0138365D02*
X0616333Y0138200D01*
X0616498Y0138365D02*
X0628304Y0138365D01*
X0628304Y0128365D02*
X0613168Y0128365D01*
X0613133Y0128400D01*
X0613333Y0134000D02*
X0682133Y0134000D01*
X0683733Y0135600D01*
X0677933Y0139000D02*
X0657039Y0139000D01*
X0656404Y0138365D01*
X0656404Y0128365D02*
X0665568Y0128365D01*
X0667333Y0127400D01*
X0656404Y0118365D02*
X0656404Y0113470D01*
X0656333Y0113400D01*
X0691733Y0137400D02*
X0698733Y0144400D01*
X0741533Y0144400D01*
X0745133Y0148000D01*
X0754733Y0148000D01*
X0751133Y0152200D02*
X0745333Y0152200D01*
X0739133Y0146000D01*
X0685133Y0146000D01*
X0684133Y0143800D01*
X0697533Y0133400D02*
X0701533Y0137400D01*
X0701933Y0137400D01*
X0714733Y0158800D02*
X0714533Y0159000D01*
X0714733Y0158800D02*
X0723533Y0158800D01*
X0728133Y0163400D01*
X0738533Y0163400D01*
X0752844Y0161089D02*
X0755533Y0157200D01*
X0759333Y0159000D02*
X0754813Y0163521D01*
X0754813Y0185475D01*
X0752844Y0185475D02*
X0752844Y0161089D01*
X0759333Y0159000D02*
X0759333Y0152800D01*
X0755533Y0139000D02*
X0757933Y0136600D01*
X0755533Y0139000D02*
X0748933Y0139000D01*
X0748533Y0138600D01*
X0748333Y0138600D01*
X0748133Y0138400D01*
X0766733Y0133400D02*
X0766764Y0133369D01*
X0766764Y0128250D01*
X0773333Y0115400D02*
X0784533Y0126600D01*
X0784533Y0150600D01*
X0762733Y0172400D01*
X0762733Y0185428D01*
X0762687Y0185475D01*
X0768733Y0171800D02*
X0785533Y0171800D01*
X0789733Y0170400D02*
X0789733Y0161000D01*
X0789133Y0160400D01*
X0786333Y0160400D01*
X0784133Y0158200D01*
X0782533Y0158200D01*
X0788933Y0154800D02*
X0789733Y0154800D01*
X0793733Y0158800D01*
X0793733Y0167600D01*
X0805133Y0179000D01*
X0805133Y0182400D01*
X0801933Y0185600D01*
X0788733Y0185600D01*
X0791133Y0194800D02*
X0798533Y0202200D01*
X0829533Y0206000D02*
X0831333Y0207800D01*
X0829533Y0206000D02*
X0829533Y0153800D01*
X0837133Y0164400D02*
X0837133Y0167200D01*
X0832333Y0172000D01*
X0832333Y0196400D01*
X0840333Y0204400D01*
X0885933Y0204400D01*
X0889333Y0207800D01*
X0889333Y0218800D01*
X0891133Y0220600D01*
X0892733Y0216800D02*
X0892733Y0188800D01*
X0890533Y0186600D01*
X0841133Y0186600D01*
X0837933Y0183400D01*
X0837933Y0174600D01*
X0819733Y0171800D02*
X0801933Y0171800D01*
X0796933Y0164400D02*
X0819333Y0164400D01*
X0786533Y0164400D02*
X0786333Y0164600D01*
X0774733Y0164600D01*
X0838733Y0197000D02*
X0842504Y0200771D01*
X0849953Y0200771D01*
X0849933Y0190790D02*
X0862924Y0190790D01*
X0868133Y0196000D01*
X0885133Y0196000D01*
X0885333Y0196200D01*
X0889133Y0200800D02*
X0878082Y0200800D01*
X0878053Y0200771D01*
X0878053Y0210771D02*
X0878024Y0210800D01*
X0866533Y0210800D01*
X0892733Y0216800D02*
X0897133Y0221200D01*
X0903133Y0227000D02*
X0911733Y0227000D01*
X0928733Y0216200D02*
X0929133Y0216200D01*
X0937647Y0200635D02*
X0950498Y0200635D01*
X0950533Y0200600D01*
X0952133Y0190200D02*
X0938083Y0190200D01*
X0937647Y0190635D01*
X0889133Y0190600D02*
X0878224Y0190600D01*
X0878053Y0190771D01*
X0849953Y0190771D02*
X0849933Y0190790D01*
X0841533Y0135800D02*
X0841533Y0135600D01*
X0839933Y0134000D01*
X0839933Y0127000D01*
X0841133Y0125800D01*
X0891933Y0125800D01*
X0830333Y0115200D02*
X0830072Y0115462D01*
X0830072Y0116509D01*
X0773333Y0115400D02*
X0773333Y0115000D01*
X0672133Y0220000D02*
X0672133Y0290400D01*
X0672033Y0290400D01*
X0655833Y0306600D01*
X0655833Y0320975D01*
X0648333Y0328475D01*
X0601458Y0328475D01*
X0594583Y0321600D01*
X0588733Y0321600D01*
X0581933Y0314800D01*
X0506533Y0314800D01*
X0505533Y0315800D01*
X0505533Y0375600D01*
X0511933Y0382000D01*
X0511933Y0401600D01*
X0520133Y0409800D01*
X0520133Y0428300D01*
X0526733Y0434900D01*
X0551433Y0434900D01*
X0554033Y0432300D01*
X0554033Y0420946D01*
X0554161Y0420818D01*
X0540246Y0404837D02*
X0540209Y0404800D01*
X0536533Y0404800D01*
X0530533Y0398800D01*
X0530533Y0368800D01*
X0531333Y0368000D01*
X0574533Y0368000D01*
X0576533Y0366000D01*
X0576533Y0357200D01*
X0573009Y0353676D01*
X0569657Y0353676D01*
X0569657Y0341676D01*
X0570933Y0340400D01*
X0579633Y0340400D01*
X0580033Y0340800D01*
X0581733Y0345200D02*
X0578533Y0348400D01*
X0578533Y0366800D01*
X0575733Y0369600D01*
X0540133Y0369600D01*
X0538108Y0371625D01*
X0538108Y0377545D01*
X0550924Y0377602D02*
X0573732Y0377602D01*
X0582333Y0369000D01*
X0582333Y0351650D01*
X0583133Y0350850D01*
X0590533Y0341300D02*
X0592333Y0341300D01*
X0594333Y0344300D01*
X0611033Y0344300D01*
X0614583Y0347850D01*
X0662083Y0347850D01*
X0667933Y0342000D01*
X0668558Y0340550D01*
X0670233Y0339300D01*
X0669583Y0335350D02*
X0665833Y0339100D01*
X0665833Y0340350D01*
X0660833Y0345350D01*
X0617083Y0345350D01*
X0613333Y0341600D01*
X0595833Y0341600D01*
X0591733Y0337500D01*
X0588933Y0337500D01*
X0587733Y0338700D01*
X0587733Y0387400D01*
X0581133Y0394000D01*
X0609333Y0392200D02*
X0660333Y0392200D01*
X0672333Y0404200D01*
X0700962Y0404200D01*
X0701962Y0405200D01*
X0712933Y0401581D02*
X0712933Y0396400D01*
X0711733Y0395200D01*
X0709133Y0395200D01*
X0712933Y0401581D02*
X0712986Y0401634D01*
X0698733Y0388600D02*
X0702333Y0385000D01*
X0698733Y0388600D02*
X0679733Y0388600D01*
X0677533Y0386400D01*
X0676733Y0385600D01*
X0674733Y0383600D01*
X0674733Y0342800D01*
X0676733Y0340800D01*
X0676733Y0230200D01*
X0677933Y0229000D01*
X0674333Y0227000D02*
X0674333Y0292000D01*
X0658333Y0308000D01*
X0658333Y0321600D01*
X0649583Y0330350D01*
X0600208Y0330350D01*
X0595208Y0325350D01*
X0589583Y0325350D01*
X0584233Y0320000D01*
X0582333Y0320000D01*
X0579133Y0316800D01*
X0507933Y0316800D01*
X0507933Y0351600D01*
X0518933Y0362600D01*
X0569182Y0362600D01*
X0570022Y0361760D01*
X0569657Y0353676D02*
X0550179Y0353676D01*
X0551138Y0342597D02*
X0551138Y0338473D01*
X0551139Y0338472D01*
X0542533Y0334000D02*
X0539070Y0330537D01*
X0539070Y0326494D01*
X0551139Y0326661D02*
X0551279Y0326800D01*
X0557533Y0326800D01*
X0559733Y0329000D01*
X0591358Y0329000D01*
X0593333Y0330975D01*
X0595208Y0330975D01*
X0598333Y0334100D01*
X0653333Y0334100D01*
X0665833Y0321600D01*
X0665833Y0314100D01*
X0673333Y0306600D01*
X0673333Y0304200D01*
X0672933Y0303800D01*
X0672933Y0305600D01*
X0673333Y0312800D02*
X0673333Y0314100D01*
X0668333Y0319100D01*
X0668333Y0324100D01*
X0655833Y0336600D01*
X0621883Y0336600D01*
X0619583Y0340350D02*
X0657083Y0340350D01*
X0664583Y0332850D01*
X0664533Y0330400D01*
X0673533Y0321400D01*
X0682333Y0321400D02*
X0691733Y0321400D01*
X0691733Y0313000D01*
X0697133Y0307600D01*
X0712933Y0307600D01*
X0719333Y0314000D01*
X0719333Y0320200D01*
X0719133Y0320400D01*
X0720933Y0322200D01*
X0728933Y0320400D02*
X0738172Y0320400D01*
X0738369Y0320597D01*
X0738369Y0318038D02*
X0738331Y0318000D01*
X0734133Y0318000D01*
X0733533Y0317400D01*
X0730933Y0317400D01*
X0728933Y0320400D02*
X0714533Y0306000D01*
X0688733Y0306000D01*
X0686733Y0304000D01*
X0686533Y0304000D01*
X0691133Y0303000D02*
X0755733Y0303000D01*
X0766333Y0313600D01*
X0766333Y0316000D01*
X0764133Y0318200D01*
X0757429Y0318200D01*
X0757267Y0318038D01*
X0757267Y0315479D02*
X0757133Y0315345D01*
X0757133Y0313200D01*
X0758933Y0311400D01*
X0763333Y0302200D02*
X0759533Y0298400D01*
X0747933Y0298400D01*
X0747333Y0297800D01*
X0747333Y0284400D01*
X0745295Y0282361D01*
X0738482Y0282361D01*
X0738482Y0277361D02*
X0734172Y0277361D01*
X0727133Y0284400D01*
X0723733Y0284400D01*
X0723533Y0284600D01*
X0723533Y0289651D01*
X0723410Y0289775D01*
X0723410Y0278752D02*
X0723410Y0273476D01*
X0723333Y0272400D01*
X0723533Y0262200D02*
X0723309Y0261576D01*
X0723309Y0257217D01*
X0718333Y0255000D02*
X0713333Y0260800D01*
X0704335Y0260800D01*
X0704320Y0260815D01*
X0698733Y0256800D02*
X0698733Y0274441D01*
X0704320Y0280028D01*
X0686133Y0291600D02*
X0684733Y0290200D01*
X0684733Y0241400D01*
X0686933Y0239200D01*
X0682933Y0236200D02*
X0681533Y0237600D01*
X0681533Y0293400D01*
X0685233Y0297100D01*
X0682333Y0300000D01*
X0682333Y0312800D01*
X0691133Y0303000D02*
X0685233Y0297100D01*
X0694933Y0298800D02*
X0696733Y0300600D01*
X0756733Y0300600D01*
X0772133Y0316000D01*
X0772133Y0319600D01*
X0773733Y0327400D02*
X0771513Y0329621D01*
X0771513Y0335226D01*
X0763969Y0345400D02*
X0764032Y0345463D01*
X0763969Y0345400D02*
X0761933Y0345400D01*
X0760533Y0346800D01*
X0759333Y0346800D01*
X0750533Y0334200D02*
X0750933Y0333800D01*
X0750933Y0330840D01*
X0751000Y0330774D01*
X0751226Y0331000D02*
X0754333Y0331000D01*
X0755933Y0332600D01*
X0756933Y0332600D01*
X0750533Y0334200D02*
X0748333Y0334200D01*
X0746133Y0336400D01*
X0746133Y0344000D01*
X0744133Y0346000D01*
X0737133Y0346000D01*
X0736133Y0347000D01*
X0734533Y0345400D01*
X0734533Y0340000D01*
X0733733Y0339200D01*
X0724933Y0339200D01*
X0724056Y0338323D01*
X0724056Y0335072D01*
X0727733Y0341200D02*
X0716933Y0341200D01*
X0711961Y0336228D01*
X0711961Y0331374D01*
X0711961Y0320350D02*
X0697583Y0320350D01*
X0689533Y0328400D01*
X0689533Y0337600D01*
X0704933Y0353000D01*
X0722933Y0353000D01*
X0724733Y0354800D01*
X0730533Y0354800D01*
X0731733Y0353600D01*
X0731733Y0345505D01*
X0731537Y0345309D01*
X0727796Y0345309D02*
X0727733Y0345246D01*
X0727733Y0341200D01*
X0724056Y0345309D02*
X0724056Y0348200D01*
X0723256Y0349000D01*
X0716933Y0349000D01*
X0711733Y0343800D01*
X0704133Y0343800D01*
X0701533Y0341200D01*
X0695933Y0341200D01*
X0691333Y0336600D01*
X0691333Y0333600D01*
X0691533Y0333400D01*
X0691533Y0330200D01*
X0696533Y0325200D01*
X0731933Y0325200D01*
X0728533Y0326800D02*
X0697533Y0326800D01*
X0693733Y0330600D01*
X0693733Y0334000D01*
X0694733Y0335000D01*
X0696933Y0321200D02*
X0698533Y0319600D01*
X0698533Y0319400D01*
X0698533Y0318800D01*
X0698533Y0319400D02*
X0697583Y0320350D01*
X0678933Y0341600D02*
X0677133Y0343400D01*
X0677133Y0370200D01*
X0679133Y0372200D01*
X0704052Y0372200D01*
X0708830Y0376978D01*
X0721137Y0361800D02*
X0716811Y0357474D01*
X0721137Y0361800D02*
X0739333Y0361800D01*
X0733333Y0358600D02*
X0733333Y0349800D01*
X0736133Y0347000D01*
X0737486Y0350152D02*
X0738133Y0350200D01*
X0737486Y0350152D02*
X0743228Y0350152D01*
X0731537Y0335072D02*
X0731537Y0329803D01*
X0728533Y0326800D01*
X0738131Y0317800D02*
X0738369Y0318038D01*
X0737733Y0308200D02*
X0738596Y0307337D01*
X0743939Y0307337D01*
X0791533Y0316400D02*
X0792533Y0317400D01*
X0810133Y0317400D01*
X0815133Y0322400D01*
X0815133Y0325000D01*
X0779333Y0365400D02*
X0773533Y0365400D01*
X0779333Y0365400D02*
X0780133Y0366200D01*
X0762733Y0399400D02*
X0760563Y0401570D01*
X0760563Y0404945D01*
X0756933Y0396000D02*
X0756933Y0415200D01*
X0758206Y0416473D01*
X0760527Y0416473D01*
X0737693Y0403736D02*
X0737693Y0394759D01*
X0734333Y0391400D01*
X0670833Y0346600D02*
X0667083Y0350350D01*
X0609583Y0350350D01*
X0607133Y0347900D01*
X0615833Y0336600D02*
X0619583Y0340350D01*
X0615833Y0336600D02*
X0598333Y0336600D01*
X0594633Y0332900D01*
X0583733Y0332900D01*
X0582633Y0334000D01*
X0542533Y0334000D01*
X0583533Y0324400D02*
X0583633Y0324400D01*
X0586458Y0327225D01*
X0594583Y0327225D01*
X0599583Y0332225D01*
X0652083Y0332225D01*
X0660833Y0323475D01*
X0660833Y0310700D01*
X0661533Y0310000D01*
X0669583Y0335350D02*
X0672083Y0335350D01*
X0672333Y0335000D01*
X0670833Y0344100D02*
X0670833Y0346600D01*
X0678933Y0341600D02*
X0678933Y0234400D01*
X0683133Y0230200D01*
X0676133Y0225200D02*
X0674333Y0227000D01*
X0676133Y0225200D02*
X0676133Y0224600D01*
X0707533Y0239400D02*
X0709176Y0239557D01*
X0712905Y0239557D01*
X0719991Y0239557D02*
X0726776Y0239557D01*
X0730333Y0236000D01*
X0718333Y0246400D02*
X0718333Y0255000D01*
X0713133Y0253600D02*
X0701933Y0253600D01*
X0698733Y0256800D01*
X0731133Y0247200D02*
X0731133Y0246800D01*
X0753730Y0256999D02*
X0753730Y0260396D01*
X0753733Y0261600D01*
X0761133Y0261800D02*
X0761723Y0261190D01*
X0761723Y0257164D01*
X0830533Y0256400D02*
X0864733Y0256400D01*
X0910933Y0267200D02*
X0917741Y0274008D01*
X0997729Y0274008D01*
X0987533Y0261600D02*
X0978533Y0261600D01*
X0978133Y0261200D01*
X0965747Y0250635D02*
X0960383Y0256000D01*
X0927933Y0256000D01*
X0916333Y0277200D02*
X0916333Y0289200D01*
X0922533Y0295400D01*
X0996337Y0295400D01*
X0997729Y0294008D01*
X0854281Y0411430D02*
X0853910Y0411800D01*
X0850733Y0411800D01*
X0843992Y0418541D01*
X0840428Y0418541D01*
X0854281Y0418516D02*
X0854281Y0423347D01*
X0854333Y0423400D01*
X0917325Y0455144D02*
X0931827Y0470129D01*
X0945298Y0470129D01*
X0947531Y0479789D02*
X0942344Y0479789D01*
X0942333Y0479800D01*
X0918000Y0491667D02*
X0917933Y0491600D01*
X0918000Y0491667D02*
X0918000Y0497690D01*
X0934533Y0497200D02*
X0934540Y0497206D01*
X0934540Y0502361D01*
X0494733Y0309000D02*
X0493135Y0309000D01*
X0492335Y0308200D01*
X0512133Y0170800D02*
X0520661Y0170800D01*
X0512133Y0170800D02*
X0508533Y0167200D01*
X0508533Y0147400D01*
X0520768Y0149565D02*
X0520768Y0150693D01*
X0589133Y0158200D02*
X0613333Y0134000D01*
D53*
X0598133Y0128400D02*
X0594733Y0128400D01*
X0581933Y0141200D01*
X0707407Y0100544D02*
X0707407Y0090544D01*
X0805673Y0120403D02*
X0805676Y0120400D01*
X0809533Y0120400D01*
X0813425Y0116509D01*
X0819048Y0116509D01*
X0815733Y0109200D02*
X0815133Y0108600D01*
X0815133Y0105600D01*
X0830407Y0090326D01*
X0830407Y0084685D01*
X0832092Y0083000D01*
X0830407Y0084685D02*
X0828133Y0082411D01*
X0830590Y0105200D02*
X0825333Y0105200D01*
X0830333Y0115200D02*
X0829533Y0116000D01*
X0849953Y0110771D02*
X0853333Y0110771D01*
X0853333Y0120771D01*
X0800053Y0191903D02*
X0800053Y0194719D01*
X0799933Y0195800D01*
X0723410Y0289775D02*
X0723333Y0289851D01*
X0723333Y0294800D01*
X0721133Y0296400D01*
X0704733Y0296400D01*
X0704533Y0311400D02*
X0701733Y0314200D01*
X0701733Y0319400D01*
X0702683Y0320350D01*
X0711961Y0320350D01*
X0699733Y0318400D02*
X0696933Y0321200D01*
X0689733Y0328400D01*
X0689533Y0328400D01*
X0687333Y0328400D01*
X0684733Y0331000D01*
X0672933Y0329400D02*
X0671933Y0329400D01*
X0668533Y0332800D01*
X0668383Y0332800D01*
X0663333Y0337850D01*
X0663333Y0339100D01*
X0659583Y0342850D01*
X0618333Y0342850D01*
X0614583Y0339100D01*
X0597083Y0339100D01*
X0592708Y0335350D01*
X0585608Y0335300D01*
X0583933Y0337500D01*
X0796644Y0327457D02*
X0796787Y0327600D01*
X0807533Y0327600D01*
X0609680Y0477190D02*
X0605333Y0479937D01*
X0605333Y0488600D01*
X0588266Y0505668D01*
X0588266Y0506978D01*
X0688382Y0520278D02*
X0689565Y0520278D01*
X0722585Y0553299D01*
X0755545Y0553299D01*
X0755530Y0553714D01*
X0766366Y0556387D02*
X0770596Y0556387D01*
X0770757Y0556548D01*
X0766366Y0556387D02*
X0762493Y0543714D01*
X0755530Y0543714D01*
X0770757Y0549461D02*
X0801696Y0549461D01*
X0830717Y0520441D01*
D54*
X0917933Y0491600D03*
X0934533Y0497200D03*
X0942333Y0479800D03*
X0854333Y0423400D03*
X0762733Y0399400D03*
X0756933Y0396000D03*
X0734333Y0391400D03*
X0739333Y0361800D03*
X0733333Y0358600D03*
X0704133Y0343800D03*
X0671383Y0343600D03*
X0670333Y0339200D03*
X0673333Y0312800D03*
X0682333Y0312800D03*
X0672933Y0303800D03*
X0704533Y0311400D03*
X0704733Y0296400D03*
X0737733Y0308200D03*
X0756933Y0332600D03*
X0773533Y0365400D03*
X0804933Y0348000D03*
X0844215Y0350481D03*
X0863733Y0290800D03*
X0882333Y0266000D03*
X0838533Y0260800D03*
X0837333Y0237400D03*
X0799133Y0243800D03*
X0788533Y0226200D03*
X0790933Y0209000D03*
X0798733Y0205400D03*
X0799933Y0195800D03*
X0809333Y0184200D03*
X0788733Y0185600D03*
X0789933Y0176600D03*
X0785533Y0171800D03*
X0786533Y0164400D03*
X0782533Y0158200D03*
X0788933Y0154800D03*
X0796933Y0164400D03*
X0801933Y0171800D03*
X0819733Y0171800D03*
X0819333Y0164400D03*
X0829533Y0153800D03*
X0837133Y0164400D03*
X0774733Y0164600D03*
X0768733Y0171800D03*
X0774533Y0188400D03*
X0762333Y0202800D03*
X0756533Y0215000D03*
X0736133Y0215400D03*
X0721333Y0209200D03*
X0705933Y0209200D03*
X0714133Y0224400D03*
X0743933Y0194600D03*
X0714733Y0167800D03*
X0714533Y0159000D03*
X0738533Y0163400D03*
X0766733Y0133400D03*
X0695133Y0183000D03*
X0683333Y0168600D03*
X0662933Y0163000D03*
X0643533Y0188200D03*
X0599733Y0163800D03*
X0605533Y0150000D03*
X0616333Y0138200D03*
X0613133Y0128400D03*
X0667333Y0127400D03*
X0663733Y0090200D03*
X0680933Y0090000D03*
X0645133Y0082000D03*
X0636933Y0082000D03*
X0508333Y0138400D03*
X0508533Y0147400D03*
X0581933Y0188200D03*
X0760733Y0239200D03*
X0793533Y0288400D03*
X0816933Y0293400D03*
X0950533Y0200600D03*
X0920733Y0055000D03*
X0920533Y0047800D03*
X0832933Y0035200D03*
X0621433Y0337400D03*
X0607133Y0347900D03*
X0590533Y0341300D03*
X0581733Y0345200D03*
X0580033Y0340800D03*
X0583133Y0350850D03*
D55*
X0727733Y0351400D02*
X0727796Y0350337D01*
X0727796Y0345309D01*
X0767773Y0345463D02*
X0767773Y0356361D01*
X0767733Y0356400D01*
X0798647Y0347789D02*
X0804722Y0347789D01*
X0804933Y0348000D01*
X0844215Y0350481D02*
X0844333Y0350600D01*
X0859533Y0350600D01*
X0945533Y0350600D01*
X0961333Y0334800D01*
X0986333Y0334800D01*
X0987133Y0334000D01*
X0965747Y0290635D02*
X0950969Y0290635D01*
X0950933Y0290600D01*
X0950898Y0290635D01*
X0937647Y0290635D01*
X0937647Y0280635D01*
X0937647Y0270635D02*
X0937647Y0260635D01*
X0937647Y0270635D02*
X0951969Y0270635D01*
X0952133Y0270800D01*
X0952298Y0270635D01*
X0965747Y0270635D01*
X0965747Y0260635D01*
X0965747Y0280635D02*
X0965747Y0290635D01*
X0882333Y0266000D02*
X0878053Y0270280D01*
X0878053Y0270771D01*
X0878053Y0260771D01*
X0878053Y0270771D02*
X0849953Y0270771D01*
X0849953Y0260771D02*
X0838563Y0260771D01*
X0838533Y0260800D01*
X0822333Y0255200D02*
X0822333Y0248600D01*
X0822533Y0248400D01*
X0824133Y0229600D02*
X0823202Y0228669D01*
X0812780Y0228669D01*
X0849953Y0280771D02*
X0849953Y0290771D01*
X0863704Y0290771D01*
X0863733Y0290800D01*
X0863763Y0290771D01*
X0878053Y0290771D01*
X0878053Y0280771D01*
X0878133Y0350400D02*
X0859733Y0350400D01*
X0859533Y0350600D01*
X0878133Y0350400D02*
X0878333Y0350600D01*
X0878333Y0437200D01*
X0903233Y0462100D01*
X0818533Y0137600D02*
X0824332Y0131801D01*
X0824332Y0130009D01*
X0830072Y0116509D02*
X0822763Y0109200D01*
X0815733Y0109200D01*
X0811533Y0109200D01*
X0807417Y0113316D01*
X0805673Y0113316D01*
X0805626Y0113269D01*
X0797362Y0113269D01*
X0797362Y0120356D02*
X0805626Y0120356D01*
X0805673Y0120403D01*
X0805673Y0135085D02*
X0801694Y0139064D01*
X0837677Y0105200D02*
X0840133Y0105200D01*
X0840733Y0105800D01*
X0862733Y0105800D01*
X0830407Y0084685D02*
X0824722Y0079000D01*
X0718933Y0079000D01*
X0707407Y0090526D01*
X0707407Y0090544D01*
X0668590Y0090000D02*
X0665133Y0090000D01*
X0663733Y0090200D01*
X0855733Y0031200D02*
X0855733Y0024800D01*
X0856333Y0024200D01*
D56*
X0849953Y0100771D02*
X0878053Y0100771D01*
X0805673Y0120403D02*
X0805673Y0123340D01*
X0805733Y0123400D01*
X0802733Y0123400D01*
X0802733Y0124600D01*
X0802933Y0124800D01*
X0805533Y0124800D01*
X0805733Y0125000D01*
X0805733Y0135025D01*
X0805673Y0135085D01*
X0805673Y0120403D02*
X0791730Y0120403D01*
X0791533Y0120600D01*
X0492938Y0300106D02*
X0492335Y0308200D01*
X0492335Y0316802D01*
X0500333Y0324800D01*
X0500333Y0361600D01*
X0497133Y0364800D01*
X0493161Y0364800D01*
X0492897Y0365064D01*
X0486933Y0343501D02*
X0492842Y0337592D01*
X0492842Y0338291D01*
X0486933Y0343501D02*
X0486733Y0386856D01*
X0492918Y0391440D01*
X0585333Y0440600D02*
X0587133Y0440600D01*
X0593533Y0447000D01*
X0590533Y0450000D01*
X0590533Y0487400D01*
X0579733Y0498200D01*
X0555203Y0498200D01*
X0556620Y0497017D01*
X0575133Y0491400D02*
X0575133Y0472843D01*
X0570680Y0467190D01*
X0593533Y0447000D02*
X0596333Y0444200D01*
X0624133Y0444200D01*
X0626430Y0441904D01*
X0626430Y0435038D01*
X0790048Y0390759D02*
X0793608Y0387200D01*
X0806533Y0387200D01*
X0809296Y0389963D01*
X0809296Y0393967D01*
X0809296Y0416014D02*
X0809296Y0423163D01*
X0809533Y0423400D01*
X0828214Y0418521D02*
X0840408Y0418521D01*
X0840428Y0418541D01*
D57*
X0862440Y0418645D02*
X0862440Y0428094D01*
X0903233Y0462100D02*
X0909741Y0455592D01*
X0917325Y0455144D01*
X0903233Y0462100D02*
X0900733Y0464600D01*
X0900733Y0519973D01*
X0917910Y0537149D01*
X0798933Y0360000D02*
X0798847Y0359914D01*
X0798647Y0354876D01*
X0824133Y0323000D02*
X0833933Y0332800D01*
X0824133Y0323000D02*
X0824133Y0292400D01*
X0824133Y0257000D01*
X0822333Y0255200D01*
X0822333Y0233000D01*
X0824133Y0231200D01*
X0824133Y0229600D01*
X0824133Y0219000D01*
X0824133Y0210200D01*
X0824133Y0186400D01*
X0824133Y0151400D01*
X0826133Y0149400D01*
X0824852Y0148119D01*
X0824332Y0148119D01*
X0824332Y0152401D01*
X0824413Y0148200D02*
X0824332Y0148119D01*
X0824413Y0148200D02*
X0835133Y0148200D01*
X0836933Y0146400D01*
X0836933Y0120800D01*
X0832642Y0116509D01*
X0830072Y0116509D01*
X0656404Y0118365D02*
X0656404Y0108365D01*
X0656404Y0098365D01*
X0645733Y0113200D02*
X0645733Y0113400D01*
X0656333Y0113400D01*
X0656404Y0128365D02*
X0656333Y0128365D01*
X0634333Y0113400D02*
X0634333Y0113200D01*
X0628533Y0113200D01*
X0628533Y0114400D01*
X0628304Y0114400D01*
X0628304Y0118365D01*
X0628304Y0114400D02*
X0628304Y0108365D01*
X0628304Y0098365D01*
X0567982Y0098441D02*
X0567982Y0108441D01*
X0553893Y0108441D01*
X0553733Y0108600D01*
X0553574Y0108441D01*
X0539882Y0108441D01*
X0539882Y0098441D01*
X0539882Y0118441D02*
X0553093Y0118441D01*
X0553133Y0118400D01*
X0553174Y0118441D01*
X0567982Y0118441D01*
X0567982Y0128441D01*
X0539882Y0128441D02*
X0539882Y0118441D01*
X0539882Y0208441D02*
X0539882Y0209851D01*
X0538133Y0211600D01*
X0538133Y0211000D01*
X0541333Y0211000D01*
X0541413Y0210920D01*
X0541413Y0211120D01*
X0539933Y0212600D01*
X0539882Y0248441D02*
X0552574Y0248441D01*
X0552733Y0248600D01*
X0492897Y0365064D02*
X0492897Y0369964D01*
X0508333Y0385400D01*
X0508333Y0412763D01*
X0508340Y0412770D01*
D58*
X0596016Y0410461D02*
X0596016Y0424007D01*
X0606817Y0434809D01*
X0610058Y0434809D01*
X0610288Y0435038D01*
X0626430Y0435038D02*
X0626905Y0434563D01*
X0650773Y0434563D01*
X0677872Y0461662D01*
X0686582Y0470372D01*
X0688382Y0480278D01*
X0688382Y0520278D02*
X0621566Y0520278D01*
X0615302Y0514014D01*
X0608266Y0506978D01*
X0609333Y0392200D02*
X0609333Y0369200D01*
X0606133Y0366000D01*
X0596186Y0366000D01*
X0596016Y0366170D01*
X0596016Y0351406D01*
X0607414Y0275041D02*
X0627992Y0275041D01*
X0628933Y0274100D01*
X0628304Y0258365D02*
X0641898Y0258365D01*
X0641933Y0258400D01*
X0628304Y0258365D02*
X0656404Y0258365D01*
X0656404Y0248365D01*
X0656404Y0238365D02*
X0656404Y0228365D01*
X0656404Y0238365D02*
X0628304Y0238365D01*
X0643098Y0238365D01*
X0643133Y0238400D01*
X0628304Y0238365D02*
X0628304Y0228365D01*
X0628304Y0218365D02*
X0641768Y0218365D01*
X0642133Y0218000D01*
X0628304Y0218365D02*
X0656404Y0218365D01*
X0656404Y0208365D01*
X0628304Y0208365D02*
X0628304Y0218365D01*
X0628304Y0248365D02*
X0628304Y0258365D01*
X0567982Y0258441D02*
X0567982Y0248441D01*
X0539882Y0248441D01*
X0553693Y0248441D01*
X0553733Y0248400D01*
X0539882Y0248441D02*
X0539882Y0258441D01*
X0539882Y0238441D02*
X0567982Y0238441D01*
X0553893Y0238441D01*
X0553733Y0238600D01*
X0539882Y0238441D02*
X0539882Y0228441D01*
X0540333Y0218600D02*
X0553733Y0218600D01*
X0553933Y0218400D01*
X0540333Y0218600D02*
X0539882Y0218149D01*
X0539882Y0212651D01*
X0539933Y0212600D01*
X0539882Y0218149D02*
X0539882Y0218441D01*
X0567982Y0218441D01*
X0567982Y0208441D01*
X0567982Y0228441D02*
X0567982Y0238441D01*
X0849953Y0180771D02*
X0849953Y0170771D01*
X0849953Y0160771D02*
X0878053Y0160771D01*
X0877504Y0160771D01*
X0877333Y0160600D01*
X0864333Y0160600D01*
X0864133Y0160800D01*
X0878053Y0160771D02*
X0878053Y0150771D01*
X0878053Y0140771D02*
X0864104Y0140771D01*
X0863933Y0140600D01*
X0864133Y0140800D02*
X0864163Y0140771D01*
X0878053Y0140771D01*
X0878053Y0130771D01*
X0878053Y0140771D02*
X0849953Y0140771D01*
X0849953Y0130771D01*
X0849953Y0150771D02*
X0849953Y0160771D01*
X0849953Y0180771D02*
X0878053Y0180771D01*
X0863563Y0180771D01*
X0863533Y0180800D01*
X0878053Y0180771D02*
X0878053Y0170771D01*
X0937647Y0170635D02*
X0937647Y0180635D01*
X0965747Y0180635D01*
X0965747Y0170635D01*
X0965747Y0179586D01*
X0964733Y0180600D01*
X0952133Y0180600D01*
X0965747Y0160635D02*
X0937647Y0160635D01*
X0937647Y0150635D01*
X0937647Y0140635D02*
X0965747Y0140635D01*
X0951569Y0140635D01*
X0951533Y0140600D01*
X0937647Y0140635D02*
X0937647Y0130635D01*
X0965747Y0130635D02*
X0965747Y0140635D01*
X0965747Y0150635D02*
X0965747Y0160635D01*
D59*
X0744933Y0135200D03*
X0735933Y0135800D03*
X0727333Y0135600D03*
X0716133Y0134400D03*
X0702333Y0127600D03*
X0685333Y0416800D03*
X0585333Y0440600D03*
X0550533Y0459600D03*
X0575133Y0491400D03*
X0809533Y0423400D03*
D60*
X0685333Y0416800D02*
X0685268Y0416734D01*
X0685268Y0410461D01*
D61*
X0608333Y0316876D03*
X0532546Y0468450D03*
X0758386Y0573926D03*
X0983333Y0468450D03*
X0908333Y0316876D03*
X0953806Y0060970D03*
X0562073Y0060970D03*
D62*
X0526733Y0087200D02*
X0597733Y0087200D01*
X0605333Y0079600D01*
X0605333Y0037400D01*
X0605833Y0029100D01*
X0610733Y0024200D01*
X0785733Y0024200D01*
X0856333Y0024200D01*
X0925933Y0024200D01*
X0933333Y0031600D01*
X0933333Y0061600D01*
X0925833Y0069100D01*
X0915833Y0069100D01*
X0907633Y0069100D01*
X0907214Y0069519D01*
X0915833Y0069100D02*
X0932349Y0085615D01*
X0993524Y0085615D01*
X1000403Y0091997D01*
X1000699Y0092292D01*
X1000571Y0092292D01*
X1000403Y0091997D02*
X1010633Y0104700D01*
X1025333Y0127800D01*
X1025333Y0130200D01*
X1025133Y0130400D01*
X1025133Y0296000D01*
X0987133Y0334000D01*
X0983558Y0337576D01*
X0983558Y0340808D01*
X0862440Y0428094D02*
X0850933Y0442100D01*
X0767740Y0442100D01*
X0761755Y0448085D01*
X0691448Y0448085D01*
X0677872Y0461662D01*
X0519933Y0306200D02*
X0517933Y0308200D01*
X0517733Y0308200D01*
X0516933Y0309000D01*
X0494733Y0309000D01*
X0492938Y0300106D02*
X0492335Y0130898D01*
X0492733Y0130500D01*
X0526733Y0087200D01*
X0539882Y0268441D02*
X0540133Y0268692D01*
X0540133Y0277800D01*
X0540333Y0277600D01*
X0565733Y0277600D01*
X0567133Y0276200D01*
X0567133Y0270600D01*
X0567982Y0268441D02*
X0539882Y0268441D01*
X0539882Y0278441D02*
X0539882Y0288441D01*
X0567982Y0288441D01*
X0567733Y0288689D01*
X0567733Y0291200D01*
X0565533Y0293400D01*
X0537933Y0293400D01*
X0537799Y0293266D01*
X0511732Y0293266D01*
X0519933Y0306200D02*
X0578755Y0306200D01*
X0593272Y0289183D01*
X0567982Y0287551D02*
X0567982Y0278441D01*
X0539882Y0278441D01*
X0567133Y0276200D02*
X0567133Y0288400D01*
X0567982Y0287551D01*
X0628304Y0288365D02*
X0628304Y0278365D01*
X0628933Y0277735D01*
X0628933Y0274100D01*
X0628933Y0270200D01*
X0630533Y0268600D01*
X0655333Y0268600D01*
X0656533Y0269800D01*
X0656533Y0274400D01*
X0656404Y0274270D01*
X0656404Y0268365D01*
X0628304Y0268365D01*
X0628304Y0278365D02*
X0656404Y0278365D01*
X0656404Y0289530D01*
X0656133Y0289800D01*
X0631133Y0289800D01*
X0628733Y0292200D01*
X0628304Y0288365D02*
X0656404Y0288365D01*
X0849953Y0120771D02*
X0849953Y0113420D01*
X0849933Y0113400D01*
X0877533Y0113400D01*
X0878133Y0114000D01*
X0878133Y0111800D01*
X0878133Y0100851D01*
X0878053Y0100771D01*
X0878053Y0120771D02*
X0853333Y0120771D01*
X0849953Y0120771D01*
X0878053Y0120771D02*
X0878082Y0120800D01*
X0897333Y0120800D01*
X0907214Y0110919D01*
X0907214Y0089519D01*
X0937647Y0100635D02*
X0937812Y0100800D01*
X0937812Y0110471D01*
X0937647Y0110635D01*
X0965747Y0110635D01*
X0965747Y0102614D01*
X0965333Y0102200D01*
X0965333Y0120221D01*
X0965747Y0120635D01*
X0937647Y0120635D01*
X0937812Y0100800D02*
X0965912Y0100800D01*
X0965747Y0100635D01*
X0965912Y0100800D02*
X0980333Y0100800D01*
X0985968Y0106434D01*
X0986429Y0106434D01*
D63*
X0688382Y0480278D02*
X0728545Y0520441D01*
X0830717Y0520441D01*
M02*
