G75*
%MOIN*%
%OFA0B0*%
%FSLAX25Y25*%
%IPPOS*%
%LPD*%
%AMOC8*
5,1,8,0,0,1.08239X$1,22.5*
%
%ADD10R,0.26378X0.26378*%
%ADD11R,0.11811X0.06299*%
%ADD12R,0.05906X0.01772*%
%ADD13R,0.06693X0.07087*%
%ADD14R,0.04724X0.03150*%
%ADD15R,0.06299X0.07087*%
%ADD16R,0.03150X0.04724*%
%ADD17R,0.07087X0.06299*%
%ADD18R,0.02165X0.04724*%
%ADD19R,0.05512X0.04724*%
%ADD20R,0.07087X0.06693*%
%ADD21R,0.03819X0.01220*%
%ADD22R,0.04724X0.05512*%
%ADD23R,0.11811X0.04921*%
%ADD24R,0.16300X0.03900*%
%ADD25R,0.12598X0.07087*%
%ADD26R,0.06299X0.11811*%
%ADD27R,0.07874X0.02756*%
%ADD28R,0.25000X0.40000*%
%ADD29R,0.18000X0.06000*%
%ADD30R,0.11496X0.05984*%
%ADD31R,0.03500X0.04500*%
%ADD32R,0.01181X0.07874*%
%ADD33R,0.07874X0.01181*%
%ADD34R,0.08661X0.02362*%
D10*
X0780993Y0413397D03*
X0801694Y0139064D03*
D11*
X0824332Y0148119D03*
X0824332Y0130009D03*
D12*
X0757267Y0315479D03*
X0757267Y0318038D03*
X0757267Y0320597D03*
X0757267Y0323156D03*
X0738369Y0323156D03*
X0738369Y0320597D03*
X0738369Y0318038D03*
X0738369Y0315479D03*
D13*
X0828214Y0402379D03*
X0840428Y0402399D03*
X0840428Y0418541D03*
X0828214Y0418521D03*
X0918000Y0497690D03*
X0918000Y0513832D03*
D14*
X0928116Y0509373D03*
X0934540Y0509447D03*
X0934540Y0502361D03*
X0928116Y0502287D03*
X0862440Y0418645D03*
X0862440Y0411558D03*
X0854281Y0411430D03*
X0854281Y0418516D03*
X0798647Y0354876D03*
X0798647Y0347789D03*
X0763184Y0373313D03*
X0763184Y0380400D03*
X0733852Y0379761D03*
X0733852Y0372674D03*
X0738595Y0259128D03*
X0738595Y0252041D03*
X0745539Y0250051D03*
X0745539Y0257138D03*
X0753730Y0256999D03*
X0753730Y0249912D03*
X0761723Y0250078D03*
X0761723Y0257164D03*
X0731177Y0257114D03*
X0731177Y0250027D03*
X0723309Y0250131D03*
X0723309Y0257217D03*
X0687529Y0207984D03*
X0680833Y0207984D03*
X0674361Y0207984D03*
X0674361Y0200897D03*
X0680833Y0200897D03*
X0687529Y0200897D03*
X0694149Y0199153D03*
X0700560Y0199211D03*
X0700560Y0206298D03*
X0694149Y0206240D03*
X0708690Y0128745D03*
X0708690Y0121658D03*
X0718838Y0121502D03*
X0718838Y0128589D03*
X0728791Y0128549D03*
X0728791Y0121463D03*
X0737798Y0121310D03*
X0737798Y0128396D03*
X0746705Y0128342D03*
X0746705Y0121255D03*
X0754941Y0121034D03*
X0761043Y0121106D03*
X0766764Y0121163D03*
X0766764Y0128250D03*
X0761043Y0128192D03*
X0754941Y0128121D03*
X0797362Y0120356D03*
X0805673Y0120403D03*
X0805673Y0113316D03*
X0797362Y0113269D03*
X0888594Y0051974D03*
X0888594Y0044888D03*
X0896533Y0044657D03*
X0896533Y0051743D03*
X0911982Y0051347D03*
X0911982Y0044260D03*
X0550179Y0346589D03*
X0540425Y0346476D03*
X0540425Y0353563D03*
X0550179Y0353676D03*
X0547901Y0397868D03*
X0547901Y0404955D03*
X0540246Y0404837D03*
X0540246Y0397750D03*
X0519765Y0439226D03*
X0519765Y0446312D03*
X0512565Y0446312D03*
X0512565Y0439226D03*
X0504309Y0439226D03*
X0504309Y0446312D03*
X0551693Y0474455D03*
X0551693Y0481541D03*
X0770757Y0549461D03*
X0770757Y0556548D03*
D15*
X0712911Y0421181D03*
X0701887Y0421181D03*
X0701925Y0411509D03*
X0701962Y0401634D03*
X0712986Y0401634D03*
X0712949Y0411509D03*
X0819048Y0116509D03*
X0830072Y0116509D03*
D16*
X0830590Y0105200D03*
X0837677Y0105200D03*
X0812721Y0203784D03*
X0812680Y0210704D03*
X0805593Y0210704D03*
X0805634Y0203784D03*
X0805694Y0228669D03*
X0812780Y0228669D03*
X0812636Y0236679D03*
X0805549Y0236679D03*
X0808442Y0265104D03*
X0808012Y0271568D03*
X0800926Y0271568D03*
X0801355Y0265104D03*
X0777994Y0282484D03*
X0777994Y0288507D03*
X0770907Y0288507D03*
X0770907Y0282484D03*
X0799966Y0300864D03*
X0799931Y0306743D03*
X0799919Y0312881D03*
X0807006Y0312881D03*
X0807018Y0306743D03*
X0807052Y0300864D03*
X0751026Y0307337D03*
X0743939Y0307337D03*
X0743913Y0330774D03*
X0751000Y0330774D03*
X0750315Y0350152D03*
X0743228Y0350152D03*
X0737693Y0403736D03*
X0730606Y0403736D03*
X0753477Y0404945D03*
X0753477Y0410614D03*
X0753440Y0416473D03*
X0753388Y0422232D03*
X0753372Y0427965D03*
X0760458Y0427965D03*
X0760475Y0422232D03*
X0760527Y0416473D03*
X0760563Y0410614D03*
X0760563Y0404945D03*
X0830816Y0395405D03*
X0837903Y0395405D03*
X0947531Y0479789D03*
X0954618Y0479789D03*
X0613903Y0466837D03*
X0606816Y0466837D03*
X0554161Y0420818D03*
X0547075Y0420818D03*
X0712905Y0239557D03*
X0719991Y0239557D03*
X0675677Y0090000D03*
X0668590Y0090000D03*
D17*
X0723410Y0278752D03*
X0723410Y0289775D03*
X0711961Y0320350D03*
X0701951Y0320455D03*
X0701951Y0331478D03*
X0711961Y0331374D03*
X0786437Y0327622D03*
X0796644Y0327457D03*
X0796644Y0338481D03*
X0786437Y0338645D03*
D18*
X0771513Y0335226D03*
X0764032Y0335226D03*
X0764032Y0345463D03*
X0767773Y0345463D03*
X0771513Y0345463D03*
X0731537Y0345309D03*
X0727796Y0345309D03*
X0724056Y0345309D03*
X0724056Y0335072D03*
X0731537Y0335072D03*
X0800349Y0291855D03*
X0807829Y0291855D03*
X0807829Y0281618D03*
X0804089Y0281618D03*
X0800349Y0281618D03*
X0830630Y0377124D03*
X0834370Y0377124D03*
X0838110Y0377124D03*
X0838110Y0387361D03*
X0830630Y0387361D03*
D19*
X0754388Y0382715D03*
X0742800Y0382519D03*
X0742800Y0370708D03*
X0754388Y0370904D03*
X0550924Y0377602D03*
X0538108Y0377545D03*
X0538108Y0389356D03*
X0550924Y0389413D03*
X0551139Y0338472D03*
X0539070Y0338305D03*
X0539070Y0326494D03*
X0551139Y0326661D03*
D20*
X0610288Y0435038D03*
X0626430Y0435038D03*
D21*
X0725642Y0398022D03*
X0725642Y0396053D03*
X0725642Y0394085D03*
X0725642Y0392116D03*
X0725642Y0390148D03*
X0742453Y0390148D03*
X0742453Y0392116D03*
X0742453Y0394085D03*
X0742453Y0396053D03*
X0742453Y0398022D03*
D22*
X0741628Y0341160D03*
X0753440Y0341160D03*
X0945298Y0470129D03*
X0957109Y0470129D03*
D23*
X0520768Y0150693D03*
X0520768Y0160693D03*
X0520768Y0170693D03*
X0520768Y0180693D03*
X0520565Y0200847D03*
X0520565Y0210847D03*
X0520565Y0220847D03*
X0520565Y0230847D03*
X0996142Y0226858D03*
X0996142Y0216858D03*
X0996142Y0206858D03*
X0996142Y0196858D03*
X0997729Y0274008D03*
X0997729Y0284008D03*
X0997729Y0294008D03*
X0997729Y0304008D03*
D24*
X0965747Y0290635D03*
X0965747Y0280635D03*
X0965747Y0270635D03*
X0965747Y0260635D03*
X0965747Y0250635D03*
X0965747Y0240635D03*
X0965747Y0230635D03*
X0965747Y0220635D03*
X0965747Y0210635D03*
X0965747Y0200635D03*
X0965747Y0190635D03*
X0965747Y0180635D03*
X0965747Y0170635D03*
X0965747Y0160635D03*
X0965747Y0150635D03*
X0965747Y0140635D03*
X0965747Y0130635D03*
X0965747Y0120635D03*
X0965747Y0110635D03*
X0965747Y0100635D03*
X0937647Y0100635D03*
X0937647Y0110635D03*
X0937647Y0120635D03*
X0937647Y0130635D03*
X0937647Y0140635D03*
X0937647Y0150635D03*
X0937647Y0160635D03*
X0937647Y0170635D03*
X0937647Y0180635D03*
X0937647Y0190635D03*
X0937647Y0200635D03*
X0937647Y0210635D03*
X0937647Y0220635D03*
X0937647Y0230635D03*
X0937647Y0240635D03*
X0937647Y0250635D03*
X0937647Y0260635D03*
X0937647Y0270635D03*
X0937647Y0280635D03*
X0937647Y0290635D03*
X0878053Y0290771D03*
X0878053Y0280771D03*
X0878053Y0270771D03*
X0878053Y0260771D03*
X0878053Y0250771D03*
X0878053Y0240771D03*
X0878053Y0230771D03*
X0878053Y0220771D03*
X0878053Y0210771D03*
X0878053Y0200771D03*
X0878053Y0190771D03*
X0878053Y0180771D03*
X0878053Y0170771D03*
X0878053Y0160771D03*
X0878053Y0150771D03*
X0878053Y0140771D03*
X0878053Y0130771D03*
X0878053Y0120771D03*
X0878053Y0110771D03*
X0878053Y0100771D03*
X0849953Y0100771D03*
X0849953Y0110771D03*
X0849953Y0120771D03*
X0849953Y0130771D03*
X0849953Y0140771D03*
X0849953Y0150771D03*
X0849953Y0160771D03*
X0849953Y0170771D03*
X0849953Y0180771D03*
X0849953Y0190771D03*
X0849953Y0200771D03*
X0849953Y0210771D03*
X0849953Y0220771D03*
X0849953Y0230771D03*
X0849953Y0240771D03*
X0849953Y0250771D03*
X0849953Y0260771D03*
X0849953Y0270771D03*
X0849953Y0280771D03*
X0849953Y0290771D03*
X0656404Y0288365D03*
X0656404Y0278365D03*
X0656404Y0268365D03*
X0656404Y0258365D03*
X0656404Y0248365D03*
X0656404Y0238365D03*
X0656404Y0228365D03*
X0656404Y0218365D03*
X0656404Y0208365D03*
X0656404Y0198365D03*
X0656404Y0188365D03*
X0656404Y0178365D03*
X0656404Y0168365D03*
X0656404Y0158365D03*
X0656404Y0148365D03*
X0656404Y0138365D03*
X0656404Y0128365D03*
X0656404Y0118365D03*
X0656404Y0108365D03*
X0656404Y0098365D03*
X0628304Y0098365D03*
X0628304Y0108365D03*
X0628304Y0118365D03*
X0628304Y0128365D03*
X0628304Y0138365D03*
X0628304Y0148365D03*
X0628304Y0158365D03*
X0628304Y0168365D03*
X0628304Y0178365D03*
X0628304Y0188365D03*
X0628304Y0198365D03*
X0628304Y0208365D03*
X0628304Y0218365D03*
X0628304Y0228365D03*
X0628304Y0238365D03*
X0628304Y0248365D03*
X0628304Y0258365D03*
X0628304Y0268365D03*
X0628304Y0278365D03*
X0628304Y0288365D03*
X0567982Y0288441D03*
X0567982Y0278441D03*
X0567982Y0268441D03*
X0567982Y0258441D03*
X0567982Y0248441D03*
X0567982Y0238441D03*
X0567982Y0228441D03*
X0567982Y0218441D03*
X0567982Y0208441D03*
X0567982Y0198441D03*
X0567982Y0188441D03*
X0567982Y0178441D03*
X0567982Y0168441D03*
X0567982Y0158441D03*
X0567982Y0148441D03*
X0567982Y0138441D03*
X0567982Y0128441D03*
X0567982Y0118441D03*
X0567982Y0108441D03*
X0567982Y0098441D03*
X0539882Y0098441D03*
X0539882Y0108441D03*
X0539882Y0118441D03*
X0539882Y0128441D03*
X0539882Y0138441D03*
X0539882Y0148441D03*
X0539882Y0158441D03*
X0539882Y0168441D03*
X0539882Y0178441D03*
X0539882Y0188441D03*
X0539882Y0198441D03*
X0539882Y0208441D03*
X0539882Y0218441D03*
X0539882Y0228441D03*
X0539882Y0238441D03*
X0539882Y0248441D03*
X0539882Y0258441D03*
X0539882Y0268441D03*
X0539882Y0278441D03*
X0539882Y0288441D03*
D25*
X0809296Y0393967D03*
X0809296Y0416014D03*
D26*
X0790048Y0390759D03*
X0771938Y0390759D03*
D27*
X0813438Y0195643D03*
X0813438Y0188163D03*
X0800053Y0191903D03*
D28*
X0570680Y0467190D03*
D29*
X0609680Y0477190D03*
X0609680Y0457190D03*
D30*
X0596016Y0410461D03*
X0596016Y0395698D03*
X0596016Y0380934D03*
X0596016Y0366170D03*
X0596016Y0351406D03*
X0685268Y0351406D03*
X0685268Y0366170D03*
X0685268Y0380934D03*
X0685268Y0395698D03*
X0685268Y0410461D03*
D31*
X0550876Y0428429D03*
X0540876Y0428429D03*
X0540876Y0452929D03*
X0550876Y0453029D03*
D32*
X0737096Y0232719D03*
X0739065Y0232719D03*
X0741033Y0232719D03*
X0743002Y0232719D03*
X0744970Y0232719D03*
X0746939Y0232719D03*
X0748907Y0232719D03*
X0750876Y0232719D03*
X0752844Y0232719D03*
X0754813Y0232719D03*
X0756781Y0232719D03*
X0758750Y0232719D03*
X0760718Y0232719D03*
X0762687Y0232719D03*
X0764655Y0232719D03*
X0766624Y0232719D03*
X0766624Y0185475D03*
X0764655Y0185475D03*
X0762687Y0185475D03*
X0760718Y0185475D03*
X0758750Y0185475D03*
X0756781Y0185475D03*
X0754813Y0185475D03*
X0752844Y0185475D03*
X0750876Y0185475D03*
X0748907Y0185475D03*
X0746939Y0185475D03*
X0744970Y0185475D03*
X0743002Y0185475D03*
X0741033Y0185475D03*
X0739065Y0185475D03*
X0737096Y0185475D03*
D33*
X0728238Y0194333D03*
X0728238Y0196301D03*
X0728238Y0198270D03*
X0728238Y0200238D03*
X0728238Y0202207D03*
X0728238Y0204175D03*
X0728238Y0206144D03*
X0728238Y0208112D03*
X0728238Y0210081D03*
X0728238Y0212049D03*
X0728238Y0214018D03*
X0728238Y0215986D03*
X0728238Y0217955D03*
X0728238Y0219923D03*
X0728238Y0221892D03*
X0728238Y0223860D03*
X0775482Y0223860D03*
X0775482Y0221892D03*
X0775482Y0219923D03*
X0775482Y0217955D03*
X0775482Y0215986D03*
X0775482Y0214018D03*
X0775482Y0212049D03*
X0775482Y0210081D03*
X0775482Y0208112D03*
X0775482Y0206144D03*
X0775482Y0204175D03*
X0775482Y0202207D03*
X0775482Y0200238D03*
X0775482Y0198270D03*
X0775482Y0196301D03*
X0775482Y0194333D03*
D34*
X0758955Y0277361D03*
X0758955Y0282361D03*
X0758955Y0287361D03*
X0758955Y0292361D03*
X0738482Y0292361D03*
X0738482Y0287361D03*
X0738482Y0282361D03*
X0738482Y0277361D03*
M02*
