G75*
%MOIN*%
%OFA0B0*%
%FSLAX25Y25*%
%IPPOS*%
%LPD*%
%AMOC8*
5,1,8,0,0,1.08239X$1,22.5*
%
%ADD10C,0.00000*%
D10*
X0475168Y0140855D02*
X0475168Y0416445D01*
X0915866Y0005886D02*
X0922306Y0009707D01*
X0928653Y0013679D01*
X0934905Y0017802D01*
X0941056Y0022072D01*
X0947104Y0026487D01*
X0953045Y0031045D01*
X0958877Y0035743D01*
X0964595Y0040578D01*
X0970196Y0045547D01*
X0975678Y0050648D01*
X0981037Y0055878D01*
X0986270Y0061235D01*
X0991374Y0066713D01*
X0996346Y0072312D01*
X1001184Y0078028D01*
X1005885Y0083856D01*
X1010446Y0089795D01*
X1014865Y0095841D01*
X1019138Y0101990D01*
X1023264Y0108239D01*
X1027240Y0114584D01*
X1031065Y0121022D01*
X1034735Y0127549D01*
X1038249Y0134161D01*
X1041605Y0140855D01*
X1041605Y0416445D01*
X1041606Y0416445D02*
X1038174Y0423287D01*
X1034576Y0430044D01*
X1030815Y0436711D01*
X1026894Y0443285D01*
X1022814Y0449761D01*
X1018577Y0456136D01*
X1014187Y0462407D01*
X1009646Y0468569D01*
X1004957Y0474619D01*
X1000121Y0480553D01*
X0995143Y0486368D01*
X0990026Y0492060D01*
X0984771Y0497626D01*
X0979383Y0503063D01*
X0973864Y0508367D01*
X0968218Y0513536D01*
X0962448Y0518566D01*
X0956557Y0523454D01*
X0950550Y0528198D01*
X0944428Y0532794D01*
X0938197Y0537240D01*
X0931860Y0541533D01*
X0925420Y0545671D01*
X0918882Y0549651D01*
X0912249Y0553472D01*
X0905525Y0557130D01*
X0898714Y0560623D01*
X0891820Y0563950D01*
X0884848Y0567108D01*
X0877800Y0570096D01*
X0870682Y0572912D01*
X0863498Y0575554D01*
X0856252Y0578021D01*
X0848948Y0580311D01*
X0841590Y0582422D01*
X0834184Y0584355D01*
X0826732Y0586106D01*
X0819240Y0587676D01*
X0811712Y0589064D01*
X0804153Y0590268D01*
X0796567Y0591288D01*
X0788958Y0592124D01*
X0781331Y0592774D01*
X0773691Y0593239D01*
X0766041Y0593518D01*
X0758387Y0593611D01*
X0750733Y0593518D01*
X0743083Y0593239D01*
X0735443Y0592774D01*
X0727816Y0592124D01*
X0720207Y0591288D01*
X0712621Y0590268D01*
X0705062Y0589064D01*
X0697534Y0587676D01*
X0690042Y0586106D01*
X0682590Y0584355D01*
X0675184Y0582422D01*
X0667826Y0580311D01*
X0660522Y0578021D01*
X0653276Y0575554D01*
X0646092Y0572912D01*
X0638974Y0570096D01*
X0631926Y0567108D01*
X0624954Y0563950D01*
X0618060Y0560623D01*
X0611249Y0557130D01*
X0604525Y0553472D01*
X0597892Y0549651D01*
X0591354Y0545671D01*
X0584914Y0541533D01*
X0578577Y0537240D01*
X0572346Y0532794D01*
X0566224Y0528198D01*
X0560217Y0523454D01*
X0554326Y0518566D01*
X0548556Y0513536D01*
X0542910Y0508367D01*
X0537391Y0503063D01*
X0532003Y0497626D01*
X0526748Y0492060D01*
X0521631Y0486368D01*
X0516653Y0480553D01*
X0511817Y0474619D01*
X0507128Y0468569D01*
X0502587Y0462407D01*
X0498197Y0456136D01*
X0493960Y0449761D01*
X0489880Y0443285D01*
X0485959Y0436711D01*
X0482198Y0430044D01*
X0478600Y0423287D01*
X0475168Y0416445D01*
X0475168Y0140855D02*
X0478524Y0134161D01*
X0482038Y0127548D01*
X0485708Y0121021D01*
X0489533Y0114584D01*
X0493509Y0108239D01*
X0497635Y0101990D01*
X0501908Y0095841D01*
X0506327Y0089795D01*
X0510888Y0083856D01*
X0515589Y0078028D01*
X0520427Y0072312D01*
X0525399Y0066714D01*
X0530503Y0061235D01*
X0535736Y0055879D01*
X0541095Y0050648D01*
X0546577Y0045547D01*
X0552178Y0040578D01*
X0557896Y0035743D01*
X0563728Y0031045D01*
X0569669Y0026488D01*
X0575717Y0022072D01*
X0581868Y0017802D01*
X0588119Y0013680D01*
X0594466Y0009707D01*
X0600906Y0005886D01*
X0915866Y0005886D01*
M02*
