G75*
%MOIN*%
%OFA0B0*%
%FSLAX25Y25*%
%IPPOS*%
%LPD*%
%AMOC8*
5,1,8,0,0,1.08239X$1,22.5*
%
%ADD10R,0.27178X0.27178*%
%ADD11R,0.12611X0.07099*%
%ADD12R,0.07099X0.07887*%
%ADD13R,0.05524X0.03950*%
%ADD14R,0.03950X0.05524*%
%ADD15R,0.06312X0.04737*%
%ADD16C,0.05950*%
%ADD17C,0.06800*%
%ADD18OC8,0.06800*%
%ADD19C,0.06800*%
%ADD20C,0.04762*%
D10*
X0458806Y0163441D03*
D11*
X0481444Y0172496D03*
X0481444Y0154386D03*
D12*
X0497979Y0154583D03*
X0509003Y0154583D03*
X0509436Y0174268D03*
X0498412Y0174268D03*
D13*
X0515696Y0167929D03*
X0515696Y0160843D03*
X0456325Y0224504D03*
X0456325Y0231591D03*
X0502034Y0082496D03*
X0502034Y0075409D03*
X0470499Y0078480D03*
X0470499Y0071394D03*
X0501995Y0060370D03*
X0501995Y0053283D03*
X0454160Y0050055D03*
X0443530Y0050055D03*
X0443530Y0057142D03*
X0454160Y0057142D03*
X0437034Y0073874D03*
X0437034Y0080961D03*
D14*
X0500341Y0136945D03*
X0507428Y0136945D03*
X0507034Y0145173D03*
X0499948Y0145173D03*
X0500381Y0183756D03*
X0507467Y0183756D03*
X0507467Y0192457D03*
X0500381Y0192457D03*
X0508097Y0205331D03*
X0515184Y0205331D03*
X0514987Y0212417D03*
X0507900Y0212417D03*
X0497625Y0217142D03*
X0490538Y0217142D03*
X0477034Y0238402D03*
X0469948Y0238402D03*
D15*
X0469436Y0231709D03*
X0478097Y0227969D03*
X0469436Y0224228D03*
X0462113Y0078520D03*
X0453451Y0074780D03*
X0462113Y0071039D03*
D16*
X0416286Y0118402D03*
X0520853Y0119976D03*
D17*
X0512231Y0106984D03*
X0512231Y0099110D03*
X0512231Y0091236D03*
X0512231Y0083362D03*
X0512231Y0075488D03*
X0512231Y0067614D03*
X0512231Y0059740D03*
X0512231Y0051866D03*
X0512231Y0043992D03*
X0512231Y0036118D03*
X0425617Y0036118D03*
X0425617Y0043992D03*
X0425617Y0051866D03*
X0425617Y0059740D03*
X0425617Y0067614D03*
X0425617Y0075488D03*
X0425617Y0083362D03*
X0425617Y0091236D03*
X0425617Y0099110D03*
X0425617Y0106984D03*
X0407940Y0205213D03*
D18*
X0417940Y0205213D03*
X0427940Y0205213D03*
X0427940Y0215213D03*
X0417940Y0215213D03*
X0407940Y0215213D03*
D19*
X0523877Y0219819D02*
X0529877Y0219819D01*
X0529877Y0229819D02*
X0523877Y0229819D01*
X0523877Y0239819D02*
X0529877Y0239819D01*
X0529877Y0249819D02*
X0523877Y0249819D01*
X0523877Y0209819D02*
X0529877Y0209819D01*
X0529877Y0199819D02*
X0523877Y0199819D01*
X0523877Y0189819D02*
X0529877Y0189819D01*
X0529877Y0179819D02*
X0523877Y0179819D01*
X0523877Y0169819D02*
X0529877Y0169819D01*
X0529877Y0159819D02*
X0523877Y0159819D01*
X0523877Y0099937D02*
X0529877Y0099937D01*
X0529877Y0089937D02*
X0523877Y0089937D01*
X0523877Y0079937D02*
X0529877Y0079937D01*
X0529877Y0069937D02*
X0523877Y0069937D01*
X0523877Y0059937D02*
X0529877Y0059937D01*
X0529877Y0049937D02*
X0523877Y0049937D01*
X0523877Y0039937D02*
X0529877Y0039937D01*
X0529877Y0029937D02*
X0523877Y0029937D01*
X0523877Y0019937D02*
X0529877Y0019937D01*
X0529877Y0009937D02*
X0523877Y0009937D01*
D20*
X0448845Y0067535D03*
X0437034Y0068717D03*
X0494908Y0122260D03*
X0508294Y0125409D03*
X0518136Y0141551D03*
X0507507Y0162024D03*
X0481916Y0166354D03*
X0431916Y0167142D03*
X0406325Y0161630D03*
X0431129Y0149819D03*
X0420892Y0142339D03*
X0413018Y0132890D03*
X0456719Y0136039D03*
X0461050Y0141157D03*
X0467743Y0145488D03*
X0420499Y0179740D03*
X0435066Y0189189D03*
X0403176Y0189583D03*
X0402388Y0197063D03*
X0398058Y0210055D03*
X0449239Y0224622D03*
X0468924Y0216748D03*
X0483491Y0216748D03*
X0450026Y0231315D03*
X0445696Y0238795D03*
X0502388Y0198244D03*
X0511837Y0198638D03*
M02*
