G75*
%MOIN*%
%OFA0B0*%
%FSLAX25Y25*%
%IPPOS*%
%LPD*%
%AMOC8*
5,1,8,0,0,1.08239X$1,22.5*
%
%ADD10C,0.00000*%
%ADD11R,0.04724X0.03150*%
%ADD12R,0.04724X0.05512*%
%ADD13R,0.05512X0.04724*%
%ADD14R,0.03150X0.04724*%
%ADD15C,0.05150*%
%ADD16R,0.06102X0.05118*%
%ADD17R,0.05118X0.06102*%
%ADD18C,0.06000*%
%ADD19OC8,0.06000*%
%ADD20C,0.06000*%
%ADD21R,0.05000X0.10000*%
%ADD22R,0.05800X0.02000*%
%ADD23R,0.02000X0.05800*%
%ADD24C,0.01000*%
%ADD25C,0.03962*%
%ADD26C,0.02400*%
D10*
X0393333Y0001000D02*
X0391365Y0258087D01*
X0544514Y0258087D01*
X0544908Y0001000D01*
X0393333Y0001000D01*
D11*
X0439790Y0162181D03*
X0439790Y0169268D03*
X0502979Y0166827D03*
X0513412Y0166906D03*
X0513412Y0173992D03*
X0502979Y0173913D03*
X0443727Y0211315D03*
X0443727Y0218402D03*
D12*
X0431995Y0132732D03*
X0420184Y0132732D03*
X0502231Y0134228D03*
X0514042Y0134228D03*
D13*
X0403018Y0169976D03*
X0403018Y0181787D03*
X0453806Y0203362D03*
X0453806Y0215173D03*
D14*
X0419908Y0188402D03*
X0412822Y0188402D03*
X0444672Y0152181D03*
X0451759Y0152181D03*
X0446995Y0141945D03*
X0439908Y0141945D03*
X0488845Y0143913D03*
X0495932Y0143913D03*
D15*
X0520853Y0119976D03*
X0416286Y0118402D03*
D16*
X0405459Y0228638D03*
X0442861Y0228638D03*
X0442861Y0246354D03*
X0405459Y0246354D03*
D17*
X0411365Y0179780D03*
X0429081Y0179780D03*
X0429081Y0142378D03*
X0411365Y0142378D03*
D18*
X0425617Y0106984D03*
X0425617Y0099110D03*
X0425617Y0091236D03*
X0425617Y0083362D03*
X0425617Y0075488D03*
X0425617Y0067614D03*
X0425617Y0059740D03*
X0425617Y0051866D03*
X0425617Y0043992D03*
X0425617Y0036118D03*
X0512231Y0036118D03*
X0512231Y0043992D03*
X0512231Y0051866D03*
X0512231Y0059740D03*
X0512231Y0067614D03*
X0512231Y0075488D03*
X0512231Y0083362D03*
X0512231Y0091236D03*
X0512231Y0099110D03*
X0512231Y0106984D03*
X0407940Y0205213D03*
D19*
X0417940Y0205213D03*
X0427940Y0205213D03*
X0427940Y0215213D03*
X0417940Y0215213D03*
X0407940Y0215213D03*
D20*
X0523877Y0219819D02*
X0529877Y0219819D01*
X0529877Y0229819D02*
X0523877Y0229819D01*
X0523877Y0239819D02*
X0529877Y0239819D01*
X0529877Y0249819D02*
X0523877Y0249819D01*
X0523877Y0209819D02*
X0529877Y0209819D01*
X0529877Y0199819D02*
X0523877Y0199819D01*
X0523877Y0189819D02*
X0529877Y0189819D01*
X0529877Y0179819D02*
X0523877Y0179819D01*
X0523877Y0169819D02*
X0529877Y0169819D01*
X0529877Y0159819D02*
X0523877Y0159819D01*
X0523877Y0099937D02*
X0529877Y0099937D01*
X0529877Y0089937D02*
X0523877Y0089937D01*
X0523877Y0079937D02*
X0529877Y0079937D01*
X0529877Y0069937D02*
X0523877Y0069937D01*
X0523877Y0059937D02*
X0529877Y0059937D01*
X0529877Y0049937D02*
X0523877Y0049937D01*
X0523877Y0039937D02*
X0529877Y0039937D01*
X0529877Y0029937D02*
X0523877Y0029937D01*
X0523877Y0019937D02*
X0529877Y0019937D01*
X0529877Y0009937D02*
X0523877Y0009937D01*
D21*
X0497388Y0205744D03*
X0487388Y0205744D03*
X0477388Y0205744D03*
X0467388Y0205744D03*
X0467388Y0240744D03*
X0477388Y0240744D03*
X0487388Y0240744D03*
X0497388Y0240744D03*
D22*
X0490478Y0178969D03*
X0490478Y0175869D03*
X0490478Y0172669D03*
X0490478Y0169569D03*
X0490478Y0166369D03*
X0490478Y0163269D03*
X0490478Y0160069D03*
X0490478Y0156969D03*
X0458078Y0156969D03*
X0458078Y0160069D03*
X0458078Y0163269D03*
X0458078Y0166369D03*
X0458078Y0169569D03*
X0458078Y0172669D03*
X0458078Y0175869D03*
X0458078Y0178969D03*
D23*
X0463278Y0184169D03*
X0466378Y0184169D03*
X0469578Y0184169D03*
X0472678Y0184169D03*
X0475878Y0184169D03*
X0478978Y0184169D03*
X0482178Y0184169D03*
X0485278Y0184169D03*
X0485278Y0151769D03*
X0482178Y0151769D03*
X0478978Y0151769D03*
X0475878Y0151769D03*
X0472678Y0151769D03*
X0469578Y0151769D03*
X0466378Y0151769D03*
X0463278Y0151769D03*
D24*
X0460978Y0151775D02*
X0454633Y0151775D01*
X0454633Y0150777D02*
X0460978Y0150777D01*
X0460978Y0149778D02*
X0454633Y0149778D01*
X0454633Y0149280D02*
X0454633Y0154675D01*
X0454640Y0154669D01*
X0460978Y0154669D01*
X0460978Y0148330D01*
X0461740Y0147569D01*
X0464817Y0147569D01*
X0464828Y0147580D01*
X0464840Y0147569D01*
X0465183Y0147569D01*
X0464961Y0147347D01*
X0464462Y0146141D01*
X0464462Y0144836D01*
X0464961Y0143630D01*
X0465633Y0142957D01*
X0463856Y0142957D01*
X0463831Y0143016D01*
X0462908Y0143939D01*
X0461703Y0144439D01*
X0460397Y0144439D01*
X0459191Y0143939D01*
X0458268Y0143016D01*
X0457769Y0141810D01*
X0457769Y0140505D01*
X0458268Y0139299D01*
X0459191Y0138376D01*
X0460397Y0137876D01*
X0461703Y0137876D01*
X0462908Y0138376D01*
X0463831Y0139299D01*
X0463856Y0139357D01*
X0469669Y0139357D01*
X0470724Y0140412D01*
X0474078Y0143766D01*
X0474078Y0143739D01*
X0468178Y0137839D01*
X0459525Y0137839D01*
X0459501Y0137898D01*
X0458578Y0138821D01*
X0457372Y0139320D01*
X0456066Y0139320D01*
X0454861Y0138821D01*
X0453938Y0137898D01*
X0453438Y0136692D01*
X0453438Y0135387D01*
X0453938Y0134181D01*
X0454861Y0133258D01*
X0456066Y0132758D01*
X0457372Y0132758D01*
X0458578Y0133258D01*
X0459501Y0134181D01*
X0459525Y0134239D01*
X0467728Y0134239D01*
X0457507Y0124018D01*
X0448795Y0132730D01*
X0448795Y0138283D01*
X0449108Y0138283D01*
X0449870Y0139044D01*
X0449870Y0144846D01*
X0449108Y0145607D01*
X0444881Y0145607D01*
X0444120Y0144846D01*
X0444120Y0139044D01*
X0444881Y0138283D01*
X0445195Y0138283D01*
X0445195Y0131239D01*
X0454961Y0121472D01*
X0434399Y0100910D01*
X0429525Y0100910D01*
X0429262Y0101546D01*
X0428053Y0102756D01*
X0427348Y0103047D01*
X0428053Y0103339D01*
X0429262Y0104548D01*
X0429917Y0106129D01*
X0429917Y0107840D01*
X0429262Y0109420D01*
X0428053Y0110630D01*
X0427417Y0110893D01*
X0427417Y0126239D01*
X0427543Y0126365D01*
X0428598Y0127420D01*
X0428598Y0129173D01*
X0429094Y0128676D01*
X0434895Y0128676D01*
X0435657Y0129438D01*
X0435657Y0130696D01*
X0440142Y0130696D01*
X0440654Y0131208D01*
X0441708Y0132262D01*
X0441708Y0138283D01*
X0442021Y0138283D01*
X0442783Y0139044D01*
X0442783Y0144846D01*
X0442021Y0145607D01*
X0437795Y0145607D01*
X0437033Y0144846D01*
X0437033Y0139044D01*
X0437795Y0138283D01*
X0438108Y0138283D01*
X0438108Y0134296D01*
X0435657Y0134296D01*
X0435657Y0136027D01*
X0434895Y0136788D01*
X0429699Y0136788D01*
X0430881Y0137971D01*
X0430881Y0138027D01*
X0432179Y0138027D01*
X0432940Y0138788D01*
X0432940Y0145968D01*
X0432198Y0146710D01*
X0432987Y0147037D01*
X0433910Y0147960D01*
X0434410Y0149166D01*
X0434410Y0150381D01*
X0441797Y0150381D01*
X0441797Y0149280D01*
X0442559Y0148519D01*
X0446785Y0148519D01*
X0447547Y0149280D01*
X0447547Y0155082D01*
X0446785Y0155843D01*
X0442559Y0155843D01*
X0441797Y0155082D01*
X0441797Y0153981D01*
X0432745Y0153981D01*
X0431840Y0153076D01*
X0431781Y0153100D01*
X0430476Y0153100D01*
X0429270Y0152600D01*
X0428347Y0151677D01*
X0427848Y0150472D01*
X0427848Y0150134D01*
X0425842Y0152139D01*
X0425842Y0166790D01*
X0429906Y0170854D01*
X0430960Y0171908D01*
X0430960Y0175395D01*
X0431232Y0175123D01*
X0432286Y0174069D01*
X0453878Y0174069D01*
X0453878Y0171130D01*
X0453890Y0171119D01*
X0453878Y0171107D01*
X0453878Y0171068D01*
X0443452Y0171068D01*
X0443452Y0171381D01*
X0442691Y0172143D01*
X0436889Y0172143D01*
X0436128Y0171381D01*
X0436128Y0167154D01*
X0436889Y0166393D01*
X0442691Y0166393D01*
X0443452Y0167154D01*
X0443452Y0167468D01*
X0448594Y0167468D01*
X0448226Y0167100D01*
X0445107Y0163981D01*
X0443452Y0163981D01*
X0443452Y0164294D01*
X0442691Y0165056D01*
X0436889Y0165056D01*
X0436128Y0164294D01*
X0436128Y0163824D01*
X0435106Y0163824D01*
X0434244Y0164829D01*
X0434698Y0165283D01*
X0435197Y0166489D01*
X0435197Y0167794D01*
X0434698Y0169000D01*
X0433775Y0169923D01*
X0432569Y0170423D01*
X0431263Y0170423D01*
X0430057Y0169923D01*
X0429134Y0169000D01*
X0428635Y0167794D01*
X0428635Y0166489D01*
X0429134Y0165283D01*
X0430057Y0164360D01*
X0430078Y0164352D01*
X0430064Y0164174D01*
X0430116Y0164114D01*
X0430116Y0164034D01*
X0430594Y0163556D01*
X0432478Y0161358D01*
X0432478Y0161278D01*
X0432957Y0160800D01*
X0433397Y0160286D01*
X0433476Y0160280D01*
X0433533Y0160224D01*
X0434209Y0160224D01*
X0434884Y0160172D01*
X0434944Y0160224D01*
X0436128Y0160224D01*
X0436128Y0160068D01*
X0436889Y0159306D01*
X0442691Y0159306D01*
X0443452Y0160068D01*
X0443452Y0160381D01*
X0446599Y0160381D01*
X0450772Y0164554D01*
X0453878Y0164554D01*
X0453878Y0161868D01*
X0452837Y0161868D01*
X0451783Y0160814D01*
X0449959Y0158990D01*
X0449959Y0155843D01*
X0449645Y0155843D01*
X0448884Y0155082D01*
X0448884Y0149280D01*
X0449645Y0148519D01*
X0453872Y0148519D01*
X0454633Y0149280D01*
X0454133Y0148780D02*
X0460978Y0148780D01*
X0461527Y0147781D02*
X0433731Y0147781D01*
X0434250Y0148780D02*
X0442298Y0148780D01*
X0441797Y0149778D02*
X0434410Y0149778D01*
X0433491Y0152181D02*
X0444672Y0152181D01*
X0447547Y0151775D02*
X0448884Y0151775D01*
X0448884Y0150777D02*
X0447547Y0150777D01*
X0447547Y0149778D02*
X0448884Y0149778D01*
X0449384Y0148780D02*
X0447046Y0148780D01*
X0449870Y0144786D02*
X0464482Y0144786D01*
X0464462Y0145784D02*
X0432940Y0145784D01*
X0432940Y0144786D02*
X0437033Y0144786D01*
X0437033Y0143787D02*
X0432940Y0143787D01*
X0432940Y0142789D02*
X0437033Y0142789D01*
X0437033Y0141790D02*
X0432940Y0141790D01*
X0432940Y0140792D02*
X0437033Y0140792D01*
X0437033Y0139793D02*
X0432940Y0139793D01*
X0432940Y0138795D02*
X0437283Y0138795D01*
X0438108Y0137796D02*
X0430706Y0137796D01*
X0429708Y0136798D02*
X0438108Y0136798D01*
X0438108Y0135799D02*
X0435657Y0135799D01*
X0435657Y0134801D02*
X0438108Y0134801D01*
X0439908Y0133008D02*
X0439908Y0141945D01*
X0442783Y0141790D02*
X0444120Y0141790D01*
X0444120Y0140792D02*
X0442783Y0140792D01*
X0442783Y0139793D02*
X0444120Y0139793D01*
X0444370Y0138795D02*
X0442533Y0138795D01*
X0441708Y0137796D02*
X0445195Y0137796D01*
X0445195Y0136798D02*
X0441708Y0136798D01*
X0441708Y0135799D02*
X0445195Y0135799D01*
X0445195Y0134801D02*
X0441708Y0134801D01*
X0441708Y0133802D02*
X0445195Y0133802D01*
X0445195Y0132803D02*
X0441708Y0132803D01*
X0441251Y0131805D02*
X0445195Y0131805D01*
X0445627Y0130806D02*
X0440252Y0130806D01*
X0439396Y0132496D02*
X0439908Y0133008D01*
X0439396Y0132496D02*
X0431916Y0132496D01*
X0430459Y0133953D01*
X0431995Y0132732D01*
X0431050Y0132890D01*
X0426798Y0136433D02*
X0426798Y0128165D01*
X0425617Y0126984D01*
X0425617Y0106984D01*
X0429917Y0106842D02*
X0440331Y0106842D01*
X0441329Y0107841D02*
X0429916Y0107841D01*
X0429503Y0108839D02*
X0442328Y0108839D01*
X0443326Y0109838D02*
X0428844Y0109838D01*
X0427554Y0110836D02*
X0444325Y0110836D01*
X0445323Y0111835D02*
X0427417Y0111835D01*
X0427417Y0112833D02*
X0446322Y0112833D01*
X0447320Y0113832D02*
X0427417Y0113832D01*
X0427417Y0114830D02*
X0448319Y0114830D01*
X0449317Y0115829D02*
X0427417Y0115829D01*
X0427417Y0116827D02*
X0450316Y0116827D01*
X0451314Y0117826D02*
X0427417Y0117826D01*
X0427417Y0118824D02*
X0452313Y0118824D01*
X0453311Y0119823D02*
X0427417Y0119823D01*
X0427417Y0120821D02*
X0454310Y0120821D01*
X0454614Y0121820D02*
X0427417Y0121820D01*
X0427417Y0122818D02*
X0453615Y0122818D01*
X0452617Y0123817D02*
X0427417Y0123817D01*
X0427417Y0124815D02*
X0451618Y0124815D01*
X0450619Y0125814D02*
X0427417Y0125814D01*
X0427991Y0126812D02*
X0449621Y0126812D01*
X0448622Y0127811D02*
X0428598Y0127811D01*
X0428598Y0128809D02*
X0428961Y0128809D01*
X0424998Y0128911D02*
X0423817Y0127730D01*
X0423817Y0110893D01*
X0423181Y0110630D01*
X0421971Y0109420D01*
X0421317Y0107840D01*
X0421317Y0106129D01*
X0421971Y0104548D01*
X0423181Y0103339D01*
X0423885Y0103047D01*
X0423181Y0102756D01*
X0421971Y0101546D01*
X0421317Y0099966D01*
X0421317Y0098255D01*
X0421971Y0096674D01*
X0423181Y0095465D01*
X0423885Y0095173D01*
X0423181Y0094882D01*
X0421971Y0093672D01*
X0421317Y0092092D01*
X0421317Y0090381D01*
X0421971Y0088800D01*
X0423181Y0087591D01*
X0423885Y0087299D01*
X0423181Y0087008D01*
X0421971Y0085798D01*
X0421317Y0084218D01*
X0421317Y0082507D01*
X0421971Y0080926D01*
X0423181Y0079717D01*
X0423885Y0079425D01*
X0423181Y0079134D01*
X0421971Y0077924D01*
X0421317Y0076344D01*
X0421317Y0074633D01*
X0421971Y0073052D01*
X0423181Y0071843D01*
X0423885Y0071551D01*
X0423181Y0071260D01*
X0421971Y0070050D01*
X0421317Y0068469D01*
X0421317Y0066759D01*
X0421971Y0065178D01*
X0423181Y0063969D01*
X0423885Y0063677D01*
X0423181Y0063386D01*
X0421971Y0062176D01*
X0421317Y0060595D01*
X0421317Y0058885D01*
X0421971Y0057304D01*
X0423181Y0056095D01*
X0423885Y0055803D01*
X0423181Y0055511D01*
X0421971Y0054302D01*
X0421317Y0052721D01*
X0421317Y0051011D01*
X0421971Y0049430D01*
X0423181Y0048221D01*
X0423885Y0047929D01*
X0423181Y0047637D01*
X0421971Y0046428D01*
X0421317Y0044847D01*
X0421317Y0043137D01*
X0421971Y0041556D01*
X0423181Y0040347D01*
X0423885Y0040055D01*
X0423181Y0039763D01*
X0421971Y0038554D01*
X0421317Y0036973D01*
X0421317Y0035263D01*
X0421971Y0033682D01*
X0423181Y0032473D01*
X0424761Y0031818D01*
X0426472Y0031818D01*
X0428053Y0032473D01*
X0429262Y0033682D01*
X0429917Y0035263D01*
X0429917Y0036973D01*
X0429262Y0038554D01*
X0428053Y0039763D01*
X0427348Y0040055D01*
X0428053Y0040347D01*
X0429262Y0041556D01*
X0429917Y0043137D01*
X0429917Y0044847D01*
X0429262Y0046428D01*
X0428053Y0047637D01*
X0427348Y0047929D01*
X0428053Y0048221D01*
X0429262Y0049430D01*
X0429917Y0051011D01*
X0429917Y0052721D01*
X0429262Y0054302D01*
X0428053Y0055511D01*
X0427348Y0055803D01*
X0428053Y0056095D01*
X0429262Y0057304D01*
X0429917Y0058885D01*
X0429917Y0060595D01*
X0429262Y0062176D01*
X0428053Y0063386D01*
X0427348Y0063677D01*
X0428053Y0063969D01*
X0429262Y0065178D01*
X0429917Y0066759D01*
X0429917Y0068469D01*
X0429262Y0070050D01*
X0428053Y0071260D01*
X0427348Y0071551D01*
X0428053Y0071843D01*
X0429262Y0073052D01*
X0429917Y0074633D01*
X0429917Y0076344D01*
X0429262Y0077924D01*
X0428053Y0079134D01*
X0427348Y0079425D01*
X0428053Y0079717D01*
X0429262Y0080926D01*
X0429917Y0082507D01*
X0429917Y0084218D01*
X0429262Y0085798D01*
X0428053Y0087008D01*
X0427348Y0087299D01*
X0428053Y0087591D01*
X0429262Y0088800D01*
X0429525Y0089436D01*
X0436284Y0089436D01*
X0461992Y0115145D01*
X0518567Y0115145D01*
X0519622Y0116199D01*
X0519687Y0116265D01*
X0520082Y0116102D01*
X0521624Y0116102D01*
X0523048Y0116691D01*
X0524138Y0117781D01*
X0524728Y0119206D01*
X0524728Y0120747D01*
X0524138Y0122171D01*
X0523048Y0123261D01*
X0521624Y0123851D01*
X0520082Y0123851D01*
X0518658Y0123261D01*
X0517568Y0122171D01*
X0516978Y0120747D01*
X0516978Y0119206D01*
X0517142Y0118811D01*
X0517076Y0118745D01*
X0512049Y0118745D01*
X0523606Y0130302D01*
X0524661Y0131357D01*
X0524661Y0147809D01*
X0513701Y0158768D01*
X0508222Y0158768D01*
X0509365Y0159242D01*
X0510288Y0160165D01*
X0510788Y0161371D01*
X0510788Y0162676D01*
X0510288Y0163882D01*
X0509365Y0164805D01*
X0508830Y0165027D01*
X0509750Y0165027D01*
X0509750Y0164792D01*
X0510511Y0164031D01*
X0516313Y0164031D01*
X0517074Y0164792D01*
X0517074Y0169019D01*
X0516313Y0169780D01*
X0510511Y0169780D01*
X0509750Y0169019D01*
X0509750Y0168627D01*
X0506641Y0168627D01*
X0506641Y0168940D01*
X0505880Y0169702D01*
X0500078Y0169702D01*
X0499455Y0169078D01*
X0497664Y0170869D01*
X0499606Y0170869D01*
X0499927Y0171190D01*
X0500078Y0171039D01*
X0505880Y0171039D01*
X0506641Y0171800D01*
X0506641Y0172113D01*
X0509750Y0172113D01*
X0509750Y0171879D01*
X0510511Y0171117D01*
X0516313Y0171117D01*
X0517074Y0171879D01*
X0517074Y0176105D01*
X0516313Y0176867D01*
X0510511Y0176867D01*
X0509750Y0176105D01*
X0509750Y0175713D01*
X0506641Y0175713D01*
X0506641Y0176027D01*
X0505880Y0176788D01*
X0500078Y0176788D01*
X0499317Y0176027D01*
X0499317Y0175635D01*
X0499281Y0175635D01*
X0498226Y0174580D01*
X0498115Y0174468D01*
X0494678Y0174468D01*
X0494678Y0177169D01*
X0496063Y0177169D01*
X0498410Y0179515D01*
X0499464Y0180569D01*
X0499464Y0196730D01*
X0499607Y0196385D01*
X0500530Y0195463D01*
X0501736Y0194963D01*
X0503041Y0194963D01*
X0503243Y0195046D01*
X0519577Y0180289D01*
X0519577Y0178964D01*
X0520231Y0177383D01*
X0521441Y0176174D01*
X0523021Y0175519D01*
X0530732Y0175519D01*
X0532312Y0176174D01*
X0533522Y0177383D01*
X0534177Y0178964D01*
X0534177Y0180674D01*
X0533522Y0182255D01*
X0532312Y0183464D01*
X0530732Y0184119D01*
X0523021Y0184119D01*
X0521441Y0183464D01*
X0521437Y0183460D01*
X0505670Y0197706D01*
X0505670Y0198897D01*
X0505170Y0200103D01*
X0504247Y0201026D01*
X0503041Y0201525D01*
X0501736Y0201525D01*
X0501188Y0201298D01*
X0501188Y0211283D01*
X0500427Y0212044D01*
X0494350Y0212044D01*
X0493588Y0211283D01*
X0493588Y0200206D01*
X0494350Y0199444D01*
X0495864Y0199444D01*
X0495864Y0182061D01*
X0494572Y0180768D01*
X0494417Y0180768D01*
X0493917Y0181268D01*
X0487578Y0181268D01*
X0487578Y0187607D01*
X0487078Y0188107D01*
X0487078Y0188656D01*
X0488134Y0189712D01*
X0489188Y0190766D01*
X0489188Y0199444D01*
X0490427Y0199444D01*
X0491188Y0200206D01*
X0491188Y0211283D01*
X0490427Y0212044D01*
X0484350Y0212044D01*
X0483588Y0211283D01*
X0483588Y0200206D01*
X0484350Y0199444D01*
X0485588Y0199444D01*
X0485588Y0192257D01*
X0483688Y0190357D01*
X0479188Y0194856D01*
X0479188Y0199444D01*
X0480427Y0199444D01*
X0481188Y0200206D01*
X0481188Y0211283D01*
X0480427Y0212044D01*
X0474350Y0212044D01*
X0473588Y0211283D01*
X0473588Y0200206D01*
X0474350Y0199444D01*
X0475588Y0199444D01*
X0475588Y0194125D01*
X0470269Y0199444D01*
X0470427Y0199444D01*
X0471188Y0200206D01*
X0471188Y0211283D01*
X0470427Y0212044D01*
X0464350Y0212044D01*
X0463588Y0211283D01*
X0463588Y0200206D01*
X0464350Y0199444D01*
X0465588Y0199444D01*
X0465588Y0199034D01*
X0466643Y0197980D01*
X0476254Y0188368D01*
X0474340Y0188368D01*
X0474278Y0188307D01*
X0474217Y0188368D01*
X0471140Y0188368D01*
X0471128Y0188357D01*
X0471117Y0188368D01*
X0468362Y0188368D01*
X0468362Y0190328D01*
X0467307Y0191383D01*
X0463370Y0195320D01*
X0447622Y0195320D01*
X0431826Y0211116D01*
X0430875Y0212067D01*
X0432240Y0213431D01*
X0432240Y0216994D01*
X0429721Y0219513D01*
X0426159Y0219513D01*
X0423640Y0216994D01*
X0423640Y0213431D01*
X0424901Y0212170D01*
X0423528Y0212170D01*
X0422240Y0213458D01*
X0422240Y0216994D01*
X0419721Y0219513D01*
X0416159Y0219513D01*
X0413640Y0216994D01*
X0413640Y0213431D01*
X0416159Y0210913D01*
X0419694Y0210913D01*
X0422037Y0208570D01*
X0425216Y0208570D01*
X0423640Y0206994D01*
X0423640Y0203431D01*
X0426159Y0200913D01*
X0429721Y0200913D01*
X0432240Y0203431D01*
X0432240Y0205611D01*
X0445077Y0192774D01*
X0446131Y0191720D01*
X0461879Y0191720D01*
X0464762Y0188837D01*
X0464762Y0188368D01*
X0464140Y0188368D01*
X0464024Y0188485D01*
X0462496Y0190013D01*
X0461441Y0191068D01*
X0459950Y0191068D01*
X0459871Y0190989D01*
X0437871Y0190989D01*
X0437847Y0191048D01*
X0436924Y0191971D01*
X0435718Y0192470D01*
X0434413Y0192470D01*
X0433207Y0191971D01*
X0432284Y0191048D01*
X0431785Y0189842D01*
X0431785Y0189189D01*
X0430772Y0190202D01*
X0422783Y0190202D01*
X0422783Y0191302D01*
X0422021Y0192064D01*
X0421708Y0192064D01*
X0421708Y0202900D01*
X0422240Y0203431D01*
X0422240Y0206994D01*
X0419721Y0209513D01*
X0416159Y0209513D01*
X0413640Y0206994D01*
X0413640Y0203431D01*
X0416159Y0200913D01*
X0418108Y0200913D01*
X0418108Y0192064D01*
X0417795Y0192064D01*
X0417033Y0191302D01*
X0417033Y0185501D01*
X0417795Y0184739D01*
X0422021Y0184739D01*
X0422783Y0185501D01*
X0422783Y0186602D01*
X0429281Y0186602D01*
X0431752Y0184131D01*
X0425984Y0184131D01*
X0425222Y0183369D01*
X0425222Y0181552D01*
X0423523Y0181540D01*
X0423305Y0181540D01*
X0423280Y0181599D01*
X0422357Y0182522D01*
X0421151Y0183021D01*
X0419846Y0183021D01*
X0418640Y0182522D01*
X0417717Y0181599D01*
X0417218Y0180393D01*
X0417218Y0179087D01*
X0417717Y0177882D01*
X0418640Y0176959D01*
X0419846Y0176459D01*
X0421151Y0176459D01*
X0422357Y0176959D01*
X0423280Y0177882D01*
X0423304Y0177939D01*
X0423536Y0177940D01*
X0424276Y0177940D01*
X0424281Y0177945D01*
X0425222Y0177952D01*
X0425222Y0176190D01*
X0425984Y0175428D01*
X0427360Y0175428D01*
X0427360Y0173399D01*
X0422242Y0168281D01*
X0422242Y0150648D01*
X0423296Y0149594D01*
X0426161Y0146729D01*
X0425984Y0146729D01*
X0425222Y0145968D01*
X0425222Y0138788D01*
X0425915Y0138096D01*
X0424998Y0137179D01*
X0424998Y0128911D01*
X0424896Y0128809D02*
X0423217Y0128809D01*
X0423084Y0128676D02*
X0423846Y0129438D01*
X0423846Y0136027D01*
X0423084Y0136788D01*
X0417283Y0136788D01*
X0416522Y0136027D01*
X0416522Y0134690D01*
X0415824Y0134690D01*
X0415800Y0134748D01*
X0414877Y0135671D01*
X0413671Y0136171D01*
X0412366Y0136171D01*
X0411160Y0135671D01*
X0410237Y0134748D01*
X0409737Y0133542D01*
X0409737Y0132237D01*
X0410237Y0131031D01*
X0411160Y0130108D01*
X0412366Y0129609D01*
X0413671Y0129609D01*
X0414877Y0130108D01*
X0415800Y0131031D01*
X0415824Y0131090D01*
X0416522Y0131090D01*
X0416522Y0129438D01*
X0417283Y0128676D01*
X0423084Y0128676D01*
X0423898Y0127811D02*
X0396862Y0127811D01*
X0396855Y0128809D02*
X0417150Y0128809D01*
X0416522Y0129808D02*
X0414152Y0129808D01*
X0415575Y0130806D02*
X0416522Y0130806D01*
X0416522Y0134801D02*
X0415748Y0134801D01*
X0416522Y0135799D02*
X0414569Y0135799D01*
X0414462Y0138027D02*
X0408267Y0138027D01*
X0407506Y0138788D01*
X0407506Y0145968D01*
X0408267Y0146729D01*
X0409565Y0146729D01*
X0409565Y0160877D01*
X0409107Y0159771D01*
X0408184Y0158848D01*
X0406978Y0158349D01*
X0405673Y0158349D01*
X0404467Y0158848D01*
X0403544Y0159771D01*
X0403044Y0160977D01*
X0403044Y0162283D01*
X0403069Y0162341D01*
X0402273Y0163137D01*
X0401218Y0164191D01*
X0401218Y0166314D01*
X0399724Y0166314D01*
X0398962Y0167076D01*
X0398962Y0172877D01*
X0399724Y0173639D01*
X0406313Y0173639D01*
X0407074Y0172877D01*
X0407074Y0167076D01*
X0406313Y0166314D01*
X0404818Y0166314D01*
X0404818Y0165683D01*
X0405614Y0164887D01*
X0405673Y0164911D01*
X0406978Y0164911D01*
X0408184Y0164411D01*
X0409107Y0163489D01*
X0409565Y0162383D01*
X0409565Y0175428D01*
X0408267Y0175428D01*
X0407506Y0176190D01*
X0407506Y0183369D01*
X0408267Y0184131D01*
X0414462Y0184131D01*
X0415224Y0183369D01*
X0415224Y0176190D01*
X0414462Y0175428D01*
X0413165Y0175428D01*
X0413165Y0146729D01*
X0414462Y0146729D01*
X0415224Y0145968D01*
X0415224Y0144178D01*
X0418103Y0144178D01*
X0418111Y0144197D01*
X0419034Y0145120D01*
X0420240Y0145620D01*
X0421545Y0145620D01*
X0422751Y0145120D01*
X0423674Y0144197D01*
X0424173Y0142991D01*
X0424173Y0141686D01*
X0423674Y0140480D01*
X0422751Y0139557D01*
X0421545Y0139057D01*
X0420240Y0139057D01*
X0419034Y0139557D01*
X0418111Y0140480D01*
X0418070Y0140578D01*
X0415224Y0140578D01*
X0415224Y0138788D01*
X0414462Y0138027D01*
X0415224Y0138795D02*
X0425222Y0138795D01*
X0425222Y0139793D02*
X0422987Y0139793D01*
X0423803Y0140792D02*
X0425222Y0140792D01*
X0425222Y0141790D02*
X0424173Y0141790D01*
X0424173Y0142789D02*
X0425222Y0142789D01*
X0425222Y0143787D02*
X0423844Y0143787D01*
X0423085Y0144786D02*
X0425222Y0144786D01*
X0425222Y0145784D02*
X0415224Y0145784D01*
X0415224Y0144786D02*
X0418699Y0144786D01*
X0420853Y0142378D02*
X0411365Y0142378D01*
X0411365Y0179780D01*
X0415224Y0179734D02*
X0417218Y0179734D01*
X0417358Y0180732D02*
X0415224Y0180732D01*
X0415224Y0181731D02*
X0417849Y0181731D01*
X0419141Y0182729D02*
X0415224Y0182729D01*
X0414865Y0183728D02*
X0425581Y0183728D01*
X0425222Y0182729D02*
X0421857Y0182729D01*
X0423148Y0181731D02*
X0425222Y0181731D01*
X0423530Y0179740D02*
X0420499Y0179740D01*
X0423530Y0179740D02*
X0429081Y0179780D01*
X0429160Y0179701D01*
X0429160Y0172654D01*
X0424042Y0167535D01*
X0424042Y0151394D01*
X0429081Y0146354D01*
X0429081Y0142378D01*
X0429081Y0138717D01*
X0426798Y0136433D01*
X0425615Y0137796D02*
X0396786Y0137796D01*
X0396794Y0136798D02*
X0424998Y0136798D01*
X0424998Y0135799D02*
X0423846Y0135799D01*
X0423846Y0134801D02*
X0424998Y0134801D01*
X0424998Y0133802D02*
X0423846Y0133802D01*
X0423846Y0132803D02*
X0424998Y0132803D01*
X0424998Y0131805D02*
X0423846Y0131805D01*
X0423846Y0130806D02*
X0424998Y0130806D01*
X0424998Y0129808D02*
X0423846Y0129808D01*
X0423817Y0126812D02*
X0396870Y0126812D01*
X0396878Y0125814D02*
X0423817Y0125814D01*
X0423817Y0124815D02*
X0396885Y0124815D01*
X0396893Y0123817D02*
X0423817Y0123817D01*
X0423817Y0122818D02*
X0396901Y0122818D01*
X0396908Y0121820D02*
X0414413Y0121820D01*
X0414091Y0121686D02*
X0413001Y0120596D01*
X0412411Y0119172D01*
X0412411Y0117631D01*
X0413001Y0116207D01*
X0414091Y0115117D01*
X0415515Y0114527D01*
X0417057Y0114527D01*
X0418481Y0115117D01*
X0419571Y0116207D01*
X0420161Y0117631D01*
X0420161Y0119172D01*
X0419571Y0120596D01*
X0418481Y0121686D01*
X0417057Y0122276D01*
X0415515Y0122276D01*
X0414091Y0121686D01*
X0413226Y0120821D02*
X0396916Y0120821D01*
X0396924Y0119823D02*
X0412681Y0119823D01*
X0412411Y0118824D02*
X0396931Y0118824D01*
X0396939Y0117826D02*
X0412411Y0117826D01*
X0412744Y0116827D02*
X0396947Y0116827D01*
X0396954Y0115829D02*
X0413379Y0115829D01*
X0414783Y0114830D02*
X0396962Y0114830D01*
X0396969Y0113832D02*
X0423817Y0113832D01*
X0423817Y0114830D02*
X0417790Y0114830D01*
X0419193Y0115829D02*
X0423817Y0115829D01*
X0423817Y0116827D02*
X0419828Y0116827D01*
X0420161Y0117826D02*
X0423817Y0117826D01*
X0423817Y0118824D02*
X0420161Y0118824D01*
X0419891Y0119823D02*
X0423817Y0119823D01*
X0423817Y0120821D02*
X0419346Y0120821D01*
X0418159Y0121820D02*
X0423817Y0121820D01*
X0435028Y0128809D02*
X0447624Y0128809D01*
X0446625Y0129808D02*
X0435657Y0129808D01*
X0446995Y0131984D02*
X0457507Y0121472D01*
X0435144Y0099110D01*
X0425617Y0099110D01*
X0421684Y0100851D02*
X0397069Y0100851D01*
X0397077Y0099853D02*
X0421317Y0099853D01*
X0421317Y0098854D02*
X0397084Y0098854D01*
X0397092Y0097856D02*
X0421482Y0097856D01*
X0421896Y0096857D02*
X0397099Y0096857D01*
X0397107Y0095859D02*
X0422787Y0095859D01*
X0423160Y0094860D02*
X0397115Y0094860D01*
X0397122Y0093862D02*
X0422161Y0093862D01*
X0421636Y0092863D02*
X0397130Y0092863D01*
X0397138Y0091865D02*
X0421317Y0091865D01*
X0421317Y0090866D02*
X0397145Y0090866D01*
X0397153Y0089868D02*
X0421529Y0089868D01*
X0421943Y0088869D02*
X0397161Y0088869D01*
X0397168Y0087870D02*
X0422901Y0087870D01*
X0423045Y0086872D02*
X0397176Y0086872D01*
X0397184Y0085873D02*
X0422047Y0085873D01*
X0421589Y0084875D02*
X0397191Y0084875D01*
X0397199Y0083876D02*
X0421317Y0083876D01*
X0421317Y0082878D02*
X0397207Y0082878D01*
X0397214Y0081879D02*
X0421577Y0081879D01*
X0422017Y0080881D02*
X0397222Y0080881D01*
X0397229Y0079882D02*
X0423015Y0079882D01*
X0422931Y0078884D02*
X0397237Y0078884D01*
X0397245Y0077885D02*
X0421955Y0077885D01*
X0421542Y0076887D02*
X0397252Y0076887D01*
X0397260Y0075888D02*
X0421317Y0075888D01*
X0421317Y0074890D02*
X0397268Y0074890D01*
X0397275Y0073891D02*
X0421624Y0073891D01*
X0422131Y0072893D02*
X0397283Y0072893D01*
X0397291Y0071894D02*
X0423130Y0071894D01*
X0422817Y0070896D02*
X0397298Y0070896D01*
X0397306Y0069897D02*
X0421908Y0069897D01*
X0421495Y0068899D02*
X0397314Y0068899D01*
X0397321Y0067900D02*
X0421317Y0067900D01*
X0421317Y0066902D02*
X0397329Y0066902D01*
X0397336Y0065903D02*
X0421671Y0065903D01*
X0422245Y0064905D02*
X0397344Y0064905D01*
X0397352Y0063906D02*
X0423332Y0063906D01*
X0422703Y0062908D02*
X0397359Y0062908D01*
X0397367Y0061909D02*
X0421861Y0061909D01*
X0421447Y0060911D02*
X0397375Y0060911D01*
X0397382Y0059912D02*
X0421317Y0059912D01*
X0421317Y0058914D02*
X0397390Y0058914D01*
X0397398Y0057915D02*
X0421718Y0057915D01*
X0422359Y0056917D02*
X0397405Y0056917D01*
X0397413Y0055918D02*
X0423608Y0055918D01*
X0422589Y0054920D02*
X0397421Y0054920D01*
X0397428Y0053921D02*
X0421814Y0053921D01*
X0421400Y0052923D02*
X0397436Y0052923D01*
X0397444Y0051924D02*
X0421317Y0051924D01*
X0421352Y0050926D02*
X0397451Y0050926D01*
X0397459Y0049927D02*
X0421766Y0049927D01*
X0422473Y0048929D02*
X0397466Y0048929D01*
X0397474Y0047930D02*
X0423883Y0047930D01*
X0422475Y0046932D02*
X0397482Y0046932D01*
X0397489Y0045933D02*
X0421766Y0045933D01*
X0421353Y0044934D02*
X0397497Y0044934D01*
X0397505Y0043936D02*
X0421317Y0043936D01*
X0421399Y0042937D02*
X0397512Y0042937D01*
X0397520Y0041939D02*
X0421813Y0041939D01*
X0422587Y0040940D02*
X0397528Y0040940D01*
X0397535Y0039942D02*
X0423612Y0039942D01*
X0422361Y0038943D02*
X0397543Y0038943D01*
X0397551Y0037945D02*
X0421719Y0037945D01*
X0421317Y0036946D02*
X0397558Y0036946D01*
X0397566Y0035948D02*
X0421317Y0035948D01*
X0421447Y0034949D02*
X0397573Y0034949D01*
X0397581Y0033951D02*
X0421860Y0033951D01*
X0422701Y0032952D02*
X0397589Y0032952D01*
X0397596Y0031954D02*
X0424434Y0031954D01*
X0426800Y0031954D02*
X0511048Y0031954D01*
X0511376Y0031818D02*
X0513086Y0031818D01*
X0514667Y0032473D01*
X0515876Y0033682D01*
X0516531Y0035263D01*
X0516531Y0036973D01*
X0515876Y0038554D01*
X0514667Y0039763D01*
X0513963Y0040055D01*
X0514667Y0040347D01*
X0515876Y0041556D01*
X0516531Y0043137D01*
X0516531Y0044847D01*
X0515876Y0046428D01*
X0514667Y0047637D01*
X0513963Y0047929D01*
X0514667Y0048221D01*
X0515876Y0049430D01*
X0516531Y0051011D01*
X0516531Y0052721D01*
X0515876Y0054302D01*
X0514667Y0055511D01*
X0513963Y0055803D01*
X0514667Y0056095D01*
X0515876Y0057304D01*
X0516531Y0058885D01*
X0516531Y0060595D01*
X0515876Y0062176D01*
X0514667Y0063386D01*
X0513963Y0063677D01*
X0514667Y0063969D01*
X0515876Y0065178D01*
X0516531Y0066759D01*
X0516531Y0068469D01*
X0515876Y0070050D01*
X0514667Y0071260D01*
X0513963Y0071551D01*
X0514667Y0071843D01*
X0515876Y0073052D01*
X0516531Y0074633D01*
X0516531Y0076344D01*
X0515876Y0077924D01*
X0514667Y0079134D01*
X0513963Y0079425D01*
X0514667Y0079717D01*
X0515876Y0080926D01*
X0516531Y0082507D01*
X0516531Y0084218D01*
X0515876Y0085798D01*
X0514667Y0087008D01*
X0513963Y0087299D01*
X0514667Y0087591D01*
X0515876Y0088800D01*
X0516531Y0090381D01*
X0516531Y0092092D01*
X0515876Y0093672D01*
X0514667Y0094882D01*
X0513963Y0095173D01*
X0514667Y0095465D01*
X0515876Y0096674D01*
X0516531Y0098255D01*
X0516531Y0099966D01*
X0515876Y0101546D01*
X0514667Y0102756D01*
X0513963Y0103047D01*
X0514667Y0103339D01*
X0515876Y0104548D01*
X0516531Y0106129D01*
X0516531Y0107840D01*
X0515876Y0109420D01*
X0514667Y0110630D01*
X0513086Y0111284D01*
X0511376Y0111284D01*
X0509795Y0110630D01*
X0508586Y0109420D01*
X0507931Y0107840D01*
X0507931Y0106129D01*
X0508586Y0104548D01*
X0509795Y0103339D01*
X0510499Y0103047D01*
X0509795Y0102756D01*
X0508586Y0101546D01*
X0507931Y0099966D01*
X0507931Y0098255D01*
X0508586Y0096674D01*
X0509795Y0095465D01*
X0510499Y0095173D01*
X0509795Y0094882D01*
X0508586Y0093672D01*
X0507931Y0092092D01*
X0507931Y0090381D01*
X0508586Y0088800D01*
X0509795Y0087591D01*
X0510499Y0087299D01*
X0509795Y0087008D01*
X0508586Y0085798D01*
X0507931Y0084218D01*
X0507931Y0082507D01*
X0508586Y0080926D01*
X0509795Y0079717D01*
X0510499Y0079425D01*
X0509795Y0079134D01*
X0508586Y0077924D01*
X0507931Y0076344D01*
X0507931Y0074633D01*
X0508586Y0073052D01*
X0509795Y0071843D01*
X0510499Y0071551D01*
X0509795Y0071260D01*
X0508586Y0070050D01*
X0507931Y0068469D01*
X0507931Y0066759D01*
X0508586Y0065178D01*
X0509795Y0063969D01*
X0510499Y0063677D01*
X0509795Y0063386D01*
X0508586Y0062176D01*
X0507931Y0060595D01*
X0507931Y0058885D01*
X0508586Y0057304D01*
X0509795Y0056095D01*
X0510499Y0055803D01*
X0509795Y0055511D01*
X0508586Y0054302D01*
X0507931Y0052721D01*
X0507931Y0051011D01*
X0508586Y0049430D01*
X0509795Y0048221D01*
X0510499Y0047929D01*
X0509795Y0047637D01*
X0508586Y0046428D01*
X0507931Y0044847D01*
X0507931Y0043137D01*
X0508586Y0041556D01*
X0509795Y0040347D01*
X0510499Y0040055D01*
X0509795Y0039763D01*
X0508586Y0038554D01*
X0507931Y0036973D01*
X0507931Y0035263D01*
X0508586Y0033682D01*
X0509795Y0032473D01*
X0511376Y0031818D01*
X0513414Y0031954D02*
X0520058Y0031954D01*
X0520231Y0032373D02*
X0519577Y0030792D01*
X0519577Y0029346D01*
X0397616Y0029346D01*
X0396393Y0189095D01*
X0400039Y0185450D01*
X0399724Y0185450D01*
X0398962Y0184688D01*
X0398962Y0178887D01*
X0399724Y0178125D01*
X0406313Y0178125D01*
X0407074Y0178887D01*
X0407074Y0184688D01*
X0406313Y0185450D01*
X0404582Y0185450D01*
X0404582Y0185998D01*
X0404146Y0186433D01*
X0405034Y0186801D01*
X0405957Y0187724D01*
X0405982Y0187783D01*
X0409947Y0187783D01*
X0409947Y0185501D01*
X0410708Y0184739D01*
X0414935Y0184739D01*
X0415696Y0185501D01*
X0415696Y0191302D01*
X0414935Y0192064D01*
X0410708Y0192064D01*
X0410027Y0191383D01*
X0405982Y0191383D01*
X0405957Y0191441D01*
X0405034Y0192364D01*
X0403828Y0192864D01*
X0402523Y0192864D01*
X0401317Y0192364D01*
X0400394Y0191441D01*
X0400026Y0190553D01*
X0399858Y0190722D01*
X0399858Y0194954D01*
X0400530Y0194281D01*
X0401736Y0193782D01*
X0403041Y0193782D01*
X0404247Y0194281D01*
X0405170Y0195204D01*
X0405670Y0196410D01*
X0405670Y0197716D01*
X0405170Y0198922D01*
X0404247Y0199845D01*
X0404188Y0199869D01*
X0404188Y0203032D01*
X0404294Y0202777D01*
X0405504Y0201567D01*
X0407084Y0200913D01*
X0408795Y0200913D01*
X0410375Y0201567D01*
X0411585Y0202777D01*
X0412240Y0204357D01*
X0412240Y0206068D01*
X0411585Y0207648D01*
X0410375Y0208858D01*
X0408795Y0209513D01*
X0407084Y0209513D01*
X0405504Y0208858D01*
X0405435Y0208789D01*
X0407003Y0210913D01*
X0409721Y0210913D01*
X0412240Y0213431D01*
X0412240Y0216994D01*
X0409891Y0219343D01*
X0412189Y0221641D01*
X0428021Y0221641D01*
X0432745Y0216917D01*
X0440065Y0216917D01*
X0440065Y0216288D01*
X0440826Y0215527D01*
X0446628Y0215527D01*
X0447389Y0216288D01*
X0447389Y0220515D01*
X0446628Y0221276D01*
X0440826Y0221276D01*
X0440066Y0220517D01*
X0434236Y0220517D01*
X0429512Y0225241D01*
X0410698Y0225241D01*
X0409644Y0224187D01*
X0409644Y0224187D01*
X0406140Y0220683D01*
X0406140Y0219494D01*
X0403640Y0216994D01*
X0403640Y0213431D01*
X0404070Y0213001D01*
X0401244Y0209173D01*
X0401339Y0209402D01*
X0401339Y0210708D01*
X0400839Y0211914D01*
X0399916Y0212837D01*
X0398710Y0213336D01*
X0397405Y0213336D01*
X0396211Y0212842D01*
X0395899Y0253587D01*
X0521736Y0253587D01*
X0521441Y0253464D01*
X0520231Y0252255D01*
X0519577Y0250674D01*
X0519577Y0248964D01*
X0520231Y0247383D01*
X0521441Y0246174D01*
X0523021Y0245519D01*
X0524377Y0245519D01*
X0524377Y0244119D01*
X0523021Y0244119D01*
X0521441Y0243464D01*
X0520231Y0242255D01*
X0519577Y0240674D01*
X0519577Y0238964D01*
X0520231Y0237383D01*
X0521441Y0236174D01*
X0523021Y0235519D01*
X0524377Y0235519D01*
X0524377Y0234119D01*
X0523021Y0234119D01*
X0521441Y0233464D01*
X0520231Y0232255D01*
X0519577Y0230674D01*
X0519577Y0228964D01*
X0520231Y0227383D01*
X0521063Y0226551D01*
X0511092Y0216580D01*
X0510037Y0215525D01*
X0510037Y0201444D01*
X0509979Y0201419D01*
X0509056Y0200496D01*
X0508556Y0199290D01*
X0508556Y0197985D01*
X0509056Y0196779D01*
X0509979Y0195856D01*
X0511185Y0195357D01*
X0512490Y0195357D01*
X0513696Y0195856D01*
X0514619Y0196779D01*
X0515118Y0197985D01*
X0515118Y0199290D01*
X0514619Y0200496D01*
X0513696Y0201419D01*
X0513637Y0201444D01*
X0513637Y0214034D01*
X0519577Y0219973D01*
X0519577Y0218964D01*
X0520231Y0217383D01*
X0521441Y0216174D01*
X0523021Y0215519D01*
X0530732Y0215519D01*
X0532312Y0216174D01*
X0533522Y0217383D01*
X0534177Y0218964D01*
X0534177Y0220674D01*
X0533522Y0222255D01*
X0532312Y0223464D01*
X0530732Y0224119D01*
X0523722Y0224119D01*
X0525122Y0225519D01*
X0530732Y0225519D01*
X0532312Y0226174D01*
X0533522Y0227383D01*
X0534177Y0228964D01*
X0534177Y0230674D01*
X0533522Y0232255D01*
X0532312Y0233464D01*
X0530732Y0234119D01*
X0529377Y0234119D01*
X0529377Y0235519D01*
X0530732Y0235519D01*
X0532312Y0236174D01*
X0533522Y0237383D01*
X0534177Y0238964D01*
X0534177Y0240674D01*
X0533522Y0242255D01*
X0532312Y0243464D01*
X0530732Y0244119D01*
X0529377Y0244119D01*
X0529377Y0245519D01*
X0530732Y0245519D01*
X0532312Y0246174D01*
X0533522Y0247383D01*
X0534177Y0248964D01*
X0534177Y0250674D01*
X0533522Y0252255D01*
X0532312Y0253464D01*
X0532017Y0253587D01*
X0540021Y0253587D01*
X0540365Y0029346D01*
X0534177Y0029346D01*
X0534177Y0030792D01*
X0533522Y0032373D01*
X0532312Y0033582D01*
X0530732Y0034237D01*
X0523021Y0034237D01*
X0521441Y0033582D01*
X0520231Y0032373D01*
X0520811Y0032952D02*
X0515146Y0032952D01*
X0515988Y0033951D02*
X0522331Y0033951D01*
X0523021Y0035637D02*
X0530732Y0035637D01*
X0532312Y0036292D01*
X0533522Y0037501D01*
X0534177Y0039082D01*
X0534177Y0040792D01*
X0533522Y0042373D01*
X0532312Y0043582D01*
X0530732Y0044237D01*
X0523021Y0044237D01*
X0521441Y0043582D01*
X0520231Y0042373D01*
X0519577Y0040792D01*
X0519577Y0039082D01*
X0520231Y0037501D01*
X0521441Y0036292D01*
X0523021Y0035637D01*
X0522271Y0035948D02*
X0516531Y0035948D01*
X0516531Y0036946D02*
X0520786Y0036946D01*
X0520047Y0037945D02*
X0516129Y0037945D01*
X0515487Y0038943D02*
X0519634Y0038943D01*
X0519577Y0039942D02*
X0514236Y0039942D01*
X0515260Y0040940D02*
X0519638Y0040940D01*
X0520052Y0041939D02*
X0516035Y0041939D01*
X0516448Y0042937D02*
X0520796Y0042937D01*
X0522295Y0043936D02*
X0516531Y0043936D01*
X0516495Y0044934D02*
X0540341Y0044934D01*
X0540342Y0043936D02*
X0531459Y0043936D01*
X0532957Y0042937D02*
X0540344Y0042937D01*
X0540345Y0041939D02*
X0533702Y0041939D01*
X0534115Y0040940D02*
X0540347Y0040940D01*
X0540348Y0039942D02*
X0534177Y0039942D01*
X0534119Y0038943D02*
X0540350Y0038943D01*
X0540352Y0037945D02*
X0533706Y0037945D01*
X0532967Y0036946D02*
X0540353Y0036946D01*
X0540355Y0035948D02*
X0531482Y0035948D01*
X0531423Y0033951D02*
X0540358Y0033951D01*
X0540356Y0034949D02*
X0516401Y0034949D01*
X0519644Y0030955D02*
X0397604Y0030955D01*
X0397612Y0029957D02*
X0519577Y0029957D01*
X0509316Y0032952D02*
X0428532Y0032952D01*
X0429373Y0033951D02*
X0508474Y0033951D01*
X0508061Y0034949D02*
X0429787Y0034949D01*
X0429917Y0035948D02*
X0507931Y0035948D01*
X0507931Y0036946D02*
X0429917Y0036946D01*
X0429514Y0037945D02*
X0508333Y0037945D01*
X0508975Y0038943D02*
X0428873Y0038943D01*
X0427622Y0039942D02*
X0510226Y0039942D01*
X0509202Y0040940D02*
X0428646Y0040940D01*
X0429421Y0041939D02*
X0508427Y0041939D01*
X0508014Y0042937D02*
X0429834Y0042937D01*
X0429917Y0043936D02*
X0507931Y0043936D01*
X0507967Y0044934D02*
X0429881Y0044934D01*
X0429467Y0045933D02*
X0508381Y0045933D01*
X0509089Y0046932D02*
X0428759Y0046932D01*
X0427351Y0047930D02*
X0510497Y0047930D01*
X0509087Y0048929D02*
X0428760Y0048929D01*
X0429468Y0049927D02*
X0508380Y0049927D01*
X0507966Y0050926D02*
X0429881Y0050926D01*
X0429917Y0051924D02*
X0507931Y0051924D01*
X0508014Y0052923D02*
X0429833Y0052923D01*
X0429420Y0053921D02*
X0508428Y0053921D01*
X0509203Y0054920D02*
X0428644Y0054920D01*
X0427626Y0055918D02*
X0510222Y0055918D01*
X0508973Y0056917D02*
X0428874Y0056917D01*
X0429515Y0057915D02*
X0508333Y0057915D01*
X0507931Y0058914D02*
X0429917Y0058914D01*
X0429917Y0059912D02*
X0507931Y0059912D01*
X0508062Y0060911D02*
X0429786Y0060911D01*
X0429373Y0061909D02*
X0508475Y0061909D01*
X0509317Y0062908D02*
X0428530Y0062908D01*
X0427901Y0063906D02*
X0509946Y0063906D01*
X0508859Y0064905D02*
X0450855Y0064905D01*
X0450704Y0064754D02*
X0451627Y0065677D01*
X0452126Y0066883D01*
X0452126Y0068188D01*
X0451627Y0069394D01*
X0450704Y0070317D01*
X0449498Y0070817D01*
X0448192Y0070817D01*
X0446987Y0070317D01*
X0446064Y0069394D01*
X0446039Y0069335D01*
X0440315Y0069335D01*
X0440315Y0069369D01*
X0439816Y0070575D01*
X0438893Y0071498D01*
X0437687Y0071998D01*
X0436381Y0071998D01*
X0435176Y0071498D01*
X0434253Y0070575D01*
X0433753Y0069369D01*
X0433753Y0068064D01*
X0434253Y0066858D01*
X0435176Y0065935D01*
X0436381Y0065435D01*
X0437687Y0065435D01*
X0438411Y0065735D01*
X0446039Y0065735D01*
X0446064Y0065677D01*
X0446987Y0064754D01*
X0448192Y0064254D01*
X0449498Y0064254D01*
X0450704Y0064754D01*
X0451720Y0065903D02*
X0508285Y0065903D01*
X0507931Y0066902D02*
X0452126Y0066902D01*
X0452126Y0067900D02*
X0507931Y0067900D01*
X0508109Y0068899D02*
X0451832Y0068899D01*
X0451123Y0069897D02*
X0508522Y0069897D01*
X0509431Y0070896D02*
X0439495Y0070896D01*
X0440096Y0069897D02*
X0446567Y0069897D01*
X0448845Y0067535D02*
X0438215Y0067535D01*
X0437034Y0068717D01*
X0433972Y0069897D02*
X0429325Y0069897D01*
X0429739Y0068899D02*
X0433753Y0068899D01*
X0433821Y0067900D02*
X0429917Y0067900D01*
X0429917Y0066902D02*
X0434234Y0066902D01*
X0435252Y0065903D02*
X0429562Y0065903D01*
X0428988Y0064905D02*
X0446836Y0064905D01*
X0437936Y0071894D02*
X0509744Y0071894D01*
X0508745Y0072893D02*
X0429103Y0072893D01*
X0429610Y0073891D02*
X0508238Y0073891D01*
X0507931Y0074890D02*
X0429917Y0074890D01*
X0429917Y0075888D02*
X0507931Y0075888D01*
X0508156Y0076887D02*
X0429692Y0076887D01*
X0429278Y0077885D02*
X0508570Y0077885D01*
X0509546Y0078884D02*
X0428302Y0078884D01*
X0428218Y0079882D02*
X0509630Y0079882D01*
X0508631Y0080881D02*
X0429217Y0080881D01*
X0429657Y0081879D02*
X0508191Y0081879D01*
X0507931Y0082878D02*
X0429917Y0082878D01*
X0429917Y0083876D02*
X0507931Y0083876D01*
X0508203Y0084875D02*
X0429644Y0084875D01*
X0429187Y0085873D02*
X0508661Y0085873D01*
X0509660Y0086872D02*
X0428188Y0086872D01*
X0428332Y0087870D02*
X0509516Y0087870D01*
X0508557Y0088869D02*
X0429291Y0088869D01*
X0425617Y0091236D02*
X0435538Y0091236D01*
X0461247Y0116945D01*
X0517822Y0116945D01*
X0520853Y0119976D01*
X0518215Y0122818D02*
X0516122Y0122818D01*
X0515124Y0121820D02*
X0517423Y0121820D01*
X0517009Y0120821D02*
X0514125Y0120821D01*
X0513127Y0119823D02*
X0516978Y0119823D01*
X0517136Y0118824D02*
X0512128Y0118824D01*
X0511050Y0120291D02*
X0522861Y0132102D01*
X0522861Y0147063D01*
X0512955Y0156969D01*
X0490478Y0156969D01*
X0487578Y0154669D02*
X0493917Y0154669D01*
X0494417Y0155169D01*
X0512210Y0155169D01*
X0521061Y0146317D01*
X0521061Y0143065D01*
X0520918Y0143410D01*
X0519995Y0144333D01*
X0518789Y0144832D01*
X0517484Y0144832D01*
X0517425Y0144808D01*
X0508665Y0153568D01*
X0487578Y0153568D01*
X0487578Y0154669D01*
X0487578Y0153772D02*
X0513606Y0153772D01*
X0514605Y0152774D02*
X0509460Y0152774D01*
X0510458Y0151775D02*
X0515603Y0151775D01*
X0516602Y0150777D02*
X0511457Y0150777D01*
X0512455Y0149778D02*
X0517600Y0149778D01*
X0518599Y0148780D02*
X0513454Y0148780D01*
X0514452Y0147781D02*
X0519597Y0147781D01*
X0520596Y0146783D02*
X0515451Y0146783D01*
X0516449Y0145784D02*
X0521061Y0145784D01*
X0521061Y0144786D02*
X0518902Y0144786D01*
X0520541Y0143787D02*
X0521061Y0143787D01*
X0524661Y0143787D02*
X0540189Y0143787D01*
X0540191Y0142789D02*
X0524661Y0142789D01*
X0524661Y0141790D02*
X0540193Y0141790D01*
X0540194Y0140792D02*
X0524661Y0140792D01*
X0524661Y0139793D02*
X0540196Y0139793D01*
X0540197Y0138795D02*
X0524661Y0138795D01*
X0524661Y0137796D02*
X0540199Y0137796D01*
X0540200Y0136798D02*
X0524661Y0136798D01*
X0524661Y0135799D02*
X0540202Y0135799D01*
X0540203Y0134801D02*
X0524661Y0134801D01*
X0524661Y0133802D02*
X0540205Y0133802D01*
X0540206Y0132803D02*
X0524661Y0132803D01*
X0524661Y0131805D02*
X0540208Y0131805D01*
X0540209Y0130806D02*
X0524111Y0130806D01*
X0523112Y0129808D02*
X0540211Y0129808D01*
X0540212Y0128809D02*
X0522114Y0128809D01*
X0521115Y0127811D02*
X0540214Y0127811D01*
X0540215Y0126812D02*
X0520117Y0126812D01*
X0519118Y0125814D02*
X0540217Y0125814D01*
X0540219Y0124815D02*
X0518120Y0124815D01*
X0517121Y0123817D02*
X0520000Y0123817D01*
X0521707Y0123817D02*
X0540220Y0123817D01*
X0540222Y0122818D02*
X0523491Y0122818D01*
X0524283Y0121820D02*
X0540223Y0121820D01*
X0540225Y0120821D02*
X0524697Y0120821D01*
X0524728Y0119823D02*
X0540226Y0119823D01*
X0540228Y0118824D02*
X0524570Y0118824D01*
X0524156Y0117826D02*
X0540229Y0117826D01*
X0540231Y0116827D02*
X0523184Y0116827D01*
X0519251Y0115829D02*
X0540232Y0115829D01*
X0540234Y0114830D02*
X0461678Y0114830D01*
X0460679Y0113832D02*
X0540235Y0113832D01*
X0540237Y0112833D02*
X0459681Y0112833D01*
X0458682Y0111835D02*
X0540238Y0111835D01*
X0540240Y0110836D02*
X0514168Y0110836D01*
X0515459Y0109838D02*
X0540241Y0109838D01*
X0540243Y0108839D02*
X0516117Y0108839D01*
X0516530Y0107841D02*
X0540245Y0107841D01*
X0540246Y0106842D02*
X0516531Y0106842D01*
X0516413Y0105844D02*
X0540248Y0105844D01*
X0540249Y0104845D02*
X0515999Y0104845D01*
X0515174Y0103847D02*
X0522079Y0103847D01*
X0521441Y0103582D02*
X0520231Y0102373D01*
X0519577Y0100792D01*
X0519577Y0099082D01*
X0520231Y0097501D01*
X0521441Y0096292D01*
X0523021Y0095637D01*
X0530732Y0095637D01*
X0532312Y0096292D01*
X0533522Y0097501D01*
X0534177Y0099082D01*
X0534177Y0100792D01*
X0533522Y0102373D01*
X0532312Y0103582D01*
X0530732Y0104237D01*
X0523021Y0104237D01*
X0521441Y0103582D01*
X0520707Y0102848D02*
X0514443Y0102848D01*
X0515573Y0101850D02*
X0520015Y0101850D01*
X0519601Y0100851D02*
X0516164Y0100851D01*
X0516531Y0099853D02*
X0519577Y0099853D01*
X0519671Y0098854D02*
X0516531Y0098854D01*
X0516366Y0097856D02*
X0520084Y0097856D01*
X0520875Y0096857D02*
X0515952Y0096857D01*
X0515060Y0095859D02*
X0522486Y0095859D01*
X0523021Y0094237D02*
X0521441Y0093582D01*
X0520231Y0092373D01*
X0519577Y0090792D01*
X0519577Y0089082D01*
X0520231Y0087501D01*
X0521441Y0086292D01*
X0523021Y0085637D01*
X0530732Y0085637D01*
X0532312Y0086292D01*
X0533522Y0087501D01*
X0534177Y0089082D01*
X0534177Y0090792D01*
X0533522Y0092373D01*
X0532312Y0093582D01*
X0530732Y0094237D01*
X0523021Y0094237D01*
X0522115Y0093862D02*
X0515687Y0093862D01*
X0516211Y0092863D02*
X0520722Y0092863D01*
X0520021Y0091865D02*
X0516531Y0091865D01*
X0516531Y0090866D02*
X0519607Y0090866D01*
X0519577Y0089868D02*
X0516318Y0089868D01*
X0515905Y0088869D02*
X0519665Y0088869D01*
X0520078Y0087870D02*
X0514946Y0087870D01*
X0514802Y0086872D02*
X0520861Y0086872D01*
X0522450Y0085873D02*
X0515801Y0085873D01*
X0516259Y0084875D02*
X0540280Y0084875D01*
X0540278Y0085873D02*
X0531303Y0085873D01*
X0530732Y0084237D02*
X0523021Y0084237D01*
X0521441Y0083582D01*
X0520231Y0082373D01*
X0519577Y0080792D01*
X0519577Y0079082D01*
X0520231Y0077501D01*
X0521441Y0076292D01*
X0523021Y0075637D01*
X0530732Y0075637D01*
X0532312Y0076292D01*
X0533522Y0077501D01*
X0534177Y0079082D01*
X0534177Y0080792D01*
X0533522Y0082373D01*
X0532312Y0083582D01*
X0530732Y0084237D01*
X0531602Y0083876D02*
X0540281Y0083876D01*
X0540283Y0082878D02*
X0533017Y0082878D01*
X0533726Y0081879D02*
X0540284Y0081879D01*
X0540286Y0080881D02*
X0534140Y0080881D01*
X0534177Y0079882D02*
X0540287Y0079882D01*
X0540289Y0078884D02*
X0534095Y0078884D01*
X0533681Y0077885D02*
X0540290Y0077885D01*
X0540292Y0076887D02*
X0532908Y0076887D01*
X0531339Y0075888D02*
X0540293Y0075888D01*
X0540295Y0074890D02*
X0516531Y0074890D01*
X0516531Y0075888D02*
X0522415Y0075888D01*
X0523021Y0074237D02*
X0521441Y0073582D01*
X0520231Y0072373D01*
X0519577Y0070792D01*
X0519577Y0069082D01*
X0520231Y0067501D01*
X0521441Y0066292D01*
X0523021Y0065637D01*
X0530732Y0065637D01*
X0532312Y0066292D01*
X0533522Y0067501D01*
X0534177Y0069082D01*
X0534177Y0070792D01*
X0533522Y0072373D01*
X0532312Y0073582D01*
X0530732Y0074237D01*
X0523021Y0074237D01*
X0522187Y0073891D02*
X0516224Y0073891D01*
X0515717Y0072893D02*
X0520751Y0072893D01*
X0520033Y0071894D02*
X0514718Y0071894D01*
X0515030Y0070896D02*
X0519620Y0070896D01*
X0519577Y0069897D02*
X0515940Y0069897D01*
X0516353Y0068899D02*
X0519652Y0068899D01*
X0520066Y0067900D02*
X0516531Y0067900D01*
X0516531Y0066902D02*
X0520831Y0066902D01*
X0522379Y0065903D02*
X0516177Y0065903D01*
X0515603Y0064905D02*
X0540310Y0064905D01*
X0540309Y0065903D02*
X0531375Y0065903D01*
X0530732Y0064237D02*
X0523021Y0064237D01*
X0521441Y0063582D01*
X0520231Y0062373D01*
X0519577Y0060792D01*
X0519577Y0059082D01*
X0520231Y0057501D01*
X0521441Y0056292D01*
X0523021Y0055637D01*
X0530732Y0055637D01*
X0532312Y0056292D01*
X0533522Y0057501D01*
X0534177Y0059082D01*
X0534177Y0060792D01*
X0533522Y0062373D01*
X0532312Y0063582D01*
X0530732Y0064237D01*
X0531531Y0063906D02*
X0540312Y0063906D01*
X0540313Y0062908D02*
X0532987Y0062908D01*
X0533714Y0061909D02*
X0540315Y0061909D01*
X0540316Y0060911D02*
X0534128Y0060911D01*
X0534177Y0059912D02*
X0540318Y0059912D01*
X0540319Y0058914D02*
X0534107Y0058914D01*
X0533693Y0057915D02*
X0540321Y0057915D01*
X0540323Y0056917D02*
X0532937Y0056917D01*
X0531411Y0055918D02*
X0540324Y0055918D01*
X0540326Y0054920D02*
X0515259Y0054920D01*
X0516034Y0053921D02*
X0522259Y0053921D01*
X0523021Y0054237D02*
X0521441Y0053582D01*
X0520231Y0052373D01*
X0519577Y0050792D01*
X0519577Y0049082D01*
X0520231Y0047501D01*
X0521441Y0046292D01*
X0523021Y0045637D01*
X0530732Y0045637D01*
X0532312Y0046292D01*
X0533522Y0047501D01*
X0534177Y0049082D01*
X0534177Y0050792D01*
X0533522Y0052373D01*
X0532312Y0053582D01*
X0530732Y0054237D01*
X0523021Y0054237D01*
X0522343Y0055918D02*
X0514240Y0055918D01*
X0515489Y0056917D02*
X0520816Y0056917D01*
X0520060Y0057915D02*
X0516129Y0057915D01*
X0516531Y0058914D02*
X0519646Y0058914D01*
X0519577Y0059912D02*
X0516531Y0059912D01*
X0516400Y0060911D02*
X0519626Y0060911D01*
X0520039Y0061909D02*
X0515987Y0061909D01*
X0515145Y0062908D02*
X0520766Y0062908D01*
X0522223Y0063906D02*
X0514516Y0063906D01*
X0532922Y0066902D02*
X0540307Y0066902D01*
X0540306Y0067900D02*
X0533687Y0067900D01*
X0534101Y0068899D02*
X0540304Y0068899D01*
X0540303Y0069897D02*
X0534177Y0069897D01*
X0534134Y0070896D02*
X0540301Y0070896D01*
X0540300Y0071894D02*
X0533720Y0071894D01*
X0533002Y0072893D02*
X0540298Y0072893D01*
X0540297Y0073891D02*
X0531566Y0073891D01*
X0520846Y0076887D02*
X0516306Y0076887D01*
X0515892Y0077885D02*
X0520072Y0077885D01*
X0519659Y0078884D02*
X0514916Y0078884D01*
X0514832Y0079882D02*
X0519577Y0079882D01*
X0519613Y0080881D02*
X0515831Y0080881D01*
X0516271Y0081879D02*
X0520027Y0081879D01*
X0520736Y0082878D02*
X0516531Y0082878D01*
X0516531Y0083876D02*
X0522151Y0083876D01*
X0532893Y0086872D02*
X0540277Y0086872D01*
X0540275Y0087870D02*
X0533675Y0087870D01*
X0534089Y0088869D02*
X0540274Y0088869D01*
X0540272Y0089868D02*
X0534177Y0089868D01*
X0534146Y0090866D02*
X0540271Y0090866D01*
X0540269Y0091865D02*
X0533733Y0091865D01*
X0533032Y0092863D02*
X0540267Y0092863D01*
X0540266Y0093862D02*
X0531638Y0093862D01*
X0531267Y0095859D02*
X0540263Y0095859D01*
X0540261Y0096857D02*
X0532878Y0096857D01*
X0533669Y0097856D02*
X0540260Y0097856D01*
X0540258Y0098854D02*
X0534082Y0098854D01*
X0534177Y0099853D02*
X0540257Y0099853D01*
X0540255Y0100851D02*
X0534152Y0100851D01*
X0533739Y0101850D02*
X0540254Y0101850D01*
X0540252Y0102848D02*
X0533047Y0102848D01*
X0531674Y0103847D02*
X0540251Y0103847D01*
X0540264Y0094860D02*
X0514688Y0094860D01*
X0509774Y0094860D02*
X0441707Y0094860D01*
X0440709Y0093862D02*
X0508775Y0093862D01*
X0508251Y0092863D02*
X0439710Y0092863D01*
X0438712Y0091865D02*
X0507931Y0091865D01*
X0507931Y0090866D02*
X0437713Y0090866D01*
X0436715Y0089868D02*
X0508144Y0089868D01*
X0509402Y0095859D02*
X0442706Y0095859D01*
X0443705Y0096857D02*
X0508510Y0096857D01*
X0508096Y0097856D02*
X0444703Y0097856D01*
X0445702Y0098854D02*
X0507931Y0098854D01*
X0507931Y0099853D02*
X0446700Y0099853D01*
X0447699Y0100851D02*
X0508298Y0100851D01*
X0508889Y0101850D02*
X0448697Y0101850D01*
X0449696Y0102848D02*
X0510019Y0102848D01*
X0509287Y0103847D02*
X0450694Y0103847D01*
X0451693Y0104845D02*
X0508463Y0104845D01*
X0508049Y0105844D02*
X0452691Y0105844D01*
X0453690Y0106842D02*
X0507931Y0106842D01*
X0507931Y0107841D02*
X0454688Y0107841D01*
X0455687Y0108839D02*
X0508345Y0108839D01*
X0509003Y0109838D02*
X0456685Y0109838D01*
X0457684Y0110836D02*
X0510294Y0110836D01*
X0511050Y0120291D02*
X0496877Y0120291D01*
X0494908Y0122260D01*
X0492705Y0119823D02*
X0466670Y0119823D01*
X0465672Y0118824D02*
X0495798Y0118824D01*
X0495878Y0118745D02*
X0465592Y0118745D01*
X0483978Y0137131D01*
X0483978Y0141326D01*
X0485970Y0141326D01*
X0485970Y0141013D01*
X0486732Y0140251D01*
X0490958Y0140251D01*
X0491720Y0141013D01*
X0491720Y0146814D01*
X0490958Y0147576D01*
X0486824Y0147576D01*
X0487578Y0148330D01*
X0487578Y0149969D01*
X0507174Y0149969D01*
X0514880Y0142262D01*
X0514855Y0142204D01*
X0514855Y0140899D01*
X0515355Y0139693D01*
X0516278Y0138770D01*
X0517484Y0138270D01*
X0518789Y0138270D01*
X0519995Y0138770D01*
X0520918Y0139693D01*
X0521061Y0140037D01*
X0521061Y0132848D01*
X0510304Y0122091D01*
X0498189Y0122091D01*
X0498189Y0122912D01*
X0497690Y0124118D01*
X0496767Y0125041D01*
X0495561Y0125541D01*
X0494255Y0125541D01*
X0493050Y0125041D01*
X0492127Y0124118D01*
X0491627Y0122912D01*
X0491627Y0121607D01*
X0492127Y0120401D01*
X0493050Y0119478D01*
X0494255Y0118979D01*
X0495561Y0118979D01*
X0495619Y0119003D01*
X0495878Y0118745D01*
X0491953Y0120821D02*
X0467669Y0120821D01*
X0468667Y0121820D02*
X0491627Y0121820D01*
X0491627Y0122818D02*
X0469666Y0122818D01*
X0470664Y0123817D02*
X0492002Y0123817D01*
X0492824Y0124815D02*
X0471663Y0124815D01*
X0472661Y0125814D02*
X0505013Y0125814D01*
X0505013Y0126062D02*
X0505013Y0124757D01*
X0505512Y0123551D01*
X0506435Y0122628D01*
X0507641Y0122128D01*
X0508947Y0122128D01*
X0510153Y0122628D01*
X0511076Y0123551D01*
X0511575Y0124757D01*
X0511575Y0126062D01*
X0511551Y0126121D01*
X0514788Y0129357D01*
X0515603Y0130172D01*
X0516943Y0130172D01*
X0517704Y0130934D01*
X0517704Y0137523D01*
X0516943Y0138284D01*
X0511141Y0138284D01*
X0510380Y0137523D01*
X0510380Y0130934D01*
X0510826Y0130487D01*
X0509005Y0128666D01*
X0508947Y0128691D01*
X0507641Y0128691D01*
X0506435Y0128191D01*
X0505512Y0127268D01*
X0505013Y0126062D01*
X0505324Y0126812D02*
X0473660Y0126812D01*
X0474658Y0127811D02*
X0506055Y0127811D01*
X0505132Y0130172D02*
X0499330Y0130172D01*
X0498569Y0130934D01*
X0498569Y0132271D01*
X0497706Y0132271D01*
X0496651Y0133325D01*
X0494132Y0135845D01*
X0494132Y0140251D01*
X0493818Y0140251D01*
X0493057Y0141013D01*
X0493057Y0146814D01*
X0493818Y0147576D01*
X0498045Y0147576D01*
X0498807Y0146814D01*
X0498807Y0141013D01*
X0498045Y0140251D01*
X0497732Y0140251D01*
X0497732Y0137336D01*
X0498569Y0136499D01*
X0498569Y0137523D01*
X0499330Y0138284D01*
X0505132Y0138284D01*
X0505893Y0137523D01*
X0505893Y0130934D01*
X0505132Y0130172D01*
X0505766Y0130806D02*
X0510507Y0130806D01*
X0510380Y0131805D02*
X0505893Y0131805D01*
X0505893Y0132803D02*
X0510380Y0132803D01*
X0510380Y0133802D02*
X0505893Y0133802D01*
X0505893Y0134801D02*
X0510380Y0134801D01*
X0510380Y0135799D02*
X0505893Y0135799D01*
X0505893Y0136798D02*
X0510380Y0136798D01*
X0510653Y0137796D02*
X0505620Y0137796D01*
X0498842Y0137796D02*
X0497732Y0137796D01*
X0497732Y0138795D02*
X0516253Y0138795D01*
X0515313Y0139793D02*
X0497732Y0139793D01*
X0498585Y0140792D02*
X0514900Y0140792D01*
X0514855Y0141790D02*
X0498807Y0141790D01*
X0498807Y0142789D02*
X0514353Y0142789D01*
X0513355Y0143787D02*
X0498807Y0143787D01*
X0498807Y0144786D02*
X0512356Y0144786D01*
X0511358Y0145784D02*
X0498807Y0145784D01*
X0498807Y0146783D02*
X0510359Y0146783D01*
X0509361Y0147781D02*
X0487029Y0147781D01*
X0486725Y0147569D02*
X0485970Y0146814D01*
X0485970Y0144926D01*
X0483978Y0144926D01*
X0483978Y0147569D01*
X0486725Y0147569D01*
X0485970Y0146783D02*
X0483978Y0146783D01*
X0483978Y0145784D02*
X0485970Y0145784D01*
X0488058Y0143126D02*
X0488845Y0143913D01*
X0488058Y0143126D02*
X0482178Y0143126D01*
X0482178Y0137876D01*
X0461247Y0116945D01*
X0459582Y0117826D02*
X0456406Y0117826D01*
X0457404Y0118824D02*
X0460581Y0118824D01*
X0460501Y0118745D02*
X0434792Y0093036D01*
X0429525Y0093036D01*
X0429262Y0093672D01*
X0428053Y0094882D01*
X0427348Y0095173D01*
X0428053Y0095465D01*
X0429262Y0096674D01*
X0429525Y0097310D01*
X0435890Y0097310D01*
X0436944Y0098365D01*
X0458252Y0119672D01*
X0459307Y0120727D01*
X0480378Y0141799D01*
X0480378Y0138622D01*
X0460501Y0118745D01*
X0461579Y0119823D02*
X0458403Y0119823D01*
X0459307Y0120727D02*
X0459307Y0120727D01*
X0459401Y0120821D02*
X0462578Y0120821D01*
X0463576Y0121820D02*
X0460400Y0121820D01*
X0461398Y0122818D02*
X0464575Y0122818D01*
X0465573Y0123817D02*
X0462397Y0123817D01*
X0463395Y0124815D02*
X0466572Y0124815D01*
X0467570Y0125814D02*
X0464394Y0125814D01*
X0465392Y0126812D02*
X0468569Y0126812D01*
X0469567Y0127811D02*
X0466391Y0127811D01*
X0467389Y0128809D02*
X0470566Y0128809D01*
X0471564Y0129808D02*
X0468388Y0129808D01*
X0469386Y0130806D02*
X0472563Y0130806D01*
X0473561Y0131805D02*
X0470385Y0131805D01*
X0471383Y0132803D02*
X0474560Y0132803D01*
X0475558Y0133802D02*
X0472382Y0133802D01*
X0473380Y0134801D02*
X0476557Y0134801D01*
X0477555Y0135799D02*
X0474379Y0135799D01*
X0475377Y0136798D02*
X0478554Y0136798D01*
X0479552Y0137796D02*
X0476376Y0137796D01*
X0477374Y0138795D02*
X0480378Y0138795D01*
X0480378Y0139793D02*
X0478373Y0139793D01*
X0479371Y0140792D02*
X0480378Y0140792D01*
X0480370Y0141790D02*
X0480378Y0141790D01*
X0478978Y0142944D02*
X0457507Y0121472D01*
X0456709Y0124815D02*
X0458304Y0124815D01*
X0459302Y0125814D02*
X0455711Y0125814D01*
X0454712Y0126812D02*
X0460301Y0126812D01*
X0461299Y0127811D02*
X0453714Y0127811D01*
X0452715Y0128809D02*
X0462298Y0128809D01*
X0463297Y0129808D02*
X0451717Y0129808D01*
X0450718Y0130806D02*
X0464295Y0130806D01*
X0465294Y0131805D02*
X0449720Y0131805D01*
X0448795Y0132803D02*
X0455957Y0132803D01*
X0457481Y0132803D02*
X0466292Y0132803D01*
X0467291Y0133802D02*
X0459122Y0133802D01*
X0456719Y0136039D02*
X0468924Y0136039D01*
X0475878Y0142994D01*
X0475878Y0151769D01*
X0478978Y0151769D02*
X0478978Y0142944D01*
X0482178Y0143126D02*
X0482178Y0151769D01*
X0485278Y0151769D02*
X0507919Y0151769D01*
X0518136Y0141551D01*
X0520960Y0139793D02*
X0521061Y0139793D01*
X0521061Y0138795D02*
X0520020Y0138795D01*
X0521061Y0137796D02*
X0517431Y0137796D01*
X0517704Y0136798D02*
X0521061Y0136798D01*
X0521061Y0135799D02*
X0517704Y0135799D01*
X0517704Y0134801D02*
X0521061Y0134801D01*
X0521061Y0133802D02*
X0517704Y0133802D01*
X0517704Y0132803D02*
X0521016Y0132803D01*
X0520018Y0131805D02*
X0517704Y0131805D01*
X0517577Y0130806D02*
X0519019Y0130806D01*
X0518021Y0129808D02*
X0515238Y0129808D01*
X0514788Y0129357D02*
X0514788Y0129357D01*
X0514240Y0128809D02*
X0517022Y0128809D01*
X0516024Y0127811D02*
X0513241Y0127811D01*
X0512243Y0126812D02*
X0515025Y0126812D01*
X0514027Y0125814D02*
X0511575Y0125814D01*
X0511575Y0124815D02*
X0513028Y0124815D01*
X0512030Y0123817D02*
X0511186Y0123817D01*
X0511031Y0122818D02*
X0510343Y0122818D01*
X0508294Y0125409D02*
X0514042Y0131157D01*
X0514042Y0134228D01*
X0510147Y0129808D02*
X0476655Y0129808D01*
X0475657Y0128809D02*
X0509148Y0128809D01*
X0505013Y0124815D02*
X0496993Y0124815D01*
X0497815Y0123817D02*
X0505402Y0123817D01*
X0506245Y0122818D02*
X0498189Y0122818D01*
X0498696Y0130806D02*
X0477654Y0130806D01*
X0478652Y0131805D02*
X0498569Y0131805D01*
X0497173Y0132803D02*
X0479651Y0132803D01*
X0480649Y0133802D02*
X0496175Y0133802D01*
X0495176Y0134801D02*
X0481648Y0134801D01*
X0482646Y0135799D02*
X0494178Y0135799D01*
X0494132Y0136798D02*
X0483645Y0136798D01*
X0483978Y0137796D02*
X0494132Y0137796D01*
X0494132Y0138795D02*
X0483978Y0138795D01*
X0483978Y0139793D02*
X0494132Y0139793D01*
X0493278Y0140792D02*
X0491499Y0140792D01*
X0491720Y0141790D02*
X0493057Y0141790D01*
X0493057Y0142789D02*
X0491720Y0142789D01*
X0491720Y0143787D02*
X0493057Y0143787D01*
X0493057Y0144786D02*
X0491720Y0144786D01*
X0491720Y0145784D02*
X0493057Y0145784D01*
X0493057Y0146783D02*
X0491720Y0146783D01*
X0487578Y0148780D02*
X0508362Y0148780D01*
X0507364Y0149778D02*
X0487578Y0149778D01*
X0486278Y0155968D02*
X0483740Y0155968D01*
X0483728Y0155957D01*
X0483717Y0155968D01*
X0480640Y0155968D01*
X0480578Y0155907D01*
X0480517Y0155968D01*
X0477440Y0155968D01*
X0477428Y0155957D01*
X0477417Y0155968D01*
X0474340Y0155968D01*
X0474278Y0155907D01*
X0474217Y0155968D01*
X0471140Y0155968D01*
X0471128Y0155957D01*
X0471117Y0155968D01*
X0468040Y0155968D01*
X0467978Y0155907D01*
X0467917Y0155968D01*
X0464840Y0155968D01*
X0464828Y0155957D01*
X0464817Y0155968D01*
X0462278Y0155968D01*
X0462278Y0158507D01*
X0462267Y0158519D01*
X0462278Y0158530D01*
X0462278Y0161607D01*
X0462217Y0161669D01*
X0462278Y0161730D01*
X0462278Y0164569D01*
X0467438Y0164569D01*
X0470444Y0161895D01*
X0471061Y0161278D01*
X0472115Y0160224D01*
X0484236Y0160224D01*
X0485481Y0161469D01*
X0486278Y0161469D01*
X0486278Y0158530D01*
X0486290Y0158518D01*
X0486278Y0158507D01*
X0486278Y0155968D01*
X0486278Y0156768D02*
X0462278Y0156768D01*
X0462278Y0157766D02*
X0486278Y0157766D01*
X0486278Y0158765D02*
X0462278Y0158765D01*
X0462278Y0159763D02*
X0486278Y0159763D01*
X0486278Y0160762D02*
X0484775Y0160762D01*
X0483491Y0162024D02*
X0484736Y0163269D01*
X0490478Y0163269D01*
X0490414Y0163205D01*
X0490478Y0163269D02*
X0495759Y0163269D01*
X0499239Y0166748D01*
X0502900Y0166748D01*
X0502979Y0166827D01*
X0502782Y0166630D01*
X0502782Y0164386D01*
X0505144Y0162024D01*
X0507507Y0162024D01*
X0510535Y0160762D02*
X0519613Y0160762D01*
X0519577Y0160674D02*
X0519577Y0158964D01*
X0520231Y0157383D01*
X0521441Y0156174D01*
X0523021Y0155519D01*
X0530732Y0155519D01*
X0532312Y0156174D01*
X0533522Y0157383D01*
X0534177Y0158964D01*
X0534177Y0160674D01*
X0533522Y0162255D01*
X0532312Y0163464D01*
X0530732Y0164119D01*
X0523021Y0164119D01*
X0521441Y0163464D01*
X0520231Y0162255D01*
X0519577Y0160674D01*
X0519577Y0159763D02*
X0509886Y0159763D01*
X0510788Y0161760D02*
X0520027Y0161760D01*
X0520735Y0162759D02*
X0510753Y0162759D01*
X0510340Y0163757D02*
X0522148Y0163757D01*
X0523021Y0165519D02*
X0521441Y0166174D01*
X0520231Y0167383D01*
X0519577Y0168964D01*
X0519577Y0170674D01*
X0520231Y0172255D01*
X0521441Y0173464D01*
X0523021Y0174119D01*
X0530732Y0174119D01*
X0532312Y0173464D01*
X0533522Y0172255D01*
X0534177Y0170674D01*
X0534177Y0168964D01*
X0533522Y0167383D01*
X0532312Y0166174D01*
X0530732Y0165519D01*
X0523021Y0165519D01*
X0522453Y0165754D02*
X0517074Y0165754D01*
X0517038Y0164756D02*
X0540157Y0164756D01*
X0540156Y0165754D02*
X0531300Y0165754D01*
X0532892Y0166753D02*
X0540154Y0166753D01*
X0540153Y0167751D02*
X0533675Y0167751D01*
X0534088Y0168750D02*
X0540151Y0168750D01*
X0540150Y0169748D02*
X0534177Y0169748D01*
X0534147Y0170747D02*
X0540148Y0170747D01*
X0540147Y0171745D02*
X0533733Y0171745D01*
X0533033Y0172744D02*
X0540145Y0172744D01*
X0540144Y0173742D02*
X0531641Y0173742D01*
X0531264Y0175739D02*
X0540141Y0175739D01*
X0540142Y0174741D02*
X0517074Y0174741D01*
X0517074Y0175739D02*
X0522489Y0175739D01*
X0520876Y0176738D02*
X0516442Y0176738D01*
X0517074Y0173742D02*
X0522113Y0173742D01*
X0520721Y0172744D02*
X0517074Y0172744D01*
X0516941Y0171745D02*
X0520020Y0171745D01*
X0519607Y0170747D02*
X0497786Y0170747D01*
X0498784Y0169748D02*
X0510479Y0169748D01*
X0509750Y0168750D02*
X0506641Y0168750D01*
X0506587Y0171745D02*
X0509883Y0171745D01*
X0509750Y0175739D02*
X0506641Y0175739D01*
X0505930Y0176738D02*
X0510382Y0176738D01*
X0513333Y0173913D02*
X0502979Y0173913D01*
X0502900Y0173835D01*
X0500026Y0173835D01*
X0498860Y0172669D01*
X0490478Y0172669D01*
X0487049Y0172669D01*
X0485459Y0171079D01*
X0485066Y0170685D01*
X0463018Y0170685D01*
X0461902Y0169569D01*
X0458078Y0169569D01*
X0457777Y0169268D01*
X0439790Y0169268D01*
X0436128Y0169748D02*
X0433949Y0169748D01*
X0434801Y0168750D02*
X0436128Y0168750D01*
X0436128Y0167751D02*
X0435197Y0167751D01*
X0435197Y0166753D02*
X0436529Y0166753D01*
X0434893Y0165754D02*
X0446881Y0165754D01*
X0445882Y0164756D02*
X0442991Y0164756D01*
X0443051Y0166753D02*
X0447879Y0166753D01*
X0450026Y0166354D02*
X0458064Y0166354D01*
X0458078Y0166369D01*
X0468122Y0166369D01*
X0471680Y0163205D01*
X0472861Y0162024D01*
X0483491Y0162024D01*
X0484935Y0165068D02*
X0485065Y0165384D01*
X0485381Y0165068D01*
X0484935Y0165068D01*
X0486626Y0166369D02*
X0490478Y0166369D01*
X0490478Y0169569D02*
X0496418Y0169569D01*
X0499239Y0166748D01*
X0499533Y0164497D02*
X0500078Y0163952D01*
X0500982Y0163952D01*
X0500982Y0163640D01*
X0502037Y0162586D01*
X0504399Y0160224D01*
X0504701Y0160224D01*
X0504725Y0160165D01*
X0505648Y0159242D01*
X0506791Y0158768D01*
X0494678Y0158768D01*
X0494678Y0161469D01*
X0496505Y0161469D01*
X0499533Y0164497D01*
X0498794Y0163757D02*
X0500982Y0163757D01*
X0501864Y0162759D02*
X0497795Y0162759D01*
X0496797Y0161760D02*
X0502862Y0161760D01*
X0503861Y0160762D02*
X0494678Y0160762D01*
X0494678Y0159763D02*
X0505127Y0159763D01*
X0513705Y0158765D02*
X0519659Y0158765D01*
X0520073Y0157766D02*
X0514703Y0157766D01*
X0515702Y0156768D02*
X0520847Y0156768D01*
X0522417Y0155769D02*
X0516700Y0155769D01*
X0517699Y0154771D02*
X0540173Y0154771D01*
X0540171Y0155769D02*
X0531336Y0155769D01*
X0532907Y0156768D02*
X0540170Y0156768D01*
X0540168Y0157766D02*
X0533681Y0157766D01*
X0534094Y0158765D02*
X0540167Y0158765D01*
X0540165Y0159763D02*
X0534177Y0159763D01*
X0534140Y0160762D02*
X0540163Y0160762D01*
X0540162Y0161760D02*
X0533727Y0161760D01*
X0533018Y0162759D02*
X0540160Y0162759D01*
X0540159Y0163757D02*
X0531605Y0163757D01*
X0520862Y0166753D02*
X0517074Y0166753D01*
X0517074Y0167751D02*
X0520079Y0167751D01*
X0519665Y0168750D02*
X0517074Y0168750D01*
X0516345Y0169748D02*
X0519577Y0169748D01*
X0513412Y0166906D02*
X0513333Y0166827D01*
X0502979Y0166827D01*
X0496693Y0166748D02*
X0495014Y0165068D01*
X0494678Y0165068D01*
X0494678Y0167769D01*
X0495673Y0167769D01*
X0496693Y0166748D01*
X0496688Y0166753D02*
X0494678Y0166753D01*
X0494678Y0167751D02*
X0495690Y0167751D01*
X0495700Y0165754D02*
X0494678Y0165754D01*
X0486626Y0166369D02*
X0485459Y0167535D01*
X0483097Y0167535D01*
X0481916Y0166354D01*
X0479671Y0168750D02*
X0463629Y0168750D01*
X0463702Y0168823D02*
X0463764Y0168885D01*
X0479807Y0168885D01*
X0479134Y0168213D01*
X0478635Y0167007D01*
X0478635Y0165702D01*
X0479134Y0164496D01*
X0479807Y0163824D01*
X0473606Y0163824D01*
X0473437Y0163993D01*
X0473433Y0164054D01*
X0472915Y0164515D01*
X0472425Y0165005D01*
X0472364Y0165005D01*
X0469358Y0167678D01*
X0468868Y0168168D01*
X0468807Y0168168D01*
X0468761Y0168209D01*
X0468070Y0168168D01*
X0463047Y0168168D01*
X0463702Y0168823D01*
X0463018Y0170685D02*
X0463018Y0174622D01*
X0461772Y0175869D01*
X0458078Y0175869D01*
X0433032Y0175869D01*
X0429121Y0179780D01*
X0429081Y0179780D01*
X0432940Y0179734D02*
X0436149Y0179734D01*
X0435150Y0180732D02*
X0432940Y0180732D01*
X0432940Y0181731D02*
X0434152Y0181731D01*
X0433153Y0182729D02*
X0432940Y0182729D01*
X0432940Y0182942D02*
X0437659Y0178223D01*
X0438214Y0177668D01*
X0433777Y0177668D01*
X0432940Y0178505D01*
X0432940Y0182942D01*
X0431156Y0184726D02*
X0407036Y0184726D01*
X0407074Y0183728D02*
X0407864Y0183728D01*
X0407506Y0182729D02*
X0407074Y0182729D01*
X0407074Y0181731D02*
X0407506Y0181731D01*
X0407506Y0180732D02*
X0407074Y0180732D01*
X0407074Y0179734D02*
X0407506Y0179734D01*
X0407506Y0178735D02*
X0406923Y0178735D01*
X0407506Y0177737D02*
X0396480Y0177737D01*
X0396473Y0178735D02*
X0399114Y0178735D01*
X0398962Y0179734D02*
X0396465Y0179734D01*
X0396457Y0180732D02*
X0398962Y0180732D01*
X0398962Y0181731D02*
X0396450Y0181731D01*
X0396442Y0182729D02*
X0398962Y0182729D01*
X0398962Y0183728D02*
X0396434Y0183728D01*
X0396427Y0184726D02*
X0399000Y0184726D01*
X0399764Y0185725D02*
X0396419Y0185725D01*
X0396411Y0186723D02*
X0398765Y0186723D01*
X0397767Y0187722D02*
X0396404Y0187722D01*
X0396396Y0188720D02*
X0396768Y0188720D01*
X0398058Y0189976D02*
X0402782Y0185252D01*
X0402782Y0182024D01*
X0403018Y0181787D01*
X0415224Y0178735D02*
X0417364Y0178735D01*
X0417862Y0177737D02*
X0415224Y0177737D01*
X0415224Y0176738D02*
X0419173Y0176738D01*
X0421825Y0176738D02*
X0425222Y0176738D01*
X0425222Y0177737D02*
X0423135Y0177737D01*
X0425673Y0175739D02*
X0414773Y0175739D01*
X0413165Y0174741D02*
X0427360Y0174741D01*
X0427360Y0173742D02*
X0413165Y0173742D01*
X0413165Y0172744D02*
X0426705Y0172744D01*
X0425706Y0171745D02*
X0413165Y0171745D01*
X0413165Y0170747D02*
X0424708Y0170747D01*
X0423709Y0169748D02*
X0413165Y0169748D01*
X0413165Y0168750D02*
X0422711Y0168750D01*
X0422242Y0167751D02*
X0413165Y0167751D01*
X0413165Y0166753D02*
X0422242Y0166753D01*
X0422242Y0165754D02*
X0413165Y0165754D01*
X0413165Y0164756D02*
X0422242Y0164756D01*
X0422242Y0163757D02*
X0413165Y0163757D01*
X0413165Y0162759D02*
X0422242Y0162759D01*
X0422242Y0161760D02*
X0413165Y0161760D01*
X0413165Y0160762D02*
X0422242Y0160762D01*
X0422242Y0159763D02*
X0413165Y0159763D01*
X0413165Y0158765D02*
X0422242Y0158765D01*
X0422242Y0157766D02*
X0413165Y0157766D01*
X0413165Y0156768D02*
X0422242Y0156768D01*
X0422242Y0155769D02*
X0413165Y0155769D01*
X0413165Y0154771D02*
X0422242Y0154771D01*
X0422242Y0153772D02*
X0413165Y0153772D01*
X0413165Y0152774D02*
X0422242Y0152774D01*
X0422242Y0151775D02*
X0413165Y0151775D01*
X0413165Y0150777D02*
X0422242Y0150777D01*
X0423112Y0149778D02*
X0413165Y0149778D01*
X0413165Y0148780D02*
X0424110Y0148780D01*
X0425109Y0147781D02*
X0413165Y0147781D01*
X0413165Y0146783D02*
X0426107Y0146783D01*
X0427205Y0150777D02*
X0427974Y0150777D01*
X0428445Y0151775D02*
X0426206Y0151775D01*
X0425842Y0152774D02*
X0429688Y0152774D01*
X0432536Y0153772D02*
X0425842Y0153772D01*
X0425842Y0154771D02*
X0441797Y0154771D01*
X0442485Y0155769D02*
X0425842Y0155769D01*
X0425842Y0156768D02*
X0449959Y0156768D01*
X0449959Y0157766D02*
X0425842Y0157766D01*
X0425842Y0158765D02*
X0449959Y0158765D01*
X0450732Y0159763D02*
X0443148Y0159763D01*
X0445853Y0162181D02*
X0439790Y0162181D01*
X0439633Y0162024D01*
X0434278Y0162024D01*
X0431916Y0164780D01*
X0431916Y0167142D01*
X0429662Y0164756D02*
X0425842Y0164756D01*
X0425842Y0165754D02*
X0428939Y0165754D01*
X0428635Y0166753D02*
X0425842Y0166753D01*
X0426804Y0167751D02*
X0428635Y0167751D01*
X0429031Y0168750D02*
X0427802Y0168750D01*
X0428801Y0169748D02*
X0429883Y0169748D01*
X0429799Y0170747D02*
X0436128Y0170747D01*
X0436492Y0171745D02*
X0430798Y0171745D01*
X0430960Y0172744D02*
X0453878Y0172744D01*
X0453878Y0173742D02*
X0430960Y0173742D01*
X0430960Y0174741D02*
X0431614Y0174741D01*
X0433709Y0177737D02*
X0438146Y0177737D01*
X0437147Y0178735D02*
X0432940Y0178735D01*
X0439459Y0178969D02*
X0458078Y0178969D01*
X0460978Y0181268D02*
X0454640Y0181268D01*
X0454140Y0180768D01*
X0440205Y0180768D01*
X0435066Y0185908D01*
X0435718Y0185908D01*
X0436924Y0186407D01*
X0437847Y0187330D01*
X0437871Y0187389D01*
X0460029Y0187389D01*
X0460978Y0186439D01*
X0460978Y0181268D01*
X0460978Y0181731D02*
X0439243Y0181731D01*
X0438244Y0182729D02*
X0460978Y0182729D01*
X0460978Y0183728D02*
X0437246Y0183728D01*
X0436247Y0184726D02*
X0460978Y0184726D01*
X0460978Y0185725D02*
X0435249Y0185725D01*
X0437240Y0186723D02*
X0460695Y0186723D01*
X0460617Y0189189D02*
X0435066Y0189189D01*
X0437179Y0191716D02*
X0461883Y0191716D01*
X0461792Y0190717D02*
X0462882Y0190717D01*
X0462790Y0189719D02*
X0463880Y0189719D01*
X0463789Y0188720D02*
X0464762Y0188720D01*
X0466562Y0189583D02*
X0466562Y0184352D01*
X0466378Y0184169D01*
X0463278Y0184169D02*
X0463278Y0186685D01*
X0460696Y0189268D01*
X0460617Y0189189D01*
X0462625Y0193520D02*
X0466562Y0189583D01*
X0468362Y0189719D02*
X0474904Y0189719D01*
X0473905Y0190717D02*
X0467973Y0190717D01*
X0466974Y0191716D02*
X0472907Y0191716D01*
X0471908Y0192714D02*
X0465976Y0192714D01*
X0464977Y0193713D02*
X0470910Y0193713D01*
X0469911Y0194711D02*
X0463979Y0194711D01*
X0462625Y0193520D02*
X0446877Y0193520D01*
X0430026Y0210370D01*
X0422782Y0210370D01*
X0417940Y0215213D01*
X0422240Y0215680D02*
X0423640Y0215680D01*
X0423640Y0216678D02*
X0422240Y0216678D01*
X0421556Y0217677D02*
X0424323Y0217677D01*
X0425321Y0218675D02*
X0420558Y0218675D01*
X0422240Y0214681D02*
X0423640Y0214681D01*
X0423640Y0213683D02*
X0422240Y0213683D01*
X0423013Y0212684D02*
X0424387Y0212684D01*
X0420918Y0209689D02*
X0406099Y0209689D01*
X0406836Y0210687D02*
X0419919Y0210687D01*
X0420543Y0208690D02*
X0421916Y0208690D01*
X0421541Y0207692D02*
X0424338Y0207692D01*
X0423640Y0206693D02*
X0422240Y0206693D01*
X0422240Y0205695D02*
X0423640Y0205695D01*
X0423640Y0204696D02*
X0422240Y0204696D01*
X0422240Y0203698D02*
X0423640Y0203698D01*
X0424372Y0202699D02*
X0421708Y0202699D01*
X0421708Y0201701D02*
X0425370Y0201701D01*
X0421708Y0200702D02*
X0437148Y0200702D01*
X0436150Y0201701D02*
X0430509Y0201701D01*
X0431507Y0202699D02*
X0435151Y0202699D01*
X0434153Y0203698D02*
X0432240Y0203698D01*
X0432240Y0204696D02*
X0433154Y0204696D01*
X0435250Y0207692D02*
X0441927Y0207692D01*
X0441927Y0208440D02*
X0441927Y0204979D01*
X0445077Y0201829D01*
X0446131Y0200775D01*
X0449750Y0200775D01*
X0449750Y0200462D01*
X0450511Y0199700D01*
X0457100Y0199700D01*
X0457862Y0200462D01*
X0457862Y0206263D01*
X0457100Y0207024D01*
X0450511Y0207024D01*
X0449750Y0206263D01*
X0449750Y0204375D01*
X0447622Y0204375D01*
X0445527Y0206470D01*
X0445527Y0208440D01*
X0446628Y0208440D01*
X0447389Y0209202D01*
X0447389Y0213428D01*
X0446628Y0214190D01*
X0440826Y0214190D01*
X0440065Y0213428D01*
X0440065Y0209202D01*
X0440826Y0208440D01*
X0441927Y0208440D01*
X0440576Y0208690D02*
X0434252Y0208690D01*
X0433253Y0209689D02*
X0440065Y0209689D01*
X0440065Y0210687D02*
X0432255Y0210687D01*
X0431256Y0211686D02*
X0440065Y0211686D01*
X0440065Y0212684D02*
X0431493Y0212684D01*
X0432240Y0213683D02*
X0440320Y0213683D01*
X0440673Y0215680D02*
X0432240Y0215680D01*
X0432240Y0216678D02*
X0440065Y0216678D01*
X0443412Y0218717D02*
X0433491Y0218717D01*
X0428766Y0223441D01*
X0411444Y0223441D01*
X0407940Y0219937D01*
X0407940Y0215213D01*
X0402388Y0207693D01*
X0402388Y0197063D01*
X0400100Y0194711D02*
X0399858Y0194711D01*
X0399858Y0193713D02*
X0418108Y0193713D01*
X0418108Y0194711D02*
X0404677Y0194711D01*
X0405379Y0195710D02*
X0418108Y0195710D01*
X0418108Y0196708D02*
X0405670Y0196708D01*
X0405670Y0197707D02*
X0418108Y0197707D01*
X0418108Y0198705D02*
X0405260Y0198705D01*
X0404388Y0199704D02*
X0418108Y0199704D01*
X0418108Y0200702D02*
X0404188Y0200702D01*
X0404188Y0201701D02*
X0405370Y0201701D01*
X0404372Y0202699D02*
X0404188Y0202699D01*
X0400588Y0202699D02*
X0399858Y0202699D01*
X0399858Y0201701D02*
X0400588Y0201701D01*
X0400588Y0200702D02*
X0399858Y0200702D01*
X0399858Y0199704D02*
X0400389Y0199704D01*
X0400530Y0199845D02*
X0400588Y0199869D01*
X0400588Y0207558D01*
X0400538Y0207895D01*
X0399916Y0207274D01*
X0399858Y0207249D01*
X0399858Y0199172D01*
X0400530Y0199845D01*
X0400588Y0203698D02*
X0399858Y0203698D01*
X0399858Y0204696D02*
X0400588Y0204696D01*
X0400588Y0205695D02*
X0399858Y0205695D01*
X0399858Y0206693D02*
X0400588Y0206693D01*
X0400568Y0207692D02*
X0400335Y0207692D01*
X0401339Y0209689D02*
X0401625Y0209689D01*
X0401339Y0210687D02*
X0402362Y0210687D01*
X0403099Y0211686D02*
X0400934Y0211686D01*
X0400069Y0212684D02*
X0403836Y0212684D01*
X0403640Y0213683D02*
X0396205Y0213683D01*
X0396197Y0214681D02*
X0403640Y0214681D01*
X0403640Y0215680D02*
X0396190Y0215680D01*
X0396182Y0216678D02*
X0403640Y0216678D01*
X0404323Y0217677D02*
X0396174Y0217677D01*
X0396167Y0218675D02*
X0405321Y0218675D01*
X0406140Y0219674D02*
X0396159Y0219674D01*
X0396151Y0220672D02*
X0406140Y0220672D01*
X0407128Y0221671D02*
X0396144Y0221671D01*
X0396136Y0222670D02*
X0408127Y0222670D01*
X0409125Y0223668D02*
X0396128Y0223668D01*
X0396121Y0224667D02*
X0410124Y0224667D01*
X0409810Y0225540D02*
X0409049Y0224779D01*
X0401870Y0224779D01*
X0401108Y0225540D01*
X0401108Y0231735D01*
X0401870Y0232497D01*
X0409049Y0232497D01*
X0409810Y0231735D01*
X0409810Y0230438D01*
X0438510Y0230438D01*
X0438510Y0231735D01*
X0439271Y0232497D01*
X0446451Y0232497D01*
X0446814Y0232134D01*
X0447245Y0233174D01*
X0448168Y0234097D01*
X0448226Y0234121D01*
X0448226Y0234423D01*
X0448299Y0234496D01*
X0448309Y0234598D01*
X0448817Y0235013D01*
X0449281Y0235477D01*
X0449384Y0235477D01*
X0457478Y0242100D01*
X0457942Y0242564D01*
X0458045Y0242564D01*
X0458125Y0242629D01*
X0458777Y0242564D01*
X0462297Y0242564D01*
X0462301Y0242567D01*
X0463043Y0242564D01*
X0463588Y0242564D01*
X0463588Y0246283D01*
X0464350Y0247044D01*
X0470427Y0247044D01*
X0471188Y0246283D01*
X0471188Y0242544D01*
X0473588Y0242544D01*
X0473588Y0246283D01*
X0474350Y0247044D01*
X0480427Y0247044D01*
X0481188Y0246283D01*
X0481188Y0242544D01*
X0483588Y0242544D01*
X0483588Y0246283D01*
X0484350Y0247044D01*
X0490427Y0247044D01*
X0491188Y0246283D01*
X0491188Y0242544D01*
X0493588Y0242544D01*
X0493588Y0246283D01*
X0494350Y0247044D01*
X0500427Y0247044D01*
X0501188Y0246283D01*
X0501188Y0235206D01*
X0500427Y0234444D01*
X0494350Y0234444D01*
X0493588Y0235206D01*
X0493588Y0238944D01*
X0491188Y0238944D01*
X0491188Y0235206D01*
X0490427Y0234444D01*
X0484350Y0234444D01*
X0483588Y0235206D01*
X0483588Y0238944D01*
X0481188Y0238944D01*
X0481188Y0235206D01*
X0480427Y0234444D01*
X0474350Y0234444D01*
X0473588Y0235206D01*
X0473588Y0238944D01*
X0471188Y0238944D01*
X0471188Y0235206D01*
X0470427Y0234444D01*
X0464350Y0234444D01*
X0463588Y0235206D01*
X0463588Y0238961D01*
X0463035Y0238964D01*
X0459330Y0238964D01*
X0452558Y0233423D01*
X0452808Y0233174D01*
X0453307Y0231968D01*
X0453307Y0230662D01*
X0453283Y0230604D01*
X0455606Y0228281D01*
X0455606Y0218835D01*
X0457100Y0218835D01*
X0457862Y0218074D01*
X0457862Y0212273D01*
X0457100Y0211511D01*
X0450511Y0211511D01*
X0449750Y0212273D01*
X0449750Y0218074D01*
X0450511Y0218835D01*
X0452006Y0218835D01*
X0452006Y0222749D01*
X0451097Y0221840D01*
X0449891Y0221341D01*
X0448586Y0221341D01*
X0447380Y0221840D01*
X0446457Y0222763D01*
X0445958Y0223969D01*
X0445958Y0224779D01*
X0439271Y0224779D01*
X0438510Y0225540D01*
X0438510Y0226838D01*
X0409810Y0226838D01*
X0409810Y0225540D01*
X0409810Y0225665D02*
X0438510Y0225665D01*
X0438510Y0226664D02*
X0409810Y0226664D01*
X0405459Y0228638D02*
X0442861Y0228638D01*
X0443727Y0227772D01*
X0444514Y0227772D01*
X0444121Y0228165D01*
X0444121Y0229740D01*
X0444514Y0227772D02*
X0446877Y0227772D01*
X0449239Y0225803D01*
X0449239Y0224622D01*
X0445958Y0224667D02*
X0430086Y0224667D01*
X0431085Y0223668D02*
X0446083Y0223668D01*
X0446551Y0222670D02*
X0432083Y0222670D01*
X0433082Y0221671D02*
X0447789Y0221671D01*
X0447232Y0220672D02*
X0452006Y0220672D01*
X0452006Y0219674D02*
X0447389Y0219674D01*
X0447389Y0218675D02*
X0450351Y0218675D01*
X0449750Y0217677D02*
X0447389Y0217677D01*
X0447389Y0216678D02*
X0449750Y0216678D01*
X0449750Y0215680D02*
X0446781Y0215680D01*
X0447135Y0213683D02*
X0449750Y0213683D01*
X0449750Y0214681D02*
X0432240Y0214681D01*
X0431985Y0217677D02*
X0431556Y0217677D01*
X0430986Y0218675D02*
X0430558Y0218675D01*
X0429988Y0219674D02*
X0410222Y0219674D01*
X0410558Y0218675D02*
X0415321Y0218675D01*
X0414323Y0217677D02*
X0411556Y0217677D01*
X0412240Y0216678D02*
X0413640Y0216678D01*
X0413640Y0215680D02*
X0412240Y0215680D01*
X0412240Y0214681D02*
X0413640Y0214681D01*
X0413640Y0213683D02*
X0412240Y0213683D01*
X0411493Y0212684D02*
X0414387Y0212684D01*
X0415385Y0211686D02*
X0410494Y0211686D01*
X0410543Y0208690D02*
X0415336Y0208690D01*
X0414338Y0207692D02*
X0411541Y0207692D01*
X0411981Y0206693D02*
X0413640Y0206693D01*
X0413640Y0205695D02*
X0412240Y0205695D01*
X0412240Y0204696D02*
X0413640Y0204696D01*
X0413640Y0203698D02*
X0411966Y0203698D01*
X0411507Y0202699D02*
X0414372Y0202699D01*
X0415370Y0201701D02*
X0410509Y0201701D01*
X0417940Y0205213D02*
X0419908Y0203244D01*
X0419908Y0188402D01*
X0430026Y0188402D01*
X0439459Y0178969D01*
X0443088Y0171745D02*
X0453878Y0171745D01*
X0450026Y0166354D02*
X0445853Y0162181D01*
X0446979Y0160762D02*
X0451731Y0160762D01*
X0452729Y0161760D02*
X0447978Y0161760D01*
X0448976Y0162759D02*
X0453878Y0162759D01*
X0453878Y0163757D02*
X0449975Y0163757D01*
X0462278Y0163757D02*
X0468350Y0163757D01*
X0469473Y0162759D02*
X0462278Y0162759D01*
X0462278Y0161760D02*
X0470579Y0161760D01*
X0471577Y0160762D02*
X0462278Y0160762D01*
X0458078Y0160069D02*
X0453583Y0160069D01*
X0451759Y0158244D01*
X0451759Y0152181D01*
X0454633Y0152774D02*
X0460978Y0152774D01*
X0460978Y0153772D02*
X0454633Y0153772D01*
X0453878Y0155837D02*
X0453878Y0157818D01*
X0453559Y0157498D01*
X0453559Y0155843D01*
X0453872Y0155843D01*
X0453878Y0155837D01*
X0453878Y0156768D02*
X0453559Y0156768D01*
X0453826Y0157766D02*
X0453878Y0157766D01*
X0449571Y0155769D02*
X0446859Y0155769D01*
X0447547Y0154771D02*
X0448884Y0154771D01*
X0448884Y0153772D02*
X0447547Y0153772D01*
X0447547Y0152774D02*
X0448884Y0152774D01*
X0436432Y0159763D02*
X0425842Y0159763D01*
X0425842Y0160762D02*
X0432989Y0160762D01*
X0432133Y0161760D02*
X0425842Y0161760D01*
X0425842Y0162759D02*
X0431277Y0162759D01*
X0430393Y0163757D02*
X0425842Y0163757D01*
X0434307Y0164756D02*
X0436589Y0164756D01*
X0433491Y0152181D02*
X0431129Y0149819D01*
X0432372Y0146783D02*
X0464728Y0146783D01*
X0464896Y0143787D02*
X0463060Y0143787D01*
X0461050Y0141157D02*
X0468924Y0141157D01*
X0472678Y0144912D01*
X0472678Y0151769D01*
X0469578Y0151769D02*
X0469578Y0147324D01*
X0467743Y0145488D01*
X0472102Y0141790D02*
X0472129Y0141790D01*
X0473101Y0142789D02*
X0473128Y0142789D01*
X0471131Y0140792D02*
X0471104Y0140792D01*
X0470132Y0139793D02*
X0470105Y0139793D01*
X0469133Y0138795D02*
X0463327Y0138795D01*
X0458773Y0138795D02*
X0458604Y0138795D01*
X0458064Y0139793D02*
X0449870Y0139793D01*
X0449870Y0140792D02*
X0457769Y0140792D01*
X0457769Y0141790D02*
X0449870Y0141790D01*
X0449870Y0142789D02*
X0458174Y0142789D01*
X0459039Y0143787D02*
X0449870Y0143787D01*
X0446995Y0141945D02*
X0446995Y0131984D01*
X0448795Y0133802D02*
X0454316Y0133802D01*
X0453681Y0134801D02*
X0448795Y0134801D01*
X0448795Y0135799D02*
X0453438Y0135799D01*
X0453482Y0136798D02*
X0448795Y0136798D01*
X0448795Y0137796D02*
X0453895Y0137796D01*
X0454834Y0138795D02*
X0449620Y0138795D01*
X0444120Y0142789D02*
X0442783Y0142789D01*
X0442783Y0143787D02*
X0444120Y0143787D01*
X0444120Y0144786D02*
X0442783Y0144786D01*
X0420892Y0142339D02*
X0420853Y0142378D01*
X0418798Y0139793D02*
X0415224Y0139793D01*
X0411468Y0135799D02*
X0396801Y0135799D01*
X0396809Y0134801D02*
X0410289Y0134801D01*
X0409845Y0133802D02*
X0396817Y0133802D01*
X0396824Y0132803D02*
X0409737Y0132803D01*
X0409916Y0131805D02*
X0396832Y0131805D01*
X0396840Y0130806D02*
X0410461Y0130806D01*
X0411885Y0129808D02*
X0396847Y0129808D01*
X0413018Y0132890D02*
X0420026Y0132890D01*
X0420184Y0132732D01*
X0407506Y0138795D02*
X0396778Y0138795D01*
X0396771Y0139793D02*
X0407506Y0139793D01*
X0407506Y0140792D02*
X0396763Y0140792D01*
X0396755Y0141790D02*
X0407506Y0141790D01*
X0407506Y0142789D02*
X0396748Y0142789D01*
X0396740Y0143787D02*
X0407506Y0143787D01*
X0407506Y0144786D02*
X0396732Y0144786D01*
X0396725Y0145784D02*
X0407506Y0145784D01*
X0409565Y0146783D02*
X0396717Y0146783D01*
X0396710Y0147781D02*
X0409565Y0147781D01*
X0409565Y0148780D02*
X0396702Y0148780D01*
X0396694Y0149778D02*
X0409565Y0149778D01*
X0409565Y0150777D02*
X0396687Y0150777D01*
X0396679Y0151775D02*
X0409565Y0151775D01*
X0409565Y0152774D02*
X0396671Y0152774D01*
X0396664Y0153772D02*
X0409565Y0153772D01*
X0409565Y0154771D02*
X0396656Y0154771D01*
X0396648Y0155769D02*
X0409565Y0155769D01*
X0409565Y0156768D02*
X0396641Y0156768D01*
X0396633Y0157766D02*
X0409565Y0157766D01*
X0409565Y0158765D02*
X0407982Y0158765D01*
X0409099Y0159763D02*
X0409565Y0159763D01*
X0409565Y0160762D02*
X0409517Y0160762D01*
X0409565Y0162759D02*
X0409409Y0162759D01*
X0409565Y0163757D02*
X0408838Y0163757D01*
X0409565Y0164756D02*
X0407353Y0164756D01*
X0406751Y0166753D02*
X0409565Y0166753D01*
X0409565Y0167751D02*
X0407074Y0167751D01*
X0407074Y0168750D02*
X0409565Y0168750D01*
X0409565Y0169748D02*
X0407074Y0169748D01*
X0407074Y0170747D02*
X0409565Y0170747D01*
X0409565Y0171745D02*
X0407074Y0171745D01*
X0407074Y0172744D02*
X0409565Y0172744D01*
X0409565Y0173742D02*
X0396511Y0173742D01*
X0396518Y0172744D02*
X0398962Y0172744D01*
X0398962Y0171745D02*
X0396526Y0171745D01*
X0396534Y0170747D02*
X0398962Y0170747D01*
X0398962Y0169748D02*
X0396541Y0169748D01*
X0396549Y0168750D02*
X0398962Y0168750D01*
X0398962Y0167751D02*
X0396557Y0167751D01*
X0396564Y0166753D02*
X0399285Y0166753D01*
X0401218Y0165754D02*
X0396572Y0165754D01*
X0396580Y0164756D02*
X0401218Y0164756D01*
X0401652Y0163757D02*
X0396587Y0163757D01*
X0396595Y0162759D02*
X0402651Y0162759D01*
X0403044Y0161760D02*
X0396603Y0161760D01*
X0396610Y0160762D02*
X0403134Y0160762D01*
X0403552Y0159763D02*
X0396618Y0159763D01*
X0396625Y0158765D02*
X0404669Y0158765D01*
X0406325Y0161630D02*
X0403018Y0164937D01*
X0403018Y0169976D01*
X0404818Y0165754D02*
X0409565Y0165754D01*
X0409565Y0174741D02*
X0396503Y0174741D01*
X0396495Y0175739D02*
X0407956Y0175739D01*
X0407506Y0176738D02*
X0396488Y0176738D01*
X0404582Y0185725D02*
X0409947Y0185725D01*
X0409947Y0186723D02*
X0404846Y0186723D01*
X0405955Y0187722D02*
X0409947Y0187722D01*
X0412231Y0189583D02*
X0403176Y0189583D01*
X0400094Y0190717D02*
X0399863Y0190717D01*
X0399858Y0191716D02*
X0400669Y0191716D01*
X0399858Y0192714D02*
X0402162Y0192714D01*
X0404190Y0192714D02*
X0418108Y0192714D01*
X0417447Y0191716D02*
X0415283Y0191716D01*
X0415696Y0190717D02*
X0417033Y0190717D01*
X0417033Y0189719D02*
X0415696Y0189719D01*
X0415696Y0188720D02*
X0417033Y0188720D01*
X0417033Y0187722D02*
X0415696Y0187722D01*
X0415696Y0186723D02*
X0417033Y0186723D01*
X0417033Y0185725D02*
X0415696Y0185725D01*
X0412822Y0188402D02*
X0412231Y0189583D01*
X0410360Y0191716D02*
X0405683Y0191716D01*
X0398058Y0189976D02*
X0398058Y0210055D01*
X0396258Y0207249D02*
X0396258Y0206786D01*
X0396254Y0207251D01*
X0396258Y0207249D01*
X0421708Y0199704D02*
X0438147Y0199704D01*
X0439145Y0198705D02*
X0421708Y0198705D01*
X0421708Y0197707D02*
X0440144Y0197707D01*
X0441143Y0196708D02*
X0421708Y0196708D01*
X0421708Y0195710D02*
X0442141Y0195710D01*
X0443140Y0194711D02*
X0421708Y0194711D01*
X0421708Y0193713D02*
X0444138Y0193713D01*
X0445137Y0192714D02*
X0421708Y0192714D01*
X0422370Y0191716D02*
X0432952Y0191716D01*
X0432147Y0190717D02*
X0422783Y0190717D01*
X0422783Y0185725D02*
X0430158Y0185725D01*
X0431255Y0189719D02*
X0431785Y0189719D01*
X0446234Y0196708D02*
X0467914Y0196708D01*
X0468913Y0195710D02*
X0447232Y0195710D01*
X0445235Y0197707D02*
X0466916Y0197707D01*
X0465917Y0198705D02*
X0444237Y0198705D01*
X0443238Y0199704D02*
X0450508Y0199704D01*
X0449750Y0200702D02*
X0442240Y0200702D01*
X0441241Y0201701D02*
X0445205Y0201701D01*
X0444207Y0202699D02*
X0440243Y0202699D01*
X0439244Y0203698D02*
X0443208Y0203698D01*
X0442210Y0204696D02*
X0438246Y0204696D01*
X0437247Y0205695D02*
X0441927Y0205695D01*
X0441927Y0206693D02*
X0436249Y0206693D01*
X0443727Y0205724D02*
X0446877Y0202575D01*
X0453018Y0202575D01*
X0453806Y0203362D01*
X0457862Y0203698D02*
X0463588Y0203698D01*
X0463588Y0204696D02*
X0457862Y0204696D01*
X0457862Y0205695D02*
X0463588Y0205695D01*
X0463588Y0206693D02*
X0457431Y0206693D01*
X0457862Y0202699D02*
X0463588Y0202699D01*
X0463588Y0201701D02*
X0457862Y0201701D01*
X0457862Y0200702D02*
X0463588Y0200702D01*
X0464090Y0199704D02*
X0457104Y0199704D01*
X0449750Y0204696D02*
X0447301Y0204696D01*
X0446302Y0205695D02*
X0449750Y0205695D01*
X0450180Y0206693D02*
X0445527Y0206693D01*
X0445527Y0207692D02*
X0463588Y0207692D01*
X0463588Y0208690D02*
X0446878Y0208690D01*
X0447389Y0209689D02*
X0463588Y0209689D01*
X0463588Y0210687D02*
X0447389Y0210687D01*
X0447389Y0211686D02*
X0450337Y0211686D01*
X0449750Y0212684D02*
X0447389Y0212684D01*
X0443727Y0211315D02*
X0443727Y0205724D01*
X0457275Y0211686D02*
X0463992Y0211686D01*
X0466350Y0214681D02*
X0457862Y0214681D01*
X0457862Y0213683D02*
X0467750Y0213683D01*
X0468271Y0213467D02*
X0467065Y0213966D01*
X0466142Y0214889D01*
X0465643Y0216095D01*
X0465643Y0217401D01*
X0466142Y0218607D01*
X0467065Y0219530D01*
X0468271Y0220029D01*
X0469577Y0220029D01*
X0470782Y0219530D01*
X0471705Y0218607D01*
X0471730Y0218548D01*
X0480685Y0218548D01*
X0480709Y0218607D01*
X0481632Y0219530D01*
X0482838Y0220029D01*
X0484143Y0220029D01*
X0485349Y0219530D01*
X0486272Y0218607D01*
X0486772Y0217401D01*
X0486772Y0216095D01*
X0486272Y0214889D01*
X0485349Y0213966D01*
X0484143Y0213467D01*
X0482838Y0213467D01*
X0481632Y0213966D01*
X0480709Y0214889D01*
X0480685Y0214948D01*
X0471730Y0214948D01*
X0471705Y0214889D01*
X0470782Y0213966D01*
X0469577Y0213467D01*
X0468271Y0213467D01*
X0470098Y0213683D02*
X0482317Y0213683D01*
X0480917Y0214681D02*
X0471497Y0214681D01*
X0470785Y0211686D02*
X0473992Y0211686D01*
X0473588Y0210687D02*
X0471188Y0210687D01*
X0471188Y0209689D02*
X0473588Y0209689D01*
X0473588Y0208690D02*
X0471188Y0208690D01*
X0471188Y0207692D02*
X0473588Y0207692D01*
X0473588Y0206693D02*
X0471188Y0206693D01*
X0471188Y0205695D02*
X0473588Y0205695D01*
X0473588Y0204696D02*
X0471188Y0204696D01*
X0471188Y0203698D02*
X0473588Y0203698D01*
X0473588Y0202699D02*
X0471188Y0202699D01*
X0471188Y0201701D02*
X0473588Y0201701D01*
X0473588Y0200702D02*
X0471188Y0200702D01*
X0470687Y0199704D02*
X0474090Y0199704D01*
X0475588Y0198705D02*
X0471008Y0198705D01*
X0472007Y0197707D02*
X0475588Y0197707D01*
X0475588Y0196708D02*
X0473005Y0196708D01*
X0474004Y0195710D02*
X0475588Y0195710D01*
X0475588Y0194711D02*
X0475002Y0194711D01*
X0477388Y0194110D02*
X0477388Y0205744D01*
X0481188Y0205695D02*
X0483588Y0205695D01*
X0483588Y0206693D02*
X0481188Y0206693D01*
X0481188Y0207692D02*
X0483588Y0207692D01*
X0483588Y0208690D02*
X0481188Y0208690D01*
X0481188Y0209689D02*
X0483588Y0209689D01*
X0483588Y0210687D02*
X0481188Y0210687D01*
X0480785Y0211686D02*
X0483992Y0211686D01*
X0484665Y0213683D02*
X0510037Y0213683D01*
X0510037Y0214681D02*
X0486064Y0214681D01*
X0486600Y0215680D02*
X0510192Y0215680D01*
X0511191Y0216678D02*
X0486772Y0216678D01*
X0486657Y0217677D02*
X0512189Y0217677D01*
X0513188Y0218675D02*
X0486204Y0218675D01*
X0485001Y0219674D02*
X0514186Y0219674D01*
X0515185Y0220672D02*
X0455606Y0220672D01*
X0455606Y0219674D02*
X0467414Y0219674D01*
X0466211Y0218675D02*
X0457260Y0218675D01*
X0457862Y0217677D02*
X0465757Y0217677D01*
X0465643Y0216678D02*
X0457862Y0216678D01*
X0457862Y0215680D02*
X0465815Y0215680D01*
X0468924Y0216748D02*
X0483491Y0216748D01*
X0481981Y0219674D02*
X0470434Y0219674D01*
X0471637Y0218675D02*
X0480778Y0218675D01*
X0490785Y0211686D02*
X0493992Y0211686D01*
X0493588Y0210687D02*
X0491188Y0210687D01*
X0491188Y0209689D02*
X0493588Y0209689D01*
X0493588Y0208690D02*
X0491188Y0208690D01*
X0491188Y0207692D02*
X0493588Y0207692D01*
X0493588Y0206693D02*
X0491188Y0206693D01*
X0491188Y0205695D02*
X0493588Y0205695D01*
X0493588Y0204696D02*
X0491188Y0204696D01*
X0491188Y0203698D02*
X0493588Y0203698D01*
X0493588Y0202699D02*
X0491188Y0202699D01*
X0491188Y0201701D02*
X0493588Y0201701D01*
X0493588Y0200702D02*
X0491188Y0200702D01*
X0490687Y0199704D02*
X0494090Y0199704D01*
X0495864Y0198705D02*
X0489188Y0198705D01*
X0489188Y0197707D02*
X0495864Y0197707D01*
X0495864Y0196708D02*
X0489188Y0196708D01*
X0489188Y0195710D02*
X0495864Y0195710D01*
X0495864Y0194711D02*
X0489188Y0194711D01*
X0489188Y0193713D02*
X0495864Y0193713D01*
X0495864Y0192714D02*
X0489188Y0192714D01*
X0489188Y0191716D02*
X0495864Y0191716D01*
X0495864Y0190717D02*
X0489139Y0190717D01*
X0488141Y0189719D02*
X0495864Y0189719D01*
X0495864Y0188720D02*
X0487142Y0188720D01*
X0487464Y0187722D02*
X0495864Y0187722D01*
X0495864Y0186723D02*
X0487578Y0186723D01*
X0487578Y0185725D02*
X0495864Y0185725D01*
X0495864Y0184726D02*
X0487578Y0184726D01*
X0487578Y0183728D02*
X0495864Y0183728D01*
X0495864Y0182729D02*
X0487578Y0182729D01*
X0487578Y0181731D02*
X0495534Y0181731D01*
X0497664Y0181315D02*
X0497664Y0205469D01*
X0497388Y0205744D01*
X0501188Y0205695D02*
X0510037Y0205695D01*
X0510037Y0206693D02*
X0501188Y0206693D01*
X0501188Y0207692D02*
X0510037Y0207692D01*
X0510037Y0208690D02*
X0501188Y0208690D01*
X0501188Y0209689D02*
X0510037Y0209689D01*
X0510037Y0210687D02*
X0501188Y0210687D01*
X0500785Y0211686D02*
X0510037Y0211686D01*
X0510037Y0212684D02*
X0457862Y0212684D01*
X0453806Y0215173D02*
X0453806Y0227535D01*
X0450026Y0231315D01*
X0450026Y0233677D01*
X0458688Y0240764D01*
X0463038Y0240764D01*
X0467388Y0240744D01*
X0477388Y0240744D01*
X0487388Y0240744D01*
X0497388Y0240744D01*
X0501188Y0240643D02*
X0519577Y0240643D01*
X0519577Y0239644D02*
X0501188Y0239644D01*
X0501188Y0238646D02*
X0519708Y0238646D01*
X0520122Y0237647D02*
X0501188Y0237647D01*
X0501188Y0236649D02*
X0520966Y0236649D01*
X0522704Y0235650D02*
X0501188Y0235650D01*
X0500634Y0234652D02*
X0524377Y0234652D01*
X0521897Y0233653D02*
X0452839Y0233653D01*
X0453023Y0232655D02*
X0520631Y0232655D01*
X0519983Y0231656D02*
X0453307Y0231656D01*
X0453305Y0230658D02*
X0519577Y0230658D01*
X0519577Y0229659D02*
X0454228Y0229659D01*
X0455226Y0228661D02*
X0519702Y0228661D01*
X0520116Y0227662D02*
X0455606Y0227662D01*
X0455606Y0226664D02*
X0520951Y0226664D01*
X0520177Y0225665D02*
X0455606Y0225665D01*
X0455606Y0224667D02*
X0519179Y0224667D01*
X0518180Y0223668D02*
X0455606Y0223668D01*
X0455606Y0222670D02*
X0517182Y0222670D01*
X0516183Y0221671D02*
X0455606Y0221671D01*
X0452006Y0221671D02*
X0450688Y0221671D01*
X0451926Y0222670D02*
X0452006Y0222670D01*
X0452006Y0226495D02*
X0451097Y0227404D01*
X0449891Y0227903D01*
X0449531Y0227903D01*
X0449374Y0228034D01*
X0450679Y0228034D01*
X0450737Y0228058D01*
X0452006Y0226790D01*
X0452006Y0226495D01*
X0452006Y0226664D02*
X0451837Y0226664D01*
X0451134Y0227662D02*
X0450473Y0227662D01*
X0447030Y0232655D02*
X0396060Y0232655D01*
X0396052Y0233653D02*
X0447724Y0233653D01*
X0448375Y0234652D02*
X0396044Y0234652D01*
X0396037Y0235650D02*
X0444715Y0235650D01*
X0445043Y0235514D02*
X0446348Y0235514D01*
X0447554Y0236014D01*
X0448477Y0236937D01*
X0448977Y0238143D01*
X0448977Y0239448D01*
X0448477Y0240654D01*
X0447554Y0241577D01*
X0446348Y0242076D01*
X0445043Y0242076D01*
X0444984Y0242052D01*
X0444661Y0242376D01*
X0444661Y0242495D01*
X0446451Y0242495D01*
X0447212Y0243257D01*
X0447212Y0249452D01*
X0446451Y0250213D01*
X0439271Y0250213D01*
X0438510Y0249452D01*
X0438510Y0248154D01*
X0409810Y0248154D01*
X0409810Y0249452D01*
X0409049Y0250213D01*
X0401870Y0250213D01*
X0401108Y0249452D01*
X0401108Y0243257D01*
X0401870Y0242495D01*
X0409049Y0242495D01*
X0409810Y0243257D01*
X0409810Y0244554D01*
X0438510Y0244554D01*
X0438510Y0243257D01*
X0439271Y0242495D01*
X0441061Y0242495D01*
X0441061Y0240884D01*
X0442115Y0239830D01*
X0442439Y0239507D01*
X0442414Y0239448D01*
X0442414Y0238143D01*
X0442914Y0236937D01*
X0443837Y0236014D01*
X0445043Y0235514D01*
X0446676Y0235650D02*
X0449595Y0235650D01*
X0450816Y0236649D02*
X0448189Y0236649D01*
X0448771Y0237647D02*
X0452036Y0237647D01*
X0453256Y0238646D02*
X0448977Y0238646D01*
X0448895Y0239644D02*
X0454477Y0239644D01*
X0455697Y0240643D02*
X0448482Y0240643D01*
X0447399Y0241641D02*
X0456918Y0241641D01*
X0458941Y0238646D02*
X0463588Y0238646D01*
X0463588Y0237647D02*
X0457721Y0237647D01*
X0456501Y0236649D02*
X0463588Y0236649D01*
X0463588Y0235650D02*
X0455280Y0235650D01*
X0454060Y0234652D02*
X0464142Y0234652D01*
X0470634Y0234652D02*
X0474142Y0234652D01*
X0473588Y0235650D02*
X0471188Y0235650D01*
X0471188Y0236649D02*
X0473588Y0236649D01*
X0473588Y0237647D02*
X0471188Y0237647D01*
X0471188Y0238646D02*
X0473588Y0238646D01*
X0481188Y0238646D02*
X0483588Y0238646D01*
X0483588Y0237647D02*
X0481188Y0237647D01*
X0481188Y0236649D02*
X0483588Y0236649D01*
X0483588Y0235650D02*
X0481188Y0235650D01*
X0480634Y0234652D02*
X0484142Y0234652D01*
X0490634Y0234652D02*
X0494142Y0234652D01*
X0493588Y0235650D02*
X0491188Y0235650D01*
X0491188Y0236649D02*
X0493588Y0236649D01*
X0493588Y0237647D02*
X0491188Y0237647D01*
X0491188Y0238646D02*
X0493588Y0238646D01*
X0501188Y0241641D02*
X0519977Y0241641D01*
X0520616Y0242640D02*
X0501188Y0242640D01*
X0501188Y0243638D02*
X0521861Y0243638D01*
X0522740Y0245635D02*
X0501188Y0245635D01*
X0501188Y0244637D02*
X0524377Y0244637D01*
X0520981Y0246634D02*
X0500837Y0246634D01*
X0493940Y0246634D02*
X0490837Y0246634D01*
X0491188Y0245635D02*
X0493588Y0245635D01*
X0493588Y0244637D02*
X0491188Y0244637D01*
X0491188Y0243638D02*
X0493588Y0243638D01*
X0493588Y0242640D02*
X0491188Y0242640D01*
X0483588Y0242640D02*
X0481188Y0242640D01*
X0481188Y0243638D02*
X0483588Y0243638D01*
X0483588Y0244637D02*
X0481188Y0244637D01*
X0481188Y0245635D02*
X0483588Y0245635D01*
X0483940Y0246634D02*
X0480837Y0246634D01*
X0473940Y0246634D02*
X0470837Y0246634D01*
X0471188Y0245635D02*
X0473588Y0245635D01*
X0473588Y0244637D02*
X0471188Y0244637D01*
X0471188Y0243638D02*
X0473588Y0243638D01*
X0473588Y0242640D02*
X0471188Y0242640D01*
X0463588Y0242640D02*
X0446595Y0242640D01*
X0447212Y0243638D02*
X0463588Y0243638D01*
X0463588Y0244637D02*
X0447212Y0244637D01*
X0447212Y0245635D02*
X0463588Y0245635D01*
X0463940Y0246634D02*
X0447212Y0246634D01*
X0447212Y0247632D02*
X0520128Y0247632D01*
X0519714Y0248631D02*
X0447212Y0248631D01*
X0447035Y0249629D02*
X0519577Y0249629D01*
X0519577Y0250628D02*
X0395922Y0250628D01*
X0395914Y0251626D02*
X0519971Y0251626D01*
X0520601Y0252625D02*
X0395907Y0252625D01*
X0395930Y0249629D02*
X0401286Y0249629D01*
X0401108Y0248631D02*
X0395937Y0248631D01*
X0395945Y0247632D02*
X0401108Y0247632D01*
X0401108Y0246634D02*
X0395953Y0246634D01*
X0395960Y0245635D02*
X0401108Y0245635D01*
X0401108Y0244637D02*
X0395968Y0244637D01*
X0395976Y0243638D02*
X0401108Y0243638D01*
X0401725Y0242640D02*
X0395983Y0242640D01*
X0395991Y0241641D02*
X0441061Y0241641D01*
X0441302Y0240643D02*
X0395999Y0240643D01*
X0396006Y0239644D02*
X0442301Y0239644D01*
X0442414Y0238646D02*
X0396014Y0238646D01*
X0396021Y0237647D02*
X0442620Y0237647D01*
X0443202Y0236649D02*
X0396029Y0236649D01*
X0396067Y0231656D02*
X0401108Y0231656D01*
X0401108Y0230658D02*
X0396075Y0230658D01*
X0396083Y0229659D02*
X0401108Y0229659D01*
X0401108Y0228661D02*
X0396090Y0228661D01*
X0396098Y0227662D02*
X0401108Y0227662D01*
X0401108Y0226664D02*
X0396106Y0226664D01*
X0396113Y0225665D02*
X0401108Y0225665D01*
X0409810Y0230658D02*
X0438510Y0230658D01*
X0438510Y0231656D02*
X0409810Y0231656D01*
X0409193Y0242640D02*
X0439127Y0242640D01*
X0438510Y0243638D02*
X0409810Y0243638D01*
X0405459Y0246354D02*
X0442861Y0246354D01*
X0442861Y0241630D01*
X0445696Y0238795D01*
X0438510Y0248631D02*
X0409810Y0248631D01*
X0409633Y0249629D02*
X0438687Y0249629D01*
X0440222Y0220672D02*
X0434080Y0220672D01*
X0428989Y0220672D02*
X0411221Y0220672D01*
X0443412Y0218717D02*
X0443727Y0218402D01*
X0467388Y0205744D02*
X0467388Y0199780D01*
X0478978Y0188190D01*
X0478978Y0184169D01*
X0482178Y0184169D02*
X0482178Y0189320D01*
X0477388Y0194110D01*
X0479333Y0194711D02*
X0485588Y0194711D01*
X0485588Y0193713D02*
X0480332Y0193713D01*
X0481330Y0192714D02*
X0485588Y0192714D01*
X0485047Y0191716D02*
X0482329Y0191716D01*
X0483327Y0190717D02*
X0484048Y0190717D01*
X0485278Y0189402D02*
X0487388Y0191512D01*
X0487388Y0205744D01*
X0483588Y0204696D02*
X0481188Y0204696D01*
X0481188Y0203698D02*
X0483588Y0203698D01*
X0483588Y0202699D02*
X0481188Y0202699D01*
X0481188Y0201701D02*
X0483588Y0201701D01*
X0483588Y0200702D02*
X0481188Y0200702D01*
X0480687Y0199704D02*
X0484090Y0199704D01*
X0485588Y0198705D02*
X0479188Y0198705D01*
X0479188Y0197707D02*
X0485588Y0197707D01*
X0485588Y0196708D02*
X0479188Y0196708D01*
X0479188Y0195710D02*
X0485588Y0195710D01*
X0499464Y0195710D02*
X0500283Y0195710D01*
X0499473Y0196708D02*
X0499464Y0196708D01*
X0499464Y0194711D02*
X0503614Y0194711D01*
X0504719Y0193713D02*
X0499464Y0193713D01*
X0499464Y0192714D02*
X0505824Y0192714D01*
X0506929Y0191716D02*
X0499464Y0191716D01*
X0499464Y0190717D02*
X0508035Y0190717D01*
X0509140Y0189719D02*
X0499464Y0189719D01*
X0499464Y0188720D02*
X0510245Y0188720D01*
X0511350Y0187722D02*
X0499464Y0187722D01*
X0499464Y0186723D02*
X0512455Y0186723D01*
X0513560Y0185725D02*
X0499464Y0185725D01*
X0499464Y0184726D02*
X0514666Y0184726D01*
X0515771Y0183728D02*
X0499464Y0183728D01*
X0499464Y0182729D02*
X0516876Y0182729D01*
X0517981Y0181731D02*
X0499464Y0181731D01*
X0499464Y0180732D02*
X0519086Y0180732D01*
X0519577Y0179734D02*
X0498628Y0179734D01*
X0497630Y0178735D02*
X0519671Y0178735D01*
X0520085Y0177737D02*
X0496631Y0177737D01*
X0495318Y0178969D02*
X0497664Y0181315D01*
X0495318Y0178969D02*
X0490478Y0178969D01*
X0486278Y0178735D02*
X0462278Y0178735D01*
X0462278Y0177737D02*
X0486278Y0177737D01*
X0486278Y0177430D02*
X0486290Y0177418D01*
X0486278Y0177407D01*
X0486278Y0174443D01*
X0484320Y0172485D01*
X0464818Y0172485D01*
X0464818Y0175368D01*
X0463764Y0176422D01*
X0462517Y0177668D01*
X0462278Y0177668D01*
X0462278Y0179969D01*
X0464817Y0179969D01*
X0464828Y0179980D01*
X0464840Y0179969D01*
X0467917Y0179969D01*
X0467978Y0180030D01*
X0468040Y0179969D01*
X0471117Y0179969D01*
X0471128Y0179980D01*
X0471140Y0179969D01*
X0474217Y0179969D01*
X0474278Y0180030D01*
X0474340Y0179969D01*
X0477417Y0179969D01*
X0477428Y0179980D01*
X0477440Y0179969D01*
X0480517Y0179969D01*
X0480578Y0180030D01*
X0480640Y0179969D01*
X0483717Y0179969D01*
X0483728Y0179980D01*
X0483740Y0179969D01*
X0486278Y0179969D01*
X0486278Y0177430D01*
X0486278Y0176738D02*
X0463448Y0176738D01*
X0464447Y0175739D02*
X0486278Y0175739D01*
X0486278Y0174741D02*
X0464818Y0174741D01*
X0464818Y0173742D02*
X0485577Y0173742D01*
X0484579Y0172744D02*
X0464818Y0172744D01*
X0469285Y0167751D02*
X0478943Y0167751D01*
X0478635Y0166753D02*
X0470399Y0166753D01*
X0471521Y0165754D02*
X0478635Y0165754D01*
X0479027Y0164756D02*
X0472674Y0164756D01*
X0485459Y0167535D02*
X0485459Y0171079D01*
X0494678Y0174741D02*
X0498387Y0174741D01*
X0499317Y0175739D02*
X0494678Y0175739D01*
X0494678Y0176738D02*
X0500028Y0176738D01*
X0513333Y0173913D02*
X0513412Y0173992D01*
X0522782Y0179819D02*
X0526877Y0179819D01*
X0522782Y0179819D02*
X0502388Y0198244D01*
X0504570Y0200702D02*
X0509262Y0200702D01*
X0508727Y0199704D02*
X0505335Y0199704D01*
X0505670Y0198705D02*
X0508556Y0198705D01*
X0508671Y0197707D02*
X0505670Y0197707D01*
X0506773Y0196708D02*
X0509127Y0196708D01*
X0510332Y0195710D02*
X0507879Y0195710D01*
X0508984Y0194711D02*
X0540111Y0194711D01*
X0540113Y0193713D02*
X0531713Y0193713D01*
X0532312Y0193464D02*
X0530732Y0194119D01*
X0523021Y0194119D01*
X0521441Y0193464D01*
X0520231Y0192255D01*
X0519577Y0190674D01*
X0519577Y0188964D01*
X0520231Y0187383D01*
X0521441Y0186174D01*
X0523021Y0185519D01*
X0530732Y0185519D01*
X0532312Y0186174D01*
X0533522Y0187383D01*
X0534177Y0188964D01*
X0534177Y0190674D01*
X0533522Y0192255D01*
X0532312Y0193464D01*
X0533062Y0192714D02*
X0540115Y0192714D01*
X0540116Y0191716D02*
X0533745Y0191716D01*
X0534159Y0190717D02*
X0540118Y0190717D01*
X0540119Y0189719D02*
X0534177Y0189719D01*
X0534076Y0188720D02*
X0540121Y0188720D01*
X0540122Y0187722D02*
X0533662Y0187722D01*
X0532862Y0186723D02*
X0540124Y0186723D01*
X0540125Y0185725D02*
X0531229Y0185725D01*
X0531677Y0183728D02*
X0540128Y0183728D01*
X0540127Y0184726D02*
X0520036Y0184726D01*
X0521141Y0183728D02*
X0522077Y0183728D01*
X0522525Y0185725D02*
X0518930Y0185725D01*
X0517825Y0186723D02*
X0520891Y0186723D01*
X0520091Y0187722D02*
X0516720Y0187722D01*
X0515615Y0188720D02*
X0519677Y0188720D01*
X0519577Y0189719D02*
X0514510Y0189719D01*
X0513405Y0190717D02*
X0519594Y0190717D01*
X0520008Y0191716D02*
X0512299Y0191716D01*
X0511194Y0192714D02*
X0520691Y0192714D01*
X0522041Y0193713D02*
X0510089Y0193713D01*
X0513342Y0195710D02*
X0522561Y0195710D01*
X0523021Y0195519D02*
X0530732Y0195519D01*
X0532312Y0196174D01*
X0533522Y0197383D01*
X0534177Y0198964D01*
X0534177Y0200674D01*
X0533522Y0202255D01*
X0532312Y0203464D01*
X0530732Y0204119D01*
X0523021Y0204119D01*
X0521441Y0203464D01*
X0520231Y0202255D01*
X0519577Y0200674D01*
X0519577Y0198964D01*
X0520231Y0197383D01*
X0521441Y0196174D01*
X0523021Y0195519D01*
X0520906Y0196708D02*
X0514548Y0196708D01*
X0515003Y0197707D02*
X0520097Y0197707D01*
X0519684Y0198705D02*
X0515118Y0198705D01*
X0514947Y0199704D02*
X0519577Y0199704D01*
X0519588Y0200702D02*
X0514413Y0200702D01*
X0513637Y0201701D02*
X0520002Y0201701D01*
X0520676Y0202699D02*
X0513637Y0202699D01*
X0513637Y0203698D02*
X0522005Y0203698D01*
X0522597Y0205695D02*
X0513637Y0205695D01*
X0513637Y0206693D02*
X0520921Y0206693D01*
X0521441Y0206174D02*
X0523021Y0205519D01*
X0530732Y0205519D01*
X0532312Y0206174D01*
X0533522Y0207383D01*
X0534177Y0208964D01*
X0534177Y0210674D01*
X0533522Y0212255D01*
X0532312Y0213464D01*
X0530732Y0214119D01*
X0523021Y0214119D01*
X0521441Y0213464D01*
X0520231Y0212255D01*
X0519577Y0210674D01*
X0519577Y0208964D01*
X0520231Y0207383D01*
X0521441Y0206174D01*
X0520103Y0207692D02*
X0513637Y0207692D01*
X0513637Y0208690D02*
X0519690Y0208690D01*
X0519577Y0209689D02*
X0513637Y0209689D01*
X0513637Y0210687D02*
X0519582Y0210687D01*
X0519996Y0211686D02*
X0513637Y0211686D01*
X0513637Y0212684D02*
X0520661Y0212684D01*
X0521969Y0213683D02*
X0513637Y0213683D01*
X0514285Y0214681D02*
X0540081Y0214681D01*
X0540082Y0213683D02*
X0531784Y0213683D01*
X0533092Y0212684D02*
X0540084Y0212684D01*
X0540085Y0211686D02*
X0533758Y0211686D01*
X0534171Y0210687D02*
X0540087Y0210687D01*
X0540089Y0209689D02*
X0534177Y0209689D01*
X0534063Y0208690D02*
X0540090Y0208690D01*
X0540092Y0207692D02*
X0533650Y0207692D01*
X0532832Y0206693D02*
X0540093Y0206693D01*
X0540095Y0205695D02*
X0531157Y0205695D01*
X0531749Y0203698D02*
X0540098Y0203698D01*
X0540096Y0204696D02*
X0513637Y0204696D01*
X0510037Y0204696D02*
X0501188Y0204696D01*
X0501188Y0203698D02*
X0510037Y0203698D01*
X0510037Y0202699D02*
X0501188Y0202699D01*
X0501188Y0201701D02*
X0510037Y0201701D01*
X0511837Y0198638D02*
X0511837Y0214780D01*
X0526877Y0229819D01*
X0531085Y0225665D02*
X0540064Y0225665D01*
X0540066Y0224667D02*
X0524270Y0224667D01*
X0519577Y0219674D02*
X0519277Y0219674D01*
X0519696Y0218675D02*
X0518279Y0218675D01*
X0517280Y0217677D02*
X0520110Y0217677D01*
X0520936Y0216678D02*
X0516282Y0216678D01*
X0515283Y0215680D02*
X0522633Y0215680D01*
X0531121Y0215680D02*
X0540079Y0215680D01*
X0540078Y0216678D02*
X0532817Y0216678D01*
X0533644Y0217677D02*
X0540076Y0217677D01*
X0540075Y0218675D02*
X0534057Y0218675D01*
X0534177Y0219674D02*
X0540073Y0219674D01*
X0540072Y0220672D02*
X0534177Y0220672D01*
X0533764Y0221671D02*
X0540070Y0221671D01*
X0540069Y0222670D02*
X0533107Y0222670D01*
X0531820Y0223668D02*
X0540067Y0223668D01*
X0540063Y0226664D02*
X0532802Y0226664D01*
X0533638Y0227662D02*
X0540061Y0227662D01*
X0540059Y0228661D02*
X0534051Y0228661D01*
X0534177Y0229659D02*
X0540058Y0229659D01*
X0540056Y0230658D02*
X0534177Y0230658D01*
X0533770Y0231656D02*
X0540055Y0231656D01*
X0540053Y0232655D02*
X0533122Y0232655D01*
X0531856Y0233653D02*
X0540052Y0233653D01*
X0540050Y0234652D02*
X0529377Y0234652D01*
X0531049Y0235650D02*
X0540049Y0235650D01*
X0540047Y0236649D02*
X0532788Y0236649D01*
X0533631Y0237647D02*
X0540046Y0237647D01*
X0540044Y0238646D02*
X0534045Y0238646D01*
X0534177Y0239644D02*
X0540043Y0239644D01*
X0540041Y0240643D02*
X0534177Y0240643D01*
X0533776Y0241641D02*
X0540040Y0241641D01*
X0540038Y0242640D02*
X0533137Y0242640D01*
X0531892Y0243638D02*
X0540037Y0243638D01*
X0540035Y0244637D02*
X0529377Y0244637D01*
X0531013Y0245635D02*
X0540033Y0245635D01*
X0540032Y0246634D02*
X0532773Y0246634D01*
X0533625Y0247632D02*
X0540030Y0247632D01*
X0540029Y0248631D02*
X0534039Y0248631D01*
X0534177Y0249629D02*
X0540027Y0249629D01*
X0540026Y0250628D02*
X0534177Y0250628D01*
X0533782Y0251626D02*
X0540024Y0251626D01*
X0540023Y0252625D02*
X0533152Y0252625D01*
X0533077Y0202699D02*
X0540099Y0202699D01*
X0540101Y0201701D02*
X0533751Y0201701D01*
X0534165Y0200702D02*
X0540102Y0200702D01*
X0540104Y0199704D02*
X0534177Y0199704D01*
X0534070Y0198705D02*
X0540105Y0198705D01*
X0540107Y0197707D02*
X0533656Y0197707D01*
X0532847Y0196708D02*
X0540108Y0196708D01*
X0540110Y0195710D02*
X0531193Y0195710D01*
X0533048Y0182729D02*
X0540130Y0182729D01*
X0540131Y0181731D02*
X0533739Y0181731D01*
X0534153Y0180732D02*
X0540133Y0180732D01*
X0540134Y0179734D02*
X0534177Y0179734D01*
X0534082Y0178735D02*
X0540136Y0178735D01*
X0540137Y0177737D02*
X0533668Y0177737D01*
X0532877Y0176738D02*
X0540139Y0176738D01*
X0509786Y0164756D02*
X0509414Y0164756D01*
X0512608Y0154771D02*
X0494019Y0154771D01*
X0518697Y0153772D02*
X0540174Y0153772D01*
X0540176Y0152774D02*
X0519696Y0152774D01*
X0520694Y0151775D02*
X0540177Y0151775D01*
X0540179Y0150777D02*
X0521693Y0150777D01*
X0522691Y0149778D02*
X0540180Y0149778D01*
X0540182Y0148780D02*
X0523690Y0148780D01*
X0524661Y0147781D02*
X0540183Y0147781D01*
X0540185Y0146783D02*
X0524661Y0146783D01*
X0524661Y0145784D02*
X0540186Y0145784D01*
X0540188Y0144786D02*
X0524661Y0144786D01*
X0502231Y0134228D02*
X0502073Y0134071D01*
X0498451Y0134071D01*
X0495932Y0136591D01*
X0495932Y0143913D01*
X0486191Y0140792D02*
X0483978Y0140792D01*
X0498270Y0136798D02*
X0498569Y0136798D01*
X0458584Y0116827D02*
X0455407Y0116827D01*
X0454409Y0115829D02*
X0457585Y0115829D01*
X0456587Y0114830D02*
X0453410Y0114830D01*
X0452411Y0113832D02*
X0455588Y0113832D01*
X0454590Y0112833D02*
X0451413Y0112833D01*
X0450414Y0111835D02*
X0453591Y0111835D01*
X0452592Y0110836D02*
X0449416Y0110836D01*
X0448417Y0109838D02*
X0451594Y0109838D01*
X0450595Y0108839D02*
X0447419Y0108839D01*
X0446420Y0107841D02*
X0449597Y0107841D01*
X0448598Y0106842D02*
X0445422Y0106842D01*
X0444423Y0105844D02*
X0447600Y0105844D01*
X0446601Y0104845D02*
X0443425Y0104845D01*
X0442426Y0103847D02*
X0445603Y0103847D01*
X0444604Y0102848D02*
X0441428Y0102848D01*
X0440429Y0101850D02*
X0443606Y0101850D01*
X0442607Y0100851D02*
X0439431Y0100851D01*
X0438432Y0099853D02*
X0441609Y0099853D01*
X0440610Y0098854D02*
X0437434Y0098854D01*
X0436435Y0097856D02*
X0439612Y0097856D01*
X0438613Y0096857D02*
X0429338Y0096857D01*
X0428446Y0095859D02*
X0437615Y0095859D01*
X0436616Y0094860D02*
X0428074Y0094860D01*
X0429073Y0093862D02*
X0435618Y0093862D01*
X0435338Y0101850D02*
X0428958Y0101850D01*
X0427829Y0102848D02*
X0436337Y0102848D01*
X0437335Y0103847D02*
X0428560Y0103847D01*
X0429385Y0104845D02*
X0438334Y0104845D01*
X0439332Y0105844D02*
X0429799Y0105844D01*
X0423405Y0102848D02*
X0397054Y0102848D01*
X0397061Y0101850D02*
X0422275Y0101850D01*
X0422673Y0103847D02*
X0397046Y0103847D01*
X0397038Y0104845D02*
X0421849Y0104845D01*
X0421435Y0105844D02*
X0397031Y0105844D01*
X0397023Y0106842D02*
X0421317Y0106842D01*
X0421317Y0107841D02*
X0397015Y0107841D01*
X0397008Y0108839D02*
X0421731Y0108839D01*
X0422389Y0109838D02*
X0397000Y0109838D01*
X0396992Y0110836D02*
X0423680Y0110836D01*
X0423817Y0111835D02*
X0396985Y0111835D01*
X0396977Y0112833D02*
X0423817Y0112833D01*
X0428104Y0071894D02*
X0436132Y0071894D01*
X0434573Y0070896D02*
X0428416Y0070896D01*
X0513965Y0047930D02*
X0520054Y0047930D01*
X0519640Y0048929D02*
X0515374Y0048929D01*
X0516082Y0049927D02*
X0519577Y0049927D01*
X0519632Y0050926D02*
X0516496Y0050926D01*
X0516531Y0051924D02*
X0520045Y0051924D01*
X0520781Y0052923D02*
X0516448Y0052923D01*
X0515373Y0046932D02*
X0520801Y0046932D01*
X0522307Y0045933D02*
X0516081Y0045933D01*
X0531447Y0045933D02*
X0540339Y0045933D01*
X0540338Y0046932D02*
X0532952Y0046932D01*
X0533700Y0047930D02*
X0540336Y0047930D01*
X0540335Y0048929D02*
X0534113Y0048929D01*
X0534177Y0049927D02*
X0540333Y0049927D01*
X0540332Y0050926D02*
X0534121Y0050926D01*
X0533708Y0051924D02*
X0540330Y0051924D01*
X0540329Y0052923D02*
X0532972Y0052923D01*
X0531495Y0053921D02*
X0540327Y0053921D01*
X0540359Y0032952D02*
X0532942Y0032952D01*
X0533696Y0031954D02*
X0540361Y0031954D01*
X0540362Y0030955D02*
X0534109Y0030955D01*
X0534177Y0029957D02*
X0540364Y0029957D01*
X0486278Y0179734D02*
X0462278Y0179734D01*
X0468362Y0188720D02*
X0475902Y0188720D01*
X0485278Y0189402D02*
X0485278Y0184169D01*
D25*
X0502388Y0198244D03*
X0511837Y0198638D03*
X0483491Y0216748D03*
X0468924Y0216748D03*
X0449239Y0224622D03*
X0450026Y0231315D03*
X0445696Y0238795D03*
X0398058Y0210055D03*
X0402388Y0197063D03*
X0403176Y0189583D03*
X0420499Y0179740D03*
X0431916Y0167142D03*
X0406325Y0161630D03*
X0431129Y0149819D03*
X0420892Y0142339D03*
X0413018Y0132890D03*
X0456719Y0136039D03*
X0461050Y0141157D03*
X0467743Y0145488D03*
X0507507Y0162024D03*
X0481916Y0166354D03*
X0435066Y0189189D03*
X0518136Y0141551D03*
X0508294Y0125409D03*
X0494908Y0122260D03*
X0448845Y0067535D03*
X0437034Y0068717D03*
D26*
X0526877Y0229819D02*
X0526877Y0239819D01*
X0526877Y0249819D01*
M02*
