G75*
%MOIN*%
%OFA0B0*%
%FSLAX25Y25*%
%IPPOS*%
%LPD*%
%AMOC8*
5,1,8,0,0,1.08239X$1,22.5*
%
%ADD10R,0.27178X0.27178*%
%ADD11R,0.12611X0.07099*%
%ADD12R,0.07099X0.07887*%
%ADD13R,0.05524X0.03950*%
%ADD14R,0.03950X0.05524*%
%ADD15R,0.06312X0.04737*%
%ADD16C,0.05950*%
%ADD17C,0.06800*%
%ADD18OC8,0.06800*%
%ADD19C,0.06800*%
%ADD20C,0.04762*%
D10*
X0458806Y0163697D03*
D11*
X0481444Y0172752D03*
X0481444Y0154642D03*
D12*
X0497979Y0154839D03*
X0509003Y0154839D03*
X0509436Y0174524D03*
X0498412Y0174524D03*
D13*
X0515696Y0168185D03*
X0515696Y0161098D03*
X0456325Y0224760D03*
X0456325Y0231846D03*
X0437034Y0081217D03*
X0437034Y0074130D03*
X0443530Y0057398D03*
X0454160Y0057398D03*
X0454160Y0050311D03*
X0443530Y0050311D03*
X0470499Y0071650D03*
X0470499Y0078736D03*
X0502034Y0075665D03*
X0502034Y0082752D03*
X0501995Y0060626D03*
X0501995Y0053539D03*
D14*
X0500341Y0137201D03*
X0507428Y0137201D03*
X0507034Y0145429D03*
X0499948Y0145429D03*
X0500381Y0184012D03*
X0507467Y0184012D03*
X0507467Y0192713D03*
X0500381Y0192713D03*
X0508097Y0205587D03*
X0515184Y0205587D03*
X0514987Y0212673D03*
X0507900Y0212673D03*
X0497625Y0217398D03*
X0490538Y0217398D03*
X0477034Y0238657D03*
X0469948Y0238657D03*
D15*
X0469436Y0231965D03*
X0478097Y0228224D03*
X0469436Y0224484D03*
X0462113Y0078776D03*
X0453451Y0075035D03*
X0462113Y0071295D03*
D16*
X0416286Y0118657D03*
X0520853Y0120232D03*
D17*
X0512231Y0107240D03*
X0512231Y0099366D03*
X0512231Y0091492D03*
X0512231Y0083618D03*
X0512231Y0075744D03*
X0512231Y0067870D03*
X0512231Y0059996D03*
X0512231Y0052122D03*
X0512231Y0044248D03*
X0512231Y0036374D03*
X0425617Y0036374D03*
X0425617Y0044248D03*
X0425617Y0052122D03*
X0425617Y0059996D03*
X0425617Y0067870D03*
X0425617Y0075744D03*
X0425617Y0083618D03*
X0425617Y0091492D03*
X0425617Y0099366D03*
X0425617Y0107240D03*
X0407940Y0205469D03*
D18*
X0417940Y0205469D03*
X0427940Y0205469D03*
X0427940Y0215469D03*
X0417940Y0215469D03*
X0407940Y0215469D03*
D19*
X0523877Y0220075D02*
X0529877Y0220075D01*
X0529877Y0230075D02*
X0523877Y0230075D01*
X0523877Y0240075D02*
X0529877Y0240075D01*
X0529877Y0250075D02*
X0523877Y0250075D01*
X0523877Y0210075D02*
X0529877Y0210075D01*
X0529877Y0200075D02*
X0523877Y0200075D01*
X0523877Y0190075D02*
X0529877Y0190075D01*
X0529877Y0180075D02*
X0523877Y0180075D01*
X0523877Y0170075D02*
X0529877Y0170075D01*
X0529877Y0160075D02*
X0523877Y0160075D01*
X0523877Y0100193D02*
X0529877Y0100193D01*
X0529877Y0090193D02*
X0523877Y0090193D01*
X0523877Y0080193D02*
X0529877Y0080193D01*
X0529877Y0070193D02*
X0523877Y0070193D01*
X0523877Y0060193D02*
X0529877Y0060193D01*
X0529877Y0050193D02*
X0523877Y0050193D01*
X0523877Y0040193D02*
X0529877Y0040193D01*
X0529877Y0030193D02*
X0523877Y0030193D01*
X0523877Y0020193D02*
X0529877Y0020193D01*
X0529877Y0010193D02*
X0523877Y0010193D01*
D20*
X0402388Y0121728D03*
X0413018Y0133146D03*
X0420892Y0142594D03*
X0431129Y0150075D03*
X0456719Y0136295D03*
X0461050Y0141413D03*
X0467743Y0145744D03*
X0508294Y0163067D03*
X0481916Y0166610D03*
X0431916Y0167398D03*
X0420499Y0179996D03*
X0435066Y0189445D03*
X0403176Y0189839D03*
X0402388Y0197319D03*
X0449239Y0224878D03*
X0450026Y0231571D03*
X0445696Y0239051D03*
X0468924Y0217004D03*
X0483491Y0217004D03*
X0502388Y0198500D03*
X0511837Y0198894D03*
X0406325Y0161886D03*
X0494908Y0122516D03*
X0508294Y0125665D03*
X0518136Y0141807D03*
X0448845Y0067791D03*
X0437034Y0068972D03*
M02*
