G75*
%MOIN*%
%OFA0B0*%
%FSLAX25Y25*%
%IPPOS*%
%LPD*%
%AMOC8*
5,1,8,0,0,1.08239X$1,22.5*
%
%ADD10R,0.04724X0.03150*%
%ADD11R,0.04724X0.05512*%
%ADD12R,0.05512X0.04724*%
%ADD13R,0.03150X0.04724*%
%ADD14R,0.06102X0.05118*%
%ADD15R,0.05118X0.06102*%
%ADD16R,0.05000X0.10000*%
%ADD17R,0.05800X0.02000*%
%ADD18R,0.02000X0.05800*%
D10*
X0439790Y0162181D03*
X0439790Y0169268D03*
X0502979Y0166827D03*
X0513412Y0166906D03*
X0513412Y0173992D03*
X0502979Y0173913D03*
X0443727Y0211315D03*
X0443727Y0218402D03*
D11*
X0431995Y0132732D03*
X0420184Y0132732D03*
X0502231Y0134228D03*
X0514042Y0134228D03*
D12*
X0403018Y0169976D03*
X0403018Y0181787D03*
X0453806Y0203362D03*
X0453806Y0215173D03*
D13*
X0419908Y0188402D03*
X0412822Y0188402D03*
X0444672Y0152181D03*
X0451759Y0152181D03*
X0446995Y0141945D03*
X0439908Y0141945D03*
X0488845Y0143913D03*
X0495932Y0143913D03*
D14*
X0442861Y0228638D03*
X0405459Y0228638D03*
X0405459Y0246354D03*
X0442861Y0246354D03*
D15*
X0411365Y0142378D03*
X0429081Y0142378D03*
X0429081Y0179780D03*
X0411365Y0179780D03*
D16*
X0467388Y0205744D03*
X0477388Y0205744D03*
X0487388Y0205744D03*
X0497388Y0205744D03*
X0497388Y0240744D03*
X0487388Y0240744D03*
X0477388Y0240744D03*
X0467388Y0240744D03*
D17*
X0458078Y0178969D03*
X0458078Y0175869D03*
X0458078Y0172669D03*
X0458078Y0169569D03*
X0458078Y0166369D03*
X0458078Y0163269D03*
X0458078Y0160069D03*
X0458078Y0156969D03*
X0490478Y0156969D03*
X0490478Y0160069D03*
X0490478Y0163269D03*
X0490478Y0166369D03*
X0490478Y0169569D03*
X0490478Y0172669D03*
X0490478Y0175869D03*
X0490478Y0178969D03*
D18*
X0485278Y0184169D03*
X0482178Y0184169D03*
X0478978Y0184169D03*
X0475878Y0184169D03*
X0472678Y0184169D03*
X0469578Y0184169D03*
X0466378Y0184169D03*
X0463278Y0184169D03*
X0463278Y0151769D03*
X0466378Y0151769D03*
X0469578Y0151769D03*
X0472678Y0151769D03*
X0475878Y0151769D03*
X0478978Y0151769D03*
X0482178Y0151769D03*
X0485278Y0151769D03*
M02*
