%
M48
M72
T01C0.02362
T02C0.03150
T03C0.04000
%
T01
X413018Y132890
X420892Y142339
X431129Y149819
X406325Y161630
X431916Y167142
X420499Y179740
X435066Y189189
X403176Y189583
X402388Y197063
X398058Y210055
X449239Y224622
X468924Y216748
X483491Y216748
X450026Y231315
X445696Y238795
X502388Y198244
X511837Y198638
X481916Y166354
X507507Y162024
X467743Y145488
X461050Y141157
X456719Y136039
X494908Y122260
X508294Y125409
X518136Y141551
X448845Y67535
X437034Y68717
T02
X416286Y118402
X425617Y106984
X425617Y99110
X425617Y91236
X425617Y83362
X425617Y75488
X425617Y67614
X425617Y59740
X425617Y51866
X425617Y43992
X425617Y36118
X512231Y36118
X512231Y43992
X512231Y51866
X512231Y59740
X512231Y67614
X512231Y75488
X512231Y83362
X512231Y91236
X512231Y99110
X512231Y106984
X520853Y119976
T03
X526877Y99937
X526877Y89937
X526877Y79937
X526877Y69937
X526877Y59937
X526877Y49937
X526877Y39937
X526877Y29937
X526877Y19937
X526877Y9937
X526877Y159819
X526877Y169819
X526877Y179819
X526877Y189819
X526877Y199819
X526877Y209819
X526877Y219819
X526877Y229819
X526877Y239819
X526877Y249819
X427940Y215213
X417940Y215213
X407940Y215213
X407940Y205213
X417940Y205213
X427940Y205213
M30
