G75*
%MOIN*%
%OFA0B0*%
%FSLAX25Y25*%
%IPPOS*%
%LPD*%
%AMOC8*
5,1,8,0,0,1.08239X$1,22.5*
%
%ADD10C,0.00500*%
%ADD11C,0.00600*%
D10*
X0445420Y0150055D02*
X0472192Y0150055D01*
X0472192Y0152417D01*
X0475341Y0152417D01*
X0475341Y0156354D02*
X0472192Y0156354D01*
X0472192Y0170528D01*
X0475341Y0170528D01*
X0475341Y0174465D02*
X0472192Y0174465D01*
X0472192Y0176827D01*
X0445420Y0176827D01*
X0445420Y0150055D01*
D11*
X0434672Y0078598D02*
X0434672Y0076236D01*
X0439396Y0076236D02*
X0439396Y0078598D01*
X0468136Y0076118D02*
X0468136Y0073756D01*
X0472861Y0073756D02*
X0472861Y0076118D01*
X0499672Y0077772D02*
X0499672Y0080134D01*
X0504396Y0080134D02*
X0504396Y0077772D01*
X0504357Y0058008D02*
X0504357Y0055646D01*
X0499633Y0055646D02*
X0499633Y0058008D01*
X0456522Y0054780D02*
X0456522Y0052417D01*
X0451798Y0052417D02*
X0451798Y0054780D01*
X0445892Y0054780D02*
X0445892Y0052417D01*
X0441168Y0052417D02*
X0441168Y0054780D01*
X0502703Y0134583D02*
X0505066Y0134583D01*
X0505066Y0139307D02*
X0502703Y0139307D01*
X0502310Y0142811D02*
X0504672Y0142811D01*
X0504672Y0147535D02*
X0502310Y0147535D01*
X0513333Y0163205D02*
X0513333Y0165567D01*
X0518058Y0165567D02*
X0518058Y0163205D01*
X0505105Y0181394D02*
X0502743Y0181394D01*
X0502743Y0186118D02*
X0505105Y0186118D01*
X0505105Y0190094D02*
X0502743Y0190094D01*
X0502743Y0194819D02*
X0505105Y0194819D01*
X0510459Y0202969D02*
X0512822Y0202969D01*
X0512822Y0207693D02*
X0510459Y0207693D01*
X0510262Y0210055D02*
X0512625Y0210055D01*
X0512625Y0214780D02*
X0510262Y0214780D01*
X0495262Y0214780D02*
X0492900Y0214780D01*
X0492900Y0219504D02*
X0495262Y0219504D01*
X0474672Y0236039D02*
X0472310Y0236039D01*
X0472310Y0240764D02*
X0474672Y0240764D01*
X0458688Y0229228D02*
X0458688Y0226866D01*
X0453963Y0226866D02*
X0453963Y0229228D01*
M02*
