G75*
%MOIN*%
%OFA0B0*%
%FSLAX25Y25*%
%IPPOS*%
%LPD*%
%AMOC8*
5,1,8,0,0,1.08239X$1,22.5*
%
%ADD10R,0.26378X0.26378*%
%ADD11R,0.11811X0.06299*%
%ADD12R,0.06299X0.07087*%
%ADD13R,0.04724X0.03150*%
%ADD14R,0.03150X0.04724*%
%ADD15R,0.05512X0.03937*%
%ADD16C,0.05150*%
%ADD17C,0.06000*%
%ADD18OC8,0.06000*%
%ADD19C,0.06000*%
%ADD20C,0.03962*%
%ADD21C,0.01000*%
%ADD22C,0.02400*%
D10*
X0458806Y0163441D03*
D11*
X0481444Y0172496D03*
X0481444Y0154386D03*
D12*
X0497979Y0154583D03*
X0509003Y0154583D03*
X0509436Y0174268D03*
X0498412Y0174268D03*
D13*
X0515696Y0167929D03*
X0515696Y0160843D03*
X0456325Y0224504D03*
X0456325Y0231591D03*
X0502034Y0082496D03*
X0502034Y0075409D03*
X0470499Y0078480D03*
X0470499Y0071394D03*
X0501995Y0060370D03*
X0501995Y0053283D03*
X0454160Y0050055D03*
X0443530Y0050055D03*
X0443530Y0057142D03*
X0454160Y0057142D03*
X0437034Y0073874D03*
X0437034Y0080961D03*
D14*
X0500341Y0136945D03*
X0507428Y0136945D03*
X0507034Y0145173D03*
X0499948Y0145173D03*
X0500381Y0183756D03*
X0507467Y0183756D03*
X0507467Y0192457D03*
X0500381Y0192457D03*
X0508097Y0205331D03*
X0515184Y0205331D03*
X0514987Y0212417D03*
X0507900Y0212417D03*
X0497625Y0217142D03*
X0490538Y0217142D03*
X0477034Y0238402D03*
X0469948Y0238402D03*
D15*
X0469436Y0231709D03*
X0478097Y0227969D03*
X0469436Y0224228D03*
X0462113Y0078520D03*
X0453451Y0074780D03*
X0462113Y0071039D03*
D16*
X0416286Y0118402D03*
X0520853Y0119976D03*
D17*
X0512231Y0106984D03*
X0512231Y0099110D03*
X0512231Y0091236D03*
X0512231Y0083362D03*
X0512231Y0075488D03*
X0512231Y0067614D03*
X0512231Y0059740D03*
X0512231Y0051866D03*
X0512231Y0043992D03*
X0512231Y0036118D03*
X0425617Y0036118D03*
X0425617Y0043992D03*
X0425617Y0051866D03*
X0425617Y0059740D03*
X0425617Y0067614D03*
X0425617Y0075488D03*
X0425617Y0083362D03*
X0425617Y0091236D03*
X0425617Y0099110D03*
X0425617Y0106984D03*
X0407940Y0205213D03*
D18*
X0417940Y0205213D03*
X0427940Y0205213D03*
X0427940Y0215213D03*
X0417940Y0215213D03*
X0407940Y0215213D03*
D19*
X0523877Y0219819D02*
X0529877Y0219819D01*
X0529877Y0229819D02*
X0523877Y0229819D01*
X0523877Y0239819D02*
X0529877Y0239819D01*
X0529877Y0249819D02*
X0523877Y0249819D01*
X0523877Y0209819D02*
X0529877Y0209819D01*
X0529877Y0199819D02*
X0523877Y0199819D01*
X0523877Y0189819D02*
X0529877Y0189819D01*
X0529877Y0179819D02*
X0523877Y0179819D01*
X0523877Y0169819D02*
X0529877Y0169819D01*
X0529877Y0159819D02*
X0523877Y0159819D01*
X0523877Y0099937D02*
X0529877Y0099937D01*
X0529877Y0089937D02*
X0523877Y0089937D01*
X0523877Y0079937D02*
X0529877Y0079937D01*
X0529877Y0069937D02*
X0523877Y0069937D01*
X0523877Y0059937D02*
X0529877Y0059937D01*
X0529877Y0049937D02*
X0523877Y0049937D01*
X0523877Y0039937D02*
X0529877Y0039937D01*
X0529877Y0029937D02*
X0523877Y0029937D01*
X0523877Y0019937D02*
X0529877Y0019937D01*
X0529877Y0009937D02*
X0523877Y0009937D01*
D20*
X0448845Y0067535D03*
X0437034Y0068717D03*
X0494908Y0122260D03*
X0508294Y0125409D03*
X0518136Y0141551D03*
X0507507Y0162024D03*
X0481916Y0166354D03*
X0431916Y0167142D03*
X0406325Y0161630D03*
X0431129Y0149819D03*
X0420892Y0142339D03*
X0413018Y0132890D03*
X0456719Y0136039D03*
X0461050Y0141157D03*
X0467743Y0145488D03*
X0420499Y0179740D03*
X0435066Y0189189D03*
X0403176Y0189583D03*
X0402388Y0197063D03*
X0398058Y0210055D03*
X0449239Y0224622D03*
X0468924Y0216748D03*
X0483491Y0216748D03*
X0450026Y0231315D03*
X0445696Y0238795D03*
X0502388Y0198244D03*
X0511837Y0198638D03*
D21*
X0396293Y0202188D02*
X0397616Y0029346D01*
X0519577Y0029346D01*
X0519577Y0030792D01*
X0520231Y0032373D01*
X0521441Y0033582D01*
X0523021Y0034237D01*
X0530732Y0034237D01*
X0532312Y0033582D01*
X0533522Y0032373D01*
X0534177Y0030792D01*
X0534177Y0029346D01*
X0540365Y0029346D01*
X0540021Y0253587D01*
X0532017Y0253587D01*
X0532312Y0253464D01*
X0533522Y0252255D01*
X0534177Y0250674D01*
X0534177Y0248964D01*
X0533522Y0247383D01*
X0532312Y0246174D01*
X0530732Y0245519D01*
X0523021Y0245519D01*
X0521441Y0246174D01*
X0520231Y0247383D01*
X0519577Y0248964D01*
X0519577Y0250674D01*
X0520231Y0252255D01*
X0521441Y0253464D01*
X0521736Y0253587D01*
X0395899Y0253587D01*
X0396211Y0212842D01*
X0397405Y0213336D01*
X0398710Y0213336D01*
X0399916Y0212837D01*
X0400839Y0211914D01*
X0400864Y0211855D01*
X0405216Y0211855D01*
X0403640Y0213431D01*
X0403640Y0216994D01*
X0406140Y0219494D01*
X0406140Y0220683D01*
X0407194Y0221737D01*
X0425659Y0240202D01*
X0442727Y0240202D01*
X0442914Y0240654D01*
X0443837Y0241577D01*
X0445043Y0242076D01*
X0446348Y0242076D01*
X0447554Y0241577D01*
X0448477Y0240654D01*
X0448664Y0240202D01*
X0467073Y0240202D01*
X0467073Y0241302D01*
X0467834Y0242064D01*
X0472061Y0242064D01*
X0472822Y0241302D01*
X0472822Y0235501D01*
X0472299Y0234977D01*
X0472730Y0234977D01*
X0473492Y0234216D01*
X0473492Y0229202D01*
X0472730Y0228440D01*
X0466141Y0228440D01*
X0465380Y0229202D01*
X0465380Y0229791D01*
X0459988Y0229791D01*
X0459988Y0229477D01*
X0459226Y0228716D01*
X0453425Y0228716D01*
X0452746Y0229395D01*
X0451885Y0228533D01*
X0450679Y0228034D01*
X0449374Y0228034D01*
X0448168Y0228533D01*
X0447245Y0229456D01*
X0447220Y0229515D01*
X0440063Y0229515D01*
X0429891Y0219343D01*
X0432240Y0216994D01*
X0432240Y0213431D01*
X0429721Y0210913D01*
X0426185Y0210913D01*
X0423528Y0208255D01*
X0420978Y0208255D01*
X0422240Y0206994D01*
X0422240Y0203431D01*
X0419721Y0200913D01*
X0416159Y0200913D01*
X0413640Y0203431D01*
X0413640Y0206994D01*
X0414901Y0208255D01*
X0410978Y0208255D01*
X0411585Y0207648D01*
X0412240Y0206068D01*
X0412240Y0204357D01*
X0411976Y0203722D01*
X0424709Y0190989D01*
X0432260Y0190989D01*
X0432284Y0191048D01*
X0433207Y0191971D01*
X0434413Y0192470D01*
X0435718Y0192470D01*
X0436924Y0191971D01*
X0437847Y0191048D01*
X0438347Y0189842D01*
X0438347Y0188536D01*
X0437847Y0187330D01*
X0436924Y0186407D01*
X0435718Y0185908D01*
X0434413Y0185908D01*
X0433207Y0186407D01*
X0432284Y0187330D01*
X0432260Y0187389D01*
X0423218Y0187389D01*
X0422163Y0188443D01*
X0409431Y0201176D01*
X0408795Y0200913D01*
X0407777Y0200913D01*
X0432662Y0176028D01*
X0432662Y0176028D01*
X0433716Y0174974D01*
X0433716Y0169948D01*
X0433775Y0169923D01*
X0434447Y0169251D01*
X0434447Y0180092D01*
X0443318Y0188964D01*
X0441643Y0188964D01*
X0429694Y0200913D01*
X0426159Y0200913D01*
X0423640Y0203431D01*
X0423640Y0206994D01*
X0426159Y0209513D01*
X0429721Y0209513D01*
X0432240Y0206994D01*
X0432240Y0203458D01*
X0443134Y0192564D01*
X0448493Y0192564D01*
X0469396Y0213467D01*
X0468271Y0213467D01*
X0467065Y0213966D01*
X0466142Y0214889D01*
X0465643Y0216095D01*
X0465643Y0217401D01*
X0466142Y0218607D01*
X0467065Y0219530D01*
X0467636Y0219766D01*
X0467636Y0220960D01*
X0466141Y0220960D01*
X0465380Y0221721D01*
X0465380Y0222704D01*
X0459988Y0222704D01*
X0459988Y0222391D01*
X0459226Y0221629D01*
X0453425Y0221629D01*
X0452663Y0222391D01*
X0452663Y0222822D01*
X0452045Y0222822D01*
X0452020Y0222763D01*
X0451097Y0221840D01*
X0449891Y0221341D01*
X0448586Y0221341D01*
X0447380Y0221840D01*
X0446457Y0222763D01*
X0445958Y0223969D01*
X0445958Y0225275D01*
X0446457Y0226481D01*
X0447380Y0227404D01*
X0448586Y0227903D01*
X0449891Y0227903D01*
X0451097Y0227404D01*
X0452020Y0226481D01*
X0452045Y0226422D01*
X0452663Y0226422D01*
X0452663Y0226617D01*
X0453425Y0227379D01*
X0459226Y0227379D01*
X0459988Y0226617D01*
X0459988Y0226304D01*
X0465380Y0226304D01*
X0465380Y0226735D01*
X0466141Y0227497D01*
X0472730Y0227497D01*
X0473492Y0226735D01*
X0473492Y0221721D01*
X0472730Y0220960D01*
X0471236Y0220960D01*
X0471236Y0219076D01*
X0471705Y0218607D01*
X0472205Y0217401D01*
X0472205Y0216275D01*
X0476297Y0220368D01*
X0476297Y0224700D01*
X0474803Y0224700D01*
X0474041Y0225462D01*
X0474041Y0230475D01*
X0474803Y0231237D01*
X0475234Y0231237D01*
X0475234Y0234739D01*
X0474921Y0234739D01*
X0474159Y0235501D01*
X0474159Y0241302D01*
X0474921Y0242064D01*
X0479147Y0242064D01*
X0479909Y0241302D01*
X0479909Y0235501D01*
X0479147Y0234739D01*
X0478834Y0234739D01*
X0478834Y0231237D01*
X0481391Y0231237D01*
X0482153Y0230475D01*
X0482153Y0225462D01*
X0481391Y0224700D01*
X0479897Y0224700D01*
X0479897Y0218876D01*
X0451039Y0190018D01*
X0449984Y0188964D01*
X0448410Y0188964D01*
X0443742Y0184296D01*
X0468572Y0184296D01*
X0497439Y0213163D01*
X0497755Y0213480D01*
X0495511Y0213480D01*
X0494750Y0214241D01*
X0494750Y0220042D01*
X0495511Y0220804D01*
X0499738Y0220804D01*
X0500499Y0220042D01*
X0500499Y0219767D01*
X0502352Y0221619D01*
X0519968Y0221619D01*
X0520231Y0222255D01*
X0521441Y0223464D01*
X0523021Y0224119D01*
X0530732Y0224119D01*
X0532312Y0223464D01*
X0533522Y0222255D01*
X0534177Y0220674D01*
X0534177Y0218964D01*
X0533522Y0217383D01*
X0532312Y0216174D01*
X0530732Y0215519D01*
X0523021Y0215519D01*
X0521441Y0216174D01*
X0520231Y0217383D01*
X0519968Y0218019D01*
X0503843Y0218019D01*
X0502220Y0216396D01*
X0501166Y0215342D01*
X0500499Y0215342D01*
X0500499Y0214241D01*
X0500476Y0214217D01*
X0505025Y0214217D01*
X0505025Y0215318D01*
X0505787Y0216080D01*
X0510014Y0216080D01*
X0510775Y0215318D01*
X0510775Y0209517D01*
X0510231Y0208972D01*
X0510972Y0208231D01*
X0510972Y0202430D01*
X0510210Y0201669D01*
X0508408Y0201669D01*
X0508081Y0201451D01*
X0506994Y0201669D01*
X0505984Y0201669D01*
X0505222Y0202430D01*
X0505222Y0203531D01*
X0498803Y0203531D01*
X0474000Y0178728D01*
X0444866Y0178728D01*
X0442771Y0176632D01*
X0442771Y0148990D01*
X0444473Y0147288D01*
X0464937Y0147288D01*
X0464961Y0147347D01*
X0465884Y0148270D01*
X0467090Y0148769D01*
X0468395Y0148769D01*
X0469601Y0148270D01*
X0470524Y0147347D01*
X0471024Y0146141D01*
X0471024Y0144836D01*
X0470524Y0143630D01*
X0469601Y0142707D01*
X0468395Y0142207D01*
X0467090Y0142207D01*
X0465884Y0142707D01*
X0464961Y0143630D01*
X0464937Y0143688D01*
X0463159Y0143688D01*
X0463831Y0143016D01*
X0464331Y0141810D01*
X0464331Y0140505D01*
X0463831Y0139299D01*
X0462908Y0138376D01*
X0461703Y0137876D01*
X0460397Y0137876D01*
X0459191Y0138376D01*
X0458268Y0139299D01*
X0458244Y0139357D01*
X0443769Y0139357D01*
X0438047Y0145080D01*
X0438047Y0145053D01*
X0445260Y0137839D01*
X0453913Y0137839D01*
X0453938Y0137898D01*
X0454861Y0138821D01*
X0456066Y0139320D01*
X0457372Y0139320D01*
X0458578Y0138821D01*
X0459501Y0137898D01*
X0460000Y0136692D01*
X0460000Y0135387D01*
X0459501Y0134181D01*
X0458578Y0133258D01*
X0457372Y0132758D01*
X0456066Y0132758D01*
X0454861Y0133258D01*
X0453938Y0134181D01*
X0453913Y0134239D01*
X0443769Y0134239D01*
X0435501Y0142507D01*
X0434447Y0143561D01*
X0434447Y0165032D01*
X0433775Y0164360D01*
X0432569Y0163861D01*
X0431263Y0163861D01*
X0431205Y0163885D01*
X0414818Y0147498D01*
X0414818Y0135696D01*
X0414877Y0135671D01*
X0415800Y0134748D01*
X0416299Y0133542D01*
X0416299Y0132237D01*
X0415800Y0131031D01*
X0414877Y0130108D01*
X0413671Y0129609D01*
X0412366Y0129609D01*
X0411160Y0130108D01*
X0410237Y0131031D01*
X0409737Y0132237D01*
X0409737Y0133542D01*
X0410237Y0134748D01*
X0411160Y0135671D01*
X0411218Y0135696D01*
X0411218Y0148990D01*
X0428659Y0166430D01*
X0428635Y0166489D01*
X0428635Y0167794D01*
X0429134Y0169000D01*
X0430057Y0169923D01*
X0430116Y0169948D01*
X0430116Y0173483D01*
X0423780Y0179819D01*
X0423780Y0179087D01*
X0423280Y0177882D01*
X0422357Y0176959D01*
X0421151Y0176459D01*
X0419846Y0176459D01*
X0418640Y0176959D01*
X0417717Y0177882D01*
X0417218Y0179087D01*
X0417218Y0180388D01*
X0406152Y0190973D01*
X0406457Y0190235D01*
X0406457Y0188930D01*
X0405957Y0187724D01*
X0405034Y0186801D01*
X0405020Y0186795D01*
X0405358Y0165143D01*
X0405614Y0164887D01*
X0405673Y0164911D01*
X0406978Y0164911D01*
X0408184Y0164411D01*
X0409107Y0163489D01*
X0409607Y0162283D01*
X0409607Y0160977D01*
X0409107Y0159771D01*
X0408184Y0158848D01*
X0406978Y0158349D01*
X0405673Y0158349D01*
X0404467Y0158848D01*
X0403544Y0159771D01*
X0403044Y0160977D01*
X0403044Y0162283D01*
X0403069Y0162341D01*
X0402307Y0163103D01*
X0401781Y0163612D01*
X0401781Y0163629D01*
X0401770Y0163640D01*
X0401770Y0164372D01*
X0401420Y0186759D01*
X0401317Y0186801D01*
X0400394Y0187724D01*
X0399895Y0188930D01*
X0399895Y0190235D01*
X0400394Y0191441D01*
X0401317Y0192364D01*
X0402523Y0192864D01*
X0403828Y0192864D01*
X0404439Y0192611D01*
X0403162Y0193832D01*
X0403041Y0193782D01*
X0401736Y0193782D01*
X0400530Y0194281D01*
X0399607Y0195204D01*
X0399107Y0196410D01*
X0399107Y0197716D01*
X0399607Y0198922D01*
X0400530Y0199845D01*
X0401736Y0200344D01*
X0403041Y0200344D01*
X0403406Y0200193D01*
X0399858Y0203741D01*
X0399858Y0202223D01*
X0398803Y0201169D01*
X0397312Y0201169D01*
X0396293Y0202188D01*
X0396297Y0201701D02*
X0396780Y0201701D01*
X0396304Y0200702D02*
X0402897Y0200702D01*
X0401898Y0201701D02*
X0399336Y0201701D01*
X0399858Y0202699D02*
X0400899Y0202699D01*
X0399901Y0203698D02*
X0399858Y0203698D01*
X0398058Y0202969D02*
X0398058Y0208087D01*
X0431916Y0174228D01*
X0431916Y0167142D01*
X0413018Y0148244D01*
X0413018Y0132890D01*
X0409737Y0132803D02*
X0396824Y0132803D01*
X0396832Y0131805D02*
X0409916Y0131805D01*
X0410461Y0130806D02*
X0396840Y0130806D01*
X0396847Y0129808D02*
X0411885Y0129808D01*
X0414152Y0129808D02*
X0430877Y0129808D01*
X0429879Y0130806D02*
X0415575Y0130806D01*
X0416120Y0131805D02*
X0428880Y0131805D01*
X0427882Y0132803D02*
X0416299Y0132803D01*
X0416192Y0133802D02*
X0426883Y0133802D01*
X0425885Y0134801D02*
X0415748Y0134801D01*
X0414818Y0135799D02*
X0424886Y0135799D01*
X0423888Y0136798D02*
X0414818Y0136798D01*
X0414818Y0137796D02*
X0422889Y0137796D01*
X0421891Y0138795D02*
X0414818Y0138795D01*
X0414818Y0139793D02*
X0418798Y0139793D01*
X0419034Y0139557D02*
X0420240Y0139057D01*
X0421545Y0139057D01*
X0421604Y0139082D01*
X0460313Y0100373D01*
X0460313Y0081788D01*
X0458818Y0081788D01*
X0458057Y0081027D01*
X0458057Y0076013D01*
X0458818Y0075251D01*
X0465407Y0075251D01*
X0466169Y0076013D01*
X0466169Y0076720D01*
X0466836Y0076720D01*
X0466836Y0076367D01*
X0467598Y0075606D01*
X0473399Y0075606D01*
X0474161Y0076367D01*
X0474161Y0080594D01*
X0473399Y0081355D01*
X0467598Y0081355D01*
X0466836Y0080594D01*
X0466836Y0080320D01*
X0466169Y0080320D01*
X0466169Y0081027D01*
X0465407Y0081788D01*
X0463913Y0081788D01*
X0463913Y0101864D01*
X0424149Y0141627D01*
X0424173Y0141686D01*
X0424173Y0142507D01*
X0429974Y0146746D01*
X0430476Y0146538D01*
X0431781Y0146538D01*
X0432987Y0147037D01*
X0433910Y0147960D01*
X0434410Y0149166D01*
X0434410Y0150472D01*
X0433910Y0151677D01*
X0432987Y0152600D01*
X0431781Y0153100D01*
X0430476Y0153100D01*
X0429270Y0152600D01*
X0428347Y0151677D01*
X0427848Y0150472D01*
X0427848Y0149651D01*
X0422047Y0145412D01*
X0421545Y0145620D01*
X0420240Y0145620D01*
X0419034Y0145120D01*
X0418111Y0144197D01*
X0417611Y0142991D01*
X0417611Y0141686D01*
X0418111Y0140480D01*
X0419034Y0139557D01*
X0417982Y0140792D02*
X0414818Y0140792D01*
X0414818Y0141790D02*
X0417611Y0141790D01*
X0417611Y0142789D02*
X0414818Y0142789D01*
X0414818Y0143787D02*
X0417941Y0143787D01*
X0418699Y0144786D02*
X0414818Y0144786D01*
X0414818Y0145784D02*
X0422557Y0145784D01*
X0423923Y0146783D02*
X0414818Y0146783D01*
X0415101Y0147781D02*
X0425289Y0147781D01*
X0426656Y0148780D02*
X0416100Y0148780D01*
X0417098Y0149778D02*
X0427848Y0149778D01*
X0427974Y0150777D02*
X0418097Y0150777D01*
X0419095Y0151775D02*
X0428445Y0151775D01*
X0429688Y0152774D02*
X0420094Y0152774D01*
X0421092Y0153772D02*
X0434447Y0153772D01*
X0434447Y0152774D02*
X0432569Y0152774D01*
X0433812Y0151775D02*
X0434447Y0151775D01*
X0434447Y0150777D02*
X0434283Y0150777D01*
X0434410Y0149778D02*
X0434447Y0149778D01*
X0434447Y0148780D02*
X0434250Y0148780D01*
X0434447Y0147781D02*
X0433731Y0147781D01*
X0434447Y0146783D02*
X0432372Y0146783D01*
X0434447Y0145784D02*
X0428658Y0145784D01*
X0427292Y0144786D02*
X0434447Y0144786D01*
X0434447Y0143787D02*
X0425925Y0143787D01*
X0424559Y0142789D02*
X0435220Y0142789D01*
X0436218Y0141790D02*
X0424173Y0141790D01*
X0424985Y0140792D02*
X0437217Y0140792D01*
X0438215Y0139793D02*
X0425983Y0139793D01*
X0426982Y0138795D02*
X0439214Y0138795D01*
X0440212Y0137796D02*
X0427980Y0137796D01*
X0428979Y0136798D02*
X0441211Y0136798D01*
X0442209Y0135799D02*
X0429978Y0135799D01*
X0430976Y0134801D02*
X0443208Y0134801D01*
X0444514Y0136039D02*
X0436247Y0144307D01*
X0436247Y0179346D01*
X0447664Y0190764D01*
X0442388Y0190764D01*
X0427940Y0205213D01*
X0432240Y0205695D02*
X0461624Y0205695D01*
X0460626Y0204696D02*
X0432240Y0204696D01*
X0432240Y0203698D02*
X0459627Y0203698D01*
X0458629Y0202699D02*
X0432999Y0202699D01*
X0433997Y0201701D02*
X0457630Y0201701D01*
X0456632Y0200702D02*
X0434996Y0200702D01*
X0435994Y0199704D02*
X0455633Y0199704D01*
X0454635Y0198705D02*
X0436993Y0198705D01*
X0437991Y0197707D02*
X0453636Y0197707D01*
X0452638Y0196708D02*
X0438990Y0196708D01*
X0439988Y0195710D02*
X0451639Y0195710D01*
X0450641Y0194711D02*
X0440987Y0194711D01*
X0441985Y0193713D02*
X0449642Y0193713D01*
X0448644Y0192714D02*
X0442984Y0192714D01*
X0440888Y0189719D02*
X0438347Y0189719D01*
X0438347Y0188720D02*
X0443075Y0188720D01*
X0442076Y0187722D02*
X0438009Y0187722D01*
X0437240Y0186723D02*
X0441078Y0186723D01*
X0440079Y0185725D02*
X0422965Y0185725D01*
X0421967Y0186723D02*
X0432891Y0186723D01*
X0435066Y0189189D02*
X0423963Y0189189D01*
X0407940Y0205213D01*
X0404901Y0208255D02*
X0404294Y0207648D01*
X0403640Y0206068D01*
X0403640Y0205050D01*
X0400666Y0208024D01*
X0400839Y0208197D01*
X0400864Y0208255D01*
X0404901Y0208255D01*
X0404338Y0207692D02*
X0400998Y0207692D01*
X0401997Y0206693D02*
X0403899Y0206693D01*
X0403640Y0205695D02*
X0402995Y0205695D01*
X0398058Y0208087D02*
X0398058Y0210055D01*
X0422782Y0210055D01*
X0427940Y0215213D01*
X0427940Y0219937D01*
X0439318Y0231315D01*
X0450026Y0231315D01*
X0456050Y0231315D01*
X0456325Y0231591D01*
X0469318Y0231591D01*
X0469436Y0231709D01*
X0467596Y0234977D02*
X0466141Y0234977D01*
X0465380Y0234216D01*
X0465380Y0233391D01*
X0459988Y0233391D01*
X0459988Y0233704D01*
X0459226Y0234465D01*
X0453425Y0234465D01*
X0452663Y0233704D01*
X0452663Y0233318D01*
X0451885Y0234097D01*
X0450679Y0234596D01*
X0449374Y0234596D01*
X0448168Y0234097D01*
X0447245Y0233174D01*
X0447220Y0233115D01*
X0438572Y0233115D01*
X0427194Y0221737D01*
X0426140Y0220683D01*
X0426140Y0219494D01*
X0423640Y0216994D01*
X0423640Y0213458D01*
X0422037Y0211855D01*
X0420663Y0211855D01*
X0422240Y0213431D01*
X0422240Y0216994D01*
X0419721Y0219513D01*
X0416159Y0219513D01*
X0413640Y0216994D01*
X0413640Y0213431D01*
X0415216Y0211855D01*
X0410663Y0211855D01*
X0412240Y0213431D01*
X0412240Y0216994D01*
X0409891Y0219343D01*
X0427150Y0236602D01*
X0443249Y0236602D01*
X0443837Y0236014D01*
X0445043Y0235514D01*
X0446348Y0235514D01*
X0447554Y0236014D01*
X0448142Y0236602D01*
X0467073Y0236602D01*
X0467073Y0235501D01*
X0467596Y0234977D01*
X0467073Y0235650D02*
X0446676Y0235650D01*
X0444715Y0235650D02*
X0426198Y0235650D01*
X0425200Y0234652D02*
X0465816Y0234652D01*
X0465380Y0233653D02*
X0459988Y0233653D01*
X0452663Y0233653D02*
X0452328Y0233653D01*
X0447724Y0233653D02*
X0424201Y0233653D01*
X0423203Y0232655D02*
X0438112Y0232655D01*
X0437113Y0231656D02*
X0422204Y0231656D01*
X0421206Y0230658D02*
X0436115Y0230658D01*
X0435116Y0229659D02*
X0420207Y0229659D01*
X0419209Y0228661D02*
X0434118Y0228661D01*
X0433119Y0227662D02*
X0418210Y0227662D01*
X0417212Y0226664D02*
X0432121Y0226664D01*
X0431122Y0225665D02*
X0416213Y0225665D01*
X0415215Y0224667D02*
X0430124Y0224667D01*
X0429125Y0223668D02*
X0414216Y0223668D01*
X0413218Y0222670D02*
X0428127Y0222670D01*
X0427128Y0221671D02*
X0412219Y0221671D01*
X0411221Y0220672D02*
X0426140Y0220672D01*
X0426140Y0219674D02*
X0410222Y0219674D01*
X0410558Y0218675D02*
X0415321Y0218675D01*
X0414323Y0217677D02*
X0411556Y0217677D01*
X0412240Y0216678D02*
X0413640Y0216678D01*
X0413640Y0215680D02*
X0412240Y0215680D01*
X0412240Y0214681D02*
X0413640Y0214681D01*
X0413640Y0213683D02*
X0412240Y0213683D01*
X0411493Y0212684D02*
X0414387Y0212684D01*
X0407940Y0215213D02*
X0407940Y0219937D01*
X0426404Y0238402D01*
X0446089Y0238402D01*
X0469948Y0238402D01*
X0472822Y0238646D02*
X0474159Y0238646D01*
X0474159Y0239644D02*
X0472822Y0239644D01*
X0472822Y0240643D02*
X0474159Y0240643D01*
X0474498Y0241641D02*
X0472483Y0241641D01*
X0472822Y0237647D02*
X0474159Y0237647D01*
X0474159Y0236649D02*
X0472822Y0236649D01*
X0472822Y0235650D02*
X0474159Y0235650D01*
X0475234Y0234652D02*
X0473056Y0234652D01*
X0473492Y0233653D02*
X0475234Y0233653D01*
X0475234Y0232655D02*
X0473492Y0232655D01*
X0473492Y0231656D02*
X0475234Y0231656D01*
X0474223Y0230658D02*
X0473492Y0230658D01*
X0473492Y0229659D02*
X0474041Y0229659D01*
X0474041Y0228661D02*
X0472950Y0228661D01*
X0474041Y0227662D02*
X0450473Y0227662D01*
X0451837Y0226664D02*
X0452710Y0226664D01*
X0452012Y0228661D02*
X0465921Y0228661D01*
X0465380Y0229659D02*
X0459988Y0229659D01*
X0459941Y0226664D02*
X0465380Y0226664D01*
X0465380Y0222670D02*
X0459988Y0222670D01*
X0459268Y0221671D02*
X0465430Y0221671D01*
X0467636Y0220672D02*
X0431221Y0220672D01*
X0430222Y0219674D02*
X0467414Y0219674D01*
X0466211Y0218675D02*
X0430558Y0218675D01*
X0431556Y0217677D02*
X0465757Y0217677D01*
X0465643Y0216678D02*
X0432240Y0216678D01*
X0432240Y0215680D02*
X0465815Y0215680D01*
X0466350Y0214681D02*
X0432240Y0214681D01*
X0432240Y0213683D02*
X0467750Y0213683D01*
X0468614Y0212684D02*
X0431493Y0212684D01*
X0430494Y0211686D02*
X0467615Y0211686D01*
X0466617Y0210687D02*
X0425960Y0210687D01*
X0424961Y0209689D02*
X0465618Y0209689D01*
X0464620Y0208690D02*
X0430543Y0208690D01*
X0431541Y0207692D02*
X0463621Y0207692D01*
X0462623Y0206693D02*
X0432240Y0206693D01*
X0425336Y0208690D02*
X0423963Y0208690D01*
X0424338Y0207692D02*
X0421541Y0207692D01*
X0422240Y0206693D02*
X0423640Y0206693D01*
X0423640Y0205695D02*
X0422240Y0205695D01*
X0422240Y0204696D02*
X0423640Y0204696D01*
X0423640Y0203698D02*
X0422240Y0203698D01*
X0421507Y0202699D02*
X0424372Y0202699D01*
X0425370Y0201701D02*
X0420509Y0201701D01*
X0416993Y0198705D02*
X0431901Y0198705D01*
X0430903Y0199704D02*
X0415994Y0199704D01*
X0414996Y0200702D02*
X0429904Y0200702D01*
X0432900Y0197707D02*
X0417991Y0197707D01*
X0418990Y0196708D02*
X0433898Y0196708D01*
X0434897Y0195710D02*
X0419988Y0195710D01*
X0420987Y0194711D02*
X0435895Y0194711D01*
X0436894Y0193713D02*
X0421985Y0193713D01*
X0422984Y0192714D02*
X0437892Y0192714D01*
X0437179Y0191716D02*
X0438891Y0191716D01*
X0437984Y0190717D02*
X0439889Y0190717D01*
X0432952Y0191716D02*
X0423982Y0191716D01*
X0421887Y0188720D02*
X0419970Y0188720D01*
X0420888Y0189719D02*
X0418971Y0189719D01*
X0419889Y0190717D02*
X0417973Y0190717D01*
X0418891Y0191716D02*
X0416974Y0191716D01*
X0417892Y0192714D02*
X0415976Y0192714D01*
X0416894Y0193713D02*
X0414977Y0193713D01*
X0415895Y0194711D02*
X0413979Y0194711D01*
X0414897Y0195710D02*
X0412980Y0195710D01*
X0413898Y0196708D02*
X0411982Y0196708D01*
X0412900Y0197707D02*
X0410983Y0197707D01*
X0411901Y0198705D02*
X0409985Y0198705D01*
X0410903Y0199704D02*
X0408986Y0199704D01*
X0409904Y0200702D02*
X0407988Y0200702D01*
X0405518Y0198080D02*
X0420578Y0183021D01*
X0419846Y0183021D01*
X0419725Y0182971D01*
X0405670Y0196415D01*
X0405670Y0197716D01*
X0405518Y0198080D01*
X0405670Y0197707D02*
X0405892Y0197707D01*
X0405670Y0196708D02*
X0406891Y0196708D01*
X0406407Y0195710D02*
X0407889Y0195710D01*
X0407451Y0194711D02*
X0408888Y0194711D01*
X0408495Y0193713D02*
X0409886Y0193713D01*
X0409539Y0192714D02*
X0410885Y0192714D01*
X0410583Y0191716D02*
X0411883Y0191716D01*
X0411627Y0190717D02*
X0412882Y0190717D01*
X0412671Y0189719D02*
X0413880Y0189719D01*
X0413715Y0188720D02*
X0414879Y0188720D01*
X0414758Y0187722D02*
X0415877Y0187722D01*
X0415802Y0186723D02*
X0416876Y0186723D01*
X0416846Y0185725D02*
X0417874Y0185725D01*
X0417890Y0184726D02*
X0418873Y0184726D01*
X0418934Y0183728D02*
X0419871Y0183728D01*
X0420968Y0187722D02*
X0422885Y0187722D01*
X0423964Y0184726D02*
X0439081Y0184726D01*
X0438082Y0183728D02*
X0424962Y0183728D01*
X0425961Y0182729D02*
X0437084Y0182729D01*
X0436085Y0181731D02*
X0426959Y0181731D01*
X0427958Y0180732D02*
X0435087Y0180732D01*
X0434447Y0179734D02*
X0428956Y0179734D01*
X0429955Y0178735D02*
X0434447Y0178735D01*
X0434447Y0177737D02*
X0430953Y0177737D01*
X0431952Y0176738D02*
X0434447Y0176738D01*
X0434447Y0175739D02*
X0432950Y0175739D01*
X0433716Y0174741D02*
X0434447Y0174741D01*
X0434447Y0173742D02*
X0433716Y0173742D01*
X0433716Y0172744D02*
X0434447Y0172744D01*
X0434447Y0171745D02*
X0433716Y0171745D01*
X0433716Y0170747D02*
X0434447Y0170747D01*
X0434447Y0169748D02*
X0433949Y0169748D01*
X0430116Y0170747D02*
X0405270Y0170747D01*
X0405255Y0171745D02*
X0430116Y0171745D01*
X0430116Y0172744D02*
X0405239Y0172744D01*
X0405224Y0173742D02*
X0429856Y0173742D01*
X0428858Y0174741D02*
X0405208Y0174741D01*
X0405192Y0175739D02*
X0427859Y0175739D01*
X0426861Y0176738D02*
X0421825Y0176738D01*
X0423135Y0177737D02*
X0425862Y0177737D01*
X0424864Y0178735D02*
X0423634Y0178735D01*
X0423780Y0179734D02*
X0423865Y0179734D01*
X0420499Y0179740D02*
X0402388Y0197063D01*
X0400100Y0194711D02*
X0396350Y0194711D01*
X0396358Y0193713D02*
X0403287Y0193713D01*
X0404190Y0192714D02*
X0404331Y0192714D01*
X0402162Y0192714D02*
X0396365Y0192714D01*
X0396373Y0191716D02*
X0400669Y0191716D01*
X0400094Y0190717D02*
X0396381Y0190717D01*
X0396388Y0189719D02*
X0399895Y0189719D01*
X0399982Y0188720D02*
X0396396Y0188720D01*
X0396404Y0187722D02*
X0400397Y0187722D01*
X0401420Y0186723D02*
X0396411Y0186723D01*
X0396419Y0185725D02*
X0401436Y0185725D01*
X0401452Y0184726D02*
X0396427Y0184726D01*
X0396434Y0183728D02*
X0401467Y0183728D01*
X0401483Y0182729D02*
X0396442Y0182729D01*
X0396450Y0181731D02*
X0401498Y0181731D01*
X0401514Y0180732D02*
X0396457Y0180732D01*
X0396465Y0179734D02*
X0401530Y0179734D01*
X0401545Y0178735D02*
X0396473Y0178735D01*
X0396480Y0177737D02*
X0401561Y0177737D01*
X0401576Y0176738D02*
X0396488Y0176738D01*
X0396495Y0175739D02*
X0401592Y0175739D01*
X0401608Y0174741D02*
X0396503Y0174741D01*
X0396511Y0173742D02*
X0401623Y0173742D01*
X0401639Y0172744D02*
X0396518Y0172744D01*
X0396526Y0171745D02*
X0401654Y0171745D01*
X0401670Y0170747D02*
X0396534Y0170747D01*
X0396541Y0169748D02*
X0401686Y0169748D01*
X0401701Y0168750D02*
X0396549Y0168750D01*
X0396557Y0167751D02*
X0401717Y0167751D01*
X0401732Y0166753D02*
X0396564Y0166753D01*
X0396572Y0165754D02*
X0401748Y0165754D01*
X0401764Y0164756D02*
X0396580Y0164756D01*
X0396587Y0163757D02*
X0401770Y0163757D01*
X0402651Y0162759D02*
X0396595Y0162759D01*
X0396603Y0161760D02*
X0403044Y0161760D01*
X0403134Y0160762D02*
X0396610Y0160762D01*
X0396618Y0159763D02*
X0403552Y0159763D01*
X0404669Y0158765D02*
X0396625Y0158765D01*
X0396633Y0157766D02*
X0419995Y0157766D01*
X0418996Y0156768D02*
X0396641Y0156768D01*
X0396648Y0155769D02*
X0417998Y0155769D01*
X0416999Y0154771D02*
X0396656Y0154771D01*
X0396664Y0153772D02*
X0416001Y0153772D01*
X0415002Y0152774D02*
X0396671Y0152774D01*
X0396679Y0151775D02*
X0414004Y0151775D01*
X0413005Y0150777D02*
X0396687Y0150777D01*
X0396694Y0149778D02*
X0412007Y0149778D01*
X0411218Y0148780D02*
X0396702Y0148780D01*
X0396710Y0147781D02*
X0411218Y0147781D01*
X0411218Y0146783D02*
X0396717Y0146783D01*
X0396725Y0145784D02*
X0411218Y0145784D01*
X0411218Y0144786D02*
X0396732Y0144786D01*
X0396740Y0143787D02*
X0411218Y0143787D01*
X0411218Y0142789D02*
X0396748Y0142789D01*
X0396755Y0141790D02*
X0411218Y0141790D01*
X0411218Y0140792D02*
X0396763Y0140792D01*
X0396771Y0139793D02*
X0411218Y0139793D01*
X0411218Y0138795D02*
X0396778Y0138795D01*
X0396786Y0137796D02*
X0411218Y0137796D01*
X0411218Y0136798D02*
X0396794Y0136798D01*
X0396801Y0135799D02*
X0411218Y0135799D01*
X0410289Y0134801D02*
X0396809Y0134801D01*
X0396817Y0133802D02*
X0409845Y0133802D01*
X0396855Y0128809D02*
X0431876Y0128809D01*
X0432874Y0127811D02*
X0396862Y0127811D01*
X0396870Y0126812D02*
X0433873Y0126812D01*
X0434871Y0125814D02*
X0396878Y0125814D01*
X0396885Y0124815D02*
X0435870Y0124815D01*
X0436868Y0123817D02*
X0396893Y0123817D01*
X0396901Y0122818D02*
X0437867Y0122818D01*
X0438866Y0121820D02*
X0418159Y0121820D01*
X0418481Y0121686D02*
X0417057Y0122276D01*
X0415515Y0122276D01*
X0414091Y0121686D01*
X0413001Y0120596D01*
X0412411Y0119172D01*
X0412411Y0117631D01*
X0413001Y0116207D01*
X0414091Y0115117D01*
X0414486Y0114953D01*
X0414486Y0107695D01*
X0415540Y0106641D01*
X0421580Y0100601D01*
X0421317Y0099966D01*
X0421317Y0098255D01*
X0421971Y0096674D01*
X0423181Y0095465D01*
X0423885Y0095173D01*
X0423181Y0094882D01*
X0421971Y0093672D01*
X0421317Y0092092D01*
X0421317Y0090381D01*
X0421971Y0088800D01*
X0423181Y0087591D01*
X0423885Y0087299D01*
X0423181Y0087008D01*
X0421971Y0085798D01*
X0421317Y0084218D01*
X0421317Y0082507D01*
X0421971Y0080926D01*
X0423181Y0079717D01*
X0423885Y0079425D01*
X0423181Y0079134D01*
X0421971Y0077924D01*
X0421317Y0076344D01*
X0421317Y0074633D01*
X0421971Y0073052D01*
X0423181Y0071843D01*
X0423885Y0071551D01*
X0423181Y0071260D01*
X0421971Y0070050D01*
X0421317Y0068469D01*
X0421317Y0066759D01*
X0421971Y0065178D01*
X0423181Y0063969D01*
X0423885Y0063677D01*
X0423181Y0063386D01*
X0421971Y0062176D01*
X0421317Y0060595D01*
X0421317Y0058885D01*
X0421971Y0057304D01*
X0423181Y0056095D01*
X0423885Y0055803D01*
X0423181Y0055511D01*
X0421971Y0054302D01*
X0421317Y0052721D01*
X0421317Y0051011D01*
X0421971Y0049430D01*
X0423181Y0048221D01*
X0423885Y0047929D01*
X0423181Y0047637D01*
X0421971Y0046428D01*
X0421317Y0044847D01*
X0421317Y0043137D01*
X0421971Y0041556D01*
X0423181Y0040347D01*
X0423885Y0040055D01*
X0423181Y0039763D01*
X0421971Y0038554D01*
X0421317Y0036973D01*
X0421317Y0035263D01*
X0421971Y0033682D01*
X0423181Y0032473D01*
X0424761Y0031818D01*
X0426472Y0031818D01*
X0428053Y0032473D01*
X0429262Y0033682D01*
X0429917Y0035263D01*
X0429917Y0036973D01*
X0429653Y0037609D01*
X0439927Y0047883D01*
X0440629Y0047180D01*
X0446431Y0047180D01*
X0447192Y0047942D01*
X0447192Y0048255D01*
X0450498Y0048255D01*
X0450498Y0047942D01*
X0451259Y0047180D01*
X0457061Y0047180D01*
X0457822Y0047942D01*
X0457822Y0051172D01*
X0462858Y0056208D01*
X0463913Y0057262D01*
X0463913Y0067771D01*
X0465407Y0067771D01*
X0466169Y0068532D01*
X0466169Y0069239D01*
X0466878Y0069239D01*
X0467598Y0068519D01*
X0473399Y0068519D01*
X0474161Y0069280D01*
X0474161Y0069594D01*
X0475496Y0069594D01*
X0476551Y0070648D01*
X0481747Y0075845D01*
X0481747Y0114428D01*
X0492110Y0124791D01*
X0492799Y0124791D01*
X0492127Y0124118D01*
X0491627Y0122912D01*
X0491627Y0121607D01*
X0492127Y0120401D01*
X0493050Y0119478D01*
X0493108Y0119454D01*
X0493108Y0066711D01*
X0494163Y0065657D01*
X0498333Y0061487D01*
X0498333Y0058257D01*
X0499094Y0057495D01*
X0504895Y0057495D01*
X0505657Y0058257D01*
X0505657Y0062483D01*
X0504895Y0063245D01*
X0501666Y0063245D01*
X0496708Y0068202D01*
X0496708Y0119454D01*
X0496767Y0119478D01*
X0497690Y0120401D01*
X0498189Y0121607D01*
X0498189Y0122912D01*
X0497690Y0124118D01*
X0497018Y0124791D01*
X0505013Y0124791D01*
X0505013Y0124757D01*
X0505512Y0123551D01*
X0506435Y0122628D01*
X0507641Y0122128D01*
X0508947Y0122128D01*
X0510153Y0122628D01*
X0511076Y0123551D01*
X0511575Y0124757D01*
X0511575Y0126062D01*
X0511076Y0127268D01*
X0510153Y0128191D01*
X0509228Y0128574D01*
X0509228Y0133283D01*
X0509541Y0133283D01*
X0510303Y0134044D01*
X0510303Y0139846D01*
X0509541Y0140607D01*
X0508834Y0140607D01*
X0508834Y0141511D01*
X0509147Y0141511D01*
X0509909Y0142273D01*
X0509909Y0148074D01*
X0509147Y0148835D01*
X0508834Y0148835D01*
X0508834Y0149739D01*
X0512691Y0149739D01*
X0513452Y0150501D01*
X0513452Y0157968D01*
X0518596Y0157968D01*
X0519358Y0158729D01*
X0519358Y0162956D01*
X0518596Y0163717D01*
X0512795Y0163717D01*
X0512033Y0162956D01*
X0512033Y0162798D01*
X0511008Y0163824D01*
X0510312Y0163824D01*
X0510288Y0163882D01*
X0509365Y0164805D01*
X0508159Y0165305D01*
X0506854Y0165305D01*
X0505648Y0164805D01*
X0504725Y0163882D01*
X0504225Y0162676D01*
X0504225Y0161371D01*
X0504725Y0160165D01*
X0505464Y0159426D01*
X0505315Y0159426D01*
X0504553Y0158664D01*
X0504553Y0150501D01*
X0505234Y0149820D01*
X0505234Y0148835D01*
X0504921Y0148835D01*
X0504159Y0148074D01*
X0504159Y0142273D01*
X0504921Y0141511D01*
X0505234Y0141511D01*
X0505234Y0140527D01*
X0504553Y0139846D01*
X0504553Y0134044D01*
X0505315Y0133283D01*
X0505628Y0133283D01*
X0505628Y0128391D01*
X0490619Y0128391D01*
X0479202Y0116973D01*
X0478148Y0115919D01*
X0478148Y0077336D01*
X0474161Y0073349D01*
X0474161Y0073507D01*
X0473399Y0074268D01*
X0467598Y0074268D01*
X0466836Y0073507D01*
X0466836Y0072839D01*
X0466169Y0072839D01*
X0466169Y0073546D01*
X0465407Y0074308D01*
X0458818Y0074308D01*
X0458057Y0073546D01*
X0458057Y0068532D01*
X0458818Y0067771D01*
X0460313Y0067771D01*
X0460313Y0058753D01*
X0457822Y0056263D01*
X0457822Y0059255D01*
X0457061Y0060017D01*
X0451259Y0060017D01*
X0450498Y0059255D01*
X0450498Y0058942D01*
X0447192Y0058942D01*
X0447192Y0059255D01*
X0446431Y0060017D01*
X0445330Y0060017D01*
X0445330Y0089816D01*
X0444276Y0090871D01*
X0429653Y0105493D01*
X0429917Y0106129D01*
X0429917Y0107840D01*
X0429262Y0109420D01*
X0428053Y0110630D01*
X0426472Y0111284D01*
X0424761Y0111284D01*
X0423181Y0110630D01*
X0421971Y0109420D01*
X0421317Y0107840D01*
X0421317Y0106129D01*
X0421439Y0105833D01*
X0418086Y0109187D01*
X0418086Y0114953D01*
X0418481Y0115117D01*
X0419571Y0116207D01*
X0420161Y0117631D01*
X0420161Y0119172D01*
X0419571Y0120596D01*
X0418481Y0121686D01*
X0419346Y0120821D02*
X0439864Y0120821D01*
X0440863Y0119823D02*
X0419891Y0119823D01*
X0420161Y0118824D02*
X0441861Y0118824D01*
X0442860Y0117826D02*
X0420161Y0117826D01*
X0419828Y0116827D02*
X0443858Y0116827D01*
X0444857Y0115829D02*
X0419193Y0115829D01*
X0418086Y0114830D02*
X0445855Y0114830D01*
X0446854Y0113832D02*
X0418086Y0113832D01*
X0418086Y0112833D02*
X0447852Y0112833D01*
X0448851Y0111835D02*
X0418086Y0111835D01*
X0418086Y0110836D02*
X0423680Y0110836D01*
X0422389Y0109838D02*
X0418086Y0109838D01*
X0418433Y0108839D02*
X0421731Y0108839D01*
X0421317Y0107841D02*
X0419432Y0107841D01*
X0420430Y0106842D02*
X0421317Y0106842D01*
X0421429Y0105844D02*
X0421435Y0105844D01*
X0419333Y0102848D02*
X0397054Y0102848D01*
X0397061Y0101850D02*
X0420332Y0101850D01*
X0421330Y0100851D02*
X0397069Y0100851D01*
X0397077Y0099853D02*
X0421317Y0099853D01*
X0421317Y0098854D02*
X0397084Y0098854D01*
X0397092Y0097856D02*
X0421482Y0097856D01*
X0421896Y0096857D02*
X0397099Y0096857D01*
X0397107Y0095859D02*
X0422787Y0095859D01*
X0423160Y0094860D02*
X0397115Y0094860D01*
X0397122Y0093862D02*
X0422161Y0093862D01*
X0421636Y0092863D02*
X0397130Y0092863D01*
X0397138Y0091865D02*
X0421317Y0091865D01*
X0421317Y0090866D02*
X0397145Y0090866D01*
X0397153Y0089868D02*
X0421529Y0089868D01*
X0421943Y0088869D02*
X0397161Y0088869D01*
X0397168Y0087870D02*
X0422901Y0087870D01*
X0423045Y0086872D02*
X0397176Y0086872D01*
X0397184Y0085873D02*
X0422047Y0085873D01*
X0421589Y0084875D02*
X0397191Y0084875D01*
X0397199Y0083876D02*
X0421317Y0083876D01*
X0421317Y0082878D02*
X0397207Y0082878D01*
X0397214Y0081879D02*
X0421577Y0081879D01*
X0422017Y0080881D02*
X0397222Y0080881D01*
X0397229Y0079882D02*
X0423015Y0079882D01*
X0422931Y0078884D02*
X0397237Y0078884D01*
X0397245Y0077885D02*
X0421955Y0077885D01*
X0421542Y0076887D02*
X0397252Y0076887D01*
X0397260Y0075888D02*
X0421317Y0075888D01*
X0421317Y0074890D02*
X0397268Y0074890D01*
X0397275Y0073891D02*
X0421624Y0073891D01*
X0422131Y0072893D02*
X0397283Y0072893D01*
X0397291Y0071894D02*
X0423130Y0071894D01*
X0422817Y0070896D02*
X0397298Y0070896D01*
X0397306Y0069897D02*
X0421908Y0069897D01*
X0421495Y0068899D02*
X0397314Y0068899D01*
X0397321Y0067900D02*
X0421317Y0067900D01*
X0421317Y0066902D02*
X0397329Y0066902D01*
X0397336Y0065903D02*
X0421671Y0065903D01*
X0422245Y0064905D02*
X0397344Y0064905D01*
X0397352Y0063906D02*
X0423332Y0063906D01*
X0422703Y0062908D02*
X0397359Y0062908D01*
X0397367Y0061909D02*
X0421861Y0061909D01*
X0421447Y0060911D02*
X0397375Y0060911D01*
X0397382Y0059912D02*
X0421317Y0059912D01*
X0421317Y0058914D02*
X0397390Y0058914D01*
X0397398Y0057915D02*
X0421718Y0057915D01*
X0422359Y0056917D02*
X0397405Y0056917D01*
X0397413Y0055918D02*
X0423608Y0055918D01*
X0422589Y0054920D02*
X0397421Y0054920D01*
X0397428Y0053921D02*
X0421814Y0053921D01*
X0421400Y0052923D02*
X0397436Y0052923D01*
X0397444Y0051924D02*
X0421317Y0051924D01*
X0421352Y0050926D02*
X0397451Y0050926D01*
X0397459Y0049927D02*
X0421766Y0049927D01*
X0422473Y0048929D02*
X0397466Y0048929D01*
X0397474Y0047930D02*
X0423883Y0047930D01*
X0422475Y0046932D02*
X0397482Y0046932D01*
X0397489Y0045933D02*
X0421766Y0045933D01*
X0421353Y0044934D02*
X0397497Y0044934D01*
X0397505Y0043936D02*
X0421317Y0043936D01*
X0421399Y0042937D02*
X0397512Y0042937D01*
X0397520Y0041939D02*
X0421813Y0041939D01*
X0422587Y0040940D02*
X0397528Y0040940D01*
X0397535Y0039942D02*
X0423612Y0039942D01*
X0422361Y0038943D02*
X0397543Y0038943D01*
X0397551Y0037945D02*
X0421719Y0037945D01*
X0421317Y0036946D02*
X0397558Y0036946D01*
X0397566Y0035948D02*
X0421317Y0035948D01*
X0421447Y0034949D02*
X0397573Y0034949D01*
X0397581Y0033951D02*
X0421860Y0033951D01*
X0422701Y0032952D02*
X0397589Y0032952D01*
X0397596Y0031954D02*
X0424434Y0031954D01*
X0426800Y0031954D02*
X0511048Y0031954D01*
X0511376Y0031818D02*
X0513086Y0031818D01*
X0514667Y0032473D01*
X0515876Y0033682D01*
X0516531Y0035263D01*
X0516531Y0036973D01*
X0515876Y0038554D01*
X0514667Y0039763D01*
X0513963Y0040055D01*
X0514667Y0040347D01*
X0515876Y0041556D01*
X0516531Y0043137D01*
X0516531Y0044847D01*
X0515876Y0046428D01*
X0514667Y0047637D01*
X0513963Y0047929D01*
X0514667Y0048221D01*
X0515876Y0049430D01*
X0516531Y0051011D01*
X0516531Y0052721D01*
X0515876Y0054302D01*
X0514667Y0055511D01*
X0513963Y0055803D01*
X0514667Y0056095D01*
X0515876Y0057304D01*
X0516531Y0058885D01*
X0516531Y0060595D01*
X0515876Y0062176D01*
X0514667Y0063386D01*
X0513963Y0063677D01*
X0514667Y0063969D01*
X0515876Y0065178D01*
X0516531Y0066759D01*
X0516531Y0068469D01*
X0515876Y0070050D01*
X0514667Y0071260D01*
X0513963Y0071551D01*
X0514667Y0071843D01*
X0515876Y0073052D01*
X0516531Y0074633D01*
X0516531Y0076344D01*
X0515876Y0077924D01*
X0514667Y0079134D01*
X0513963Y0079425D01*
X0514667Y0079717D01*
X0515876Y0080926D01*
X0516531Y0082507D01*
X0516531Y0084218D01*
X0515876Y0085798D01*
X0514667Y0087008D01*
X0513963Y0087299D01*
X0514667Y0087591D01*
X0515876Y0088800D01*
X0516531Y0090381D01*
X0516531Y0092092D01*
X0515876Y0093672D01*
X0514667Y0094882D01*
X0513963Y0095173D01*
X0514667Y0095465D01*
X0515876Y0096674D01*
X0516531Y0098255D01*
X0516531Y0099966D01*
X0515876Y0101546D01*
X0514667Y0102756D01*
X0513963Y0103047D01*
X0514667Y0103339D01*
X0515876Y0104548D01*
X0516531Y0106129D01*
X0516531Y0107840D01*
X0515876Y0109420D01*
X0514667Y0110630D01*
X0513086Y0111284D01*
X0511376Y0111284D01*
X0509795Y0110630D01*
X0508586Y0109420D01*
X0507931Y0107840D01*
X0507931Y0106129D01*
X0508586Y0104548D01*
X0509795Y0103339D01*
X0510499Y0103047D01*
X0509795Y0102756D01*
X0508586Y0101546D01*
X0507931Y0099966D01*
X0507931Y0098255D01*
X0508586Y0096674D01*
X0509795Y0095465D01*
X0510499Y0095173D01*
X0509795Y0094882D01*
X0508586Y0093672D01*
X0507931Y0092092D01*
X0507931Y0090381D01*
X0508586Y0088800D01*
X0509795Y0087591D01*
X0510499Y0087299D01*
X0509795Y0087008D01*
X0508586Y0085798D01*
X0507931Y0084218D01*
X0507931Y0082507D01*
X0508586Y0080926D01*
X0509795Y0079717D01*
X0510499Y0079425D01*
X0509795Y0079134D01*
X0508586Y0077924D01*
X0508322Y0077288D01*
X0505696Y0077288D01*
X0505696Y0077523D01*
X0504935Y0078284D01*
X0499133Y0078284D01*
X0498372Y0077523D01*
X0498372Y0073296D01*
X0499133Y0072535D01*
X0504935Y0072535D01*
X0505696Y0073296D01*
X0505696Y0073688D01*
X0508322Y0073688D01*
X0508586Y0073052D01*
X0509795Y0071843D01*
X0510499Y0071551D01*
X0509795Y0071260D01*
X0508586Y0070050D01*
X0507931Y0068469D01*
X0507931Y0066759D01*
X0508586Y0065178D01*
X0509795Y0063969D01*
X0510499Y0063677D01*
X0509795Y0063386D01*
X0508586Y0062176D01*
X0507931Y0060595D01*
X0507931Y0058885D01*
X0508586Y0057304D01*
X0509795Y0056095D01*
X0510499Y0055803D01*
X0509795Y0055511D01*
X0508586Y0054302D01*
X0507931Y0052721D01*
X0507931Y0051011D01*
X0508586Y0049430D01*
X0509795Y0048221D01*
X0510499Y0047929D01*
X0509795Y0047637D01*
X0508586Y0046428D01*
X0508322Y0045792D01*
X0508173Y0045792D01*
X0503795Y0050171D01*
X0503795Y0050409D01*
X0504895Y0050409D01*
X0505657Y0051170D01*
X0505657Y0055397D01*
X0504895Y0056158D01*
X0499094Y0056158D01*
X0498333Y0055397D01*
X0498333Y0051170D01*
X0499094Y0050409D01*
X0500195Y0050409D01*
X0500195Y0048680D01*
X0505628Y0043247D01*
X0506682Y0042192D01*
X0508322Y0042192D01*
X0508586Y0041556D01*
X0509795Y0040347D01*
X0510499Y0040055D01*
X0509795Y0039763D01*
X0508586Y0038554D01*
X0507931Y0036973D01*
X0507931Y0035263D01*
X0508586Y0033682D01*
X0509795Y0032473D01*
X0511376Y0031818D01*
X0513414Y0031954D02*
X0520058Y0031954D01*
X0519644Y0030955D02*
X0397604Y0030955D01*
X0397612Y0029957D02*
X0519577Y0029957D01*
X0520811Y0032952D02*
X0515146Y0032952D01*
X0515988Y0033951D02*
X0522331Y0033951D01*
X0523021Y0035637D02*
X0530732Y0035637D01*
X0532312Y0036292D01*
X0533522Y0037501D01*
X0534177Y0039082D01*
X0534177Y0040792D01*
X0533522Y0042373D01*
X0532312Y0043582D01*
X0530732Y0044237D01*
X0523021Y0044237D01*
X0521441Y0043582D01*
X0520231Y0042373D01*
X0519577Y0040792D01*
X0519577Y0039082D01*
X0520231Y0037501D01*
X0521441Y0036292D01*
X0523021Y0035637D01*
X0522271Y0035948D02*
X0516531Y0035948D01*
X0516531Y0036946D02*
X0520786Y0036946D01*
X0520047Y0037945D02*
X0516129Y0037945D01*
X0515487Y0038943D02*
X0519634Y0038943D01*
X0519577Y0039942D02*
X0514236Y0039942D01*
X0515260Y0040940D02*
X0519638Y0040940D01*
X0520052Y0041939D02*
X0516035Y0041939D01*
X0516448Y0042937D02*
X0520796Y0042937D01*
X0522295Y0043936D02*
X0516531Y0043936D01*
X0516495Y0044934D02*
X0540341Y0044934D01*
X0540342Y0043936D02*
X0531459Y0043936D01*
X0532957Y0042937D02*
X0540344Y0042937D01*
X0540345Y0041939D02*
X0533702Y0041939D01*
X0534115Y0040940D02*
X0540347Y0040940D01*
X0540348Y0039942D02*
X0534177Y0039942D01*
X0534119Y0038943D02*
X0540350Y0038943D01*
X0540352Y0037945D02*
X0533706Y0037945D01*
X0532967Y0036946D02*
X0540353Y0036946D01*
X0540355Y0035948D02*
X0531482Y0035948D01*
X0531423Y0033951D02*
X0540358Y0033951D01*
X0540356Y0034949D02*
X0516401Y0034949D01*
X0509316Y0032952D02*
X0428532Y0032952D01*
X0429373Y0033951D02*
X0508474Y0033951D01*
X0508061Y0034949D02*
X0429787Y0034949D01*
X0429917Y0035948D02*
X0507931Y0035948D01*
X0507931Y0036946D02*
X0429917Y0036946D01*
X0429989Y0037945D02*
X0508333Y0037945D01*
X0508975Y0038943D02*
X0430988Y0038943D01*
X0431986Y0039942D02*
X0510226Y0039942D01*
X0509202Y0040940D02*
X0432985Y0040940D01*
X0433983Y0041939D02*
X0508427Y0041939D01*
X0507428Y0043992D02*
X0512231Y0043992D01*
X0515373Y0046932D02*
X0520801Y0046932D01*
X0520231Y0047501D02*
X0521441Y0046292D01*
X0523021Y0045637D01*
X0530732Y0045637D01*
X0532312Y0046292D01*
X0533522Y0047501D01*
X0534177Y0049082D01*
X0534177Y0050792D01*
X0533522Y0052373D01*
X0532312Y0053582D01*
X0530732Y0054237D01*
X0523021Y0054237D01*
X0521441Y0053582D01*
X0520231Y0052373D01*
X0519577Y0050792D01*
X0519577Y0049082D01*
X0520231Y0047501D01*
X0520054Y0047930D02*
X0513965Y0047930D01*
X0515374Y0048929D02*
X0519640Y0048929D01*
X0519577Y0049927D02*
X0516082Y0049927D01*
X0516496Y0050926D02*
X0519632Y0050926D01*
X0520045Y0051924D02*
X0516531Y0051924D01*
X0516448Y0052923D02*
X0520781Y0052923D01*
X0522259Y0053921D02*
X0516034Y0053921D01*
X0515259Y0054920D02*
X0540326Y0054920D01*
X0540324Y0055918D02*
X0531411Y0055918D01*
X0530732Y0055637D02*
X0532312Y0056292D01*
X0533522Y0057501D01*
X0534177Y0059082D01*
X0534177Y0060792D01*
X0533522Y0062373D01*
X0532312Y0063582D01*
X0530732Y0064237D01*
X0523021Y0064237D01*
X0521441Y0063582D01*
X0520231Y0062373D01*
X0519577Y0060792D01*
X0519577Y0059082D01*
X0520231Y0057501D01*
X0521441Y0056292D01*
X0523021Y0055637D01*
X0530732Y0055637D01*
X0531495Y0053921D02*
X0540327Y0053921D01*
X0540329Y0052923D02*
X0532972Y0052923D01*
X0533708Y0051924D02*
X0540330Y0051924D01*
X0540332Y0050926D02*
X0534121Y0050926D01*
X0534177Y0049927D02*
X0540333Y0049927D01*
X0540335Y0048929D02*
X0534113Y0048929D01*
X0533700Y0047930D02*
X0540336Y0047930D01*
X0540338Y0046932D02*
X0532952Y0046932D01*
X0531447Y0045933D02*
X0540339Y0045933D01*
X0522307Y0045933D02*
X0516081Y0045933D01*
X0510497Y0047930D02*
X0506035Y0047930D01*
X0505037Y0048929D02*
X0509087Y0048929D01*
X0508380Y0049927D02*
X0504038Y0049927D01*
X0505412Y0050926D02*
X0507966Y0050926D01*
X0507931Y0051924D02*
X0505657Y0051924D01*
X0505657Y0052923D02*
X0508014Y0052923D01*
X0508428Y0053921D02*
X0505657Y0053921D01*
X0505657Y0054920D02*
X0509203Y0054920D01*
X0510222Y0055918D02*
X0505136Y0055918D01*
X0505315Y0057915D02*
X0508333Y0057915D01*
X0507931Y0058914D02*
X0505657Y0058914D01*
X0505657Y0059912D02*
X0507931Y0059912D01*
X0508062Y0060911D02*
X0505657Y0060911D01*
X0505657Y0061909D02*
X0508475Y0061909D01*
X0509317Y0062908D02*
X0505233Y0062908D01*
X0501995Y0060370D02*
X0494908Y0067457D01*
X0494908Y0122260D01*
X0492705Y0119823D02*
X0487143Y0119823D01*
X0488141Y0120821D02*
X0491953Y0120821D01*
X0491627Y0121820D02*
X0489140Y0121820D01*
X0490138Y0122818D02*
X0491627Y0122818D01*
X0492002Y0123817D02*
X0491137Y0123817D01*
X0491365Y0126591D02*
X0479948Y0115173D01*
X0479948Y0076591D01*
X0474751Y0071394D01*
X0470499Y0071394D01*
X0470144Y0071039D01*
X0462113Y0071039D01*
X0462113Y0058008D01*
X0454160Y0050055D01*
X0443530Y0050055D01*
X0439554Y0050055D01*
X0425617Y0036118D01*
X0429794Y0042841D02*
X0429917Y0043137D01*
X0429917Y0044847D01*
X0429262Y0046428D01*
X0428053Y0047637D01*
X0427348Y0047929D01*
X0428053Y0048221D01*
X0429262Y0049430D01*
X0429917Y0051011D01*
X0429917Y0052721D01*
X0429262Y0054302D01*
X0428053Y0055511D01*
X0427348Y0055803D01*
X0428053Y0056095D01*
X0429262Y0057304D01*
X0429917Y0058885D01*
X0429917Y0060595D01*
X0429262Y0062176D01*
X0428053Y0063386D01*
X0427348Y0063677D01*
X0428053Y0063969D01*
X0429262Y0065178D01*
X0429917Y0066759D01*
X0429917Y0068469D01*
X0429262Y0070050D01*
X0428053Y0071260D01*
X0427348Y0071551D01*
X0428053Y0071843D01*
X0428284Y0072074D01*
X0433372Y0072074D01*
X0433372Y0071761D01*
X0434133Y0070999D01*
X0434677Y0070999D01*
X0434253Y0070575D01*
X0433753Y0069369D01*
X0433753Y0068064D01*
X0434253Y0066858D01*
X0435176Y0065935D01*
X0436381Y0065435D01*
X0437687Y0065435D01*
X0438893Y0065935D01*
X0439816Y0066858D01*
X0440315Y0068064D01*
X0440315Y0069369D01*
X0439816Y0070575D01*
X0439392Y0070999D01*
X0439935Y0070999D01*
X0440696Y0071761D01*
X0440696Y0075987D01*
X0439935Y0076749D01*
X0434133Y0076749D01*
X0433372Y0075987D01*
X0433372Y0075674D01*
X0429917Y0075674D01*
X0429917Y0076344D01*
X0429262Y0077924D01*
X0428053Y0079134D01*
X0427348Y0079425D01*
X0428053Y0079717D01*
X0429262Y0080926D01*
X0429917Y0082507D01*
X0429917Y0084218D01*
X0429262Y0085798D01*
X0428053Y0087008D01*
X0427348Y0087299D01*
X0428053Y0087591D01*
X0429262Y0088800D01*
X0429917Y0090381D01*
X0429917Y0092092D01*
X0429262Y0093672D01*
X0428053Y0094882D01*
X0427348Y0095173D01*
X0428053Y0095465D01*
X0429262Y0096674D01*
X0429917Y0098255D01*
X0429917Y0099966D01*
X0429794Y0100261D01*
X0441730Y0088325D01*
X0441730Y0082721D01*
X0440696Y0082721D01*
X0440696Y0083074D01*
X0439935Y0083835D01*
X0434133Y0083835D01*
X0433372Y0083074D01*
X0433372Y0078847D01*
X0434133Y0078086D01*
X0439935Y0078086D01*
X0440696Y0078847D01*
X0440696Y0079121D01*
X0441730Y0079121D01*
X0441730Y0060017D01*
X0440629Y0060017D01*
X0439868Y0059255D01*
X0439868Y0055028D01*
X0440629Y0054267D01*
X0446431Y0054267D01*
X0447192Y0055028D01*
X0447192Y0055342D01*
X0450498Y0055342D01*
X0450498Y0055028D01*
X0451259Y0054267D01*
X0455826Y0054267D01*
X0454489Y0052930D01*
X0451259Y0052930D01*
X0450498Y0052168D01*
X0450498Y0051855D01*
X0447192Y0051855D01*
X0447192Y0052168D01*
X0446431Y0052930D01*
X0440629Y0052930D01*
X0439868Y0052168D01*
X0439868Y0051855D01*
X0438808Y0051855D01*
X0437754Y0050801D01*
X0429794Y0042841D01*
X0429834Y0042937D02*
X0429891Y0042937D01*
X0429917Y0043936D02*
X0430889Y0043936D01*
X0431888Y0044934D02*
X0429881Y0044934D01*
X0429467Y0045933D02*
X0432886Y0045933D01*
X0433885Y0046932D02*
X0428759Y0046932D01*
X0427351Y0047930D02*
X0434883Y0047930D01*
X0435882Y0048929D02*
X0428760Y0048929D01*
X0429468Y0049927D02*
X0436880Y0049927D01*
X0437879Y0050926D02*
X0429881Y0050926D01*
X0429917Y0051924D02*
X0439868Y0051924D01*
X0440622Y0052923D02*
X0429833Y0052923D01*
X0429420Y0053921D02*
X0455481Y0053921D01*
X0454160Y0057142D02*
X0443530Y0057142D01*
X0443530Y0080921D01*
X0437073Y0080921D01*
X0437034Y0080961D01*
X0433372Y0080881D02*
X0429217Y0080881D01*
X0429657Y0081879D02*
X0433372Y0081879D01*
X0433372Y0082878D02*
X0429917Y0082878D01*
X0429917Y0083876D02*
X0441730Y0083876D01*
X0441730Y0082878D02*
X0440696Y0082878D01*
X0441730Y0084875D02*
X0429644Y0084875D01*
X0429187Y0085873D02*
X0441730Y0085873D01*
X0441730Y0086872D02*
X0428188Y0086872D01*
X0428332Y0087870D02*
X0441730Y0087870D01*
X0441186Y0088869D02*
X0429291Y0088869D01*
X0429704Y0089868D02*
X0440188Y0089868D01*
X0439189Y0090866D02*
X0429917Y0090866D01*
X0429917Y0091865D02*
X0438191Y0091865D01*
X0437192Y0092863D02*
X0429597Y0092863D01*
X0429073Y0093862D02*
X0436194Y0093862D01*
X0435195Y0094860D02*
X0428074Y0094860D01*
X0428446Y0095859D02*
X0434197Y0095859D01*
X0433198Y0096857D02*
X0429338Y0096857D01*
X0429751Y0097856D02*
X0432200Y0097856D01*
X0431201Y0098854D02*
X0429917Y0098854D01*
X0429917Y0099853D02*
X0430203Y0099853D01*
X0432298Y0102848D02*
X0457837Y0102848D01*
X0456839Y0103847D02*
X0431300Y0103847D01*
X0430301Y0104845D02*
X0455840Y0104845D01*
X0454842Y0105844D02*
X0429799Y0105844D01*
X0429917Y0106842D02*
X0453843Y0106842D01*
X0452845Y0107841D02*
X0429916Y0107841D01*
X0429503Y0108839D02*
X0451846Y0108839D01*
X0450848Y0109838D02*
X0428844Y0109838D01*
X0427554Y0110836D02*
X0449849Y0110836D01*
X0451945Y0113832D02*
X0478148Y0113832D01*
X0478148Y0114830D02*
X0450946Y0114830D01*
X0449948Y0115829D02*
X0478148Y0115829D01*
X0479056Y0116827D02*
X0448949Y0116827D01*
X0447951Y0117826D02*
X0480055Y0117826D01*
X0481053Y0118824D02*
X0446952Y0118824D01*
X0445954Y0119823D02*
X0482052Y0119823D01*
X0483050Y0120821D02*
X0444955Y0120821D01*
X0443957Y0121820D02*
X0484049Y0121820D01*
X0485047Y0122818D02*
X0442958Y0122818D01*
X0441960Y0123817D02*
X0486046Y0123817D01*
X0487044Y0124815D02*
X0440961Y0124815D01*
X0439963Y0125814D02*
X0488043Y0125814D01*
X0489041Y0126812D02*
X0438964Y0126812D01*
X0437966Y0127811D02*
X0490040Y0127811D01*
X0491365Y0126591D02*
X0507113Y0126591D01*
X0508294Y0125409D01*
X0507428Y0126276D01*
X0507428Y0136945D01*
X0507034Y0136945D01*
X0507034Y0145173D01*
X0507034Y0154583D01*
X0509003Y0154583D01*
X0509003Y0158402D01*
X0511444Y0160843D01*
X0510262Y0162024D01*
X0507507Y0162024D01*
X0504478Y0160762D02*
X0478204Y0160762D01*
X0478204Y0161760D02*
X0504225Y0161760D01*
X0504260Y0162759D02*
X0478898Y0162759D01*
X0478204Y0162065D02*
X0479884Y0163746D01*
X0480057Y0163573D01*
X0481263Y0163073D01*
X0482569Y0163073D01*
X0483775Y0163573D01*
X0484698Y0164496D01*
X0485197Y0165702D01*
X0485197Y0167007D01*
X0484767Y0168046D01*
X0487888Y0168046D01*
X0488649Y0168808D01*
X0488649Y0172468D01*
X0493962Y0172468D01*
X0493962Y0170186D01*
X0494724Y0169424D01*
X0502100Y0169424D01*
X0502862Y0170186D01*
X0502862Y0178349D01*
X0502181Y0179031D01*
X0502181Y0180094D01*
X0502494Y0180094D01*
X0503255Y0180855D01*
X0503255Y0186657D01*
X0502494Y0187418D01*
X0502181Y0187418D01*
X0502181Y0188794D01*
X0502494Y0188794D01*
X0503255Y0189556D01*
X0503255Y0195052D01*
X0504247Y0195463D01*
X0505170Y0196385D01*
X0505667Y0197586D01*
X0505667Y0196119D01*
X0505354Y0196119D01*
X0504592Y0195357D01*
X0504592Y0189556D01*
X0505354Y0188794D01*
X0505667Y0188794D01*
X0505667Y0187418D01*
X0505354Y0187418D01*
X0504592Y0186657D01*
X0504592Y0180855D01*
X0505354Y0180094D01*
X0505667Y0180094D01*
X0505667Y0179031D01*
X0504986Y0178349D01*
X0504986Y0170186D01*
X0505748Y0169424D01*
X0508069Y0169424D01*
X0508069Y0167971D01*
X0509123Y0166917D01*
X0509911Y0166129D01*
X0511402Y0166129D01*
X0512033Y0166761D01*
X0512033Y0165816D01*
X0512795Y0165054D01*
X0518596Y0165054D01*
X0519358Y0165816D01*
X0519358Y0170042D01*
X0518596Y0170804D01*
X0513885Y0170804D01*
X0513885Y0178349D01*
X0513124Y0179111D01*
X0509267Y0179111D01*
X0509267Y0180094D01*
X0509580Y0180094D01*
X0510342Y0180855D01*
X0510342Y0186657D01*
X0509580Y0187418D01*
X0509267Y0187418D01*
X0509267Y0188794D01*
X0509580Y0188794D01*
X0510342Y0189556D01*
X0510342Y0195357D01*
X0509580Y0196119D01*
X0509267Y0196119D01*
X0509267Y0196568D01*
X0509979Y0195856D01*
X0511185Y0195357D01*
X0512490Y0195357D01*
X0513696Y0195856D01*
X0514619Y0196779D01*
X0515118Y0197985D01*
X0515118Y0199290D01*
X0514619Y0200496D01*
X0513696Y0201419D01*
X0513094Y0201669D01*
X0517297Y0201669D01*
X0518059Y0202430D01*
X0518059Y0203531D01*
X0519172Y0203531D01*
X0520486Y0202509D01*
X0520231Y0202255D01*
X0519577Y0200674D01*
X0519577Y0198964D01*
X0520231Y0197383D01*
X0521441Y0196174D01*
X0523021Y0195519D01*
X0530732Y0195519D01*
X0532312Y0196174D01*
X0533522Y0197383D01*
X0534177Y0198964D01*
X0534177Y0200674D01*
X0533522Y0202255D01*
X0532312Y0203464D01*
X0530732Y0204119D01*
X0524280Y0204119D01*
X0521863Y0205999D01*
X0523021Y0205519D01*
X0530732Y0205519D01*
X0532312Y0206174D01*
X0533522Y0207383D01*
X0534177Y0208964D01*
X0534177Y0210674D01*
X0533522Y0212255D01*
X0532312Y0213464D01*
X0530732Y0214119D01*
X0525122Y0214119D01*
X0525024Y0214217D01*
X0517862Y0214217D01*
X0517862Y0215318D01*
X0517100Y0216080D01*
X0512874Y0216080D01*
X0512112Y0215318D01*
X0512112Y0209517D01*
X0512853Y0208776D01*
X0512309Y0208231D01*
X0512309Y0202430D01*
X0513054Y0201685D01*
X0512490Y0201919D01*
X0511185Y0201919D01*
X0509979Y0201419D01*
X0509056Y0200496D01*
X0509031Y0200438D01*
X0508646Y0200438D01*
X0508213Y0200871D01*
X0506722Y0200871D01*
X0505667Y0199816D01*
X0505667Y0198902D01*
X0505170Y0200103D01*
X0504247Y0201026D01*
X0503041Y0201525D01*
X0501736Y0201525D01*
X0500530Y0201026D01*
X0499607Y0200103D01*
X0499107Y0198897D01*
X0499107Y0197591D01*
X0499236Y0197280D01*
X0499051Y0197059D01*
X0498581Y0196588D01*
X0498581Y0196496D01*
X0498521Y0196425D01*
X0498549Y0196119D01*
X0498267Y0196119D01*
X0497506Y0195357D01*
X0497506Y0189556D01*
X0498267Y0188794D01*
X0498581Y0188794D01*
X0498581Y0187418D01*
X0498267Y0187418D01*
X0497506Y0186657D01*
X0497506Y0180855D01*
X0498267Y0180094D01*
X0498581Y0180094D01*
X0498581Y0179111D01*
X0494724Y0179111D01*
X0493962Y0178349D01*
X0493962Y0176068D01*
X0488649Y0176068D01*
X0488649Y0176184D01*
X0487888Y0176946D01*
X0475000Y0176946D01*
X0474238Y0176184D01*
X0474238Y0168808D01*
X0475000Y0168046D01*
X0479065Y0168046D01*
X0479045Y0167998D01*
X0475659Y0164611D01*
X0474604Y0163557D01*
X0474604Y0158440D01*
X0474238Y0158074D01*
X0474238Y0150698D01*
X0475000Y0149936D01*
X0487888Y0149936D01*
X0488649Y0150698D01*
X0488649Y0152350D01*
X0493529Y0152350D01*
X0493529Y0150501D01*
X0494291Y0149739D01*
X0498148Y0149739D01*
X0498148Y0148835D01*
X0497834Y0148835D01*
X0497073Y0148074D01*
X0497073Y0142273D01*
X0497834Y0141511D01*
X0498148Y0141511D01*
X0498148Y0140527D01*
X0497466Y0139846D01*
X0497466Y0134044D01*
X0498228Y0133283D01*
X0502454Y0133283D01*
X0503216Y0134044D01*
X0503216Y0139846D01*
X0502454Y0140607D01*
X0501747Y0140607D01*
X0501747Y0141511D01*
X0502061Y0141511D01*
X0502822Y0142273D01*
X0502822Y0148074D01*
X0502061Y0148835D01*
X0501747Y0148835D01*
X0501747Y0149820D01*
X0502429Y0150501D01*
X0502429Y0158664D01*
X0501667Y0159426D01*
X0494291Y0159426D01*
X0493529Y0158664D01*
X0493529Y0155950D01*
X0488649Y0155950D01*
X0488649Y0158074D01*
X0487888Y0158835D01*
X0478204Y0158835D01*
X0478204Y0162065D01*
X0476404Y0162811D02*
X0476404Y0155331D01*
X0477585Y0154150D01*
X0481207Y0154150D01*
X0481444Y0154386D01*
X0481129Y0154701D01*
X0481444Y0154386D02*
X0481680Y0154150D01*
X0499948Y0154150D01*
X0499948Y0154583D01*
X0497979Y0154583D01*
X0499948Y0154150D02*
X0499948Y0145173D01*
X0499948Y0136945D01*
X0500341Y0136945D01*
X0497466Y0136798D02*
X0459957Y0136798D01*
X0460000Y0135799D02*
X0497466Y0135799D01*
X0497466Y0134801D02*
X0459757Y0134801D01*
X0459122Y0133802D02*
X0497709Y0133802D01*
X0502974Y0133802D02*
X0504795Y0133802D01*
X0504553Y0134801D02*
X0503216Y0134801D01*
X0503216Y0135799D02*
X0504553Y0135799D01*
X0504553Y0136798D02*
X0503216Y0136798D01*
X0503216Y0137796D02*
X0504553Y0137796D01*
X0504553Y0138795D02*
X0503216Y0138795D01*
X0503216Y0139793D02*
X0504553Y0139793D01*
X0505234Y0140792D02*
X0501747Y0140792D01*
X0502340Y0141790D02*
X0504642Y0141790D01*
X0504159Y0142789D02*
X0502822Y0142789D01*
X0502822Y0143787D02*
X0504159Y0143787D01*
X0504159Y0144786D02*
X0502822Y0144786D01*
X0502822Y0145784D02*
X0504159Y0145784D01*
X0504159Y0146783D02*
X0502822Y0146783D01*
X0502822Y0147781D02*
X0504159Y0147781D01*
X0504865Y0148780D02*
X0502117Y0148780D01*
X0501747Y0149778D02*
X0505234Y0149778D01*
X0504553Y0150777D02*
X0502429Y0150777D01*
X0502429Y0151775D02*
X0504553Y0151775D01*
X0504553Y0152774D02*
X0502429Y0152774D01*
X0502429Y0153772D02*
X0504553Y0153772D01*
X0504553Y0154771D02*
X0502429Y0154771D01*
X0502429Y0155769D02*
X0504553Y0155769D01*
X0504553Y0156768D02*
X0502429Y0156768D01*
X0502429Y0157766D02*
X0504553Y0157766D01*
X0504653Y0158765D02*
X0502328Y0158765D01*
X0505127Y0159763D02*
X0478204Y0159763D01*
X0476404Y0162811D02*
X0479948Y0166354D01*
X0481916Y0166354D01*
X0484889Y0167751D02*
X0508288Y0167751D01*
X0508069Y0168750D02*
X0488591Y0168750D01*
X0488649Y0169748D02*
X0494400Y0169748D01*
X0493962Y0170747D02*
X0488649Y0170747D01*
X0488649Y0171745D02*
X0493962Y0171745D01*
X0493962Y0176738D02*
X0488095Y0176738D01*
X0493962Y0177737D02*
X0472727Y0177737D01*
X0472533Y0177930D02*
X0445078Y0177930D01*
X0444317Y0177168D01*
X0444317Y0149713D01*
X0445078Y0148952D01*
X0472533Y0148952D01*
X0473295Y0149713D01*
X0473295Y0177168D01*
X0472533Y0177930D01*
X0473295Y0176738D02*
X0474792Y0176738D01*
X0474238Y0175739D02*
X0473295Y0175739D01*
X0473295Y0174741D02*
X0474238Y0174741D01*
X0474238Y0173742D02*
X0473295Y0173742D01*
X0473295Y0172744D02*
X0474238Y0172744D01*
X0474238Y0171745D02*
X0473295Y0171745D01*
X0473295Y0170747D02*
X0474238Y0170747D01*
X0474238Y0169748D02*
X0473295Y0169748D01*
X0473295Y0168750D02*
X0474296Y0168750D01*
X0473295Y0167751D02*
X0478799Y0167751D01*
X0477800Y0166753D02*
X0473295Y0166753D01*
X0473295Y0165754D02*
X0476802Y0165754D01*
X0475803Y0164756D02*
X0473295Y0164756D01*
X0473295Y0163757D02*
X0474805Y0163757D01*
X0474604Y0162759D02*
X0473295Y0162759D01*
X0473295Y0161760D02*
X0474604Y0161760D01*
X0474604Y0160762D02*
X0473295Y0160762D01*
X0473295Y0159763D02*
X0474604Y0159763D01*
X0474604Y0158765D02*
X0473295Y0158765D01*
X0473295Y0157766D02*
X0474238Y0157766D01*
X0474238Y0156768D02*
X0473295Y0156768D01*
X0473295Y0155769D02*
X0474238Y0155769D01*
X0474238Y0154771D02*
X0473295Y0154771D01*
X0473295Y0153772D02*
X0474238Y0153772D01*
X0474238Y0152774D02*
X0473295Y0152774D01*
X0473295Y0151775D02*
X0474238Y0151775D01*
X0474238Y0150777D02*
X0473295Y0150777D01*
X0473295Y0149778D02*
X0494252Y0149778D01*
X0493529Y0150777D02*
X0488649Y0150777D01*
X0488649Y0151775D02*
X0493529Y0151775D01*
X0493529Y0156768D02*
X0488649Y0156768D01*
X0488649Y0157766D02*
X0493529Y0157766D01*
X0493630Y0158765D02*
X0487958Y0158765D01*
X0483959Y0163757D02*
X0504673Y0163757D01*
X0505599Y0164756D02*
X0484805Y0164756D01*
X0485197Y0165754D02*
X0512095Y0165754D01*
X0512033Y0166753D02*
X0512025Y0166753D01*
X0510656Y0167929D02*
X0509869Y0168717D01*
X0509869Y0173835D01*
X0509436Y0174268D01*
X0507467Y0176236D01*
X0507467Y0183756D01*
X0507467Y0192457D01*
X0507467Y0198638D01*
X0511837Y0198638D01*
X0510658Y0201701D02*
X0510243Y0201701D01*
X0510972Y0202699D02*
X0512309Y0202699D01*
X0512309Y0203698D02*
X0510972Y0203698D01*
X0510972Y0204696D02*
X0512309Y0204696D01*
X0512309Y0205695D02*
X0510972Y0205695D01*
X0510972Y0206693D02*
X0512309Y0206693D01*
X0512309Y0207692D02*
X0510972Y0207692D01*
X0510513Y0208690D02*
X0512768Y0208690D01*
X0512112Y0209689D02*
X0510775Y0209689D01*
X0510775Y0210687D02*
X0512112Y0210687D01*
X0512112Y0211686D02*
X0510775Y0211686D01*
X0510775Y0212684D02*
X0512112Y0212684D01*
X0512112Y0213683D02*
X0510775Y0213683D01*
X0510775Y0214681D02*
X0512112Y0214681D01*
X0512474Y0215680D02*
X0510413Y0215680D01*
X0507900Y0212417D02*
X0499239Y0212417D01*
X0469318Y0182496D01*
X0442546Y0182496D01*
X0438215Y0178165D01*
X0438215Y0147457D01*
X0444514Y0141157D01*
X0461050Y0141157D01*
X0463327Y0138795D02*
X0497466Y0138795D01*
X0497466Y0139793D02*
X0464036Y0139793D01*
X0464331Y0140792D02*
X0498148Y0140792D01*
X0497555Y0141790D02*
X0464331Y0141790D01*
X0463926Y0142789D02*
X0465802Y0142789D01*
X0467743Y0145488D02*
X0443727Y0145488D01*
X0440971Y0148244D01*
X0440971Y0177378D01*
X0444121Y0180528D01*
X0473255Y0180528D01*
X0498058Y0205331D01*
X0508097Y0205331D01*
X0507703Y0203362D01*
X0505952Y0201701D02*
X0496973Y0201701D01*
X0495975Y0200702D02*
X0500206Y0200702D01*
X0499442Y0199704D02*
X0494976Y0199704D01*
X0493978Y0198705D02*
X0499107Y0198705D01*
X0499107Y0197707D02*
X0492979Y0197707D01*
X0491981Y0196708D02*
X0498701Y0196708D01*
X0497858Y0195710D02*
X0490982Y0195710D01*
X0489984Y0194711D02*
X0497506Y0194711D01*
X0497506Y0193713D02*
X0488985Y0193713D01*
X0487987Y0192714D02*
X0497506Y0192714D01*
X0497506Y0191716D02*
X0486988Y0191716D01*
X0485990Y0190717D02*
X0497506Y0190717D01*
X0497506Y0189719D02*
X0484991Y0189719D01*
X0483993Y0188720D02*
X0498581Y0188720D01*
X0498581Y0187722D02*
X0482994Y0187722D01*
X0481996Y0186723D02*
X0497572Y0186723D01*
X0497506Y0185725D02*
X0480997Y0185725D01*
X0479999Y0184726D02*
X0497506Y0184726D01*
X0497506Y0183728D02*
X0479000Y0183728D01*
X0478002Y0182729D02*
X0497506Y0182729D01*
X0497506Y0181731D02*
X0477003Y0181731D01*
X0476005Y0180732D02*
X0497629Y0180732D01*
X0498581Y0179734D02*
X0475006Y0179734D01*
X0474008Y0178735D02*
X0494348Y0178735D01*
X0498412Y0174268D02*
X0481444Y0174268D01*
X0481444Y0172496D01*
X0485197Y0166753D02*
X0509287Y0166753D01*
X0509414Y0164756D02*
X0524377Y0164756D01*
X0524377Y0164119D02*
X0523021Y0164119D01*
X0521441Y0163464D01*
X0520231Y0162255D01*
X0519577Y0160674D01*
X0519577Y0158964D01*
X0520231Y0157383D01*
X0521441Y0156174D01*
X0523021Y0155519D01*
X0530732Y0155519D01*
X0532312Y0156174D01*
X0533522Y0157383D01*
X0534177Y0158964D01*
X0534177Y0160674D01*
X0533522Y0162255D01*
X0532312Y0163464D01*
X0530732Y0164119D01*
X0529377Y0164119D01*
X0529377Y0165519D01*
X0530732Y0165519D01*
X0532312Y0166174D01*
X0533522Y0167383D01*
X0534177Y0168964D01*
X0534177Y0170674D01*
X0533522Y0172255D01*
X0532312Y0173464D01*
X0530732Y0174119D01*
X0529377Y0174119D01*
X0529377Y0175519D01*
X0530732Y0175519D01*
X0532312Y0176174D01*
X0533522Y0177383D01*
X0534177Y0178964D01*
X0534177Y0180674D01*
X0533522Y0182255D01*
X0532312Y0183464D01*
X0530732Y0184119D01*
X0523021Y0184119D01*
X0521441Y0183464D01*
X0520231Y0182255D01*
X0519577Y0180674D01*
X0519577Y0178964D01*
X0520231Y0177383D01*
X0521441Y0176174D01*
X0523021Y0175519D01*
X0524377Y0175519D01*
X0524377Y0174119D01*
X0523021Y0174119D01*
X0521441Y0173464D01*
X0520231Y0172255D01*
X0519577Y0170674D01*
X0519577Y0168964D01*
X0520231Y0167383D01*
X0521441Y0166174D01*
X0523021Y0165519D01*
X0524377Y0165519D01*
X0524377Y0164119D01*
X0522148Y0163757D02*
X0511074Y0163757D01*
X0519358Y0162759D02*
X0520735Y0162759D01*
X0520027Y0161760D02*
X0519358Y0161760D01*
X0519358Y0160762D02*
X0519613Y0160762D01*
X0519577Y0159763D02*
X0519358Y0159763D01*
X0519358Y0158765D02*
X0519659Y0158765D01*
X0520073Y0157766D02*
X0513452Y0157766D01*
X0513452Y0156768D02*
X0520847Y0156768D01*
X0522417Y0155769D02*
X0513452Y0155769D01*
X0513452Y0154771D02*
X0540173Y0154771D01*
X0540171Y0155769D02*
X0531336Y0155769D01*
X0532907Y0156768D02*
X0540170Y0156768D01*
X0540168Y0157766D02*
X0533681Y0157766D01*
X0534094Y0158765D02*
X0540167Y0158765D01*
X0540165Y0159763D02*
X0534177Y0159763D01*
X0534140Y0160762D02*
X0540163Y0160762D01*
X0540162Y0161760D02*
X0533727Y0161760D01*
X0533018Y0162759D02*
X0540160Y0162759D01*
X0540159Y0163757D02*
X0531605Y0163757D01*
X0531300Y0165754D02*
X0540156Y0165754D01*
X0540157Y0164756D02*
X0529377Y0164756D01*
X0532892Y0166753D02*
X0540154Y0166753D01*
X0540153Y0167751D02*
X0533675Y0167751D01*
X0534088Y0168750D02*
X0540151Y0168750D01*
X0540150Y0169748D02*
X0534177Y0169748D01*
X0534147Y0170747D02*
X0540148Y0170747D01*
X0540147Y0171745D02*
X0533733Y0171745D01*
X0533033Y0172744D02*
X0540145Y0172744D01*
X0540144Y0173742D02*
X0531641Y0173742D01*
X0531264Y0175739D02*
X0540141Y0175739D01*
X0540142Y0174741D02*
X0529377Y0174741D01*
X0532877Y0176738D02*
X0540139Y0176738D01*
X0540137Y0177737D02*
X0533668Y0177737D01*
X0534082Y0178735D02*
X0540136Y0178735D01*
X0540134Y0179734D02*
X0534177Y0179734D01*
X0534153Y0180732D02*
X0540133Y0180732D01*
X0540131Y0181731D02*
X0533739Y0181731D01*
X0533048Y0182729D02*
X0540130Y0182729D01*
X0540128Y0183728D02*
X0531677Y0183728D01*
X0530732Y0185519D02*
X0523021Y0185519D01*
X0521441Y0186174D01*
X0520231Y0187383D01*
X0519577Y0188964D01*
X0519577Y0190674D01*
X0520231Y0192255D01*
X0521441Y0193464D01*
X0523021Y0194119D01*
X0530732Y0194119D01*
X0532312Y0193464D01*
X0533522Y0192255D01*
X0534177Y0190674D01*
X0534177Y0188964D01*
X0533522Y0187383D01*
X0532312Y0186174D01*
X0530732Y0185519D01*
X0531229Y0185725D02*
X0540125Y0185725D01*
X0540124Y0186723D02*
X0532862Y0186723D01*
X0533662Y0187722D02*
X0540122Y0187722D01*
X0540121Y0188720D02*
X0534076Y0188720D01*
X0534177Y0189719D02*
X0540119Y0189719D01*
X0540118Y0190717D02*
X0534159Y0190717D01*
X0533745Y0191716D02*
X0540116Y0191716D01*
X0540115Y0192714D02*
X0533062Y0192714D01*
X0531713Y0193713D02*
X0540113Y0193713D01*
X0540111Y0194711D02*
X0510342Y0194711D01*
X0510342Y0193713D02*
X0522041Y0193713D01*
X0520691Y0192714D02*
X0510342Y0192714D01*
X0510342Y0191716D02*
X0520008Y0191716D01*
X0519594Y0190717D02*
X0510342Y0190717D01*
X0510342Y0189719D02*
X0519577Y0189719D01*
X0519677Y0188720D02*
X0509267Y0188720D01*
X0509267Y0187722D02*
X0520091Y0187722D01*
X0520891Y0186723D02*
X0510275Y0186723D01*
X0510342Y0185725D02*
X0522525Y0185725D01*
X0522077Y0183728D02*
X0510342Y0183728D01*
X0510342Y0184726D02*
X0540127Y0184726D01*
X0524377Y0174741D02*
X0513885Y0174741D01*
X0513885Y0175739D02*
X0522489Y0175739D01*
X0520876Y0176738D02*
X0513885Y0176738D01*
X0513885Y0177737D02*
X0520085Y0177737D01*
X0519671Y0178735D02*
X0513500Y0178735D01*
X0510219Y0180732D02*
X0519601Y0180732D01*
X0519577Y0179734D02*
X0509267Y0179734D01*
X0510342Y0181731D02*
X0520014Y0181731D01*
X0520706Y0182729D02*
X0510342Y0182729D01*
X0504592Y0182729D02*
X0503255Y0182729D01*
X0503255Y0181731D02*
X0504592Y0181731D01*
X0504716Y0180732D02*
X0503132Y0180732D01*
X0502181Y0179734D02*
X0505667Y0179734D01*
X0505372Y0178735D02*
X0502476Y0178735D01*
X0502862Y0177737D02*
X0504986Y0177737D01*
X0504986Y0176738D02*
X0502862Y0176738D01*
X0502862Y0175739D02*
X0504986Y0175739D01*
X0504986Y0174741D02*
X0502862Y0174741D01*
X0502862Y0173742D02*
X0504986Y0173742D01*
X0504986Y0172744D02*
X0502862Y0172744D01*
X0502862Y0171745D02*
X0504986Y0171745D01*
X0504986Y0170747D02*
X0502862Y0170747D01*
X0502424Y0169748D02*
X0505424Y0169748D01*
X0511706Y0169424D02*
X0512033Y0169424D01*
X0512033Y0169098D01*
X0511706Y0169424D01*
X0513885Y0171745D02*
X0520020Y0171745D01*
X0519607Y0170747D02*
X0518653Y0170747D01*
X0519358Y0169748D02*
X0519577Y0169748D01*
X0519665Y0168750D02*
X0519358Y0168750D01*
X0519358Y0167751D02*
X0520079Y0167751D01*
X0519358Y0166753D02*
X0520862Y0166753D01*
X0519296Y0165754D02*
X0522453Y0165754D01*
X0520721Y0172744D02*
X0513885Y0172744D01*
X0513885Y0173742D02*
X0522113Y0173742D01*
X0500381Y0174268D02*
X0498412Y0174268D01*
X0500381Y0174268D02*
X0500381Y0183756D01*
X0500381Y0192457D01*
X0500381Y0195843D01*
X0502388Y0198244D01*
X0504570Y0200702D02*
X0506553Y0200702D01*
X0505667Y0199704D02*
X0505335Y0199704D01*
X0507467Y0199071D02*
X0507467Y0198638D01*
X0508381Y0200702D02*
X0509262Y0200702D01*
X0513016Y0201701D02*
X0513038Y0201701D01*
X0514413Y0200702D02*
X0519588Y0200702D01*
X0519577Y0199704D02*
X0514947Y0199704D01*
X0515118Y0198705D02*
X0519684Y0198705D01*
X0520097Y0197707D02*
X0515003Y0197707D01*
X0514548Y0196708D02*
X0520906Y0196708D01*
X0522561Y0195710D02*
X0513342Y0195710D01*
X0510332Y0195710D02*
X0509990Y0195710D01*
X0505667Y0196708D02*
X0505304Y0196708D01*
X0504945Y0195710D02*
X0504494Y0195710D01*
X0504592Y0194711D02*
X0503255Y0194711D01*
X0503255Y0193713D02*
X0504592Y0193713D01*
X0504592Y0192714D02*
X0503255Y0192714D01*
X0503255Y0191716D02*
X0504592Y0191716D01*
X0504592Y0190717D02*
X0503255Y0190717D01*
X0503255Y0189719D02*
X0504592Y0189719D01*
X0505667Y0188720D02*
X0502181Y0188720D01*
X0502181Y0187722D02*
X0505667Y0187722D01*
X0504659Y0186723D02*
X0503189Y0186723D01*
X0503255Y0185725D02*
X0504592Y0185725D01*
X0504592Y0184726D02*
X0503255Y0184726D01*
X0503255Y0183728D02*
X0504592Y0183728D01*
X0483894Y0193713D02*
X0483080Y0193713D01*
X0482896Y0192714D02*
X0482081Y0192714D01*
X0481897Y0191716D02*
X0481083Y0191716D01*
X0480899Y0190717D02*
X0480084Y0190717D01*
X0479900Y0189719D02*
X0479086Y0189719D01*
X0478902Y0188720D02*
X0478087Y0188720D01*
X0477903Y0187722D02*
X0477089Y0187722D01*
X0476905Y0186723D02*
X0476090Y0186723D01*
X0475906Y0185725D02*
X0475092Y0185725D01*
X0474908Y0184726D02*
X0474093Y0184726D01*
X0473909Y0183728D02*
X0473095Y0183728D01*
X0472911Y0182729D02*
X0472096Y0182729D01*
X0471695Y0182328D02*
X0499984Y0210617D01*
X0505025Y0210617D01*
X0505025Y0209517D01*
X0505767Y0208776D01*
X0505222Y0208231D01*
X0505222Y0207131D01*
X0497312Y0207131D01*
X0496258Y0206076D01*
X0472509Y0182328D01*
X0471695Y0182328D01*
X0469002Y0184726D02*
X0444172Y0184726D01*
X0445170Y0185725D02*
X0470001Y0185725D01*
X0470999Y0186723D02*
X0446169Y0186723D01*
X0447167Y0187722D02*
X0471998Y0187722D01*
X0472996Y0188720D02*
X0448166Y0188720D01*
X0447664Y0190764D02*
X0449239Y0190764D01*
X0478097Y0219622D01*
X0478097Y0227969D01*
X0477034Y0229031D01*
X0477034Y0238402D01*
X0479909Y0238646D02*
X0519708Y0238646D01*
X0519577Y0238964D02*
X0520231Y0237383D01*
X0521441Y0236174D01*
X0523021Y0235519D01*
X0530732Y0235519D01*
X0532312Y0236174D01*
X0533522Y0237383D01*
X0534177Y0238964D01*
X0534177Y0240674D01*
X0533522Y0242255D01*
X0532312Y0243464D01*
X0530732Y0244119D01*
X0523021Y0244119D01*
X0521441Y0243464D01*
X0520231Y0242255D01*
X0519577Y0240674D01*
X0519577Y0238964D01*
X0519577Y0239644D02*
X0479909Y0239644D01*
X0479909Y0240643D02*
X0519577Y0240643D01*
X0519977Y0241641D02*
X0479570Y0241641D01*
X0479909Y0237647D02*
X0520122Y0237647D01*
X0520966Y0236649D02*
X0479909Y0236649D01*
X0479909Y0235650D02*
X0522704Y0235650D01*
X0523021Y0234119D02*
X0521441Y0233464D01*
X0520231Y0232255D01*
X0519577Y0230674D01*
X0519577Y0228964D01*
X0520231Y0227383D01*
X0521441Y0226174D01*
X0523021Y0225519D01*
X0530732Y0225519D01*
X0532312Y0226174D01*
X0533522Y0227383D01*
X0534177Y0228964D01*
X0534177Y0230674D01*
X0533522Y0232255D01*
X0532312Y0233464D01*
X0530732Y0234119D01*
X0523021Y0234119D01*
X0521897Y0233653D02*
X0478834Y0233653D01*
X0478834Y0232655D02*
X0520631Y0232655D01*
X0519983Y0231656D02*
X0478834Y0231656D01*
X0478834Y0234652D02*
X0540050Y0234652D01*
X0540049Y0235650D02*
X0531049Y0235650D01*
X0532788Y0236649D02*
X0540047Y0236649D01*
X0540046Y0237647D02*
X0533631Y0237647D01*
X0534045Y0238646D02*
X0540044Y0238646D01*
X0540043Y0239644D02*
X0534177Y0239644D01*
X0534177Y0240643D02*
X0540041Y0240643D01*
X0540040Y0241641D02*
X0533776Y0241641D01*
X0533137Y0242640D02*
X0540038Y0242640D01*
X0540037Y0243638D02*
X0531892Y0243638D01*
X0531013Y0245635D02*
X0540033Y0245635D01*
X0540035Y0244637D02*
X0395968Y0244637D01*
X0395960Y0245635D02*
X0522740Y0245635D01*
X0520981Y0246634D02*
X0395953Y0246634D01*
X0395945Y0247632D02*
X0520128Y0247632D01*
X0519714Y0248631D02*
X0395937Y0248631D01*
X0395930Y0249629D02*
X0519577Y0249629D01*
X0519577Y0250628D02*
X0395922Y0250628D01*
X0395914Y0251626D02*
X0519971Y0251626D01*
X0520601Y0252625D02*
X0395907Y0252625D01*
X0395976Y0243638D02*
X0521861Y0243638D01*
X0520616Y0242640D02*
X0395983Y0242640D01*
X0395991Y0241641D02*
X0443992Y0241641D01*
X0442909Y0240643D02*
X0395999Y0240643D01*
X0396006Y0239644D02*
X0425101Y0239644D01*
X0424103Y0238646D02*
X0396014Y0238646D01*
X0396021Y0237647D02*
X0423104Y0237647D01*
X0422106Y0236649D02*
X0396029Y0236649D01*
X0396037Y0235650D02*
X0421107Y0235650D01*
X0420109Y0234652D02*
X0396044Y0234652D01*
X0396052Y0233653D02*
X0419110Y0233653D01*
X0418112Y0232655D02*
X0396060Y0232655D01*
X0396067Y0231656D02*
X0417113Y0231656D01*
X0416115Y0230658D02*
X0396075Y0230658D01*
X0396083Y0229659D02*
X0415116Y0229659D01*
X0414118Y0228661D02*
X0396090Y0228661D01*
X0396098Y0227662D02*
X0413119Y0227662D01*
X0412121Y0226664D02*
X0396106Y0226664D01*
X0396113Y0225665D02*
X0411122Y0225665D01*
X0410124Y0224667D02*
X0396121Y0224667D01*
X0396128Y0223668D02*
X0409125Y0223668D01*
X0408127Y0222670D02*
X0396136Y0222670D01*
X0396144Y0221671D02*
X0407128Y0221671D01*
X0406140Y0220672D02*
X0396151Y0220672D01*
X0396159Y0219674D02*
X0406140Y0219674D01*
X0405321Y0218675D02*
X0396167Y0218675D01*
X0396174Y0217677D02*
X0404323Y0217677D01*
X0403640Y0216678D02*
X0396182Y0216678D01*
X0396190Y0215680D02*
X0403640Y0215680D01*
X0403640Y0214681D02*
X0396197Y0214681D01*
X0396205Y0213683D02*
X0403640Y0213683D01*
X0404387Y0212684D02*
X0400069Y0212684D01*
X0396258Y0207249D02*
X0396258Y0206786D01*
X0396254Y0207251D01*
X0396258Y0207249D01*
X0396312Y0199704D02*
X0400389Y0199704D01*
X0399517Y0198705D02*
X0396320Y0198705D01*
X0396327Y0197707D02*
X0399107Y0197707D01*
X0399107Y0196708D02*
X0396335Y0196708D01*
X0396343Y0195710D02*
X0399398Y0195710D01*
X0403176Y0189583D02*
X0403570Y0164386D01*
X0406325Y0161630D01*
X0409607Y0161760D02*
X0423989Y0161760D01*
X0422991Y0160762D02*
X0409517Y0160762D01*
X0409099Y0159763D02*
X0421992Y0159763D01*
X0420993Y0158765D02*
X0407982Y0158765D01*
X0409409Y0162759D02*
X0424988Y0162759D01*
X0425986Y0163757D02*
X0408838Y0163757D01*
X0407353Y0164756D02*
X0426985Y0164756D01*
X0427983Y0165754D02*
X0405348Y0165754D01*
X0405333Y0166753D02*
X0428635Y0166753D01*
X0428635Y0167751D02*
X0405317Y0167751D01*
X0405302Y0168750D02*
X0429031Y0168750D01*
X0429883Y0169748D02*
X0405286Y0169748D01*
X0405177Y0176738D02*
X0419173Y0176738D01*
X0417862Y0177737D02*
X0405161Y0177737D01*
X0405146Y0178735D02*
X0417364Y0178735D01*
X0417218Y0179734D02*
X0405130Y0179734D01*
X0405114Y0180732D02*
X0416858Y0180732D01*
X0415814Y0181731D02*
X0405099Y0181731D01*
X0405083Y0182729D02*
X0414770Y0182729D01*
X0413726Y0183728D02*
X0405068Y0183728D01*
X0405052Y0184726D02*
X0412682Y0184726D01*
X0411638Y0185725D02*
X0405036Y0185725D01*
X0405021Y0186723D02*
X0410594Y0186723D01*
X0409550Y0187722D02*
X0405955Y0187722D01*
X0406370Y0188720D02*
X0408506Y0188720D01*
X0407463Y0189719D02*
X0406457Y0189719D01*
X0406419Y0190717D02*
X0406257Y0190717D01*
X0413997Y0201701D02*
X0415370Y0201701D01*
X0414372Y0202699D02*
X0412999Y0202699D01*
X0413640Y0203698D02*
X0412000Y0203698D01*
X0412240Y0204696D02*
X0413640Y0204696D01*
X0413640Y0205695D02*
X0412240Y0205695D01*
X0411981Y0206693D02*
X0413640Y0206693D01*
X0414338Y0207692D02*
X0411541Y0207692D01*
X0421493Y0212684D02*
X0422866Y0212684D01*
X0422240Y0213683D02*
X0423640Y0213683D01*
X0423640Y0214681D02*
X0422240Y0214681D01*
X0422240Y0215680D02*
X0423640Y0215680D01*
X0423640Y0216678D02*
X0422240Y0216678D01*
X0421556Y0217677D02*
X0424323Y0217677D01*
X0425321Y0218675D02*
X0420558Y0218675D01*
X0432219Y0221671D02*
X0447789Y0221671D01*
X0446551Y0222670D02*
X0433218Y0222670D01*
X0434216Y0223668D02*
X0446083Y0223668D01*
X0445958Y0224667D02*
X0435215Y0224667D01*
X0436213Y0225665D02*
X0446119Y0225665D01*
X0446640Y0226664D02*
X0437212Y0226664D01*
X0438210Y0227662D02*
X0448004Y0227662D01*
X0448040Y0228661D02*
X0439209Y0228661D01*
X0449239Y0224622D02*
X0456207Y0224622D01*
X0456325Y0224504D01*
X0469160Y0224504D01*
X0469436Y0224228D01*
X0469436Y0217260D01*
X0468924Y0216748D01*
X0472205Y0216678D02*
X0472608Y0216678D01*
X0472091Y0217677D02*
X0473606Y0217677D01*
X0474605Y0218675D02*
X0471637Y0218675D01*
X0471236Y0219674D02*
X0475603Y0219674D01*
X0476297Y0220672D02*
X0471236Y0220672D01*
X0473441Y0221671D02*
X0476297Y0221671D01*
X0476297Y0222670D02*
X0473492Y0222670D01*
X0473492Y0223668D02*
X0476297Y0223668D01*
X0476297Y0224667D02*
X0473492Y0224667D01*
X0473492Y0225665D02*
X0474041Y0225665D01*
X0474041Y0226664D02*
X0473492Y0226664D01*
X0479897Y0224667D02*
X0540066Y0224667D01*
X0540064Y0225665D02*
X0531085Y0225665D01*
X0532802Y0226664D02*
X0540063Y0226664D01*
X0540061Y0227662D02*
X0533638Y0227662D01*
X0534051Y0228661D02*
X0540059Y0228661D01*
X0540058Y0229659D02*
X0534177Y0229659D01*
X0534177Y0230658D02*
X0540056Y0230658D01*
X0540055Y0231656D02*
X0533770Y0231656D01*
X0533122Y0232655D02*
X0540053Y0232655D01*
X0540052Y0233653D02*
X0531856Y0233653D01*
X0519577Y0230658D02*
X0481971Y0230658D01*
X0482153Y0229659D02*
X0519577Y0229659D01*
X0519702Y0228661D02*
X0482153Y0228661D01*
X0482153Y0227662D02*
X0520116Y0227662D01*
X0520951Y0226664D02*
X0482153Y0226664D01*
X0482153Y0225665D02*
X0522668Y0225665D01*
X0521933Y0223668D02*
X0479897Y0223668D01*
X0479897Y0222670D02*
X0520646Y0222670D01*
X0519990Y0221671D02*
X0479897Y0221671D01*
X0479897Y0220672D02*
X0488293Y0220672D01*
X0488425Y0220804D02*
X0487663Y0220042D01*
X0487663Y0218548D01*
X0486297Y0218548D01*
X0486272Y0218607D01*
X0485349Y0219530D01*
X0484143Y0220029D01*
X0482838Y0220029D01*
X0481632Y0219530D01*
X0480709Y0218607D01*
X0480210Y0217401D01*
X0480210Y0216095D01*
X0480709Y0214889D01*
X0481632Y0213966D01*
X0482838Y0213467D01*
X0484143Y0213467D01*
X0485349Y0213966D01*
X0486272Y0214889D01*
X0486297Y0214948D01*
X0487663Y0214948D01*
X0487663Y0214241D01*
X0488425Y0213480D01*
X0492651Y0213480D01*
X0493413Y0214241D01*
X0493413Y0220042D01*
X0492651Y0220804D01*
X0488425Y0220804D01*
X0487663Y0219674D02*
X0485001Y0219674D01*
X0486204Y0218675D02*
X0487663Y0218675D01*
X0490144Y0216748D02*
X0483491Y0216748D01*
X0480210Y0216678D02*
X0477699Y0216678D01*
X0476701Y0215680D02*
X0480382Y0215680D01*
X0480917Y0214681D02*
X0475702Y0214681D01*
X0474704Y0213683D02*
X0482317Y0213683D01*
X0484665Y0213683D02*
X0488221Y0213683D01*
X0487663Y0214681D02*
X0486064Y0214681D01*
X0490144Y0216748D02*
X0490538Y0217142D01*
X0493413Y0216678D02*
X0494750Y0216678D01*
X0494750Y0215680D02*
X0493413Y0215680D01*
X0493413Y0214681D02*
X0494750Y0214681D01*
X0495308Y0213683D02*
X0492855Y0213683D01*
X0495962Y0211686D02*
X0472707Y0211686D01*
X0473705Y0212684D02*
X0496960Y0212684D01*
X0494963Y0210687D02*
X0471708Y0210687D01*
X0470710Y0209689D02*
X0493965Y0209689D01*
X0492966Y0208690D02*
X0469711Y0208690D01*
X0468712Y0207692D02*
X0491968Y0207692D01*
X0490969Y0206693D02*
X0467714Y0206693D01*
X0466715Y0205695D02*
X0489971Y0205695D01*
X0488972Y0204696D02*
X0465717Y0204696D01*
X0464718Y0203698D02*
X0487974Y0203698D01*
X0486975Y0202699D02*
X0463720Y0202699D01*
X0462721Y0201701D02*
X0485977Y0201701D01*
X0484978Y0200702D02*
X0461723Y0200702D01*
X0460724Y0199704D02*
X0483980Y0199704D01*
X0482981Y0198705D02*
X0459726Y0198705D01*
X0458727Y0197707D02*
X0481983Y0197707D01*
X0480984Y0196708D02*
X0457729Y0196708D01*
X0456730Y0195710D02*
X0479986Y0195710D01*
X0478987Y0194711D02*
X0455732Y0194711D01*
X0454733Y0193713D02*
X0477989Y0193713D01*
X0476990Y0192714D02*
X0453735Y0192714D01*
X0452736Y0191716D02*
X0475992Y0191716D01*
X0474993Y0190717D02*
X0451738Y0190717D01*
X0450739Y0189719D02*
X0473995Y0189719D01*
X0484078Y0194711D02*
X0484893Y0194711D01*
X0485077Y0195710D02*
X0485891Y0195710D01*
X0486075Y0196708D02*
X0486890Y0196708D01*
X0487074Y0197707D02*
X0487888Y0197707D01*
X0488072Y0198705D02*
X0488887Y0198705D01*
X0489071Y0199704D02*
X0489885Y0199704D01*
X0490069Y0200702D02*
X0490884Y0200702D01*
X0491068Y0201701D02*
X0491882Y0201701D01*
X0492066Y0202699D02*
X0492881Y0202699D01*
X0493065Y0203698D02*
X0493879Y0203698D01*
X0494063Y0204696D02*
X0494878Y0204696D01*
X0495062Y0205695D02*
X0495876Y0205695D01*
X0496060Y0206693D02*
X0496875Y0206693D01*
X0497059Y0207692D02*
X0505222Y0207692D01*
X0505681Y0208690D02*
X0498057Y0208690D01*
X0499056Y0209689D02*
X0505025Y0209689D01*
X0505025Y0214681D02*
X0500499Y0214681D01*
X0501504Y0215680D02*
X0505387Y0215680D01*
X0503501Y0217677D02*
X0520110Y0217677D01*
X0520936Y0216678D02*
X0502502Y0216678D01*
X0500420Y0217142D02*
X0497625Y0217142D01*
X0500420Y0217142D02*
X0503097Y0219819D01*
X0526877Y0219819D01*
X0531820Y0223668D02*
X0540067Y0223668D01*
X0540069Y0222670D02*
X0533107Y0222670D01*
X0533764Y0221671D02*
X0540070Y0221671D01*
X0540072Y0220672D02*
X0534177Y0220672D01*
X0534177Y0219674D02*
X0540073Y0219674D01*
X0540075Y0218675D02*
X0534057Y0218675D01*
X0533644Y0217677D02*
X0540076Y0217677D01*
X0540078Y0216678D02*
X0532817Y0216678D01*
X0531121Y0215680D02*
X0540079Y0215680D01*
X0540081Y0214681D02*
X0517862Y0214681D01*
X0517500Y0215680D02*
X0522633Y0215680D01*
X0524278Y0212417D02*
X0514987Y0212417D01*
X0517862Y0210617D02*
X0519577Y0210617D01*
X0519577Y0208964D01*
X0520231Y0207383D01*
X0520484Y0207131D01*
X0520408Y0207131D01*
X0520307Y0207209D01*
X0519678Y0207131D01*
X0518059Y0207131D01*
X0518059Y0208231D01*
X0517317Y0208972D01*
X0517862Y0209517D01*
X0517862Y0210617D01*
X0517862Y0209689D02*
X0519577Y0209689D01*
X0519690Y0208690D02*
X0517600Y0208690D01*
X0518059Y0207692D02*
X0520103Y0207692D01*
X0519790Y0205331D02*
X0526877Y0199819D01*
X0523538Y0204696D02*
X0540096Y0204696D01*
X0540098Y0203698D02*
X0531749Y0203698D01*
X0533077Y0202699D02*
X0540099Y0202699D01*
X0540101Y0201701D02*
X0533751Y0201701D01*
X0534165Y0200702D02*
X0540102Y0200702D01*
X0540104Y0199704D02*
X0534177Y0199704D01*
X0534070Y0198705D02*
X0540105Y0198705D01*
X0540107Y0197707D02*
X0533656Y0197707D01*
X0532847Y0196708D02*
X0540108Y0196708D01*
X0540110Y0195710D02*
X0531193Y0195710D01*
X0520002Y0201701D02*
X0517329Y0201701D01*
X0518059Y0202699D02*
X0520241Y0202699D01*
X0519790Y0205331D02*
X0515184Y0205331D01*
X0522254Y0205695D02*
X0522597Y0205695D01*
X0526877Y0209819D02*
X0524278Y0212417D01*
X0531784Y0213683D02*
X0540082Y0213683D01*
X0540084Y0212684D02*
X0533092Y0212684D01*
X0533758Y0211686D02*
X0540085Y0211686D01*
X0540087Y0210687D02*
X0534171Y0210687D01*
X0534177Y0209689D02*
X0540089Y0209689D01*
X0540090Y0208690D02*
X0534063Y0208690D01*
X0533650Y0207692D02*
X0540092Y0207692D01*
X0540093Y0206693D02*
X0532832Y0206693D01*
X0531157Y0205695D02*
X0540095Y0205695D01*
X0505222Y0202699D02*
X0497972Y0202699D01*
X0494750Y0217677D02*
X0493413Y0217677D01*
X0493413Y0218675D02*
X0494750Y0218675D01*
X0494750Y0219674D02*
X0493413Y0219674D01*
X0492783Y0220672D02*
X0495380Y0220672D01*
X0499869Y0220672D02*
X0501405Y0220672D01*
X0481981Y0219674D02*
X0479897Y0219674D01*
X0479696Y0218675D02*
X0480778Y0218675D01*
X0480324Y0217677D02*
X0478698Y0217677D01*
X0453383Y0221671D02*
X0450688Y0221671D01*
X0451926Y0222670D02*
X0452663Y0222670D01*
X0446089Y0238402D02*
X0445696Y0238795D01*
X0447399Y0241641D02*
X0467412Y0241641D01*
X0467073Y0240643D02*
X0448482Y0240643D01*
X0532773Y0246634D02*
X0540032Y0246634D01*
X0540030Y0247632D02*
X0533625Y0247632D01*
X0534039Y0248631D02*
X0540029Y0248631D01*
X0540027Y0249629D02*
X0534177Y0249629D01*
X0534177Y0250628D02*
X0540026Y0250628D01*
X0540024Y0251626D02*
X0533782Y0251626D01*
X0533152Y0252625D02*
X0540023Y0252625D01*
X0444885Y0177737D02*
X0443875Y0177737D01*
X0444317Y0176738D02*
X0442877Y0176738D01*
X0442771Y0175739D02*
X0444317Y0175739D01*
X0444317Y0174741D02*
X0442771Y0174741D01*
X0442771Y0173742D02*
X0444317Y0173742D01*
X0444317Y0172744D02*
X0442771Y0172744D01*
X0442771Y0171745D02*
X0444317Y0171745D01*
X0444317Y0170747D02*
X0442771Y0170747D01*
X0442771Y0169748D02*
X0444317Y0169748D01*
X0444317Y0168750D02*
X0442771Y0168750D01*
X0442771Y0167751D02*
X0444317Y0167751D01*
X0444317Y0166753D02*
X0442771Y0166753D01*
X0442771Y0165754D02*
X0444317Y0165754D01*
X0444317Y0164756D02*
X0442771Y0164756D01*
X0442771Y0163757D02*
X0444317Y0163757D01*
X0444317Y0162759D02*
X0442771Y0162759D01*
X0442771Y0161760D02*
X0444317Y0161760D01*
X0444317Y0160762D02*
X0442771Y0160762D01*
X0442771Y0159763D02*
X0444317Y0159763D01*
X0444317Y0158765D02*
X0442771Y0158765D01*
X0442771Y0157766D02*
X0444317Y0157766D01*
X0444317Y0156768D02*
X0442771Y0156768D01*
X0442771Y0155769D02*
X0444317Y0155769D01*
X0444317Y0154771D02*
X0442771Y0154771D01*
X0442771Y0153772D02*
X0444317Y0153772D01*
X0444317Y0152774D02*
X0442771Y0152774D01*
X0442771Y0151775D02*
X0444317Y0151775D01*
X0444317Y0150777D02*
X0442771Y0150777D01*
X0442771Y0149778D02*
X0444317Y0149778D01*
X0442981Y0148780D02*
X0497778Y0148780D01*
X0497073Y0147781D02*
X0470090Y0147781D01*
X0470758Y0146783D02*
X0497073Y0146783D01*
X0497073Y0145784D02*
X0471024Y0145784D01*
X0471003Y0144786D02*
X0497073Y0144786D01*
X0497073Y0143787D02*
X0470590Y0143787D01*
X0469683Y0142789D02*
X0497073Y0142789D01*
X0497466Y0137796D02*
X0459543Y0137796D01*
X0458773Y0138795D02*
X0458604Y0138795D01*
X0456719Y0136039D02*
X0444514Y0136039D01*
X0444305Y0138795D02*
X0454834Y0138795D01*
X0458244Y0142957D02*
X0445260Y0142957D01*
X0444529Y0143688D01*
X0458940Y0143688D01*
X0458268Y0143016D01*
X0458244Y0142957D01*
X0465396Y0147781D02*
X0443980Y0147781D01*
X0439339Y0143787D02*
X0439312Y0143787D01*
X0438341Y0144786D02*
X0438314Y0144786D01*
X0440311Y0142789D02*
X0440338Y0142789D01*
X0441309Y0141790D02*
X0441336Y0141790D01*
X0442308Y0140792D02*
X0442335Y0140792D01*
X0443306Y0139793D02*
X0443333Y0139793D01*
X0432973Y0132803D02*
X0455957Y0132803D01*
X0457481Y0132803D02*
X0505628Y0132803D01*
X0505628Y0131805D02*
X0433972Y0131805D01*
X0434970Y0130806D02*
X0505628Y0130806D01*
X0505628Y0129808D02*
X0435969Y0129808D01*
X0436967Y0128809D02*
X0505628Y0128809D01*
X0509228Y0128809D02*
X0517911Y0128809D01*
X0517911Y0127811D02*
X0510533Y0127811D01*
X0511264Y0126812D02*
X0517388Y0126812D01*
X0517911Y0127336D02*
X0500234Y0109659D01*
X0500234Y0085371D01*
X0499133Y0085371D01*
X0498372Y0084609D01*
X0498372Y0080383D01*
X0499133Y0079621D01*
X0504935Y0079621D01*
X0505696Y0080383D01*
X0505696Y0084609D01*
X0504935Y0085371D01*
X0503834Y0085371D01*
X0503834Y0108168D01*
X0517378Y0121711D01*
X0516978Y0120747D01*
X0516978Y0119206D01*
X0517568Y0117781D01*
X0518658Y0116691D01*
X0520082Y0116102D01*
X0521624Y0116102D01*
X0523048Y0116691D01*
X0524138Y0117781D01*
X0524728Y0119206D01*
X0524728Y0120747D01*
X0524138Y0122171D01*
X0523048Y0123261D01*
X0521624Y0123851D01*
X0520082Y0123851D01*
X0519118Y0123452D01*
X0520457Y0124791D01*
X0521511Y0125845D01*
X0521511Y0140722D01*
X0521393Y0140840D01*
X0521418Y0140899D01*
X0521418Y0142204D01*
X0520918Y0143410D01*
X0519995Y0144333D01*
X0518789Y0144832D01*
X0517484Y0144832D01*
X0516278Y0144333D01*
X0515355Y0143410D01*
X0514855Y0142204D01*
X0514855Y0140899D01*
X0515355Y0139693D01*
X0516278Y0138770D01*
X0517484Y0138270D01*
X0517911Y0138270D01*
X0517911Y0127336D01*
X0519711Y0126591D02*
X0519711Y0139976D01*
X0518136Y0141551D01*
X0515098Y0142789D02*
X0509909Y0142789D01*
X0509909Y0143787D02*
X0515732Y0143787D01*
X0517371Y0144786D02*
X0509909Y0144786D01*
X0509909Y0145784D02*
X0540186Y0145784D01*
X0540188Y0144786D02*
X0518902Y0144786D01*
X0520541Y0143787D02*
X0540189Y0143787D01*
X0540191Y0142789D02*
X0521175Y0142789D01*
X0521418Y0141790D02*
X0540193Y0141790D01*
X0540194Y0140792D02*
X0521442Y0140792D01*
X0521511Y0139793D02*
X0540196Y0139793D01*
X0540197Y0138795D02*
X0521511Y0138795D01*
X0521511Y0137796D02*
X0540199Y0137796D01*
X0540200Y0136798D02*
X0521511Y0136798D01*
X0521511Y0135799D02*
X0540202Y0135799D01*
X0540203Y0134801D02*
X0521511Y0134801D01*
X0521511Y0133802D02*
X0540205Y0133802D01*
X0540206Y0132803D02*
X0521511Y0132803D01*
X0521511Y0131805D02*
X0540208Y0131805D01*
X0540209Y0130806D02*
X0521511Y0130806D01*
X0521511Y0129808D02*
X0540211Y0129808D01*
X0540212Y0128809D02*
X0521511Y0128809D01*
X0521511Y0127811D02*
X0540214Y0127811D01*
X0540215Y0126812D02*
X0521511Y0126812D01*
X0521480Y0125814D02*
X0540217Y0125814D01*
X0540219Y0124815D02*
X0520482Y0124815D01*
X0520000Y0123817D02*
X0519483Y0123817D01*
X0521707Y0123817D02*
X0540220Y0123817D01*
X0540222Y0122818D02*
X0523491Y0122818D01*
X0524283Y0121820D02*
X0540223Y0121820D01*
X0540225Y0120821D02*
X0524697Y0120821D01*
X0524728Y0119823D02*
X0540226Y0119823D01*
X0540228Y0118824D02*
X0524570Y0118824D01*
X0524156Y0117826D02*
X0540229Y0117826D01*
X0540231Y0116827D02*
X0523184Y0116827D01*
X0518522Y0116827D02*
X0512494Y0116827D01*
X0513492Y0117826D02*
X0517550Y0117826D01*
X0517136Y0118824D02*
X0514491Y0118824D01*
X0515489Y0119823D02*
X0516978Y0119823D01*
X0517009Y0120821D02*
X0516488Y0120821D01*
X0513394Y0122818D02*
X0510343Y0122818D01*
X0511186Y0123817D02*
X0514392Y0123817D01*
X0515391Y0124815D02*
X0511575Y0124815D01*
X0511575Y0125814D02*
X0516389Y0125814D01*
X0519711Y0126591D02*
X0502034Y0108913D01*
X0502034Y0082496D01*
X0498372Y0082878D02*
X0496708Y0082878D01*
X0496708Y0083876D02*
X0498372Y0083876D01*
X0498638Y0084875D02*
X0496708Y0084875D01*
X0496708Y0085873D02*
X0500234Y0085873D01*
X0500234Y0086872D02*
X0496708Y0086872D01*
X0496708Y0087870D02*
X0500234Y0087870D01*
X0500234Y0088869D02*
X0496708Y0088869D01*
X0496708Y0089868D02*
X0500234Y0089868D01*
X0500234Y0090866D02*
X0496708Y0090866D01*
X0496708Y0091865D02*
X0500234Y0091865D01*
X0500234Y0092863D02*
X0496708Y0092863D01*
X0496708Y0093862D02*
X0500234Y0093862D01*
X0500234Y0094860D02*
X0496708Y0094860D01*
X0496708Y0095859D02*
X0500234Y0095859D01*
X0500234Y0096857D02*
X0496708Y0096857D01*
X0496708Y0097856D02*
X0500234Y0097856D01*
X0500234Y0098854D02*
X0496708Y0098854D01*
X0496708Y0099853D02*
X0500234Y0099853D01*
X0500234Y0100851D02*
X0496708Y0100851D01*
X0496708Y0101850D02*
X0500234Y0101850D01*
X0500234Y0102848D02*
X0496708Y0102848D01*
X0496708Y0103847D02*
X0500234Y0103847D01*
X0500234Y0104845D02*
X0496708Y0104845D01*
X0496708Y0105844D02*
X0500234Y0105844D01*
X0500234Y0106842D02*
X0496708Y0106842D01*
X0496708Y0107841D02*
X0500234Y0107841D01*
X0500234Y0108839D02*
X0496708Y0108839D01*
X0496708Y0109838D02*
X0500413Y0109838D01*
X0501411Y0110836D02*
X0496708Y0110836D01*
X0496708Y0111835D02*
X0502410Y0111835D01*
X0503408Y0112833D02*
X0496708Y0112833D01*
X0496708Y0113832D02*
X0504407Y0113832D01*
X0505405Y0114830D02*
X0496708Y0114830D01*
X0496708Y0115829D02*
X0506404Y0115829D01*
X0507402Y0116827D02*
X0496708Y0116827D01*
X0496708Y0117826D02*
X0508401Y0117826D01*
X0509399Y0118824D02*
X0496708Y0118824D01*
X0497111Y0119823D02*
X0510398Y0119823D01*
X0511397Y0120821D02*
X0497864Y0120821D01*
X0498189Y0121820D02*
X0512395Y0121820D01*
X0506245Y0122818D02*
X0498189Y0122818D01*
X0497815Y0123817D02*
X0505402Y0123817D01*
X0509228Y0129808D02*
X0517911Y0129808D01*
X0517911Y0130806D02*
X0509228Y0130806D01*
X0509228Y0131805D02*
X0517911Y0131805D01*
X0517911Y0132803D02*
X0509228Y0132803D01*
X0510060Y0133802D02*
X0517911Y0133802D01*
X0517911Y0134801D02*
X0510303Y0134801D01*
X0510303Y0135799D02*
X0517911Y0135799D01*
X0517911Y0136798D02*
X0510303Y0136798D01*
X0510303Y0137796D02*
X0517911Y0137796D01*
X0516253Y0138795D02*
X0510303Y0138795D01*
X0510303Y0139793D02*
X0515313Y0139793D01*
X0514900Y0140792D02*
X0508834Y0140792D01*
X0509426Y0141790D02*
X0514855Y0141790D01*
X0509909Y0146783D02*
X0540185Y0146783D01*
X0540183Y0147781D02*
X0509909Y0147781D01*
X0509203Y0148780D02*
X0540182Y0148780D01*
X0540180Y0149778D02*
X0512730Y0149778D01*
X0513452Y0150777D02*
X0540179Y0150777D01*
X0540177Y0151775D02*
X0513452Y0151775D01*
X0513452Y0152774D02*
X0540176Y0152774D01*
X0540174Y0153772D02*
X0513452Y0153772D01*
X0454316Y0133802D02*
X0431975Y0133802D01*
X0420892Y0142339D02*
X0462113Y0101118D01*
X0462113Y0078520D01*
X0470459Y0078520D01*
X0470499Y0078480D01*
X0474161Y0078884D02*
X0478148Y0078884D01*
X0478148Y0079882D02*
X0474161Y0079882D01*
X0473874Y0080881D02*
X0478148Y0080881D01*
X0478148Y0081879D02*
X0463913Y0081879D01*
X0463913Y0082878D02*
X0478148Y0082878D01*
X0478148Y0083876D02*
X0463913Y0083876D01*
X0463913Y0084875D02*
X0478148Y0084875D01*
X0478148Y0085873D02*
X0463913Y0085873D01*
X0463913Y0086872D02*
X0478148Y0086872D01*
X0478148Y0087870D02*
X0463913Y0087870D01*
X0463913Y0088869D02*
X0478148Y0088869D01*
X0478148Y0089868D02*
X0463913Y0089868D01*
X0463913Y0090866D02*
X0478148Y0090866D01*
X0478148Y0091865D02*
X0463913Y0091865D01*
X0463913Y0092863D02*
X0478148Y0092863D01*
X0478148Y0093862D02*
X0463913Y0093862D01*
X0463913Y0094860D02*
X0478148Y0094860D01*
X0478148Y0095859D02*
X0463913Y0095859D01*
X0463913Y0096857D02*
X0478148Y0096857D01*
X0478148Y0097856D02*
X0463913Y0097856D01*
X0463913Y0098854D02*
X0478148Y0098854D01*
X0478148Y0099853D02*
X0463913Y0099853D01*
X0463913Y0100851D02*
X0478148Y0100851D01*
X0478148Y0101850D02*
X0463913Y0101850D01*
X0462928Y0102848D02*
X0478148Y0102848D01*
X0478148Y0103847D02*
X0461930Y0103847D01*
X0460931Y0104845D02*
X0478148Y0104845D01*
X0478148Y0105844D02*
X0459933Y0105844D01*
X0458934Y0106842D02*
X0478148Y0106842D01*
X0478148Y0107841D02*
X0457936Y0107841D01*
X0456937Y0108839D02*
X0478148Y0108839D01*
X0478148Y0109838D02*
X0455939Y0109838D01*
X0454940Y0110836D02*
X0478148Y0110836D01*
X0478148Y0111835D02*
X0453942Y0111835D01*
X0452943Y0112833D02*
X0478148Y0112833D01*
X0481747Y0112833D02*
X0493108Y0112833D01*
X0493108Y0111835D02*
X0481747Y0111835D01*
X0481747Y0110836D02*
X0493108Y0110836D01*
X0493108Y0109838D02*
X0481747Y0109838D01*
X0481747Y0108839D02*
X0493108Y0108839D01*
X0493108Y0107841D02*
X0481747Y0107841D01*
X0481747Y0106842D02*
X0493108Y0106842D01*
X0493108Y0105844D02*
X0481747Y0105844D01*
X0481747Y0104845D02*
X0493108Y0104845D01*
X0493108Y0103847D02*
X0481747Y0103847D01*
X0481747Y0102848D02*
X0493108Y0102848D01*
X0493108Y0101850D02*
X0481747Y0101850D01*
X0481747Y0100851D02*
X0493108Y0100851D01*
X0493108Y0099853D02*
X0481747Y0099853D01*
X0481747Y0098854D02*
X0493108Y0098854D01*
X0493108Y0097856D02*
X0481747Y0097856D01*
X0481747Y0096857D02*
X0493108Y0096857D01*
X0493108Y0095859D02*
X0481747Y0095859D01*
X0481747Y0094860D02*
X0493108Y0094860D01*
X0493108Y0093862D02*
X0481747Y0093862D01*
X0481747Y0092863D02*
X0493108Y0092863D01*
X0493108Y0091865D02*
X0481747Y0091865D01*
X0481747Y0090866D02*
X0493108Y0090866D01*
X0493108Y0089868D02*
X0481747Y0089868D01*
X0481747Y0088869D02*
X0493108Y0088869D01*
X0493108Y0087870D02*
X0481747Y0087870D01*
X0481747Y0086872D02*
X0493108Y0086872D01*
X0493108Y0085873D02*
X0481747Y0085873D01*
X0481747Y0084875D02*
X0493108Y0084875D01*
X0493108Y0083876D02*
X0481747Y0083876D01*
X0481747Y0082878D02*
X0493108Y0082878D01*
X0493108Y0081879D02*
X0481747Y0081879D01*
X0481747Y0080881D02*
X0493108Y0080881D01*
X0493108Y0079882D02*
X0481747Y0079882D01*
X0481747Y0078884D02*
X0493108Y0078884D01*
X0493108Y0077885D02*
X0481747Y0077885D01*
X0481747Y0076887D02*
X0493108Y0076887D01*
X0493108Y0075888D02*
X0481747Y0075888D01*
X0480792Y0074890D02*
X0493108Y0074890D01*
X0493108Y0073891D02*
X0479794Y0073891D01*
X0478795Y0072893D02*
X0493108Y0072893D01*
X0493108Y0071894D02*
X0477797Y0071894D01*
X0476798Y0070896D02*
X0493108Y0070896D01*
X0493108Y0069897D02*
X0475800Y0069897D01*
X0473779Y0068899D02*
X0493108Y0068899D01*
X0493108Y0067900D02*
X0465537Y0067900D01*
X0466169Y0068899D02*
X0467218Y0068899D01*
X0463913Y0066902D02*
X0493108Y0066902D01*
X0493916Y0065903D02*
X0463913Y0065903D01*
X0463913Y0064905D02*
X0494915Y0064905D01*
X0494163Y0065657D02*
X0494163Y0065657D01*
X0495913Y0063906D02*
X0463913Y0063906D01*
X0463913Y0062908D02*
X0496912Y0062908D01*
X0497910Y0061909D02*
X0463913Y0061909D01*
X0463913Y0060911D02*
X0498333Y0060911D01*
X0498333Y0059912D02*
X0463913Y0059912D01*
X0463913Y0058914D02*
X0498333Y0058914D01*
X0498674Y0057915D02*
X0463913Y0057915D01*
X0463567Y0056917D02*
X0508973Y0056917D01*
X0514240Y0055918D02*
X0522343Y0055918D01*
X0520816Y0056917D02*
X0515489Y0056917D01*
X0516129Y0057915D02*
X0520060Y0057915D01*
X0519646Y0058914D02*
X0516531Y0058914D01*
X0516531Y0059912D02*
X0519577Y0059912D01*
X0519626Y0060911D02*
X0516400Y0060911D01*
X0515987Y0061909D02*
X0520039Y0061909D01*
X0520766Y0062908D02*
X0515145Y0062908D01*
X0514516Y0063906D02*
X0522223Y0063906D01*
X0523021Y0065637D02*
X0521441Y0066292D01*
X0520231Y0067501D01*
X0519577Y0069082D01*
X0519577Y0070792D01*
X0520231Y0072373D01*
X0521441Y0073582D01*
X0523021Y0074237D01*
X0530732Y0074237D01*
X0532312Y0073582D01*
X0533522Y0072373D01*
X0534177Y0070792D01*
X0534177Y0069082D01*
X0533522Y0067501D01*
X0532312Y0066292D01*
X0530732Y0065637D01*
X0523021Y0065637D01*
X0522379Y0065903D02*
X0516177Y0065903D01*
X0516531Y0066902D02*
X0520831Y0066902D01*
X0520066Y0067900D02*
X0516531Y0067900D01*
X0516353Y0068899D02*
X0519652Y0068899D01*
X0519577Y0069897D02*
X0515940Y0069897D01*
X0515030Y0070896D02*
X0519620Y0070896D01*
X0520033Y0071894D02*
X0514718Y0071894D01*
X0515717Y0072893D02*
X0520751Y0072893D01*
X0522187Y0073891D02*
X0516224Y0073891D01*
X0516531Y0074890D02*
X0540295Y0074890D01*
X0540293Y0075888D02*
X0531339Y0075888D01*
X0530732Y0075637D02*
X0532312Y0076292D01*
X0533522Y0077501D01*
X0534177Y0079082D01*
X0534177Y0080792D01*
X0533522Y0082373D01*
X0532312Y0083582D01*
X0530732Y0084237D01*
X0523021Y0084237D01*
X0521441Y0083582D01*
X0520231Y0082373D01*
X0519577Y0080792D01*
X0519577Y0079082D01*
X0520231Y0077501D01*
X0521441Y0076292D01*
X0523021Y0075637D01*
X0530732Y0075637D01*
X0531566Y0073891D02*
X0540297Y0073891D01*
X0540298Y0072893D02*
X0533002Y0072893D01*
X0533720Y0071894D02*
X0540300Y0071894D01*
X0540301Y0070896D02*
X0534134Y0070896D01*
X0534177Y0069897D02*
X0540303Y0069897D01*
X0540304Y0068899D02*
X0534101Y0068899D01*
X0533687Y0067900D02*
X0540306Y0067900D01*
X0540307Y0066902D02*
X0532922Y0066902D01*
X0531375Y0065903D02*
X0540309Y0065903D01*
X0540310Y0064905D02*
X0515603Y0064905D01*
X0509946Y0063906D02*
X0501004Y0063906D01*
X0500006Y0064905D02*
X0508859Y0064905D01*
X0508285Y0065903D02*
X0499007Y0065903D01*
X0498009Y0066902D02*
X0507931Y0066902D01*
X0507931Y0067900D02*
X0497010Y0067900D01*
X0496708Y0068899D02*
X0508109Y0068899D01*
X0508522Y0069897D02*
X0496708Y0069897D01*
X0496708Y0070896D02*
X0509431Y0070896D01*
X0509744Y0071894D02*
X0496708Y0071894D01*
X0496708Y0072893D02*
X0498775Y0072893D01*
X0498372Y0073891D02*
X0496708Y0073891D01*
X0496708Y0074890D02*
X0498372Y0074890D01*
X0498372Y0075888D02*
X0496708Y0075888D01*
X0496708Y0076887D02*
X0498372Y0076887D01*
X0498735Y0077885D02*
X0496708Y0077885D01*
X0496708Y0078884D02*
X0509546Y0078884D01*
X0509630Y0079882D02*
X0505196Y0079882D01*
X0505696Y0080881D02*
X0508631Y0080881D01*
X0508191Y0081879D02*
X0505696Y0081879D01*
X0505696Y0082878D02*
X0507931Y0082878D01*
X0507931Y0083876D02*
X0505696Y0083876D01*
X0505431Y0084875D02*
X0508203Y0084875D01*
X0508661Y0085873D02*
X0503834Y0085873D01*
X0503834Y0086872D02*
X0509660Y0086872D01*
X0509516Y0087870D02*
X0503834Y0087870D01*
X0503834Y0088869D02*
X0508557Y0088869D01*
X0508144Y0089868D02*
X0503834Y0089868D01*
X0503834Y0090866D02*
X0507931Y0090866D01*
X0507931Y0091865D02*
X0503834Y0091865D01*
X0503834Y0092863D02*
X0508251Y0092863D01*
X0508775Y0093862D02*
X0503834Y0093862D01*
X0503834Y0094860D02*
X0509774Y0094860D01*
X0509402Y0095859D02*
X0503834Y0095859D01*
X0503834Y0096857D02*
X0508510Y0096857D01*
X0508096Y0097856D02*
X0503834Y0097856D01*
X0503834Y0098854D02*
X0507931Y0098854D01*
X0507931Y0099853D02*
X0503834Y0099853D01*
X0503834Y0100851D02*
X0508298Y0100851D01*
X0508889Y0101850D02*
X0503834Y0101850D01*
X0503834Y0102848D02*
X0510019Y0102848D01*
X0509287Y0103847D02*
X0503834Y0103847D01*
X0503834Y0104845D02*
X0508463Y0104845D01*
X0508049Y0105844D02*
X0503834Y0105844D01*
X0503834Y0106842D02*
X0507931Y0106842D01*
X0507931Y0107841D02*
X0503834Y0107841D01*
X0504506Y0108839D02*
X0508345Y0108839D01*
X0509003Y0109838D02*
X0505504Y0109838D01*
X0506503Y0110836D02*
X0510294Y0110836D01*
X0508500Y0112833D02*
X0540237Y0112833D01*
X0540238Y0111835D02*
X0507501Y0111835D01*
X0509498Y0113832D02*
X0540235Y0113832D01*
X0540234Y0114830D02*
X0510497Y0114830D01*
X0511495Y0115829D02*
X0540232Y0115829D01*
X0540240Y0110836D02*
X0514168Y0110836D01*
X0515459Y0109838D02*
X0540241Y0109838D01*
X0540243Y0108839D02*
X0516117Y0108839D01*
X0516530Y0107841D02*
X0540245Y0107841D01*
X0540246Y0106842D02*
X0516531Y0106842D01*
X0516413Y0105844D02*
X0540248Y0105844D01*
X0540249Y0104845D02*
X0515999Y0104845D01*
X0515174Y0103847D02*
X0522079Y0103847D01*
X0521441Y0103582D02*
X0520231Y0102373D01*
X0519577Y0100792D01*
X0519577Y0099082D01*
X0520231Y0097501D01*
X0521441Y0096292D01*
X0523021Y0095637D01*
X0530732Y0095637D01*
X0532312Y0096292D01*
X0533522Y0097501D01*
X0534177Y0099082D01*
X0534177Y0100792D01*
X0533522Y0102373D01*
X0532312Y0103582D01*
X0530732Y0104237D01*
X0523021Y0104237D01*
X0521441Y0103582D01*
X0520707Y0102848D02*
X0514443Y0102848D01*
X0515573Y0101850D02*
X0520015Y0101850D01*
X0519601Y0100851D02*
X0516164Y0100851D01*
X0516531Y0099853D02*
X0519577Y0099853D01*
X0519671Y0098854D02*
X0516531Y0098854D01*
X0516366Y0097856D02*
X0520084Y0097856D01*
X0520875Y0096857D02*
X0515952Y0096857D01*
X0515060Y0095859D02*
X0522486Y0095859D01*
X0523021Y0094237D02*
X0521441Y0093582D01*
X0520231Y0092373D01*
X0519577Y0090792D01*
X0519577Y0089082D01*
X0520231Y0087501D01*
X0521441Y0086292D01*
X0523021Y0085637D01*
X0530732Y0085637D01*
X0532312Y0086292D01*
X0533522Y0087501D01*
X0534177Y0089082D01*
X0534177Y0090792D01*
X0533522Y0092373D01*
X0532312Y0093582D01*
X0530732Y0094237D01*
X0523021Y0094237D01*
X0522115Y0093862D02*
X0515687Y0093862D01*
X0516211Y0092863D02*
X0520722Y0092863D01*
X0520021Y0091865D02*
X0516531Y0091865D01*
X0516531Y0090866D02*
X0519607Y0090866D01*
X0519577Y0089868D02*
X0516318Y0089868D01*
X0515905Y0088869D02*
X0519665Y0088869D01*
X0520078Y0087870D02*
X0514946Y0087870D01*
X0514802Y0086872D02*
X0520861Y0086872D01*
X0522450Y0085873D02*
X0515801Y0085873D01*
X0516259Y0084875D02*
X0540280Y0084875D01*
X0540278Y0085873D02*
X0531303Y0085873D01*
X0532893Y0086872D02*
X0540277Y0086872D01*
X0540275Y0087870D02*
X0533675Y0087870D01*
X0534089Y0088869D02*
X0540274Y0088869D01*
X0540272Y0089868D02*
X0534177Y0089868D01*
X0534146Y0090866D02*
X0540271Y0090866D01*
X0540269Y0091865D02*
X0533733Y0091865D01*
X0533032Y0092863D02*
X0540267Y0092863D01*
X0540266Y0093862D02*
X0531638Y0093862D01*
X0531267Y0095859D02*
X0540263Y0095859D01*
X0540261Y0096857D02*
X0532878Y0096857D01*
X0533669Y0097856D02*
X0540260Y0097856D01*
X0540258Y0098854D02*
X0534082Y0098854D01*
X0534177Y0099853D02*
X0540257Y0099853D01*
X0540255Y0100851D02*
X0534152Y0100851D01*
X0533739Y0101850D02*
X0540254Y0101850D01*
X0540252Y0102848D02*
X0533047Y0102848D01*
X0531674Y0103847D02*
X0540251Y0103847D01*
X0540264Y0094860D02*
X0514688Y0094860D01*
X0516531Y0083876D02*
X0522151Y0083876D01*
X0520736Y0082878D02*
X0516531Y0082878D01*
X0516271Y0081879D02*
X0520027Y0081879D01*
X0519613Y0080881D02*
X0515831Y0080881D01*
X0514832Y0079882D02*
X0519577Y0079882D01*
X0519659Y0078884D02*
X0514916Y0078884D01*
X0515892Y0077885D02*
X0520072Y0077885D01*
X0520846Y0076887D02*
X0516306Y0076887D01*
X0516531Y0075888D02*
X0522415Y0075888D01*
X0532908Y0076887D02*
X0540292Y0076887D01*
X0540290Y0077885D02*
X0533681Y0077885D01*
X0534095Y0078884D02*
X0540289Y0078884D01*
X0540287Y0079882D02*
X0534177Y0079882D01*
X0534140Y0080881D02*
X0540286Y0080881D01*
X0540284Y0081879D02*
X0533726Y0081879D01*
X0533017Y0082878D02*
X0540283Y0082878D01*
X0540281Y0083876D02*
X0531602Y0083876D01*
X0512231Y0075488D02*
X0502113Y0075488D01*
X0502034Y0075409D01*
X0505293Y0072893D02*
X0508745Y0072893D01*
X0508570Y0077885D02*
X0505334Y0077885D01*
X0498872Y0079882D02*
X0496708Y0079882D01*
X0496708Y0080881D02*
X0498372Y0080881D01*
X0498372Y0081879D02*
X0496708Y0081879D01*
X0478148Y0077885D02*
X0474161Y0077885D01*
X0474161Y0076887D02*
X0477698Y0076887D01*
X0476700Y0075888D02*
X0473682Y0075888D01*
X0473777Y0073891D02*
X0474703Y0073891D01*
X0475701Y0074890D02*
X0457507Y0074890D01*
X0457507Y0075888D02*
X0458181Y0075888D01*
X0458057Y0076887D02*
X0457507Y0076887D01*
X0457507Y0077287D02*
X0456746Y0078048D01*
X0450157Y0078048D01*
X0449396Y0077287D01*
X0449396Y0072273D01*
X0450157Y0071511D01*
X0450275Y0071511D01*
X0449556Y0070792D01*
X0449498Y0070817D01*
X0448192Y0070817D01*
X0446987Y0070317D01*
X0446064Y0069394D01*
X0445564Y0068188D01*
X0445564Y0066883D01*
X0446064Y0065677D01*
X0446987Y0064754D01*
X0448192Y0064254D01*
X0449498Y0064254D01*
X0450704Y0064754D01*
X0451627Y0065677D01*
X0452126Y0066883D01*
X0452126Y0068188D01*
X0452102Y0068247D01*
X0454197Y0070342D01*
X0455251Y0071396D01*
X0455251Y0071511D01*
X0456746Y0071511D01*
X0457507Y0072273D01*
X0457507Y0077287D01*
X0458057Y0077885D02*
X0456908Y0077885D01*
X0458057Y0078884D02*
X0445330Y0078884D01*
X0445330Y0079882D02*
X0458057Y0079882D01*
X0458057Y0080881D02*
X0445330Y0080881D01*
X0445330Y0081879D02*
X0460313Y0081879D01*
X0460313Y0082878D02*
X0445330Y0082878D01*
X0445330Y0083876D02*
X0460313Y0083876D01*
X0460313Y0084875D02*
X0445330Y0084875D01*
X0445330Y0085873D02*
X0460313Y0085873D01*
X0460313Y0086872D02*
X0445330Y0086872D01*
X0445330Y0087870D02*
X0460313Y0087870D01*
X0460313Y0088869D02*
X0445330Y0088869D01*
X0445279Y0089868D02*
X0460313Y0089868D01*
X0460313Y0090866D02*
X0444281Y0090866D01*
X0443282Y0091865D02*
X0460313Y0091865D01*
X0460313Y0092863D02*
X0442284Y0092863D01*
X0441285Y0093862D02*
X0460313Y0093862D01*
X0460313Y0094860D02*
X0440287Y0094860D01*
X0439288Y0095859D02*
X0460313Y0095859D01*
X0460313Y0096857D02*
X0438290Y0096857D01*
X0437291Y0097856D02*
X0460313Y0097856D01*
X0460313Y0098854D02*
X0436293Y0098854D01*
X0435294Y0099853D02*
X0460313Y0099853D01*
X0459834Y0100851D02*
X0434295Y0100851D01*
X0433297Y0101850D02*
X0458836Y0101850D01*
X0443530Y0089071D02*
X0425617Y0106984D01*
X0425617Y0099110D02*
X0416286Y0108441D01*
X0416286Y0118402D01*
X0412681Y0119823D02*
X0396924Y0119823D01*
X0396916Y0120821D02*
X0413226Y0120821D01*
X0414413Y0121820D02*
X0396908Y0121820D01*
X0396931Y0118824D02*
X0412411Y0118824D01*
X0412411Y0117826D02*
X0396939Y0117826D01*
X0396947Y0116827D02*
X0412744Y0116827D01*
X0413379Y0115829D02*
X0396954Y0115829D01*
X0396962Y0114830D02*
X0414486Y0114830D01*
X0414486Y0113832D02*
X0396969Y0113832D01*
X0396977Y0112833D02*
X0414486Y0112833D01*
X0414486Y0111835D02*
X0396985Y0111835D01*
X0396992Y0110836D02*
X0414486Y0110836D01*
X0414486Y0109838D02*
X0397000Y0109838D01*
X0397008Y0108839D02*
X0414486Y0108839D01*
X0414486Y0107841D02*
X0397015Y0107841D01*
X0397023Y0106842D02*
X0415339Y0106842D01*
X0416338Y0105844D02*
X0397031Y0105844D01*
X0397038Y0104845D02*
X0417336Y0104845D01*
X0418335Y0103847D02*
X0397046Y0103847D01*
X0443530Y0089071D02*
X0443530Y0080921D01*
X0441730Y0078884D02*
X0440696Y0078884D01*
X0441730Y0077885D02*
X0429278Y0077885D01*
X0429692Y0076887D02*
X0441730Y0076887D01*
X0441730Y0075888D02*
X0440696Y0075888D01*
X0440696Y0074890D02*
X0441730Y0074890D01*
X0441730Y0073891D02*
X0440696Y0073891D01*
X0440696Y0072893D02*
X0441730Y0072893D01*
X0441730Y0071894D02*
X0440696Y0071894D01*
X0441730Y0070896D02*
X0439495Y0070896D01*
X0440096Y0069897D02*
X0441730Y0069897D01*
X0441730Y0068899D02*
X0440315Y0068899D01*
X0440247Y0067900D02*
X0441730Y0067900D01*
X0441730Y0066902D02*
X0439834Y0066902D01*
X0438816Y0065903D02*
X0441730Y0065903D01*
X0441730Y0064905D02*
X0428988Y0064905D01*
X0429562Y0065903D02*
X0435252Y0065903D01*
X0434234Y0066902D02*
X0429917Y0066902D01*
X0429917Y0067900D02*
X0433821Y0067900D01*
X0433753Y0068899D02*
X0429739Y0068899D01*
X0429325Y0069897D02*
X0433972Y0069897D01*
X0434573Y0070896D02*
X0428416Y0070896D01*
X0428104Y0071894D02*
X0433372Y0071894D01*
X0437034Y0073874D02*
X0427231Y0073874D01*
X0425617Y0075488D01*
X0429917Y0075888D02*
X0433372Y0075888D01*
X0433372Y0078884D02*
X0428302Y0078884D01*
X0428218Y0079882D02*
X0433372Y0079882D01*
X0445330Y0077885D02*
X0449994Y0077885D01*
X0449396Y0076887D02*
X0445330Y0076887D01*
X0445330Y0075888D02*
X0449396Y0075888D01*
X0449396Y0074890D02*
X0445330Y0074890D01*
X0445330Y0073891D02*
X0449396Y0073891D01*
X0449396Y0072893D02*
X0445330Y0072893D01*
X0445330Y0071894D02*
X0449774Y0071894D01*
X0449660Y0070896D02*
X0445330Y0070896D01*
X0445330Y0069897D02*
X0446567Y0069897D01*
X0445858Y0068899D02*
X0445330Y0068899D01*
X0445330Y0067900D02*
X0445564Y0067900D01*
X0445564Y0066902D02*
X0445330Y0066902D01*
X0445330Y0065903D02*
X0445970Y0065903D01*
X0445330Y0064905D02*
X0446836Y0064905D01*
X0445330Y0063906D02*
X0460313Y0063906D01*
X0460313Y0062908D02*
X0445330Y0062908D01*
X0445330Y0061909D02*
X0460313Y0061909D01*
X0460313Y0060911D02*
X0445330Y0060911D01*
X0446535Y0059912D02*
X0451155Y0059912D01*
X0457165Y0059912D02*
X0460313Y0059912D01*
X0460313Y0058914D02*
X0457822Y0058914D01*
X0457822Y0057915D02*
X0459475Y0057915D01*
X0458476Y0056917D02*
X0457822Y0056917D01*
X0460572Y0053921D02*
X0498333Y0053921D01*
X0498333Y0052923D02*
X0459573Y0052923D01*
X0458575Y0051924D02*
X0498333Y0051924D01*
X0498577Y0050926D02*
X0457822Y0050926D01*
X0457822Y0049927D02*
X0500195Y0049927D01*
X0500195Y0048929D02*
X0457822Y0048929D01*
X0457810Y0047930D02*
X0500944Y0047930D01*
X0501943Y0046932D02*
X0438976Y0046932D01*
X0437977Y0045933D02*
X0502941Y0045933D01*
X0503940Y0044934D02*
X0436979Y0044934D01*
X0435980Y0043936D02*
X0504938Y0043936D01*
X0505937Y0042937D02*
X0434982Y0042937D01*
X0447181Y0047930D02*
X0450510Y0047930D01*
X0450498Y0051924D02*
X0447192Y0051924D01*
X0446438Y0052923D02*
X0451252Y0052923D01*
X0450607Y0054920D02*
X0447084Y0054920D01*
X0439977Y0054920D02*
X0428644Y0054920D01*
X0427626Y0055918D02*
X0439868Y0055918D01*
X0439868Y0056917D02*
X0428874Y0056917D01*
X0429515Y0057915D02*
X0439868Y0057915D01*
X0439868Y0058914D02*
X0429917Y0058914D01*
X0429917Y0059912D02*
X0440525Y0059912D01*
X0441730Y0060911D02*
X0429786Y0060911D01*
X0429373Y0061909D02*
X0441730Y0061909D01*
X0441730Y0062908D02*
X0428530Y0062908D01*
X0427901Y0063906D02*
X0441730Y0063906D01*
X0450855Y0064905D02*
X0460313Y0064905D01*
X0460313Y0065903D02*
X0451720Y0065903D01*
X0452126Y0066902D02*
X0460313Y0066902D01*
X0458689Y0067900D02*
X0452126Y0067900D01*
X0452754Y0068899D02*
X0458057Y0068899D01*
X0458057Y0069897D02*
X0453753Y0069897D01*
X0454751Y0070896D02*
X0458057Y0070896D01*
X0458057Y0071894D02*
X0457129Y0071894D01*
X0457507Y0072893D02*
X0458057Y0072893D01*
X0458402Y0073891D02*
X0457507Y0073891D01*
X0453451Y0074780D02*
X0453451Y0072142D01*
X0448845Y0067535D01*
X0437034Y0068717D02*
X0437034Y0073874D01*
X0437940Y0074780D01*
X0465824Y0073891D02*
X0467221Y0073891D01*
X0466836Y0072893D02*
X0466169Y0072893D01*
X0466044Y0075888D02*
X0467315Y0075888D01*
X0467124Y0080881D02*
X0466169Y0080881D01*
X0462569Y0055918D02*
X0498854Y0055918D01*
X0498333Y0054920D02*
X0461570Y0054920D01*
X0501995Y0053283D02*
X0501995Y0049425D01*
X0507428Y0043992D01*
X0508033Y0045933D02*
X0508381Y0045933D01*
X0509089Y0046932D02*
X0507034Y0046932D01*
X0532937Y0056917D02*
X0540323Y0056917D01*
X0540321Y0057915D02*
X0533693Y0057915D01*
X0534107Y0058914D02*
X0540319Y0058914D01*
X0540318Y0059912D02*
X0534177Y0059912D01*
X0534128Y0060911D02*
X0540316Y0060911D01*
X0540315Y0061909D02*
X0533714Y0061909D01*
X0532987Y0062908D02*
X0540313Y0062908D01*
X0540312Y0063906D02*
X0531531Y0063906D01*
X0532942Y0032952D02*
X0540359Y0032952D01*
X0540361Y0031954D02*
X0533696Y0031954D01*
X0534109Y0030955D02*
X0540362Y0030955D01*
X0540364Y0029957D02*
X0534177Y0029957D01*
X0493108Y0113832D02*
X0481747Y0113832D01*
X0482150Y0114830D02*
X0493108Y0114830D01*
X0493108Y0115829D02*
X0483149Y0115829D01*
X0484147Y0116827D02*
X0493108Y0116827D01*
X0493108Y0117826D02*
X0485146Y0117826D01*
X0486144Y0118824D02*
X0493108Y0118824D01*
X0431129Y0149819D02*
X0420892Y0142339D01*
X0422091Y0154771D02*
X0434447Y0154771D01*
X0434447Y0155769D02*
X0423089Y0155769D01*
X0424088Y0156768D02*
X0434447Y0156768D01*
X0434447Y0157766D02*
X0425086Y0157766D01*
X0426085Y0158765D02*
X0434447Y0158765D01*
X0434447Y0159763D02*
X0427083Y0159763D01*
X0428082Y0160762D02*
X0434447Y0160762D01*
X0434447Y0161760D02*
X0429080Y0161760D01*
X0430079Y0162759D02*
X0434447Y0162759D01*
X0434447Y0163757D02*
X0431077Y0163757D01*
X0434170Y0164756D02*
X0434447Y0164756D01*
D22*
X0526877Y0159819D02*
X0526877Y0169819D01*
X0526877Y0179819D01*
M02*
