G75*
%MOIN*%
%OFA0B0*%
%FSLAX25Y25*%
%IPPOS*%
%LPD*%
%AMOC8*
5,1,8,0,0,1.08239X$1,22.5*
%
%ADD10R,0.05524X0.03950*%
%ADD11R,0.05524X0.06312*%
%ADD12R,0.06312X0.05524*%
%ADD13R,0.03950X0.05524*%
%ADD14C,0.05950*%
%ADD15R,0.06902X0.05918*%
%ADD16R,0.05918X0.06902*%
%ADD17C,0.06800*%
%ADD18OC8,0.06800*%
%ADD19C,0.06800*%
%ADD20R,0.05800X0.10800*%
%ADD21R,0.06600X0.02800*%
%ADD22R,0.02800X0.06600*%
%ADD23C,0.04762*%
D10*
X0439790Y0162181D03*
X0439790Y0169268D03*
X0502979Y0166827D03*
X0513412Y0166906D03*
X0513412Y0173992D03*
X0502979Y0173913D03*
X0443727Y0211315D03*
X0443727Y0218402D03*
D11*
X0431995Y0132732D03*
X0420184Y0132732D03*
X0502231Y0134228D03*
X0514042Y0134228D03*
D12*
X0403018Y0169976D03*
X0403018Y0181787D03*
X0453806Y0203362D03*
X0453806Y0215173D03*
D13*
X0419908Y0188402D03*
X0412822Y0188402D03*
X0444672Y0152181D03*
X0451759Y0152181D03*
X0446995Y0141945D03*
X0439908Y0141945D03*
X0488845Y0143913D03*
X0495932Y0143913D03*
D14*
X0416286Y0118402D03*
X0520853Y0119976D03*
D15*
X0442861Y0228638D03*
X0405459Y0228638D03*
X0405459Y0246354D03*
X0442861Y0246354D03*
D16*
X0429081Y0179780D03*
X0411365Y0179780D03*
X0411365Y0142378D03*
X0429081Y0142378D03*
D17*
X0425617Y0106984D03*
X0425617Y0099110D03*
X0425617Y0091236D03*
X0425617Y0083362D03*
X0425617Y0075488D03*
X0425617Y0067614D03*
X0425617Y0059740D03*
X0425617Y0051866D03*
X0425617Y0043992D03*
X0425617Y0036118D03*
X0512231Y0036118D03*
X0512231Y0043992D03*
X0512231Y0051866D03*
X0512231Y0059740D03*
X0512231Y0067614D03*
X0512231Y0075488D03*
X0512231Y0083362D03*
X0512231Y0091236D03*
X0512231Y0099110D03*
X0512231Y0106984D03*
X0407940Y0205213D03*
D18*
X0417940Y0205213D03*
X0427940Y0205213D03*
X0427940Y0215213D03*
X0417940Y0215213D03*
X0407940Y0215213D03*
D19*
X0523877Y0219819D02*
X0529877Y0219819D01*
X0529877Y0229819D02*
X0523877Y0229819D01*
X0523877Y0239819D02*
X0529877Y0239819D01*
X0529877Y0249819D02*
X0523877Y0249819D01*
X0523877Y0209819D02*
X0529877Y0209819D01*
X0529877Y0199819D02*
X0523877Y0199819D01*
X0523877Y0189819D02*
X0529877Y0189819D01*
X0529877Y0179819D02*
X0523877Y0179819D01*
X0523877Y0169819D02*
X0529877Y0169819D01*
X0529877Y0159819D02*
X0523877Y0159819D01*
X0523877Y0099937D02*
X0529877Y0099937D01*
X0529877Y0089937D02*
X0523877Y0089937D01*
X0523877Y0079937D02*
X0529877Y0079937D01*
X0529877Y0069937D02*
X0523877Y0069937D01*
X0523877Y0059937D02*
X0529877Y0059937D01*
X0529877Y0049937D02*
X0523877Y0049937D01*
X0523877Y0039937D02*
X0529877Y0039937D01*
X0529877Y0029937D02*
X0523877Y0029937D01*
X0523877Y0019937D02*
X0529877Y0019937D01*
X0529877Y0009937D02*
X0523877Y0009937D01*
D20*
X0497388Y0205744D03*
X0487388Y0205744D03*
X0477388Y0205744D03*
X0467388Y0205744D03*
X0467388Y0240744D03*
X0477388Y0240744D03*
X0487388Y0240744D03*
X0497388Y0240744D03*
D21*
X0490478Y0178969D03*
X0490478Y0175869D03*
X0490478Y0172669D03*
X0490478Y0169569D03*
X0490478Y0166369D03*
X0490478Y0163269D03*
X0490478Y0160069D03*
X0490478Y0156969D03*
X0458078Y0156969D03*
X0458078Y0160069D03*
X0458078Y0163269D03*
X0458078Y0166369D03*
X0458078Y0169569D03*
X0458078Y0172669D03*
X0458078Y0175869D03*
X0458078Y0178969D03*
D22*
X0463278Y0184169D03*
X0466378Y0184169D03*
X0469578Y0184169D03*
X0472678Y0184169D03*
X0475878Y0184169D03*
X0478978Y0184169D03*
X0482178Y0184169D03*
X0485278Y0184169D03*
X0485278Y0151769D03*
X0482178Y0151769D03*
X0478978Y0151769D03*
X0475878Y0151769D03*
X0472678Y0151769D03*
X0469578Y0151769D03*
X0466378Y0151769D03*
X0463278Y0151769D03*
D23*
X0467743Y0145488D03*
X0461050Y0141157D03*
X0456719Y0136039D03*
X0431129Y0149819D03*
X0420892Y0142339D03*
X0413018Y0132890D03*
X0406325Y0161630D03*
X0431916Y0167142D03*
X0420499Y0179740D03*
X0435066Y0189189D03*
X0403176Y0189583D03*
X0402388Y0197063D03*
X0398058Y0210055D03*
X0449239Y0224622D03*
X0468924Y0216748D03*
X0483491Y0216748D03*
X0450026Y0231315D03*
X0445696Y0238795D03*
X0502388Y0198244D03*
X0511837Y0198638D03*
X0481916Y0166354D03*
X0507507Y0162024D03*
X0518136Y0141551D03*
X0508294Y0125409D03*
X0494908Y0122260D03*
X0448845Y0067535D03*
X0437034Y0068717D03*
M02*
