G75*
%MOIN*%
%OFA0B0*%
%FSLAX25Y25*%
%IPPOS*%
%LPD*%
%AMOC8*
5,1,8,0,0,1.08239X$1,22.5*
%
%ADD10C,0.00000*%
%ADD11C,0.00512*%
%ADD12C,0.00600*%
%ADD13R,0.04724X0.03150*%
%ADD14R,0.04724X0.05512*%
%ADD15R,0.05512X0.04724*%
%ADD16R,0.03150X0.04724*%
%ADD17C,0.05150*%
%ADD18R,0.06102X0.05118*%
%ADD19R,0.05118X0.06102*%
%ADD20C,0.06000*%
%ADD21OC8,0.06000*%
%ADD22C,0.06000*%
%ADD23R,0.05000X0.10000*%
%ADD24R,0.05800X0.02000*%
%ADD25R,0.02000X0.05800*%
%ADD26C,0.01000*%
%ADD27C,0.03962*%
%ADD28C,0.02400*%
D10*
X0393333Y0001256D02*
X0393333Y0258343D01*
X0544908Y0258343D01*
X0544908Y0001256D01*
X0393333Y0001256D01*
D11*
X0544908Y0001256D02*
X0602447Y0001344D01*
X0594769Y0001588D02*
X0593730Y0011567D01*
X0593497Y0011567D02*
X0594769Y0001588D01*
X0595777Y0011570D01*
X0596011Y0011570D02*
X0593497Y0011567D01*
X0594242Y0011568D02*
X0594769Y0001588D01*
X0595265Y0011569D01*
X0596011Y0011570D02*
X0594769Y0001588D01*
X0594376Y0258163D01*
X0593368Y0248181D01*
X0593134Y0248181D02*
X0594376Y0258163D01*
X0595415Y0248184D01*
X0595648Y0248185D02*
X0593134Y0248181D01*
X0593880Y0248182D02*
X0594376Y0258163D01*
X0594903Y0248183D01*
X0595648Y0248185D02*
X0594376Y0258163D01*
X0602053Y0258431D02*
X0544514Y0258343D01*
X0547664Y0258343D02*
X0547664Y0284524D01*
X0547408Y0276846D02*
X0537428Y0277870D01*
X0537428Y0278103D02*
X0537428Y0275590D01*
X0547408Y0276846D01*
X0537428Y0275823D01*
X0537428Y0276335D02*
X0547408Y0276846D01*
X0537428Y0277358D01*
X0537428Y0278103D02*
X0547408Y0276846D01*
X0391227Y0276846D01*
X0401207Y0275823D01*
X0401207Y0275590D02*
X0391227Y0276846D01*
X0401207Y0277870D01*
X0401207Y0278103D02*
X0401207Y0275590D01*
X0401207Y0276335D02*
X0391227Y0276846D01*
X0401207Y0277358D01*
X0401207Y0278103D02*
X0391227Y0276846D01*
X0390971Y0284524D02*
X0390971Y0258343D01*
D12*
X0459866Y0279408D02*
X0464136Y0279408D01*
X0462001Y0279408D02*
X0462001Y0285814D01*
X0459866Y0283679D01*
X0466311Y0280476D02*
X0467379Y0280476D01*
X0467379Y0279408D01*
X0466311Y0279408D01*
X0466311Y0280476D01*
X0469534Y0280476D02*
X0470602Y0279408D01*
X0472737Y0279408D01*
X0473804Y0280476D01*
X0473804Y0282611D01*
X0472737Y0283679D01*
X0471669Y0283679D01*
X0469534Y0282611D01*
X0469534Y0285814D01*
X0473804Y0285814D01*
X0475980Y0285814D02*
X0480250Y0285814D01*
X0480250Y0284746D01*
X0475980Y0280476D01*
X0475980Y0279408D01*
X0597120Y0139331D02*
X0601398Y0135068D01*
X0602465Y0135070D01*
X0603531Y0136140D01*
X0603527Y0138275D01*
X0602458Y0139341D01*
X0597120Y0139331D02*
X0597127Y0135061D01*
X0597131Y0132886D02*
X0597133Y0131818D01*
X0598201Y0131820D01*
X0598199Y0132888D01*
X0597131Y0132886D01*
X0598204Y0129665D02*
X0597139Y0128595D01*
X0597142Y0126460D01*
X0598212Y0125395D01*
X0600347Y0125398D01*
X0601413Y0126468D01*
X0601411Y0127535D01*
X0600339Y0129669D01*
X0603542Y0129674D01*
X0603550Y0125404D01*
X0603553Y0123229D02*
X0603561Y0118958D01*
X0602493Y0118956D01*
X0598216Y0123219D01*
X0597148Y0123217D01*
D13*
X0513412Y0167949D03*
X0513412Y0175035D03*
X0502979Y0174957D03*
X0502979Y0167870D03*
X0439790Y0169524D03*
X0439790Y0162437D03*
X0443727Y0211571D03*
X0443727Y0218657D03*
D14*
X0502231Y0134484D03*
X0514042Y0134484D03*
X0431995Y0132988D03*
X0420184Y0132988D03*
D15*
X0403018Y0170232D03*
X0403018Y0182043D03*
X0453806Y0203618D03*
X0453806Y0215429D03*
D16*
X0419908Y0188657D03*
X0412822Y0188657D03*
X0444672Y0152437D03*
X0451759Y0152437D03*
X0446995Y0142201D03*
X0439908Y0142201D03*
X0488845Y0144169D03*
X0495932Y0144169D03*
D17*
X0520853Y0120232D03*
X0416286Y0118657D03*
D18*
X0405459Y0228894D03*
X0405459Y0246610D03*
X0442861Y0246610D03*
X0442861Y0228894D03*
D19*
X0429081Y0180035D03*
X0411365Y0180035D03*
X0411365Y0142634D03*
X0429081Y0142634D03*
D20*
X0425617Y0107240D03*
X0425617Y0099366D03*
X0425617Y0091492D03*
X0425617Y0083618D03*
X0425617Y0075744D03*
X0425617Y0067870D03*
X0425617Y0059996D03*
X0425617Y0052122D03*
X0425617Y0044248D03*
X0425617Y0036374D03*
X0512231Y0036374D03*
X0512231Y0044248D03*
X0512231Y0052122D03*
X0512231Y0059996D03*
X0512231Y0067870D03*
X0512231Y0075744D03*
X0512231Y0083618D03*
X0512231Y0091492D03*
X0512231Y0099366D03*
X0512231Y0107240D03*
X0407940Y0205469D03*
D21*
X0417940Y0205469D03*
X0427940Y0205469D03*
X0427940Y0215469D03*
X0417940Y0215469D03*
X0407940Y0215469D03*
D22*
X0523877Y0220075D02*
X0529877Y0220075D01*
X0529877Y0230075D02*
X0523877Y0230075D01*
X0523877Y0240075D02*
X0529877Y0240075D01*
X0529877Y0250075D02*
X0523877Y0250075D01*
X0523877Y0210075D02*
X0529877Y0210075D01*
X0529877Y0200075D02*
X0523877Y0200075D01*
X0523877Y0190075D02*
X0529877Y0190075D01*
X0529877Y0180075D02*
X0523877Y0180075D01*
X0523877Y0170075D02*
X0529877Y0170075D01*
X0529877Y0160075D02*
X0523877Y0160075D01*
X0523877Y0100193D02*
X0529877Y0100193D01*
X0529877Y0090193D02*
X0523877Y0090193D01*
X0523877Y0080193D02*
X0529877Y0080193D01*
X0529877Y0070193D02*
X0523877Y0070193D01*
X0523877Y0060193D02*
X0529877Y0060193D01*
X0529877Y0050193D02*
X0523877Y0050193D01*
X0523877Y0040193D02*
X0529877Y0040193D01*
X0529877Y0030193D02*
X0523877Y0030193D01*
X0523877Y0020193D02*
X0529877Y0020193D01*
X0529877Y0010193D02*
X0523877Y0010193D01*
D23*
X0497388Y0206000D03*
X0487388Y0206000D03*
X0477388Y0206000D03*
X0467388Y0206000D03*
X0467388Y0241000D03*
X0477388Y0241000D03*
X0487388Y0241000D03*
X0497388Y0241000D03*
D24*
X0490478Y0179224D03*
X0490478Y0176124D03*
X0490478Y0172924D03*
X0490478Y0169824D03*
X0490478Y0166624D03*
X0490478Y0163524D03*
X0490478Y0160324D03*
X0490478Y0157224D03*
X0458078Y0157224D03*
X0458078Y0160324D03*
X0458078Y0163524D03*
X0458078Y0166624D03*
X0458078Y0169824D03*
X0458078Y0172924D03*
X0458078Y0176124D03*
X0458078Y0179224D03*
D25*
X0463278Y0184424D03*
X0466378Y0184424D03*
X0469578Y0184424D03*
X0472678Y0184424D03*
X0475878Y0184424D03*
X0478978Y0184424D03*
X0482178Y0184424D03*
X0485278Y0184424D03*
X0485278Y0152024D03*
X0482178Y0152024D03*
X0478978Y0152024D03*
X0475878Y0152024D03*
X0472678Y0152024D03*
X0469578Y0152024D03*
X0466378Y0152024D03*
X0463278Y0152024D03*
D26*
X0460978Y0152031D02*
X0454633Y0152031D01*
X0454633Y0151033D02*
X0460978Y0151033D01*
X0460978Y0150034D02*
X0454633Y0150034D01*
X0454633Y0149536D02*
X0454633Y0154931D01*
X0454640Y0154924D01*
X0460978Y0154924D01*
X0460978Y0148586D01*
X0461740Y0147824D01*
X0464817Y0147824D01*
X0464828Y0147836D01*
X0464840Y0147824D01*
X0465183Y0147824D01*
X0464961Y0147603D01*
X0464462Y0146397D01*
X0464462Y0145091D01*
X0464961Y0143885D01*
X0465633Y0143213D01*
X0463856Y0143213D01*
X0463831Y0143272D01*
X0462908Y0144195D01*
X0461703Y0144694D01*
X0460397Y0144694D01*
X0459191Y0144195D01*
X0458268Y0143272D01*
X0457769Y0142066D01*
X0457769Y0140761D01*
X0458268Y0139555D01*
X0459191Y0138632D01*
X0460397Y0138132D01*
X0461703Y0138132D01*
X0462908Y0138632D01*
X0463831Y0139555D01*
X0463856Y0139613D01*
X0469669Y0139613D01*
X0470724Y0140668D01*
X0474078Y0144022D01*
X0474078Y0143995D01*
X0468178Y0138095D01*
X0459525Y0138095D01*
X0459501Y0138154D01*
X0458578Y0139077D01*
X0457372Y0139576D01*
X0456066Y0139576D01*
X0454861Y0139077D01*
X0453938Y0138154D01*
X0453438Y0136948D01*
X0453438Y0135643D01*
X0453938Y0134437D01*
X0454861Y0133514D01*
X0456066Y0133014D01*
X0457372Y0133014D01*
X0458578Y0133514D01*
X0459501Y0134437D01*
X0459525Y0134495D01*
X0467728Y0134495D01*
X0457507Y0124274D01*
X0448795Y0132986D01*
X0448795Y0138539D01*
X0449108Y0138539D01*
X0449870Y0139300D01*
X0449870Y0145101D01*
X0449108Y0145863D01*
X0444881Y0145863D01*
X0444120Y0145101D01*
X0444120Y0139300D01*
X0444881Y0138539D01*
X0445195Y0138539D01*
X0445195Y0131495D01*
X0446249Y0130440D01*
X0446249Y0130440D01*
X0454961Y0121728D01*
X0434399Y0101166D01*
X0429525Y0101166D01*
X0429262Y0101802D01*
X0428053Y0103011D01*
X0427348Y0103303D01*
X0428053Y0103595D01*
X0429262Y0104804D01*
X0429917Y0106385D01*
X0429917Y0108095D01*
X0429262Y0109676D01*
X0428053Y0110886D01*
X0427417Y0111149D01*
X0427417Y0126495D01*
X0427543Y0126621D01*
X0428598Y0127676D01*
X0428598Y0129428D01*
X0429094Y0128932D01*
X0434895Y0128932D01*
X0435657Y0129694D01*
X0435657Y0130952D01*
X0440142Y0130952D01*
X0440654Y0131464D01*
X0441708Y0132518D01*
X0441708Y0138539D01*
X0442021Y0138539D01*
X0442783Y0139300D01*
X0442783Y0145101D01*
X0442021Y0145863D01*
X0437795Y0145863D01*
X0437033Y0145101D01*
X0437033Y0139300D01*
X0437795Y0138539D01*
X0438108Y0138539D01*
X0438108Y0134552D01*
X0435657Y0134552D01*
X0435657Y0136283D01*
X0434895Y0137044D01*
X0429699Y0137044D01*
X0430881Y0138227D01*
X0430881Y0138283D01*
X0432179Y0138283D01*
X0432940Y0139044D01*
X0432940Y0146224D01*
X0432198Y0146966D01*
X0432987Y0147293D01*
X0433910Y0148216D01*
X0434410Y0149422D01*
X0434410Y0150637D01*
X0441797Y0150637D01*
X0441797Y0149536D01*
X0442559Y0148775D01*
X0446785Y0148775D01*
X0447547Y0149536D01*
X0447547Y0155338D01*
X0446785Y0156099D01*
X0442559Y0156099D01*
X0441797Y0155338D01*
X0441797Y0154237D01*
X0432745Y0154237D01*
X0431840Y0153332D01*
X0431781Y0153356D01*
X0430476Y0153356D01*
X0429270Y0152856D01*
X0428347Y0151933D01*
X0427848Y0150727D01*
X0427848Y0150390D01*
X0425842Y0152395D01*
X0425842Y0167046D01*
X0429906Y0171109D01*
X0430960Y0172164D01*
X0430960Y0175650D01*
X0431232Y0175379D01*
X0432286Y0174324D01*
X0453878Y0174324D01*
X0453878Y0171386D01*
X0453890Y0171374D01*
X0453878Y0171363D01*
X0453878Y0171324D01*
X0443452Y0171324D01*
X0443452Y0171637D01*
X0442691Y0172398D01*
X0436889Y0172398D01*
X0436128Y0171637D01*
X0436128Y0167410D01*
X0436889Y0166649D01*
X0442691Y0166649D01*
X0443452Y0167410D01*
X0443452Y0167724D01*
X0453678Y0167724D01*
X0453678Y0166624D01*
X0453678Y0165427D01*
X0453780Y0165045D01*
X0453878Y0164876D01*
X0453878Y0162124D01*
X0452837Y0162124D01*
X0451783Y0161070D01*
X0449959Y0159246D01*
X0449959Y0156099D01*
X0449645Y0156099D01*
X0448884Y0155338D01*
X0448884Y0149536D01*
X0449645Y0148775D01*
X0453872Y0148775D01*
X0454633Y0149536D01*
X0454133Y0149036D02*
X0460978Y0149036D01*
X0461527Y0148037D02*
X0433731Y0148037D01*
X0434250Y0149036D02*
X0442298Y0149036D01*
X0441797Y0150034D02*
X0434410Y0150034D01*
X0433491Y0152437D02*
X0431129Y0150075D01*
X0432372Y0147039D02*
X0464728Y0147039D01*
X0464462Y0146040D02*
X0432940Y0146040D01*
X0432940Y0145042D02*
X0437033Y0145042D01*
X0437033Y0144043D02*
X0432940Y0144043D01*
X0432940Y0143045D02*
X0437033Y0143045D01*
X0437033Y0142046D02*
X0432940Y0142046D01*
X0432940Y0141047D02*
X0437033Y0141047D01*
X0437033Y0140049D02*
X0432940Y0140049D01*
X0432940Y0139050D02*
X0437283Y0139050D01*
X0438108Y0138052D02*
X0430706Y0138052D01*
X0429708Y0137053D02*
X0438108Y0137053D01*
X0438108Y0136055D02*
X0435657Y0136055D01*
X0435657Y0135056D02*
X0438108Y0135056D01*
X0439908Y0133264D02*
X0439908Y0142201D01*
X0442783Y0142046D02*
X0444120Y0142046D01*
X0444120Y0143045D02*
X0442783Y0143045D01*
X0442783Y0144043D02*
X0444120Y0144043D01*
X0444120Y0145042D02*
X0442783Y0145042D01*
X0446995Y0142201D02*
X0446995Y0132240D01*
X0457507Y0121728D01*
X0435144Y0099366D01*
X0425617Y0099366D01*
X0423885Y0095429D02*
X0423181Y0095721D01*
X0421971Y0096930D01*
X0421317Y0098511D01*
X0421317Y0100221D01*
X0421971Y0101802D01*
X0423181Y0103011D01*
X0423885Y0103303D01*
X0423181Y0103595D01*
X0421971Y0104804D01*
X0421317Y0106385D01*
X0421317Y0108095D01*
X0421971Y0109676D01*
X0423181Y0110886D01*
X0423817Y0111149D01*
X0423817Y0127986D01*
X0424998Y0129167D01*
X0424998Y0137435D01*
X0425915Y0138352D01*
X0425222Y0139044D01*
X0425222Y0146224D01*
X0425984Y0146985D01*
X0426161Y0146985D01*
X0423296Y0149850D01*
X0423296Y0149850D01*
X0422242Y0150904D01*
X0422242Y0168537D01*
X0427360Y0173655D01*
X0427360Y0175684D01*
X0425984Y0175684D01*
X0425222Y0176446D01*
X0425222Y0178208D01*
X0424281Y0178201D01*
X0424276Y0178196D01*
X0423536Y0178196D01*
X0423304Y0178194D01*
X0423280Y0178137D01*
X0422357Y0177214D01*
X0421151Y0176715D01*
X0419846Y0176715D01*
X0418640Y0177214D01*
X0417717Y0178137D01*
X0417218Y0179343D01*
X0417218Y0180649D01*
X0417717Y0181855D01*
X0418640Y0182778D01*
X0419846Y0183277D01*
X0421151Y0183277D01*
X0422357Y0182778D01*
X0423280Y0181855D01*
X0423305Y0181796D01*
X0423523Y0181796D01*
X0425222Y0181808D01*
X0425222Y0183625D01*
X0425984Y0184387D01*
X0431752Y0184387D01*
X0429281Y0186857D01*
X0422783Y0186857D01*
X0422783Y0185757D01*
X0422021Y0184995D01*
X0417795Y0184995D01*
X0417033Y0185757D01*
X0417033Y0191558D01*
X0417795Y0192320D01*
X0418108Y0192320D01*
X0418108Y0201169D01*
X0416159Y0201169D01*
X0413640Y0203687D01*
X0413640Y0207250D01*
X0416159Y0209768D01*
X0419721Y0209768D01*
X0422240Y0207250D01*
X0422240Y0203687D01*
X0421708Y0203156D01*
X0421708Y0192320D01*
X0422021Y0192320D01*
X0422783Y0191558D01*
X0422783Y0190457D01*
X0430772Y0190457D01*
X0431785Y0189445D01*
X0431785Y0190098D01*
X0432284Y0191303D01*
X0433207Y0192226D01*
X0434413Y0192726D01*
X0435718Y0192726D01*
X0436924Y0192226D01*
X0437847Y0191303D01*
X0437871Y0191245D01*
X0459871Y0191245D01*
X0459950Y0191324D01*
X0461441Y0191324D01*
X0462496Y0190269D01*
X0464024Y0188741D01*
X0464140Y0188624D01*
X0464762Y0188624D01*
X0464762Y0189093D01*
X0461879Y0191976D01*
X0446131Y0191976D01*
X0445077Y0193030D01*
X0432240Y0205867D01*
X0432240Y0203687D01*
X0429721Y0201169D01*
X0426159Y0201169D01*
X0423640Y0203687D01*
X0423640Y0207250D01*
X0425216Y0208826D01*
X0422037Y0208826D01*
X0419694Y0211169D01*
X0416159Y0211169D01*
X0413640Y0213687D01*
X0413640Y0217250D01*
X0416159Y0219768D01*
X0419721Y0219768D01*
X0422240Y0217250D01*
X0422240Y0213714D01*
X0423528Y0212426D01*
X0424618Y0212426D01*
X0423440Y0213605D01*
X0423440Y0214969D01*
X0427440Y0214969D01*
X0427440Y0215968D01*
X0423440Y0215968D01*
X0423440Y0217332D01*
X0426076Y0219968D01*
X0427440Y0219968D01*
X0427440Y0215969D01*
X0428440Y0215969D01*
X0428440Y0219968D01*
X0429804Y0219968D01*
X0432440Y0217332D01*
X0432440Y0215968D01*
X0428440Y0215968D01*
X0428440Y0214969D01*
X0432440Y0214969D01*
X0432440Y0213605D01*
X0431016Y0212181D01*
X0431826Y0211372D01*
X0431826Y0211372D01*
X0447622Y0195576D01*
X0463370Y0195576D01*
X0467307Y0191639D01*
X0468362Y0190584D01*
X0468362Y0188624D01*
X0471117Y0188624D01*
X0471128Y0188613D01*
X0471140Y0188624D01*
X0474217Y0188624D01*
X0474278Y0188563D01*
X0474340Y0188624D01*
X0476254Y0188624D01*
X0466643Y0198235D01*
X0465588Y0199290D01*
X0465588Y0199700D01*
X0464350Y0199700D01*
X0463588Y0200462D01*
X0463588Y0211538D01*
X0464350Y0212300D01*
X0470427Y0212300D01*
X0471188Y0211538D01*
X0471188Y0200462D01*
X0470427Y0199700D01*
X0470269Y0199700D01*
X0475588Y0194381D01*
X0475588Y0199700D01*
X0474350Y0199700D01*
X0473588Y0200462D01*
X0473588Y0211538D01*
X0474350Y0212300D01*
X0480427Y0212300D01*
X0481188Y0211538D01*
X0481188Y0200462D01*
X0480427Y0199700D01*
X0479188Y0199700D01*
X0479188Y0195112D01*
X0483688Y0190612D01*
X0485588Y0192513D01*
X0485588Y0199700D01*
X0484350Y0199700D01*
X0483588Y0200462D01*
X0483588Y0211538D01*
X0484350Y0212300D01*
X0490427Y0212300D01*
X0491188Y0211538D01*
X0491188Y0200462D01*
X0490427Y0199700D01*
X0489188Y0199700D01*
X0489188Y0191022D01*
X0488134Y0189968D01*
X0487078Y0188912D01*
X0487078Y0188363D01*
X0487578Y0187863D01*
X0487578Y0181524D01*
X0493917Y0181524D01*
X0494417Y0181024D01*
X0494572Y0181024D01*
X0495864Y0182316D01*
X0495864Y0199700D01*
X0494350Y0199700D01*
X0493588Y0200462D01*
X0493588Y0211538D01*
X0494350Y0212300D01*
X0500427Y0212300D01*
X0501188Y0211538D01*
X0501188Y0201554D01*
X0501736Y0201781D01*
X0503041Y0201781D01*
X0504247Y0201282D01*
X0505170Y0200359D01*
X0505670Y0199153D01*
X0505670Y0197961D01*
X0521437Y0183716D01*
X0521441Y0183720D01*
X0523021Y0184375D01*
X0530732Y0184375D01*
X0532312Y0183720D01*
X0533522Y0182511D01*
X0534177Y0180930D01*
X0534177Y0179219D01*
X0533522Y0177639D01*
X0532312Y0176429D01*
X0530732Y0175775D01*
X0523021Y0175775D01*
X0521441Y0176429D01*
X0520231Y0177639D01*
X0519577Y0179219D01*
X0519577Y0180545D01*
X0503243Y0195302D01*
X0503041Y0195219D01*
X0501736Y0195219D01*
X0500530Y0195718D01*
X0499607Y0196641D01*
X0499464Y0196986D01*
X0499464Y0180825D01*
X0498410Y0179771D01*
X0496063Y0177424D01*
X0494678Y0177424D01*
X0494678Y0174724D01*
X0498115Y0174724D01*
X0498226Y0174836D01*
X0499281Y0175891D01*
X0499317Y0175891D01*
X0499317Y0177070D01*
X0500078Y0177831D01*
X0505880Y0177831D01*
X0506641Y0177070D01*
X0506641Y0176757D01*
X0509750Y0176757D01*
X0509750Y0177149D01*
X0510511Y0177910D01*
X0516313Y0177910D01*
X0517074Y0177149D01*
X0517074Y0172922D01*
X0516313Y0172161D01*
X0510511Y0172161D01*
X0509750Y0172922D01*
X0509750Y0173157D01*
X0506641Y0173157D01*
X0506641Y0172843D01*
X0505880Y0172082D01*
X0500563Y0172082D01*
X0499606Y0171124D01*
X0494851Y0171124D01*
X0494878Y0171022D01*
X0494878Y0169824D01*
X0490478Y0169824D01*
X0496418Y0169824D01*
X0499239Y0167004D01*
X0495759Y0163524D01*
X0490478Y0163524D01*
X0486078Y0163524D01*
X0486078Y0162327D01*
X0486180Y0161945D01*
X0486278Y0161776D01*
X0486278Y0158786D01*
X0486290Y0158774D01*
X0486278Y0158763D01*
X0486278Y0156224D01*
X0483740Y0156224D01*
X0483728Y0156213D01*
X0483717Y0156224D01*
X0480640Y0156224D01*
X0480578Y0156163D01*
X0480517Y0156224D01*
X0477440Y0156224D01*
X0477428Y0156213D01*
X0477417Y0156224D01*
X0474340Y0156224D01*
X0474278Y0156163D01*
X0474217Y0156224D01*
X0471140Y0156224D01*
X0471128Y0156213D01*
X0471117Y0156224D01*
X0468040Y0156224D01*
X0467978Y0156163D01*
X0467917Y0156224D01*
X0464840Y0156224D01*
X0464828Y0156213D01*
X0464817Y0156224D01*
X0462278Y0156224D01*
X0462278Y0158763D01*
X0462267Y0158774D01*
X0462278Y0158786D01*
X0462278Y0161863D01*
X0462217Y0161924D01*
X0462278Y0161986D01*
X0462278Y0164876D01*
X0462376Y0165045D01*
X0462478Y0165427D01*
X0462478Y0166624D01*
X0458078Y0166624D01*
X0453678Y0166624D01*
X0458078Y0166624D01*
X0458078Y0166624D01*
X0468122Y0166624D01*
X0471680Y0163461D01*
X0472861Y0162280D01*
X0483491Y0162280D01*
X0484736Y0163524D01*
X0490478Y0163524D01*
X0490478Y0163524D01*
X0486078Y0163524D01*
X0486078Y0164722D01*
X0486106Y0164824D01*
X0485881Y0164824D01*
X0485065Y0165640D01*
X0484698Y0164752D01*
X0483775Y0163829D01*
X0482569Y0163329D01*
X0481263Y0163329D01*
X0480057Y0163829D01*
X0479134Y0164752D01*
X0478635Y0165958D01*
X0478635Y0167263D01*
X0479134Y0168469D01*
X0479807Y0169141D01*
X0463764Y0169141D01*
X0463702Y0169079D01*
X0462647Y0168024D01*
X0462424Y0168024D01*
X0462478Y0167822D01*
X0462478Y0166624D01*
X0458078Y0166624D01*
X0458064Y0166610D01*
X0450026Y0166610D01*
X0445853Y0162437D01*
X0439790Y0162437D01*
X0439633Y0162280D01*
X0434278Y0162280D01*
X0431916Y0165035D01*
X0431916Y0167398D01*
X0428801Y0170004D02*
X0436128Y0170004D01*
X0436128Y0169006D02*
X0427802Y0169006D01*
X0426804Y0168007D02*
X0436128Y0168007D01*
X0436529Y0167009D02*
X0425842Y0167009D01*
X0425842Y0166010D02*
X0453678Y0166010D01*
X0453678Y0167009D02*
X0443051Y0167009D01*
X0442731Y0165410D02*
X0442350Y0165512D01*
X0440077Y0165512D01*
X0440077Y0162724D01*
X0439503Y0162724D01*
X0439503Y0162150D01*
X0435928Y0162150D01*
X0435928Y0160665D01*
X0436030Y0160283D01*
X0436228Y0159941D01*
X0436507Y0159662D01*
X0436849Y0159464D01*
X0437230Y0159362D01*
X0439503Y0159362D01*
X0439503Y0162150D01*
X0440077Y0162150D01*
X0440077Y0159362D01*
X0442350Y0159362D01*
X0442731Y0159464D01*
X0443073Y0159662D01*
X0443353Y0159941D01*
X0443550Y0160283D01*
X0443652Y0160665D01*
X0443652Y0162150D01*
X0440077Y0162150D01*
X0440077Y0162724D01*
X0443652Y0162724D01*
X0443652Y0164209D01*
X0443550Y0164591D01*
X0443353Y0164933D01*
X0443073Y0165212D01*
X0442731Y0165410D01*
X0443274Y0165012D02*
X0453800Y0165012D01*
X0453878Y0164013D02*
X0443652Y0164013D01*
X0443652Y0163015D02*
X0453878Y0163015D01*
X0452729Y0162016D02*
X0443652Y0162016D01*
X0443652Y0161018D02*
X0451731Y0161018D01*
X0450732Y0160019D02*
X0443398Y0160019D01*
X0440077Y0160019D02*
X0439503Y0160019D01*
X0439503Y0161018D02*
X0440077Y0161018D01*
X0440077Y0162016D02*
X0439503Y0162016D01*
X0439503Y0162724D02*
X0435928Y0162724D01*
X0435928Y0164209D01*
X0436030Y0164591D01*
X0436228Y0164933D01*
X0436507Y0165212D01*
X0436849Y0165410D01*
X0437230Y0165512D01*
X0439503Y0165512D01*
X0439503Y0162724D01*
X0439503Y0163015D02*
X0440077Y0163015D01*
X0440077Y0164013D02*
X0439503Y0164013D01*
X0439503Y0165012D02*
X0440077Y0165012D01*
X0436306Y0165012D02*
X0425842Y0165012D01*
X0425842Y0164013D02*
X0435928Y0164013D01*
X0435928Y0163015D02*
X0425842Y0163015D01*
X0425842Y0162016D02*
X0435928Y0162016D01*
X0435928Y0161018D02*
X0425842Y0161018D01*
X0425842Y0160019D02*
X0436182Y0160019D01*
X0425842Y0159021D02*
X0449959Y0159021D01*
X0449959Y0158022D02*
X0425842Y0158022D01*
X0425842Y0157024D02*
X0449959Y0157024D01*
X0449571Y0156025D02*
X0446859Y0156025D01*
X0447547Y0155027D02*
X0448884Y0155027D01*
X0448884Y0154028D02*
X0447547Y0154028D01*
X0447547Y0153030D02*
X0448884Y0153030D01*
X0448884Y0152031D02*
X0447547Y0152031D01*
X0447547Y0151033D02*
X0448884Y0151033D01*
X0448884Y0150034D02*
X0447547Y0150034D01*
X0447046Y0149036D02*
X0449384Y0149036D01*
X0449870Y0145042D02*
X0464482Y0145042D01*
X0464896Y0144043D02*
X0463060Y0144043D01*
X0461050Y0141413D02*
X0468924Y0141413D01*
X0472678Y0145168D01*
X0472678Y0152024D01*
X0469578Y0152024D02*
X0469578Y0147580D01*
X0467743Y0145744D01*
X0472102Y0142046D02*
X0472129Y0142046D01*
X0473101Y0143045D02*
X0473128Y0143045D01*
X0475878Y0143250D02*
X0468924Y0136295D01*
X0456719Y0136295D01*
X0453681Y0135056D02*
X0448795Y0135056D01*
X0448795Y0134058D02*
X0454316Y0134058D01*
X0455957Y0133059D02*
X0448795Y0133059D01*
X0449720Y0132061D02*
X0465294Y0132061D01*
X0466292Y0133059D02*
X0457481Y0133059D01*
X0459122Y0134058D02*
X0467291Y0134058D01*
X0464295Y0131062D02*
X0450718Y0131062D01*
X0451717Y0130064D02*
X0463297Y0130064D01*
X0462298Y0129065D02*
X0452715Y0129065D01*
X0453714Y0128067D02*
X0461299Y0128067D01*
X0460301Y0127068D02*
X0454712Y0127068D01*
X0455711Y0126070D02*
X0459302Y0126070D01*
X0458304Y0125071D02*
X0456709Y0125071D01*
X0457507Y0121728D02*
X0478978Y0143200D01*
X0478978Y0152024D01*
X0475878Y0152024D02*
X0475878Y0143250D01*
X0471131Y0141047D02*
X0471104Y0141047D01*
X0470132Y0140049D02*
X0470105Y0140049D01*
X0469133Y0139050D02*
X0463327Y0139050D01*
X0458773Y0139050D02*
X0458604Y0139050D01*
X0458064Y0140049D02*
X0449870Y0140049D01*
X0449870Y0141047D02*
X0457769Y0141047D01*
X0457769Y0142046D02*
X0449870Y0142046D01*
X0449870Y0143045D02*
X0458174Y0143045D01*
X0459039Y0144043D02*
X0449870Y0144043D01*
X0449620Y0139050D02*
X0454834Y0139050D01*
X0453895Y0138052D02*
X0448795Y0138052D01*
X0448795Y0137053D02*
X0453482Y0137053D01*
X0453438Y0136055D02*
X0448795Y0136055D01*
X0445195Y0136055D02*
X0441708Y0136055D01*
X0441708Y0137053D02*
X0445195Y0137053D01*
X0445195Y0138052D02*
X0441708Y0138052D01*
X0442533Y0139050D02*
X0444370Y0139050D01*
X0444120Y0140049D02*
X0442783Y0140049D01*
X0442783Y0141047D02*
X0444120Y0141047D01*
X0445195Y0135056D02*
X0441708Y0135056D01*
X0441708Y0134058D02*
X0445195Y0134058D01*
X0445195Y0133059D02*
X0441708Y0133059D01*
X0441251Y0132061D02*
X0445195Y0132061D01*
X0445627Y0131062D02*
X0440252Y0131062D01*
X0439396Y0132752D02*
X0439908Y0133264D01*
X0439396Y0132752D02*
X0431916Y0132752D01*
X0430459Y0134209D01*
X0431995Y0132988D01*
X0431050Y0133146D01*
X0426798Y0136689D02*
X0426798Y0128421D01*
X0425617Y0127240D01*
X0425617Y0107240D01*
X0429917Y0107098D02*
X0440331Y0107098D01*
X0441329Y0108097D02*
X0429916Y0108097D01*
X0429503Y0109095D02*
X0442328Y0109095D01*
X0443326Y0110094D02*
X0428844Y0110094D01*
X0427554Y0111092D02*
X0444325Y0111092D01*
X0445323Y0112091D02*
X0427417Y0112091D01*
X0427417Y0113089D02*
X0446322Y0113089D01*
X0447320Y0114088D02*
X0427417Y0114088D01*
X0427417Y0115086D02*
X0448319Y0115086D01*
X0449317Y0116085D02*
X0427417Y0116085D01*
X0427417Y0117083D02*
X0450316Y0117083D01*
X0451314Y0118082D02*
X0427417Y0118082D01*
X0427417Y0119080D02*
X0452313Y0119080D01*
X0453311Y0120079D02*
X0427417Y0120079D01*
X0427417Y0121077D02*
X0454310Y0121077D01*
X0454614Y0122076D02*
X0427417Y0122076D01*
X0427417Y0123074D02*
X0453615Y0123074D01*
X0452617Y0124073D02*
X0427417Y0124073D01*
X0427417Y0125071D02*
X0451618Y0125071D01*
X0450620Y0126070D02*
X0427417Y0126070D01*
X0427991Y0127068D02*
X0449621Y0127068D01*
X0448622Y0128067D02*
X0428598Y0128067D01*
X0428598Y0129065D02*
X0428961Y0129065D01*
X0424896Y0129065D02*
X0423500Y0129065D01*
X0423467Y0129032D02*
X0423746Y0129311D01*
X0423944Y0129653D01*
X0424046Y0130035D01*
X0424046Y0132488D01*
X0420684Y0132488D01*
X0420684Y0133488D01*
X0424046Y0133488D01*
X0424046Y0135942D01*
X0423944Y0136323D01*
X0423746Y0136665D01*
X0423467Y0136944D01*
X0423125Y0137142D01*
X0422743Y0137244D01*
X0420684Y0137244D01*
X0420684Y0133488D01*
X0419684Y0133488D01*
X0419684Y0137244D01*
X0417624Y0137244D01*
X0417243Y0137142D01*
X0416900Y0136944D01*
X0416621Y0136665D01*
X0416424Y0136323D01*
X0416322Y0135942D01*
X0416322Y0133488D01*
X0419684Y0133488D01*
X0419684Y0132488D01*
X0420684Y0132488D01*
X0420684Y0128732D01*
X0422743Y0128732D01*
X0423125Y0128835D01*
X0423467Y0129032D01*
X0423898Y0128067D02*
X0397833Y0128067D01*
X0397833Y0129065D02*
X0416867Y0129065D01*
X0416900Y0129032D02*
X0417243Y0128835D01*
X0417624Y0128732D01*
X0419684Y0128732D01*
X0419684Y0132488D01*
X0416322Y0132488D01*
X0416322Y0130035D01*
X0416424Y0129653D01*
X0416621Y0129311D01*
X0416900Y0129032D01*
X0416322Y0130064D02*
X0397833Y0130064D01*
X0397833Y0131062D02*
X0416322Y0131062D01*
X0416322Y0132061D02*
X0397833Y0132061D01*
X0397833Y0133059D02*
X0419684Y0133059D01*
X0420026Y0133146D02*
X0420184Y0132988D01*
X0420026Y0133146D02*
X0413018Y0133146D01*
X0416322Y0134058D02*
X0397833Y0134058D01*
X0397833Y0135056D02*
X0416322Y0135056D01*
X0416352Y0136055D02*
X0397833Y0136055D01*
X0397833Y0137053D02*
X0417089Y0137053D01*
X0419684Y0137053D02*
X0420684Y0137053D01*
X0420684Y0136055D02*
X0419684Y0136055D01*
X0419684Y0135056D02*
X0420684Y0135056D01*
X0420684Y0134058D02*
X0419684Y0134058D01*
X0420684Y0133059D02*
X0424998Y0133059D01*
X0424998Y0132061D02*
X0424046Y0132061D01*
X0424046Y0131062D02*
X0424998Y0131062D01*
X0424998Y0130064D02*
X0424046Y0130064D01*
X0423817Y0127068D02*
X0397833Y0127068D01*
X0397833Y0126070D02*
X0423817Y0126070D01*
X0423817Y0125071D02*
X0397833Y0125071D01*
X0397833Y0124073D02*
X0423817Y0124073D01*
X0423817Y0123074D02*
X0397833Y0123074D01*
X0397833Y0122076D02*
X0414413Y0122076D01*
X0414091Y0121942D02*
X0413001Y0120852D01*
X0412411Y0119428D01*
X0412411Y0117887D01*
X0413001Y0116463D01*
X0414091Y0115373D01*
X0415515Y0114783D01*
X0417057Y0114783D01*
X0418481Y0115373D01*
X0419571Y0116463D01*
X0420161Y0117887D01*
X0420161Y0119428D01*
X0419571Y0120852D01*
X0418481Y0121942D01*
X0417057Y0122532D01*
X0415515Y0122532D01*
X0414091Y0121942D01*
X0413226Y0121077D02*
X0397833Y0121077D01*
X0397833Y0120079D02*
X0412681Y0120079D01*
X0412411Y0119080D02*
X0397833Y0119080D01*
X0397833Y0118082D02*
X0412411Y0118082D01*
X0412744Y0117083D02*
X0397833Y0117083D01*
X0397833Y0116085D02*
X0413379Y0116085D01*
X0414783Y0115086D02*
X0397833Y0115086D01*
X0397833Y0114088D02*
X0423817Y0114088D01*
X0423817Y0115086D02*
X0417790Y0115086D01*
X0419193Y0116085D02*
X0423817Y0116085D01*
X0423817Y0117083D02*
X0419828Y0117083D01*
X0420161Y0118082D02*
X0423817Y0118082D01*
X0423817Y0119080D02*
X0420161Y0119080D01*
X0419891Y0120079D02*
X0423817Y0120079D01*
X0423817Y0121077D02*
X0419346Y0121077D01*
X0418159Y0122076D02*
X0423817Y0122076D01*
X0420684Y0129065D02*
X0419684Y0129065D01*
X0419684Y0130064D02*
X0420684Y0130064D01*
X0420684Y0131062D02*
X0419684Y0131062D01*
X0419684Y0132061D02*
X0420684Y0132061D01*
X0424046Y0134058D02*
X0424998Y0134058D01*
X0424998Y0135056D02*
X0424046Y0135056D01*
X0424016Y0136055D02*
X0424998Y0136055D01*
X0424998Y0137053D02*
X0423278Y0137053D01*
X0425615Y0138052D02*
X0397833Y0138052D01*
X0397833Y0139050D02*
X0407506Y0139050D01*
X0407506Y0139044D02*
X0408267Y0138283D01*
X0414462Y0138283D01*
X0415224Y0139044D01*
X0415224Y0140834D01*
X0418070Y0140834D01*
X0418111Y0140736D01*
X0419034Y0139813D01*
X0420240Y0139313D01*
X0421545Y0139313D01*
X0422751Y0139813D01*
X0423674Y0140736D01*
X0424173Y0141942D01*
X0424173Y0143247D01*
X0423674Y0144453D01*
X0422751Y0145376D01*
X0421545Y0145876D01*
X0420240Y0145876D01*
X0419034Y0145376D01*
X0418111Y0144453D01*
X0418103Y0144434D01*
X0415224Y0144434D01*
X0415224Y0146224D01*
X0414462Y0146985D01*
X0413165Y0146985D01*
X0413165Y0175684D01*
X0414462Y0175684D01*
X0415224Y0176446D01*
X0415224Y0183625D01*
X0414462Y0184387D01*
X0408267Y0184387D01*
X0407506Y0183625D01*
X0407506Y0176446D01*
X0408267Y0175684D01*
X0409565Y0175684D01*
X0409565Y0162639D01*
X0409107Y0163744D01*
X0408184Y0164667D01*
X0406978Y0165167D01*
X0405673Y0165167D01*
X0405614Y0165143D01*
X0404818Y0165938D01*
X0404818Y0166570D01*
X0406313Y0166570D01*
X0407074Y0167332D01*
X0407074Y0173133D01*
X0406313Y0173894D01*
X0399724Y0173894D01*
X0398962Y0173133D01*
X0398962Y0167332D01*
X0399724Y0166570D01*
X0401218Y0166570D01*
X0401218Y0164447D01*
X0402273Y0163393D01*
X0403069Y0162597D01*
X0403044Y0162538D01*
X0403044Y0161233D01*
X0403544Y0160027D01*
X0404467Y0159104D01*
X0405673Y0158605D01*
X0406978Y0158605D01*
X0408184Y0159104D01*
X0409107Y0160027D01*
X0409565Y0161132D01*
X0409565Y0146985D01*
X0408267Y0146985D01*
X0407506Y0146224D01*
X0407506Y0139044D01*
X0407506Y0140049D02*
X0397833Y0140049D01*
X0397833Y0141047D02*
X0407506Y0141047D01*
X0407506Y0142046D02*
X0397833Y0142046D01*
X0397833Y0143045D02*
X0407506Y0143045D01*
X0407506Y0144043D02*
X0397833Y0144043D01*
X0397833Y0145042D02*
X0407506Y0145042D01*
X0407506Y0146040D02*
X0397833Y0146040D01*
X0397833Y0147039D02*
X0409565Y0147039D01*
X0409565Y0148037D02*
X0397833Y0148037D01*
X0397833Y0149036D02*
X0409565Y0149036D01*
X0409565Y0150034D02*
X0397833Y0150034D01*
X0397833Y0151033D02*
X0409565Y0151033D01*
X0409565Y0152031D02*
X0397833Y0152031D01*
X0397833Y0153030D02*
X0409565Y0153030D01*
X0409565Y0154028D02*
X0397833Y0154028D01*
X0397833Y0155027D02*
X0409565Y0155027D01*
X0409565Y0156025D02*
X0397833Y0156025D01*
X0397833Y0157024D02*
X0409565Y0157024D01*
X0409565Y0158022D02*
X0397833Y0158022D01*
X0397833Y0159021D02*
X0404669Y0159021D01*
X0403552Y0160019D02*
X0397833Y0160019D01*
X0397833Y0161018D02*
X0403134Y0161018D01*
X0403044Y0162016D02*
X0397833Y0162016D01*
X0397833Y0163015D02*
X0402651Y0163015D01*
X0401652Y0164013D02*
X0397833Y0164013D01*
X0397833Y0165012D02*
X0401218Y0165012D01*
X0401218Y0166010D02*
X0397833Y0166010D01*
X0397833Y0167009D02*
X0399285Y0167009D01*
X0398962Y0168007D02*
X0397833Y0168007D01*
X0397833Y0169006D02*
X0398962Y0169006D01*
X0398962Y0170004D02*
X0397833Y0170004D01*
X0397833Y0171003D02*
X0398962Y0171003D01*
X0398962Y0172001D02*
X0397833Y0172001D01*
X0397833Y0173000D02*
X0398962Y0173000D01*
X0397833Y0173998D02*
X0409565Y0173998D01*
X0409565Y0173000D02*
X0407074Y0173000D01*
X0407074Y0172001D02*
X0409565Y0172001D01*
X0409565Y0171003D02*
X0407074Y0171003D01*
X0407074Y0170004D02*
X0409565Y0170004D01*
X0409565Y0169006D02*
X0407074Y0169006D01*
X0407074Y0168007D02*
X0409565Y0168007D01*
X0409565Y0167009D02*
X0406751Y0167009D01*
X0407353Y0165012D02*
X0409565Y0165012D01*
X0409565Y0166010D02*
X0404818Y0166010D01*
X0403018Y0165193D02*
X0403018Y0170232D01*
X0403018Y0165193D02*
X0406325Y0161886D01*
X0409409Y0163015D02*
X0409565Y0163015D01*
X0409565Y0164013D02*
X0408838Y0164013D01*
X0409517Y0161018D02*
X0409565Y0161018D01*
X0409565Y0160019D02*
X0409099Y0160019D01*
X0409565Y0159021D02*
X0407982Y0159021D01*
X0413165Y0159021D02*
X0422242Y0159021D01*
X0422242Y0160019D02*
X0413165Y0160019D01*
X0413165Y0161018D02*
X0422242Y0161018D01*
X0422242Y0162016D02*
X0413165Y0162016D01*
X0413165Y0163015D02*
X0422242Y0163015D01*
X0422242Y0164013D02*
X0413165Y0164013D01*
X0413165Y0165012D02*
X0422242Y0165012D01*
X0422242Y0166010D02*
X0413165Y0166010D01*
X0413165Y0167009D02*
X0422242Y0167009D01*
X0422242Y0168007D02*
X0413165Y0168007D01*
X0413165Y0169006D02*
X0422711Y0169006D01*
X0423709Y0170004D02*
X0413165Y0170004D01*
X0413165Y0171003D02*
X0424708Y0171003D01*
X0425706Y0172001D02*
X0413165Y0172001D01*
X0413165Y0173000D02*
X0426705Y0173000D01*
X0427360Y0173998D02*
X0413165Y0173998D01*
X0413165Y0174997D02*
X0427360Y0174997D01*
X0425673Y0175995D02*
X0414773Y0175995D01*
X0415224Y0176994D02*
X0419173Y0176994D01*
X0417862Y0177992D02*
X0415224Y0177992D01*
X0415224Y0178991D02*
X0417364Y0178991D01*
X0417218Y0179989D02*
X0415224Y0179989D01*
X0415224Y0180988D02*
X0417358Y0180988D01*
X0417849Y0181986D02*
X0415224Y0181986D01*
X0415224Y0182985D02*
X0419141Y0182985D01*
X0421857Y0182985D02*
X0425222Y0182985D01*
X0425222Y0181986D02*
X0423148Y0181986D01*
X0423530Y0179996D02*
X0420499Y0179996D01*
X0423530Y0179996D02*
X0429081Y0180035D01*
X0429160Y0179957D01*
X0429160Y0172909D01*
X0424042Y0167791D01*
X0424042Y0151650D01*
X0429081Y0146610D01*
X0429081Y0142634D01*
X0429081Y0138972D01*
X0426798Y0136689D01*
X0425222Y0139050D02*
X0415224Y0139050D01*
X0415224Y0140049D02*
X0418798Y0140049D01*
X0420892Y0142594D02*
X0420853Y0142634D01*
X0411365Y0142634D01*
X0411365Y0180035D01*
X0407506Y0179989D02*
X0407274Y0179989D01*
X0407274Y0179484D02*
X0407274Y0181543D01*
X0403518Y0181543D01*
X0403518Y0178181D01*
X0405972Y0178181D01*
X0406353Y0178283D01*
X0406695Y0178481D01*
X0406975Y0178760D01*
X0407172Y0179102D01*
X0407274Y0179484D01*
X0407108Y0178991D02*
X0407506Y0178991D01*
X0407506Y0177992D02*
X0397833Y0177992D01*
X0397833Y0176994D02*
X0407506Y0176994D01*
X0407956Y0175995D02*
X0397833Y0175995D01*
X0397833Y0174997D02*
X0409565Y0174997D01*
X0403518Y0178991D02*
X0402518Y0178991D01*
X0402518Y0178181D02*
X0402518Y0181543D01*
X0398762Y0181543D01*
X0398762Y0179484D01*
X0398865Y0179102D01*
X0399062Y0178760D01*
X0399341Y0178481D01*
X0399683Y0178283D01*
X0400065Y0178181D01*
X0402518Y0178181D01*
X0402518Y0179989D02*
X0403518Y0179989D01*
X0403518Y0180988D02*
X0402518Y0180988D01*
X0402518Y0181543D02*
X0403518Y0181543D01*
X0403518Y0182543D01*
X0402518Y0182543D01*
X0402518Y0181543D01*
X0402518Y0181986D02*
X0397833Y0181986D01*
X0397833Y0180988D02*
X0398762Y0180988D01*
X0398762Y0179989D02*
X0397833Y0179989D01*
X0397833Y0178991D02*
X0398929Y0178991D01*
X0402782Y0182280D02*
X0403018Y0182043D01*
X0402782Y0182280D02*
X0402782Y0185508D01*
X0398058Y0190232D01*
X0397833Y0189975D02*
X0399895Y0189975D01*
X0399895Y0190491D02*
X0399895Y0189186D01*
X0400394Y0187980D01*
X0401317Y0187057D01*
X0402523Y0186557D01*
X0403828Y0186557D01*
X0405034Y0187057D01*
X0405957Y0187980D01*
X0405982Y0188039D01*
X0409947Y0188039D01*
X0409947Y0185757D01*
X0410708Y0184995D01*
X0414935Y0184995D01*
X0415696Y0185757D01*
X0415696Y0191558D01*
X0414935Y0192320D01*
X0410708Y0192320D01*
X0410027Y0191639D01*
X0405982Y0191639D01*
X0405957Y0191697D01*
X0405034Y0192620D01*
X0403828Y0193120D01*
X0402523Y0193120D01*
X0401317Y0192620D01*
X0400394Y0191697D01*
X0399895Y0190491D01*
X0400094Y0190973D02*
X0397833Y0190973D01*
X0397833Y0191972D02*
X0400669Y0191972D01*
X0402162Y0192970D02*
X0397833Y0192970D01*
X0397833Y0193969D02*
X0418108Y0193969D01*
X0418108Y0194967D02*
X0404677Y0194967D01*
X0404247Y0194537D02*
X0405170Y0195460D01*
X0405670Y0196666D01*
X0405670Y0197972D01*
X0405170Y0199177D01*
X0404247Y0200100D01*
X0404188Y0200125D01*
X0404188Y0203288D01*
X0404294Y0203033D01*
X0405504Y0201823D01*
X0407084Y0201169D01*
X0408795Y0201169D01*
X0410375Y0201823D01*
X0411585Y0203033D01*
X0412240Y0204613D01*
X0412240Y0206324D01*
X0411585Y0207904D01*
X0410375Y0209114D01*
X0408795Y0209768D01*
X0407084Y0209768D01*
X0405504Y0209114D01*
X0405435Y0209045D01*
X0407003Y0211169D01*
X0409721Y0211169D01*
X0412240Y0213687D01*
X0412240Y0217250D01*
X0409891Y0219598D01*
X0412189Y0221897D01*
X0428021Y0221897D01*
X0432745Y0217172D01*
X0440065Y0217172D01*
X0440065Y0216544D01*
X0440826Y0215783D01*
X0446628Y0215783D01*
X0447389Y0216544D01*
X0447389Y0220771D01*
X0446628Y0221532D01*
X0440826Y0221532D01*
X0440066Y0220772D01*
X0434236Y0220772D01*
X0429512Y0225497D01*
X0410698Y0225497D01*
X0409644Y0224442D01*
X0406140Y0220938D01*
X0406140Y0219750D01*
X0403640Y0217250D01*
X0403640Y0213687D01*
X0404070Y0213257D01*
X0401020Y0209126D01*
X0400588Y0208694D01*
X0400588Y0208541D01*
X0400497Y0208418D01*
X0400588Y0207814D01*
X0400588Y0200125D01*
X0400530Y0200100D01*
X0399607Y0199177D01*
X0399107Y0197972D01*
X0399107Y0196666D01*
X0399607Y0195460D01*
X0400530Y0194537D01*
X0401736Y0194038D01*
X0403041Y0194038D01*
X0404247Y0194537D01*
X0404190Y0192970D02*
X0418108Y0192970D01*
X0417447Y0191972D02*
X0415283Y0191972D01*
X0415696Y0190973D02*
X0417033Y0190973D01*
X0417033Y0189975D02*
X0415696Y0189975D01*
X0415696Y0188976D02*
X0417033Y0188976D01*
X0417033Y0187978D02*
X0415696Y0187978D01*
X0415696Y0186979D02*
X0417033Y0186979D01*
X0417033Y0185980D02*
X0415696Y0185980D01*
X0414865Y0183983D02*
X0425581Y0183983D01*
X0422783Y0185980D02*
X0430158Y0185980D01*
X0431156Y0184982D02*
X0407173Y0184982D01*
X0407172Y0184984D02*
X0406975Y0185327D01*
X0406695Y0185606D01*
X0406353Y0185803D01*
X0405972Y0185905D01*
X0403518Y0185905D01*
X0403518Y0182543D01*
X0407274Y0182543D01*
X0407274Y0184603D01*
X0407172Y0184984D01*
X0407274Y0183983D02*
X0407864Y0183983D01*
X0407506Y0182985D02*
X0407274Y0182985D01*
X0407506Y0181986D02*
X0403518Y0181986D01*
X0403518Y0182985D02*
X0402518Y0182985D01*
X0402518Y0182543D02*
X0402518Y0185905D01*
X0400065Y0185905D01*
X0399683Y0185803D01*
X0399341Y0185606D01*
X0399062Y0185327D01*
X0398865Y0184984D01*
X0398762Y0184603D01*
X0398762Y0182543D01*
X0402518Y0182543D01*
X0402518Y0183983D02*
X0403518Y0183983D01*
X0403518Y0184982D02*
X0402518Y0184982D01*
X0401506Y0186979D02*
X0397833Y0186979D01*
X0397833Y0185980D02*
X0409947Y0185980D01*
X0409947Y0186979D02*
X0404846Y0186979D01*
X0405955Y0187978D02*
X0409947Y0187978D01*
X0412231Y0189839D02*
X0403176Y0189839D01*
X0405683Y0191972D02*
X0410360Y0191972D01*
X0412231Y0189839D02*
X0412822Y0188657D01*
X0419908Y0188657D02*
X0419908Y0203500D01*
X0417940Y0205469D01*
X0422240Y0205951D02*
X0423640Y0205951D01*
X0423640Y0206949D02*
X0422240Y0206949D01*
X0421541Y0207948D02*
X0424338Y0207948D01*
X0421916Y0208946D02*
X0420543Y0208946D01*
X0420918Y0209945D02*
X0406099Y0209945D01*
X0406836Y0210943D02*
X0419919Y0210943D01*
X0422782Y0210626D02*
X0417940Y0215469D01*
X0422240Y0215936D02*
X0427440Y0215936D01*
X0427440Y0216934D02*
X0428440Y0216934D01*
X0428440Y0215936D02*
X0440673Y0215936D01*
X0440065Y0216934D02*
X0432440Y0216934D01*
X0431985Y0217933D02*
X0431839Y0217933D01*
X0430986Y0218931D02*
X0430841Y0218931D01*
X0429988Y0219930D02*
X0429842Y0219930D01*
X0428989Y0220928D02*
X0411221Y0220928D01*
X0410222Y0219930D02*
X0426037Y0219930D01*
X0427440Y0219930D02*
X0428440Y0219930D01*
X0428440Y0218931D02*
X0427440Y0218931D01*
X0427440Y0217933D02*
X0428440Y0217933D01*
X0425039Y0218931D02*
X0420558Y0218931D01*
X0421556Y0217933D02*
X0424040Y0217933D01*
X0423440Y0216934D02*
X0422240Y0216934D01*
X0422240Y0214937D02*
X0423440Y0214937D01*
X0423440Y0213939D02*
X0422240Y0213939D01*
X0423013Y0212940D02*
X0424104Y0212940D01*
X0422782Y0210626D02*
X0430026Y0210626D01*
X0446877Y0193776D01*
X0462625Y0193776D01*
X0466562Y0189839D01*
X0466562Y0184608D01*
X0466378Y0184424D01*
X0463278Y0184424D02*
X0463278Y0186941D01*
X0460696Y0189524D01*
X0460617Y0189445D01*
X0435066Y0189445D01*
X0437179Y0191972D02*
X0461883Y0191972D01*
X0461792Y0190973D02*
X0462882Y0190973D01*
X0462790Y0189975D02*
X0463880Y0189975D01*
X0463789Y0188976D02*
X0464762Y0188976D01*
X0468362Y0188976D02*
X0475902Y0188976D01*
X0474904Y0189975D02*
X0468362Y0189975D01*
X0467973Y0190973D02*
X0473905Y0190973D01*
X0472907Y0191972D02*
X0466974Y0191972D01*
X0465976Y0192970D02*
X0471908Y0192970D01*
X0470910Y0193969D02*
X0464977Y0193969D01*
X0463979Y0194967D02*
X0469911Y0194967D01*
X0468913Y0195966D02*
X0447232Y0195966D01*
X0446234Y0196964D02*
X0467914Y0196964D01*
X0466916Y0197963D02*
X0445235Y0197963D01*
X0444237Y0198961D02*
X0465917Y0198961D01*
X0467388Y0200035D02*
X0467388Y0206000D01*
X0463588Y0205951D02*
X0457862Y0205951D01*
X0457862Y0206519D02*
X0457100Y0207280D01*
X0450511Y0207280D01*
X0449750Y0206519D01*
X0449750Y0204631D01*
X0447622Y0204631D01*
X0445527Y0206726D01*
X0445527Y0208696D01*
X0446628Y0208696D01*
X0447389Y0209458D01*
X0447389Y0213684D01*
X0446628Y0214446D01*
X0440826Y0214446D01*
X0440065Y0213684D01*
X0440065Y0209458D01*
X0440826Y0208696D01*
X0441927Y0208696D01*
X0441927Y0205235D01*
X0445077Y0202085D01*
X0446131Y0201031D01*
X0449750Y0201031D01*
X0449750Y0200717D01*
X0450511Y0199956D01*
X0457100Y0199956D01*
X0457862Y0200717D01*
X0457862Y0206519D01*
X0457431Y0206949D02*
X0463588Y0206949D01*
X0463588Y0207948D02*
X0445527Y0207948D01*
X0445527Y0206949D02*
X0450180Y0206949D01*
X0449750Y0205951D02*
X0446302Y0205951D01*
X0447301Y0204952D02*
X0449750Y0204952D01*
X0446877Y0202831D02*
X0453018Y0202831D01*
X0453806Y0203618D01*
X0457862Y0203954D02*
X0463588Y0203954D01*
X0463588Y0204952D02*
X0457862Y0204952D01*
X0457862Y0202955D02*
X0463588Y0202955D01*
X0463588Y0201957D02*
X0457862Y0201957D01*
X0457862Y0200958D02*
X0463588Y0200958D01*
X0464090Y0199960D02*
X0457104Y0199960D01*
X0450508Y0199960D02*
X0443238Y0199960D01*
X0442240Y0200958D02*
X0449750Y0200958D01*
X0446877Y0202831D02*
X0443727Y0205980D01*
X0443727Y0211571D01*
X0440065Y0211942D02*
X0431256Y0211942D01*
X0431775Y0212940D02*
X0440065Y0212940D01*
X0440320Y0213939D02*
X0432440Y0213939D01*
X0432440Y0214937D02*
X0453306Y0214937D01*
X0453306Y0214929D02*
X0449550Y0214929D01*
X0449550Y0212869D01*
X0449652Y0212488D01*
X0449850Y0212146D01*
X0450129Y0211867D01*
X0450471Y0211669D01*
X0450852Y0211567D01*
X0453306Y0211567D01*
X0453306Y0214929D01*
X0454306Y0214929D01*
X0454306Y0215929D01*
X0458062Y0215929D01*
X0458062Y0217989D01*
X0457959Y0218370D01*
X0457762Y0218712D01*
X0457483Y0218992D01*
X0457141Y0219189D01*
X0456759Y0219291D01*
X0454306Y0219291D01*
X0454306Y0215929D01*
X0453306Y0215929D01*
X0453306Y0219291D01*
X0450852Y0219291D01*
X0450471Y0219189D01*
X0450129Y0218992D01*
X0449850Y0218712D01*
X0449652Y0218370D01*
X0449550Y0217989D01*
X0449550Y0215929D01*
X0453306Y0215929D01*
X0453306Y0214929D01*
X0453806Y0215429D02*
X0453806Y0227791D01*
X0450026Y0231571D01*
X0450026Y0233933D01*
X0458688Y0241020D01*
X0463038Y0241020D01*
X0467388Y0241000D01*
X0477388Y0241000D01*
X0487388Y0241000D01*
X0497388Y0241000D01*
X0496888Y0240899D02*
X0487888Y0240899D01*
X0487888Y0240500D02*
X0487888Y0241500D01*
X0486888Y0241500D01*
X0486888Y0240500D01*
X0483388Y0240500D01*
X0483388Y0235803D01*
X0483491Y0235421D01*
X0483688Y0235079D01*
X0483967Y0234800D01*
X0484309Y0234602D01*
X0484691Y0234500D01*
X0486888Y0234500D01*
X0486888Y0240500D01*
X0487888Y0240500D01*
X0487888Y0234500D01*
X0490086Y0234500D01*
X0490467Y0234602D01*
X0490809Y0234800D01*
X0491089Y0235079D01*
X0491286Y0235421D01*
X0491388Y0235803D01*
X0491388Y0240500D01*
X0487888Y0240500D01*
X0487888Y0239900D02*
X0486888Y0239900D01*
X0486888Y0238902D02*
X0487888Y0238902D01*
X0487888Y0237903D02*
X0486888Y0237903D01*
X0486888Y0236905D02*
X0487888Y0236905D01*
X0487888Y0235906D02*
X0486888Y0235906D01*
X0486888Y0234908D02*
X0487888Y0234908D01*
X0490917Y0234908D02*
X0493860Y0234908D01*
X0493967Y0234800D02*
X0494309Y0234602D01*
X0494691Y0234500D01*
X0496888Y0234500D01*
X0496888Y0240500D01*
X0493388Y0240500D01*
X0493388Y0235803D01*
X0493491Y0235421D01*
X0493688Y0235079D01*
X0493967Y0234800D01*
X0493388Y0235906D02*
X0491388Y0235906D01*
X0491388Y0236905D02*
X0493388Y0236905D01*
X0493388Y0237903D02*
X0491388Y0237903D01*
X0491388Y0238902D02*
X0493388Y0238902D01*
X0493388Y0239900D02*
X0491388Y0239900D01*
X0491388Y0241500D02*
X0491388Y0246197D01*
X0491286Y0246579D01*
X0491089Y0246921D01*
X0490809Y0247200D01*
X0490467Y0247398D01*
X0490086Y0247500D01*
X0487888Y0247500D01*
X0487888Y0241500D01*
X0491388Y0241500D01*
X0491388Y0241897D02*
X0493388Y0241897D01*
X0493388Y0241500D02*
X0496888Y0241500D01*
X0496888Y0240500D01*
X0497888Y0240500D01*
X0497888Y0234500D01*
X0500086Y0234500D01*
X0500467Y0234602D01*
X0500809Y0234800D01*
X0501089Y0235079D01*
X0501286Y0235421D01*
X0501388Y0235803D01*
X0501388Y0240500D01*
X0497888Y0240500D01*
X0497888Y0241500D01*
X0496888Y0241500D01*
X0496888Y0247500D01*
X0494691Y0247500D01*
X0494309Y0247398D01*
X0493967Y0247200D01*
X0493688Y0246921D01*
X0493491Y0246579D01*
X0493388Y0246197D01*
X0493388Y0241500D01*
X0493388Y0242896D02*
X0491388Y0242896D01*
X0491388Y0243894D02*
X0493388Y0243894D01*
X0493388Y0244893D02*
X0491388Y0244893D01*
X0491388Y0245891D02*
X0493388Y0245891D01*
X0493670Y0246890D02*
X0491107Y0246890D01*
X0487888Y0246890D02*
X0486888Y0246890D01*
X0486888Y0247500D02*
X0484691Y0247500D01*
X0484309Y0247398D01*
X0483967Y0247200D01*
X0483688Y0246921D01*
X0483491Y0246579D01*
X0483388Y0246197D01*
X0483388Y0241500D01*
X0486888Y0241500D01*
X0486888Y0247500D01*
X0486888Y0245891D02*
X0487888Y0245891D01*
X0487888Y0244893D02*
X0486888Y0244893D01*
X0486888Y0243894D02*
X0487888Y0243894D01*
X0487888Y0242896D02*
X0486888Y0242896D01*
X0486888Y0241897D02*
X0487888Y0241897D01*
X0486888Y0240899D02*
X0477888Y0240899D01*
X0477888Y0240500D02*
X0477888Y0241500D01*
X0476888Y0241500D01*
X0476888Y0240500D01*
X0473388Y0240500D01*
X0473388Y0235803D01*
X0473491Y0235421D01*
X0473688Y0235079D01*
X0473967Y0234800D01*
X0474309Y0234602D01*
X0474691Y0234500D01*
X0476888Y0234500D01*
X0476888Y0240500D01*
X0477888Y0240500D01*
X0477888Y0234500D01*
X0480086Y0234500D01*
X0480467Y0234602D01*
X0480809Y0234800D01*
X0481089Y0235079D01*
X0481286Y0235421D01*
X0481388Y0235803D01*
X0481388Y0240500D01*
X0477888Y0240500D01*
X0477888Y0239900D02*
X0476888Y0239900D01*
X0476888Y0238902D02*
X0477888Y0238902D01*
X0477888Y0237903D02*
X0476888Y0237903D01*
X0476888Y0236905D02*
X0477888Y0236905D01*
X0477888Y0235906D02*
X0476888Y0235906D01*
X0476888Y0234908D02*
X0477888Y0234908D01*
X0480917Y0234908D02*
X0483860Y0234908D01*
X0483388Y0235906D02*
X0481388Y0235906D01*
X0481388Y0236905D02*
X0483388Y0236905D01*
X0483388Y0237903D02*
X0481388Y0237903D01*
X0481388Y0238902D02*
X0483388Y0238902D01*
X0483388Y0239900D02*
X0481388Y0239900D01*
X0481388Y0241500D02*
X0477888Y0241500D01*
X0477888Y0247500D01*
X0480086Y0247500D01*
X0480467Y0247398D01*
X0480809Y0247200D01*
X0481089Y0246921D01*
X0481286Y0246579D01*
X0481388Y0246197D01*
X0481388Y0241500D01*
X0481388Y0241897D02*
X0483388Y0241897D01*
X0483388Y0242896D02*
X0481388Y0242896D01*
X0481388Y0243894D02*
X0483388Y0243894D01*
X0483388Y0244893D02*
X0481388Y0244893D01*
X0481388Y0245891D02*
X0483388Y0245891D01*
X0483670Y0246890D02*
X0481107Y0246890D01*
X0477888Y0246890D02*
X0476888Y0246890D01*
X0476888Y0247500D02*
X0474691Y0247500D01*
X0474309Y0247398D01*
X0473967Y0247200D01*
X0473688Y0246921D01*
X0473491Y0246579D01*
X0473388Y0246197D01*
X0473388Y0241500D01*
X0476888Y0241500D01*
X0476888Y0247500D01*
X0476888Y0245891D02*
X0477888Y0245891D01*
X0477888Y0244893D02*
X0476888Y0244893D01*
X0476888Y0243894D02*
X0477888Y0243894D01*
X0477888Y0242896D02*
X0476888Y0242896D01*
X0476888Y0241897D02*
X0477888Y0241897D01*
X0476888Y0240899D02*
X0467888Y0240899D01*
X0467888Y0240500D02*
X0467888Y0241500D01*
X0466888Y0241500D01*
X0466888Y0240500D01*
X0463388Y0240500D01*
X0463388Y0235803D01*
X0463491Y0235421D01*
X0463688Y0235079D01*
X0463967Y0234800D01*
X0464309Y0234602D01*
X0464691Y0234500D01*
X0466888Y0234500D01*
X0466888Y0240500D01*
X0467888Y0240500D01*
X0467888Y0234500D01*
X0470086Y0234500D01*
X0470467Y0234602D01*
X0470809Y0234800D01*
X0471089Y0235079D01*
X0471286Y0235421D01*
X0471388Y0235803D01*
X0471388Y0240500D01*
X0467888Y0240500D01*
X0467888Y0239900D02*
X0466888Y0239900D01*
X0466888Y0238902D02*
X0467888Y0238902D01*
X0467888Y0237903D02*
X0466888Y0237903D01*
X0466888Y0236905D02*
X0467888Y0236905D01*
X0467888Y0235906D02*
X0466888Y0235906D01*
X0466888Y0234908D02*
X0467888Y0234908D01*
X0470917Y0234908D02*
X0473860Y0234908D01*
X0473388Y0235906D02*
X0471388Y0235906D01*
X0471388Y0236905D02*
X0473388Y0236905D01*
X0473388Y0237903D02*
X0471388Y0237903D01*
X0471388Y0238902D02*
X0473388Y0238902D01*
X0473388Y0239900D02*
X0471388Y0239900D01*
X0471388Y0241500D02*
X0471388Y0246197D01*
X0471286Y0246579D01*
X0471089Y0246921D01*
X0470809Y0247200D01*
X0470467Y0247398D01*
X0470086Y0247500D01*
X0467888Y0247500D01*
X0467888Y0241500D01*
X0471388Y0241500D01*
X0471388Y0241897D02*
X0473388Y0241897D01*
X0473388Y0242896D02*
X0471388Y0242896D01*
X0471388Y0243894D02*
X0473388Y0243894D01*
X0473388Y0244893D02*
X0471388Y0244893D01*
X0471388Y0245891D02*
X0473388Y0245891D01*
X0473670Y0246890D02*
X0471107Y0246890D01*
X0467888Y0246890D02*
X0466888Y0246890D01*
X0466888Y0247500D02*
X0464691Y0247500D01*
X0464309Y0247398D01*
X0463967Y0247200D01*
X0463688Y0246921D01*
X0463491Y0246579D01*
X0463388Y0246197D01*
X0463388Y0241500D01*
X0466888Y0241500D01*
X0466888Y0247500D01*
X0466888Y0245891D02*
X0467888Y0245891D01*
X0467888Y0244893D02*
X0466888Y0244893D01*
X0466888Y0243894D02*
X0467888Y0243894D01*
X0467888Y0242896D02*
X0466888Y0242896D01*
X0466888Y0241897D02*
X0467888Y0241897D01*
X0466888Y0240899D02*
X0448482Y0240899D01*
X0448477Y0240910D02*
X0447554Y0241833D01*
X0446348Y0242332D01*
X0445043Y0242332D01*
X0444984Y0242308D01*
X0444661Y0242631D01*
X0444661Y0242751D01*
X0446451Y0242751D01*
X0447212Y0243513D01*
X0447212Y0249708D01*
X0446451Y0250469D01*
X0439271Y0250469D01*
X0438510Y0249708D01*
X0438510Y0248410D01*
X0409810Y0248410D01*
X0409810Y0249708D01*
X0409049Y0250469D01*
X0401870Y0250469D01*
X0401108Y0249708D01*
X0401108Y0243513D01*
X0401870Y0242751D01*
X0409049Y0242751D01*
X0409810Y0243513D01*
X0409810Y0244810D01*
X0438510Y0244810D01*
X0438510Y0243513D01*
X0439271Y0242751D01*
X0441061Y0242751D01*
X0441061Y0241140D01*
X0442115Y0240086D01*
X0442439Y0239762D01*
X0442414Y0239704D01*
X0442414Y0238399D01*
X0442914Y0237193D01*
X0443837Y0236270D01*
X0445043Y0235770D01*
X0446348Y0235770D01*
X0447554Y0236270D01*
X0448477Y0237193D01*
X0448977Y0238399D01*
X0448977Y0239704D01*
X0448477Y0240910D01*
X0448895Y0239900D02*
X0463388Y0239900D01*
X0463388Y0238902D02*
X0448977Y0238902D01*
X0448771Y0237903D02*
X0463388Y0237903D01*
X0463388Y0236905D02*
X0448189Y0236905D01*
X0446676Y0235906D02*
X0463388Y0235906D01*
X0463860Y0234908D02*
X0397833Y0234908D01*
X0397833Y0235906D02*
X0444715Y0235906D01*
X0443202Y0236905D02*
X0397833Y0236905D01*
X0397833Y0237903D02*
X0442620Y0237903D01*
X0442414Y0238902D02*
X0397833Y0238902D01*
X0397833Y0239900D02*
X0442301Y0239900D01*
X0441302Y0240899D02*
X0397833Y0240899D01*
X0397833Y0241897D02*
X0441061Y0241897D01*
X0442861Y0241886D02*
X0442861Y0246610D01*
X0405459Y0246610D01*
X0401108Y0246890D02*
X0397833Y0246890D01*
X0397833Y0247888D02*
X0401108Y0247888D01*
X0401108Y0248887D02*
X0397833Y0248887D01*
X0397833Y0249885D02*
X0401286Y0249885D01*
X0397833Y0250884D02*
X0519577Y0250884D01*
X0519577Y0250930D02*
X0519577Y0249219D01*
X0520231Y0247639D01*
X0521441Y0246429D01*
X0523021Y0245775D01*
X0524377Y0245775D01*
X0524377Y0244375D01*
X0523021Y0244375D01*
X0521441Y0243720D01*
X0520231Y0242511D01*
X0519577Y0240930D01*
X0519577Y0239219D01*
X0520231Y0237639D01*
X0521441Y0236429D01*
X0523021Y0235775D01*
X0524377Y0235775D01*
X0524377Y0234375D01*
X0523021Y0234375D01*
X0521441Y0233720D01*
X0520231Y0232511D01*
X0519577Y0230930D01*
X0519577Y0229219D01*
X0520231Y0227639D01*
X0521063Y0226807D01*
X0511092Y0216835D01*
X0510037Y0215781D01*
X0510037Y0201700D01*
X0509979Y0201675D01*
X0509056Y0200752D01*
X0508556Y0199546D01*
X0508556Y0198241D01*
X0509056Y0197035D01*
X0509979Y0196112D01*
X0511185Y0195613D01*
X0512490Y0195613D01*
X0513696Y0196112D01*
X0514619Y0197035D01*
X0515118Y0198241D01*
X0515118Y0199546D01*
X0514619Y0200752D01*
X0513696Y0201675D01*
X0513637Y0201700D01*
X0513637Y0214290D01*
X0519577Y0220229D01*
X0519577Y0219219D01*
X0520231Y0217639D01*
X0521441Y0216429D01*
X0523021Y0215775D01*
X0530732Y0215775D01*
X0532312Y0216429D01*
X0533522Y0217639D01*
X0534177Y0219219D01*
X0534177Y0220930D01*
X0533522Y0222511D01*
X0532312Y0223720D01*
X0530732Y0224375D01*
X0523722Y0224375D01*
X0525122Y0225775D01*
X0530732Y0225775D01*
X0532312Y0226429D01*
X0533522Y0227639D01*
X0534177Y0229219D01*
X0534177Y0230930D01*
X0533522Y0232511D01*
X0532312Y0233720D01*
X0530732Y0234375D01*
X0529377Y0234375D01*
X0529377Y0235775D01*
X0530732Y0235775D01*
X0532312Y0236429D01*
X0533522Y0237639D01*
X0534177Y0239219D01*
X0534177Y0240930D01*
X0533522Y0242511D01*
X0532312Y0243720D01*
X0530732Y0244375D01*
X0529377Y0244375D01*
X0529377Y0245775D01*
X0530732Y0245775D01*
X0532312Y0246429D01*
X0533522Y0247639D01*
X0534177Y0249219D01*
X0534177Y0250930D01*
X0533522Y0252511D01*
X0532312Y0253720D01*
X0532017Y0253843D01*
X0540408Y0253843D01*
X0540408Y0029602D01*
X0534177Y0029602D01*
X0534177Y0031048D01*
X0533522Y0032629D01*
X0532312Y0033838D01*
X0530732Y0034493D01*
X0523021Y0034493D01*
X0521441Y0033838D01*
X0520231Y0032629D01*
X0519577Y0031048D01*
X0519577Y0029602D01*
X0397833Y0029602D01*
X0397833Y0253843D01*
X0521736Y0253843D01*
X0521441Y0253720D01*
X0520231Y0252511D01*
X0519577Y0250930D01*
X0519971Y0251882D02*
X0397833Y0251882D01*
X0397833Y0252881D02*
X0520601Y0252881D01*
X0519577Y0249885D02*
X0447035Y0249885D01*
X0447212Y0248887D02*
X0519714Y0248887D01*
X0520128Y0247888D02*
X0447212Y0247888D01*
X0447212Y0246890D02*
X0463670Y0246890D01*
X0463388Y0245891D02*
X0447212Y0245891D01*
X0447212Y0244893D02*
X0463388Y0244893D01*
X0463388Y0243894D02*
X0447212Y0243894D01*
X0446595Y0242896D02*
X0463388Y0242896D01*
X0463388Y0241897D02*
X0447399Y0241897D01*
X0445696Y0239051D02*
X0442861Y0241886D01*
X0439127Y0242896D02*
X0409193Y0242896D01*
X0409810Y0243894D02*
X0438510Y0243894D01*
X0438510Y0248887D02*
X0409810Y0248887D01*
X0409633Y0249885D02*
X0438687Y0249885D01*
X0439271Y0232753D02*
X0438510Y0231991D01*
X0438510Y0230694D01*
X0409810Y0230694D01*
X0409810Y0231991D01*
X0409049Y0232753D01*
X0401870Y0232753D01*
X0401108Y0231991D01*
X0401108Y0225796D01*
X0401870Y0225035D01*
X0409049Y0225035D01*
X0409810Y0225796D01*
X0409810Y0227094D01*
X0438510Y0227094D01*
X0438510Y0225796D01*
X0439271Y0225035D01*
X0445958Y0225035D01*
X0445958Y0224225D01*
X0446457Y0223019D01*
X0447380Y0222096D01*
X0448586Y0221597D01*
X0449891Y0221597D01*
X0451097Y0222096D01*
X0452020Y0223019D01*
X0452520Y0224225D01*
X0452520Y0225531D01*
X0452020Y0226737D01*
X0451097Y0227660D01*
X0449891Y0228159D01*
X0449531Y0228159D01*
X0448092Y0229358D01*
X0447622Y0229828D01*
X0447528Y0229828D01*
X0447456Y0229888D01*
X0447212Y0229865D01*
X0447212Y0231991D01*
X0446451Y0232753D01*
X0439271Y0232753D01*
X0438510Y0231912D02*
X0409810Y0231912D01*
X0409810Y0230914D02*
X0438510Y0230914D01*
X0438510Y0226919D02*
X0409810Y0226919D01*
X0409810Y0225921D02*
X0438510Y0225921D01*
X0442861Y0228894D02*
X0443727Y0228028D01*
X0444514Y0228028D01*
X0444121Y0228421D01*
X0444121Y0229996D01*
X0442861Y0228894D02*
X0405459Y0228894D01*
X0401108Y0228916D02*
X0397833Y0228916D01*
X0397833Y0227918D02*
X0401108Y0227918D01*
X0401108Y0226919D02*
X0397833Y0226919D01*
X0397833Y0225921D02*
X0401108Y0225921D01*
X0397833Y0224922D02*
X0410124Y0224922D01*
X0409644Y0224442D02*
X0409644Y0224442D01*
X0409125Y0223924D02*
X0397833Y0223924D01*
X0397833Y0222925D02*
X0408127Y0222925D01*
X0407128Y0221927D02*
X0397833Y0221927D01*
X0397833Y0220928D02*
X0406140Y0220928D01*
X0406140Y0219930D02*
X0397833Y0219930D01*
X0397833Y0218931D02*
X0405321Y0218931D01*
X0404323Y0217933D02*
X0397833Y0217933D01*
X0397833Y0216934D02*
X0403640Y0216934D01*
X0403640Y0215936D02*
X0397833Y0215936D01*
X0397833Y0214937D02*
X0403640Y0214937D01*
X0403640Y0213939D02*
X0397833Y0213939D01*
X0397833Y0212940D02*
X0403836Y0212940D01*
X0403099Y0211942D02*
X0397833Y0211942D01*
X0397833Y0210943D02*
X0402362Y0210943D01*
X0401625Y0209945D02*
X0397833Y0209945D01*
X0397833Y0208946D02*
X0400840Y0208946D01*
X0400568Y0207948D02*
X0397833Y0207948D01*
X0397833Y0206949D02*
X0400588Y0206949D01*
X0400588Y0205951D02*
X0397833Y0205951D01*
X0397833Y0204952D02*
X0400588Y0204952D01*
X0400588Y0203954D02*
X0397833Y0203954D01*
X0397833Y0202955D02*
X0400588Y0202955D01*
X0400588Y0201957D02*
X0397833Y0201957D01*
X0397833Y0200958D02*
X0400588Y0200958D01*
X0400389Y0199960D02*
X0397833Y0199960D01*
X0397833Y0198961D02*
X0399517Y0198961D01*
X0399107Y0197963D02*
X0397833Y0197963D01*
X0397833Y0196964D02*
X0399107Y0196964D01*
X0399398Y0195966D02*
X0397833Y0195966D01*
X0397833Y0194967D02*
X0400100Y0194967D01*
X0402388Y0197319D02*
X0402388Y0207949D01*
X0407940Y0215469D01*
X0407940Y0220193D01*
X0411444Y0223697D01*
X0428766Y0223697D01*
X0433491Y0218972D01*
X0443412Y0218972D01*
X0443727Y0218657D01*
X0447389Y0218931D02*
X0450069Y0218931D01*
X0449550Y0217933D02*
X0447389Y0217933D01*
X0447389Y0216934D02*
X0449550Y0216934D01*
X0449550Y0215936D02*
X0446781Y0215936D01*
X0447135Y0213939D02*
X0449550Y0213939D01*
X0449550Y0212940D02*
X0447389Y0212940D01*
X0447389Y0211942D02*
X0450054Y0211942D01*
X0447389Y0210943D02*
X0463588Y0210943D01*
X0463588Y0209945D02*
X0447389Y0209945D01*
X0446878Y0208946D02*
X0463588Y0208946D01*
X0463992Y0211942D02*
X0457558Y0211942D01*
X0457483Y0211867D02*
X0457762Y0212146D01*
X0457959Y0212488D01*
X0458062Y0212869D01*
X0458062Y0214929D01*
X0454306Y0214929D01*
X0454306Y0211567D01*
X0456759Y0211567D01*
X0457141Y0211669D01*
X0457483Y0211867D01*
X0458062Y0212940D02*
X0510037Y0212940D01*
X0510037Y0211942D02*
X0500785Y0211942D01*
X0501188Y0210943D02*
X0510037Y0210943D01*
X0510037Y0209945D02*
X0501188Y0209945D01*
X0501188Y0208946D02*
X0510037Y0208946D01*
X0510037Y0207948D02*
X0501188Y0207948D01*
X0501188Y0206949D02*
X0510037Y0206949D01*
X0510037Y0205951D02*
X0501188Y0205951D01*
X0501188Y0204952D02*
X0510037Y0204952D01*
X0510037Y0203954D02*
X0501188Y0203954D01*
X0501188Y0202955D02*
X0510037Y0202955D01*
X0510037Y0201957D02*
X0501188Y0201957D01*
X0504570Y0200958D02*
X0509262Y0200958D01*
X0508727Y0199960D02*
X0505335Y0199960D01*
X0505670Y0198961D02*
X0508556Y0198961D01*
X0508671Y0197963D02*
X0505670Y0197963D01*
X0506773Y0196964D02*
X0509127Y0196964D01*
X0510332Y0195966D02*
X0507879Y0195966D01*
X0508984Y0194967D02*
X0540408Y0194967D01*
X0540408Y0193969D02*
X0531713Y0193969D01*
X0532312Y0193720D02*
X0530732Y0194375D01*
X0523021Y0194375D01*
X0521441Y0193720D01*
X0520231Y0192511D01*
X0519577Y0190930D01*
X0519577Y0189219D01*
X0520231Y0187639D01*
X0521441Y0186429D01*
X0523021Y0185775D01*
X0530732Y0185775D01*
X0532312Y0186429D01*
X0533522Y0187639D01*
X0534177Y0189219D01*
X0534177Y0190930D01*
X0533522Y0192511D01*
X0532312Y0193720D01*
X0533062Y0192970D02*
X0540408Y0192970D01*
X0540408Y0191972D02*
X0533745Y0191972D01*
X0534159Y0190973D02*
X0540408Y0190973D01*
X0540408Y0189975D02*
X0534177Y0189975D01*
X0534076Y0188976D02*
X0540408Y0188976D01*
X0540408Y0187978D02*
X0533662Y0187978D01*
X0532862Y0186979D02*
X0540408Y0186979D01*
X0540408Y0185980D02*
X0531229Y0185980D01*
X0531677Y0183983D02*
X0540408Y0183983D01*
X0540408Y0182985D02*
X0533048Y0182985D01*
X0533739Y0181986D02*
X0540408Y0181986D01*
X0540408Y0180988D02*
X0534153Y0180988D01*
X0534177Y0179989D02*
X0540408Y0179989D01*
X0540408Y0178991D02*
X0534082Y0178991D01*
X0533668Y0177992D02*
X0540408Y0177992D01*
X0540408Y0176994D02*
X0532877Y0176994D01*
X0531264Y0175995D02*
X0540408Y0175995D01*
X0540408Y0174997D02*
X0517074Y0174997D01*
X0517074Y0175995D02*
X0522489Y0175995D01*
X0523021Y0174375D02*
X0521441Y0173720D01*
X0520231Y0172511D01*
X0519577Y0170930D01*
X0519577Y0169219D01*
X0520231Y0167639D01*
X0521441Y0166429D01*
X0523021Y0165775D01*
X0530732Y0165775D01*
X0532312Y0166429D01*
X0533522Y0167639D01*
X0534177Y0169219D01*
X0534177Y0170930D01*
X0533522Y0172511D01*
X0532312Y0173720D01*
X0530732Y0174375D01*
X0523021Y0174375D01*
X0522113Y0173998D02*
X0517074Y0173998D01*
X0517074Y0173000D02*
X0520721Y0173000D01*
X0520020Y0172001D02*
X0500483Y0172001D01*
X0500419Y0170945D02*
X0500038Y0170843D01*
X0499696Y0170645D01*
X0499416Y0170366D01*
X0499219Y0170024D01*
X0499117Y0169642D01*
X0499117Y0168157D01*
X0502692Y0168157D01*
X0502692Y0167583D01*
X0503266Y0167583D01*
X0503266Y0164795D01*
X0505539Y0164795D01*
X0505920Y0164898D01*
X0506262Y0165095D01*
X0506541Y0165374D01*
X0506739Y0165716D01*
X0506841Y0166098D01*
X0506841Y0167583D01*
X0503266Y0167583D01*
X0503266Y0168157D01*
X0503266Y0168158D02*
X0502692Y0168158D01*
X0502692Y0170945D01*
X0500419Y0170945D01*
X0499214Y0170004D02*
X0494878Y0170004D01*
X0494878Y0169824D02*
X0490478Y0169824D01*
X0490478Y0169824D01*
X0490478Y0172924D02*
X0487049Y0172924D01*
X0485459Y0171335D01*
X0485066Y0170941D01*
X0463018Y0170941D01*
X0461902Y0169824D01*
X0458078Y0169824D01*
X0457777Y0169524D01*
X0439790Y0169524D01*
X0436128Y0171003D02*
X0429799Y0171003D01*
X0430798Y0172001D02*
X0436492Y0172001D01*
X0433032Y0176124D02*
X0458078Y0176124D01*
X0461772Y0176124D01*
X0463018Y0174878D01*
X0463018Y0170941D01*
X0463629Y0169006D02*
X0479671Y0169006D01*
X0478943Y0168007D02*
X0462429Y0168007D01*
X0462478Y0167009D02*
X0478635Y0167009D01*
X0478635Y0166010D02*
X0462478Y0166010D01*
X0462357Y0165012D02*
X0479027Y0165012D01*
X0479873Y0164013D02*
X0462278Y0164013D01*
X0462278Y0163015D02*
X0486078Y0163015D01*
X0486078Y0164013D02*
X0483959Y0164013D01*
X0484805Y0165012D02*
X0485693Y0165012D01*
X0486626Y0166624D02*
X0485459Y0167791D01*
X0483097Y0167791D01*
X0481916Y0166610D01*
X0485459Y0167791D02*
X0485459Y0171335D01*
X0490478Y0172924D02*
X0498860Y0172924D01*
X0500026Y0174091D01*
X0502900Y0174091D01*
X0502979Y0174957D01*
X0513333Y0174957D01*
X0513412Y0175035D01*
X0513125Y0171024D02*
X0510852Y0171024D01*
X0510471Y0170921D01*
X0510129Y0170724D01*
X0509850Y0170445D01*
X0509652Y0170103D01*
X0509550Y0169721D01*
X0509550Y0168236D01*
X0513125Y0168236D01*
X0513125Y0171024D01*
X0513125Y0171003D02*
X0513699Y0171003D01*
X0513699Y0171024D02*
X0513699Y0168236D01*
X0513125Y0168236D01*
X0513125Y0167661D01*
X0513699Y0167661D01*
X0513699Y0164874D01*
X0515972Y0164874D01*
X0516353Y0164976D01*
X0516695Y0165174D01*
X0516975Y0165453D01*
X0517172Y0165795D01*
X0517274Y0166177D01*
X0517274Y0167661D01*
X0513700Y0167661D01*
X0513700Y0168236D01*
X0517274Y0168236D01*
X0517274Y0169721D01*
X0517172Y0170103D01*
X0516975Y0170445D01*
X0516695Y0170724D01*
X0516353Y0170921D01*
X0515972Y0171024D01*
X0513699Y0171024D01*
X0513699Y0170004D02*
X0513125Y0170004D01*
X0513125Y0169006D02*
X0513699Y0169006D01*
X0513700Y0168007D02*
X0520079Y0168007D01*
X0519665Y0169006D02*
X0517274Y0169006D01*
X0517198Y0170004D02*
X0519577Y0170004D01*
X0519607Y0171003D02*
X0516049Y0171003D01*
X0513412Y0167949D02*
X0513333Y0167870D01*
X0502979Y0167870D01*
X0502782Y0166886D01*
X0502782Y0164642D01*
X0505144Y0163067D01*
X0508294Y0163067D01*
X0510129Y0165174D02*
X0509850Y0165453D01*
X0509652Y0165795D01*
X0509550Y0166177D01*
X0509550Y0167661D01*
X0513125Y0167661D01*
X0513125Y0164874D01*
X0510852Y0164874D01*
X0510471Y0164976D01*
X0510129Y0165174D01*
X0510409Y0165012D02*
X0506118Y0165012D01*
X0506818Y0166010D02*
X0509594Y0166010D01*
X0509550Y0167009D02*
X0506841Y0167009D01*
X0506841Y0168157D02*
X0503266Y0168157D01*
X0503266Y0168158D02*
X0503266Y0170945D01*
X0505539Y0170945D01*
X0505920Y0170843D01*
X0506262Y0170645D01*
X0506541Y0170366D01*
X0506739Y0170024D01*
X0506841Y0169642D01*
X0506841Y0168157D01*
X0506841Y0169006D02*
X0509550Y0169006D01*
X0509626Y0170004D02*
X0506744Y0170004D01*
X0506641Y0173000D02*
X0509750Y0173000D01*
X0510775Y0171003D02*
X0494878Y0171003D01*
X0494878Y0169824D02*
X0494878Y0168627D01*
X0494776Y0168245D01*
X0494678Y0168076D01*
X0494678Y0165273D01*
X0494776Y0165103D01*
X0494878Y0164722D01*
X0494878Y0163524D01*
X0490478Y0163524D01*
X0490414Y0163461D01*
X0490478Y0163524D02*
X0490478Y0163524D01*
X0494878Y0163524D01*
X0494878Y0162327D01*
X0494776Y0161945D01*
X0494678Y0161776D01*
X0494678Y0159024D01*
X0513701Y0159024D01*
X0514755Y0157970D01*
X0514755Y0157970D01*
X0524661Y0148064D01*
X0524661Y0131613D01*
X0523606Y0130558D01*
X0512049Y0119001D01*
X0517076Y0119001D01*
X0517142Y0119067D01*
X0516978Y0119462D01*
X0516978Y0121003D01*
X0517568Y0122427D01*
X0518658Y0123517D01*
X0520082Y0124107D01*
X0521624Y0124107D01*
X0523048Y0123517D01*
X0524138Y0122427D01*
X0524728Y0121003D01*
X0524728Y0119462D01*
X0524138Y0118037D01*
X0523048Y0116947D01*
X0521624Y0116357D01*
X0520082Y0116357D01*
X0519687Y0116521D01*
X0519622Y0116455D01*
X0518567Y0115401D01*
X0461992Y0115401D01*
X0437338Y0090747D01*
X0436284Y0089692D01*
X0429525Y0089692D01*
X0429262Y0089056D01*
X0428053Y0087847D01*
X0427348Y0087555D01*
X0428053Y0087263D01*
X0429262Y0086054D01*
X0429917Y0084473D01*
X0429917Y0082763D01*
X0429262Y0081182D01*
X0428053Y0079973D01*
X0427348Y0079681D01*
X0428053Y0079389D01*
X0429262Y0078180D01*
X0429917Y0076599D01*
X0429917Y0074889D01*
X0429262Y0073308D01*
X0428053Y0072099D01*
X0427348Y0071807D01*
X0428053Y0071515D01*
X0429262Y0070306D01*
X0429917Y0068725D01*
X0429917Y0067015D01*
X0429262Y0065434D01*
X0428053Y0064225D01*
X0427348Y0063933D01*
X0428053Y0063641D01*
X0429262Y0062432D01*
X0429917Y0060851D01*
X0429917Y0059141D01*
X0429262Y0057560D01*
X0428053Y0056351D01*
X0427348Y0056059D01*
X0428053Y0055767D01*
X0429262Y0054558D01*
X0429917Y0052977D01*
X0429917Y0051267D01*
X0429262Y0049686D01*
X0428053Y0048477D01*
X0427348Y0048185D01*
X0428053Y0047893D01*
X0429262Y0046684D01*
X0429917Y0045103D01*
X0429917Y0043393D01*
X0429262Y0041812D01*
X0428053Y0040603D01*
X0427599Y0040415D01*
X0427975Y0040223D01*
X0428548Y0039806D01*
X0429049Y0039306D01*
X0429466Y0038733D01*
X0429787Y0038101D01*
X0430006Y0037428D01*
X0430117Y0036728D01*
X0430117Y0036661D01*
X0425904Y0036661D01*
X0425904Y0036087D01*
X0430117Y0036087D01*
X0430117Y0036020D01*
X0430006Y0035320D01*
X0429787Y0034647D01*
X0429466Y0034016D01*
X0429049Y0033442D01*
X0428548Y0032942D01*
X0427975Y0032525D01*
X0427344Y0032204D01*
X0426671Y0031985D01*
X0425971Y0031874D01*
X0425904Y0031874D01*
X0425904Y0036087D01*
X0425329Y0036087D01*
X0421117Y0036087D01*
X0421117Y0036020D01*
X0421228Y0035320D01*
X0421446Y0034647D01*
X0421768Y0034016D01*
X0422184Y0033442D01*
X0422685Y0032942D01*
X0423258Y0032525D01*
X0423889Y0032204D01*
X0424563Y0031985D01*
X0425263Y0031874D01*
X0425329Y0031874D01*
X0425329Y0036087D01*
X0425329Y0036661D01*
X0421117Y0036661D01*
X0421117Y0036728D01*
X0421228Y0037428D01*
X0421446Y0038101D01*
X0421768Y0038733D01*
X0422184Y0039306D01*
X0422685Y0039806D01*
X0423258Y0040223D01*
X0423635Y0040415D01*
X0423181Y0040603D01*
X0421971Y0041812D01*
X0421317Y0043393D01*
X0421317Y0045103D01*
X0421971Y0046684D01*
X0423181Y0047893D01*
X0423885Y0048185D01*
X0423181Y0048477D01*
X0421971Y0049686D01*
X0421317Y0051267D01*
X0421317Y0052977D01*
X0421971Y0054558D01*
X0423181Y0055767D01*
X0423885Y0056059D01*
X0423181Y0056351D01*
X0421971Y0057560D01*
X0421317Y0059141D01*
X0421317Y0060851D01*
X0421971Y0062432D01*
X0423181Y0063641D01*
X0423885Y0063933D01*
X0423181Y0064225D01*
X0421971Y0065434D01*
X0421317Y0067015D01*
X0421317Y0068725D01*
X0421971Y0070306D01*
X0423181Y0071515D01*
X0423885Y0071807D01*
X0423181Y0072099D01*
X0421971Y0073308D01*
X0421317Y0074889D01*
X0421317Y0076599D01*
X0421971Y0078180D01*
X0423181Y0079389D01*
X0423885Y0079681D01*
X0423181Y0079973D01*
X0421971Y0081182D01*
X0421317Y0082763D01*
X0421317Y0084473D01*
X0421971Y0086054D01*
X0423181Y0087263D01*
X0423885Y0087555D01*
X0423181Y0087847D01*
X0421971Y0089056D01*
X0421317Y0090637D01*
X0421317Y0092347D01*
X0421971Y0093928D01*
X0423181Y0095137D01*
X0423885Y0095429D01*
X0423160Y0095116D02*
X0397833Y0095116D01*
X0397833Y0096114D02*
X0422787Y0096114D01*
X0421896Y0097113D02*
X0397833Y0097113D01*
X0397833Y0098112D02*
X0421482Y0098112D01*
X0421317Y0099110D02*
X0397833Y0099110D01*
X0397833Y0100109D02*
X0421317Y0100109D01*
X0421684Y0101107D02*
X0397833Y0101107D01*
X0397833Y0102106D02*
X0422275Y0102106D01*
X0423405Y0103104D02*
X0397833Y0103104D01*
X0397833Y0104103D02*
X0422673Y0104103D01*
X0421849Y0105101D02*
X0397833Y0105101D01*
X0397833Y0106100D02*
X0421435Y0106100D01*
X0421317Y0107098D02*
X0397833Y0107098D01*
X0397833Y0108097D02*
X0421317Y0108097D01*
X0421731Y0109095D02*
X0397833Y0109095D01*
X0397833Y0110094D02*
X0422389Y0110094D01*
X0423680Y0111092D02*
X0397833Y0111092D01*
X0397833Y0112091D02*
X0423817Y0112091D01*
X0423817Y0113089D02*
X0397833Y0113089D01*
X0427829Y0103104D02*
X0436337Y0103104D01*
X0437335Y0104103D02*
X0428560Y0104103D01*
X0429385Y0105101D02*
X0438334Y0105101D01*
X0439332Y0106100D02*
X0429799Y0106100D01*
X0428958Y0102106D02*
X0435338Y0102106D01*
X0442706Y0096114D02*
X0509402Y0096114D01*
X0509795Y0095721D02*
X0510499Y0095429D01*
X0509795Y0095137D01*
X0508586Y0093928D01*
X0507931Y0092347D01*
X0507931Y0090637D01*
X0508586Y0089056D01*
X0509795Y0087847D01*
X0510499Y0087555D01*
X0509795Y0087263D01*
X0508586Y0086054D01*
X0507931Y0084473D01*
X0507931Y0082763D01*
X0508586Y0081182D01*
X0509795Y0079973D01*
X0510499Y0079681D01*
X0509795Y0079389D01*
X0508586Y0078180D01*
X0507931Y0076599D01*
X0507931Y0074889D01*
X0508586Y0073308D01*
X0509795Y0072099D01*
X0510499Y0071807D01*
X0509795Y0071515D01*
X0508586Y0070306D01*
X0507931Y0068725D01*
X0507931Y0067015D01*
X0508586Y0065434D01*
X0509795Y0064225D01*
X0510499Y0063933D01*
X0509795Y0063641D01*
X0508586Y0062432D01*
X0507931Y0060851D01*
X0507931Y0059141D01*
X0508586Y0057560D01*
X0509795Y0056351D01*
X0510499Y0056059D01*
X0509795Y0055767D01*
X0508586Y0054558D01*
X0507931Y0052977D01*
X0507931Y0051267D01*
X0508586Y0049686D01*
X0509795Y0048477D01*
X0510499Y0048185D01*
X0509795Y0047893D01*
X0508586Y0046684D01*
X0507931Y0045103D01*
X0507931Y0043393D01*
X0508586Y0041812D01*
X0509795Y0040603D01*
X0510499Y0040311D01*
X0509795Y0040019D01*
X0508586Y0038810D01*
X0507931Y0037229D01*
X0507931Y0035519D01*
X0508586Y0033938D01*
X0509795Y0032729D01*
X0511376Y0032074D01*
X0513086Y0032074D01*
X0514667Y0032729D01*
X0515876Y0033938D01*
X0516531Y0035519D01*
X0516531Y0037229D01*
X0515876Y0038810D01*
X0514667Y0040019D01*
X0513963Y0040311D01*
X0514667Y0040603D01*
X0515876Y0041812D01*
X0516531Y0043393D01*
X0516531Y0045103D01*
X0515876Y0046684D01*
X0514667Y0047893D01*
X0513963Y0048185D01*
X0514667Y0048477D01*
X0515876Y0049686D01*
X0516531Y0051267D01*
X0516531Y0052977D01*
X0515876Y0054558D01*
X0514667Y0055767D01*
X0513963Y0056059D01*
X0514667Y0056351D01*
X0515876Y0057560D01*
X0516531Y0059141D01*
X0516531Y0060851D01*
X0515876Y0062432D01*
X0514667Y0063641D01*
X0513963Y0063933D01*
X0514667Y0064225D01*
X0515876Y0065434D01*
X0516531Y0067015D01*
X0516531Y0068725D01*
X0515876Y0070306D01*
X0514667Y0071515D01*
X0513963Y0071807D01*
X0514667Y0072099D01*
X0515876Y0073308D01*
X0516531Y0074889D01*
X0516531Y0076599D01*
X0515876Y0078180D01*
X0514667Y0079389D01*
X0513963Y0079681D01*
X0514667Y0079973D01*
X0515876Y0081182D01*
X0516531Y0082763D01*
X0516531Y0084473D01*
X0515876Y0086054D01*
X0514667Y0087263D01*
X0513963Y0087555D01*
X0514667Y0087847D01*
X0515876Y0089056D01*
X0516531Y0090637D01*
X0516531Y0092347D01*
X0515876Y0093928D01*
X0514667Y0095137D01*
X0513963Y0095429D01*
X0514667Y0095721D01*
X0515876Y0096930D01*
X0516531Y0098511D01*
X0516531Y0100221D01*
X0515876Y0101802D01*
X0514667Y0103011D01*
X0513963Y0103303D01*
X0514667Y0103595D01*
X0515876Y0104804D01*
X0516531Y0106385D01*
X0516531Y0108095D01*
X0515876Y0109676D01*
X0514667Y0110886D01*
X0513086Y0111540D01*
X0511376Y0111540D01*
X0509795Y0110886D01*
X0508586Y0109676D01*
X0507931Y0108095D01*
X0507931Y0106385D01*
X0508586Y0104804D01*
X0509795Y0103595D01*
X0510499Y0103303D01*
X0509795Y0103011D01*
X0508586Y0101802D01*
X0507931Y0100221D01*
X0507931Y0098511D01*
X0508586Y0096930D01*
X0509795Y0095721D01*
X0509774Y0095116D02*
X0441707Y0095116D01*
X0440709Y0094117D02*
X0508775Y0094117D01*
X0508251Y0093119D02*
X0439710Y0093119D01*
X0438712Y0092120D02*
X0507931Y0092120D01*
X0507931Y0091122D02*
X0437713Y0091122D01*
X0436715Y0090123D02*
X0508144Y0090123D01*
X0508557Y0089125D02*
X0429291Y0089125D01*
X0428332Y0088126D02*
X0509516Y0088126D01*
X0509660Y0087128D02*
X0428188Y0087128D01*
X0429187Y0086129D02*
X0508661Y0086129D01*
X0508203Y0085131D02*
X0429644Y0085131D01*
X0429917Y0084132D02*
X0507931Y0084132D01*
X0507931Y0083134D02*
X0429917Y0083134D01*
X0429657Y0082135D02*
X0508191Y0082135D01*
X0508631Y0081137D02*
X0429217Y0081137D01*
X0428218Y0080138D02*
X0509630Y0080138D01*
X0509546Y0079140D02*
X0428302Y0079140D01*
X0429278Y0078141D02*
X0508570Y0078141D01*
X0508156Y0077143D02*
X0429692Y0077143D01*
X0429917Y0076144D02*
X0507931Y0076144D01*
X0507931Y0075146D02*
X0429917Y0075146D01*
X0429610Y0074147D02*
X0508238Y0074147D01*
X0508745Y0073149D02*
X0429103Y0073149D01*
X0428104Y0072150D02*
X0436132Y0072150D01*
X0436381Y0072254D02*
X0435176Y0071754D01*
X0434253Y0070831D01*
X0433753Y0069625D01*
X0433753Y0068320D01*
X0434253Y0067114D01*
X0435176Y0066191D01*
X0436381Y0065691D01*
X0437687Y0065691D01*
X0438411Y0065991D01*
X0446039Y0065991D01*
X0446064Y0065933D01*
X0446987Y0065010D01*
X0448192Y0064510D01*
X0449498Y0064510D01*
X0450704Y0065010D01*
X0451627Y0065933D01*
X0452126Y0067139D01*
X0452126Y0068444D01*
X0451627Y0069650D01*
X0450704Y0070573D01*
X0449498Y0071072D01*
X0448192Y0071072D01*
X0446987Y0070573D01*
X0446064Y0069650D01*
X0446039Y0069591D01*
X0440315Y0069591D01*
X0440315Y0069625D01*
X0439816Y0070831D01*
X0438893Y0071754D01*
X0437687Y0072254D01*
X0436381Y0072254D01*
X0437936Y0072150D02*
X0509744Y0072150D01*
X0509431Y0071152D02*
X0439495Y0071152D01*
X0440096Y0070153D02*
X0446567Y0070153D01*
X0448845Y0067791D02*
X0438215Y0067791D01*
X0437034Y0068972D01*
X0433972Y0070153D02*
X0429325Y0070153D01*
X0429739Y0069155D02*
X0433753Y0069155D01*
X0433821Y0068156D02*
X0429917Y0068156D01*
X0429917Y0067158D02*
X0434234Y0067158D01*
X0435252Y0066159D02*
X0429562Y0066159D01*
X0428988Y0065161D02*
X0446836Y0065161D01*
X0450855Y0065161D02*
X0508859Y0065161D01*
X0508285Y0066159D02*
X0451720Y0066159D01*
X0452126Y0067158D02*
X0507931Y0067158D01*
X0507931Y0068156D02*
X0452126Y0068156D01*
X0451832Y0069155D02*
X0508109Y0069155D01*
X0508522Y0070153D02*
X0451123Y0070153D01*
X0434573Y0071152D02*
X0428416Y0071152D01*
X0423130Y0072150D02*
X0397833Y0072150D01*
X0397833Y0071152D02*
X0422817Y0071152D01*
X0421908Y0070153D02*
X0397833Y0070153D01*
X0397833Y0069155D02*
X0421495Y0069155D01*
X0421317Y0068156D02*
X0397833Y0068156D01*
X0397833Y0067158D02*
X0421317Y0067158D01*
X0421671Y0066159D02*
X0397833Y0066159D01*
X0397833Y0065161D02*
X0422245Y0065161D01*
X0423332Y0064162D02*
X0397833Y0064162D01*
X0397833Y0063164D02*
X0422703Y0063164D01*
X0421861Y0062165D02*
X0397833Y0062165D01*
X0397833Y0061167D02*
X0421447Y0061167D01*
X0421317Y0060168D02*
X0397833Y0060168D01*
X0397833Y0059170D02*
X0421317Y0059170D01*
X0421718Y0058171D02*
X0397833Y0058171D01*
X0397833Y0057173D02*
X0422359Y0057173D01*
X0423608Y0056174D02*
X0397833Y0056174D01*
X0397833Y0055176D02*
X0422589Y0055176D01*
X0421814Y0054177D02*
X0397833Y0054177D01*
X0397833Y0053178D02*
X0421400Y0053178D01*
X0421317Y0052180D02*
X0397833Y0052180D01*
X0397833Y0051181D02*
X0421352Y0051181D01*
X0421766Y0050183D02*
X0397833Y0050183D01*
X0397833Y0049184D02*
X0422473Y0049184D01*
X0423883Y0048186D02*
X0397833Y0048186D01*
X0397833Y0047187D02*
X0422475Y0047187D01*
X0421766Y0046189D02*
X0397833Y0046189D01*
X0397833Y0045190D02*
X0421353Y0045190D01*
X0421317Y0044192D02*
X0397833Y0044192D01*
X0397833Y0043193D02*
X0421399Y0043193D01*
X0421813Y0042195D02*
X0397833Y0042195D01*
X0397833Y0041196D02*
X0422587Y0041196D01*
X0423224Y0040198D02*
X0397833Y0040198D01*
X0397833Y0039199D02*
X0422107Y0039199D01*
X0421497Y0038201D02*
X0397833Y0038201D01*
X0397833Y0037202D02*
X0421192Y0037202D01*
X0421265Y0035205D02*
X0397833Y0035205D01*
X0397833Y0034207D02*
X0421671Y0034207D01*
X0422419Y0033208D02*
X0397833Y0033208D01*
X0397833Y0032210D02*
X0423877Y0032210D01*
X0425329Y0032210D02*
X0425904Y0032210D01*
X0425904Y0033208D02*
X0425329Y0033208D01*
X0425329Y0034207D02*
X0425904Y0034207D01*
X0425904Y0035205D02*
X0425329Y0035205D01*
X0425329Y0036204D02*
X0397833Y0036204D01*
X0397833Y0031211D02*
X0519644Y0031211D01*
X0519577Y0030213D02*
X0397833Y0030213D01*
X0425904Y0036204D02*
X0507931Y0036204D01*
X0507931Y0037202D02*
X0430042Y0037202D01*
X0429736Y0038201D02*
X0508333Y0038201D01*
X0508975Y0039199D02*
X0429126Y0039199D01*
X0428010Y0040198D02*
X0510226Y0040198D01*
X0509202Y0041196D02*
X0428646Y0041196D01*
X0429421Y0042195D02*
X0508427Y0042195D01*
X0508014Y0043193D02*
X0429834Y0043193D01*
X0429917Y0044192D02*
X0507931Y0044192D01*
X0507967Y0045190D02*
X0429881Y0045190D01*
X0429467Y0046189D02*
X0508381Y0046189D01*
X0509089Y0047187D02*
X0428759Y0047187D01*
X0427351Y0048186D02*
X0510497Y0048186D01*
X0509087Y0049184D02*
X0428760Y0049184D01*
X0429468Y0050183D02*
X0508380Y0050183D01*
X0507966Y0051181D02*
X0429881Y0051181D01*
X0429917Y0052180D02*
X0507931Y0052180D01*
X0508014Y0053178D02*
X0429833Y0053178D01*
X0429420Y0054177D02*
X0508428Y0054177D01*
X0509203Y0055176D02*
X0428644Y0055176D01*
X0427626Y0056174D02*
X0510222Y0056174D01*
X0508973Y0057173D02*
X0428874Y0057173D01*
X0429515Y0058171D02*
X0508333Y0058171D01*
X0507931Y0059170D02*
X0429917Y0059170D01*
X0429917Y0060168D02*
X0507931Y0060168D01*
X0508062Y0061167D02*
X0429786Y0061167D01*
X0429373Y0062165D02*
X0508475Y0062165D01*
X0509317Y0063164D02*
X0428530Y0063164D01*
X0427901Y0064162D02*
X0509946Y0064162D01*
X0514516Y0064162D02*
X0522223Y0064162D01*
X0521441Y0063838D02*
X0523021Y0064493D01*
X0530732Y0064493D01*
X0532312Y0063838D01*
X0533522Y0062629D01*
X0534177Y0061048D01*
X0534177Y0059338D01*
X0533522Y0057757D01*
X0532312Y0056548D01*
X0530732Y0055893D01*
X0523021Y0055893D01*
X0521441Y0056548D01*
X0520231Y0057757D01*
X0519577Y0059338D01*
X0519577Y0061048D01*
X0520231Y0062629D01*
X0521441Y0063838D01*
X0520766Y0063164D02*
X0515145Y0063164D01*
X0515987Y0062165D02*
X0520039Y0062165D01*
X0519626Y0061167D02*
X0516400Y0061167D01*
X0516531Y0060168D02*
X0519577Y0060168D01*
X0519646Y0059170D02*
X0516531Y0059170D01*
X0516129Y0058171D02*
X0520060Y0058171D01*
X0520816Y0057173D02*
X0515489Y0057173D01*
X0514240Y0056174D02*
X0522343Y0056174D01*
X0523021Y0054493D02*
X0521441Y0053838D01*
X0520231Y0052629D01*
X0519577Y0051048D01*
X0519577Y0049338D01*
X0520231Y0047757D01*
X0521441Y0046548D01*
X0523021Y0045893D01*
X0530732Y0045893D01*
X0532312Y0046548D01*
X0533522Y0047757D01*
X0534177Y0049338D01*
X0534177Y0051048D01*
X0533522Y0052629D01*
X0532312Y0053838D01*
X0530732Y0054493D01*
X0523021Y0054493D01*
X0522259Y0054177D02*
X0516034Y0054177D01*
X0516448Y0053178D02*
X0520781Y0053178D01*
X0520045Y0052180D02*
X0516531Y0052180D01*
X0516496Y0051181D02*
X0519632Y0051181D01*
X0519577Y0050183D02*
X0516082Y0050183D01*
X0515374Y0049184D02*
X0519640Y0049184D01*
X0520054Y0048186D02*
X0513965Y0048186D01*
X0515373Y0047187D02*
X0520801Y0047187D01*
X0522307Y0046189D02*
X0516081Y0046189D01*
X0516495Y0045190D02*
X0540408Y0045190D01*
X0540408Y0044192D02*
X0531459Y0044192D01*
X0530732Y0044493D02*
X0532312Y0043838D01*
X0533522Y0042629D01*
X0534177Y0041048D01*
X0534177Y0039338D01*
X0533522Y0037757D01*
X0532312Y0036548D01*
X0530732Y0035893D01*
X0523021Y0035893D01*
X0521441Y0036548D01*
X0520231Y0037757D01*
X0519577Y0039338D01*
X0519577Y0041048D01*
X0520231Y0042629D01*
X0521441Y0043838D01*
X0523021Y0044493D01*
X0530732Y0044493D01*
X0531447Y0046189D02*
X0540408Y0046189D01*
X0540408Y0047187D02*
X0532952Y0047187D01*
X0533700Y0048186D02*
X0540408Y0048186D01*
X0540408Y0049184D02*
X0534113Y0049184D01*
X0534177Y0050183D02*
X0540408Y0050183D01*
X0540408Y0051181D02*
X0534121Y0051181D01*
X0533708Y0052180D02*
X0540408Y0052180D01*
X0540408Y0053178D02*
X0532972Y0053178D01*
X0531495Y0054177D02*
X0540408Y0054177D01*
X0540408Y0055176D02*
X0515259Y0055176D01*
X0515603Y0065161D02*
X0540408Y0065161D01*
X0540408Y0066159D02*
X0531375Y0066159D01*
X0530732Y0065893D02*
X0532312Y0066548D01*
X0533522Y0067757D01*
X0534177Y0069338D01*
X0534177Y0071048D01*
X0533522Y0072629D01*
X0532312Y0073838D01*
X0530732Y0074493D01*
X0523021Y0074493D01*
X0521441Y0073838D01*
X0520231Y0072629D01*
X0519577Y0071048D01*
X0519577Y0069338D01*
X0520231Y0067757D01*
X0521441Y0066548D01*
X0523021Y0065893D01*
X0530732Y0065893D01*
X0531531Y0064162D02*
X0540408Y0064162D01*
X0540408Y0063164D02*
X0532987Y0063164D01*
X0533714Y0062165D02*
X0540408Y0062165D01*
X0540408Y0061167D02*
X0534128Y0061167D01*
X0534177Y0060168D02*
X0540408Y0060168D01*
X0540408Y0059170D02*
X0534107Y0059170D01*
X0533693Y0058171D02*
X0540408Y0058171D01*
X0540408Y0057173D02*
X0532937Y0057173D01*
X0531411Y0056174D02*
X0540408Y0056174D01*
X0522379Y0066159D02*
X0516177Y0066159D01*
X0516531Y0067158D02*
X0520831Y0067158D01*
X0520066Y0068156D02*
X0516531Y0068156D01*
X0516353Y0069155D02*
X0519652Y0069155D01*
X0519577Y0070153D02*
X0515940Y0070153D01*
X0515030Y0071152D02*
X0519620Y0071152D01*
X0520033Y0072150D02*
X0514718Y0072150D01*
X0515717Y0073149D02*
X0520751Y0073149D01*
X0522187Y0074147D02*
X0516224Y0074147D01*
X0516531Y0075146D02*
X0540408Y0075146D01*
X0540408Y0076144D02*
X0531339Y0076144D01*
X0530732Y0075893D02*
X0532312Y0076548D01*
X0533522Y0077757D01*
X0534177Y0079338D01*
X0534177Y0081048D01*
X0533522Y0082629D01*
X0532312Y0083838D01*
X0530732Y0084493D01*
X0523021Y0084493D01*
X0521441Y0083838D01*
X0520231Y0082629D01*
X0519577Y0081048D01*
X0519577Y0079338D01*
X0520231Y0077757D01*
X0521441Y0076548D01*
X0523021Y0075893D01*
X0530732Y0075893D01*
X0531566Y0074147D02*
X0540408Y0074147D01*
X0540408Y0073149D02*
X0533002Y0073149D01*
X0533720Y0072150D02*
X0540408Y0072150D01*
X0540408Y0071152D02*
X0534134Y0071152D01*
X0534177Y0070153D02*
X0540408Y0070153D01*
X0540408Y0069155D02*
X0534101Y0069155D01*
X0533687Y0068156D02*
X0540408Y0068156D01*
X0540408Y0067158D02*
X0532922Y0067158D01*
X0532908Y0077143D02*
X0540408Y0077143D01*
X0540408Y0078141D02*
X0533681Y0078141D01*
X0534095Y0079140D02*
X0540408Y0079140D01*
X0540408Y0080138D02*
X0534177Y0080138D01*
X0534140Y0081137D02*
X0540408Y0081137D01*
X0540408Y0082135D02*
X0533726Y0082135D01*
X0533017Y0083134D02*
X0540408Y0083134D01*
X0540408Y0084132D02*
X0531602Y0084132D01*
X0530732Y0085893D02*
X0532312Y0086548D01*
X0533522Y0087757D01*
X0534177Y0089338D01*
X0534177Y0091048D01*
X0533522Y0092629D01*
X0532312Y0093838D01*
X0530732Y0094493D01*
X0523021Y0094493D01*
X0521441Y0093838D01*
X0520231Y0092629D01*
X0519577Y0091048D01*
X0519577Y0089338D01*
X0520231Y0087757D01*
X0521441Y0086548D01*
X0523021Y0085893D01*
X0530732Y0085893D01*
X0531303Y0086129D02*
X0540408Y0086129D01*
X0540408Y0085131D02*
X0516259Y0085131D01*
X0516531Y0084132D02*
X0522151Y0084132D01*
X0520736Y0083134D02*
X0516531Y0083134D01*
X0516271Y0082135D02*
X0520027Y0082135D01*
X0519613Y0081137D02*
X0515831Y0081137D01*
X0514832Y0080138D02*
X0519577Y0080138D01*
X0519659Y0079140D02*
X0514916Y0079140D01*
X0515892Y0078141D02*
X0520072Y0078141D01*
X0520846Y0077143D02*
X0516306Y0077143D01*
X0516531Y0076144D02*
X0522415Y0076144D01*
X0522450Y0086129D02*
X0515801Y0086129D01*
X0514802Y0087128D02*
X0520861Y0087128D01*
X0520078Y0088126D02*
X0514946Y0088126D01*
X0515905Y0089125D02*
X0519665Y0089125D01*
X0519577Y0090123D02*
X0516318Y0090123D01*
X0516531Y0091122D02*
X0519607Y0091122D01*
X0520021Y0092120D02*
X0516531Y0092120D01*
X0516211Y0093119D02*
X0520722Y0093119D01*
X0522115Y0094117D02*
X0515687Y0094117D01*
X0514688Y0095116D02*
X0540408Y0095116D01*
X0540408Y0096114D02*
X0531267Y0096114D01*
X0530732Y0095893D02*
X0532312Y0096548D01*
X0533522Y0097757D01*
X0534177Y0099338D01*
X0534177Y0101048D01*
X0533522Y0102629D01*
X0532312Y0103838D01*
X0530732Y0104493D01*
X0523021Y0104493D01*
X0521441Y0103838D01*
X0520231Y0102629D01*
X0519577Y0101048D01*
X0519577Y0099338D01*
X0520231Y0097757D01*
X0521441Y0096548D01*
X0523021Y0095893D01*
X0530732Y0095893D01*
X0531638Y0094117D02*
X0540408Y0094117D01*
X0540408Y0093119D02*
X0533032Y0093119D01*
X0533733Y0092120D02*
X0540408Y0092120D01*
X0540408Y0091122D02*
X0534146Y0091122D01*
X0534177Y0090123D02*
X0540408Y0090123D01*
X0540408Y0089125D02*
X0534089Y0089125D01*
X0533675Y0088126D02*
X0540408Y0088126D01*
X0540408Y0087128D02*
X0532893Y0087128D01*
X0532878Y0097113D02*
X0540408Y0097113D01*
X0540408Y0098112D02*
X0533669Y0098112D01*
X0534082Y0099110D02*
X0540408Y0099110D01*
X0540408Y0100109D02*
X0534177Y0100109D01*
X0534152Y0101107D02*
X0540408Y0101107D01*
X0540408Y0102106D02*
X0533739Y0102106D01*
X0533047Y0103104D02*
X0540408Y0103104D01*
X0540408Y0104103D02*
X0531674Y0104103D01*
X0540408Y0105101D02*
X0515999Y0105101D01*
X0516413Y0106100D02*
X0540408Y0106100D01*
X0540408Y0107098D02*
X0516531Y0107098D01*
X0516530Y0108097D02*
X0540408Y0108097D01*
X0540408Y0109095D02*
X0516117Y0109095D01*
X0515459Y0110094D02*
X0540408Y0110094D01*
X0540408Y0111092D02*
X0514168Y0111092D01*
X0510294Y0111092D02*
X0457684Y0111092D01*
X0458682Y0112091D02*
X0540408Y0112091D01*
X0540408Y0113089D02*
X0459681Y0113089D01*
X0460679Y0114088D02*
X0540408Y0114088D01*
X0540408Y0115086D02*
X0461678Y0115086D01*
X0461247Y0117201D02*
X0517822Y0117201D01*
X0520853Y0120232D01*
X0518215Y0123074D02*
X0516122Y0123074D01*
X0515124Y0122076D02*
X0517423Y0122076D01*
X0517009Y0121077D02*
X0514125Y0121077D01*
X0513127Y0120079D02*
X0516978Y0120079D01*
X0517136Y0119080D02*
X0512128Y0119080D01*
X0511050Y0120547D02*
X0522861Y0132358D01*
X0522861Y0147319D01*
X0512955Y0157224D01*
X0490478Y0157224D01*
X0486278Y0157024D02*
X0462278Y0157024D01*
X0462278Y0158022D02*
X0486278Y0158022D01*
X0486278Y0159021D02*
X0462278Y0159021D01*
X0462278Y0160019D02*
X0486278Y0160019D01*
X0486278Y0161018D02*
X0462278Y0161018D01*
X0462278Y0162016D02*
X0486161Y0162016D01*
X0494678Y0161018D02*
X0519613Y0161018D01*
X0519577Y0160930D02*
X0519577Y0159219D01*
X0520231Y0157639D01*
X0521441Y0156429D01*
X0523021Y0155775D01*
X0530732Y0155775D01*
X0532312Y0156429D01*
X0533522Y0157639D01*
X0534177Y0159219D01*
X0534177Y0160930D01*
X0533522Y0162511D01*
X0532312Y0163720D01*
X0530732Y0164375D01*
X0523021Y0164375D01*
X0521441Y0163720D01*
X0520231Y0162511D01*
X0519577Y0160930D01*
X0519577Y0160019D02*
X0494678Y0160019D01*
X0494795Y0162016D02*
X0520027Y0162016D01*
X0520735Y0163015D02*
X0494878Y0163015D01*
X0494878Y0164013D02*
X0522148Y0164013D01*
X0522453Y0166010D02*
X0517230Y0166010D01*
X0517274Y0167009D02*
X0520862Y0167009D01*
X0516415Y0165012D02*
X0540408Y0165012D01*
X0540408Y0166010D02*
X0531300Y0166010D01*
X0532892Y0167009D02*
X0540408Y0167009D01*
X0540408Y0168007D02*
X0533675Y0168007D01*
X0534088Y0169006D02*
X0540408Y0169006D01*
X0540408Y0170004D02*
X0534177Y0170004D01*
X0534147Y0171003D02*
X0540408Y0171003D01*
X0540408Y0172001D02*
X0533733Y0172001D01*
X0533033Y0173000D02*
X0540408Y0173000D01*
X0540408Y0173998D02*
X0531641Y0173998D01*
X0526877Y0180075D02*
X0522782Y0180075D01*
X0502388Y0198500D01*
X0499473Y0196964D02*
X0499464Y0196964D01*
X0499464Y0195966D02*
X0500283Y0195966D01*
X0499464Y0194967D02*
X0503614Y0194967D01*
X0504719Y0193969D02*
X0499464Y0193969D01*
X0499464Y0192970D02*
X0505824Y0192970D01*
X0506929Y0191972D02*
X0499464Y0191972D01*
X0499464Y0190973D02*
X0508035Y0190973D01*
X0509140Y0189975D02*
X0499464Y0189975D01*
X0499464Y0188976D02*
X0510245Y0188976D01*
X0511350Y0187978D02*
X0499464Y0187978D01*
X0499464Y0186979D02*
X0512455Y0186979D01*
X0513560Y0185980D02*
X0499464Y0185980D01*
X0499464Y0184982D02*
X0514666Y0184982D01*
X0515771Y0183983D02*
X0499464Y0183983D01*
X0499464Y0182985D02*
X0516876Y0182985D01*
X0517981Y0181986D02*
X0499464Y0181986D01*
X0499464Y0180988D02*
X0519086Y0180988D01*
X0519577Y0179989D02*
X0498628Y0179989D01*
X0497630Y0178991D02*
X0519671Y0178991D01*
X0520085Y0177992D02*
X0496631Y0177992D01*
X0495318Y0179224D02*
X0497664Y0181571D01*
X0497664Y0205724D01*
X0497388Y0206000D01*
X0493588Y0205951D02*
X0491188Y0205951D01*
X0491188Y0206949D02*
X0493588Y0206949D01*
X0493588Y0207948D02*
X0491188Y0207948D01*
X0491188Y0208946D02*
X0493588Y0208946D01*
X0493588Y0209945D02*
X0491188Y0209945D01*
X0491188Y0210943D02*
X0493588Y0210943D01*
X0493992Y0211942D02*
X0490785Y0211942D01*
X0486272Y0215145D02*
X0485349Y0214222D01*
X0484143Y0213723D01*
X0482838Y0213723D01*
X0481632Y0214222D01*
X0480709Y0215145D01*
X0480685Y0215204D01*
X0471730Y0215204D01*
X0471705Y0215145D01*
X0470782Y0214222D01*
X0469577Y0213723D01*
X0468271Y0213723D01*
X0467065Y0214222D01*
X0466142Y0215145D01*
X0465643Y0216351D01*
X0465643Y0217657D01*
X0466142Y0218863D01*
X0467065Y0219786D01*
X0468271Y0220285D01*
X0469577Y0220285D01*
X0470782Y0219786D01*
X0471705Y0218863D01*
X0471730Y0218804D01*
X0480685Y0218804D01*
X0480709Y0218863D01*
X0481632Y0219786D01*
X0482838Y0220285D01*
X0484143Y0220285D01*
X0485349Y0219786D01*
X0486272Y0218863D01*
X0486772Y0217657D01*
X0486772Y0216351D01*
X0486272Y0215145D01*
X0486064Y0214937D02*
X0510037Y0214937D01*
X0510037Y0213939D02*
X0484665Y0213939D01*
X0483992Y0211942D02*
X0480785Y0211942D01*
X0481188Y0210943D02*
X0483588Y0210943D01*
X0483588Y0209945D02*
X0481188Y0209945D01*
X0481188Y0208946D02*
X0483588Y0208946D01*
X0483588Y0207948D02*
X0481188Y0207948D01*
X0481188Y0206949D02*
X0483588Y0206949D01*
X0483588Y0205951D02*
X0481188Y0205951D01*
X0481188Y0204952D02*
X0483588Y0204952D01*
X0483588Y0203954D02*
X0481188Y0203954D01*
X0481188Y0202955D02*
X0483588Y0202955D01*
X0483588Y0201957D02*
X0481188Y0201957D01*
X0481188Y0200958D02*
X0483588Y0200958D01*
X0484090Y0199960D02*
X0480687Y0199960D01*
X0479188Y0198961D02*
X0485588Y0198961D01*
X0485588Y0197963D02*
X0479188Y0197963D01*
X0479188Y0196964D02*
X0485588Y0196964D01*
X0485588Y0195966D02*
X0479188Y0195966D01*
X0479333Y0194967D02*
X0485588Y0194967D01*
X0485588Y0193969D02*
X0480332Y0193969D01*
X0481330Y0192970D02*
X0485588Y0192970D01*
X0485047Y0191972D02*
X0482329Y0191972D01*
X0483327Y0190973D02*
X0484048Y0190973D01*
X0485278Y0189657D02*
X0487388Y0191768D01*
X0487388Y0206000D01*
X0491188Y0204952D02*
X0493588Y0204952D01*
X0493588Y0203954D02*
X0491188Y0203954D01*
X0491188Y0202955D02*
X0493588Y0202955D01*
X0493588Y0201957D02*
X0491188Y0201957D01*
X0491188Y0200958D02*
X0493588Y0200958D01*
X0494090Y0199960D02*
X0490687Y0199960D01*
X0489188Y0198961D02*
X0495864Y0198961D01*
X0495864Y0197963D02*
X0489188Y0197963D01*
X0489188Y0196964D02*
X0495864Y0196964D01*
X0495864Y0195966D02*
X0489188Y0195966D01*
X0489188Y0194967D02*
X0495864Y0194967D01*
X0495864Y0193969D02*
X0489188Y0193969D01*
X0489188Y0192970D02*
X0495864Y0192970D01*
X0495864Y0191972D02*
X0489188Y0191972D01*
X0489139Y0190973D02*
X0495864Y0190973D01*
X0495864Y0189975D02*
X0488141Y0189975D01*
X0487142Y0188976D02*
X0495864Y0188976D01*
X0495864Y0187978D02*
X0487464Y0187978D01*
X0487578Y0186979D02*
X0495864Y0186979D01*
X0495864Y0185980D02*
X0487578Y0185980D01*
X0487578Y0184982D02*
X0495864Y0184982D01*
X0495864Y0183983D02*
X0487578Y0183983D01*
X0487578Y0182985D02*
X0495864Y0182985D01*
X0495534Y0181986D02*
X0487578Y0181986D01*
X0485278Y0184424D02*
X0485278Y0189657D01*
X0482178Y0189576D02*
X0477388Y0194366D01*
X0477388Y0206000D01*
X0473588Y0205951D02*
X0471188Y0205951D01*
X0471188Y0206949D02*
X0473588Y0206949D01*
X0473588Y0207948D02*
X0471188Y0207948D01*
X0471188Y0208946D02*
X0473588Y0208946D01*
X0473588Y0209945D02*
X0471188Y0209945D01*
X0471188Y0210943D02*
X0473588Y0210943D01*
X0473992Y0211942D02*
X0470785Y0211942D01*
X0470098Y0213939D02*
X0482317Y0213939D01*
X0480917Y0214937D02*
X0471497Y0214937D01*
X0468924Y0217004D02*
X0483491Y0217004D01*
X0486772Y0216934D02*
X0511191Y0216934D01*
X0512189Y0217933D02*
X0486657Y0217933D01*
X0486204Y0218931D02*
X0513188Y0218931D01*
X0514186Y0219930D02*
X0485001Y0219930D01*
X0481981Y0219930D02*
X0470434Y0219930D01*
X0471637Y0218931D02*
X0480778Y0218931D01*
X0486600Y0215936D02*
X0510192Y0215936D01*
X0511837Y0215035D02*
X0511837Y0198894D01*
X0515118Y0198961D02*
X0519684Y0198961D01*
X0519577Y0199219D02*
X0520231Y0197639D01*
X0521441Y0196429D01*
X0523021Y0195775D01*
X0530732Y0195775D01*
X0532312Y0196429D01*
X0533522Y0197639D01*
X0534177Y0199219D01*
X0534177Y0200930D01*
X0533522Y0202511D01*
X0532312Y0203720D01*
X0530732Y0204375D01*
X0523021Y0204375D01*
X0521441Y0203720D01*
X0520231Y0202511D01*
X0519577Y0200930D01*
X0519577Y0199219D01*
X0519577Y0199960D02*
X0514947Y0199960D01*
X0514413Y0200958D02*
X0519588Y0200958D01*
X0520002Y0201957D02*
X0513637Y0201957D01*
X0513637Y0202955D02*
X0520676Y0202955D01*
X0522005Y0203954D02*
X0513637Y0203954D01*
X0513637Y0204952D02*
X0540408Y0204952D01*
X0540408Y0203954D02*
X0531749Y0203954D01*
X0533077Y0202955D02*
X0540408Y0202955D01*
X0540408Y0201957D02*
X0533751Y0201957D01*
X0534165Y0200958D02*
X0540408Y0200958D01*
X0540408Y0199960D02*
X0534177Y0199960D01*
X0534070Y0198961D02*
X0540408Y0198961D01*
X0540408Y0197963D02*
X0533656Y0197963D01*
X0532847Y0196964D02*
X0540408Y0196964D01*
X0540408Y0195966D02*
X0531193Y0195966D01*
X0522561Y0195966D02*
X0513342Y0195966D01*
X0514548Y0196964D02*
X0520906Y0196964D01*
X0520097Y0197963D02*
X0515003Y0197963D01*
X0510089Y0193969D02*
X0522041Y0193969D01*
X0520691Y0192970D02*
X0511194Y0192970D01*
X0512299Y0191972D02*
X0520008Y0191972D01*
X0519594Y0190973D02*
X0513405Y0190973D01*
X0514510Y0189975D02*
X0519577Y0189975D01*
X0519677Y0188976D02*
X0515615Y0188976D01*
X0516720Y0187978D02*
X0520091Y0187978D01*
X0520891Y0186979D02*
X0517825Y0186979D01*
X0518930Y0185980D02*
X0522525Y0185980D01*
X0522077Y0183983D02*
X0521141Y0183983D01*
X0520036Y0184982D02*
X0540408Y0184982D01*
X0520876Y0176994D02*
X0517074Y0176994D01*
X0509750Y0176994D02*
X0506641Y0176994D01*
X0499317Y0176994D02*
X0494678Y0176994D01*
X0494678Y0175995D02*
X0499317Y0175995D01*
X0498387Y0174997D02*
X0494678Y0174997D01*
X0495318Y0179224D02*
X0490478Y0179224D01*
X0482178Y0184424D02*
X0482178Y0189576D01*
X0478978Y0188446D02*
X0467388Y0200035D01*
X0470687Y0199960D02*
X0474090Y0199960D01*
X0473588Y0200958D02*
X0471188Y0200958D01*
X0471188Y0201957D02*
X0473588Y0201957D01*
X0473588Y0202955D02*
X0471188Y0202955D01*
X0471188Y0203954D02*
X0473588Y0203954D01*
X0473588Y0204952D02*
X0471188Y0204952D01*
X0471008Y0198961D02*
X0475588Y0198961D01*
X0475588Y0197963D02*
X0472007Y0197963D01*
X0473005Y0196964D02*
X0475588Y0196964D01*
X0475588Y0195966D02*
X0474004Y0195966D01*
X0475002Y0194967D02*
X0475588Y0194967D01*
X0478978Y0188446D02*
X0478978Y0184424D01*
X0458078Y0179224D02*
X0439459Y0179224D01*
X0430026Y0188657D01*
X0419908Y0188657D01*
X0422783Y0190973D02*
X0432147Y0190973D01*
X0431785Y0189975D02*
X0431255Y0189975D01*
X0432952Y0191972D02*
X0422370Y0191972D01*
X0421708Y0192970D02*
X0445137Y0192970D01*
X0444138Y0193969D02*
X0421708Y0193969D01*
X0421708Y0194967D02*
X0443140Y0194967D01*
X0442141Y0195966D02*
X0421708Y0195966D01*
X0421708Y0196964D02*
X0441143Y0196964D01*
X0440144Y0197963D02*
X0421708Y0197963D01*
X0421708Y0198961D02*
X0439145Y0198961D01*
X0438147Y0199960D02*
X0421708Y0199960D01*
X0421708Y0200958D02*
X0437148Y0200958D01*
X0436150Y0201957D02*
X0430509Y0201957D01*
X0431507Y0202955D02*
X0435151Y0202955D01*
X0434153Y0203954D02*
X0432240Y0203954D01*
X0432240Y0204952D02*
X0433154Y0204952D01*
X0435250Y0207948D02*
X0441927Y0207948D01*
X0441927Y0206949D02*
X0436249Y0206949D01*
X0437247Y0205951D02*
X0441927Y0205951D01*
X0442210Y0204952D02*
X0438246Y0204952D01*
X0439244Y0203954D02*
X0443208Y0203954D01*
X0444207Y0202955D02*
X0440243Y0202955D01*
X0441241Y0201957D02*
X0445205Y0201957D01*
X0440576Y0208946D02*
X0434252Y0208946D01*
X0433253Y0209945D02*
X0440065Y0209945D01*
X0440065Y0210943D02*
X0432255Y0210943D01*
X0423640Y0204952D02*
X0422240Y0204952D01*
X0422240Y0203954D02*
X0423640Y0203954D01*
X0424372Y0202955D02*
X0421708Y0202955D01*
X0421708Y0201957D02*
X0425370Y0201957D01*
X0418108Y0200958D02*
X0404188Y0200958D01*
X0404188Y0201957D02*
X0405370Y0201957D01*
X0404372Y0202955D02*
X0404188Y0202955D01*
X0404388Y0199960D02*
X0418108Y0199960D01*
X0418108Y0198961D02*
X0405260Y0198961D01*
X0405670Y0197963D02*
X0418108Y0197963D01*
X0418108Y0196964D02*
X0405670Y0196964D01*
X0405379Y0195966D02*
X0418108Y0195966D01*
X0415370Y0201957D02*
X0410509Y0201957D01*
X0411507Y0202955D02*
X0414372Y0202955D01*
X0413640Y0203954D02*
X0411966Y0203954D01*
X0412240Y0204952D02*
X0413640Y0204952D01*
X0413640Y0205951D02*
X0412240Y0205951D01*
X0411981Y0206949D02*
X0413640Y0206949D01*
X0414338Y0207948D02*
X0411541Y0207948D01*
X0410543Y0208946D02*
X0415336Y0208946D01*
X0415385Y0211942D02*
X0410494Y0211942D01*
X0411493Y0212940D02*
X0414387Y0212940D01*
X0413640Y0213939D02*
X0412240Y0213939D01*
X0412240Y0214937D02*
X0413640Y0214937D01*
X0413640Y0215936D02*
X0412240Y0215936D01*
X0412240Y0216934D02*
X0413640Y0216934D01*
X0414323Y0217933D02*
X0411556Y0217933D01*
X0410558Y0218931D02*
X0415321Y0218931D01*
X0430086Y0224922D02*
X0445958Y0224922D01*
X0446083Y0223924D02*
X0431085Y0223924D01*
X0432083Y0222925D02*
X0446551Y0222925D01*
X0447789Y0221927D02*
X0433082Y0221927D01*
X0434080Y0220928D02*
X0440222Y0220928D01*
X0447232Y0220928D02*
X0515185Y0220928D01*
X0516183Y0221927D02*
X0450688Y0221927D01*
X0451926Y0222925D02*
X0517182Y0222925D01*
X0518180Y0223924D02*
X0452395Y0223924D01*
X0452520Y0224922D02*
X0519179Y0224922D01*
X0520177Y0225921D02*
X0452358Y0225921D01*
X0451837Y0226919D02*
X0520951Y0226919D01*
X0520116Y0227918D02*
X0450473Y0227918D01*
X0448622Y0228916D02*
X0519702Y0228916D01*
X0519577Y0229915D02*
X0447212Y0229915D01*
X0447212Y0230914D02*
X0519577Y0230914D01*
X0519983Y0231912D02*
X0447212Y0231912D01*
X0446877Y0228028D02*
X0449239Y0226059D01*
X0449239Y0224878D01*
X0446877Y0228028D02*
X0444514Y0228028D01*
X0447389Y0219930D02*
X0467414Y0219930D01*
X0466211Y0218931D02*
X0457543Y0218931D01*
X0458062Y0217933D02*
X0465757Y0217933D01*
X0465643Y0216934D02*
X0458062Y0216934D01*
X0458062Y0215936D02*
X0465815Y0215936D01*
X0466350Y0214937D02*
X0454306Y0214937D01*
X0454306Y0213939D02*
X0453306Y0213939D01*
X0453306Y0212940D02*
X0454306Y0212940D01*
X0454306Y0211942D02*
X0453306Y0211942D01*
X0453306Y0215936D02*
X0454306Y0215936D01*
X0454306Y0216934D02*
X0453306Y0216934D01*
X0453306Y0217933D02*
X0454306Y0217933D01*
X0454306Y0218931D02*
X0453306Y0218931D01*
X0458062Y0213939D02*
X0467750Y0213939D01*
X0511837Y0215035D02*
X0526877Y0230075D01*
X0531085Y0225921D02*
X0540408Y0225921D01*
X0540408Y0226919D02*
X0532802Y0226919D01*
X0533638Y0227918D02*
X0540408Y0227918D01*
X0540408Y0228916D02*
X0534051Y0228916D01*
X0534177Y0229915D02*
X0540408Y0229915D01*
X0540408Y0230914D02*
X0534177Y0230914D01*
X0533770Y0231912D02*
X0540408Y0231912D01*
X0540408Y0232911D02*
X0533122Y0232911D01*
X0531856Y0233909D02*
X0540408Y0233909D01*
X0540408Y0234908D02*
X0529377Y0234908D01*
X0531049Y0235906D02*
X0540408Y0235906D01*
X0540408Y0236905D02*
X0532788Y0236905D01*
X0533631Y0237903D02*
X0540408Y0237903D01*
X0540408Y0238902D02*
X0534045Y0238902D01*
X0534177Y0239900D02*
X0540408Y0239900D01*
X0540408Y0240899D02*
X0534177Y0240899D01*
X0533776Y0241897D02*
X0540408Y0241897D01*
X0540408Y0242896D02*
X0533137Y0242896D01*
X0531892Y0243894D02*
X0540408Y0243894D01*
X0540408Y0244893D02*
X0529377Y0244893D01*
X0531013Y0245891D02*
X0540408Y0245891D01*
X0540408Y0246890D02*
X0532773Y0246890D01*
X0533625Y0247888D02*
X0540408Y0247888D01*
X0540408Y0248887D02*
X0534039Y0248887D01*
X0534177Y0249885D02*
X0540408Y0249885D01*
X0540408Y0250884D02*
X0534177Y0250884D01*
X0533782Y0251882D02*
X0540408Y0251882D01*
X0540408Y0252881D02*
X0533152Y0252881D01*
X0520981Y0246890D02*
X0501107Y0246890D01*
X0501089Y0246921D02*
X0500809Y0247200D01*
X0500467Y0247398D01*
X0500086Y0247500D01*
X0497888Y0247500D01*
X0497888Y0241500D01*
X0501388Y0241500D01*
X0501388Y0246197D01*
X0501286Y0246579D01*
X0501089Y0246921D01*
X0501388Y0245891D02*
X0522740Y0245891D01*
X0524377Y0244893D02*
X0501388Y0244893D01*
X0501388Y0243894D02*
X0521861Y0243894D01*
X0520616Y0242896D02*
X0501388Y0242896D01*
X0501388Y0241897D02*
X0519977Y0241897D01*
X0519577Y0240899D02*
X0497888Y0240899D01*
X0497888Y0241897D02*
X0496888Y0241897D01*
X0496888Y0242896D02*
X0497888Y0242896D01*
X0497888Y0243894D02*
X0496888Y0243894D01*
X0496888Y0244893D02*
X0497888Y0244893D01*
X0497888Y0245891D02*
X0496888Y0245891D01*
X0496888Y0246890D02*
X0497888Y0246890D01*
X0497888Y0239900D02*
X0496888Y0239900D01*
X0496888Y0238902D02*
X0497888Y0238902D01*
X0497888Y0237903D02*
X0496888Y0237903D01*
X0496888Y0236905D02*
X0497888Y0236905D01*
X0497888Y0235906D02*
X0496888Y0235906D01*
X0496888Y0234908D02*
X0497888Y0234908D01*
X0500917Y0234908D02*
X0524377Y0234908D01*
X0522704Y0235906D02*
X0501388Y0235906D01*
X0501388Y0236905D02*
X0520966Y0236905D01*
X0520122Y0237903D02*
X0501388Y0237903D01*
X0501388Y0238902D02*
X0519708Y0238902D01*
X0519577Y0239900D02*
X0501388Y0239900D01*
X0520631Y0232911D02*
X0397833Y0232911D01*
X0397833Y0233909D02*
X0521897Y0233909D01*
X0524270Y0224922D02*
X0540408Y0224922D01*
X0540408Y0223924D02*
X0531820Y0223924D01*
X0533107Y0222925D02*
X0540408Y0222925D01*
X0540408Y0221927D02*
X0533764Y0221927D01*
X0534177Y0220928D02*
X0540408Y0220928D01*
X0540408Y0219930D02*
X0534177Y0219930D01*
X0534057Y0218931D02*
X0540408Y0218931D01*
X0540408Y0217933D02*
X0533644Y0217933D01*
X0532817Y0216934D02*
X0540408Y0216934D01*
X0540408Y0215936D02*
X0531121Y0215936D01*
X0530732Y0214375D02*
X0532312Y0213720D01*
X0533522Y0212511D01*
X0534177Y0210930D01*
X0534177Y0209219D01*
X0533522Y0207639D01*
X0532312Y0206429D01*
X0530732Y0205775D01*
X0523021Y0205775D01*
X0521441Y0206429D01*
X0520231Y0207639D01*
X0519577Y0209219D01*
X0519577Y0210930D01*
X0520231Y0212511D01*
X0521441Y0213720D01*
X0523021Y0214375D01*
X0530732Y0214375D01*
X0531784Y0213939D02*
X0540408Y0213939D01*
X0540408Y0214937D02*
X0514285Y0214937D01*
X0513637Y0213939D02*
X0521969Y0213939D01*
X0520661Y0212940D02*
X0513637Y0212940D01*
X0513637Y0211942D02*
X0519996Y0211942D01*
X0519582Y0210943D02*
X0513637Y0210943D01*
X0513637Y0209945D02*
X0519577Y0209945D01*
X0519690Y0208946D02*
X0513637Y0208946D01*
X0513637Y0207948D02*
X0520103Y0207948D01*
X0520921Y0206949D02*
X0513637Y0206949D01*
X0513637Y0205951D02*
X0522597Y0205951D01*
X0531157Y0205951D02*
X0540408Y0205951D01*
X0540408Y0206949D02*
X0532832Y0206949D01*
X0533650Y0207948D02*
X0540408Y0207948D01*
X0540408Y0208946D02*
X0534063Y0208946D01*
X0534177Y0209945D02*
X0540408Y0209945D01*
X0540408Y0210943D02*
X0534171Y0210943D01*
X0533758Y0211942D02*
X0540408Y0211942D01*
X0540408Y0212940D02*
X0533092Y0212940D01*
X0522633Y0215936D02*
X0515283Y0215936D01*
X0516282Y0216934D02*
X0520936Y0216934D01*
X0520110Y0217933D02*
X0517280Y0217933D01*
X0518279Y0218931D02*
X0519696Y0218931D01*
X0519577Y0219930D02*
X0519277Y0219930D01*
X0453878Y0173998D02*
X0430960Y0173998D01*
X0430960Y0173000D02*
X0453878Y0173000D01*
X0453878Y0172001D02*
X0443088Y0172001D01*
X0433032Y0176124D02*
X0429121Y0180035D01*
X0429081Y0180035D01*
X0425222Y0177992D02*
X0423135Y0177992D01*
X0421825Y0176994D02*
X0425222Y0176994D01*
X0430960Y0174997D02*
X0431614Y0174997D01*
X0407506Y0180988D02*
X0407274Y0180988D01*
X0398762Y0182985D02*
X0397833Y0182985D01*
X0397833Y0183983D02*
X0398762Y0183983D01*
X0398864Y0184982D02*
X0397833Y0184982D01*
X0397833Y0187978D02*
X0400397Y0187978D01*
X0399982Y0188976D02*
X0397833Y0188976D01*
X0451759Y0158500D02*
X0453583Y0160324D01*
X0458078Y0160324D01*
X0451759Y0158500D02*
X0451759Y0152437D01*
X0454633Y0153030D02*
X0460978Y0153030D01*
X0460978Y0154028D02*
X0454633Y0154028D01*
X0444672Y0152437D02*
X0433491Y0152437D01*
X0432536Y0154028D02*
X0425842Y0154028D01*
X0425842Y0153030D02*
X0429688Y0153030D01*
X0428445Y0152031D02*
X0426206Y0152031D01*
X0427205Y0151033D02*
X0427974Y0151033D01*
X0425109Y0148037D02*
X0413165Y0148037D01*
X0413165Y0147039D02*
X0426107Y0147039D01*
X0425222Y0146040D02*
X0415224Y0146040D01*
X0415224Y0145042D02*
X0418699Y0145042D01*
X0423085Y0145042D02*
X0425222Y0145042D01*
X0425222Y0144043D02*
X0423844Y0144043D01*
X0424173Y0143045D02*
X0425222Y0143045D01*
X0425222Y0142046D02*
X0424173Y0142046D01*
X0423803Y0141047D02*
X0425222Y0141047D01*
X0425222Y0140049D02*
X0422987Y0140049D01*
X0424110Y0149036D02*
X0413165Y0149036D01*
X0413165Y0150034D02*
X0423112Y0150034D01*
X0422242Y0151033D02*
X0413165Y0151033D01*
X0413165Y0152031D02*
X0422242Y0152031D01*
X0422242Y0153030D02*
X0413165Y0153030D01*
X0413165Y0154028D02*
X0422242Y0154028D01*
X0422242Y0155027D02*
X0413165Y0155027D01*
X0413165Y0156025D02*
X0422242Y0156025D01*
X0422242Y0157024D02*
X0413165Y0157024D01*
X0413165Y0158022D02*
X0422242Y0158022D01*
X0425842Y0156025D02*
X0442485Y0156025D01*
X0441797Y0155027D02*
X0425842Y0155027D01*
X0458078Y0166624D02*
X0458078Y0166624D01*
X0482178Y0152024D02*
X0482178Y0143382D01*
X0488058Y0143382D01*
X0488845Y0144169D01*
X0491720Y0144043D02*
X0493057Y0144043D01*
X0493057Y0143045D02*
X0491720Y0143045D01*
X0491720Y0142046D02*
X0493057Y0142046D01*
X0493057Y0141269D02*
X0493818Y0140507D01*
X0494132Y0140507D01*
X0494132Y0136101D01*
X0496651Y0133581D01*
X0497706Y0132527D01*
X0498569Y0132527D01*
X0498569Y0131190D01*
X0499330Y0130428D01*
X0505132Y0130428D01*
X0505893Y0131190D01*
X0505893Y0137779D01*
X0505132Y0138540D01*
X0499330Y0138540D01*
X0498569Y0137779D01*
X0498569Y0136755D01*
X0497732Y0137592D01*
X0497732Y0140507D01*
X0498045Y0140507D01*
X0498807Y0141269D01*
X0498807Y0147070D01*
X0498045Y0147831D01*
X0493818Y0147831D01*
X0493057Y0147070D01*
X0493057Y0141269D01*
X0493278Y0141047D02*
X0491499Y0141047D01*
X0491720Y0141269D02*
X0491720Y0147070D01*
X0490958Y0147831D01*
X0486824Y0147831D01*
X0487578Y0148586D01*
X0487578Y0150224D01*
X0507174Y0150224D01*
X0514880Y0142518D01*
X0514855Y0142460D01*
X0514855Y0141154D01*
X0515355Y0139948D01*
X0516278Y0139026D01*
X0517484Y0138526D01*
X0518789Y0138526D01*
X0519995Y0139026D01*
X0520918Y0139948D01*
X0521061Y0140293D01*
X0521061Y0133104D01*
X0510304Y0122347D01*
X0498189Y0122347D01*
X0498189Y0123168D01*
X0497690Y0124374D01*
X0496767Y0125297D01*
X0495561Y0125797D01*
X0494255Y0125797D01*
X0493050Y0125297D01*
X0492127Y0124374D01*
X0491627Y0123168D01*
X0491627Y0121863D01*
X0492127Y0120657D01*
X0493050Y0119734D01*
X0494255Y0119235D01*
X0495561Y0119235D01*
X0495619Y0119259D01*
X0495878Y0119001D01*
X0465592Y0119001D01*
X0483978Y0137387D01*
X0483978Y0141582D01*
X0485970Y0141582D01*
X0485970Y0141269D01*
X0486732Y0140507D01*
X0490958Y0140507D01*
X0491720Y0141269D01*
X0494132Y0140049D02*
X0483978Y0140049D01*
X0483978Y0141047D02*
X0486191Y0141047D01*
X0483978Y0139050D02*
X0494132Y0139050D01*
X0494132Y0138052D02*
X0483978Y0138052D01*
X0483645Y0137053D02*
X0494132Y0137053D01*
X0494178Y0136055D02*
X0482646Y0136055D01*
X0481648Y0135056D02*
X0495176Y0135056D01*
X0496175Y0134058D02*
X0480649Y0134058D01*
X0479651Y0133059D02*
X0497173Y0133059D01*
X0498569Y0132061D02*
X0478652Y0132061D01*
X0477654Y0131062D02*
X0498696Y0131062D01*
X0498451Y0134327D02*
X0502073Y0134327D01*
X0502231Y0134484D01*
X0505893Y0134058D02*
X0513542Y0134058D01*
X0513542Y0133984D02*
X0510180Y0133984D01*
X0510180Y0131531D01*
X0510282Y0131149D01*
X0510479Y0130807D01*
X0510759Y0130528D01*
X0511101Y0130331D01*
X0511482Y0130228D01*
X0513542Y0130228D01*
X0513542Y0133984D01*
X0514542Y0133984D01*
X0514542Y0130228D01*
X0516602Y0130228D01*
X0516983Y0130331D01*
X0517325Y0130528D01*
X0517604Y0130807D01*
X0517802Y0131149D01*
X0517904Y0131531D01*
X0517904Y0133984D01*
X0514542Y0133984D01*
X0514542Y0134984D01*
X0517904Y0134984D01*
X0517904Y0137438D01*
X0517802Y0137819D01*
X0517604Y0138161D01*
X0517325Y0138440D01*
X0516983Y0138638D01*
X0516602Y0138740D01*
X0514542Y0138740D01*
X0514542Y0134984D01*
X0513542Y0134984D01*
X0513542Y0133984D01*
X0514042Y0134484D02*
X0514042Y0131413D01*
X0508294Y0125665D01*
X0511031Y0123074D02*
X0498189Y0123074D01*
X0497815Y0124073D02*
X0512030Y0124073D01*
X0513028Y0125071D02*
X0496993Y0125071D01*
X0494908Y0122516D02*
X0496877Y0120547D01*
X0511050Y0120547D01*
X0517121Y0124073D02*
X0520000Y0124073D01*
X0521707Y0124073D02*
X0540408Y0124073D01*
X0540408Y0125071D02*
X0518120Y0125071D01*
X0519118Y0126070D02*
X0540408Y0126070D01*
X0540408Y0127068D02*
X0520117Y0127068D01*
X0521115Y0128067D02*
X0540408Y0128067D01*
X0540408Y0129065D02*
X0522114Y0129065D01*
X0523112Y0130064D02*
X0540408Y0130064D01*
X0540408Y0131062D02*
X0524111Y0131062D01*
X0524661Y0132061D02*
X0540408Y0132061D01*
X0540408Y0133059D02*
X0524661Y0133059D01*
X0524661Y0134058D02*
X0540408Y0134058D01*
X0540408Y0135056D02*
X0524661Y0135056D01*
X0524661Y0136055D02*
X0540408Y0136055D01*
X0540408Y0137053D02*
X0524661Y0137053D01*
X0524661Y0138052D02*
X0540408Y0138052D01*
X0540408Y0139050D02*
X0524661Y0139050D01*
X0524661Y0140049D02*
X0540408Y0140049D01*
X0540408Y0141047D02*
X0524661Y0141047D01*
X0524661Y0142046D02*
X0540408Y0142046D01*
X0540408Y0143045D02*
X0524661Y0143045D01*
X0524661Y0144043D02*
X0540408Y0144043D01*
X0540408Y0145042D02*
X0524661Y0145042D01*
X0524661Y0146040D02*
X0540408Y0146040D01*
X0540408Y0147039D02*
X0524661Y0147039D01*
X0524661Y0148037D02*
X0540408Y0148037D01*
X0540408Y0149036D02*
X0523690Y0149036D01*
X0522691Y0150034D02*
X0540408Y0150034D01*
X0540408Y0151033D02*
X0521693Y0151033D01*
X0520694Y0152031D02*
X0540408Y0152031D01*
X0540408Y0153030D02*
X0519696Y0153030D01*
X0518697Y0154028D02*
X0540408Y0154028D01*
X0540408Y0155027D02*
X0517699Y0155027D01*
X0516700Y0156025D02*
X0522417Y0156025D01*
X0520847Y0157024D02*
X0515702Y0157024D01*
X0514703Y0158022D02*
X0520073Y0158022D01*
X0519659Y0159021D02*
X0513705Y0159021D01*
X0507919Y0152024D02*
X0518136Y0141807D01*
X0514855Y0142046D02*
X0498807Y0142046D01*
X0498807Y0143045D02*
X0514353Y0143045D01*
X0513355Y0144043D02*
X0498807Y0144043D01*
X0498807Y0145042D02*
X0512356Y0145042D01*
X0511358Y0146040D02*
X0498807Y0146040D01*
X0498807Y0147039D02*
X0510359Y0147039D01*
X0509361Y0148037D02*
X0487029Y0148037D01*
X0487578Y0149036D02*
X0508362Y0149036D01*
X0507364Y0150034D02*
X0487578Y0150034D01*
X0485278Y0152024D02*
X0507919Y0152024D01*
X0493057Y0147039D02*
X0491720Y0147039D01*
X0491720Y0146040D02*
X0493057Y0146040D01*
X0493057Y0145042D02*
X0491720Y0145042D01*
X0495932Y0144169D02*
X0495932Y0136846D01*
X0498451Y0134327D01*
X0498569Y0137053D02*
X0498270Y0137053D01*
X0497732Y0138052D02*
X0498842Y0138052D01*
X0497732Y0139050D02*
X0516253Y0139050D01*
X0515313Y0140049D02*
X0497732Y0140049D01*
X0498585Y0141047D02*
X0514900Y0141047D01*
X0513542Y0138740D02*
X0511482Y0138740D01*
X0511101Y0138638D01*
X0510759Y0138440D01*
X0510479Y0138161D01*
X0510282Y0137819D01*
X0510180Y0137438D01*
X0510180Y0134984D01*
X0513542Y0134984D01*
X0513542Y0138740D01*
X0513542Y0138052D02*
X0514542Y0138052D01*
X0514542Y0137053D02*
X0513542Y0137053D01*
X0513542Y0136055D02*
X0514542Y0136055D01*
X0514542Y0135056D02*
X0513542Y0135056D01*
X0514542Y0134058D02*
X0521061Y0134058D01*
X0521061Y0135056D02*
X0517904Y0135056D01*
X0517904Y0136055D02*
X0521061Y0136055D01*
X0521061Y0137053D02*
X0517904Y0137053D01*
X0517668Y0138052D02*
X0521061Y0138052D01*
X0521061Y0139050D02*
X0520020Y0139050D01*
X0520960Y0140049D02*
X0521061Y0140049D01*
X0510416Y0138052D02*
X0505620Y0138052D01*
X0505893Y0137053D02*
X0510180Y0137053D01*
X0510180Y0136055D02*
X0505893Y0136055D01*
X0505893Y0135056D02*
X0510180Y0135056D01*
X0510180Y0133059D02*
X0505893Y0133059D01*
X0505893Y0132061D02*
X0510180Y0132061D01*
X0510332Y0131062D02*
X0505766Y0131062D01*
X0513542Y0131062D02*
X0514542Y0131062D01*
X0514542Y0132061D02*
X0513542Y0132061D01*
X0513542Y0133059D02*
X0514542Y0133059D01*
X0517904Y0133059D02*
X0521016Y0133059D01*
X0520018Y0132061D02*
X0517904Y0132061D01*
X0517752Y0131062D02*
X0519019Y0131062D01*
X0518021Y0130064D02*
X0476655Y0130064D01*
X0475657Y0129065D02*
X0517022Y0129065D01*
X0516024Y0128067D02*
X0474658Y0128067D01*
X0473660Y0127068D02*
X0515025Y0127068D01*
X0514027Y0126070D02*
X0472661Y0126070D01*
X0471663Y0125071D02*
X0492824Y0125071D01*
X0492002Y0124073D02*
X0470664Y0124073D01*
X0469666Y0123074D02*
X0491627Y0123074D01*
X0491627Y0122076D02*
X0468667Y0122076D01*
X0467669Y0121077D02*
X0491953Y0121077D01*
X0492705Y0120079D02*
X0466670Y0120079D01*
X0465672Y0119080D02*
X0495798Y0119080D01*
X0509003Y0110094D02*
X0456685Y0110094D01*
X0455687Y0109095D02*
X0508345Y0109095D01*
X0507931Y0108097D02*
X0454688Y0108097D01*
X0453690Y0107098D02*
X0507931Y0107098D01*
X0508049Y0106100D02*
X0452691Y0106100D01*
X0451693Y0105101D02*
X0508463Y0105101D01*
X0509287Y0104103D02*
X0450694Y0104103D01*
X0449696Y0103104D02*
X0510019Y0103104D01*
X0508889Y0102106D02*
X0448697Y0102106D01*
X0447699Y0101107D02*
X0508298Y0101107D01*
X0507931Y0100109D02*
X0446700Y0100109D01*
X0445702Y0099110D02*
X0507931Y0099110D01*
X0508096Y0098112D02*
X0444703Y0098112D01*
X0443705Y0097113D02*
X0508510Y0097113D01*
X0515060Y0096114D02*
X0522486Y0096114D01*
X0520875Y0097113D02*
X0515952Y0097113D01*
X0516366Y0098112D02*
X0520084Y0098112D01*
X0519671Y0099110D02*
X0516531Y0099110D01*
X0516531Y0100109D02*
X0519577Y0100109D01*
X0519601Y0101107D02*
X0516164Y0101107D01*
X0515573Y0102106D02*
X0520015Y0102106D01*
X0520707Y0103104D02*
X0514443Y0103104D01*
X0515174Y0104103D02*
X0522079Y0104103D01*
X0519251Y0116085D02*
X0540408Y0116085D01*
X0540408Y0117083D02*
X0523184Y0117083D01*
X0524156Y0118082D02*
X0540408Y0118082D01*
X0540408Y0119080D02*
X0524570Y0119080D01*
X0524728Y0120079D02*
X0540408Y0120079D01*
X0540408Y0121077D02*
X0524697Y0121077D01*
X0524283Y0122076D02*
X0540408Y0122076D01*
X0540408Y0123074D02*
X0523491Y0123074D01*
X0482178Y0138132D02*
X0482178Y0143382D01*
X0482178Y0138132D02*
X0461247Y0117201D01*
X0435538Y0091492D01*
X0425617Y0091492D01*
X0421636Y0093119D02*
X0397833Y0093119D01*
X0397833Y0094117D02*
X0422161Y0094117D01*
X0421317Y0092120D02*
X0397833Y0092120D01*
X0397833Y0091122D02*
X0421317Y0091122D01*
X0421529Y0090123D02*
X0397833Y0090123D01*
X0397833Y0089125D02*
X0421943Y0089125D01*
X0422901Y0088126D02*
X0397833Y0088126D01*
X0397833Y0087128D02*
X0423045Y0087128D01*
X0422047Y0086129D02*
X0397833Y0086129D01*
X0397833Y0085131D02*
X0421589Y0085131D01*
X0421317Y0084132D02*
X0397833Y0084132D01*
X0397833Y0083134D02*
X0421317Y0083134D01*
X0421577Y0082135D02*
X0397833Y0082135D01*
X0397833Y0081137D02*
X0422017Y0081137D01*
X0423015Y0080138D02*
X0397833Y0080138D01*
X0397833Y0079140D02*
X0422931Y0079140D01*
X0421955Y0078141D02*
X0397833Y0078141D01*
X0397833Y0077143D02*
X0421542Y0077143D01*
X0421317Y0076144D02*
X0397833Y0076144D01*
X0397833Y0075146D02*
X0421317Y0075146D01*
X0421624Y0074147D02*
X0397833Y0074147D01*
X0397833Y0073149D02*
X0422131Y0073149D01*
X0429969Y0035205D02*
X0508061Y0035205D01*
X0508474Y0034207D02*
X0429563Y0034207D01*
X0428815Y0033208D02*
X0509316Y0033208D01*
X0511048Y0032210D02*
X0427356Y0032210D01*
X0513414Y0032210D02*
X0520058Y0032210D01*
X0520811Y0033208D02*
X0515146Y0033208D01*
X0515988Y0034207D02*
X0522331Y0034207D01*
X0522271Y0036204D02*
X0516531Y0036204D01*
X0516531Y0037202D02*
X0520786Y0037202D01*
X0520047Y0038201D02*
X0516129Y0038201D01*
X0515487Y0039199D02*
X0519634Y0039199D01*
X0519577Y0040198D02*
X0514236Y0040198D01*
X0515260Y0041196D02*
X0519638Y0041196D01*
X0520052Y0042195D02*
X0516035Y0042195D01*
X0516448Y0043193D02*
X0520796Y0043193D01*
X0522295Y0044192D02*
X0516531Y0044192D01*
X0532957Y0043193D02*
X0540408Y0043193D01*
X0540408Y0042195D02*
X0533702Y0042195D01*
X0534115Y0041196D02*
X0540408Y0041196D01*
X0540408Y0040198D02*
X0534177Y0040198D01*
X0534119Y0039199D02*
X0540408Y0039199D01*
X0540408Y0038201D02*
X0533706Y0038201D01*
X0532967Y0037202D02*
X0540408Y0037202D01*
X0540408Y0036204D02*
X0531482Y0036204D01*
X0531423Y0034207D02*
X0540408Y0034207D01*
X0540408Y0035205D02*
X0516401Y0035205D01*
X0532942Y0033208D02*
X0540408Y0033208D01*
X0540408Y0032210D02*
X0533696Y0032210D01*
X0534109Y0031211D02*
X0540408Y0031211D01*
X0540408Y0030213D02*
X0534177Y0030213D01*
X0447624Y0129065D02*
X0435028Y0129065D01*
X0435657Y0130064D02*
X0446625Y0130064D01*
X0499696Y0165095D02*
X0500038Y0164898D01*
X0500419Y0164795D01*
X0502692Y0164795D01*
X0502692Y0167583D01*
X0499117Y0167583D01*
X0499117Y0166098D01*
X0499219Y0165716D01*
X0499416Y0165374D01*
X0499696Y0165095D01*
X0499840Y0165012D02*
X0494801Y0165012D01*
X0494678Y0166010D02*
X0499140Y0166010D01*
X0499239Y0167004D02*
X0502900Y0167004D01*
X0502979Y0167870D01*
X0503266Y0168007D02*
X0513125Y0168007D01*
X0513125Y0167009D02*
X0513699Y0167009D01*
X0513699Y0166010D02*
X0513125Y0166010D01*
X0513125Y0165012D02*
X0513699Y0165012D01*
X0503266Y0165012D02*
X0502692Y0165012D01*
X0502692Y0166010D02*
X0503266Y0166010D01*
X0503266Y0167009D02*
X0502692Y0167009D01*
X0502692Y0168007D02*
X0494678Y0168007D01*
X0494678Y0167009D02*
X0499117Y0167009D01*
X0499117Y0169006D02*
X0494878Y0169006D01*
X0490478Y0166624D02*
X0486626Y0166624D01*
X0502692Y0169006D02*
X0503266Y0169006D01*
X0503266Y0170004D02*
X0502692Y0170004D01*
X0531605Y0164013D02*
X0540408Y0164013D01*
X0540408Y0163015D02*
X0533018Y0163015D01*
X0533727Y0162016D02*
X0540408Y0162016D01*
X0540408Y0161018D02*
X0534140Y0161018D01*
X0534177Y0160019D02*
X0540408Y0160019D01*
X0540408Y0159021D02*
X0534094Y0159021D01*
X0533681Y0158022D02*
X0540408Y0158022D01*
X0540408Y0157024D02*
X0532907Y0157024D01*
X0531336Y0156025D02*
X0540408Y0156025D01*
X0401108Y0229915D02*
X0397833Y0229915D01*
X0397833Y0230914D02*
X0401108Y0230914D01*
X0401108Y0231912D02*
X0397833Y0231912D01*
X0397833Y0242896D02*
X0401725Y0242896D01*
X0401108Y0243894D02*
X0397833Y0243894D01*
X0397833Y0244893D02*
X0401108Y0244893D01*
X0401108Y0245891D02*
X0397833Y0245891D01*
D27*
X0445696Y0239051D03*
X0450026Y0231571D03*
X0449239Y0224878D03*
X0468924Y0217004D03*
X0483491Y0217004D03*
X0502388Y0198500D03*
X0511837Y0198894D03*
X0481916Y0166610D03*
X0508294Y0163067D03*
X0467743Y0145744D03*
X0461050Y0141413D03*
X0456719Y0136295D03*
X0431129Y0150075D03*
X0420892Y0142594D03*
X0413018Y0133146D03*
X0402388Y0121728D03*
X0406325Y0161886D03*
X0431916Y0167398D03*
X0420499Y0179996D03*
X0435066Y0189445D03*
X0403176Y0189839D03*
X0402388Y0197319D03*
X0518136Y0141807D03*
X0508294Y0125665D03*
X0494908Y0122516D03*
X0448845Y0067791D03*
X0437034Y0068972D03*
D28*
X0526877Y0230075D02*
X0526877Y0240075D01*
X0526877Y0250075D01*
M02*
