G75*
%MOIN*%
%OFA0B0*%
%FSLAX25Y25*%
%IPPOS*%
%LPD*%
%AMOC8*
5,1,8,0,0,1.08239X$1,22.5*
%
%ADD10C,0.00500*%
%ADD11C,0.00300*%
%ADD12C,0.00100*%
%ADD13C,0.00600*%
%ADD14C,0.00400*%
D10*
X0445420Y0150311D02*
X0472192Y0150311D01*
X0472192Y0152673D01*
X0475341Y0152673D01*
X0475341Y0156610D02*
X0472192Y0156610D01*
X0472192Y0170783D01*
X0475341Y0170783D01*
X0475341Y0174720D02*
X0472192Y0174720D01*
X0472192Y0177083D01*
X0445420Y0177083D01*
X0445420Y0150311D01*
D11*
X0416136Y0112615D02*
X0414201Y0109713D01*
X0416136Y0109713D02*
X0414201Y0112615D01*
X0417148Y0112132D02*
X0417148Y0111164D01*
X0417631Y0110680D01*
X0419083Y0110680D01*
X0419083Y0109713D02*
X0419083Y0112615D01*
X0417631Y0112615D01*
X0417148Y0112132D01*
X0418115Y0110680D02*
X0417148Y0109713D01*
X0448153Y0145343D02*
X0447744Y0145753D01*
X0447744Y0146572D01*
X0448563Y0146572D01*
X0447744Y0147391D02*
X0448153Y0147801D01*
X0448973Y0147801D01*
X0449382Y0147391D01*
X0449382Y0145753D01*
X0448973Y0145343D01*
X0448153Y0145343D01*
X0450281Y0145343D02*
X0451920Y0145343D01*
X0451920Y0147801D01*
X0450281Y0147801D01*
X0451101Y0146572D02*
X0451920Y0146572D01*
X0452819Y0146572D02*
X0453229Y0146162D01*
X0454458Y0146162D01*
X0454458Y0145343D02*
X0454458Y0147801D01*
X0453229Y0147801D01*
X0452819Y0147391D01*
X0452819Y0146572D01*
X0453638Y0146162D02*
X0452819Y0145343D01*
X0455356Y0145753D02*
X0455766Y0145343D01*
X0456585Y0145343D01*
X0456995Y0145753D01*
X0457854Y0145753D02*
X0457854Y0145343D01*
X0458264Y0145343D01*
X0458264Y0145753D01*
X0457854Y0145753D01*
X0459163Y0145753D02*
X0459573Y0145343D01*
X0460392Y0145343D01*
X0460802Y0145753D01*
X0459982Y0146572D02*
X0459573Y0146572D01*
X0459163Y0146162D01*
X0459163Y0145753D01*
X0459573Y0146572D02*
X0459163Y0146982D01*
X0459163Y0147391D01*
X0459573Y0147801D01*
X0460392Y0147801D01*
X0460802Y0147391D01*
X0456995Y0147391D02*
X0456585Y0147801D01*
X0455766Y0147801D01*
X0455356Y0147391D01*
X0455356Y0146982D01*
X0455766Y0146572D01*
X0455356Y0146162D01*
X0455356Y0145753D01*
X0455766Y0146572D02*
X0456176Y0146572D01*
X0518768Y0114190D02*
X0520703Y0111288D01*
X0518768Y0111288D02*
X0520703Y0114190D01*
X0521715Y0114190D02*
X0523650Y0114190D01*
X0522682Y0114190D02*
X0522682Y0111288D01*
D12*
X0503531Y0132401D02*
X0503030Y0132401D01*
X0502780Y0132651D01*
X0502308Y0132651D02*
X0502308Y0132401D01*
X0502308Y0132651D02*
X0501307Y0133652D01*
X0501307Y0133902D01*
X0502308Y0133902D01*
X0502780Y0133652D02*
X0503030Y0133902D01*
X0503531Y0133902D01*
X0503781Y0133652D01*
X0503781Y0132651D01*
X0503531Y0132401D01*
X0503387Y0140629D02*
X0502386Y0140629D01*
X0502887Y0140629D02*
X0502887Y0142130D01*
X0503387Y0141630D01*
X0503860Y0141880D02*
X0504110Y0142130D01*
X0504610Y0142130D01*
X0504861Y0141880D01*
X0504861Y0140879D01*
X0504610Y0140629D01*
X0504110Y0140629D01*
X0503860Y0140879D01*
X0501914Y0140879D02*
X0501664Y0140629D01*
X0501163Y0140629D01*
X0500913Y0140879D01*
X0500913Y0141130D01*
X0501163Y0141380D01*
X0501414Y0141380D01*
X0501163Y0141380D02*
X0500913Y0141630D01*
X0500913Y0141880D01*
X0501163Y0142130D01*
X0501664Y0142130D01*
X0501914Y0141880D01*
X0502110Y0148789D02*
X0501860Y0149039D01*
X0502110Y0148789D02*
X0502610Y0148789D01*
X0502861Y0149039D01*
X0502861Y0150040D01*
X0502610Y0150290D01*
X0502110Y0150290D01*
X0501860Y0150040D01*
X0501387Y0149789D02*
X0500887Y0150290D01*
X0500887Y0148789D01*
X0501387Y0148789D02*
X0500386Y0148789D01*
X0499914Y0149039D02*
X0498913Y0150040D01*
X0498913Y0149039D01*
X0499163Y0148789D01*
X0499664Y0148789D01*
X0499914Y0149039D01*
X0499914Y0150040D01*
X0499664Y0150290D01*
X0499163Y0150290D01*
X0498913Y0150040D01*
X0511146Y0163272D02*
X0510896Y0163522D01*
X0510896Y0164023D01*
X0511146Y0164273D01*
X0512397Y0164273D01*
X0512147Y0164745D02*
X0512397Y0164995D01*
X0512397Y0165496D01*
X0512147Y0165746D01*
X0512147Y0166218D02*
X0512397Y0166469D01*
X0512397Y0166969D01*
X0512147Y0167219D01*
X0511896Y0167219D01*
X0510896Y0166218D01*
X0510896Y0167219D01*
X0511146Y0165746D02*
X0511396Y0165746D01*
X0511646Y0165496D01*
X0511646Y0164995D01*
X0511896Y0164745D01*
X0512147Y0164745D01*
X0512647Y0165246D02*
X0510645Y0165246D01*
X0510896Y0165496D02*
X0511146Y0165746D01*
X0510896Y0165496D02*
X0510896Y0164995D01*
X0511146Y0164745D01*
X0511146Y0163272D02*
X0512397Y0163272D01*
X0501820Y0168724D02*
X0501570Y0168474D01*
X0501070Y0168474D01*
X0500820Y0168724D01*
X0500347Y0169224D02*
X0499346Y0169224D01*
X0499597Y0168474D02*
X0499597Y0169975D01*
X0500347Y0169224D01*
X0500820Y0169725D02*
X0501070Y0169975D01*
X0501570Y0169975D01*
X0501820Y0169725D01*
X0501820Y0168724D01*
X0501597Y0179212D02*
X0502097Y0179212D01*
X0502347Y0179462D01*
X0502820Y0179462D02*
X0503070Y0179212D01*
X0503570Y0179212D01*
X0503820Y0179462D01*
X0503820Y0180463D01*
X0503570Y0180713D01*
X0503070Y0180713D01*
X0502820Y0180463D01*
X0502347Y0180713D02*
X0502347Y0179962D01*
X0501847Y0180213D01*
X0501597Y0180213D01*
X0501346Y0179962D01*
X0501346Y0179462D01*
X0501597Y0179212D01*
X0501346Y0180713D02*
X0502347Y0180713D01*
X0502097Y0187913D02*
X0501597Y0187913D01*
X0501346Y0188163D01*
X0501346Y0188413D01*
X0501597Y0188663D01*
X0502347Y0188663D01*
X0502347Y0188163D01*
X0502097Y0187913D01*
X0502820Y0188163D02*
X0503070Y0187913D01*
X0503570Y0187913D01*
X0503820Y0188163D01*
X0503820Y0189164D01*
X0503570Y0189414D01*
X0503070Y0189414D01*
X0502820Y0189164D01*
X0502347Y0188663D02*
X0501847Y0189164D01*
X0501346Y0189414D01*
X0509063Y0200787D02*
X0510064Y0200787D01*
X0510536Y0200787D02*
X0511037Y0201287D01*
X0510786Y0201287D02*
X0511537Y0201287D01*
X0511537Y0200787D02*
X0511537Y0202288D01*
X0510786Y0202288D01*
X0510536Y0202038D01*
X0510536Y0201537D01*
X0510786Y0201287D01*
X0510064Y0201787D02*
X0509563Y0202288D01*
X0509563Y0200787D01*
X0509617Y0207873D02*
X0509116Y0207873D01*
X0508866Y0208123D01*
X0508866Y0208374D01*
X0509116Y0208624D01*
X0509867Y0208624D01*
X0509867Y0208123D01*
X0509617Y0207873D01*
X0510339Y0207873D02*
X0510840Y0208374D01*
X0510589Y0208374D02*
X0511340Y0208374D01*
X0511340Y0207873D02*
X0511340Y0209375D01*
X0510589Y0209375D01*
X0510339Y0209124D01*
X0510339Y0208624D01*
X0510589Y0208374D01*
X0509867Y0208624D02*
X0509366Y0209124D01*
X0508866Y0209375D01*
X0493978Y0212598D02*
X0493978Y0214099D01*
X0493227Y0214099D01*
X0492977Y0213849D01*
X0492977Y0213348D01*
X0493227Y0213098D01*
X0493978Y0213098D01*
X0493477Y0213098D02*
X0492977Y0212598D01*
X0492505Y0212598D02*
X0492505Y0212848D01*
X0491504Y0213849D01*
X0491504Y0214099D01*
X0492505Y0214099D01*
X0461127Y0225353D02*
X0461127Y0226104D01*
X0460877Y0226354D01*
X0460376Y0226354D01*
X0460126Y0226104D01*
X0460126Y0225353D01*
X0459625Y0225353D02*
X0461127Y0225353D01*
X0460126Y0225854D02*
X0459625Y0226354D01*
X0459876Y0226826D02*
X0459625Y0227077D01*
X0459625Y0227577D01*
X0459876Y0227827D01*
X0460877Y0227827D01*
X0461127Y0227577D01*
X0461127Y0227077D01*
X0460877Y0226826D01*
X0460626Y0226826D01*
X0460376Y0227077D01*
X0460376Y0227827D01*
X0473967Y0241957D02*
X0474968Y0241957D01*
X0473967Y0242958D01*
X0473967Y0243209D01*
X0474217Y0243459D01*
X0474717Y0243459D01*
X0474968Y0243209D01*
X0475440Y0243209D02*
X0475440Y0242708D01*
X0475690Y0242458D01*
X0476441Y0242458D01*
X0476441Y0241957D02*
X0476441Y0243459D01*
X0475690Y0243459D01*
X0475440Y0243209D01*
X0475940Y0242458D02*
X0475440Y0241957D01*
X0497484Y0081786D02*
X0497234Y0081536D01*
X0497234Y0081036D01*
X0497484Y0080785D01*
X0497234Y0080313D02*
X0497735Y0079813D01*
X0497735Y0080063D02*
X0497735Y0079312D01*
X0497234Y0079312D02*
X0498735Y0079312D01*
X0498735Y0080063D01*
X0498485Y0080313D01*
X0497985Y0080313D01*
X0497735Y0080063D01*
X0498485Y0080785D02*
X0498735Y0081036D01*
X0498735Y0081536D01*
X0498485Y0081786D01*
X0498235Y0081786D01*
X0497985Y0081536D01*
X0497735Y0081786D01*
X0497484Y0081786D01*
X0497985Y0081536D02*
X0497985Y0081286D01*
X0475300Y0074467D02*
X0475050Y0074717D01*
X0474800Y0074717D01*
X0474549Y0074467D01*
X0474549Y0073966D01*
X0474800Y0073716D01*
X0475050Y0073716D01*
X0475300Y0073966D01*
X0475300Y0074467D01*
X0474549Y0074467D02*
X0474299Y0074717D01*
X0474049Y0074717D01*
X0473799Y0074467D01*
X0473799Y0073966D01*
X0474049Y0073716D01*
X0474299Y0073716D01*
X0474549Y0073966D01*
X0474549Y0073244D02*
X0474299Y0072994D01*
X0474299Y0072243D01*
X0473799Y0072243D02*
X0475300Y0072243D01*
X0475300Y0072994D01*
X0475050Y0073244D01*
X0474549Y0073244D01*
X0474299Y0072743D02*
X0473799Y0073244D01*
X0497195Y0059410D02*
X0498696Y0059410D01*
X0497945Y0058659D01*
X0497945Y0059660D01*
X0497945Y0058187D02*
X0497695Y0057937D01*
X0497695Y0057186D01*
X0497195Y0057186D02*
X0498696Y0057186D01*
X0498696Y0057937D01*
X0498446Y0058187D01*
X0497945Y0058187D01*
X0497695Y0057687D02*
X0497195Y0058187D01*
X0458961Y0054601D02*
X0458961Y0054101D01*
X0458711Y0053851D01*
X0458961Y0054601D02*
X0458711Y0054852D01*
X0458461Y0054852D01*
X0457460Y0053851D01*
X0457460Y0054852D01*
X0457460Y0053378D02*
X0457460Y0052378D01*
X0457460Y0052878D02*
X0458961Y0052878D01*
X0458461Y0052378D01*
X0458711Y0051905D02*
X0458961Y0051655D01*
X0458961Y0051155D01*
X0458711Y0050904D01*
X0457710Y0050904D01*
X0457460Y0051155D01*
X0457460Y0051655D01*
X0457710Y0051905D01*
X0448331Y0051655D02*
X0448331Y0051155D01*
X0448081Y0050904D01*
X0447080Y0050904D01*
X0446830Y0051155D01*
X0446830Y0051655D01*
X0447080Y0051905D01*
X0446830Y0052378D02*
X0446830Y0053378D01*
X0446830Y0053851D02*
X0446830Y0054852D01*
X0446830Y0054351D02*
X0448331Y0054351D01*
X0447831Y0053851D01*
X0448331Y0052878D02*
X0446830Y0052878D01*
X0447831Y0052378D02*
X0448331Y0052878D01*
X0448081Y0051905D02*
X0448331Y0051655D01*
X0441835Y0074723D02*
X0441835Y0075474D01*
X0441585Y0075724D01*
X0441085Y0075724D01*
X0440835Y0075474D01*
X0440835Y0074723D01*
X0440835Y0075224D02*
X0440334Y0075724D01*
X0440584Y0076196D02*
X0440334Y0076447D01*
X0440334Y0076947D01*
X0440584Y0077197D01*
X0441085Y0077197D01*
X0441335Y0076947D01*
X0441335Y0076697D01*
X0441085Y0076196D01*
X0441835Y0076196D01*
X0441835Y0077197D01*
X0441835Y0074723D02*
X0440334Y0074723D01*
D13*
X0439396Y0076492D02*
X0439396Y0078854D01*
X0434672Y0078854D02*
X0434672Y0076492D01*
X0468136Y0076374D02*
X0468136Y0074012D01*
X0472861Y0074012D02*
X0472861Y0076374D01*
X0499672Y0078028D02*
X0499672Y0080390D01*
X0504396Y0080390D02*
X0504396Y0078028D01*
X0504357Y0058264D02*
X0504357Y0055902D01*
X0499633Y0055902D02*
X0499633Y0058264D01*
X0456522Y0055035D02*
X0456522Y0052673D01*
X0451798Y0052673D02*
X0451798Y0055035D01*
X0445892Y0055035D02*
X0445892Y0052673D01*
X0441168Y0052673D02*
X0441168Y0055035D01*
X0502703Y0134839D02*
X0505066Y0134839D01*
X0505066Y0139563D02*
X0502703Y0139563D01*
X0502310Y0143067D02*
X0504672Y0143067D01*
X0504672Y0147791D02*
X0502310Y0147791D01*
X0513333Y0163461D02*
X0513333Y0165823D01*
X0518058Y0165823D02*
X0518058Y0163461D01*
X0505105Y0181650D02*
X0502743Y0181650D01*
X0502743Y0186374D02*
X0505105Y0186374D01*
X0505105Y0190350D02*
X0502743Y0190350D01*
X0502743Y0195075D02*
X0505105Y0195075D01*
X0510459Y0203224D02*
X0512822Y0203224D01*
X0512822Y0207949D02*
X0510459Y0207949D01*
X0510262Y0210311D02*
X0512625Y0210311D01*
X0512625Y0215035D02*
X0510262Y0215035D01*
X0495262Y0215035D02*
X0492900Y0215035D01*
X0492900Y0219760D02*
X0495262Y0219760D01*
X0474672Y0236295D02*
X0472310Y0236295D01*
X0472310Y0241020D02*
X0474672Y0241020D01*
X0458688Y0229484D02*
X0458688Y0227122D01*
X0453963Y0227122D02*
X0453963Y0229484D01*
D14*
X0481466Y0228598D02*
X0481466Y0225528D01*
X0481466Y0223994D02*
X0483001Y0222459D01*
X0481466Y0221692D02*
X0482234Y0220924D01*
X0485303Y0220924D01*
X0486070Y0221692D01*
X0486070Y0223226D01*
X0485303Y0223994D01*
X0482234Y0223994D01*
X0481466Y0223226D01*
X0481466Y0221692D01*
X0484536Y0225528D02*
X0486070Y0227063D01*
X0481466Y0227063D01*
X0449319Y0081201D02*
X0450086Y0080433D01*
X0450086Y0078899D01*
X0449319Y0078131D01*
X0449319Y0076597D02*
X0446249Y0076597D01*
X0445482Y0075830D01*
X0445482Y0074295D01*
X0446249Y0073528D01*
X0449319Y0073528D01*
X0450086Y0074295D01*
X0450086Y0075830D01*
X0449319Y0076597D01*
X0447017Y0075062D02*
X0445482Y0076597D01*
X0445482Y0078131D02*
X0448551Y0081201D01*
X0449319Y0081201D01*
X0445482Y0081201D02*
X0445482Y0078131D01*
M02*
