G75*
G70*
%OFA0B0*%
%FSLAX24Y24*%
%IPPOS*%
%LPD*%
%AMOC8*
5,1,8,0,0,1.08239X$1,22.5*
%
%ADD10C,0.0820*%
%ADD11R,0.0395X0.0552*%
%ADD12R,0.0552X0.0395*%
%ADD13R,0.1080X0.0580*%
%ADD14C,0.0680*%
%ADD15R,0.0631X0.0552*%
%ADD16R,0.0280X0.0660*%
%ADD17R,0.0660X0.0280*%
%ADD18OC8,0.0820*%
%ADD19R,0.0395X0.0434*%
%ADD20R,0.0690X0.0592*%
%ADD21R,0.0680X0.0680*%
%ADD22R,0.0710X0.0789*%
%ADD23R,0.0789X0.0710*%
%ADD24C,0.0595*%
%ADD25C,0.0397*%
%ADD26C,0.0390*%
D10*
X009629Y007428D03*
X010629Y007328D03*
X011629Y007428D03*
X012629Y007328D03*
X013629Y007428D03*
X014629Y007328D03*
X015629Y007428D03*
X016629Y007328D03*
X017629Y007428D03*
X018629Y007328D03*
X036794Y007428D03*
X037794Y007328D03*
X038794Y007428D03*
X039794Y007328D03*
X040794Y007428D03*
X041794Y007328D03*
X042794Y007428D03*
X043794Y007328D03*
X044794Y007428D03*
X045794Y007328D03*
X045794Y044336D03*
X044794Y044436D03*
X043794Y044336D03*
X042794Y044436D03*
X041794Y044336D03*
X040794Y044436D03*
X039794Y044336D03*
X038794Y044436D03*
X037794Y044336D03*
X036794Y044436D03*
X018629Y044336D03*
X017629Y044436D03*
X016629Y044336D03*
X015629Y044436D03*
X014629Y044336D03*
X013629Y044436D03*
X012629Y044336D03*
X011629Y044436D03*
X010629Y044336D03*
X009629Y044436D03*
D11*
X012424Y041630D03*
X013133Y041630D03*
X013133Y040449D03*
X012424Y040449D03*
X017936Y041236D03*
X018645Y041236D03*
X018645Y042811D03*
X017936Y042811D03*
X022267Y031394D03*
X022975Y031394D03*
X021794Y029819D03*
X021086Y029819D03*
X030436Y017516D03*
X031145Y017516D03*
X041952Y024701D03*
X042660Y024701D03*
X015101Y011512D03*
X014393Y011512D03*
D12*
X009235Y026709D03*
X009235Y027417D03*
X008054Y027417D03*
X008054Y026709D03*
X006873Y026709D03*
X006873Y027417D03*
X005692Y027417D03*
X005692Y026709D03*
X005692Y035764D03*
X005692Y036472D03*
X006873Y036472D03*
X006873Y035764D03*
X008054Y035764D03*
X008054Y036472D03*
X009235Y036472D03*
X009235Y035764D03*
X020652Y041276D03*
X020652Y041984D03*
X022621Y041984D03*
X022621Y041276D03*
X024589Y041276D03*
X024589Y041984D03*
X026558Y041984D03*
X026558Y041276D03*
X028526Y041276D03*
X028526Y041984D03*
X030495Y041984D03*
X030495Y041276D03*
X032463Y041276D03*
X032463Y041984D03*
X034432Y041984D03*
X034432Y041276D03*
X036794Y042063D03*
X036794Y042772D03*
X037975Y042772D03*
X037975Y042063D03*
X039156Y042063D03*
X039156Y042772D03*
X033448Y032535D03*
X033448Y031827D03*
X032070Y031827D03*
X032070Y032535D03*
X023015Y030567D03*
X023015Y029858D03*
X041125Y026236D03*
X041125Y025528D03*
D13*
X009017Y025020D03*
X009017Y024020D03*
X009017Y023020D03*
X009017Y022020D03*
X005517Y022020D03*
X005517Y023020D03*
X005517Y024020D03*
X005517Y025020D03*
X005517Y031075D03*
X005517Y032075D03*
X005517Y033075D03*
X005517Y034075D03*
X009017Y034075D03*
X009017Y033075D03*
X009017Y032075D03*
X009017Y031075D03*
D14*
X024196Y025520D03*
X024196Y024520D03*
X024196Y023520D03*
X024196Y022520D03*
X041912Y021945D03*
X041912Y021157D03*
X041912Y020370D03*
X041912Y019583D03*
X041912Y018795D03*
X041912Y018008D03*
X041912Y017220D03*
X041912Y016433D03*
X041912Y015646D03*
X041912Y014858D03*
X050574Y014858D03*
X050574Y015646D03*
X050574Y016433D03*
X050574Y017220D03*
X050574Y018008D03*
X050574Y018795D03*
X050574Y019583D03*
X050574Y020370D03*
X050574Y021157D03*
X050574Y021945D03*
D15*
X034432Y043402D03*
X034432Y044583D03*
X032463Y044583D03*
X032463Y043402D03*
X030495Y043402D03*
X030495Y044583D03*
X028526Y044583D03*
X028526Y043402D03*
X026558Y043402D03*
X026558Y044583D03*
X024589Y044583D03*
X024589Y043402D03*
X022621Y043402D03*
X022621Y044583D03*
X020652Y044583D03*
X020652Y043402D03*
D16*
X025379Y035969D03*
X025689Y035969D03*
X026009Y035969D03*
X026319Y035969D03*
X026639Y035969D03*
X026949Y035969D03*
X027269Y035969D03*
X027579Y035969D03*
X027899Y035969D03*
X028209Y035969D03*
X028529Y035969D03*
X028839Y035969D03*
X029159Y035969D03*
X029469Y035969D03*
X029789Y035969D03*
X030099Y035969D03*
X030099Y029969D03*
X029789Y029969D03*
X029469Y029969D03*
X029159Y029969D03*
X028839Y029969D03*
X028529Y029969D03*
X028209Y029969D03*
X027899Y029969D03*
X027579Y029969D03*
X027269Y029969D03*
X026949Y029969D03*
X026639Y029969D03*
X026319Y029969D03*
X026009Y029969D03*
X025689Y029969D03*
X025379Y029969D03*
D17*
X024739Y030609D03*
X024739Y030919D03*
X024739Y031239D03*
X024739Y031549D03*
X024739Y031869D03*
X024739Y032179D03*
X024739Y032499D03*
X024739Y032809D03*
X024739Y033129D03*
X024739Y033439D03*
X024739Y033759D03*
X024739Y034069D03*
X024739Y034389D03*
X024739Y034699D03*
X024739Y035019D03*
X024739Y035329D03*
X030739Y035329D03*
X030739Y035019D03*
X030739Y034699D03*
X030739Y034389D03*
X030739Y034069D03*
X030739Y033759D03*
X030739Y033439D03*
X030739Y033129D03*
X030739Y032809D03*
X030739Y032499D03*
X030739Y032179D03*
X030739Y031869D03*
X030739Y031549D03*
X030739Y031239D03*
X030739Y030919D03*
X030739Y030609D03*
D18*
X030133Y012406D03*
X029133Y012406D03*
X028133Y012406D03*
X027133Y012406D03*
X026133Y012406D03*
X026133Y011406D03*
X027133Y011406D03*
X028133Y011406D03*
X029133Y011406D03*
X030133Y011406D03*
D19*
X021026Y034150D03*
X020278Y034150D03*
X020652Y034976D03*
D20*
X032276Y017516D03*
X032276Y015744D03*
X035406Y015744D03*
X035406Y017516D03*
X016312Y014366D03*
X016312Y012594D03*
X013182Y012594D03*
X013182Y014366D03*
D21*
X024196Y021520D03*
D22*
X013330Y042811D03*
X012227Y042811D03*
D23*
X016322Y042575D03*
X016322Y041472D03*
D24*
X038369Y023520D03*
X038369Y019583D03*
D25*
X029235Y032417D03*
X028015Y032260D03*
D26*
X026912Y032850D03*
X026519Y032969D03*
X025456Y032457D03*
X025810Y031748D03*
X026007Y030528D03*
X026597Y030528D03*
X027345Y030685D03*
X029117Y029425D03*
X029274Y028953D03*
X029826Y028244D03*
X029314Y027732D03*
X029314Y027220D03*
X028920Y027102D03*
X028802Y026709D03*
X027542Y027220D03*
X026361Y026551D03*
X025849Y026551D03*
X025219Y026551D03*
X025574Y027417D03*
X029589Y031079D03*
X030180Y031354D03*
X029944Y032535D03*
X031282Y032929D03*
X031282Y033441D03*
X030180Y034071D03*
X028566Y033913D03*
X030456Y035803D03*
X031243Y036157D03*
X032227Y037496D03*
X032700Y032890D03*
X032700Y030331D03*
X032149Y029780D03*
X031637Y029268D03*
X034550Y028480D03*
X034904Y027024D03*
X034196Y026709D03*
X035259Y030567D03*
X026637Y036512D03*
X026007Y035409D03*
X025298Y035213D03*
X024117Y035961D03*
X022503Y034346D03*
X022109Y034465D03*
X021519Y033677D03*
X022700Y033323D03*
X023093Y033205D03*
X023802Y032693D03*
X024196Y032575D03*
X024196Y032181D03*
X025298Y033126D03*
X025298Y033638D03*
X024196Y033677D03*
X019826Y031000D03*
X019708Y030606D03*
X018448Y031354D03*
X013211Y035173D03*
X013448Y035528D03*
X011834Y034819D03*
X010416Y034465D03*
X016676Y035803D03*
X017109Y036551D03*
X017503Y036433D03*
X015652Y038913D03*
X017463Y041197D03*
X027306Y042969D03*
X029038Y043323D03*
X029983Y043835D03*
X030023Y042850D03*
X029904Y042457D03*
X036086Y043835D03*
X009589Y023520D03*
X008526Y026945D03*
X027149Y018323D03*
X027542Y018441D03*
X031322Y016630D03*
X031912Y016709D03*
X031755Y015370D03*
X031046Y012693D03*
X029156Y010488D03*
X027778Y009780D03*
X026597Y010134D03*
X034353Y017969D03*
X033881Y018953D03*
X031282Y021551D03*
X035613Y022457D03*
X038605Y017063D03*
X039865Y016197D03*
M02*
