%
M48
M72
T01C0.0150
T02C0.0157
T03C0.0315
T04C0.0400
%
T01
X26597Y10134
X27778Y9780
X29156Y10488
X31046Y12693
X31755Y15370
X31322Y16630
X31912Y16709
X34353Y17969
X33881Y18953
X31282Y21551
X35613Y22457
X34196Y26709
X34904Y27024
X34550Y28480
X35259Y30567
X32700Y30331
X32149Y29780
X31637Y29268
X29826Y28244
X29314Y27732
X29314Y27220
X28920Y27102
X28802Y26709
X27542Y27220
X26361Y26551
X25849Y26551
X25219Y26551
X25574Y27417
X29117Y29425
X29274Y28953
X29589Y31079
X30180Y31354
X29944Y32535
X31282Y32929
X31282Y33441
X30180Y34071
X28566Y33913
X26912Y32850
X26519Y32969
X25456Y32457
X25810Y31748
X26007Y30528
X26597Y30528
X27345Y30685
X25298Y33126
X25298Y33638
X24196Y33677
X23093Y33205
X22700Y33323
X21519Y33677
X22109Y34465
X22503Y34346
X24117Y35961
X25298Y35213
X26007Y35409
X26637Y36512
X30456Y35803
X31243Y36157
X32227Y37496
X32700Y32890
X24196Y32575
X24196Y32181
X23802Y32693
X19826Y31000
X19708Y30606
X18448Y31354
X13211Y35173
X13448Y35528
X11834Y34819
X10416Y34465
X16676Y35803
X17109Y36551
X17503Y36433
X15652Y38913
X17463Y41197
X27306Y42969
X29038Y43323
X29983Y43835
X30023Y42850
X29904Y42457
X36086Y43835
X9589Y23520
X8526Y26945
X27149Y18323
X27542Y18441
X38605Y17063
X39865Y16197
T02
X29235Y32417
X28015Y32260
T03
X38369Y23520
X41912Y21945
X41912Y21157
X41912Y20370
X41912Y19583
X41912Y18795
X41912Y18008
X41912Y17220
X41912Y16433
X41912Y15646
X41912Y14858
X38369Y19583
X50574Y19583
X50574Y18795
X50574Y18008
X50574Y17220
X50574Y16433
X50574Y15646
X50574Y14858
X50574Y20370
X50574Y21157
X50574Y21945
T04
X9629Y7428
X10629Y7328
X11629Y7428
X12629Y7328
X13629Y7428
X14629Y7328
X15629Y7428
X16629Y7328
X17629Y7428
X18629Y7328
X26133Y11406
X27133Y11406
X28133Y11406
X29133Y11406
X30133Y11406
X30133Y12406
X29133Y12406
X28133Y12406
X27133Y12406
X26133Y12406
X36794Y7428
X37794Y7328
X38794Y7428
X39794Y7328
X40794Y7428
X41794Y7328
X42794Y7428
X43794Y7328
X44794Y7428
X45794Y7328
X24196Y21520
X24196Y22520
X24196Y23520
X24196Y24520
X24196Y25520
X18629Y44336
X17629Y44436
X16629Y44336
X15629Y44436
X14629Y44336
X13629Y44436
X12629Y44336
X11629Y44436
X10629Y44336
X9629Y44436
X36794Y44436
X37794Y44336
X38794Y44436
X39794Y44336
X40794Y44436
X41794Y44336
X42794Y44436
X43794Y44336
X44794Y44436
X45794Y44336
M30
