G75*
G70*
%OFA0B0*%
%FSLAX24Y24*%
%IPPOS*%
%LPD*%
%AMOC8*
5,1,8,0,0,1.08239X$1,22.5*
%
%ADD10R,0.0315X0.0472*%
%ADD11R,0.0472X0.0315*%
%ADD12R,0.1000X0.0500*%
%ADD13R,0.0551X0.0472*%
%ADD14R,0.0200X0.0580*%
%ADD15R,0.0580X0.0200*%
%ADD16R,0.0315X0.0354*%
%ADD17R,0.0610X0.0512*%
%ADD18R,0.0630X0.0709*%
%ADD19R,0.0709X0.0630*%
D10*
X014393Y011512D03*
X015101Y011512D03*
X030436Y017516D03*
X031145Y017516D03*
X041952Y024701D03*
X042660Y024701D03*
X022975Y031394D03*
X022267Y031394D03*
X021794Y029819D03*
X021086Y029819D03*
X013133Y040449D03*
X012424Y040449D03*
X012424Y041630D03*
X013133Y041630D03*
X017936Y041236D03*
X018645Y041236D03*
X018645Y042811D03*
X017936Y042811D03*
D11*
X020652Y041984D03*
X020652Y041276D03*
X022621Y041276D03*
X022621Y041984D03*
X024589Y041984D03*
X024589Y041276D03*
X026558Y041276D03*
X026558Y041984D03*
X028526Y041984D03*
X028526Y041276D03*
X030495Y041276D03*
X030495Y041984D03*
X032463Y041984D03*
X032463Y041276D03*
X034432Y041276D03*
X034432Y041984D03*
X036794Y042063D03*
X036794Y042772D03*
X037975Y042772D03*
X037975Y042063D03*
X039156Y042063D03*
X039156Y042772D03*
X033448Y032535D03*
X033448Y031827D03*
X032070Y031827D03*
X032070Y032535D03*
X023015Y030567D03*
X023015Y029858D03*
X009235Y027417D03*
X009235Y026709D03*
X008054Y026709D03*
X008054Y027417D03*
X006873Y027417D03*
X006873Y026709D03*
X005692Y026709D03*
X005692Y027417D03*
X005692Y035764D03*
X005692Y036472D03*
X006873Y036472D03*
X006873Y035764D03*
X008054Y035764D03*
X008054Y036472D03*
X009235Y036472D03*
X009235Y035764D03*
X041125Y026236D03*
X041125Y025528D03*
D12*
X009017Y025020D03*
X009017Y024020D03*
X009017Y023020D03*
X009017Y022020D03*
X005517Y022020D03*
X005517Y023020D03*
X005517Y024020D03*
X005517Y025020D03*
X005517Y031075D03*
X005517Y032075D03*
X005517Y033075D03*
X005517Y034075D03*
X009017Y034075D03*
X009017Y033075D03*
X009017Y032075D03*
X009017Y031075D03*
D13*
X020652Y043402D03*
X020652Y044583D03*
X022621Y044583D03*
X022621Y043402D03*
X024589Y043402D03*
X024589Y044583D03*
X026558Y044583D03*
X026558Y043402D03*
X028526Y043402D03*
X028526Y044583D03*
X030495Y044583D03*
X030495Y043402D03*
X032463Y043402D03*
X032463Y044583D03*
X034432Y044583D03*
X034432Y043402D03*
D14*
X030099Y035969D03*
X029789Y035969D03*
X029469Y035969D03*
X029159Y035969D03*
X028839Y035969D03*
X028529Y035969D03*
X028209Y035969D03*
X027899Y035969D03*
X027579Y035969D03*
X027269Y035969D03*
X026949Y035969D03*
X026639Y035969D03*
X026319Y035969D03*
X026009Y035969D03*
X025689Y035969D03*
X025379Y035969D03*
X025379Y029969D03*
X025689Y029969D03*
X026009Y029969D03*
X026319Y029969D03*
X026639Y029969D03*
X026949Y029969D03*
X027269Y029969D03*
X027579Y029969D03*
X027899Y029969D03*
X028209Y029969D03*
X028529Y029969D03*
X028839Y029969D03*
X029159Y029969D03*
X029469Y029969D03*
X029789Y029969D03*
X030099Y029969D03*
D15*
X030739Y030609D03*
X030739Y030919D03*
X030739Y031239D03*
X030739Y031549D03*
X030739Y031869D03*
X030739Y032179D03*
X030739Y032499D03*
X030739Y032809D03*
X030739Y033129D03*
X030739Y033439D03*
X030739Y033759D03*
X030739Y034069D03*
X030739Y034389D03*
X030739Y034699D03*
X030739Y035019D03*
X030739Y035329D03*
X024739Y035329D03*
X024739Y035019D03*
X024739Y034699D03*
X024739Y034389D03*
X024739Y034069D03*
X024739Y033759D03*
X024739Y033439D03*
X024739Y033129D03*
X024739Y032809D03*
X024739Y032499D03*
X024739Y032179D03*
X024739Y031869D03*
X024739Y031549D03*
X024739Y031239D03*
X024739Y030919D03*
X024739Y030609D03*
D16*
X021026Y034150D03*
X020278Y034150D03*
X020652Y034976D03*
D17*
X032276Y017516D03*
X032276Y015744D03*
X035406Y015744D03*
X035406Y017516D03*
X016312Y014366D03*
X016312Y012594D03*
X013182Y012594D03*
X013182Y014366D03*
D18*
X013330Y042811D03*
X012227Y042811D03*
D19*
X016322Y042575D03*
X016322Y041472D03*
M02*
