G75*
G70*
%OFA0B0*%
%FSLAX24Y24*%
%IPPOS*%
%LPD*%
%AMOC8*
5,1,8,0,0,1.08239X$1,22.5*
%
%ADD10O,0.1040X0.0520*%
%ADD11OC8,0.0520*%
%ADD12O,0.1320X0.0660*%
%ADD13O,0.0600X0.1200*%
%ADD14OC8,0.1500*%
%ADD15OC8,0.1240*%
%ADD16C,0.1240*%
%ADD17C,0.0160*%
%ADD18C,0.0240*%
D10*
X019684Y010512D03*
X019684Y011512D03*
X019684Y012512D03*
X019684Y013512D03*
X022684Y013512D03*
X022684Y012512D03*
X022684Y011512D03*
X022684Y010512D03*
X025684Y010512D03*
X025684Y011512D03*
X025684Y012512D03*
X025684Y013512D03*
X028684Y013512D03*
X028684Y012512D03*
X028684Y011512D03*
X028684Y010512D03*
D11*
X028684Y007512D03*
X028684Y005512D03*
X024684Y005512D03*
X022684Y005512D03*
X022684Y007512D03*
X024684Y007512D03*
X026184Y015512D03*
X028184Y015512D03*
X023184Y015512D03*
X019184Y015512D03*
D12*
X019684Y017512D03*
X019684Y018512D03*
X019684Y019512D03*
D13*
X020184Y002512D03*
X021184Y002512D03*
X022184Y002512D03*
X023184Y002512D03*
X024184Y002512D03*
X025184Y002512D03*
X019184Y002512D03*
X018184Y002512D03*
X017184Y002512D03*
X016184Y002512D03*
X015184Y002512D03*
X014184Y002512D03*
X013184Y002512D03*
X012184Y002512D03*
X011184Y002512D03*
X010184Y002512D03*
X009184Y002512D03*
X008184Y002512D03*
X007184Y002512D03*
X006184Y002512D03*
D14*
X005684Y005512D03*
X005684Y007512D03*
X005684Y009512D03*
X005684Y011512D03*
X007184Y014512D03*
X005184Y016012D03*
X007184Y018012D03*
X005184Y019512D03*
X011684Y011512D03*
X011684Y009512D03*
X011684Y007512D03*
X011684Y005512D03*
D15*
X018184Y007512D03*
X017684Y012512D03*
X015684Y012512D03*
X024684Y015012D03*
D16*
X015184Y007512D03*
D17*
X005973Y001744D02*
X001979Y001744D01*
X001979Y021280D01*
X030889Y021280D01*
X030889Y001744D01*
X009394Y001744D01*
X009664Y002013D01*
X009664Y002492D01*
X009204Y002492D01*
X009204Y002532D01*
X009664Y002532D01*
X009664Y003011D01*
X009382Y003292D01*
X009204Y003292D01*
X009204Y002532D01*
X009164Y002532D01*
X009164Y003292D01*
X008985Y003292D01*
X008704Y003011D01*
X008704Y002532D01*
X009163Y002532D01*
X009163Y002492D01*
X008704Y002492D01*
X008704Y002013D01*
X008973Y001744D01*
X008394Y001744D01*
X008664Y002013D01*
X008664Y002492D01*
X008204Y002492D01*
X008204Y002532D01*
X008664Y002532D01*
X008664Y003011D01*
X008382Y003292D01*
X008204Y003292D01*
X008204Y002532D01*
X008164Y002532D01*
X008164Y003292D01*
X007985Y003292D01*
X007704Y003011D01*
X007704Y002532D01*
X008163Y002532D01*
X008163Y002492D01*
X007704Y002492D01*
X007704Y002013D01*
X007973Y001744D01*
X007394Y001744D01*
X007664Y002013D01*
X007664Y002492D01*
X007204Y002492D01*
X007204Y002532D01*
X007664Y002532D01*
X007664Y003011D01*
X007382Y003292D01*
X007204Y003292D01*
X007204Y002532D01*
X007164Y002532D01*
X007164Y003292D01*
X006985Y003292D01*
X006704Y003011D01*
X006704Y002532D01*
X007163Y002532D01*
X007163Y002492D01*
X006704Y002492D01*
X006704Y002013D01*
X006973Y001744D01*
X006394Y001744D01*
X006664Y002013D01*
X006664Y002492D01*
X006204Y002492D01*
X006204Y002532D01*
X006664Y002532D01*
X006664Y003011D01*
X006382Y003292D01*
X006204Y003292D01*
X006204Y002532D01*
X006164Y002532D01*
X006164Y003292D01*
X005985Y003292D01*
X005704Y003011D01*
X005704Y002532D01*
X006163Y002532D01*
X006163Y002492D01*
X005704Y002492D01*
X005704Y002013D01*
X005973Y001744D01*
X005888Y001829D02*
X001979Y001829D01*
X001979Y001987D02*
X005729Y001987D01*
X005704Y002146D02*
X001979Y002146D01*
X001979Y002305D02*
X005704Y002305D01*
X005704Y002463D02*
X001979Y002463D01*
X001979Y002622D02*
X005704Y002622D01*
X005704Y002780D02*
X001979Y002780D01*
X001979Y002939D02*
X005704Y002939D01*
X005790Y003097D02*
X001979Y003097D01*
X001979Y003256D02*
X005949Y003256D01*
X006164Y003256D02*
X006204Y003256D01*
X006204Y003097D02*
X006164Y003097D01*
X006164Y002939D02*
X006204Y002939D01*
X006204Y002780D02*
X006164Y002780D01*
X006164Y002622D02*
X006204Y002622D01*
X006664Y002622D02*
X006704Y002622D01*
X006704Y002780D02*
X006664Y002780D01*
X006664Y002939D02*
X006704Y002939D01*
X006790Y003097D02*
X006577Y003097D01*
X006418Y003256D02*
X006949Y003256D01*
X007164Y003256D02*
X007204Y003256D01*
X007204Y003097D02*
X007164Y003097D01*
X007164Y002939D02*
X007204Y002939D01*
X007204Y002780D02*
X007164Y002780D01*
X007164Y002622D02*
X007204Y002622D01*
X007664Y002622D02*
X007704Y002622D01*
X007704Y002780D02*
X007664Y002780D01*
X007664Y002939D02*
X007704Y002939D01*
X007790Y003097D02*
X007577Y003097D01*
X007418Y003256D02*
X007949Y003256D01*
X008164Y003256D02*
X008204Y003256D01*
X008204Y003097D02*
X008164Y003097D01*
X008164Y002939D02*
X008204Y002939D01*
X008204Y002780D02*
X008164Y002780D01*
X008164Y002622D02*
X008204Y002622D01*
X008664Y002622D02*
X008704Y002622D01*
X008704Y002780D02*
X008664Y002780D01*
X008664Y002939D02*
X008704Y002939D01*
X008790Y003097D02*
X008577Y003097D01*
X008418Y003256D02*
X008949Y003256D01*
X009164Y003256D02*
X009204Y003256D01*
X009204Y003097D02*
X009164Y003097D01*
X009164Y002939D02*
X009204Y002939D01*
X009204Y002780D02*
X009164Y002780D01*
X009164Y002622D02*
X009204Y002622D01*
X009664Y002622D02*
X009724Y002622D01*
X009724Y002780D02*
X009664Y002780D01*
X009664Y002939D02*
X009724Y002939D01*
X009724Y003002D02*
X009993Y003272D01*
X010374Y003272D01*
X010644Y003002D01*
X010644Y002021D01*
X010374Y001752D01*
X009993Y001752D01*
X009724Y002021D01*
X009724Y003002D01*
X009819Y003097D02*
X009577Y003097D01*
X009418Y003256D02*
X009977Y003256D01*
X010390Y003256D02*
X010977Y003256D01*
X010993Y003272D02*
X011374Y003272D01*
X011644Y003002D01*
X011644Y002021D01*
X011374Y001752D01*
X010993Y001752D01*
X010724Y002021D01*
X010724Y003002D01*
X010993Y003272D01*
X010819Y003097D02*
X010549Y003097D01*
X010644Y002939D02*
X010724Y002939D01*
X010724Y002780D02*
X010644Y002780D01*
X010644Y002622D02*
X010724Y002622D01*
X010724Y002463D02*
X010644Y002463D01*
X010644Y002305D02*
X010724Y002305D01*
X010724Y002146D02*
X010644Y002146D01*
X010610Y001987D02*
X010757Y001987D01*
X010916Y001829D02*
X010451Y001829D01*
X009916Y001829D02*
X009479Y001829D01*
X009638Y001987D02*
X009757Y001987D01*
X009724Y002146D02*
X009664Y002146D01*
X009664Y002305D02*
X009724Y002305D01*
X009724Y002463D02*
X009664Y002463D01*
X008704Y002463D02*
X008664Y002463D01*
X008664Y002305D02*
X008704Y002305D01*
X008704Y002146D02*
X008664Y002146D01*
X008638Y001987D02*
X008729Y001987D01*
X008888Y001829D02*
X008479Y001829D01*
X007888Y001829D02*
X007479Y001829D01*
X007638Y001987D02*
X007729Y001987D01*
X007704Y002146D02*
X007664Y002146D01*
X007664Y002305D02*
X007704Y002305D01*
X007704Y002463D02*
X007664Y002463D01*
X006704Y002463D02*
X006664Y002463D01*
X006664Y002305D02*
X006704Y002305D01*
X006704Y002146D02*
X006664Y002146D01*
X006638Y001987D02*
X006729Y001987D01*
X006888Y001829D02*
X006479Y001829D01*
X006061Y004602D02*
X005307Y004602D01*
X004774Y005135D01*
X004774Y005889D01*
X005307Y006422D01*
X006061Y006422D01*
X006594Y005889D01*
X006594Y005135D01*
X006061Y004602D01*
X006141Y004683D02*
X011226Y004683D01*
X011307Y004602D02*
X010774Y005135D01*
X010774Y005889D01*
X011307Y006422D01*
X012061Y006422D01*
X012594Y005889D01*
X012594Y005135D01*
X012061Y004602D01*
X011307Y004602D01*
X011067Y004841D02*
X006300Y004841D01*
X006458Y005000D02*
X010909Y005000D01*
X010774Y005158D02*
X006594Y005158D01*
X006594Y005317D02*
X010774Y005317D01*
X010774Y005475D02*
X006594Y005475D01*
X006594Y005634D02*
X010774Y005634D01*
X010774Y005792D02*
X006594Y005792D01*
X006531Y005951D02*
X010836Y005951D01*
X010994Y006110D02*
X006373Y006110D01*
X006214Y006268D02*
X011153Y006268D01*
X011307Y006602D02*
X010774Y007135D01*
X010774Y007889D01*
X011307Y008422D01*
X012061Y008422D01*
X012594Y007889D01*
X012594Y007135D01*
X012061Y006602D01*
X011307Y006602D01*
X011165Y006744D02*
X006202Y006744D01*
X006061Y006602D02*
X005307Y006602D01*
X004774Y007135D01*
X004774Y007889D01*
X005307Y008422D01*
X006061Y008422D01*
X006594Y007889D01*
X006594Y007135D01*
X006061Y006602D01*
X006361Y006902D02*
X011006Y006902D01*
X010848Y007061D02*
X006520Y007061D01*
X006594Y007219D02*
X010774Y007219D01*
X010774Y007378D02*
X006594Y007378D01*
X006594Y007536D02*
X010774Y007536D01*
X010774Y007695D02*
X006594Y007695D01*
X006594Y007854D02*
X010774Y007854D01*
X010897Y008012D02*
X006470Y008012D01*
X006312Y008171D02*
X011056Y008171D01*
X011214Y008329D02*
X006153Y008329D01*
X006061Y008602D02*
X005307Y008602D01*
X004774Y009135D01*
X004774Y009889D01*
X005307Y010422D01*
X006061Y010422D01*
X006594Y009889D01*
X006594Y009135D01*
X006061Y008602D01*
X006105Y008646D02*
X011262Y008646D01*
X011307Y008602D02*
X010774Y009135D01*
X010774Y009889D01*
X011307Y010422D01*
X012061Y010422D01*
X012594Y009889D01*
X012594Y009135D01*
X012061Y008602D01*
X011307Y008602D01*
X011104Y008805D02*
X006264Y008805D01*
X006422Y008963D02*
X010945Y008963D01*
X010787Y009122D02*
X006581Y009122D01*
X006594Y009280D02*
X010774Y009280D01*
X010774Y009439D02*
X006594Y009439D01*
X006594Y009598D02*
X010774Y009598D01*
X010774Y009756D02*
X006594Y009756D01*
X006568Y009915D02*
X010800Y009915D01*
X010958Y010073D02*
X006409Y010073D01*
X006251Y010232D02*
X011117Y010232D01*
X011275Y010390D02*
X006092Y010390D01*
X006061Y010602D02*
X005307Y010602D01*
X004774Y011135D01*
X004774Y011889D01*
X005307Y012422D01*
X006061Y012422D01*
X006594Y011889D01*
X006594Y011135D01*
X006061Y010602D01*
X006166Y010707D02*
X011201Y010707D01*
X011307Y010602D02*
X010774Y011135D01*
X010774Y011889D01*
X011307Y012422D01*
X012061Y012422D01*
X012594Y011889D01*
X012594Y011135D01*
X012061Y010602D01*
X011307Y010602D01*
X011043Y010866D02*
X006325Y010866D01*
X006483Y011024D02*
X010884Y011024D01*
X010774Y011183D02*
X006594Y011183D01*
X006594Y011341D02*
X010774Y011341D01*
X010774Y011500D02*
X006594Y011500D01*
X006594Y011659D02*
X010774Y011659D01*
X010774Y011817D02*
X006594Y011817D01*
X006507Y011976D02*
X010861Y011976D01*
X011019Y012134D02*
X006348Y012134D01*
X006190Y012293D02*
X011178Y012293D01*
X012190Y012293D02*
X014904Y012293D01*
X014904Y012189D02*
X015361Y011732D01*
X016007Y011732D01*
X016464Y012189D01*
X016464Y012835D01*
X016007Y013292D01*
X015361Y013292D01*
X014904Y012835D01*
X014904Y012189D01*
X014958Y012134D02*
X012348Y012134D01*
X012507Y011976D02*
X015117Y011976D01*
X015275Y011817D02*
X012594Y011817D01*
X012594Y011659D02*
X019004Y011659D01*
X019004Y011686D02*
X019250Y011932D01*
X020118Y011932D01*
X020258Y011792D01*
X020904Y011792D01*
X020904Y014628D01*
X021068Y014792D01*
X021300Y014792D01*
X022904Y014792D01*
X022904Y015198D01*
X022764Y015338D01*
X022764Y015686D01*
X023010Y015932D01*
X023358Y015932D01*
X023604Y015686D01*
X023604Y015338D01*
X023464Y015198D01*
X023464Y015188D01*
X023568Y015292D01*
X023904Y015292D01*
X023904Y015335D01*
X024361Y015792D01*
X025007Y015792D01*
X025464Y015335D01*
X025464Y014689D01*
X025007Y014232D01*
X024361Y014232D01*
X023964Y014629D01*
X023964Y012688D01*
X024068Y012792D01*
X024300Y012792D01*
X025110Y012792D01*
X025250Y012932D01*
X026118Y012932D01*
X026364Y012686D01*
X026364Y012338D01*
X026118Y012092D01*
X025250Y012092D01*
X025110Y012232D01*
X024464Y012232D01*
X024464Y007886D01*
X024510Y007932D01*
X024858Y007932D01*
X025104Y007686D01*
X025104Y007338D01*
X024858Y007092D01*
X024510Y007092D01*
X024464Y007138D01*
X024464Y005886D01*
X024510Y005932D01*
X024858Y005932D01*
X025104Y005686D01*
X025104Y005338D01*
X024858Y005092D01*
X024510Y005092D01*
X024370Y005232D01*
X024300Y005232D01*
X022998Y005232D01*
X022858Y005092D01*
X022510Y005092D01*
X022264Y005338D01*
X022264Y005686D01*
X022510Y005932D01*
X022858Y005932D01*
X022998Y005792D01*
X023904Y005792D01*
X023904Y007628D01*
X023904Y012336D01*
X023800Y012232D01*
X023568Y012232D01*
X023258Y012232D01*
X023118Y012092D01*
X022250Y012092D01*
X022004Y012338D01*
X022004Y012686D01*
X022250Y012932D01*
X023118Y012932D01*
X023258Y012792D01*
X023404Y012792D01*
X023404Y014336D01*
X023300Y014232D01*
X021464Y014232D01*
X021464Y011628D01*
X021464Y011396D01*
X021300Y011232D01*
X020258Y011232D01*
X020118Y011092D01*
X019250Y011092D01*
X019004Y011338D01*
X019004Y011686D01*
X019135Y011817D02*
X018092Y011817D01*
X018007Y011732D02*
X018464Y012189D01*
X018464Y012835D01*
X018007Y013292D01*
X017361Y013292D01*
X016904Y012835D01*
X016904Y012189D01*
X017361Y011732D01*
X018007Y011732D01*
X018251Y011976D02*
X020904Y011976D01*
X020904Y012134D02*
X020160Y012134D01*
X020118Y012092D02*
X019250Y012092D01*
X019004Y012338D01*
X019004Y012686D01*
X019250Y012932D01*
X020118Y012932D01*
X020364Y012686D01*
X020364Y012338D01*
X020118Y012092D01*
X020319Y012293D02*
X020904Y012293D01*
X020904Y012451D02*
X020364Y012451D01*
X020364Y012610D02*
X020904Y012610D01*
X020904Y012768D02*
X020281Y012768D01*
X020122Y012927D02*
X020904Y012927D01*
X020904Y013085D02*
X018213Y013085D01*
X018371Y012927D02*
X019245Y012927D01*
X019250Y013092D02*
X019004Y013338D01*
X019004Y013686D01*
X019250Y013932D01*
X020118Y013932D01*
X020364Y013686D01*
X020364Y013338D01*
X020118Y013092D01*
X019250Y013092D01*
X019097Y013244D02*
X018054Y013244D01*
X018464Y012768D02*
X019086Y012768D01*
X019004Y012610D02*
X018464Y012610D01*
X018464Y012451D02*
X019004Y012451D01*
X019049Y012293D02*
X018464Y012293D01*
X018409Y012134D02*
X019207Y012134D01*
X019004Y011500D02*
X012594Y011500D01*
X012594Y011341D02*
X019004Y011341D01*
X019159Y011183D02*
X012594Y011183D01*
X012483Y011024D02*
X023904Y011024D01*
X023904Y010866D02*
X023212Y010866D01*
X023126Y010952D02*
X023384Y010694D01*
X023384Y010512D01*
X022684Y010512D01*
X022684Y010512D01*
X022684Y010952D01*
X023126Y010952D01*
X023118Y011092D02*
X022250Y011092D01*
X022004Y011338D01*
X022004Y011686D01*
X022250Y011932D01*
X023118Y011932D01*
X023364Y011686D01*
X023364Y011338D01*
X023118Y011092D01*
X023209Y011183D02*
X023904Y011183D01*
X023904Y011341D02*
X023364Y011341D01*
X023364Y011500D02*
X023904Y011500D01*
X023904Y011659D02*
X023364Y011659D01*
X023232Y011817D02*
X023904Y011817D01*
X023904Y011976D02*
X021464Y011976D01*
X021464Y012134D02*
X022207Y012134D01*
X022049Y012293D02*
X021464Y012293D01*
X021464Y012451D02*
X022004Y012451D01*
X022004Y012610D02*
X021464Y012610D01*
X021464Y012768D02*
X022086Y012768D01*
X022245Y012927D02*
X021464Y012927D01*
X021464Y013085D02*
X023404Y013085D01*
X023404Y012927D02*
X023122Y012927D01*
X023118Y013092D02*
X022250Y013092D01*
X022004Y013338D01*
X022004Y013686D01*
X022250Y013932D01*
X023118Y013932D01*
X023364Y013686D01*
X023364Y013338D01*
X023118Y013092D01*
X023270Y013244D02*
X023404Y013244D01*
X023404Y013403D02*
X023364Y013403D01*
X023364Y013561D02*
X023404Y013561D01*
X023404Y013720D02*
X023330Y013720D01*
X023404Y013878D02*
X023171Y013878D01*
X023404Y014037D02*
X021464Y014037D01*
X021464Y014195D02*
X023404Y014195D01*
X023964Y014195D02*
X030889Y014195D01*
X030889Y014037D02*
X023964Y014037D01*
X023964Y013878D02*
X025196Y013878D01*
X025250Y013932D02*
X026118Y013932D01*
X026258Y013792D01*
X027300Y013792D01*
X027464Y013628D01*
X027464Y013396D01*
X027464Y007792D01*
X028370Y007792D01*
X028510Y007932D01*
X028858Y007932D01*
X029104Y007686D01*
X029104Y007338D01*
X028858Y007092D01*
X028510Y007092D01*
X028370Y007232D01*
X027300Y007232D01*
X027068Y007232D01*
X026964Y007336D01*
X026964Y005792D01*
X028370Y005792D01*
X028510Y005932D01*
X028858Y005932D01*
X029104Y005686D01*
X029104Y005338D01*
X028858Y005092D01*
X028510Y005092D01*
X028370Y005232D01*
X026800Y005232D01*
X026568Y005232D01*
X026404Y005396D01*
X026404Y011232D01*
X026258Y011232D01*
X026118Y011092D01*
X025250Y011092D01*
X025004Y011338D01*
X025004Y011686D01*
X025250Y011932D01*
X026118Y011932D01*
X026258Y011792D01*
X026800Y011792D01*
X026904Y011688D01*
X026904Y013232D01*
X026258Y013232D01*
X026118Y013092D01*
X025250Y013092D01*
X025004Y013338D01*
X025004Y013686D01*
X025250Y013932D01*
X025038Y013720D02*
X023964Y013720D01*
X023964Y013561D02*
X025004Y013561D01*
X025004Y013403D02*
X023964Y013403D01*
X023964Y013244D02*
X025097Y013244D01*
X025245Y012927D02*
X023964Y012927D01*
X023964Y013085D02*
X026904Y013085D01*
X026904Y012927D02*
X026122Y012927D01*
X026281Y012768D02*
X026904Y012768D01*
X026904Y012610D02*
X026364Y012610D01*
X026364Y012451D02*
X026904Y012451D01*
X026904Y012293D02*
X026319Y012293D01*
X026160Y012134D02*
X026904Y012134D01*
X026904Y011976D02*
X024464Y011976D01*
X024464Y012134D02*
X025207Y012134D01*
X025135Y011817D02*
X024464Y011817D01*
X024464Y011659D02*
X025004Y011659D01*
X025004Y011500D02*
X024464Y011500D01*
X024464Y011341D02*
X025004Y011341D01*
X025159Y011183D02*
X024464Y011183D01*
X024464Y011024D02*
X026404Y011024D01*
X026404Y010866D02*
X026183Y010866D01*
X026118Y010932D02*
X026364Y010686D01*
X026364Y010338D01*
X026118Y010092D01*
X025250Y010092D01*
X025004Y010338D01*
X025004Y010686D01*
X025250Y010932D01*
X026118Y010932D01*
X026209Y011183D02*
X026404Y011183D01*
X026404Y010707D02*
X026342Y010707D01*
X026364Y010549D02*
X026404Y010549D01*
X026404Y010390D02*
X026364Y010390D01*
X026404Y010232D02*
X026257Y010232D01*
X026404Y010073D02*
X024464Y010073D01*
X024464Y009915D02*
X026404Y009915D01*
X026404Y009756D02*
X024464Y009756D01*
X024464Y009598D02*
X026404Y009598D01*
X026404Y009439D02*
X024464Y009439D01*
X024464Y009280D02*
X026404Y009280D01*
X026404Y009122D02*
X024464Y009122D01*
X024464Y008963D02*
X026404Y008963D01*
X026404Y008805D02*
X024464Y008805D01*
X024464Y008646D02*
X026404Y008646D01*
X026404Y008488D02*
X024464Y008488D01*
X024464Y008329D02*
X026404Y008329D01*
X026404Y008171D02*
X024464Y008171D01*
X024464Y008012D02*
X026404Y008012D01*
X026404Y007854D02*
X024936Y007854D01*
X025094Y007695D02*
X026404Y007695D01*
X026404Y007536D02*
X025104Y007536D01*
X025104Y007378D02*
X026404Y007378D01*
X026404Y007219D02*
X024985Y007219D01*
X024464Y007061D02*
X026404Y007061D01*
X026404Y006902D02*
X024464Y006902D01*
X024464Y006744D02*
X026404Y006744D01*
X026404Y006585D02*
X024464Y006585D01*
X024464Y006427D02*
X026404Y006427D01*
X026404Y006268D02*
X024464Y006268D01*
X024464Y006110D02*
X026404Y006110D01*
X026404Y005951D02*
X024464Y005951D01*
X024997Y005792D02*
X026404Y005792D01*
X026404Y005634D02*
X025104Y005634D01*
X025104Y005475D02*
X026404Y005475D01*
X026483Y005317D02*
X025083Y005317D01*
X024924Y005158D02*
X028443Y005158D01*
X028924Y005158D02*
X030889Y005158D01*
X030889Y005000D02*
X012458Y005000D01*
X012594Y005158D02*
X022443Y005158D01*
X022285Y005317D02*
X012594Y005317D01*
X012594Y005475D02*
X022264Y005475D01*
X022264Y005634D02*
X012594Y005634D01*
X012594Y005792D02*
X022370Y005792D01*
X022997Y005792D02*
X023904Y005792D01*
X023904Y005951D02*
X012531Y005951D01*
X012373Y006110D02*
X023904Y006110D01*
X023904Y006268D02*
X012214Y006268D01*
X012202Y006744D02*
X015000Y006744D01*
X015028Y006732D02*
X014742Y006851D01*
X014522Y007070D01*
X014404Y007357D01*
X014404Y007667D01*
X014522Y007954D01*
X014742Y008173D01*
X015028Y008292D01*
X015339Y008292D01*
X015625Y008173D01*
X015845Y007954D01*
X015964Y007667D01*
X015964Y007357D01*
X015845Y007070D01*
X015625Y006851D01*
X015339Y006732D01*
X015028Y006732D01*
X015368Y006744D02*
X017820Y006744D01*
X017852Y006712D02*
X017384Y007180D01*
X017384Y007492D01*
X018163Y007492D01*
X018163Y007532D01*
X017384Y007532D01*
X017384Y007843D01*
X017852Y008312D01*
X018164Y008312D01*
X018164Y007532D01*
X018204Y007532D01*
X018204Y007492D01*
X018984Y007492D01*
X018984Y007180D01*
X018515Y006712D01*
X018204Y006712D01*
X018204Y007492D01*
X018164Y007492D01*
X018164Y006712D01*
X017852Y006712D01*
X017662Y006902D02*
X015677Y006902D01*
X015836Y007061D02*
X017503Y007061D01*
X017384Y007219D02*
X015907Y007219D01*
X015964Y007378D02*
X017384Y007378D01*
X017384Y007536D02*
X015964Y007536D01*
X015952Y007695D02*
X017384Y007695D01*
X017394Y007854D02*
X015886Y007854D01*
X015786Y008012D02*
X017553Y008012D01*
X017711Y008171D02*
X015628Y008171D01*
X014739Y008171D02*
X012312Y008171D01*
X012470Y008012D02*
X014581Y008012D01*
X014481Y007854D02*
X012594Y007854D01*
X012594Y007695D02*
X014415Y007695D01*
X014404Y007536D02*
X012594Y007536D01*
X012594Y007378D02*
X014404Y007378D01*
X014461Y007219D02*
X012594Y007219D01*
X012520Y007061D02*
X014531Y007061D01*
X014690Y006902D02*
X012361Y006902D01*
X012153Y008329D02*
X023904Y008329D01*
X023904Y008171D02*
X018656Y008171D01*
X018515Y008312D02*
X018984Y007843D01*
X018984Y007532D01*
X018204Y007532D01*
X018204Y008312D01*
X018515Y008312D01*
X018204Y008171D02*
X018164Y008171D01*
X018164Y008012D02*
X018204Y008012D01*
X018204Y007854D02*
X018164Y007854D01*
X018164Y007695D02*
X018204Y007695D01*
X018204Y007536D02*
X018164Y007536D01*
X018164Y007378D02*
X018204Y007378D01*
X018204Y007219D02*
X018164Y007219D01*
X018164Y007061D02*
X018204Y007061D01*
X018204Y006902D02*
X018164Y006902D01*
X018164Y006744D02*
X018204Y006744D01*
X018547Y006744D02*
X023904Y006744D01*
X023904Y006902D02*
X018705Y006902D01*
X018864Y007061D02*
X023904Y007061D01*
X023904Y007219D02*
X023013Y007219D01*
X023124Y007330D02*
X022866Y007072D01*
X022684Y007072D01*
X022684Y007511D01*
X022683Y007511D01*
X022683Y007072D01*
X022501Y007072D01*
X022244Y007330D01*
X022244Y007512D01*
X022244Y007694D01*
X022501Y007952D01*
X022683Y007952D01*
X022683Y007512D01*
X022244Y007512D01*
X022683Y007512D01*
X022683Y007512D01*
X022684Y007512D01*
X022684Y007512D01*
X023124Y007512D01*
X023124Y007694D01*
X022866Y007952D01*
X022684Y007952D01*
X022684Y007512D01*
X023124Y007512D01*
X023124Y007330D01*
X023124Y007378D02*
X023904Y007378D01*
X023904Y007536D02*
X023124Y007536D01*
X023123Y007695D02*
X023904Y007695D01*
X023904Y007854D02*
X022964Y007854D01*
X022684Y007854D02*
X022683Y007854D01*
X022684Y007695D02*
X022683Y007695D01*
X022684Y007536D02*
X022683Y007536D01*
X022684Y007378D02*
X022683Y007378D01*
X022684Y007219D02*
X022683Y007219D01*
X022354Y007219D02*
X018984Y007219D01*
X018984Y007378D02*
X022244Y007378D01*
X022244Y007536D02*
X018984Y007536D01*
X018984Y007695D02*
X022245Y007695D01*
X022403Y007854D02*
X018973Y007854D01*
X018815Y008012D02*
X023904Y008012D01*
X023904Y008488D02*
X001979Y008488D01*
X001979Y008646D02*
X005262Y008646D01*
X005104Y008805D02*
X001979Y008805D01*
X001979Y008963D02*
X004945Y008963D01*
X004787Y009122D02*
X001979Y009122D01*
X001979Y009280D02*
X004774Y009280D01*
X004774Y009439D02*
X001979Y009439D01*
X001979Y009598D02*
X004774Y009598D01*
X004774Y009756D02*
X001979Y009756D01*
X001979Y009915D02*
X004800Y009915D01*
X004958Y010073D02*
X001979Y010073D01*
X001979Y010232D02*
X005117Y010232D01*
X005275Y010390D02*
X001979Y010390D01*
X001979Y010549D02*
X018984Y010549D01*
X018984Y010512D02*
X018984Y010694D01*
X019241Y010952D01*
X019683Y010952D01*
X019683Y010512D01*
X018984Y010512D01*
X019683Y010512D01*
X019683Y010512D01*
X019684Y010512D01*
X019684Y010512D01*
X020384Y010512D01*
X020384Y010694D01*
X020126Y010952D01*
X019684Y010952D01*
X019684Y010512D01*
X020384Y010512D01*
X020384Y010330D01*
X020126Y010072D01*
X019684Y010072D01*
X019684Y010511D01*
X019683Y010511D01*
X019683Y010072D01*
X019241Y010072D01*
X018984Y010330D01*
X018984Y010512D01*
X018984Y010390D02*
X012092Y010390D01*
X012251Y010232D02*
X019081Y010232D01*
X019240Y010073D02*
X012409Y010073D01*
X012568Y009915D02*
X023904Y009915D01*
X023904Y010073D02*
X023127Y010073D01*
X023126Y010072D02*
X022684Y010072D01*
X022684Y010511D01*
X022683Y010511D01*
X022683Y010072D01*
X022241Y010072D01*
X021984Y010330D01*
X021984Y010512D01*
X021984Y010694D01*
X022241Y010952D01*
X022683Y010952D01*
X022683Y010512D01*
X021984Y010512D01*
X022683Y010512D01*
X022683Y010512D01*
X022684Y010512D01*
X023384Y010512D01*
X023384Y010330D01*
X023126Y010072D01*
X023286Y010232D02*
X023904Y010232D01*
X023904Y010390D02*
X023384Y010390D01*
X023384Y010549D02*
X023904Y010549D01*
X023904Y010707D02*
X023370Y010707D01*
X022684Y010707D02*
X022683Y010707D01*
X022684Y010549D02*
X022683Y010549D01*
X022684Y010390D02*
X022683Y010390D01*
X022684Y010232D02*
X022683Y010232D01*
X022684Y010073D02*
X022683Y010073D01*
X022240Y010073D02*
X020127Y010073D01*
X020286Y010232D02*
X022081Y010232D01*
X021984Y010390D02*
X020384Y010390D01*
X020384Y010549D02*
X021984Y010549D01*
X021997Y010707D02*
X020370Y010707D01*
X020212Y010866D02*
X022155Y010866D01*
X022159Y011183D02*
X020209Y011183D01*
X019684Y010866D02*
X019683Y010866D01*
X019684Y010707D02*
X019683Y010707D01*
X019684Y010549D02*
X019683Y010549D01*
X019684Y010390D02*
X019683Y010390D01*
X019684Y010232D02*
X019683Y010232D01*
X019684Y010073D02*
X019683Y010073D01*
X018997Y010707D02*
X012166Y010707D01*
X012325Y010866D02*
X019155Y010866D01*
X020232Y011817D02*
X020904Y011817D01*
X021464Y011817D02*
X022135Y011817D01*
X022004Y011659D02*
X021464Y011659D01*
X021464Y011500D02*
X022004Y011500D01*
X022004Y011341D02*
X021409Y011341D01*
X022683Y010866D02*
X022684Y010866D01*
X023904Y009756D02*
X012594Y009756D01*
X012594Y009598D02*
X023904Y009598D01*
X023904Y009439D02*
X012594Y009439D01*
X012594Y009280D02*
X023904Y009280D01*
X023904Y009122D02*
X012581Y009122D01*
X012422Y008963D02*
X023904Y008963D01*
X023904Y008805D02*
X012264Y008805D01*
X012105Y008646D02*
X023904Y008646D01*
X024464Y010232D02*
X025110Y010232D01*
X025004Y010390D02*
X024464Y010390D01*
X024464Y010549D02*
X025004Y010549D01*
X025025Y010707D02*
X024464Y010707D01*
X024464Y010866D02*
X025184Y010866D01*
X026232Y011817D02*
X026904Y011817D01*
X027464Y011817D02*
X028135Y011817D01*
X028250Y011932D02*
X029118Y011932D01*
X029364Y011686D01*
X029364Y011338D01*
X029118Y011092D01*
X028250Y011092D01*
X028004Y011338D01*
X028004Y011686D01*
X028250Y011932D01*
X028250Y012092D02*
X028004Y012338D01*
X028004Y012686D01*
X028250Y012932D01*
X029118Y012932D01*
X029364Y012686D01*
X029364Y012338D01*
X029118Y012092D01*
X028250Y012092D01*
X028207Y012134D02*
X027464Y012134D01*
X027464Y011976D02*
X030889Y011976D01*
X030889Y012134D02*
X029160Y012134D01*
X029319Y012293D02*
X030889Y012293D01*
X030889Y012451D02*
X029364Y012451D01*
X029364Y012610D02*
X030889Y012610D01*
X030889Y012768D02*
X029281Y012768D01*
X029122Y012927D02*
X030889Y012927D01*
X030889Y013085D02*
X029139Y013085D01*
X029126Y013072D02*
X028684Y013072D01*
X028684Y013511D01*
X028683Y013511D01*
X028683Y013072D01*
X028241Y013072D01*
X027984Y013330D01*
X027984Y013512D01*
X027984Y013694D01*
X028241Y013952D01*
X028683Y013952D01*
X028683Y013512D01*
X027984Y013512D01*
X028683Y013512D01*
X028683Y013512D01*
X028684Y013512D01*
X028684Y013512D01*
X029384Y013512D01*
X029384Y013694D01*
X029126Y013952D01*
X028684Y013952D01*
X028684Y013512D01*
X029384Y013512D01*
X029384Y013330D01*
X029126Y013072D01*
X029298Y013244D02*
X030889Y013244D01*
X030889Y013403D02*
X029384Y013403D01*
X029384Y013561D02*
X030889Y013561D01*
X030889Y013720D02*
X029358Y013720D01*
X029199Y013878D02*
X030889Y013878D01*
X030889Y014354D02*
X025129Y014354D01*
X025287Y014512D02*
X030889Y014512D01*
X030889Y014671D02*
X025446Y014671D01*
X025464Y014829D02*
X030889Y014829D01*
X030889Y014988D02*
X025464Y014988D01*
X025464Y015147D02*
X025927Y015147D01*
X026001Y015072D02*
X025744Y015330D01*
X025744Y015512D01*
X025744Y015694D01*
X026001Y015952D01*
X026183Y015952D01*
X026183Y015512D01*
X025744Y015512D01*
X026183Y015512D01*
X026183Y015512D01*
X026184Y015512D01*
X026184Y015512D01*
X026624Y015512D01*
X026624Y015694D01*
X026366Y015952D01*
X026184Y015952D01*
X026184Y015512D01*
X026624Y015512D01*
X026624Y015330D01*
X026366Y015072D01*
X026184Y015072D01*
X026184Y015511D01*
X026183Y015511D01*
X026183Y015072D01*
X026001Y015072D01*
X026183Y015147D02*
X026184Y015147D01*
X026184Y015305D02*
X026183Y015305D01*
X026184Y015464D02*
X026183Y015464D01*
X026184Y015622D02*
X026183Y015622D01*
X026184Y015781D02*
X026183Y015781D01*
X026184Y015939D02*
X026183Y015939D01*
X025989Y015939D02*
X019464Y015939D01*
X019464Y015826D02*
X019604Y015686D01*
X019604Y015338D01*
X019358Y015092D01*
X019010Y015092D01*
X018764Y015338D01*
X018764Y015686D01*
X018904Y015826D01*
X018904Y017269D01*
X018864Y017309D01*
X018864Y017715D01*
X019151Y018002D01*
X020217Y018002D01*
X020504Y017715D01*
X020504Y017309D01*
X020217Y017022D01*
X019464Y017022D01*
X019464Y015826D01*
X019509Y015781D02*
X022859Y015781D01*
X022764Y015622D02*
X019604Y015622D01*
X019604Y015464D02*
X022764Y015464D01*
X022796Y015305D02*
X019571Y015305D01*
X019412Y015147D02*
X022904Y015147D01*
X022904Y014988D02*
X007994Y014988D01*
X008094Y014889D02*
X008094Y014135D01*
X007561Y013602D01*
X006807Y013602D01*
X006274Y014135D01*
X006274Y014889D01*
X006807Y015422D01*
X007561Y015422D01*
X008094Y014889D01*
X008094Y014829D02*
X022904Y014829D01*
X023571Y015305D02*
X023904Y015305D01*
X024032Y015464D02*
X023604Y015464D01*
X023604Y015622D02*
X024191Y015622D01*
X024349Y015781D02*
X023509Y015781D01*
X025018Y015781D02*
X025830Y015781D01*
X025744Y015622D02*
X025176Y015622D01*
X025335Y015464D02*
X025744Y015464D01*
X025768Y015305D02*
X025464Y015305D01*
X026441Y015147D02*
X027955Y015147D01*
X028010Y015092D02*
X027764Y015338D01*
X027764Y015686D01*
X028010Y015932D01*
X028358Y015932D01*
X028604Y015686D01*
X028604Y015338D01*
X028358Y015092D01*
X028010Y015092D01*
X027796Y015305D02*
X026599Y015305D01*
X026624Y015464D02*
X027764Y015464D01*
X027764Y015622D02*
X026624Y015622D01*
X026537Y015781D02*
X027859Y015781D01*
X028509Y015781D02*
X030889Y015781D01*
X030889Y015939D02*
X026378Y015939D01*
X026466Y016786D02*
X026309Y016804D01*
X026155Y016836D01*
X026004Y016882D01*
X025858Y016941D01*
X025719Y017014D01*
X025586Y017098D01*
X025462Y017195D01*
X025346Y017303D01*
X025242Y017420D01*
X025148Y017547D01*
X025066Y017681D01*
X024997Y017823D01*
X024941Y017970D01*
X024898Y018121D01*
X024870Y018276D01*
X024855Y018433D01*
X024855Y018591D01*
X024870Y018747D01*
X024898Y018902D01*
X024941Y019054D01*
X024997Y019201D01*
X025066Y019342D01*
X025148Y019477D01*
X025242Y019604D01*
X025346Y019721D01*
X025462Y019829D01*
X025586Y019925D01*
X025719Y020010D01*
X025858Y020082D01*
X026004Y020142D01*
X026155Y020188D01*
X026309Y020220D01*
X026466Y020238D01*
X026623Y020241D01*
X026780Y020231D01*
X026936Y020206D01*
X027088Y020167D01*
X027237Y020114D01*
X027380Y020048D01*
X027516Y019969D01*
X027645Y019878D01*
X027764Y019776D01*
X027874Y019664D01*
X027974Y019541D01*
X028062Y019411D01*
X028137Y019273D01*
X028200Y019128D01*
X028249Y018979D01*
X028285Y018825D01*
X028306Y018669D01*
X028314Y018512D01*
X028306Y018354D01*
X028285Y018198D01*
X028249Y018045D01*
X028200Y017895D01*
X028137Y017751D01*
X028062Y017613D01*
X027974Y017482D01*
X027874Y017360D01*
X027764Y017247D01*
X027645Y017145D01*
X027516Y017054D01*
X027380Y016976D01*
X027237Y016910D01*
X027088Y016857D01*
X026936Y016818D01*
X026780Y016793D01*
X026623Y016782D01*
X026466Y016786D01*
X025983Y016891D02*
X019464Y016891D01*
X019464Y016732D02*
X030889Y016732D01*
X030889Y016891D02*
X027182Y016891D01*
X027506Y017049D02*
X030889Y017049D01*
X030889Y017208D02*
X027718Y017208D01*
X027879Y017366D02*
X030889Y017366D01*
X030889Y017525D02*
X028002Y017525D01*
X028100Y017683D02*
X030889Y017683D01*
X030889Y017842D02*
X028177Y017842D01*
X028235Y018000D02*
X030889Y018000D01*
X030889Y018159D02*
X028276Y018159D01*
X028301Y018317D02*
X030889Y018317D01*
X030889Y018476D02*
X028312Y018476D01*
X028308Y018634D02*
X030889Y018634D01*
X030889Y018793D02*
X028289Y018793D01*
X028256Y018952D02*
X030889Y018952D01*
X030889Y019110D02*
X028206Y019110D01*
X028139Y019269D02*
X030889Y019269D01*
X030889Y019427D02*
X028051Y019427D01*
X027938Y019586D02*
X030889Y019586D01*
X030889Y019744D02*
X027796Y019744D01*
X027610Y019903D02*
X030889Y019903D01*
X030889Y020061D02*
X027350Y020061D01*
X026846Y020220D02*
X030889Y020220D01*
X030889Y020378D02*
X005604Y020378D01*
X005561Y020422D02*
X006094Y019889D01*
X006094Y019135D01*
X005561Y018602D01*
X004807Y018602D01*
X004274Y019135D01*
X004274Y019889D01*
X004807Y020422D01*
X005561Y020422D01*
X005762Y020220D02*
X026310Y020220D01*
X025818Y020061D02*
X005921Y020061D01*
X006079Y019903D02*
X019023Y019903D01*
X019142Y020022D02*
X019654Y020022D01*
X019654Y019542D01*
X019714Y019542D01*
X019714Y019482D01*
X020524Y019482D01*
X020524Y019301D01*
X020225Y019002D01*
X019714Y019002D01*
X019714Y019482D01*
X019654Y019482D01*
X019654Y019002D01*
X019142Y019002D01*
X018844Y019301D01*
X018844Y019482D01*
X019653Y019482D01*
X019653Y019542D01*
X018844Y019542D01*
X018844Y019723D01*
X019142Y020022D01*
X019654Y019903D02*
X019714Y019903D01*
X019714Y020022D02*
X020225Y020022D01*
X020524Y019723D01*
X020524Y019542D01*
X019714Y019542D01*
X019714Y020022D01*
X020344Y019903D02*
X025557Y019903D01*
X025371Y019744D02*
X020502Y019744D01*
X020524Y019586D02*
X025228Y019586D01*
X025118Y019427D02*
X020524Y019427D01*
X020492Y019269D02*
X025030Y019269D01*
X024962Y019110D02*
X020333Y019110D01*
X020217Y019002D02*
X020504Y018715D01*
X020504Y018309D01*
X020217Y018022D01*
X019151Y018022D01*
X018864Y018309D01*
X018864Y018715D01*
X019151Y019002D01*
X020217Y019002D01*
X020267Y018952D02*
X024912Y018952D01*
X024878Y018793D02*
X020425Y018793D01*
X020504Y018634D02*
X024859Y018634D01*
X024855Y018476D02*
X020504Y018476D01*
X020504Y018317D02*
X024866Y018317D01*
X024891Y018159D02*
X020354Y018159D01*
X020218Y018000D02*
X024932Y018000D01*
X024990Y017842D02*
X020377Y017842D01*
X020504Y017683D02*
X025065Y017683D01*
X025164Y017525D02*
X020504Y017525D01*
X020504Y017366D02*
X025290Y017366D01*
X025448Y017208D02*
X020402Y017208D01*
X020244Y017049D02*
X025663Y017049D01*
X028604Y015622D02*
X030889Y015622D01*
X030889Y015464D02*
X028604Y015464D01*
X028571Y015305D02*
X030889Y015305D01*
X030889Y015147D02*
X028412Y015147D01*
X028168Y013878D02*
X026171Y013878D01*
X027372Y013720D02*
X028009Y013720D01*
X027984Y013561D02*
X027464Y013561D01*
X027464Y013403D02*
X027984Y013403D01*
X028069Y013244D02*
X027464Y013244D01*
X027464Y013085D02*
X028228Y013085D01*
X028245Y012927D02*
X027464Y012927D01*
X027464Y012768D02*
X028086Y012768D01*
X028004Y012610D02*
X027464Y012610D01*
X027464Y012451D02*
X028004Y012451D01*
X028049Y012293D02*
X027464Y012293D01*
X027464Y011659D02*
X028004Y011659D01*
X028004Y011500D02*
X027464Y011500D01*
X027464Y011341D02*
X028004Y011341D01*
X028159Y011183D02*
X027464Y011183D01*
X027464Y011024D02*
X030889Y011024D01*
X030889Y010866D02*
X029183Y010866D01*
X029118Y010932D02*
X029364Y010686D01*
X029364Y010338D01*
X029118Y010092D01*
X028250Y010092D01*
X028004Y010338D01*
X028004Y010686D01*
X028250Y010932D01*
X029118Y010932D01*
X029209Y011183D02*
X030889Y011183D01*
X030889Y011341D02*
X029364Y011341D01*
X029364Y011500D02*
X030889Y011500D01*
X030889Y011659D02*
X029364Y011659D01*
X029232Y011817D02*
X030889Y011817D01*
X030889Y010707D02*
X029342Y010707D01*
X029364Y010549D02*
X030889Y010549D01*
X030889Y010390D02*
X029364Y010390D01*
X029257Y010232D02*
X030889Y010232D01*
X030889Y010073D02*
X027464Y010073D01*
X027464Y009915D02*
X030889Y009915D01*
X030889Y009756D02*
X027464Y009756D01*
X027464Y009598D02*
X030889Y009598D01*
X030889Y009439D02*
X027464Y009439D01*
X027464Y009280D02*
X030889Y009280D01*
X030889Y009122D02*
X027464Y009122D01*
X027464Y008963D02*
X030889Y008963D01*
X030889Y008805D02*
X027464Y008805D01*
X027464Y008646D02*
X030889Y008646D01*
X030889Y008488D02*
X027464Y008488D01*
X027464Y008329D02*
X030889Y008329D01*
X030889Y008171D02*
X027464Y008171D01*
X027464Y008012D02*
X030889Y008012D01*
X030889Y007854D02*
X028936Y007854D01*
X029094Y007695D02*
X030889Y007695D01*
X030889Y007536D02*
X029104Y007536D01*
X029104Y007378D02*
X030889Y007378D01*
X030889Y007219D02*
X028985Y007219D01*
X028382Y007219D02*
X026964Y007219D01*
X026964Y007061D02*
X030889Y007061D01*
X030889Y006902D02*
X026964Y006902D01*
X026964Y006744D02*
X030889Y006744D01*
X030889Y006585D02*
X026964Y006585D01*
X026964Y006427D02*
X030889Y006427D01*
X030889Y006268D02*
X026964Y006268D01*
X026964Y006110D02*
X030889Y006110D01*
X030889Y005951D02*
X026964Y005951D01*
X026964Y005792D02*
X028370Y005792D01*
X028997Y005792D02*
X030889Y005792D01*
X030889Y005634D02*
X029104Y005634D01*
X029104Y005475D02*
X030889Y005475D01*
X030889Y005317D02*
X029083Y005317D01*
X030889Y004841D02*
X012300Y004841D01*
X012141Y004683D02*
X030889Y004683D01*
X030889Y004524D02*
X001979Y004524D01*
X001979Y004366D02*
X030889Y004366D01*
X030889Y004207D02*
X001979Y004207D01*
X001979Y004049D02*
X030889Y004049D01*
X030889Y003890D02*
X001979Y003890D01*
X001979Y003731D02*
X030889Y003731D01*
X030889Y003573D02*
X001979Y003573D01*
X001979Y003414D02*
X030889Y003414D01*
X030889Y003256D02*
X025390Y003256D01*
X025374Y003272D02*
X025644Y003002D01*
X025644Y002021D01*
X025374Y001752D01*
X024993Y001752D01*
X024724Y002021D01*
X024724Y003002D01*
X024993Y003272D01*
X025374Y003272D01*
X025549Y003097D02*
X030889Y003097D01*
X030889Y002939D02*
X025644Y002939D01*
X025644Y002780D02*
X030889Y002780D01*
X030889Y002622D02*
X025644Y002622D01*
X025644Y002463D02*
X030889Y002463D01*
X030889Y002305D02*
X025644Y002305D01*
X025644Y002146D02*
X030889Y002146D01*
X030889Y001987D02*
X025610Y001987D01*
X025451Y001829D02*
X030889Y001829D01*
X024916Y001829D02*
X024451Y001829D01*
X024374Y001752D02*
X024644Y002021D01*
X024644Y003002D01*
X024374Y003272D01*
X023993Y003272D01*
X023724Y003002D01*
X023724Y002021D01*
X023993Y001752D01*
X024374Y001752D01*
X024610Y001987D02*
X024757Y001987D01*
X024724Y002146D02*
X024644Y002146D01*
X024644Y002305D02*
X024724Y002305D01*
X024724Y002463D02*
X024644Y002463D01*
X024644Y002622D02*
X024724Y002622D01*
X024724Y002780D02*
X024644Y002780D01*
X024644Y002939D02*
X024724Y002939D01*
X024819Y003097D02*
X024549Y003097D01*
X024390Y003256D02*
X024977Y003256D01*
X023977Y003256D02*
X023390Y003256D01*
X023374Y003272D02*
X023644Y003002D01*
X023644Y002021D01*
X023374Y001752D01*
X022993Y001752D01*
X022724Y002021D01*
X022724Y003002D01*
X022993Y003272D01*
X023374Y003272D01*
X023549Y003097D02*
X023819Y003097D01*
X023724Y002939D02*
X023644Y002939D01*
X023644Y002780D02*
X023724Y002780D01*
X023724Y002622D02*
X023644Y002622D01*
X023644Y002463D02*
X023724Y002463D01*
X023724Y002305D02*
X023644Y002305D01*
X023644Y002146D02*
X023724Y002146D01*
X023757Y001987D02*
X023610Y001987D01*
X023451Y001829D02*
X023916Y001829D01*
X022916Y001829D02*
X022451Y001829D01*
X022374Y001752D02*
X022644Y002021D01*
X022644Y003002D01*
X022374Y003272D01*
X021993Y003272D01*
X021724Y003002D01*
X021724Y002021D01*
X021993Y001752D01*
X022374Y001752D01*
X022610Y001987D02*
X022757Y001987D01*
X022724Y002146D02*
X022644Y002146D01*
X022644Y002305D02*
X022724Y002305D01*
X022724Y002463D02*
X022644Y002463D01*
X022644Y002622D02*
X022724Y002622D01*
X022724Y002780D02*
X022644Y002780D01*
X022644Y002939D02*
X022724Y002939D01*
X022819Y003097D02*
X022549Y003097D01*
X022390Y003256D02*
X022977Y003256D01*
X021977Y003256D02*
X021390Y003256D01*
X021374Y003272D02*
X021644Y003002D01*
X021644Y002021D01*
X021374Y001752D01*
X020993Y001752D01*
X020724Y002021D01*
X020724Y003002D01*
X020993Y003272D01*
X021374Y003272D01*
X021549Y003097D02*
X021819Y003097D01*
X021724Y002939D02*
X021644Y002939D01*
X021644Y002780D02*
X021724Y002780D01*
X021724Y002622D02*
X021644Y002622D01*
X021644Y002463D02*
X021724Y002463D01*
X021724Y002305D02*
X021644Y002305D01*
X021644Y002146D02*
X021724Y002146D01*
X021757Y001987D02*
X021610Y001987D01*
X021451Y001829D02*
X021916Y001829D01*
X020916Y001829D02*
X020451Y001829D01*
X020374Y001752D02*
X020644Y002021D01*
X020644Y003002D01*
X020374Y003272D01*
X019993Y003272D01*
X019724Y003002D01*
X019724Y002021D01*
X019993Y001752D01*
X020374Y001752D01*
X020610Y001987D02*
X020757Y001987D01*
X020724Y002146D02*
X020644Y002146D01*
X020644Y002305D02*
X020724Y002305D01*
X020724Y002463D02*
X020644Y002463D01*
X020644Y002622D02*
X020724Y002622D01*
X020724Y002780D02*
X020644Y002780D01*
X020644Y002939D02*
X020724Y002939D01*
X020819Y003097D02*
X020549Y003097D01*
X020390Y003256D02*
X020977Y003256D01*
X019977Y003256D02*
X019390Y003256D01*
X019374Y003272D02*
X019644Y003002D01*
X019644Y002021D01*
X019374Y001752D01*
X018993Y001752D01*
X018724Y002021D01*
X018724Y003002D01*
X018993Y003272D01*
X019374Y003272D01*
X019549Y003097D02*
X019819Y003097D01*
X019724Y002939D02*
X019644Y002939D01*
X019644Y002780D02*
X019724Y002780D01*
X019724Y002622D02*
X019644Y002622D01*
X019644Y002463D02*
X019724Y002463D01*
X019724Y002305D02*
X019644Y002305D01*
X019644Y002146D02*
X019724Y002146D01*
X019757Y001987D02*
X019610Y001987D01*
X019451Y001829D02*
X019916Y001829D01*
X018916Y001829D02*
X018451Y001829D01*
X018374Y001752D02*
X018644Y002021D01*
X018644Y003002D01*
X018374Y003272D01*
X017993Y003272D01*
X017724Y003002D01*
X017724Y002021D01*
X017993Y001752D01*
X018374Y001752D01*
X018610Y001987D02*
X018757Y001987D01*
X018724Y002146D02*
X018644Y002146D01*
X018644Y002305D02*
X018724Y002305D01*
X018724Y002463D02*
X018644Y002463D01*
X018644Y002622D02*
X018724Y002622D01*
X018724Y002780D02*
X018644Y002780D01*
X018644Y002939D02*
X018724Y002939D01*
X018819Y003097D02*
X018549Y003097D01*
X018390Y003256D02*
X018977Y003256D01*
X017977Y003256D02*
X017390Y003256D01*
X017374Y003272D02*
X017644Y003002D01*
X017644Y002021D01*
X017374Y001752D01*
X016993Y001752D01*
X016724Y002021D01*
X016724Y003002D01*
X016993Y003272D01*
X017374Y003272D01*
X017549Y003097D02*
X017819Y003097D01*
X017724Y002939D02*
X017644Y002939D01*
X017644Y002780D02*
X017724Y002780D01*
X017724Y002622D02*
X017644Y002622D01*
X017644Y002463D02*
X017724Y002463D01*
X017724Y002305D02*
X017644Y002305D01*
X017644Y002146D02*
X017724Y002146D01*
X017757Y001987D02*
X017610Y001987D01*
X017451Y001829D02*
X017916Y001829D01*
X016916Y001829D02*
X016451Y001829D01*
X016374Y001752D02*
X016644Y002021D01*
X016644Y003002D01*
X016374Y003272D01*
X015993Y003272D01*
X015724Y003002D01*
X015724Y002021D01*
X015993Y001752D01*
X016374Y001752D01*
X016610Y001987D02*
X016757Y001987D01*
X016724Y002146D02*
X016644Y002146D01*
X016644Y002305D02*
X016724Y002305D01*
X016724Y002463D02*
X016644Y002463D01*
X016644Y002622D02*
X016724Y002622D01*
X016724Y002780D02*
X016644Y002780D01*
X016644Y002939D02*
X016724Y002939D01*
X016819Y003097D02*
X016549Y003097D01*
X016390Y003256D02*
X016977Y003256D01*
X015977Y003256D02*
X015390Y003256D01*
X015374Y003272D02*
X015644Y003002D01*
X015644Y002021D01*
X015374Y001752D01*
X014993Y001752D01*
X014724Y002021D01*
X014724Y003002D01*
X014993Y003272D01*
X015374Y003272D01*
X015549Y003097D02*
X015819Y003097D01*
X015724Y002939D02*
X015644Y002939D01*
X015644Y002780D02*
X015724Y002780D01*
X015724Y002622D02*
X015644Y002622D01*
X015644Y002463D02*
X015724Y002463D01*
X015724Y002305D02*
X015644Y002305D01*
X015644Y002146D02*
X015724Y002146D01*
X015757Y001987D02*
X015610Y001987D01*
X015451Y001829D02*
X015916Y001829D01*
X014916Y001829D02*
X014451Y001829D01*
X014374Y001752D02*
X014644Y002021D01*
X014644Y003002D01*
X014374Y003272D01*
X013993Y003272D01*
X013724Y003002D01*
X013724Y002021D01*
X013993Y001752D01*
X014374Y001752D01*
X014610Y001987D02*
X014757Y001987D01*
X014724Y002146D02*
X014644Y002146D01*
X014644Y002305D02*
X014724Y002305D01*
X014724Y002463D02*
X014644Y002463D01*
X014644Y002622D02*
X014724Y002622D01*
X014724Y002780D02*
X014644Y002780D01*
X014644Y002939D02*
X014724Y002939D01*
X014819Y003097D02*
X014549Y003097D01*
X014390Y003256D02*
X014977Y003256D01*
X013977Y003256D02*
X013390Y003256D01*
X013374Y003272D02*
X013644Y003002D01*
X013644Y002021D01*
X013374Y001752D01*
X012993Y001752D01*
X012724Y002021D01*
X012724Y003002D01*
X012993Y003272D01*
X013374Y003272D01*
X013549Y003097D02*
X013819Y003097D01*
X013724Y002939D02*
X013644Y002939D01*
X013644Y002780D02*
X013724Y002780D01*
X013724Y002622D02*
X013644Y002622D01*
X013644Y002463D02*
X013724Y002463D01*
X013724Y002305D02*
X013644Y002305D01*
X013644Y002146D02*
X013724Y002146D01*
X013757Y001987D02*
X013610Y001987D01*
X013451Y001829D02*
X013916Y001829D01*
X012916Y001829D02*
X012451Y001829D01*
X012374Y001752D02*
X012644Y002021D01*
X012644Y003002D01*
X012374Y003272D01*
X011993Y003272D01*
X011724Y003002D01*
X011724Y002021D01*
X011993Y001752D01*
X012374Y001752D01*
X012610Y001987D02*
X012757Y001987D01*
X012724Y002146D02*
X012644Y002146D01*
X012644Y002305D02*
X012724Y002305D01*
X012724Y002463D02*
X012644Y002463D01*
X012644Y002622D02*
X012724Y002622D01*
X012724Y002780D02*
X012644Y002780D01*
X012644Y002939D02*
X012724Y002939D01*
X012819Y003097D02*
X012549Y003097D01*
X012390Y003256D02*
X012977Y003256D01*
X011977Y003256D02*
X011390Y003256D01*
X011549Y003097D02*
X011819Y003097D01*
X011724Y002939D02*
X011644Y002939D01*
X011644Y002780D02*
X011724Y002780D01*
X011724Y002622D02*
X011644Y002622D01*
X011644Y002463D02*
X011724Y002463D01*
X011724Y002305D02*
X011644Y002305D01*
X011644Y002146D02*
X011724Y002146D01*
X011757Y001987D02*
X011610Y001987D01*
X011451Y001829D02*
X011916Y001829D01*
X005226Y004683D02*
X001979Y004683D01*
X001979Y004841D02*
X005067Y004841D01*
X004909Y005000D02*
X001979Y005000D01*
X001979Y005158D02*
X004774Y005158D01*
X004774Y005317D02*
X001979Y005317D01*
X001979Y005475D02*
X004774Y005475D01*
X004774Y005634D02*
X001979Y005634D01*
X001979Y005792D02*
X004774Y005792D01*
X004836Y005951D02*
X001979Y005951D01*
X001979Y006110D02*
X004994Y006110D01*
X005153Y006268D02*
X001979Y006268D01*
X001979Y006427D02*
X023904Y006427D01*
X023904Y006585D02*
X001979Y006585D01*
X001979Y006744D02*
X005165Y006744D01*
X005006Y006902D02*
X001979Y006902D01*
X001979Y007061D02*
X004848Y007061D01*
X004774Y007219D02*
X001979Y007219D01*
X001979Y007378D02*
X004774Y007378D01*
X004774Y007536D02*
X001979Y007536D01*
X001979Y007695D02*
X004774Y007695D01*
X004774Y007854D02*
X001979Y007854D01*
X001979Y008012D02*
X004897Y008012D01*
X005056Y008171D02*
X001979Y008171D01*
X001979Y008329D02*
X005214Y008329D01*
X005201Y010707D02*
X001979Y010707D01*
X001979Y010866D02*
X005043Y010866D01*
X004884Y011024D02*
X001979Y011024D01*
X001979Y011183D02*
X004774Y011183D01*
X004774Y011341D02*
X001979Y011341D01*
X001979Y011500D02*
X004774Y011500D01*
X004774Y011659D02*
X001979Y011659D01*
X001979Y011817D02*
X004774Y011817D01*
X004861Y011976D02*
X001979Y011976D01*
X001979Y012134D02*
X005019Y012134D01*
X005178Y012293D02*
X001979Y012293D01*
X001979Y012451D02*
X014904Y012451D01*
X014904Y012610D02*
X001979Y012610D01*
X001979Y012768D02*
X014904Y012768D01*
X014996Y012927D02*
X001979Y012927D01*
X001979Y013085D02*
X015154Y013085D01*
X015313Y013244D02*
X001979Y013244D01*
X001979Y013403D02*
X019004Y013403D01*
X019004Y013561D02*
X001979Y013561D01*
X001979Y013720D02*
X006689Y013720D01*
X006530Y013878D02*
X001979Y013878D01*
X001979Y014037D02*
X006372Y014037D01*
X006274Y014195D02*
X001979Y014195D01*
X001979Y014354D02*
X006274Y014354D01*
X006274Y014512D02*
X001979Y014512D01*
X001979Y014671D02*
X006274Y014671D01*
X006274Y014829D02*
X001979Y014829D01*
X001979Y014988D02*
X006373Y014988D01*
X006531Y015147D02*
X005605Y015147D01*
X005561Y015102D02*
X004807Y015102D01*
X004274Y015635D01*
X004274Y016389D01*
X004807Y016922D01*
X005561Y016922D01*
X006094Y016389D01*
X006094Y015635D01*
X005561Y015102D01*
X005764Y015305D02*
X006690Y015305D01*
X006081Y015622D02*
X018764Y015622D01*
X018764Y015464D02*
X005922Y015464D01*
X006094Y015781D02*
X018859Y015781D01*
X018904Y015939D02*
X006094Y015939D01*
X006094Y016098D02*
X018904Y016098D01*
X018904Y016256D02*
X006094Y016256D01*
X006067Y016415D02*
X018904Y016415D01*
X018904Y016573D02*
X005909Y016573D01*
X005750Y016732D02*
X018904Y016732D01*
X018904Y016891D02*
X005592Y016891D01*
X004775Y016891D02*
X001979Y016891D01*
X001979Y017049D02*
X018904Y017049D01*
X018904Y017208D02*
X007666Y017208D01*
X007561Y017102D02*
X006807Y017102D01*
X006274Y017635D01*
X006274Y018389D01*
X006807Y018922D01*
X007561Y018922D01*
X008094Y018389D01*
X008094Y017635D01*
X007561Y017102D01*
X007825Y017366D02*
X018864Y017366D01*
X018864Y017525D02*
X007983Y017525D01*
X008094Y017683D02*
X018864Y017683D01*
X018991Y017842D02*
X008094Y017842D01*
X008094Y018000D02*
X019149Y018000D01*
X019014Y018159D02*
X008094Y018159D01*
X008094Y018317D02*
X018864Y018317D01*
X018864Y018476D02*
X008006Y018476D01*
X007848Y018634D02*
X018864Y018634D01*
X018942Y018793D02*
X007689Y018793D01*
X006678Y018793D02*
X005752Y018793D01*
X005910Y018952D02*
X019100Y018952D01*
X019034Y019110D02*
X006069Y019110D01*
X006094Y019269D02*
X018876Y019269D01*
X018844Y019427D02*
X006094Y019427D01*
X006094Y019586D02*
X018844Y019586D01*
X018865Y019744D02*
X006094Y019744D01*
X006519Y018634D02*
X005593Y018634D01*
X006274Y018317D02*
X001979Y018317D01*
X001979Y018159D02*
X006274Y018159D01*
X006274Y018000D02*
X001979Y018000D01*
X001979Y017842D02*
X006274Y017842D01*
X006274Y017683D02*
X001979Y017683D01*
X001979Y017525D02*
X006384Y017525D01*
X006542Y017366D02*
X001979Y017366D01*
X001979Y017208D02*
X006701Y017208D01*
X006361Y018476D02*
X001979Y018476D01*
X001979Y018634D02*
X004774Y018634D01*
X004615Y018793D02*
X001979Y018793D01*
X001979Y018952D02*
X004457Y018952D01*
X004298Y019110D02*
X001979Y019110D01*
X001979Y019269D02*
X004274Y019269D01*
X004274Y019427D02*
X001979Y019427D01*
X001979Y019586D02*
X004274Y019586D01*
X004274Y019744D02*
X001979Y019744D01*
X001979Y019903D02*
X004288Y019903D01*
X004446Y020061D02*
X001979Y020061D01*
X001979Y020220D02*
X004605Y020220D01*
X004763Y020378D02*
X001979Y020378D01*
X001979Y020537D02*
X030889Y020537D01*
X030889Y020696D02*
X001979Y020696D01*
X001979Y020854D02*
X030889Y020854D01*
X030889Y021013D02*
X001979Y021013D01*
X001979Y021171D02*
X030889Y021171D01*
X030889Y016573D02*
X019464Y016573D01*
X019464Y016415D02*
X030889Y016415D01*
X030889Y016256D02*
X019464Y016256D01*
X019464Y016098D02*
X030889Y016098D01*
X028684Y013878D02*
X028683Y013878D01*
X028684Y013720D02*
X028683Y013720D01*
X028684Y013561D02*
X028683Y013561D01*
X028684Y013403D02*
X028683Y013403D01*
X028684Y013244D02*
X028683Y013244D01*
X028684Y013085D02*
X028683Y013085D01*
X028184Y010866D02*
X027464Y010866D01*
X027464Y010707D02*
X028025Y010707D01*
X028004Y010549D02*
X027464Y010549D01*
X027464Y010390D02*
X028004Y010390D01*
X028110Y010232D02*
X027464Y010232D01*
X027464Y007854D02*
X028431Y007854D01*
X024443Y005158D02*
X022924Y005158D01*
X017275Y011817D02*
X016092Y011817D01*
X016251Y011976D02*
X017117Y011976D01*
X016958Y012134D02*
X016409Y012134D01*
X016464Y012293D02*
X016904Y012293D01*
X016904Y012451D02*
X016464Y012451D01*
X016464Y012610D02*
X016904Y012610D01*
X016904Y012768D02*
X016464Y012768D01*
X016371Y012927D02*
X016996Y012927D01*
X017154Y013085D02*
X016213Y013085D01*
X016054Y013244D02*
X017313Y013244D01*
X019038Y013720D02*
X007678Y013720D01*
X007837Y013878D02*
X019196Y013878D01*
X020171Y013878D02*
X020904Y013878D01*
X020904Y013720D02*
X020330Y013720D01*
X020364Y013561D02*
X020904Y013561D01*
X020904Y013403D02*
X020364Y013403D01*
X020270Y013244D02*
X020904Y013244D01*
X021464Y013244D02*
X022097Y013244D01*
X022004Y013403D02*
X021464Y013403D01*
X021464Y013561D02*
X022004Y013561D01*
X022038Y013720D02*
X021464Y013720D01*
X021464Y013878D02*
X022196Y013878D01*
X020904Y014037D02*
X007995Y014037D01*
X008094Y014195D02*
X020904Y014195D01*
X020904Y014354D02*
X008094Y014354D01*
X008094Y014512D02*
X020904Y014512D01*
X020947Y014671D02*
X008094Y014671D01*
X007836Y015147D02*
X018955Y015147D01*
X018796Y015305D02*
X007677Y015305D01*
X004762Y015147D02*
X001979Y015147D01*
X001979Y015305D02*
X004603Y015305D01*
X004445Y015464D02*
X001979Y015464D01*
X001979Y015622D02*
X004286Y015622D01*
X004274Y015781D02*
X001979Y015781D01*
X001979Y015939D02*
X004274Y015939D01*
X004274Y016098D02*
X001979Y016098D01*
X001979Y016256D02*
X004274Y016256D01*
X004300Y016415D02*
X001979Y016415D01*
X001979Y016573D02*
X004458Y016573D01*
X004617Y016732D02*
X001979Y016732D01*
X019654Y019110D02*
X019714Y019110D01*
X019714Y019269D02*
X019654Y019269D01*
X019654Y019427D02*
X019714Y019427D01*
X019714Y019586D02*
X019654Y019586D01*
X019654Y019744D02*
X019714Y019744D01*
X023964Y014512D02*
X024080Y014512D01*
X023964Y014354D02*
X024239Y014354D01*
X024044Y012768D02*
X023964Y012768D01*
X023904Y012293D02*
X023861Y012293D01*
X023904Y012134D02*
X023160Y012134D01*
D18*
X022684Y012512D02*
X023684Y012512D01*
X023684Y015012D01*
X024684Y015012D01*
X023184Y015512D02*
X023184Y014512D01*
X021184Y014512D01*
X021184Y011512D01*
X019684Y011512D01*
X024184Y012512D02*
X024184Y007512D01*
X024184Y005512D01*
X022684Y005512D01*
X024184Y005512D02*
X024684Y005512D01*
X026684Y005512D02*
X026684Y011512D01*
X025684Y011512D01*
X025684Y012512D02*
X024184Y012512D01*
X025684Y013512D02*
X027184Y013512D01*
X027184Y007512D01*
X028684Y007512D01*
X028684Y005512D02*
X026684Y005512D01*
X024684Y007512D02*
X024184Y007512D01*
X019184Y015512D02*
X019184Y017512D01*
X019684Y017512D01*
M02*
