%
M48
M72
T01C0.0320
T02C0.0400
T03C0.0440
T04C0.0550
T05C0.0790
T06C0.1300
%
T01
X19684Y10512
X19684Y11512
X19684Y12512
X19684Y13512
X19184Y15512
X22684Y13512
X22684Y12512
X22684Y11512
X22684Y10512
X25684Y10512
X25684Y11512
X25684Y12512
X25684Y13512
X26184Y15512
X28184Y15512
X28684Y13512
X28684Y12512
X28684Y11512
X28684Y10512
X28684Y7512
X28684Y5512
X24684Y5512
X22684Y5512
X22684Y7512
X24684Y7512
X23184Y15512
T02
X6184Y2512
X7184Y2512
X8184Y2512
X9184Y2512
X10184Y2512
X11184Y2512
X12184Y2512
X13184Y2512
X14184Y2512
X15184Y2512
X16184Y2512
X17184Y2512
X18184Y2512
X19184Y2512
X20184Y2512
X21184Y2512
X22184Y2512
X23184Y2512
X24184Y2512
X25184Y2512
X18184Y7512
X15184Y7512
T03
X19684Y17512
X19684Y18512
X19684Y19512
T04
X11684Y11512
X11684Y9512
X11684Y7512
X11684Y5512
X5684Y5512
X5684Y7512
X5684Y9512
X5684Y11512
X7184Y14512
X5184Y16012
X7184Y18012
X5184Y19512
T05
X15684Y12512
X17684Y12512
X24684Y15012
T06
X26584Y18512
M30
