G75*
G70*
%OFA0B0*%
%FSLAX24Y24*%
%IPPOS*%
%LPD*%
%AMOC8*
5,1,8,0,0,1.08239X$1,22.5*
%
%ADD10O,0.1120X0.0600*%
%ADD11OC8,0.0600*%
%ADD12O,0.1400X0.0740*%
%ADD13C,0.1380*%
%ADD14O,0.0680X0.1280*%
%ADD15OC8,0.1580*%
%ADD16OC8,0.1320*%
%ADD17C,0.1320*%
D10*
X019684Y010512D03*
X019684Y011512D03*
X019684Y012512D03*
X019684Y013512D03*
X022684Y013512D03*
X022684Y012512D03*
X022684Y011512D03*
X022684Y010512D03*
X025684Y010512D03*
X025684Y011512D03*
X025684Y012512D03*
X025684Y013512D03*
X028684Y013512D03*
X028684Y012512D03*
X028684Y011512D03*
X028684Y010512D03*
D11*
X028684Y007512D03*
X028684Y005512D03*
X024684Y005512D03*
X022684Y005512D03*
X022684Y007512D03*
X024684Y007512D03*
X026184Y015512D03*
X028184Y015512D03*
X023184Y015512D03*
X019184Y015512D03*
D12*
X019684Y017512D03*
X019684Y018512D03*
X019684Y019512D03*
D13*
X026584Y018512D03*
D14*
X006184Y002512D03*
X007184Y002512D03*
X008184Y002512D03*
X009184Y002512D03*
X010184Y002512D03*
X011184Y002512D03*
X012184Y002512D03*
X013184Y002512D03*
X014184Y002512D03*
X015184Y002512D03*
X016184Y002512D03*
X017184Y002512D03*
X018184Y002512D03*
X019184Y002512D03*
X020184Y002512D03*
X021184Y002512D03*
X022184Y002512D03*
X023184Y002512D03*
X024184Y002512D03*
X025184Y002512D03*
D15*
X011684Y005512D03*
X011684Y007512D03*
X011684Y009512D03*
X011684Y011512D03*
X007184Y014512D03*
X005184Y016012D03*
X007184Y018012D03*
X005184Y019512D03*
X005684Y011512D03*
X005684Y009512D03*
X005684Y007512D03*
X005684Y005512D03*
D16*
X015684Y012512D03*
X017684Y012512D03*
X018184Y007512D03*
X024684Y015012D03*
D17*
X015184Y007512D03*
M02*
