G75*
G70*
%OFA0B0*%
%FSLAX24Y24*%
%IPPOS*%
%LPD*%
%AMOC8*
5,1,8,0,0,1.08239X$1,22.5*
%
%ADD10C,0.0000*%
%ADD11C,0.0050*%
%ADD12C,0.0060*%
%ADD13C,0.0040*%
%ADD14C,0.0080*%
%ADD15R,0.0340X0.0240*%
%ADD16C,0.0010*%
%ADD17C,0.0120*%
%ADD18C,0.0070*%
%ADD19C,0.0020*%
%ADD20R,0.0250X0.0300*%
%ADD21R,0.1100X0.0500*%
%ADD22R,0.0250X0.1500*%
D10*
X001499Y001264D02*
X001499Y021760D01*
X031369Y021760D01*
X031369Y001264D01*
X001499Y001264D01*
X025934Y018512D02*
X025937Y018571D01*
X025945Y018630D01*
X025958Y018687D01*
X025977Y018744D01*
X026000Y018798D01*
X026029Y018850D01*
X026062Y018899D01*
X026099Y018945D01*
X026140Y018987D01*
X026185Y019025D01*
X026234Y019060D01*
X026285Y019089D01*
X026339Y019114D01*
X026394Y019134D01*
X026452Y019148D01*
X026510Y019158D01*
X026569Y019162D01*
X026628Y019160D01*
X026687Y019154D01*
X026745Y019142D01*
X026802Y019124D01*
X026856Y019102D01*
X026909Y019075D01*
X026959Y019043D01*
X027006Y019007D01*
X027049Y018966D01*
X027088Y018922D01*
X027123Y018875D01*
X027154Y018824D01*
X027180Y018771D01*
X027201Y018716D01*
X027217Y018659D01*
X027228Y018601D01*
X027233Y018542D01*
X027233Y018482D01*
X027228Y018423D01*
X027217Y018365D01*
X027201Y018308D01*
X027180Y018253D01*
X027154Y018200D01*
X027123Y018149D01*
X027088Y018102D01*
X027049Y018058D01*
X027006Y018017D01*
X026959Y017981D01*
X026909Y017949D01*
X026856Y017922D01*
X026802Y017900D01*
X026745Y017882D01*
X026687Y017870D01*
X026628Y017864D01*
X026569Y017862D01*
X026510Y017866D01*
X026452Y017876D01*
X026394Y017890D01*
X026339Y017910D01*
X026285Y017935D01*
X026234Y017964D01*
X026185Y017999D01*
X026140Y018037D01*
X026099Y018079D01*
X026062Y018125D01*
X026029Y018174D01*
X026000Y018226D01*
X025977Y018280D01*
X025958Y018337D01*
X025945Y018394D01*
X025937Y018453D01*
X025934Y018512D01*
D11*
X025649Y018330D02*
X025649Y018103D01*
X025479Y018103D01*
X025535Y018217D01*
X025535Y018274D01*
X025479Y018330D01*
X025365Y018330D01*
X025309Y018274D01*
X025309Y018160D01*
X025365Y018103D01*
X025365Y017978D02*
X025365Y017921D01*
X025309Y017921D01*
X025309Y017978D01*
X025365Y017978D01*
X025309Y017978D02*
X025195Y017864D01*
X025365Y017505D02*
X025592Y017732D01*
X025649Y017732D01*
X025649Y017505D01*
X025649Y017259D02*
X025309Y017259D01*
X025309Y017146D02*
X025309Y017373D01*
X025309Y017505D02*
X025365Y017505D01*
X025649Y017259D02*
X025535Y017146D01*
X025535Y017014D02*
X025309Y017014D01*
X025479Y017014D02*
X025479Y016787D01*
X025535Y016787D02*
X025649Y016900D01*
X025535Y017014D01*
X025535Y016787D02*
X025309Y016787D01*
X025259Y016187D02*
X024958Y016187D01*
X025108Y016187D02*
X025108Y015737D01*
X024798Y015737D02*
X024798Y016187D01*
X024573Y016187D01*
X024498Y016112D01*
X024498Y015962D01*
X024573Y015887D01*
X024798Y015887D01*
X024338Y016037D02*
X024188Y016187D01*
X024188Y015737D01*
X024338Y015737D02*
X024038Y015737D01*
X022359Y016137D02*
X022359Y016587D01*
X022133Y016587D01*
X022058Y016512D01*
X022058Y016362D01*
X022133Y016287D01*
X022359Y016287D01*
X022208Y016287D02*
X022058Y016137D01*
X021898Y016212D02*
X021823Y016137D01*
X021673Y016137D01*
X021598Y016212D01*
X021598Y016287D01*
X021673Y016362D01*
X021748Y016362D01*
X021673Y016362D02*
X021598Y016437D01*
X021598Y016512D01*
X021673Y016587D01*
X021823Y016587D01*
X021898Y016512D01*
X021684Y016462D02*
X026584Y016462D01*
X026584Y016812D01*
X027184Y016812D01*
X027184Y016462D01*
X027934Y016462D01*
X027934Y020562D01*
X027184Y020562D01*
X027184Y020212D01*
X026584Y020212D01*
X026584Y020562D01*
X021684Y020562D01*
X021684Y016462D01*
X021777Y014587D02*
X021927Y014587D01*
X022002Y014512D01*
X022002Y014212D01*
X021927Y014137D01*
X021777Y014137D01*
X021701Y014212D01*
X021541Y014137D02*
X021241Y014437D01*
X021241Y014512D01*
X021316Y014587D01*
X021466Y014587D01*
X021541Y014512D01*
X021701Y014512D02*
X021777Y014587D01*
X022158Y014587D02*
X022309Y014587D01*
X022234Y014587D02*
X022234Y014137D01*
X022309Y014137D02*
X022158Y014137D01*
X021541Y014137D02*
X021241Y014137D01*
X018259Y013687D02*
X017958Y013687D01*
X018108Y013687D02*
X018108Y013237D01*
X017798Y013237D02*
X017798Y013687D01*
X017573Y013687D01*
X017498Y013612D01*
X017498Y013462D01*
X017573Y013387D01*
X017798Y013387D01*
X017338Y013237D02*
X017038Y013537D01*
X017038Y013612D01*
X017113Y013687D01*
X017263Y013687D01*
X017338Y013612D01*
X017338Y013237D02*
X017038Y013237D01*
X016259Y013687D02*
X015958Y013687D01*
X016108Y013687D02*
X016108Y013237D01*
X015798Y013237D02*
X015798Y013687D01*
X015573Y013687D01*
X015498Y013612D01*
X015498Y013462D01*
X015573Y013387D01*
X015798Y013387D01*
X015338Y013312D02*
X015263Y013237D01*
X015113Y013237D01*
X015038Y013312D01*
X015038Y013387D01*
X015113Y013462D01*
X015188Y013462D01*
X015113Y013462D02*
X015038Y013537D01*
X015038Y013612D01*
X015113Y013687D01*
X015263Y013687D01*
X015338Y013612D01*
X015097Y013976D02*
X015097Y015157D01*
X013522Y014272D01*
X012439Y014272D01*
X010865Y015157D01*
X010865Y016142D01*
X011849Y016535D01*
X011849Y017224D01*
X010865Y017815D01*
X010865Y018701D01*
X010865Y019587D01*
X010865Y019685D01*
X010865Y019980D01*
X010865Y018701D02*
X012144Y019685D01*
X013621Y019685D01*
X014999Y018799D01*
X015097Y018701D01*
X014014Y018110D01*
X014014Y017224D01*
X014014Y016535D01*
X015097Y016142D01*
X015097Y015157D01*
X014014Y015945D01*
X014014Y016535D01*
X014014Y017224D02*
X015097Y017717D01*
X015097Y018701D01*
X015097Y019882D01*
X011849Y017913D02*
X011849Y017224D01*
X011849Y016535D02*
X011849Y015945D01*
X010865Y015157D01*
X010865Y013976D01*
X010727Y012887D02*
X010727Y012437D01*
X011028Y012887D01*
X011028Y012437D01*
X011188Y012437D02*
X011188Y012737D01*
X011338Y012887D01*
X011488Y012737D01*
X011488Y012437D01*
X011648Y012437D02*
X011798Y012587D01*
X011723Y012587D02*
X011948Y012587D01*
X011948Y012437D02*
X011948Y012887D01*
X011723Y012887D01*
X011648Y012812D01*
X011648Y012662D01*
X011723Y012587D01*
X011488Y012662D02*
X011188Y012662D01*
X010567Y012512D02*
X010567Y012437D01*
X010567Y012512D02*
X010267Y012812D01*
X010267Y012887D01*
X010567Y012887D01*
X012108Y012887D02*
X012409Y012887D01*
X012258Y012887D02*
X012258Y012437D01*
X012258Y010887D02*
X012258Y010437D01*
X011948Y010437D02*
X011948Y010887D01*
X011723Y010887D01*
X011648Y010812D01*
X011648Y010662D01*
X011723Y010587D01*
X011948Y010587D01*
X011798Y010587D02*
X011648Y010437D01*
X011488Y010437D02*
X011488Y010737D01*
X011338Y010887D01*
X011188Y010737D01*
X011188Y010437D01*
X011028Y010437D02*
X011028Y010887D01*
X010727Y010437D01*
X010727Y010887D01*
X010567Y010887D02*
X010567Y010662D01*
X010417Y010737D01*
X010342Y010737D01*
X010267Y010662D01*
X010267Y010512D01*
X010342Y010437D01*
X010492Y010437D01*
X010567Y010512D01*
X010567Y010887D02*
X010267Y010887D01*
X011188Y010662D02*
X011488Y010662D01*
X012108Y010887D02*
X012409Y010887D01*
X012409Y008887D02*
X012108Y008887D01*
X012258Y008887D02*
X012258Y008437D01*
X011948Y008437D02*
X011948Y008887D01*
X011723Y008887D01*
X011648Y008812D01*
X011648Y008662D01*
X011723Y008587D01*
X011948Y008587D01*
X011798Y008587D02*
X011648Y008437D01*
X011488Y008437D02*
X011488Y008737D01*
X011338Y008887D01*
X011188Y008737D01*
X011188Y008437D01*
X011028Y008437D02*
X011028Y008887D01*
X010727Y008437D01*
X010727Y008887D01*
X010567Y008812D02*
X010567Y008737D01*
X010492Y008662D01*
X010342Y008662D01*
X010267Y008587D01*
X010267Y008512D01*
X010342Y008437D01*
X010492Y008437D01*
X010567Y008512D01*
X010567Y008587D01*
X010492Y008662D01*
X010342Y008662D02*
X010267Y008737D01*
X010267Y008812D01*
X010342Y008887D01*
X010492Y008887D01*
X010567Y008812D01*
X011188Y008662D02*
X011488Y008662D01*
X011338Y006887D02*
X011188Y006737D01*
X011188Y006437D01*
X011028Y006437D02*
X011028Y006887D01*
X010727Y006437D01*
X010727Y006887D01*
X010567Y006812D02*
X010567Y006737D01*
X010492Y006662D01*
X010267Y006662D01*
X010267Y006812D02*
X010342Y006887D01*
X010492Y006887D01*
X010567Y006812D01*
X010267Y006812D02*
X010267Y006512D01*
X010342Y006437D01*
X010492Y006437D01*
X010567Y006512D01*
X011188Y006662D02*
X011488Y006662D01*
X011488Y006737D02*
X011338Y006887D01*
X011488Y006737D02*
X011488Y006437D01*
X011648Y006437D02*
X011798Y006587D01*
X011723Y006587D02*
X011948Y006587D01*
X011948Y006437D02*
X011948Y006887D01*
X011723Y006887D01*
X011648Y006812D01*
X011648Y006662D01*
X011723Y006587D01*
X012108Y006887D02*
X012409Y006887D01*
X012258Y006887D02*
X012258Y006437D01*
X006409Y006887D02*
X006108Y006887D01*
X006258Y006887D02*
X006258Y006437D01*
X005948Y006437D02*
X005948Y006887D01*
X005723Y006887D01*
X005648Y006812D01*
X005648Y006662D01*
X005723Y006587D01*
X005948Y006587D01*
X005798Y006587D02*
X005648Y006437D01*
X005488Y006437D02*
X005488Y006737D01*
X005338Y006887D01*
X005188Y006737D01*
X005188Y006437D01*
X005028Y006437D02*
X005028Y006887D01*
X004727Y006437D01*
X004727Y006887D01*
X004567Y006737D02*
X004417Y006887D01*
X004417Y006437D01*
X004567Y006437D02*
X004267Y006437D01*
X004107Y006437D02*
X003807Y006737D01*
X003807Y006812D01*
X003882Y006887D01*
X004032Y006887D01*
X004107Y006812D01*
X004107Y006437D02*
X003807Y006437D01*
X005188Y006662D02*
X005488Y006662D01*
X005488Y008437D02*
X005488Y008737D01*
X005338Y008887D01*
X005188Y008737D01*
X005188Y008437D01*
X005028Y008437D02*
X005028Y008887D01*
X004727Y008437D01*
X004727Y008887D01*
X004567Y008737D02*
X004417Y008887D01*
X004417Y008437D01*
X004567Y008437D02*
X004267Y008437D01*
X004107Y008437D02*
X003807Y008437D01*
X003957Y008437D02*
X003957Y008887D01*
X004107Y008737D01*
X005188Y008662D02*
X005488Y008662D01*
X005648Y008662D02*
X005723Y008587D01*
X005948Y008587D01*
X005798Y008587D02*
X005648Y008437D01*
X005648Y008662D02*
X005648Y008812D01*
X005723Y008887D01*
X005948Y008887D01*
X005948Y008437D01*
X006258Y008437D02*
X006258Y008887D01*
X006108Y008887D02*
X006409Y008887D01*
X006258Y010437D02*
X006258Y010887D01*
X006108Y010887D02*
X006409Y010887D01*
X005948Y010887D02*
X005948Y010437D01*
X005948Y010587D02*
X005723Y010587D01*
X005648Y010662D01*
X005648Y010812D01*
X005723Y010887D01*
X005948Y010887D01*
X005798Y010587D02*
X005648Y010437D01*
X005488Y010437D02*
X005488Y010737D01*
X005338Y010887D01*
X005188Y010737D01*
X005188Y010437D01*
X005028Y010437D02*
X005028Y010887D01*
X004727Y010437D01*
X004727Y010887D01*
X004567Y010662D02*
X004342Y010662D01*
X004267Y010587D01*
X004267Y010512D01*
X004342Y010437D01*
X004492Y010437D01*
X004567Y010512D01*
X004567Y010662D01*
X004417Y010812D01*
X004267Y010887D01*
X005188Y010662D02*
X005488Y010662D01*
X005488Y012437D02*
X005488Y012737D01*
X005338Y012887D01*
X005188Y012737D01*
X005188Y012437D01*
X005028Y012437D02*
X005028Y012887D01*
X004727Y012437D01*
X004727Y012887D01*
X004567Y012737D02*
X004417Y012887D01*
X004417Y012437D01*
X004567Y012437D02*
X004267Y012437D01*
X004107Y012512D02*
X004032Y012437D01*
X003882Y012437D01*
X003807Y012512D01*
X003807Y012812D01*
X004107Y012512D01*
X004107Y012812D01*
X004032Y012887D01*
X003882Y012887D01*
X003807Y012812D01*
X005188Y012662D02*
X005488Y012662D01*
X005648Y012662D02*
X005723Y012587D01*
X005948Y012587D01*
X005798Y012587D02*
X005648Y012437D01*
X005648Y012662D02*
X005648Y012812D01*
X005723Y012887D01*
X005948Y012887D01*
X005948Y012437D01*
X006258Y012437D02*
X006258Y012887D01*
X006108Y012887D02*
X006409Y012887D01*
X006528Y015437D02*
X006528Y015887D01*
X006227Y015437D01*
X006227Y015887D01*
X006067Y015662D02*
X005767Y015662D01*
X005842Y015437D02*
X005842Y015887D01*
X006067Y015662D01*
X006688Y015662D02*
X006988Y015662D01*
X006988Y015737D02*
X006838Y015887D01*
X006688Y015737D01*
X006688Y015437D01*
X006988Y015437D02*
X006988Y015737D01*
X007148Y015662D02*
X007223Y015587D01*
X007448Y015587D01*
X007298Y015587D02*
X007148Y015437D01*
X007148Y015662D02*
X007148Y015812D01*
X007223Y015887D01*
X007448Y015887D01*
X007448Y015437D01*
X007758Y015437D02*
X007758Y015887D01*
X007608Y015887D02*
X007909Y015887D01*
X005758Y016937D02*
X005758Y017387D01*
X005608Y017387D02*
X005909Y017387D01*
X005448Y017387D02*
X005223Y017387D01*
X005148Y017312D01*
X005148Y017162D01*
X005223Y017087D01*
X005448Y017087D01*
X005298Y017087D02*
X005148Y016937D01*
X004988Y016937D02*
X004988Y017237D01*
X004838Y017387D01*
X004688Y017237D01*
X004688Y016937D01*
X004528Y016937D02*
X004528Y017387D01*
X004227Y016937D01*
X004227Y017387D01*
X004067Y017237D02*
X003917Y017387D01*
X003917Y016937D01*
X004067Y016937D02*
X003767Y016937D01*
X004688Y017162D02*
X004988Y017162D01*
X005448Y016937D02*
X005448Y017387D01*
X005767Y018937D02*
X006067Y018937D01*
X005767Y019237D01*
X005767Y019312D01*
X005842Y019387D01*
X005992Y019387D01*
X006067Y019312D01*
X006227Y019387D02*
X006227Y018937D01*
X006528Y019387D01*
X006528Y018937D01*
X006688Y018937D02*
X006688Y019237D01*
X006838Y019387D01*
X006988Y019237D01*
X006988Y018937D01*
X007148Y018937D02*
X007298Y019087D01*
X007223Y019087D02*
X007448Y019087D01*
X007448Y018937D02*
X007448Y019387D01*
X007223Y019387D01*
X007148Y019312D01*
X007148Y019162D01*
X007223Y019087D01*
X006988Y019162D02*
X006688Y019162D01*
X007608Y019387D02*
X007909Y019387D01*
X007758Y019387D02*
X007758Y018937D01*
X005758Y020437D02*
X005758Y020887D01*
X005608Y020887D02*
X005909Y020887D01*
X005448Y020887D02*
X005223Y020887D01*
X005148Y020812D01*
X005148Y020662D01*
X005223Y020587D01*
X005448Y020587D01*
X005298Y020587D02*
X005148Y020437D01*
X004988Y020437D02*
X004988Y020737D01*
X004838Y020887D01*
X004688Y020737D01*
X004688Y020437D01*
X004528Y020437D02*
X004528Y020887D01*
X004227Y020437D01*
X004227Y020887D01*
X004067Y020812D02*
X003992Y020887D01*
X003842Y020887D01*
X003767Y020812D01*
X003767Y020737D01*
X003842Y020662D01*
X003767Y020587D01*
X003767Y020512D01*
X003842Y020437D01*
X003992Y020437D01*
X004067Y020512D01*
X003917Y020662D02*
X003842Y020662D01*
X004688Y020662D02*
X004988Y020662D01*
X005448Y020437D02*
X005448Y020887D01*
X010865Y018701D02*
X011849Y017913D01*
X025309Y018463D02*
X025535Y018463D01*
X025535Y018519D01*
X025479Y018576D01*
X025535Y018633D01*
X025479Y018689D01*
X025309Y018689D01*
X025309Y018576D02*
X025479Y018576D01*
X025535Y018822D02*
X025535Y018878D01*
X025479Y018935D01*
X025535Y018992D01*
X025479Y019049D01*
X025309Y019049D01*
X025309Y018935D02*
X025479Y018935D01*
X025535Y018822D02*
X025309Y018822D01*
X025874Y018512D02*
X025877Y018577D01*
X025886Y018641D01*
X025900Y018704D01*
X025921Y018765D01*
X025946Y018824D01*
X025977Y018881D01*
X026013Y018935D01*
X026054Y018985D01*
X026099Y019031D01*
X026149Y019073D01*
X026201Y019110D01*
X026257Y019142D01*
X026316Y019169D01*
X026377Y019191D01*
X026440Y019207D01*
X026503Y019217D01*
X026568Y019222D01*
X026632Y019220D01*
X026697Y019213D01*
X026760Y019200D01*
X026822Y019181D01*
X026882Y019157D01*
X026939Y019127D01*
X026993Y019092D01*
X027044Y019052D01*
X027092Y019008D01*
X027135Y018960D01*
X027173Y018908D01*
X027207Y018853D01*
X027235Y018795D01*
X027258Y018734D01*
X027276Y018672D01*
X027287Y018609D01*
X027293Y018544D01*
X027293Y018480D01*
X027287Y018415D01*
X027276Y018352D01*
X027258Y018290D01*
X027235Y018229D01*
X027207Y018171D01*
X027173Y018116D01*
X027135Y018064D01*
X027092Y018016D01*
X027044Y017972D01*
X026993Y017932D01*
X026939Y017897D01*
X026882Y017867D01*
X026822Y017843D01*
X026760Y017824D01*
X026697Y017811D01*
X026632Y017804D01*
X026568Y017802D01*
X026503Y017807D01*
X026440Y017817D01*
X026377Y017833D01*
X026316Y017855D01*
X026257Y017882D01*
X026201Y017914D01*
X026149Y017951D01*
X026099Y017993D01*
X026054Y018039D01*
X026013Y018089D01*
X025977Y018143D01*
X025946Y018200D01*
X025921Y018259D01*
X025900Y018320D01*
X025886Y018383D01*
X025877Y018447D01*
X025874Y018512D01*
X027323Y016537D02*
X027473Y016537D01*
X027548Y016462D01*
X027708Y016462D02*
X027783Y016537D01*
X027934Y016537D01*
X028009Y016462D01*
X028009Y016162D01*
X027934Y016087D01*
X027783Y016087D01*
X027708Y016162D01*
X027548Y016162D02*
X027473Y016087D01*
X027323Y016087D01*
X027248Y016162D01*
X027248Y016237D01*
X027323Y016312D01*
X027398Y016312D01*
X027323Y016312D02*
X027248Y016387D01*
X027248Y016462D01*
X027323Y016537D01*
X027391Y014587D02*
X027391Y014137D01*
X027541Y014137D02*
X027241Y014137D01*
X027541Y014437D02*
X027391Y014587D01*
X027701Y014512D02*
X027777Y014587D01*
X027927Y014587D01*
X028002Y014512D01*
X028002Y014212D01*
X027927Y014137D01*
X027777Y014137D01*
X027701Y014212D01*
X028158Y014137D02*
X028309Y014137D01*
X028234Y014137D02*
X028234Y014587D01*
X028309Y014587D02*
X028158Y014587D01*
X027859Y008587D02*
X027633Y008587D01*
X027558Y008512D01*
X027558Y008362D01*
X027633Y008287D01*
X027859Y008287D01*
X027859Y008137D02*
X027859Y008587D01*
X027398Y008512D02*
X027323Y008587D01*
X027173Y008587D01*
X027098Y008512D01*
X027098Y008437D01*
X027398Y008137D01*
X027098Y008137D01*
X027558Y008137D02*
X027708Y008287D01*
X027633Y006587D02*
X027859Y006587D01*
X027859Y006137D01*
X027859Y006287D02*
X027633Y006287D01*
X027558Y006362D01*
X027558Y006512D01*
X027633Y006587D01*
X027398Y006437D02*
X027248Y006587D01*
X027248Y006137D01*
X027398Y006137D02*
X027098Y006137D01*
X027558Y006137D02*
X027708Y006287D01*
X023709Y006297D02*
X023259Y006297D01*
X023259Y006147D02*
X023259Y006447D01*
X023559Y006147D02*
X023709Y006297D01*
X023634Y005987D02*
X023709Y005912D01*
X023709Y005762D01*
X023634Y005687D01*
X023334Y005687D01*
X023259Y005762D01*
X023259Y005912D01*
X023334Y005987D01*
X007010Y001392D02*
X006935Y001317D01*
X006860Y001317D01*
X006785Y001392D01*
X006785Y001767D01*
X006860Y001767D02*
X006709Y001767D01*
X006549Y001767D02*
X006324Y001767D01*
X006249Y001692D01*
X006249Y001542D01*
X006324Y001467D01*
X006549Y001467D01*
X006549Y001317D02*
X006549Y001767D01*
X006089Y001692D02*
X006014Y001767D01*
X005864Y001767D01*
X005789Y001692D01*
X005789Y001617D01*
X006089Y001317D01*
X005789Y001317D01*
D12*
X005934Y002012D02*
X006434Y002012D01*
X006684Y002262D01*
X006934Y002012D01*
X007434Y002012D01*
X007684Y002262D01*
X007684Y002762D01*
X007434Y003012D01*
X006934Y003012D01*
X006684Y002762D01*
X006434Y003012D01*
X005934Y003012D01*
X005684Y002762D01*
X005684Y002262D01*
X005934Y002012D01*
X006684Y002262D02*
X006684Y002762D01*
X007684Y002762D02*
X007934Y003012D01*
X008434Y003012D01*
X008684Y002762D01*
X008934Y003012D01*
X009434Y003012D01*
X009684Y002762D01*
X009934Y003012D01*
X010434Y003012D01*
X010684Y002762D01*
X010684Y002262D01*
X010434Y002012D01*
X009934Y002012D01*
X009684Y002262D01*
X009684Y002762D01*
X009684Y002262D02*
X009434Y002012D01*
X008934Y002012D01*
X008684Y002262D01*
X008684Y002762D01*
X008684Y002262D02*
X008434Y002012D01*
X007934Y002012D01*
X007684Y002262D01*
X010684Y002262D02*
X010934Y002012D01*
X011434Y002012D01*
X011684Y002262D01*
X011934Y002012D01*
X012434Y002012D01*
X012684Y002262D01*
X012934Y002012D01*
X013434Y002012D01*
X013684Y002262D01*
X013684Y002762D01*
X013434Y003012D01*
X012934Y003012D01*
X012684Y002762D01*
X012434Y003012D01*
X011934Y003012D01*
X011684Y002762D01*
X011434Y003012D01*
X010934Y003012D01*
X010684Y002762D01*
X011684Y002762D02*
X011684Y002262D01*
X012684Y002262D02*
X012684Y002762D01*
X013684Y002762D02*
X013934Y003012D01*
X014434Y003012D01*
X014684Y002762D01*
X014934Y003012D01*
X015434Y003012D01*
X015684Y002762D01*
X015934Y003012D01*
X016434Y003012D01*
X016684Y002762D01*
X016684Y002262D01*
X016434Y002012D01*
X015934Y002012D01*
X015684Y002262D01*
X015684Y002762D01*
X015684Y002262D02*
X015434Y002012D01*
X014934Y002012D01*
X014684Y002262D01*
X014684Y002762D01*
X014684Y002262D02*
X014434Y002012D01*
X013934Y002012D01*
X013684Y002262D01*
X016684Y002262D02*
X016934Y002012D01*
X017434Y002012D01*
X017684Y002262D01*
X017934Y002012D01*
X018434Y002012D01*
X018684Y002262D01*
X018934Y002012D01*
X019434Y002012D01*
X019684Y002262D01*
X019684Y002762D01*
X019434Y003012D01*
X018934Y003012D01*
X018684Y002762D01*
X018434Y003012D01*
X017934Y003012D01*
X017684Y002762D01*
X017434Y003012D01*
X016934Y003012D01*
X016684Y002762D01*
X017684Y002762D02*
X017684Y002262D01*
X018684Y002262D02*
X018684Y002762D01*
X019684Y002762D02*
X019934Y003012D01*
X020434Y003012D01*
X020684Y002762D01*
X020934Y003012D01*
X021434Y003012D01*
X021684Y002762D01*
X021934Y003012D01*
X022434Y003012D01*
X022684Y002762D01*
X022684Y002262D01*
X022434Y002012D01*
X021934Y002012D01*
X021684Y002262D01*
X021684Y002762D01*
X021684Y002262D02*
X021434Y002012D01*
X020934Y002012D01*
X020684Y002262D01*
X020684Y002762D01*
X020684Y002262D02*
X020434Y002012D01*
X019934Y002012D01*
X019684Y002262D01*
X022684Y002262D02*
X022934Y002012D01*
X023434Y002012D01*
X023684Y002262D01*
X023934Y002012D01*
X024434Y002012D01*
X024684Y002262D01*
X024934Y002012D01*
X025434Y002012D01*
X025684Y002262D01*
X025684Y002762D01*
X025434Y003012D01*
X024934Y003012D01*
X024684Y002762D01*
X024434Y003012D01*
X023934Y003012D01*
X023684Y002762D01*
X023434Y003012D01*
X022934Y003012D01*
X022684Y002762D01*
X023684Y002762D02*
X023684Y002262D01*
X024684Y002262D02*
X024684Y002762D01*
X025534Y005062D02*
X025684Y005062D01*
X025734Y005112D01*
X027634Y005112D01*
X027684Y005062D01*
X027834Y005062D01*
X027854Y005064D01*
X027872Y005070D01*
X027890Y005079D01*
X027905Y005091D01*
X027917Y005106D01*
X027926Y005124D01*
X027932Y005142D01*
X027934Y005162D01*
X027934Y005862D01*
X027932Y005882D01*
X027926Y005900D01*
X027917Y005918D01*
X027905Y005933D01*
X027890Y005945D01*
X027872Y005954D01*
X027854Y005960D01*
X027834Y005962D01*
X027684Y005962D01*
X027634Y005912D01*
X025734Y005912D01*
X025684Y005962D01*
X025534Y005962D01*
X025514Y005960D01*
X025496Y005954D01*
X025478Y005945D01*
X025463Y005933D01*
X025451Y005918D01*
X025442Y005900D01*
X025436Y005882D01*
X025434Y005862D01*
X025434Y005162D01*
X025436Y005142D01*
X025442Y005124D01*
X025451Y005106D01*
X025463Y005091D01*
X025478Y005079D01*
X025496Y005070D01*
X025514Y005064D01*
X025534Y005062D01*
X023134Y005862D02*
X023134Y007162D01*
X022684Y007012D02*
X022684Y006642D01*
X022684Y006392D02*
X022684Y006012D01*
X022234Y005862D02*
X022234Y007162D01*
X025434Y007162D02*
X025434Y007862D01*
X025436Y007882D01*
X025442Y007900D01*
X025451Y007918D01*
X025463Y007933D01*
X025478Y007945D01*
X025496Y007954D01*
X025514Y007960D01*
X025534Y007962D01*
X025684Y007962D01*
X025734Y007912D01*
X027634Y007912D01*
X027684Y007962D01*
X027834Y007962D01*
X027854Y007960D01*
X027872Y007954D01*
X027890Y007945D01*
X027905Y007933D01*
X027917Y007918D01*
X027926Y007900D01*
X027932Y007882D01*
X027934Y007862D01*
X027934Y007162D01*
X027932Y007142D01*
X027926Y007124D01*
X027917Y007106D01*
X027905Y007091D01*
X027890Y007079D01*
X027872Y007070D01*
X027854Y007064D01*
X027834Y007062D01*
X027684Y007062D01*
X027634Y007112D01*
X025734Y007112D01*
X025684Y007062D01*
X025534Y007062D01*
X025514Y007064D01*
X025496Y007070D01*
X025478Y007079D01*
X025463Y007091D01*
X025451Y007106D01*
X025442Y007124D01*
X025436Y007142D01*
X025434Y007162D01*
X026034Y010012D02*
X028334Y010012D01*
X028334Y014012D01*
X027584Y014012D01*
X027582Y013973D01*
X027576Y013934D01*
X027567Y013896D01*
X027554Y013859D01*
X027537Y013823D01*
X027517Y013790D01*
X027493Y013758D01*
X027467Y013729D01*
X027438Y013703D01*
X027406Y013679D01*
X027373Y013659D01*
X027337Y013642D01*
X027300Y013629D01*
X027262Y013620D01*
X027223Y013614D01*
X027184Y013612D01*
X027145Y013614D01*
X027106Y013620D01*
X027068Y013629D01*
X027031Y013642D01*
X026995Y013659D01*
X026962Y013679D01*
X026930Y013703D01*
X026901Y013729D01*
X026875Y013758D01*
X026851Y013790D01*
X026831Y013823D01*
X026814Y013859D01*
X026801Y013896D01*
X026792Y013934D01*
X026786Y013973D01*
X026784Y014012D01*
X026034Y014012D01*
X026034Y010012D01*
X022334Y010012D02*
X020034Y010012D01*
X020034Y014012D01*
X020784Y014012D01*
X020786Y013973D01*
X020792Y013934D01*
X020801Y013896D01*
X020814Y013859D01*
X020831Y013823D01*
X020851Y013790D01*
X020875Y013758D01*
X020901Y013729D01*
X020930Y013703D01*
X020962Y013679D01*
X020995Y013659D01*
X021031Y013642D01*
X021068Y013629D01*
X021106Y013620D01*
X021145Y013614D01*
X021184Y013612D01*
X021223Y013614D01*
X021262Y013620D01*
X021300Y013629D01*
X021337Y013642D01*
X021373Y013659D01*
X021406Y013679D01*
X021438Y013703D01*
X021467Y013729D01*
X021493Y013758D01*
X021517Y013790D01*
X021537Y013823D01*
X021554Y013859D01*
X021567Y013896D01*
X021576Y013934D01*
X021582Y013973D01*
X021584Y014012D01*
X022334Y014012D01*
X022334Y010012D01*
X017484Y007512D02*
X016934Y007512D01*
X013184Y007512D02*
X013199Y007830D01*
X013242Y008146D01*
X013314Y008456D01*
X013414Y008759D01*
X013541Y009051D01*
X013694Y009331D01*
X013871Y009595D01*
X014072Y009842D01*
X014295Y010070D01*
X014538Y010277D01*
X014798Y010460D01*
X015074Y010620D01*
X015363Y010753D01*
X015663Y010860D01*
X015972Y010939D01*
X016286Y010989D01*
X016604Y011011D01*
X016923Y011004D01*
X017239Y010968D01*
X017551Y010903D01*
X017856Y010810D01*
X018151Y010690D01*
X018434Y010543D01*
X018702Y010371D01*
X018954Y010176D01*
X019187Y009959D01*
X019399Y009721D01*
X019589Y009465D01*
X019754Y009193D01*
X019894Y008906D01*
X020008Y008609D01*
X020094Y008302D01*
X020151Y007989D01*
X020180Y007671D01*
X020180Y007353D01*
X020151Y007035D01*
X020094Y006722D01*
X020008Y006415D01*
X019894Y006118D01*
X019754Y005831D01*
X019589Y005559D01*
X019399Y005303D01*
X019187Y005065D01*
X018954Y004848D01*
X018702Y004653D01*
X018434Y004481D01*
X018151Y004334D01*
X017856Y004214D01*
X017551Y004121D01*
X017239Y004056D01*
X016923Y004020D01*
X016604Y004013D01*
X016286Y004035D01*
X015972Y004085D01*
X015663Y004164D01*
X015363Y004271D01*
X015074Y004404D01*
X014798Y004564D01*
X014538Y004747D01*
X014295Y004954D01*
X014072Y005182D01*
X013871Y005429D01*
X013694Y005693D01*
X013541Y005973D01*
X013414Y006265D01*
X013314Y006568D01*
X013242Y006878D01*
X013199Y007194D01*
X013184Y007512D01*
X013734Y007512D02*
X014334Y007512D01*
X014034Y007812D02*
X014034Y007212D01*
X012434Y007012D02*
X012434Y006762D01*
X012184Y006762D01*
X012184Y006262D02*
X012434Y006262D01*
X012434Y006012D01*
X012434Y005012D02*
X012434Y004762D01*
X012184Y004762D01*
X011184Y004762D02*
X010934Y004762D01*
X010934Y005012D01*
X010934Y006012D02*
X010934Y006262D01*
X011184Y006262D01*
X011184Y006762D02*
X010934Y006762D01*
X010934Y007012D01*
X010934Y008012D02*
X010934Y008262D01*
X011184Y008262D01*
X011184Y008762D02*
X010934Y008762D01*
X010934Y009012D01*
X012184Y008762D02*
X012434Y008762D01*
X012434Y009012D01*
X012434Y008262D02*
X012184Y008262D01*
X012434Y008262D02*
X012434Y008012D01*
X012434Y010012D02*
X012434Y010262D01*
X012184Y010262D01*
X012184Y010762D02*
X012434Y010762D01*
X012434Y011012D01*
X012434Y012012D02*
X012434Y012262D01*
X012184Y012262D01*
X011184Y012262D02*
X010934Y012262D01*
X010934Y012012D01*
X010934Y011012D02*
X010934Y010762D01*
X011184Y010762D01*
X011184Y010262D02*
X010934Y010262D01*
X010934Y010012D01*
X006434Y010012D02*
X006434Y010262D01*
X006184Y010262D01*
X006184Y010762D02*
X006434Y010762D01*
X006434Y011012D01*
X006434Y012012D02*
X006434Y012262D01*
X006184Y012262D01*
X005184Y012262D02*
X004934Y012262D01*
X004934Y012012D01*
X004934Y011012D02*
X004934Y010762D01*
X005184Y010762D01*
X005184Y010262D02*
X004934Y010262D01*
X004934Y010012D01*
X004934Y009012D02*
X004934Y008762D01*
X005184Y008762D01*
X005184Y008262D02*
X004934Y008262D01*
X004934Y008012D01*
X004934Y007012D02*
X004934Y006762D01*
X005184Y006762D01*
X005184Y006262D02*
X004934Y006262D01*
X004934Y006012D01*
X004934Y005012D02*
X004934Y004762D01*
X005184Y004762D01*
X006184Y004762D02*
X006434Y004762D01*
X006434Y005012D01*
X006434Y006012D02*
X006434Y006262D01*
X006184Y006262D01*
X006184Y006762D02*
X006434Y006762D01*
X006434Y007012D01*
X006434Y008012D02*
X006434Y008262D01*
X006184Y008262D01*
X006184Y008762D02*
X006434Y008762D01*
X006434Y009012D01*
X006434Y013762D02*
X006684Y013762D01*
X006434Y013762D02*
X006434Y014012D01*
X006434Y015012D02*
X006434Y015262D01*
X006684Y015262D01*
X005934Y015262D02*
X005934Y015512D01*
X005934Y015262D02*
X005684Y015262D01*
X004684Y015262D02*
X004434Y015262D01*
X004434Y015512D01*
X004434Y016512D02*
X004434Y016762D01*
X004684Y016762D01*
X005684Y016762D02*
X005934Y016762D01*
X005934Y016512D01*
X006434Y017262D02*
X006684Y017262D01*
X006434Y017262D02*
X006434Y017512D01*
X006434Y018512D02*
X006434Y018762D01*
X006684Y018762D01*
X005934Y018762D02*
X005934Y019012D01*
X005934Y018762D02*
X005684Y018762D01*
X004684Y018762D02*
X004434Y018762D01*
X004434Y019012D01*
X004434Y020012D02*
X004434Y020262D01*
X004684Y020262D01*
X005684Y020262D02*
X005934Y020262D01*
X005934Y020012D01*
X007684Y018762D02*
X007934Y018762D01*
X007934Y018512D01*
X007934Y017512D02*
X007934Y017262D01*
X007684Y017262D01*
X007684Y015262D02*
X007934Y015262D01*
X007934Y015012D01*
X007934Y014012D02*
X007934Y013762D01*
X007684Y013762D01*
X016334Y008262D02*
X016334Y007512D01*
X016334Y006762D01*
X016584Y006762D01*
X016584Y008262D01*
X016334Y008262D01*
X016334Y007512D02*
X015884Y007512D01*
X020034Y015062D02*
X020184Y015062D01*
X020234Y015112D01*
X022134Y015112D01*
X022184Y015062D01*
X022334Y015062D01*
X022354Y015064D01*
X022372Y015070D01*
X022390Y015079D01*
X022405Y015091D01*
X022417Y015106D01*
X022426Y015124D01*
X022432Y015142D01*
X022434Y015162D01*
X022434Y015862D01*
X022432Y015882D01*
X022426Y015900D01*
X022417Y015918D01*
X022405Y015933D01*
X022390Y015945D01*
X022372Y015954D01*
X022354Y015960D01*
X022334Y015962D01*
X022184Y015962D01*
X022134Y015912D01*
X020234Y015912D01*
X020184Y015962D01*
X020034Y015962D01*
X020014Y015960D01*
X019996Y015954D01*
X019978Y015945D01*
X019963Y015933D01*
X019951Y015918D01*
X019942Y015900D01*
X019936Y015882D01*
X019934Y015862D01*
X019934Y015162D01*
X019936Y015142D01*
X019942Y015124D01*
X019951Y015106D01*
X019963Y015091D01*
X019978Y015079D01*
X019996Y015070D01*
X020014Y015064D01*
X020034Y015062D01*
X026534Y015062D02*
X027834Y015062D01*
X027684Y015512D02*
X027304Y015512D01*
X027054Y015512D02*
X026684Y015512D01*
X026534Y015962D02*
X027834Y015962D01*
D13*
X009574Y012262D02*
X007794Y012262D01*
X007794Y010762D02*
X009574Y010762D01*
X009574Y010262D02*
X007794Y010262D01*
X007967Y010182D02*
X008274Y010182D01*
X007967Y010489D01*
X007967Y010565D01*
X008044Y010642D01*
X008197Y010642D01*
X008274Y010565D01*
X008427Y010565D02*
X008427Y010259D01*
X008504Y010182D01*
X008734Y010182D01*
X008734Y010642D01*
X008504Y010642D01*
X008427Y010565D01*
X007794Y008762D02*
X009574Y008762D01*
X009574Y008262D02*
X007794Y008262D01*
X007967Y008182D02*
X008274Y008182D01*
X008121Y008182D02*
X008121Y008642D01*
X008274Y008489D01*
X008427Y008565D02*
X008427Y008259D01*
X008504Y008182D01*
X008734Y008182D01*
X008734Y008642D01*
X008504Y008642D01*
X008427Y008565D01*
X007794Y006762D02*
X009574Y006762D01*
X009574Y006262D02*
X007794Y006262D01*
X007967Y006259D02*
X008044Y006182D01*
X008197Y006182D01*
X008274Y006259D01*
X008427Y006259D02*
X008427Y006565D01*
X008504Y006642D01*
X008734Y006642D01*
X008734Y006182D01*
X008504Y006182D01*
X008427Y006259D01*
X008121Y006412D02*
X008044Y006412D01*
X007967Y006335D01*
X007967Y006259D01*
X008044Y006412D02*
X007967Y006489D01*
X007967Y006565D01*
X008044Y006642D01*
X008197Y006642D01*
X008274Y006565D01*
X007794Y004762D02*
X009574Y004762D01*
X008734Y004642D02*
X008734Y004182D01*
X008504Y004182D01*
X008427Y004259D01*
X008427Y004565D01*
X008504Y004642D01*
X008734Y004642D01*
X008274Y004412D02*
X007967Y004412D01*
X008044Y004182D02*
X008044Y004642D01*
X008274Y004412D01*
D14*
X008760Y005118D02*
X008760Y005906D01*
X008357Y005512D01*
X008760Y005118D01*
X008760Y007118D02*
X008760Y007906D01*
X008357Y007512D01*
X008760Y007118D01*
X008760Y009118D02*
X008760Y009906D01*
X008357Y009512D01*
X008760Y009118D01*
X008760Y011118D02*
X008760Y011906D01*
X008357Y011512D01*
X008760Y011118D01*
D15*
X019764Y015512D03*
X022604Y015512D03*
X025264Y007512D03*
X025264Y005512D03*
X028104Y005512D03*
X028104Y007512D03*
D16*
X023158Y007166D02*
X023108Y007166D01*
X023109Y007167D02*
X023106Y007193D01*
X023099Y007219D01*
X023089Y007243D01*
X023075Y007266D01*
X023058Y007286D01*
X023038Y007303D01*
X023015Y007317D01*
X022991Y007327D01*
X022965Y007334D01*
X022939Y007337D01*
X022938Y007386D01*
X022939Y007387D01*
X022967Y007384D01*
X022995Y007378D01*
X023022Y007369D01*
X023048Y007356D01*
X023072Y007340D01*
X023093Y007321D01*
X023112Y007300D01*
X023128Y007276D01*
X023141Y007250D01*
X023150Y007223D01*
X023156Y007195D01*
X023159Y007167D01*
X023150Y007167D01*
X023148Y007194D01*
X023142Y007221D01*
X023133Y007247D01*
X023120Y007271D01*
X023105Y007294D01*
X023087Y007315D01*
X023066Y007333D01*
X023043Y007348D01*
X023019Y007361D01*
X022993Y007370D01*
X022966Y007376D01*
X022939Y007378D01*
X022939Y007369D01*
X022968Y007366D01*
X022995Y007360D01*
X023022Y007349D01*
X023047Y007335D01*
X023070Y007318D01*
X023090Y007298D01*
X023107Y007275D01*
X023121Y007250D01*
X023132Y007223D01*
X023138Y007196D01*
X023141Y007167D01*
X023132Y007167D01*
X023129Y007194D01*
X023123Y007221D01*
X023113Y007246D01*
X023100Y007270D01*
X023083Y007292D01*
X023064Y007311D01*
X023042Y007328D01*
X023018Y007341D01*
X022993Y007351D01*
X022966Y007357D01*
X022939Y007360D01*
X022939Y007351D01*
X022965Y007348D01*
X022990Y007342D01*
X023015Y007333D01*
X023037Y007320D01*
X023058Y007305D01*
X023077Y007286D01*
X023092Y007265D01*
X023105Y007243D01*
X023114Y007218D01*
X023120Y007193D01*
X023123Y007167D01*
X023114Y007167D01*
X023112Y007192D01*
X023106Y007216D01*
X023097Y007239D01*
X023085Y007260D01*
X023070Y007280D01*
X023052Y007298D01*
X023032Y007313D01*
X023011Y007325D01*
X022988Y007334D01*
X022964Y007340D01*
X022939Y007342D01*
X022430Y007386D02*
X022430Y007336D01*
X022429Y007337D02*
X022403Y007334D01*
X022377Y007327D01*
X022353Y007317D01*
X022330Y007303D01*
X022310Y007286D01*
X022293Y007266D01*
X022279Y007243D01*
X022269Y007219D01*
X022262Y007193D01*
X022259Y007167D01*
X022210Y007166D01*
X022209Y007167D01*
X022212Y007195D01*
X022218Y007223D01*
X022227Y007250D01*
X022240Y007276D01*
X022256Y007300D01*
X022275Y007321D01*
X022296Y007340D01*
X022320Y007356D01*
X022346Y007369D01*
X022373Y007378D01*
X022401Y007384D01*
X022429Y007387D01*
X022429Y007378D01*
X022402Y007376D01*
X022375Y007370D01*
X022349Y007361D01*
X022325Y007348D01*
X022302Y007333D01*
X022281Y007315D01*
X022263Y007294D01*
X022248Y007271D01*
X022235Y007247D01*
X022226Y007221D01*
X022220Y007194D01*
X022218Y007167D01*
X022227Y007167D01*
X022230Y007196D01*
X022236Y007223D01*
X022247Y007250D01*
X022261Y007275D01*
X022278Y007298D01*
X022298Y007318D01*
X022321Y007335D01*
X022346Y007349D01*
X022373Y007360D01*
X022400Y007366D01*
X022429Y007369D01*
X022429Y007360D01*
X022402Y007357D01*
X022375Y007351D01*
X022350Y007341D01*
X022326Y007328D01*
X022304Y007311D01*
X022285Y007292D01*
X022268Y007270D01*
X022255Y007246D01*
X022245Y007221D01*
X022239Y007194D01*
X022236Y007167D01*
X022245Y007167D01*
X022248Y007193D01*
X022254Y007218D01*
X022263Y007243D01*
X022276Y007265D01*
X022291Y007286D01*
X022310Y007305D01*
X022331Y007320D01*
X022353Y007333D01*
X022378Y007342D01*
X022403Y007348D01*
X022429Y007351D01*
X022429Y007342D01*
X022404Y007340D01*
X022380Y007334D01*
X022357Y007325D01*
X022336Y007313D01*
X022316Y007298D01*
X022298Y007280D01*
X022283Y007260D01*
X022271Y007239D01*
X022262Y007216D01*
X022256Y007192D01*
X022254Y007167D01*
X022210Y005858D02*
X022260Y005858D01*
X022259Y005857D02*
X022262Y005831D01*
X022269Y005805D01*
X022279Y005781D01*
X022293Y005758D01*
X022310Y005738D01*
X022330Y005721D01*
X022353Y005707D01*
X022377Y005697D01*
X022403Y005690D01*
X022429Y005687D01*
X022430Y005638D01*
X022429Y005637D01*
X022401Y005640D01*
X022373Y005646D01*
X022346Y005655D01*
X022320Y005668D01*
X022296Y005684D01*
X022275Y005703D01*
X022256Y005724D01*
X022240Y005748D01*
X022227Y005774D01*
X022218Y005801D01*
X022212Y005829D01*
X022209Y005857D01*
X022218Y005857D01*
X022220Y005830D01*
X022226Y005803D01*
X022235Y005777D01*
X022248Y005753D01*
X022263Y005730D01*
X022281Y005709D01*
X022302Y005691D01*
X022325Y005676D01*
X022349Y005663D01*
X022375Y005654D01*
X022402Y005648D01*
X022429Y005646D01*
X022429Y005655D01*
X022400Y005658D01*
X022373Y005664D01*
X022346Y005675D01*
X022321Y005689D01*
X022298Y005706D01*
X022278Y005726D01*
X022261Y005749D01*
X022247Y005774D01*
X022236Y005801D01*
X022230Y005828D01*
X022227Y005857D01*
X022236Y005857D01*
X022239Y005830D01*
X022245Y005803D01*
X022255Y005778D01*
X022268Y005754D01*
X022285Y005732D01*
X022304Y005713D01*
X022326Y005696D01*
X022350Y005683D01*
X022375Y005673D01*
X022402Y005667D01*
X022429Y005664D01*
X022429Y005673D01*
X022403Y005676D01*
X022378Y005682D01*
X022353Y005691D01*
X022331Y005704D01*
X022310Y005719D01*
X022291Y005738D01*
X022276Y005759D01*
X022263Y005781D01*
X022254Y005806D01*
X022248Y005831D01*
X022245Y005857D01*
X022254Y005857D01*
X022256Y005832D01*
X022262Y005808D01*
X022271Y005785D01*
X022283Y005764D01*
X022298Y005744D01*
X022316Y005726D01*
X022336Y005711D01*
X022357Y005699D01*
X022380Y005690D01*
X022404Y005684D01*
X022429Y005682D01*
X022938Y005638D02*
X022938Y005688D01*
X022939Y005687D02*
X022965Y005690D01*
X022991Y005697D01*
X023015Y005707D01*
X023038Y005721D01*
X023058Y005738D01*
X023075Y005758D01*
X023089Y005781D01*
X023099Y005805D01*
X023106Y005831D01*
X023109Y005857D01*
X023158Y005858D01*
X023159Y005857D01*
X023156Y005829D01*
X023150Y005801D01*
X023141Y005774D01*
X023128Y005748D01*
X023112Y005724D01*
X023093Y005703D01*
X023072Y005684D01*
X023048Y005668D01*
X023022Y005655D01*
X022995Y005646D01*
X022967Y005640D01*
X022939Y005637D01*
X022939Y005646D01*
X022966Y005648D01*
X022993Y005654D01*
X023019Y005663D01*
X023043Y005676D01*
X023066Y005691D01*
X023087Y005709D01*
X023105Y005730D01*
X023120Y005753D01*
X023133Y005777D01*
X023142Y005803D01*
X023148Y005830D01*
X023150Y005857D01*
X023141Y005857D01*
X023138Y005828D01*
X023132Y005801D01*
X023121Y005774D01*
X023107Y005749D01*
X023090Y005726D01*
X023070Y005706D01*
X023047Y005689D01*
X023022Y005675D01*
X022995Y005664D01*
X022968Y005658D01*
X022939Y005655D01*
X022939Y005664D01*
X022966Y005667D01*
X022993Y005673D01*
X023018Y005683D01*
X023042Y005696D01*
X023064Y005713D01*
X023083Y005732D01*
X023100Y005754D01*
X023113Y005778D01*
X023123Y005803D01*
X023129Y005830D01*
X023132Y005857D01*
X023123Y005857D01*
X023120Y005831D01*
X023114Y005806D01*
X023105Y005781D01*
X023092Y005759D01*
X023077Y005738D01*
X023058Y005719D01*
X023037Y005704D01*
X023015Y005691D01*
X022990Y005682D01*
X022965Y005676D01*
X022939Y005673D01*
X022939Y005682D01*
X022964Y005684D01*
X022988Y005690D01*
X023011Y005699D01*
X023032Y005711D01*
X023052Y005726D01*
X023070Y005744D01*
X023085Y005764D01*
X023097Y005785D01*
X023106Y005808D01*
X023112Y005832D01*
X023114Y005857D01*
X026310Y015258D02*
X026360Y015258D01*
X026359Y015257D02*
X026362Y015231D01*
X026369Y015205D01*
X026379Y015181D01*
X026393Y015158D01*
X026410Y015138D01*
X026430Y015121D01*
X026453Y015107D01*
X026477Y015097D01*
X026503Y015090D01*
X026529Y015087D01*
X026530Y015038D01*
X026529Y015037D01*
X026501Y015040D01*
X026473Y015046D01*
X026446Y015055D01*
X026420Y015068D01*
X026396Y015084D01*
X026375Y015103D01*
X026356Y015124D01*
X026340Y015148D01*
X026327Y015174D01*
X026318Y015201D01*
X026312Y015229D01*
X026309Y015257D01*
X026318Y015257D01*
X026320Y015230D01*
X026326Y015203D01*
X026335Y015177D01*
X026348Y015153D01*
X026363Y015130D01*
X026381Y015109D01*
X026402Y015091D01*
X026425Y015076D01*
X026449Y015063D01*
X026475Y015054D01*
X026502Y015048D01*
X026529Y015046D01*
X026529Y015055D01*
X026500Y015058D01*
X026473Y015064D01*
X026446Y015075D01*
X026421Y015089D01*
X026398Y015106D01*
X026378Y015126D01*
X026361Y015149D01*
X026347Y015174D01*
X026336Y015201D01*
X026330Y015228D01*
X026327Y015257D01*
X026336Y015257D01*
X026339Y015230D01*
X026345Y015203D01*
X026355Y015178D01*
X026368Y015154D01*
X026385Y015132D01*
X026404Y015113D01*
X026426Y015096D01*
X026450Y015083D01*
X026475Y015073D01*
X026502Y015067D01*
X026529Y015064D01*
X026529Y015073D01*
X026503Y015076D01*
X026478Y015082D01*
X026453Y015091D01*
X026431Y015104D01*
X026410Y015119D01*
X026391Y015138D01*
X026376Y015159D01*
X026363Y015181D01*
X026354Y015206D01*
X026348Y015231D01*
X026345Y015257D01*
X026354Y015257D01*
X026356Y015232D01*
X026362Y015208D01*
X026371Y015185D01*
X026383Y015164D01*
X026398Y015144D01*
X026416Y015126D01*
X026436Y015111D01*
X026457Y015099D01*
X026480Y015090D01*
X026504Y015084D01*
X026529Y015082D01*
X026530Y015986D02*
X026530Y015936D01*
X026529Y015937D02*
X026503Y015934D01*
X026477Y015927D01*
X026453Y015917D01*
X026430Y015903D01*
X026410Y015886D01*
X026393Y015866D01*
X026379Y015843D01*
X026369Y015819D01*
X026362Y015793D01*
X026359Y015767D01*
X026310Y015766D01*
X026309Y015767D01*
X026312Y015795D01*
X026318Y015823D01*
X026327Y015850D01*
X026340Y015876D01*
X026356Y015900D01*
X026375Y015921D01*
X026396Y015940D01*
X026420Y015956D01*
X026446Y015969D01*
X026473Y015978D01*
X026501Y015984D01*
X026529Y015987D01*
X026529Y015978D01*
X026502Y015976D01*
X026475Y015970D01*
X026449Y015961D01*
X026425Y015948D01*
X026402Y015933D01*
X026381Y015915D01*
X026363Y015894D01*
X026348Y015871D01*
X026335Y015847D01*
X026326Y015821D01*
X026320Y015794D01*
X026318Y015767D01*
X026327Y015767D01*
X026330Y015796D01*
X026336Y015823D01*
X026347Y015850D01*
X026361Y015875D01*
X026378Y015898D01*
X026398Y015918D01*
X026421Y015935D01*
X026446Y015949D01*
X026473Y015960D01*
X026500Y015966D01*
X026529Y015969D01*
X026529Y015960D01*
X026502Y015957D01*
X026475Y015951D01*
X026450Y015941D01*
X026426Y015928D01*
X026404Y015911D01*
X026385Y015892D01*
X026368Y015870D01*
X026355Y015846D01*
X026345Y015821D01*
X026339Y015794D01*
X026336Y015767D01*
X026345Y015767D01*
X026348Y015793D01*
X026354Y015818D01*
X026363Y015843D01*
X026376Y015865D01*
X026391Y015886D01*
X026410Y015905D01*
X026431Y015920D01*
X026453Y015933D01*
X026478Y015942D01*
X026503Y015948D01*
X026529Y015951D01*
X026529Y015942D01*
X026504Y015940D01*
X026480Y015934D01*
X026457Y015925D01*
X026436Y015913D01*
X026416Y015898D01*
X026398Y015880D01*
X026383Y015860D01*
X026371Y015839D01*
X026362Y015816D01*
X026356Y015792D01*
X026354Y015767D01*
X028058Y015766D02*
X028008Y015766D01*
X028009Y015767D02*
X028006Y015793D01*
X027999Y015819D01*
X027989Y015843D01*
X027975Y015866D01*
X027958Y015886D01*
X027938Y015903D01*
X027915Y015917D01*
X027891Y015927D01*
X027865Y015934D01*
X027839Y015937D01*
X027838Y015986D01*
X027839Y015987D01*
X027867Y015984D01*
X027895Y015978D01*
X027922Y015969D01*
X027948Y015956D01*
X027972Y015940D01*
X027993Y015921D01*
X028012Y015900D01*
X028028Y015876D01*
X028041Y015850D01*
X028050Y015823D01*
X028056Y015795D01*
X028059Y015767D01*
X028050Y015767D01*
X028048Y015794D01*
X028042Y015821D01*
X028033Y015847D01*
X028020Y015871D01*
X028005Y015894D01*
X027987Y015915D01*
X027966Y015933D01*
X027943Y015948D01*
X027919Y015961D01*
X027893Y015970D01*
X027866Y015976D01*
X027839Y015978D01*
X027839Y015969D01*
X027868Y015966D01*
X027895Y015960D01*
X027922Y015949D01*
X027947Y015935D01*
X027970Y015918D01*
X027990Y015898D01*
X028007Y015875D01*
X028021Y015850D01*
X028032Y015823D01*
X028038Y015796D01*
X028041Y015767D01*
X028032Y015767D01*
X028029Y015794D01*
X028023Y015821D01*
X028013Y015846D01*
X028000Y015870D01*
X027983Y015892D01*
X027964Y015911D01*
X027942Y015928D01*
X027918Y015941D01*
X027893Y015951D01*
X027866Y015957D01*
X027839Y015960D01*
X027839Y015951D01*
X027865Y015948D01*
X027890Y015942D01*
X027915Y015933D01*
X027937Y015920D01*
X027958Y015905D01*
X027977Y015886D01*
X027992Y015865D01*
X028005Y015843D01*
X028014Y015818D01*
X028020Y015793D01*
X028023Y015767D01*
X028014Y015767D01*
X028012Y015792D01*
X028006Y015816D01*
X027997Y015839D01*
X027985Y015860D01*
X027970Y015880D01*
X027952Y015898D01*
X027932Y015913D01*
X027911Y015925D01*
X027888Y015934D01*
X027864Y015940D01*
X027839Y015942D01*
X027838Y015038D02*
X027838Y015088D01*
X027839Y015087D02*
X027865Y015090D01*
X027891Y015097D01*
X027915Y015107D01*
X027938Y015121D01*
X027958Y015138D01*
X027975Y015158D01*
X027989Y015181D01*
X027999Y015205D01*
X028006Y015231D01*
X028009Y015257D01*
X028058Y015258D01*
X028059Y015257D01*
X028056Y015229D01*
X028050Y015201D01*
X028041Y015174D01*
X028028Y015148D01*
X028012Y015124D01*
X027993Y015103D01*
X027972Y015084D01*
X027948Y015068D01*
X027922Y015055D01*
X027895Y015046D01*
X027867Y015040D01*
X027839Y015037D01*
X027839Y015046D01*
X027866Y015048D01*
X027893Y015054D01*
X027919Y015063D01*
X027943Y015076D01*
X027966Y015091D01*
X027987Y015109D01*
X028005Y015130D01*
X028020Y015153D01*
X028033Y015177D01*
X028042Y015203D01*
X028048Y015230D01*
X028050Y015257D01*
X028041Y015257D01*
X028038Y015228D01*
X028032Y015201D01*
X028021Y015174D01*
X028007Y015149D01*
X027990Y015126D01*
X027970Y015106D01*
X027947Y015089D01*
X027922Y015075D01*
X027895Y015064D01*
X027868Y015058D01*
X027839Y015055D01*
X027839Y015064D01*
X027866Y015067D01*
X027893Y015073D01*
X027918Y015083D01*
X027942Y015096D01*
X027964Y015113D01*
X027983Y015132D01*
X028000Y015154D01*
X028013Y015178D01*
X028023Y015203D01*
X028029Y015230D01*
X028032Y015257D01*
X028023Y015257D01*
X028020Y015231D01*
X028014Y015206D01*
X028005Y015181D01*
X027992Y015159D01*
X027977Y015138D01*
X027958Y015119D01*
X027937Y015104D01*
X027915Y015091D01*
X027890Y015082D01*
X027865Y015076D01*
X027839Y015073D01*
X027839Y015082D01*
X027864Y015084D01*
X027888Y015090D01*
X027911Y015099D01*
X027932Y015111D01*
X027952Y015126D01*
X027970Y015144D01*
X027985Y015164D01*
X027997Y015185D01*
X028006Y015208D01*
X028012Y015232D01*
X028014Y015257D01*
D17*
X027304Y015212D02*
X027304Y015512D01*
X027304Y015812D01*
X027054Y015812D02*
X027054Y015512D01*
X027054Y015212D01*
X022984Y006642D02*
X022684Y006642D01*
X022384Y006642D01*
X022384Y006392D02*
X022684Y006392D01*
X022984Y006392D01*
D18*
X021088Y005372D02*
X021088Y004952D01*
X020983Y004847D01*
X020772Y004847D01*
X020667Y004952D01*
X020443Y004847D02*
X020023Y005267D01*
X020023Y005372D01*
X020128Y005477D01*
X020338Y005477D01*
X020443Y005372D01*
X020667Y005372D02*
X020772Y005477D01*
X020983Y005477D01*
X021088Y005372D01*
X020443Y004847D02*
X020023Y004847D01*
X024374Y017047D02*
X024794Y017047D01*
X024899Y017152D01*
X024899Y017362D01*
X024794Y017467D01*
X024374Y017467D01*
X024269Y017362D01*
X024269Y017152D01*
X024374Y017047D01*
X024479Y017257D02*
X024269Y017467D01*
X024269Y017691D02*
X024269Y018112D01*
X024269Y017901D02*
X024899Y017901D01*
X024689Y017691D01*
D19*
X025184Y016712D02*
X021934Y016712D01*
X021934Y020312D01*
X025184Y020312D01*
X025184Y016712D01*
D20*
X020459Y017512D03*
X020459Y018512D03*
X020459Y019512D03*
D21*
X021134Y019512D03*
X021134Y018512D03*
X021134Y017512D03*
D22*
X016909Y007512D03*
M02*
