G75*
G70*
%OFA0B0*%
%FSLAX24Y24*%
%IPPOS*%
%LPD*%
%AMOC8*
5,1,8,0,0,1.08239X$1,22.5*
%
%ADD10O,0.1040X0.0520*%
%ADD11R,0.0945X0.0945*%
%ADD12OC8,0.0520*%
%ADD13O,0.1320X0.0660*%
%ADD14O,0.0600X0.1200*%
%ADD15OC8,0.1500*%
%ADD16R,0.1500X0.0760*%
%ADD17C,0.0050*%
%ADD18OC8,0.1240*%
%ADD19C,0.1240*%
%ADD20C,0.0500*%
%ADD21C,0.0760*%
%ADD22C,0.0240*%
D10*
X019684Y010512D03*
X019684Y011512D03*
X019684Y012512D03*
X019684Y013512D03*
X022684Y013512D03*
X022684Y012512D03*
X022684Y011512D03*
X022684Y010512D03*
X025684Y010512D03*
X025684Y011512D03*
X025684Y012512D03*
X025684Y013512D03*
X028684Y013512D03*
X028684Y012512D03*
X028684Y011512D03*
X028684Y010512D03*
D11*
X009550Y009512D03*
X007817Y009512D03*
X007817Y011512D03*
X009550Y011512D03*
X009550Y007512D03*
X007817Y007512D03*
X007817Y005512D03*
X009550Y005512D03*
D12*
X022684Y005512D03*
X024684Y005512D03*
X024684Y007512D03*
X022684Y007512D03*
X028684Y007512D03*
X028684Y005512D03*
X028184Y015512D03*
X026184Y015512D03*
X023184Y015512D03*
X019184Y015512D03*
D13*
X019684Y017512D03*
X019684Y018512D03*
X019684Y019512D03*
D14*
X006184Y002512D03*
X007184Y002512D03*
X008184Y002512D03*
X009184Y002512D03*
X010184Y002512D03*
X011184Y002512D03*
X012184Y002512D03*
X013184Y002512D03*
X014184Y002512D03*
X015184Y002512D03*
X016184Y002512D03*
X017184Y002512D03*
X018184Y002512D03*
X019184Y002512D03*
X020184Y002512D03*
X021184Y002512D03*
X022184Y002512D03*
X023184Y002512D03*
X024184Y002512D03*
X025184Y002512D03*
D15*
X011684Y005512D03*
X011684Y007512D03*
X011684Y009512D03*
X011684Y011512D03*
X007184Y014512D03*
X005184Y016012D03*
X007184Y018012D03*
X005184Y019512D03*
X005684Y011512D03*
X005684Y009512D03*
X005684Y007512D03*
X005684Y005512D03*
D16*
X009880Y014469D03*
X009880Y015945D03*
X009880Y017913D03*
X009880Y019390D03*
X016180Y019390D03*
X016180Y017913D03*
X016180Y015945D03*
X016180Y014469D03*
D17*
X015097Y018799D02*
X014999Y018799D01*
X012144Y019685D02*
X012046Y019685D01*
X010274Y019685D02*
X010274Y019587D01*
X010274Y014469D02*
X010274Y014272D01*
X009782Y014272D01*
D18*
X015684Y012512D03*
X017684Y012512D03*
X018184Y007512D03*
X024684Y015012D03*
D19*
X015184Y007512D03*
D20*
X015184Y002512D02*
X014184Y002512D01*
X016180Y014469D02*
X016184Y014469D01*
X016184Y014512D01*
X016184Y015945D01*
X016180Y015945D01*
X016184Y015945D02*
X016184Y016012D01*
X016184Y017913D02*
X016184Y019390D01*
X016180Y019390D01*
X016180Y017913D02*
X016184Y017913D01*
D21*
X016180Y017913D02*
X014184Y017913D01*
X014184Y011012D01*
X014184Y007512D01*
X015184Y007512D01*
X014184Y007512D02*
X014184Y002512D01*
X013184Y002512D01*
X014184Y002512D02*
X015184Y002512D01*
X016184Y016012D02*
X017684Y016012D01*
X017684Y018512D01*
X019684Y018512D01*
D22*
X016184Y014512D02*
X016184Y012512D01*
X015684Y012512D01*
X016684Y013512D02*
X016684Y011012D01*
X014184Y011012D01*
X011684Y011512D02*
X009550Y011512D01*
X007817Y011512D02*
X005684Y011512D01*
X005684Y009512D02*
X007817Y009512D01*
X009550Y009512D02*
X011684Y009512D01*
X011684Y007512D02*
X009684Y007512D01*
X009550Y007512D01*
X009684Y007512D01*
X009550Y007512D02*
X009184Y007512D01*
X007817Y007512D02*
X005684Y007512D01*
X005684Y005512D02*
X007817Y005512D01*
X009550Y005512D02*
X011684Y005512D01*
X017684Y012512D02*
X019684Y012512D01*
X019684Y013512D02*
X022684Y013512D01*
X024184Y013512D01*
X024184Y012512D01*
X025684Y012512D01*
X028684Y012512D01*
X029684Y012512D01*
X029684Y015512D01*
X028184Y015512D01*
X026684Y012012D02*
X023684Y012012D01*
X023684Y012512D01*
X022684Y012512D01*
X019684Y013512D02*
X016684Y013512D01*
X009880Y014469D02*
X007184Y014469D01*
X007184Y014512D01*
X005184Y015945D02*
X005184Y016012D01*
X005184Y015945D02*
X009880Y015945D01*
X009880Y017913D02*
X007184Y017913D01*
X007184Y018012D01*
X005184Y019390D02*
X005184Y019512D01*
X005184Y019390D02*
X009880Y019390D01*
X026684Y012012D02*
X026684Y011512D01*
X028684Y011512D01*
M02*
