%
M48
M72
T01C0.01181
T02C0.02362
T03C0.03150
T04C0.04000
%
T01
X410922Y22177
X415297Y24052
X419672Y25302
X424672Y25302
X435297Y25927
X457172Y16552
X449989Y7999
X445922Y9677
X442797Y7802
X439672Y9677
X434672Y9677
X450297Y51552
X439672Y56552
X424672Y66552
X416547Y69677
X417172Y82177
X421547Y86552
X418422Y98427
X422172Y105927
X410922Y105927
X387797Y107177
X388422Y115302
X388422Y121552
X381547Y125927
X370922Y135302
X378816Y145302
X385922Y147802
X390922Y148427
X388422Y152177
X370922Y150302
X387797Y170302
X389047Y181865
X394047Y184677
X409047Y185927
X420297Y185927
X457172Y167802
X424047Y155927
X426547Y145927
X403501Y136006
X435297Y115927
X445297Y115927
X444672Y120927
X445297Y125302
X458422Y115927
X458422Y103427
X451547Y103427
X446547Y109052
X445922Y97802
X450297Y92177
X445922Y84677
X442797Y80302
X454672Y75927
X462797Y85302
X462797Y92177
X400297Y75302
X399672Y65927
X382172Y76552
X391547Y84677
X391547Y90302
X514672Y135302
X522566Y145302
X529672Y147802
X534672Y148427
X532172Y152177
X514672Y150302
X547251Y136006
X525297Y125927
X532172Y121552
X532172Y115302
X531547Y107177
X554672Y105927
X562172Y98427
X565922Y105927
X579047Y115927
X589047Y115927
X588422Y120927
X589047Y125302
X602172Y115927
X590297Y109052
X595297Y103427
X602172Y103427
X589672Y97802
X594047Y92177
X589672Y84677
X586547Y80302
X598422Y75927
X606547Y85302
X606547Y92177
X565297Y86552
X560922Y82177
X560297Y69677
X568422Y66552
X583422Y56552
X594047Y51552
X600922Y16552
X593739Y7999
X589672Y9677
X586547Y7802
X583422Y9677
X578422Y9677
X579047Y25927
X568422Y25302
X563422Y25302
X559047Y24052
X554672Y22177
X543422Y65927
X544047Y75302
X535297Y84677
X535297Y90302
X525922Y76552
X570297Y145927
X567797Y155927
X531547Y170302
X532797Y181865
X537797Y184677
X522172Y183115
X552797Y185927
X564047Y185927
X600922Y167802
X655922Y150302
X663816Y145302
X670922Y147802
X675922Y148427
X673422Y152177
X672797Y170302
X674047Y181865
X679047Y184677
X694047Y185927
X705297Y185927
X742172Y167802
X709047Y155927
X711547Y145927
X688501Y136006
X673422Y121552
X673422Y115302
X672797Y107177
X695922Y105927
X703422Y98427
X707172Y105927
X720297Y115927
X730297Y115927
X729672Y120927
X730297Y125302
X743422Y115927
X743422Y103427
X736547Y103427
X731547Y109052
X730922Y97802
X735297Y92177
X730922Y84677
X727797Y80302
X739672Y75927
X747797Y85302
X747797Y92177
X706547Y86552
X702172Y82177
X701547Y69677
X709672Y66552
X724672Y56552
X735297Y51552
X720297Y25927
X709672Y25302
X704672Y25302
X700297Y24052
X695922Y22177
X719672Y9677
X724672Y9677
X727797Y7802
X730922Y9677
X734989Y7999
X742172Y16552
X837172Y22177
X841547Y24052
X845922Y25302
X850922Y25302
X861547Y25927
X883422Y16552
X876239Y7999
X872172Y9677
X869047Y7802
X865922Y9677
X860922Y9677
X876547Y51552
X865922Y56552
X850922Y66552
X842797Y69677
X843422Y82177
X847797Y86552
X844672Y98427
X848422Y105927
X837172Y105927
X817797Y90302
X817797Y84677
X808422Y76552
X826547Y75302
X825922Y65927
X869047Y80302
X872172Y84677
X876547Y92177
X872172Y97802
X877797Y103427
X884672Y103427
X872797Y109052
X871547Y115927
X870922Y120927
X871547Y125302
X861547Y115927
X884672Y115927
X889047Y92177
X889047Y85302
X880922Y75927
X814047Y107177
X814672Y115302
X814672Y121552
X807797Y125927
X797172Y135302
X805066Y145302
X812172Y147802
X817172Y148427
X814672Y152177
X797172Y150302
X829751Y136006
X852797Y145927
X850297Y155927
X883422Y167802
X846547Y185927
X835297Y185927
X820297Y184677
X815297Y181865
X804672Y183115
X814047Y170302
X734989Y259249
X730922Y260927
X727797Y259052
X724672Y260927
X719672Y260927
X700297Y275302
X704672Y276552
X709672Y276552
X720297Y277177
X742172Y267802
X837172Y273427
X841547Y275302
X845922Y276552
X850922Y276552
X861547Y277177
X883422Y267802
X876239Y259249
X872172Y260927
X869047Y259052
X865922Y260927
X860922Y260927
X876547Y302802
X865922Y307802
X850922Y317802
X842797Y320927
X843422Y333427
X847797Y337802
X844672Y349677
X848422Y357177
X837172Y357177
X814047Y358427
X814672Y366552
X814672Y372802
X807797Y377177
X797172Y386552
X805066Y396552
X812172Y399052
X817172Y399677
X814672Y403427
X797172Y401552
X829751Y387256
X852797Y397177
X850297Y407177
X883422Y419052
X846547Y437177
X835297Y437177
X820297Y435927
X815297Y433115
X804672Y434365
X814047Y421552
X742172Y419052
X709047Y407177
X711547Y397177
X688501Y387256
X673422Y372802
X673422Y366552
X672797Y358427
X695922Y357177
X703422Y349677
X707172Y357177
X720297Y367177
X730297Y367177
X729672Y372177
X730297Y376552
X743422Y367177
X743422Y354677
X736547Y354677
X731547Y360302
X730922Y349052
X735297Y343427
X747797Y343427
X747797Y336552
X739672Y327177
X730922Y335927
X727797Y331552
X706547Y337802
X702172Y333427
X701547Y320927
X709672Y317802
X724672Y307802
X735297Y302802
X808422Y327802
X817797Y335927
X817797Y341552
X826547Y326552
X825922Y317177
X869047Y331552
X872172Y335927
X880922Y327177
X889047Y336552
X889047Y343427
X884672Y354677
X877797Y354677
X872797Y360302
X871547Y367177
X870922Y372177
X871547Y376552
X861547Y367177
X884672Y367177
X872172Y349052
X876547Y343427
X600922Y267802
X593739Y259249
X589672Y260927
X586547Y259052
X583422Y260927
X578422Y260927
X579047Y277177
X568422Y276552
X563422Y276552
X559047Y275302
X554672Y273427
X594047Y302802
X583422Y307802
X568422Y317802
X560297Y320927
X560922Y333427
X565297Y337802
X562172Y349677
X565922Y357177
X554672Y357177
X531547Y358427
X532172Y366552
X532172Y372802
X525297Y377177
X514672Y386552
X522566Y396552
X529672Y399052
X534672Y399677
X532172Y403427
X514672Y401552
X547251Y387256
X570297Y397177
X567797Y407177
X531547Y421552
X532797Y433115
X537797Y435927
X522172Y434365
X552797Y437177
X564047Y437177
X600922Y419052
X655922Y401552
X663816Y396552
X670922Y399052
X675922Y399677
X673422Y403427
X655922Y386552
X666547Y377177
X606547Y343427
X606547Y336552
X598422Y327177
X589672Y335927
X586547Y331552
X594047Y343427
X589672Y349052
X595297Y354677
X602172Y354677
X590297Y360302
X589047Y367177
X588422Y372177
X589047Y376552
X579047Y367177
X602172Y367177
X544047Y326552
X535297Y335927
X535297Y341552
X525922Y327802
X543422Y317177
X410922Y273427
X415297Y275302
X419672Y276552
X424672Y276552
X435297Y277177
X457172Y267802
X449989Y259249
X445922Y260927
X442797Y259052
X439672Y260927
X434672Y260927
X450297Y302802
X439672Y307802
X424672Y317802
X416547Y320927
X417172Y333427
X421547Y337802
X418422Y349677
X422172Y357177
X410922Y357177
X387797Y358427
X388422Y366552
X388422Y372802
X381547Y377177
X370922Y386552
X378816Y396552
X385922Y399052
X390922Y399677
X388422Y403427
X370922Y401552
X387797Y421552
X389047Y433115
X394047Y435927
X409047Y437177
X420297Y437177
X457172Y419052
X424047Y407177
X426547Y397177
X403501Y387256
X435297Y367177
X445297Y367177
X444672Y372177
X445297Y376552
X458422Y367177
X458422Y354677
X451547Y354677
X446547Y360302
X445922Y349052
X450297Y343427
X462797Y343427
X462797Y336552
X454672Y327177
X445922Y335927
X442797Y331552
X400297Y326552
X391547Y335927
X391547Y341552
X382172Y327802
X399672Y317177
X378422Y434365
X684672Y317177
X685297Y326552
X676547Y335927
X676547Y341552
X667172Y327802
X695922Y273427
X663422Y183115
X655922Y135302
X666547Y125927
X676547Y90302
X676547Y84677
X667172Y76552
X685297Y75302
X684672Y65927
X378422Y183115
X672797Y421552
X674047Y433115
X679047Y435927
X694047Y437177
X705297Y437177
X663422Y434365
T02
X379047Y15927
X384672Y15927
X414672Y40927
X422172Y40927
X419047Y49052
X449672Y34677
X459047Y29677
X526547Y52177
X526547Y58427
X558422Y40927
X565922Y40927
X562797Y49052
X593422Y34677
X602797Y29677
X667797Y52177
X667797Y58427
X699672Y40927
X707172Y40927
X704047Y49052
X734672Y34677
X744047Y29677
X805297Y15927
X810922Y15927
X840922Y40927
X848422Y40927
X845297Y49052
X875922Y34677
X885297Y29677
X809047Y52177
X809047Y58427
X762797Y82802
X704672Y125927
X711547Y135927
X736547Y133427
X754672Y133427
X759672Y167802
X813422Y138427
X815297Y130302
X845922Y125927
X852797Y135927
X877797Y133427
X895922Y133427
X900922Y167802
X829672Y165927
X832219Y195880
X817172Y228427
X885297Y280927
X875922Y285927
X848422Y292177
X840922Y292177
X845297Y300302
X809047Y303427
X809047Y309677
X817172Y479677
X832219Y447130
X829672Y417177
X813422Y389677
X815297Y381552
X845922Y377177
X852797Y387177
X877797Y384677
X895922Y384677
X900922Y419052
X904047Y334052
X810922Y267177
X805297Y267177
X664047Y267177
X669672Y267177
X699672Y292177
X707172Y292177
X704047Y300302
X734672Y285927
X744047Y280927
X667797Y303427
X667797Y309677
X602797Y280927
X593422Y285927
X565922Y292177
X558422Y292177
X562797Y300302
X526547Y303427
X526547Y309677
X477797Y334052
X419047Y300302
X422172Y292177
X414672Y292177
X382797Y303427
X382797Y309677
X384672Y267177
X379047Y267177
X390922Y228427
X405969Y195880
X403422Y165927
X387172Y138427
X389047Y130302
X419672Y125927
X426547Y135927
X451547Y133427
X469672Y133427
X474672Y167802
X530922Y138427
X532797Y130302
X563422Y125927
X570297Y135927
X595297Y133427
X613422Y133427
X618422Y167802
X672172Y138427
X674047Y130302
X688422Y165927
X690969Y195880
X675922Y228427
X534672Y228427
X522797Y267177
X528422Y267177
X459047Y280927
X449672Y285927
X549719Y195880
X547172Y165927
X477797Y82802
X382797Y58427
X382797Y52177
X522797Y15927
X528422Y15927
X664047Y15927
X669672Y15927
X621547Y82802
X904047Y82802
X762797Y334052
X704672Y377177
X711547Y387177
X736547Y384677
X754672Y384677
X759672Y419052
X688422Y417177
X690969Y447130
X675922Y479677
X618422Y419052
X613422Y384677
X595297Y384677
X570297Y387177
X563422Y377177
X532797Y381552
X530922Y389677
X547172Y417177
X549719Y447130
X534672Y479677
X474672Y419052
X469672Y384677
X451547Y384677
X426547Y387177
X419672Y377177
X389047Y381552
X387172Y389677
X403422Y417177
X405969Y447130
X390922Y479677
X621547Y334052
X674047Y381552
X672172Y389677
T03
X846547Y166552
X846290Y195880
X846234Y239365
X563734Y239365
X419984Y239365
X420040Y195880
X420297Y166552
X564047Y166552
X563790Y195880
X705040Y195880
X705297Y166552
X704984Y239365
X846547Y417802
X846290Y447130
X846234Y490615
X705297Y417802
X705040Y447130
X704984Y490615
X563734Y490615
X563790Y447130
X564047Y417802
X420297Y417802
X420040Y447130
X419984Y490615
T04
X465597Y32679
X475597Y32679
X475597Y42679
X465597Y42679
X465597Y52679
X475597Y52679
X475597Y62679
X465597Y62679
X465597Y72679
X475597Y72679
X609347Y32679
X619347Y32679
X619347Y42679
X619347Y52679
X609347Y52679
X609347Y42679
X609347Y62679
X619347Y62679
X619347Y72679
X609347Y72679
X750597Y32679
X760597Y32679
X760597Y42679
X750597Y42679
X750597Y52679
X760597Y52679
X760597Y62679
X760597Y72679
X750597Y72679
X750597Y62679
X891847Y32679
X901847Y32679
X901847Y42679
X891847Y42679
X891847Y52679
X901847Y52679
X901847Y62679
X891847Y62679
X891847Y72679
X901847Y72679
X609347Y283929
X619347Y283929
X619347Y293929
X609347Y293929
X609347Y303929
X619347Y303929
X619347Y313929
X609347Y313929
X609347Y323929
X619347Y323929
X475597Y283929
X465597Y283929
X465597Y293929
X475597Y293929
X475597Y303929
X465597Y303929
X465597Y313929
X475597Y313929
X475597Y323929
X465597Y323929
X750597Y283929
X760597Y283929
X760597Y293929
X760597Y303929
X760597Y313929
X750597Y313929
X750597Y303929
X750597Y293929
X750597Y323929
X760597Y323929
X891847Y323929
X901847Y323929
X901847Y313929
X901847Y303929
X891847Y303929
X891847Y313929
X891847Y293929
X901847Y293929
X901847Y283929
X891847Y283929
M30
