G75*
%MOIN*%
%OFA0B0*%
%FSLAX25Y25*%
%IPPOS*%
%LPD*%
%AMOC8*
5,1,8,0,0,1.08239X$1,22.5*
%
%ADD10C,0.01000*%
%ADD11C,0.00600*%
%ADD12R,0.03150X0.04724*%
%ADD13C,0.04724*%
%ADD14R,0.03150X0.03543*%
%ADD15R,0.16300X0.03900*%
%ADD16R,0.12598X0.07087*%
%ADD17OC8,0.06000*%
%ADD18R,0.04724X0.03150*%
%ADD19R,0.03543X0.03150*%
%ADD20R,0.03900X0.16300*%
%ADD21R,0.07087X0.12598*%
%ADD22R,0.26378X0.26378*%
%ADD23R,0.11811X0.06299*%
%ADD24R,0.07087X0.06693*%
%ADD25C,0.07050*%
%ADD26R,0.04724X0.04724*%
%ADD27R,0.06299X0.07087*%
%ADD28C,0.18100*%
%ADD29OC8,0.18100*%
%ADD30R,0.02165X0.04724*%
%ADD31R,0.04724X0.02165*%
%ADD32C,0.05906*%
%ADD33R,0.05906X0.05906*%
%ADD34R,0.10000X0.14000*%
%ADD35R,0.06693X0.07087*%
%ADD36C,0.07000*%
%ADD37R,0.06299X0.11811*%
%ADD38C,0.06000*%
%ADD39R,0.13000X0.13000*%
%ADD40R,0.11811X0.11811*%
%ADD41R,0.40000X0.25000*%
%ADD42R,0.06000X0.18000*%
%ADD43C,0.04724*%
%ADD44R,0.03500X0.04500*%
%ADD45C,0.10000*%
%ADD46R,0.07874X0.02402*%
%ADD47R,0.07874X0.02362*%
%ADD48R,0.14173X0.10551*%
%ADD49R,0.11811X0.04921*%
%ADD50R,0.07087X0.06299*%
%ADD51C,0.06000*%
%ADD52C,0.03543*%
%ADD53C,0.02953*%
%ADD54C,0.03450*%
%ADD55C,0.18750*%
D10*
X0054042Y0043461D02*
X0019042Y0078461D01*
X0019042Y0168475D01*
X0007930Y0168475D01*
X0007930Y0410926D01*
X0057042Y0410926D01*
X0057042Y0416961D01*
X0057042Y0416925D02*
X0007930Y0416925D01*
X0007930Y0659676D01*
X0053942Y0659676D01*
X0053942Y0665661D01*
X0007930Y0665675D01*
X0007930Y0908426D01*
X0099842Y0908461D01*
X0099842Y0913205D01*
X0060317Y0913205D01*
X0060317Y1146984D01*
X0178028Y1146984D01*
X0178028Y1067211D01*
X0187817Y1067211D01*
X0187842Y1067211D01*
X0187817Y1067211D02*
X0187817Y1146984D01*
X0305528Y1146984D01*
X0305528Y1059711D01*
X0317792Y1059711D01*
X0317792Y1059661D01*
X0305442Y1059661D01*
X0305492Y1059711D02*
X0317817Y1059711D01*
X0317817Y1146984D01*
X0435528Y1146984D01*
X0435442Y1043061D01*
X0443842Y1043061D01*
X0454942Y1031961D01*
X0454942Y0994861D01*
X0466827Y0994861D01*
X0466827Y1013506D01*
X0440742Y1025461D02*
X0440742Y0805661D01*
X0436242Y0805661D01*
X0436138Y0805761D02*
X0436138Y0908519D01*
X0384742Y0908519D01*
X0384842Y0908461D02*
X0384842Y0913261D01*
X0435428Y0913205D01*
X0435428Y1027061D01*
X0439142Y1027061D01*
X0440742Y1025461D01*
X0454342Y0963461D02*
X0454342Y0769761D01*
X0466742Y0769761D01*
X0466842Y0963461D01*
X0454942Y0963461D01*
X0364442Y0913205D02*
X0364442Y0908461D01*
X0296642Y0908419D01*
X0296680Y0908426D02*
X0296742Y0800961D01*
X0291138Y0800961D01*
X0291138Y0908519D01*
X0244242Y0908461D01*
X0244242Y0913261D01*
X0305428Y0913205D01*
X0305442Y1037161D01*
X0317842Y1037161D01*
X0317817Y0913205D01*
X0364442Y0913205D01*
X0436242Y0787561D02*
X0436138Y0665675D01*
X0364542Y0665675D01*
X0364542Y0659661D01*
X0364442Y0659661D02*
X0436138Y0659769D01*
X0436138Y0651361D01*
X0436142Y0651261D02*
X0436142Y0651161D01*
X0443742Y0651161D01*
X0443742Y0787561D01*
X0436342Y0787561D01*
X0454342Y0743461D02*
X0466827Y0743461D01*
X0466827Y0737916D01*
X0454342Y0743461D02*
X0454342Y0713461D01*
X0569492Y0604561D01*
X0569542Y0604561D02*
X0575642Y0598461D01*
X0622792Y0598461D01*
X0622792Y0602947D01*
X0592565Y0602947D01*
X0593809Y0589225D02*
X0622792Y0589225D01*
X0622792Y0592211D01*
X0568542Y0592211D01*
X0568542Y0592111D01*
X0568542Y0592211D02*
X0455342Y0485261D01*
X0455342Y0402161D01*
X0468042Y0402161D01*
X0468092Y0402161D01*
X0468042Y0402161D02*
X0468070Y0454256D01*
X0444042Y0457211D02*
X0444042Y0445961D01*
X0439042Y0445961D01*
X0438992Y0402261D01*
X0436142Y0402311D01*
X0436142Y0411019D01*
X0436138Y0411019D01*
X0378442Y0411061D01*
X0378442Y0416925D01*
X0378442Y0416961D01*
X0378442Y0416925D02*
X0436138Y0416925D01*
X0436138Y0457211D01*
X0444042Y0457211D01*
X0444042Y0473461D02*
X0436142Y0473461D01*
X0436142Y0634061D01*
X0443942Y0634061D01*
X0444042Y0473461D01*
X0442242Y0373861D02*
X0442242Y0224161D01*
X0436042Y0224161D01*
X0436242Y0373811D01*
X0436242Y0373861D02*
X0442242Y0373861D01*
X0459442Y0373761D02*
X0459442Y0223461D01*
X0468042Y0223461D01*
X0468042Y0373761D01*
X0459442Y0373761D01*
X0468042Y0373761D02*
X0468070Y0373761D01*
X0355142Y0410926D02*
X0296680Y0410926D01*
X0296680Y0403161D01*
X0291142Y0403161D01*
X0291138Y0403161D02*
X0296642Y0403161D01*
X0291138Y0403161D02*
X0291138Y0411019D01*
X0239542Y0411019D01*
X0239542Y0416961D01*
X0291138Y0416925D01*
X0291042Y0536961D01*
X0296680Y0536961D01*
X0296680Y0416925D01*
X0355142Y0416961D01*
X0355142Y0410926D01*
X0296642Y0391261D02*
X0296542Y0391261D01*
X0291142Y0391261D01*
X0291142Y0189561D01*
X0296742Y0189561D01*
X0296542Y0391261D01*
X0239542Y0410961D02*
X0239542Y0411019D01*
X0217442Y0410961D02*
X0151680Y0410926D01*
X0151642Y0410926D01*
X0151642Y0403461D01*
X0147442Y0403461D01*
X0147442Y0411019D01*
X0147388Y0411019D01*
X0087642Y0411061D01*
X0087642Y0416961D01*
X0087742Y0416861D02*
X0087742Y0410961D01*
X0087742Y0416861D02*
X0147388Y0416925D01*
X0147442Y0536161D01*
X0147342Y0536161D01*
X0147442Y0536161D02*
X0151642Y0536161D01*
X0151680Y0416925D01*
X0217442Y0416925D01*
X0217442Y0416961D01*
X0217442Y0416925D02*
X0217442Y0410961D01*
X0151742Y0389361D02*
X0151642Y0188111D01*
X0147542Y0188111D01*
X0147442Y0389361D01*
X0151742Y0389361D01*
X0057042Y0410961D02*
X0057042Y0416925D01*
X0147342Y0557911D02*
X0147388Y0557911D01*
X0151680Y0557911D01*
X0151680Y0659676D01*
X0199642Y0659676D01*
X0199642Y0665661D01*
X0151680Y0665675D01*
X0151642Y0770461D01*
X0147342Y0770461D01*
X0147388Y0665675D01*
X0075742Y0665675D01*
X0075742Y0659661D01*
X0075642Y0659661D02*
X0147388Y0659769D01*
X0147388Y0557911D01*
X0075642Y0659661D02*
X0075642Y0665661D01*
X0053942Y0659676D02*
X0053942Y0659661D01*
X0147342Y0789861D02*
X0151680Y0789861D01*
X0151680Y0908526D01*
X0217842Y0908461D01*
X0217842Y0913205D01*
X0187817Y0913205D01*
X0187842Y1046061D01*
X0178042Y1046061D01*
X0177928Y0913205D01*
X0124042Y0913161D01*
X0124042Y0908461D01*
X0124042Y0908419D02*
X0147388Y0908419D01*
X0147388Y0789861D01*
X0151642Y0789861D01*
X0225242Y0665675D02*
X0225242Y0659761D01*
X0291138Y0659769D01*
X0291138Y0558461D01*
X0291042Y0558461D01*
X0291138Y0558461D02*
X0296742Y0558461D01*
X0296680Y0659676D01*
X0346642Y0659676D01*
X0346642Y0665661D01*
X0296680Y0665675D01*
X0296680Y0777711D01*
X0291142Y0777711D01*
X0291138Y0665675D01*
X0225242Y0665675D01*
X0296680Y0777711D02*
X0296742Y0777711D01*
X0346642Y0659676D02*
X0346642Y0659661D01*
X0364442Y0659661D02*
X0364442Y0665661D01*
X0296742Y0536961D02*
X0296680Y0536961D01*
X0436138Y0191661D02*
X0436138Y0168175D01*
X0427242Y0168175D01*
X0427242Y0159561D01*
X0427242Y0159573D02*
X0437957Y0159573D01*
X0437857Y0020111D01*
X0437851Y0020114D02*
X0195006Y0020114D01*
X0195006Y0034711D01*
X0179042Y0034711D01*
X0170292Y0043461D01*
X0054042Y0043461D01*
X0035292Y0152211D02*
X0124042Y0152211D01*
X0124042Y0168461D01*
X0034042Y0168461D01*
X0034042Y0153461D01*
X0035292Y0152211D01*
X0137792Y0152211D02*
X0191542Y0152211D01*
X0191542Y0152161D01*
X0195006Y0155625D01*
X0195006Y0159773D01*
X0201542Y0159773D01*
X0201542Y0168175D01*
X0151642Y0168175D01*
X0151592Y0174961D01*
X0147488Y0174961D01*
X0147488Y0168475D01*
X0137792Y0168461D01*
X0137792Y0152211D01*
X0171542Y0120961D02*
X0171542Y0063461D01*
X0182792Y0052211D01*
X0195092Y0052211D01*
X0195042Y0140961D01*
X0191542Y0140961D01*
X0171542Y0120961D01*
X0214442Y0159761D02*
X0214542Y0159661D01*
X0412342Y0159661D01*
X0412342Y0168161D01*
X0296680Y0168175D01*
X0296680Y0174561D01*
X0291142Y0174561D01*
X0291142Y0168175D01*
X0291138Y0168175D01*
X0214342Y0168161D01*
X0214342Y0160111D01*
X0214442Y0159761D01*
X0291142Y0168161D02*
X0291142Y0168175D01*
X0296742Y0174461D02*
X0296680Y0174561D01*
X0427242Y0168161D02*
X0427242Y0159661D01*
X0427242Y0159573D02*
X0427242Y0159861D01*
X0436142Y0191661D02*
X0468070Y0191661D01*
X0468070Y0178666D01*
X0908769Y0589225D02*
X0915209Y0585404D01*
X0921556Y0581431D01*
X0927807Y0577309D01*
X0933958Y0573039D01*
X0940006Y0568623D01*
X0945947Y0564066D01*
X0951779Y0559368D01*
X0957497Y0554533D01*
X0963098Y0549564D01*
X0968580Y0544463D01*
X0973939Y0539232D01*
X0979172Y0533876D01*
X0984276Y0528397D01*
X0989248Y0522799D01*
X0994086Y0517083D01*
X0998787Y0511255D01*
X1003348Y0505316D01*
X1007767Y0499270D01*
X1012040Y0493121D01*
X1016166Y0486872D01*
X1020142Y0480527D01*
X1023967Y0474090D01*
X1027637Y0467563D01*
X1031151Y0460950D01*
X1034507Y0454256D01*
X1034507Y0178666D01*
X0593809Y0589225D02*
X0587369Y0585404D01*
X0581022Y0581432D01*
X0574770Y0577309D01*
X0568619Y0573039D01*
X0562571Y0568624D01*
X0556630Y0564066D01*
X0550798Y0559368D01*
X0545080Y0554533D01*
X0539479Y0549564D01*
X0533997Y0544463D01*
X0528638Y0539233D01*
X0523405Y0533876D01*
X0518301Y0528398D01*
X0513329Y0522799D01*
X0508491Y0517083D01*
X0503790Y0511255D01*
X0499229Y0505316D01*
X0494810Y0499270D01*
X0490537Y0493121D01*
X0486411Y0486872D01*
X0482435Y0480527D01*
X0478610Y0474089D01*
X0474940Y0467562D01*
X0471426Y0460950D01*
X0468070Y0454256D01*
X0678342Y0589225D02*
X0678342Y0589261D01*
X0908769Y0589225D01*
X0907525Y0602947D02*
X0678342Y0602861D01*
X0678342Y0589261D01*
X0468069Y0178666D02*
X0471501Y0171824D01*
X0475099Y0165067D01*
X0478860Y0158400D01*
X0482781Y0151826D01*
X0486861Y0145350D01*
X0491098Y0138975D01*
X0495488Y0132704D01*
X0500029Y0126542D01*
X0504718Y0120492D01*
X0509554Y0114558D01*
X0514532Y0108743D01*
X0519649Y0103051D01*
X0524904Y0097485D01*
X0530292Y0092048D01*
X0535811Y0086744D01*
X0541457Y0081575D01*
X0547227Y0076545D01*
X0553118Y0071657D01*
X0559125Y0066913D01*
X0565247Y0062317D01*
X0571478Y0057871D01*
X0577815Y0053578D01*
X0584255Y0049440D01*
X0590793Y0045460D01*
X0597426Y0041639D01*
X0604150Y0037981D01*
X0610961Y0034488D01*
X0617855Y0031161D01*
X0624827Y0028003D01*
X0631875Y0025015D01*
X0638993Y0022199D01*
X0646177Y0019557D01*
X0653423Y0017090D01*
X0660727Y0014800D01*
X0668085Y0012689D01*
X0675491Y0010756D01*
X0682943Y0009005D01*
X0690435Y0007435D01*
X0697963Y0006047D01*
X0705522Y0004843D01*
X0713108Y0003823D01*
X0720717Y0002987D01*
X0728344Y0002337D01*
X0735984Y0001872D01*
X0743634Y0001593D01*
X0751288Y0001500D01*
X0758942Y0001593D01*
X0766592Y0001872D01*
X0774232Y0002337D01*
X0781859Y0002987D01*
X0789468Y0003823D01*
X0797054Y0004843D01*
X0804613Y0006047D01*
X0812141Y0007435D01*
X0819633Y0009005D01*
X0827085Y0010756D01*
X0834491Y0012689D01*
X0841849Y0014800D01*
X0849153Y0017090D01*
X0856399Y0019557D01*
X0863583Y0022199D01*
X0870701Y0025015D01*
X0877749Y0028003D01*
X0884721Y0031161D01*
X0891615Y0034488D01*
X0898426Y0037981D01*
X0905150Y0041639D01*
X0911783Y0045460D01*
X0918321Y0049440D01*
X0924761Y0053578D01*
X0931098Y0057871D01*
X0937329Y0062317D01*
X0943451Y0066913D01*
X0949458Y0071657D01*
X0955349Y0076545D01*
X0961119Y0081575D01*
X0966765Y0086744D01*
X0972284Y0092048D01*
X0977672Y0097485D01*
X0982927Y0103051D01*
X0988044Y0108743D01*
X0993022Y0114558D01*
X0997858Y0120492D01*
X1002547Y0126542D01*
X1007088Y0132704D01*
X1011478Y0138975D01*
X1015715Y0145350D01*
X1019795Y0151826D01*
X1023716Y0158400D01*
X1027477Y0165067D01*
X1031075Y0171824D01*
X1034507Y0178666D01*
X1033264Y0737916D02*
X1033264Y1013506D01*
X1029832Y1020348D01*
X1026234Y1027105D01*
X1022473Y1033772D01*
X1018552Y1040346D01*
X1014472Y1046822D01*
X1010235Y1053197D01*
X1005845Y1059468D01*
X1001304Y1065630D01*
X0996615Y1071680D01*
X0991779Y1077614D01*
X0986801Y1083429D01*
X0981684Y1089121D01*
X0976429Y1094687D01*
X0971041Y1100124D01*
X0965522Y1105428D01*
X0959876Y1110597D01*
X0954106Y1115627D01*
X0948215Y1120515D01*
X0942208Y1125259D01*
X0936086Y1129855D01*
X0929855Y1134301D01*
X0923518Y1138594D01*
X0917078Y1142732D01*
X0910540Y1146712D01*
X0903907Y1150533D01*
X0897183Y1154191D01*
X0890372Y1157684D01*
X0883478Y1161011D01*
X0876506Y1164169D01*
X0869458Y1167157D01*
X0862340Y1169973D01*
X0855156Y1172615D01*
X0847910Y1175082D01*
X0840606Y1177372D01*
X0833248Y1179483D01*
X0825842Y1181416D01*
X0818390Y1183167D01*
X0810898Y1184737D01*
X0803370Y1186125D01*
X0795811Y1187329D01*
X0788225Y1188349D01*
X0780616Y1189185D01*
X0772989Y1189835D01*
X0765349Y1190300D01*
X0757699Y1190579D01*
X0750045Y1190672D01*
X0742391Y1190579D01*
X0734741Y1190300D01*
X0727101Y1189835D01*
X0719474Y1189185D01*
X0711865Y1188349D01*
X0704279Y1187329D01*
X0696720Y1186125D01*
X0689192Y1184737D01*
X0681700Y1183167D01*
X0674248Y1181416D01*
X0666842Y1179483D01*
X0659484Y1177372D01*
X0652180Y1175082D01*
X0644934Y1172615D01*
X0637750Y1169973D01*
X0630632Y1167157D01*
X0623584Y1164169D01*
X0616612Y1161011D01*
X0609718Y1157684D01*
X0602907Y1154191D01*
X0596183Y1150533D01*
X0589550Y1146712D01*
X0583012Y1142732D01*
X0576572Y1138594D01*
X0570235Y1134301D01*
X0564004Y1129855D01*
X0557882Y1125259D01*
X0551875Y1120515D01*
X0545984Y1115627D01*
X0540214Y1110597D01*
X0534568Y1105428D01*
X0529049Y1100124D01*
X0523661Y1094687D01*
X0518406Y1089121D01*
X0513289Y1083429D01*
X0508311Y1077614D01*
X0503475Y1071680D01*
X0498786Y1065630D01*
X0494245Y1059468D01*
X0489855Y1053197D01*
X0485618Y1046822D01*
X0481538Y1040346D01*
X0477617Y1033772D01*
X0473856Y1027105D01*
X0470258Y1020348D01*
X0466826Y1013506D01*
X0907525Y0602947D02*
X0913965Y0606768D01*
X0920312Y0610740D01*
X0926564Y0614863D01*
X0932715Y0619133D01*
X0938763Y0623548D01*
X0944704Y0628106D01*
X0950536Y0632804D01*
X0956254Y0637639D01*
X0961855Y0642608D01*
X0967337Y0647709D01*
X0972696Y0652939D01*
X0977929Y0658296D01*
X0983033Y0663774D01*
X0988005Y0669373D01*
X0992843Y0675089D01*
X0997544Y0680917D01*
X1002105Y0686856D01*
X1006524Y0692902D01*
X1010797Y0699051D01*
X1014923Y0705300D01*
X1018899Y0711645D01*
X1022724Y0718083D01*
X1026394Y0724610D01*
X1029908Y0731222D01*
X1033264Y0737916D01*
X0592564Y0602947D02*
X0586124Y0606768D01*
X0579777Y0610741D01*
X0573526Y0614863D01*
X0567375Y0619133D01*
X0561327Y0623549D01*
X0555386Y0628106D01*
X0549554Y0632804D01*
X0543836Y0637639D01*
X0538235Y0642608D01*
X0532753Y0647709D01*
X0527394Y0652940D01*
X0522161Y0658296D01*
X0517057Y0663775D01*
X0512085Y0669373D01*
X0507247Y0675089D01*
X0502546Y0680917D01*
X0497985Y0686856D01*
X0493566Y0692902D01*
X0489293Y0699051D01*
X0485167Y0705300D01*
X0481191Y0711645D01*
X0477366Y0718082D01*
X0473696Y0724609D01*
X0470182Y0731222D01*
X0466826Y0737916D01*
D11*
X1071086Y0404085D02*
X1077492Y0404085D01*
X1071086Y0399815D01*
X1077492Y0399815D01*
X1076424Y0397640D02*
X1072154Y0397640D01*
X1071086Y0396572D01*
X1071086Y0394437D01*
X1072154Y0393369D01*
X1076424Y0393369D01*
X1077492Y0394437D01*
X1077492Y0396572D01*
X1076424Y0397640D01*
X1077492Y0391208D02*
X1077492Y0389072D01*
X1077492Y0390140D02*
X1071086Y0390140D01*
X1071086Y0389072D02*
X1071086Y0391208D01*
X1072154Y0386897D02*
X1071086Y0385830D01*
X1071086Y0383694D01*
X1072154Y0382627D01*
X1073221Y0382627D01*
X1074289Y0383694D01*
X1074289Y0385830D01*
X1075357Y0386897D01*
X1076424Y0386897D01*
X1077492Y0385830D01*
X1077492Y0383694D01*
X1076424Y0382627D01*
X1077492Y0380452D02*
X1071086Y0380452D01*
X1071086Y0376181D02*
X1077492Y0380452D01*
X1077492Y0376181D02*
X1071086Y0376181D01*
X1071086Y0374006D02*
X1071086Y0369736D01*
X1077492Y0369736D01*
X1077492Y0374006D01*
X1074289Y0371871D02*
X1074289Y0369736D01*
X1071086Y0367561D02*
X1077492Y0367561D01*
X1077492Y0363290D02*
X1071086Y0363290D01*
X1073221Y0365426D01*
X1071086Y0367561D01*
X1071086Y0361129D02*
X1071086Y0358993D01*
X1071086Y0360061D02*
X1077492Y0360061D01*
X1077492Y0358993D02*
X1077492Y0361129D01*
X1076424Y0356818D02*
X1072154Y0356818D01*
X1071086Y0355751D01*
X1071086Y0352548D01*
X1077492Y0352548D01*
X1077492Y0355751D01*
X1076424Y0356818D01*
X1076424Y0343927D02*
X1072154Y0343927D01*
X1071086Y0342860D01*
X1071086Y0339657D01*
X1077492Y0339657D01*
X1077492Y0342860D01*
X1076424Y0343927D01*
X1077492Y0337482D02*
X1075357Y0335347D01*
X1075357Y0336414D02*
X1075357Y0333211D01*
X1077492Y0333211D02*
X1071086Y0333211D01*
X1071086Y0336414D01*
X1072154Y0337482D01*
X1074289Y0337482D01*
X1075357Y0336414D01*
X1074289Y0331036D02*
X1074289Y0326766D01*
X1073221Y0326766D02*
X1071086Y0328901D01*
X1073221Y0331036D01*
X1077492Y0331036D01*
X1077492Y0326766D02*
X1073221Y0326766D01*
X1072154Y0324591D02*
X1071086Y0323523D01*
X1071086Y0321388D01*
X1072154Y0320320D01*
X1076424Y0320320D01*
X1077492Y0321388D01*
X1077492Y0323523D01*
X1076424Y0324591D01*
X1072154Y0324591D01*
X1072154Y0318145D02*
X1073221Y0318145D01*
X1074289Y0317078D01*
X1074289Y0313875D01*
X1074289Y0317078D02*
X1075357Y0318145D01*
X1076424Y0318145D01*
X1077492Y0317078D01*
X1077492Y0313875D01*
X1071086Y0313875D01*
X1071086Y0317078D01*
X1072154Y0318145D01*
X1072154Y0305254D02*
X1074289Y0305254D01*
X1075357Y0304187D01*
X1075357Y0300984D01*
X1077492Y0300984D02*
X1071086Y0300984D01*
X1071086Y0304187D01*
X1072154Y0305254D01*
X1075357Y0303119D02*
X1077492Y0305254D01*
X1076424Y0298809D02*
X1072154Y0298809D01*
X1071086Y0297741D01*
X1071086Y0295606D01*
X1072154Y0294538D01*
X1076424Y0294538D01*
X1077492Y0295606D01*
X1077492Y0297741D01*
X1076424Y0298809D01*
X1071086Y0292363D02*
X1071086Y0288093D01*
X1071086Y0290228D02*
X1077492Y0290228D01*
X1076424Y0285918D02*
X1072154Y0285918D01*
X1071086Y0284850D01*
X1071086Y0282715D01*
X1072154Y0281647D01*
X1076424Y0281647D01*
X1077492Y0282715D01*
X1077492Y0284850D01*
X1076424Y0285918D01*
X1077492Y0279472D02*
X1071086Y0279472D01*
X1073221Y0277337D01*
X1071086Y0275202D01*
X1077492Y0275202D01*
D12*
X0916835Y0143461D03*
X0909748Y0143461D03*
X0906835Y0104711D03*
X0906835Y0098461D03*
X0906835Y0092211D03*
X0899748Y0092211D03*
X0899748Y0098461D03*
X0899748Y0104711D03*
X0899748Y0078461D03*
X0906835Y0078461D03*
X0906835Y0288461D03*
X0899748Y0288461D03*
X0899748Y0295961D03*
X0906835Y0295961D03*
X0711835Y0215961D03*
X0704748Y0215961D03*
X0704335Y0208461D03*
X0697248Y0208461D03*
X0405814Y0181471D03*
X0398727Y0181471D03*
X0398535Y0211886D03*
X0391448Y0211886D03*
X0391448Y0219386D03*
X0398535Y0219386D03*
X0398535Y0226886D03*
X0391448Y0226886D03*
X0391448Y0234386D03*
X0398535Y0234386D03*
X0331035Y0206261D03*
X0323948Y0206261D03*
X0323948Y0198136D03*
X0331035Y0198136D03*
X0320827Y0187840D03*
X0313740Y0187840D03*
X0260814Y0181471D03*
X0253727Y0181471D03*
X0253535Y0211886D03*
X0246448Y0211886D03*
X0246448Y0219386D03*
X0253535Y0219386D03*
X0253535Y0226886D03*
X0246448Y0226886D03*
X0246448Y0234386D03*
X0253535Y0234386D03*
X0186035Y0206261D03*
X0178948Y0206261D03*
X0178948Y0198136D03*
X0186035Y0198136D03*
X0175827Y0187840D03*
X0168740Y0187840D03*
X0117064Y0181471D03*
X0109977Y0181471D03*
X0109785Y0211886D03*
X0102698Y0211886D03*
X0102698Y0219386D03*
X0109785Y0219386D03*
X0109785Y0226886D03*
X0102698Y0226886D03*
X0102698Y0234386D03*
X0109785Y0234386D03*
X0042285Y0206261D03*
X0035198Y0206261D03*
X0035198Y0198136D03*
X0042285Y0198136D03*
X0032077Y0187840D03*
X0024990Y0187840D03*
X0037698Y0341886D03*
X0044785Y0341886D03*
X0044785Y0351886D03*
X0037698Y0351886D03*
X0037698Y0360636D03*
X0044785Y0360636D03*
X0032077Y0436590D03*
X0024990Y0436590D03*
X0035198Y0446886D03*
X0042285Y0446886D03*
X0042285Y0455011D03*
X0035198Y0455011D03*
X0102698Y0460636D03*
X0109785Y0460636D03*
X0109785Y0468136D03*
X0102698Y0468136D03*
X0102698Y0475636D03*
X0109785Y0475636D03*
X0109785Y0483136D03*
X0102698Y0483136D03*
X0109977Y0430221D03*
X0117064Y0430221D03*
X0168740Y0436590D03*
X0175827Y0436590D03*
X0178948Y0446886D03*
X0186035Y0446886D03*
X0186035Y0455011D03*
X0178948Y0455011D03*
X0246448Y0460636D03*
X0253535Y0460636D03*
X0253535Y0468136D03*
X0246448Y0468136D03*
X0246448Y0475636D03*
X0253535Y0475636D03*
X0253535Y0483136D03*
X0246448Y0483136D03*
X0253727Y0430221D03*
X0260814Y0430221D03*
X0313740Y0436590D03*
X0320827Y0436590D03*
X0323948Y0446886D03*
X0331035Y0446886D03*
X0331035Y0455011D03*
X0323948Y0455011D03*
X0391448Y0460636D03*
X0398535Y0460636D03*
X0398535Y0468136D03*
X0391448Y0468136D03*
X0391448Y0475636D03*
X0398535Y0475636D03*
X0398535Y0483136D03*
X0391448Y0483136D03*
X0398727Y0430221D03*
X0405814Y0430221D03*
X0333535Y0360636D03*
X0326448Y0360636D03*
X0326448Y0351886D03*
X0333535Y0351886D03*
X0333535Y0341886D03*
X0326448Y0341886D03*
X0188535Y0341886D03*
X0181448Y0341886D03*
X0181448Y0351886D03*
X0188535Y0351886D03*
X0188535Y0360636D03*
X0181448Y0360636D03*
X0181448Y0590636D03*
X0188535Y0590636D03*
X0188535Y0600636D03*
X0181448Y0600636D03*
X0181448Y0609386D03*
X0188535Y0609386D03*
X0253727Y0678971D03*
X0260814Y0678971D03*
X0253535Y0709386D03*
X0246448Y0709386D03*
X0246448Y0716886D03*
X0253535Y0716886D03*
X0253535Y0724386D03*
X0246448Y0724386D03*
X0246448Y0731886D03*
X0253535Y0731886D03*
X0186035Y0703761D03*
X0178948Y0703761D03*
X0178948Y0695636D03*
X0186035Y0695636D03*
X0175827Y0685340D03*
X0168740Y0685340D03*
X0117064Y0678971D03*
X0109977Y0678971D03*
X0109785Y0709386D03*
X0102698Y0709386D03*
X0102698Y0716886D03*
X0109785Y0716886D03*
X0109785Y0724386D03*
X0102698Y0724386D03*
X0102698Y0731886D03*
X0109785Y0731886D03*
X0042285Y0703761D03*
X0035198Y0703761D03*
X0035198Y0695636D03*
X0042285Y0695636D03*
X0032077Y0685340D03*
X0024990Y0685340D03*
X0037698Y0609386D03*
X0044785Y0609386D03*
X0044785Y0600636D03*
X0037698Y0600636D03*
X0037698Y0590636D03*
X0044785Y0590636D03*
X0044785Y0839386D03*
X0037698Y0839386D03*
X0037698Y0849386D03*
X0044785Y0849386D03*
X0044785Y0858136D03*
X0037698Y0858136D03*
X0071498Y0923461D03*
X0078585Y0923461D03*
X0076085Y0940961D03*
X0068998Y0940961D03*
X0068998Y0948461D03*
X0076085Y0948461D03*
X0073585Y0965961D03*
X0066498Y0965961D03*
X0066498Y0975961D03*
X0073585Y0975961D03*
X0072960Y0983461D03*
X0065873Y0983461D03*
X0065873Y0990961D03*
X0072960Y0990961D03*
X0086474Y0974968D03*
X0093561Y0974968D03*
X0093585Y0983461D03*
X0093585Y0989086D03*
X0086498Y0989086D03*
X0086498Y0983461D03*
X0086498Y0965211D03*
X0093585Y0965211D03*
X0096498Y0922836D03*
X0103585Y0922836D03*
X0122123Y0925961D03*
X0129210Y0925961D03*
X0133998Y0925961D03*
X0141085Y0925961D03*
X0193998Y0965961D03*
X0201085Y0965961D03*
X0201085Y0975961D03*
X0193998Y0975961D03*
X0193373Y0983461D03*
X0200460Y0983461D03*
X0200460Y0990961D03*
X0193373Y0990961D03*
X0213998Y0989086D03*
X0213998Y0983461D03*
X0221085Y0983461D03*
X0221085Y0989086D03*
X0221061Y0974968D03*
X0213974Y0974968D03*
X0213998Y0965211D03*
X0221085Y0965211D03*
X0203585Y0948461D03*
X0196498Y0948461D03*
X0196498Y0940961D03*
X0203585Y0940961D03*
X0206085Y0923461D03*
X0198998Y0923461D03*
X0223998Y0922836D03*
X0231085Y0922836D03*
X0249623Y0925961D03*
X0256710Y0925961D03*
X0261498Y0925961D03*
X0268585Y0925961D03*
X0323998Y0965961D03*
X0331085Y0965961D03*
X0331085Y0975961D03*
X0323998Y0975961D03*
X0323373Y0983461D03*
X0330460Y0983461D03*
X0330460Y0990961D03*
X0323373Y0990961D03*
X0343998Y0989086D03*
X0343998Y0983461D03*
X0351085Y0983461D03*
X0351085Y0989086D03*
X0351061Y0974968D03*
X0343974Y0974968D03*
X0343998Y0965211D03*
X0351085Y0965211D03*
X0333585Y0948461D03*
X0326498Y0948461D03*
X0326498Y0940961D03*
X0333585Y0940961D03*
X0336085Y0923461D03*
X0328998Y0923461D03*
X0353998Y0922836D03*
X0361085Y0922836D03*
X0379623Y0925961D03*
X0386710Y0925961D03*
X0391498Y0925961D03*
X0398585Y0925961D03*
X0333535Y0858136D03*
X0326448Y0858136D03*
X0326448Y0849386D03*
X0333535Y0849386D03*
X0333535Y0839386D03*
X0326448Y0839386D03*
X0391448Y0731886D03*
X0398535Y0731886D03*
X0398535Y0724386D03*
X0391448Y0724386D03*
X0391448Y0716886D03*
X0398535Y0716886D03*
X0398535Y0709386D03*
X0391448Y0709386D03*
X0398727Y0678971D03*
X0405814Y0678971D03*
X0331035Y0695636D03*
X0323948Y0695636D03*
X0323948Y0703761D03*
X0331035Y0703761D03*
X0320827Y0685340D03*
X0313740Y0685340D03*
X0326448Y0609386D03*
X0333535Y0609386D03*
X0333535Y0600636D03*
X0326448Y0600636D03*
X0326448Y0590636D03*
X0333535Y0590636D03*
X0188535Y0839386D03*
X0181448Y0839386D03*
X0181448Y0849386D03*
X0188535Y0849386D03*
X0188535Y0858136D03*
X0181448Y0858136D03*
X0594498Y0896211D03*
X0601585Y0896211D03*
X0601585Y0903711D03*
X0594498Y0903711D03*
X0591585Y1048711D03*
X0584498Y1048711D03*
X0594498Y1087461D03*
X0594498Y1093711D03*
X0594498Y1099961D03*
X0601585Y1099961D03*
X0601585Y1093711D03*
X0601585Y1087461D03*
X0601585Y1113711D03*
X0594498Y1113711D03*
X0789498Y0976211D03*
X0796585Y0976211D03*
X0796998Y0983711D03*
X0804085Y0983711D03*
D13*
X0793042Y0998711D03*
X0725542Y0988711D03*
X0725542Y0973711D03*
X0688042Y0963711D03*
X0685542Y0978711D03*
X0675542Y1026211D03*
X0618042Y0946211D03*
X0679292Y0826211D03*
X0679292Y0806211D03*
X0680542Y0786211D03*
X0595542Y0623711D03*
X0595542Y0611211D03*
X0612294Y0621211D03*
X0620168Y0621211D03*
X0628042Y0621211D03*
X0635916Y0621211D03*
X0820792Y0405961D03*
X0822042Y0385961D03*
X0822042Y0365961D03*
X0883292Y0245961D03*
X0813292Y0228461D03*
X0815792Y0213461D03*
X0775792Y0218461D03*
X0775792Y0203461D03*
X0825792Y0165961D03*
X0708292Y0193461D03*
X0595792Y0090961D03*
X0430279Y0090948D03*
X0386757Y0089862D03*
X0357467Y0090636D03*
X0365617Y0330636D03*
X0366390Y0359926D03*
X0365304Y0403448D03*
X0220304Y0403448D03*
X0221390Y0359926D03*
X0220617Y0330636D03*
X0076867Y0330636D03*
X0077640Y0359926D03*
X0076554Y0403448D03*
X0076867Y0579386D03*
X0077640Y0608676D03*
X0076554Y0652198D03*
X0220304Y0652198D03*
X0221390Y0608676D03*
X0220617Y0579386D03*
X0365617Y0579386D03*
X0366390Y0608676D03*
X0365304Y0652198D03*
X0365617Y0828136D03*
X0366390Y0857426D03*
X0365304Y0900948D03*
X0480542Y0936211D03*
X0505542Y1061211D03*
X0430042Y1075961D03*
X0430042Y1085961D03*
X0430042Y1095961D03*
X0300042Y1095961D03*
X0300042Y1085961D03*
X0300042Y1075961D03*
X0172542Y1075961D03*
X0172542Y1085961D03*
X0172542Y1095961D03*
X0220304Y0900948D03*
X0221390Y0857426D03*
X0220617Y0828136D03*
X0076867Y0828136D03*
X0077640Y0857426D03*
X0076554Y0900948D03*
X0865418Y0570961D03*
X0873292Y0570961D03*
X0881166Y0570961D03*
X0889040Y0570961D03*
X0905792Y0568461D03*
X0905792Y0580961D03*
X1020792Y0255961D03*
X0995792Y0130961D03*
X0905542Y1101211D03*
D14*
X0320395Y0825889D03*
X0316655Y0817621D03*
X0324135Y0817621D03*
X0179135Y0817621D03*
X0171655Y0817621D03*
X0175395Y0825889D03*
X0035385Y0817621D03*
X0027905Y0817621D03*
X0031645Y0825889D03*
X0031645Y0577139D03*
X0027905Y0568871D03*
X0035385Y0568871D03*
X0171655Y0568871D03*
X0179135Y0568871D03*
X0175395Y0577139D03*
X0316655Y0568871D03*
X0324135Y0568871D03*
X0320395Y0577139D03*
X0320395Y0328389D03*
X0316655Y0320121D03*
X0324135Y0320121D03*
X0179135Y0320121D03*
X0171655Y0320121D03*
X0175395Y0328389D03*
X0035385Y0320121D03*
X0027905Y0320121D03*
X0031645Y0328389D03*
D15*
X0059692Y0325011D03*
X0059692Y0335011D03*
X0059692Y0345011D03*
X0059692Y0355011D03*
X0059692Y0365011D03*
X0059692Y0375011D03*
X0059692Y0385011D03*
X0087792Y0385011D03*
X0087792Y0375011D03*
X0087792Y0365011D03*
X0087792Y0355011D03*
X0087792Y0345011D03*
X0087792Y0335011D03*
X0087792Y0325011D03*
X0087792Y0315011D03*
X0087792Y0305011D03*
X0087792Y0295011D03*
X0087792Y0285011D03*
X0087792Y0275011D03*
X0087792Y0265011D03*
X0087792Y0255011D03*
X0087792Y0245011D03*
X0087792Y0235011D03*
X0087792Y0225011D03*
X0087792Y0215011D03*
X0087792Y0205011D03*
X0087792Y0195011D03*
X0059692Y0195011D03*
X0059692Y0205011D03*
X0059692Y0215011D03*
X0059692Y0225011D03*
X0059692Y0235011D03*
X0059692Y0245011D03*
X0059692Y0255011D03*
X0059692Y0265011D03*
X0059692Y0275011D03*
X0059692Y0285011D03*
X0059692Y0295011D03*
X0059692Y0305011D03*
X0059692Y0315011D03*
X0059692Y0443761D03*
X0059692Y0453761D03*
X0059692Y0463761D03*
X0059692Y0473761D03*
X0059692Y0483761D03*
X0059692Y0493761D03*
X0059692Y0503761D03*
X0059692Y0513761D03*
X0059692Y0523761D03*
X0059692Y0533761D03*
X0059692Y0543761D03*
X0059692Y0553761D03*
X0059692Y0563761D03*
X0059692Y0573761D03*
X0059692Y0583761D03*
X0059692Y0593761D03*
X0059692Y0603761D03*
X0059692Y0613761D03*
X0059692Y0623761D03*
X0059692Y0633761D03*
X0087792Y0633761D03*
X0087792Y0623761D03*
X0087792Y0613761D03*
X0087792Y0603761D03*
X0087792Y0593761D03*
X0087792Y0583761D03*
X0087792Y0573761D03*
X0087792Y0563761D03*
X0087792Y0553761D03*
X0087792Y0543761D03*
X0087792Y0533761D03*
X0087792Y0523761D03*
X0087792Y0513761D03*
X0087792Y0503761D03*
X0087792Y0493761D03*
X0087792Y0483761D03*
X0087792Y0473761D03*
X0087792Y0463761D03*
X0087792Y0453761D03*
X0087792Y0443761D03*
X0203442Y0443761D03*
X0203442Y0453761D03*
X0203442Y0463761D03*
X0203442Y0473761D03*
X0203442Y0483761D03*
X0203442Y0493761D03*
X0203442Y0503761D03*
X0203442Y0513761D03*
X0203442Y0523761D03*
X0203442Y0533761D03*
X0203442Y0543761D03*
X0203442Y0553761D03*
X0203442Y0563761D03*
X0203442Y0573761D03*
X0203442Y0583761D03*
X0203442Y0593761D03*
X0203442Y0603761D03*
X0203442Y0613761D03*
X0203442Y0623761D03*
X0203442Y0633761D03*
X0231542Y0633761D03*
X0231542Y0623761D03*
X0231542Y0613761D03*
X0231542Y0603761D03*
X0231542Y0593761D03*
X0231542Y0583761D03*
X0231542Y0573761D03*
X0231542Y0563761D03*
X0231542Y0553761D03*
X0231542Y0543761D03*
X0231542Y0533761D03*
X0231542Y0523761D03*
X0231542Y0513761D03*
X0231542Y0503761D03*
X0231542Y0493761D03*
X0231542Y0483761D03*
X0231542Y0473761D03*
X0231542Y0463761D03*
X0231542Y0453761D03*
X0231542Y0443761D03*
X0231542Y0385011D03*
X0231542Y0375011D03*
X0231542Y0365011D03*
X0231542Y0355011D03*
X0231542Y0345011D03*
X0231542Y0335011D03*
X0231542Y0325011D03*
X0231542Y0315011D03*
X0231542Y0305011D03*
X0231542Y0295011D03*
X0231542Y0285011D03*
X0231542Y0275011D03*
X0231542Y0265011D03*
X0231542Y0255011D03*
X0231542Y0245011D03*
X0231542Y0235011D03*
X0231542Y0225011D03*
X0231542Y0215011D03*
X0231542Y0205011D03*
X0231542Y0195011D03*
X0203442Y0195011D03*
X0203442Y0205011D03*
X0203442Y0215011D03*
X0203442Y0225011D03*
X0203442Y0235011D03*
X0203442Y0245011D03*
X0203442Y0255011D03*
X0203442Y0265011D03*
X0203442Y0275011D03*
X0203442Y0285011D03*
X0203442Y0295011D03*
X0203442Y0305011D03*
X0203442Y0315011D03*
X0203442Y0325011D03*
X0203442Y0335011D03*
X0203442Y0345011D03*
X0203442Y0355011D03*
X0203442Y0365011D03*
X0203442Y0375011D03*
X0203442Y0385011D03*
X0348442Y0385011D03*
X0348442Y0375011D03*
X0348442Y0365011D03*
X0348442Y0355011D03*
X0348442Y0345011D03*
X0348442Y0335011D03*
X0348442Y0325011D03*
X0348442Y0315011D03*
X0348442Y0305011D03*
X0348442Y0295011D03*
X0348442Y0285011D03*
X0348442Y0275011D03*
X0348442Y0265011D03*
X0348442Y0255011D03*
X0348442Y0245011D03*
X0348442Y0235011D03*
X0348442Y0225011D03*
X0348442Y0215011D03*
X0348442Y0205011D03*
X0348442Y0195011D03*
X0376542Y0195011D03*
X0376542Y0205011D03*
X0376542Y0215011D03*
X0376542Y0225011D03*
X0376542Y0235011D03*
X0376542Y0245011D03*
X0376542Y0255011D03*
X0376542Y0265011D03*
X0376542Y0275011D03*
X0376542Y0285011D03*
X0376542Y0295011D03*
X0376542Y0305011D03*
X0376542Y0315011D03*
X0376542Y0325011D03*
X0376542Y0335011D03*
X0376542Y0345011D03*
X0376542Y0355011D03*
X0376542Y0365011D03*
X0376542Y0375011D03*
X0376542Y0385011D03*
X0376542Y0443761D03*
X0376542Y0453761D03*
X0376542Y0463761D03*
X0376542Y0473761D03*
X0376542Y0483761D03*
X0376542Y0493761D03*
X0376542Y0503761D03*
X0376542Y0513761D03*
X0376542Y0523761D03*
X0376542Y0533761D03*
X0376542Y0543761D03*
X0376542Y0553761D03*
X0376542Y0563761D03*
X0376542Y0573761D03*
X0376542Y0583761D03*
X0376542Y0593761D03*
X0376542Y0603761D03*
X0376542Y0613761D03*
X0376542Y0623761D03*
X0376542Y0633761D03*
X0348442Y0633761D03*
X0348442Y0623761D03*
X0348442Y0613761D03*
X0348442Y0603761D03*
X0348442Y0593761D03*
X0348442Y0583761D03*
X0348442Y0573761D03*
X0348442Y0563761D03*
X0348442Y0553761D03*
X0348442Y0543761D03*
X0348442Y0533761D03*
X0348442Y0523761D03*
X0348442Y0513761D03*
X0348442Y0503761D03*
X0348442Y0493761D03*
X0348442Y0483761D03*
X0348442Y0473761D03*
X0348442Y0463761D03*
X0348442Y0453761D03*
X0348442Y0443761D03*
X0348442Y0692511D03*
X0348442Y0702511D03*
X0348442Y0712511D03*
X0348442Y0722511D03*
X0348442Y0732511D03*
X0348442Y0742511D03*
X0348442Y0752511D03*
X0348442Y0762511D03*
X0348442Y0772511D03*
X0348442Y0782511D03*
X0348442Y0792511D03*
X0348442Y0802511D03*
X0348442Y0812511D03*
X0348442Y0822511D03*
X0348442Y0832511D03*
X0348442Y0842511D03*
X0348442Y0852511D03*
X0348442Y0862511D03*
X0348442Y0872511D03*
X0348442Y0882511D03*
X0376542Y0882511D03*
X0376542Y0872511D03*
X0376542Y0862511D03*
X0376542Y0852511D03*
X0376542Y0842511D03*
X0376542Y0832511D03*
X0376542Y0822511D03*
X0376542Y0812511D03*
X0376542Y0802511D03*
X0376542Y0792511D03*
X0376542Y0782511D03*
X0376542Y0772511D03*
X0376542Y0762511D03*
X0376542Y0752511D03*
X0376542Y0742511D03*
X0376542Y0732511D03*
X0376542Y0722511D03*
X0376542Y0712511D03*
X0376542Y0702511D03*
X0376542Y0692511D03*
X0231542Y0692511D03*
X0231542Y0702511D03*
X0231542Y0712511D03*
X0231542Y0722511D03*
X0231542Y0732511D03*
X0231542Y0742511D03*
X0231542Y0752511D03*
X0231542Y0762511D03*
X0231542Y0772511D03*
X0231542Y0782511D03*
X0231542Y0792511D03*
X0231542Y0802511D03*
X0231542Y0812511D03*
X0231542Y0822511D03*
X0231542Y0832511D03*
X0231542Y0842511D03*
X0231542Y0852511D03*
X0231542Y0862511D03*
X0231542Y0872511D03*
X0231542Y0882511D03*
X0203442Y0882511D03*
X0203442Y0872511D03*
X0203442Y0862511D03*
X0203442Y0852511D03*
X0203442Y0842511D03*
X0203442Y0832511D03*
X0203442Y0822511D03*
X0203442Y0812511D03*
X0203442Y0802511D03*
X0203442Y0792511D03*
X0203442Y0782511D03*
X0203442Y0772511D03*
X0203442Y0762511D03*
X0203442Y0752511D03*
X0203442Y0742511D03*
X0203442Y0732511D03*
X0203442Y0722511D03*
X0203442Y0712511D03*
X0203442Y0702511D03*
X0203442Y0692511D03*
X0087792Y0692511D03*
X0087792Y0702511D03*
X0087792Y0712511D03*
X0087792Y0722511D03*
X0087792Y0732511D03*
X0087792Y0742511D03*
X0087792Y0752511D03*
X0087792Y0762511D03*
X0087792Y0772511D03*
X0087792Y0782511D03*
X0087792Y0792511D03*
X0087792Y0802511D03*
X0087792Y0812511D03*
X0087792Y0822511D03*
X0087792Y0832511D03*
X0087792Y0842511D03*
X0087792Y0852511D03*
X0087792Y0862511D03*
X0087792Y0872511D03*
X0087792Y0882511D03*
X0059692Y0882511D03*
X0059692Y0872511D03*
X0059692Y0862511D03*
X0059692Y0852511D03*
X0059692Y0842511D03*
X0059692Y0832511D03*
X0059692Y0822511D03*
X0059692Y0812511D03*
X0059692Y0802511D03*
X0059692Y0792511D03*
X0059692Y0782511D03*
X0059692Y0772511D03*
X0059692Y0762511D03*
X0059692Y0752511D03*
X0059692Y0742511D03*
X0059692Y0732511D03*
X0059692Y0722511D03*
X0059692Y0712511D03*
X0059692Y0702511D03*
X0059692Y0692511D03*
X0105992Y0935961D03*
X0105992Y0945961D03*
X0105992Y0955961D03*
X0105992Y0965961D03*
X0105992Y0975961D03*
X0105992Y0985961D03*
X0105992Y0995961D03*
X0105992Y1005961D03*
X0105992Y1015961D03*
X0105992Y1025961D03*
X0105992Y1035961D03*
X0105992Y1045961D03*
X0105992Y1055961D03*
X0105992Y1065961D03*
X0105992Y1075961D03*
X0105992Y1085961D03*
X0105992Y1095961D03*
X0105992Y1105961D03*
X0105992Y1115961D03*
X0105992Y1125961D03*
X0134092Y1125961D03*
X0134092Y1115961D03*
X0134092Y1105961D03*
X0134092Y1095961D03*
X0134092Y1085961D03*
X0134092Y1075961D03*
X0134092Y1065961D03*
X0134092Y1055961D03*
X0134092Y1045961D03*
X0134092Y1035961D03*
X0134092Y1025961D03*
X0134092Y1015961D03*
X0134092Y1005961D03*
X0134092Y0995961D03*
X0134092Y0985961D03*
X0134092Y0975961D03*
X0134092Y0965961D03*
X0134092Y0955961D03*
X0134092Y0945961D03*
X0134092Y0935961D03*
X0233492Y0935961D03*
X0233492Y0945961D03*
X0233492Y0955961D03*
X0233492Y0965961D03*
X0233492Y0975961D03*
X0233492Y0985961D03*
X0233492Y0995961D03*
X0233492Y1005961D03*
X0233492Y1015961D03*
X0233492Y1025961D03*
X0233492Y1035961D03*
X0233492Y1045961D03*
X0233492Y1055961D03*
X0233492Y1065961D03*
X0233492Y1075961D03*
X0233492Y1085961D03*
X0233492Y1095961D03*
X0233492Y1105961D03*
X0233492Y1115961D03*
X0233492Y1125961D03*
X0261592Y1125961D03*
X0261592Y1115961D03*
X0261592Y1105961D03*
X0261592Y1095961D03*
X0261592Y1085961D03*
X0261592Y1075961D03*
X0261592Y1065961D03*
X0261592Y1055961D03*
X0261592Y1045961D03*
X0261592Y1035961D03*
X0261592Y1025961D03*
X0261592Y1015961D03*
X0261592Y1005961D03*
X0261592Y0995961D03*
X0261592Y0985961D03*
X0261592Y0975961D03*
X0261592Y0965961D03*
X0261592Y0955961D03*
X0261592Y0945961D03*
X0261592Y0935961D03*
X0363492Y0935961D03*
X0363492Y0945961D03*
X0363492Y0955961D03*
X0363492Y0965961D03*
X0363492Y0975961D03*
X0363492Y0985961D03*
X0363492Y0995961D03*
X0363492Y1005961D03*
X0363492Y1015961D03*
X0363492Y1025961D03*
X0363492Y1035961D03*
X0363492Y1045961D03*
X0363492Y1055961D03*
X0363492Y1065961D03*
X0363492Y1075961D03*
X0363492Y1085961D03*
X0363492Y1095961D03*
X0363492Y1105961D03*
X0363492Y1115961D03*
X0363492Y1125961D03*
X0391592Y1125961D03*
X0391592Y1115961D03*
X0391592Y1105961D03*
X0391592Y1095961D03*
X0391592Y1085961D03*
X0391592Y1075961D03*
X0391592Y1065961D03*
X0391592Y1055961D03*
X0391592Y1045961D03*
X0391592Y1035961D03*
X0391592Y1025961D03*
X0391592Y1015961D03*
X0391592Y1005961D03*
X0391592Y0995961D03*
X0391592Y0985961D03*
X0391592Y0975961D03*
X0391592Y0965961D03*
X0391592Y0955961D03*
X0391592Y0945961D03*
X0391592Y0935961D03*
D16*
X0421754Y0833337D03*
X0421754Y0811290D03*
X0276754Y0811290D03*
X0276754Y0833337D03*
X0133004Y0833337D03*
X0133004Y0811290D03*
X0133004Y0584587D03*
X0133004Y0562540D03*
X0276754Y0562540D03*
X0276754Y0584587D03*
X0421754Y0584587D03*
X0421754Y0562540D03*
X0421754Y0335837D03*
X0421754Y0313790D03*
X0276754Y0313790D03*
X0276754Y0335837D03*
X0133004Y0335837D03*
X0133004Y0313790D03*
D17*
X0131867Y0239386D03*
X0121867Y0239386D03*
X0121867Y0229386D03*
X0131867Y0229386D03*
X0131867Y0219386D03*
X0121867Y0219386D03*
X0121867Y0209386D03*
X0131867Y0209386D03*
X0131867Y0199386D03*
X0121867Y0199386D03*
X0265617Y0199386D03*
X0265617Y0209386D03*
X0265617Y0219386D03*
X0265617Y0229386D03*
X0265617Y0239386D03*
X0275617Y0239386D03*
X0275617Y0229386D03*
X0275617Y0219386D03*
X0275617Y0209386D03*
X0275617Y0199386D03*
X0410617Y0199386D03*
X0410617Y0209386D03*
X0410617Y0219386D03*
X0410617Y0229386D03*
X0410617Y0239386D03*
X0420617Y0239386D03*
X0420617Y0229386D03*
X0420617Y0219386D03*
X0420617Y0209386D03*
X0420617Y0199386D03*
X0266217Y0045636D03*
X0256217Y0045636D03*
X0246217Y0045636D03*
X0236217Y0045636D03*
X0226217Y0045636D03*
X0226217Y0035636D03*
X0236217Y0035636D03*
X0246217Y0035636D03*
X0256217Y0035636D03*
X0266217Y0035636D03*
X0265617Y0448136D03*
X0265617Y0458136D03*
X0265617Y0468136D03*
X0265617Y0478136D03*
X0265617Y0488136D03*
X0275617Y0488136D03*
X0275617Y0478136D03*
X0275617Y0468136D03*
X0275617Y0458136D03*
X0275617Y0448136D03*
X0410617Y0448136D03*
X0410617Y0458136D03*
X0410617Y0468136D03*
X0410617Y0478136D03*
X0410617Y0488136D03*
X0420617Y0488136D03*
X0420617Y0478136D03*
X0420617Y0468136D03*
X0420617Y0458136D03*
X0420617Y0448136D03*
X0420617Y0696886D03*
X0420617Y0706886D03*
X0420617Y0716886D03*
X0420617Y0726886D03*
X0420617Y0736886D03*
X0410617Y0736886D03*
X0410617Y0726886D03*
X0410617Y0716886D03*
X0410617Y0706886D03*
X0410617Y0696886D03*
X0275617Y0696886D03*
X0275617Y0706886D03*
X0275617Y0716886D03*
X0275617Y0726886D03*
X0275617Y0736886D03*
X0265617Y0736886D03*
X0265617Y0726886D03*
X0265617Y0716886D03*
X0265617Y0706886D03*
X0265617Y0696886D03*
X0131867Y0696886D03*
X0131867Y0706886D03*
X0131867Y0716886D03*
X0131867Y0726886D03*
X0131867Y0736886D03*
X0121867Y0736886D03*
X0121867Y0726886D03*
X0121867Y0716886D03*
X0121867Y0706886D03*
X0121867Y0696886D03*
X0121867Y0488136D03*
X0131867Y0488136D03*
X0131867Y0478136D03*
X0121867Y0478136D03*
X0121867Y0468136D03*
X0131867Y0468136D03*
X0131867Y0458136D03*
X0121867Y0458136D03*
X0121867Y0448136D03*
X0131867Y0448136D03*
X0152542Y0948461D03*
X0152542Y0958461D03*
X0152542Y0968461D03*
X0152542Y0978461D03*
X0152542Y0988461D03*
X0162542Y0988461D03*
X0162542Y0978461D03*
X0162542Y0968461D03*
X0162542Y0958461D03*
X0162542Y0948461D03*
X0280042Y0948461D03*
X0280042Y0958461D03*
X0280042Y0968461D03*
X0280042Y0978461D03*
X0280042Y0988461D03*
X0290042Y0988461D03*
X0290042Y0978461D03*
X0290042Y0968461D03*
X0290042Y0958461D03*
X0290042Y0948461D03*
X0410042Y0948461D03*
X0410042Y0958461D03*
X0410042Y0968461D03*
X0410042Y0978461D03*
X0410042Y0988461D03*
X0420042Y0988461D03*
X0420042Y0978461D03*
X0420042Y0968461D03*
X0420042Y0958461D03*
X0420042Y0948461D03*
D18*
X0340374Y0942648D03*
X0340374Y0935561D03*
X0210374Y0935561D03*
X0210374Y0942648D03*
X0082874Y0942648D03*
X0082874Y0935561D03*
X0583042Y0997667D03*
X0583042Y1004754D03*
X0598742Y1023967D03*
X0598742Y1031054D03*
X0658042Y0962254D03*
X0658042Y0955167D03*
X0668042Y0955167D03*
X0668042Y0962254D03*
X0600542Y0929754D03*
X0600542Y0922667D03*
X0765542Y1017667D03*
X0765542Y1024754D03*
X0803042Y1017254D03*
X0803042Y1010167D03*
X0835542Y1022667D03*
X0835542Y1029754D03*
X0835542Y1037667D03*
X0835542Y1044754D03*
X0923042Y1045167D03*
X0923042Y1052254D03*
X0638042Y0637254D03*
X0638042Y0630167D03*
X0620542Y0630167D03*
X0620542Y0637254D03*
X0610542Y0637254D03*
X0610542Y0630167D03*
X0863292Y0562004D03*
X0863292Y0554917D03*
X0880792Y0554917D03*
X0880792Y0562004D03*
X0890792Y0562004D03*
X0890792Y0554917D03*
X0900792Y0269504D03*
X0900792Y0262417D03*
X0843292Y0237004D03*
X0843292Y0229917D03*
X0833292Y0229917D03*
X0833292Y0237004D03*
X0902592Y0168204D03*
X0902592Y0161117D03*
X0918292Y0187417D03*
X0918292Y0194504D03*
X0735792Y0174504D03*
X0735792Y0167417D03*
X0698292Y0174917D03*
X0698292Y0182004D03*
X0665792Y0169504D03*
X0665792Y0162417D03*
X0665792Y0154504D03*
X0665792Y0147417D03*
X0578292Y0147004D03*
X0578292Y0139917D03*
X0387467Y0129804D03*
X0387467Y0122717D03*
X0378717Y0122717D03*
X0378717Y0129804D03*
X0368717Y0129804D03*
X0368717Y0122717D03*
X0261217Y0064804D03*
X0261217Y0057717D03*
X0253717Y0057717D03*
X0253717Y0064804D03*
X0246217Y0064804D03*
X0246217Y0057717D03*
X0238717Y0057717D03*
X0238717Y0064804D03*
X0208302Y0057525D03*
X0208302Y0050439D03*
X0224967Y0125217D03*
X0224967Y0132304D03*
X0233092Y0132304D03*
X0233092Y0125217D03*
X0214671Y0135425D03*
X0214671Y0142512D03*
D19*
X0346952Y0139597D03*
X0346952Y0132117D03*
X0355220Y0135857D03*
D20*
X0351842Y0107811D03*
X0361842Y0107811D03*
X0371842Y0107811D03*
X0381842Y0107811D03*
X0391842Y0107811D03*
X0401842Y0107811D03*
X0411842Y0107811D03*
X0411842Y0079711D03*
X0401842Y0079711D03*
X0391842Y0079711D03*
X0381842Y0079711D03*
X0371842Y0079711D03*
X0361842Y0079711D03*
X0351842Y0079711D03*
X0341842Y0079711D03*
X0331842Y0079711D03*
X0321842Y0079711D03*
X0311842Y0079711D03*
X0301842Y0079711D03*
X0291842Y0079711D03*
X0281842Y0079711D03*
X0271842Y0079711D03*
X0261842Y0079711D03*
X0251842Y0079711D03*
X0241842Y0079711D03*
X0231842Y0079711D03*
X0221842Y0079711D03*
X0221842Y0107811D03*
X0231842Y0107811D03*
X0241842Y0107811D03*
X0251842Y0107811D03*
X0261842Y0107811D03*
X0271842Y0107811D03*
X0281842Y0107811D03*
X0291842Y0107811D03*
X0301842Y0107811D03*
X0311842Y0107811D03*
X0321842Y0107811D03*
X0331842Y0107811D03*
X0341842Y0107811D03*
D21*
X0340621Y0034498D03*
X0362668Y0034498D03*
D22*
X0533292Y0170961D03*
X0528292Y0225961D03*
X0850792Y0288461D03*
X0930792Y0483461D03*
X0570542Y0708711D03*
X0650542Y0903711D03*
X0968042Y1021211D03*
X0973042Y0966211D03*
X0337542Y1045961D03*
X0207542Y1045961D03*
X0080042Y1045961D03*
D23*
X0593179Y0717766D03*
X0593179Y0699655D03*
X0627904Y0894655D03*
X0627904Y0912766D03*
X0908154Y0492516D03*
X0908154Y0474405D03*
X0873429Y0297516D03*
X0873429Y0279405D03*
D24*
X0801363Y0163461D03*
X0785221Y0163461D03*
X0728863Y0158461D03*
X0712721Y0158461D03*
X0716113Y1028711D03*
X0699971Y1028711D03*
X0772471Y1033711D03*
X0788613Y1033711D03*
D25*
X0511567Y1041053D02*
X0504517Y1041053D01*
X0504517Y1021368D02*
X0511567Y1021368D01*
X0989767Y0170803D02*
X0996817Y0170803D01*
X0996817Y0151118D02*
X0989767Y0151118D01*
D26*
X0857544Y0570961D03*
X0643790Y0621211D03*
D27*
X0606053Y0913711D03*
X0595030Y0913711D03*
X0556053Y1013711D03*
X0556053Y1023711D03*
X0556053Y1033711D03*
X0545030Y1033711D03*
X0545030Y1023711D03*
X0545030Y1013711D03*
X0895280Y0278461D03*
X0906303Y0278461D03*
X0945280Y0178461D03*
X0945280Y0168461D03*
X0945280Y0158461D03*
X0956303Y0158461D03*
X0956303Y0168461D03*
X0956303Y0178461D03*
D28*
X0820870Y0098835D03*
X0679532Y0098835D03*
X0680463Y1093337D03*
X0821802Y1093337D03*
D29*
X0821802Y1133337D03*
X0680463Y1133337D03*
X0679532Y0058835D03*
X0820870Y0058835D03*
D30*
X0704532Y0225842D03*
X0700792Y0225842D03*
X0697052Y0225842D03*
X0697052Y0236079D03*
X0704532Y0236079D03*
X0796802Y0956092D03*
X0804282Y0956092D03*
X0804282Y0966329D03*
X0800542Y0966329D03*
X0796802Y0966329D03*
D31*
X0793160Y1009970D03*
X0793160Y1017451D03*
X0782923Y1017451D03*
X0782923Y1013711D03*
X0782923Y1009970D03*
X0718410Y0182201D03*
X0718410Y0178461D03*
X0718410Y0174720D03*
X0708173Y0174720D03*
X0708173Y0182201D03*
D32*
X0504729Y0159898D03*
X0504729Y0207398D03*
X0574105Y0645148D03*
X0927229Y0547024D03*
X0996605Y0984774D03*
X0996605Y1032274D03*
D33*
X0996605Y1040148D03*
X0996605Y0992648D03*
X0919355Y0547024D03*
X0581979Y0645148D03*
X0504729Y0199524D03*
X0504729Y0152024D03*
D34*
X0555792Y0166211D03*
X0583792Y0166211D03*
X0583792Y0226211D03*
X0555792Y0226211D03*
X0917542Y0965961D03*
X0945542Y0965961D03*
X0945542Y1025961D03*
X0917542Y1025961D03*
D35*
X0818042Y1029281D03*
X0818042Y1013140D03*
X0683292Y0179031D03*
X0683292Y0162890D03*
D36*
X0918292Y0124461D02*
X0918292Y0117461D01*
X0938292Y0117461D02*
X0938292Y0124461D01*
X0921792Y0508461D02*
X0914792Y0508461D01*
X0914792Y0528461D02*
X0921792Y0528461D01*
X0876792Y0525961D02*
X0869792Y0525961D01*
X0869792Y0505961D02*
X0876792Y0505961D01*
X0924542Y0648711D02*
X0931542Y0648711D01*
X0931542Y0668711D02*
X0924542Y0668711D01*
X0916542Y0688711D02*
X0909542Y0688711D01*
X0909542Y0708711D02*
X0916542Y0708711D01*
X0947042Y0708711D02*
X0954042Y0708711D01*
X0954042Y0688711D02*
X0947042Y0688711D01*
X0631542Y0686211D02*
X0624542Y0686211D01*
X0624542Y0666211D02*
X0631542Y0666211D01*
X0586542Y0663711D02*
X0579542Y0663711D01*
X0579542Y0683711D02*
X0586542Y0683711D01*
X0576792Y0543461D02*
X0569792Y0543461D01*
X0569792Y0523461D02*
X0576792Y0523461D01*
X0584792Y0503461D02*
X0591792Y0503461D01*
X0591792Y0483461D02*
X0584792Y0483461D01*
X0554292Y0483461D02*
X0547292Y0483461D01*
X0547292Y0503461D02*
X0554292Y0503461D01*
X0563042Y1067711D02*
X0563042Y1074711D01*
X0583042Y1074711D02*
X0583042Y1067711D01*
D37*
X0346597Y1023323D03*
X0328487Y1023323D03*
X0216597Y1023323D03*
X0198487Y1023323D03*
X0089097Y1023323D03*
X0070987Y1023323D03*
X0519237Y0203323D03*
X0537347Y0203323D03*
X0542347Y0148323D03*
X0524237Y0148323D03*
X0963987Y0988848D03*
X0982097Y0988848D03*
X0977097Y1043848D03*
X0958987Y1043848D03*
D38*
X0938042Y1060711D02*
X0938042Y1066711D01*
X0928042Y1066711D02*
X0928042Y1060711D01*
X0573292Y0131461D02*
X0573292Y0125461D01*
X0563292Y0125461D02*
X0563292Y0131461D01*
D39*
X0983292Y0192461D03*
X0983292Y0210961D03*
X0983292Y0229461D03*
X0518042Y0962711D03*
X0518042Y0981211D03*
X0518042Y0999711D03*
D40*
X0480542Y1007211D03*
X0480542Y0955211D03*
X1020792Y0236961D03*
X1020792Y0184961D03*
D41*
X0860792Y0070961D03*
X0640542Y1121211D03*
D42*
X0650542Y1082211D03*
X0630542Y1082211D03*
X0850792Y0109961D03*
X0870792Y0109961D03*
D43*
X0913429Y0090961D02*
X0918154Y0090961D01*
X0918154Y0080961D02*
X0913429Y0080961D01*
X0913429Y0070961D02*
X0918154Y0070961D01*
X0587904Y1101211D02*
X0583179Y1101211D01*
X0583179Y1111211D02*
X0587904Y1111211D01*
X0587904Y1121211D02*
X0583179Y1121211D01*
D44*
X0582342Y1038411D03*
X0572342Y1038511D03*
X0572342Y1013911D03*
X0582342Y1013911D03*
X0918992Y0178261D03*
X0928992Y0178261D03*
X0928992Y0153661D03*
X0918992Y0153761D03*
D45*
X0968292Y0108461D03*
X0918794Y0058963D03*
X0592789Y0058963D03*
X0543292Y0108461D03*
X0533042Y1083711D03*
X0582539Y1133208D03*
X0908544Y1133208D03*
X0958042Y1083711D03*
D46*
X1012668Y0943396D03*
X1012668Y0939459D03*
X1012668Y0935522D03*
X1012668Y0931585D03*
X1012668Y0927648D03*
X1012668Y0919774D03*
X1012668Y0915837D03*
X1012668Y0911900D03*
X1012668Y0907963D03*
X1012668Y0904026D03*
X1010168Y0843396D03*
X1010168Y0839459D03*
X1010168Y0835522D03*
X1010168Y0831585D03*
X1010168Y0827648D03*
X1010168Y0819774D03*
X1010168Y0815837D03*
X1010168Y0811900D03*
X1010168Y0807963D03*
X1010168Y0804026D03*
X1013668Y0435646D03*
X1013668Y0431709D03*
X1013668Y0427772D03*
X1013668Y0423835D03*
X1013668Y0419898D03*
X1013668Y0412024D03*
X1013668Y0408087D03*
X1013668Y0404150D03*
X1013668Y0400213D03*
X1013668Y0396276D03*
X1012918Y0355646D03*
X1012918Y0351709D03*
X1012918Y0347772D03*
X1012918Y0343835D03*
X1012918Y0339898D03*
X1012918Y0332024D03*
X1012918Y0328087D03*
X1012918Y0324150D03*
X1012918Y0320213D03*
X1012918Y0316276D03*
X0491166Y0348776D03*
X0491166Y0352713D03*
X0491166Y0356650D03*
X0491166Y0360587D03*
X0491166Y0364524D03*
X0491166Y0372398D03*
X0491166Y0376335D03*
X0491166Y0380272D03*
X0491166Y0384209D03*
X0491166Y0388146D03*
X0488666Y0288146D03*
X0488666Y0284209D03*
X0488666Y0280272D03*
X0488666Y0276335D03*
X0488666Y0272398D03*
X0488666Y0264524D03*
X0488666Y0260587D03*
X0488666Y0256650D03*
X0488666Y0252713D03*
X0488666Y0248776D03*
X0487666Y0756526D03*
X0487666Y0760463D03*
X0487666Y0764400D03*
X0487666Y0768337D03*
X0487666Y0772274D03*
X0487666Y0780148D03*
X0487666Y0784085D03*
X0487666Y0788022D03*
X0487666Y0791959D03*
X0487666Y0795896D03*
X0488416Y0836526D03*
X0488416Y0840463D03*
X0488416Y0844400D03*
X0488416Y0848337D03*
X0488416Y0852274D03*
X0488416Y0860148D03*
X0488416Y0864085D03*
X0488416Y0868022D03*
X0488416Y0871959D03*
X0488416Y0875896D03*
D47*
X0488416Y0856211D03*
X0487666Y0776211D03*
X0491166Y0368461D03*
X0488666Y0268461D03*
X1012918Y0335961D03*
X1013668Y0415961D03*
X1010168Y0823711D03*
X1012668Y0923711D03*
D48*
X1023691Y0955207D03*
X1023691Y0892215D03*
X1021191Y0855207D03*
X1021191Y0792215D03*
X1024691Y0447457D03*
X1024691Y0384465D03*
X1023941Y0367457D03*
X1023941Y0304465D03*
X0480142Y0336965D03*
X0477642Y0299957D03*
X0477642Y0236965D03*
X0480142Y0399957D03*
X0476642Y0744715D03*
X0476642Y0807707D03*
X0477392Y0824715D03*
X0477392Y0887707D03*
D49*
X0514237Y0443461D03*
X0514237Y0433461D03*
X0514237Y0423461D03*
X0514237Y0413461D03*
X0987097Y0748711D03*
X0987097Y0758711D03*
X0987097Y0768711D03*
X0987097Y0778711D03*
D50*
X0348167Y1000449D03*
X0348167Y1011472D03*
X0327542Y1011472D03*
X0327542Y1000449D03*
X0218167Y1000449D03*
X0218167Y1011472D03*
X0197542Y1011472D03*
X0197542Y1000449D03*
X0090667Y1000449D03*
X0090667Y1011472D03*
X0070042Y1011472D03*
X0070042Y1000449D03*
D51*
X0076735Y1069720D03*
X0076735Y1077594D03*
X0076735Y1085468D03*
X0076735Y1093342D03*
X0076735Y1101217D03*
X0076735Y1109091D03*
X0076735Y1116965D03*
X0076735Y1124839D03*
X0076735Y1132713D03*
X0076735Y1140587D03*
X0163349Y1140587D03*
X0163349Y1132713D03*
X0163349Y1124839D03*
X0163349Y1116965D03*
X0163349Y1109091D03*
X0163349Y1101217D03*
X0163349Y1093342D03*
X0163349Y1085468D03*
X0163349Y1077594D03*
X0163349Y1069720D03*
X0204235Y1069720D03*
X0204235Y1077594D03*
X0204235Y1085468D03*
X0204235Y1093342D03*
X0204235Y1101217D03*
X0204235Y1109091D03*
X0204235Y1116965D03*
X0204235Y1124839D03*
X0204235Y1132713D03*
X0204235Y1140587D03*
X0290849Y1140587D03*
X0290849Y1132713D03*
X0290849Y1124839D03*
X0290849Y1116965D03*
X0290849Y1109091D03*
X0290849Y1101217D03*
X0290849Y1093342D03*
X0290849Y1085468D03*
X0290849Y1077594D03*
X0290849Y1069720D03*
X0334235Y1069720D03*
X0334235Y1077594D03*
X0334235Y1085468D03*
X0334235Y1093342D03*
X0334235Y1101217D03*
X0334235Y1109091D03*
X0334235Y1116965D03*
X0334235Y1124839D03*
X0334235Y1132713D03*
X0334235Y1140587D03*
X0420849Y1140587D03*
X0420849Y1132713D03*
X0420849Y1124839D03*
X0420849Y1116965D03*
X0420849Y1109091D03*
X0420849Y1101217D03*
X0420849Y1093342D03*
X0420849Y1085468D03*
X0420849Y1077594D03*
X0420849Y1069720D03*
D52*
X0531053Y0996407D03*
X0552417Y0944961D03*
X0588042Y0966211D03*
X0585542Y0981211D03*
X0588042Y0988711D03*
X0610542Y0998711D03*
X0620542Y0988711D03*
X0618042Y1016211D03*
X0613042Y1026211D03*
X0658042Y1033711D03*
X0670542Y1002667D03*
X0658042Y0984648D03*
X0658042Y0973711D03*
X0668042Y0973711D03*
X0651167Y0955273D03*
X0640542Y0951211D03*
X0650542Y0923711D03*
X0675542Y0943711D03*
X0678042Y0906211D03*
X0680854Y0886211D03*
X0677104Y0876211D03*
X0678979Y0866211D03*
X0679292Y0853086D03*
X0679292Y0847461D03*
X0679292Y0841836D03*
X0679292Y0836211D03*
X0663042Y0861211D03*
X0653042Y0886211D03*
X0638042Y0886211D03*
X0615542Y0879648D03*
X0610542Y0876211D03*
X0606167Y0873711D03*
X0602729Y0869961D03*
X0606354Y0866211D03*
X0604604Y0882773D03*
X0613042Y0898711D03*
X0585542Y0918711D03*
X0610542Y0928711D03*
X0553042Y0892148D03*
X0538042Y0854961D03*
X0538042Y0848711D03*
X0538042Y0842461D03*
X0538042Y0836211D03*
X0538042Y0826211D03*
X0538042Y0806211D03*
X0537292Y0793961D03*
X0509042Y0772336D03*
X0497417Y0799961D03*
X0493354Y0884336D03*
X0423604Y0843389D03*
X0395992Y0812261D03*
X0386992Y0812261D03*
X0396867Y0795011D03*
X0416766Y0794830D03*
X0371867Y0797511D03*
X0364992Y0787511D03*
X0334367Y0791886D03*
X0332492Y0800011D03*
X0347947Y0827959D03*
X0323293Y0889997D03*
X0278604Y0843389D03*
X0250992Y0812261D03*
X0241992Y0812261D03*
X0251867Y0795011D03*
X0271766Y0794830D03*
X0279547Y0748625D03*
X0249992Y0696261D03*
X0221206Y0702184D03*
X0214449Y0702629D03*
X0215950Y0694599D03*
X0215791Y0690004D03*
X0219945Y0687961D03*
X0205878Y0687974D03*
X0185617Y0678136D03*
X0178117Y0678136D03*
X0178293Y0641247D03*
X0134854Y0594639D03*
X0107242Y0563511D03*
X0098242Y0563511D03*
X0108117Y0546261D03*
X0128016Y0546080D03*
X0083117Y0548761D03*
X0076242Y0538761D03*
X0045617Y0543136D03*
X0043742Y0551261D03*
X0059197Y0579209D03*
X0034543Y0641247D03*
X0034367Y0678136D03*
X0041867Y0678136D03*
X0062128Y0687974D03*
X0072041Y0690004D03*
X0072200Y0694599D03*
X0076195Y0687961D03*
X0077456Y0702184D03*
X0070699Y0702629D03*
X0106242Y0696261D03*
X0135797Y0748625D03*
X0128016Y0794830D03*
X0108117Y0795011D03*
X0107242Y0812261D03*
X0098242Y0812261D03*
X0083117Y0797511D03*
X0076242Y0787511D03*
X0045617Y0791886D03*
X0043742Y0800011D03*
X0059197Y0827959D03*
X0034543Y0889997D03*
X0113609Y0894946D03*
X0134854Y0843389D03*
X0178293Y0889997D03*
X0202947Y0827959D03*
X0187492Y0800011D03*
X0189367Y0791886D03*
X0219992Y0787511D03*
X0226867Y0797511D03*
X0180617Y0721886D03*
X0180617Y0716261D03*
X0113609Y0646196D03*
X0036867Y0716261D03*
X0036867Y0721886D03*
X0202947Y0579209D03*
X0187492Y0551261D03*
X0189367Y0543136D03*
X0219992Y0538761D03*
X0226867Y0548761D03*
X0241992Y0563511D03*
X0250992Y0563511D03*
X0251867Y0546261D03*
X0271766Y0546080D03*
X0279547Y0499875D03*
X0249992Y0447511D03*
X0221206Y0453434D03*
X0214449Y0453879D03*
X0215950Y0445849D03*
X0215791Y0441254D03*
X0219945Y0439211D03*
X0205878Y0439224D03*
X0185617Y0429386D03*
X0178117Y0429386D03*
X0178293Y0392497D03*
X0134854Y0345889D03*
X0107242Y0314761D03*
X0098242Y0314761D03*
X0108117Y0297511D03*
X0128016Y0297330D03*
X0083117Y0300011D03*
X0076242Y0290011D03*
X0045617Y0294386D03*
X0043742Y0302511D03*
X0059197Y0330459D03*
X0034543Y0392497D03*
X0034367Y0429386D03*
X0041867Y0429386D03*
X0062128Y0439224D03*
X0072041Y0441254D03*
X0072200Y0445849D03*
X0076195Y0439211D03*
X0077456Y0453434D03*
X0070699Y0453879D03*
X0106242Y0447511D03*
X0113609Y0397446D03*
X0180617Y0467511D03*
X0180617Y0473136D03*
X0135797Y0499875D03*
X0036867Y0473136D03*
X0036867Y0467511D03*
X0187492Y0302511D03*
X0189367Y0294386D03*
X0219992Y0290011D03*
X0226867Y0300011D03*
X0241992Y0314761D03*
X0250992Y0314761D03*
X0251867Y0297511D03*
X0271766Y0297330D03*
X0279547Y0251125D03*
X0249992Y0198761D03*
X0221206Y0204684D03*
X0214449Y0205129D03*
X0215950Y0197099D03*
X0215791Y0192504D03*
X0219945Y0190461D03*
X0205878Y0190474D03*
X0185617Y0180636D03*
X0178117Y0180636D03*
X0180617Y0218761D03*
X0180617Y0224386D03*
X0135797Y0251125D03*
X0106242Y0198761D03*
X0077456Y0204684D03*
X0070699Y0205129D03*
X0072200Y0197099D03*
X0072041Y0192504D03*
X0076195Y0190461D03*
X0062128Y0190474D03*
X0041867Y0180636D03*
X0034367Y0180636D03*
X0036867Y0218761D03*
X0036867Y0224386D03*
X0202947Y0330459D03*
X0257359Y0397446D03*
X0278604Y0345889D03*
X0323293Y0392497D03*
X0323117Y0429386D03*
X0330617Y0429386D03*
X0350878Y0439224D03*
X0360791Y0441254D03*
X0360950Y0445849D03*
X0364945Y0439211D03*
X0366206Y0453434D03*
X0359449Y0453879D03*
X0394992Y0447511D03*
X0402359Y0397446D03*
X0423604Y0345889D03*
X0395992Y0314761D03*
X0386992Y0314761D03*
X0371867Y0300011D03*
X0364992Y0290011D03*
X0334367Y0294386D03*
X0332492Y0302511D03*
X0347947Y0330459D03*
X0396867Y0297511D03*
X0416766Y0297330D03*
X0424547Y0251125D03*
X0394992Y0198761D03*
X0366206Y0204684D03*
X0359449Y0205129D03*
X0360950Y0197099D03*
X0360791Y0192504D03*
X0364945Y0190461D03*
X0350878Y0190474D03*
X0330617Y0180636D03*
X0323117Y0180636D03*
X0325617Y0218761D03*
X0325617Y0224386D03*
X0329342Y0123761D03*
X0321217Y0121886D03*
X0316842Y0091261D03*
X0326842Y0084386D03*
X0341592Y0069261D03*
X0341592Y0060261D03*
X0324342Y0059386D03*
X0324161Y0039487D03*
X0277956Y0031706D03*
X0225592Y0061261D03*
X0231515Y0090046D03*
X0231960Y0096803D03*
X0223930Y0095302D03*
X0219335Y0095461D03*
X0217292Y0091307D03*
X0217305Y0105375D03*
X0207467Y0125636D03*
X0207467Y0133136D03*
X0245592Y0130636D03*
X0251217Y0130636D03*
X0357290Y0108305D03*
X0419328Y0132959D03*
X0424277Y0053893D03*
X0372720Y0032649D03*
X0495792Y0218461D03*
X0511729Y0218461D03*
X0503292Y0245961D03*
X0515167Y0250336D03*
X0525792Y0248461D03*
X0495792Y0264086D03*
X0513292Y0310961D03*
X0513292Y0325961D03*
X0525792Y0330961D03*
X0538292Y0325961D03*
X0543292Y0320961D03*
X0540792Y0305961D03*
X0540792Y0295961D03*
X0536104Y0292211D03*
X0565792Y0315961D03*
X0565792Y0325961D03*
X0565792Y0345961D03*
X0542667Y0346586D03*
X0535792Y0345648D03*
X0537667Y0355336D03*
X0539542Y0365961D03*
X0525792Y0350961D03*
X0540792Y0385961D03*
X0540792Y0405961D03*
X0655167Y0345961D03*
X0655167Y0335961D03*
X0680167Y0350961D03*
X0681417Y0356586D03*
X0680792Y0365961D03*
X0680792Y0385961D03*
X0680792Y0405961D03*
X0705792Y0350023D03*
X0684542Y0345961D03*
X0705792Y0327523D03*
X0728292Y0330961D03*
X0733292Y0325961D03*
X0748292Y0325961D03*
X0765792Y0330961D03*
X0765792Y0320961D03*
X0770792Y0343461D03*
X0808292Y0311273D03*
X0820479Y0305961D03*
X0824229Y0315961D03*
X0822354Y0325961D03*
X0822042Y0339086D03*
X0822042Y0344711D03*
X0822042Y0350336D03*
X0822042Y0355961D03*
X0838292Y0330961D03*
X0848292Y0305961D03*
X0863292Y0305961D03*
X0885792Y0312523D03*
X0890792Y0315961D03*
X0895167Y0318461D03*
X0898604Y0322211D03*
X0894979Y0325961D03*
X0896729Y0309398D03*
X0888292Y0293461D03*
X0915792Y0273461D03*
X0890792Y0263461D03*
X0860792Y0240961D03*
X0850167Y0236898D03*
X0843292Y0218461D03*
X0833292Y0218461D03*
X0843292Y0207523D03*
X0830792Y0189504D03*
X0843292Y0158461D03*
X0883292Y0175961D03*
X0888292Y0165961D03*
X0890792Y0193461D03*
X0880792Y0203461D03*
X0913292Y0203461D03*
X0915792Y0210961D03*
X0913292Y0225961D03*
X0948917Y0247211D03*
X0970280Y0195764D03*
X0910792Y0095961D03*
X0907042Y0087211D03*
X0893292Y0090961D03*
X0885792Y0110961D03*
X0858292Y0110961D03*
X0785792Y0175961D03*
X0725792Y0185961D03*
X0708292Y0185961D03*
X0695792Y0200961D03*
X0693292Y0215961D03*
X0675792Y0198461D03*
X0670792Y0180961D03*
X0690792Y0173461D03*
X0658292Y0195961D03*
X0640792Y0195961D03*
X0635792Y0213461D03*
X0620792Y0215961D03*
X0610792Y0215961D03*
X0623292Y0200961D03*
X0618292Y0168461D03*
X0645792Y0158461D03*
X0630792Y0142949D03*
X0553292Y0150961D03*
X0553292Y0203461D03*
X0598292Y0255961D03*
X0645792Y0245961D03*
X0665792Y0228461D03*
X0658292Y0220961D03*
X0680792Y0240961D03*
X0704542Y0245648D03*
X0715792Y0230961D03*
X0743292Y0253461D03*
X0750792Y0253461D03*
X0718292Y0268461D03*
X0713292Y0267836D03*
X0710792Y0280961D03*
X0682042Y0295961D03*
X0683292Y0303461D03*
X0682042Y0316586D03*
X0795167Y0281586D03*
X0823292Y0285961D03*
X0850792Y0268461D03*
X0825792Y0248461D03*
X0948292Y0300023D03*
X0963292Y0337211D03*
X0963292Y0343461D03*
X0963292Y0349711D03*
X0963292Y0355961D03*
X0963292Y0365961D03*
X0963292Y0385961D03*
X0964042Y0398211D03*
X0992292Y0419836D03*
X1003917Y0392211D03*
X1007979Y0307836D03*
X0876417Y0375336D03*
X0865792Y0470961D03*
X0854854Y0474398D03*
X0842354Y0486898D03*
X0825792Y0508461D03*
X0829854Y0521898D03*
X0847042Y0560961D03*
X0836104Y0571898D03*
X0864229Y0549398D03*
X0880792Y0549398D03*
X0888292Y0538461D03*
X0895792Y0543461D03*
X0900792Y0538461D03*
X0900792Y0520336D03*
X0895792Y0508461D03*
X0890792Y0493461D03*
X0895792Y0475961D03*
X0801729Y0561586D03*
X0788292Y0508461D03*
X0778292Y0508461D03*
X0768292Y0508461D03*
X0758292Y0508461D03*
X0758292Y0485961D03*
X0768292Y0485961D03*
X0778292Y0485961D03*
X0788292Y0485961D03*
X0798292Y0485961D03*
X0797979Y0477523D03*
X0748292Y0485961D03*
X0723292Y0508461D03*
X0713292Y0505961D03*
X0700792Y0504711D03*
X0690792Y0505961D03*
X0668292Y0523461D03*
X0663292Y0533461D03*
X0662792Y0560961D03*
X0693292Y0567961D03*
X0703292Y0565961D03*
X0722979Y0561273D03*
X0753292Y0560336D03*
X0748042Y0631836D03*
X0778354Y0630898D03*
X0798042Y0626211D03*
X0808042Y0624211D03*
X0838542Y0631211D03*
X0838042Y0658711D03*
X0833042Y0668711D03*
X0810542Y0686211D03*
X0800542Y0687461D03*
X0788042Y0686211D03*
X0778042Y0683711D03*
X0753042Y0706211D03*
X0743042Y0706211D03*
X0733042Y0706211D03*
X0723042Y0706211D03*
X0713042Y0706211D03*
X0703042Y0706211D03*
X0703354Y0714648D03*
X0713042Y0683711D03*
X0723042Y0683711D03*
X0733042Y0683711D03*
X0743042Y0683711D03*
X0699604Y0630586D03*
X0665229Y0620273D03*
X0654292Y0631211D03*
X0637104Y0642773D03*
X0620542Y0642773D03*
X0613042Y0653711D03*
X0605542Y0648711D03*
X0600542Y0653711D03*
X0600542Y0671836D03*
X0605542Y0683711D03*
X0610542Y0698711D03*
X0605542Y0716211D03*
X0635542Y0721211D03*
X0646479Y0717773D03*
X0658979Y0705273D03*
X0675542Y0683711D03*
X0671479Y0670273D03*
X0624917Y0816836D03*
X0693042Y0880898D03*
X0706167Y0910586D03*
X0735542Y0871211D03*
X0735542Y0861211D03*
X0730542Y0848711D03*
X0753042Y0866211D03*
X0768042Y0866211D03*
X0773042Y0861211D03*
X0795542Y0864648D03*
X0795542Y0842148D03*
X0816792Y0846211D03*
X0821167Y0841211D03*
X0819917Y0835586D03*
X0820542Y0826211D03*
X0820542Y0806211D03*
X0820542Y0786211D03*
X0846167Y0846211D03*
X0846167Y0856211D03*
X0819292Y0875586D03*
X0818042Y0888711D03*
X0819292Y0896211D03*
X0790542Y0911211D03*
X0788042Y0924336D03*
X0783042Y0923711D03*
X0796792Y0946523D03*
X0785542Y0961211D03*
X0808042Y0976211D03*
X0805542Y0991211D03*
X0793042Y1006211D03*
X0775542Y1006211D03*
X0810542Y1018711D03*
X0830542Y1011211D03*
X0843042Y0996211D03*
X0825542Y0993711D03*
X0843042Y0971211D03*
X0835542Y0963711D03*
X0820542Y0951211D03*
X0855542Y0946211D03*
X0865542Y0978711D03*
X0880542Y0976211D03*
X0890542Y0976211D03*
X0878042Y0991211D03*
X0860542Y0996211D03*
X0883042Y1023711D03*
X0870542Y1049222D03*
X0855542Y1033711D03*
X0948042Y1041211D03*
X0948042Y0988711D03*
X0989604Y0973711D03*
X1005542Y0973711D03*
X0998042Y0946211D03*
X0986167Y0941836D03*
X0975542Y0943711D03*
X1005542Y0928086D03*
X0965229Y0899961D03*
X0960542Y0896211D03*
X0960542Y0886211D03*
X0958042Y0871211D03*
X0963042Y0866211D03*
X0975542Y0861211D03*
X0988042Y0866211D03*
X0988042Y0881211D03*
X0965542Y0846523D03*
X0958667Y0845586D03*
X0963667Y0836836D03*
X0961792Y0826211D03*
X0960542Y0806211D03*
X0960542Y0786211D03*
X0975542Y0841211D03*
X0935542Y0846211D03*
X0935542Y0866211D03*
X0935542Y0876211D03*
X0903042Y0936211D03*
X0758042Y0938711D03*
X0750542Y0938711D03*
X0715542Y1016211D03*
X0643042Y1081211D03*
X0615542Y1081211D03*
X0608042Y1101211D03*
X0594292Y1104961D03*
X0590542Y1096211D03*
X0402359Y0894946D03*
X0424547Y0748625D03*
X0394992Y0696261D03*
X0366206Y0702184D03*
X0359449Y0702629D03*
X0360950Y0694599D03*
X0360791Y0690004D03*
X0364945Y0687961D03*
X0350878Y0687974D03*
X0330617Y0678136D03*
X0323117Y0678136D03*
X0323293Y0641247D03*
X0278604Y0594639D03*
X0257359Y0646196D03*
X0325617Y0716261D03*
X0325617Y0721886D03*
X0402359Y0646196D03*
X0423604Y0594639D03*
X0395992Y0563511D03*
X0386992Y0563511D03*
X0396867Y0546261D03*
X0416766Y0546080D03*
X0371867Y0548761D03*
X0364992Y0538761D03*
X0334367Y0543136D03*
X0332492Y0551261D03*
X0347947Y0579209D03*
X0424547Y0499875D03*
X0325617Y0473136D03*
X0325617Y0467511D03*
X0257359Y0894946D03*
D53*
X0321810Y1006213D03*
X0276292Y1050961D03*
X0250542Y1068961D03*
X0191810Y1006213D03*
X0148792Y1050961D03*
X0123042Y1068961D03*
X0064310Y1006213D03*
X0121867Y0678761D03*
X0265617Y0678761D03*
X0410617Y0678761D03*
X0410617Y0430011D03*
X0265617Y0430011D03*
X0121867Y0430011D03*
X0121867Y0181261D03*
X0208092Y0045636D03*
X0265617Y0181261D03*
X0410617Y0181261D03*
X0406292Y1050961D03*
X0380542Y1068961D03*
D54*
X0616642Y0871911D03*
X0646942Y0867311D03*
X0743242Y0850811D03*
X0765842Y0847011D03*
X0735492Y0345161D03*
X0758092Y0341361D03*
X0854392Y0324861D03*
X0884692Y0320261D03*
D55*
X1001446Y0273961D03*
X0977483Y0126662D03*
X0751289Y0021185D03*
X0525095Y0126662D03*
X0491446Y0316461D03*
X0542497Y0525252D03*
X0541254Y0666920D03*
X0499888Y0918211D03*
X0523851Y1065510D03*
X0750045Y1170987D03*
X0976239Y1065510D03*
X1009888Y0875711D03*
X0958837Y0666920D03*
X0960080Y0525252D03*
M02*
