%
M48
M72
T01C0.01181
T02C0.01500
T03C0.01600
T04C0.01969
T05C0.02300
T06C0.02362
T07C0.03150
T08C0.03200
T09C0.03937
T10C0.04000
T11C0.04700
T12C0.05000
T13C0.07874
T14C0.07900
T15C0.12500
%
T01
X1344611Y975972
X1352617Y973550
X1354150Y981154
X1354742Y986675
X1354992Y990675
X1348117Y991300
X1337492Y1000675
X1337492Y1015675
X1348117Y1014425
X1352492Y1013175
X1359885Y1001606
X1369367Y1020675
X1388781Y1022555
X1393117Y1010675
X1411242Y1001300
X1411867Y990675
X1412492Y985675
X1413176Y981300
X1416448Y975701
X1413117Y974425
X1410802Y965646
X1410586Y961223
X1415674Y960225
X1416050Y964482
X1421203Y962768
X1419992Y957550
X1415617Y954425
X1412492Y950050
X1409367Y954425
X1411867Y943175
X1427064Y955603
X1429367Y952550
X1402865Y981348
X1390261Y970885
X1384992Y963800
X1377492Y971300
X1388117Y951925
X1384992Y947550
X1383117Y935050
X1391242Y931925
X1396418Y922067
X1408596Y921618
X1416679Y916925
X1398598Y882531
X1396610Y875341
X1393117Y875050
X1399367Y873175
X1402522Y875367
X1344992Y798487
X1355631Y797012
X1360425Y800132
X1354367Y785675
X1369367Y770675
X1352492Y763175
X1348117Y764425
X1337492Y765675
X1337492Y750675
X1348117Y741300
X1354992Y740675
X1354742Y736675
X1354150Y731154
X1352617Y723550
X1344611Y725972
X1353117Y711925
X1349367Y706300
X1349367Y698800
X1348742Y691925
X1358117Y695188
X1366685Y690706
X1366242Y681300
X1359367Y684425
X1383117Y685050
X1391242Y681925
X1396418Y672067
X1408596Y671618
X1416679Y666925
X1411867Y693175
X1412492Y700050
X1415617Y704425
X1419992Y707550
X1415674Y710225
X1416050Y714482
X1410802Y715646
X1410586Y711223
X1409367Y704425
X1421203Y712768
X1427064Y705603
X1429367Y702550
X1416448Y725701
X1413117Y724425
X1413176Y731300
X1412492Y735675
X1411867Y740675
X1411242Y751300
X1393117Y760675
X1388781Y772555
X1359885Y751606
X1377492Y721300
X1384992Y713800
X1390261Y720885
X1402865Y731348
X1388117Y701925
X1384992Y697550
X1393117Y625050
X1396610Y625341
X1399367Y623175
X1402522Y625367
X1398598Y632531
X1492492Y691925
X1493117Y698800
X1493117Y706300
X1496867Y711925
X1496367Y723550
X1497900Y731154
X1498492Y736675
X1498742Y740675
X1491867Y741300
X1481242Y750675
X1481242Y765675
X1491867Y764425
X1496242Y763175
X1503635Y751606
X1513117Y770675
X1532531Y772555
X1536867Y760675
X1554992Y751300
X1555617Y740675
X1556242Y735675
X1556926Y731300
X1560198Y725701
X1556867Y724425
X1554552Y715646
X1554336Y711223
X1559424Y710225
X1559800Y714482
X1564953Y712768
X1563742Y707550
X1559367Y704425
X1556242Y700050
X1553117Y704425
X1555617Y693175
X1570814Y705603
X1573117Y702550
X1546615Y731348
X1534011Y720885
X1528742Y713800
X1521242Y721300
X1531867Y701925
X1528742Y697550
X1526867Y685050
X1534992Y681925
X1540168Y672067
X1552346Y671618
X1560429Y666925
X1542348Y632531
X1540360Y625341
X1536867Y625050
X1543117Y623175
X1546272Y625367
X1509992Y681300
X1503117Y684425
X1510435Y690706
X1501867Y695188
X1488361Y725972
X1423742Y783175
X1488742Y798487
X1499381Y797012
X1504175Y800132
X1498117Y785675
X1567492Y783175
X1543117Y873175
X1540360Y875341
X1536867Y875050
X1542348Y882531
X1546272Y875367
X1560429Y916925
X1552346Y921618
X1540168Y922067
X1534992Y931925
X1526867Y935050
X1528742Y947550
X1531867Y951925
X1528742Y963800
X1534011Y970885
X1521242Y971300
X1496367Y973550
X1497900Y981154
X1498492Y986675
X1498742Y990675
X1491867Y991300
X1481242Y1000675
X1481242Y1015675
X1491867Y1014425
X1496242Y1013175
X1503635Y1001606
X1513117Y1020675
X1532531Y1022555
X1536867Y1010675
X1554992Y1001300
X1555617Y990675
X1556242Y985675
X1556926Y981300
X1560198Y975701
X1556867Y974425
X1554552Y965646
X1554336Y961223
X1559424Y960225
X1559800Y964482
X1564953Y962768
X1563742Y957550
X1559367Y954425
X1556242Y950050
X1553117Y954425
X1555617Y943175
X1570814Y955603
X1573117Y952550
X1546615Y981348
X1496867Y961925
X1493117Y956300
X1493117Y948800
X1492492Y941925
X1501867Y945188
X1510435Y940706
X1509992Y931300
X1503117Y934425
X1488361Y975972
X1498117Y1035675
X1499381Y1047012
X1504175Y1050132
X1488742Y1048487
X1423742Y1033175
X1360425Y1050132
X1355631Y1047012
X1344992Y1048487
X1354367Y1035675
X1353117Y961925
X1349367Y956300
X1349367Y948800
X1348742Y941925
X1358117Y945188
X1366685Y940706
X1366242Y931300
X1359367Y934425
X1567492Y1033175
X462492Y838175
X473117Y836925
X477492Y835675
X484885Y824106
X479992Y813175
X479742Y809175
X479150Y803654
X477617Y796050
X469611Y798472
X473117Y813800
X462492Y823175
X478117Y784425
X474367Y778800
X474367Y771300
X473742Y764425
X483117Y767688
X491685Y763206
X491242Y753800
X484367Y756925
X508117Y757550
X516242Y754425
X521418Y744567
X533596Y744118
X541679Y739425
X536867Y765675
X537492Y772550
X540617Y776925
X544992Y780050
X540674Y782725
X541050Y786982
X535802Y788146
X535586Y783723
X534367Y776925
X546203Y785268
X552064Y778103
X554367Y775050
X541448Y798201
X538117Y796925
X538176Y803800
X537492Y808175
X536867Y813175
X536242Y823800
X518117Y833175
X513781Y845055
X494367Y843175
X479367Y858175
X480631Y869512
X485425Y872632
X469992Y870987
X402492Y855675
X371867Y833175
X367531Y845055
X348117Y843175
X331242Y835675
X326867Y836925
X316242Y838175
X316242Y823175
X326867Y813800
X333742Y813175
X333492Y809175
X332900Y803654
X331367Y796050
X323361Y798472
X331867Y784425
X328117Y778800
X328117Y771300
X327492Y764425
X336867Y767688
X345435Y763206
X344992Y753800
X338117Y756925
X361867Y757550
X369992Y754425
X375168Y744567
X387346Y744118
X395429Y739425
X390617Y765675
X391242Y772550
X394367Y776925
X398742Y780050
X394424Y782725
X394800Y786982
X389552Y788146
X389336Y783723
X388117Y776925
X399953Y785268
X405814Y778103
X408117Y775050
X395198Y798201
X391867Y796925
X391926Y803800
X391242Y808175
X390617Y813175
X389992Y823800
X381615Y803848
X369011Y793385
X363742Y786300
X356242Y793800
X366867Y774425
X363742Y770050
X338635Y824106
X333117Y858175
X334381Y869512
X339175Y872632
X323742Y870987
X226867Y200050
X230360Y200341
X233117Y198175
X236272Y200367
X232348Y207531
X250429Y241925
X242346Y246618
X230168Y247067
X224992Y256925
X216867Y260050
X218742Y272550
X221867Y276925
X218742Y288800
X224011Y295885
X211242Y296300
X236615Y306348
X246926Y306300
X246242Y310675
X245617Y315675
X244992Y326300
X226867Y335675
X222531Y347555
X203117Y345675
X186242Y338175
X181867Y339425
X171242Y340675
X171242Y325675
X181867Y316300
X188742Y315675
X188492Y311675
X187900Y306154
X186367Y298550
X178361Y300972
X186867Y286925
X183117Y281300
X183117Y273800
X182492Y266925
X191867Y270188
X200435Y265706
X199992Y256300
X193117Y259425
X245617Y268175
X246242Y275050
X249367Y279425
X253742Y282550
X249424Y285225
X249800Y289482
X244552Y290646
X244336Y286223
X243117Y279425
X254953Y287768
X260814Y280603
X263117Y277550
X246867Y299425
X250198Y300701
X193635Y326606
X188117Y360675
X189381Y372012
X194175Y375132
X178742Y373487
X92522Y449117
X89367Y446925
X86610Y449091
X83117Y448800
X88598Y456281
X106679Y490675
X98596Y495368
X86418Y495817
X81242Y505675
X73117Y508800
X74992Y521300
X78117Y525675
X74992Y537550
X80261Y544635
X67492Y545050
X92865Y555098
X103176Y555050
X102492Y559425
X101867Y564425
X101242Y575050
X83117Y584425
X78781Y596305
X59367Y594425
X42492Y586925
X38117Y588175
X27492Y589425
X44367Y609425
X45631Y620762
X50425Y623882
X34992Y622238
X27492Y574425
X38117Y565050
X44992Y564425
X44742Y560425
X44150Y554904
X42617Y547300
X34611Y549722
X43117Y535675
X39367Y530050
X39367Y522550
X38742Y515675
X48117Y518938
X56685Y514456
X56242Y505050
X49367Y508175
X101867Y516925
X102492Y523800
X105617Y528175
X109992Y531300
X105674Y533975
X106050Y538232
X100802Y539396
X100586Y534973
X99367Y528175
X111203Y536518
X117064Y529353
X119367Y526300
X106448Y549451
X103117Y548175
X171242Y589425
X181867Y588175
X186242Y586925
X193635Y575356
X188742Y564425
X188492Y560425
X187900Y554904
X186367Y547300
X178361Y549722
X186867Y535675
X183117Y530050
X183117Y522550
X182492Y515675
X191867Y518938
X200435Y514456
X199992Y505050
X193117Y508175
X216867Y508800
X224992Y505675
X230168Y495817
X242346Y495368
X250429Y490675
X245617Y516925
X246242Y523800
X249367Y528175
X253742Y531300
X249424Y533975
X249800Y538232
X244552Y539396
X244336Y534973
X243117Y528175
X254953Y536518
X260814Y529353
X263117Y526300
X250198Y549451
X246867Y548175
X246926Y555050
X246242Y559425
X245617Y564425
X244992Y575050
X226867Y584425
X222531Y596305
X203117Y594425
X188117Y609425
X189381Y620762
X194175Y623882
X178742Y622238
X171242Y574425
X181867Y565050
X211242Y545050
X218742Y537550
X224011Y544635
X236615Y555098
X221867Y525675
X218742Y521300
X316242Y574425
X326867Y565050
X333742Y564425
X333492Y560425
X332900Y554904
X331367Y547300
X323361Y549722
X331867Y535675
X328117Y530050
X328117Y522550
X327492Y515675
X336867Y518938
X345435Y514456
X344992Y505050
X338117Y508175
X361867Y508800
X369992Y505675
X375168Y495817
X387346Y495368
X395429Y490675
X390617Y516925
X391242Y523800
X394367Y528175
X398742Y531300
X394424Y533975
X394800Y538232
X389552Y539396
X389336Y534973
X388117Y528175
X399953Y536518
X405814Y529353
X408117Y526300
X395198Y549451
X391867Y548175
X391926Y555050
X391242Y559425
X390617Y564425
X389992Y575050
X371867Y584425
X367531Y596305
X348117Y594425
X331242Y586925
X326867Y588175
X316242Y589425
X236272Y697867
X233117Y695675
X230360Y697841
X226867Y697550
X232348Y705031
X250429Y739425
X242346Y744118
X230168Y744567
X224992Y754425
X216867Y757550
X218742Y770050
X221867Y774425
X218742Y786300
X224011Y793385
X211242Y793800
X236615Y803848
X246926Y803800
X246242Y808175
X245617Y813175
X244992Y823800
X226867Y833175
X222531Y845055
X203117Y843175
X186242Y835675
X181867Y836925
X171242Y838175
X171242Y823175
X181867Y813800
X188742Y813175
X188492Y809175
X187900Y803654
X186367Y796050
X178361Y798472
X186867Y784425
X183117Y778800
X183117Y771300
X182492Y764425
X191867Y767688
X200435Y763206
X199992Y753800
X193117Y756925
X245617Y765675
X246242Y772550
X249367Y776925
X253742Y780050
X249424Y782725
X249800Y786982
X244552Y788146
X244336Y783723
X243117Y776925
X254953Y785268
X260814Y778103
X263117Y775050
X250198Y798201
X246867Y796925
X257492Y855675
X194175Y872632
X189381Y869512
X178742Y870987
X188117Y858175
X193635Y824106
X113742Y855675
X83117Y833175
X78781Y845055
X59367Y843175
X42492Y835675
X38117Y836925
X27492Y838175
X27492Y823175
X38117Y813800
X44992Y813175
X44742Y809175
X44150Y803654
X42617Y796050
X34611Y798472
X43117Y784425
X39367Y778800
X39367Y771300
X38742Y764425
X48117Y767688
X56685Y763206
X56242Y753800
X49367Y756925
X73117Y757550
X81242Y754425
X86418Y744567
X98596Y744118
X106679Y739425
X101867Y765675
X102492Y772550
X105617Y776925
X109992Y780050
X105674Y782725
X106050Y786982
X100802Y788146
X100586Y783723
X99367Y776925
X111203Y785268
X117064Y778103
X119367Y775050
X106448Y798201
X103117Y796925
X103176Y803800
X102492Y808175
X101867Y813175
X101242Y823800
X92865Y803848
X80261Y793385
X74992Y786300
X67492Y793800
X78117Y774425
X74992Y770050
X49885Y824106
X44367Y858175
X45631Y869512
X50425Y872632
X34992Y870987
X88598Y705031
X86610Y697841
X83117Y697550
X89367Y695675
X92522Y697867
X113742Y606925
X49885Y575356
X226867Y448800
X230360Y449091
X233117Y446925
X236272Y449117
X232348Y456281
X323742Y373487
X334381Y372012
X339175Y375132
X333117Y360675
X348117Y345675
X331242Y338175
X326867Y339425
X316242Y340675
X316242Y325675
X326867Y316300
X333742Y315675
X333492Y311675
X332900Y306154
X331367Y298550
X323361Y300972
X331867Y286925
X328117Y281300
X328117Y273800
X327492Y266925
X336867Y270188
X345435Y265706
X344992Y256300
X338117Y259425
X361867Y260050
X369992Y256925
X375168Y247067
X387346Y246618
X395429Y241925
X390617Y268175
X391242Y275050
X394367Y279425
X398742Y282550
X394424Y285225
X394800Y289482
X389552Y290646
X389336Y286223
X388117Y279425
X399953Y287768
X405814Y280603
X408117Y277550
X391867Y299425
X395198Y300701
X391926Y306300
X391242Y310675
X390617Y315675
X389992Y326300
X371867Y335675
X367531Y347555
X338635Y326606
X381615Y306348
X369011Y295885
X363742Y288800
X356242Y296300
X366867Y276925
X363742Y272550
X377348Y207531
X375360Y200341
X371867Y200050
X378117Y198175
X381272Y200367
X374029Y158800
X372553Y148161
X375673Y143366
X361217Y149425
X346217Y134425
X338717Y151300
X339967Y155675
X341217Y166300
X326217Y166300
X316842Y155675
X316217Y148800
X312217Y149050
X306695Y149641
X299092Y151175
X301514Y159181
X287467Y150675
X281842Y154425
X274342Y154425
X267467Y155050
X270729Y145675
X266247Y137107
X256842Y137550
X259967Y144425
X260592Y120675
X257467Y112550
X247609Y107374
X247159Y95196
X242467Y87113
X268717Y91925
X275592Y91300
X279967Y88175
X283092Y83800
X285767Y88117
X290024Y87741
X291188Y92990
X286764Y93206
X279967Y94425
X288309Y82588
X281145Y76727
X278092Y74425
X301242Y87343
X299967Y90675
X306842Y90616
X311217Y91300
X316217Y91925
X326842Y92550
X306890Y100926
X296426Y113530
X289342Y118800
X296842Y126300
X277467Y115675
X273092Y118800
X327148Y143907
X336217Y110675
X348097Y115011
X358717Y80050
X617492Y870987
X628131Y869512
X632925Y872632
X626867Y858175
X641867Y843175
X624992Y835675
X620617Y836925
X609992Y838175
X609992Y823175
X620617Y813800
X627492Y813175
X627242Y809175
X626650Y803654
X625117Y796050
X617111Y798472
X625617Y784425
X621867Y778800
X621867Y771300
X621242Y764425
X630617Y767688
X639185Y763206
X638742Y753800
X631867Y756925
X655617Y757550
X663742Y754425
X668918Y744567
X681096Y744118
X689179Y739425
X684367Y765675
X684992Y772550
X688117Y776925
X692492Y780050
X688174Y782725
X688550Y786982
X683302Y788146
X683086Y783723
X681867Y776925
X693703Y785268
X699564Y778103
X701867Y775050
X688948Y798201
X685617Y796925
X685676Y803800
X684992Y808175
X684367Y813175
X683742Y823800
X665617Y833175
X661281Y845055
X632385Y824106
X649992Y793800
X657492Y786300
X662761Y793385
X675365Y803848
X660617Y774425
X657492Y770050
X665617Y697550
X669110Y697841
X671867Y695675
X675022Y697867
X671098Y705031
X696242Y855675
X548742Y855675
X527865Y803848
X515261Y793385
X509992Y786300
X502492Y793800
X513117Y774425
X509992Y770050
X523598Y705031
X521610Y697841
X518117Y697550
X524367Y695675
X527522Y697867
X402492Y606925
X381615Y555098
X369011Y544635
X363742Y537550
X356242Y545050
X366867Y525675
X363742Y521300
X338635Y575356
X333117Y609425
X334381Y620762
X339175Y623882
X323742Y622238
X257492Y606925
X378117Y695675
X375360Y697841
X371867Y697550
X377348Y705031
X381272Y697867
X381272Y449117
X378117Y446925
X375360Y449091
X371867Y448800
X377348Y456281
X402492Y358175
X257492Y358175
X113742Y358175
X101242Y326300
X101867Y315675
X102492Y310675
X103176Y306300
X106448Y300701
X103117Y299425
X100802Y290646
X100586Y286223
X105674Y285225
X106050Y289482
X111203Y287768
X109992Y282550
X105617Y279425
X102492Y275050
X99367Y279425
X101867Y268175
X117064Y280603
X119367Y277550
X92865Y306348
X80261Y295885
X74992Y288800
X67492Y296300
X78117Y276925
X74992Y272550
X73117Y260050
X81242Y256925
X86418Y247067
X98596Y246618
X106679Y241925
X88598Y207531
X86610Y200341
X83117Y200050
X89367Y198175
X92522Y200367
X56242Y256300
X49367Y259425
X56685Y265706
X48117Y270188
X39367Y273800
X38742Y266925
X39367Y281300
X43117Y286925
X42617Y298550
X44150Y306154
X44742Y311675
X44992Y315675
X38117Y316300
X27492Y325675
X27492Y340675
X38117Y339425
X42492Y338175
X49885Y326606
X59367Y345675
X78781Y347555
X83117Y335675
X44367Y360675
X45631Y372012
X50425Y375132
X34992Y373487
X34611Y300972
X200592Y110675
X200883Y107182
X198717Y104425
X200908Y101269
X208072Y105194
T02
X1363781Y847106
X1378742Y843550
X1386242Y843550
X1413949Y872859
X1414054Y881416
X1435480Y884584
X1446225Y884546
X1491867Y893800
X1507531Y847106
X1522492Y843550
X1529992Y843550
X1557699Y872859
X1557804Y881416
X1579230Y884584
X1589975Y884546
X1522303Y802103
X1515231Y796283
X1513242Y791800
X1529399Y790686
X1518492Y761300
X1512789Y761313
X1507253Y752094
X1500992Y758550
X1385649Y790686
X1378553Y802103
X1371481Y796283
X1369492Y791800
X1369039Y761313
X1374742Y761300
X1363503Y752094
X1357242Y758550
X1348117Y643800
X1414054Y631416
X1413949Y622859
X1435480Y634584
X1446225Y634546
X1491867Y643800
X1557804Y631416
X1557699Y622859
X1579230Y634584
X1589975Y634546
X1074042Y271250
X1074042Y251250
X718725Y707046
X707980Y707084
X686554Y703916
X686449Y695359
X620617Y716300
X641479Y1018841
X641524Y1004470
X649354Y1006625
X669667Y994125
X664354Y987250
X668726Y971000
X668417Y966625
X675302Y971065
X679042Y966625
X697792Y955375
X658742Y916050
X651242Y916050
X636281Y919606
X624042Y944750
X617792Y961000
X624055Y963975
X624042Y971000
X628417Y983187
X626726Y986521
X574042Y955375
X555292Y966625
X551552Y971065
X544976Y971000
X544667Y966625
X540604Y987250
X545917Y994125
X525604Y1006625
X517774Y1004470
X517729Y1018841
X502976Y986521
X504667Y983187
X500292Y971000
X500305Y963975
X494042Y961000
X500292Y944750
X488781Y919606
X503742Y916050
X511242Y916050
X342531Y919606
X357492Y916050
X364992Y916050
X376542Y944750
X370292Y961000
X376555Y963975
X376542Y971000
X380917Y983187
X379226Y986521
X394024Y1004470
X401854Y1006625
X393979Y1018841
X422167Y994125
X416854Y987250
X421226Y971000
X420917Y966625
X427802Y971065
X431542Y966625
X450292Y955375
X503553Y874603
X496481Y868783
X494492Y864300
X510649Y863186
X499742Y833800
X494039Y833813
X488503Y824594
X482242Y831050
X364399Y863186
X357303Y874603
X350231Y868783
X348242Y864300
X347789Y833813
X353492Y833800
X342253Y824594
X335992Y831050
X326542Y955375
X307792Y966625
X304052Y971065
X297476Y971000
X297167Y966625
X293104Y987250
X298417Y994125
X278104Y1006625
X270274Y1004470
X270229Y1018841
X255476Y986521
X257167Y983187
X252792Y971000
X252805Y963975
X246542Y961000
X252792Y944750
X219992Y916050
X212492Y916050
X197531Y919606
X247699Y197859
X247804Y206416
X269230Y209584
X279975Y209546
X326867Y218800
X392804Y206416
X392699Y197859
X414230Y209584
X424975Y209546
X424975Y458296
X414230Y458334
X392804Y455166
X392699Y446609
X279975Y458296
X269230Y458334
X247804Y455166
X247699Y446609
X136225Y458296
X125480Y458334
X104054Y455166
X103949Y446609
X76242Y418550
X68742Y418550
X53781Y422106
X38117Y467550
X68553Y377103
X61481Y371283
X59492Y366800
X75649Y365686
X64742Y336300
X59039Y336313
X53503Y327094
X47242Y333550
X136225Y209546
X125480Y209584
X104054Y206416
X103949Y197859
X38117Y218800
X181867Y218800
X219342Y155675
X206957Y89737
X198401Y89843
X210126Y68312
X210087Y57567
X327636Y140289
X334092Y146550
X336855Y134752
X336842Y129050
X367342Y134300
X371824Y132311
X377644Y125239
X366228Y118142
X419092Y117550
X419092Y125050
X422647Y140010
X489042Y246250
X489042Y266250
X364399Y365686
X357303Y377103
X350231Y371283
X348242Y366800
X347789Y336313
X353492Y336300
X342253Y327094
X335992Y333550
X357492Y418550
X364992Y418550
X342531Y422106
X326867Y467550
X538949Y695359
X539054Y703916
X560480Y707084
X571225Y707046
X473117Y716300
X424975Y707046
X414230Y707084
X392804Y703916
X392699Y695359
X364992Y667300
X357492Y667300
X342531Y670856
X326867Y716300
X279975Y707046
X269230Y707084
X247804Y703916
X247699Y695359
X219992Y667300
X212492Y667300
X197531Y670856
X181867Y716300
X136225Y707046
X125480Y707084
X104054Y703916
X103949Y695359
X76242Y667300
X68742Y667300
X53781Y670856
X68553Y625853
X61481Y620033
X59492Y615550
X75649Y614436
X64742Y585050
X59039Y585063
X53503Y575844
X47242Y582300
X190992Y582300
X197253Y575844
X202789Y585063
X208492Y585050
X203242Y615550
X205231Y620033
X212303Y625853
X219399Y614436
X335992Y582300
X342253Y575844
X347789Y585063
X353492Y585050
X348242Y615550
X350231Y620033
X357303Y625853
X364399Y614436
X181867Y467550
X197531Y422106
X212492Y418550
X219992Y418550
X212303Y377103
X205231Y371283
X203242Y366800
X219399Y365686
X208492Y336300
X202789Y336313
X197253Y327094
X190992Y333550
X38117Y716300
X53503Y824594
X47242Y831050
X59039Y833813
X64742Y833800
X59492Y864300
X61481Y868783
X68553Y874603
X75649Y863186
X76242Y916050
X68742Y916050
X53781Y919606
X122792Y961000
X129055Y963975
X129042Y971000
X133417Y983187
X131726Y986521
X146524Y1004470
X154354Y1006625
X146479Y1018841
X174667Y994125
X169354Y987250
X173726Y971000
X173417Y966625
X180302Y971065
X184042Y966625
X202792Y955375
X129042Y944750
X205231Y868783
X203242Y864300
X212303Y874603
X219399Y863186
X208492Y833800
X202789Y833813
X197253Y824594
X190992Y831050
X629742Y831050
X636003Y824594
X641539Y833813
X647242Y833800
X641992Y864300
X643981Y868783
X651053Y874603
X658149Y863186
X781542Y833750
X781542Y813750
X1348117Y893800
X1363503Y1002094
X1357242Y1008550
X1369039Y1011313
X1374742Y1011300
X1369492Y1041800
X1371481Y1046283
X1378553Y1052103
X1385649Y1040686
X1386242Y1093550
X1378742Y1093550
X1363781Y1097106
X1507531Y1097106
X1522492Y1093550
X1529992Y1093550
X1522303Y1052103
X1515231Y1046283
X1513242Y1041800
X1529399Y1040686
X1518492Y1011300
X1512789Y1011313
X1507253Y1002094
X1500992Y1008550
T03
X1166392Y437550
X1356449Y631824
X1364393Y640049
X1500199Y631824
X1508143Y640049
X1500199Y881824
X1508143Y890049
X1364393Y890049
X1356449Y881824
X715917Y966000
X709042Y963500
X709049Y950502
X476818Y1047806
X474847Y1053389
X471542Y1064125
X463417Y1059750
X704042Y1127250
X673183Y1099855
X668753Y1099772
X668858Y1088376
X671542Y1083188
X657167Y1077250
X670090Y1061067
X676228Y1067118
X696542Y1082250
X701542Y1088500
X697052Y1091963
X706542Y1082250
X711542Y1084750
X719042Y1064125
X710917Y1059750
X722347Y1053389
X724318Y1047806
X711005Y1041024
X710981Y1037147
X710981Y1033229
X702792Y1031799
X699971Y1035277
X697571Y1038903
X699282Y1027166
X697167Y1009437
X698253Y1000082
X697792Y992250
X690265Y987652
X698066Y982504
X690292Y967250
X667792Y955062
X649506Y953956
X637792Y953500
X642704Y964782
X631381Y976008
X633729Y983500
X643203Y984578
X647116Y984575
X656542Y987250
X658768Y1006469
X668412Y1008892
X669015Y1017945
X675128Y1030990
X672167Y1034125
X644979Y1032250
X636229Y1032875
X636542Y1037875
X634667Y1041312
X627792Y1041625
X634042Y1049750
X585299Y950502
X585292Y963500
X592167Y966000
X574316Y982504
X566515Y987652
X574042Y992250
X574503Y1000082
X573417Y1009437
X575532Y1027166
X579042Y1031799
X576221Y1035277
X573821Y1038903
X587231Y1037147
X587255Y1041024
X587231Y1033229
X600568Y1047806
X598597Y1053389
X595292Y1064125
X587167Y1059750
X587792Y1084750
X582792Y1082250
X577792Y1088500
X573302Y1091963
X572792Y1082250
X547792Y1083188
X545108Y1088376
X545003Y1099772
X549433Y1099855
X533417Y1077250
X546340Y1061067
X552478Y1067118
X548417Y1034125
X551378Y1030990
X545265Y1017945
X544662Y1008892
X535018Y1006469
X526558Y1017891
X521229Y1032250
X512479Y1032875
X512792Y1037875
X510917Y1041312
X504042Y1041625
X510292Y1049750
X503022Y1021721
X504667Y1011625
X505292Y999125
X505292Y992875
X497792Y998500
X497792Y987250
X492670Y987250
X509979Y983500
X507631Y976008
X519453Y984578
X523366Y984575
X532792Y987250
X515292Y995687
X518954Y964782
X514042Y953500
X525756Y953956
X544042Y955062
X566542Y967250
X616420Y987250
X621542Y987250
X629042Y992875
X629042Y999125
X621542Y998500
X628417Y1011625
X626772Y1021721
X650308Y1017891
X639042Y995687
X873892Y1000050
X628949Y704324
X636893Y712549
X489393Y712549
X481449Y704324
X335199Y704324
X343143Y712549
X278256Y953956
X266542Y953500
X271454Y964782
X260131Y976008
X262479Y983500
X271953Y984578
X275866Y984575
X285292Y987250
X287518Y1006469
X297162Y1008892
X297765Y1017945
X303878Y1030990
X300917Y1034125
X273729Y1032250
X264979Y1032875
X265292Y1037875
X263417Y1041312
X256542Y1041625
X262792Y1049750
X456542Y1127250
X425683Y1099855
X421253Y1099772
X421358Y1088376
X424042Y1083188
X409667Y1077250
X422590Y1061067
X428728Y1067118
X449042Y1082250
X454042Y1088500
X449552Y1091963
X459042Y1082250
X464042Y1084750
X515620Y1092204
X463505Y1041024
X463481Y1037147
X463481Y1033229
X455292Y1031799
X452471Y1035277
X450071Y1038903
X451782Y1027166
X449667Y1009437
X450753Y1000082
X450292Y992250
X442765Y987652
X450566Y982504
X442792Y967250
X461542Y963500
X468417Y966000
X461549Y950502
X337799Y950502
X337792Y963500
X344667Y966000
X326816Y982504
X319015Y987652
X326542Y992250
X327003Y1000082
X325917Y1009437
X328032Y1027166
X331542Y1031799
X328721Y1035277
X326321Y1038903
X339731Y1037147
X339755Y1041024
X339731Y1033229
X353068Y1047806
X351097Y1053389
X347792Y1064125
X339667Y1059750
X335292Y1082250
X340292Y1084750
X330292Y1088500
X325802Y1091963
X325292Y1082250
X300292Y1083188
X297608Y1088376
X297503Y1099772
X301933Y1099855
X285917Y1077250
X298840Y1061067
X304978Y1067118
X268120Y1092204
X224042Y1064125
X215917Y1059750
X227347Y1053389
X229318Y1047806
X216005Y1041024
X215981Y1037147
X215981Y1033229
X207792Y1031799
X204971Y1035277
X202571Y1038903
X204282Y1027166
X202167Y1009437
X203253Y1000082
X202792Y992250
X195265Y987652
X203066Y982504
X195292Y967250
X214042Y963500
X220917Y966000
X214049Y950502
X296542Y955062
X319042Y967250
X368920Y987250
X374042Y987250
X381542Y992875
X381542Y999125
X374042Y998500
X380917Y1011625
X379272Y1021721
X388729Y1032875
X389042Y1037875
X387167Y1041312
X380292Y1041625
X386542Y1049750
X397479Y1032250
X402808Y1017891
X411268Y1006469
X420912Y1008892
X421515Y1017945
X427628Y1030990
X424667Y1034125
X409042Y987250
X399616Y984575
X395703Y984578
X386229Y983500
X383881Y976008
X395204Y964782
X390292Y953500
X402006Y953956
X420292Y955062
X391542Y995687
X279058Y1017891
X257792Y999125
X257792Y992875
X250292Y998500
X250292Y987250
X245170Y987250
X267792Y995687
X257167Y1011625
X255522Y1021721
X180128Y1030990
X177167Y1034125
X174015Y1017945
X173412Y1008892
X163768Y1006469
X155308Y1017891
X149979Y1032250
X141229Y1032875
X141542Y1037875
X139667Y1041312
X132792Y1041625
X139042Y1049750
X131772Y1021721
X133417Y1011625
X134042Y999125
X134042Y992875
X126542Y998500
X126542Y987250
X121420Y987250
X138729Y983500
X136381Y976008
X148203Y984578
X152116Y984575
X161542Y987250
X144042Y995687
X147704Y964782
X142792Y953500
X154506Y953956
X172792Y955062
X207366Y147342
X215590Y139399
X335199Y455574
X343143Y463799
X198143Y463799
X190199Y455574
X46449Y455574
X54393Y463799
X190199Y704324
X198143Y712549
X54393Y712549
X46449Y704324
X175090Y1061067
X181228Y1067118
X162167Y1077250
X176542Y1083188
X173858Y1088376
X173753Y1099772
X178183Y1099855
X202052Y1091963
X206542Y1088500
X211542Y1082250
X216542Y1084750
X201542Y1082250
X209042Y1127250
X144370Y1092204
X332792Y1127250
X391870Y1092204
X580292Y1127250
X639370Y1092204
X581392Y432550
X343143Y215049
X335199Y206824
X198143Y215049
X190199Y206824
X54393Y215049
X46449Y206824
T04
X1431867Y632550
X1575617Y632550
X1431867Y882550
X1575617Y882550
X492060Y1032502
X615810Y1032502
X410617Y705050
X556867Y705050
X704367Y705050
X410617Y456300
X265617Y456300
X121867Y456300
X265617Y207550
X410617Y207550
X208092Y71925
X121867Y207550
X265617Y705050
X368310Y1032502
X244560Y1032502
X120810Y1032502
X121867Y705050
T05
X1183892Y291950
X1214192Y287350
X1310492Y270850
X1333092Y267050
X1040592Y829550
X1017992Y833350
X891392Y854450
X921692Y849850
X598892Y286950
X629192Y282350
X725492Y265850
X748092Y262050
T06
X820792Y46250
X790292Y39250
X780292Y41250
X760604Y45937
X730292Y46875
X681854Y45625
X647479Y35313
X636542Y46250
X619354Y57812
X602792Y57812
X595292Y68750
X587792Y63750
X582792Y68750
X582792Y86875
X587792Y98750
X592792Y113750
X587792Y131250
X617792Y136250
X628729Y132813
X641229Y120312
X657792Y98750
X653729Y85313
X695292Y98750
X705292Y98750
X715292Y98750
X725292Y98750
X725292Y121250
X735292Y121250
X715292Y121250
X705292Y121250
X695292Y121250
X685292Y121250
X685604Y129687
X760292Y98750
X770292Y101250
X782792Y102500
X792792Y101250
X815292Y83750
X820292Y73750
X802792Y201250
X802792Y221250
X802792Y241250
X802167Y250625
X803417Y256250
X799042Y261250
X777792Y257187
X777792Y279688
X801542Y290625
X800292Y303750
X801542Y311250
X772792Y326250
X770292Y339375
X765292Y338750
X740292Y353750
X732792Y353750
X767792Y376250
X779042Y361562
X802792Y366250
X817792Y378750
X825292Y386250
X847792Y393750
X862792Y391250
X872792Y391250
X860292Y406250
X842792Y411250
X825292Y411250
X807792Y408750
X812792Y426250
X792792Y433750
X775292Y421250
X757792Y421250
X787792Y406250
X790292Y391250
X837792Y361250
X885292Y351250
X947479Y315000
X942792Y311250
X942792Y301250
X917792Y291250
X917792Y281250
X940292Y286250
X945292Y281250
X957792Y276250
X970292Y281250
X970292Y296250
X947792Y261562
X940917Y260625
X945917Y251875
X944042Y241250
X957792Y256250
X917792Y261250
X942792Y221250
X942792Y201250
X987792Y388750
X971854Y388750
X980292Y361250
X968417Y356875
X957792Y358750
X987792Y343125
X1060604Y304375
X1105292Y275000
X1105292Y268750
X1105292Y262500
X1105292Y256250
X1105292Y246250
X1105292Y226250
X1105292Y206250
X1076542Y184375
X1064667Y213750
X1172792Y136250
X1177792Y118750
X1172792Y103750
X1167792Y91875
X1167792Y73750
X1172792Y68750
X1180292Y73750
X1187792Y62812
X1204354Y62812
X1221542Y51250
X1232479Y40313
X1266854Y50625
X1315292Y51875
X1345604Y50937
X1365292Y46250
X1375292Y44250
X1405792Y51250
X1405292Y78750
X1400292Y88750
X1377792Y106250
X1367792Y107500
X1355292Y106250
X1345292Y103750
X1320292Y126250
X1310292Y126250
X1300292Y126250
X1290292Y126250
X1280292Y126250
X1270292Y126250
X1270604Y134688
X1226229Y125312
X1213729Y137813
X1202792Y141250
X1242792Y103750
X1238729Y90312
X1280292Y103750
X1290292Y103750
X1300292Y103750
X1310292Y103750
X1387792Y206250
X1387792Y226250
X1387792Y246250
X1387167Y255625
X1388417Y261250
X1384042Y266250
X1413417Y266250
X1413417Y276250
X1386542Y295625
X1385292Y308750
X1386542Y316250
X1357792Y331250
X1355292Y344375
X1350292Y343750
X1325292Y358750
X1317792Y358750
X1273417Y330625
X1245292Y326250
X1248104Y306250
X1244354Y296250
X1246229Y286250
X1246542Y273125
X1246542Y267500
X1246542Y261875
X1246542Y256250
X1230292Y281250
X1220292Y306250
X1205292Y306250
X1182792Y299688
X1177792Y296250
X1172167Y293750
X1168729Y290000
X1173104Y286250
X1171854Y302813
X1180292Y318750
X1152792Y338750
X1177792Y348750
X1207792Y371250
X1218417Y375312
X1225292Y393750
X1235292Y393750
X1225292Y404687
X1237792Y422707
X1225292Y453750
X1185292Y436250
X1180292Y446250
X1177792Y418750
X1187792Y408750
X1155292Y408750
X1152792Y401250
X1155292Y386250
X1119667Y365000
X1098303Y416447
X930292Y403750
X930292Y456250
X865292Y438750
X837792Y448750
X852792Y464262
X1113292Y613750
X1112792Y641250
X1107792Y651250
X1085292Y668750
X1075292Y670000
X1062792Y668750
X1052792Y666250
X1027792Y688750
X1017792Y688750
X1007792Y688750
X997792Y688750
X987792Y688750
X977792Y688750
X978104Y697187
X933729Y687813
X921229Y700312
X910292Y703750
X880292Y698750
X885292Y681250
X880292Y666250
X875292Y654375
X875292Y636250
X880292Y631250
X887792Y636250
X895292Y625313
X911854Y625313
X929042Y613750
X939979Y602813
X974354Y613125
X1022792Y614375
X1053104Y613438
X1072792Y608750
X1082792Y606750
X1017792Y666250
X1007792Y666250
X997792Y666250
X987792Y666250
X950292Y666250
X946229Y652813
X576542Y520000
X572792Y511250
X590292Y516250
X597792Y496250
X625292Y496250
X640292Y448750
X600292Y431250
X595292Y441250
X592792Y413750
X602792Y403750
X570292Y403750
X567792Y396250
X570292Y381250
X534667Y360000
X567792Y333750
X592792Y343750
X595292Y313750
X620292Y301250
X635292Y301250
X659354Y291250
X661229Y281250
X661542Y268125
X661542Y262500
X661542Y256875
X661542Y251250
X645292Y276250
X675292Y295938
X663104Y301250
X660292Y321250
X688417Y325625
X657792Y358750
X633417Y370312
X622792Y366250
X640292Y388750
X650292Y388750
X640292Y399687
X652792Y417707
X697792Y431250
X632792Y338750
X597792Y294688
X592792Y291250
X587167Y288750
X583729Y285000
X588104Y281250
X586854Y297813
X535292Y307188
X520292Y270000
X520292Y263750
X520292Y257500
X520292Y251250
X520292Y241250
X520292Y221250
X520292Y201250
X491542Y179375
X479667Y208750
X402359Y423735
X350878Y465513
X360791Y467544
X360950Y472138
X364945Y465500
X366206Y479723
X359449Y480168
X394992Y473800
X548609Y921235
X323293Y916286
X402359Y921235
X469543Y916286
X423604Y869679
X395992Y838550
X386992Y838550
X396867Y821300
X416766Y821119
X371867Y823800
X364992Y813800
X334367Y818175
X332492Y826300
X271766Y821119
X251867Y821300
X250992Y838550
X241992Y838550
X226867Y823800
X219992Y813800
X189367Y818175
X187492Y826300
X207467Y159425
X207467Y151925
X217305Y131664
X219335Y121751
X223930Y121592
X217292Y117596
X231515Y116336
X231960Y123093
X225592Y87550
X277956Y57995
X324161Y65776
X324342Y85675
X341592Y86550
X341592Y95550
X326842Y110675
X316842Y117550
X321217Y148175
X329342Y150050
X357290Y134594
X419328Y159249
X323293Y418786
X323117Y455675
X330617Y455675
X325617Y493800
X325617Y499425
X279547Y526165
X271766Y572369
X251867Y572550
X226867Y575050
X219992Y565050
X189367Y569425
X187492Y577550
X202947Y605499
X241992Y589800
X250992Y589800
X278604Y620929
X332492Y577550
X334367Y569425
X364992Y565050
X371867Y575050
X396867Y572550
X416766Y572369
X395992Y589800
X386992Y589800
X423604Y620929
X402359Y672485
X364945Y714250
X360791Y716294
X360950Y720888
X359449Y728918
X366206Y728473
X350878Y714263
X330617Y704425
X323117Y704425
X323293Y667536
X257359Y672485
X219945Y714250
X215791Y716294
X215950Y720888
X214449Y728918
X221206Y728473
X205878Y714263
X185617Y704425
X178117Y704425
X178293Y667536
X134854Y620929
X107242Y589800
X98242Y589800
X108117Y572550
X128016Y572369
X178117Y206925
X185617Y206925
X205878Y216763
X215791Y218794
X215950Y223388
X219945Y216750
X221206Y230973
X214449Y231418
X249992Y225050
X180617Y245050
X180617Y250675
X135797Y277415
X128016Y323619
X108117Y323800
X83117Y326300
X76242Y316300
X45617Y320675
X43742Y328800
X59197Y356749
X98242Y341050
X107242Y341050
X134854Y372179
X187492Y328800
X189367Y320675
X219992Y316300
X226867Y326300
X241992Y341050
X250992Y341050
X251867Y323800
X271766Y323619
X279547Y277415
X325617Y250675
X325617Y245050
X359449Y231418
X366206Y230973
X360950Y223388
X360791Y218794
X364945Y216750
X350878Y216763
X330617Y206925
X323117Y206925
X394992Y225050
X424547Y277415
X416766Y323619
X396867Y323800
X371867Y326300
X364992Y316300
X334367Y320675
X332492Y328800
X347947Y356749
X386992Y341050
X395992Y341050
X423604Y372179
X513303Y411447
X424547Y526165
X347947Y605499
X624367Y704425
X616867Y704425
X644628Y714263
X654541Y716294
X654700Y720888
X658695Y714250
X659956Y728473
X653199Y728918
X688742Y722550
X696109Y921235
X617043Y916286
X569854Y869679
X542242Y838550
X533242Y838550
X543117Y821300
X518117Y823800
X511242Y813800
X480617Y818175
X478742Y826300
X494197Y854249
X563016Y821119
X626242Y826300
X628117Y818175
X658742Y813800
X665617Y823800
X680742Y838550
X689742Y838550
X690617Y821300
X710516Y821119
X718297Y774915
X772167Y776250
X784042Y746875
X812792Y768750
X812792Y788750
X812792Y808750
X812792Y818750
X812792Y825000
X812792Y831250
X812792Y837500
X827792Y874687
X860292Y901250
X885292Y911250
X887792Y881250
X879354Y865312
X885292Y858750
X890292Y862187
X879667Y856250
X876229Y852500
X880604Y848750
X912792Y868750
X927792Y868750
X951854Y858750
X953729Y848750
X954042Y835625
X954042Y830000
X954042Y824375
X954042Y818750
X937792Y843750
X955604Y868750
X967792Y863437
X1010292Y853750
X1010292Y843750
X1005292Y831250
X1027792Y848750
X805803Y978947
X860292Y963750
X862792Y971250
X862792Y948750
X895292Y971250
X885292Y981250
X892792Y998750
X887792Y1008750
X932792Y1016250
X945292Y985207
X932792Y967187
X932792Y956250
X942792Y956250
X925917Y937812
X915292Y933750
X925292Y906250
X950292Y926250
X952792Y888750
X980917Y893125
X1025292Y921250
X1032792Y921250
X1057792Y906250
X1062792Y906875
X1065292Y893750
X1094042Y878750
X1092792Y871250
X1094042Y858125
X1070292Y847187
X1047792Y843750
X1042792Y848750
X619367Y742550
X619367Y748175
X570797Y774915
X541242Y722550
X512456Y728473
X505699Y728918
X507200Y720888
X507041Y716294
X511195Y714250
X497128Y714263
X476867Y704425
X469367Y704425
X471867Y742550
X471867Y748175
X424547Y774915
X394992Y722550
X325617Y742550
X325617Y748175
X279547Y774915
X249992Y722550
X180617Y742550
X180617Y748175
X135797Y774915
X128016Y821119
X108117Y821300
X107242Y838550
X98242Y838550
X83117Y823800
X76242Y813800
X45617Y818175
X43742Y826300
X59197Y854249
X34543Y916286
X113609Y921235
X178293Y916286
X134854Y869679
X202947Y854249
X278604Y869679
X257359Y921235
X347947Y854249
X641697Y854249
X717354Y869679
X768104Y866875
X827167Y927500
X990292Y998750
X1050292Y988750
X1067792Y988750
X1080292Y973750
X1100292Y976250
X1117792Y978750
X1135292Y978750
X1152792Y973750
X1140292Y961250
X1155292Y958750
X1165292Y958750
X1130292Y928750
X1110292Y946250
X1117792Y953750
X1095292Y933750
X1071542Y929062
X1060292Y943750
X1082792Y958750
X1105292Y993750
X1085292Y1001250
X1130292Y1016250
X1145292Y1031762
X1157792Y1006250
X1222792Y1023750
X1222792Y971250
X1264354Y956250
X1280292Y956250
X1272792Y928750
X1260917Y924375
X1250292Y926250
X1280292Y910625
X1344543Y843786
X1351867Y881925
X1344367Y881925
X1262792Y863750
X1262792Y848750
X1250292Y843750
X1237792Y848750
X1232792Y853750
X1235292Y868750
X1235292Y878750
X1239979Y882500
X1210292Y858750
X1210292Y848750
X1210292Y828750
X1233417Y828125
X1240292Y829062
X1238417Y819375
X1236542Y808750
X1250292Y823750
X1235292Y788750
X1235292Y768750
X1355617Y745675
X1353742Y753800
X1386242Y741300
X1393117Y751300
X1408242Y766050
X1417242Y766050
X1418117Y748800
X1438016Y748619
X1346867Y925675
X1346867Y920050
X1380699Y906418
X1387456Y905973
X1382200Y898388
X1382041Y893794
X1386195Y891750
X1372128Y891763
X1416242Y900050
X1423609Y848735
X1444854Y797179
X1497492Y753800
X1499367Y745675
X1529992Y741300
X1536867Y751300
X1551992Y766050
X1560992Y766050
X1561867Y748800
X1581766Y748619
X1589547Y702415
X1559992Y650050
X1531206Y655973
X1524449Y656418
X1525950Y648388
X1525791Y643794
X1529945Y641750
X1515878Y641763
X1495617Y631925
X1488117Y631925
X1416242Y650050
X1387456Y655973
X1380699Y656418
X1382200Y648388
X1382041Y643794
X1386195Y641750
X1372128Y641763
X1351867Y631925
X1344367Y631925
X1346867Y670050
X1346867Y675675
X1445797Y702415
X1490617Y675675
X1490617Y670050
X1512947Y781749
X1588604Y797179
X1567359Y848735
X1559992Y900050
X1531206Y905973
X1524449Y906418
X1525950Y898388
X1525791Y893794
X1529945Y891750
X1515878Y891763
X1495617Y881925
X1488117Y881925
X1488293Y843786
X1490617Y920050
X1490617Y925675
X1445797Y952415
X1386242Y991300
X1393117Y1001300
X1408242Y1016050
X1417242Y1016050
X1418117Y998800
X1438016Y998619
X1444854Y1047179
X1423609Y1098735
X1488293Y1093786
X1567359Y1098735
X1588604Y1047179
X1560992Y1016050
X1551992Y1016050
X1561867Y998800
X1581766Y998619
X1536867Y1001300
X1529992Y991300
X1499367Y995675
X1497492Y1003800
X1512947Y1031749
X1589547Y952415
X1369197Y1031749
X1353742Y1003800
X1355617Y995675
X1344543Y1093786
X1177792Y918750
X1120917Y838750
X1120917Y828750
X1095917Y823750
X1094667Y818125
X1095292Y808750
X1095292Y788750
X1095292Y768750
X1070292Y824687
X1091542Y828750
X1161542Y525000
X1157792Y516250
X1175292Y521250
X1182792Y501250
X1210292Y501250
X1282792Y436250
X1342792Y426250
X1360292Y426250
X1372792Y411250
X1375292Y396250
X1392792Y413750
X1410292Y416250
X1427792Y416250
X1445292Y411250
X1447792Y396250
X1457792Y396250
X1432792Y398750
X1410292Y391250
X1402792Y383750
X1387792Y371250
X1364042Y366562
X1352792Y381250
X1397792Y431250
X1377792Y438750
X1422792Y453750
X1437792Y469262
X1450292Y443750
X1515292Y461250
X1515292Y408750
X1556854Y393750
X1572792Y393750
X1565292Y366250
X1553417Y361875
X1542792Y363750
X1572792Y348125
X1532479Y320000
X1527792Y316250
X1527792Y306250
X1525292Y291250
X1530292Y286250
X1542792Y281250
X1555292Y286250
X1532792Y266563
X1525917Y265625
X1530917Y256875
X1529042Y246250
X1542792Y261250
X1502792Y266250
X1502792Y286250
X1502792Y296250
X1555292Y301250
X1470292Y356250
X1422792Y366250
X1362792Y284688
X1340292Y281250
X1335292Y286250
X1320292Y286250
X1120292Y312188
X1217792Y343750
X1242792Y363750
X1260292Y300938
X1302792Y291250
X1302792Y281250
X1297792Y268750
X1527792Y206250
X1527792Y226250
X1362792Y262188
X1192167Y236875
X828417Y261250
X828417Y271250
X755292Y276250
X750292Y281250
X735292Y281250
X278604Y372179
X257359Y423735
X219945Y465500
X215791Y467544
X215950Y472138
X214449Y480168
X221206Y479723
X205878Y465513
X185617Y455675
X178117Y455675
X178293Y418786
X113609Y423735
X76195Y465500
X72041Y467544
X72200Y472138
X70699Y480168
X77456Y479723
X62128Y465513
X41867Y455675
X34367Y455675
X34543Y418786
X106242Y473800
X135797Y526165
X180617Y499425
X180617Y493800
X249992Y473800
X202947Y356749
X77456Y230973
X70699Y231418
X72200Y223388
X72041Y218794
X76195Y216750
X62128Y216763
X41867Y206925
X34367Y206925
X36867Y245050
X36867Y250675
X106242Y225050
X245592Y156925
X251217Y156925
X372720Y58938
X424277Y80182
X607167Y231875
X712792Y263750
X717792Y276250
X717792Y286250
X475604Y299375
X83117Y575050
X76242Y565050
X45617Y569425
X43742Y577550
X59197Y605499
X34543Y667536
X34367Y704425
X41867Y704425
X62128Y714263
X72041Y716294
X72200Y720888
X76195Y714250
X77456Y728473
X70699Y728918
X106242Y722550
X113609Y672485
X36867Y742550
X36867Y748175
X36867Y499425
X36867Y493800
X865292Y1078750
X869042Y1087500
X882792Y1083750
X890292Y1063750
X917792Y1063750
X899667Y799375
X1369197Y781749
T07
X1047792Y356250
X1072792Y481250
X1152792Y521250
X1152792Y531250
X1152792Y541250
X1472792Y521250
X1211040Y41250
X1203166Y41250
X1195292Y41250
X1187418Y41250
X1179544Y41250
X1162792Y43750
X1162792Y31250
X1247792Y206250
X1246542Y226250
X1246542Y246250
X1185292Y366250
X1252792Y398750
X1255292Y383750
X1292792Y393750
X1292792Y408750
X1242792Y446250
X1360292Y418750
X567792Y536250
X567792Y526250
X567792Y516250
X487792Y476250
X462792Y351250
X365617Y356925
X366390Y386215
X365304Y429737
X220304Y429737
X221390Y386215
X220617Y356925
X76554Y429737
X357467Y116925
X386757Y116152
X430279Y117237
X577792Y38750
X577792Y26250
X594544Y36250
X602418Y36250
X610292Y36250
X618166Y36250
X626040Y36250
X662792Y201250
X661542Y221250
X661542Y241250
X600292Y361250
X670292Y378750
X667792Y393750
X707792Y388750
X707792Y403750
X657792Y441250
X775292Y413750
X887792Y516250
X870292Y593750
X870292Y606250
X887044Y603750
X894918Y603750
X902792Y603750
X910666Y603750
X918540Y603750
X659054Y927237
X755292Y918750
X660140Y883715
X659367Y854425
X511867Y854425
X512640Y883715
X511554Y927237
X365304Y927237
X468599Y1166876
X468599Y1159002
X468599Y1151128
X468599Y1143254
X468599Y1135380
X468599Y1127506
X468599Y1119632
X468599Y1111758
X468599Y1103884
X468599Y1096010
X476542Y1102250
X476542Y1112250
X476542Y1122250
X504485Y1119632
X504485Y1127506
X504485Y1135380
X504485Y1143254
X504485Y1151128
X504485Y1159002
X504485Y1166876
X504485Y1111758
X504485Y1103884
X504485Y1096010
X591099Y1096010
X591099Y1103884
X591099Y1111758
X591099Y1119632
X591099Y1127506
X591099Y1135380
X591099Y1143254
X591099Y1151128
X591099Y1159002
X591099Y1166876
X628235Y1166876
X628235Y1159002
X628235Y1151128
X628235Y1143254
X628235Y1135380
X628235Y1127506
X628235Y1119632
X628235Y1111758
X628235Y1103884
X628235Y1096010
X600292Y1102250
X600292Y1112250
X600292Y1122250
X714849Y1096010
X714849Y1103884
X714849Y1111758
X714849Y1119632
X714849Y1127506
X714849Y1135380
X714849Y1143254
X714849Y1151128
X714849Y1159002
X714849Y1166876
X724042Y1122250
X724042Y1112250
X724042Y1102250
X780292Y1043750
X860292Y1083750
X860292Y1093750
X860292Y1103750
X950292Y1008750
X960292Y961250
X962792Y946250
X1000292Y956250
X1000292Y971250
X1067792Y981250
X1180292Y1083750
X1386554Y1104738
X1387640Y1061215
X1386867Y1031925
X1386554Y854737
X1387640Y811215
X1386867Y781925
X1530617Y781925
X1531390Y811215
X1530304Y854737
X1530617Y1031925
X1531390Y1061215
X1530304Y1104738
X366390Y883715
X365617Y854425
X220617Y854425
X221390Y883715
X220304Y927237
X219849Y1096010
X219849Y1103884
X219849Y1111758
X219849Y1119632
X219849Y1127506
X219849Y1135380
X219849Y1143254
X219849Y1151128
X219849Y1159002
X219849Y1166876
X256985Y1166876
X256985Y1159002
X256985Y1151128
X256985Y1143254
X256985Y1135380
X256985Y1127506
X256985Y1119632
X256985Y1111758
X256985Y1103884
X256985Y1096010
X229042Y1102250
X229042Y1112250
X229042Y1122250
X133235Y1119632
X133235Y1127506
X133235Y1135380
X133235Y1143254
X133235Y1151128
X133235Y1159002
X133235Y1166876
X133235Y1111758
X133235Y1103884
X133235Y1096010
X343599Y1096010
X343599Y1103884
X343599Y1111758
X343599Y1119632
X343599Y1127506
X343599Y1135380
X343599Y1143254
X343599Y1151128
X343599Y1159002
X343599Y1166876
X381985Y1166876
X381985Y1159002
X381985Y1151128
X381985Y1143254
X381985Y1135380
X381985Y1127506
X381985Y1119632
X381985Y1111758
X381985Y1103884
X381985Y1096010
X352792Y1102250
X352792Y1112250
X352792Y1122250
X77640Y386215
X76867Y356925
X365617Y605675
X366390Y634965
X365304Y678488
X955292Y768750
X954042Y788750
X954042Y808750
X892792Y928750
X220617Y605675
X221390Y634965
X220304Y678488
X76554Y678488
X77640Y634965
X76867Y605675
X76867Y854425
X77640Y883715
X76554Y927237
T08
X910292Y63750
X910292Y83750
X895292Y103750
X895292Y123750
X932792Y123750
X932792Y103750
X1130292Y491250
X1150292Y491250
X1202792Y631250
X1202792Y651250
X1187792Y671250
X1187792Y691250
X1225292Y691250
X1225292Y671250
X1517792Y128750
X1517792Y108750
X1495292Y88750
X1495292Y68750
X1480292Y108750
X1480292Y128750
X1195292Y86250
X1195292Y106250
X1150292Y103750
X1150292Y83750
X857792Y646250
X857792Y666250
X902792Y668750
X902792Y648750
X565292Y486250
X545292Y486250
X565292Y78750
X565292Y98750
X610292Y101250
X610292Y81250
X837792Y1053750
X857792Y1053750
T09
X978855Y447313
X978855Y455187
X978855Y407687
X978855Y399813
X1271355Y967313
X1271355Y975187
X1271355Y1014813
X1271355Y1022687
X1563855Y460187
X1563855Y452313
X1149229Y65187
X1141355Y65187
X856729Y627687
X848855Y627687
X556355Y60187
X564229Y60187
X1563855Y404813
X1563855Y412687
T10
X920292Y478750
X910292Y478750
X1431867Y650675
X1441867Y650675
X1441867Y660675
X1441867Y670675
X1441867Y680675
X1441867Y690675
X1431867Y690675
X1431867Y680675
X1431867Y670675
X1431867Y660675
X1575617Y690675
X1585617Y690675
X1585617Y680675
X1585617Y670675
X1585617Y660675
X1585617Y650675
X1575617Y650675
X1575617Y660675
X1575617Y670675
X1575617Y680675
X1505292Y483750
X1495292Y483750
X566867Y763175
X566867Y753175
X566867Y743175
X566867Y733175
X566867Y723175
X556867Y723175
X556867Y733175
X556867Y743175
X556867Y753175
X556867Y763175
X420617Y723175
X420617Y733175
X420617Y743175
X420617Y753175
X420617Y763175
X410617Y763175
X410617Y753175
X410617Y743175
X410617Y733175
X410617Y723175
X275617Y723175
X275617Y733175
X275617Y743175
X275617Y753175
X275617Y763175
X265617Y763175
X265617Y753175
X265617Y743175
X265617Y733175
X265617Y723175
X131867Y723175
X131867Y733175
X131867Y743175
X131867Y753175
X131867Y763175
X121867Y763175
X121867Y753175
X121867Y743175
X121867Y733175
X121867Y723175
X265617Y225675
X275617Y225675
X275617Y235675
X275617Y245675
X275617Y255675
X275617Y265675
X265617Y265675
X265617Y255675
X265617Y245675
X265617Y235675
X410617Y225675
X420617Y225675
X420617Y235675
X420617Y245675
X420617Y255675
X420617Y265675
X410617Y265675
X410617Y255675
X410617Y245675
X410617Y235675
X420617Y474425
X420617Y484425
X420617Y494425
X420617Y504425
X420617Y514425
X410617Y514425
X410617Y504425
X410617Y494425
X410617Y484425
X410617Y474425
X275617Y474425
X275617Y484425
X275617Y494425
X275617Y504425
X275617Y514425
X265617Y514425
X265617Y504425
X265617Y494425
X265617Y484425
X265617Y474425
X131867Y474425
X131867Y484425
X131867Y494425
X131867Y504425
X131867Y514425
X121867Y514425
X121867Y504425
X121867Y494425
X121867Y484425
X121867Y474425
X121867Y265675
X131867Y265675
X131867Y255675
X131867Y245675
X131867Y235675
X131867Y225675
X121867Y225675
X121867Y235675
X121867Y245675
X121867Y255675
X226217Y71925
X236217Y71925
X246217Y71925
X256217Y71925
X266217Y71925
X266217Y61925
X256217Y61925
X246217Y61925
X236217Y61925
X226217Y61925
X714042Y974750
X714042Y984750
X714042Y994750
X714042Y1004750
X714042Y1014750
X704042Y1014750
X704042Y1004750
X704042Y994750
X704042Y984750
X704042Y974750
X590292Y974750
X590292Y984750
X590292Y994750
X590292Y1004750
X590292Y1014750
X580292Y1014750
X580292Y1004750
X580292Y994750
X580292Y984750
X580292Y974750
X342792Y1014750
X342792Y1004750
X342792Y994750
X342792Y984750
X342792Y974750
X332792Y974750
X332792Y984750
X332792Y994750
X332792Y1004750
X332792Y1014750
X219042Y1014750
X219042Y1004750
X219042Y994750
X219042Y984750
X219042Y974750
X209042Y974750
X209042Y984750
X209042Y994750
X209042Y1004750
X209042Y1014750
X456542Y974750
X466542Y974750
X466542Y984750
X466542Y994750
X466542Y1004750
X466542Y1014750
X456542Y1014750
X456542Y1004750
X456542Y994750
X456542Y984750
X704367Y763175
X714367Y763175
X714367Y753175
X714367Y743175
X714367Y733175
X714367Y723175
X704367Y723175
X704367Y733175
X704367Y743175
X704367Y753175
X1431867Y900675
X1441867Y900675
X1441867Y910675
X1441867Y920675
X1441867Y930675
X1441867Y940675
X1431867Y940675
X1431867Y930675
X1431867Y920675
X1431867Y910675
X1575617Y910675
X1585617Y910675
X1585617Y900675
X1575617Y900675
X1575617Y920675
X1585617Y920675
X1585617Y930675
X1585617Y940675
X1575617Y940675
X1575617Y930675
X1212792Y1046250
X1202792Y1046250
T11
X1075292Y441407
X1075292Y461093
X782792Y1003907
X782792Y1023593
X490292Y436407
X490292Y456093
T12
X1100292Y503750
X1149789Y553247
X1475794Y553247
X1525292Y503750
X940292Y498750
X890794Y548247
X564789Y548247
X515292Y498750
X807792Y1066250
X857289Y1115747
X1183294Y1115747
X1232792Y1066250
T13
X1047792Y375250
X1085292Y382750
X1085292Y401250
X1085292Y419750
X1047792Y427250
X755292Y989750
X755292Y937750
X792792Y945250
X792792Y963750
X792792Y982250
X462792Y422250
X462792Y370250
X500292Y377750
X500292Y396250
X500292Y414750
T14
X1247713Y553376
X1247713Y513376
X1389052Y553376
X1389052Y513376
X804052Y508376
X804052Y548376
X662713Y548376
X662713Y508376
X1096552Y1075876
X1096552Y1115876
X955213Y1115876
X955213Y1075876
T15
X941087Y81959
X1091101Y485549
X958489Y480549
X1233587Y649459
X1284638Y858250
X1317295Y591026
X1543489Y485549
X1526087Y86959
X1577138Y295750
X1067138Y338250
X992138Y290750
X732295Y586026
X816004Y649459
X774638Y900750
X482138Y333250
X523504Y81959
X798601Y1048049
X1024795Y1153526
X1250989Y1048049
X506101Y480549
X1108504Y86959
M30
