%
M48
M72
T01C0.01181
T02C0.01500
T03C0.01600
T04C0.01969
T05C0.02300
T06C0.02362
T07C0.03150
T08C0.03200
T09C0.03937
T10C0.04000
T11C0.04700
T12C0.05000
T13C0.07874
T14C0.07900
T15C0.12500
%
T01
X89367Y178125
X86610Y180291
X83117Y180000
X88598Y187481
X92522Y180317
X106679Y221875
X98596Y226568
X86418Y227017
X81242Y236875
X73117Y240000
X74992Y252500
X78117Y256875
X74992Y268750
X80261Y275835
X67492Y276250
X42617Y278500
X44150Y286104
X44742Y291625
X44992Y295625
X38117Y296250
X27492Y305625
X27492Y320625
X38117Y319375
X42492Y318125
X49885Y306556
X59367Y325625
X44367Y340625
X45631Y351962
X50425Y355082
X34992Y353437
X78781Y327505
X83117Y315625
X101242Y306250
X101867Y295625
X102492Y290625
X103176Y286250
X106448Y280651
X103117Y279375
X100802Y270596
X100586Y266173
X105674Y265175
X106050Y269432
X111203Y267718
X109992Y262500
X105617Y259375
X102492Y255000
X99367Y259375
X101867Y248125
X117064Y260553
X119367Y257500
X92865Y286298
X56685Y245656
X56242Y236250
X49367Y239375
X48117Y250138
X39367Y253750
X38742Y246875
X39367Y261250
X43117Y266875
X34611Y280922
X113742Y338125
X171242Y320625
X181867Y319375
X186242Y318125
X193635Y306556
X188742Y295625
X188492Y291625
X187900Y286104
X186367Y278500
X178361Y280922
X181867Y296250
X171242Y305625
X203117Y325625
X188117Y340625
X189381Y351962
X194175Y355082
X178742Y353437
X222531Y327505
X226867Y315625
X244992Y306250
X245617Y295625
X246242Y290625
X246926Y286250
X250198Y280651
X246867Y279375
X244552Y270596
X244336Y266173
X249424Y265175
X249800Y269432
X254953Y267718
X253742Y262500
X249367Y259375
X246242Y255000
X243117Y259375
X245617Y248125
X260814Y260553
X263117Y257500
X242346Y226568
X250429Y221875
X230168Y227017
X224992Y236875
X216867Y240000
X218742Y252500
X221867Y256875
X218742Y268750
X224011Y275835
X211242Y276250
X236615Y286298
X200435Y245656
X199992Y236250
X193117Y239375
X191867Y250138
X183117Y253750
X182492Y246875
X183117Y261250
X186867Y266875
X232348Y187481
X230360Y180291
X226867Y180000
X233117Y178125
X236272Y180317
X267467Y135000
X274342Y134375
X281842Y134375
X287467Y130625
X299092Y131125
X306695Y129591
X312217Y129000
X316217Y128750
X316842Y135625
X326217Y146250
X341217Y146250
X339967Y135625
X338717Y131250
X327148Y123857
X346217Y114375
X361217Y129375
X372553Y128111
X375673Y123316
X374029Y138750
X378117Y178125
X375360Y180291
X371867Y180000
X377348Y187481
X381272Y180317
X395429Y221875
X387346Y226568
X375168Y227017
X369992Y236875
X361867Y240000
X363742Y252500
X366867Y256875
X363742Y268750
X369011Y275835
X356242Y276250
X332900Y286104
X333492Y291625
X333742Y295625
X326867Y296250
X316242Y305625
X316242Y320625
X326867Y319375
X331242Y318125
X338635Y306556
X348117Y325625
X333117Y340625
X334381Y351962
X339175Y355082
X323742Y353437
X367531Y327505
X371867Y315625
X389992Y306250
X390617Y295625
X391242Y290625
X391926Y286250
X395198Y280651
X391867Y279375
X389552Y270596
X389336Y266173
X394424Y265175
X394800Y269432
X399953Y267718
X398742Y262500
X394367Y259375
X391242Y255000
X388117Y259375
X390617Y248125
X405814Y260553
X408117Y257500
X381615Y286298
X345435Y245656
X344992Y236250
X338117Y239375
X336867Y250138
X328117Y253750
X327492Y246875
X328117Y261250
X331867Y266875
X331367Y278500
X323361Y280922
X257492Y338125
X233117Y426875
X230360Y429041
X226867Y428750
X232348Y436231
X236272Y429067
X250429Y470625
X242346Y475318
X230168Y475767
X224992Y485625
X216867Y488750
X218742Y501250
X221867Y505625
X218742Y517500
X224011Y524585
X211242Y525000
X187900Y534854
X188492Y540375
X188742Y544375
X181867Y545000
X171242Y554375
X171242Y569375
X181867Y568125
X186242Y566875
X193635Y555306
X203117Y574375
X222531Y576255
X226867Y564375
X244992Y555000
X245617Y544375
X246242Y539375
X246926Y535000
X250198Y529401
X246867Y528125
X244552Y519346
X244336Y514923
X249424Y513925
X249800Y518182
X254953Y516468
X253742Y511250
X249367Y508125
X246242Y503750
X243117Y508125
X245617Y496875
X260814Y509303
X263117Y506250
X236615Y535048
X200435Y494406
X199992Y485000
X193117Y488125
X191867Y498888
X183117Y502500
X182492Y495625
X183117Y510000
X186867Y515625
X186367Y527250
X178361Y529672
X188117Y589375
X189381Y600712
X194175Y603832
X178742Y602188
X226867Y677500
X230360Y677791
X233117Y675625
X236272Y677817
X232348Y684981
X250429Y719375
X242346Y724068
X230168Y724517
X224992Y734375
X216867Y737500
X218742Y750000
X221867Y754375
X218742Y766250
X224011Y773335
X211242Y773750
X187900Y783604
X188492Y789125
X188742Y793125
X181867Y793750
X171242Y803125
X186242Y815625
X181867Y816875
X171242Y818125
X188117Y838125
X189381Y849462
X194175Y852582
X178742Y850937
X203117Y823125
X193635Y804056
X186367Y776000
X178361Y778422
X186867Y764375
X183117Y758750
X183117Y751250
X182492Y744375
X191867Y747638
X200435Y743156
X199992Y733750
X193117Y736875
X236615Y783798
X246926Y783750
X246242Y788125
X245617Y793125
X244992Y803750
X226867Y813125
X222531Y825005
X257492Y835625
X250198Y778151
X246867Y776875
X244552Y768096
X244336Y763673
X249424Y762675
X249800Y766932
X254953Y765218
X253742Y760000
X249367Y756875
X246242Y752500
X243117Y756875
X245617Y745625
X260814Y758053
X263117Y755000
X316242Y803125
X326867Y793750
X333742Y793125
X333492Y789125
X332900Y783604
X331367Y776000
X323361Y778422
X331867Y764375
X328117Y758750
X328117Y751250
X327492Y744375
X336867Y747638
X345435Y743156
X344992Y733750
X338117Y736875
X361867Y737500
X369992Y734375
X375168Y724517
X387346Y724068
X395429Y719375
X377348Y684981
X375360Y677791
X371867Y677500
X378117Y675625
X381272Y677817
X390617Y745625
X391242Y752500
X394367Y756875
X398742Y760000
X394424Y762675
X394800Y766932
X389552Y768096
X389336Y763673
X388117Y756875
X399953Y765218
X405814Y758053
X408117Y755000
X395198Y778151
X391867Y776875
X391926Y783750
X391242Y788125
X390617Y793125
X389992Y803750
X381615Y783798
X369011Y773335
X363742Y766250
X356242Y773750
X366867Y754375
X363742Y750000
X338635Y804056
X331242Y815625
X326867Y816875
X316242Y818125
X333117Y838125
X334381Y849462
X339175Y852582
X323742Y850937
X348117Y823125
X367531Y825005
X371867Y813125
X402492Y835625
X339175Y603832
X334381Y600712
X323742Y602188
X333117Y589375
X348117Y574375
X338635Y555306
X333742Y544375
X333492Y540375
X332900Y534854
X331367Y527250
X323361Y529672
X326867Y545000
X316242Y554375
X316242Y569375
X326867Y568125
X331242Y566875
X367531Y576255
X371867Y564375
X389992Y555000
X390617Y544375
X391242Y539375
X391926Y535000
X395198Y529401
X391867Y528125
X389552Y519346
X389336Y514923
X394424Y513925
X394800Y518182
X399953Y516468
X398742Y511250
X394367Y508125
X391242Y503750
X388117Y508125
X390617Y496875
X405814Y509303
X408117Y506250
X387346Y475318
X395429Y470625
X375168Y475767
X369992Y485625
X361867Y488750
X363742Y501250
X366867Y505625
X363742Y517500
X369011Y524585
X356242Y525000
X381615Y535048
X345435Y494406
X344992Y485000
X338117Y488125
X336867Y498888
X328117Y502500
X327492Y495625
X328117Y510000
X331867Y515625
X377348Y436231
X375360Y429041
X371867Y428750
X378117Y426875
X381272Y429067
X402492Y338125
X301514Y139131
X296842Y106250
X289342Y98750
X296426Y93480
X306890Y80876
X306842Y70566
X311217Y71250
X316217Y71875
X326842Y72500
X336217Y90625
X348097Y94961
X358717Y60000
X301242Y67293
X299967Y70625
X291188Y72940
X286764Y73156
X285767Y68067
X290024Y67691
X288309Y62538
X283092Y63750
X279967Y68125
X275592Y71250
X279967Y74375
X268717Y71875
X278092Y54375
X281145Y56677
X277467Y95625
X273092Y98750
X260592Y100625
X257467Y92500
X247609Y87324
X247159Y75146
X242467Y67063
X208072Y85144
X200883Y87132
X200592Y90625
X198717Y84375
X200908Y81219
X256842Y117500
X259967Y124375
X266247Y117057
X270729Y125625
X89367Y426875
X86610Y429041
X83117Y428750
X88598Y436231
X92522Y429067
X106679Y470625
X98596Y475318
X86418Y475767
X81242Y485625
X73117Y488750
X74992Y501250
X78117Y505625
X74992Y517500
X80261Y524585
X67492Y525000
X42617Y527250
X44150Y534854
X44742Y540375
X44992Y544375
X38117Y545000
X27492Y554375
X27492Y569375
X38117Y568125
X42492Y566875
X49885Y555306
X59367Y574375
X78781Y576255
X83117Y564375
X101242Y555000
X101867Y544375
X102492Y539375
X103176Y535000
X106448Y529401
X103117Y528125
X100802Y519346
X100586Y514923
X105674Y513925
X106050Y518182
X111203Y516468
X109992Y511250
X105617Y508125
X102492Y503750
X99367Y508125
X101867Y496875
X117064Y509303
X119367Y506250
X92865Y535048
X56685Y494406
X56242Y485000
X49367Y488125
X48117Y498888
X39367Y502500
X38742Y495625
X39367Y510000
X43117Y515625
X34611Y529672
X44367Y589375
X45631Y600712
X50425Y603832
X34992Y602188
X83117Y677500
X86610Y677791
X89367Y675625
X92522Y677817
X88598Y684981
X106679Y719375
X98596Y724068
X86418Y724517
X81242Y734375
X73117Y737500
X74992Y750000
X78117Y754375
X74992Y766250
X80261Y773335
X67492Y773750
X42617Y776000
X44150Y783604
X44742Y789125
X44992Y793125
X38117Y793750
X27492Y803125
X27492Y818125
X38117Y816875
X42492Y815625
X49885Y804056
X59367Y823125
X44367Y838125
X45631Y849462
X50425Y852582
X34992Y850937
X78781Y825005
X83117Y813125
X101242Y803750
X101867Y793125
X102492Y788125
X103176Y783750
X106448Y778151
X103117Y776875
X100802Y768096
X100586Y763673
X105674Y762675
X106050Y766932
X111203Y765218
X109992Y760000
X105617Y756875
X102492Y752500
X99367Y756875
X101867Y745625
X117064Y758053
X119367Y755000
X92865Y783798
X43117Y764375
X39367Y758750
X39367Y751250
X38742Y744375
X48117Y747638
X56685Y743156
X56242Y733750
X49367Y736875
X34611Y778422
X113742Y835625
X113742Y586875
X257492Y586875
X402492Y586875
T02
X364399Y594386
X357303Y605803
X350231Y599983
X348242Y595500
X347789Y565013
X353492Y565000
X342253Y555794
X335992Y562250
X357492Y647250
X364992Y647250
X342531Y650806
X326867Y696250
X279975Y686996
X269230Y687034
X247804Y683866
X247699Y675309
X219992Y647250
X212492Y647250
X197531Y650806
X212303Y605803
X205231Y599983
X203242Y595500
X219399Y594386
X208492Y565000
X202789Y565013
X197253Y555794
X190992Y562250
X181867Y447500
X136225Y438246
X125480Y438284
X104054Y435116
X103949Y426559
X76242Y398500
X68742Y398500
X53781Y402056
X68553Y357053
X61481Y351233
X59492Y346750
X75649Y345636
X64742Y316250
X59039Y316263
X53503Y307044
X47242Y313500
X38117Y198750
X104054Y186366
X103949Y177809
X125480Y189534
X136225Y189496
X181867Y198750
X219342Y135625
X247699Y177809
X247804Y186366
X269230Y189534
X279975Y189496
X326867Y198750
X392804Y186366
X392699Y177809
X414230Y189534
X424975Y189496
X422647Y119960
X419092Y105000
X419092Y97500
X377644Y105189
X371824Y112261
X367342Y114250
X366228Y98092
X336842Y109000
X336855Y114702
X327636Y120239
X334092Y126500
X210126Y48262
X210087Y37517
X206957Y69688
X198401Y69793
X197253Y307044
X190992Y313500
X202789Y316263
X208492Y316250
X203242Y346750
X205231Y351233
X212303Y357053
X219399Y345636
X219992Y398500
X212492Y398500
X197531Y402056
X247699Y426559
X247804Y435116
X269230Y438284
X279975Y438246
X326867Y447500
X342531Y402056
X357492Y398500
X364992Y398500
X392699Y426559
X392804Y435116
X414230Y438284
X424975Y438246
X357303Y357053
X350231Y351233
X348242Y346750
X364399Y345636
X353492Y316250
X347789Y316263
X342253Y307044
X335992Y313500
X75649Y594386
X68553Y605803
X61481Y599983
X59492Y595500
X59039Y565013
X64742Y565000
X53503Y555794
X47242Y562250
X68742Y647250
X76242Y647250
X53781Y650806
X38117Y696250
X104054Y683866
X103949Y675309
X125480Y687034
X136225Y686996
X181867Y696250
X197253Y804544
X190992Y811000
X202789Y813763
X208492Y813750
X203242Y844250
X205231Y848733
X212303Y854553
X219399Y843136
X219992Y896000
X212492Y896000
X197531Y899556
X207792Y924700
X201542Y940950
X207805Y943925
X207792Y950950
X212167Y963137
X210476Y966471
X225274Y984420
X233104Y986575
X225229Y998791
X253417Y974075
X248104Y967200
X252476Y950950
X252167Y946575
X259052Y951015
X262792Y946575
X281542Y935325
X325292Y940950
X331555Y943925
X331542Y950950
X335917Y963137
X334226Y966471
X349024Y984420
X356854Y986575
X348979Y998791
X377167Y974075
X371854Y967200
X376226Y950950
X375917Y946575
X382802Y951015
X386542Y946575
X405292Y935325
X364992Y896000
X357492Y896000
X342531Y899556
X331542Y924700
X357303Y854553
X350231Y848733
X348242Y844250
X364399Y843136
X353492Y813750
X347789Y813763
X342253Y804544
X335992Y811000
X392804Y683866
X392699Y675309
X414230Y687034
X424975Y686996
X501542Y836200
X501542Y856200
X157792Y935325
X139042Y946575
X135302Y951015
X128726Y950950
X128417Y946575
X124354Y967200
X129667Y974075
X109354Y986575
X101524Y984420
X101479Y998791
X86726Y966471
X88417Y963137
X84042Y950950
X84055Y943925
X77792Y940950
X84042Y924700
X76242Y896000
X68742Y896000
X53781Y899556
X68553Y854553
X61481Y848733
X59492Y844250
X75649Y843136
X64742Y813750
X59039Y813763
X53503Y804544
X47242Y811000
X38117Y447500
X989042Y369450
X989042Y349450
T03
X896692Y183150
X343143Y194999
X335199Y186774
X215590Y119349
X207366Y127292
X190199Y186774
X198143Y194999
X54393Y194999
X46449Y186774
X46449Y435524
X54393Y443749
X190199Y435524
X198143Y443749
X335199Y435524
X343143Y443749
X335199Y684274
X343143Y692499
X198143Y692499
X190199Y684274
X54393Y692499
X46449Y684274
X97792Y933450
X109506Y933906
X102704Y944732
X91381Y955958
X93729Y963450
X103203Y964528
X107116Y964525
X116542Y967200
X118768Y986419
X128412Y988842
X129015Y997895
X135128Y1010940
X132167Y1014075
X130090Y1041017
X136228Y1047068
X131542Y1063138
X128858Y1068326
X128753Y1079722
X133183Y1079805
X117167Y1057200
X99370Y1072154
X94042Y1029700
X94667Y1021262
X96542Y1017825
X96229Y1012825
X104979Y1012200
X110308Y997841
X88417Y991575
X86772Y1001671
X87792Y1021575
X89042Y979075
X89042Y972825
X81542Y967200
X76420Y967200
X81542Y978450
X99042Y975637
X127792Y935012
X150292Y947200
X158066Y962454
X150265Y967602
X157792Y972200
X158253Y980032
X157167Y989387
X159282Y1007116
X162792Y1011749
X159971Y1015227
X157571Y1018853
X170981Y1017097
X171005Y1020974
X170981Y1013179
X184318Y1027756
X182347Y1033339
X179042Y1044075
X170917Y1039700
X166542Y1062200
X171542Y1064700
X161542Y1068450
X157052Y1071913
X156542Y1062200
X164042Y1107200
X223120Y1072154
X240917Y1057200
X255292Y1063138
X252608Y1068326
X252503Y1079722
X256933Y1079805
X280292Y1062200
X285292Y1068450
X280802Y1071913
X290292Y1062200
X295292Y1064700
X302792Y1044075
X294667Y1039700
X306097Y1033339
X308068Y1027756
X294755Y1020974
X294731Y1017097
X294731Y1013179
X286542Y1011749
X283721Y1015227
X281321Y1018853
X283032Y1007116
X280917Y989387
X282003Y980032
X281542Y972200
X274015Y967602
X281816Y962454
X274042Y947200
X292792Y943450
X299667Y945950
X292799Y930452
X323920Y967200
X329042Y967200
X336542Y972825
X336542Y979075
X329042Y978450
X335917Y991575
X334272Y1001671
X343729Y1012825
X344042Y1017825
X342167Y1021262
X335292Y1021575
X341542Y1029700
X352479Y1012200
X357808Y997841
X366268Y986419
X375912Y988842
X376515Y997895
X382628Y1010940
X379667Y1014075
X405071Y1018853
X407471Y1015227
X410292Y1011749
X406782Y1007116
X418481Y1013179
X418481Y1017097
X418505Y1020974
X431818Y1027756
X429847Y1033339
X426542Y1044075
X418417Y1039700
X414042Y1062200
X419042Y1064700
X409042Y1068450
X404552Y1071913
X404042Y1062200
X379042Y1063138
X376358Y1068326
X376253Y1079722
X380683Y1079805
X364667Y1057200
X383728Y1047068
X377590Y1041017
X346870Y1072154
X287792Y1107200
X259978Y1047068
X253840Y1041017
X255917Y1014075
X258878Y1010940
X252765Y997895
X252162Y988842
X242518Y986419
X234058Y997841
X228729Y1012200
X219979Y1012825
X220292Y1017825
X218417Y1021262
X211542Y1021575
X217792Y1029700
X210522Y1001671
X212167Y991575
X212792Y979075
X212792Y972825
X205292Y967200
X200170Y967200
X205292Y978450
X217479Y963450
X215131Y955958
X226953Y964528
X230866Y964525
X240292Y967200
X222792Y975637
X226454Y944732
X221542Y933450
X233256Y933906
X251542Y935012
X175917Y945950
X169042Y943450
X169049Y930452
X338881Y955958
X341229Y963450
X350703Y964528
X354616Y964525
X364042Y967200
X346542Y975637
X350204Y944732
X345292Y933450
X357006Y933906
X375292Y935012
X397792Y947200
X405566Y962454
X397765Y967602
X405292Y972200
X405753Y980032
X404667Y989387
X423417Y945950
X416542Y943450
X416549Y930452
X411542Y1107200
X593892Y1022500
T04
X323310Y1012452
X199560Y1012452
X75810Y1012452
X121867Y685000
X265617Y685000
X410617Y685000
X410617Y436250
X265617Y436250
X121867Y436250
X121867Y187500
X208092Y51875
X265617Y187500
X410617Y187500
T05
X729992Y353650
X752592Y349850
X848892Y333350
X879192Y328750
X760592Y852000
X737992Y855800
X641692Y872300
X611392Y876900
T06
X605292Y881200
X610292Y884637
X599354Y887762
X599667Y878700
X596229Y874950
X600604Y871200
X607792Y903700
X632792Y891200
X647792Y891200
X671854Y881200
X673729Y871200
X674042Y858075
X674042Y852450
X674042Y846825
X674042Y841200
X657792Y866200
X675604Y891200
X687792Y885887
X672792Y911200
X645292Y928700
X635292Y956200
X645917Y960262
X652792Y978700
X662792Y978700
X652792Y989637
X665292Y1007657
X652792Y1038700
X612792Y1021200
X607792Y1031200
X605292Y1003700
X615292Y993700
X582792Y993700
X580292Y986200
X582792Y971200
X605292Y933700
X580292Y923700
X547792Y897137
X532792Y859950
X532792Y853700
X532792Y847450
X532792Y841200
X532792Y831200
X532792Y811200
X532792Y791200
X504042Y769325
X492167Y798700
X416766Y801069
X396867Y801250
X395992Y818500
X386992Y818500
X371867Y803750
X364992Y793750
X334367Y798125
X332492Y806250
X347947Y834199
X323293Y896236
X278604Y849629
X250992Y818500
X241992Y818500
X251867Y801250
X271766Y801069
X279547Y754865
X249992Y702500
X221206Y708423
X214449Y708868
X215950Y700838
X215791Y696244
X219945Y694200
X205878Y694213
X185617Y684375
X178117Y684375
X180617Y722500
X180617Y728125
X135797Y754865
X128016Y801069
X108117Y801250
X107242Y818500
X98242Y818500
X83117Y803750
X76242Y793750
X45617Y798125
X43742Y806250
X59197Y834199
X34543Y896236
X113609Y901185
X134854Y849629
X178293Y896236
X202947Y834199
X187492Y806250
X189367Y798125
X219992Y793750
X226867Y803750
X257359Y901185
X402359Y901185
X423604Y849629
X488104Y889325
X547167Y949950
X525803Y1001397
X585292Y1101200
X589042Y1109950
X602792Y1106200
X610292Y1086200
X637792Y1086200
X710292Y1021200
X770292Y1011200
X787792Y1011200
X800292Y996200
X820292Y998700
X825292Y1016200
X837792Y1001200
X855292Y1001200
X872792Y996200
X875292Y981200
X885292Y981200
X860292Y983700
X837792Y976200
X830292Y968700
X815292Y956200
X791542Y951512
X780292Y966200
X802792Y981200
X805292Y1023700
X850292Y1038700
X865292Y1054212
X877792Y1028700
X942792Y1046200
X942792Y993700
X970292Y948700
X980917Y946825
X992792Y951200
X1000292Y933075
X1000292Y978700
X984354Y978700
X959979Y904950
X955292Y901200
X955292Y891200
X952792Y876200
X957792Y871200
X970292Y866200
X982792Y871200
X982792Y886200
X960292Y851512
X953417Y850575
X958417Y841825
X956542Y831200
X970292Y846200
X955292Y811200
X955292Y791200
X930292Y851200
X930292Y871200
X930292Y881200
X897792Y941200
X850292Y951200
X814042Y901200
X812792Y893700
X814042Y880575
X790292Y869637
X790292Y847137
X811542Y851200
X815917Y846200
X814667Y840575
X815292Y831200
X815292Y811200
X815292Y791200
X840917Y851200
X840917Y861200
X785292Y916200
X782792Y929325
X777792Y928700
X752792Y943700
X745292Y943700
X700917Y915575
X670292Y948700
X730292Y876200
X730292Y866200
X725292Y853700
X747792Y871200
X762792Y871200
X767792Y866200
X641229Y722762
X630292Y726200
X653729Y710262
X670292Y688700
X666229Y675263
X649042Y636200
X659979Y625263
X694354Y635575
X687792Y576450
X697792Y574450
X717479Y569763
X747792Y568825
X752792Y516950
X762792Y516950
X772792Y516950
X782792Y516950
X782792Y494450
X792792Y494450
X792479Y486012
X772792Y494450
X762792Y494450
X752792Y494450
X742792Y494450
X717792Y516950
X707792Y514450
X695292Y513200
X685292Y514450
X662792Y531950
X657792Y541950
X657292Y569450
X631854Y647763
X615292Y647763
X607792Y658700
X600292Y653700
X595292Y658700
X595292Y676825
X600292Y688700
X605292Y703700
X600292Y721200
X619667Y821825
X698104Y719637
X697792Y711200
X707792Y711200
X717792Y711200
X727792Y711200
X737792Y711200
X747792Y711200
X737792Y688700
X727792Y688700
X717792Y688700
X707792Y688700
X742792Y636825
X773104Y635888
X792792Y631200
X802792Y629200
X833292Y636200
X832792Y663700
X827792Y673700
X805292Y691200
X795292Y692450
X782792Y691200
X772792Y688700
X830604Y580388
X841542Y569450
X858729Y557888
X875292Y557888
X882792Y546950
X890292Y551950
X895292Y546950
X895292Y528825
X890292Y516950
X885292Y501950
X890292Y484450
X860292Y479450
X849354Y482887
X836854Y495387
X820292Y516950
X824354Y530388
X796229Y570075
X675292Y414450
X675292Y394450
X675292Y374450
X675917Y365075
X674667Y359450
X679042Y354450
X700292Y358512
X700292Y336013
X722792Y339450
X727792Y334450
X742792Y334450
X760292Y329450
X760292Y339450
X765292Y351950
X802792Y319763
X814979Y314450
X818729Y324450
X816854Y334450
X816542Y347575
X816542Y353200
X816542Y358825
X816542Y364450
X832792Y339450
X842792Y314450
X857792Y314450
X880292Y321013
X885292Y324450
X890917Y326950
X894354Y330700
X889979Y334450
X891229Y317888
X882792Y301950
X885292Y271950
X910292Y281950
X942792Y308513
X957792Y345700
X957792Y351950
X957792Y358200
X957792Y364450
X957792Y374450
X957792Y394450
X957792Y414450
X986542Y436325
X998417Y406950
X1002479Y316325
X943417Y255700
X907792Y234450
X910292Y219450
X907792Y211950
X885292Y201950
X875292Y211950
X877792Y184450
X882792Y174450
X837792Y166950
X825292Y197993
X837792Y216012
X837792Y226950
X827792Y226950
X844667Y245387
X855292Y249450
X845292Y276950
X820292Y256950
X817792Y294450
X789667Y290075
X745292Y261950
X737792Y261950
X712792Y276950
X707792Y276325
X705292Y289450
X676542Y304450
X677792Y311950
X676542Y325075
X649667Y344450
X649667Y354450
X592792Y264450
X605292Y224450
X615292Y224450
X630292Y221950
X617792Y209450
X635292Y204450
X652792Y204450
X670292Y206950
X665292Y189450
X685292Y181950
X702792Y194450
X690292Y209450
X687792Y224450
X710292Y239450
X699042Y254137
X675292Y249450
X660292Y236950
X652792Y229450
X640292Y254450
X612792Y176950
X625292Y151438
X640292Y166950
X720292Y194450
X780292Y184450
X852792Y119450
X880292Y119450
X887792Y99450
X901542Y95700
X905292Y104450
X964780Y204253
X870917Y383825
X560292Y354450
X560292Y334450
X560292Y324450
X537792Y329450
X532792Y334450
X520292Y339450
X530292Y354137
X537167Y355075
X532167Y363825
X534042Y374450
X535292Y394450
X535292Y414450
X520292Y359450
X507792Y334450
X507792Y319450
X535292Y314450
X535292Y304450
X530604Y300700
X520292Y256950
X509667Y258825
X497792Y254450
X490292Y272575
X490292Y226950
X506229Y226950
X547792Y211950
X547792Y159450
X419328Y139199
X364945Y196700
X360791Y198744
X360950Y203338
X359449Y211368
X366206Y210923
X350878Y196713
X330617Y186875
X323117Y186875
X325617Y225000
X325617Y230625
X279547Y257365
X271766Y303569
X251867Y303750
X250992Y321000
X241992Y321000
X226867Y306250
X219992Y296250
X189367Y300625
X187492Y308750
X202947Y336699
X178293Y398736
X178117Y435625
X185617Y435625
X205878Y445463
X215791Y447494
X215950Y452088
X219945Y445450
X221206Y459673
X214449Y460118
X180617Y473750
X180617Y479375
X135797Y506115
X128016Y552319
X108117Y552500
X107242Y569750
X98242Y569750
X83117Y555000
X76242Y545000
X45617Y549375
X43742Y557500
X59197Y585449
X34543Y647486
X34367Y684375
X41867Y684375
X62128Y694213
X72041Y696244
X72200Y700838
X76195Y694200
X77456Y708423
X70699Y708868
X36867Y722500
X36867Y728125
X106242Y702500
X113609Y652435
X134854Y600879
X178293Y647486
X202947Y585449
X187492Y557500
X189367Y549375
X219992Y545000
X226867Y555000
X241992Y569750
X250992Y569750
X251867Y552500
X271766Y552319
X279547Y506115
X325617Y479375
X325617Y473750
X350878Y445463
X360791Y447494
X360950Y452088
X364945Y445450
X366206Y459673
X359449Y460118
X330617Y435625
X323117Y435625
X323293Y398736
X278604Y352129
X257359Y403685
X249992Y453750
X334367Y549375
X332492Y557500
X347947Y585449
X371867Y555000
X364992Y545000
X386992Y569750
X395992Y569750
X396867Y552500
X416766Y552319
X424547Y506115
X394992Y453750
X402359Y403685
X423604Y352129
X395992Y321000
X386992Y321000
X396867Y303750
X416766Y303569
X424547Y257365
X394992Y205000
X364992Y296250
X371867Y306250
X334367Y300625
X332492Y308750
X347947Y336699
X249992Y205000
X221206Y210923
X214449Y211368
X215950Y203338
X215791Y198744
X219945Y196700
X205878Y196713
X185617Y186875
X178117Y186875
X180617Y225000
X180617Y230625
X135797Y257365
X128016Y303569
X108117Y303750
X107242Y321000
X98242Y321000
X83117Y306250
X76242Y296250
X45617Y300625
X43742Y308750
X59197Y336699
X34543Y398736
X34367Y435625
X41867Y435625
X62128Y445463
X72041Y447494
X72200Y452088
X76195Y445450
X77456Y459673
X70699Y460118
X36867Y473750
X36867Y479375
X106242Y453750
X113609Y403685
X134854Y352129
X36867Y230625
X36867Y225000
X62128Y196713
X72041Y198744
X72200Y203338
X76195Y196700
X77456Y210923
X70699Y211368
X41867Y186875
X34367Y186875
X106242Y205000
X207467Y139375
X207467Y131875
X217305Y111614
X219335Y101701
X223930Y101542
X217292Y97546
X231515Y96286
X231960Y103043
X225592Y67500
X277956Y37945
X324161Y45726
X324342Y65625
X341592Y66500
X341592Y75500
X326842Y90625
X316842Y97500
X321217Y128125
X329342Y130000
X357290Y114544
X372720Y38888
X424277Y60132
X251217Y136875
X245592Y136875
X278604Y600879
X257359Y652435
X323293Y647486
X323117Y684375
X330617Y684375
X350878Y694213
X360791Y696244
X360950Y700838
X364945Y694200
X366206Y708423
X359449Y708868
X325617Y722500
X325617Y728125
X394992Y702500
X402359Y652435
X423604Y600879
X424547Y754865
T07
X365617Y834375
X366390Y863665
X365304Y907187
X475292Y941200
X500292Y1066200
X431542Y1082200
X423599Y1083834
X423599Y1091708
X423599Y1099582
X423599Y1107456
X423599Y1115330
X423599Y1123204
X423599Y1131078
X423599Y1138952
X423599Y1146826
X431542Y1102200
X431542Y1092200
X423599Y1075960
X336985Y1075960
X336985Y1083834
X336985Y1091708
X336985Y1099582
X336985Y1107456
X336985Y1115330
X336985Y1123204
X336985Y1131078
X336985Y1138952
X336985Y1146826
X298599Y1146826
X298599Y1138952
X298599Y1131078
X298599Y1123204
X298599Y1115330
X298599Y1107456
X298599Y1099582
X298599Y1091708
X298599Y1083834
X298599Y1075960
X307792Y1082200
X307792Y1092200
X307792Y1102200
X211985Y1099582
X211985Y1107456
X211985Y1115330
X211985Y1123204
X211985Y1131078
X211985Y1138952
X211985Y1146826
X174849Y1146826
X174849Y1138952
X174849Y1131078
X174849Y1123204
X174849Y1115330
X174849Y1107456
X174849Y1099582
X174849Y1091708
X174849Y1083834
X174849Y1075960
X184042Y1082200
X184042Y1092200
X184042Y1102200
X211985Y1091708
X211985Y1083834
X211985Y1075960
X88235Y1075960
X88235Y1083834
X88235Y1091708
X88235Y1099582
X88235Y1107456
X88235Y1115330
X88235Y1123204
X88235Y1131078
X88235Y1138952
X88235Y1146826
X76554Y907187
X77640Y863665
X76867Y834375
X220617Y834375
X221390Y863665
X220304Y907187
X220304Y658438
X221390Y614915
X220617Y585625
X76867Y585625
X77640Y614915
X76554Y658438
X76554Y409687
X77640Y366165
X76867Y336875
X220617Y336875
X221390Y366165
X220304Y409687
X365304Y409687
X366390Y366165
X365617Y336875
X357467Y96875
X386757Y96102
X430279Y97187
X590292Y99450
X702792Y201950
X770292Y211950
X770292Y226950
X807792Y236950
X810292Y221950
X820292Y174450
X877792Y254450
X816542Y374450
X816542Y394450
X815292Y414450
X852044Y579450
X859918Y579450
X867792Y579450
X875666Y579450
X883540Y579450
X900292Y576950
X900292Y589450
X675292Y791200
X674042Y811200
X674042Y831200
X612792Y951200
X670292Y1031200
X680292Y983700
X682792Y968700
X720292Y978700
X720292Y993700
X787792Y1003700
X900292Y1106200
X580292Y1106200
X580292Y1116200
X580292Y1126200
X365304Y658438
X366390Y614915
X365617Y585625
X590292Y616200
X590292Y628700
X607044Y626200
X614918Y626200
X622792Y626200
X630666Y626200
X638540Y626200
X1015292Y264450
X990292Y139450
X910292Y99450
X910292Y89450
X910292Y79450
T08
X912792Y129450
X932792Y129450
X867792Y514450
X867792Y534450
X912792Y536950
X912792Y516950
X922792Y653700
X922792Y673700
X907792Y693700
X907792Y713700
X945292Y713700
X945292Y693700
X622792Y691200
X622792Y671200
X577792Y668700
X577792Y688700
X567792Y551950
X567792Y531950
X582792Y511950
X582792Y491950
X545292Y491950
X545292Y511950
X557792Y1076200
X577792Y1076200
T09
X576729Y650137
X568855Y650137
X913855Y555513
X921729Y555513
X991355Y989763
X991355Y997637
X991355Y1037263
X991355Y1045137
X499229Y215887
X499229Y208013
X499229Y168387
X499229Y160513
T10
X557792Y136950
X567792Y136950
X420617Y205625
X420617Y215625
X420617Y225625
X420617Y235625
X420617Y245625
X410617Y245625
X410617Y235625
X410617Y225625
X410617Y215625
X410617Y205625
X275617Y205625
X275617Y215625
X275617Y225625
X275617Y235625
X275617Y245625
X265617Y245625
X265617Y235625
X265617Y225625
X265617Y215625
X265617Y205625
X131867Y205625
X131867Y215625
X131867Y225625
X131867Y235625
X131867Y245625
X121867Y245625
X121867Y235625
X121867Y225625
X121867Y215625
X121867Y205625
X226217Y51875
X236217Y51875
X246217Y51875
X256217Y51875
X266217Y51875
X266217Y41875
X256217Y41875
X246217Y41875
X236217Y41875
X226217Y41875
X265617Y454375
X275617Y454375
X275617Y464375
X275617Y474375
X275617Y484375
X275617Y494375
X265617Y494375
X265617Y484375
X265617Y474375
X265617Y464375
X131867Y464375
X131867Y454375
X121867Y454375
X121867Y464375
X121867Y474375
X131867Y474375
X131867Y484375
X131867Y494375
X121867Y494375
X121867Y484375
X121867Y703125
X131867Y703125
X131867Y713125
X131867Y723125
X131867Y733125
X131867Y743125
X121867Y743125
X121867Y733125
X121867Y723125
X121867Y713125
X265617Y713125
X275617Y713125
X275617Y703125
X265617Y703125
X265617Y723125
X275617Y723125
X275617Y733125
X275617Y743125
X265617Y743125
X265617Y733125
X410617Y733125
X420617Y733125
X420617Y743125
X410617Y743125
X410617Y723125
X420617Y723125
X420617Y713125
X420617Y703125
X410617Y703125
X410617Y713125
X410617Y494375
X420617Y494375
X420617Y484375
X420617Y474375
X420617Y464375
X420617Y454375
X410617Y454375
X410617Y464375
X410617Y474375
X410617Y484375
X411542Y954700
X421542Y954700
X421542Y964700
X421542Y974700
X421542Y984700
X421542Y994700
X411542Y994700
X411542Y984700
X411542Y974700
X411542Y964700
X297792Y964700
X297792Y954700
X287792Y954700
X287792Y964700
X287792Y974700
X297792Y974700
X297792Y984700
X297792Y994700
X287792Y994700
X287792Y984700
X174042Y984700
X174042Y994700
X164042Y994700
X164042Y984700
X164042Y974700
X174042Y974700
X174042Y964700
X174042Y954700
X164042Y954700
X164042Y964700
X922792Y1068700
X932792Y1068700
T11
X502792Y1046043
X502792Y1026357
X987792Y179293
X987792Y159607
T12
X962792Y116950
X913294Y67453
X587289Y67453
X537792Y116950
X527792Y1088700
X577289Y1138197
X903294Y1138197
X952792Y1088700
T13
X512792Y1004700
X512792Y986200
X512792Y967700
X475292Y960200
X475292Y1012200
X1015292Y245450
X977792Y237950
X977792Y219450
X977792Y200950
X1015292Y193450
T14
X815370Y107324
X815370Y67324
X674032Y67324
X674032Y107324
X675213Y1098326
X675213Y1138326
X816552Y1138326
X816552Y1098326
T15
X744795Y1175976
X970989Y1070499
X1004638Y880700
X953587Y671909
X954580Y533741
X995946Y282450
X971983Y135151
X745789Y29674
X519595Y135151
X485946Y324950
X536997Y533741
X536004Y671909
X494638Y923200
X518601Y1070499
M30
