%
M48
M72
T01C0.01181
T02C0.01500
T03C0.01600
T04C0.01969
T05C0.02300
T06C0.02362
T07C0.03150
T08C0.03200
T09C0.03937
T10C0.04000
T11C0.04700
T12C0.05000
T13C0.07874
T14C0.07900
T15C0.12500
%
T01
X250429Y215636
X242346Y220328
X230168Y220778
X224992Y230636
X216867Y233761
X218742Y246261
X221867Y250636
X218742Y262511
X224011Y269595
X211242Y270011
X186367Y272261
X187900Y279864
X188492Y285386
X188742Y289386
X181867Y290011
X171242Y299386
X171242Y314386
X181867Y313136
X186242Y311886
X193635Y300317
X203117Y319386
X188117Y334386
X189381Y345722
X194175Y348842
X178742Y347198
X106679Y464386
X98596Y469078
X101867Y490636
X102492Y497511
X105617Y501886
X109992Y505011
X105674Y507686
X106050Y511943
X100802Y513107
X100586Y508683
X99367Y501886
X111203Y510228
X117064Y503063
X119367Y500011
X106448Y523161
X103117Y521886
X103176Y528761
X102492Y533136
X101867Y538136
X101242Y548761
X92865Y528809
X80261Y518345
X74992Y511261
X67492Y518761
X78117Y499386
X74992Y495011
X73117Y482511
X81242Y479386
X86418Y469528
X56242Y478761
X49367Y481886
X56685Y488166
X48117Y492648
X39367Y496261
X38742Y489386
X39367Y503761
X43117Y509386
X42617Y521011
X44150Y528614
X44742Y534136
X44992Y538136
X38117Y538761
X27492Y548136
X27492Y563136
X38117Y561886
X42492Y560636
X49885Y549067
X59367Y568136
X44367Y583136
X45631Y594472
X50425Y597592
X34992Y595948
X78781Y570016
X83117Y558136
X113742Y580636
X171242Y563136
X181867Y561886
X186242Y560636
X193635Y549067
X188742Y538136
X188492Y534136
X187900Y528614
X186367Y521011
X178361Y523433
X181867Y538761
X171242Y548136
X203117Y568136
X188117Y583136
X189381Y594472
X194175Y597592
X178742Y595948
X222531Y570016
X226867Y558136
X244992Y548761
X245617Y538136
X246242Y533136
X246926Y528761
X250198Y523161
X246867Y521886
X244552Y513107
X244336Y508683
X249424Y507686
X249800Y511943
X254953Y510228
X253742Y505011
X249367Y501886
X246242Y497511
X243117Y501886
X245617Y490636
X242346Y469078
X250429Y464386
X230168Y469528
X224992Y479386
X216867Y482511
X218742Y495011
X221867Y499386
X218742Y511261
X224011Y518345
X211242Y518761
X186867Y509386
X183117Y503761
X183117Y496261
X182492Y489386
X191867Y492648
X200435Y488166
X199992Y478761
X193117Y481886
X236615Y528809
X260814Y503063
X263117Y500011
X316242Y563136
X326867Y561886
X331242Y560636
X338635Y549067
X333742Y538136
X333492Y534136
X332900Y528614
X331367Y521011
X323361Y523433
X326867Y538761
X316242Y548136
X348117Y568136
X367531Y570016
X371867Y558136
X389992Y548761
X390617Y538136
X391242Y533136
X391926Y528761
X395198Y523161
X391867Y521886
X389552Y513107
X389336Y508683
X394424Y507686
X394800Y511943
X399953Y510228
X398742Y505011
X394367Y501886
X391242Y497511
X388117Y501886
X390617Y490636
X405814Y503063
X408117Y500011
X387346Y469078
X395429Y464386
X375168Y469528
X369992Y479386
X361867Y482511
X363742Y495011
X366867Y499386
X363742Y511261
X369011Y518345
X381615Y528809
X356242Y518761
X331867Y509386
X328117Y503761
X328117Y496261
X327492Y489386
X336867Y492648
X345435Y488166
X344992Y478761
X338117Y481886
X377348Y429991
X375360Y422802
X371867Y422511
X378117Y420636
X381272Y422827
X171242Y796886
X181867Y787511
X188742Y786886
X188492Y782886
X187900Y777364
X186367Y769761
X178361Y772183
X186867Y758136
X183117Y752511
X183117Y745011
X182492Y738136
X191867Y741398
X200435Y736916
X199992Y727511
X193117Y730636
X216867Y731261
X224992Y728136
X230168Y718278
X242346Y717828
X250429Y713136
X245617Y739386
X246242Y746261
X249367Y750636
X253742Y753761
X249424Y756436
X249800Y760693
X244552Y761857
X244336Y757433
X243117Y750636
X254953Y758978
X260814Y751813
X263117Y748761
X250198Y771911
X246867Y770636
X246926Y777511
X246242Y781886
X245617Y786886
X244992Y797511
X226867Y806886
X222531Y818766
X203117Y816886
X186242Y809386
X181867Y810636
X171242Y811886
X188117Y831886
X189381Y843222
X194175Y846342
X178742Y844698
X193635Y797817
X211242Y767511
X218742Y760011
X224011Y767095
X236615Y777559
X221867Y748136
X218742Y743761
X232348Y678741
X230360Y671552
X226867Y671261
X233117Y669386
X236272Y671577
X257492Y580636
X323742Y595948
X334381Y594472
X339175Y597592
X333117Y583136
X402492Y580636
X402492Y331886
X389992Y300011
X390617Y289386
X391242Y284386
X391926Y280011
X395198Y274411
X391867Y273136
X389552Y264357
X389336Y259933
X394424Y258936
X394800Y263193
X399953Y261478
X398742Y256261
X394367Y253136
X391242Y248761
X388117Y253136
X390617Y241886
X405814Y254313
X408117Y251261
X387346Y220328
X395429Y215636
X375168Y220778
X369992Y230636
X361867Y233761
X363742Y246261
X366867Y250636
X363742Y262511
X369011Y269595
X381615Y280059
X371867Y309386
X367531Y321266
X348117Y319386
X338635Y300317
X333742Y289386
X333492Y285386
X332900Y279864
X331367Y272261
X323361Y274683
X331867Y260636
X328117Y255011
X328117Y247511
X327492Y240636
X336867Y243898
X345435Y239416
X344992Y230011
X338117Y233136
X356242Y270011
X326867Y290011
X316242Y299386
X316242Y314386
X326867Y313136
X331242Y311886
X333117Y334386
X334381Y345722
X339175Y348842
X323742Y347198
X257492Y331886
X244992Y300011
X245617Y289386
X246242Y284386
X246926Y280011
X250198Y274411
X246867Y273136
X244552Y264357
X244336Y259933
X249424Y258936
X249800Y263193
X254953Y261478
X253742Y256261
X249367Y253136
X246242Y248761
X243117Y253136
X245617Y241886
X260814Y254313
X263117Y251261
X236615Y280059
X226867Y309386
X222531Y321266
X178361Y274683
X186867Y260636
X183117Y255011
X183117Y247511
X182492Y240636
X191867Y243898
X200435Y239416
X199992Y230011
X193117Y233136
X232348Y181241
X230360Y174052
X226867Y173761
X233117Y171886
X236272Y174077
X200592Y84386
X200883Y80892
X198717Y78136
X200908Y74980
X208072Y78905
X242467Y60824
X247159Y68907
X247609Y81085
X257467Y86261
X260592Y94386
X273092Y92511
X277467Y89386
X289342Y92511
X296426Y87241
X296842Y100011
X299092Y124886
X306695Y123352
X312217Y122761
X316217Y122511
X316842Y129386
X326217Y140011
X341217Y140011
X339967Y129386
X338717Y125011
X327148Y117618
X346217Y108136
X361217Y123136
X372553Y121872
X375673Y117077
X374029Y132511
X378117Y171886
X375360Y174052
X371867Y173761
X377348Y181241
X381272Y174077
X348097Y88722
X336217Y84386
X326842Y66261
X316217Y65636
X311217Y65011
X306842Y64326
X301242Y61054
X299967Y64386
X291188Y66701
X286764Y66916
X285767Y61828
X290024Y61452
X288309Y56299
X283092Y57511
X279967Y61886
X275592Y65011
X279967Y68136
X268717Y65636
X278092Y48136
X281145Y50438
X306890Y74637
X270729Y119386
X274342Y128136
X267467Y128761
X259967Y118136
X256842Y111261
X266247Y110818
X281842Y128136
X287467Y124386
X301514Y132891
X358717Y53761
X92522Y174077
X89367Y171886
X86610Y174052
X83117Y173761
X88598Y181241
X106679Y215636
X98596Y220328
X86418Y220778
X81242Y230636
X73117Y233761
X74992Y246261
X78117Y250636
X74992Y262511
X80261Y269595
X67492Y270011
X44150Y279864
X44742Y285386
X44992Y289386
X38117Y290011
X27492Y299386
X27492Y314386
X38117Y313136
X42492Y311886
X49885Y300317
X59367Y319386
X44367Y334386
X45631Y345722
X50425Y348842
X34992Y347198
X78781Y321266
X83117Y309386
X101242Y300011
X101867Y289386
X102492Y284386
X103176Y280011
X106448Y274411
X103117Y273136
X100802Y264357
X100586Y259933
X105674Y258936
X106050Y263193
X111203Y261478
X109992Y256261
X105617Y253136
X102492Y248761
X99367Y253136
X101867Y241886
X117064Y254313
X119367Y251261
X92865Y280059
X56685Y239416
X56242Y230011
X49367Y233136
X48117Y243898
X39367Y247511
X38742Y240636
X39367Y255011
X43117Y260636
X42617Y272261
X34611Y274683
X113742Y331886
X83117Y422511
X86610Y422802
X89367Y420636
X92522Y422827
X88598Y429991
X34611Y523433
X83117Y671261
X86610Y671552
X89367Y669386
X92522Y671577
X88598Y678741
X106679Y713136
X98596Y717828
X86418Y718278
X81242Y728136
X73117Y731261
X74992Y743761
X78117Y748136
X74992Y760011
X80261Y767095
X67492Y767511
X44150Y777364
X44742Y782886
X44992Y786886
X38117Y787511
X27492Y796886
X27492Y811886
X38117Y810636
X42492Y809386
X49885Y797817
X59367Y816886
X44367Y831886
X45631Y843222
X50425Y846342
X34992Y844698
X78781Y818766
X83117Y806886
X101242Y797511
X101867Y786886
X102492Y781886
X103176Y777511
X106448Y771911
X103117Y770636
X100802Y761857
X100586Y757433
X105674Y756436
X106050Y760693
X111203Y758978
X109992Y753761
X105617Y750636
X102492Y746261
X99367Y750636
X101867Y739386
X117064Y751813
X119367Y748761
X92865Y777559
X56685Y736916
X56242Y727511
X49367Y730636
X48117Y741398
X39367Y745011
X38742Y738136
X39367Y752511
X43117Y758136
X42617Y769761
X34611Y772183
X113742Y829386
X402492Y829386
X389992Y797511
X390617Y786886
X391242Y781886
X391926Y777511
X395198Y771911
X391867Y770636
X389552Y761857
X389336Y757433
X394424Y756436
X394800Y760693
X399953Y758978
X398742Y753761
X394367Y750636
X391242Y746261
X388117Y750636
X390617Y739386
X405814Y751813
X408117Y748761
X381615Y777559
X369011Y767095
X363742Y760011
X356242Y767511
X366867Y748136
X363742Y743761
X361867Y731261
X369992Y728136
X375168Y718278
X387346Y717828
X395429Y713136
X377348Y678741
X375360Y671552
X371867Y671261
X378117Y669386
X381272Y671577
X344992Y727511
X338117Y730636
X345435Y736916
X336867Y741398
X328117Y745011
X327492Y738136
X328117Y752511
X331867Y758136
X331367Y769761
X332900Y777364
X333492Y782886
X333742Y786886
X326867Y787511
X316242Y796886
X316242Y811886
X326867Y810636
X331242Y809386
X338635Y797817
X348117Y816886
X367531Y818766
X371867Y806886
X339175Y846342
X334381Y843222
X323742Y844698
X333117Y831886
X257492Y829386
X323361Y772183
X226867Y422511
X230360Y422802
X233117Y420636
X236272Y422827
X232348Y429991
T02
X424975Y183256
X414230Y183295
X279975Y183256
X269230Y183295
X247804Y180126
X247699Y171570
X181867Y192511
X136225Y432006
X125480Y432045
X104054Y428876
X103949Y420320
X76242Y392261
X68742Y392261
X53781Y395816
X103949Y171570
X104054Y180126
X125480Y183295
X136225Y183256
X219342Y129386
X206957Y63448
X198401Y63553
X210126Y42023
X210087Y31277
X327636Y113999
X334092Y120261
X336855Y108463
X336842Y102761
X367342Y108011
X371824Y106022
X377644Y98949
X366228Y91853
X419092Y91261
X419092Y98761
X422647Y113721
X392699Y171570
X392804Y180126
X424975Y432006
X414230Y432045
X392804Y428876
X392699Y420320
X364992Y392261
X357492Y392261
X342531Y395816
X326867Y441261
X279975Y432006
X269230Y432045
X247804Y428876
X247699Y420320
X219992Y392261
X212492Y392261
X197531Y395816
X181867Y441261
X212303Y350813
X205231Y344993
X203242Y340511
X219399Y339396
X208492Y310011
X202789Y310024
X197253Y300805
X190992Y307261
X75649Y339396
X68553Y350813
X61481Y344993
X59492Y340511
X59039Y310024
X64742Y310011
X53503Y300805
X47242Y307261
X38117Y441261
X53503Y549555
X47242Y556011
X59039Y558774
X64742Y558761
X59492Y589261
X61481Y593743
X68553Y599563
X75649Y588146
X76242Y641011
X68742Y641011
X53781Y644566
X103949Y669070
X104054Y677626
X125480Y680795
X136225Y680756
X181867Y690011
X197531Y644566
X212492Y641011
X219992Y641011
X279975Y680756
X269230Y680795
X247804Y677626
X247699Y669070
X212303Y599563
X205231Y593743
X203242Y589261
X219399Y588146
X208492Y558761
X202789Y558774
X197253Y549555
X190992Y556011
X335992Y556011
X342253Y549555
X347789Y558774
X353492Y558761
X348242Y589261
X350231Y593743
X357303Y599563
X364399Y588146
X364992Y641011
X357492Y641011
X342531Y644566
X190992Y804761
X197253Y798305
X202789Y807524
X208492Y807511
X203242Y838011
X205231Y842493
X212303Y848313
X219399Y836896
X219992Y889761
X212492Y889761
X197531Y893316
X200042Y918461
X193792Y934711
X200055Y937686
X200042Y944711
X204417Y956898
X202726Y960232
X217524Y978180
X225354Y980336
X217479Y992552
X245667Y967836
X240354Y960961
X244726Y944711
X244417Y940336
X251302Y944775
X255042Y940336
X273792Y929086
X335992Y804761
X342253Y798305
X347789Y807524
X353492Y807511
X348242Y838011
X350231Y842493
X357303Y848313
X364399Y836896
X364992Y889761
X357492Y889761
X342531Y893316
X330042Y918461
X323792Y934711
X330055Y937686
X330042Y944711
X334417Y956898
X332726Y960232
X347524Y978180
X355354Y980336
X347479Y992552
X375667Y967836
X370354Y960961
X374726Y944711
X374417Y940336
X381302Y944775
X385042Y940336
X403792Y929086
X89979Y992552
X90024Y978180
X97854Y980336
X118167Y967836
X112854Y960961
X117226Y944711
X116917Y940336
X123802Y944775
X127542Y940336
X146292Y929086
X75226Y960232
X76917Y956898
X72542Y944711
X72555Y937686
X66292Y934711
X72542Y918461
X76242Y889761
X68742Y889761
X53781Y893316
X68553Y848313
X61481Y842493
X59492Y838011
X75649Y836896
X64742Y807511
X59039Y807524
X53503Y798305
X47242Y804761
X38117Y690011
X326867Y690011
X392804Y677626
X392699Y669070
X414230Y680795
X424975Y680756
X357303Y350813
X350231Y344993
X348242Y340511
X364399Y339396
X353492Y310011
X347789Y310024
X342253Y300805
X335992Y307261
X326867Y192511
X994542Y360961
X994542Y340961
X506792Y851211
X506792Y831211
X38117Y192511
T03
X335199Y180535
X343143Y188759
X243792Y928773
X225506Y927667
X213792Y927211
X218704Y938493
X207381Y949719
X209729Y957211
X219203Y958289
X223116Y958286
X232542Y960961
X234768Y980180
X244412Y982603
X245015Y991656
X251128Y1004701
X248167Y1007836
X246090Y1034778
X252228Y1040829
X247542Y1056898
X244858Y1062086
X244753Y1073483
X249183Y1073565
X273052Y1065674
X277542Y1062211
X282542Y1055961
X287542Y1058461
X272542Y1055961
X286917Y1033461
X295042Y1037836
X298347Y1027100
X300318Y1021516
X287005Y1014735
X286981Y1010858
X286981Y1006940
X278792Y1005510
X275971Y1008988
X273571Y1012614
X275282Y1000876
X273167Y983148
X274253Y973792
X273792Y965961
X266265Y961363
X274066Y956214
X266292Y940961
X285042Y937211
X291917Y939711
X285049Y924212
X343143Y686259
X335199Y678035
X335199Y429285
X343143Y437509
X198143Y437509
X190199Y429285
X207366Y121053
X215590Y113109
X190199Y180535
X198143Y188759
X54393Y188759
X46449Y180535
X46449Y429285
X54393Y437509
X190199Y678035
X198143Y686259
X116292Y928773
X98006Y927667
X91204Y938493
X86292Y927211
X430318Y1021516
X428347Y1027100
X425042Y1037836
X416917Y1033461
X417005Y1014735
X416981Y1010858
X416981Y1006940
X408792Y1005510
X405971Y1008988
X403571Y1012614
X405282Y1000876
X403167Y983148
X404253Y973792
X403792Y965961
X396265Y961363
X404066Y956214
X396292Y940961
X415042Y937211
X421917Y939711
X415049Y924212
X381128Y1004701
X378167Y1007836
X375015Y991656
X374412Y982603
X364768Y980180
X356308Y991601
X350979Y1005961
X342229Y1006586
X342542Y1011586
X340667Y1015023
X333792Y1015336
X340042Y1023461
X332772Y995432
X334417Y985336
X335042Y972836
X335042Y966586
X327542Y972211
X327542Y960961
X322420Y960961
X339729Y957211
X337381Y949719
X349203Y958289
X353116Y958286
X362542Y960961
X345042Y969469
X348704Y938493
X343792Y927211
X355506Y927667
X373792Y928773
X376090Y1034778
X382228Y1040829
X377542Y1056898
X374858Y1062086
X374753Y1073483
X379183Y1073565
X403052Y1065674
X407542Y1062211
X412542Y1055961
X417542Y1058461
X402542Y1055961
X410042Y1100961
X363167Y1050961
X345370Y1065914
X280042Y1100961
X233167Y1050961
X215370Y1065914
X167542Y1037836
X159417Y1033461
X170847Y1027100
X172818Y1021516
X159505Y1014735
X159481Y1010858
X159481Y1006940
X151292Y1005510
X148471Y1008988
X146071Y1012614
X147782Y1000876
X145667Y983148
X146753Y973792
X146292Y965961
X138765Y961363
X146566Y956214
X138792Y940961
X157542Y937211
X164417Y939711
X157549Y924212
X54393Y686259
X46449Y678035
X64920Y960961
X70042Y960961
X77542Y966586
X77542Y972836
X70042Y972211
X76917Y985336
X75272Y995432
X84729Y1006586
X85042Y1011586
X83167Y1015023
X76292Y1015336
X82542Y1023461
X93479Y1005961
X98808Y991601
X107268Y980180
X116912Y982603
X117515Y991656
X123628Y1004701
X120667Y1007836
X118590Y1034778
X124728Y1040829
X120042Y1056898
X117358Y1062086
X117253Y1073483
X121683Y1073565
X145552Y1065674
X150042Y1062211
X155042Y1055961
X160042Y1058461
X145042Y1055961
X152542Y1100961
X105667Y1050961
X87870Y1065914
X87542Y969469
X91703Y958289
X95616Y958286
X105042Y960961
X82229Y957211
X79881Y949719
X192420Y960961
X197542Y960961
X205042Y966586
X205042Y972836
X197542Y972211
X204417Y985336
X202772Y995432
X212229Y1006586
X212542Y1011586
X210667Y1015023
X203792Y1015336
X210042Y1023461
X220979Y1005961
X226308Y991601
X215042Y969469
X902192Y174661
X599142Y1017511
T04
X265617Y181261
X121867Y430011
X121867Y181261
X208092Y45636
X410617Y181261
X410617Y430011
X121867Y678761
X265617Y430011
X410617Y678761
X265617Y678761
X406292Y1050961
X380542Y1068961
X276292Y1050961
X250542Y1068961
X148792Y1050961
X123042Y1068961
X64310Y1006213
X191810Y1006213
X321810Y1006213
T05
X735492Y345161
X758092Y341361
X616642Y871911
X646942Y867311
X743242Y850811
X765842Y847011
X884692Y320261
X854392Y324861
T06
X323117Y180636
X330617Y180636
X350878Y190474
X360791Y192504
X360950Y197099
X364945Y190461
X366206Y204684
X359449Y205129
X394992Y198761
X402359Y397446
X394992Y447511
X366206Y453434
X359449Y453879
X360950Y445849
X360791Y441254
X364945Y439211
X350878Y439224
X330617Y429386
X323117Y429386
X323293Y392497
X278604Y345889
X250992Y314761
X241992Y314761
X251867Y297511
X271766Y297330
X279547Y251125
X249992Y198761
X221206Y204684
X214449Y205129
X215950Y197099
X215791Y192504
X219945Y190461
X205878Y190474
X185617Y180636
X178117Y180636
X178293Y392497
X178117Y429386
X185617Y429386
X205878Y439224
X215791Y441254
X215950Y445849
X219945Y439211
X221206Y453434
X214449Y453879
X180617Y467511
X180617Y473136
X135797Y499875
X128016Y546080
X108117Y546261
X107242Y563511
X98242Y563511
X83117Y548761
X76242Y538761
X45617Y543136
X43742Y551261
X59197Y579209
X34543Y641247
X106242Y198761
X77456Y204684
X70699Y205129
X72200Y197099
X72041Y192504
X76195Y190461
X62128Y190474
X41867Y180636
X34367Y180636
X36867Y218761
X36867Y224386
X45617Y294386
X43742Y302511
X59197Y330459
X83117Y300011
X76242Y290011
X98242Y314761
X107242Y314761
X108117Y297511
X128016Y297330
X135797Y251125
X180617Y224386
X180617Y218761
X189367Y294386
X187492Y302511
X202947Y330459
X226867Y300011
X219992Y290011
X134854Y345889
X113609Y397446
X76195Y439211
X72041Y441254
X72200Y445849
X70699Y453879
X77456Y453434
X62128Y439224
X41867Y429386
X34367Y429386
X34543Y392497
X106242Y447511
X36867Y467511
X36867Y473136
X187492Y551261
X189367Y543136
X219992Y538761
X226867Y548761
X241992Y563511
X250992Y563511
X251867Y546261
X271766Y546080
X334367Y543136
X332492Y551261
X347947Y579209
X371867Y548761
X364992Y538761
X396867Y546261
X395992Y563511
X386992Y563511
X416766Y546080
X424547Y499875
X257359Y894946
X271766Y794830
X251867Y795011
X250992Y812261
X241992Y812261
X226867Y797511
X219992Y787511
X189367Y791886
X187492Y800011
X202947Y827959
X113609Y894946
X402359Y894946
X423604Y843389
X395992Y812261
X386992Y812261
X396867Y795011
X416766Y794830
X371867Y797511
X364992Y787511
X334367Y791886
X332492Y800011
X347947Y827959
X323293Y889997
X278604Y843389
X178293Y889997
X41867Y678136
X34367Y678136
X62128Y687974
X72041Y690004
X72200Y694599
X76195Y687961
X77456Y702184
X70699Y702629
X106242Y696261
X135797Y748625
X128016Y794830
X108117Y795011
X107242Y812261
X98242Y812261
X83117Y797511
X76242Y787511
X45617Y791886
X43742Y800011
X59197Y827959
X34543Y889997
X134854Y843389
X180617Y721886
X180617Y716261
X214449Y702629
X221206Y702184
X215950Y694599
X215791Y690004
X219945Y687961
X205878Y687974
X185617Y678136
X178117Y678136
X178293Y641247
X134854Y594639
X113609Y646196
X36867Y716261
X36867Y721886
X202947Y579209
X257359Y646196
X278604Y594639
X323293Y641247
X323117Y678136
X330617Y678136
X350878Y687974
X360791Y690004
X360950Y694599
X364945Y687961
X366206Y702184
X359449Y702629
X394992Y696261
X402359Y646196
X423604Y594639
X540792Y405961
X540792Y385961
X539542Y365961
X537667Y355336
X535792Y345648
X542667Y346586
X538292Y325961
X543292Y320961
X540792Y305961
X540792Y295961
X536104Y292211
X513292Y310961
X513292Y325961
X525792Y330961
X525792Y350961
X565792Y345961
X565792Y325961
X565792Y315961
X598292Y255961
X610792Y215961
X620792Y215961
X635792Y213461
X623292Y200961
X640792Y195961
X658292Y195961
X675792Y198461
X670792Y180961
X690792Y173461
X708292Y185961
X695792Y200961
X693292Y215961
X715792Y230961
X704542Y245648
X713292Y267836
X718292Y268461
X710792Y280961
X682042Y295961
X683292Y303461
X682042Y316586
X705792Y327523
X705792Y350023
X684542Y345961
X680167Y350961
X681417Y356586
X680792Y365961
X680792Y385961
X680792Y405961
X655167Y345961
X655167Y335961
X728292Y330961
X733292Y325961
X748292Y325961
X970280Y195764
X948917Y247211
X913292Y225961
X915792Y210961
X913292Y203461
X890792Y193461
X880792Y203461
X883292Y175961
X888292Y165961
X843292Y158461
X830792Y189504
X843292Y207523
X843292Y218461
X833292Y218461
X850167Y236898
X860792Y240961
X850792Y268461
X825792Y248461
X823292Y285961
X820479Y305961
X824229Y315961
X822354Y325961
X822042Y339086
X822042Y344711
X822042Y350336
X822042Y355961
X838292Y330961
X848292Y305961
X863292Y305961
X885792Y312523
X890792Y315961
X895167Y318461
X898604Y322211
X894979Y325961
X896729Y309398
X888292Y293461
X915792Y273461
X890792Y263461
X948292Y300023
X963292Y337211
X963292Y343461
X963292Y349711
X963292Y355961
X963292Y365961
X963292Y385961
X964042Y398211
X992292Y419836
X1003917Y392211
X1007979Y307836
X900792Y520336
X895792Y508461
X890792Y493461
X895792Y475961
X865792Y470961
X854854Y474398
X842354Y486898
X825792Y508461
X829854Y521898
X847042Y560961
X836104Y571898
X864229Y549398
X880792Y549398
X888292Y538461
X895792Y543461
X900792Y538461
X838542Y631211
X838042Y658711
X833042Y668711
X810542Y686211
X800542Y687461
X788042Y686211
X778042Y683711
X753042Y706211
X743042Y706211
X733042Y706211
X723042Y706211
X713042Y706211
X703042Y706211
X703354Y714648
X713042Y683711
X723042Y683711
X733042Y683711
X743042Y683711
X748042Y631836
X778354Y630898
X798042Y626211
X808042Y624211
X801729Y561586
X788292Y508461
X778292Y508461
X768292Y508461
X758292Y508461
X758292Y485961
X768292Y485961
X778292Y485961
X788292Y485961
X798292Y485961
X797979Y477523
X748292Y485961
X723292Y508461
X713292Y505961
X700792Y504711
X690792Y505961
X668292Y523461
X663292Y533461
X662792Y560961
X693292Y567961
X703292Y565961
X722979Y561273
X753292Y560336
X699604Y630586
X665229Y620273
X654292Y631211
X637104Y642773
X620542Y642773
X613042Y653711
X605542Y648711
X600542Y653711
X600542Y671836
X605542Y683711
X610542Y698711
X605542Y716211
X635542Y721211
X646479Y717773
X658979Y705273
X675542Y683711
X671479Y670273
X424547Y748625
X497417Y799961
X509042Y772336
X537292Y793961
X538042Y806211
X538042Y826211
X538042Y836211
X538042Y842461
X538042Y848711
X538042Y854961
X553042Y892148
X585542Y918711
X610542Y928711
X613042Y898711
X604604Y882773
X610542Y876211
X606167Y873711
X602729Y869961
X606354Y866211
X615542Y879648
X638042Y886211
X653042Y886211
X677104Y876211
X678979Y866211
X679292Y853086
X679292Y847461
X679292Y841836
X679292Y836211
X663042Y861211
X680854Y886211
X693042Y880898
X678042Y906211
X650542Y923711
X640542Y951211
X651167Y955273
X658042Y973711
X668042Y973711
X658042Y984648
X670542Y1002667
X658042Y1033711
X618042Y1016211
X613042Y1026211
X610542Y998711
X620542Y988711
X588042Y988711
X585542Y981211
X588042Y966211
X552417Y944961
X531053Y996407
X615542Y1081211
X608042Y1101211
X594292Y1104961
X590542Y1096211
X643042Y1081211
X715542Y1016211
X775542Y1006211
X793042Y1006211
X805542Y991211
X808042Y976211
X825542Y993711
X843042Y996211
X830542Y1011211
X810542Y1018711
X843042Y971211
X835542Y963711
X820542Y951211
X796792Y946523
X788042Y924336
X783042Y923711
X790542Y911211
X819292Y896211
X818042Y888711
X819292Y875586
X795542Y864648
X795542Y842148
X816792Y846211
X821167Y841211
X819917Y835586
X820542Y826211
X820542Y806211
X820542Y786211
X846167Y846211
X846167Y856211
X773042Y861211
X768042Y866211
X753042Y866211
X493354Y884336
X624917Y816836
X706167Y910586
X675542Y943711
X735542Y871211
X735542Y861211
X730542Y848711
X960542Y786211
X960542Y806211
X961792Y826211
X963667Y836836
X965542Y846523
X958667Y845586
X975542Y841211
X975542Y861211
X988042Y866211
X988042Y881211
X963042Y866211
X958042Y871211
X960542Y886211
X960542Y896211
X965229Y899961
X935542Y876211
X935542Y866211
X935542Y846211
X1005542Y928086
X998042Y946211
X986167Y941836
X975542Y943711
X989604Y973711
X1005542Y973711
X948042Y988711
X948042Y1041211
X890542Y976211
X880542Y976211
X878042Y991211
X865542Y978711
X860542Y996211
X883042Y1023711
X870542Y1049222
X855542Y1033711
X785542Y961211
X758042Y938711
X750542Y938711
X423604Y345889
X395992Y314761
X386992Y314761
X371867Y300011
X364992Y290011
X334367Y294386
X332492Y302511
X347947Y330459
X396867Y297511
X416766Y297330
X424547Y251125
X495792Y218461
X511729Y218461
X503292Y245961
X515167Y250336
X525792Y248461
X495792Y264086
X553292Y203461
X553292Y150961
X618292Y168461
X645792Y158461
X630792Y142949
X658292Y220961
X665792Y228461
X680792Y240961
X645792Y245961
X725792Y185961
X785792Y175961
X750792Y253461
X743292Y253461
X795167Y281586
X808292Y311273
X770792Y343461
X765792Y330961
X765792Y320961
X325617Y467511
X325617Y473136
X279547Y499875
X249992Y447511
X257359Y397446
X325617Y224386
X325617Y218761
X329342Y123761
X321217Y121886
X316842Y91261
X326842Y84386
X341592Y69261
X341592Y60261
X324342Y59386
X324161Y39487
X277956Y31706
X225592Y61261
X231515Y90046
X231960Y96803
X223930Y95302
X219335Y95461
X217292Y91307
X217305Y105375
X207467Y125636
X207467Y133136
X245592Y130636
X251217Y130636
X357290Y108305
X419328Y132959
X424277Y53893
X372720Y32649
X876417Y375336
X885792Y110961
X893292Y90961
X907042Y87211
X910792Y95961
X858292Y110961
X325617Y716261
X325617Y721886
X279547Y748625
X249992Y696261
X855542Y946211
X903042Y936211
T07
X357467Y90636
X386757Y89862
X430279Y90948
X220304Y900948
X76867Y828136
X77640Y857426
X76554Y900948
X480542Y936211
X365304Y900948
X221390Y857426
X220617Y828136
X365617Y828136
X366390Y857426
X620168Y621211
X628042Y621211
X635916Y621211
X643790Y621211
X612294Y621211
X595542Y623711
X595542Y611211
X365304Y403448
X366390Y359926
X365617Y330636
X220304Y403448
X221390Y359926
X220617Y330636
X76554Y403448
X76867Y330636
X77640Y359926
X76867Y579386
X77640Y608676
X76554Y652198
X220304Y652198
X221390Y608676
X220617Y579386
X365617Y579386
X366390Y608676
X365304Y652198
X618042Y946211
X688042Y963711
X685542Y978711
X725542Y973711
X725542Y988711
X675542Y1026211
X585542Y1101211
X585542Y1111211
X585542Y1121211
X505542Y1061211
X430042Y1075961
X420849Y1077594
X420849Y1069720
X420849Y1085468
X420849Y1093342
X420849Y1101217
X420849Y1109091
X420849Y1116965
X420849Y1124839
X420849Y1132713
X420849Y1140587
X430042Y1095961
X430042Y1085961
X334235Y1085468
X334235Y1077594
X334235Y1069720
X300042Y1075961
X290849Y1077594
X290849Y1069720
X290849Y1085468
X290849Y1093342
X290849Y1101217
X290849Y1109091
X290849Y1116965
X290849Y1124839
X290849Y1132713
X290849Y1140587
X334235Y1140587
X334235Y1132713
X334235Y1124839
X334235Y1116965
X334235Y1109091
X334235Y1101217
X334235Y1093342
X300042Y1095961
X300042Y1085961
X204235Y1085468
X204235Y1077594
X204235Y1069720
X204235Y1093342
X204235Y1101217
X204235Y1109091
X204235Y1116965
X204235Y1124839
X204235Y1132713
X204235Y1140587
X163349Y1140587
X163349Y1132713
X163349Y1124839
X163349Y1116965
X163349Y1109091
X163349Y1101217
X163349Y1093342
X163349Y1085468
X163349Y1077594
X163349Y1069720
X172542Y1075961
X172542Y1085961
X172542Y1095961
X76735Y1093342
X76735Y1085468
X76735Y1077594
X76735Y1069720
X76735Y1101217
X76735Y1109091
X76735Y1116965
X76735Y1124839
X76735Y1132713
X76735Y1140587
X679292Y826211
X679292Y806211
X680542Y786211
X857544Y570961
X865418Y570961
X873292Y570961
X881166Y570961
X889040Y570961
X905792Y568461
X905792Y580961
X995792Y130961
X915792Y90961
X915792Y80961
X915792Y70961
X825792Y165961
X815792Y213461
X813292Y228461
X775792Y218461
X775792Y203461
X708292Y193461
X820792Y405961
X822042Y385961
X822042Y365961
X1020792Y255961
X883292Y245961
X595792Y90961
X905542Y1101211
X793042Y998711
T08
X573292Y543461
X573292Y523461
X588292Y503461
X588292Y483461
X550792Y483461
X550792Y503461
X918292Y508461
X918292Y528461
X873292Y525961
X873292Y505961
X928042Y648711
X928042Y668711
X913042Y688711
X913042Y708711
X950542Y708711
X950542Y688711
X583042Y683711
X583042Y663711
X628042Y666211
X628042Y686211
X563042Y1071211
X583042Y1071211
X918292Y120961
X938292Y120961
T09
X581979Y645148
X574105Y645148
X504729Y199524
X504729Y207398
X504729Y159898
X504729Y152024
X927229Y547024
X919355Y547024
X996605Y984774
X996605Y992648
X996605Y1032274
X996605Y1040148
T10
X275617Y199386
X275617Y209386
X275617Y219386
X275617Y229386
X275617Y239386
X265617Y239386
X265617Y229386
X265617Y219386
X265617Y209386
X265617Y199386
X131867Y448136
X131867Y458136
X131867Y468136
X131867Y478136
X131867Y488136
X121867Y488136
X121867Y478136
X121867Y468136
X121867Y458136
X121867Y448136
X121867Y199386
X121867Y209386
X121867Y219386
X121867Y229386
X121867Y239386
X131867Y239386
X131867Y229386
X131867Y219386
X131867Y209386
X131867Y199386
X226217Y45636
X236217Y45636
X246217Y45636
X256217Y45636
X266217Y45636
X266217Y35636
X256217Y35636
X246217Y35636
X236217Y35636
X226217Y35636
X410617Y199386
X410617Y209386
X410617Y219386
X410617Y229386
X410617Y239386
X420617Y239386
X420617Y229386
X420617Y219386
X420617Y209386
X420617Y199386
X420617Y448136
X420617Y458136
X420617Y468136
X420617Y478136
X420617Y488136
X410617Y488136
X410617Y478136
X410617Y468136
X410617Y458136
X410617Y448136
X131867Y736886
X121867Y736886
X121867Y726886
X131867Y726886
X131867Y716886
X121867Y716886
X121867Y706886
X131867Y706886
X131867Y696886
X121867Y696886
X275617Y448136
X275617Y458136
X275617Y468136
X275617Y478136
X275617Y488136
X265617Y488136
X265617Y478136
X265617Y468136
X265617Y458136
X265617Y448136
X420617Y696886
X420617Y706886
X420617Y716886
X420617Y726886
X420617Y736886
X410617Y736886
X410617Y726886
X410617Y716886
X410617Y706886
X410617Y696886
X275617Y696886
X275617Y706886
X275617Y716886
X275617Y726886
X275617Y736886
X265617Y736886
X265617Y726886
X265617Y716886
X265617Y706886
X265617Y696886
X420042Y948461
X420042Y958461
X420042Y968461
X420042Y978461
X420042Y988461
X410042Y988461
X410042Y978461
X410042Y968461
X410042Y958461
X410042Y948461
X290042Y988461
X280042Y988461
X280042Y978461
X290042Y978461
X290042Y968461
X280042Y968461
X280042Y958461
X290042Y958461
X290042Y948461
X280042Y948461
X162542Y948461
X162542Y958461
X162542Y968461
X162542Y978461
X162542Y988461
X152542Y988461
X152542Y978461
X152542Y968461
X152542Y958461
X152542Y948461
X563292Y128461
X573292Y128461
X928042Y1063711
X938042Y1063711
T11
X993292Y170803
X993292Y151118
X508042Y1021368
X508042Y1041053
T12
X543292Y108461
X592789Y58963
X968292Y108461
X918794Y58963
X533042Y1083711
X582539Y1133208
X908544Y1133208
X958042Y1083711
T13
X1020792Y184961
X983292Y192461
X983292Y210961
X983292Y229461
X1020792Y236961
X480542Y1007211
X480542Y955211
X518042Y962711
X518042Y981211
X518042Y999711
T14
X679532Y98835
X679532Y58835
X820870Y58835
X820870Y98835
X680463Y1093337
X680463Y1133337
X821802Y1133337
X821802Y1093337
T15
X491446Y316461
X525095Y126662
X751289Y21185
X977483Y126662
X1001446Y273961
X960080Y525252
X958837Y666920
X1009888Y875711
X976239Y1065510
X750045Y1170987
X523851Y1065510
X499888Y918211
X541254Y666920
X542497Y525252
M30
