G75*
%MOIN*%
%OFA0B0*%
%FSLAX25Y25*%
%IPPOS*%
%LPD*%
%AMOC8*
5,1,8,0,0,1.08239X$1,22.5*
%
%ADD10C,0.01600*%
%ADD11C,0.01000*%
D10*
X0054042Y0049700D02*
X0019042Y0084700D01*
X0019042Y0174714D01*
X0007930Y0174714D01*
X0007930Y0417165D01*
X0057042Y0417165D01*
X0057042Y0423200D01*
X0057042Y0423164D02*
X0007930Y0423164D01*
X0007930Y0665915D01*
X0053942Y0665915D01*
X0053942Y0671900D01*
X0007930Y0671914D01*
X0007930Y0914665D01*
X0099842Y0914700D01*
X0099842Y0919400D01*
X0099892Y0919400D02*
X0071817Y0919444D01*
X0071817Y1153224D01*
X0189528Y1153224D01*
X0189528Y1053400D01*
X0195542Y1053400D01*
X0195567Y1153224D01*
X0313278Y1153224D01*
X0313278Y1054600D01*
X0319342Y1054600D01*
X0319317Y1054600D02*
X0313242Y1054600D01*
X0319317Y1054600D02*
X0319317Y1153224D01*
X0437028Y1153224D01*
X0437028Y1056000D01*
X0436942Y1033200D02*
X0436928Y0919444D01*
X0384792Y0919444D01*
X0384742Y0919500D02*
X0384742Y0914759D01*
X0436138Y0914759D01*
X0436138Y0812000D01*
X0436242Y0793800D02*
X0436138Y0671914D01*
X0364542Y0671914D01*
X0364542Y0665900D01*
X0364442Y0665900D02*
X0436138Y0666009D01*
X0436138Y0657600D01*
X0436142Y0640300D02*
X0443942Y0640300D01*
X0444042Y0479700D01*
X0436142Y0479700D01*
X0436142Y0640300D01*
X0364442Y0665900D02*
X0364442Y0671900D01*
X0346642Y0671900D02*
X0346642Y0665915D01*
X0296680Y0665915D01*
X0296742Y0564700D01*
X0291138Y0564700D01*
X0291042Y0564700D01*
X0291138Y0564700D02*
X0291138Y0666009D01*
X0225242Y0666000D01*
X0225242Y0671914D01*
X0291138Y0671914D01*
X0291142Y0783950D01*
X0296680Y0783950D01*
X0296680Y0671914D01*
X0346642Y0671900D01*
X0346642Y0665915D02*
X0346642Y0665900D01*
X0296742Y0783950D02*
X0296680Y0783950D01*
X0296742Y0807200D02*
X0296680Y0914665D01*
X0296642Y0914659D02*
X0364442Y0914700D01*
X0364442Y0919444D01*
X0364442Y0919500D01*
X0364442Y0919444D02*
X0319317Y0919444D01*
X0319342Y1032350D01*
X0313242Y1032350D01*
X0313178Y0919444D01*
X0244292Y0919444D01*
X0244242Y0919450D02*
X0244242Y0914700D01*
X0291138Y0914759D01*
X0291138Y0807200D01*
X0296742Y0807200D01*
X0217842Y0914500D02*
X0217842Y0919450D01*
X0217842Y0919444D02*
X0195567Y0919444D01*
X0195567Y1029400D01*
X0189442Y1029400D01*
X0189428Y0919444D01*
X0123992Y0919444D01*
X0124042Y0919500D02*
X0124042Y0914759D01*
X0147388Y0914759D01*
X0147388Y0796100D01*
X0151642Y0796100D01*
X0151680Y0796100D02*
X0151680Y0914565D01*
X0217842Y0914500D01*
X0151680Y0796100D02*
X0147342Y0796100D01*
X0147342Y0776700D02*
X0151642Y0776700D01*
X0151680Y0671914D01*
X0199642Y0671900D01*
X0199642Y0665915D01*
X0151680Y0665915D01*
X0151680Y0564150D01*
X0147388Y0564150D01*
X0147342Y0564150D01*
X0147388Y0564150D02*
X0147388Y0666009D01*
X0075642Y0665900D01*
X0075642Y0671900D01*
X0075742Y0671914D02*
X0075742Y0665900D01*
X0075742Y0671914D02*
X0147388Y0671914D01*
X0147342Y0776700D01*
X0053942Y0665915D02*
X0053942Y0665900D01*
X0147342Y0542400D02*
X0147442Y0542400D01*
X0147388Y0423164D01*
X0087742Y0423100D01*
X0087742Y0417200D01*
X0087642Y0417300D02*
X0147388Y0417259D01*
X0147442Y0417259D01*
X0147442Y0409700D01*
X0151642Y0409700D01*
X0151642Y0417165D01*
X0151680Y0417165D01*
X0217442Y0417200D01*
X0217442Y0423164D01*
X0217442Y0423200D01*
X0217442Y0423164D02*
X0151680Y0423164D01*
X0151642Y0542400D01*
X0147442Y0542400D01*
X0087642Y0423200D02*
X0087642Y0417300D01*
X0057042Y0417200D02*
X0057042Y0423164D01*
X0147442Y0395600D02*
X0147542Y0194350D01*
X0151642Y0194350D01*
X0151742Y0395600D01*
X0147442Y0395600D01*
X0239542Y0417200D02*
X0239542Y0417259D01*
X0291138Y0417259D01*
X0291138Y0409400D01*
X0296642Y0409400D01*
X0296680Y0409400D02*
X0296680Y0417165D01*
X0355142Y0417165D01*
X0355142Y0423200D01*
X0296680Y0423164D01*
X0296680Y0543200D01*
X0291042Y0543200D01*
X0291138Y0423164D01*
X0239542Y0423200D01*
X0239542Y0417259D01*
X0291142Y0409400D02*
X0296680Y0409400D01*
X0296642Y0397500D02*
X0296542Y0397500D01*
X0291142Y0397500D01*
X0291142Y0195800D01*
X0296742Y0195800D01*
X0296542Y0397500D01*
X0378442Y0417300D02*
X0436138Y0417259D01*
X0436142Y0417259D01*
X0436142Y0408550D01*
X0438992Y0408500D01*
X0439042Y0452200D01*
X0444042Y0452200D01*
X0444042Y0463450D01*
X0436138Y0463450D01*
X0436138Y0423164D01*
X0378442Y0423164D01*
X0378442Y0423200D01*
X0378442Y0423164D02*
X0378442Y0417300D01*
X0436242Y0380050D02*
X0436042Y0230400D01*
X0462642Y0230400D01*
X0462642Y0205400D02*
X0436138Y0205400D01*
X0436138Y0174414D01*
X0427242Y0174414D01*
X0427242Y0165800D01*
X0427242Y0165812D02*
X0437957Y0165812D01*
X0437857Y0026350D01*
X0437851Y0026354D02*
X0195006Y0026354D01*
X0195006Y0040950D01*
X0179042Y0040950D01*
X0170292Y0049700D01*
X0054042Y0049700D01*
X0035292Y0158450D02*
X0124042Y0158450D01*
X0124042Y0174700D01*
X0034042Y0174700D01*
X0034042Y0159700D01*
X0035292Y0158450D01*
X0137792Y0158450D02*
X0191542Y0158450D01*
X0191542Y0158400D01*
X0195006Y0161864D01*
X0195006Y0166012D01*
X0201542Y0166012D01*
X0201542Y0174414D01*
X0151642Y0174414D01*
X0151592Y0181200D01*
X0147488Y0181200D01*
X0147488Y0174714D01*
X0137792Y0174700D01*
X0137792Y0158450D01*
X0171542Y0127200D02*
X0171542Y0069700D01*
X0182792Y0058450D01*
X0195092Y0058450D01*
X0195042Y0147200D01*
X0191542Y0147200D01*
X0171542Y0127200D01*
X0214442Y0166000D02*
X0214542Y0165900D01*
X0412342Y0165900D01*
X0412342Y0174400D01*
X0296680Y0174414D01*
X0296680Y0180800D01*
X0291142Y0180800D01*
X0291142Y0174414D01*
X0291138Y0174414D01*
X0214342Y0174400D01*
X0214342Y0166350D01*
X0214442Y0166000D01*
X0291142Y0174400D02*
X0291142Y0174414D01*
X0296742Y0180700D02*
X0296680Y0180800D01*
X0427242Y0174400D02*
X0427242Y0165900D01*
X0427242Y0165812D02*
X0427242Y0166100D01*
X0296742Y0543200D02*
X0296680Y0543200D01*
X0189528Y1053400D02*
X0189442Y1053400D01*
D11*
X0436242Y0811900D02*
X0440742Y0811900D01*
X0440742Y1031700D01*
X0439142Y1033300D01*
X0437042Y1033300D01*
X0454942Y1038200D02*
X0437042Y1056100D01*
X0454942Y1038200D02*
X0454942Y1001100D01*
X0461542Y1001100D01*
X0461577Y1001100D02*
X0461577Y1018495D01*
X0461542Y0969700D02*
X0454042Y0969700D01*
X0454042Y0775950D01*
X0461542Y0775950D01*
X0461542Y0775900D02*
X0461442Y0969700D01*
X0443742Y0793800D02*
X0436342Y0793800D01*
X0443742Y0793800D02*
X0443742Y0657400D01*
X0436142Y0657400D01*
X0436142Y0657500D01*
X0454342Y0719700D02*
X0454342Y0749700D01*
X0461542Y0749700D01*
X0461577Y0749700D02*
X0461577Y0742905D01*
X0454342Y0719700D02*
X0568242Y0605800D01*
X0604942Y0605800D01*
X0604942Y0607900D01*
X0604942Y0607936D02*
X0587315Y0607936D01*
X0588309Y0597714D02*
X0605342Y0597700D01*
X0605342Y0597714D01*
X0605242Y0597700D02*
X0605242Y0599650D01*
X0605292Y0599700D01*
X0563542Y0599700D01*
X0455342Y0491500D01*
X0455342Y0408400D01*
X0455292Y0408400D01*
X0455342Y0408400D02*
X0462542Y0408400D01*
X0462570Y0462745D01*
X0462542Y0380000D02*
X0436242Y0380000D01*
X0462542Y0380000D02*
X0462742Y0230400D01*
X0436042Y0230400D01*
X0436042Y0205500D02*
X0462570Y0205500D01*
X0462570Y0187200D01*
X0462570Y0187155D02*
X0462542Y0204550D01*
X0462570Y0380000D02*
X0462542Y0380000D01*
X0620242Y0597700D02*
X0871042Y0597750D01*
X0870942Y0597700D02*
X0870942Y0607900D01*
X0620242Y0607900D01*
X0620242Y0597700D01*
X0624042Y0607900D02*
X0646342Y0607900D01*
X0604942Y0607936D02*
X0604942Y0607500D01*
X0829342Y0607900D02*
X0857742Y0607900D01*
X0899142Y0607936D02*
X0899142Y0597700D01*
X0899042Y0597714D02*
X0903269Y0597714D01*
X0902275Y0607936D02*
X0899142Y0607936D01*
X1028014Y0742905D02*
X1028014Y1018495D01*
X1024582Y1025337D01*
X1020984Y1032094D01*
X1017223Y1038761D01*
X1013302Y1045335D01*
X1009222Y1051811D01*
X1004985Y1058186D01*
X1000595Y1064457D01*
X0996054Y1070619D01*
X0991365Y1076669D01*
X0986529Y1082603D01*
X0981551Y1088418D01*
X0976434Y1094110D01*
X0971179Y1099676D01*
X0965791Y1105113D01*
X0960272Y1110417D01*
X0954626Y1115586D01*
X0948856Y1120616D01*
X0942965Y1125504D01*
X0936958Y1130248D01*
X0930836Y1134844D01*
X0924605Y1139290D01*
X0918268Y1143583D01*
X0911828Y1147721D01*
X0905290Y1151701D01*
X0898657Y1155522D01*
X0891933Y1159180D01*
X0885122Y1162673D01*
X0878228Y1166000D01*
X0871256Y1169158D01*
X0864208Y1172146D01*
X0857090Y1174962D01*
X0849906Y1177604D01*
X0842660Y1180071D01*
X0835356Y1182361D01*
X0827998Y1184472D01*
X0820592Y1186405D01*
X0813140Y1188156D01*
X0805648Y1189726D01*
X0798120Y1191114D01*
X0790561Y1192318D01*
X0782975Y1193338D01*
X0775366Y1194174D01*
X0767739Y1194824D01*
X0760099Y1195289D01*
X0752449Y1195568D01*
X0744795Y1195661D01*
X0737141Y1195568D01*
X0729491Y1195289D01*
X0721851Y1194824D01*
X0714224Y1194174D01*
X0706615Y1193338D01*
X0699029Y1192318D01*
X0691470Y1191114D01*
X0683942Y1189726D01*
X0676450Y1188156D01*
X0668998Y1186405D01*
X0661592Y1184472D01*
X0654234Y1182361D01*
X0646930Y1180071D01*
X0639684Y1177604D01*
X0632500Y1174962D01*
X0625382Y1172146D01*
X0618334Y1169158D01*
X0611362Y1166000D01*
X0604468Y1162673D01*
X0597657Y1159180D01*
X0590933Y1155522D01*
X0584300Y1151701D01*
X0577762Y1147721D01*
X0571322Y1143583D01*
X0564985Y1139290D01*
X0558754Y1134844D01*
X0552632Y1130248D01*
X0546625Y1125504D01*
X0540734Y1120616D01*
X0534964Y1115586D01*
X0529318Y1110417D01*
X0523799Y1105113D01*
X0518411Y1099676D01*
X0513156Y1094110D01*
X0508039Y1088418D01*
X0503061Y1082603D01*
X0498225Y1076669D01*
X0493536Y1070619D01*
X0488995Y1064457D01*
X0484605Y1058186D01*
X0480368Y1051811D01*
X0476288Y1045335D01*
X0472367Y1038761D01*
X0468606Y1032094D01*
X0465008Y1025337D01*
X0461576Y1018495D01*
X0902275Y0607936D02*
X0908715Y0611757D01*
X0915062Y0615729D01*
X0921314Y0619852D01*
X0927465Y0624122D01*
X0933513Y0628537D01*
X0939454Y0633095D01*
X0945286Y0637793D01*
X0951004Y0642628D01*
X0956605Y0647597D01*
X0962087Y0652698D01*
X0967446Y0657928D01*
X0972679Y0663285D01*
X0977783Y0668763D01*
X0982755Y0674362D01*
X0987593Y0680078D01*
X0992294Y0685906D01*
X0996855Y0691845D01*
X1001274Y0697891D01*
X1005547Y0704040D01*
X1009673Y0710289D01*
X1013649Y0716634D01*
X1017474Y0723072D01*
X1021144Y0729599D01*
X1024658Y0736211D01*
X1028014Y0742905D01*
X1029007Y0462745D02*
X1029007Y0187200D01*
X0588309Y0597714D02*
X0581869Y0593893D01*
X0575522Y0589921D01*
X0569270Y0585798D01*
X0563119Y0581528D01*
X0557071Y0577113D01*
X0551130Y0572555D01*
X0545298Y0567857D01*
X0539580Y0563022D01*
X0533979Y0558053D01*
X0528497Y0552952D01*
X0523138Y0547722D01*
X0517905Y0542365D01*
X0512801Y0536887D01*
X0507829Y0531288D01*
X0502991Y0525572D01*
X0498290Y0519744D01*
X0493729Y0513805D01*
X0489310Y0507759D01*
X0485037Y0501610D01*
X0480911Y0495361D01*
X0476935Y0489016D01*
X0473110Y0482578D01*
X0469440Y0476051D01*
X0465926Y0469439D01*
X0462570Y0462745D01*
X0462569Y0187155D02*
X0466001Y0180313D01*
X0469599Y0173556D01*
X0473360Y0166889D01*
X0477281Y0160315D01*
X0481361Y0153839D01*
X0485598Y0147464D01*
X0489988Y0141193D01*
X0494529Y0135031D01*
X0499218Y0128981D01*
X0504054Y0123047D01*
X0509032Y0117232D01*
X0514149Y0111540D01*
X0519404Y0105974D01*
X0524792Y0100537D01*
X0530311Y0095233D01*
X0535957Y0090064D01*
X0541727Y0085034D01*
X0547618Y0080146D01*
X0553625Y0075402D01*
X0559747Y0070806D01*
X0565978Y0066360D01*
X0572315Y0062067D01*
X0578755Y0057929D01*
X0585293Y0053949D01*
X0591926Y0050128D01*
X0598650Y0046470D01*
X0605461Y0042977D01*
X0612355Y0039650D01*
X0619327Y0036492D01*
X0626375Y0033504D01*
X0633493Y0030688D01*
X0640677Y0028046D01*
X0647923Y0025579D01*
X0655227Y0023289D01*
X0662585Y0021178D01*
X0669991Y0019245D01*
X0677443Y0017494D01*
X0684935Y0015924D01*
X0692463Y0014536D01*
X0700022Y0013332D01*
X0707608Y0012312D01*
X0715217Y0011476D01*
X0722844Y0010826D01*
X0730484Y0010361D01*
X0738134Y0010082D01*
X0745788Y0009989D01*
X0753442Y0010082D01*
X0761092Y0010361D01*
X0768732Y0010826D01*
X0776359Y0011476D01*
X0783968Y0012312D01*
X0791554Y0013332D01*
X0799113Y0014536D01*
X0806641Y0015924D01*
X0814133Y0017494D01*
X0821585Y0019245D01*
X0828991Y0021178D01*
X0836349Y0023289D01*
X0843653Y0025579D01*
X0850899Y0028046D01*
X0858083Y0030688D01*
X0865201Y0033504D01*
X0872249Y0036492D01*
X0879221Y0039650D01*
X0886115Y0042977D01*
X0892926Y0046470D01*
X0899650Y0050128D01*
X0906283Y0053949D01*
X0912821Y0057929D01*
X0919261Y0062067D01*
X0925598Y0066360D01*
X0931829Y0070806D01*
X0937951Y0075402D01*
X0943958Y0080146D01*
X0949849Y0085034D01*
X0955619Y0090064D01*
X0961265Y0095233D01*
X0966784Y0100537D01*
X0972172Y0105974D01*
X0977427Y0111540D01*
X0982544Y0117232D01*
X0987522Y0123047D01*
X0992358Y0128981D01*
X0997047Y0135031D01*
X1001588Y0141193D01*
X1005978Y0147464D01*
X1010215Y0153839D01*
X1014295Y0160315D01*
X1018216Y0166889D01*
X1021977Y0173556D01*
X1025575Y0180313D01*
X1029007Y0187155D01*
X1029007Y0462745D02*
X1025651Y0469439D01*
X1022137Y0476052D01*
X1018467Y0482579D01*
X1014642Y0489016D01*
X1010666Y0495361D01*
X1006540Y0501610D01*
X1002267Y0507759D01*
X0997848Y0513805D01*
X0993287Y0519744D01*
X0988586Y0525572D01*
X0983748Y0531288D01*
X0978776Y0536886D01*
X0973672Y0542365D01*
X0968439Y0547721D01*
X0963080Y0552952D01*
X0957598Y0558053D01*
X0951997Y0563022D01*
X0946279Y0567857D01*
X0940447Y0572555D01*
X0934506Y0577112D01*
X0928458Y0581528D01*
X0922307Y0585798D01*
X0916056Y0589920D01*
X0909709Y0593893D01*
X0903269Y0597714D01*
X0587314Y0607936D02*
X0580874Y0611757D01*
X0574527Y0615730D01*
X0568276Y0619852D01*
X0562125Y0624122D01*
X0556077Y0628538D01*
X0550136Y0633095D01*
X0544304Y0637793D01*
X0538586Y0642628D01*
X0532985Y0647597D01*
X0527503Y0652698D01*
X0522144Y0657929D01*
X0516911Y0663285D01*
X0511807Y0668764D01*
X0506835Y0674362D01*
X0501997Y0680078D01*
X0497296Y0685906D01*
X0492735Y0691845D01*
X0488316Y0697891D01*
X0484043Y0704040D01*
X0479917Y0710289D01*
X0475941Y0716634D01*
X0472116Y0723071D01*
X0468446Y0729598D01*
X0464932Y0736211D01*
X0461576Y0742905D01*
M02*
