G75*
%MOIN*%
%OFA0B0*%
%FSLAX25Y25*%
%IPPOS*%
%LPD*%
%AMOC8*
5,1,8,0,0,1.08239X$1,22.5*
%
%ADD10R,0.27178X0.27178*%
%ADD11R,0.07099X0.12611*%
%ADD12C,0.05950*%
%ADD13R,0.03950X0.05524*%
%ADD14R,0.07887X0.07099*%
%ADD15R,0.17100X0.04700*%
%ADD16C,0.06800*%
%ADD17OC8,0.06800*%
%ADD18R,0.05524X0.03950*%
%ADD19R,0.03950X0.04343*%
%ADD20R,0.13398X0.07887*%
%ADD21R,0.12611X0.07099*%
%ADD22R,0.07887X0.07493*%
%ADD23C,0.07850*%
%ADD24R,0.05950X0.05950*%
%ADD25R,0.07099X0.07887*%
%ADD26C,0.18900*%
%ADD27OC8,0.18900*%
%ADD28R,0.02965X0.05524*%
%ADD29R,0.05524X0.02965*%
%ADD30C,0.06737*%
%ADD31R,0.06737X0.06737*%
%ADD32R,0.10800X0.14800*%
%ADD33R,0.07493X0.07887*%
%ADD34C,0.07800*%
%ADD35C,0.06800*%
%ADD36R,0.13800X0.13800*%
%ADD37R,0.12611X0.12611*%
%ADD38R,0.40800X0.25800*%
%ADD39R,0.06800X0.18800*%
%ADD40C,0.05950*%
%ADD41R,0.04300X0.05300*%
%ADD42C,0.10800*%
%ADD43R,0.08674X0.03202*%
%ADD44R,0.08674X0.03162*%
%ADD45R,0.14973X0.11351*%
%ADD46R,0.12611X0.05721*%
%ADD47R,0.04343X0.03950*%
%ADD48R,0.04700X0.17100*%
%ADD49R,0.07887X0.13398*%
%ADD50C,0.04000*%
%ADD51C,0.03900*%
%ADD52C,0.04369*%
%ADD53C,0.03581*%
%ADD54C,0.04762*%
%ADD55C,0.04700*%
%ADD56C,0.17300*%
%ADD57C,0.05550*%
D10*
X0552792Y0123750D03*
X0632792Y0318750D03*
X0955292Y0381250D03*
X0950292Y0436250D03*
X1217792Y0323750D03*
X1137792Y0128750D03*
X1540292Y0386250D03*
X1535292Y0441250D03*
X0925292Y0886250D03*
X0845292Y0691250D03*
X1247792Y0948750D03*
X1242792Y1003750D03*
X0631542Y1072250D03*
X0507792Y1072250D03*
X0384042Y1072250D03*
X0260292Y1072250D03*
X0136542Y1072250D03*
D11*
X0145597Y1049612D03*
X0127487Y1049612D03*
X0251237Y1049612D03*
X0269347Y1049612D03*
X0374987Y1049612D03*
X0393097Y1049612D03*
X0498737Y1049612D03*
X0516847Y1049612D03*
X0622487Y1049612D03*
X0640597Y1049612D03*
X1233737Y1026388D03*
X1251847Y1026388D03*
X1256847Y0971388D03*
X1238737Y0971388D03*
X1526237Y0463888D03*
X1544347Y0463888D03*
X1549347Y0408888D03*
X1531237Y0408888D03*
X0964347Y0403888D03*
X0946237Y0403888D03*
X0941237Y0458888D03*
X0959347Y0458888D03*
D12*
X0887792Y0516250D03*
X0870292Y0593750D03*
X0870292Y0606250D03*
X0887044Y0603750D03*
X0894918Y0603750D03*
X0902792Y0603750D03*
X0910666Y0603750D03*
X1072792Y0481250D03*
X1185292Y0366250D03*
X1252792Y0398750D03*
X1255292Y0383750D03*
X1292792Y0393750D03*
X1292792Y0408750D03*
X1242792Y0446250D03*
X1360292Y0418750D03*
X1472792Y0521250D03*
X1530617Y0781925D03*
X1531390Y0811215D03*
X1530304Y0854737D03*
X1386554Y0854737D03*
X1387640Y0811215D03*
X1386867Y0781925D03*
X1386867Y1031925D03*
X1387640Y1061215D03*
X1386554Y1104738D03*
X1530304Y1104738D03*
X1531390Y1061215D03*
X1530617Y1031925D03*
X1180292Y1083750D03*
X1067792Y0981250D03*
X1000292Y0971250D03*
X1000292Y0956250D03*
X0962792Y0946250D03*
X0960292Y0961250D03*
X0950292Y1008750D03*
X0892792Y0928750D03*
X0755292Y0918750D03*
X0660140Y0883715D03*
X0659367Y0854425D03*
X0659054Y0927237D03*
X0511554Y0927237D03*
X0512640Y0883715D03*
X0511867Y0854425D03*
X0365617Y0854425D03*
X0366390Y0883715D03*
X0365304Y0927237D03*
X0220304Y0927237D03*
X0221390Y0883715D03*
X0220617Y0854425D03*
X0076867Y0854425D03*
X0077640Y0883715D03*
X0076554Y0927237D03*
X0229042Y1102250D03*
X0229042Y1112250D03*
X0229042Y1122250D03*
X0352792Y1122250D03*
X0352792Y1112250D03*
X0352792Y1102250D03*
X0476542Y1102250D03*
X0476542Y1112250D03*
X0476542Y1122250D03*
X0600292Y1122250D03*
X0600292Y1112250D03*
X0600292Y1102250D03*
X0724042Y1102250D03*
X0724042Y1112250D03*
X0724042Y1122250D03*
X0780292Y1043750D03*
X0365304Y0678488D03*
X0366390Y0634965D03*
X0365617Y0605675D03*
X0220617Y0605675D03*
X0221390Y0634965D03*
X0220304Y0678488D03*
X0076554Y0678488D03*
X0077640Y0634965D03*
X0076867Y0605675D03*
X0076554Y0429737D03*
X0077640Y0386215D03*
X0076867Y0356925D03*
X0220617Y0356925D03*
X0221390Y0386215D03*
X0220304Y0429737D03*
X0365304Y0429737D03*
X0366390Y0386215D03*
X0365617Y0356925D03*
X0462792Y0351250D03*
X0600292Y0361250D03*
X0670292Y0378750D03*
X0667792Y0393750D03*
X0707792Y0388750D03*
X0707792Y0403750D03*
X0657792Y0441250D03*
X0775292Y0413750D03*
X1047792Y0356250D03*
X1162792Y0043750D03*
X1162792Y0031250D03*
X1179544Y0041250D03*
X1187418Y0041250D03*
X1195292Y0041250D03*
X1203166Y0041250D03*
X0618166Y0036250D03*
X0610292Y0036250D03*
X0602418Y0036250D03*
X0594544Y0036250D03*
X0577792Y0038750D03*
X0577792Y0026250D03*
X0430279Y0117237D03*
X0386757Y0116152D03*
X0357467Y0116925D03*
X0487792Y0476250D03*
D13*
X0566748Y0463750D03*
X0573835Y0463750D03*
X0576748Y0502500D03*
X0576748Y0508750D03*
X0576748Y0515000D03*
X0583835Y0515000D03*
X0583835Y0508750D03*
X0583835Y0502500D03*
X0583835Y0528750D03*
X0576748Y0528750D03*
X0405814Y0456510D03*
X0398727Y0456510D03*
X0398535Y0486925D03*
X0391448Y0486925D03*
X0391448Y0494425D03*
X0398535Y0494425D03*
X0398535Y0501925D03*
X0391448Y0501925D03*
X0391448Y0509425D03*
X0398535Y0509425D03*
X0331035Y0481300D03*
X0323948Y0481300D03*
X0323948Y0473175D03*
X0331035Y0473175D03*
X0320827Y0462879D03*
X0313740Y0462879D03*
X0260814Y0456510D03*
X0253727Y0456510D03*
X0253535Y0486925D03*
X0246448Y0486925D03*
X0246448Y0494425D03*
X0253535Y0494425D03*
X0253535Y0501925D03*
X0246448Y0501925D03*
X0246448Y0509425D03*
X0253535Y0509425D03*
X0186035Y0481300D03*
X0178948Y0481300D03*
X0178948Y0473175D03*
X0186035Y0473175D03*
X0175827Y0462879D03*
X0168740Y0462879D03*
X0117064Y0456510D03*
X0109977Y0456510D03*
X0109785Y0486925D03*
X0102698Y0486925D03*
X0102698Y0494425D03*
X0109785Y0494425D03*
X0109785Y0501925D03*
X0102698Y0501925D03*
X0102698Y0509425D03*
X0109785Y0509425D03*
X0042285Y0481300D03*
X0035198Y0481300D03*
X0035198Y0473175D03*
X0042285Y0473175D03*
X0032077Y0462879D03*
X0024990Y0462879D03*
X0037698Y0386925D03*
X0044785Y0386925D03*
X0044785Y0378175D03*
X0037698Y0378175D03*
X0037698Y0368175D03*
X0044785Y0368175D03*
X0102698Y0260675D03*
X0109785Y0260675D03*
X0109785Y0253175D03*
X0102698Y0253175D03*
X0102698Y0245675D03*
X0109785Y0245675D03*
X0109785Y0238175D03*
X0102698Y0238175D03*
X0109977Y0207760D03*
X0117064Y0207760D03*
X0168740Y0214129D03*
X0175827Y0214129D03*
X0178948Y0224425D03*
X0186035Y0224425D03*
X0186035Y0232550D03*
X0178948Y0232550D03*
X0246448Y0238175D03*
X0253535Y0238175D03*
X0253535Y0245675D03*
X0246448Y0245675D03*
X0246448Y0253175D03*
X0253535Y0253175D03*
X0253535Y0260675D03*
X0246448Y0260675D03*
X0253727Y0207760D03*
X0260814Y0207760D03*
X0313740Y0214129D03*
X0320827Y0214129D03*
X0323948Y0224425D03*
X0331035Y0224425D03*
X0331035Y0232550D03*
X0323948Y0232550D03*
X0391448Y0238175D03*
X0398535Y0238175D03*
X0398535Y0245675D03*
X0391448Y0245675D03*
X0391448Y0253175D03*
X0398535Y0253175D03*
X0398535Y0260675D03*
X0391448Y0260675D03*
X0398727Y0207760D03*
X0405814Y0207760D03*
X0576748Y0311250D03*
X0583835Y0311250D03*
X0583835Y0318750D03*
X0576748Y0318750D03*
X0771748Y0391250D03*
X0778835Y0391250D03*
X0779248Y0398750D03*
X0786335Y0398750D03*
X1151748Y0468750D03*
X1158835Y0468750D03*
X1161748Y0507500D03*
X1161748Y0513750D03*
X1161748Y0520000D03*
X1168835Y0520000D03*
X1168835Y0513750D03*
X1168835Y0507500D03*
X1168835Y0533750D03*
X1161748Y0533750D03*
X1334990Y0639129D03*
X1342077Y0639129D03*
X1345198Y0649425D03*
X1352285Y0649425D03*
X1352285Y0657550D03*
X1345198Y0657550D03*
X1412698Y0663175D03*
X1419785Y0663175D03*
X1419785Y0670675D03*
X1412698Y0670675D03*
X1412698Y0678175D03*
X1419785Y0678175D03*
X1419785Y0685675D03*
X1412698Y0685675D03*
X1478740Y0639129D03*
X1485827Y0639129D03*
X1488948Y0649425D03*
X1496035Y0649425D03*
X1496035Y0657550D03*
X1488948Y0657550D03*
X1427064Y0632760D03*
X1419977Y0632760D03*
X1556448Y0663175D03*
X1563535Y0663175D03*
X1563535Y0670675D03*
X1556448Y0670675D03*
X1556448Y0678175D03*
X1563535Y0678175D03*
X1563535Y0685675D03*
X1556448Y0685675D03*
X1563727Y0632760D03*
X1570814Y0632760D03*
X1498535Y0793175D03*
X1491448Y0793175D03*
X1491448Y0803175D03*
X1498535Y0803175D03*
X1498535Y0811925D03*
X1491448Y0811925D03*
X1427064Y0882760D03*
X1419977Y0882760D03*
X1419785Y0913175D03*
X1412698Y0913175D03*
X1412698Y0920675D03*
X1419785Y0920675D03*
X1419785Y0928175D03*
X1412698Y0928175D03*
X1412698Y0935675D03*
X1419785Y0935675D03*
X1478740Y0889129D03*
X1485827Y0889129D03*
X1488948Y0899425D03*
X1496035Y0899425D03*
X1496035Y0907550D03*
X1488948Y0907550D03*
X1556448Y0913175D03*
X1563535Y0913175D03*
X1563535Y0920675D03*
X1556448Y0920675D03*
X1556448Y0928175D03*
X1563535Y0928175D03*
X1563535Y0935675D03*
X1556448Y0935675D03*
X1563727Y0882760D03*
X1570814Y0882760D03*
X1498535Y1043175D03*
X1491448Y1043175D03*
X1491448Y1053175D03*
X1498535Y1053175D03*
X1498535Y1061925D03*
X1491448Y1061925D03*
X1354785Y1061925D03*
X1347698Y1061925D03*
X1347698Y1053175D03*
X1354785Y1053175D03*
X1354785Y1043175D03*
X1347698Y1043175D03*
X1345198Y0907550D03*
X1352285Y0907550D03*
X1352285Y0899425D03*
X1345198Y0899425D03*
X1342077Y0889129D03*
X1334990Y0889129D03*
X1347698Y0811925D03*
X1354785Y0811925D03*
X1354785Y0803175D03*
X1347698Y0803175D03*
X1347698Y0793175D03*
X1354785Y0793175D03*
X1078835Y0966250D03*
X1071748Y0966250D03*
X1071335Y0958750D03*
X1064248Y0958750D03*
X0876335Y0886250D03*
X0869248Y0886250D03*
X0869248Y0878750D03*
X0876335Y0878750D03*
X0692585Y0952250D03*
X0685498Y0952250D03*
X0680710Y0952250D03*
X0673623Y0952250D03*
X0655085Y0949125D03*
X0647998Y0949125D03*
X0630085Y0949750D03*
X0622998Y0949750D03*
X0620498Y0967250D03*
X0627585Y0967250D03*
X0627585Y0974750D03*
X0620498Y0974750D03*
X0617998Y0992250D03*
X0625085Y0992250D03*
X0625085Y1002250D03*
X0617998Y1002250D03*
X0617373Y1009750D03*
X0624460Y1009750D03*
X0624460Y1017250D03*
X0617373Y1017250D03*
X0637998Y1015375D03*
X0637998Y1009750D03*
X0645085Y1009750D03*
X0645085Y1015375D03*
X0645061Y1001257D03*
X0637974Y1001257D03*
X0637998Y0991000D03*
X0645085Y0991000D03*
X0568835Y0952250D03*
X0561748Y0952250D03*
X0556960Y0952250D03*
X0549873Y0952250D03*
X0531335Y0949125D03*
X0524248Y0949125D03*
X0506335Y0949750D03*
X0499248Y0949750D03*
X0496748Y0967250D03*
X0503835Y0967250D03*
X0503835Y0974750D03*
X0496748Y0974750D03*
X0494248Y0992250D03*
X0501335Y0992250D03*
X0501335Y1002250D03*
X0494248Y1002250D03*
X0493623Y1009750D03*
X0500710Y1009750D03*
X0500710Y1017250D03*
X0493623Y1017250D03*
X0514248Y1015375D03*
X0514248Y1009750D03*
X0521335Y1009750D03*
X0521335Y1015375D03*
X0521311Y1001257D03*
X0514224Y1001257D03*
X0514248Y0991000D03*
X0521335Y0991000D03*
X0445085Y0952250D03*
X0437998Y0952250D03*
X0433210Y0952250D03*
X0426123Y0952250D03*
X0407585Y0949125D03*
X0400498Y0949125D03*
X0382585Y0949750D03*
X0375498Y0949750D03*
X0372998Y0967250D03*
X0380085Y0967250D03*
X0380085Y0974750D03*
X0372998Y0974750D03*
X0370498Y0992250D03*
X0377585Y0992250D03*
X0377585Y1002250D03*
X0370498Y1002250D03*
X0369873Y1009750D03*
X0376960Y1009750D03*
X0376960Y1017250D03*
X0369873Y1017250D03*
X0390498Y1015375D03*
X0390498Y1009750D03*
X0397585Y1009750D03*
X0397585Y1015375D03*
X0397561Y1001257D03*
X0390474Y1001257D03*
X0390498Y0991000D03*
X0397585Y0991000D03*
X0321335Y0952250D03*
X0314248Y0952250D03*
X0309460Y0952250D03*
X0302373Y0952250D03*
X0283835Y0949125D03*
X0276748Y0949125D03*
X0258835Y0949750D03*
X0251748Y0949750D03*
X0249248Y0967250D03*
X0256335Y0967250D03*
X0256335Y0974750D03*
X0249248Y0974750D03*
X0246748Y0992250D03*
X0253835Y0992250D03*
X0253835Y1002250D03*
X0246748Y1002250D03*
X0246123Y1009750D03*
X0253210Y1009750D03*
X0253210Y1017250D03*
X0246123Y1017250D03*
X0266748Y1015375D03*
X0266748Y1009750D03*
X0273835Y1009750D03*
X0273835Y1015375D03*
X0273811Y1001257D03*
X0266724Y1001257D03*
X0266748Y0991000D03*
X0273835Y0991000D03*
X0197585Y0952250D03*
X0190498Y0952250D03*
X0185710Y0952250D03*
X0178623Y0952250D03*
X0160085Y0949125D03*
X0152998Y0949125D03*
X0135085Y0949750D03*
X0127998Y0949750D03*
X0125498Y0967250D03*
X0132585Y0967250D03*
X0132585Y0974750D03*
X0125498Y0974750D03*
X0122998Y0992250D03*
X0130085Y0992250D03*
X0130085Y1002250D03*
X0122998Y1002250D03*
X0122373Y1009750D03*
X0129460Y1009750D03*
X0129460Y1017250D03*
X0122373Y1017250D03*
X0142998Y1015375D03*
X0142998Y1009750D03*
X0150085Y1009750D03*
X0150085Y1015375D03*
X0150061Y1001257D03*
X0142974Y1001257D03*
X0142998Y0991000D03*
X0150085Y0991000D03*
X0181448Y0884425D03*
X0188535Y0884425D03*
X0188535Y0875675D03*
X0181448Y0875675D03*
X0181448Y0865675D03*
X0188535Y0865675D03*
X0246448Y0758175D03*
X0253535Y0758175D03*
X0253535Y0750675D03*
X0246448Y0750675D03*
X0246448Y0743175D03*
X0253535Y0743175D03*
X0253535Y0735675D03*
X0246448Y0735675D03*
X0253727Y0705260D03*
X0260814Y0705260D03*
X0313740Y0711629D03*
X0320827Y0711629D03*
X0323948Y0721925D03*
X0331035Y0721925D03*
X0331035Y0730050D03*
X0323948Y0730050D03*
X0391448Y0735675D03*
X0398535Y0735675D03*
X0398535Y0743175D03*
X0391448Y0743175D03*
X0391448Y0750675D03*
X0398535Y0750675D03*
X0398535Y0758175D03*
X0391448Y0758175D03*
X0459990Y0711629D03*
X0467077Y0711629D03*
X0470198Y0721925D03*
X0477285Y0721925D03*
X0477285Y0730050D03*
X0470198Y0730050D03*
X0537698Y0735675D03*
X0544785Y0735675D03*
X0544785Y0743175D03*
X0537698Y0743175D03*
X0537698Y0750675D03*
X0544785Y0750675D03*
X0544785Y0758175D03*
X0537698Y0758175D03*
X0607490Y0711629D03*
X0614577Y0711629D03*
X0617698Y0721925D03*
X0624785Y0721925D03*
X0624785Y0730050D03*
X0617698Y0730050D03*
X0685198Y0735675D03*
X0692285Y0735675D03*
X0692285Y0743175D03*
X0685198Y0743175D03*
X0685198Y0750675D03*
X0692285Y0750675D03*
X0692285Y0758175D03*
X0685198Y0758175D03*
X0692477Y0705260D03*
X0699564Y0705260D03*
X0552064Y0705260D03*
X0544977Y0705260D03*
X0405814Y0705260D03*
X0398727Y0705260D03*
X0333535Y0635675D03*
X0326448Y0635675D03*
X0326448Y0626925D03*
X0333535Y0626925D03*
X0333535Y0616925D03*
X0326448Y0616925D03*
X0188535Y0616925D03*
X0181448Y0616925D03*
X0181448Y0626925D03*
X0188535Y0626925D03*
X0188535Y0635675D03*
X0181448Y0635675D03*
X0117064Y0705260D03*
X0109977Y0705260D03*
X0109785Y0735675D03*
X0102698Y0735675D03*
X0102698Y0743175D03*
X0109785Y0743175D03*
X0109785Y0750675D03*
X0102698Y0750675D03*
X0102698Y0758175D03*
X0109785Y0758175D03*
X0042285Y0730050D03*
X0035198Y0730050D03*
X0035198Y0721925D03*
X0042285Y0721925D03*
X0032077Y0711629D03*
X0024990Y0711629D03*
X0037698Y0635675D03*
X0044785Y0635675D03*
X0044785Y0626925D03*
X0037698Y0626925D03*
X0037698Y0616925D03*
X0044785Y0616925D03*
X0168740Y0711629D03*
X0175827Y0711629D03*
X0178948Y0721925D03*
X0186035Y0721925D03*
X0186035Y0730050D03*
X0178948Y0730050D03*
X0044785Y0865675D03*
X0037698Y0865675D03*
X0037698Y0875675D03*
X0044785Y0875675D03*
X0044785Y0884425D03*
X0037698Y0884425D03*
X0326448Y0884425D03*
X0333535Y0884425D03*
X0333535Y0875675D03*
X0326448Y0875675D03*
X0326448Y0865675D03*
X0333535Y0865675D03*
X0472698Y0865675D03*
X0479785Y0865675D03*
X0479785Y0875675D03*
X0472698Y0875675D03*
X0472698Y0884425D03*
X0479785Y0884425D03*
X0620198Y0884425D03*
X0627285Y0884425D03*
X0627285Y0875675D03*
X0620198Y0875675D03*
X0620198Y0865675D03*
X0627285Y0865675D03*
X0859248Y1031250D03*
X0866335Y1031250D03*
X0869248Y1070000D03*
X0869248Y1076250D03*
X0869248Y1082500D03*
X0876335Y1082500D03*
X0876335Y1076250D03*
X0876335Y1070000D03*
X0876335Y1096250D03*
X0869248Y1096250D03*
X1364248Y0403750D03*
X1371335Y0403750D03*
X1363835Y0396250D03*
X1356748Y0396250D03*
X1168835Y0323750D03*
X1161748Y0323750D03*
X1161748Y0316250D03*
X1168835Y0316250D03*
X0333535Y0368175D03*
X0326448Y0368175D03*
X0326448Y0378175D03*
X0333535Y0378175D03*
X0333535Y0386925D03*
X0326448Y0386925D03*
X0188535Y0386925D03*
X0181448Y0386925D03*
X0181448Y0378175D03*
X0188535Y0378175D03*
X0188535Y0368175D03*
X0181448Y0368175D03*
X0042285Y0232550D03*
X0035198Y0232550D03*
X0035198Y0224425D03*
X0042285Y0224425D03*
X0032077Y0214129D03*
X0024990Y0214129D03*
D14*
X0126542Y1026738D03*
X0126542Y1037762D03*
X0147167Y1037762D03*
X0147167Y1026738D03*
X0250292Y1026738D03*
X0250292Y1037762D03*
X0270917Y1037762D03*
X0270917Y1026738D03*
X0374042Y1026738D03*
X0374042Y1037762D03*
X0394667Y1037762D03*
X0394667Y1026738D03*
X0497792Y1026738D03*
X0497792Y1037762D03*
X0518417Y1037762D03*
X0518417Y1026738D03*
X0621542Y1026738D03*
X0621542Y1037762D03*
X0642167Y1037762D03*
X0642167Y1026738D03*
D15*
X0657492Y1022250D03*
X0657492Y1032250D03*
X0657492Y1042250D03*
X0657492Y1052250D03*
X0657492Y1062250D03*
X0657492Y1072250D03*
X0657492Y1082250D03*
X0657492Y1092250D03*
X0657492Y1102250D03*
X0657492Y1112250D03*
X0657492Y1122250D03*
X0657492Y1132250D03*
X0657492Y1142250D03*
X0657492Y1152250D03*
X0685592Y1152250D03*
X0685592Y1142250D03*
X0685592Y1132250D03*
X0685592Y1122250D03*
X0685592Y1112250D03*
X0685592Y1102250D03*
X0685592Y1092250D03*
X0685592Y1082250D03*
X0685592Y1072250D03*
X0685592Y1062250D03*
X0685592Y1052250D03*
X0685592Y1042250D03*
X0685592Y1032250D03*
X0685592Y1022250D03*
X0685592Y1012250D03*
X0685592Y1002250D03*
X0685592Y0992250D03*
X0685592Y0982250D03*
X0685592Y0972250D03*
X0685592Y0962250D03*
X0657492Y0962250D03*
X0657492Y0972250D03*
X0657492Y0982250D03*
X0657492Y0992250D03*
X0657492Y1002250D03*
X0657492Y1012250D03*
X0561842Y1012250D03*
X0561842Y1002250D03*
X0561842Y0992250D03*
X0561842Y0982250D03*
X0561842Y0972250D03*
X0561842Y0962250D03*
X0533742Y0962250D03*
X0533742Y0972250D03*
X0533742Y0982250D03*
X0533742Y0992250D03*
X0533742Y1002250D03*
X0533742Y1012250D03*
X0533742Y1022250D03*
X0533742Y1032250D03*
X0533742Y1042250D03*
X0533742Y1052250D03*
X0533742Y1062250D03*
X0533742Y1072250D03*
X0533742Y1082250D03*
X0533742Y1092250D03*
X0533742Y1102250D03*
X0533742Y1112250D03*
X0533742Y1122250D03*
X0533742Y1132250D03*
X0533742Y1142250D03*
X0533742Y1152250D03*
X0561842Y1152250D03*
X0561842Y1142250D03*
X0561842Y1132250D03*
X0561842Y1122250D03*
X0561842Y1112250D03*
X0561842Y1102250D03*
X0561842Y1092250D03*
X0561842Y1082250D03*
X0561842Y1072250D03*
X0561842Y1062250D03*
X0561842Y1052250D03*
X0561842Y1042250D03*
X0561842Y1032250D03*
X0561842Y1022250D03*
X0438092Y1022250D03*
X0438092Y1032250D03*
X0438092Y1042250D03*
X0438092Y1052250D03*
X0438092Y1062250D03*
X0438092Y1072250D03*
X0438092Y1082250D03*
X0438092Y1092250D03*
X0438092Y1102250D03*
X0438092Y1112250D03*
X0438092Y1122250D03*
X0438092Y1132250D03*
X0438092Y1142250D03*
X0438092Y1152250D03*
X0409992Y1152250D03*
X0409992Y1142250D03*
X0409992Y1132250D03*
X0409992Y1122250D03*
X0409992Y1112250D03*
X0409992Y1102250D03*
X0409992Y1092250D03*
X0409992Y1082250D03*
X0409992Y1072250D03*
X0409992Y1062250D03*
X0409992Y1052250D03*
X0409992Y1042250D03*
X0409992Y1032250D03*
X0409992Y1022250D03*
X0409992Y1012250D03*
X0409992Y1002250D03*
X0409992Y0992250D03*
X0409992Y0982250D03*
X0409992Y0972250D03*
X0409992Y0962250D03*
X0438092Y0962250D03*
X0438092Y0972250D03*
X0438092Y0982250D03*
X0438092Y0992250D03*
X0438092Y1002250D03*
X0438092Y1012250D03*
X0314342Y1012250D03*
X0314342Y1002250D03*
X0314342Y0992250D03*
X0314342Y0982250D03*
X0314342Y0972250D03*
X0314342Y0962250D03*
X0286242Y0962250D03*
X0286242Y0972250D03*
X0286242Y0982250D03*
X0286242Y0992250D03*
X0286242Y1002250D03*
X0286242Y1012250D03*
X0286242Y1022250D03*
X0286242Y1032250D03*
X0286242Y1042250D03*
X0286242Y1052250D03*
X0286242Y1062250D03*
X0286242Y1072250D03*
X0286242Y1082250D03*
X0286242Y1092250D03*
X0286242Y1102250D03*
X0286242Y1112250D03*
X0286242Y1122250D03*
X0286242Y1132250D03*
X0286242Y1142250D03*
X0286242Y1152250D03*
X0314342Y1152250D03*
X0314342Y1142250D03*
X0314342Y1132250D03*
X0314342Y1122250D03*
X0314342Y1112250D03*
X0314342Y1102250D03*
X0314342Y1092250D03*
X0314342Y1082250D03*
X0314342Y1072250D03*
X0314342Y1062250D03*
X0314342Y1052250D03*
X0314342Y1042250D03*
X0314342Y1032250D03*
X0314342Y1022250D03*
X0190592Y1022250D03*
X0190592Y1032250D03*
X0190592Y1042250D03*
X0190592Y1052250D03*
X0190592Y1062250D03*
X0190592Y1072250D03*
X0190592Y1082250D03*
X0190592Y1092250D03*
X0190592Y1102250D03*
X0190592Y1112250D03*
X0190592Y1122250D03*
X0190592Y1132250D03*
X0190592Y1142250D03*
X0190592Y1152250D03*
X0162492Y1152250D03*
X0162492Y1142250D03*
X0162492Y1132250D03*
X0162492Y1122250D03*
X0162492Y1112250D03*
X0162492Y1102250D03*
X0162492Y1092250D03*
X0162492Y1082250D03*
X0162492Y1072250D03*
X0162492Y1062250D03*
X0162492Y1052250D03*
X0162492Y1042250D03*
X0162492Y1032250D03*
X0162492Y1022250D03*
X0162492Y1012250D03*
X0162492Y1002250D03*
X0162492Y0992250D03*
X0162492Y0982250D03*
X0162492Y0972250D03*
X0162492Y0962250D03*
X0190592Y0962250D03*
X0190592Y0972250D03*
X0190592Y0982250D03*
X0190592Y0992250D03*
X0190592Y1002250D03*
X0190592Y1012250D03*
X0203442Y0908800D03*
X0203442Y0898800D03*
X0203442Y0888800D03*
X0203442Y0878800D03*
X0203442Y0868800D03*
X0203442Y0858800D03*
X0203442Y0848800D03*
X0203442Y0838800D03*
X0203442Y0828800D03*
X0203442Y0818800D03*
X0203442Y0808800D03*
X0203442Y0798800D03*
X0203442Y0788800D03*
X0203442Y0778800D03*
X0203442Y0768800D03*
X0203442Y0758800D03*
X0203442Y0748800D03*
X0203442Y0738800D03*
X0203442Y0728800D03*
X0203442Y0718800D03*
X0231542Y0718800D03*
X0231542Y0728800D03*
X0231542Y0738800D03*
X0231542Y0748800D03*
X0231542Y0758800D03*
X0231542Y0768800D03*
X0231542Y0778800D03*
X0231542Y0788800D03*
X0231542Y0798800D03*
X0231542Y0808800D03*
X0231542Y0818800D03*
X0231542Y0828800D03*
X0231542Y0838800D03*
X0231542Y0848800D03*
X0231542Y0858800D03*
X0231542Y0868800D03*
X0231542Y0878800D03*
X0231542Y0888800D03*
X0231542Y0898800D03*
X0231542Y0908800D03*
X0348442Y0908800D03*
X0348442Y0898800D03*
X0348442Y0888800D03*
X0348442Y0878800D03*
X0348442Y0868800D03*
X0348442Y0858800D03*
X0348442Y0848800D03*
X0348442Y0838800D03*
X0348442Y0828800D03*
X0348442Y0818800D03*
X0348442Y0808800D03*
X0348442Y0798800D03*
X0348442Y0788800D03*
X0348442Y0778800D03*
X0348442Y0768800D03*
X0348442Y0758800D03*
X0348442Y0748800D03*
X0348442Y0738800D03*
X0348442Y0728800D03*
X0348442Y0718800D03*
X0376542Y0718800D03*
X0376542Y0728800D03*
X0376542Y0738800D03*
X0376542Y0748800D03*
X0376542Y0758800D03*
X0376542Y0768800D03*
X0376542Y0778800D03*
X0376542Y0788800D03*
X0376542Y0798800D03*
X0376542Y0808800D03*
X0376542Y0818800D03*
X0376542Y0828800D03*
X0376542Y0838800D03*
X0376542Y0848800D03*
X0376542Y0858800D03*
X0376542Y0868800D03*
X0376542Y0878800D03*
X0376542Y0888800D03*
X0376542Y0898800D03*
X0376542Y0908800D03*
X0494692Y0908800D03*
X0494692Y0898800D03*
X0494692Y0888800D03*
X0494692Y0878800D03*
X0494692Y0868800D03*
X0494692Y0858800D03*
X0494692Y0848800D03*
X0494692Y0838800D03*
X0494692Y0828800D03*
X0494692Y0818800D03*
X0494692Y0808800D03*
X0494692Y0798800D03*
X0494692Y0788800D03*
X0494692Y0778800D03*
X0494692Y0768800D03*
X0494692Y0758800D03*
X0494692Y0748800D03*
X0494692Y0738800D03*
X0494692Y0728800D03*
X0494692Y0718800D03*
X0522792Y0718800D03*
X0522792Y0728800D03*
X0522792Y0738800D03*
X0522792Y0748800D03*
X0522792Y0758800D03*
X0522792Y0768800D03*
X0522792Y0778800D03*
X0522792Y0788800D03*
X0522792Y0798800D03*
X0522792Y0808800D03*
X0522792Y0818800D03*
X0522792Y0828800D03*
X0522792Y0838800D03*
X0522792Y0848800D03*
X0522792Y0858800D03*
X0522792Y0868800D03*
X0522792Y0878800D03*
X0522792Y0888800D03*
X0522792Y0898800D03*
X0522792Y0908800D03*
X0642192Y0908800D03*
X0642192Y0898800D03*
X0642192Y0888800D03*
X0642192Y0878800D03*
X0642192Y0868800D03*
X0642192Y0858800D03*
X0642192Y0848800D03*
X0642192Y0838800D03*
X0642192Y0828800D03*
X0642192Y0818800D03*
X0642192Y0808800D03*
X0642192Y0798800D03*
X0642192Y0788800D03*
X0642192Y0778800D03*
X0642192Y0768800D03*
X0642192Y0758800D03*
X0642192Y0748800D03*
X0642192Y0738800D03*
X0642192Y0728800D03*
X0642192Y0718800D03*
X0670292Y0718800D03*
X0670292Y0728800D03*
X0670292Y0738800D03*
X0670292Y0748800D03*
X0670292Y0758800D03*
X0670292Y0768800D03*
X0670292Y0778800D03*
X0670292Y0788800D03*
X0670292Y0798800D03*
X0670292Y0808800D03*
X0670292Y0818800D03*
X0670292Y0828800D03*
X0670292Y0838800D03*
X0670292Y0848800D03*
X0670292Y0858800D03*
X0670292Y0868800D03*
X0670292Y0878800D03*
X0670292Y0888800D03*
X0670292Y0898800D03*
X0670292Y0908800D03*
X0376542Y0660050D03*
X0376542Y0650050D03*
X0376542Y0640050D03*
X0376542Y0630050D03*
X0376542Y0620050D03*
X0376542Y0610050D03*
X0376542Y0600050D03*
X0376542Y0590050D03*
X0376542Y0580050D03*
X0376542Y0570050D03*
X0376542Y0560050D03*
X0376542Y0550050D03*
X0376542Y0540050D03*
X0376542Y0530050D03*
X0376542Y0520050D03*
X0376542Y0510050D03*
X0376542Y0500050D03*
X0376542Y0490050D03*
X0376542Y0480050D03*
X0376542Y0470050D03*
X0348442Y0470050D03*
X0348442Y0480050D03*
X0348442Y0490050D03*
X0348442Y0500050D03*
X0348442Y0510050D03*
X0348442Y0520050D03*
X0348442Y0530050D03*
X0348442Y0540050D03*
X0348442Y0550050D03*
X0348442Y0560050D03*
X0348442Y0570050D03*
X0348442Y0580050D03*
X0348442Y0590050D03*
X0348442Y0600050D03*
X0348442Y0610050D03*
X0348442Y0620050D03*
X0348442Y0630050D03*
X0348442Y0640050D03*
X0348442Y0650050D03*
X0348442Y0660050D03*
X0231542Y0660050D03*
X0231542Y0650050D03*
X0231542Y0640050D03*
X0231542Y0630050D03*
X0231542Y0620050D03*
X0231542Y0610050D03*
X0231542Y0600050D03*
X0231542Y0590050D03*
X0231542Y0580050D03*
X0231542Y0570050D03*
X0231542Y0560050D03*
X0231542Y0550050D03*
X0231542Y0540050D03*
X0231542Y0530050D03*
X0231542Y0520050D03*
X0231542Y0510050D03*
X0231542Y0500050D03*
X0231542Y0490050D03*
X0231542Y0480050D03*
X0231542Y0470050D03*
X0203442Y0470050D03*
X0203442Y0480050D03*
X0203442Y0490050D03*
X0203442Y0500050D03*
X0203442Y0510050D03*
X0203442Y0520050D03*
X0203442Y0530050D03*
X0203442Y0540050D03*
X0203442Y0550050D03*
X0203442Y0560050D03*
X0203442Y0570050D03*
X0203442Y0580050D03*
X0203442Y0590050D03*
X0203442Y0600050D03*
X0203442Y0610050D03*
X0203442Y0620050D03*
X0203442Y0630050D03*
X0203442Y0640050D03*
X0203442Y0650050D03*
X0203442Y0660050D03*
X0087792Y0660050D03*
X0087792Y0650050D03*
X0087792Y0640050D03*
X0087792Y0630050D03*
X0087792Y0620050D03*
X0087792Y0610050D03*
X0087792Y0600050D03*
X0087792Y0590050D03*
X0087792Y0580050D03*
X0087792Y0570050D03*
X0087792Y0560050D03*
X0087792Y0550050D03*
X0087792Y0540050D03*
X0087792Y0530050D03*
X0087792Y0520050D03*
X0087792Y0510050D03*
X0087792Y0500050D03*
X0087792Y0490050D03*
X0087792Y0480050D03*
X0087792Y0470050D03*
X0059692Y0470050D03*
X0059692Y0480050D03*
X0059692Y0490050D03*
X0059692Y0500050D03*
X0059692Y0510050D03*
X0059692Y0520050D03*
X0059692Y0530050D03*
X0059692Y0540050D03*
X0059692Y0550050D03*
X0059692Y0560050D03*
X0059692Y0570050D03*
X0059692Y0580050D03*
X0059692Y0590050D03*
X0059692Y0600050D03*
X0059692Y0610050D03*
X0059692Y0620050D03*
X0059692Y0630050D03*
X0059692Y0640050D03*
X0059692Y0650050D03*
X0059692Y0660050D03*
X0059692Y0718800D03*
X0059692Y0728800D03*
X0059692Y0738800D03*
X0059692Y0748800D03*
X0059692Y0758800D03*
X0059692Y0768800D03*
X0059692Y0778800D03*
X0059692Y0788800D03*
X0059692Y0798800D03*
X0059692Y0808800D03*
X0059692Y0818800D03*
X0059692Y0828800D03*
X0059692Y0838800D03*
X0059692Y0848800D03*
X0059692Y0858800D03*
X0059692Y0868800D03*
X0059692Y0878800D03*
X0059692Y0888800D03*
X0059692Y0898800D03*
X0059692Y0908800D03*
X0087792Y0908800D03*
X0087792Y0898800D03*
X0087792Y0888800D03*
X0087792Y0878800D03*
X0087792Y0868800D03*
X0087792Y0858800D03*
X0087792Y0848800D03*
X0087792Y0838800D03*
X0087792Y0828800D03*
X0087792Y0818800D03*
X0087792Y0808800D03*
X0087792Y0798800D03*
X0087792Y0788800D03*
X0087792Y0778800D03*
X0087792Y0768800D03*
X0087792Y0758800D03*
X0087792Y0748800D03*
X0087792Y0738800D03*
X0087792Y0728800D03*
X0087792Y0718800D03*
X0087792Y0411300D03*
X0087792Y0401300D03*
X0087792Y0391300D03*
X0087792Y0381300D03*
X0087792Y0371300D03*
X0087792Y0361300D03*
X0087792Y0351300D03*
X0087792Y0341300D03*
X0087792Y0331300D03*
X0087792Y0321300D03*
X0087792Y0311300D03*
X0087792Y0301300D03*
X0087792Y0291300D03*
X0087792Y0281300D03*
X0087792Y0271300D03*
X0087792Y0261300D03*
X0087792Y0251300D03*
X0087792Y0241300D03*
X0087792Y0231300D03*
X0087792Y0221300D03*
X0059692Y0221300D03*
X0059692Y0231300D03*
X0059692Y0241300D03*
X0059692Y0251300D03*
X0059692Y0261300D03*
X0059692Y0271300D03*
X0059692Y0281300D03*
X0059692Y0291300D03*
X0059692Y0301300D03*
X0059692Y0311300D03*
X0059692Y0321300D03*
X0059692Y0331300D03*
X0059692Y0341300D03*
X0059692Y0351300D03*
X0059692Y0361300D03*
X0059692Y0371300D03*
X0059692Y0381300D03*
X0059692Y0391300D03*
X0059692Y0401300D03*
X0059692Y0411300D03*
X0203442Y0411300D03*
X0203442Y0401300D03*
X0203442Y0391300D03*
X0203442Y0381300D03*
X0203442Y0371300D03*
X0203442Y0361300D03*
X0203442Y0351300D03*
X0203442Y0341300D03*
X0203442Y0331300D03*
X0203442Y0321300D03*
X0203442Y0311300D03*
X0203442Y0301300D03*
X0203442Y0291300D03*
X0203442Y0281300D03*
X0203442Y0271300D03*
X0203442Y0261300D03*
X0203442Y0251300D03*
X0203442Y0241300D03*
X0203442Y0231300D03*
X0203442Y0221300D03*
X0231542Y0221300D03*
X0231542Y0231300D03*
X0231542Y0241300D03*
X0231542Y0251300D03*
X0231542Y0261300D03*
X0231542Y0271300D03*
X0231542Y0281300D03*
X0231542Y0291300D03*
X0231542Y0301300D03*
X0231542Y0311300D03*
X0231542Y0321300D03*
X0231542Y0331300D03*
X0231542Y0341300D03*
X0231542Y0351300D03*
X0231542Y0361300D03*
X0231542Y0371300D03*
X0231542Y0381300D03*
X0231542Y0391300D03*
X0231542Y0401300D03*
X0231542Y0411300D03*
X0348442Y0411300D03*
X0348442Y0401300D03*
X0348442Y0391300D03*
X0348442Y0381300D03*
X0348442Y0371300D03*
X0348442Y0361300D03*
X0348442Y0351300D03*
X0348442Y0341300D03*
X0348442Y0331300D03*
X0348442Y0321300D03*
X0348442Y0311300D03*
X0348442Y0301300D03*
X0348442Y0291300D03*
X0348442Y0281300D03*
X0348442Y0271300D03*
X0348442Y0261300D03*
X0348442Y0251300D03*
X0348442Y0241300D03*
X0348442Y0231300D03*
X0348442Y0221300D03*
X0376542Y0221300D03*
X0376542Y0231300D03*
X0376542Y0241300D03*
X0376542Y0251300D03*
X0376542Y0261300D03*
X0376542Y0271300D03*
X0376542Y0281300D03*
X0376542Y0291300D03*
X0376542Y0301300D03*
X0376542Y0311300D03*
X0376542Y0321300D03*
X0376542Y0331300D03*
X0376542Y0341300D03*
X0376542Y0351300D03*
X0376542Y0361300D03*
X0376542Y0371300D03*
X0376542Y0381300D03*
X0376542Y0391300D03*
X0376542Y0401300D03*
X0376542Y0411300D03*
X1369692Y0646300D03*
X1369692Y0656300D03*
X1369692Y0666300D03*
X1369692Y0676300D03*
X1369692Y0686300D03*
X1369692Y0696300D03*
X1369692Y0706300D03*
X1369692Y0716300D03*
X1369692Y0726300D03*
X1369692Y0736300D03*
X1369692Y0746300D03*
X1369692Y0756300D03*
X1369692Y0766300D03*
X1369692Y0776300D03*
X1369692Y0786300D03*
X1369692Y0796300D03*
X1369692Y0806300D03*
X1369692Y0816300D03*
X1369692Y0826300D03*
X1369692Y0836300D03*
X1397792Y0836300D03*
X1397792Y0826300D03*
X1397792Y0816300D03*
X1397792Y0806300D03*
X1397792Y0796300D03*
X1397792Y0786300D03*
X1397792Y0776300D03*
X1397792Y0766300D03*
X1397792Y0756300D03*
X1397792Y0746300D03*
X1397792Y0736300D03*
X1397792Y0726300D03*
X1397792Y0716300D03*
X1397792Y0706300D03*
X1397792Y0696300D03*
X1397792Y0686300D03*
X1397792Y0676300D03*
X1397792Y0666300D03*
X1397792Y0656300D03*
X1397792Y0646300D03*
X1513442Y0646300D03*
X1513442Y0656300D03*
X1513442Y0666300D03*
X1513442Y0676300D03*
X1513442Y0686300D03*
X1513442Y0696300D03*
X1513442Y0706300D03*
X1513442Y0716300D03*
X1513442Y0726300D03*
X1513442Y0736300D03*
X1513442Y0746300D03*
X1513442Y0756300D03*
X1513442Y0766300D03*
X1513442Y0776300D03*
X1513442Y0786300D03*
X1513442Y0796300D03*
X1513442Y0806300D03*
X1513442Y0816300D03*
X1513442Y0826300D03*
X1513442Y0836300D03*
X1541542Y0836300D03*
X1541542Y0826300D03*
X1541542Y0816300D03*
X1541542Y0806300D03*
X1541542Y0796300D03*
X1541542Y0786300D03*
X1541542Y0776300D03*
X1541542Y0766300D03*
X1541542Y0756300D03*
X1541542Y0746300D03*
X1541542Y0736300D03*
X1541542Y0726300D03*
X1541542Y0716300D03*
X1541542Y0706300D03*
X1541542Y0696300D03*
X1541542Y0686300D03*
X1541542Y0676300D03*
X1541542Y0666300D03*
X1541542Y0656300D03*
X1541542Y0646300D03*
X1541542Y0896300D03*
X1541542Y0906300D03*
X1541542Y0916300D03*
X1541542Y0926300D03*
X1541542Y0936300D03*
X1541542Y0946300D03*
X1541542Y0956300D03*
X1541542Y0966300D03*
X1541542Y0976300D03*
X1541542Y0986300D03*
X1541542Y0996300D03*
X1541542Y1006300D03*
X1541542Y1016300D03*
X1541542Y1026300D03*
X1541542Y1036300D03*
X1541542Y1046300D03*
X1541542Y1056300D03*
X1541542Y1066300D03*
X1541542Y1076300D03*
X1541542Y1086300D03*
X1513442Y1086300D03*
X1513442Y1076300D03*
X1513442Y1066300D03*
X1513442Y1056300D03*
X1513442Y1046300D03*
X1513442Y1036300D03*
X1513442Y1026300D03*
X1513442Y1016300D03*
X1513442Y1006300D03*
X1513442Y0996300D03*
X1513442Y0986300D03*
X1513442Y0976300D03*
X1513442Y0966300D03*
X1513442Y0956300D03*
X1513442Y0946300D03*
X1513442Y0936300D03*
X1513442Y0926300D03*
X1513442Y0916300D03*
X1513442Y0906300D03*
X1513442Y0896300D03*
X1397792Y0896300D03*
X1397792Y0906300D03*
X1397792Y0916300D03*
X1397792Y0926300D03*
X1397792Y0936300D03*
X1397792Y0946300D03*
X1397792Y0956300D03*
X1397792Y0966300D03*
X1397792Y0976300D03*
X1397792Y0986300D03*
X1397792Y0996300D03*
X1397792Y1006300D03*
X1397792Y1016300D03*
X1397792Y1026300D03*
X1397792Y1036300D03*
X1397792Y1046300D03*
X1397792Y1056300D03*
X1397792Y1066300D03*
X1397792Y1076300D03*
X1397792Y1086300D03*
X1369692Y1086300D03*
X1369692Y1076300D03*
X1369692Y1066300D03*
X1369692Y1056300D03*
X1369692Y1046300D03*
X1369692Y1036300D03*
X1369692Y1026300D03*
X1369692Y1016300D03*
X1369692Y1006300D03*
X1369692Y0996300D03*
X1369692Y0986300D03*
X1369692Y0976300D03*
X1369692Y0966300D03*
X1369692Y0956300D03*
X1369692Y0946300D03*
X1369692Y0936300D03*
X1369692Y0926300D03*
X1369692Y0916300D03*
X1369692Y0906300D03*
X1369692Y0896300D03*
D16*
X0714849Y1096010D03*
X0714849Y1103884D03*
X0714849Y1111758D03*
X0714849Y1119632D03*
X0714849Y1127506D03*
X0714849Y1135380D03*
X0714849Y1143254D03*
X0714849Y1151128D03*
X0714849Y1159002D03*
X0714849Y1166876D03*
X0628235Y1166876D03*
X0628235Y1159002D03*
X0628235Y1151128D03*
X0628235Y1143254D03*
X0628235Y1135380D03*
X0628235Y1127506D03*
X0628235Y1119632D03*
X0628235Y1111758D03*
X0628235Y1103884D03*
X0628235Y1096010D03*
X0591099Y1096010D03*
X0591099Y1103884D03*
X0591099Y1111758D03*
X0591099Y1119632D03*
X0591099Y1127506D03*
X0591099Y1135380D03*
X0591099Y1143254D03*
X0591099Y1151128D03*
X0591099Y1159002D03*
X0591099Y1166876D03*
X0504485Y1166876D03*
X0504485Y1159002D03*
X0504485Y1151128D03*
X0504485Y1143254D03*
X0504485Y1135380D03*
X0504485Y1127506D03*
X0504485Y1119632D03*
X0504485Y1111758D03*
X0504485Y1103884D03*
X0504485Y1096010D03*
X0468599Y1096010D03*
X0468599Y1103884D03*
X0468599Y1111758D03*
X0468599Y1119632D03*
X0468599Y1127506D03*
X0468599Y1135380D03*
X0468599Y1143254D03*
X0468599Y1151128D03*
X0468599Y1159002D03*
X0468599Y1166876D03*
X0381985Y1166876D03*
X0381985Y1159002D03*
X0381985Y1151128D03*
X0381985Y1143254D03*
X0381985Y1135380D03*
X0381985Y1127506D03*
X0381985Y1119632D03*
X0381985Y1111758D03*
X0381985Y1103884D03*
X0381985Y1096010D03*
X0343599Y1096010D03*
X0343599Y1103884D03*
X0343599Y1111758D03*
X0343599Y1119632D03*
X0343599Y1127506D03*
X0343599Y1135380D03*
X0343599Y1143254D03*
X0343599Y1151128D03*
X0343599Y1159002D03*
X0343599Y1166876D03*
X0256985Y1166876D03*
X0256985Y1159002D03*
X0256985Y1151128D03*
X0256985Y1143254D03*
X0256985Y1135380D03*
X0256985Y1127506D03*
X0256985Y1119632D03*
X0256985Y1111758D03*
X0256985Y1103884D03*
X0256985Y1096010D03*
X0219849Y1096010D03*
X0219849Y1103884D03*
X0219849Y1111758D03*
X0219849Y1119632D03*
X0219849Y1127506D03*
X0219849Y1135380D03*
X0219849Y1143254D03*
X0219849Y1151128D03*
X0219849Y1159002D03*
X0219849Y1166876D03*
X0133235Y1166876D03*
X0133235Y1159002D03*
X0133235Y1151128D03*
X0133235Y1143254D03*
X0133235Y1135380D03*
X0133235Y1127506D03*
X0133235Y1119632D03*
X0133235Y1111758D03*
X0133235Y1103884D03*
X0133235Y1096010D03*
D17*
X0209042Y1014750D03*
X0219042Y1014750D03*
X0219042Y1004750D03*
X0219042Y0994750D03*
X0219042Y0984750D03*
X0219042Y0974750D03*
X0209042Y0974750D03*
X0209042Y0984750D03*
X0209042Y0994750D03*
X0209042Y1004750D03*
X0332792Y1004750D03*
X0342792Y1004750D03*
X0342792Y0994750D03*
X0342792Y0984750D03*
X0342792Y0974750D03*
X0332792Y0974750D03*
X0332792Y0984750D03*
X0332792Y0994750D03*
X0332792Y1014750D03*
X0342792Y1014750D03*
X0456542Y1014750D03*
X0466542Y1014750D03*
X0466542Y1004750D03*
X0466542Y0994750D03*
X0466542Y0984750D03*
X0466542Y0974750D03*
X0456542Y0974750D03*
X0456542Y0984750D03*
X0456542Y0994750D03*
X0456542Y1004750D03*
X0580292Y1004750D03*
X0590292Y1004750D03*
X0590292Y0994750D03*
X0590292Y0984750D03*
X0590292Y0974750D03*
X0580292Y0974750D03*
X0580292Y0984750D03*
X0580292Y0994750D03*
X0580292Y1014750D03*
X0590292Y1014750D03*
X0704042Y1014750D03*
X0714042Y1014750D03*
X0714042Y1004750D03*
X0714042Y0994750D03*
X0714042Y0984750D03*
X0714042Y0974750D03*
X0704042Y0974750D03*
X0704042Y0984750D03*
X0704042Y0994750D03*
X0704042Y1004750D03*
X0704367Y0763175D03*
X0714367Y0763175D03*
X0714367Y0753175D03*
X0714367Y0743175D03*
X0714367Y0733175D03*
X0714367Y0723175D03*
X0704367Y0723175D03*
X0704367Y0733175D03*
X0704367Y0743175D03*
X0704367Y0753175D03*
X0566867Y0753175D03*
X0566867Y0743175D03*
X0566867Y0733175D03*
X0566867Y0723175D03*
X0556867Y0723175D03*
X0556867Y0733175D03*
X0556867Y0743175D03*
X0556867Y0753175D03*
X0556867Y0763175D03*
X0566867Y0763175D03*
X0420617Y0763175D03*
X0420617Y0753175D03*
X0420617Y0743175D03*
X0420617Y0733175D03*
X0420617Y0723175D03*
X0410617Y0723175D03*
X0410617Y0733175D03*
X0410617Y0743175D03*
X0410617Y0753175D03*
X0410617Y0763175D03*
X0275617Y0763175D03*
X0275617Y0753175D03*
X0275617Y0743175D03*
X0275617Y0733175D03*
X0275617Y0723175D03*
X0265617Y0723175D03*
X0265617Y0733175D03*
X0265617Y0743175D03*
X0265617Y0753175D03*
X0265617Y0763175D03*
X0131867Y0763175D03*
X0131867Y0753175D03*
X0131867Y0743175D03*
X0131867Y0733175D03*
X0131867Y0723175D03*
X0121867Y0723175D03*
X0121867Y0733175D03*
X0121867Y0743175D03*
X0121867Y0753175D03*
X0121867Y0763175D03*
X0121867Y0514425D03*
X0131867Y0514425D03*
X0131867Y0504425D03*
X0131867Y0494425D03*
X0131867Y0484425D03*
X0131867Y0474425D03*
X0121867Y0474425D03*
X0121867Y0484425D03*
X0121867Y0494425D03*
X0121867Y0504425D03*
X0265617Y0504425D03*
X0275617Y0504425D03*
X0275617Y0514425D03*
X0265617Y0514425D03*
X0265617Y0494425D03*
X0275617Y0494425D03*
X0275617Y0484425D03*
X0275617Y0474425D03*
X0265617Y0474425D03*
X0265617Y0484425D03*
X0410617Y0484425D03*
X0420617Y0484425D03*
X0420617Y0474425D03*
X0410617Y0474425D03*
X0410617Y0494425D03*
X0420617Y0494425D03*
X0420617Y0504425D03*
X0420617Y0514425D03*
X0410617Y0514425D03*
X0410617Y0504425D03*
X0410617Y0265675D03*
X0420617Y0265675D03*
X0420617Y0255675D03*
X0420617Y0245675D03*
X0420617Y0235675D03*
X0420617Y0225675D03*
X0410617Y0225675D03*
X0410617Y0235675D03*
X0410617Y0245675D03*
X0410617Y0255675D03*
X0275617Y0255675D03*
X0275617Y0245675D03*
X0275617Y0235675D03*
X0275617Y0225675D03*
X0265617Y0225675D03*
X0265617Y0235675D03*
X0265617Y0245675D03*
X0265617Y0255675D03*
X0265617Y0265675D03*
X0275617Y0265675D03*
X0131867Y0265675D03*
X0131867Y0255675D03*
X0131867Y0245675D03*
X0131867Y0235675D03*
X0131867Y0225675D03*
X0121867Y0225675D03*
X0121867Y0235675D03*
X0121867Y0245675D03*
X0121867Y0255675D03*
X0121867Y0265675D03*
X0226217Y0071925D03*
X0236217Y0071925D03*
X0246217Y0071925D03*
X0256217Y0071925D03*
X0266217Y0071925D03*
X0266217Y0061925D03*
X0256217Y0061925D03*
X0246217Y0061925D03*
X0236217Y0061925D03*
X0226217Y0061925D03*
X1431867Y0650675D03*
X1441867Y0650675D03*
X1441867Y0660675D03*
X1441867Y0670675D03*
X1441867Y0680675D03*
X1441867Y0690675D03*
X1431867Y0690675D03*
X1431867Y0680675D03*
X1431867Y0670675D03*
X1431867Y0660675D03*
X1575617Y0660675D03*
X1585617Y0660675D03*
X1585617Y0670675D03*
X1585617Y0680675D03*
X1585617Y0690675D03*
X1575617Y0690675D03*
X1575617Y0680675D03*
X1575617Y0670675D03*
X1575617Y0650675D03*
X1585617Y0650675D03*
X1585617Y0900675D03*
X1585617Y0910675D03*
X1585617Y0920675D03*
X1585617Y0930675D03*
X1585617Y0940675D03*
X1575617Y0940675D03*
X1575617Y0930675D03*
X1575617Y0920675D03*
X1575617Y0910675D03*
X1575617Y0900675D03*
X1441867Y0900675D03*
X1441867Y0910675D03*
X1441867Y0920675D03*
X1441867Y0930675D03*
X1441867Y0940675D03*
X1431867Y0940675D03*
X1431867Y0930675D03*
X1431867Y0920675D03*
X1431867Y0910675D03*
X1431867Y0900675D03*
D18*
X1197792Y1027707D03*
X1197792Y1034793D03*
X1110292Y1027293D03*
X1110292Y1020207D03*
X1110292Y1012293D03*
X1110292Y1005207D03*
X1077792Y0999793D03*
X1077792Y0992707D03*
X1040292Y1000207D03*
X1040292Y1007293D03*
X0942792Y0944793D03*
X0942792Y0937707D03*
X0932792Y0937707D03*
X0932792Y0944793D03*
X0875292Y0912293D03*
X0875292Y0905207D03*
X0857792Y0980207D03*
X0857792Y0987293D03*
X0873492Y1006507D03*
X0873492Y1013593D03*
X0634374Y0968937D03*
X0634374Y0961850D03*
X0510624Y0961850D03*
X0510624Y0968937D03*
X0386874Y0968937D03*
X0386874Y0961850D03*
X0263124Y0961850D03*
X0263124Y0968937D03*
X0139374Y0968937D03*
X0139374Y0961850D03*
X0817792Y0459793D03*
X0817792Y0452707D03*
X0817792Y0444793D03*
X0817792Y0437707D03*
X0785292Y0432293D03*
X0785292Y0425207D03*
X0747792Y0432707D03*
X0747792Y0439793D03*
X0650292Y0377293D03*
X0650292Y0370207D03*
X0640292Y0370207D03*
X0640292Y0377293D03*
X0582792Y0344793D03*
X0582792Y0337707D03*
X0565292Y0412707D03*
X0565292Y0419793D03*
X0580992Y0439007D03*
X0580992Y0446093D03*
X0885292Y0612707D03*
X0885292Y0619793D03*
X0895292Y0619793D03*
X0895292Y0612707D03*
X0912792Y0612707D03*
X0912792Y0619793D03*
X0905292Y0467293D03*
X0905292Y0460207D03*
X1150292Y0424793D03*
X1150292Y0417707D03*
X1165992Y0444007D03*
X1165992Y0451093D03*
X1225292Y0382293D03*
X1225292Y0375207D03*
X1235292Y0375207D03*
X1235292Y0382293D03*
X1167792Y0349793D03*
X1167792Y0342707D03*
X1332792Y0437707D03*
X1332792Y0444793D03*
X1370292Y0437293D03*
X1370292Y0430207D03*
X1402792Y0442707D03*
X1402792Y0449793D03*
X1402792Y0457707D03*
X1402792Y0464793D03*
X1490292Y0465207D03*
X1490292Y0472293D03*
X1205292Y0057293D03*
X1205292Y0050207D03*
X1187792Y0050207D03*
X1187792Y0057293D03*
X1177792Y0057293D03*
X1177792Y0050207D03*
X0620292Y0052293D03*
X0620292Y0045207D03*
X0602792Y0045207D03*
X0602792Y0052293D03*
X0592792Y0052293D03*
X0592792Y0045207D03*
X0387467Y0149007D03*
X0387467Y0156093D03*
X0378717Y0156093D03*
X0378717Y0149007D03*
X0368717Y0149007D03*
X0368717Y0156093D03*
X0261217Y0091093D03*
X0261217Y0084007D03*
X0253717Y0084007D03*
X0253717Y0091093D03*
X0246217Y0091093D03*
X0246217Y0084007D03*
X0238717Y0084007D03*
X0238717Y0091093D03*
X0208302Y0083815D03*
X0208302Y0076728D03*
X0224967Y0151507D03*
X0224967Y0158593D03*
X0233092Y0158593D03*
X0233092Y0151507D03*
X0214671Y0161715D03*
X0214671Y0168801D03*
D19*
X0179135Y0346411D03*
X0171655Y0346411D03*
X0175395Y0354678D03*
X0035385Y0346411D03*
X0027905Y0346411D03*
X0031645Y0354678D03*
X0316655Y0346411D03*
X0324135Y0346411D03*
X0320395Y0354678D03*
X0316655Y0595161D03*
X0324135Y0595161D03*
X0320395Y0603428D03*
X0179135Y0595161D03*
X0171655Y0595161D03*
X0175395Y0603428D03*
X0035385Y0595161D03*
X0027905Y0595161D03*
X0031645Y0603428D03*
X0027905Y0843911D03*
X0035385Y0843911D03*
X0031645Y0852178D03*
X0171655Y0843911D03*
X0179135Y0843911D03*
X0175395Y0852178D03*
X0316655Y0843911D03*
X0324135Y0843911D03*
X0320395Y0852178D03*
X0462905Y0843911D03*
X0470385Y0843911D03*
X0466645Y0852178D03*
X0610405Y0843911D03*
X0617885Y0843911D03*
X0614145Y0852178D03*
X1337905Y0771411D03*
X1345385Y0771411D03*
X1341645Y0779678D03*
X1481655Y0771411D03*
X1489135Y0771411D03*
X1485395Y0779678D03*
X1489135Y1021411D03*
X1481655Y1021411D03*
X1485395Y1029678D03*
X1345385Y1021411D03*
X1337905Y1021411D03*
X1341645Y1029678D03*
D20*
X1443004Y1037126D03*
X1443004Y1015079D03*
X1586754Y1015079D03*
X1586754Y1037126D03*
X1586754Y0787126D03*
X1586754Y0765079D03*
X1443004Y0765079D03*
X1443004Y0787126D03*
X0715504Y0837579D03*
X0715504Y0859626D03*
X0568004Y0859626D03*
X0568004Y0837579D03*
X0421754Y0837579D03*
X0421754Y0859626D03*
X0276754Y0859626D03*
X0276754Y0837579D03*
X0133004Y0837579D03*
X0133004Y0859626D03*
X0133004Y0610876D03*
X0133004Y0588829D03*
X0276754Y0588829D03*
X0276754Y0610876D03*
X0421754Y0610876D03*
X0421754Y0588829D03*
X0421754Y0362126D03*
X0421754Y0340079D03*
X0276754Y0340079D03*
X0276754Y0362126D03*
X0133004Y0362126D03*
X0133004Y0340079D03*
D21*
X0575429Y0132805D03*
X0575429Y0114695D03*
X0610154Y0309695D03*
X0610154Y0327805D03*
X0867929Y0682195D03*
X0867929Y0700305D03*
X0902654Y0877195D03*
X0902654Y0895305D03*
X1195154Y0332805D03*
X1195154Y0314695D03*
X1160429Y0137805D03*
X1160429Y0119695D03*
D22*
X1267221Y0448750D03*
X1283363Y0448750D03*
X1339721Y0453750D03*
X1355863Y0453750D03*
X0770863Y0448750D03*
X0754721Y0448750D03*
X0698363Y0443750D03*
X0682221Y0443750D03*
X0974721Y1011250D03*
X0990863Y1011250D03*
X1047221Y1016250D03*
X1063363Y1016250D03*
D23*
X0786317Y1023593D02*
X0779267Y1023593D01*
X0779267Y1003907D02*
X0786317Y1003907D01*
X1071767Y0461093D02*
X1078817Y0461093D01*
X1078817Y0441407D02*
X1071767Y0441407D01*
X0493817Y0436407D02*
X0486767Y0436407D01*
X0486767Y0456093D02*
X0493817Y0456093D01*
D24*
X0918540Y0603750D03*
X1211040Y0041250D03*
X0626040Y0036250D03*
D25*
X0588303Y0328750D03*
X0577280Y0328750D03*
X0538303Y0428750D03*
X0538303Y0438750D03*
X0538303Y0448750D03*
X0527280Y0448750D03*
X0527280Y0438750D03*
X0527280Y0428750D03*
X1112280Y0433750D03*
X1112280Y0443750D03*
X1112280Y0453750D03*
X1123303Y0453750D03*
X1123303Y0443750D03*
X1123303Y0433750D03*
X1162280Y0333750D03*
X1173303Y0333750D03*
X0880803Y0896250D03*
X0869780Y0896250D03*
X0830803Y0996250D03*
X0830803Y1006250D03*
X0830803Y1016250D03*
X0819780Y1016250D03*
X0819780Y1006250D03*
X0819780Y0996250D03*
D26*
X0955213Y1075876D03*
X1096552Y1075876D03*
X1247713Y0513376D03*
X1389052Y0513376D03*
X0804052Y0508376D03*
X0662713Y0508376D03*
D27*
X0662713Y0548376D03*
X0804052Y0548376D03*
X1247713Y0553376D03*
X1389052Y0553376D03*
X1096552Y1115876D03*
X0955213Y1115876D03*
D28*
X1071552Y0948869D03*
X1075292Y0948869D03*
X1079032Y0948869D03*
X1079032Y0938631D03*
X1071552Y0938631D03*
X1364052Y0386369D03*
X1367792Y0386369D03*
X1371532Y0386369D03*
X1371532Y0376131D03*
X1364052Y0376131D03*
X0786532Y0371131D03*
X0779052Y0371131D03*
X0779052Y0381369D03*
X0782792Y0381369D03*
X0786532Y0381369D03*
D29*
X0775410Y0425010D03*
X0775410Y0432490D03*
X0765173Y0432490D03*
X0765173Y0428750D03*
X0765173Y0425010D03*
X1350173Y0430010D03*
X1350173Y0433750D03*
X1350173Y0437490D03*
X1360410Y0437490D03*
X1360410Y0430010D03*
X1067910Y0992510D03*
X1067910Y0999990D03*
X1057673Y0999990D03*
X1057673Y0996250D03*
X1057673Y0992510D03*
D30*
X1271355Y1014813D03*
X1271355Y0967313D03*
X0848855Y0627687D03*
X0978855Y0447313D03*
X0978855Y0399813D03*
X1141355Y0065187D03*
X1563855Y0404813D03*
X1563855Y0452313D03*
X0556355Y0060187D03*
D31*
X0564229Y0060187D03*
X0978855Y0407687D03*
X0978855Y0455187D03*
X0856729Y0627687D03*
X1271355Y0975187D03*
X1271355Y1022687D03*
X1563855Y0460187D03*
X1563855Y0412687D03*
X1149229Y0065187D03*
D32*
X0927792Y0381000D03*
X0899792Y0381000D03*
X0899792Y0441000D03*
X0927792Y0441000D03*
X1484792Y0446000D03*
X1512792Y0446000D03*
X1512792Y0386000D03*
X1484792Y0386000D03*
X1220292Y0948500D03*
X1192292Y0948500D03*
X1192292Y1008500D03*
X1220292Y1008500D03*
D33*
X1092792Y1011821D03*
X1092792Y0995679D03*
X1385292Y0449321D03*
X1385292Y0433179D03*
X0800292Y0428179D03*
X0800292Y0444321D03*
D34*
X0565292Y0482750D02*
X0565292Y0489750D01*
X0545292Y0489750D02*
X0545292Y0482750D01*
X0854292Y0646250D02*
X0861292Y0646250D01*
X0861292Y0666250D02*
X0854292Y0666250D01*
X0899292Y0668750D02*
X0906292Y0668750D01*
X0906292Y0648750D02*
X0899292Y0648750D01*
X1130292Y0494750D02*
X1130292Y0487750D01*
X1150292Y0487750D02*
X1150292Y0494750D01*
X1199292Y0631250D02*
X1206292Y0631250D01*
X1206292Y0651250D02*
X1199292Y0651250D01*
X1191292Y0671250D02*
X1184292Y0671250D01*
X1184292Y0691250D02*
X1191292Y0691250D01*
X1221792Y0691250D02*
X1228792Y0691250D01*
X1228792Y0671250D02*
X1221792Y0671250D01*
X0857792Y1050250D02*
X0857792Y1057250D01*
X0837792Y1057250D02*
X0837792Y1050250D01*
X0891792Y0123750D02*
X0898792Y0123750D01*
X0898792Y0103750D02*
X0891792Y0103750D01*
X0906792Y0083750D02*
X0913792Y0083750D01*
X0913792Y0063750D02*
X0906792Y0063750D01*
X0929292Y0103750D02*
X0936292Y0103750D01*
X0936292Y0123750D02*
X0929292Y0123750D01*
X1146792Y0103750D02*
X1153792Y0103750D01*
X1153792Y0083750D02*
X1146792Y0083750D01*
X1191792Y0086250D02*
X1198792Y0086250D01*
X1198792Y0106250D02*
X1191792Y0106250D01*
X1476792Y0108750D02*
X1483792Y0108750D01*
X1483792Y0128750D02*
X1476792Y0128750D01*
X1514292Y0128750D02*
X1521292Y0128750D01*
X1521292Y0108750D02*
X1514292Y0108750D01*
X1498792Y0088750D02*
X1491792Y0088750D01*
X1491792Y0068750D02*
X1498792Y0068750D01*
X0613792Y0081250D02*
X0606792Y0081250D01*
X0606792Y0101250D02*
X0613792Y0101250D01*
X0568792Y0098750D02*
X0561792Y0098750D01*
X0561792Y0078750D02*
X0568792Y0078750D01*
D35*
X0910292Y0475750D02*
X0910292Y0481750D01*
X0920292Y0481750D02*
X0920292Y0475750D01*
X1495292Y0480750D02*
X1495292Y0486750D01*
X1505292Y0486750D02*
X1505292Y0480750D01*
X1212792Y1043250D02*
X1212792Y1049250D01*
X1202792Y1049250D02*
X1202792Y1043250D01*
D36*
X0792792Y0982250D03*
X0792792Y0963750D03*
X0792792Y0945250D03*
X1085292Y0419750D03*
X1085292Y0401250D03*
X1085292Y0382750D03*
X0500292Y0377750D03*
X0500292Y0396250D03*
X0500292Y0414750D03*
D37*
X0462792Y0422250D03*
X0462792Y0370250D03*
X1047792Y0375250D03*
X1047792Y0427250D03*
X0755292Y0937750D03*
X0755292Y0989750D03*
D38*
X0915292Y1103750D03*
X1207792Y0541250D03*
X0622792Y0536250D03*
D39*
X0632792Y0497250D03*
X0612792Y0497250D03*
X1197792Y0502250D03*
X1217792Y0502250D03*
X0925292Y1064750D03*
X0905292Y1064750D03*
D40*
X0862866Y1083750D02*
X0857717Y1083750D01*
X0857717Y1093750D02*
X0862866Y1093750D01*
X0862866Y1103750D02*
X0857717Y1103750D01*
X1150217Y0541250D02*
X1155366Y0541250D01*
X1155366Y0531250D02*
X1150217Y0531250D01*
X1150217Y0521250D02*
X1155366Y0521250D01*
X0570366Y0516250D02*
X0565217Y0516250D01*
X0565217Y0526250D02*
X0570366Y0526250D01*
X0570366Y0536250D02*
X0565217Y0536250D01*
D41*
X0564592Y0453450D03*
X0554592Y0453550D03*
X0554592Y0428950D03*
X0564592Y0428950D03*
X1139592Y0433950D03*
X1149592Y0433950D03*
X1149592Y0458450D03*
X1139592Y0458550D03*
X0857092Y0996450D03*
X0847092Y0996450D03*
X0847092Y1021050D03*
X0857092Y1020950D03*
D42*
X0807792Y1066250D03*
X0857289Y1115747D03*
X1183294Y1115747D03*
X1232792Y1066250D03*
X1149789Y0553247D03*
X1100292Y0503750D03*
X0940292Y0498750D03*
X0890794Y0548247D03*
X0564789Y0548247D03*
X0515292Y0498750D03*
X1475794Y0553247D03*
X1525292Y0503750D03*
D43*
X1579918Y0363435D03*
X1579918Y0359498D03*
X1579918Y0355561D03*
X1579918Y0351624D03*
X1579918Y0347687D03*
X1579918Y0339813D03*
X1579918Y0335876D03*
X1579918Y0331939D03*
X1579918Y0328002D03*
X1579918Y0324065D03*
X1577418Y0263435D03*
X1577418Y0259498D03*
X1577418Y0255561D03*
X1577418Y0251624D03*
X1577418Y0247687D03*
X1577418Y0239813D03*
X1577418Y0235876D03*
X1577418Y0231939D03*
X1577418Y0228002D03*
X1577418Y0224065D03*
X1055666Y0208435D03*
X1055666Y0204498D03*
X1055666Y0200561D03*
X1055666Y0196624D03*
X1055666Y0192687D03*
X1055666Y0184813D03*
X1055666Y0180876D03*
X1055666Y0176939D03*
X1055666Y0173002D03*
X1055666Y0169065D03*
X0992418Y0219065D03*
X0992418Y0223002D03*
X0992418Y0226939D03*
X0992418Y0230876D03*
X0992418Y0234813D03*
X0992418Y0242687D03*
X0992418Y0246624D03*
X0992418Y0250561D03*
X0992418Y0254498D03*
X0992418Y0258435D03*
X1055666Y0256565D03*
X1055666Y0260502D03*
X1055666Y0264439D03*
X1055666Y0268376D03*
X1055666Y0272313D03*
X1055666Y0280187D03*
X1055666Y0284124D03*
X1055666Y0288061D03*
X1055666Y0291998D03*
X1055666Y0295935D03*
X0994918Y0319065D03*
X0994918Y0323002D03*
X0994918Y0326939D03*
X0994918Y0330876D03*
X0994918Y0334813D03*
X0994918Y0342687D03*
X0994918Y0346624D03*
X0994918Y0350561D03*
X0994918Y0354498D03*
X0994918Y0358435D03*
X0763166Y0731565D03*
X0763166Y0735502D03*
X0763166Y0739439D03*
X0763166Y0743376D03*
X0763166Y0747313D03*
X0763166Y0755187D03*
X0763166Y0759124D03*
X0763166Y0763061D03*
X0763166Y0766998D03*
X0763166Y0770935D03*
X0763166Y0819065D03*
X0763166Y0823002D03*
X0763166Y0826939D03*
X0763166Y0830876D03*
X0763166Y0834813D03*
X0763166Y0842687D03*
X0763166Y0846624D03*
X0763166Y0850561D03*
X0763166Y0854498D03*
X0763166Y0858435D03*
X1284918Y0825935D03*
X1284918Y0821998D03*
X1284918Y0818061D03*
X1284918Y0814124D03*
X1284918Y0810187D03*
X1284918Y0802313D03*
X1284918Y0798376D03*
X1284918Y0794439D03*
X1284918Y0790502D03*
X1284918Y0786565D03*
X1287418Y0886565D03*
X1287418Y0890502D03*
X1287418Y0894439D03*
X1287418Y0898376D03*
X1287418Y0902313D03*
X1287418Y0910187D03*
X1287418Y0914124D03*
X1287418Y0918061D03*
X1287418Y0921998D03*
X1287418Y0925935D03*
X0470666Y0290935D03*
X0470666Y0286998D03*
X0470666Y0283061D03*
X0470666Y0279124D03*
X0470666Y0275187D03*
X0470666Y0267313D03*
X0470666Y0263376D03*
X0470666Y0259439D03*
X0470666Y0255502D03*
X0470666Y0251565D03*
X0470666Y0203435D03*
X0470666Y0199498D03*
X0470666Y0195561D03*
X0470666Y0191624D03*
X0470666Y0187687D03*
X0470666Y0179813D03*
X0470666Y0175876D03*
X0470666Y0171939D03*
X0470666Y0168002D03*
X0470666Y0164065D03*
D44*
X0470666Y0183750D03*
X0470666Y0271250D03*
X0992418Y0238750D03*
X1055666Y0276250D03*
X0994918Y0338750D03*
X1055666Y0188750D03*
X1577418Y0243750D03*
X1579918Y0343750D03*
X1284918Y0806250D03*
X1287418Y0906250D03*
X0763166Y0838750D03*
X0763166Y0751250D03*
D45*
X0752142Y0719754D03*
X0752142Y0782746D03*
X0752142Y0807254D03*
X0752142Y0870246D03*
X1295941Y0837746D03*
X1298441Y0874754D03*
X1298441Y0937746D03*
X1295941Y0774754D03*
X1590941Y0375246D03*
X1590941Y0312254D03*
X1588441Y0275246D03*
X1588441Y0212254D03*
X1044642Y0220246D03*
X1044642Y0244754D03*
X1003441Y0270246D03*
X1005941Y0307254D03*
X1044642Y0307746D03*
X1005941Y0370246D03*
X1003441Y0207254D03*
X1044642Y0157254D03*
X0459642Y0152254D03*
X0459642Y0215246D03*
X0459642Y0239754D03*
X0459642Y0302746D03*
D46*
X0969347Y0193750D03*
X0969347Y0183750D03*
X0969347Y0173750D03*
X0969347Y0163750D03*
X1554347Y0168750D03*
X1554347Y0178750D03*
X1554347Y0188750D03*
X1554347Y0198750D03*
X1261847Y0731250D03*
X1261847Y0741250D03*
X1261847Y0751250D03*
X1261847Y0761250D03*
D47*
X0355220Y0162146D03*
X0346952Y0158406D03*
X0346952Y0165887D03*
D48*
X0351842Y0134100D03*
X0361842Y0134100D03*
X0371842Y0134100D03*
X0381842Y0134100D03*
X0391842Y0134100D03*
X0401842Y0134100D03*
X0411842Y0134100D03*
X0411842Y0106000D03*
X0401842Y0106000D03*
X0391842Y0106000D03*
X0381842Y0106000D03*
X0371842Y0106000D03*
X0361842Y0106000D03*
X0351842Y0106000D03*
X0341842Y0106000D03*
X0331842Y0106000D03*
X0321842Y0106000D03*
X0311842Y0106000D03*
X0301842Y0106000D03*
X0291842Y0106000D03*
X0281842Y0106000D03*
X0271842Y0106000D03*
X0261842Y0106000D03*
X0251842Y0106000D03*
X0241842Y0106000D03*
X0231842Y0106000D03*
X0221842Y0106000D03*
X0221842Y0134100D03*
X0231842Y0134100D03*
X0241842Y0134100D03*
X0251842Y0134100D03*
X0261842Y0134100D03*
X0271842Y0134100D03*
X0281842Y0134100D03*
X0291842Y0134100D03*
X0301842Y0134100D03*
X0311842Y0134100D03*
X0321842Y0134100D03*
X0331842Y0134100D03*
X0341842Y0134100D03*
D49*
X0340621Y0060787D03*
X0362668Y0060787D03*
D50*
X0215590Y0139399D03*
X0207366Y0147342D03*
X0190199Y0206824D03*
X0198143Y0215049D03*
X0335199Y0206824D03*
X0343143Y0215049D03*
X0054393Y0215049D03*
X0046449Y0206824D03*
X0046449Y0455574D03*
X0054393Y0463799D03*
X0190199Y0455574D03*
X0198143Y0463799D03*
X0335199Y0455574D03*
X0343143Y0463799D03*
X0581392Y0432550D03*
X0628949Y0704324D03*
X0636893Y0712549D03*
X0489393Y0712549D03*
X0481449Y0704324D03*
X0343143Y0712549D03*
X0335199Y0704324D03*
X0198143Y0712549D03*
X0190199Y0704324D03*
X0054393Y0712549D03*
X0046449Y0704324D03*
X0142792Y0953500D03*
X0154506Y0953956D03*
X0147704Y0964782D03*
X0136381Y0976008D03*
X0138729Y0983500D03*
X0148203Y0984578D03*
X0152116Y0984575D03*
X0161542Y0987250D03*
X0163768Y1006469D03*
X0173412Y1008892D03*
X0174015Y1017945D03*
X0180128Y1030990D03*
X0177167Y1034125D03*
X0202571Y1038903D03*
X0204971Y1035277D03*
X0207792Y1031799D03*
X0204282Y1027166D03*
X0215981Y1033229D03*
X0215981Y1037147D03*
X0216005Y1041024D03*
X0229318Y1047806D03*
X0227347Y1053389D03*
X0224042Y1064125D03*
X0215917Y1059750D03*
X0211542Y1082250D03*
X0216542Y1084750D03*
X0206542Y1088500D03*
X0202052Y1091963D03*
X0201542Y1082250D03*
X0178183Y1099855D03*
X0173753Y1099772D03*
X0173858Y1088376D03*
X0176542Y1083188D03*
X0162167Y1077250D03*
X0175090Y1061067D03*
X0181228Y1067118D03*
X0144370Y1092204D03*
X0139042Y1049750D03*
X0139667Y1041312D03*
X0141542Y1037875D03*
X0141229Y1032875D03*
X0149979Y1032250D03*
X0155308Y1017891D03*
X0133417Y1011625D03*
X0131772Y1021721D03*
X0132792Y1041625D03*
X0134042Y0999125D03*
X0134042Y0992875D03*
X0126542Y0998500D03*
X0126542Y0987250D03*
X0121420Y0987250D03*
X0144042Y0995687D03*
X0172792Y0955062D03*
X0195292Y0967250D03*
X0203066Y0982504D03*
X0195265Y0987652D03*
X0202792Y0992250D03*
X0203253Y1000082D03*
X0202167Y1009437D03*
X0245170Y0987250D03*
X0250292Y0987250D03*
X0257792Y0992875D03*
X0257792Y0999125D03*
X0250292Y0998500D03*
X0257167Y1011625D03*
X0255522Y1021721D03*
X0264979Y1032875D03*
X0265292Y1037875D03*
X0263417Y1041312D03*
X0256542Y1041625D03*
X0262792Y1049750D03*
X0273729Y1032250D03*
X0279058Y1017891D03*
X0287518Y1006469D03*
X0297162Y1008892D03*
X0297765Y1017945D03*
X0303878Y1030990D03*
X0300917Y1034125D03*
X0326321Y1038903D03*
X0328721Y1035277D03*
X0331542Y1031799D03*
X0328032Y1027166D03*
X0339731Y1033229D03*
X0339731Y1037147D03*
X0339755Y1041024D03*
X0353068Y1047806D03*
X0351097Y1053389D03*
X0347792Y1064125D03*
X0339667Y1059750D03*
X0335292Y1082250D03*
X0340292Y1084750D03*
X0330292Y1088500D03*
X0325802Y1091963D03*
X0325292Y1082250D03*
X0300292Y1083188D03*
X0297608Y1088376D03*
X0297503Y1099772D03*
X0301933Y1099855D03*
X0285917Y1077250D03*
X0298840Y1061067D03*
X0304978Y1067118D03*
X0268120Y1092204D03*
X0209042Y1127250D03*
X0332792Y1127250D03*
X0391870Y1092204D03*
X0409667Y1077250D03*
X0424042Y1083188D03*
X0421358Y1088376D03*
X0421253Y1099772D03*
X0425683Y1099855D03*
X0449552Y1091963D03*
X0454042Y1088500D03*
X0459042Y1082250D03*
X0464042Y1084750D03*
X0449042Y1082250D03*
X0428728Y1067118D03*
X0422590Y1061067D03*
X0424667Y1034125D03*
X0427628Y1030990D03*
X0421515Y1017945D03*
X0420912Y1008892D03*
X0411268Y1006469D03*
X0402808Y1017891D03*
X0397479Y1032250D03*
X0388729Y1032875D03*
X0389042Y1037875D03*
X0387167Y1041312D03*
X0380292Y1041625D03*
X0386542Y1049750D03*
X0379272Y1021721D03*
X0380917Y1011625D03*
X0381542Y0999125D03*
X0381542Y0992875D03*
X0374042Y0987250D03*
X0368920Y0987250D03*
X0374042Y0998500D03*
X0391542Y0995687D03*
X0395703Y0984578D03*
X0399616Y0984575D03*
X0409042Y0987250D03*
X0386229Y0983500D03*
X0383881Y0976008D03*
X0395204Y0964782D03*
X0390292Y0953500D03*
X0402006Y0953956D03*
X0420292Y0955062D03*
X0442792Y0967250D03*
X0450566Y0982504D03*
X0442765Y0987652D03*
X0450292Y0992250D03*
X0450753Y1000082D03*
X0449667Y1009437D03*
X0451782Y1027166D03*
X0455292Y1031799D03*
X0452471Y1035277D03*
X0450071Y1038903D03*
X0463481Y1037147D03*
X0463505Y1041024D03*
X0463481Y1033229D03*
X0476818Y1047806D03*
X0474847Y1053389D03*
X0471542Y1064125D03*
X0463417Y1059750D03*
X0504042Y1041625D03*
X0510917Y1041312D03*
X0512792Y1037875D03*
X0512479Y1032875D03*
X0521229Y1032250D03*
X0526558Y1017891D03*
X0535018Y1006469D03*
X0544662Y1008892D03*
X0545265Y1017945D03*
X0551378Y1030990D03*
X0548417Y1034125D03*
X0573821Y1038903D03*
X0576221Y1035277D03*
X0579042Y1031799D03*
X0575532Y1027166D03*
X0587231Y1033229D03*
X0587231Y1037147D03*
X0587255Y1041024D03*
X0600568Y1047806D03*
X0598597Y1053389D03*
X0595292Y1064125D03*
X0587167Y1059750D03*
X0582792Y1082250D03*
X0587792Y1084750D03*
X0577792Y1088500D03*
X0573302Y1091963D03*
X0572792Y1082250D03*
X0547792Y1083188D03*
X0545108Y1088376D03*
X0545003Y1099772D03*
X0549433Y1099855D03*
X0533417Y1077250D03*
X0546340Y1061067D03*
X0552478Y1067118D03*
X0515620Y1092204D03*
X0510292Y1049750D03*
X0503022Y1021721D03*
X0504667Y1011625D03*
X0505292Y0999125D03*
X0505292Y0992875D03*
X0497792Y0998500D03*
X0497792Y0987250D03*
X0492670Y0987250D03*
X0509979Y0983500D03*
X0507631Y0976008D03*
X0519453Y0984578D03*
X0523366Y0984575D03*
X0532792Y0987250D03*
X0515292Y0995687D03*
X0518954Y0964782D03*
X0514042Y0953500D03*
X0525756Y0953956D03*
X0544042Y0955062D03*
X0566542Y0967250D03*
X0574316Y0982504D03*
X0566515Y0987652D03*
X0574042Y0992250D03*
X0574503Y1000082D03*
X0573417Y1009437D03*
X0616420Y0987250D03*
X0621542Y0987250D03*
X0629042Y0992875D03*
X0629042Y0999125D03*
X0621542Y0998500D03*
X0628417Y1011625D03*
X0626772Y1021721D03*
X0636229Y1032875D03*
X0636542Y1037875D03*
X0634667Y1041312D03*
X0627792Y1041625D03*
X0634042Y1049750D03*
X0644979Y1032250D03*
X0650308Y1017891D03*
X0658768Y1006469D03*
X0668412Y1008892D03*
X0669015Y1017945D03*
X0675128Y1030990D03*
X0672167Y1034125D03*
X0697571Y1038903D03*
X0699971Y1035277D03*
X0702792Y1031799D03*
X0699282Y1027166D03*
X0710981Y1033229D03*
X0710981Y1037147D03*
X0711005Y1041024D03*
X0724318Y1047806D03*
X0722347Y1053389D03*
X0719042Y1064125D03*
X0710917Y1059750D03*
X0706542Y1082250D03*
X0711542Y1084750D03*
X0701542Y1088500D03*
X0697052Y1091963D03*
X0696542Y1082250D03*
X0671542Y1083188D03*
X0668858Y1088376D03*
X0668753Y1099772D03*
X0673183Y1099855D03*
X0657167Y1077250D03*
X0670090Y1061067D03*
X0676228Y1067118D03*
X0639370Y1092204D03*
X0580292Y1127250D03*
X0704042Y1127250D03*
X0697167Y1009437D03*
X0698253Y1000082D03*
X0697792Y0992250D03*
X0690265Y0987652D03*
X0698066Y0982504D03*
X0690292Y0967250D03*
X0667792Y0955062D03*
X0649506Y0953956D03*
X0637792Y0953500D03*
X0642704Y0964782D03*
X0631381Y0976008D03*
X0633729Y0983500D03*
X0643203Y0984578D03*
X0647116Y0984575D03*
X0656542Y0987250D03*
X0639042Y0995687D03*
X0592167Y0966000D03*
X0585292Y0963500D03*
X0585299Y0950502D03*
X0468417Y0966000D03*
X0461542Y0963500D03*
X0461549Y0950502D03*
X0344667Y0966000D03*
X0337792Y0963500D03*
X0337799Y0950502D03*
X0319042Y0967250D03*
X0326816Y0982504D03*
X0319015Y0987652D03*
X0326542Y0992250D03*
X0327003Y1000082D03*
X0325917Y1009437D03*
X0285292Y0987250D03*
X0275866Y0984575D03*
X0271953Y0984578D03*
X0262479Y0983500D03*
X0260131Y0976008D03*
X0271454Y0964782D03*
X0266542Y0953500D03*
X0278256Y0953956D03*
X0296542Y0955062D03*
X0267792Y0995687D03*
X0220917Y0966000D03*
X0214042Y0963500D03*
X0214049Y0950502D03*
X0456542Y1127250D03*
X0709042Y0963500D03*
X0715917Y0966000D03*
X0709049Y0950502D03*
X0873892Y1000050D03*
X1356449Y0881824D03*
X1364393Y0890049D03*
X1500199Y0881824D03*
X1508143Y0890049D03*
X1508143Y0640049D03*
X1500199Y0631824D03*
X1364393Y0640049D03*
X1356449Y0631824D03*
X1166392Y0437550D03*
D51*
X0198401Y0089843D03*
X0206957Y0089737D03*
X0210126Y0068312D03*
X0210087Y0057567D03*
X0327636Y0140289D03*
X0334092Y0146550D03*
X0336855Y0134752D03*
X0336842Y0129050D03*
X0367342Y0134300D03*
X0371824Y0132311D03*
X0377644Y0125239D03*
X0366228Y0118142D03*
X0419092Y0117550D03*
X0419092Y0125050D03*
X0422647Y0140010D03*
X0392699Y0197859D03*
X0392804Y0206416D03*
X0414230Y0209584D03*
X0424975Y0209546D03*
X0489042Y0246250D03*
X0489042Y0266250D03*
X0364399Y0365686D03*
X0357303Y0377103D03*
X0350231Y0371283D03*
X0348242Y0366800D03*
X0347789Y0336313D03*
X0353492Y0336300D03*
X0342253Y0327094D03*
X0335992Y0333550D03*
X0357492Y0418550D03*
X0364992Y0418550D03*
X0342531Y0422106D03*
X0326867Y0467550D03*
X0279975Y0458296D03*
X0269230Y0458334D03*
X0247804Y0455166D03*
X0247699Y0446609D03*
X0219992Y0418550D03*
X0212492Y0418550D03*
X0197531Y0422106D03*
X0181867Y0467550D03*
X0136225Y0458296D03*
X0125480Y0458334D03*
X0104054Y0455166D03*
X0103949Y0446609D03*
X0076242Y0418550D03*
X0068742Y0418550D03*
X0053781Y0422106D03*
X0038117Y0467550D03*
X0068553Y0377103D03*
X0061481Y0371283D03*
X0059492Y0366800D03*
X0075649Y0365686D03*
X0064742Y0336300D03*
X0059039Y0336313D03*
X0053503Y0327094D03*
X0047242Y0333550D03*
X0038117Y0218800D03*
X0104054Y0206416D03*
X0103949Y0197859D03*
X0125480Y0209584D03*
X0136225Y0209546D03*
X0181867Y0218800D03*
X0247804Y0206416D03*
X0247699Y0197859D03*
X0269230Y0209584D03*
X0279975Y0209546D03*
X0326867Y0218800D03*
X0219342Y0155675D03*
X0197253Y0327094D03*
X0190992Y0333550D03*
X0202789Y0336313D03*
X0208492Y0336300D03*
X0203242Y0366800D03*
X0205231Y0371283D03*
X0212303Y0377103D03*
X0219399Y0365686D03*
X0392699Y0446609D03*
X0392804Y0455166D03*
X0414230Y0458334D03*
X0424975Y0458296D03*
X0342253Y0575844D03*
X0335992Y0582300D03*
X0347789Y0585063D03*
X0353492Y0585050D03*
X0348242Y0615550D03*
X0350231Y0620033D03*
X0357303Y0625853D03*
X0364399Y0614436D03*
X0364992Y0667300D03*
X0357492Y0667300D03*
X0342531Y0670856D03*
X0392699Y0695359D03*
X0392804Y0703916D03*
X0414230Y0707084D03*
X0424975Y0707046D03*
X0473117Y0716300D03*
X0539054Y0703916D03*
X0538949Y0695359D03*
X0560480Y0707084D03*
X0571225Y0707046D03*
X0620617Y0716300D03*
X0686554Y0703916D03*
X0686449Y0695359D03*
X0707980Y0707084D03*
X0718725Y0707046D03*
X0781542Y0813750D03*
X0781542Y0833750D03*
X0658149Y0863186D03*
X0651053Y0874603D03*
X0643981Y0868783D03*
X0641992Y0864300D03*
X0641539Y0833813D03*
X0647242Y0833800D03*
X0636003Y0824594D03*
X0629742Y0831050D03*
X0651242Y0916050D03*
X0658742Y0916050D03*
X0636281Y0919606D03*
X0624042Y0944750D03*
X0617792Y0961000D03*
X0624055Y0963975D03*
X0624042Y0971000D03*
X0628417Y0983187D03*
X0626726Y0986521D03*
X0641524Y1004470D03*
X0649354Y1006625D03*
X0641479Y1018841D03*
X0669667Y0994125D03*
X0664354Y0987250D03*
X0668726Y0971000D03*
X0668417Y0966625D03*
X0675302Y0971065D03*
X0679042Y0966625D03*
X0697792Y0955375D03*
X0574042Y0955375D03*
X0555292Y0966625D03*
X0551552Y0971065D03*
X0544976Y0971000D03*
X0544667Y0966625D03*
X0540604Y0987250D03*
X0545917Y0994125D03*
X0525604Y1006625D03*
X0517774Y1004470D03*
X0517729Y1018841D03*
X0502976Y0986521D03*
X0504667Y0983187D03*
X0500292Y0971000D03*
X0500305Y0963975D03*
X0494042Y0961000D03*
X0500292Y0944750D03*
X0488781Y0919606D03*
X0503742Y0916050D03*
X0511242Y0916050D03*
X0503553Y0874603D03*
X0496481Y0868783D03*
X0494492Y0864300D03*
X0510649Y0863186D03*
X0499742Y0833800D03*
X0494039Y0833813D03*
X0488503Y0824594D03*
X0482242Y0831050D03*
X0364399Y0863186D03*
X0357303Y0874603D03*
X0350231Y0868783D03*
X0348242Y0864300D03*
X0347789Y0833813D03*
X0353492Y0833800D03*
X0342253Y0824594D03*
X0335992Y0831050D03*
X0357492Y0916050D03*
X0364992Y0916050D03*
X0342531Y0919606D03*
X0376542Y0944750D03*
X0370292Y0961000D03*
X0376555Y0963975D03*
X0376542Y0971000D03*
X0380917Y0983187D03*
X0379226Y0986521D03*
X0394024Y1004470D03*
X0401854Y1006625D03*
X0393979Y1018841D03*
X0422167Y0994125D03*
X0416854Y0987250D03*
X0421226Y0971000D03*
X0420917Y0966625D03*
X0427802Y0971065D03*
X0431542Y0966625D03*
X0450292Y0955375D03*
X0326542Y0955375D03*
X0307792Y0966625D03*
X0304052Y0971065D03*
X0297476Y0971000D03*
X0297167Y0966625D03*
X0293104Y0987250D03*
X0298417Y0994125D03*
X0278104Y1006625D03*
X0270274Y1004470D03*
X0270229Y1018841D03*
X0255476Y0986521D03*
X0257167Y0983187D03*
X0252792Y0971000D03*
X0252805Y0963975D03*
X0246542Y0961000D03*
X0252792Y0944750D03*
X0219992Y0916050D03*
X0212492Y0916050D03*
X0197531Y0919606D03*
X0202792Y0955375D03*
X0184042Y0966625D03*
X0180302Y0971065D03*
X0173726Y0971000D03*
X0173417Y0966625D03*
X0169354Y0987250D03*
X0174667Y0994125D03*
X0154354Y1006625D03*
X0146524Y1004470D03*
X0146479Y1018841D03*
X0131726Y0986521D03*
X0133417Y0983187D03*
X0129042Y0971000D03*
X0129055Y0963975D03*
X0122792Y0961000D03*
X0129042Y0944750D03*
X0076242Y0916050D03*
X0068742Y0916050D03*
X0053781Y0919606D03*
X0068553Y0874603D03*
X0061481Y0868783D03*
X0059492Y0864300D03*
X0075649Y0863186D03*
X0064742Y0833800D03*
X0059039Y0833813D03*
X0053503Y0824594D03*
X0047242Y0831050D03*
X0190992Y0831050D03*
X0197253Y0824594D03*
X0202789Y0833813D03*
X0208492Y0833800D03*
X0203242Y0864300D03*
X0205231Y0868783D03*
X0212303Y0874603D03*
X0219399Y0863186D03*
X0181867Y0716300D03*
X0136225Y0707046D03*
X0125480Y0707084D03*
X0104054Y0703916D03*
X0103949Y0695359D03*
X0076242Y0667300D03*
X0068742Y0667300D03*
X0053781Y0670856D03*
X0068553Y0625853D03*
X0061481Y0620033D03*
X0059492Y0615550D03*
X0075649Y0614436D03*
X0064742Y0585050D03*
X0059039Y0585063D03*
X0053503Y0575844D03*
X0047242Y0582300D03*
X0190992Y0582300D03*
X0197253Y0575844D03*
X0202789Y0585063D03*
X0208492Y0585050D03*
X0203242Y0615550D03*
X0205231Y0620033D03*
X0212303Y0625853D03*
X0219399Y0614436D03*
X0219992Y0667300D03*
X0212492Y0667300D03*
X0197531Y0670856D03*
X0247699Y0695359D03*
X0247804Y0703916D03*
X0269230Y0707084D03*
X0279975Y0707046D03*
X0326867Y0716300D03*
X0038117Y0716300D03*
X1074042Y0271250D03*
X1074042Y0251250D03*
X1413949Y0622859D03*
X1414054Y0631416D03*
X1435480Y0634584D03*
X1446225Y0634546D03*
X1491867Y0643800D03*
X1557804Y0631416D03*
X1557699Y0622859D03*
X1579230Y0634584D03*
X1589975Y0634546D03*
X1507253Y0752094D03*
X1500992Y0758550D03*
X1512789Y0761313D03*
X1518492Y0761300D03*
X1513242Y0791800D03*
X1515231Y0796283D03*
X1522303Y0802103D03*
X1529399Y0790686D03*
X1529992Y0843550D03*
X1522492Y0843550D03*
X1507531Y0847106D03*
X1557699Y0872859D03*
X1557804Y0881416D03*
X1579230Y0884584D03*
X1589975Y0884546D03*
X1491867Y0893800D03*
X1446225Y0884546D03*
X1435480Y0884584D03*
X1414054Y0881416D03*
X1413949Y0872859D03*
X1386242Y0843550D03*
X1378742Y0843550D03*
X1363781Y0847106D03*
X1378553Y0802103D03*
X1371481Y0796283D03*
X1369492Y0791800D03*
X1385649Y0790686D03*
X1374742Y0761300D03*
X1369039Y0761313D03*
X1363503Y0752094D03*
X1357242Y0758550D03*
X1348117Y0643800D03*
X1348117Y0893800D03*
X1363503Y1002094D03*
X1357242Y1008550D03*
X1369039Y1011313D03*
X1374742Y1011300D03*
X1369492Y1041800D03*
X1371481Y1046283D03*
X1378553Y1052103D03*
X1385649Y1040686D03*
X1386242Y1093550D03*
X1378742Y1093550D03*
X1363781Y1097106D03*
X1507531Y1097106D03*
X1522492Y1093550D03*
X1529992Y1093550D03*
X1522303Y1052103D03*
X1515231Y1046283D03*
X1513242Y1041800D03*
X1529399Y1040686D03*
X1518492Y1011300D03*
X1512789Y1011313D03*
X1507253Y1002094D03*
X1500992Y1008550D03*
D52*
X1431867Y0882550D03*
X1575617Y0882550D03*
X1575617Y0632550D03*
X1431867Y0632550D03*
X0704367Y0705050D03*
X0556867Y0705050D03*
X0410617Y0705050D03*
X0265617Y0705050D03*
X0121867Y0705050D03*
X0121867Y0456300D03*
X0265617Y0456300D03*
X0410617Y0456300D03*
X0410617Y0207550D03*
X0265617Y0207550D03*
X0121867Y0207550D03*
X0208092Y0071925D03*
X0244560Y1032502D03*
X0368310Y1032502D03*
X0492060Y1032502D03*
X0615810Y1032502D03*
X0120810Y1032502D03*
D53*
X0178742Y0870987D03*
X0189381Y0869512D03*
X0194175Y0872632D03*
X0188117Y0858175D03*
X0203117Y0843175D03*
X0186242Y0835675D03*
X0181867Y0836925D03*
X0171242Y0838175D03*
X0171242Y0823175D03*
X0181867Y0813800D03*
X0188742Y0813175D03*
X0188492Y0809175D03*
X0187900Y0803654D03*
X0186367Y0796050D03*
X0178361Y0798472D03*
X0186867Y0784425D03*
X0183117Y0778800D03*
X0183117Y0771300D03*
X0182492Y0764425D03*
X0191867Y0767688D03*
X0200435Y0763206D03*
X0199992Y0753800D03*
X0193117Y0756925D03*
X0216867Y0757550D03*
X0224992Y0754425D03*
X0230168Y0744567D03*
X0242346Y0744118D03*
X0250429Y0739425D03*
X0245617Y0765675D03*
X0246242Y0772550D03*
X0249367Y0776925D03*
X0253742Y0780050D03*
X0249424Y0782725D03*
X0249800Y0786982D03*
X0244552Y0788146D03*
X0244336Y0783723D03*
X0243117Y0776925D03*
X0254953Y0785268D03*
X0260814Y0778103D03*
X0263117Y0775050D03*
X0250198Y0798201D03*
X0246867Y0796925D03*
X0246926Y0803800D03*
X0246242Y0808175D03*
X0245617Y0813175D03*
X0244992Y0823800D03*
X0226867Y0833175D03*
X0222531Y0845055D03*
X0193635Y0824106D03*
X0211242Y0793800D03*
X0218742Y0786300D03*
X0224011Y0793385D03*
X0236615Y0803848D03*
X0221867Y0774425D03*
X0218742Y0770050D03*
X0232348Y0705031D03*
X0230360Y0697841D03*
X0226867Y0697550D03*
X0233117Y0695675D03*
X0236272Y0697867D03*
X0327492Y0764425D03*
X0328117Y0771300D03*
X0328117Y0778800D03*
X0331867Y0784425D03*
X0331367Y0796050D03*
X0332900Y0803654D03*
X0333492Y0809175D03*
X0333742Y0813175D03*
X0326867Y0813800D03*
X0316242Y0823175D03*
X0316242Y0838175D03*
X0326867Y0836925D03*
X0331242Y0835675D03*
X0338635Y0824106D03*
X0348117Y0843175D03*
X0367531Y0845055D03*
X0371867Y0833175D03*
X0389992Y0823800D03*
X0390617Y0813175D03*
X0391242Y0808175D03*
X0391926Y0803800D03*
X0395198Y0798201D03*
X0391867Y0796925D03*
X0389552Y0788146D03*
X0389336Y0783723D03*
X0394424Y0782725D03*
X0394800Y0786982D03*
X0399953Y0785268D03*
X0398742Y0780050D03*
X0394367Y0776925D03*
X0391242Y0772550D03*
X0388117Y0776925D03*
X0390617Y0765675D03*
X0405814Y0778103D03*
X0408117Y0775050D03*
X0381615Y0803848D03*
X0369011Y0793385D03*
X0363742Y0786300D03*
X0356242Y0793800D03*
X0366867Y0774425D03*
X0363742Y0770050D03*
X0361867Y0757550D03*
X0369992Y0754425D03*
X0375168Y0744567D03*
X0387346Y0744118D03*
X0395429Y0739425D03*
X0377348Y0705031D03*
X0375360Y0697841D03*
X0371867Y0697550D03*
X0378117Y0695675D03*
X0381272Y0697867D03*
X0344992Y0753800D03*
X0338117Y0756925D03*
X0345435Y0763206D03*
X0336867Y0767688D03*
X0323361Y0798472D03*
X0333117Y0858175D03*
X0334381Y0869512D03*
X0339175Y0872632D03*
X0323742Y0870987D03*
X0257492Y0855675D03*
X0113742Y0855675D03*
X0083117Y0833175D03*
X0078781Y0845055D03*
X0059367Y0843175D03*
X0042492Y0835675D03*
X0038117Y0836925D03*
X0027492Y0838175D03*
X0027492Y0823175D03*
X0038117Y0813800D03*
X0044992Y0813175D03*
X0044742Y0809175D03*
X0044150Y0803654D03*
X0042617Y0796050D03*
X0034611Y0798472D03*
X0043117Y0784425D03*
X0039367Y0778800D03*
X0039367Y0771300D03*
X0038742Y0764425D03*
X0048117Y0767688D03*
X0056685Y0763206D03*
X0056242Y0753800D03*
X0049367Y0756925D03*
X0073117Y0757550D03*
X0081242Y0754425D03*
X0086418Y0744567D03*
X0098596Y0744118D03*
X0106679Y0739425D03*
X0101867Y0765675D03*
X0102492Y0772550D03*
X0105617Y0776925D03*
X0109992Y0780050D03*
X0105674Y0782725D03*
X0106050Y0786982D03*
X0100802Y0788146D03*
X0100586Y0783723D03*
X0099367Y0776925D03*
X0111203Y0785268D03*
X0117064Y0778103D03*
X0119367Y0775050D03*
X0106448Y0798201D03*
X0103117Y0796925D03*
X0103176Y0803800D03*
X0102492Y0808175D03*
X0101867Y0813175D03*
X0101242Y0823800D03*
X0092865Y0803848D03*
X0080261Y0793385D03*
X0074992Y0786300D03*
X0067492Y0793800D03*
X0078117Y0774425D03*
X0074992Y0770050D03*
X0049885Y0824106D03*
X0044367Y0858175D03*
X0045631Y0869512D03*
X0050425Y0872632D03*
X0034992Y0870987D03*
X0088598Y0705031D03*
X0086610Y0697841D03*
X0083117Y0697550D03*
X0089367Y0695675D03*
X0092522Y0697867D03*
X0050425Y0623882D03*
X0045631Y0620762D03*
X0034992Y0622238D03*
X0044367Y0609425D03*
X0059367Y0594425D03*
X0042492Y0586925D03*
X0038117Y0588175D03*
X0027492Y0589425D03*
X0027492Y0574425D03*
X0038117Y0565050D03*
X0044992Y0564425D03*
X0044742Y0560425D03*
X0044150Y0554904D03*
X0042617Y0547300D03*
X0034611Y0549722D03*
X0043117Y0535675D03*
X0039367Y0530050D03*
X0039367Y0522550D03*
X0038742Y0515675D03*
X0048117Y0518938D03*
X0056685Y0514456D03*
X0056242Y0505050D03*
X0049367Y0508175D03*
X0073117Y0508800D03*
X0081242Y0505675D03*
X0086418Y0495817D03*
X0098596Y0495368D03*
X0106679Y0490675D03*
X0101867Y0516925D03*
X0102492Y0523800D03*
X0105617Y0528175D03*
X0109992Y0531300D03*
X0105674Y0533975D03*
X0106050Y0538232D03*
X0100802Y0539396D03*
X0100586Y0534973D03*
X0099367Y0528175D03*
X0111203Y0536518D03*
X0117064Y0529353D03*
X0119367Y0526300D03*
X0106448Y0549451D03*
X0103117Y0548175D03*
X0103176Y0555050D03*
X0102492Y0559425D03*
X0101867Y0564425D03*
X0101242Y0575050D03*
X0083117Y0584425D03*
X0078781Y0596305D03*
X0049885Y0575356D03*
X0067492Y0545050D03*
X0074992Y0537550D03*
X0080261Y0544635D03*
X0092865Y0555098D03*
X0078117Y0525675D03*
X0074992Y0521300D03*
X0088598Y0456281D03*
X0086610Y0449091D03*
X0083117Y0448800D03*
X0089367Y0446925D03*
X0092522Y0449117D03*
X0050425Y0375132D03*
X0045631Y0372012D03*
X0034992Y0373487D03*
X0044367Y0360675D03*
X0059367Y0345675D03*
X0042492Y0338175D03*
X0038117Y0339425D03*
X0027492Y0340675D03*
X0027492Y0325675D03*
X0038117Y0316300D03*
X0044992Y0315675D03*
X0044742Y0311675D03*
X0044150Y0306154D03*
X0042617Y0298550D03*
X0034611Y0300972D03*
X0043117Y0286925D03*
X0039367Y0281300D03*
X0039367Y0273800D03*
X0038742Y0266925D03*
X0048117Y0270188D03*
X0056685Y0265706D03*
X0056242Y0256300D03*
X0049367Y0259425D03*
X0073117Y0260050D03*
X0081242Y0256925D03*
X0086418Y0247067D03*
X0098596Y0246618D03*
X0106679Y0241925D03*
X0101867Y0268175D03*
X0102492Y0275050D03*
X0105617Y0279425D03*
X0109992Y0282550D03*
X0105674Y0285225D03*
X0106050Y0289482D03*
X0100802Y0290646D03*
X0100586Y0286223D03*
X0099367Y0279425D03*
X0111203Y0287768D03*
X0117064Y0280603D03*
X0119367Y0277550D03*
X0103117Y0299425D03*
X0106448Y0300701D03*
X0103176Y0306300D03*
X0102492Y0310675D03*
X0101867Y0315675D03*
X0101242Y0326300D03*
X0083117Y0335675D03*
X0078781Y0347555D03*
X0049885Y0326606D03*
X0092865Y0306348D03*
X0080261Y0295885D03*
X0074992Y0288800D03*
X0067492Y0296300D03*
X0078117Y0276925D03*
X0074992Y0272550D03*
X0088598Y0207531D03*
X0086610Y0200341D03*
X0083117Y0200050D03*
X0089367Y0198175D03*
X0092522Y0200367D03*
X0182492Y0266925D03*
X0183117Y0273800D03*
X0183117Y0281300D03*
X0186867Y0286925D03*
X0186367Y0298550D03*
X0187900Y0306154D03*
X0188492Y0311675D03*
X0188742Y0315675D03*
X0181867Y0316300D03*
X0171242Y0325675D03*
X0171242Y0340675D03*
X0181867Y0339425D03*
X0186242Y0338175D03*
X0193635Y0326606D03*
X0203117Y0345675D03*
X0222531Y0347555D03*
X0226867Y0335675D03*
X0244992Y0326300D03*
X0245617Y0315675D03*
X0246242Y0310675D03*
X0246926Y0306300D03*
X0250198Y0300701D03*
X0246867Y0299425D03*
X0244552Y0290646D03*
X0244336Y0286223D03*
X0249424Y0285225D03*
X0249800Y0289482D03*
X0254953Y0287768D03*
X0253742Y0282550D03*
X0249367Y0279425D03*
X0246242Y0275050D03*
X0243117Y0279425D03*
X0245617Y0268175D03*
X0260814Y0280603D03*
X0263117Y0277550D03*
X0236615Y0306348D03*
X0224011Y0295885D03*
X0218742Y0288800D03*
X0211242Y0296300D03*
X0221867Y0276925D03*
X0218742Y0272550D03*
X0216867Y0260050D03*
X0224992Y0256925D03*
X0230168Y0247067D03*
X0242346Y0246618D03*
X0250429Y0241925D03*
X0232348Y0207531D03*
X0230360Y0200341D03*
X0226867Y0200050D03*
X0233117Y0198175D03*
X0236272Y0200367D03*
X0267467Y0155050D03*
X0274342Y0154425D03*
X0281842Y0154425D03*
X0287467Y0150675D03*
X0299092Y0151175D03*
X0306695Y0149641D03*
X0312217Y0149050D03*
X0316217Y0148800D03*
X0316842Y0155675D03*
X0326217Y0166300D03*
X0341217Y0166300D03*
X0339967Y0155675D03*
X0338717Y0151300D03*
X0327148Y0143907D03*
X0346217Y0134425D03*
X0361217Y0149425D03*
X0372553Y0148161D03*
X0375673Y0143366D03*
X0374029Y0158800D03*
X0378117Y0198175D03*
X0375360Y0200341D03*
X0371867Y0200050D03*
X0377348Y0207531D03*
X0381272Y0200367D03*
X0395429Y0241925D03*
X0387346Y0246618D03*
X0375168Y0247067D03*
X0369992Y0256925D03*
X0361867Y0260050D03*
X0363742Y0272550D03*
X0366867Y0276925D03*
X0363742Y0288800D03*
X0369011Y0295885D03*
X0356242Y0296300D03*
X0381615Y0306348D03*
X0391926Y0306300D03*
X0391242Y0310675D03*
X0390617Y0315675D03*
X0389992Y0326300D03*
X0371867Y0335675D03*
X0367531Y0347555D03*
X0348117Y0345675D03*
X0331242Y0338175D03*
X0326867Y0339425D03*
X0316242Y0340675D03*
X0316242Y0325675D03*
X0326867Y0316300D03*
X0333742Y0315675D03*
X0333492Y0311675D03*
X0332900Y0306154D03*
X0331367Y0298550D03*
X0323361Y0300972D03*
X0331867Y0286925D03*
X0328117Y0281300D03*
X0328117Y0273800D03*
X0327492Y0266925D03*
X0336867Y0270188D03*
X0345435Y0265706D03*
X0344992Y0256300D03*
X0338117Y0259425D03*
X0390617Y0268175D03*
X0391242Y0275050D03*
X0394367Y0279425D03*
X0398742Y0282550D03*
X0394424Y0285225D03*
X0394800Y0289482D03*
X0389552Y0290646D03*
X0389336Y0286223D03*
X0388117Y0279425D03*
X0399953Y0287768D03*
X0405814Y0280603D03*
X0408117Y0277550D03*
X0391867Y0299425D03*
X0395198Y0300701D03*
X0338635Y0326606D03*
X0333117Y0360675D03*
X0334381Y0372012D03*
X0339175Y0375132D03*
X0323742Y0373487D03*
X0257492Y0358175D03*
X0194175Y0375132D03*
X0189381Y0372012D03*
X0178742Y0373487D03*
X0188117Y0360675D03*
X0113742Y0358175D03*
X0178361Y0300972D03*
X0191867Y0270188D03*
X0200435Y0265706D03*
X0199992Y0256300D03*
X0193117Y0259425D03*
X0301514Y0159181D03*
X0270729Y0145675D03*
X0266247Y0137107D03*
X0256842Y0137550D03*
X0259967Y0144425D03*
X0260592Y0120675D03*
X0257467Y0112550D03*
X0247609Y0107374D03*
X0247159Y0095196D03*
X0242467Y0087113D03*
X0268717Y0091925D03*
X0275592Y0091300D03*
X0279967Y0088175D03*
X0283092Y0083800D03*
X0285767Y0088117D03*
X0290024Y0087741D03*
X0291188Y0092990D03*
X0286764Y0093206D03*
X0279967Y0094425D03*
X0288309Y0082588D03*
X0281145Y0076727D03*
X0278092Y0074425D03*
X0301242Y0087343D03*
X0299967Y0090675D03*
X0306842Y0090616D03*
X0311217Y0091300D03*
X0316217Y0091925D03*
X0326842Y0092550D03*
X0306890Y0100926D03*
X0296426Y0113530D03*
X0289342Y0118800D03*
X0296842Y0126300D03*
X0277467Y0115675D03*
X0273092Y0118800D03*
X0336217Y0110675D03*
X0348097Y0115011D03*
X0358717Y0080050D03*
X0208072Y0105194D03*
X0200883Y0107182D03*
X0200592Y0110675D03*
X0198717Y0104425D03*
X0200908Y0101269D03*
X0402492Y0358175D03*
X0378117Y0446925D03*
X0375360Y0449091D03*
X0371867Y0448800D03*
X0377348Y0456281D03*
X0381272Y0449117D03*
X0395429Y0490675D03*
X0387346Y0495368D03*
X0375168Y0495817D03*
X0369992Y0505675D03*
X0361867Y0508800D03*
X0363742Y0521300D03*
X0366867Y0525675D03*
X0363742Y0537550D03*
X0369011Y0544635D03*
X0356242Y0545050D03*
X0381615Y0555098D03*
X0391926Y0555050D03*
X0391242Y0559425D03*
X0390617Y0564425D03*
X0389992Y0575050D03*
X0371867Y0584425D03*
X0367531Y0596305D03*
X0348117Y0594425D03*
X0331242Y0586925D03*
X0326867Y0588175D03*
X0316242Y0589425D03*
X0333117Y0609425D03*
X0334381Y0620762D03*
X0339175Y0623882D03*
X0323742Y0622238D03*
X0316242Y0574425D03*
X0326867Y0565050D03*
X0333742Y0564425D03*
X0333492Y0560425D03*
X0332900Y0554904D03*
X0331367Y0547300D03*
X0323361Y0549722D03*
X0331867Y0535675D03*
X0328117Y0530050D03*
X0328117Y0522550D03*
X0327492Y0515675D03*
X0336867Y0518938D03*
X0345435Y0514456D03*
X0344992Y0505050D03*
X0338117Y0508175D03*
X0390617Y0516925D03*
X0391242Y0523800D03*
X0394367Y0528175D03*
X0398742Y0531300D03*
X0394424Y0533975D03*
X0394800Y0538232D03*
X0389552Y0539396D03*
X0389336Y0534973D03*
X0388117Y0528175D03*
X0399953Y0536518D03*
X0405814Y0529353D03*
X0408117Y0526300D03*
X0395198Y0549451D03*
X0391867Y0548175D03*
X0338635Y0575356D03*
X0402492Y0606925D03*
X0524367Y0695675D03*
X0521610Y0697841D03*
X0518117Y0697550D03*
X0523598Y0705031D03*
X0527522Y0697867D03*
X0541679Y0739425D03*
X0533596Y0744118D03*
X0521418Y0744567D03*
X0516242Y0754425D03*
X0508117Y0757550D03*
X0509992Y0770050D03*
X0513117Y0774425D03*
X0509992Y0786300D03*
X0515261Y0793385D03*
X0502492Y0793800D03*
X0527865Y0803848D03*
X0538176Y0803800D03*
X0537492Y0808175D03*
X0536867Y0813175D03*
X0536242Y0823800D03*
X0518117Y0833175D03*
X0513781Y0845055D03*
X0494367Y0843175D03*
X0477492Y0835675D03*
X0473117Y0836925D03*
X0462492Y0838175D03*
X0462492Y0823175D03*
X0473117Y0813800D03*
X0479992Y0813175D03*
X0479742Y0809175D03*
X0479150Y0803654D03*
X0477617Y0796050D03*
X0469611Y0798472D03*
X0478117Y0784425D03*
X0474367Y0778800D03*
X0474367Y0771300D03*
X0473742Y0764425D03*
X0483117Y0767688D03*
X0491685Y0763206D03*
X0491242Y0753800D03*
X0484367Y0756925D03*
X0536867Y0765675D03*
X0537492Y0772550D03*
X0540617Y0776925D03*
X0544992Y0780050D03*
X0540674Y0782725D03*
X0541050Y0786982D03*
X0535802Y0788146D03*
X0535586Y0783723D03*
X0534367Y0776925D03*
X0546203Y0785268D03*
X0552064Y0778103D03*
X0554367Y0775050D03*
X0541448Y0798201D03*
X0538117Y0796925D03*
X0484885Y0824106D03*
X0479367Y0858175D03*
X0480631Y0869512D03*
X0485425Y0872632D03*
X0469992Y0870987D03*
X0402492Y0855675D03*
X0548742Y0855675D03*
X0609992Y0838175D03*
X0620617Y0836925D03*
X0624992Y0835675D03*
X0632385Y0824106D03*
X0627492Y0813175D03*
X0627242Y0809175D03*
X0626650Y0803654D03*
X0625117Y0796050D03*
X0617111Y0798472D03*
X0620617Y0813800D03*
X0609992Y0823175D03*
X0641867Y0843175D03*
X0626867Y0858175D03*
X0628131Y0869512D03*
X0632925Y0872632D03*
X0617492Y0870987D03*
X0661281Y0845055D03*
X0665617Y0833175D03*
X0683742Y0823800D03*
X0684367Y0813175D03*
X0684992Y0808175D03*
X0685676Y0803800D03*
X0688948Y0798201D03*
X0685617Y0796925D03*
X0683302Y0788146D03*
X0683086Y0783723D03*
X0688174Y0782725D03*
X0688550Y0786982D03*
X0693703Y0785268D03*
X0692492Y0780050D03*
X0688117Y0776925D03*
X0684992Y0772550D03*
X0681867Y0776925D03*
X0684367Y0765675D03*
X0699564Y0778103D03*
X0701867Y0775050D03*
X0675365Y0803848D03*
X0662761Y0793385D03*
X0657492Y0786300D03*
X0649992Y0793800D03*
X0660617Y0774425D03*
X0657492Y0770050D03*
X0655617Y0757550D03*
X0663742Y0754425D03*
X0668918Y0744567D03*
X0681096Y0744118D03*
X0689179Y0739425D03*
X0671098Y0705031D03*
X0669110Y0697841D03*
X0665617Y0697550D03*
X0671867Y0695675D03*
X0675022Y0697867D03*
X0638742Y0753800D03*
X0631867Y0756925D03*
X0639185Y0763206D03*
X0630617Y0767688D03*
X0621867Y0771300D03*
X0621242Y0764425D03*
X0621867Y0778800D03*
X0625617Y0784425D03*
X0696242Y0855675D03*
X0257492Y0606925D03*
X0226867Y0584425D03*
X0222531Y0596305D03*
X0203117Y0594425D03*
X0186242Y0586925D03*
X0181867Y0588175D03*
X0171242Y0589425D03*
X0188117Y0609425D03*
X0189381Y0620762D03*
X0194175Y0623882D03*
X0178742Y0622238D03*
X0171242Y0574425D03*
X0181867Y0565050D03*
X0188742Y0564425D03*
X0188492Y0560425D03*
X0187900Y0554904D03*
X0186367Y0547300D03*
X0178361Y0549722D03*
X0186867Y0535675D03*
X0183117Y0530050D03*
X0183117Y0522550D03*
X0182492Y0515675D03*
X0191867Y0518938D03*
X0200435Y0514456D03*
X0199992Y0505050D03*
X0193117Y0508175D03*
X0216867Y0508800D03*
X0224992Y0505675D03*
X0230168Y0495817D03*
X0242346Y0495368D03*
X0250429Y0490675D03*
X0245617Y0516925D03*
X0246242Y0523800D03*
X0249367Y0528175D03*
X0253742Y0531300D03*
X0249424Y0533975D03*
X0249800Y0538232D03*
X0244552Y0539396D03*
X0244336Y0534973D03*
X0243117Y0528175D03*
X0254953Y0536518D03*
X0260814Y0529353D03*
X0263117Y0526300D03*
X0250198Y0549451D03*
X0246867Y0548175D03*
X0246926Y0555050D03*
X0246242Y0559425D03*
X0245617Y0564425D03*
X0244992Y0575050D03*
X0236615Y0555098D03*
X0224011Y0544635D03*
X0218742Y0537550D03*
X0211242Y0545050D03*
X0221867Y0525675D03*
X0218742Y0521300D03*
X0193635Y0575356D03*
X0113742Y0606925D03*
X0232348Y0456281D03*
X0230360Y0449091D03*
X0226867Y0448800D03*
X0233117Y0446925D03*
X0236272Y0449117D03*
X1348742Y0691925D03*
X1349367Y0698800D03*
X1349367Y0706300D03*
X1353117Y0711925D03*
X1352617Y0723550D03*
X1354150Y0731154D03*
X1354742Y0736675D03*
X1354992Y0740675D03*
X1348117Y0741300D03*
X1337492Y0750675D03*
X1337492Y0765675D03*
X1348117Y0764425D03*
X1352492Y0763175D03*
X1359885Y0751606D03*
X1369367Y0770675D03*
X1388781Y0772555D03*
X1393117Y0760675D03*
X1411242Y0751300D03*
X1411867Y0740675D03*
X1412492Y0735675D03*
X1413176Y0731300D03*
X1416448Y0725701D03*
X1413117Y0724425D03*
X1410802Y0715646D03*
X1410586Y0711223D03*
X1415674Y0710225D03*
X1416050Y0714482D03*
X1421203Y0712768D03*
X1419992Y0707550D03*
X1415617Y0704425D03*
X1412492Y0700050D03*
X1409367Y0704425D03*
X1411867Y0693175D03*
X1427064Y0705603D03*
X1429367Y0702550D03*
X1402865Y0731348D03*
X1390261Y0720885D03*
X1384992Y0713800D03*
X1377492Y0721300D03*
X1388117Y0701925D03*
X1384992Y0697550D03*
X1383117Y0685050D03*
X1391242Y0681925D03*
X1396418Y0672067D03*
X1408596Y0671618D03*
X1416679Y0666925D03*
X1398598Y0632531D03*
X1396610Y0625341D03*
X1393117Y0625050D03*
X1399367Y0623175D03*
X1402522Y0625367D03*
X1366242Y0681300D03*
X1359367Y0684425D03*
X1366685Y0690706D03*
X1358117Y0695188D03*
X1344611Y0725972D03*
X1354367Y0785675D03*
X1355631Y0797012D03*
X1360425Y0800132D03*
X1344992Y0798487D03*
X1423742Y0783175D03*
X1481242Y0765675D03*
X1491867Y0764425D03*
X1496242Y0763175D03*
X1503635Y0751606D03*
X1498742Y0740675D03*
X1498492Y0736675D03*
X1497900Y0731154D03*
X1496367Y0723550D03*
X1488361Y0725972D03*
X1491867Y0741300D03*
X1481242Y0750675D03*
X1513117Y0770675D03*
X1532531Y0772555D03*
X1536867Y0760675D03*
X1554992Y0751300D03*
X1555617Y0740675D03*
X1556242Y0735675D03*
X1556926Y0731300D03*
X1560198Y0725701D03*
X1556867Y0724425D03*
X1554552Y0715646D03*
X1554336Y0711223D03*
X1559424Y0710225D03*
X1559800Y0714482D03*
X1564953Y0712768D03*
X1563742Y0707550D03*
X1559367Y0704425D03*
X1556242Y0700050D03*
X1553117Y0704425D03*
X1555617Y0693175D03*
X1570814Y0705603D03*
X1573117Y0702550D03*
X1546615Y0731348D03*
X1534011Y0720885D03*
X1528742Y0713800D03*
X1521242Y0721300D03*
X1496867Y0711925D03*
X1493117Y0706300D03*
X1493117Y0698800D03*
X1492492Y0691925D03*
X1501867Y0695188D03*
X1510435Y0690706D03*
X1509992Y0681300D03*
X1503117Y0684425D03*
X1526867Y0685050D03*
X1534992Y0681925D03*
X1540168Y0672067D03*
X1552346Y0671618D03*
X1560429Y0666925D03*
X1542348Y0632531D03*
X1540360Y0625341D03*
X1536867Y0625050D03*
X1543117Y0623175D03*
X1546272Y0625367D03*
X1528742Y0697550D03*
X1531867Y0701925D03*
X1567492Y0783175D03*
X1504175Y0800132D03*
X1499381Y0797012D03*
X1488742Y0798487D03*
X1498117Y0785675D03*
X1536867Y0875050D03*
X1540360Y0875341D03*
X1543117Y0873175D03*
X1546272Y0875367D03*
X1542348Y0882531D03*
X1560429Y0916925D03*
X1552346Y0921618D03*
X1540168Y0922067D03*
X1534992Y0931925D03*
X1526867Y0935050D03*
X1528742Y0947550D03*
X1531867Y0951925D03*
X1528742Y0963800D03*
X1534011Y0970885D03*
X1521242Y0971300D03*
X1496367Y0973550D03*
X1497900Y0981154D03*
X1498492Y0986675D03*
X1498742Y0990675D03*
X1491867Y0991300D03*
X1481242Y1000675D03*
X1481242Y1015675D03*
X1491867Y1014425D03*
X1496242Y1013175D03*
X1503635Y1001606D03*
X1513117Y1020675D03*
X1532531Y1022555D03*
X1536867Y1010675D03*
X1554992Y1001300D03*
X1555617Y0990675D03*
X1556242Y0985675D03*
X1556926Y0981300D03*
X1560198Y0975701D03*
X1556867Y0974425D03*
X1554552Y0965646D03*
X1554336Y0961223D03*
X1559424Y0960225D03*
X1559800Y0964482D03*
X1564953Y0962768D03*
X1563742Y0957550D03*
X1559367Y0954425D03*
X1556242Y0950050D03*
X1553117Y0954425D03*
X1555617Y0943175D03*
X1570814Y0955603D03*
X1573117Y0952550D03*
X1546615Y0981348D03*
X1496867Y0961925D03*
X1493117Y0956300D03*
X1493117Y0948800D03*
X1492492Y0941925D03*
X1501867Y0945188D03*
X1510435Y0940706D03*
X1509992Y0931300D03*
X1503117Y0934425D03*
X1488361Y0975972D03*
X1429367Y0952550D03*
X1427064Y0955603D03*
X1419992Y0957550D03*
X1415674Y0960225D03*
X1416050Y0964482D03*
X1410802Y0965646D03*
X1410586Y0961223D03*
X1409367Y0954425D03*
X1412492Y0950050D03*
X1415617Y0954425D03*
X1421203Y0962768D03*
X1416448Y0975701D03*
X1413117Y0974425D03*
X1413176Y0981300D03*
X1412492Y0985675D03*
X1411867Y0990675D03*
X1411242Y1001300D03*
X1393117Y1010675D03*
X1388781Y1022555D03*
X1369367Y1020675D03*
X1352492Y1013175D03*
X1348117Y1014425D03*
X1337492Y1015675D03*
X1337492Y1000675D03*
X1348117Y0991300D03*
X1354992Y0990675D03*
X1354742Y0986675D03*
X1354150Y0981154D03*
X1352617Y0973550D03*
X1344611Y0975972D03*
X1353117Y0961925D03*
X1349367Y0956300D03*
X1349367Y0948800D03*
X1348742Y0941925D03*
X1358117Y0945188D03*
X1366685Y0940706D03*
X1366242Y0931300D03*
X1359367Y0934425D03*
X1383117Y0935050D03*
X1391242Y0931925D03*
X1396418Y0922067D03*
X1408596Y0921618D03*
X1416679Y0916925D03*
X1411867Y0943175D03*
X1388117Y0951925D03*
X1384992Y0947550D03*
X1384992Y0963800D03*
X1390261Y0970885D03*
X1377492Y0971300D03*
X1402865Y0981348D03*
X1359885Y1001606D03*
X1354367Y1035675D03*
X1355631Y1047012D03*
X1360425Y1050132D03*
X1344992Y1048487D03*
X1423742Y1033175D03*
X1488742Y1048487D03*
X1499381Y1047012D03*
X1504175Y1050132D03*
X1498117Y1035675D03*
X1567492Y1033175D03*
X1398598Y0882531D03*
X1396610Y0875341D03*
X1393117Y0875050D03*
X1399367Y0873175D03*
X1402522Y0875367D03*
D54*
X1386195Y0891750D03*
X1382041Y0893794D03*
X1382200Y0898388D03*
X1380699Y0906418D03*
X1387456Y0905973D03*
X1372128Y0891763D03*
X1351867Y0881925D03*
X1344367Y0881925D03*
X1344543Y0843786D03*
X1369197Y0781749D03*
X1408242Y0766050D03*
X1417242Y0766050D03*
X1418117Y0748800D03*
X1438016Y0748619D03*
X1393117Y0751300D03*
X1386242Y0741300D03*
X1355617Y0745675D03*
X1353742Y0753800D03*
X1444854Y0797179D03*
X1423609Y0848735D03*
X1416242Y0900050D03*
X1488117Y0881925D03*
X1495617Y0881925D03*
X1515878Y0891763D03*
X1525791Y0893794D03*
X1525950Y0898388D03*
X1529945Y0891750D03*
X1531206Y0905973D03*
X1524449Y0906418D03*
X1559992Y0900050D03*
X1567359Y0848735D03*
X1588604Y0797179D03*
X1560992Y0766050D03*
X1551992Y0766050D03*
X1561867Y0748800D03*
X1581766Y0748619D03*
X1536867Y0751300D03*
X1529992Y0741300D03*
X1499367Y0745675D03*
X1497492Y0753800D03*
X1512947Y0781749D03*
X1488293Y0843786D03*
X1490617Y0920050D03*
X1490617Y0925675D03*
X1445797Y0952415D03*
X1386242Y0991300D03*
X1393117Y1001300D03*
X1408242Y1016050D03*
X1417242Y1016050D03*
X1418117Y0998800D03*
X1438016Y0998619D03*
X1444854Y1047179D03*
X1423609Y1098735D03*
X1488293Y1093786D03*
X1567359Y1098735D03*
X1588604Y1047179D03*
X1560992Y1016050D03*
X1551992Y1016050D03*
X1561867Y0998800D03*
X1581766Y0998619D03*
X1536867Y1001300D03*
X1529992Y0991300D03*
X1499367Y0995675D03*
X1497492Y1003800D03*
X1512947Y1031749D03*
X1589547Y0952415D03*
X1369197Y1031749D03*
X1353742Y1003800D03*
X1355617Y0995675D03*
X1346867Y0925675D03*
X1346867Y0920050D03*
X1280292Y0910625D03*
X1260917Y0924375D03*
X1250292Y0926250D03*
X1272792Y0928750D03*
X1280292Y0956250D03*
X1264354Y0956250D03*
X1222792Y0971250D03*
X1165292Y0958750D03*
X1155292Y0958750D03*
X1140292Y0961250D03*
X1152792Y0973750D03*
X1135292Y0978750D03*
X1117792Y0978750D03*
X1100292Y0976250D03*
X1105292Y0993750D03*
X1085292Y1001250D03*
X1067792Y0988750D03*
X1050292Y0988750D03*
X1080292Y0973750D03*
X1082792Y0958750D03*
X1060292Y0943750D03*
X1071542Y0929062D03*
X1062792Y0906875D03*
X1057792Y0906250D03*
X1065292Y0893750D03*
X1094042Y0878750D03*
X1092792Y0871250D03*
X1094042Y0858125D03*
X1070292Y0847187D03*
X1047792Y0843750D03*
X1042792Y0848750D03*
X1027792Y0848750D03*
X1010292Y0853750D03*
X1010292Y0843750D03*
X1005292Y0831250D03*
X0967792Y0863437D03*
X0955604Y0868750D03*
X0951854Y0858750D03*
X0953729Y0848750D03*
X0954042Y0835625D03*
X0954042Y0830000D03*
X0954042Y0824375D03*
X0954042Y0818750D03*
X0937792Y0843750D03*
X0927792Y0868750D03*
X0912792Y0868750D03*
X0890292Y0862187D03*
X0885292Y0858750D03*
X0879667Y0856250D03*
X0876229Y0852500D03*
X0880604Y0848750D03*
X0879354Y0865312D03*
X0887792Y0881250D03*
X0885292Y0911250D03*
X0860292Y0901250D03*
X0827167Y0927500D03*
X0862792Y0948750D03*
X0860292Y0963750D03*
X0862792Y0971250D03*
X0885292Y0981250D03*
X0895292Y0971250D03*
X0932792Y0967187D03*
X0932792Y0956250D03*
X0942792Y0956250D03*
X0925917Y0937812D03*
X0915292Y0933750D03*
X0925292Y0906250D03*
X0950292Y0926250D03*
X0952792Y0888750D03*
X0980917Y0893125D03*
X1025292Y0921250D03*
X1032792Y0921250D03*
X1095292Y0933750D03*
X1110292Y0946250D03*
X1117792Y0953750D03*
X1130292Y0928750D03*
X1177792Y0918750D03*
X1235292Y0878750D03*
X1239979Y0882500D03*
X1235292Y0868750D03*
X1232792Y0853750D03*
X1237792Y0848750D03*
X1250292Y0843750D03*
X1262792Y0848750D03*
X1262792Y0863750D03*
X1240292Y0829062D03*
X1233417Y0828125D03*
X1238417Y0819375D03*
X1236542Y0808750D03*
X1250292Y0823750D03*
X1210292Y0828750D03*
X1210292Y0848750D03*
X1210292Y0858750D03*
X1235292Y0788750D03*
X1235292Y0768750D03*
X1120917Y0828750D03*
X1120917Y0838750D03*
X1095917Y0823750D03*
X1094667Y0818125D03*
X1095292Y0808750D03*
X1095292Y0788750D03*
X1095292Y0768750D03*
X1070292Y0824687D03*
X1091542Y0828750D03*
X0978104Y0697187D03*
X0977792Y0688750D03*
X0987792Y0688750D03*
X0997792Y0688750D03*
X1007792Y0688750D03*
X1017792Y0688750D03*
X1027792Y0688750D03*
X1017792Y0666250D03*
X1007792Y0666250D03*
X0997792Y0666250D03*
X0987792Y0666250D03*
X0950292Y0666250D03*
X0946229Y0652813D03*
X0911854Y0625313D03*
X0895292Y0625313D03*
X0887792Y0636250D03*
X0880292Y0631250D03*
X0875292Y0636250D03*
X0875292Y0654375D03*
X0880292Y0666250D03*
X0885292Y0681250D03*
X0880292Y0698750D03*
X0910292Y0703750D03*
X0921229Y0700312D03*
X0933729Y0687813D03*
X0929042Y0613750D03*
X0939979Y0602813D03*
X0974354Y0613125D03*
X1022792Y0614375D03*
X1053104Y0613438D03*
X1072792Y0608750D03*
X1082792Y0606750D03*
X1113292Y0613750D03*
X1112792Y0641250D03*
X1107792Y0651250D03*
X1085292Y0668750D03*
X1075292Y0670000D03*
X1062792Y0668750D03*
X1052792Y0666250D03*
X0899667Y0799375D03*
X0812792Y0808750D03*
X0812792Y0818750D03*
X0812792Y0825000D03*
X0812792Y0831250D03*
X0812792Y0837500D03*
X0827792Y0874687D03*
X0768104Y0866875D03*
X0717354Y0869679D03*
X0689742Y0838550D03*
X0680742Y0838550D03*
X0690617Y0821300D03*
X0665617Y0823800D03*
X0658742Y0813800D03*
X0628117Y0818175D03*
X0626242Y0826300D03*
X0641697Y0854249D03*
X0569854Y0869679D03*
X0542242Y0838550D03*
X0533242Y0838550D03*
X0543117Y0821300D03*
X0518117Y0823800D03*
X0511242Y0813800D03*
X0480617Y0818175D03*
X0478742Y0826300D03*
X0494197Y0854249D03*
X0423604Y0869679D03*
X0395992Y0838550D03*
X0386992Y0838550D03*
X0396867Y0821300D03*
X0416766Y0821119D03*
X0371867Y0823800D03*
X0364992Y0813800D03*
X0334367Y0818175D03*
X0332492Y0826300D03*
X0347947Y0854249D03*
X0278604Y0869679D03*
X0250992Y0838550D03*
X0241992Y0838550D03*
X0251867Y0821300D03*
X0271766Y0821119D03*
X0226867Y0823800D03*
X0219992Y0813800D03*
X0189367Y0818175D03*
X0187492Y0826300D03*
X0202947Y0854249D03*
X0134854Y0869679D03*
X0107242Y0838550D03*
X0098242Y0838550D03*
X0108117Y0821300D03*
X0128016Y0821119D03*
X0083117Y0823800D03*
X0076242Y0813800D03*
X0045617Y0818175D03*
X0043742Y0826300D03*
X0059197Y0854249D03*
X0034543Y0916286D03*
X0113609Y0921235D03*
X0178293Y0916286D03*
X0257359Y0921235D03*
X0323293Y0916286D03*
X0402359Y0921235D03*
X0469543Y0916286D03*
X0548609Y0921235D03*
X0617043Y0916286D03*
X0696109Y0921235D03*
X0805803Y0978947D03*
X0887792Y1008750D03*
X0892792Y0998750D03*
X0932792Y1016250D03*
X0945292Y0985207D03*
X0990292Y0998750D03*
X0917792Y1063750D03*
X0890292Y1063750D03*
X0882792Y1083750D03*
X0869042Y1087500D03*
X0865292Y1078750D03*
X1130292Y1016250D03*
X1145292Y1031762D03*
X1157792Y1006250D03*
X1222792Y1023750D03*
X1344543Y1093786D03*
X1445797Y0702415D03*
X1490617Y0675675D03*
X1490617Y0670050D03*
X1524449Y0656418D03*
X1531206Y0655973D03*
X1525950Y0648388D03*
X1525791Y0643794D03*
X1529945Y0641750D03*
X1515878Y0641763D03*
X1495617Y0631925D03*
X1488117Y0631925D03*
X1559992Y0650050D03*
X1589547Y0702415D03*
X1416242Y0650050D03*
X1387456Y0655973D03*
X1380699Y0656418D03*
X1382200Y0648388D03*
X1382041Y0643794D03*
X1386195Y0641750D03*
X1372128Y0641763D03*
X1351867Y0631925D03*
X1344367Y0631925D03*
X1346867Y0670050D03*
X1346867Y0675675D03*
X1175292Y0521250D03*
X1161542Y0525000D03*
X1157792Y0516250D03*
X1182792Y0501250D03*
X1210292Y0501250D03*
X1225292Y0453750D03*
X1237792Y0422707D03*
X1225292Y0404687D03*
X1225292Y0393750D03*
X1235292Y0393750D03*
X1218417Y0375312D03*
X1207792Y0371250D03*
X1217792Y0343750D03*
X1242792Y0363750D03*
X1245292Y0326250D03*
X1248104Y0306250D03*
X1244354Y0296250D03*
X1246229Y0286250D03*
X1246542Y0273125D03*
X1246542Y0267500D03*
X1246542Y0261875D03*
X1246542Y0256250D03*
X1230292Y0281250D03*
X1220292Y0306250D03*
X1205292Y0306250D03*
X1182792Y0299688D03*
X1177792Y0296250D03*
X1172167Y0293750D03*
X1168729Y0290000D03*
X1173104Y0286250D03*
X1171854Y0302813D03*
X1180292Y0318750D03*
X1152792Y0338750D03*
X1177792Y0348750D03*
X1155292Y0386250D03*
X1152792Y0401250D03*
X1155292Y0408750D03*
X1177792Y0418750D03*
X1187792Y0408750D03*
X1185292Y0436250D03*
X1180292Y0446250D03*
X1098303Y0416447D03*
X1119667Y0365000D03*
X1120292Y0312188D03*
X1105292Y0275000D03*
X1105292Y0268750D03*
X1105292Y0262500D03*
X1105292Y0256250D03*
X1105292Y0246250D03*
X1105292Y0226250D03*
X1105292Y0206250D03*
X1076542Y0184375D03*
X1064667Y0213750D03*
X0970292Y0281250D03*
X0957792Y0276250D03*
X0945292Y0281250D03*
X0940292Y0286250D03*
X0917792Y0291250D03*
X0917792Y0281250D03*
X0917792Y0261250D03*
X0940917Y0260625D03*
X0947792Y0261562D03*
X0945917Y0251875D03*
X0944042Y0241250D03*
X0957792Y0256250D03*
X0942792Y0221250D03*
X0942792Y0201250D03*
X0828417Y0261250D03*
X0828417Y0271250D03*
X0803417Y0256250D03*
X0802167Y0250625D03*
X0802792Y0241250D03*
X0799042Y0261250D03*
X0777792Y0257187D03*
X0777792Y0279688D03*
X0801542Y0290625D03*
X0800292Y0303750D03*
X0801542Y0311250D03*
X0772792Y0326250D03*
X0770292Y0339375D03*
X0765292Y0338750D03*
X0740292Y0353750D03*
X0732792Y0353750D03*
X0767792Y0376250D03*
X0779042Y0361562D03*
X0802792Y0366250D03*
X0817792Y0378750D03*
X0825292Y0386250D03*
X0847792Y0393750D03*
X0862792Y0391250D03*
X0872792Y0391250D03*
X0860292Y0406250D03*
X0842792Y0411250D03*
X0825292Y0411250D03*
X0807792Y0408750D03*
X0812792Y0426250D03*
X0792792Y0433750D03*
X0775292Y0421250D03*
X0757792Y0421250D03*
X0787792Y0406250D03*
X0790292Y0391250D03*
X0837792Y0361250D03*
X0885292Y0351250D03*
X0947479Y0315000D03*
X0942792Y0311250D03*
X0942792Y0301250D03*
X0970292Y0296250D03*
X0987792Y0343125D03*
X0968417Y0356875D03*
X0957792Y0358750D03*
X0980292Y0361250D03*
X0987792Y0388750D03*
X0971854Y0388750D03*
X0930292Y0403750D03*
X0930292Y0456250D03*
X0865292Y0438750D03*
X0837792Y0448750D03*
X0852792Y0464262D03*
X0697792Y0431250D03*
X0652792Y0417707D03*
X0640292Y0399687D03*
X0640292Y0388750D03*
X0650292Y0388750D03*
X0633417Y0370312D03*
X0622792Y0366250D03*
X0632792Y0338750D03*
X0657792Y0358750D03*
X0688417Y0325625D03*
X0660292Y0321250D03*
X0663104Y0301250D03*
X0659354Y0291250D03*
X0661229Y0281250D03*
X0661542Y0268125D03*
X0661542Y0262500D03*
X0661542Y0256875D03*
X0661542Y0251250D03*
X0645292Y0276250D03*
X0675292Y0295938D03*
X0635292Y0301250D03*
X0620292Y0301250D03*
X0597792Y0294688D03*
X0592792Y0291250D03*
X0587167Y0288750D03*
X0583729Y0285000D03*
X0588104Y0281250D03*
X0586854Y0297813D03*
X0595292Y0313750D03*
X0592792Y0343750D03*
X0567792Y0333750D03*
X0535292Y0307188D03*
X0520292Y0270000D03*
X0520292Y0263750D03*
X0520292Y0257500D03*
X0520292Y0251250D03*
X0520292Y0241250D03*
X0520292Y0221250D03*
X0520292Y0201250D03*
X0491542Y0179375D03*
X0479667Y0208750D03*
X0419328Y0159249D03*
X0357290Y0134594D03*
X0329342Y0150050D03*
X0321217Y0148175D03*
X0316842Y0117550D03*
X0326842Y0110675D03*
X0341592Y0095550D03*
X0341592Y0086550D03*
X0324342Y0085675D03*
X0324161Y0065776D03*
X0277956Y0057995D03*
X0225592Y0087550D03*
X0231515Y0116336D03*
X0231960Y0123093D03*
X0223930Y0121592D03*
X0219335Y0121751D03*
X0217292Y0117596D03*
X0217305Y0131664D03*
X0207467Y0151925D03*
X0207467Y0159425D03*
X0245592Y0156925D03*
X0251217Y0156925D03*
X0185617Y0206925D03*
X0178117Y0206925D03*
X0205878Y0216763D03*
X0215791Y0218794D03*
X0215950Y0223388D03*
X0219945Y0216750D03*
X0221206Y0230973D03*
X0214449Y0231418D03*
X0249992Y0225050D03*
X0180617Y0245050D03*
X0180617Y0250675D03*
X0135797Y0277415D03*
X0128016Y0323619D03*
X0108117Y0323800D03*
X0083117Y0326300D03*
X0076242Y0316300D03*
X0045617Y0320675D03*
X0043742Y0328800D03*
X0059197Y0356749D03*
X0098242Y0341050D03*
X0107242Y0341050D03*
X0134854Y0372179D03*
X0187492Y0328800D03*
X0189367Y0320675D03*
X0219992Y0316300D03*
X0226867Y0326300D03*
X0241992Y0341050D03*
X0250992Y0341050D03*
X0251867Y0323800D03*
X0271766Y0323619D03*
X0279547Y0277415D03*
X0325617Y0250675D03*
X0325617Y0245050D03*
X0359449Y0231418D03*
X0366206Y0230973D03*
X0360950Y0223388D03*
X0360791Y0218794D03*
X0364945Y0216750D03*
X0350878Y0216763D03*
X0330617Y0206925D03*
X0323117Y0206925D03*
X0394992Y0225050D03*
X0424547Y0277415D03*
X0416766Y0323619D03*
X0396867Y0323800D03*
X0371867Y0326300D03*
X0364992Y0316300D03*
X0334367Y0320675D03*
X0332492Y0328800D03*
X0347947Y0356749D03*
X0386992Y0341050D03*
X0395992Y0341050D03*
X0423604Y0372179D03*
X0402359Y0423735D03*
X0364945Y0465500D03*
X0360791Y0467544D03*
X0360950Y0472138D03*
X0359449Y0480168D03*
X0366206Y0479723D03*
X0350878Y0465513D03*
X0330617Y0455675D03*
X0323117Y0455675D03*
X0323293Y0418786D03*
X0278604Y0372179D03*
X0257359Y0423735D03*
X0219945Y0465500D03*
X0215791Y0467544D03*
X0215950Y0472138D03*
X0214449Y0480168D03*
X0221206Y0479723D03*
X0205878Y0465513D03*
X0185617Y0455675D03*
X0178117Y0455675D03*
X0178293Y0418786D03*
X0113609Y0423735D03*
X0076195Y0465500D03*
X0072041Y0467544D03*
X0072200Y0472138D03*
X0070699Y0480168D03*
X0077456Y0479723D03*
X0062128Y0465513D03*
X0041867Y0455675D03*
X0034367Y0455675D03*
X0034543Y0418786D03*
X0106242Y0473800D03*
X0135797Y0526165D03*
X0180617Y0499425D03*
X0180617Y0493800D03*
X0249992Y0473800D03*
X0279547Y0526165D03*
X0325617Y0499425D03*
X0325617Y0493800D03*
X0394992Y0473800D03*
X0424547Y0526165D03*
X0416766Y0572369D03*
X0396867Y0572550D03*
X0371867Y0575050D03*
X0364992Y0565050D03*
X0334367Y0569425D03*
X0332492Y0577550D03*
X0347947Y0605499D03*
X0386992Y0589800D03*
X0395992Y0589800D03*
X0423604Y0620929D03*
X0402359Y0672485D03*
X0364945Y0714250D03*
X0360791Y0716294D03*
X0360950Y0720888D03*
X0359449Y0728918D03*
X0366206Y0728473D03*
X0350878Y0714263D03*
X0330617Y0704425D03*
X0323117Y0704425D03*
X0323293Y0667536D03*
X0278604Y0620929D03*
X0250992Y0589800D03*
X0241992Y0589800D03*
X0251867Y0572550D03*
X0271766Y0572369D03*
X0226867Y0575050D03*
X0219992Y0565050D03*
X0189367Y0569425D03*
X0187492Y0577550D03*
X0202947Y0605499D03*
X0134854Y0620929D03*
X0107242Y0589800D03*
X0098242Y0589800D03*
X0108117Y0572550D03*
X0128016Y0572369D03*
X0083117Y0575050D03*
X0076242Y0565050D03*
X0045617Y0569425D03*
X0043742Y0577550D03*
X0059197Y0605499D03*
X0034543Y0667536D03*
X0034367Y0704425D03*
X0041867Y0704425D03*
X0062128Y0714263D03*
X0072041Y0716294D03*
X0072200Y0720888D03*
X0076195Y0714250D03*
X0077456Y0728473D03*
X0070699Y0728918D03*
X0106242Y0722550D03*
X0113609Y0672485D03*
X0178293Y0667536D03*
X0178117Y0704425D03*
X0185617Y0704425D03*
X0205878Y0714263D03*
X0215791Y0716294D03*
X0215950Y0720888D03*
X0219945Y0714250D03*
X0221206Y0728473D03*
X0214449Y0728918D03*
X0249992Y0722550D03*
X0257359Y0672485D03*
X0325617Y0742550D03*
X0325617Y0748175D03*
X0279547Y0774915D03*
X0180617Y0748175D03*
X0180617Y0742550D03*
X0135797Y0774915D03*
X0036867Y0748175D03*
X0036867Y0742550D03*
X0036867Y0499425D03*
X0036867Y0493800D03*
X0202947Y0356749D03*
X0077456Y0230973D03*
X0070699Y0231418D03*
X0072200Y0223388D03*
X0072041Y0218794D03*
X0076195Y0216750D03*
X0062128Y0216763D03*
X0041867Y0206925D03*
X0034367Y0206925D03*
X0036867Y0245050D03*
X0036867Y0250675D03*
X0106242Y0225050D03*
X0372720Y0058938D03*
X0424277Y0080182D03*
X0582792Y0086875D03*
X0587792Y0098750D03*
X0592792Y0113750D03*
X0587792Y0131250D03*
X0617792Y0136250D03*
X0628729Y0132813D03*
X0641229Y0120312D03*
X0657792Y0098750D03*
X0653729Y0085313D03*
X0695292Y0098750D03*
X0705292Y0098750D03*
X0715292Y0098750D03*
X0725292Y0098750D03*
X0725292Y0121250D03*
X0735292Y0121250D03*
X0715292Y0121250D03*
X0705292Y0121250D03*
X0695292Y0121250D03*
X0685292Y0121250D03*
X0685604Y0129687D03*
X0760292Y0098750D03*
X0770292Y0101250D03*
X0782792Y0102500D03*
X0792792Y0101250D03*
X0815292Y0083750D03*
X0820292Y0073750D03*
X0820792Y0046250D03*
X0790292Y0039250D03*
X0780292Y0041250D03*
X0760604Y0045937D03*
X0730292Y0046875D03*
X0681854Y0045625D03*
X0647479Y0035313D03*
X0636542Y0046250D03*
X0619354Y0057812D03*
X0602792Y0057812D03*
X0595292Y0068750D03*
X0587792Y0063750D03*
X0582792Y0068750D03*
X0802792Y0201250D03*
X0802792Y0221250D03*
X0755292Y0276250D03*
X0750292Y0281250D03*
X0735292Y0281250D03*
X0717792Y0286250D03*
X0717792Y0276250D03*
X0712792Y0263750D03*
X0607167Y0231875D03*
X0475604Y0299375D03*
X0534667Y0360000D03*
X0570292Y0381250D03*
X0567792Y0396250D03*
X0570292Y0403750D03*
X0592792Y0413750D03*
X0602792Y0403750D03*
X0600292Y0431250D03*
X0595292Y0441250D03*
X0640292Y0448750D03*
X0625292Y0496250D03*
X0597792Y0496250D03*
X0590292Y0516250D03*
X0576542Y0520000D03*
X0572792Y0511250D03*
X0513303Y0411447D03*
X0476867Y0704425D03*
X0469367Y0704425D03*
X0497128Y0714263D03*
X0507041Y0716294D03*
X0507200Y0720888D03*
X0511195Y0714250D03*
X0512456Y0728473D03*
X0505699Y0728918D03*
X0541242Y0722550D03*
X0570797Y0774915D03*
X0619367Y0748175D03*
X0619367Y0742550D03*
X0653199Y0728918D03*
X0659956Y0728473D03*
X0654700Y0720888D03*
X0654541Y0716294D03*
X0658695Y0714250D03*
X0644628Y0714263D03*
X0624367Y0704425D03*
X0616867Y0704425D03*
X0688742Y0722550D03*
X0718297Y0774915D03*
X0710516Y0821119D03*
X0772167Y0776250D03*
X0784042Y0746875D03*
X0812792Y0768750D03*
X0812792Y0788750D03*
X0563016Y0821119D03*
X0471867Y0748175D03*
X0471867Y0742550D03*
X0424547Y0774915D03*
X0394992Y0722550D03*
X1060604Y0304375D03*
X1192167Y0236875D03*
X1260292Y0300938D03*
X1273417Y0330625D03*
X1317792Y0358750D03*
X1325292Y0358750D03*
X1350292Y0343750D03*
X1355292Y0344375D03*
X1357792Y0331250D03*
X1386542Y0316250D03*
X1385292Y0308750D03*
X1386542Y0295625D03*
X1413417Y0276250D03*
X1413417Y0266250D03*
X1388417Y0261250D03*
X1387167Y0255625D03*
X1387792Y0246250D03*
X1387792Y0226250D03*
X1387792Y0206250D03*
X1362792Y0262188D03*
X1384042Y0266250D03*
X1362792Y0284688D03*
X1340292Y0281250D03*
X1335292Y0286250D03*
X1320292Y0286250D03*
X1302792Y0291250D03*
X1302792Y0281250D03*
X1297792Y0268750D03*
X1364042Y0366562D03*
X1352792Y0381250D03*
X1375292Y0396250D03*
X1372792Y0411250D03*
X1360292Y0426250D03*
X1342792Y0426250D03*
X1377792Y0438750D03*
X1397792Y0431250D03*
X1392792Y0413750D03*
X1410292Y0416250D03*
X1427792Y0416250D03*
X1445292Y0411250D03*
X1447792Y0396250D03*
X1457792Y0396250D03*
X1432792Y0398750D03*
X1410292Y0391250D03*
X1402792Y0383750D03*
X1387792Y0371250D03*
X1422792Y0366250D03*
X1470292Y0356250D03*
X1527792Y0316250D03*
X1532479Y0320000D03*
X1527792Y0306250D03*
X1525292Y0291250D03*
X1530292Y0286250D03*
X1542792Y0281250D03*
X1555292Y0286250D03*
X1532792Y0266563D03*
X1525917Y0265625D03*
X1530917Y0256875D03*
X1529042Y0246250D03*
X1542792Y0261250D03*
X1502792Y0266250D03*
X1502792Y0286250D03*
X1502792Y0296250D03*
X1555292Y0301250D03*
X1572792Y0348125D03*
X1565292Y0366250D03*
X1553417Y0361875D03*
X1542792Y0363750D03*
X1556854Y0393750D03*
X1572792Y0393750D03*
X1515292Y0408750D03*
X1515292Y0461250D03*
X1450292Y0443750D03*
X1422792Y0453750D03*
X1437792Y0469262D03*
X1282792Y0436250D03*
X1527792Y0226250D03*
X1527792Y0206250D03*
X1377792Y0106250D03*
X1367792Y0107500D03*
X1355292Y0106250D03*
X1345292Y0103750D03*
X1320292Y0126250D03*
X1310292Y0126250D03*
X1300292Y0126250D03*
X1290292Y0126250D03*
X1280292Y0126250D03*
X1270292Y0126250D03*
X1270604Y0134688D03*
X1226229Y0125312D03*
X1213729Y0137813D03*
X1202792Y0141250D03*
X1172792Y0136250D03*
X1177792Y0118750D03*
X1172792Y0103750D03*
X1167792Y0091875D03*
X1167792Y0073750D03*
X1172792Y0068750D03*
X1180292Y0073750D03*
X1187792Y0062812D03*
X1204354Y0062812D03*
X1221542Y0051250D03*
X1232479Y0040313D03*
X1266854Y0050625D03*
X1315292Y0051875D03*
X1345604Y0050937D03*
X1365292Y0046250D03*
X1375292Y0044250D03*
X1405792Y0051250D03*
X1405292Y0078750D03*
X1400292Y0088750D03*
X1310292Y0103750D03*
X1300292Y0103750D03*
X1290292Y0103750D03*
X1280292Y0103750D03*
X1242792Y0103750D03*
X1238729Y0090312D03*
D55*
X1310492Y0270850D03*
X1333092Y0267050D03*
X1214192Y0287350D03*
X1183892Y0291950D03*
X0748092Y0262050D03*
X0725492Y0265850D03*
X0629192Y0282350D03*
X0598892Y0286950D03*
X1017992Y0833350D03*
X1040592Y0829550D03*
X0921692Y0849850D03*
X0891392Y0854450D03*
D56*
X0774638Y0900750D03*
X0798601Y1048049D03*
X1024795Y1153526D03*
X1250989Y1048049D03*
X1284638Y0858250D03*
X1233587Y0649459D03*
X1317295Y0591026D03*
X1543489Y0485549D03*
X1577138Y0295750D03*
X1526087Y0086959D03*
X1108504Y0086959D03*
X0941087Y0081959D03*
X0992138Y0290750D03*
X1067138Y0338250D03*
X1091101Y0485549D03*
X0958489Y0480549D03*
X0816004Y0649459D03*
X0732295Y0586026D03*
X0506101Y0480549D03*
X0482138Y0333250D03*
X0523504Y0081959D03*
D57*
X0662792Y0201250D03*
X0661542Y0221250D03*
X0661542Y0241250D03*
X1246542Y0246250D03*
X1246542Y0226250D03*
X1247792Y0206250D03*
X0955292Y0768750D03*
X0954042Y0788750D03*
X0954042Y0808750D03*
M02*
