G75*
%MOIN*%
%OFA0B0*%
%FSLAX25Y25*%
%IPPOS*%
%LPD*%
%AMOC8*
5,1,8,0,0,1.08239X$1,22.5*
%
%ADD10R,0.03150X0.04724*%
%ADD11R,0.01969X0.05906*%
%ADD12R,0.05906X0.01969*%
%ADD13R,0.05512X0.04724*%
%ADD14R,0.04724X0.05512*%
%ADD15R,0.10000X0.05000*%
%ADD16R,0.06102X0.05118*%
%ADD17R,0.26378X0.26378*%
%ADD18R,0.11811X0.06299*%
%ADD19R,0.04724X0.03150*%
%ADD20R,0.06299X0.13780*%
%ADD21R,0.06693X0.07087*%
%ADD22R,0.04800X0.08800*%
%ADD23R,0.14173X0.08661*%
%ADD24C,0.00984*%
%ADD25R,0.02657X0.00984*%
%ADD26R,0.00984X0.02657*%
%ADD27R,0.15000X0.15000*%
%ADD28C,0.01000*%
%ADD29R,0.05906X0.01772*%
%ADD30R,0.07087X0.06299*%
%ADD31R,0.06299X0.07087*%
%ADD32R,0.03819X0.01220*%
%ADD33R,0.12598X0.07087*%
%ADD34R,0.06299X0.11811*%
%ADD35R,0.04724X0.02165*%
%ADD36R,0.11496X0.05984*%
%ADD37R,0.16300X0.03900*%
%ADD38R,0.03900X0.16300*%
%ADD39R,0.11811X0.04921*%
%ADD40R,0.13780X0.06299*%
%ADD41R,0.07087X0.06693*%
%ADD42R,0.08800X0.04800*%
%ADD43R,0.08661X0.14173*%
%ADD44R,0.05118X0.06102*%
D10*
X0200798Y0148750D03*
X0207885Y0148750D03*
X0220798Y0148125D03*
X0227885Y0148125D03*
X0240798Y0148125D03*
X0247885Y0148125D03*
X0260798Y0147500D03*
X0267885Y0147500D03*
X0290173Y0142500D03*
X0290173Y0135625D03*
X0297260Y0135625D03*
X0297260Y0142500D03*
X0305173Y0135625D03*
X0312260Y0135625D03*
X0300385Y0159375D03*
X0293298Y0159375D03*
X0281301Y0117371D03*
X0281301Y0111216D03*
X0281301Y0104904D03*
X0274214Y0104904D03*
X0274214Y0111216D03*
X0274214Y0117371D03*
X0275798Y0086875D03*
X0282885Y0086875D03*
X0287570Y0085810D03*
X0294657Y0085810D03*
X0299548Y0085755D03*
X0306635Y0085755D03*
X0311423Y0086875D03*
X0318510Y0086875D03*
X0318510Y0076875D03*
X0311423Y0076875D03*
X0306676Y0076007D03*
X0299590Y0076007D03*
X0294760Y0077717D03*
X0287673Y0077717D03*
X0282885Y0078750D03*
X0275798Y0078750D03*
X0344899Y0036108D03*
X0351986Y0036108D03*
X0354573Y0245000D03*
X0349160Y0245000D03*
X0342073Y0245000D03*
X0361660Y0245000D03*
X0367073Y0245000D03*
X0374160Y0245000D03*
X0379573Y0245000D03*
X0386660Y0245000D03*
X0342777Y0335438D03*
X0335690Y0335438D03*
X0338525Y0369430D03*
X0345612Y0369430D03*
X0346448Y0398750D03*
X0353535Y0398750D03*
X0406974Y0399479D03*
X0414060Y0399479D03*
X0414785Y0368750D03*
X0407698Y0368750D03*
X0386660Y0493750D03*
X0379573Y0493750D03*
X0374160Y0493750D03*
X0367073Y0493750D03*
X0361660Y0493750D03*
X0354573Y0493750D03*
X0349160Y0493750D03*
X0342073Y0493750D03*
X0342777Y0584188D03*
X0335690Y0584188D03*
X0338525Y0618180D03*
X0345612Y0618180D03*
X0346448Y0647500D03*
X0353535Y0647500D03*
X0406974Y0648229D03*
X0414060Y0648229D03*
X0414785Y0617500D03*
X0407698Y0617500D03*
X0386660Y0742500D03*
X0379573Y0742500D03*
X0374160Y0742500D03*
X0367073Y0742500D03*
X0361660Y0742500D03*
X0354573Y0742500D03*
X0349160Y0742500D03*
X0342073Y0742500D03*
X0269060Y0648229D03*
X0261974Y0648229D03*
X0262698Y0617500D03*
X0269785Y0617500D03*
X0208535Y0647500D03*
X0201448Y0647500D03*
X0200612Y0618180D03*
X0193525Y0618180D03*
X0190690Y0584188D03*
X0197777Y0584188D03*
X0126035Y0617500D03*
X0118948Y0617500D03*
X0118224Y0648229D03*
X0125310Y0648229D03*
X0064785Y0647500D03*
X0057698Y0647500D03*
X0056862Y0618180D03*
X0049775Y0618180D03*
X0046940Y0584188D03*
X0054027Y0584188D03*
X0053323Y0493750D03*
X0060410Y0493750D03*
X0065823Y0493750D03*
X0072910Y0493750D03*
X0078323Y0493750D03*
X0085410Y0493750D03*
X0090823Y0493750D03*
X0097910Y0493750D03*
X0118224Y0399479D03*
X0125310Y0399479D03*
X0126035Y0368750D03*
X0118948Y0368750D03*
X0064785Y0398750D03*
X0057698Y0398750D03*
X0056862Y0369430D03*
X0049775Y0369430D03*
X0046940Y0335438D03*
X0054027Y0335438D03*
X0053323Y0245000D03*
X0060410Y0245000D03*
X0065823Y0245000D03*
X0072910Y0245000D03*
X0078323Y0245000D03*
X0085410Y0245000D03*
X0090823Y0245000D03*
X0097910Y0245000D03*
X0197073Y0245000D03*
X0204160Y0245000D03*
X0209573Y0245000D03*
X0216660Y0245000D03*
X0222073Y0245000D03*
X0229160Y0245000D03*
X0234573Y0245000D03*
X0241660Y0245000D03*
X0197777Y0335438D03*
X0190690Y0335438D03*
X0193525Y0369430D03*
X0200612Y0369430D03*
X0201448Y0398750D03*
X0208535Y0398750D03*
X0261974Y0399479D03*
X0269060Y0399479D03*
X0269785Y0368750D03*
X0262698Y0368750D03*
X0241660Y0493750D03*
X0234573Y0493750D03*
X0229160Y0493750D03*
X0222073Y0493750D03*
X0216660Y0493750D03*
X0209573Y0493750D03*
X0204160Y0493750D03*
X0197073Y0493750D03*
X0197073Y0742500D03*
X0204160Y0742500D03*
X0209573Y0742500D03*
X0216660Y0742500D03*
X0222073Y0742500D03*
X0229160Y0742500D03*
X0234573Y0742500D03*
X0241660Y0742500D03*
X0197777Y0832938D03*
X0190690Y0832938D03*
X0193525Y0866930D03*
X0200612Y0866930D03*
X0201448Y0896250D03*
X0208535Y0896250D03*
X0261974Y0896979D03*
X0269060Y0896979D03*
X0269785Y0866250D03*
X0262698Y0866250D03*
X0338525Y0866930D03*
X0345612Y0866930D03*
X0346448Y0896250D03*
X0353535Y0896250D03*
X0406974Y0896979D03*
X0414060Y0896979D03*
X0414785Y0866250D03*
X0407698Y0866250D03*
X0342777Y0832938D03*
X0335690Y0832938D03*
X0277585Y0971887D03*
X0270498Y0971887D03*
X0270498Y0979075D03*
X0270498Y0985325D03*
X0277585Y0985325D03*
X0277585Y0979075D03*
X0271335Y1027200D03*
X0264248Y1027200D03*
X0264248Y1034700D03*
X0271335Y1034700D03*
X0281748Y1084075D03*
X0281748Y1090325D03*
X0288835Y1090325D03*
X0288835Y1084075D03*
X0387998Y1034700D03*
X0395085Y1034700D03*
X0395085Y1027200D03*
X0387998Y1027200D03*
X0394248Y0985325D03*
X0394248Y0979075D03*
X0401335Y0979075D03*
X0401335Y0985325D03*
X0401335Y0971887D03*
X0394248Y0971887D03*
X0405498Y1084075D03*
X0405498Y1090325D03*
X0412585Y1090325D03*
X0412585Y1084075D03*
X0165085Y1084075D03*
X0165085Y1090325D03*
X0157998Y1090325D03*
X0157998Y1084075D03*
X0147585Y1034700D03*
X0140498Y1034700D03*
X0140498Y1027200D03*
X0147585Y1027200D03*
X0146748Y0985325D03*
X0146748Y0979075D03*
X0153835Y0979075D03*
X0153835Y0985325D03*
X0153835Y0971887D03*
X0146748Y0971887D03*
X0125310Y0896979D03*
X0118224Y0896979D03*
X0118948Y0866250D03*
X0126035Y0866250D03*
X0064785Y0896250D03*
X0057698Y0896250D03*
X0056862Y0866930D03*
X0049775Y0866930D03*
X0046940Y0832938D03*
X0054027Y0832938D03*
X0053323Y0742500D03*
X0060410Y0742500D03*
X0065823Y0742500D03*
X0072910Y0742500D03*
X0078323Y0742500D03*
X0085410Y0742500D03*
X0090823Y0742500D03*
X0097910Y0742500D03*
X0556748Y0211950D03*
X0563835Y0211950D03*
X0558835Y0159450D03*
X0551748Y0159450D03*
X0616748Y0184450D03*
X0623835Y0184450D03*
X0623835Y0194450D03*
X0616748Y0194450D03*
X0614248Y0231950D03*
X0621335Y0231950D03*
X0621335Y0241950D03*
X0614248Y0241950D03*
X0671748Y0234450D03*
X0678835Y0234450D03*
X0789248Y0209450D03*
X0796335Y0209450D03*
X0796335Y0201950D03*
X0789248Y0201950D03*
X0789248Y0194450D03*
X0796335Y0194450D03*
X0796335Y0186950D03*
X0789248Y0186950D03*
X0861748Y0551950D03*
X0868835Y0551950D03*
X0628835Y0653700D03*
X0621748Y0653700D03*
X0811748Y0971200D03*
X0818835Y0971200D03*
X0869248Y0973700D03*
X0876335Y0973700D03*
X0876335Y0963700D03*
X0869248Y0963700D03*
X0866748Y1011200D03*
X0873835Y1011200D03*
X0873835Y1021200D03*
X0866748Y1021200D03*
X0926748Y0993700D03*
X0933835Y0993700D03*
X0931748Y1046200D03*
X0938835Y1046200D03*
X0701335Y1018700D03*
X0694248Y1018700D03*
X0694248Y1011200D03*
X0701335Y1011200D03*
X0701335Y1003700D03*
X0694248Y1003700D03*
X0694248Y0996200D03*
X0701335Y0996200D03*
D11*
X0379790Y1005035D03*
X0376640Y1005035D03*
X0373490Y1005035D03*
X0370341Y1005035D03*
X0367191Y1005035D03*
X0364042Y1005035D03*
X0360892Y1005035D03*
X0357742Y1005035D03*
X0354593Y1005035D03*
X0351443Y1005035D03*
X0348294Y1005035D03*
X0348294Y0959365D03*
X0351443Y0959365D03*
X0354593Y0959365D03*
X0357742Y0959365D03*
X0360892Y0959365D03*
X0364042Y0959365D03*
X0367191Y0959365D03*
X0370341Y0959365D03*
X0373490Y0959365D03*
X0376640Y0959365D03*
X0379790Y0959365D03*
X0256040Y0959365D03*
X0252890Y0959365D03*
X0249740Y0959365D03*
X0246591Y0959365D03*
X0243441Y0959365D03*
X0240292Y0959365D03*
X0237142Y0959365D03*
X0233992Y0959365D03*
X0230843Y0959365D03*
X0227693Y0959365D03*
X0224544Y0959365D03*
X0224544Y1005035D03*
X0227693Y1005035D03*
X0230843Y1005035D03*
X0233992Y1005035D03*
X0237142Y1005035D03*
X0240292Y1005035D03*
X0243441Y1005035D03*
X0246591Y1005035D03*
X0249740Y1005035D03*
X0252890Y1005035D03*
X0256040Y1005035D03*
X0132290Y1005035D03*
X0129140Y1005035D03*
X0125990Y1005035D03*
X0122841Y1005035D03*
X0119691Y1005035D03*
X0116542Y1005035D03*
X0113392Y1005035D03*
X0110242Y1005035D03*
X0107093Y1005035D03*
X0103943Y1005035D03*
X0100794Y1005035D03*
X0100794Y0959365D03*
X0103943Y0959365D03*
X0107093Y0959365D03*
X0110242Y0959365D03*
X0113392Y0959365D03*
X0116542Y0959365D03*
X0119691Y0959365D03*
X0122841Y0959365D03*
X0125990Y0959365D03*
X0129140Y0959365D03*
X0132290Y0959365D03*
X0083240Y0728460D03*
X0080090Y0728460D03*
X0076940Y0728460D03*
X0073791Y0728460D03*
X0070641Y0728460D03*
X0067492Y0728460D03*
X0064342Y0728460D03*
X0061192Y0728460D03*
X0058043Y0728460D03*
X0054893Y0728460D03*
X0051744Y0728460D03*
X0051744Y0682790D03*
X0054893Y0682790D03*
X0058043Y0682790D03*
X0061192Y0682790D03*
X0064342Y0682790D03*
X0067492Y0682790D03*
X0070641Y0682790D03*
X0073791Y0682790D03*
X0076940Y0682790D03*
X0080090Y0682790D03*
X0083240Y0682790D03*
X0195494Y0682790D03*
X0198643Y0682790D03*
X0201793Y0682790D03*
X0204942Y0682790D03*
X0208092Y0682790D03*
X0211242Y0682790D03*
X0214391Y0682790D03*
X0217541Y0682790D03*
X0220690Y0682790D03*
X0223840Y0682790D03*
X0226990Y0682790D03*
X0226990Y0728460D03*
X0223840Y0728460D03*
X0220690Y0728460D03*
X0217541Y0728460D03*
X0214391Y0728460D03*
X0211242Y0728460D03*
X0208092Y0728460D03*
X0204942Y0728460D03*
X0201793Y0728460D03*
X0198643Y0728460D03*
X0195494Y0728460D03*
X0340494Y0728460D03*
X0343643Y0728460D03*
X0346793Y0728460D03*
X0349942Y0728460D03*
X0353092Y0728460D03*
X0356242Y0728460D03*
X0359391Y0728460D03*
X0362541Y0728460D03*
X0365690Y0728460D03*
X0368840Y0728460D03*
X0371990Y0728460D03*
X0371990Y0682790D03*
X0368840Y0682790D03*
X0365690Y0682790D03*
X0362541Y0682790D03*
X0359391Y0682790D03*
X0356242Y0682790D03*
X0353092Y0682790D03*
X0349942Y0682790D03*
X0346793Y0682790D03*
X0343643Y0682790D03*
X0340494Y0682790D03*
X0340494Y0479710D03*
X0343643Y0479710D03*
X0346793Y0479710D03*
X0349942Y0479710D03*
X0353092Y0479710D03*
X0356242Y0479710D03*
X0359391Y0479710D03*
X0362541Y0479710D03*
X0365690Y0479710D03*
X0368840Y0479710D03*
X0371990Y0479710D03*
X0371990Y0434040D03*
X0368840Y0434040D03*
X0365690Y0434040D03*
X0362541Y0434040D03*
X0359391Y0434040D03*
X0356242Y0434040D03*
X0353092Y0434040D03*
X0349942Y0434040D03*
X0346793Y0434040D03*
X0343643Y0434040D03*
X0340494Y0434040D03*
X0226990Y0434040D03*
X0223840Y0434040D03*
X0220690Y0434040D03*
X0217541Y0434040D03*
X0214391Y0434040D03*
X0211242Y0434040D03*
X0208092Y0434040D03*
X0204942Y0434040D03*
X0201793Y0434040D03*
X0198643Y0434040D03*
X0195494Y0434040D03*
X0195494Y0479710D03*
X0198643Y0479710D03*
X0201793Y0479710D03*
X0204942Y0479710D03*
X0208092Y0479710D03*
X0211242Y0479710D03*
X0214391Y0479710D03*
X0217541Y0479710D03*
X0220690Y0479710D03*
X0223840Y0479710D03*
X0226990Y0479710D03*
X0083240Y0479710D03*
X0080090Y0479710D03*
X0076940Y0479710D03*
X0073791Y0479710D03*
X0070641Y0479710D03*
X0067492Y0479710D03*
X0064342Y0479710D03*
X0061192Y0479710D03*
X0058043Y0479710D03*
X0054893Y0479710D03*
X0051744Y0479710D03*
X0051744Y0434040D03*
X0054893Y0434040D03*
X0058043Y0434040D03*
X0061192Y0434040D03*
X0064342Y0434040D03*
X0067492Y0434040D03*
X0070641Y0434040D03*
X0073791Y0434040D03*
X0076940Y0434040D03*
X0080090Y0434040D03*
X0083240Y0434040D03*
X0083240Y0230960D03*
X0080090Y0230960D03*
X0076940Y0230960D03*
X0073791Y0230960D03*
X0070641Y0230960D03*
X0067492Y0230960D03*
X0064342Y0230960D03*
X0061192Y0230960D03*
X0058043Y0230960D03*
X0054893Y0230960D03*
X0051744Y0230960D03*
X0051744Y0185290D03*
X0054893Y0185290D03*
X0058043Y0185290D03*
X0061192Y0185290D03*
X0064342Y0185290D03*
X0067492Y0185290D03*
X0070641Y0185290D03*
X0073791Y0185290D03*
X0076940Y0185290D03*
X0080090Y0185290D03*
X0083240Y0185290D03*
X0195494Y0185290D03*
X0198643Y0185290D03*
X0201793Y0185290D03*
X0204942Y0185290D03*
X0208092Y0185290D03*
X0211242Y0185290D03*
X0214391Y0185290D03*
X0217541Y0185290D03*
X0220690Y0185290D03*
X0223840Y0185290D03*
X0226990Y0185290D03*
X0226990Y0230960D03*
X0223840Y0230960D03*
X0220690Y0230960D03*
X0217541Y0230960D03*
X0214391Y0230960D03*
X0211242Y0230960D03*
X0208092Y0230960D03*
X0204942Y0230960D03*
X0201793Y0230960D03*
X0198643Y0230960D03*
X0195494Y0230960D03*
X0212969Y0129085D03*
X0216118Y0129085D03*
X0219268Y0129085D03*
X0222417Y0129085D03*
X0225567Y0129085D03*
X0228717Y0129085D03*
X0231866Y0129085D03*
X0235016Y0129085D03*
X0238165Y0129085D03*
X0241315Y0129085D03*
X0244465Y0129085D03*
X0244465Y0083415D03*
X0241315Y0083415D03*
X0238165Y0083415D03*
X0235016Y0083415D03*
X0231866Y0083415D03*
X0228717Y0083415D03*
X0225567Y0083415D03*
X0222417Y0083415D03*
X0219268Y0083415D03*
X0216118Y0083415D03*
X0212969Y0083415D03*
X0340494Y0185290D03*
X0343643Y0185290D03*
X0346793Y0185290D03*
X0349942Y0185290D03*
X0353092Y0185290D03*
X0356242Y0185290D03*
X0359391Y0185290D03*
X0362541Y0185290D03*
X0365690Y0185290D03*
X0368840Y0185290D03*
X0371990Y0185290D03*
X0371990Y0230960D03*
X0368840Y0230960D03*
X0365690Y0230960D03*
X0362541Y0230960D03*
X0359391Y0230960D03*
X0356242Y0230960D03*
X0353092Y0230960D03*
X0349942Y0230960D03*
X0346793Y0230960D03*
X0343643Y0230960D03*
X0340494Y0230960D03*
D12*
X0333407Y0223873D03*
X0333407Y0220723D03*
X0333407Y0217574D03*
X0333407Y0214424D03*
X0333407Y0211275D03*
X0333407Y0208125D03*
X0333407Y0204975D03*
X0333407Y0201826D03*
X0333407Y0198676D03*
X0333407Y0195527D03*
X0333407Y0192377D03*
X0379076Y0192377D03*
X0379076Y0195527D03*
X0379076Y0198676D03*
X0379076Y0201826D03*
X0379076Y0204975D03*
X0379076Y0208125D03*
X0379076Y0211275D03*
X0379076Y0214424D03*
X0379076Y0217574D03*
X0379076Y0220723D03*
X0379076Y0223873D03*
X0251551Y0121998D03*
X0251551Y0118848D03*
X0251551Y0115699D03*
X0251551Y0112549D03*
X0251551Y0109400D03*
X0251551Y0106250D03*
X0251551Y0103100D03*
X0251551Y0099951D03*
X0251551Y0096801D03*
X0251551Y0093652D03*
X0251551Y0090502D03*
X0205882Y0090502D03*
X0205882Y0093652D03*
X0205882Y0096801D03*
X0205882Y0099951D03*
X0205882Y0103100D03*
X0205882Y0106250D03*
X0205882Y0109400D03*
X0205882Y0112549D03*
X0205882Y0115699D03*
X0205882Y0118848D03*
X0205882Y0121998D03*
X0188407Y0192377D03*
X0188407Y0195527D03*
X0188407Y0198676D03*
X0188407Y0201826D03*
X0188407Y0204975D03*
X0188407Y0208125D03*
X0188407Y0211275D03*
X0188407Y0214424D03*
X0188407Y0217574D03*
X0188407Y0220723D03*
X0188407Y0223873D03*
X0234076Y0223873D03*
X0234076Y0220723D03*
X0234076Y0217574D03*
X0234076Y0214424D03*
X0234076Y0211275D03*
X0234076Y0208125D03*
X0234076Y0204975D03*
X0234076Y0201826D03*
X0234076Y0198676D03*
X0234076Y0195527D03*
X0234076Y0192377D03*
X0090326Y0192377D03*
X0090326Y0195527D03*
X0090326Y0198676D03*
X0090326Y0201826D03*
X0090326Y0204975D03*
X0090326Y0208125D03*
X0090326Y0211275D03*
X0090326Y0214424D03*
X0090326Y0217574D03*
X0090326Y0220723D03*
X0090326Y0223873D03*
X0044657Y0223873D03*
X0044657Y0220723D03*
X0044657Y0217574D03*
X0044657Y0214424D03*
X0044657Y0211275D03*
X0044657Y0208125D03*
X0044657Y0204975D03*
X0044657Y0201826D03*
X0044657Y0198676D03*
X0044657Y0195527D03*
X0044657Y0192377D03*
X0044657Y0441127D03*
X0044657Y0444277D03*
X0044657Y0447426D03*
X0044657Y0450576D03*
X0044657Y0453725D03*
X0044657Y0456875D03*
X0044657Y0460025D03*
X0044657Y0463174D03*
X0044657Y0466324D03*
X0044657Y0469473D03*
X0044657Y0472623D03*
X0090326Y0472623D03*
X0090326Y0469473D03*
X0090326Y0466324D03*
X0090326Y0463174D03*
X0090326Y0460025D03*
X0090326Y0456875D03*
X0090326Y0453725D03*
X0090326Y0450576D03*
X0090326Y0447426D03*
X0090326Y0444277D03*
X0090326Y0441127D03*
X0188407Y0441127D03*
X0188407Y0444277D03*
X0188407Y0447426D03*
X0188407Y0450576D03*
X0188407Y0453725D03*
X0188407Y0456875D03*
X0188407Y0460025D03*
X0188407Y0463174D03*
X0188407Y0466324D03*
X0188407Y0469473D03*
X0188407Y0472623D03*
X0234076Y0472623D03*
X0234076Y0469473D03*
X0234076Y0466324D03*
X0234076Y0463174D03*
X0234076Y0460025D03*
X0234076Y0456875D03*
X0234076Y0453725D03*
X0234076Y0450576D03*
X0234076Y0447426D03*
X0234076Y0444277D03*
X0234076Y0441127D03*
X0333407Y0441127D03*
X0333407Y0444277D03*
X0333407Y0447426D03*
X0333407Y0450576D03*
X0333407Y0453725D03*
X0333407Y0456875D03*
X0333407Y0460025D03*
X0333407Y0463174D03*
X0333407Y0466324D03*
X0333407Y0469473D03*
X0333407Y0472623D03*
X0379076Y0472623D03*
X0379076Y0469473D03*
X0379076Y0466324D03*
X0379076Y0463174D03*
X0379076Y0460025D03*
X0379076Y0456875D03*
X0379076Y0453725D03*
X0379076Y0450576D03*
X0379076Y0447426D03*
X0379076Y0444277D03*
X0379076Y0441127D03*
X0379076Y0689877D03*
X0379076Y0693027D03*
X0379076Y0696176D03*
X0379076Y0699326D03*
X0379076Y0702475D03*
X0379076Y0705625D03*
X0379076Y0708775D03*
X0379076Y0711924D03*
X0379076Y0715074D03*
X0379076Y0718223D03*
X0379076Y0721373D03*
X0333407Y0721373D03*
X0333407Y0718223D03*
X0333407Y0715074D03*
X0333407Y0711924D03*
X0333407Y0708775D03*
X0333407Y0705625D03*
X0333407Y0702475D03*
X0333407Y0699326D03*
X0333407Y0696176D03*
X0333407Y0693027D03*
X0333407Y0689877D03*
X0234076Y0689877D03*
X0234076Y0693027D03*
X0234076Y0696176D03*
X0234076Y0699326D03*
X0234076Y0702475D03*
X0234076Y0705625D03*
X0234076Y0708775D03*
X0234076Y0711924D03*
X0234076Y0715074D03*
X0234076Y0718223D03*
X0234076Y0721373D03*
X0188407Y0721373D03*
X0188407Y0718223D03*
X0188407Y0715074D03*
X0188407Y0711924D03*
X0188407Y0708775D03*
X0188407Y0705625D03*
X0188407Y0702475D03*
X0188407Y0699326D03*
X0188407Y0696176D03*
X0188407Y0693027D03*
X0188407Y0689877D03*
X0090326Y0689877D03*
X0090326Y0693027D03*
X0090326Y0696176D03*
X0090326Y0699326D03*
X0090326Y0702475D03*
X0090326Y0705625D03*
X0090326Y0708775D03*
X0090326Y0711924D03*
X0090326Y0715074D03*
X0090326Y0718223D03*
X0090326Y0721373D03*
X0044657Y0721373D03*
X0044657Y0718223D03*
X0044657Y0715074D03*
X0044657Y0711924D03*
X0044657Y0708775D03*
X0044657Y0705625D03*
X0044657Y0702475D03*
X0044657Y0699326D03*
X0044657Y0696176D03*
X0044657Y0693027D03*
X0044657Y0689877D03*
X0093707Y0966452D03*
X0093707Y0969602D03*
X0093707Y0972751D03*
X0093707Y0975901D03*
X0093707Y0979050D03*
X0093707Y0982200D03*
X0093707Y0985350D03*
X0093707Y0988499D03*
X0093707Y0991649D03*
X0093707Y0994798D03*
X0093707Y0997948D03*
X0139376Y0997948D03*
X0139376Y0994798D03*
X0139376Y0991649D03*
X0139376Y0988499D03*
X0139376Y0985350D03*
X0139376Y0982200D03*
X0139376Y0979050D03*
X0139376Y0975901D03*
X0139376Y0972751D03*
X0139376Y0969602D03*
X0139376Y0966452D03*
X0217457Y0966452D03*
X0217457Y0969602D03*
X0217457Y0972751D03*
X0217457Y0975901D03*
X0217457Y0979050D03*
X0217457Y0982200D03*
X0217457Y0985350D03*
X0217457Y0988499D03*
X0217457Y0991649D03*
X0217457Y0994798D03*
X0217457Y0997948D03*
X0263126Y0997948D03*
X0263126Y0994798D03*
X0263126Y0991649D03*
X0263126Y0988499D03*
X0263126Y0985350D03*
X0263126Y0982200D03*
X0263126Y0979050D03*
X0263126Y0975901D03*
X0263126Y0972751D03*
X0263126Y0969602D03*
X0263126Y0966452D03*
X0341207Y0966452D03*
X0341207Y0969602D03*
X0341207Y0972751D03*
X0341207Y0975901D03*
X0341207Y0979050D03*
X0341207Y0982200D03*
X0341207Y0985350D03*
X0341207Y0988499D03*
X0341207Y0991649D03*
X0341207Y0994798D03*
X0341207Y0997948D03*
X0386876Y0997948D03*
X0386876Y0994798D03*
X0386876Y0991649D03*
X0386876Y0988499D03*
X0386876Y0985350D03*
X0386876Y0982200D03*
X0386876Y0979050D03*
X0386876Y0975901D03*
X0386876Y0972751D03*
X0386876Y0969602D03*
X0386876Y0966452D03*
D13*
X0329042Y0961294D03*
X0329042Y0973106D03*
X0329042Y0983794D03*
X0329042Y0995606D03*
X0205292Y0995606D03*
X0205292Y0983794D03*
X0205292Y0973106D03*
X0205292Y0961294D03*
X0081542Y0961294D03*
X0081542Y0973106D03*
X0081542Y0983794D03*
X0081542Y0995606D03*
X0017492Y0757156D03*
X0017492Y0745344D03*
X0017492Y0737156D03*
X0017492Y0725344D03*
X0017492Y0717156D03*
X0017492Y0705344D03*
X0017492Y0696531D03*
X0017492Y0684719D03*
X0161242Y0684719D03*
X0161242Y0696531D03*
X0161242Y0705344D03*
X0161242Y0717156D03*
X0161242Y0725344D03*
X0161242Y0737156D03*
X0161242Y0745344D03*
X0161242Y0757156D03*
X0306242Y0757156D03*
X0306242Y0745344D03*
X0306242Y0737156D03*
X0306242Y0725344D03*
X0306242Y0717156D03*
X0306242Y0705344D03*
X0306242Y0696531D03*
X0306242Y0684719D03*
X0306242Y0508406D03*
X0306242Y0496594D03*
X0306242Y0488406D03*
X0306242Y0476594D03*
X0306242Y0468406D03*
X0306242Y0456594D03*
X0306242Y0447781D03*
X0306242Y0435969D03*
X0161242Y0435969D03*
X0161242Y0447781D03*
X0161242Y0456594D03*
X0161242Y0468406D03*
X0161242Y0476594D03*
X0161242Y0488406D03*
X0161242Y0496594D03*
X0161242Y0508406D03*
X0017492Y0508406D03*
X0017492Y0496594D03*
X0017492Y0488406D03*
X0017492Y0476594D03*
X0017492Y0468406D03*
X0017492Y0456594D03*
X0017492Y0447781D03*
X0017492Y0435969D03*
X0017492Y0259656D03*
X0017492Y0247844D03*
X0017492Y0239656D03*
X0017492Y0227844D03*
X0017492Y0219656D03*
X0017492Y0207844D03*
X0017492Y0199031D03*
X0017492Y0187219D03*
X0161242Y0187219D03*
X0161242Y0199031D03*
X0161242Y0207844D03*
X0161242Y0219656D03*
X0161242Y0227844D03*
X0161242Y0239656D03*
X0161242Y0247844D03*
X0161242Y0259656D03*
X0306242Y0259656D03*
X0306242Y0247844D03*
X0306242Y0239656D03*
X0306242Y0227844D03*
X0306242Y0219656D03*
X0306242Y0207844D03*
X0306242Y0199031D03*
X0306242Y0187219D03*
X0827792Y0220732D03*
X0837792Y0221044D03*
X0837792Y0232856D03*
X0827792Y0232543D03*
X0662792Y0973107D03*
X0652792Y0972794D03*
X0652792Y0984606D03*
X0662792Y0984918D03*
D14*
X0598697Y0951200D03*
X0586886Y0951200D03*
X0414947Y1027200D03*
X0414947Y1034700D03*
X0403136Y1034700D03*
X0403136Y1027200D03*
X0291197Y1027200D03*
X0291197Y1034700D03*
X0279386Y1034700D03*
X0279386Y1027200D03*
X0167447Y1027200D03*
X0167447Y1034700D03*
X0155636Y1034700D03*
X0155636Y1027200D03*
X0799386Y1006200D03*
X0811197Y1006200D03*
X0844386Y1011200D03*
X0844386Y1021200D03*
X0856197Y1021200D03*
X0856197Y1011200D03*
X0858697Y0973700D03*
X0858697Y0963700D03*
X0846886Y0963700D03*
X0846886Y0973700D03*
X0891886Y0254450D03*
X0903697Y0254450D03*
X0691197Y0199450D03*
X0679386Y0199450D03*
X0646197Y0194450D03*
X0646197Y0184450D03*
X0634386Y0184450D03*
X0634386Y0194450D03*
X0631886Y0231950D03*
X0631886Y0241950D03*
X0643697Y0241950D03*
X0643697Y0231950D03*
X0280247Y0156250D03*
X0268436Y0156250D03*
X0260247Y0156250D03*
X0248436Y0156250D03*
X0240247Y0156250D03*
X0228436Y0156250D03*
X0219622Y0156250D03*
X0207811Y0156250D03*
D15*
X0202792Y1019700D03*
X0202792Y1029700D03*
X0202792Y1039700D03*
X0202792Y1049700D03*
X0237792Y1049700D03*
X0237792Y1039700D03*
X0237792Y1029700D03*
X0237792Y1019700D03*
X0326542Y1019700D03*
X0326542Y1029700D03*
X0326542Y1039700D03*
X0326542Y1049700D03*
X0361542Y1049700D03*
X0361542Y1039700D03*
X0361542Y1029700D03*
X0361542Y1019700D03*
X0114042Y1019700D03*
X0114042Y1029700D03*
X0114042Y1039700D03*
X0114042Y1049700D03*
X0079042Y1049700D03*
X0079042Y1039700D03*
X0079042Y1029700D03*
X0079042Y1019700D03*
D16*
X0077216Y0948058D03*
X0077216Y0930342D03*
X0114617Y0930342D03*
X0122935Y0930342D03*
X0122935Y0948058D03*
X0114617Y0948058D03*
X0160337Y0948058D03*
X0160337Y0930342D03*
X0200966Y0930342D03*
X0200966Y0948058D03*
X0238367Y0948058D03*
X0246685Y0948058D03*
X0246685Y0930342D03*
X0238367Y0930342D03*
X0284087Y0930342D03*
X0284087Y0948058D03*
X0324716Y0948058D03*
X0324716Y0930342D03*
X0362117Y0930342D03*
X0370435Y0930342D03*
X0370435Y0948058D03*
X0362117Y0948058D03*
X0407837Y0948058D03*
X0407837Y0930342D03*
X0424687Y0695340D03*
X0424687Y0677623D03*
X0387285Y0677623D03*
X0387285Y0695340D03*
X0279687Y0695340D03*
X0279687Y0677623D03*
X0242285Y0677623D03*
X0242285Y0695340D03*
X0135937Y0695340D03*
X0135937Y0677623D03*
X0098535Y0677623D03*
X0098535Y0695340D03*
X0098535Y0446590D03*
X0098535Y0428873D03*
X0135937Y0428873D03*
X0135937Y0446590D03*
X0242285Y0446590D03*
X0242285Y0428873D03*
X0279687Y0428873D03*
X0279687Y0446590D03*
X0387285Y0446590D03*
X0387285Y0428873D03*
X0424687Y0428873D03*
X0424687Y0446590D03*
X0424687Y0197840D03*
X0424687Y0180123D03*
X0387285Y0180123D03*
X0387285Y0197840D03*
X0279687Y0197840D03*
X0279687Y0180123D03*
X0242285Y0180123D03*
X0242285Y0197840D03*
X0135937Y0197840D03*
X0135937Y0180123D03*
X0098535Y0180123D03*
X0098535Y0197840D03*
D17*
X0096867Y0338750D03*
X0096867Y0369375D03*
X0096867Y0401250D03*
X0028117Y0400625D03*
X0028117Y0369375D03*
X0028117Y0337500D03*
X0171867Y0337500D03*
X0171867Y0369375D03*
X0171867Y0400625D03*
X0240617Y0401250D03*
X0240617Y0369375D03*
X0240617Y0338750D03*
X0316867Y0337500D03*
X0316867Y0369375D03*
X0316867Y0400625D03*
X0385617Y0401250D03*
X0385617Y0369375D03*
X0385617Y0338750D03*
X0389967Y0145625D03*
X0421217Y0145625D03*
X0358092Y0145625D03*
X0359342Y0076875D03*
X0389967Y0076875D03*
X0421842Y0076875D03*
X0747792Y0201950D03*
X0385617Y0587500D03*
X0385617Y0618125D03*
X0385617Y0650000D03*
X0316867Y0649375D03*
X0316867Y0618125D03*
X0316867Y0586250D03*
X0240617Y0587500D03*
X0240617Y0618125D03*
X0240617Y0650000D03*
X0171867Y0649375D03*
X0171867Y0618125D03*
X0171867Y0586250D03*
X0096867Y0587500D03*
X0096867Y0618125D03*
X0096867Y0650000D03*
X0028117Y0649375D03*
X0028117Y0618125D03*
X0028117Y0586250D03*
X0028117Y0835000D03*
X0028117Y0866875D03*
X0028117Y0898125D03*
X0096867Y0898750D03*
X0096867Y0866875D03*
X0096867Y0836250D03*
X0171867Y0835000D03*
X0171867Y0866875D03*
X0171867Y0898125D03*
X0240617Y0898750D03*
X0240617Y0866875D03*
X0240617Y0836250D03*
X0316867Y0835000D03*
X0316867Y0866875D03*
X0316867Y0898125D03*
X0385617Y0898750D03*
X0385617Y0866875D03*
X0385617Y0836250D03*
X0742792Y1003700D03*
D18*
X0408254Y0907805D03*
X0408254Y0889695D03*
X0408254Y0875930D03*
X0408254Y0857820D03*
X0408254Y0845305D03*
X0408254Y0827195D03*
X0339504Y0825945D03*
X0339504Y0844055D03*
X0339504Y0857820D03*
X0339504Y0875930D03*
X0339504Y0889070D03*
X0339504Y0907180D03*
X0263254Y0907805D03*
X0263254Y0889695D03*
X0263254Y0875930D03*
X0263254Y0857820D03*
X0263254Y0845305D03*
X0263254Y0827195D03*
X0194504Y0825945D03*
X0194504Y0844055D03*
X0194504Y0857820D03*
X0194504Y0875930D03*
X0194504Y0889070D03*
X0194504Y0907180D03*
X0119504Y0907805D03*
X0119504Y0889695D03*
X0119504Y0875930D03*
X0119504Y0857820D03*
X0119504Y0845305D03*
X0119504Y0827195D03*
X0050754Y0825945D03*
X0050754Y0844055D03*
X0050754Y0857820D03*
X0050754Y0875930D03*
X0050754Y0889070D03*
X0050754Y0907180D03*
X0050754Y0658430D03*
X0050754Y0640320D03*
X0050754Y0627180D03*
X0050754Y0609070D03*
X0050754Y0595305D03*
X0050754Y0577195D03*
X0119504Y0578445D03*
X0119504Y0596555D03*
X0119504Y0609070D03*
X0119504Y0627180D03*
X0119504Y0640945D03*
X0119504Y0659055D03*
X0194504Y0658430D03*
X0194504Y0640320D03*
X0194504Y0627180D03*
X0194504Y0609070D03*
X0194504Y0595305D03*
X0194504Y0577195D03*
X0263254Y0578445D03*
X0263254Y0596555D03*
X0263254Y0609070D03*
X0263254Y0627180D03*
X0263254Y0640945D03*
X0263254Y0659055D03*
X0339504Y0658430D03*
X0339504Y0640320D03*
X0339504Y0627180D03*
X0339504Y0609070D03*
X0339504Y0595305D03*
X0339504Y0577195D03*
X0408254Y0578445D03*
X0408254Y0596555D03*
X0408254Y0609070D03*
X0408254Y0627180D03*
X0408254Y0640945D03*
X0408254Y0659055D03*
X0408254Y0410305D03*
X0408254Y0392195D03*
X0408254Y0378430D03*
X0408254Y0360320D03*
X0408254Y0347805D03*
X0408254Y0329695D03*
X0339504Y0328445D03*
X0339504Y0346555D03*
X0339504Y0360320D03*
X0339504Y0378430D03*
X0339504Y0391570D03*
X0339504Y0409680D03*
X0263254Y0410305D03*
X0263254Y0392195D03*
X0263254Y0378430D03*
X0263254Y0360320D03*
X0263254Y0347805D03*
X0263254Y0329695D03*
X0194504Y0328445D03*
X0194504Y0346555D03*
X0194504Y0360320D03*
X0194504Y0378430D03*
X0194504Y0391570D03*
X0194504Y0409680D03*
X0119504Y0410305D03*
X0119504Y0392195D03*
X0119504Y0378430D03*
X0119504Y0360320D03*
X0119504Y0347805D03*
X0119504Y0329695D03*
X0050754Y0328445D03*
X0050754Y0346555D03*
X0050754Y0360320D03*
X0050754Y0378430D03*
X0050754Y0391570D03*
X0050754Y0409680D03*
D19*
X0024992Y0180207D03*
X0024992Y0187293D03*
X0025617Y0200207D03*
X0025617Y0207293D03*
X0025617Y0220207D03*
X0025617Y0227293D03*
X0026242Y0240207D03*
X0026242Y0247293D03*
X0031242Y0269582D03*
X0038117Y0269582D03*
X0038117Y0276668D03*
X0031242Y0276668D03*
X0038117Y0284582D03*
X0038117Y0291668D03*
X0014367Y0279793D03*
X0014367Y0272707D03*
X0056371Y0260709D03*
X0062526Y0260709D03*
X0068837Y0260709D03*
X0068837Y0253622D03*
X0062526Y0253622D03*
X0056371Y0253622D03*
X0086867Y0255207D03*
X0086867Y0262293D03*
X0087932Y0266978D03*
X0087932Y0274065D03*
X0087987Y0278957D03*
X0087987Y0286043D03*
X0086867Y0290832D03*
X0086867Y0297918D03*
X0096867Y0297918D03*
X0096867Y0290832D03*
X0097735Y0286085D03*
X0097735Y0278998D03*
X0096025Y0274168D03*
X0096025Y0267082D03*
X0094992Y0262293D03*
X0094992Y0255207D03*
X0158117Y0272707D03*
X0158117Y0279793D03*
X0174992Y0276668D03*
X0181867Y0276668D03*
X0181867Y0269582D03*
X0174992Y0269582D03*
X0181867Y0284582D03*
X0181867Y0291668D03*
X0200121Y0260709D03*
X0206276Y0260709D03*
X0212587Y0260709D03*
X0212587Y0253622D03*
X0206276Y0253622D03*
X0200121Y0253622D03*
X0230617Y0255207D03*
X0230617Y0262293D03*
X0231682Y0266978D03*
X0231682Y0274065D03*
X0231737Y0278957D03*
X0231737Y0286043D03*
X0230617Y0290832D03*
X0230617Y0297918D03*
X0240617Y0297918D03*
X0240617Y0290832D03*
X0241485Y0286085D03*
X0241485Y0278998D03*
X0239775Y0274168D03*
X0239775Y0267082D03*
X0238742Y0262293D03*
X0238742Y0255207D03*
X0169992Y0247293D03*
X0169992Y0240207D03*
X0169367Y0227293D03*
X0169367Y0220207D03*
X0169367Y0207293D03*
X0169367Y0200207D03*
X0168742Y0187293D03*
X0168742Y0180207D03*
X0265592Y0120418D03*
X0265592Y0113332D03*
X0265592Y0107918D03*
X0265592Y0100832D03*
X0265592Y0095418D03*
X0265592Y0088332D03*
X0265592Y0082918D03*
X0265592Y0075832D03*
X0356030Y0119715D03*
X0356030Y0126802D03*
X0390022Y0123967D03*
X0390022Y0116880D03*
X0419342Y0116043D03*
X0419342Y0108957D03*
X0420071Y0055518D03*
X0420071Y0048431D03*
X0389342Y0047707D03*
X0389342Y0054793D03*
X0313742Y0180207D03*
X0313742Y0187293D03*
X0314367Y0200207D03*
X0314367Y0207293D03*
X0314367Y0220207D03*
X0314367Y0227293D03*
X0314992Y0240207D03*
X0314992Y0247293D03*
X0319992Y0269582D03*
X0326867Y0269582D03*
X0326867Y0276668D03*
X0319992Y0276668D03*
X0326867Y0284582D03*
X0326867Y0291668D03*
X0303117Y0279793D03*
X0303117Y0272707D03*
X0345121Y0260709D03*
X0351276Y0260709D03*
X0357587Y0260709D03*
X0357587Y0253622D03*
X0351276Y0253622D03*
X0345121Y0253622D03*
X0375617Y0255207D03*
X0375617Y0262293D03*
X0376682Y0266978D03*
X0376682Y0274065D03*
X0376737Y0278957D03*
X0376737Y0286043D03*
X0375617Y0290832D03*
X0375617Y0297918D03*
X0385617Y0297918D03*
X0385617Y0290832D03*
X0386485Y0286085D03*
X0386485Y0278998D03*
X0384775Y0274168D03*
X0384775Y0267082D03*
X0383742Y0262293D03*
X0383742Y0255207D03*
X0426384Y0324308D03*
X0426384Y0331394D03*
X0313742Y0428957D03*
X0313742Y0436043D03*
X0314367Y0448957D03*
X0314367Y0456043D03*
X0314367Y0468957D03*
X0314367Y0476043D03*
X0314992Y0488957D03*
X0314992Y0496043D03*
X0319992Y0518332D03*
X0326867Y0518332D03*
X0326867Y0525418D03*
X0319992Y0525418D03*
X0326867Y0533332D03*
X0326867Y0540418D03*
X0303117Y0528543D03*
X0303117Y0521457D03*
X0345121Y0509459D03*
X0351276Y0509459D03*
X0357587Y0509459D03*
X0357587Y0502372D03*
X0351276Y0502372D03*
X0345121Y0502372D03*
X0375617Y0503957D03*
X0375617Y0511043D03*
X0376682Y0515728D03*
X0376682Y0522815D03*
X0376737Y0527707D03*
X0376737Y0534793D03*
X0375617Y0539582D03*
X0375617Y0546668D03*
X0385617Y0546668D03*
X0385617Y0539582D03*
X0386485Y0534835D03*
X0386485Y0527748D03*
X0384775Y0522918D03*
X0384775Y0515832D03*
X0383742Y0511043D03*
X0383742Y0503957D03*
X0426384Y0573058D03*
X0426384Y0580144D03*
X0313742Y0677707D03*
X0313742Y0684793D03*
X0314367Y0697707D03*
X0314367Y0704793D03*
X0314367Y0717707D03*
X0314367Y0724793D03*
X0314992Y0737707D03*
X0314992Y0744793D03*
X0319992Y0767082D03*
X0326867Y0767082D03*
X0326867Y0774168D03*
X0319992Y0774168D03*
X0326867Y0782082D03*
X0326867Y0789168D03*
X0303117Y0777293D03*
X0303117Y0770207D03*
X0345121Y0758209D03*
X0351276Y0758209D03*
X0357587Y0758209D03*
X0357587Y0751122D03*
X0351276Y0751122D03*
X0345121Y0751122D03*
X0375617Y0752707D03*
X0375617Y0759793D03*
X0376682Y0764478D03*
X0376682Y0771565D03*
X0376737Y0776457D03*
X0376737Y0783543D03*
X0375617Y0788332D03*
X0375617Y0795418D03*
X0385617Y0795418D03*
X0385617Y0788332D03*
X0386485Y0783585D03*
X0386485Y0776498D03*
X0384775Y0771668D03*
X0384775Y0764582D03*
X0383742Y0759793D03*
X0383742Y0752707D03*
X0426384Y0821808D03*
X0426384Y0828894D03*
X0281384Y0828894D03*
X0281384Y0821808D03*
X0240617Y0795418D03*
X0240617Y0788332D03*
X0241485Y0783585D03*
X0241485Y0776498D03*
X0239775Y0771668D03*
X0239775Y0764582D03*
X0238742Y0759793D03*
X0238742Y0752707D03*
X0230617Y0752707D03*
X0230617Y0759793D03*
X0231682Y0764478D03*
X0231682Y0771565D03*
X0231737Y0776457D03*
X0231737Y0783543D03*
X0230617Y0788332D03*
X0230617Y0795418D03*
X0212587Y0758209D03*
X0206276Y0758209D03*
X0200121Y0758209D03*
X0200121Y0751122D03*
X0206276Y0751122D03*
X0212587Y0751122D03*
X0181867Y0767082D03*
X0174992Y0767082D03*
X0174992Y0774168D03*
X0181867Y0774168D03*
X0181867Y0782082D03*
X0181867Y0789168D03*
X0158117Y0777293D03*
X0158117Y0770207D03*
X0169992Y0744793D03*
X0169992Y0737707D03*
X0169367Y0724793D03*
X0169367Y0717707D03*
X0169367Y0704793D03*
X0169367Y0697707D03*
X0168742Y0684793D03*
X0168742Y0677707D03*
X0094992Y0752707D03*
X0094992Y0759793D03*
X0096025Y0764582D03*
X0096025Y0771668D03*
X0097735Y0776498D03*
X0097735Y0783585D03*
X0096867Y0788332D03*
X0096867Y0795418D03*
X0086867Y0795418D03*
X0086867Y0788332D03*
X0087987Y0783543D03*
X0087987Y0776457D03*
X0087932Y0771565D03*
X0087932Y0764478D03*
X0086867Y0759793D03*
X0086867Y0752707D03*
X0068837Y0751122D03*
X0062526Y0751122D03*
X0056371Y0751122D03*
X0056371Y0758209D03*
X0062526Y0758209D03*
X0068837Y0758209D03*
X0038117Y0767082D03*
X0031242Y0767082D03*
X0031242Y0774168D03*
X0038117Y0774168D03*
X0038117Y0782082D03*
X0038117Y0789168D03*
X0014367Y0777293D03*
X0014367Y0770207D03*
X0026242Y0744793D03*
X0026242Y0737707D03*
X0025617Y0724793D03*
X0025617Y0717707D03*
X0025617Y0704793D03*
X0025617Y0697707D03*
X0024992Y0684793D03*
X0024992Y0677707D03*
X0038117Y0540418D03*
X0038117Y0533332D03*
X0038117Y0525418D03*
X0031242Y0525418D03*
X0031242Y0518332D03*
X0038117Y0518332D03*
X0056371Y0509459D03*
X0062526Y0509459D03*
X0068837Y0509459D03*
X0068837Y0502372D03*
X0062526Y0502372D03*
X0056371Y0502372D03*
X0086867Y0503957D03*
X0086867Y0511043D03*
X0087932Y0515728D03*
X0087932Y0522815D03*
X0087987Y0527707D03*
X0087987Y0534793D03*
X0086867Y0539582D03*
X0086867Y0546668D03*
X0096867Y0546668D03*
X0096867Y0539582D03*
X0097735Y0534835D03*
X0097735Y0527748D03*
X0096025Y0522918D03*
X0096025Y0515832D03*
X0094992Y0511043D03*
X0094992Y0503957D03*
X0137634Y0573058D03*
X0137634Y0580144D03*
X0158117Y0528543D03*
X0158117Y0521457D03*
X0174992Y0518332D03*
X0181867Y0518332D03*
X0181867Y0525418D03*
X0174992Y0525418D03*
X0181867Y0533332D03*
X0181867Y0540418D03*
X0200121Y0509459D03*
X0206276Y0509459D03*
X0212587Y0509459D03*
X0212587Y0502372D03*
X0206276Y0502372D03*
X0200121Y0502372D03*
X0230617Y0503957D03*
X0230617Y0511043D03*
X0231682Y0515728D03*
X0231682Y0522815D03*
X0231737Y0527707D03*
X0231737Y0534793D03*
X0230617Y0539582D03*
X0230617Y0546668D03*
X0240617Y0546668D03*
X0240617Y0539582D03*
X0241485Y0534835D03*
X0241485Y0527748D03*
X0239775Y0522918D03*
X0239775Y0515832D03*
X0238742Y0511043D03*
X0238742Y0503957D03*
X0281384Y0573058D03*
X0281384Y0580144D03*
X0169992Y0496043D03*
X0169992Y0488957D03*
X0169367Y0476043D03*
X0169367Y0468957D03*
X0169367Y0456043D03*
X0169367Y0448957D03*
X0168742Y0436043D03*
X0168742Y0428957D03*
X0137634Y0331394D03*
X0137634Y0324308D03*
X0024992Y0428957D03*
X0024992Y0436043D03*
X0025617Y0448957D03*
X0025617Y0456043D03*
X0025617Y0468957D03*
X0025617Y0476043D03*
X0026242Y0488957D03*
X0026242Y0496043D03*
X0014367Y0521457D03*
X0014367Y0528543D03*
X0137634Y0821808D03*
X0137634Y0828894D03*
X0281384Y0331394D03*
X0281384Y0324308D03*
X0677792Y0190493D03*
X0677792Y0183407D03*
X0825292Y0183407D03*
X0825292Y0190493D03*
X0837792Y0188407D03*
X0837792Y0182993D03*
X0837792Y0175907D03*
X0837792Y0195493D03*
X0812792Y1015157D03*
X0812792Y1022243D03*
X0665292Y1022243D03*
X0665292Y1015157D03*
X0652792Y1017243D03*
X0652792Y1022657D03*
X0652792Y1029743D03*
X0652792Y1010157D03*
D20*
X0415360Y0812400D03*
X0415360Y0791141D03*
X0415428Y0776564D03*
X0415428Y0755304D03*
X0270428Y0755304D03*
X0270428Y0776564D03*
X0270360Y0791141D03*
X0270360Y0812400D03*
X0126610Y0812400D03*
X0126610Y0791141D03*
X0126678Y0776564D03*
X0126678Y0755304D03*
X0126610Y0563650D03*
X0126610Y0542391D03*
X0126678Y0527814D03*
X0126678Y0506554D03*
X0270428Y0506554D03*
X0270428Y0527814D03*
X0270360Y0542391D03*
X0270360Y0563650D03*
X0415360Y0563650D03*
X0415360Y0542391D03*
X0415428Y0527814D03*
X0415428Y0506554D03*
X0415360Y0314900D03*
X0415360Y0293641D03*
X0415428Y0279064D03*
X0415428Y0257804D03*
X0270428Y0257804D03*
X0270428Y0279064D03*
X0270360Y0293641D03*
X0270360Y0314900D03*
X0126610Y0314900D03*
X0126610Y0293641D03*
X0126678Y0279064D03*
X0126678Y0257804D03*
D21*
X0108008Y0295896D03*
X0108008Y0312037D03*
X0251758Y0312037D03*
X0251758Y0295896D03*
X0396758Y0295896D03*
X0396758Y0312037D03*
X0396758Y0544646D03*
X0396758Y0560787D03*
X0251758Y0560787D03*
X0251758Y0544646D03*
X0108008Y0544646D03*
X0108008Y0560787D03*
X0108008Y0793396D03*
X0108008Y0809537D03*
X0251758Y0809537D03*
X0251758Y0793396D03*
X0396758Y0793396D03*
X0396758Y0809537D03*
X0545292Y1065629D03*
X0545292Y1081771D03*
X0945292Y0140021D03*
X0945292Y0123879D03*
D22*
X0319717Y0289050D03*
X0310617Y0289050D03*
X0301517Y0289050D03*
X0174717Y0289050D03*
X0165617Y0289050D03*
X0156517Y0289050D03*
X0030967Y0289050D03*
X0021867Y0289050D03*
X0012767Y0289050D03*
X0012767Y0537800D03*
X0021867Y0537800D03*
X0030967Y0537800D03*
X0156517Y0537800D03*
X0165617Y0537800D03*
X0174717Y0537800D03*
X0301517Y0537800D03*
X0310617Y0537800D03*
X0319717Y0537800D03*
X0319717Y0786550D03*
X0310617Y0786550D03*
X0301517Y0786550D03*
X0174717Y0786550D03*
X0165617Y0786550D03*
X0156517Y0786550D03*
X0030967Y0786550D03*
X0021867Y0786550D03*
X0012767Y0786550D03*
D23*
X0021867Y0810951D03*
X0165617Y0810951D03*
X0310617Y0810951D03*
X0310617Y0562201D03*
X0165617Y0562201D03*
X0021867Y0562201D03*
X0021867Y0313451D03*
X0165617Y0313451D03*
X0310617Y0313451D03*
D24*
X0340612Y0289483D03*
X0340612Y0287515D03*
X0340612Y0285546D03*
X0340612Y0283578D03*
X0340612Y0281609D03*
X0340612Y0279641D03*
X0340612Y0277672D03*
X0340612Y0275704D03*
X0340612Y0273735D03*
X0340612Y0271767D03*
X0342383Y0269995D03*
X0344352Y0269995D03*
X0346320Y0269995D03*
X0348289Y0269995D03*
X0350257Y0269995D03*
X0352226Y0269995D03*
X0354194Y0269995D03*
X0356163Y0269995D03*
X0358131Y0269995D03*
X0360100Y0269995D03*
X0361872Y0271767D03*
X0361872Y0273735D03*
X0361872Y0275704D03*
X0361872Y0277672D03*
X0361872Y0279641D03*
X0361872Y0281609D03*
X0361872Y0283578D03*
X0361872Y0285546D03*
X0361872Y0287515D03*
X0361872Y0289483D03*
X0360100Y0291255D03*
X0358131Y0291255D03*
X0356163Y0291255D03*
X0354194Y0291255D03*
X0352226Y0291255D03*
X0350257Y0291255D03*
X0348289Y0291255D03*
X0346320Y0291255D03*
X0344352Y0291255D03*
X0342383Y0291255D03*
X0216872Y0289483D03*
X0216872Y0287515D03*
X0216872Y0285546D03*
X0216872Y0283578D03*
X0216872Y0281609D03*
X0216872Y0279641D03*
X0216872Y0277672D03*
X0216872Y0275704D03*
X0216872Y0273735D03*
X0216872Y0271767D03*
X0215100Y0269995D03*
X0213131Y0269995D03*
X0211163Y0269995D03*
X0209194Y0269995D03*
X0207226Y0269995D03*
X0205257Y0269995D03*
X0203289Y0269995D03*
X0201320Y0269995D03*
X0199352Y0269995D03*
X0197383Y0269995D03*
X0195612Y0271767D03*
X0195612Y0273735D03*
X0195612Y0275704D03*
X0195612Y0277672D03*
X0195612Y0279641D03*
X0195612Y0281609D03*
X0195612Y0283578D03*
X0195612Y0285546D03*
X0195612Y0287515D03*
X0195612Y0289483D03*
X0197383Y0291255D03*
X0199352Y0291255D03*
X0201320Y0291255D03*
X0203289Y0291255D03*
X0205257Y0291255D03*
X0207226Y0291255D03*
X0209194Y0291255D03*
X0211163Y0291255D03*
X0213131Y0291255D03*
X0215100Y0291255D03*
X0073122Y0289483D03*
X0073122Y0287515D03*
X0073122Y0285546D03*
X0073122Y0283578D03*
X0073122Y0281609D03*
X0073122Y0279641D03*
X0073122Y0277672D03*
X0073122Y0275704D03*
X0073122Y0273735D03*
X0073122Y0271767D03*
X0071350Y0269995D03*
X0069381Y0269995D03*
X0067413Y0269995D03*
X0065444Y0269995D03*
X0063476Y0269995D03*
X0061507Y0269995D03*
X0059539Y0269995D03*
X0057570Y0269995D03*
X0055602Y0269995D03*
X0053633Y0269995D03*
X0051862Y0271767D03*
X0051862Y0273735D03*
X0051862Y0275704D03*
X0051862Y0277672D03*
X0051862Y0279641D03*
X0051862Y0281609D03*
X0051862Y0283578D03*
X0051862Y0285546D03*
X0051862Y0287515D03*
X0051862Y0289483D03*
X0053633Y0291255D03*
X0055602Y0291255D03*
X0057570Y0291255D03*
X0059539Y0291255D03*
X0061507Y0291255D03*
X0063476Y0291255D03*
X0065444Y0291255D03*
X0067413Y0291255D03*
X0069381Y0291255D03*
X0071350Y0291255D03*
X0071350Y0518745D03*
X0069381Y0518745D03*
X0067413Y0518745D03*
X0065444Y0518745D03*
X0063476Y0518745D03*
X0061507Y0518745D03*
X0059539Y0518745D03*
X0057570Y0518745D03*
X0055602Y0518745D03*
X0053633Y0518745D03*
X0051862Y0520517D03*
X0051862Y0522485D03*
X0051862Y0524454D03*
X0051862Y0526422D03*
X0051862Y0528391D03*
X0051862Y0530359D03*
X0051862Y0532328D03*
X0051862Y0534296D03*
X0051862Y0536265D03*
X0051862Y0538233D03*
X0053633Y0540005D03*
X0055602Y0540005D03*
X0057570Y0540005D03*
X0059539Y0540005D03*
X0061507Y0540005D03*
X0063476Y0540005D03*
X0065444Y0540005D03*
X0067413Y0540005D03*
X0069381Y0540005D03*
X0071350Y0540005D03*
X0073122Y0538233D03*
X0073122Y0536265D03*
X0073122Y0534296D03*
X0073122Y0532328D03*
X0073122Y0530359D03*
X0073122Y0528391D03*
X0073122Y0526422D03*
X0073122Y0524454D03*
X0073122Y0522485D03*
X0073122Y0520517D03*
X0195612Y0520517D03*
X0195612Y0522485D03*
X0195612Y0524454D03*
X0195612Y0526422D03*
X0195612Y0528391D03*
X0195612Y0530359D03*
X0195612Y0532328D03*
X0195612Y0534296D03*
X0195612Y0536265D03*
X0195612Y0538233D03*
X0197383Y0540005D03*
X0199352Y0540005D03*
X0201320Y0540005D03*
X0203289Y0540005D03*
X0205257Y0540005D03*
X0207226Y0540005D03*
X0209194Y0540005D03*
X0211163Y0540005D03*
X0213131Y0540005D03*
X0215100Y0540005D03*
X0216872Y0538233D03*
X0216872Y0536265D03*
X0216872Y0534296D03*
X0216872Y0532328D03*
X0216872Y0530359D03*
X0216872Y0528391D03*
X0216872Y0526422D03*
X0216872Y0524454D03*
X0216872Y0522485D03*
X0216872Y0520517D03*
X0215100Y0518745D03*
X0213131Y0518745D03*
X0211163Y0518745D03*
X0209194Y0518745D03*
X0207226Y0518745D03*
X0205257Y0518745D03*
X0203289Y0518745D03*
X0201320Y0518745D03*
X0199352Y0518745D03*
X0197383Y0518745D03*
X0340612Y0520517D03*
X0340612Y0522485D03*
X0340612Y0524454D03*
X0340612Y0526422D03*
X0340612Y0528391D03*
X0340612Y0530359D03*
X0340612Y0532328D03*
X0340612Y0534296D03*
X0340612Y0536265D03*
X0340612Y0538233D03*
X0342383Y0540005D03*
X0344352Y0540005D03*
X0346320Y0540005D03*
X0348289Y0540005D03*
X0350257Y0540005D03*
X0352226Y0540005D03*
X0354194Y0540005D03*
X0356163Y0540005D03*
X0358131Y0540005D03*
X0360100Y0540005D03*
X0361872Y0538233D03*
X0361872Y0536265D03*
X0361872Y0534296D03*
X0361872Y0532328D03*
X0361872Y0530359D03*
X0361872Y0528391D03*
X0361872Y0526422D03*
X0361872Y0524454D03*
X0361872Y0522485D03*
X0361872Y0520517D03*
X0360100Y0518745D03*
X0358131Y0518745D03*
X0356163Y0518745D03*
X0354194Y0518745D03*
X0352226Y0518745D03*
X0350257Y0518745D03*
X0348289Y0518745D03*
X0346320Y0518745D03*
X0344352Y0518745D03*
X0342383Y0518745D03*
X0342383Y0767495D03*
X0344352Y0767495D03*
X0346320Y0767495D03*
X0348289Y0767495D03*
X0350257Y0767495D03*
X0352226Y0767495D03*
X0354194Y0767495D03*
X0356163Y0767495D03*
X0358131Y0767495D03*
X0360100Y0767495D03*
X0361872Y0769267D03*
X0361872Y0771235D03*
X0361872Y0773204D03*
X0361872Y0775172D03*
X0361872Y0777141D03*
X0361872Y0779109D03*
X0361872Y0781078D03*
X0361872Y0783046D03*
X0361872Y0785015D03*
X0361872Y0786983D03*
X0360100Y0788755D03*
X0358131Y0788755D03*
X0356163Y0788755D03*
X0354194Y0788755D03*
X0352226Y0788755D03*
X0350257Y0788755D03*
X0348289Y0788755D03*
X0346320Y0788755D03*
X0344352Y0788755D03*
X0342383Y0788755D03*
X0340612Y0786983D03*
X0340612Y0785015D03*
X0340612Y0783046D03*
X0340612Y0781078D03*
X0340612Y0779109D03*
X0340612Y0777141D03*
X0340612Y0775172D03*
X0340612Y0773204D03*
X0340612Y0771235D03*
X0340612Y0769267D03*
X0216872Y0769267D03*
X0216872Y0771235D03*
X0216872Y0773204D03*
X0216872Y0775172D03*
X0216872Y0777141D03*
X0216872Y0779109D03*
X0216872Y0781078D03*
X0216872Y0783046D03*
X0216872Y0785015D03*
X0216872Y0786983D03*
X0215100Y0788755D03*
X0213131Y0788755D03*
X0211163Y0788755D03*
X0209194Y0788755D03*
X0207226Y0788755D03*
X0205257Y0788755D03*
X0203289Y0788755D03*
X0201320Y0788755D03*
X0199352Y0788755D03*
X0197383Y0788755D03*
X0195612Y0786983D03*
X0195612Y0785015D03*
X0195612Y0783046D03*
X0195612Y0781078D03*
X0195612Y0779109D03*
X0195612Y0777141D03*
X0195612Y0775172D03*
X0195612Y0773204D03*
X0195612Y0771235D03*
X0195612Y0769267D03*
X0197383Y0767495D03*
X0199352Y0767495D03*
X0201320Y0767495D03*
X0203289Y0767495D03*
X0205257Y0767495D03*
X0207226Y0767495D03*
X0209194Y0767495D03*
X0211163Y0767495D03*
X0213131Y0767495D03*
X0215100Y0767495D03*
X0073122Y0769267D03*
X0073122Y0771235D03*
X0073122Y0773204D03*
X0073122Y0775172D03*
X0073122Y0777141D03*
X0073122Y0779109D03*
X0073122Y0781078D03*
X0073122Y0783046D03*
X0073122Y0785015D03*
X0073122Y0786983D03*
X0071350Y0788755D03*
X0069381Y0788755D03*
X0067413Y0788755D03*
X0065444Y0788755D03*
X0063476Y0788755D03*
X0061507Y0788755D03*
X0059539Y0788755D03*
X0057570Y0788755D03*
X0055602Y0788755D03*
X0053633Y0788755D03*
X0051862Y0786983D03*
X0051862Y0785015D03*
X0051862Y0783046D03*
X0051862Y0781078D03*
X0051862Y0779109D03*
X0051862Y0777141D03*
X0051862Y0775172D03*
X0051862Y0773204D03*
X0051862Y0771235D03*
X0051862Y0769267D03*
X0053633Y0767495D03*
X0055602Y0767495D03*
X0057570Y0767495D03*
X0059539Y0767495D03*
X0061507Y0767495D03*
X0063476Y0767495D03*
X0065444Y0767495D03*
X0067413Y0767495D03*
X0069381Y0767495D03*
X0071350Y0767495D03*
X0292358Y0121880D03*
X0294327Y0121880D03*
X0296295Y0121880D03*
X0298264Y0121880D03*
X0300232Y0121880D03*
X0302201Y0121880D03*
X0304169Y0121880D03*
X0306138Y0121880D03*
X0308106Y0121880D03*
X0310075Y0121880D03*
X0311847Y0120108D03*
X0311847Y0118140D03*
X0311847Y0116171D03*
X0311847Y0114203D03*
X0311847Y0112234D03*
X0311847Y0110266D03*
X0311847Y0108297D03*
X0311847Y0106329D03*
X0311847Y0104360D03*
X0311847Y0102392D03*
X0310075Y0100620D03*
X0308106Y0100620D03*
X0306138Y0100620D03*
X0304169Y0100620D03*
X0302201Y0100620D03*
X0300232Y0100620D03*
X0298264Y0100620D03*
X0296295Y0100620D03*
X0294327Y0100620D03*
X0292358Y0100620D03*
X0290587Y0102392D03*
X0290587Y0104360D03*
X0290587Y0106329D03*
X0290587Y0108297D03*
X0290587Y0110266D03*
X0290587Y0112234D03*
X0290587Y0114203D03*
X0290587Y0116171D03*
X0290587Y0118140D03*
X0290587Y0120108D03*
D25*
X0289258Y0120108D03*
X0289258Y0118140D03*
X0289258Y0116171D03*
X0289258Y0114203D03*
X0289258Y0112234D03*
X0289258Y0110266D03*
X0289258Y0108297D03*
X0289258Y0106329D03*
X0289258Y0104360D03*
X0289258Y0102392D03*
X0313175Y0102392D03*
X0313175Y0104360D03*
X0313175Y0106329D03*
X0313175Y0108297D03*
X0313175Y0110266D03*
X0313175Y0112234D03*
X0313175Y0114203D03*
X0313175Y0116171D03*
X0313175Y0118140D03*
X0313175Y0120108D03*
X0339283Y0271767D03*
X0339283Y0273735D03*
X0339283Y0275704D03*
X0339283Y0277672D03*
X0339283Y0279641D03*
X0339283Y0281609D03*
X0339283Y0283578D03*
X0339283Y0285546D03*
X0339283Y0287515D03*
X0339283Y0289483D03*
X0363200Y0289483D03*
X0363200Y0287515D03*
X0363200Y0285546D03*
X0363200Y0283578D03*
X0363200Y0281609D03*
X0363200Y0279641D03*
X0363200Y0277672D03*
X0363200Y0275704D03*
X0363200Y0273735D03*
X0363200Y0271767D03*
X0218200Y0271767D03*
X0218200Y0273735D03*
X0218200Y0275704D03*
X0218200Y0277672D03*
X0218200Y0279641D03*
X0218200Y0281609D03*
X0218200Y0283578D03*
X0218200Y0285546D03*
X0218200Y0287515D03*
X0218200Y0289483D03*
X0194283Y0289483D03*
X0194283Y0287515D03*
X0194283Y0285546D03*
X0194283Y0283578D03*
X0194283Y0281609D03*
X0194283Y0279641D03*
X0194283Y0277672D03*
X0194283Y0275704D03*
X0194283Y0273735D03*
X0194283Y0271767D03*
X0074450Y0271767D03*
X0074450Y0273735D03*
X0074450Y0275704D03*
X0074450Y0277672D03*
X0074450Y0279641D03*
X0074450Y0281609D03*
X0074450Y0283578D03*
X0074450Y0285546D03*
X0074450Y0287515D03*
X0074450Y0289483D03*
X0050533Y0289483D03*
X0050533Y0287515D03*
X0050533Y0285546D03*
X0050533Y0283578D03*
X0050533Y0281609D03*
X0050533Y0279641D03*
X0050533Y0277672D03*
X0050533Y0275704D03*
X0050533Y0273735D03*
X0050533Y0271767D03*
X0050533Y0520517D03*
X0050533Y0522485D03*
X0050533Y0524454D03*
X0050533Y0526422D03*
X0050533Y0528391D03*
X0050533Y0530359D03*
X0050533Y0532328D03*
X0050533Y0534296D03*
X0050533Y0536265D03*
X0050533Y0538233D03*
X0074450Y0538233D03*
X0074450Y0536265D03*
X0074450Y0534296D03*
X0074450Y0532328D03*
X0074450Y0530359D03*
X0074450Y0528391D03*
X0074450Y0526422D03*
X0074450Y0524454D03*
X0074450Y0522485D03*
X0074450Y0520517D03*
X0194283Y0520517D03*
X0194283Y0522485D03*
X0194283Y0524454D03*
X0194283Y0526422D03*
X0194283Y0528391D03*
X0194283Y0530359D03*
X0194283Y0532328D03*
X0194283Y0534296D03*
X0194283Y0536265D03*
X0194283Y0538233D03*
X0218200Y0538233D03*
X0218200Y0536265D03*
X0218200Y0534296D03*
X0218200Y0532328D03*
X0218200Y0530359D03*
X0218200Y0528391D03*
X0218200Y0526422D03*
X0218200Y0524454D03*
X0218200Y0522485D03*
X0218200Y0520517D03*
X0339283Y0520517D03*
X0339283Y0522485D03*
X0339283Y0524454D03*
X0339283Y0526422D03*
X0339283Y0528391D03*
X0339283Y0530359D03*
X0339283Y0532328D03*
X0339283Y0534296D03*
X0339283Y0536265D03*
X0339283Y0538233D03*
X0363200Y0538233D03*
X0363200Y0536265D03*
X0363200Y0534296D03*
X0363200Y0532328D03*
X0363200Y0530359D03*
X0363200Y0528391D03*
X0363200Y0526422D03*
X0363200Y0524454D03*
X0363200Y0522485D03*
X0363200Y0520517D03*
X0363200Y0769267D03*
X0363200Y0771235D03*
X0363200Y0773204D03*
X0363200Y0775172D03*
X0363200Y0777141D03*
X0363200Y0779109D03*
X0363200Y0781078D03*
X0363200Y0783046D03*
X0363200Y0785015D03*
X0363200Y0786983D03*
X0339283Y0786983D03*
X0339283Y0785015D03*
X0339283Y0783046D03*
X0339283Y0781078D03*
X0339283Y0779109D03*
X0339283Y0777141D03*
X0339283Y0775172D03*
X0339283Y0773204D03*
X0339283Y0771235D03*
X0339283Y0769267D03*
X0218200Y0769267D03*
X0218200Y0771235D03*
X0218200Y0773204D03*
X0218200Y0775172D03*
X0218200Y0777141D03*
X0218200Y0779109D03*
X0218200Y0781078D03*
X0218200Y0783046D03*
X0218200Y0785015D03*
X0218200Y0786983D03*
X0194283Y0786983D03*
X0194283Y0785015D03*
X0194283Y0783046D03*
X0194283Y0781078D03*
X0194283Y0779109D03*
X0194283Y0777141D03*
X0194283Y0775172D03*
X0194283Y0773204D03*
X0194283Y0771235D03*
X0194283Y0769267D03*
X0074450Y0769267D03*
X0074450Y0771235D03*
X0074450Y0773204D03*
X0074450Y0775172D03*
X0074450Y0777141D03*
X0074450Y0779109D03*
X0074450Y0781078D03*
X0074450Y0783046D03*
X0074450Y0785015D03*
X0074450Y0786983D03*
X0050533Y0786983D03*
X0050533Y0785015D03*
X0050533Y0783046D03*
X0050533Y0781078D03*
X0050533Y0779109D03*
X0050533Y0777141D03*
X0050533Y0775172D03*
X0050533Y0773204D03*
X0050533Y0771235D03*
X0050533Y0769267D03*
D26*
X0053633Y0766166D03*
X0055602Y0766166D03*
X0057570Y0766166D03*
X0059539Y0766166D03*
X0061507Y0766166D03*
X0063476Y0766166D03*
X0065444Y0766166D03*
X0067413Y0766166D03*
X0069381Y0766166D03*
X0071350Y0766166D03*
X0071350Y0790084D03*
X0069381Y0790084D03*
X0067413Y0790084D03*
X0065444Y0790084D03*
X0063476Y0790084D03*
X0061507Y0790084D03*
X0059539Y0790084D03*
X0057570Y0790084D03*
X0055602Y0790084D03*
X0053633Y0790084D03*
X0197383Y0790084D03*
X0199352Y0790084D03*
X0201320Y0790084D03*
X0203289Y0790084D03*
X0205257Y0790084D03*
X0207226Y0790084D03*
X0209194Y0790084D03*
X0211163Y0790084D03*
X0213131Y0790084D03*
X0215100Y0790084D03*
X0215100Y0766166D03*
X0213131Y0766166D03*
X0211163Y0766166D03*
X0209194Y0766166D03*
X0207226Y0766166D03*
X0205257Y0766166D03*
X0203289Y0766166D03*
X0201320Y0766166D03*
X0199352Y0766166D03*
X0197383Y0766166D03*
X0342383Y0766166D03*
X0344352Y0766166D03*
X0346320Y0766166D03*
X0348289Y0766166D03*
X0350257Y0766166D03*
X0352226Y0766166D03*
X0354194Y0766166D03*
X0356163Y0766166D03*
X0358131Y0766166D03*
X0360100Y0766166D03*
X0360100Y0790084D03*
X0358131Y0790084D03*
X0356163Y0790084D03*
X0354194Y0790084D03*
X0352226Y0790084D03*
X0350257Y0790084D03*
X0348289Y0790084D03*
X0346320Y0790084D03*
X0344352Y0790084D03*
X0342383Y0790084D03*
X0342383Y0541334D03*
X0344352Y0541334D03*
X0346320Y0541334D03*
X0348289Y0541334D03*
X0350257Y0541334D03*
X0352226Y0541334D03*
X0354194Y0541334D03*
X0356163Y0541334D03*
X0358131Y0541334D03*
X0360100Y0541334D03*
X0360100Y0517416D03*
X0358131Y0517416D03*
X0356163Y0517416D03*
X0354194Y0517416D03*
X0352226Y0517416D03*
X0350257Y0517416D03*
X0348289Y0517416D03*
X0346320Y0517416D03*
X0344352Y0517416D03*
X0342383Y0517416D03*
X0215100Y0517416D03*
X0213131Y0517416D03*
X0211163Y0517416D03*
X0209194Y0517416D03*
X0207226Y0517416D03*
X0205257Y0517416D03*
X0203289Y0517416D03*
X0201320Y0517416D03*
X0199352Y0517416D03*
X0197383Y0517416D03*
X0197383Y0541334D03*
X0199352Y0541334D03*
X0201320Y0541334D03*
X0203289Y0541334D03*
X0205257Y0541334D03*
X0207226Y0541334D03*
X0209194Y0541334D03*
X0211163Y0541334D03*
X0213131Y0541334D03*
X0215100Y0541334D03*
X0071350Y0541334D03*
X0069381Y0541334D03*
X0067413Y0541334D03*
X0065444Y0541334D03*
X0063476Y0541334D03*
X0061507Y0541334D03*
X0059539Y0541334D03*
X0057570Y0541334D03*
X0055602Y0541334D03*
X0053633Y0541334D03*
X0053633Y0517416D03*
X0055602Y0517416D03*
X0057570Y0517416D03*
X0059539Y0517416D03*
X0061507Y0517416D03*
X0063476Y0517416D03*
X0065444Y0517416D03*
X0067413Y0517416D03*
X0069381Y0517416D03*
X0071350Y0517416D03*
X0071350Y0292584D03*
X0069381Y0292584D03*
X0067413Y0292584D03*
X0065444Y0292584D03*
X0063476Y0292584D03*
X0061507Y0292584D03*
X0059539Y0292584D03*
X0057570Y0292584D03*
X0055602Y0292584D03*
X0053633Y0292584D03*
X0053633Y0268666D03*
X0055602Y0268666D03*
X0057570Y0268666D03*
X0059539Y0268666D03*
X0061507Y0268666D03*
X0063476Y0268666D03*
X0065444Y0268666D03*
X0067413Y0268666D03*
X0069381Y0268666D03*
X0071350Y0268666D03*
X0197383Y0268666D03*
X0199352Y0268666D03*
X0201320Y0268666D03*
X0203289Y0268666D03*
X0205257Y0268666D03*
X0207226Y0268666D03*
X0209194Y0268666D03*
X0211163Y0268666D03*
X0213131Y0268666D03*
X0215100Y0268666D03*
X0215100Y0292584D03*
X0213131Y0292584D03*
X0211163Y0292584D03*
X0209194Y0292584D03*
X0207226Y0292584D03*
X0205257Y0292584D03*
X0203289Y0292584D03*
X0201320Y0292584D03*
X0199352Y0292584D03*
X0197383Y0292584D03*
X0342383Y0292584D03*
X0344352Y0292584D03*
X0346320Y0292584D03*
X0348289Y0292584D03*
X0350257Y0292584D03*
X0352226Y0292584D03*
X0354194Y0292584D03*
X0356163Y0292584D03*
X0358131Y0292584D03*
X0360100Y0292584D03*
X0360100Y0268666D03*
X0358131Y0268666D03*
X0356163Y0268666D03*
X0354194Y0268666D03*
X0352226Y0268666D03*
X0350257Y0268666D03*
X0348289Y0268666D03*
X0346320Y0268666D03*
X0344352Y0268666D03*
X0342383Y0268666D03*
X0310075Y0123209D03*
X0308106Y0123209D03*
X0306138Y0123209D03*
X0304169Y0123209D03*
X0302201Y0123209D03*
X0300232Y0123209D03*
X0298264Y0123209D03*
X0296295Y0123209D03*
X0294327Y0123209D03*
X0292358Y0123209D03*
X0292358Y0099291D03*
X0294327Y0099291D03*
X0296295Y0099291D03*
X0298264Y0099291D03*
X0300232Y0099291D03*
X0302201Y0099291D03*
X0304169Y0099291D03*
X0306138Y0099291D03*
X0308106Y0099291D03*
X0310075Y0099291D03*
D27*
X0301217Y0111250D03*
X0351242Y0280625D03*
X0206242Y0280625D03*
X0062492Y0280625D03*
X0062492Y0529375D03*
X0206242Y0529375D03*
X0351242Y0529375D03*
X0351242Y0778125D03*
X0206242Y0778125D03*
X0062492Y0778125D03*
D28*
X0061432Y0790850D02*
X0061508Y0790926D01*
X0061508Y0793268D01*
X0063444Y0793300D02*
X0063444Y0790977D01*
X0063387Y0790920D01*
X0065398Y0790951D02*
X0065437Y0790989D01*
X0065437Y0793281D01*
X0067417Y0793268D02*
X0067417Y0790913D01*
X0067423Y0790907D01*
X0069378Y0791002D02*
X0069422Y0791047D01*
X0069422Y0793420D01*
X0071345Y0793350D02*
X0071345Y0790882D01*
X0071301Y0790837D01*
X0075827Y0786983D02*
X0075819Y0786974D01*
X0075827Y0786983D02*
X0077762Y0786983D01*
X0077678Y0784992D02*
X0075592Y0784992D01*
X0075588Y0784996D01*
X0075481Y0783060D02*
X0075515Y0783027D01*
X0077747Y0783027D01*
X0077700Y0781063D02*
X0075529Y0781063D01*
X0075540Y0779098D02*
X0075526Y0779083D01*
X0075540Y0779098D02*
X0077681Y0779098D01*
X0077648Y0777156D02*
X0075599Y0777156D01*
X0075570Y0777185D01*
X0075342Y0775198D02*
X0075382Y0775158D01*
X0077751Y0775158D01*
X0077722Y0773230D02*
X0075357Y0773230D01*
X0075353Y0773226D01*
X0075371Y0771236D02*
X0077751Y0771236D01*
X0077685Y0769231D02*
X0075426Y0769231D01*
X0075419Y0769238D01*
X0071351Y0765111D02*
X0071345Y0765116D01*
X0071351Y0765111D02*
X0071351Y0762911D01*
X0069372Y0762890D02*
X0069372Y0765190D01*
X0069335Y0765227D01*
X0067431Y0765079D02*
X0067426Y0765085D01*
X0067431Y0765079D02*
X0067431Y0762890D01*
X0065453Y0762880D02*
X0065453Y0765074D01*
X0065506Y0765127D01*
X0063470Y0765159D02*
X0063438Y0765190D01*
X0063470Y0765159D02*
X0063470Y0762975D01*
X0061502Y0762912D02*
X0061502Y0765083D01*
X0061508Y0765089D01*
X0059566Y0765057D02*
X0059560Y0765051D01*
X0059560Y0762893D01*
X0057586Y0762963D02*
X0057586Y0765153D01*
X0057592Y0765159D01*
X0055644Y0765242D02*
X0055625Y0765223D01*
X0055625Y0762944D01*
X0053632Y0762900D02*
X0053632Y0765159D01*
X0053651Y0765178D01*
X0049329Y0769257D02*
X0047346Y0769257D01*
X0047287Y0771224D02*
X0049429Y0771224D01*
X0049492Y0771288D01*
X0049698Y0773207D02*
X0049751Y0773260D01*
X0049698Y0773207D02*
X0047371Y0773207D01*
X0047329Y0775169D02*
X0049714Y0775169D01*
X0049720Y0775174D01*
X0049694Y0777147D02*
X0049689Y0777152D01*
X0047309Y0777152D01*
X0047359Y0779112D02*
X0049650Y0779112D01*
X0049664Y0779099D01*
X0049554Y0781077D02*
X0049540Y0781092D01*
X0047325Y0781092D01*
X0047278Y0783047D02*
X0049570Y0783047D01*
X0049623Y0782995D01*
X0049715Y0785018D02*
X0049741Y0785043D01*
X0049715Y0785018D02*
X0047328Y0785018D01*
X0047273Y0786968D02*
X0049580Y0786968D01*
X0049581Y0786969D01*
X0053601Y0790848D02*
X0053633Y0790880D01*
X0053633Y0793339D01*
X0055590Y0793275D02*
X0055590Y0790869D01*
X0057548Y0790850D02*
X0057586Y0790888D01*
X0057586Y0793268D01*
X0059528Y0793363D02*
X0059528Y0790907D01*
X0059502Y0790882D01*
X0191023Y0786968D02*
X0193330Y0786968D01*
X0193331Y0786969D01*
X0193491Y0785043D02*
X0193465Y0785018D01*
X0191078Y0785018D01*
X0191028Y0783047D02*
X0193320Y0783047D01*
X0193373Y0782995D01*
X0193290Y0781092D02*
X0193304Y0781077D01*
X0193290Y0781092D02*
X0191075Y0781092D01*
X0191109Y0779112D02*
X0193400Y0779112D01*
X0193414Y0779099D01*
X0193439Y0777152D02*
X0193444Y0777147D01*
X0193439Y0777152D02*
X0191059Y0777152D01*
X0191079Y0775169D02*
X0193464Y0775169D01*
X0193470Y0775174D01*
X0193501Y0773260D02*
X0193448Y0773207D01*
X0191121Y0773207D01*
X0191037Y0771224D02*
X0193179Y0771224D01*
X0193242Y0771288D01*
X0193079Y0769257D02*
X0191096Y0769257D01*
X0197382Y0765159D02*
X0197401Y0765178D01*
X0197382Y0765159D02*
X0197382Y0762900D01*
X0199375Y0762944D02*
X0199375Y0765223D01*
X0199394Y0765242D01*
X0201336Y0765153D02*
X0201342Y0765159D01*
X0201336Y0765153D02*
X0201336Y0762963D01*
X0203310Y0762893D02*
X0203310Y0765051D01*
X0203316Y0765057D01*
X0205252Y0765083D02*
X0205258Y0765089D01*
X0205252Y0765083D02*
X0205252Y0762912D01*
X0207220Y0762975D02*
X0207220Y0765159D01*
X0207188Y0765190D01*
X0209203Y0765074D02*
X0209256Y0765127D01*
X0209203Y0765074D02*
X0209203Y0762880D01*
X0211181Y0762890D02*
X0211181Y0765079D01*
X0211176Y0765085D01*
X0213085Y0765227D02*
X0213122Y0765190D01*
X0213122Y0762890D01*
X0215101Y0762911D02*
X0215101Y0765111D01*
X0215095Y0765116D01*
X0219176Y0769231D02*
X0219169Y0769238D01*
X0219176Y0769231D02*
X0221435Y0769231D01*
X0221501Y0771236D02*
X0219121Y0771236D01*
X0219103Y0773226D02*
X0219107Y0773230D01*
X0221472Y0773230D01*
X0221501Y0775158D02*
X0219132Y0775158D01*
X0219092Y0775198D01*
X0219349Y0777156D02*
X0219320Y0777185D01*
X0219349Y0777156D02*
X0221398Y0777156D01*
X0221431Y0779098D02*
X0219290Y0779098D01*
X0219276Y0779083D01*
X0219279Y0781063D02*
X0221450Y0781063D01*
X0221497Y0783027D02*
X0219265Y0783027D01*
X0219231Y0783060D01*
X0219342Y0784992D02*
X0219338Y0784996D01*
X0219342Y0784992D02*
X0221428Y0784992D01*
X0221512Y0786983D02*
X0219577Y0786983D01*
X0219569Y0786974D01*
X0215095Y0790882D02*
X0215095Y0793350D01*
X0213172Y0793420D02*
X0213172Y0791047D01*
X0213128Y0791002D01*
X0215051Y0790837D02*
X0215095Y0790882D01*
X0211173Y0790907D02*
X0211167Y0790913D01*
X0211167Y0793268D01*
X0209187Y0793281D02*
X0209187Y0790989D01*
X0209148Y0790951D01*
X0207194Y0790977D02*
X0207194Y0793300D01*
X0205258Y0793268D02*
X0205258Y0790926D01*
X0205182Y0790850D01*
X0203278Y0790907D02*
X0203252Y0790882D01*
X0203278Y0790907D02*
X0203278Y0793363D01*
X0201336Y0793268D02*
X0201336Y0790888D01*
X0201298Y0790850D01*
X0199340Y0790869D02*
X0199340Y0793275D01*
X0197383Y0793339D02*
X0197383Y0790880D01*
X0197351Y0790848D01*
X0207137Y0790920D02*
X0207194Y0790977D01*
X0336023Y0786968D02*
X0338330Y0786968D01*
X0338331Y0786969D01*
X0338491Y0785043D02*
X0338465Y0785018D01*
X0336078Y0785018D01*
X0336028Y0783047D02*
X0338320Y0783047D01*
X0338373Y0782995D01*
X0338290Y0781092D02*
X0338304Y0781077D01*
X0338290Y0781092D02*
X0336075Y0781092D01*
X0336109Y0779112D02*
X0338400Y0779112D01*
X0338414Y0779099D01*
X0338439Y0777152D02*
X0338444Y0777147D01*
X0338439Y0777152D02*
X0336059Y0777152D01*
X0336079Y0775169D02*
X0338464Y0775169D01*
X0338470Y0775174D01*
X0338501Y0773260D02*
X0338448Y0773207D01*
X0336121Y0773207D01*
X0336037Y0771224D02*
X0338179Y0771224D01*
X0338242Y0771288D01*
X0338079Y0769257D02*
X0336096Y0769257D01*
X0342382Y0765159D02*
X0342401Y0765178D01*
X0342382Y0765159D02*
X0342382Y0762900D01*
X0344375Y0762944D02*
X0344375Y0765223D01*
X0344394Y0765242D01*
X0346336Y0765153D02*
X0346342Y0765159D01*
X0346336Y0765153D02*
X0346336Y0762963D01*
X0348310Y0762893D02*
X0348310Y0765051D01*
X0348316Y0765057D01*
X0350252Y0765083D02*
X0350258Y0765089D01*
X0350252Y0765083D02*
X0350252Y0762912D01*
X0352220Y0762975D02*
X0352220Y0765159D01*
X0352188Y0765190D01*
X0354203Y0765074D02*
X0354256Y0765127D01*
X0354203Y0765074D02*
X0354203Y0762880D01*
X0356181Y0762890D02*
X0356181Y0765079D01*
X0356176Y0765085D01*
X0358085Y0765227D02*
X0358122Y0765190D01*
X0358122Y0762890D01*
X0360101Y0762911D02*
X0360101Y0765111D01*
X0360095Y0765116D01*
X0364176Y0769231D02*
X0364169Y0769238D01*
X0364176Y0769231D02*
X0366435Y0769231D01*
X0366501Y0771236D02*
X0364121Y0771236D01*
X0364103Y0773226D02*
X0364107Y0773230D01*
X0366472Y0773230D01*
X0366501Y0775158D02*
X0364132Y0775158D01*
X0364092Y0775198D01*
X0364349Y0777156D02*
X0364320Y0777185D01*
X0364349Y0777156D02*
X0366398Y0777156D01*
X0366431Y0779098D02*
X0364290Y0779098D01*
X0364276Y0779083D01*
X0364279Y0781063D02*
X0366450Y0781063D01*
X0366497Y0783027D02*
X0364265Y0783027D01*
X0364231Y0783060D01*
X0364342Y0784992D02*
X0364338Y0784996D01*
X0364342Y0784992D02*
X0366428Y0784992D01*
X0366512Y0786983D02*
X0364577Y0786983D01*
X0364569Y0786974D01*
X0360095Y0790882D02*
X0360095Y0793350D01*
X0358172Y0793420D02*
X0358172Y0791047D01*
X0358128Y0791002D01*
X0360051Y0790837D02*
X0360095Y0790882D01*
X0356173Y0790907D02*
X0356167Y0790913D01*
X0356167Y0793268D01*
X0354187Y0793281D02*
X0354187Y0790989D01*
X0354148Y0790951D01*
X0352194Y0790977D02*
X0352194Y0793300D01*
X0350258Y0793268D02*
X0350258Y0790926D01*
X0350182Y0790850D01*
X0348278Y0790907D02*
X0348252Y0790882D01*
X0348278Y0790907D02*
X0348278Y0793363D01*
X0346336Y0793268D02*
X0346336Y0790888D01*
X0346298Y0790850D01*
X0344340Y0790869D02*
X0344340Y0793275D01*
X0342383Y0793339D02*
X0342383Y0790880D01*
X0342351Y0790848D01*
X0352137Y0790920D02*
X0352194Y0790977D01*
X0358172Y0544670D02*
X0358172Y0542297D01*
X0358128Y0542252D01*
X0360051Y0542087D02*
X0360095Y0542132D01*
X0360095Y0544600D01*
X0356167Y0544518D02*
X0356167Y0542163D01*
X0356173Y0542157D01*
X0354187Y0542239D02*
X0354148Y0542201D01*
X0354187Y0542239D02*
X0354187Y0544531D01*
X0352194Y0544550D02*
X0352194Y0542227D01*
X0352137Y0542170D01*
X0350258Y0542176D02*
X0350182Y0542100D01*
X0350258Y0542176D02*
X0350258Y0544518D01*
X0348278Y0544613D02*
X0348278Y0542157D01*
X0348252Y0542132D01*
X0346336Y0542138D02*
X0346298Y0542100D01*
X0346336Y0542138D02*
X0346336Y0544518D01*
X0344340Y0544525D02*
X0344340Y0542119D01*
X0342383Y0542130D02*
X0342351Y0542098D01*
X0342383Y0542130D02*
X0342383Y0544589D01*
X0338331Y0538219D02*
X0338330Y0538218D01*
X0336023Y0538218D01*
X0336078Y0536268D02*
X0338465Y0536268D01*
X0338491Y0536293D01*
X0338320Y0534297D02*
X0338373Y0534245D01*
X0338320Y0534297D02*
X0336028Y0534297D01*
X0336075Y0532342D02*
X0338290Y0532342D01*
X0338304Y0532327D01*
X0338400Y0530362D02*
X0338414Y0530349D01*
X0338400Y0530362D02*
X0336109Y0530362D01*
X0336059Y0528402D02*
X0338439Y0528402D01*
X0338444Y0528397D01*
X0338470Y0526424D02*
X0338464Y0526419D01*
X0336079Y0526419D01*
X0336121Y0524457D02*
X0338448Y0524457D01*
X0338501Y0524510D01*
X0338242Y0522538D02*
X0338179Y0522474D01*
X0336037Y0522474D01*
X0336096Y0520507D02*
X0338079Y0520507D01*
X0342382Y0516409D02*
X0342401Y0516428D01*
X0342382Y0516409D02*
X0342382Y0514150D01*
X0344375Y0514194D02*
X0344375Y0516473D01*
X0344394Y0516492D01*
X0346336Y0516403D02*
X0346342Y0516409D01*
X0346336Y0516403D02*
X0346336Y0514213D01*
X0348310Y0514143D02*
X0348310Y0516301D01*
X0348316Y0516307D01*
X0350252Y0516333D02*
X0350258Y0516339D01*
X0350252Y0516333D02*
X0350252Y0514162D01*
X0352220Y0514225D02*
X0352220Y0516409D01*
X0352188Y0516440D01*
X0354203Y0516324D02*
X0354203Y0514130D01*
X0356181Y0514140D02*
X0356181Y0516329D01*
X0356176Y0516335D01*
X0358085Y0516477D02*
X0358122Y0516440D01*
X0358122Y0514140D01*
X0360101Y0514161D02*
X0360101Y0516361D01*
X0360095Y0516366D01*
X0364176Y0520481D02*
X0364169Y0520488D01*
X0364176Y0520481D02*
X0366435Y0520481D01*
X0366501Y0522486D02*
X0364121Y0522486D01*
X0364103Y0524476D02*
X0364107Y0524480D01*
X0366472Y0524480D01*
X0366501Y0526408D02*
X0364132Y0526408D01*
X0364092Y0526448D01*
X0364349Y0528406D02*
X0364320Y0528435D01*
X0364349Y0528406D02*
X0366398Y0528406D01*
X0366431Y0530348D02*
X0364290Y0530348D01*
X0364276Y0530333D01*
X0364279Y0532313D02*
X0366450Y0532313D01*
X0366497Y0534277D02*
X0364265Y0534277D01*
X0364231Y0534310D01*
X0364342Y0536242D02*
X0364338Y0536246D01*
X0364342Y0536242D02*
X0366428Y0536242D01*
X0366512Y0538233D02*
X0364577Y0538233D01*
X0364569Y0538224D01*
X0354256Y0516377D02*
X0354203Y0516324D01*
X0221435Y0520481D02*
X0219176Y0520481D01*
X0219169Y0520488D01*
X0219121Y0522486D02*
X0221501Y0522486D01*
X0221472Y0524480D02*
X0219107Y0524480D01*
X0219103Y0524476D01*
X0219132Y0526408D02*
X0219092Y0526448D01*
X0219132Y0526408D02*
X0221501Y0526408D01*
X0221398Y0528406D02*
X0219349Y0528406D01*
X0219320Y0528435D01*
X0219276Y0530333D02*
X0219290Y0530348D01*
X0221431Y0530348D01*
X0221450Y0532313D02*
X0219279Y0532313D01*
X0219265Y0534277D02*
X0219231Y0534310D01*
X0219265Y0534277D02*
X0221497Y0534277D01*
X0221428Y0536242D02*
X0219342Y0536242D01*
X0219338Y0536246D01*
X0219569Y0538224D02*
X0219577Y0538233D01*
X0221512Y0538233D01*
X0215095Y0542132D02*
X0215051Y0542087D01*
X0215095Y0542132D02*
X0215095Y0544600D01*
X0213172Y0544670D02*
X0213172Y0542297D01*
X0213128Y0542252D01*
X0211173Y0542157D02*
X0211167Y0542163D01*
X0211167Y0544518D01*
X0209187Y0544531D02*
X0209187Y0542239D01*
X0209148Y0542201D01*
X0207194Y0542227D02*
X0207137Y0542170D01*
X0207194Y0542227D02*
X0207194Y0544550D01*
X0205258Y0544518D02*
X0205258Y0542176D01*
X0205182Y0542100D01*
X0203278Y0542157D02*
X0203252Y0542132D01*
X0203278Y0542157D02*
X0203278Y0544613D01*
X0201336Y0544518D02*
X0201336Y0542138D01*
X0201298Y0542100D01*
X0199340Y0542119D02*
X0199340Y0544525D01*
X0197383Y0544589D02*
X0197383Y0542130D01*
X0197351Y0542098D01*
X0193331Y0538219D02*
X0193330Y0538218D01*
X0191023Y0538218D01*
X0191078Y0536268D02*
X0193465Y0536268D01*
X0193491Y0536293D01*
X0193320Y0534297D02*
X0193373Y0534245D01*
X0193320Y0534297D02*
X0191028Y0534297D01*
X0191075Y0532342D02*
X0193290Y0532342D01*
X0193304Y0532327D01*
X0193400Y0530362D02*
X0193414Y0530349D01*
X0193400Y0530362D02*
X0191109Y0530362D01*
X0191059Y0528402D02*
X0193439Y0528402D01*
X0193444Y0528397D01*
X0193470Y0526424D02*
X0193464Y0526419D01*
X0191079Y0526419D01*
X0191121Y0524457D02*
X0193448Y0524457D01*
X0193501Y0524510D01*
X0193242Y0522538D02*
X0193179Y0522474D01*
X0191037Y0522474D01*
X0191096Y0520507D02*
X0193079Y0520507D01*
X0197382Y0516409D02*
X0197401Y0516428D01*
X0197382Y0516409D02*
X0197382Y0514150D01*
X0199375Y0514194D02*
X0199375Y0516473D01*
X0199394Y0516492D01*
X0201336Y0516403D02*
X0201342Y0516409D01*
X0201336Y0516403D02*
X0201336Y0514213D01*
X0203310Y0514143D02*
X0203310Y0516301D01*
X0203316Y0516307D01*
X0205252Y0516333D02*
X0205258Y0516339D01*
X0205252Y0516333D02*
X0205252Y0514162D01*
X0207220Y0514225D02*
X0207220Y0516409D01*
X0207188Y0516440D01*
X0209203Y0516324D02*
X0209203Y0514130D01*
X0211181Y0514140D02*
X0211181Y0516329D01*
X0211176Y0516335D01*
X0213085Y0516477D02*
X0213122Y0516440D01*
X0213122Y0514140D01*
X0215101Y0514161D02*
X0215101Y0516361D01*
X0215095Y0516366D01*
X0209256Y0516377D02*
X0209203Y0516324D01*
X0077685Y0520481D02*
X0075426Y0520481D01*
X0075419Y0520488D01*
X0075371Y0522486D02*
X0077751Y0522486D01*
X0077722Y0524480D02*
X0075357Y0524480D01*
X0075353Y0524476D01*
X0075382Y0526408D02*
X0075342Y0526448D01*
X0075382Y0526408D02*
X0077751Y0526408D01*
X0077648Y0528406D02*
X0075599Y0528406D01*
X0075570Y0528435D01*
X0075526Y0530333D02*
X0075540Y0530348D01*
X0077681Y0530348D01*
X0077700Y0532313D02*
X0075529Y0532313D01*
X0075515Y0534277D02*
X0075481Y0534310D01*
X0075515Y0534277D02*
X0077747Y0534277D01*
X0077678Y0536242D02*
X0075592Y0536242D01*
X0075588Y0536246D01*
X0075819Y0538224D02*
X0075827Y0538233D01*
X0077762Y0538233D01*
X0071345Y0542132D02*
X0071301Y0542087D01*
X0071345Y0542132D02*
X0071345Y0544600D01*
X0069422Y0544670D02*
X0069422Y0542297D01*
X0069378Y0542252D01*
X0067423Y0542157D02*
X0067417Y0542163D01*
X0067417Y0544518D01*
X0065437Y0544531D02*
X0065437Y0542239D01*
X0065398Y0542201D01*
X0063444Y0542227D02*
X0063387Y0542170D01*
X0063444Y0542227D02*
X0063444Y0544550D01*
X0061508Y0544518D02*
X0061508Y0542176D01*
X0061432Y0542100D01*
X0059528Y0542157D02*
X0059502Y0542132D01*
X0059528Y0542157D02*
X0059528Y0544613D01*
X0057586Y0544518D02*
X0057586Y0542138D01*
X0057548Y0542100D01*
X0055590Y0542119D02*
X0055590Y0544525D01*
X0053633Y0544589D02*
X0053633Y0542130D01*
X0053601Y0542098D01*
X0049581Y0538219D02*
X0049580Y0538218D01*
X0047273Y0538218D01*
X0047328Y0536268D02*
X0049715Y0536268D01*
X0049741Y0536293D01*
X0049570Y0534297D02*
X0049623Y0534245D01*
X0049570Y0534297D02*
X0047278Y0534297D01*
X0047325Y0532342D02*
X0049540Y0532342D01*
X0049554Y0532327D01*
X0049650Y0530362D02*
X0049664Y0530349D01*
X0049650Y0530362D02*
X0047359Y0530362D01*
X0047309Y0528402D02*
X0049689Y0528402D01*
X0049694Y0528397D01*
X0049720Y0526424D02*
X0049714Y0526419D01*
X0047329Y0526419D01*
X0047371Y0524457D02*
X0049698Y0524457D01*
X0049751Y0524510D01*
X0049492Y0522538D02*
X0049429Y0522474D01*
X0047287Y0522474D01*
X0047346Y0520507D02*
X0049329Y0520507D01*
X0053632Y0516409D02*
X0053632Y0514150D01*
X0055625Y0514194D02*
X0055625Y0516473D01*
X0055644Y0516492D01*
X0057586Y0516403D02*
X0057592Y0516409D01*
X0057586Y0516403D02*
X0057586Y0514213D01*
X0059560Y0514143D02*
X0059560Y0516301D01*
X0059566Y0516307D01*
X0061502Y0516333D02*
X0061508Y0516339D01*
X0061502Y0516333D02*
X0061502Y0514162D01*
X0063470Y0514225D02*
X0063470Y0516409D01*
X0063438Y0516440D01*
X0065453Y0516324D02*
X0065506Y0516377D01*
X0065453Y0516324D02*
X0065453Y0514130D01*
X0067431Y0514140D02*
X0067431Y0516329D01*
X0067426Y0516335D01*
X0069335Y0516477D02*
X0069372Y0516440D01*
X0069372Y0514140D01*
X0071351Y0514161D02*
X0071351Y0516361D01*
X0071345Y0516366D01*
X0053651Y0516428D02*
X0053632Y0516409D01*
X0053633Y0295839D02*
X0053633Y0293380D01*
X0053601Y0293348D01*
X0055590Y0293369D02*
X0055590Y0295775D01*
X0057586Y0295768D02*
X0057586Y0293388D01*
X0057548Y0293350D01*
X0059502Y0293382D02*
X0059528Y0293407D01*
X0059528Y0295863D01*
X0061508Y0295768D02*
X0061508Y0293426D01*
X0061432Y0293350D01*
X0063387Y0293420D02*
X0063444Y0293477D01*
X0063444Y0295800D01*
X0065437Y0295781D02*
X0065437Y0293489D01*
X0065398Y0293451D01*
X0067417Y0293413D02*
X0067423Y0293407D01*
X0067417Y0293413D02*
X0067417Y0295768D01*
X0069422Y0295920D02*
X0069422Y0293547D01*
X0069378Y0293502D01*
X0071301Y0293337D02*
X0071345Y0293382D01*
X0071345Y0295850D01*
X0075827Y0289483D02*
X0075819Y0289474D01*
X0075827Y0289483D02*
X0077762Y0289483D01*
X0077678Y0287492D02*
X0075592Y0287492D01*
X0075588Y0287496D01*
X0075481Y0285560D02*
X0075515Y0285527D01*
X0077747Y0285527D01*
X0077700Y0283563D02*
X0075529Y0283563D01*
X0075540Y0281598D02*
X0075526Y0281583D01*
X0075540Y0281598D02*
X0077681Y0281598D01*
X0077648Y0279656D02*
X0075599Y0279656D01*
X0075570Y0279685D01*
X0075342Y0277698D02*
X0075382Y0277658D01*
X0077751Y0277658D01*
X0077722Y0275730D02*
X0075357Y0275730D01*
X0075353Y0275726D01*
X0075371Y0273736D02*
X0077751Y0273736D01*
X0077685Y0271731D02*
X0075426Y0271731D01*
X0075419Y0271738D01*
X0071351Y0267611D02*
X0071345Y0267616D01*
X0071351Y0267611D02*
X0071351Y0265411D01*
X0069372Y0265390D02*
X0069372Y0267690D01*
X0069335Y0267727D01*
X0067431Y0267579D02*
X0067426Y0267585D01*
X0067431Y0267579D02*
X0067431Y0265390D01*
X0065453Y0265380D02*
X0065453Y0267574D01*
X0065506Y0267627D01*
X0063470Y0267659D02*
X0063438Y0267690D01*
X0063470Y0267659D02*
X0063470Y0265475D01*
X0061502Y0265412D02*
X0061502Y0267583D01*
X0061508Y0267589D01*
X0059566Y0267557D02*
X0059560Y0267551D01*
X0059560Y0265393D01*
X0057586Y0265463D02*
X0057586Y0267653D01*
X0057592Y0267659D01*
X0055644Y0267742D02*
X0055625Y0267723D01*
X0055625Y0265444D01*
X0053632Y0265400D02*
X0053632Y0267659D01*
X0053651Y0267678D01*
X0049329Y0271757D02*
X0047346Y0271757D01*
X0047287Y0273724D02*
X0049429Y0273724D01*
X0049492Y0273788D01*
X0049698Y0275707D02*
X0049751Y0275760D01*
X0049698Y0275707D02*
X0047371Y0275707D01*
X0047329Y0277669D02*
X0049714Y0277669D01*
X0049720Y0277674D01*
X0049694Y0279647D02*
X0049689Y0279652D01*
X0047309Y0279652D01*
X0047359Y0281612D02*
X0049650Y0281612D01*
X0049664Y0281599D01*
X0049554Y0283577D02*
X0049540Y0283592D01*
X0047325Y0283592D01*
X0047278Y0285547D02*
X0049570Y0285547D01*
X0049623Y0285495D01*
X0049715Y0287518D02*
X0049741Y0287543D01*
X0049715Y0287518D02*
X0047328Y0287518D01*
X0047273Y0289468D02*
X0049580Y0289468D01*
X0049581Y0289469D01*
X0191023Y0289468D02*
X0193330Y0289468D01*
X0193331Y0289469D01*
X0193491Y0287543D02*
X0193465Y0287518D01*
X0191078Y0287518D01*
X0191028Y0285547D02*
X0193320Y0285547D01*
X0193373Y0285495D01*
X0193290Y0283592D02*
X0193304Y0283577D01*
X0193290Y0283592D02*
X0191075Y0283592D01*
X0191109Y0281612D02*
X0193400Y0281612D01*
X0193414Y0281599D01*
X0193439Y0279652D02*
X0193444Y0279647D01*
X0193439Y0279652D02*
X0191059Y0279652D01*
X0191079Y0277669D02*
X0193464Y0277669D01*
X0193470Y0277674D01*
X0193501Y0275760D02*
X0193448Y0275707D01*
X0191121Y0275707D01*
X0191037Y0273724D02*
X0193179Y0273724D01*
X0193242Y0273788D01*
X0193079Y0271757D02*
X0191096Y0271757D01*
X0197382Y0267659D02*
X0197401Y0267678D01*
X0197382Y0267659D02*
X0197382Y0265400D01*
X0199375Y0265444D02*
X0199375Y0267723D01*
X0199394Y0267742D01*
X0201336Y0267653D02*
X0201342Y0267659D01*
X0201336Y0267653D02*
X0201336Y0265463D01*
X0203310Y0265393D02*
X0203310Y0267551D01*
X0203316Y0267557D01*
X0205252Y0267583D02*
X0205258Y0267589D01*
X0205252Y0267583D02*
X0205252Y0265412D01*
X0207220Y0265475D02*
X0207220Y0267659D01*
X0207188Y0267690D01*
X0209203Y0267574D02*
X0209256Y0267627D01*
X0209203Y0267574D02*
X0209203Y0265380D01*
X0211181Y0265390D02*
X0211181Y0267579D01*
X0211176Y0267585D01*
X0213085Y0267727D02*
X0213122Y0267690D01*
X0213122Y0265390D01*
X0215101Y0265411D02*
X0215101Y0267611D01*
X0215095Y0267616D01*
X0219176Y0271731D02*
X0219169Y0271738D01*
X0219176Y0271731D02*
X0221435Y0271731D01*
X0221501Y0273736D02*
X0219121Y0273736D01*
X0219103Y0275726D02*
X0219107Y0275730D01*
X0221472Y0275730D01*
X0221501Y0277658D02*
X0219132Y0277658D01*
X0219092Y0277698D01*
X0219349Y0279656D02*
X0219320Y0279685D01*
X0219349Y0279656D02*
X0221398Y0279656D01*
X0221431Y0281598D02*
X0219290Y0281598D01*
X0219276Y0281583D01*
X0219279Y0283563D02*
X0221450Y0283563D01*
X0221497Y0285527D02*
X0219265Y0285527D01*
X0219231Y0285560D01*
X0219342Y0287492D02*
X0219338Y0287496D01*
X0219342Y0287492D02*
X0221428Y0287492D01*
X0221512Y0289483D02*
X0219577Y0289483D01*
X0219569Y0289474D01*
X0215095Y0293382D02*
X0215051Y0293337D01*
X0215095Y0293382D02*
X0215095Y0295850D01*
X0213172Y0295920D02*
X0213172Y0293547D01*
X0213128Y0293502D01*
X0211173Y0293407D02*
X0211167Y0293413D01*
X0211167Y0295768D01*
X0209187Y0295781D02*
X0209187Y0293489D01*
X0209148Y0293451D01*
X0207194Y0293477D02*
X0207137Y0293420D01*
X0207194Y0293477D02*
X0207194Y0295800D01*
X0205258Y0295768D02*
X0205258Y0293426D01*
X0205182Y0293350D01*
X0203278Y0293407D02*
X0203252Y0293382D01*
X0203278Y0293407D02*
X0203278Y0295863D01*
X0201336Y0295768D02*
X0201336Y0293388D01*
X0201298Y0293350D01*
X0199340Y0293369D02*
X0199340Y0295775D01*
X0197383Y0295839D02*
X0197383Y0293380D01*
X0197351Y0293348D01*
X0336023Y0289468D02*
X0338330Y0289468D01*
X0338331Y0289469D01*
X0338491Y0287543D02*
X0338465Y0287518D01*
X0336078Y0287518D01*
X0336028Y0285547D02*
X0338320Y0285547D01*
X0338373Y0285495D01*
X0338290Y0283592D02*
X0338304Y0283577D01*
X0338290Y0283592D02*
X0336075Y0283592D01*
X0336109Y0281612D02*
X0338400Y0281612D01*
X0338414Y0281599D01*
X0338439Y0279652D02*
X0338444Y0279647D01*
X0338439Y0279652D02*
X0336059Y0279652D01*
X0336079Y0277669D02*
X0338464Y0277669D01*
X0338470Y0277674D01*
X0338501Y0275760D02*
X0338448Y0275707D01*
X0336121Y0275707D01*
X0336037Y0273724D02*
X0338179Y0273724D01*
X0338242Y0273788D01*
X0338079Y0271757D02*
X0336096Y0271757D01*
X0342382Y0267659D02*
X0342401Y0267678D01*
X0342382Y0267659D02*
X0342382Y0265400D01*
X0344375Y0265444D02*
X0344375Y0267723D01*
X0344394Y0267742D01*
X0346336Y0267653D02*
X0346342Y0267659D01*
X0346336Y0267653D02*
X0346336Y0265463D01*
X0348310Y0265393D02*
X0348310Y0267551D01*
X0348316Y0267557D01*
X0350252Y0267583D02*
X0350258Y0267589D01*
X0350252Y0267583D02*
X0350252Y0265412D01*
X0352220Y0265475D02*
X0352220Y0267659D01*
X0352188Y0267690D01*
X0354203Y0267574D02*
X0354256Y0267627D01*
X0354203Y0267574D02*
X0354203Y0265380D01*
X0356181Y0265390D02*
X0356181Y0267579D01*
X0356176Y0267585D01*
X0358085Y0267727D02*
X0358122Y0267690D01*
X0358122Y0265390D01*
X0360101Y0265411D02*
X0360101Y0267611D01*
X0360095Y0267616D01*
X0364176Y0271731D02*
X0364169Y0271738D01*
X0364176Y0271731D02*
X0366435Y0271731D01*
X0366501Y0273736D02*
X0364121Y0273736D01*
X0364103Y0275726D02*
X0364107Y0275730D01*
X0366472Y0275730D01*
X0366501Y0277658D02*
X0364132Y0277658D01*
X0364092Y0277698D01*
X0364349Y0279656D02*
X0364320Y0279685D01*
X0364349Y0279656D02*
X0366398Y0279656D01*
X0366431Y0281598D02*
X0364290Y0281598D01*
X0364276Y0281583D01*
X0364279Y0283563D02*
X0366450Y0283563D01*
X0366497Y0285527D02*
X0364265Y0285527D01*
X0364231Y0285560D01*
X0364342Y0287492D02*
X0364338Y0287496D01*
X0364342Y0287492D02*
X0366428Y0287492D01*
X0366512Y0289483D02*
X0364577Y0289483D01*
X0364569Y0289474D01*
X0360095Y0293382D02*
X0360051Y0293337D01*
X0360095Y0293382D02*
X0360095Y0295850D01*
X0358172Y0295920D02*
X0358172Y0293547D01*
X0358128Y0293502D01*
X0356173Y0293407D02*
X0356167Y0293413D01*
X0356167Y0295768D01*
X0354187Y0295781D02*
X0354187Y0293489D01*
X0354148Y0293451D01*
X0352194Y0293477D02*
X0352137Y0293420D01*
X0352194Y0293477D02*
X0352194Y0295800D01*
X0350258Y0295768D02*
X0350258Y0293426D01*
X0350182Y0293350D01*
X0348278Y0293407D02*
X0348252Y0293382D01*
X0348278Y0293407D02*
X0348278Y0295863D01*
X0346336Y0295768D02*
X0346336Y0293388D01*
X0346298Y0293350D01*
X0344340Y0293369D02*
X0344340Y0295775D01*
X0342383Y0295839D02*
X0342383Y0293380D01*
X0342351Y0293348D01*
X0310059Y0126469D02*
X0310059Y0124162D01*
X0310060Y0124161D01*
X0308135Y0124001D02*
X0308109Y0124026D01*
X0308109Y0126413D01*
X0306139Y0126464D02*
X0306139Y0124172D01*
X0306086Y0124119D01*
X0304184Y0124202D02*
X0304169Y0124187D01*
X0304184Y0124202D02*
X0304184Y0126416D01*
X0302204Y0126383D02*
X0302204Y0124091D01*
X0302191Y0124078D01*
X0300244Y0124053D02*
X0300238Y0124048D01*
X0300244Y0124053D02*
X0300244Y0126433D01*
X0298261Y0126412D02*
X0298261Y0124027D01*
X0298266Y0124022D01*
X0296352Y0123990D02*
X0296299Y0124043D01*
X0296299Y0126370D01*
X0294316Y0126455D02*
X0294316Y0124313D01*
X0294379Y0124250D01*
X0292349Y0124413D02*
X0292349Y0126396D01*
X0288251Y0120110D02*
X0288270Y0120091D01*
X0288251Y0120110D02*
X0285991Y0120110D01*
X0286036Y0118117D02*
X0288314Y0118117D01*
X0288333Y0118098D01*
X0288244Y0116156D02*
X0288251Y0116150D01*
X0288244Y0116156D02*
X0286055Y0116156D01*
X0285985Y0114182D02*
X0288143Y0114182D01*
X0288149Y0114176D01*
X0288175Y0112240D02*
X0288181Y0112234D01*
X0288175Y0112240D02*
X0286004Y0112240D01*
X0286066Y0110272D02*
X0288250Y0110272D01*
X0288282Y0110303D01*
X0288166Y0108288D02*
X0288219Y0108235D01*
X0288166Y0108288D02*
X0285971Y0108288D01*
X0285982Y0106310D02*
X0288171Y0106310D01*
X0288176Y0106315D01*
X0288319Y0104406D02*
X0288282Y0104369D01*
X0285982Y0104369D01*
X0286003Y0102391D02*
X0288203Y0102391D01*
X0288208Y0102396D01*
X0292330Y0098323D02*
X0292323Y0098315D01*
X0292323Y0096057D01*
X0294328Y0095991D02*
X0294328Y0098370D01*
X0296318Y0098389D02*
X0296322Y0098385D01*
X0296322Y0096020D01*
X0298250Y0095991D02*
X0298250Y0098359D01*
X0298290Y0098400D01*
X0300247Y0098143D02*
X0300277Y0098172D01*
X0300247Y0098143D02*
X0300247Y0096093D01*
X0302190Y0096060D02*
X0302190Y0098201D01*
X0302175Y0098216D01*
X0304154Y0098212D02*
X0304154Y0096042D01*
X0306119Y0095994D02*
X0306119Y0098227D01*
X0306152Y0098260D01*
X0308084Y0098150D02*
X0308087Y0098154D01*
X0308084Y0098150D02*
X0308084Y0096064D01*
X0310074Y0095980D02*
X0310074Y0097914D01*
X0310066Y0097923D01*
X0313973Y0102396D02*
X0313929Y0102441D01*
X0313973Y0102396D02*
X0316442Y0102396D01*
X0316512Y0104319D02*
X0314138Y0104319D01*
X0314094Y0104364D01*
X0313999Y0106319D02*
X0314005Y0106325D01*
X0316359Y0106325D01*
X0316372Y0108305D02*
X0314081Y0108305D01*
X0314043Y0108343D01*
X0314068Y0110298D02*
X0314011Y0110355D01*
X0314068Y0110298D02*
X0316391Y0110298D01*
X0316359Y0112234D02*
X0314018Y0112234D01*
X0313941Y0112310D01*
X0313999Y0114214D02*
X0313973Y0114239D01*
X0313999Y0114214D02*
X0316455Y0114214D01*
X0316359Y0116156D02*
X0313980Y0116156D01*
X0313941Y0116194D01*
X0313961Y0118152D02*
X0316367Y0118152D01*
X0316430Y0120109D02*
X0313971Y0120109D01*
X0313940Y0120141D01*
D29*
X0658343Y0215611D03*
X0658343Y0218170D03*
X0658343Y0220730D03*
X0658343Y0223289D03*
X0677240Y0223289D03*
X0677240Y0220730D03*
X0677240Y0218170D03*
X0677240Y0215611D03*
X0813343Y0982361D03*
X0813343Y0984920D03*
X0813343Y0987480D03*
X0813343Y0990039D03*
X0832240Y0990039D03*
X0832240Y0987480D03*
X0832240Y0984920D03*
X0832240Y0982361D03*
D30*
X0890292Y0961712D03*
X0890292Y0950688D03*
X0892792Y1043188D03*
X0892792Y1054212D03*
X0880292Y1054212D03*
X0880292Y1043188D03*
X0600292Y0254962D03*
X0600292Y0243938D03*
X0597792Y0162462D03*
X0597792Y0151438D03*
X0610292Y0151438D03*
X0610292Y0162462D03*
D31*
X0605803Y0206950D03*
X0594780Y0206950D03*
X0884780Y0998700D03*
X0895803Y0998700D03*
D32*
X0677693Y0998621D03*
X0677693Y0996653D03*
X0677693Y0994684D03*
X0677693Y0992716D03*
X0677693Y1000590D03*
X0660882Y1000590D03*
X0660882Y0998621D03*
X0660882Y0996653D03*
X0660882Y0994684D03*
X0660882Y0992716D03*
X0812890Y0212934D03*
X0812890Y0210966D03*
X0812890Y0208997D03*
X0812890Y0207029D03*
X0812890Y0205060D03*
X0829701Y0205060D03*
X0829701Y0207029D03*
X0829701Y0208997D03*
X0829701Y0210966D03*
X0829701Y0212934D03*
D33*
X0724042Y0220926D03*
X0724042Y0242974D03*
X0766542Y0962676D03*
X0766542Y0984724D03*
D34*
X0751847Y0981062D03*
X0733737Y0981062D03*
X0738737Y0224588D03*
X0756847Y0224588D03*
X0430272Y0122987D03*
X0412162Y0122987D03*
X0399022Y0122987D03*
X0380912Y0122987D03*
X0367147Y0122987D03*
X0349037Y0122987D03*
X0350287Y0054237D03*
X0368397Y0054237D03*
X0380912Y0054237D03*
X0399022Y0054237D03*
X0412787Y0054237D03*
X0430897Y0054237D03*
D35*
X0567673Y0163210D03*
X0567673Y0170690D03*
X0577910Y0170690D03*
X0577910Y0166950D03*
X0577910Y0163210D03*
X0582910Y0210710D03*
X0582910Y0214450D03*
X0582910Y0218190D03*
X0572673Y0218190D03*
X0572673Y0210710D03*
X0907673Y0987460D03*
X0907673Y0991200D03*
X0907673Y0994940D03*
X0917910Y0994940D03*
X0917910Y0987460D03*
X0922910Y1034960D03*
X0922910Y1042440D03*
X0912673Y1042440D03*
X0912673Y1038700D03*
X0912673Y1034960D03*
D36*
X0624544Y1028936D03*
X0624544Y1014172D03*
X0624544Y0999409D03*
X0624544Y0984645D03*
X0624544Y1043700D03*
X0535292Y1043700D03*
X0535292Y1028936D03*
X0535292Y1014172D03*
X0535292Y0999409D03*
X0535292Y0984645D03*
X0866040Y0221005D03*
X0866040Y0206241D03*
X0866040Y0191478D03*
X0866040Y0176714D03*
X0866040Y0161950D03*
X0955292Y0161950D03*
X0955292Y0176714D03*
X0955292Y0191478D03*
X0955292Y0206241D03*
X0955292Y0221005D03*
D37*
X0943742Y0264450D03*
X0943742Y0274450D03*
X0943742Y0284450D03*
X0943742Y0294450D03*
X0943742Y0304450D03*
X0943742Y0314450D03*
X0943742Y0324450D03*
X0943742Y0334450D03*
X0943742Y0344450D03*
X0943742Y0354450D03*
X0943742Y0364450D03*
X0943742Y0374450D03*
X0943742Y0384450D03*
X0943742Y0394450D03*
X0943742Y0404450D03*
X0943742Y0414450D03*
X0943742Y0424450D03*
X0943742Y0434450D03*
X0943742Y0444450D03*
X0943742Y0454450D03*
X0971842Y0454450D03*
X0971842Y0444450D03*
X0971842Y0434450D03*
X0971842Y0424450D03*
X0971842Y0414450D03*
X0971842Y0404450D03*
X0971842Y0394450D03*
X0971842Y0384450D03*
X0971842Y0374450D03*
X0971842Y0364450D03*
X0971842Y0354450D03*
X0971842Y0344450D03*
X0971842Y0334450D03*
X0971842Y0324450D03*
X0971842Y0314450D03*
X0971842Y0304450D03*
X0971842Y0294450D03*
X0971842Y0284450D03*
X0971842Y0274450D03*
X0971842Y0264450D03*
X0830592Y0264450D03*
X0830592Y0274450D03*
X0830592Y0284450D03*
X0830592Y0294450D03*
X0830592Y0304450D03*
X0830592Y0314450D03*
X0830592Y0324450D03*
X0830592Y0334450D03*
X0830592Y0344450D03*
X0830592Y0354450D03*
X0830592Y0364450D03*
X0830592Y0374450D03*
X0830592Y0384450D03*
X0830592Y0394450D03*
X0830592Y0404450D03*
X0830592Y0414450D03*
X0830592Y0424450D03*
X0830592Y0434450D03*
X0830592Y0444450D03*
X0830592Y0454450D03*
X0802492Y0454450D03*
X0802492Y0444450D03*
X0802492Y0434450D03*
X0802492Y0424450D03*
X0802492Y0414450D03*
X0802492Y0404450D03*
X0802492Y0394450D03*
X0802492Y0384450D03*
X0802492Y0374450D03*
X0802492Y0364450D03*
X0802492Y0354450D03*
X0802492Y0344450D03*
X0802492Y0334450D03*
X0802492Y0324450D03*
X0802492Y0314450D03*
X0802492Y0304450D03*
X0802492Y0294450D03*
X0802492Y0284450D03*
X0802492Y0274450D03*
X0802492Y0264450D03*
X0689342Y0264450D03*
X0689342Y0274450D03*
X0689342Y0284450D03*
X0689342Y0294450D03*
X0689342Y0304450D03*
X0689342Y0314450D03*
X0689342Y0324450D03*
X0689342Y0334450D03*
X0689342Y0344450D03*
X0689342Y0354450D03*
X0689342Y0364450D03*
X0689342Y0374450D03*
X0689342Y0384450D03*
X0689342Y0394450D03*
X0689342Y0404450D03*
X0689342Y0414450D03*
X0689342Y0424450D03*
X0689342Y0434450D03*
X0689342Y0444450D03*
X0689342Y0454450D03*
X0661242Y0454450D03*
X0661242Y0444450D03*
X0661242Y0434450D03*
X0661242Y0424450D03*
X0661242Y0414450D03*
X0661242Y0404450D03*
X0661242Y0394450D03*
X0661242Y0384450D03*
X0661242Y0374450D03*
X0661242Y0364450D03*
X0661242Y0354450D03*
X0661242Y0344450D03*
X0661242Y0334450D03*
X0661242Y0324450D03*
X0661242Y0314450D03*
X0661242Y0304450D03*
X0661242Y0294450D03*
X0661242Y0284450D03*
X0661242Y0274450D03*
X0661242Y0264450D03*
X0548092Y0264450D03*
X0548092Y0274450D03*
X0548092Y0284450D03*
X0548092Y0294450D03*
X0548092Y0304450D03*
X0548092Y0314450D03*
X0548092Y0324450D03*
X0548092Y0334450D03*
X0548092Y0344450D03*
X0548092Y0354450D03*
X0548092Y0364450D03*
X0548092Y0374450D03*
X0548092Y0384450D03*
X0548092Y0394450D03*
X0548092Y0404450D03*
X0548092Y0414450D03*
X0548092Y0424450D03*
X0548092Y0434450D03*
X0548092Y0444450D03*
X0548092Y0454450D03*
X0519992Y0454450D03*
X0519992Y0444450D03*
X0519992Y0434450D03*
X0519992Y0424450D03*
X0519992Y0414450D03*
X0519992Y0404450D03*
X0519992Y0394450D03*
X0519992Y0384450D03*
X0519992Y0374450D03*
X0519992Y0364450D03*
X0519992Y0354450D03*
X0519992Y0344450D03*
X0519992Y0334450D03*
X0519992Y0324450D03*
X0519992Y0314450D03*
X0519992Y0304450D03*
X0519992Y0294450D03*
X0519992Y0284450D03*
X0519992Y0274450D03*
X0519992Y0264450D03*
X0518742Y0751200D03*
X0518742Y0761200D03*
X0518742Y0771200D03*
X0518742Y0781200D03*
X0518742Y0791200D03*
X0518742Y0801200D03*
X0518742Y0811200D03*
X0518742Y0821200D03*
X0518742Y0831200D03*
X0518742Y0841200D03*
X0518742Y0851200D03*
X0518742Y0861200D03*
X0518742Y0871200D03*
X0518742Y0881200D03*
X0518742Y0891200D03*
X0518742Y0901200D03*
X0518742Y0911200D03*
X0518742Y0921200D03*
X0518742Y0931200D03*
X0518742Y0941200D03*
X0546842Y0941200D03*
X0546842Y0931200D03*
X0546842Y0921200D03*
X0546842Y0911200D03*
X0546842Y0901200D03*
X0546842Y0891200D03*
X0546842Y0881200D03*
X0546842Y0871200D03*
X0546842Y0861200D03*
X0546842Y0851200D03*
X0546842Y0841200D03*
X0546842Y0831200D03*
X0546842Y0821200D03*
X0546842Y0811200D03*
X0546842Y0801200D03*
X0546842Y0791200D03*
X0546842Y0781200D03*
X0546842Y0771200D03*
X0546842Y0761200D03*
X0546842Y0751200D03*
X0659992Y0751200D03*
X0659992Y0761200D03*
X0659992Y0771200D03*
X0659992Y0781200D03*
X0659992Y0791200D03*
X0659992Y0801200D03*
X0659992Y0811200D03*
X0659992Y0821200D03*
X0659992Y0831200D03*
X0659992Y0841200D03*
X0659992Y0851200D03*
X0659992Y0861200D03*
X0659992Y0871200D03*
X0659992Y0881200D03*
X0659992Y0891200D03*
X0659992Y0901200D03*
X0659992Y0911200D03*
X0659992Y0921200D03*
X0659992Y0931200D03*
X0659992Y0941200D03*
X0688092Y0941200D03*
X0688092Y0931200D03*
X0688092Y0921200D03*
X0688092Y0911200D03*
X0688092Y0901200D03*
X0688092Y0891200D03*
X0688092Y0881200D03*
X0688092Y0871200D03*
X0688092Y0861200D03*
X0688092Y0851200D03*
X0688092Y0841200D03*
X0688092Y0831200D03*
X0688092Y0821200D03*
X0688092Y0811200D03*
X0688092Y0801200D03*
X0688092Y0791200D03*
X0688092Y0781200D03*
X0688092Y0771200D03*
X0688092Y0761200D03*
X0688092Y0751200D03*
X0801242Y0751200D03*
X0801242Y0761200D03*
X0801242Y0771200D03*
X0801242Y0781200D03*
X0801242Y0791200D03*
X0801242Y0801200D03*
X0801242Y0811200D03*
X0801242Y0821200D03*
X0801242Y0831200D03*
X0801242Y0841200D03*
X0801242Y0851200D03*
X0801242Y0861200D03*
X0801242Y0871200D03*
X0801242Y0881200D03*
X0801242Y0891200D03*
X0801242Y0901200D03*
X0801242Y0911200D03*
X0801242Y0921200D03*
X0801242Y0931200D03*
X0801242Y0941200D03*
X0829342Y0941200D03*
X0829342Y0931200D03*
X0829342Y0921200D03*
X0829342Y0911200D03*
X0829342Y0901200D03*
X0829342Y0891200D03*
X0829342Y0881200D03*
X0829342Y0871200D03*
X0829342Y0861200D03*
X0829342Y0851200D03*
X0829342Y0841200D03*
X0829342Y0831200D03*
X0829342Y0821200D03*
X0829342Y0811200D03*
X0829342Y0801200D03*
X0829342Y0791200D03*
X0829342Y0781200D03*
X0829342Y0771200D03*
X0829342Y0761200D03*
X0829342Y0751200D03*
X0942492Y0751200D03*
X0942492Y0761200D03*
X0942492Y0771200D03*
X0942492Y0781200D03*
X0942492Y0791200D03*
X0942492Y0801200D03*
X0942492Y0811200D03*
X0942492Y0821200D03*
X0942492Y0831200D03*
X0942492Y0841200D03*
X0942492Y0851200D03*
X0942492Y0861200D03*
X0942492Y0871200D03*
X0942492Y0881200D03*
X0942492Y0891200D03*
X0942492Y0901200D03*
X0942492Y0911200D03*
X0942492Y0921200D03*
X0942492Y0931200D03*
X0942492Y0941200D03*
X0970592Y0941200D03*
X0970592Y0931200D03*
X0970592Y0921200D03*
X0970592Y0911200D03*
X0970592Y0901200D03*
X0970592Y0891200D03*
X0970592Y0881200D03*
X0970592Y0871200D03*
X0970592Y0861200D03*
X0970592Y0851200D03*
X0970592Y0841200D03*
X0970592Y0831200D03*
X0970592Y0821200D03*
X0970592Y0811200D03*
X0970592Y0801200D03*
X0970592Y0791200D03*
X0970592Y0781200D03*
X0970592Y0771200D03*
X0970592Y0761200D03*
X0970592Y0751200D03*
D38*
X0862792Y0675250D03*
X0852792Y0675250D03*
X0842792Y0675250D03*
X0832792Y0675250D03*
X0822792Y0675250D03*
X0812792Y0675250D03*
X0802792Y0675250D03*
X0792792Y0675250D03*
X0782792Y0675250D03*
X0772792Y0675250D03*
X0762792Y0675250D03*
X0752792Y0675250D03*
X0742792Y0675250D03*
X0732792Y0675250D03*
X0722792Y0675250D03*
X0712792Y0675250D03*
X0702792Y0675250D03*
X0692792Y0675250D03*
X0682792Y0675250D03*
X0672792Y0675250D03*
X0672792Y0647150D03*
X0682792Y0647150D03*
X0692792Y0647150D03*
X0702792Y0647150D03*
X0712792Y0647150D03*
X0722792Y0647150D03*
X0732792Y0647150D03*
X0742792Y0647150D03*
X0752792Y0647150D03*
X0762792Y0647150D03*
X0772792Y0647150D03*
X0782792Y0647150D03*
X0792792Y0647150D03*
X0802792Y0647150D03*
X0812792Y0647150D03*
X0822792Y0647150D03*
X0832792Y0647150D03*
X0842792Y0647150D03*
X0852792Y0647150D03*
X0862792Y0647150D03*
X0817792Y0558500D03*
X0807792Y0558500D03*
X0797792Y0558500D03*
X0787792Y0558500D03*
X0777792Y0558500D03*
X0767792Y0558500D03*
X0757792Y0558500D03*
X0747792Y0558500D03*
X0737792Y0558500D03*
X0727792Y0558500D03*
X0717792Y0558500D03*
X0707792Y0558500D03*
X0697792Y0558500D03*
X0687792Y0558500D03*
X0677792Y0558500D03*
X0667792Y0558500D03*
X0657792Y0558500D03*
X0647792Y0558500D03*
X0637792Y0558500D03*
X0627792Y0558500D03*
X0627792Y0530400D03*
X0637792Y0530400D03*
X0647792Y0530400D03*
X0657792Y0530400D03*
X0667792Y0530400D03*
X0677792Y0530400D03*
X0687792Y0530400D03*
X0697792Y0530400D03*
X0707792Y0530400D03*
X0717792Y0530400D03*
X0727792Y0530400D03*
X0737792Y0530400D03*
X0747792Y0530400D03*
X0757792Y0530400D03*
X0767792Y0530400D03*
X0777792Y0530400D03*
X0787792Y0530400D03*
X0797792Y0530400D03*
X0807792Y0530400D03*
X0817792Y0530400D03*
D39*
X0989347Y0419450D03*
X0989347Y0409450D03*
X0989347Y0399450D03*
X0989347Y0389450D03*
X0989347Y0374450D03*
X0989347Y0364450D03*
X0989347Y0354450D03*
X0989347Y0344450D03*
X0501237Y0294450D03*
X0501237Y0284450D03*
X0501237Y0274450D03*
X0501237Y0264450D03*
X0501237Y0786200D03*
X0501237Y0796200D03*
X0501237Y0806200D03*
X0501237Y0816200D03*
X0501237Y0831200D03*
X0501237Y0841200D03*
X0501237Y0851200D03*
X0501237Y0861200D03*
X0989347Y0911200D03*
X0989347Y0921200D03*
X0989347Y0931200D03*
X0989347Y0941200D03*
D40*
X0335492Y0047132D03*
X0314232Y0047132D03*
X0299655Y0047064D03*
X0278395Y0047064D03*
D41*
X0316487Y0065733D03*
X0332629Y0065733D03*
D42*
X0309642Y0142775D03*
X0309642Y0151875D03*
X0309642Y0160975D03*
D43*
X0334042Y0151875D03*
D44*
X0218431Y0075207D03*
X0200715Y0075207D03*
X0200715Y0037805D03*
X0218431Y0037805D03*
M02*
