  0
SECTION
  2
HEADER
  9
$ACADVER
  1
AC1009
  9
$FILLMODE
 70
1
  9
$EXTMIN
 10
-18.8671
 20
-21.7119
 30
0.0000
  9
$EXTMAX
 10
165.9077
 20
160.9344
 30
0.0000
  0
ENDSEC
  0
SECTION
  2
TABLES
  0
TABLE
  2
LTYPE
 70
1
  0
LTYPE
  2
CONTINUOUS
 70
64
  3
Solid line
 72
65
 73
0
 40
0
  0
ENDTAB
  0
TABLE
  2
LAYER
 70
255
  0
LAYER
  2
20
 70
64
 62
53
  6
CONTINUOUS
  0
ENDTAB
  0
ENDSEC
  0
SECTION
  2
BLOCKS
  0
BLOCK
  8
0
  2
RECT
 70
64
 10
0.0000
 20
0.0000
 30
0.0000
  3
RECT
  0
SOLID
  8
0
 10
-0.5000
 20
-0.5000
 30
0.0000
 11
0.5000
 21
-0.5000
 31
0.0000
 12
-0.5000
 22
0.5000
 32
0.0000
 13
0.5000
 23
0.5000
 33
0.0000
  0
ENDBLK
  8
0
  0
BLOCK
  8
0
  2
PIE
 70
64
 10
0.0000
 20
0.0000
 30
0.0000
  3
PIE
  0
POLYLINE
  8
0
 66
1
 10
0.0000
 20
0.0000
 30
0.0000
 40
0.5000
 41
0.5000
 70
0
  0
VERTEX
  8
0
 10
0.0000
 20
-0.2500
 30
0.0000
 42
1.0000
  0
VERTEX
  8
0
 10
0.0000
 20
0.2500
 30
0.0000
 42
1.0000
  0
VERTEX
  8
0
 10
0.0000
 20
-0.2500
 30
0.0000
  0
SEQEND
  8
0
  0
ENDBLK
  8
0
  0
BLOCK
  8
0
  2
OCTAGONP
 70
64
 10
0.0000
 20
0.0000
 30
0.0000
  3
OCTAGONP
  0
POLYLINE
  8
0
 66
1
 10
0.0000
 20
0.0000
 30
0.0000
 40
0.5000
 41
0.5000
 70
0
  0
VERTEX
  8
0
 10
-0.2500
 20
-0.1036
 30
0.0000
  0
VERTEX
  8
0
 10
-0.2500
 20
0.1036
 30
0.0000
  0
VERTEX
  8
0
 10
-0.1036
 20
0.2500
 30
0.0000
  0
VERTEX
  8
0
 10
0.1036
 20
0.2500
 30
0.0000
  0
VERTEX
  8
0
 10
0.2500
 20
0.1036
 30
0.0000
  0
VERTEX
  8
0
 10
0.2500
 20
-0.1036
 30
0.0000
  0
VERTEX
  8
0
 10
0.1036
 20
-0.2500
 30
0.0000
  0
VERTEX
  8
0
 10
-0.1036
 20
-0.2500
 30
0.0000
  0
VERTEX
  8
0
 10
-0.2500
 20
-0.1036
 30
0.0000
  0
VERTEX
  8
0
 10
-0.2500
 20
0.1036
 30
0.0000
  0
SEQEND
  8
0
  0
ENDBLK
  8
0
  0
BLOCK
  8
0
  2
SQUAREP
 70
64
 10
0.0000
 20
0.0000
 30
0.0000
  3
SQUAREP
  0
SOLID
  8
0
 10
-0.5000
 20
-0.5000
 30
0.0000
 11
0.5000
 21
-0.5000
 31
0.0000
 12
-0.5000
 22
0.5000
 32
0.0000
 13
0.5000
 23
0.5000
 33
0.0000
  0
ENDBLK
  8
0
  0
BLOCK
  8
0
  2
ROUNDP
 70
64
 10
0.0000
 20
0.0000
 30
0.0000
  3
ROUNDP
  0
POLYLINE
  8
0
 66
1
 10
0.0000
 20
0.0000
 30
0.0000
 40
0.5000
 41
0.5000
 70
0
  0
VERTEX
  8
0
 10
0.0000
 20
-0.2500
 30
0.0000
 42
1.0000
  0
VERTEX
  8
0
 10
0.0000
 20
0.2500
 30
0.0000
 42
1.0000
  0
VERTEX
  8
0
 10
0.0000
 20
-0.2500
 30
0.0000
  0
SEQEND
  8
0
  0
ENDBLK
  8
0
  0
BLOCK
  8
0
  2
ANNULUSP
 70
64
 10
0.0000
 20
0.0000
 30
0.0000
  3
ANNULUSP
  0
POLYLINE
  8
0
 66
1
 10
0.0000
 20
0.0000
 30
0.0000
 40
0.5000
 41
0.5000
 70
0
  0
VERTEX
  8
0
 10
0.0000
 20
-0.2500
 30
0.0000
 42
1.0000
  0
VERTEX
  8
0
 10
0.0000
 20
0.2500
 30
0.0000
 42
1.0000
  0
VERTEX
  8
0
 10
0.0000
 20
-0.2500
 30
0.0000
  0
SEQEND
  8
0
  0
ENDBLK
  8
0
  0
BLOCK
  8
0
  2
THERMALP
 70
64
 10
0.0000
 20
0.0000
 30
0.0000
  3
THERMALP
  0
POLYLINE
  8
0
 66
1
 10
0.0000
 20
0.0000
 30
0.0000
 40
0.1000
 41
0.1000
 70
0
  0
VERTEX
  8
0
 10
-0.2379
 20
0.4500
 30
0.0000
  0
VERTEX
  8
0
 10
0.2379
 20
0.4500
 30
0.0000
  0
SEQEND
  8
0
  0
POLYLINE
  8
0
 66
1
 10
0.0000
 20
0.0000
 30
0.0000
 40
0.0500
 41
0.0500
 70
0
  0
VERTEX
  8
0
 10
0.2379
 20
0.4250
 30
0.0000
 42
1.0000
  0
VERTEX
  8
0
 10
0.2379
 20
0.4750
 30
0.0000
  0
SEQEND
  8
0
  0
POLYLINE
  8
0
 66
1
 10
0.0000
 20
0.0000
 30
0.0000
 40
0.0500
 41
0.0500
 70
0
  0
VERTEX
  8
0
 10
-0.2379
 20
0.4750
 30
0.0000
 42
1.0000
  0
VERTEX
  8
0
 10
-0.2379
 20
0.4250
 30
0.0000
  0
SEQEND
  8
0
  0
POLYLINE
  8
0
 66
1
 10
0.0000
 20
0.0000
 30
0.0000
 40
0.1000
 41
0.1000
 70
0
  0
VERTEX
  8
0
 10
0.4500
 20
0.2379
 30
0.0000
  0
VERTEX
  8
0
 10
0.4500
 20
-0.2379
 30
0.0000
  0
SEQEND
  8
0
  0
POLYLINE
  8
0
 66
1
 10
0.0000
 20
0.0000
 30
0.0000
 40
0.0500
 41
0.0500
 70
0
  0
VERTEX
  8
0
 10
0.4250
 20
-0.2379
 30
0.0000
 42
1.0000
  0
VERTEX
  8
0
 10
0.4750
 20
-0.2379
 30
0.0000
  0
SEQEND
  8
0
  0
POLYLINE
  8
0
 66
1
 10
0.0000
 20
0.0000
 30
0.0000
 40
0.0500
 41
0.0500
 70
0
  0
VERTEX
  8
0
 10
0.4750
 20
0.2379
 30
0.0000
 42
1.0000
  0
VERTEX
  8
0
 10
0.4250
 20
0.2379
 30
0.0000
  0
SEQEND
  8
0
  0
POLYLINE
  8
0
 66
1
 10
0.0000
 20
0.0000
 30
0.0000
 40
0.1000
 41
0.1000
 70
0
  0
VERTEX
  8
0
 10
0.2379
 20
-0.4500
 30
0.0000
  0
VERTEX
  8
0
 10
-0.2379
 20
-0.4500
 30
0.0000
  0
SEQEND
  8
0
  0
POLYLINE
  8
0
 66
1
 10
0.0000
 20
0.0000
 30
0.0000
 40
0.0500
 41
0.0500
 70
0
  0
VERTEX
  8
0
 10
-0.2379
 20
-0.4250
 30
0.0000
 42
1.0000
  0
VERTEX
  8
0
 10
-0.2379
 20
-0.4750
 30
0.0000
  0
SEQEND
  8
0
  0
POLYLINE
  8
0
 66
1
 10
0.0000
 20
0.0000
 30
0.0000
 40
0.0500
 41
0.0500
 70
0
  0
VERTEX
  8
0
 10
0.2379
 20
-0.4750
 30
0.0000
 42
1.0000
  0
VERTEX
  8
0
 10
0.2379
 20
-0.4250
 30
0.0000
  0
SEQEND
  8
0
  0
POLYLINE
  8
0
 66
1
 10
0.0000
 20
0.0000
 30
0.0000
 40
0.1000
 41
0.1000
 70
0
  0
VERTEX
  8
0
 10
-0.4500
 20
-0.2379
 30
0.0000
  0
VERTEX
  8
0
 10
-0.4500
 20
0.2379
 30
0.0000
  0
SEQEND
  8
0
  0
POLYLINE
  8
0
 66
1
 10
0.0000
 20
0.0000
 30
0.0000
 40
0.0500
 41
0.0500
 70
0
  0
VERTEX
  8
0
 10
-0.4250
 20
0.2379
 30
0.0000
 42
1.0000
  0
VERTEX
  8
0
 10
-0.4750
 20
0.2379
 30
0.0000
  0
SEQEND
  8
0
  0
POLYLINE
  8
0
 66
1
 10
0.0000
 20
0.0000
 30
0.0000
 40
0.0500
 41
0.0500
 70
0
  0
VERTEX
  8
0
 10
-0.4750
 20
-0.2379
 30
0.0000
 42
1.0000
  0
VERTEX
  8
0
 10
-0.4250
 20
-0.2379
 30
0.0000
  0
SEQEND
  8
0
  0
ENDBLK
  8
0
  0
BLOCK
  8
0
  2
OCTAGONV
 70
64
 10
0.0000
 20
0.0000
 30
0.0000
  3
OCTAGONV
  0
POLYLINE
  8
0
 66
1
 10
0.0000
 20
0.0000
 30
0.0000
 40
0.5000
 41
0.5000
 70
0
  0
VERTEX
  8
0
 10
-0.2500
 20
-0.1036
 30
0.0000
  0
VERTEX
  8
0
 10
-0.2500
 20
0.1036
 30
0.0000
  0
VERTEX
  8
0
 10
-0.1036
 20
0.2500
 30
0.0000
  0
VERTEX
  8
0
 10
0.1036
 20
0.2500
 30
0.0000
  0
VERTEX
  8
0
 10
0.2500
 20
0.1036
 30
0.0000
  0
VERTEX
  8
0
 10
0.2500
 20
-0.1036
 30
0.0000
  0
VERTEX
  8
0
 10
0.1036
 20
-0.2500
 30
0.0000
  0
VERTEX
  8
0
 10
-0.1036
 20
-0.2500
 30
0.0000
  0
VERTEX
  8
0
 10
-0.2500
 20
-0.1036
 30
0.0000
  0
VERTEX
  8
0
 10
-0.2500
 20
0.1036
 30
0.0000
  0
SEQEND
  8
0
  0
ENDBLK
  8
0
  0
BLOCK
  8
0
  2
SQUAREV
 70
64
 10
0.0000
 20
0.0000
 30
0.0000
  3
SQUAREV
  0
SOLID
  8
0
 10
-0.5000
 20
-0.5000
 30
0.0000
 11
0.5000
 21
-0.5000
 31
0.0000
 12
-0.5000
 22
0.5000
 32
0.0000
 13
0.5000
 23
0.5000
 33
0.0000
  0
ENDBLK
  8
0
  0
BLOCK
  8
0
  2
ROUNDV
 70
64
 10
0.0000
 20
0.0000
 30
0.0000
  3
ROUNDV
  0
POLYLINE
  8
0
 66
1
 10
0.0000
 20
0.0000
 30
0.0000
 40
0.5000
 41
0.5000
 70
0
  0
VERTEX
  8
0
 10
0.0000
 20
-0.2500
 30
0.0000
 42
1.0000
  0
VERTEX
  8
0
 10
0.0000
 20
0.2500
 30
0.0000
 42
1.0000
  0
VERTEX
  8
0
 10
0.0000
 20
-0.2500
 30
0.0000
  0
SEQEND
  8
0
  0
ENDBLK
  8
0
  0
BLOCK
  8
0
  2
ANNULUSV
 70
64
 10
0.0000
 20
0.0000
 30
0.0000
  3
ANNULUSV
  0
POLYLINE
  8
0
 66
1
 10
0.0000
 20
0.0000
 30
0.0000
 40
0.5000
 41
0.5000
 70
0
  0
VERTEX
  8
0
 10
0.0000
 20
-0.2500
 30
0.0000
 42
1.0000
  0
VERTEX
  8
0
 10
0.0000
 20
0.2500
 30
0.0000
 42
1.0000
  0
VERTEX
  8
0
 10
0.0000
 20
-0.2500
 30
0.0000
  0
SEQEND
  8
0
  0
ENDBLK
  8
0
  0
BLOCK
  8
0
  2
THERMALV
 70
64
 10
0.0000
 20
0.0000
 30
0.0000
  3
THERMALV
  0
POLYLINE
  8
0
 66
1
 10
0.0000
 20
0.0000
 30
0.0000
 40
0.1000
 41
0.1000
 70
0
  0
VERTEX
  8
0
 10
-0.2379
 20
0.4500
 30
0.0000
  0
VERTEX
  8
0
 10
0.2379
 20
0.4500
 30
0.0000
  0
SEQEND
  8
0
  0
POLYLINE
  8
0
 66
1
 10
0.0000
 20
0.0000
 30
0.0000
 40
0.0500
 41
0.0500
 70
0
  0
VERTEX
  8
0
 10
0.2379
 20
0.4250
 30
0.0000
 42
1.0000
  0
VERTEX
  8
0
 10
0.2379
 20
0.4750
 30
0.0000
  0
SEQEND
  8
0
  0
POLYLINE
  8
0
 66
1
 10
0.0000
 20
0.0000
 30
0.0000
 40
0.0500
 41
0.0500
 70
0
  0
VERTEX
  8
0
 10
-0.2379
 20
0.4750
 30
0.0000
 42
1.0000
  0
VERTEX
  8
0
 10
-0.2379
 20
0.4250
 30
0.0000
  0
SEQEND
  8
0
  0
POLYLINE
  8
0
 66
1
 10
0.0000
 20
0.0000
 30
0.0000
 40
0.1000
 41
0.1000
 70
0
  0
VERTEX
  8
0
 10
0.4500
 20
0.2379
 30
0.0000
  0
VERTEX
  8
0
 10
0.4500
 20
-0.2379
 30
0.0000
  0
SEQEND
  8
0
  0
POLYLINE
  8
0
 66
1
 10
0.0000
 20
0.0000
 30
0.0000
 40
0.0500
 41
0.0500
 70
0
  0
VERTEX
  8
0
 10
0.4250
 20
-0.2379
 30
0.0000
 42
1.0000
  0
VERTEX
  8
0
 10
0.4750
 20
-0.2379
 30
0.0000
  0
SEQEND
  8
0
  0
POLYLINE
  8
0
 66
1
 10
0.0000
 20
0.0000
 30
0.0000
 40
0.0500
 41
0.0500
 70
0
  0
VERTEX
  8
0
 10
0.4750
 20
0.2379
 30
0.0000
 42
1.0000
  0
VERTEX
  8
0
 10
0.4250
 20
0.2379
 30
0.0000
  0
SEQEND
  8
0
  0
POLYLINE
  8
0
 66
1
 10
0.0000
 20
0.0000
 30
0.0000
 40
0.1000
 41
0.1000
 70
0
  0
VERTEX
  8
0
 10
0.2379
 20
-0.4500
 30
0.0000
  0
VERTEX
  8
0
 10
-0.2379
 20
-0.4500
 30
0.0000
  0
SEQEND
  8
0
  0
POLYLINE
  8
0
 66
1
 10
0.0000
 20
0.0000
 30
0.0000
 40
0.0500
 41
0.0500
 70
0
  0
VERTEX
  8
0
 10
-0.2379
 20
-0.4250
 30
0.0000
 42
1.0000
  0
VERTEX
  8
0
 10
-0.2379
 20
-0.4750
 30
0.0000
  0
SEQEND
  8
0
  0
POLYLINE
  8
0
 66
1
 10
0.0000
 20
0.0000
 30
0.0000
 40
0.0500
 41
0.0500
 70
0
  0
VERTEX
  8
0
 10
0.2379
 20
-0.4750
 30
0.0000
 42
1.0000
  0
VERTEX
  8
0
 10
0.2379
 20
-0.4250
 30
0.0000
  0
SEQEND
  8
0
  0
POLYLINE
  8
0
 66
1
 10
0.0000
 20
0.0000
 30
0.0000
 40
0.1000
 41
0.1000
 70
0
  0
VERTEX
  8
0
 10
-0.4500
 20
-0.2379
 30
0.0000
  0
VERTEX
  8
0
 10
-0.4500
 20
0.2379
 30
0.0000
  0
SEQEND
  8
0
  0
POLYLINE
  8
0
 66
1
 10
0.0000
 20
0.0000
 30
0.0000
 40
0.0500
 41
0.0500
 70
0
  0
VERTEX
  8
0
 10
-0.4250
 20
0.2379
 30
0.0000
 42
1.0000
  0
VERTEX
  8
0
 10
-0.4750
 20
0.2379
 30
0.0000
  0
SEQEND
  8
0
  0
POLYLINE
  8
0
 66
1
 10
0.0000
 20
0.0000
 30
0.0000
 40
0.0500
 41
0.0500
 70
0
  0
VERTEX
  8
0
 10
-0.4750
 20
-0.2379
 30
0.0000
 42
1.0000
  0
VERTEX
  8
0
 10
-0.4250
 20
-0.2379
 30
0.0000
  0
SEQEND
  8
0
  0
ENDBLK
  8
0
  0
BLOCK
  8
0
  2
LONGP100
 70
64
 10
0.0000
 20
0.0000
 30
0.0000
  3
LONGP100
  0
POLYLINE
  8
0
 66
1
 10
0.0000
 20
0.0000
 30
0.0000
 40
1.0000
 41
1.0000
 70
0
  0
VERTEX
  8
0
 10
-0.5000
 20
0.0000
 30
0.0000
  0
VERTEX
  8
0
 10
0.5000
 20
0.0000
 30
0.0000
  0
SEQEND
  8
0
  0
POLYLINE
  8
0
 66
1
 10
0.0000
 20
0.0000
 30
0.0000
 40
0.5000
 41
0.5000
 70
0
  0
VERTEX
  8
0
 10
0.5000
 20
-0.2500
 30
0.0000
 42
1.0000
  0
VERTEX
  8
0
 10
0.5000
 20
0.2500
 30
0.0000
  0
SEQEND
  8
0
  0
POLYLINE
  8
0
 66
1
 10
0.0000
 20
0.0000
 30
0.0000
 40
0.5000
 41
0.5000
 70
0
  0
VERTEX
  8
0
 10
-0.5000
 20
0.2500
 30
0.0000
 42
1.0000
  0
VERTEX
  8
0
 10
-0.5000
 20
-0.2500
 30
0.0000
  0
SEQEND
  8
0
  0
ENDBLK
  8
0
  0
ENDSEC
  0
SECTION
  2
ENTITIES
  0
LINE
  8
20
 10
141.8011
 20
30.2908
 30
0.0000
 11
141.8011
 21
100.2906
 31
0.0000
  0
LINE
  8
20
 10
113.2416
 20
3.4762
 30
0.0000
 11
27.9077
 21
3.4762
 31
0.0000
  0
LINE
  8
20
 10
-2.0739
 20
100.2906
 30
0.0000
 11
-2.0739
 21
30.2908
 31
0.0000
  0
ARC
  8
20
 10
83.7441
 20
63.5093
 30
0.0000
 40
66.8885
 50
296.1674
 51
330.2231
  0
ARC
  8
20
 10
56.6941
 20
65.8315
 30
0.0000
 40
68.6791
 50
211.1640
 51
245.2195
  0
ARC
  8
20
 10
69.8636
 20
65.2907
 30
0.0000
 40
80.0000
 50
25.9444
 51
154.0556
  0
POLYLINE
  8
20
 66
1
 10
0.0000
 20
0.0000
 30
0.0000
 40
0.2032
 41
0.2032
 70
0
  0
VERTEX
  8
20
 10
56.4896
 20
-4.3668
 30
0.0000
  0
VERTEX
  8
20
 10
56.4896
 20
-6.7056
 30
0.0000
  0
SEQEND
  8
0
  0
POLYLINE
  8
20
 66
1
 10
0.0000
 20
0.0000
 30
0.0000
 40
0.1016
 41
0.1016
 70
0
  0
VERTEX
  8
20
 10
56.4388
 20
-6.7056
 30
0.0000
 42
1.0000
  0
VERTEX
  8
20
 10
56.5404
 20
-6.7056
 30
0.0000
  0
SEQEND
  8
0
  0
POLYLINE
  8
20
 66
1
 10
0.0000
 20
0.0000
 30
0.0000
 40
0.1016
 41
0.1016
 70
0
  0
VERTEX
  8
20
 10
56.5404
 20
-4.3668
 30
0.0000
 42
1.0000
  0
VERTEX
  8
20
 10
56.4388
 20
-4.3668
 30
0.0000
  0
SEQEND
  8
0
  0
POLYLINE
  8
20
 66
1
 10
0.0000
 20
0.0000
 30
0.0000
 40
0.2032
 41
0.2032
 70
0
  0
VERTEX
  8
20
 10
56.4896
 20
-6.7056
 30
0.0000
  0
VERTEX
  8
20
 10
57.6590
 20
-6.7056
 30
0.0000
  0
SEQEND
  8
0
  0
POLYLINE
  8
20
 66
1
 10
0.0000
 20
0.0000
 30
0.0000
 40
0.1016
 41
0.1016
 70
0
  0
VERTEX
  8
20
 10
57.6590
 20
-6.7564
 30
0.0000
 42
1.0000
  0
VERTEX
  8
20
 10
57.6590
 20
-6.6548
 30
0.0000
  0
SEQEND
  8
0
  0
POLYLINE
  8
20
 66
1
 10
0.0000
 20
0.0000
 30
0.0000
 40
0.1016
 41
0.1016
 70
0
  0
VERTEX
  8
20
 10
56.4896
 20
-6.6548
 30
0.0000
 42
1.0000
  0
VERTEX
  8
20
 10
56.4896
 20
-6.7564
 30
0.0000
  0
SEQEND
  8
0
  0
POLYLINE
  8
20
 66
1
 10
0.0000
 20
0.0000
 30
0.0000
 40
0.2032
 41
0.2032
 70
0
  0
VERTEX
  8
20
 10
57.6590
 20
-6.7056
 30
0.0000
  0
VERTEX
  8
20
 10
58.0488
 20
-6.3158
 30
0.0000
  0
SEQEND
  8
0
  0
POLYLINE
  8
20
 66
1
 10
0.0000
 20
0.0000
 30
0.0000
 40
0.1016
 41
0.1016
 70
0
  0
VERTEX
  8
20
 10
58.0847
 20
-6.3517
 30
0.0000
 42
1.0000
  0
VERTEX
  8
20
 10
58.0129
 20
-6.2799
 30
0.0000
  0
SEQEND
  8
0
  0
POLYLINE
  8
20
 66
1
 10
0.0000
 20
0.0000
 30
0.0000
 40
0.1016
 41
0.1016
 70
0
  0
VERTEX
  8
20
 10
57.6231
 20
-6.6697
 30
0.0000
 42
1.0000
  0
VERTEX
  8
20
 10
57.6949
 20
-6.7415
 30
0.0000
  0
SEQEND
  8
0
  0
POLYLINE
  8
20
 66
1
 10
0.0000
 20
0.0000
 30
0.0000
 40
0.2032
 41
0.2032
 70
0
  0
VERTEX
  8
20
 10
58.0488
 20
-6.3158
 30
0.0000
  0
VERTEX
  8
20
 10
58.0488
 20
-4.7566
 30
0.0000
  0
SEQEND
  8
0
  0
POLYLINE
  8
20
 66
1
 10
0.0000
 20
0.0000
 30
0.0000
 40
0.1016
 41
0.1016
 70
0
  0
VERTEX
  8
20
 10
58.0996
 20
-4.7566
 30
0.0000
 42
1.0000
  0
VERTEX
  8
20
 10
57.9980
 20
-4.7566
 30
0.0000
  0
SEQEND
  8
0
  0
POLYLINE
  8
20
 66
1
 10
0.0000
 20
0.0000
 30
0.0000
 40
0.1016
 41
0.1016
 70
0
  0
VERTEX
  8
20
 10
57.9980
 20
-6.3158
 30
0.0000
 42
1.0000
  0
VERTEX
  8
20
 10
58.0996
 20
-6.3158
 30
0.0000
  0
SEQEND
  8
0
  0
POLYLINE
  8
20
 66
1
 10
0.0000
 20
0.0000
 30
0.0000
 40
0.2032
 41
0.2032
 70
0
  0
VERTEX
  8
20
 10
58.0488
 20
-4.7566
 30
0.0000
  0
VERTEX
  8
20
 10
57.6590
 20
-4.3668
 30
0.0000
  0
SEQEND
  8
0
  0
POLYLINE
  8
20
 66
1
 10
0.0000
 20
0.0000
 30
0.0000
 40
0.1016
 41
0.1016
 70
0
  0
VERTEX
  8
20
 10
57.6949
 20
-4.3309
 30
0.0000
 42
1.0000
  0
VERTEX
  8
20
 10
57.6231
 20
-4.4027
 30
0.0000
  0
SEQEND
  8
0
  0
POLYLINE
  8
20
 66
1
 10
0.0000
 20
0.0000
 30
0.0000
 40
0.1016
 41
0.1016
 70
0
  0
VERTEX
  8
20
 10
58.0129
 20
-4.7925
 30
0.0000
 42
1.0000
  0
VERTEX
  8
20
 10
58.0847
 20
-4.7207
 30
0.0000
  0
SEQEND
  8
0
  0
POLYLINE
  8
20
 66
1
 10
0.0000
 20
0.0000
 30
0.0000
 40
0.2032
 41
0.2032
 70
0
  0
VERTEX
  8
20
 10
57.6590
 20
-4.3668
 30
0.0000
  0
VERTEX
  8
20
 10
56.4896
 20
-4.3668
 30
0.0000
  0
SEQEND
  8
0
  0
POLYLINE
  8
20
 66
1
 10
0.0000
 20
0.0000
 30
0.0000
 40
0.1016
 41
0.1016
 70
0
  0
VERTEX
  8
20
 10
56.4896
 20
-4.3160
 30
0.0000
 42
1.0000
  0
VERTEX
  8
20
 10
56.4896
 20
-4.4176
 30
0.0000
  0
SEQEND
  8
0
  0
POLYLINE
  8
20
 66
1
 10
0.0000
 20
0.0000
 30
0.0000
 40
0.1016
 41
0.1016
 70
0
  0
VERTEX
  8
20
 10
57.6590
 20
-4.4176
 30
0.0000
 42
1.0000
  0
VERTEX
  8
20
 10
57.6590
 20
-4.3160
 30
0.0000
  0
SEQEND
  8
0
  0
POLYLINE
  8
20
 66
1
 10
0.0000
 20
0.0000
 30
0.0000
 40
0.2032
 41
0.2032
 70
0
  0
VERTEX
  8
20
 10
58.8284
 20
-5.1464
 30
0.0000
  0
VERTEX
  8
20
 10
59.2182
 20
-5.1464
 30
0.0000
  0
SEQEND
  8
0
  0
POLYLINE
  8
20
 66
1
 10
0.0000
 20
0.0000
 30
0.0000
 40
0.1016
 41
0.1016
 70
0
  0
VERTEX
  8
20
 10
59.2182
 20
-5.1972
 30
0.0000
 42
1.0000
  0
VERTEX
  8
20
 10
59.2182
 20
-5.0956
 30
0.0000
  0
SEQEND
  8
0
  0
POLYLINE
  8
20
 66
1
 10
0.0000
 20
0.0000
 30
0.0000
 40
0.1016
 41
0.1016
 70
0
  0
VERTEX
  8
20
 10
58.8284
 20
-5.0956
 30
0.0000
 42
1.0000
  0
VERTEX
  8
20
 10
58.8284
 20
-5.1972
 30
0.0000
  0
SEQEND
  8
0
  0
POLYLINE
  8
20
 66
1
 10
0.0000
 20
0.0000
 30
0.0000
 40
0.2032
 41
0.2032
 70
0
  0
VERTEX
  8
20
 10
59.2182
 20
-5.1464
 30
0.0000
  0
VERTEX
  8
20
 10
59.2182
 20
-6.7056
 30
0.0000
  0
SEQEND
  8
0
  0
POLYLINE
  8
20
 66
1
 10
0.0000
 20
0.0000
 30
0.0000
 40
0.1016
 41
0.1016
 70
0
  0
VERTEX
  8
20
 10
59.1674
 20
-6.7056
 30
0.0000
 42
1.0000
  0
VERTEX
  8
20
 10
59.2690
 20
-6.7056
 30
0.0000
  0
SEQEND
  8
0
  0
POLYLINE
  8
20
 66
1
 10
0.0000
 20
0.0000
 30
0.0000
 40
0.1016
 41
0.1016
 70
0
  0
VERTEX
  8
20
 10
59.2690
 20
-5.1464
 30
0.0000
 42
1.0000
  0
VERTEX
  8
20
 10
59.1674
 20
-5.1464
 30
0.0000
  0
SEQEND
  8
0
  0
POLYLINE
  8
20
 66
1
 10
0.0000
 20
0.0000
 30
0.0000
 40
0.2032
 41
0.2032
 70
0
  0
VERTEX
  8
20
 10
58.8284
 20
-6.7056
 30
0.0000
  0
VERTEX
  8
20
 10
59.6080
 20
-6.7056
 30
0.0000
  0
SEQEND
  8
0
  0
POLYLINE
  8
20
 66
1
 10
0.0000
 20
0.0000
 30
0.0000
 40
0.1016
 41
0.1016
 70
0
  0
VERTEX
  8
20
 10
59.6080
 20
-6.7564
 30
0.0000
 42
1.0000
  0
VERTEX
  8
20
 10
59.6080
 20
-6.6548
 30
0.0000
  0
SEQEND
  8
0
  0
POLYLINE
  8
20
 66
1
 10
0.0000
 20
0.0000
 30
0.0000
 40
0.1016
 41
0.1016
 70
0
  0
VERTEX
  8
20
 10
58.8284
 20
-6.6548
 30
0.0000
 42
1.0000
  0
VERTEX
  8
20
 10
58.8284
 20
-6.7564
 30
0.0000
  0
SEQEND
  8
0
  0
POLYLINE
  8
20
 66
1
 10
0.0000
 20
0.0000
 30
0.0000
 40
0.2032
 41
0.2032
 70
0
  0
VERTEX
  8
20
 10
59.2182
 20
-3.9770
 30
0.0000
  0
VERTEX
  8
20
 10
59.2182
 20
-4.3668
 30
0.0000
  0
SEQEND
  8
0
  0
POLYLINE
  8
20
 66
1
 10
0.0000
 20
0.0000
 30
0.0000
 40
0.1016
 41
0.1016
 70
0
  0
VERTEX
  8
20
 10
59.1674
 20
-4.3668
 30
0.0000
 42
1.0000
  0
VERTEX
  8
20
 10
59.2690
 20
-4.3668
 30
0.0000
  0
SEQEND
  8
0
  0
POLYLINE
  8
20
 66
1
 10
0.0000
 20
0.0000
 30
0.0000
 40
0.1016
 41
0.1016
 70
0
  0
VERTEX
  8
20
 10
59.2690
 20
-3.9770
 30
0.0000
 42
1.0000
  0
VERTEX
  8
20
 10
59.1674
 20
-3.9770
 30
0.0000
  0
SEQEND
  8
0
  0
POLYLINE
  8
20
 66
1
 10
0.0000
 20
0.0000
 30
0.0000
 40
0.2032
 41
0.2032
 70
0
  0
VERTEX
  8
20
 10
60.3876
 20
-6.7056
 30
0.0000
  0
VERTEX
  8
20
 10
60.3876
 20
-5.1464
 30
0.0000
  0
SEQEND
  8
0
  0
POLYLINE
  8
20
 66
1
 10
0.0000
 20
0.0000
 30
0.0000
 40
0.1016
 41
0.1016
 70
0
  0
VERTEX
  8
20
 10
60.4384
 20
-5.1464
 30
0.0000
 42
1.0000
  0
VERTEX
  8
20
 10
60.3368
 20
-5.1464
 30
0.0000
  0
SEQEND
  8
0
  0
POLYLINE
  8
20
 66
1
 10
0.0000
 20
0.0000
 30
0.0000
 40
0.1016
 41
0.1016
 70
0
  0
VERTEX
  8
20
 10
60.3368
 20
-6.7056
 30
0.0000
 42
1.0000
  0
VERTEX
  8
20
 10
60.4384
 20
-6.7056
 30
0.0000
  0
SEQEND
  8
0
  0
POLYLINE
  8
20
 66
1
 10
0.0000
 20
0.0000
 30
0.0000
 40
0.2032
 41
0.2032
 70
0
  0
VERTEX
  8
20
 10
60.3876
 20
-5.1464
 30
0.0000
  0
VERTEX
  8
20
 10
60.7774
 20
-5.1464
 30
0.0000
  0
SEQEND
  8
0
  0
POLYLINE
  8
20
 66
1
 10
0.0000
 20
0.0000
 30
0.0000
 40
0.1016
 41
0.1016
 70
0
  0
VERTEX
  8
20
 10
60.7774
 20
-5.1972
 30
0.0000
 42
1.0000
  0
VERTEX
  8
20
 10
60.7774
 20
-5.0956
 30
0.0000
  0
SEQEND
  8
0
  0
POLYLINE
  8
20
 66
1
 10
0.0000
 20
0.0000
 30
0.0000
 40
0.1016
 41
0.1016
 70
0
  0
VERTEX
  8
20
 10
60.3876
 20
-5.0956
 30
0.0000
 42
1.0000
  0
VERTEX
  8
20
 10
60.3876
 20
-5.1972
 30
0.0000
  0
SEQEND
  8
0
  0
POLYLINE
  8
20
 66
1
 10
0.0000
 20
0.0000
 30
0.0000
 40
0.2032
 41
0.2032
 70
0
  0
VERTEX
  8
20
 10
60.7774
 20
-5.1464
 30
0.0000
  0
VERTEX
  8
20
 10
61.1672
 20
-5.5362
 30
0.0000
  0
SEQEND
  8
0
  0
POLYLINE
  8
20
 66
1
 10
0.0000
 20
0.0000
 30
0.0000
 40
0.1016
 41
0.1016
 70
0
  0
VERTEX
  8
20
 10
61.1313
 20
-5.5721
 30
0.0000
 42
1.0000
  0
VERTEX
  8
20
 10
61.2031
 20
-5.5003
 30
0.0000
  0
SEQEND
  8
0
  0
POLYLINE
  8
20
 66
1
 10
0.0000
 20
0.0000
 30
0.0000
 40
0.1016
 41
0.1016
 70
0
  0
VERTEX
  8
20
 10
60.8133
 20
-5.1105
 30
0.0000
 42
1.0000
  0
VERTEX
  8
20
 10
60.7415
 20
-5.1823
 30
0.0000
  0
SEQEND
  8
0
  0
POLYLINE
  8
20
 66
1
 10
0.0000
 20
0.0000
 30
0.0000
 40
0.2032
 41
0.2032
 70
0
  0
VERTEX
  8
20
 10
61.1672
 20
-5.5362
 30
0.0000
  0
VERTEX
  8
20
 10
61.1672
 20
-6.7056
 30
0.0000
  0
SEQEND
  8
0
  0
POLYLINE
  8
20
 66
1
 10
0.0000
 20
0.0000
 30
0.0000
 40
0.1016
 41
0.1016
 70
0
  0
VERTEX
  8
20
 10
61.1164
 20
-6.7056
 30
0.0000
 42
1.0000
  0
VERTEX
  8
20
 10
61.2180
 20
-6.7056
 30
0.0000
  0
SEQEND
  8
0
  0
POLYLINE
  8
20
 66
1
 10
0.0000
 20
0.0000
 30
0.0000
 40
0.1016
 41
0.1016
 70
0
  0
VERTEX
  8
20
 10
61.2180
 20
-5.5362
 30
0.0000
 42
1.0000
  0
VERTEX
  8
20
 10
61.1164
 20
-5.5362
 30
0.0000
  0
SEQEND
  8
0
  0
POLYLINE
  8
20
 66
1
 10
0.0000
 20
0.0000
 30
0.0000
 40
0.2032
 41
0.2032
 70
0
  0
VERTEX
  8
20
 10
61.1672
 20
-5.5362
 30
0.0000
  0
VERTEX
  8
20
 10
61.5570
 20
-5.1464
 30
0.0000
  0
SEQEND
  8
0
  0
POLYLINE
  8
20
 66
1
 10
0.0000
 20
0.0000
 30
0.0000
 40
0.1016
 41
0.1016
 70
0
  0
VERTEX
  8
20
 10
61.5929
 20
-5.1823
 30
0.0000
 42
1.0000
  0
VERTEX
  8
20
 10
61.5211
 20
-5.1105
 30
0.0000
  0
SEQEND
  8
0
  0
POLYLINE
  8
20
 66
1
 10
0.0000
 20
0.0000
 30
0.0000
 40
0.1016
 41
0.1016
 70
0
  0
VERTEX
  8
20
 10
61.1313
 20
-5.5003
 30
0.0000
 42
1.0000
  0
VERTEX
  8
20
 10
61.2031
 20
-5.5721
 30
0.0000
  0
SEQEND
  8
0
  0
POLYLINE
  8
20
 66
1
 10
0.0000
 20
0.0000
 30
0.0000
 40
0.2032
 41
0.2032
 70
0
  0
VERTEX
  8
20
 10
61.5570
 20
-5.1464
 30
0.0000
  0
VERTEX
  8
20
 10
61.9468
 20
-5.5362
 30
0.0000
  0
SEQEND
  8
0
  0
POLYLINE
  8
20
 66
1
 10
0.0000
 20
0.0000
 30
0.0000
 40
0.1016
 41
0.1016
 70
0
  0
VERTEX
  8
20
 10
61.9109
 20
-5.5721
 30
0.0000
 42
1.0000
  0
VERTEX
  8
20
 10
61.9827
 20
-5.5003
 30
0.0000
  0
SEQEND
  8
0
  0
POLYLINE
  8
20
 66
1
 10
0.0000
 20
0.0000
 30
0.0000
 40
0.1016
 41
0.1016
 70
0
  0
VERTEX
  8
20
 10
61.5929
 20
-5.1105
 30
0.0000
 42
1.0000
  0
VERTEX
  8
20
 10
61.5211
 20
-5.1823
 30
0.0000
  0
SEQEND
  8
0
  0
POLYLINE
  8
20
 66
1
 10
0.0000
 20
0.0000
 30
0.0000
 40
0.2032
 41
0.2032
 70
0
  0
VERTEX
  8
20
 10
61.9468
 20
-5.5362
 30
0.0000
  0
VERTEX
  8
20
 10
61.9468
 20
-6.7056
 30
0.0000
  0
SEQEND
  8
0
  0
POLYLINE
  8
20
 66
1
 10
0.0000
 20
0.0000
 30
0.0000
 40
0.1016
 41
0.1016
 70
0
  0
VERTEX
  8
20
 10
61.8960
 20
-6.7056
 30
0.0000
 42
1.0000
  0
VERTEX
  8
20
 10
61.9976
 20
-6.7056
 30
0.0000
  0
SEQEND
  8
0
  0
POLYLINE
  8
20
 66
1
 10
0.0000
 20
0.0000
 30
0.0000
 40
0.1016
 41
0.1016
 70
0
  0
VERTEX
  8
20
 10
61.9976
 20
-5.5362
 30
0.0000
 42
1.0000
  0
VERTEX
  8
20
 10
61.8960
 20
-5.5362
 30
0.0000
  0
SEQEND
  8
0
  0
POLYLINE
  8
20
 66
1
 10
0.0000
 20
0.0000
 30
0.0000
 40
0.2032
 41
0.2032
 70
0
  0
VERTEX
  8
20
 10
63.8958
 20
-6.7056
 30
0.0000
  0
VERTEX
  8
20
 10
63.1162
 20
-6.7056
 30
0.0000
  0
SEQEND
  8
0
  0
POLYLINE
  8
20
 66
1
 10
0.0000
 20
0.0000
 30
0.0000
 40
0.1016
 41
0.1016
 70
0
  0
VERTEX
  8
20
 10
63.1162
 20
-6.6548
 30
0.0000
 42
1.0000
  0
VERTEX
  8
20
 10
63.1162
 20
-6.7564
 30
0.0000
  0
SEQEND
  8
0
  0
POLYLINE
  8
20
 66
1
 10
0.0000
 20
0.0000
 30
0.0000
 40
0.1016
 41
0.1016
 70
0
  0
VERTEX
  8
20
 10
63.8958
 20
-6.7564
 30
0.0000
 42
1.0000
  0
VERTEX
  8
20
 10
63.8958
 20
-6.6548
 30
0.0000
  0
SEQEND
  8
0
  0
POLYLINE
  8
20
 66
1
 10
0.0000
 20
0.0000
 30
0.0000
 40
0.2032
 41
0.2032
 70
0
  0
VERTEX
  8
20
 10
63.1162
 20
-6.7056
 30
0.0000
  0
VERTEX
  8
20
 10
62.7264
 20
-6.3158
 30
0.0000
  0
SEQEND
  8
0
  0
POLYLINE
  8
20
 66
1
 10
0.0000
 20
0.0000
 30
0.0000
 40
0.1016
 41
0.1016
 70
0
  0
VERTEX
  8
20
 10
62.7623
 20
-6.2799
 30
0.0000
 42
1.0000
  0
VERTEX
  8
20
 10
62.6905
 20
-6.3517
 30
0.0000
  0
SEQEND
  8
0
  0
POLYLINE
  8
20
 66
1
 10
0.0000
 20
0.0000
 30
0.0000
 40
0.1016
 41
0.1016
 70
0
  0
VERTEX
  8
20
 10
63.0803
 20
-6.7415
 30
0.0000
 42
1.0000
  0
VERTEX
  8
20
 10
63.1521
 20
-6.6697
 30
0.0000
  0
SEQEND
  8
0
  0
POLYLINE
  8
20
 66
1
 10
0.0000
 20
0.0000
 30
0.0000
 40
0.2032
 41
0.2032
 70
0
  0
VERTEX
  8
20
 10
62.7264
 20
-6.3158
 30
0.0000
  0
VERTEX
  8
20
 10
62.7264
 20
-5.5362
 30
0.0000
  0
SEQEND
  8
0
  0
POLYLINE
  8
20
 66
1
 10
0.0000
 20
0.0000
 30
0.0000
 40
0.1016
 41
0.1016
 70
0
  0
VERTEX
  8
20
 10
62.7772
 20
-5.5362
 30
0.0000
 42
1.0000
  0
VERTEX
  8
20
 10
62.6756
 20
-5.5362
 30
0.0000
  0
SEQEND
  8
0
  0
POLYLINE
  8
20
 66
1
 10
0.0000
 20
0.0000
 30
0.0000
 40
0.1016
 41
0.1016
 70
0
  0
VERTEX
  8
20
 10
62.6756
 20
-6.3158
 30
0.0000
 42
1.0000
  0
VERTEX
  8
20
 10
62.7772
 20
-6.3158
 30
0.0000
  0
SEQEND
  8
0
  0
POLYLINE
  8
20
 66
1
 10
0.0000
 20
0.0000
 30
0.0000
 40
0.2032
 41
0.2032
 70
0
  0
VERTEX
  8
20
 10
62.7264
 20
-5.5362
 30
0.0000
  0
VERTEX
  8
20
 10
63.1162
 20
-5.1464
 30
0.0000
  0
SEQEND
  8
0
  0
POLYLINE
  8
20
 66
1
 10
0.0000
 20
0.0000
 30
0.0000
 40
0.1016
 41
0.1016
 70
0
  0
VERTEX
  8
20
 10
63.1521
 20
-5.1823
 30
0.0000
 42
1.0000
  0
VERTEX
  8
20
 10
63.0803
 20
-5.1105
 30
0.0000
  0
SEQEND
  8
0
  0
POLYLINE
  8
20
 66
1
 10
0.0000
 20
0.0000
 30
0.0000
 40
0.1016
 41
0.1016
 70
0
  0
VERTEX
  8
20
 10
62.6905
 20
-5.5003
 30
0.0000
 42
1.0000
  0
VERTEX
  8
20
 10
62.7623
 20
-5.5721
 30
0.0000
  0
SEQEND
  8
0
  0
POLYLINE
  8
20
 66
1
 10
0.0000
 20
0.0000
 30
0.0000
 40
0.2032
 41
0.2032
 70
0
  0
VERTEX
  8
20
 10
63.1162
 20
-5.1464
 30
0.0000
  0
VERTEX
  8
20
 10
63.8958
 20
-5.1464
 30
0.0000
  0
SEQEND
  8
0
  0
POLYLINE
  8
20
 66
1
 10
0.0000
 20
0.0000
 30
0.0000
 40
0.1016
 41
0.1016
 70
0
  0
VERTEX
  8
20
 10
63.8958
 20
-5.1972
 30
0.0000
 42
1.0000
  0
VERTEX
  8
20
 10
63.8958
 20
-5.0956
 30
0.0000
  0
SEQEND
  8
0
  0
POLYLINE
  8
20
 66
1
 10
0.0000
 20
0.0000
 30
0.0000
 40
0.1016
 41
0.1016
 70
0
  0
VERTEX
  8
20
 10
63.1162
 20
-5.0956
 30
0.0000
 42
1.0000
  0
VERTEX
  8
20
 10
63.1162
 20
-5.1972
 30
0.0000
  0
SEQEND
  8
0
  0
POLYLINE
  8
20
 66
1
 10
0.0000
 20
0.0000
 30
0.0000
 40
0.2032
 41
0.2032
 70
0
  0
VERTEX
  8
20
 10
63.8958
 20
-5.1464
 30
0.0000
  0
VERTEX
  8
20
 10
64.2856
 20
-5.5362
 30
0.0000
  0
SEQEND
  8
0
  0
POLYLINE
  8
20
 66
1
 10
0.0000
 20
0.0000
 30
0.0000
 40
0.1016
 41
0.1016
 70
0
  0
VERTEX
  8
20
 10
64.2497
 20
-5.5721
 30
0.0000
 42
1.0000
  0
VERTEX
  8
20
 10
64.3215
 20
-5.5003
 30
0.0000
  0
SEQEND
  8
0
  0
POLYLINE
  8
20
 66
1
 10
0.0000
 20
0.0000
 30
0.0000
 40
0.1016
 41
0.1016
 70
0
  0
VERTEX
  8
20
 10
63.9317
 20
-5.1105
 30
0.0000
 42
1.0000
  0
VERTEX
  8
20
 10
63.8599
 20
-5.1823
 30
0.0000
  0
SEQEND
  8
0
  0
POLYLINE
  8
20
 66
1
 10
0.0000
 20
0.0000
 30
0.0000
 40
0.2032
 41
0.2032
 70
0
  0
VERTEX
  8
20
 10
64.2856
 20
-5.5362
 30
0.0000
  0
VERTEX
  8
20
 10
64.2856
 20
-5.9260
 30
0.0000
  0
SEQEND
  8
0
  0
POLYLINE
  8
20
 66
1
 10
0.0000
 20
0.0000
 30
0.0000
 40
0.1016
 41
0.1016
 70
0
  0
VERTEX
  8
20
 10
64.2348
 20
-5.9260
 30
0.0000
 42
1.0000
  0
VERTEX
  8
20
 10
64.3364
 20
-5.9260
 30
0.0000
  0
SEQEND
  8
0
  0
POLYLINE
  8
20
 66
1
 10
0.0000
 20
0.0000
 30
0.0000
 40
0.1016
 41
0.1016
 70
0
  0
VERTEX
  8
20
 10
64.3364
 20
-5.5362
 30
0.0000
 42
1.0000
  0
VERTEX
  8
20
 10
64.2348
 20
-5.5362
 30
0.0000
  0
SEQEND
  8
0
  0
POLYLINE
  8
20
 66
1
 10
0.0000
 20
0.0000
 30
0.0000
 40
0.2032
 41
0.2032
 70
0
  0
VERTEX
  8
20
 10
64.2856
 20
-5.9260
 30
0.0000
  0
VERTEX
  8
20
 10
62.7264
 20
-5.9260
 30
0.0000
  0
SEQEND
  8
0
  0
POLYLINE
  8
20
 66
1
 10
0.0000
 20
0.0000
 30
0.0000
 40
0.1016
 41
0.1016
 70
0
  0
VERTEX
  8
20
 10
62.7264
 20
-5.8752
 30
0.0000
 42
1.0000
  0
VERTEX
  8
20
 10
62.7264
 20
-5.9768
 30
0.0000
  0
SEQEND
  8
0
  0
POLYLINE
  8
20
 66
1
 10
0.0000
 20
0.0000
 30
0.0000
 40
0.1016
 41
0.1016
 70
0
  0
VERTEX
  8
20
 10
64.2856
 20
-5.9768
 30
0.0000
 42
1.0000
  0
VERTEX
  8
20
 10
64.2856
 20
-5.8752
 30
0.0000
  0
SEQEND
  8
0
  0
POLYLINE
  8
20
 66
1
 10
0.0000
 20
0.0000
 30
0.0000
 40
0.2032
 41
0.2032
 70
0
  0
VERTEX
  8
20
 10
65.0652
 20
-6.7056
 30
0.0000
  0
VERTEX
  8
20
 10
65.0652
 20
-5.1464
 30
0.0000
  0
SEQEND
  8
0
  0
POLYLINE
  8
20
 66
1
 10
0.0000
 20
0.0000
 30
0.0000
 40
0.1016
 41
0.1016
 70
0
  0
VERTEX
  8
20
 10
65.1160
 20
-5.1464
 30
0.0000
 42
1.0000
  0
VERTEX
  8
20
 10
65.0144
 20
-5.1464
 30
0.0000
  0
SEQEND
  8
0
  0
POLYLINE
  8
20
 66
1
 10
0.0000
 20
0.0000
 30
0.0000
 40
0.1016
 41
0.1016
 70
0
  0
VERTEX
  8
20
 10
65.0144
 20
-6.7056
 30
0.0000
 42
1.0000
  0
VERTEX
  8
20
 10
65.1160
 20
-6.7056
 30
0.0000
  0
SEQEND
  8
0
  0
POLYLINE
  8
20
 66
1
 10
0.0000
 20
0.0000
 30
0.0000
 40
0.2032
 41
0.2032
 70
0
  0
VERTEX
  8
20
 10
65.0652
 20
-5.1464
 30
0.0000
  0
VERTEX
  8
20
 10
66.2346
 20
-5.1464
 30
0.0000
  0
SEQEND
  8
0
  0
POLYLINE
  8
20
 66
1
 10
0.0000
 20
0.0000
 30
0.0000
 40
0.1016
 41
0.1016
 70
0
  0
VERTEX
  8
20
 10
66.2346
 20
-5.1972
 30
0.0000
 42
1.0000
  0
VERTEX
  8
20
 10
66.2346
 20
-5.0956
 30
0.0000
  0
SEQEND
  8
0
  0
POLYLINE
  8
20
 66
1
 10
0.0000
 20
0.0000
 30
0.0000
 40
0.1016
 41
0.1016
 70
0
  0
VERTEX
  8
20
 10
65.0652
 20
-5.0956
 30
0.0000
 42
1.0000
  0
VERTEX
  8
20
 10
65.0652
 20
-5.1972
 30
0.0000
  0
SEQEND
  8
0
  0
POLYLINE
  8
20
 66
1
 10
0.0000
 20
0.0000
 30
0.0000
 40
0.2032
 41
0.2032
 70
0
  0
VERTEX
  8
20
 10
66.2346
 20
-5.1464
 30
0.0000
  0
VERTEX
  8
20
 10
66.6244
 20
-5.5362
 30
0.0000
  0
SEQEND
  8
0
  0
POLYLINE
  8
20
 66
1
 10
0.0000
 20
0.0000
 30
0.0000
 40
0.1016
 41
0.1016
 70
0
  0
VERTEX
  8
20
 10
66.5885
 20
-5.5721
 30
0.0000
 42
1.0000
  0
VERTEX
  8
20
 10
66.6603
 20
-5.5003
 30
0.0000
  0
SEQEND
  8
0
  0
POLYLINE
  8
20
 66
1
 10
0.0000
 20
0.0000
 30
0.0000
 40
0.1016
 41
0.1016
 70
0
  0
VERTEX
  8
20
 10
66.2705
 20
-5.1105
 30
0.0000
 42
1.0000
  0
VERTEX
  8
20
 10
66.1987
 20
-5.1823
 30
0.0000
  0
SEQEND
  8
0
  0
POLYLINE
  8
20
 66
1
 10
0.0000
 20
0.0000
 30
0.0000
 40
0.2032
 41
0.2032
 70
0
  0
VERTEX
  8
20
 10
66.6244
 20
-5.5362
 30
0.0000
  0
VERTEX
  8
20
 10
66.6244
 20
-6.7056
 30
0.0000
  0
SEQEND
  8
0
  0
POLYLINE
  8
20
 66
1
 10
0.0000
 20
0.0000
 30
0.0000
 40
0.1016
 41
0.1016
 70
0
  0
VERTEX
  8
20
 10
66.5736
 20
-6.7056
 30
0.0000
 42
1.0000
  0
VERTEX
  8
20
 10
66.6752
 20
-6.7056
 30
0.0000
  0
SEQEND
  8
0
  0
POLYLINE
  8
20
 66
1
 10
0.0000
 20
0.0000
 30
0.0000
 40
0.1016
 41
0.1016
 70
0
  0
VERTEX
  8
20
 10
66.6752
 20
-5.5362
 30
0.0000
 42
1.0000
  0
VERTEX
  8
20
 10
66.5736
 20
-5.5362
 30
0.0000
  0
SEQEND
  8
0
  0
POLYLINE
  8
20
 66
1
 10
0.0000
 20
0.0000
 30
0.0000
 40
0.2032
 41
0.2032
 70
0
  0
VERTEX
  8
20
 10
67.4040
 20
-6.7056
 30
0.0000
  0
VERTEX
  8
20
 10
68.5734
 20
-6.7056
 30
0.0000
  0
SEQEND
  8
0
  0
POLYLINE
  8
20
 66
1
 10
0.0000
 20
0.0000
 30
0.0000
 40
0.1016
 41
0.1016
 70
0
  0
VERTEX
  8
20
 10
68.5734
 20
-6.7564
 30
0.0000
 42
1.0000
  0
VERTEX
  8
20
 10
68.5734
 20
-6.6548
 30
0.0000
  0
SEQEND
  8
0
  0
POLYLINE
  8
20
 66
1
 10
0.0000
 20
0.0000
 30
0.0000
 40
0.1016
 41
0.1016
 70
0
  0
VERTEX
  8
20
 10
67.4040
 20
-6.6548
 30
0.0000
 42
1.0000
  0
VERTEX
  8
20
 10
67.4040
 20
-6.7564
 30
0.0000
  0
SEQEND
  8
0
  0
POLYLINE
  8
20
 66
1
 10
0.0000
 20
0.0000
 30
0.0000
 40
0.2032
 41
0.2032
 70
0
  0
VERTEX
  8
20
 10
68.5734
 20
-6.7056
 30
0.0000
  0
VERTEX
  8
20
 10
68.9632
 20
-6.3158
 30
0.0000
  0
SEQEND
  8
0
  0
POLYLINE
  8
20
 66
1
 10
0.0000
 20
0.0000
 30
0.0000
 40
0.1016
 41
0.1016
 70
0
  0
VERTEX
  8
20
 10
68.9991
 20
-6.3517
 30
0.0000
 42
1.0000
  0
VERTEX
  8
20
 10
68.9273
 20
-6.2799
 30
0.0000
  0
SEQEND
  8
0
  0
POLYLINE
  8
20
 66
1
 10
0.0000
 20
0.0000
 30
0.0000
 40
0.1016
 41
0.1016
 70
0
  0
VERTEX
  8
20
 10
68.5375
 20
-6.6697
 30
0.0000
 42
1.0000
  0
VERTEX
  8
20
 10
68.6093
 20
-6.7415
 30
0.0000
  0
SEQEND
  8
0
  0
POLYLINE
  8
20
 66
1
 10
0.0000
 20
0.0000
 30
0.0000
 40
0.2032
 41
0.2032
 70
0
  0
VERTEX
  8
20
 10
68.9632
 20
-6.3158
 30
0.0000
  0
VERTEX
  8
20
 10
68.5734
 20
-5.9260
 30
0.0000
  0
SEQEND
  8
0
  0
POLYLINE
  8
20
 66
1
 10
0.0000
 20
0.0000
 30
0.0000
 40
0.1016
 41
0.1016
 70
0
  0
VERTEX
  8
20
 10
68.6093
 20
-5.8901
 30
0.0000
 42
1.0000
  0
VERTEX
  8
20
 10
68.5375
 20
-5.9619
 30
0.0000
  0
SEQEND
  8
0
  0
POLYLINE
  8
20
 66
1
 10
0.0000
 20
0.0000
 30
0.0000
 40
0.1016
 41
0.1016
 70
0
  0
VERTEX
  8
20
 10
68.9273
 20
-6.3517
 30
0.0000
 42
1.0000
  0
VERTEX
  8
20
 10
68.9991
 20
-6.2799
 30
0.0000
  0
SEQEND
  8
0
  0
POLYLINE
  8
20
 66
1
 10
0.0000
 20
0.0000
 30
0.0000
 40
0.2032
 41
0.2032
 70
0
  0
VERTEX
  8
20
 10
68.5734
 20
-5.9260
 30
0.0000
  0
VERTEX
  8
20
 10
67.7938
 20
-5.9260
 30
0.0000
  0
SEQEND
  8
0
  0
POLYLINE
  8
20
 66
1
 10
0.0000
 20
0.0000
 30
0.0000
 40
0.1016
 41
0.1016
 70
0
  0
VERTEX
  8
20
 10
67.7938
 20
-5.8752
 30
0.0000
 42
1.0000
  0
VERTEX
  8
20
 10
67.7938
 20
-5.9768
 30
0.0000
  0
SEQEND
  8
0
  0
POLYLINE
  8
20
 66
1
 10
0.0000
 20
0.0000
 30
0.0000
 40
0.1016
 41
0.1016
 70
0
  0
VERTEX
  8
20
 10
68.5734
 20
-5.9768
 30
0.0000
 42
1.0000
  0
VERTEX
  8
20
 10
68.5734
 20
-5.8752
 30
0.0000
  0
SEQEND
  8
0
  0
POLYLINE
  8
20
 66
1
 10
0.0000
 20
0.0000
 30
0.0000
 40
0.2032
 41
0.2032
 70
0
  0
VERTEX
  8
20
 10
67.7938
 20
-5.9260
 30
0.0000
  0
VERTEX
  8
20
 10
67.4040
 20
-5.5362
 30
0.0000
  0
SEQEND
  8
0
  0
POLYLINE
  8
20
 66
1
 10
0.0000
 20
0.0000
 30
0.0000
 40
0.1016
 41
0.1016
 70
0
  0
VERTEX
  8
20
 10
67.4399
 20
-5.5003
 30
0.0000
 42
1.0000
  0
VERTEX
  8
20
 10
67.3681
 20
-5.5721
 30
0.0000
  0
SEQEND
  8
0
  0
POLYLINE
  8
20
 66
1
 10
0.0000
 20
0.0000
 30
0.0000
 40
0.1016
 41
0.1016
 70
0
  0
VERTEX
  8
20
 10
67.7579
 20
-5.9619
 30
0.0000
 42
1.0000
  0
VERTEX
  8
20
 10
67.8297
 20
-5.8901
 30
0.0000
  0
SEQEND
  8
0
  0
POLYLINE
  8
20
 66
1
 10
0.0000
 20
0.0000
 30
0.0000
 40
0.2032
 41
0.2032
 70
0
  0
VERTEX
  8
20
 10
67.4040
 20
-5.5362
 30
0.0000
  0
VERTEX
  8
20
 10
67.7938
 20
-5.1464
 30
0.0000
  0
SEQEND
  8
0
  0
POLYLINE
  8
20
 66
1
 10
0.0000
 20
0.0000
 30
0.0000
 40
0.1016
 41
0.1016
 70
0
  0
VERTEX
  8
20
 10
67.8297
 20
-5.1823
 30
0.0000
 42
1.0000
  0
VERTEX
  8
20
 10
67.7579
 20
-5.1105
 30
0.0000
  0
SEQEND
  8
0
  0
POLYLINE
  8
20
 66
1
 10
0.0000
 20
0.0000
 30
0.0000
 40
0.1016
 41
0.1016
 70
0
  0
VERTEX
  8
20
 10
67.3681
 20
-5.5003
 30
0.0000
 42
1.0000
  0
VERTEX
  8
20
 10
67.4399
 20
-5.5721
 30
0.0000
  0
SEQEND
  8
0
  0
POLYLINE
  8
20
 66
1
 10
0.0000
 20
0.0000
 30
0.0000
 40
0.2032
 41
0.2032
 70
0
  0
VERTEX
  8
20
 10
67.7938
 20
-5.1464
 30
0.0000
  0
VERTEX
  8
20
 10
68.9632
 20
-5.1464
 30
0.0000
  0
SEQEND
  8
0
  0
POLYLINE
  8
20
 66
1
 10
0.0000
 20
0.0000
 30
0.0000
 40
0.1016
 41
0.1016
 70
0
  0
VERTEX
  8
20
 10
68.9632
 20
-5.1972
 30
0.0000
 42
1.0000
  0
VERTEX
  8
20
 10
68.9632
 20
-5.0956
 30
0.0000
  0
SEQEND
  8
0
  0
POLYLINE
  8
20
 66
1
 10
0.0000
 20
0.0000
 30
0.0000
 40
0.1016
 41
0.1016
 70
0
  0
VERTEX
  8
20
 10
67.7938
 20
-5.0956
 30
0.0000
 42
1.0000
  0
VERTEX
  8
20
 10
67.7938
 20
-5.1972
 30
0.0000
  0
SEQEND
  8
0
  0
POLYLINE
  8
20
 66
1
 10
0.0000
 20
0.0000
 30
0.0000
 40
0.2032
 41
0.2032
 70
0
  0
VERTEX
  8
20
 10
69.7428
 20
-5.1464
 30
0.0000
  0
VERTEX
  8
20
 10
70.1326
 20
-5.1464
 30
0.0000
  0
SEQEND
  8
0
  0
POLYLINE
  8
20
 66
1
 10
0.0000
 20
0.0000
 30
0.0000
 40
0.1016
 41
0.1016
 70
0
  0
VERTEX
  8
20
 10
70.1326
 20
-5.1972
 30
0.0000
 42
1.0000
  0
VERTEX
  8
20
 10
70.1326
 20
-5.0956
 30
0.0000
  0
SEQEND
  8
0
  0
POLYLINE
  8
20
 66
1
 10
0.0000
 20
0.0000
 30
0.0000
 40
0.1016
 41
0.1016
 70
0
  0
VERTEX
  8
20
 10
69.7428
 20
-5.0956
 30
0.0000
 42
1.0000
  0
VERTEX
  8
20
 10
69.7428
 20
-5.1972
 30
0.0000
  0
SEQEND
  8
0
  0
POLYLINE
  8
20
 66
1
 10
0.0000
 20
0.0000
 30
0.0000
 40
0.2032
 41
0.2032
 70
0
  0
VERTEX
  8
20
 10
70.1326
 20
-5.1464
 30
0.0000
  0
VERTEX
  8
20
 10
70.1326
 20
-6.7056
 30
0.0000
  0
SEQEND
  8
0
  0
POLYLINE
  8
20
 66
1
 10
0.0000
 20
0.0000
 30
0.0000
 40
0.1016
 41
0.1016
 70
0
  0
VERTEX
  8
20
 10
70.0818
 20
-6.7056
 30
0.0000
 42
1.0000
  0
VERTEX
  8
20
 10
70.1834
 20
-6.7056
 30
0.0000
  0
SEQEND
  8
0
  0
POLYLINE
  8
20
 66
1
 10
0.0000
 20
0.0000
 30
0.0000
 40
0.1016
 41
0.1016
 70
0
  0
VERTEX
  8
20
 10
70.1834
 20
-5.1464
 30
0.0000
 42
1.0000
  0
VERTEX
  8
20
 10
70.0818
 20
-5.1464
 30
0.0000
  0
SEQEND
  8
0
  0
POLYLINE
  8
20
 66
1
 10
0.0000
 20
0.0000
 30
0.0000
 40
0.2032
 41
0.2032
 70
0
  0
VERTEX
  8
20
 10
69.7428
 20
-6.7056
 30
0.0000
  0
VERTEX
  8
20
 10
70.5224
 20
-6.7056
 30
0.0000
  0
SEQEND
  8
0
  0
POLYLINE
  8
20
 66
1
 10
0.0000
 20
0.0000
 30
0.0000
 40
0.1016
 41
0.1016
 70
0
  0
VERTEX
  8
20
 10
70.5224
 20
-6.7564
 30
0.0000
 42
1.0000
  0
VERTEX
  8
20
 10
70.5224
 20
-6.6548
 30
0.0000
  0
SEQEND
  8
0
  0
POLYLINE
  8
20
 66
1
 10
0.0000
 20
0.0000
 30
0.0000
 40
0.1016
 41
0.1016
 70
0
  0
VERTEX
  8
20
 10
69.7428
 20
-6.6548
 30
0.0000
 42
1.0000
  0
VERTEX
  8
20
 10
69.7428
 20
-6.7564
 30
0.0000
  0
SEQEND
  8
0
  0
POLYLINE
  8
20
 66
1
 10
0.0000
 20
0.0000
 30
0.0000
 40
0.2032
 41
0.2032
 70
0
  0
VERTEX
  8
20
 10
70.1326
 20
-3.9770
 30
0.0000
  0
VERTEX
  8
20
 10
70.1326
 20
-4.3668
 30
0.0000
  0
SEQEND
  8
0
  0
POLYLINE
  8
20
 66
1
 10
0.0000
 20
0.0000
 30
0.0000
 40
0.1016
 41
0.1016
 70
0
  0
VERTEX
  8
20
 10
70.0818
 20
-4.3668
 30
0.0000
 42
1.0000
  0
VERTEX
  8
20
 10
70.1834
 20
-4.3668
 30
0.0000
  0
SEQEND
  8
0
  0
POLYLINE
  8
20
 66
1
 10
0.0000
 20
0.0000
 30
0.0000
 40
0.1016
 41
0.1016
 70
0
  0
VERTEX
  8
20
 10
70.1834
 20
-3.9770
 30
0.0000
 42
1.0000
  0
VERTEX
  8
20
 10
70.0818
 20
-3.9770
 30
0.0000
  0
SEQEND
  8
0
  0
POLYLINE
  8
20
 66
1
 10
0.0000
 20
0.0000
 30
0.0000
 40
0.2032
 41
0.2032
 70
0
  0
VERTEX
  8
20
 10
71.6918
 20
-6.7056
 30
0.0000
  0
VERTEX
  8
20
 10
72.4714
 20
-6.7056
 30
0.0000
  0
SEQEND
  8
0
  0
POLYLINE
  8
20
 66
1
 10
0.0000
 20
0.0000
 30
0.0000
 40
0.1016
 41
0.1016
 70
0
  0
VERTEX
  8
20
 10
72.4714
 20
-6.7564
 30
0.0000
 42
1.0000
  0
VERTEX
  8
20
 10
72.4714
 20
-6.6548
 30
0.0000
  0
SEQEND
  8
0
  0
POLYLINE
  8
20
 66
1
 10
0.0000
 20
0.0000
 30
0.0000
 40
0.1016
 41
0.1016
 70
0
  0
VERTEX
  8
20
 10
71.6918
 20
-6.6548
 30
0.0000
 42
1.0000
  0
VERTEX
  8
20
 10
71.6918
 20
-6.7564
 30
0.0000
  0
SEQEND
  8
0
  0
POLYLINE
  8
20
 66
1
 10
0.0000
 20
0.0000
 30
0.0000
 40
0.2032
 41
0.2032
 70
0
  0
VERTEX
  8
20
 10
72.4714
 20
-6.7056
 30
0.0000
  0
VERTEX
  8
20
 10
72.8612
 20
-6.3158
 30
0.0000
  0
SEQEND
  8
0
  0
POLYLINE
  8
20
 66
1
 10
0.0000
 20
0.0000
 30
0.0000
 40
0.1016
 41
0.1016
 70
0
  0
VERTEX
  8
20
 10
72.8971
 20
-6.3517
 30
0.0000
 42
1.0000
  0
VERTEX
  8
20
 10
72.8253
 20
-6.2799
 30
0.0000
  0
SEQEND
  8
0
  0
POLYLINE
  8
20
 66
1
 10
0.0000
 20
0.0000
 30
0.0000
 40
0.1016
 41
0.1016
 70
0
  0
VERTEX
  8
20
 10
72.4355
 20
-6.6697
 30
0.0000
 42
1.0000
  0
VERTEX
  8
20
 10
72.5073
 20
-6.7415
 30
0.0000
  0
SEQEND
  8
0
  0
POLYLINE
  8
20
 66
1
 10
0.0000
 20
0.0000
 30
0.0000
 40
0.2032
 41
0.2032
 70
0
  0
VERTEX
  8
20
 10
72.8612
 20
-6.3158
 30
0.0000
  0
VERTEX
  8
20
 10
72.8612
 20
-5.5362
 30
0.0000
  0
SEQEND
  8
0
  0
POLYLINE
  8
20
 66
1
 10
0.0000
 20
0.0000
 30
0.0000
 40
0.1016
 41
0.1016
 70
0
  0
VERTEX
  8
20
 10
72.9120
 20
-5.5362
 30
0.0000
 42
1.0000
  0
VERTEX
  8
20
 10
72.8104
 20
-5.5362
 30
0.0000
  0
SEQEND
  8
0
  0
POLYLINE
  8
20
 66
1
 10
0.0000
 20
0.0000
 30
0.0000
 40
0.1016
 41
0.1016
 70
0
  0
VERTEX
  8
20
 10
72.8104
 20
-6.3158
 30
0.0000
 42
1.0000
  0
VERTEX
  8
20
 10
72.9120
 20
-6.3158
 30
0.0000
  0
SEQEND
  8
0
  0
POLYLINE
  8
20
 66
1
 10
0.0000
 20
0.0000
 30
0.0000
 40
0.2032
 41
0.2032
 70
0
  0
VERTEX
  8
20
 10
72.8612
 20
-5.5362
 30
0.0000
  0
VERTEX
  8
20
 10
72.4714
 20
-5.1464
 30
0.0000
  0
SEQEND
  8
0
  0
POLYLINE
  8
20
 66
1
 10
0.0000
 20
0.0000
 30
0.0000
 40
0.1016
 41
0.1016
 70
0
  0
VERTEX
  8
20
 10
72.5073
 20
-5.1105
 30
0.0000
 42
1.0000
  0
VERTEX
  8
20
 10
72.4355
 20
-5.1823
 30
0.0000
  0
SEQEND
  8
0
  0
POLYLINE
  8
20
 66
1
 10
0.0000
 20
0.0000
 30
0.0000
 40
0.1016
 41
0.1016
 70
0
  0
VERTEX
  8
20
 10
72.8253
 20
-5.5721
 30
0.0000
 42
1.0000
  0
VERTEX
  8
20
 10
72.8971
 20
-5.5003
 30
0.0000
  0
SEQEND
  8
0
  0
POLYLINE
  8
20
 66
1
 10
0.0000
 20
0.0000
 30
0.0000
 40
0.2032
 41
0.2032
 70
0
  0
VERTEX
  8
20
 10
72.4714
 20
-5.1464
 30
0.0000
  0
VERTEX
  8
20
 10
71.6918
 20
-5.1464
 30
0.0000
  0
SEQEND
  8
0
  0
POLYLINE
  8
20
 66
1
 10
0.0000
 20
0.0000
 30
0.0000
 40
0.1016
 41
0.1016
 70
0
  0
VERTEX
  8
20
 10
71.6918
 20
-5.0956
 30
0.0000
 42
1.0000
  0
VERTEX
  8
20
 10
71.6918
 20
-5.1972
 30
0.0000
  0
SEQEND
  8
0
  0
POLYLINE
  8
20
 66
1
 10
0.0000
 20
0.0000
 30
0.0000
 40
0.1016
 41
0.1016
 70
0
  0
VERTEX
  8
20
 10
72.4714
 20
-5.1972
 30
0.0000
 42
1.0000
  0
VERTEX
  8
20
 10
72.4714
 20
-5.0956
 30
0.0000
  0
SEQEND
  8
0
  0
POLYLINE
  8
20
 66
1
 10
0.0000
 20
0.0000
 30
0.0000
 40
0.2032
 41
0.2032
 70
0
  0
VERTEX
  8
20
 10
71.6918
 20
-5.1464
 30
0.0000
  0
VERTEX
  8
20
 10
71.3020
 20
-5.5362
 30
0.0000
  0
SEQEND
  8
0
  0
POLYLINE
  8
20
 66
1
 10
0.0000
 20
0.0000
 30
0.0000
 40
0.1016
 41
0.1016
 70
0
  0
VERTEX
  8
20
 10
71.2661
 20
-5.5003
 30
0.0000
 42
1.0000
  0
VERTEX
  8
20
 10
71.3379
 20
-5.5721
 30
0.0000
  0
SEQEND
  8
0
  0
POLYLINE
  8
20
 66
1
 10
0.0000
 20
0.0000
 30
0.0000
 40
0.1016
 41
0.1016
 70
0
  0
VERTEX
  8
20
 10
71.7277
 20
-5.1823
 30
0.0000
 42
1.0000
  0
VERTEX
  8
20
 10
71.6559
 20
-5.1105
 30
0.0000
  0
SEQEND
  8
0
  0
POLYLINE
  8
20
 66
1
 10
0.0000
 20
0.0000
 30
0.0000
 40
0.2032
 41
0.2032
 70
0
  0
VERTEX
  8
20
 10
71.3020
 20
-5.5362
 30
0.0000
  0
VERTEX
  8
20
 10
71.3020
 20
-6.3158
 30
0.0000
  0
SEQEND
  8
0
  0
POLYLINE
  8
20
 66
1
 10
0.0000
 20
0.0000
 30
0.0000
 40
0.1016
 41
0.1016
 70
0
  0
VERTEX
  8
20
 10
71.2512
 20
-6.3158
 30
0.0000
 42
1.0000
  0
VERTEX
  8
20
 10
71.3528
 20
-6.3158
 30
0.0000
  0
SEQEND
  8
0
  0
POLYLINE
  8
20
 66
1
 10
0.0000
 20
0.0000
 30
0.0000
 40
0.1016
 41
0.1016
 70
0
  0
VERTEX
  8
20
 10
71.3528
 20
-5.5362
 30
0.0000
 42
1.0000
  0
VERTEX
  8
20
 10
71.2512
 20
-5.5362
 30
0.0000
  0
SEQEND
  8
0
  0
POLYLINE
  8
20
 66
1
 10
0.0000
 20
0.0000
 30
0.0000
 40
0.2032
 41
0.2032
 70
0
  0
VERTEX
  8
20
 10
71.3020
 20
-6.3158
 30
0.0000
  0
VERTEX
  8
20
 10
71.6918
 20
-6.7056
 30
0.0000
  0
SEQEND
  8
0
  0
POLYLINE
  8
20
 66
1
 10
0.0000
 20
0.0000
 30
0.0000
 40
0.1016
 41
0.1016
 70
0
  0
VERTEX
  8
20
 10
71.6559
 20
-6.7415
 30
0.0000
 42
1.0000
  0
VERTEX
  8
20
 10
71.7277
 20
-6.6697
 30
0.0000
  0
SEQEND
  8
0
  0
POLYLINE
  8
20
 66
1
 10
0.0000
 20
0.0000
 30
0.0000
 40
0.1016
 41
0.1016
 70
0
  0
VERTEX
  8
20
 10
71.3379
 20
-6.2799
 30
0.0000
 42
1.0000
  0
VERTEX
  8
20
 10
71.2661
 20
-6.3517
 30
0.0000
  0
SEQEND
  8
0
  0
POLYLINE
  8
20
 66
1
 10
0.0000
 20
0.0000
 30
0.0000
 40
0.2032
 41
0.2032
 70
0
  0
VERTEX
  8
20
 10
73.6408
 20
-6.7056
 30
0.0000
  0
VERTEX
  8
20
 10
73.6408
 20
-5.1464
 30
0.0000
  0
SEQEND
  8
0
  0
POLYLINE
  8
20
 66
1
 10
0.0000
 20
0.0000
 30
0.0000
 40
0.1016
 41
0.1016
 70
0
  0
VERTEX
  8
20
 10
73.6916
 20
-5.1464
 30
0.0000
 42
1.0000
  0
VERTEX
  8
20
 10
73.5900
 20
-5.1464
 30
0.0000
  0
SEQEND
  8
0
  0
POLYLINE
  8
20
 66
1
 10
0.0000
 20
0.0000
 30
0.0000
 40
0.1016
 41
0.1016
 70
0
  0
VERTEX
  8
20
 10
73.5900
 20
-6.7056
 30
0.0000
 42
1.0000
  0
VERTEX
  8
20
 10
73.6916
 20
-6.7056
 30
0.0000
  0
SEQEND
  8
0
  0
POLYLINE
  8
20
 66
1
 10
0.0000
 20
0.0000
 30
0.0000
 40
0.2032
 41
0.2032
 70
0
  0
VERTEX
  8
20
 10
73.6408
 20
-5.1464
 30
0.0000
  0
VERTEX
  8
20
 10
74.8102
 20
-5.1464
 30
0.0000
  0
SEQEND
  8
0
  0
POLYLINE
  8
20
 66
1
 10
0.0000
 20
0.0000
 30
0.0000
 40
0.1016
 41
0.1016
 70
0
  0
VERTEX
  8
20
 10
74.8102
 20
-5.1972
 30
0.0000
 42
1.0000
  0
VERTEX
  8
20
 10
74.8102
 20
-5.0956
 30
0.0000
  0
SEQEND
  8
0
  0
POLYLINE
  8
20
 66
1
 10
0.0000
 20
0.0000
 30
0.0000
 40
0.1016
 41
0.1016
 70
0
  0
VERTEX
  8
20
 10
73.6408
 20
-5.0956
 30
0.0000
 42
1.0000
  0
VERTEX
  8
20
 10
73.6408
 20
-5.1972
 30
0.0000
  0
SEQEND
  8
0
  0
POLYLINE
  8
20
 66
1
 10
0.0000
 20
0.0000
 30
0.0000
 40
0.2032
 41
0.2032
 70
0
  0
VERTEX
  8
20
 10
74.8102
 20
-5.1464
 30
0.0000
  0
VERTEX
  8
20
 10
75.2000
 20
-5.5362
 30
0.0000
  0
SEQEND
  8
0
  0
POLYLINE
  8
20
 66
1
 10
0.0000
 20
0.0000
 30
0.0000
 40
0.1016
 41
0.1016
 70
0
  0
VERTEX
  8
20
 10
75.1641
 20
-5.5721
 30
0.0000
 42
1.0000
  0
VERTEX
  8
20
 10
75.2359
 20
-5.5003
 30
0.0000
  0
SEQEND
  8
0
  0
POLYLINE
  8
20
 66
1
 10
0.0000
 20
0.0000
 30
0.0000
 40
0.1016
 41
0.1016
 70
0
  0
VERTEX
  8
20
 10
74.8461
 20
-5.1105
 30
0.0000
 42
1.0000
  0
VERTEX
  8
20
 10
74.7743
 20
-5.1823
 30
0.0000
  0
SEQEND
  8
0
  0
POLYLINE
  8
20
 66
1
 10
0.0000
 20
0.0000
 30
0.0000
 40
0.2032
 41
0.2032
 70
0
  0
VERTEX
  8
20
 10
75.2000
 20
-5.5362
 30
0.0000
  0
VERTEX
  8
20
 10
75.2000
 20
-6.7056
 30
0.0000
  0
SEQEND
  8
0
  0
POLYLINE
  8
20
 66
1
 10
0.0000
 20
0.0000
 30
0.0000
 40
0.1016
 41
0.1016
 70
0
  0
VERTEX
  8
20
 10
75.1492
 20
-6.7056
 30
0.0000
 42
1.0000
  0
VERTEX
  8
20
 10
75.2508
 20
-6.7056
 30
0.0000
  0
SEQEND
  8
0
  0
POLYLINE
  8
20
 66
1
 10
0.0000
 20
0.0000
 30
0.0000
 40
0.1016
 41
0.1016
 70
0
  0
VERTEX
  8
20
 10
75.2508
 20
-5.5362
 30
0.0000
 42
1.0000
  0
VERTEX
  8
20
 10
75.1492
 20
-5.5362
 30
0.0000
  0
SEQEND
  8
0
  0
POLYLINE
  8
20
 66
1
 10
0.0000
 20
0.0000
 30
0.0000
 40
0.2032
 41
0.2032
 70
0
  0
VERTEX
  8
20
 10
75.9796
 20
-6.7056
 30
0.0000
  0
VERTEX
  8
20
 10
77.1490
 20
-6.7056
 30
0.0000
  0
SEQEND
  8
0
  0
POLYLINE
  8
20
 66
1
 10
0.0000
 20
0.0000
 30
0.0000
 40
0.1016
 41
0.1016
 70
0
  0
VERTEX
  8
20
 10
77.1490
 20
-6.7564
 30
0.0000
 42
1.0000
  0
VERTEX
  8
20
 10
77.1490
 20
-6.6548
 30
0.0000
  0
SEQEND
  8
0
  0
POLYLINE
  8
20
 66
1
 10
0.0000
 20
0.0000
 30
0.0000
 40
0.1016
 41
0.1016
 70
0
  0
VERTEX
  8
20
 10
75.9796
 20
-6.6548
 30
0.0000
 42
1.0000
  0
VERTEX
  8
20
 10
75.9796
 20
-6.7564
 30
0.0000
  0
SEQEND
  8
0
  0
POLYLINE
  8
20
 66
1
 10
0.0000
 20
0.0000
 30
0.0000
 40
0.2032
 41
0.2032
 70
0
  0
VERTEX
  8
20
 10
77.1490
 20
-6.7056
 30
0.0000
  0
VERTEX
  8
20
 10
77.5388
 20
-6.3158
 30
0.0000
  0
SEQEND
  8
0
  0
POLYLINE
  8
20
 66
1
 10
0.0000
 20
0.0000
 30
0.0000
 40
0.1016
 41
0.1016
 70
0
  0
VERTEX
  8
20
 10
77.5747
 20
-6.3517
 30
0.0000
 42
1.0000
  0
VERTEX
  8
20
 10
77.5028
 20
-6.2799
 30
0.0000
  0
SEQEND
  8
0
  0
POLYLINE
  8
20
 66
1
 10
0.0000
 20
0.0000
 30
0.0000
 40
0.1016
 41
0.1016
 70
0
  0
VERTEX
  8
20
 10
77.1130
 20
-6.6697
 30
0.0000
 42
1.0000
  0
VERTEX
  8
20
 10
77.1849
 20
-6.7415
 30
0.0000
  0
SEQEND
  8
0
  0
POLYLINE
  8
20
 66
1
 10
0.0000
 20
0.0000
 30
0.0000
 40
0.2032
 41
0.2032
 70
0
  0
VERTEX
  8
20
 10
77.5388
 20
-6.3158
 30
0.0000
  0
VERTEX
  8
20
 10
77.1490
 20
-5.9260
 30
0.0000
  0
SEQEND
  8
0
  0
POLYLINE
  8
20
 66
1
 10
0.0000
 20
0.0000
 30
0.0000
 40
0.1016
 41
0.1016
 70
0
  0
VERTEX
  8
20
 10
77.1849
 20
-5.8901
 30
0.0000
 42
1.0000
  0
VERTEX
  8
20
 10
77.1130
 20
-5.9619
 30
0.0000
  0
SEQEND
  8
0
  0
POLYLINE
  8
20
 66
1
 10
0.0000
 20
0.0000
 30
0.0000
 40
0.1016
 41
0.1016
 70
0
  0
VERTEX
  8
20
 10
77.5028
 20
-6.3517
 30
0.0000
 42
1.0000
  0
VERTEX
  8
20
 10
77.5747
 20
-6.2799
 30
0.0000
  0
SEQEND
  8
0
  0
POLYLINE
  8
20
 66
1
 10
0.0000
 20
0.0000
 30
0.0000
 40
0.2032
 41
0.2032
 70
0
  0
VERTEX
  8
20
 10
77.1490
 20
-5.9260
 30
0.0000
  0
VERTEX
  8
20
 10
76.3694
 20
-5.9260
 30
0.0000
  0
SEQEND
  8
0
  0
POLYLINE
  8
20
 66
1
 10
0.0000
 20
0.0000
 30
0.0000
 40
0.1016
 41
0.1016
 70
0
  0
VERTEX
  8
20
 10
76.3694
 20
-5.8752
 30
0.0000
 42
1.0000
  0
VERTEX
  8
20
 10
76.3694
 20
-5.9768
 30
0.0000
  0
SEQEND
  8
0
  0
POLYLINE
  8
20
 66
1
 10
0.0000
 20
0.0000
 30
0.0000
 40
0.1016
 41
0.1016
 70
0
  0
VERTEX
  8
20
 10
77.1490
 20
-5.9768
 30
0.0000
 42
1.0000
  0
VERTEX
  8
20
 10
77.1490
 20
-5.8752
 30
0.0000
  0
SEQEND
  8
0
  0
POLYLINE
  8
20
 66
1
 10
0.0000
 20
0.0000
 30
0.0000
 40
0.2032
 41
0.2032
 70
0
  0
VERTEX
  8
20
 10
76.3694
 20
-5.9260
 30
0.0000
  0
VERTEX
  8
20
 10
75.9796
 20
-5.5362
 30
0.0000
  0
SEQEND
  8
0
  0
POLYLINE
  8
20
 66
1
 10
0.0000
 20
0.0000
 30
0.0000
 40
0.1016
 41
0.1016
 70
0
  0
VERTEX
  8
20
 10
76.0155
 20
-5.5003
 30
0.0000
 42
1.0000
  0
VERTEX
  8
20
 10
75.9437
 20
-5.5721
 30
0.0000
  0
SEQEND
  8
0
  0
POLYLINE
  8
20
 66
1
 10
0.0000
 20
0.0000
 30
0.0000
 40
0.1016
 41
0.1016
 70
0
  0
VERTEX
  8
20
 10
76.3334
 20
-5.9619
 30
0.0000
 42
1.0000
  0
VERTEX
  8
20
 10
76.4053
 20
-5.8901
 30
0.0000
  0
SEQEND
  8
0
  0
POLYLINE
  8
20
 66
1
 10
0.0000
 20
0.0000
 30
0.0000
 40
0.2032
 41
0.2032
 70
0
  0
VERTEX
  8
20
 10
75.9796
 20
-5.5362
 30
0.0000
  0
VERTEX
  8
20
 10
76.3694
 20
-5.1464
 30
0.0000
  0
SEQEND
  8
0
  0
POLYLINE
  8
20
 66
1
 10
0.0000
 20
0.0000
 30
0.0000
 40
0.1016
 41
0.1016
 70
0
  0
VERTEX
  8
20
 10
76.4053
 20
-5.1823
 30
0.0000
 42
1.0000
  0
VERTEX
  8
20
 10
76.3334
 20
-5.1105
 30
0.0000
  0
SEQEND
  8
0
  0
POLYLINE
  8
20
 66
1
 10
0.0000
 20
0.0000
 30
0.0000
 40
0.1016
 41
0.1016
 70
0
  0
VERTEX
  8
20
 10
75.9437
 20
-5.5003
 30
0.0000
 42
1.0000
  0
VERTEX
  8
20
 10
76.0155
 20
-5.5721
 30
0.0000
  0
SEQEND
  8
0
  0
POLYLINE
  8
20
 66
1
 10
0.0000
 20
0.0000
 30
0.0000
 40
0.2032
 41
0.2032
 70
0
  0
VERTEX
  8
20
 10
76.3694
 20
-5.1464
 30
0.0000
  0
VERTEX
  8
20
 10
77.5388
 20
-5.1464
 30
0.0000
  0
SEQEND
  8
0
  0
POLYLINE
  8
20
 66
1
 10
0.0000
 20
0.0000
 30
0.0000
 40
0.1016
 41
0.1016
 70
0
  0
VERTEX
  8
20
 10
77.5388
 20
-5.1972
 30
0.0000
 42
1.0000
  0
VERTEX
  8
20
 10
77.5388
 20
-5.0956
 30
0.0000
  0
SEQEND
  8
0
  0
POLYLINE
  8
20
 66
1
 10
0.0000
 20
0.0000
 30
0.0000
 40
0.1016
 41
0.1016
 70
0
  0
VERTEX
  8
20
 10
76.3694
 20
-5.0956
 30
0.0000
 42
1.0000
  0
VERTEX
  8
20
 10
76.3694
 20
-5.1972
 30
0.0000
  0
SEQEND
  8
0
  0
POLYLINE
  8
20
 66
1
 10
0.0000
 20
0.0000
 30
0.0000
 40
0.2032
 41
0.2032
 70
0
  0
VERTEX
  8
20
 10
80.6572
 20
-5.1464
 30
0.0000
  0
VERTEX
  8
20
 10
81.0470
 20
-5.1464
 30
0.0000
  0
SEQEND
  8
0
  0
POLYLINE
  8
20
 66
1
 10
0.0000
 20
0.0000
 30
0.0000
 40
0.1016
 41
0.1016
 70
0
  0
VERTEX
  8
20
 10
81.0470
 20
-5.1972
 30
0.0000
 42
1.0000
  0
VERTEX
  8
20
 10
81.0470
 20
-5.0956
 30
0.0000
  0
SEQEND
  8
0
  0
POLYLINE
  8
20
 66
1
 10
0.0000
 20
0.0000
 30
0.0000
 40
0.1016
 41
0.1016
 70
0
  0
VERTEX
  8
20
 10
80.6572
 20
-5.0956
 30
0.0000
 42
1.0000
  0
VERTEX
  8
20
 10
80.6572
 20
-5.1972
 30
0.0000
  0
SEQEND
  8
0
  0
POLYLINE
  8
20
 66
1
 10
0.0000
 20
0.0000
 30
0.0000
 40
0.2032
 41
0.2032
 70
0
  0
VERTEX
  8
20
 10
81.0470
 20
-5.1464
 30
0.0000
  0
VERTEX
  8
20
 10
81.0470
 20
-6.7056
 30
0.0000
  0
SEQEND
  8
0
  0
POLYLINE
  8
20
 66
1
 10
0.0000
 20
0.0000
 30
0.0000
 40
0.1016
 41
0.1016
 70
0
  0
VERTEX
  8
20
 10
80.9962
 20
-6.7056
 30
0.0000
 42
1.0000
  0
VERTEX
  8
20
 10
81.0978
 20
-6.7056
 30
0.0000
  0
SEQEND
  8
0
  0
POLYLINE
  8
20
 66
1
 10
0.0000
 20
0.0000
 30
0.0000
 40
0.1016
 41
0.1016
 70
0
  0
VERTEX
  8
20
 10
81.0978
 20
-5.1464
 30
0.0000
 42
1.0000
  0
VERTEX
  8
20
 10
80.9962
 20
-5.1464
 30
0.0000
  0
SEQEND
  8
0
  0
POLYLINE
  8
20
 66
1
 10
0.0000
 20
0.0000
 30
0.0000
 40
0.2032
 41
0.2032
 70
0
  0
VERTEX
  8
20
 10
80.6572
 20
-6.7056
 30
0.0000
  0
VERTEX
  8
20
 10
81.4368
 20
-6.7056
 30
0.0000
  0
SEQEND
  8
0
  0
POLYLINE
  8
20
 66
1
 10
0.0000
 20
0.0000
 30
0.0000
 40
0.1016
 41
0.1016
 70
0
  0
VERTEX
  8
20
 10
81.4368
 20
-6.7564
 30
0.0000
 42
1.0000
  0
VERTEX
  8
20
 10
81.4368
 20
-6.6548
 30
0.0000
  0
SEQEND
  8
0
  0
POLYLINE
  8
20
 66
1
 10
0.0000
 20
0.0000
 30
0.0000
 40
0.1016
 41
0.1016
 70
0
  0
VERTEX
  8
20
 10
80.6572
 20
-6.6548
 30
0.0000
 42
1.0000
  0
VERTEX
  8
20
 10
80.6572
 20
-6.7564
 30
0.0000
  0
SEQEND
  8
0
  0
POLYLINE
  8
20
 66
1
 10
0.0000
 20
0.0000
 30
0.0000
 40
0.2032
 41
0.2032
 70
0
  0
VERTEX
  8
20
 10
81.0470
 20
-3.9770
 30
0.0000
  0
VERTEX
  8
20
 10
81.0470
 20
-4.3668
 30
0.0000
  0
SEQEND
  8
0
  0
POLYLINE
  8
20
 66
1
 10
0.0000
 20
0.0000
 30
0.0000
 40
0.1016
 41
0.1016
 70
0
  0
VERTEX
  8
20
 10
80.9962
 20
-4.3668
 30
0.0000
 42
1.0000
  0
VERTEX
  8
20
 10
81.0978
 20
-4.3668
 30
0.0000
  0
SEQEND
  8
0
  0
POLYLINE
  8
20
 66
1
 10
0.0000
 20
0.0000
 30
0.0000
 40
0.1016
 41
0.1016
 70
0
  0
VERTEX
  8
20
 10
81.0978
 20
-3.9770
 30
0.0000
 42
1.0000
  0
VERTEX
  8
20
 10
80.9962
 20
-3.9770
 30
0.0000
  0
SEQEND
  8
0
  0
POLYLINE
  8
20
 66
1
 10
0.0000
 20
0.0000
 30
0.0000
 40
0.2032
 41
0.2032
 70
0
  0
VERTEX
  8
20
 10
82.2164
 20
-6.7056
 30
0.0000
  0
VERTEX
  8
20
 10
82.2164
 20
-5.1464
 30
0.0000
  0
SEQEND
  8
0
  0
POLYLINE
  8
20
 66
1
 10
0.0000
 20
0.0000
 30
0.0000
 40
0.1016
 41
0.1016
 70
0
  0
VERTEX
  8
20
 10
82.2672
 20
-5.1464
 30
0.0000
 42
1.0000
  0
VERTEX
  8
20
 10
82.1656
 20
-5.1464
 30
0.0000
  0
SEQEND
  8
0
  0
POLYLINE
  8
20
 66
1
 10
0.0000
 20
0.0000
 30
0.0000
 40
0.1016
 41
0.1016
 70
0
  0
VERTEX
  8
20
 10
82.1656
 20
-6.7056
 30
0.0000
 42
1.0000
  0
VERTEX
  8
20
 10
82.2672
 20
-6.7056
 30
0.0000
  0
SEQEND
  8
0
  0
POLYLINE
  8
20
 66
1
 10
0.0000
 20
0.0000
 30
0.0000
 40
0.2032
 41
0.2032
 70
0
  0
VERTEX
  8
20
 10
82.2164
 20
-5.1464
 30
0.0000
  0
VERTEX
  8
20
 10
83.3858
 20
-5.1464
 30
0.0000
  0
SEQEND
  8
0
  0
POLYLINE
  8
20
 66
1
 10
0.0000
 20
0.0000
 30
0.0000
 40
0.1016
 41
0.1016
 70
0
  0
VERTEX
  8
20
 10
83.3858
 20
-5.1972
 30
0.0000
 42
1.0000
  0
VERTEX
  8
20
 10
83.3858
 20
-5.0956
 30
0.0000
  0
SEQEND
  8
0
  0
POLYLINE
  8
20
 66
1
 10
0.0000
 20
0.0000
 30
0.0000
 40
0.1016
 41
0.1016
 70
0
  0
VERTEX
  8
20
 10
82.2164
 20
-5.0956
 30
0.0000
 42
1.0000
  0
VERTEX
  8
20
 10
82.2164
 20
-5.1972
 30
0.0000
  0
SEQEND
  8
0
  0
POLYLINE
  8
20
 66
1
 10
0.0000
 20
0.0000
 30
0.0000
 40
0.2032
 41
0.2032
 70
0
  0
VERTEX
  8
20
 10
83.3858
 20
-5.1464
 30
0.0000
  0
VERTEX
  8
20
 10
83.7756
 20
-5.5362
 30
0.0000
  0
SEQEND
  8
0
  0
POLYLINE
  8
20
 66
1
 10
0.0000
 20
0.0000
 30
0.0000
 40
0.1016
 41
0.1016
 70
0
  0
VERTEX
  8
20
 10
83.7396
 20
-5.5721
 30
0.0000
 42
1.0000
  0
VERTEX
  8
20
 10
83.8115
 20
-5.5003
 30
0.0000
  0
SEQEND
  8
0
  0
POLYLINE
  8
20
 66
1
 10
0.0000
 20
0.0000
 30
0.0000
 40
0.1016
 41
0.1016
 70
0
  0
VERTEX
  8
20
 10
83.4217
 20
-5.1105
 30
0.0000
 42
1.0000
  0
VERTEX
  8
20
 10
83.3498
 20
-5.1823
 30
0.0000
  0
SEQEND
  8
0
  0
POLYLINE
  8
20
 66
1
 10
0.0000
 20
0.0000
 30
0.0000
 40
0.2032
 41
0.2032
 70
0
  0
VERTEX
  8
20
 10
83.7756
 20
-5.5362
 30
0.0000
  0
VERTEX
  8
20
 10
83.7756
 20
-6.7056
 30
0.0000
  0
SEQEND
  8
0
  0
POLYLINE
  8
20
 66
1
 10
0.0000
 20
0.0000
 30
0.0000
 40
0.1016
 41
0.1016
 70
0
  0
VERTEX
  8
20
 10
83.7248
 20
-6.7056
 30
0.0000
 42
1.0000
  0
VERTEX
  8
20
 10
83.8264
 20
-6.7056
 30
0.0000
  0
SEQEND
  8
0
  0
POLYLINE
  8
20
 66
1
 10
0.0000
 20
0.0000
 30
0.0000
 40
0.1016
 41
0.1016
 70
0
  0
VERTEX
  8
20
 10
83.8264
 20
-5.5362
 30
0.0000
 42
1.0000
  0
VERTEX
  8
20
 10
83.7248
 20
-5.5362
 30
0.0000
  0
SEQEND
  8
0
  0
POLYLINE
  8
20
 66
1
 10
0.0000
 20
0.0000
 30
0.0000
 40
0.2032
 41
0.2032
 70
0
  0
VERTEX
  8
20
 10
86.8940
 20
-6.7056
 30
0.0000
  0
VERTEX
  8
20
 10
86.8940
 20
-5.1464
 30
0.0000
  0
SEQEND
  8
0
  0
POLYLINE
  8
20
 66
1
 10
0.0000
 20
0.0000
 30
0.0000
 40
0.1016
 41
0.1016
 70
0
  0
VERTEX
  8
20
 10
86.9448
 20
-5.1464
 30
0.0000
 42
1.0000
  0
VERTEX
  8
20
 10
86.8432
 20
-5.1464
 30
0.0000
  0
SEQEND
  8
0
  0
POLYLINE
  8
20
 66
1
 10
0.0000
 20
0.0000
 30
0.0000
 40
0.1016
 41
0.1016
 70
0
  0
VERTEX
  8
20
 10
86.8432
 20
-6.7056
 30
0.0000
 42
1.0000
  0
VERTEX
  8
20
 10
86.9448
 20
-6.7056
 30
0.0000
  0
SEQEND
  8
0
  0
POLYLINE
  8
20
 66
1
 10
0.0000
 20
0.0000
 30
0.0000
 40
0.2032
 41
0.2032
 70
0
  0
VERTEX
  8
20
 10
86.8940
 20
-5.1464
 30
0.0000
  0
VERTEX
  8
20
 10
87.2838
 20
-5.1464
 30
0.0000
  0
SEQEND
  8
0
  0
POLYLINE
  8
20
 66
1
 10
0.0000
 20
0.0000
 30
0.0000
 40
0.1016
 41
0.1016
 70
0
  0
VERTEX
  8
20
 10
87.2838
 20
-5.1972
 30
0.0000
 42
1.0000
  0
VERTEX
  8
20
 10
87.2838
 20
-5.0956
 30
0.0000
  0
SEQEND
  8
0
  0
POLYLINE
  8
20
 66
1
 10
0.0000
 20
0.0000
 30
0.0000
 40
0.1016
 41
0.1016
 70
0
  0
VERTEX
  8
20
 10
86.8940
 20
-5.0956
 30
0.0000
 42
1.0000
  0
VERTEX
  8
20
 10
86.8940
 20
-5.1972
 30
0.0000
  0
SEQEND
  8
0
  0
POLYLINE
  8
20
 66
1
 10
0.0000
 20
0.0000
 30
0.0000
 40
0.2032
 41
0.2032
 70
0
  0
VERTEX
  8
20
 10
87.2838
 20
-5.1464
 30
0.0000
  0
VERTEX
  8
20
 10
87.6736
 20
-5.5362
 30
0.0000
  0
SEQEND
  8
0
  0
POLYLINE
  8
20
 66
1
 10
0.0000
 20
0.0000
 30
0.0000
 40
0.1016
 41
0.1016
 70
0
  0
VERTEX
  8
20
 10
87.6376
 20
-5.5721
 30
0.0000
 42
1.0000
  0
VERTEX
  8
20
 10
87.7095
 20
-5.5003
 30
0.0000
  0
SEQEND
  8
0
  0
POLYLINE
  8
20
 66
1
 10
0.0000
 20
0.0000
 30
0.0000
 40
0.1016
 41
0.1016
 70
0
  0
VERTEX
  8
20
 10
87.3197
 20
-5.1105
 30
0.0000
 42
1.0000
  0
VERTEX
  8
20
 10
87.2478
 20
-5.1823
 30
0.0000
  0
SEQEND
  8
0
  0
POLYLINE
  8
20
 66
1
 10
0.0000
 20
0.0000
 30
0.0000
 40
0.2032
 41
0.2032
 70
0
  0
VERTEX
  8
20
 10
87.6736
 20
-5.5362
 30
0.0000
  0
VERTEX
  8
20
 10
87.6736
 20
-6.7056
 30
0.0000
  0
SEQEND
  8
0
  0
POLYLINE
  8
20
 66
1
 10
0.0000
 20
0.0000
 30
0.0000
 40
0.1016
 41
0.1016
 70
0
  0
VERTEX
  8
20
 10
87.6228
 20
-6.7056
 30
0.0000
 42
1.0000
  0
VERTEX
  8
20
 10
87.7244
 20
-6.7056
 30
0.0000
  0
SEQEND
  8
0
  0
POLYLINE
  8
20
 66
1
 10
0.0000
 20
0.0000
 30
0.0000
 40
0.1016
 41
0.1016
 70
0
  0
VERTEX
  8
20
 10
87.7244
 20
-5.5362
 30
0.0000
 42
1.0000
  0
VERTEX
  8
20
 10
87.6228
 20
-5.5362
 30
0.0000
  0
SEQEND
  8
0
  0
POLYLINE
  8
20
 66
1
 10
0.0000
 20
0.0000
 30
0.0000
 40
0.2032
 41
0.2032
 70
0
  0
VERTEX
  8
20
 10
87.6736
 20
-5.5362
 30
0.0000
  0
VERTEX
  8
20
 10
88.0634
 20
-5.1464
 30
0.0000
  0
SEQEND
  8
0
  0
POLYLINE
  8
20
 66
1
 10
0.0000
 20
0.0000
 30
0.0000
 40
0.1016
 41
0.1016
 70
0
  0
VERTEX
  8
20
 10
88.0993
 20
-5.1823
 30
0.0000
 42
1.0000
  0
VERTEX
  8
20
 10
88.0274
 20
-5.1105
 30
0.0000
  0
SEQEND
  8
0
  0
POLYLINE
  8
20
 66
1
 10
0.0000
 20
0.0000
 30
0.0000
 40
0.1016
 41
0.1016
 70
0
  0
VERTEX
  8
20
 10
87.6376
 20
-5.5003
 30
0.0000
 42
1.0000
  0
VERTEX
  8
20
 10
87.7095
 20
-5.5721
 30
0.0000
  0
SEQEND
  8
0
  0
POLYLINE
  8
20
 66
1
 10
0.0000
 20
0.0000
 30
0.0000
 40
0.2032
 41
0.2032
 70
0
  0
VERTEX
  8
20
 10
88.0634
 20
-5.1464
 30
0.0000
  0
VERTEX
  8
20
 10
88.4532
 20
-5.5362
 30
0.0000
  0
SEQEND
  8
0
  0
POLYLINE
  8
20
 66
1
 10
0.0000
 20
0.0000
 30
0.0000
 40
0.1016
 41
0.1016
 70
0
  0
VERTEX
  8
20
 10
88.4172
 20
-5.5721
 30
0.0000
 42
1.0000
  0
VERTEX
  8
20
 10
88.4891
 20
-5.5003
 30
0.0000
  0
SEQEND
  8
0
  0
POLYLINE
  8
20
 66
1
 10
0.0000
 20
0.0000
 30
0.0000
 40
0.1016
 41
0.1016
 70
0
  0
VERTEX
  8
20
 10
88.0993
 20
-5.1105
 30
0.0000
 42
1.0000
  0
VERTEX
  8
20
 10
88.0274
 20
-5.1823
 30
0.0000
  0
SEQEND
  8
0
  0
POLYLINE
  8
20
 66
1
 10
0.0000
 20
0.0000
 30
0.0000
 40
0.2032
 41
0.2032
 70
0
  0
VERTEX
  8
20
 10
88.4532
 20
-5.5362
 30
0.0000
  0
VERTEX
  8
20
 10
88.4532
 20
-6.7056
 30
0.0000
  0
SEQEND
  8
0
  0
POLYLINE
  8
20
 66
1
 10
0.0000
 20
0.0000
 30
0.0000
 40
0.1016
 41
0.1016
 70
0
  0
VERTEX
  8
20
 10
88.4024
 20
-6.7056
 30
0.0000
 42
1.0000
  0
VERTEX
  8
20
 10
88.5040
 20
-6.7056
 30
0.0000
  0
SEQEND
  8
0
  0
POLYLINE
  8
20
 66
1
 10
0.0000
 20
0.0000
 30
0.0000
 40
0.1016
 41
0.1016
 70
0
  0
VERTEX
  8
20
 10
88.5040
 20
-5.5362
 30
0.0000
 42
1.0000
  0
VERTEX
  8
20
 10
88.4024
 20
-5.5362
 30
0.0000
  0
SEQEND
  8
0
  0
POLYLINE
  8
20
 66
1
 10
0.0000
 20
0.0000
 30
0.0000
 40
0.2032
 41
0.2032
 70
0
  0
VERTEX
  8
20
 10
89.2328
 20
-6.7056
 30
0.0000
  0
VERTEX
  8
20
 10
89.2328
 20
-5.1464
 30
0.0000
  0
SEQEND
  8
0
  0
POLYLINE
  8
20
 66
1
 10
0.0000
 20
0.0000
 30
0.0000
 40
0.1016
 41
0.1016
 70
0
  0
VERTEX
  8
20
 10
89.2836
 20
-5.1464
 30
0.0000
 42
1.0000
  0
VERTEX
  8
20
 10
89.1820
 20
-5.1464
 30
0.0000
  0
SEQEND
  8
0
  0
POLYLINE
  8
20
 66
1
 10
0.0000
 20
0.0000
 30
0.0000
 40
0.1016
 41
0.1016
 70
0
  0
VERTEX
  8
20
 10
89.1820
 20
-6.7056
 30
0.0000
 42
1.0000
  0
VERTEX
  8
20
 10
89.2836
 20
-6.7056
 30
0.0000
  0
SEQEND
  8
0
  0
POLYLINE
  8
20
 66
1
 10
0.0000
 20
0.0000
 30
0.0000
 40
0.2032
 41
0.2032
 70
0
  0
VERTEX
  8
20
 10
89.2328
 20
-5.1464
 30
0.0000
  0
VERTEX
  8
20
 10
89.6226
 20
-5.1464
 30
0.0000
  0
SEQEND
  8
0
  0
POLYLINE
  8
20
 66
1
 10
0.0000
 20
0.0000
 30
0.0000
 40
0.1016
 41
0.1016
 70
0
  0
VERTEX
  8
20
 10
89.6226
 20
-5.1972
 30
0.0000
 42
1.0000
  0
VERTEX
  8
20
 10
89.6226
 20
-5.0956
 30
0.0000
  0
SEQEND
  8
0
  0
POLYLINE
  8
20
 66
1
 10
0.0000
 20
0.0000
 30
0.0000
 40
0.1016
 41
0.1016
 70
0
  0
VERTEX
  8
20
 10
89.2328
 20
-5.0956
 30
0.0000
 42
1.0000
  0
VERTEX
  8
20
 10
89.2328
 20
-5.1972
 30
0.0000
  0
SEQEND
  8
0
  0
POLYLINE
  8
20
 66
1
 10
0.0000
 20
0.0000
 30
0.0000
 40
0.2032
 41
0.2032
 70
0
  0
VERTEX
  8
20
 10
89.6226
 20
-5.1464
 30
0.0000
  0
VERTEX
  8
20
 10
90.0123
 20
-5.5362
 30
0.0000
  0
SEQEND
  8
0
  0
POLYLINE
  8
20
 66
1
 10
0.0000
 20
0.0000
 30
0.0000
 40
0.1016
 41
0.1016
 70
0
  0
VERTEX
  8
20
 10
89.9764
 20
-5.5721
 30
0.0000
 42
1.0000
  0
VERTEX
  8
20
 10
90.0483
 20
-5.5003
 30
0.0000
  0
SEQEND
  8
0
  0
POLYLINE
  8
20
 66
1
 10
0.0000
 20
0.0000
 30
0.0000
 40
0.1016
 41
0.1016
 70
0
  0
VERTEX
  8
20
 10
89.6585
 20
-5.1105
 30
0.0000
 42
1.0000
  0
VERTEX
  8
20
 10
89.5866
 20
-5.1823
 30
0.0000
  0
SEQEND
  8
0
  0
POLYLINE
  8
20
 66
1
 10
0.0000
 20
0.0000
 30
0.0000
 40
0.2032
 41
0.2032
 70
0
  0
VERTEX
  8
20
 10
90.0123
 20
-5.5362
 30
0.0000
  0
VERTEX
  8
20
 10
90.0123
 20
-6.7056
 30
0.0000
  0
SEQEND
  8
0
  0
POLYLINE
  8
20
 66
1
 10
0.0000
 20
0.0000
 30
0.0000
 40
0.1016
 41
0.1016
 70
0
  0
VERTEX
  8
20
 10
89.9616
 20
-6.7056
 30
0.0000
 42
1.0000
  0
VERTEX
  8
20
 10
90.0631
 20
-6.7056
 30
0.0000
  0
SEQEND
  8
0
  0
POLYLINE
  8
20
 66
1
 10
0.0000
 20
0.0000
 30
0.0000
 40
0.1016
 41
0.1016
 70
0
  0
VERTEX
  8
20
 10
90.0631
 20
-5.5362
 30
0.0000
 42
1.0000
  0
VERTEX
  8
20
 10
89.9616
 20
-5.5362
 30
0.0000
  0
SEQEND
  8
0
  0
POLYLINE
  8
20
 66
1
 10
0.0000
 20
0.0000
 30
0.0000
 40
0.2032
 41
0.2032
 70
0
  0
VERTEX
  8
20
 10
90.0123
 20
-5.5362
 30
0.0000
  0
VERTEX
  8
20
 10
90.4022
 20
-5.1464
 30
0.0000
  0
SEQEND
  8
0
  0
POLYLINE
  8
20
 66
1
 10
0.0000
 20
0.0000
 30
0.0000
 40
0.1016
 41
0.1016
 70
0
  0
VERTEX
  8
20
 10
90.4381
 20
-5.1823
 30
0.0000
 42
1.0000
  0
VERTEX
  8
20
 10
90.3662
 20
-5.1105
 30
0.0000
  0
SEQEND
  8
0
  0
POLYLINE
  8
20
 66
1
 10
0.0000
 20
0.0000
 30
0.0000
 40
0.1016
 41
0.1016
 70
0
  0
VERTEX
  8
20
 10
89.9764
 20
-5.5003
 30
0.0000
 42
1.0000
  0
VERTEX
  8
20
 10
90.0483
 20
-5.5721
 30
0.0000
  0
SEQEND
  8
0
  0
POLYLINE
  8
20
 66
1
 10
0.0000
 20
0.0000
 30
0.0000
 40
0.2032
 41
0.2032
 70
0
  0
VERTEX
  8
20
 10
90.4022
 20
-5.1464
 30
0.0000
  0
VERTEX
  8
20
 10
90.7919
 20
-5.5362
 30
0.0000
  0
SEQEND
  8
0
  0
POLYLINE
  8
20
 66
1
 10
0.0000
 20
0.0000
 30
0.0000
 40
0.1016
 41
0.1016
 70
0
  0
VERTEX
  8
20
 10
90.7560
 20
-5.5721
 30
0.0000
 42
1.0000
  0
VERTEX
  8
20
 10
90.8279
 20
-5.5003
 30
0.0000
  0
SEQEND
  8
0
  0
POLYLINE
  8
20
 66
1
 10
0.0000
 20
0.0000
 30
0.0000
 40
0.1016
 41
0.1016
 70
0
  0
VERTEX
  8
20
 10
90.4381
 20
-5.1105
 30
0.0000
 42
1.0000
  0
VERTEX
  8
20
 10
90.3662
 20
-5.1823
 30
0.0000
  0
SEQEND
  8
0
  0
POLYLINE
  8
20
 66
1
 10
0.0000
 20
0.0000
 30
0.0000
 40
0.2032
 41
0.2032
 70
0
  0
VERTEX
  8
20
 10
90.7919
 20
-5.5362
 30
0.0000
  0
VERTEX
  8
20
 10
90.7919
 20
-6.7056
 30
0.0000
  0
SEQEND
  8
0
  0
POLYLINE
  8
20
 66
1
 10
0.0000
 20
0.0000
 30
0.0000
 40
0.1016
 41
0.1016
 70
0
  0
VERTEX
  8
20
 10
90.7412
 20
-6.7056
 30
0.0000
 42
1.0000
  0
VERTEX
  8
20
 10
90.8427
 20
-6.7056
 30
0.0000
  0
SEQEND
  8
0
  0
POLYLINE
  8
20
 66
1
 10
0.0000
 20
0.0000
 30
0.0000
 40
0.1016
 41
0.1016
 70
0
  0
VERTEX
  8
20
 10
90.8427
 20
-5.5362
 30
0.0000
 42
1.0000
  0
VERTEX
  8
20
 10
90.7412
 20
-5.5362
 30
0.0000
  0
SEQEND
  8
0
  0
POLYLINE
  8
20
 66
1
 10
0.0000
 20
0.0000
 30
0.0000
 40
0.1300
 41
0.1300
 70
0
  0
VERTEX
  8
20
 10
141.8011
 20
30.2908
 30
0.0000
  0
VERTEX
  8
20
 10
141.8011
 20
-4.9726
 30
0.0000
  0
SEQEND
  8
0
  0
POLYLINE
  8
20
 66
1
 10
0.0000
 20
0.0000
 30
0.0000
 40
0.0650
 41
0.0650
 70
0
  0
VERTEX
  8
20
 10
141.7686
 20
-4.9726
 30
0.0000
 42
1.0000
  0
VERTEX
  8
20
 10
141.8336
 20
-4.9726
 30
0.0000
  0
SEQEND
  8
0
  0
POLYLINE
  8
20
 66
1
 10
0.0000
 20
0.0000
 30
0.0000
 40
0.0650
 41
0.0650
 70
0
  0
VERTEX
  8
20
 10
141.8336
 20
30.2908
 30
0.0000
 42
1.0000
  0
VERTEX
  8
20
 10
141.7686
 20
30.2908
 30
0.0000
  0
SEQEND
  8
0
  0
POLYLINE
  8
20
 66
1
 10
0.0000
 20
0.0000
 30
0.0000
 40
0.1300
 41
0.1300
 70
0
  0
VERTEX
  8
20
 10
-2.0739
 20
30.2908
 30
0.0000
  0
VERTEX
  8
20
 10
-2.0739
 20
-4.9726
 30
0.0000
  0
SEQEND
  8
0
  0
POLYLINE
  8
20
 66
1
 10
0.0000
 20
0.0000
 30
0.0000
 40
0.0650
 41
0.0650
 70
0
  0
VERTEX
  8
20
 10
-2.1064
 20
-4.9726
 30
0.0000
 42
1.0000
  0
VERTEX
  8
20
 10
-2.0414
 20
-4.9726
 30
0.0000
  0
SEQEND
  8
0
  0
POLYLINE
  8
20
 66
1
 10
0.0000
 20
0.0000
 30
0.0000
 40
0.0650
 41
0.0650
 70
0
  0
VERTEX
  8
20
 10
-2.0414
 20
30.2908
 30
0.0000
 42
1.0000
  0
VERTEX
  8
20
 10
-2.1064
 20
30.2908
 30
0.0000
  0
SEQEND
  8
0
  0
POLYLINE
  8
20
 66
1
 10
0.0000
 20
0.0000
 30
0.0000
 40
0.1300
 41
0.1300
 70
0
  0
VERTEX
  8
20
 10
141.7361
 20
-3.0226
 30
0.0000
  0
VERTEX
  8
20
 10
-2.0089
 20
-3.0226
 30
0.0000
  0
SEQEND
  8
0
  0
POLYLINE
  8
20
 66
1
 10
0.0000
 20
0.0000
 30
0.0000
 40
0.0650
 41
0.0650
 70
0
  0
VERTEX
  8
20
 10
-2.0089
 20
-2.9901
 30
0.0000
 42
1.0000
  0
VERTEX
  8
20
 10
-2.0089
 20
-3.0551
 30
0.0000
  0
SEQEND
  8
0
  0
POLYLINE
  8
20
 66
1
 10
0.0000
 20
0.0000
 30
0.0000
 40
0.0650
 41
0.0650
 70
0
  0
VERTEX
  8
20
 10
141.7361
 20
-3.0551
 30
0.0000
 42
1.0000
  0
VERTEX
  8
20
 10
141.7361
 20
-2.9901
 30
0.0000
  0
SEQEND
  8
0
  0
POLYLINE
  8
20
 66
1
 10
0.0000
 20
0.0000
 30
0.0000
 40
0.1300
 41
0.1300
 70
0
  0
VERTEX
  8
20
 10
141.7361
 20
-3.0226
 30
0.0000
  0
VERTEX
  8
20
 10
139.2011
 20
-2.7034
 30
0.0000
  0
SEQEND
  8
0
  0
POLYLINE
  8
20
 66
1
 10
0.0000
 20
0.0000
 30
0.0000
 40
0.0650
 41
0.0650
 70
0
  0
VERTEX
  8
20
 10
139.2051
 20
-2.6711
 30
0.0000
 42
1.0000
  0
VERTEX
  8
20
 10
139.1970
 20
-2.7356
 30
0.0000
  0
SEQEND
  8
0
  0
POLYLINE
  8
20
 66
1
 10
0.0000
 20
0.0000
 30
0.0000
 40
0.0650
 41
0.0650
 70
0
  0
VERTEX
  8
20
 10
141.7320
 20
-3.0548
 30
0.0000
 42
1.0000
  0
VERTEX
  8
20
 10
141.7401
 20
-2.9904
 30
0.0000
  0
SEQEND
  8
0
  0
POLYLINE
  8
20
 66
1
 10
0.0000
 20
0.0000
 30
0.0000
 40
0.1300
 41
0.1300
 70
0
  0
VERTEX
  8
20
 10
139.2011
 20
-2.7034
 30
0.0000
  0
VERTEX
  8
20
 10
139.2011
 20
-3.3418
 30
0.0000
  0
SEQEND
  8
0
  0
POLYLINE
  8
20
 66
1
 10
0.0000
 20
0.0000
 30
0.0000
 40
0.0650
 41
0.0650
 70
0
  0
VERTEX
  8
20
 10
139.1686
 20
-3.3418
 30
0.0000
 42
1.0000
  0
VERTEX
  8
20
 10
139.2336
 20
-3.3418
 30
0.0000
  0
SEQEND
  8
0
  0
POLYLINE
  8
20
 66
1
 10
0.0000
 20
0.0000
 30
0.0000
 40
0.0650
 41
0.0650
 70
0
  0
VERTEX
  8
20
 10
139.2336
 20
-2.7034
 30
0.0000
 42
1.0000
  0
VERTEX
  8
20
 10
139.1686
 20
-2.7034
 30
0.0000
  0
SEQEND
  8
0
  0
POLYLINE
  8
20
 66
1
 10
0.0000
 20
0.0000
 30
0.0000
 40
0.1300
 41
0.1300
 70
0
  0
VERTEX
  8
20
 10
139.2011
 20
-3.3418
 30
0.0000
  0
VERTEX
  8
20
 10
141.7361
 20
-3.0226
 30
0.0000
  0
SEQEND
  8
0
  0
POLYLINE
  8
20
 66
1
 10
0.0000
 20
0.0000
 30
0.0000
 40
0.0650
 41
0.0650
 70
0
  0
VERTEX
  8
20
 10
141.7401
 20
-3.0548
 30
0.0000
 42
1.0000
  0
VERTEX
  8
20
 10
141.7320
 20
-2.9904
 30
0.0000
  0
SEQEND
  8
0
  0
POLYLINE
  8
20
 66
1
 10
0.0000
 20
0.0000
 30
0.0000
 40
0.0650
 41
0.0650
 70
0
  0
VERTEX
  8
20
 10
139.1970
 20
-3.3096
 30
0.0000
 42
1.0000
  0
VERTEX
  8
20
 10
139.2051
 20
-3.3741
 30
0.0000
  0
SEQEND
  8
0
  0
POLYLINE
  8
20
 66
1
 10
0.0000
 20
0.0000
 30
0.0000
 40
0.1300
 41
0.1300
 70
0
  0
VERTEX
  8
20
 10
141.7361
 20
-3.0226
 30
0.0000
  0
VERTEX
  8
20
 10
139.2011
 20
-2.8926
 30
0.0000
  0
SEQEND
  8
0
  0
POLYLINE
  8
20
 66
1
 10
0.0000
 20
0.0000
 30
0.0000
 40
0.0650
 41
0.0650
 70
0
  0
VERTEX
  8
20
 10
139.2028
 20
-2.8601
 30
0.0000
 42
1.0000
  0
VERTEX
  8
20
 10
139.1994
 20
-2.9251
 30
0.0000
  0
SEQEND
  8
0
  0
POLYLINE
  8
20
 66
1
 10
0.0000
 20
0.0000
 30
0.0000
 40
0.0650
 41
0.0650
 70
0
  0
VERTEX
  8
20
 10
141.7344
 20
-3.0551
 30
0.0000
 42
1.0000
  0
VERTEX
  8
20
 10
141.7378
 20
-2.9901
 30
0.0000
  0
SEQEND
  8
0
  0
POLYLINE
  8
20
 66
1
 10
0.0000
 20
0.0000
 30
0.0000
 40
0.1300
 41
0.1300
 70
0
  0
VERTEX
  8
20
 10
139.2011
 20
-3.1526
 30
0.0000
  0
VERTEX
  8
20
 10
141.7361
 20
-3.0226
 30
0.0000
  0
SEQEND
  8
0
  0
POLYLINE
  8
20
 66
1
 10
0.0000
 20
0.0000
 30
0.0000
 40
0.0650
 41
0.0650
 70
0
  0
VERTEX
  8
20
 10
141.7378
 20
-3.0551
 30
0.0000
 42
1.0000
  0
VERTEX
  8
20
 10
141.7344
 20
-2.9901
 30
0.0000
  0
SEQEND
  8
0
  0
POLYLINE
  8
20
 66
1
 10
0.0000
 20
0.0000
 30
0.0000
 40
0.0650
 41
0.0650
 70
0
  0
VERTEX
  8
20
 10
139.1994
 20
-3.1201
 30
0.0000
 42
1.0000
  0
VERTEX
  8
20
 10
139.2028
 20
-3.1851
 30
0.0000
  0
SEQEND
  8
0
  0
POLYLINE
  8
20
 66
1
 10
0.0000
 20
0.0000
 30
0.0000
 40
0.1300
 41
0.1300
 70
0
  0
VERTEX
  8
20
 10
141.7361
 20
-3.0226
 30
0.0000
  0
VERTEX
  8
20
 10
139.2011
 20
-2.7626
 30
0.0000
  0
SEQEND
  8
0
  0
POLYLINE
  8
20
 66
1
 10
0.0000
 20
0.0000
 30
0.0000
 40
0.0650
 41
0.0650
 70
0
  0
VERTEX
  8
20
 10
139.2044
 20
-2.7303
 30
0.0000
 42
1.0000
  0
VERTEX
  8
20
 10
139.1978
 20
-2.7949
 30
0.0000
  0
SEQEND
  8
0
  0
POLYLINE
  8
20
 66
1
 10
0.0000
 20
0.0000
 30
0.0000
 40
0.0650
 41
0.0650
 70
0
  0
VERTEX
  8
20
 10
141.7328
 20
-3.0549
 30
0.0000
 42
1.0000
  0
VERTEX
  8
20
 10
141.7394
 20
-2.9903
 30
0.0000
  0
SEQEND
  8
0
  0
POLYLINE
  8
20
 66
1
 10
0.0000
 20
0.0000
 30
0.0000
 40
0.1300
 41
0.1300
 70
0
  0
VERTEX
  8
20
 10
139.2011
 20
-3.2826
 30
0.0000
  0
VERTEX
  8
20
 10
141.7361
 20
-3.0226
 30
0.0000
  0
SEQEND
  8
0
  0
POLYLINE
  8
20
 66
1
 10
0.0000
 20
0.0000
 30
0.0000
 40
0.0650
 41
0.0650
 70
0
  0
VERTEX
  8
20
 10
141.7394
 20
-3.0549
 30
0.0000
 42
1.0000
  0
VERTEX
  8
20
 10
141.7328
 20
-2.9903
 30
0.0000
  0
SEQEND
  8
0
  0
POLYLINE
  8
20
 66
1
 10
0.0000
 20
0.0000
 30
0.0000
 40
0.0650
 41
0.0650
 70
0
  0
VERTEX
  8
20
 10
139.1978
 20
-3.2503
 30
0.0000
 42
1.0000
  0
VERTEX
  8
20
 10
139.2044
 20
-3.3149
 30
0.0000
  0
SEQEND
  8
0
  0
POLYLINE
  8
20
 66
1
 10
0.0000
 20
0.0000
 30
0.0000
 40
0.1300
 41
0.1300
 70
0
  0
VERTEX
  8
20
 10
-2.0089
 20
-3.0226
 30
0.0000
  0
VERTEX
  8
20
 10
0.5261
 20
-2.7034
 30
0.0000
  0
SEQEND
  8
0
  0
POLYLINE
  8
20
 66
1
 10
0.0000
 20
0.0000
 30
0.0000
 40
0.0650
 41
0.0650
 70
0
  0
VERTEX
  8
20
 10
0.5302
 20
-2.7356
 30
0.0000
 42
1.0000
  0
VERTEX
  8
20
 10
0.5220
 20
-2.6711
 30
0.0000
  0
SEQEND
  8
0
  0
POLYLINE
  8
20
 66
1
 10
0.0000
 20
0.0000
 30
0.0000
 40
0.0650
 41
0.0650
 70
0
  0
VERTEX
  8
20
 10
-2.0130
 20
-2.9904
 30
0.0000
 42
1.0000
  0
VERTEX
  8
20
 10
-2.0048
 20
-3.0548
 30
0.0000
  0
SEQEND
  8
0
  0
POLYLINE
  8
20
 66
1
 10
0.0000
 20
0.0000
 30
0.0000
 40
0.1300
 41
0.1300
 70
0
  0
VERTEX
  8
20
 10
0.5261
 20
-2.7034
 30
0.0000
  0
VERTEX
  8
20
 10
0.5261
 20
-3.3418
 30
0.0000
  0
SEQEND
  8
0
  0
POLYLINE
  8
20
 66
1
 10
0.0000
 20
0.0000
 30
0.0000
 40
0.0650
 41
0.0650
 70
0
  0
VERTEX
  8
20
 10
0.4936
 20
-3.3418
 30
0.0000
 42
1.0000
  0
VERTEX
  8
20
 10
0.5586
 20
-3.3418
 30
0.0000
  0
SEQEND
  8
0
  0
POLYLINE
  8
20
 66
1
 10
0.0000
 20
0.0000
 30
0.0000
 40
0.0650
 41
0.0650
 70
0
  0
VERTEX
  8
20
 10
0.5586
 20
-2.7034
 30
0.0000
 42
1.0000
  0
VERTEX
  8
20
 10
0.4936
 20
-2.7034
 30
0.0000
  0
SEQEND
  8
0
  0
POLYLINE
  8
20
 66
1
 10
0.0000
 20
0.0000
 30
0.0000
 40
0.1300
 41
0.1300
 70
0
  0
VERTEX
  8
20
 10
0.5261
 20
-3.3418
 30
0.0000
  0
VERTEX
  8
20
 10
-2.0089
 20
-3.0226
 30
0.0000
  0
SEQEND
  8
0
  0
POLYLINE
  8
20
 66
1
 10
0.0000
 20
0.0000
 30
0.0000
 40
0.0650
 41
0.0650
 70
0
  0
VERTEX
  8
20
 10
-2.0048
 20
-2.9904
 30
0.0000
 42
1.0000
  0
VERTEX
  8
20
 10
-2.0130
 20
-3.0548
 30
0.0000
  0
SEQEND
  8
0
  0
POLYLINE
  8
20
 66
1
 10
0.0000
 20
0.0000
 30
0.0000
 40
0.0650
 41
0.0650
 70
0
  0
VERTEX
  8
20
 10
0.5220
 20
-3.3741
 30
0.0000
 42
1.0000
  0
VERTEX
  8
20
 10
0.5302
 20
-3.3096
 30
0.0000
  0
SEQEND
  8
0
  0
POLYLINE
  8
20
 66
1
 10
0.0000
 20
0.0000
 30
0.0000
 40
0.1300
 41
0.1300
 70
0
  0
VERTEX
  8
20
 10
-2.0089
 20
-3.0226
 30
0.0000
  0
VERTEX
  8
20
 10
0.5261
 20
-2.8926
 30
0.0000
  0
SEQEND
  8
0
  0
POLYLINE
  8
20
 66
1
 10
0.0000
 20
0.0000
 30
0.0000
 40
0.0650
 41
0.0650
 70
0
  0
VERTEX
  8
20
 10
0.5278
 20
-2.9251
 30
0.0000
 42
1.0000
  0
VERTEX
  8
20
 10
0.5244
 20
-2.8601
 30
0.0000
  0
SEQEND
  8
0
  0
POLYLINE
  8
20
 66
1
 10
0.0000
 20
0.0000
 30
0.0000
 40
0.0650
 41
0.0650
 70
0
  0
VERTEX
  8
20
 10
-2.0106
 20
-2.9901
 30
0.0000
 42
1.0000
  0
VERTEX
  8
20
 10
-2.0072
 20
-3.0551
 30
0.0000
  0
SEQEND
  8
0
  0
POLYLINE
  8
20
 66
1
 10
0.0000
 20
0.0000
 30
0.0000
 40
0.1300
 41
0.1300
 70
0
  0
VERTEX
  8
20
 10
0.5261
 20
-3.1526
 30
0.0000
  0
VERTEX
  8
20
 10
-2.0089
 20
-3.0226
 30
0.0000
  0
SEQEND
  8
0
  0
POLYLINE
  8
20
 66
1
 10
0.0000
 20
0.0000
 30
0.0000
 40
0.0650
 41
0.0650
 70
0
  0
VERTEX
  8
20
 10
-2.0072
 20
-2.9901
 30
0.0000
 42
1.0000
  0
VERTEX
  8
20
 10
-2.0106
 20
-3.0551
 30
0.0000
  0
SEQEND
  8
0
  0
POLYLINE
  8
20
 66
1
 10
0.0000
 20
0.0000
 30
0.0000
 40
0.0650
 41
0.0650
 70
0
  0
VERTEX
  8
20
 10
0.5244
 20
-3.1851
 30
0.0000
 42
1.0000
  0
VERTEX
  8
20
 10
0.5278
 20
-3.1201
 30
0.0000
  0
SEQEND
  8
0
  0
POLYLINE
  8
20
 66
1
 10
0.0000
 20
0.0000
 30
0.0000
 40
0.1300
 41
0.1300
 70
0
  0
VERTEX
  8
20
 10
-2.0089
 20
-3.0226
 30
0.0000
  0
VERTEX
  8
20
 10
0.5261
 20
-2.7626
 30
0.0000
  0
SEQEND
  8
0
  0
POLYLINE
  8
20
 66
1
 10
0.0000
 20
0.0000
 30
0.0000
 40
0.0650
 41
0.0650
 70
0
  0
VERTEX
  8
20
 10
0.5294
 20
-2.7949
 30
0.0000
 42
1.0000
  0
VERTEX
  8
20
 10
0.5228
 20
-2.7303
 30
0.0000
  0
SEQEND
  8
0
  0
POLYLINE
  8
20
 66
1
 10
0.0000
 20
0.0000
 30
0.0000
 40
0.0650
 41
0.0650
 70
0
  0
VERTEX
  8
20
 10
-2.0122
 20
-2.9903
 30
0.0000
 42
1.0000
  0
VERTEX
  8
20
 10
-2.0056
 20
-3.0549
 30
0.0000
  0
SEQEND
  8
0
  0
POLYLINE
  8
20
 66
1
 10
0.0000
 20
0.0000
 30
0.0000
 40
0.1300
 41
0.1300
 70
0
  0
VERTEX
  8
20
 10
0.5261
 20
-3.2826
 30
0.0000
  0
VERTEX
  8
20
 10
-2.0089
 20
-3.0226
 30
0.0000
  0
SEQEND
  8
0
  0
POLYLINE
  8
20
 66
1
 10
0.0000
 20
0.0000
 30
0.0000
 40
0.0650
 41
0.0650
 70
0
  0
VERTEX
  8
20
 10
-2.0056
 20
-2.9903
 30
0.0000
 42
1.0000
  0
VERTEX
  8
20
 10
-2.0122
 20
-3.0549
 30
0.0000
  0
SEQEND
  8
0
  0
POLYLINE
  8
20
 66
1
 10
0.0000
 20
0.0000
 30
0.0000
 40
0.0650
 41
0.0650
 70
0
  0
VERTEX
  8
20
 10
0.5228
 20
-3.3149
 30
0.0000
 42
1.0000
  0
VERTEX
  8
20
 10
0.5294
 20
-3.2503
 30
0.0000
  0
SEQEND
  8
0
  0
POLYLINE
  8
20
 66
1
 10
0.0000
 20
0.0000
 30
0.0000
 40
0.1524
 41
0.1524
 70
0
  0
VERTEX
  8
20
 10
66.0392
 20
-1.2872
 30
0.0000
  0
VERTEX
  8
20
 10
66.5815
 20
-0.7449
 30
0.0000
  0
SEQEND
  8
0
  0
POLYLINE
  8
20
 66
1
 10
0.0000
 20
0.0000
 30
0.0000
 40
0.0762
 41
0.0762
 70
0
  0
VERTEX
  8
20
 10
66.6085
 20
-0.7719
 30
0.0000
 42
1.0000
  0
VERTEX
  8
20
 10
66.5546
 20
-0.7180
 30
0.0000
  0
SEQEND
  8
0
  0
POLYLINE
  8
20
 66
1
 10
0.0000
 20
0.0000
 30
0.0000
 40
0.0762
 41
0.0762
 70
0
  0
VERTEX
  8
20
 10
66.0122
 20
-1.2603
 30
0.0000
 42
1.0000
  0
VERTEX
  8
20
 10
66.0661
 20
-1.3142
 30
0.0000
  0
SEQEND
  8
0
  0
POLYLINE
  8
20
 66
1
 10
0.0000
 20
0.0000
 30
0.0000
 40
0.1524
 41
0.1524
 70
0
  0
VERTEX
  8
20
 10
66.5815
 20
-0.7449
 30
0.0000
  0
VERTEX
  8
20
 10
66.5815
 20
-2.3719
 30
0.0000
  0
SEQEND
  8
0
  0
POLYLINE
  8
20
 66
1
 10
0.0000
 20
0.0000
 30
0.0000
 40
0.0762
 41
0.0762
 70
0
  0
VERTEX
  8
20
 10
66.5434
 20
-2.3719
 30
0.0000
 42
1.0000
  0
VERTEX
  8
20
 10
66.6196
 20
-2.3719
 30
0.0000
  0
SEQEND
  8
0
  0
POLYLINE
  8
20
 66
1
 10
0.0000
 20
0.0000
 30
0.0000
 40
0.0762
 41
0.0762
 70
0
  0
VERTEX
  8
20
 10
66.6196
 20
-0.7449
 30
0.0000
 42
1.0000
  0
VERTEX
  8
20
 10
66.5434
 20
-0.7449
 30
0.0000
  0
SEQEND
  8
0
  0
POLYLINE
  8
20
 66
1
 10
0.0000
 20
0.0000
 30
0.0000
 40
0.1524
 41
0.1524
 70
0
  0
VERTEX
  8
20
 10
66.0392
 20
-2.3719
 30
0.0000
  0
VERTEX
  8
20
 10
67.1238
 20
-2.3719
 30
0.0000
  0
SEQEND
  8
0
  0
POLYLINE
  8
20
 66
1
 10
0.0000
 20
0.0000
 30
0.0000
 40
0.0762
 41
0.0762
 70
0
  0
VERTEX
  8
20
 10
67.1238
 20
-2.4100
 30
0.0000
 42
1.0000
  0
VERTEX
  8
20
 10
67.1238
 20
-2.3338
 30
0.0000
  0
SEQEND
  8
0
  0
POLYLINE
  8
20
 66
1
 10
0.0000
 20
0.0000
 30
0.0000
 40
0.0762
 41
0.0762
 70
0
  0
VERTEX
  8
20
 10
66.0392
 20
-2.3338
 30
0.0000
 42
1.0000
  0
VERTEX
  8
20
 10
66.0392
 20
-2.4100
 30
0.0000
  0
SEQEND
  8
0
  0
POLYLINE
  8
20
 66
1
 10
0.0000
 20
0.0000
 30
0.0000
 40
0.1524
 41
0.1524
 70
0
  0
VERTEX
  8
20
 10
68.4898
 20
-2.3719
 30
0.0000
  0
VERTEX
  8
20
 10
68.4898
 20
-0.7449
 30
0.0000
  0
SEQEND
  8
0
  0
POLYLINE
  8
20
 66
1
 10
0.0000
 20
0.0000
 30
0.0000
 40
0.0762
 41
0.0762
 70
0
  0
VERTEX
  8
20
 10
68.5279
 20
-0.7449
 30
0.0000
 42
1.0000
  0
VERTEX
  8
20
 10
68.4517
 20
-0.7449
 30
0.0000
  0
SEQEND
  8
0
  0
POLYLINE
  8
20
 66
1
 10
0.0000
 20
0.0000
 30
0.0000
 40
0.0762
 41
0.0762
 70
0
  0
VERTEX
  8
20
 10
68.4517
 20
-2.3719
 30
0.0000
 42
1.0000
  0
VERTEX
  8
20
 10
68.5279
 20
-2.3719
 30
0.0000
  0
SEQEND
  8
0
  0
POLYLINE
  8
20
 66
1
 10
0.0000
 20
0.0000
 30
0.0000
 40
0.1524
 41
0.1524
 70
0
  0
VERTEX
  8
20
 10
68.4898
 20
-0.7449
 30
0.0000
  0
VERTEX
  8
20
 10
67.6763
 20
-1.5584
 30
0.0000
  0
SEQEND
  8
0
  0
POLYLINE
  8
20
 66
1
 10
0.0000
 20
0.0000
 30
0.0000
 40
0.0762
 41
0.0762
 70
0
  0
VERTEX
  8
20
 10
67.6494
 20
-1.5315
 30
0.0000
 42
1.0000
  0
VERTEX
  8
20
 10
67.7033
 20
-1.5853
 30
0.0000
  0
SEQEND
  8
0
  0
POLYLINE
  8
20
 66
1
 10
0.0000
 20
0.0000
 30
0.0000
 40
0.0762
 41
0.0762
 70
0
  0
VERTEX
  8
20
 10
68.5168
 20
-0.7719
 30
0.0000
 42
1.0000
  0
VERTEX
  8
20
 10
68.4629
 20
-0.7180
 30
0.0000
  0
SEQEND
  8
0
  0
POLYLINE
  8
20
 66
1
 10
0.0000
 20
0.0000
 30
0.0000
 40
0.1524
 41
0.1524
 70
0
  0
VERTEX
  8
20
 10
67.6763
 20
-1.5584
 30
0.0000
  0
VERTEX
  8
20
 10
68.7610
 20
-1.5584
 30
0.0000
  0
SEQEND
  8
0
  0
POLYLINE
  8
20
 66
1
 10
0.0000
 20
0.0000
 30
0.0000
 40
0.0762
 41
0.0762
 70
0
  0
VERTEX
  8
20
 10
68.7610
 20
-1.5965
 30
0.0000
 42
1.0000
  0
VERTEX
  8
20
 10
68.7610
 20
-1.5203
 30
0.0000
  0
SEQEND
  8
0
  0
POLYLINE
  8
20
 66
1
 10
0.0000
 20
0.0000
 30
0.0000
 40
0.0762
 41
0.0762
 70
0
  0
VERTEX
  8
20
 10
67.6763
 20
-1.5203
 30
0.0000
 42
1.0000
  0
VERTEX
  8
20
 10
67.6763
 20
-1.5965
 30
0.0000
  0
SEQEND
  8
0
  0
POLYLINE
  8
20
 66
1
 10
0.0000
 20
0.0000
 30
0.0000
 40
0.1524
 41
0.1524
 70
0
  0
VERTEX
  8
20
 10
69.3135
 20
-1.0161
 30
0.0000
  0
VERTEX
  8
20
 10
69.5847
 20
-0.7449
 30
0.0000
  0
SEQEND
  8
0
  0
POLYLINE
  8
20
 66
1
 10
0.0000
 20
0.0000
 30
0.0000
 40
0.0762
 41
0.0762
 70
0
  0
VERTEX
  8
20
 10
69.6116
 20
-0.7719
 30
0.0000
 42
1.0000
  0
VERTEX
  8
20
 10
69.5577
 20
-0.7180
 30
0.0000
  0
SEQEND
  8
0
  0
POLYLINE
  8
20
 66
1
 10
0.0000
 20
0.0000
 30
0.0000
 40
0.0762
 41
0.0762
 70
0
  0
VERTEX
  8
20
 10
69.2866
 20
-0.9891
 30
0.0000
 42
1.0000
  0
VERTEX
  8
20
 10
69.3404
 20
-1.0430
 30
0.0000
  0
SEQEND
  8
0
  0
POLYLINE
  8
20
 66
1
 10
0.0000
 20
0.0000
 30
0.0000
 40
0.1524
 41
0.1524
 70
0
  0
VERTEX
  8
20
 10
69.5847
 20
-0.7449
 30
0.0000
  0
VERTEX
  8
20
 10
70.1270
 20
-0.7449
 30
0.0000
  0
SEQEND
  8
0
  0
POLYLINE
  8
20
 66
1
 10
0.0000
 20
0.0000
 30
0.0000
 40
0.0762
 41
0.0762
 70
0
  0
VERTEX
  8
20
 10
70.1270
 20
-0.7830
 30
0.0000
 42
1.0000
  0
VERTEX
  8
20
 10
70.1270
 20
-0.7068
 30
0.0000
  0
SEQEND
  8
0
  0
POLYLINE
  8
20
 66
1
 10
0.0000
 20
0.0000
 30
0.0000
 40
0.0762
 41
0.0762
 70
0
  0
VERTEX
  8
20
 10
69.5847
 20
-0.7068
 30
0.0000
 42
1.0000
  0
VERTEX
  8
20
 10
69.5847
 20
-0.7830
 30
0.0000
  0
SEQEND
  8
0
  0
POLYLINE
  8
20
 66
1
 10
0.0000
 20
0.0000
 30
0.0000
 40
0.1524
 41
0.1524
 70
0
  0
VERTEX
  8
20
 10
70.1270
 20
-0.7449
 30
0.0000
  0
VERTEX
  8
20
 10
70.3982
 20
-1.0161
 30
0.0000
  0
SEQEND
  8
0
  0
POLYLINE
  8
20
 66
1
 10
0.0000
 20
0.0000
 30
0.0000
 40
0.0762
 41
0.0762
 70
0
  0
VERTEX
  8
20
 10
70.3712
 20
-1.0430
 30
0.0000
 42
1.0000
  0
VERTEX
  8
20
 10
70.4251
 20
-0.9891
 30
0.0000
  0
SEQEND
  8
0
  0
POLYLINE
  8
20
 66
1
 10
0.0000
 20
0.0000
 30
0.0000
 40
0.0762
 41
0.0762
 70
0
  0
VERTEX
  8
20
 10
70.1539
 20
-0.7180
 30
0.0000
 42
1.0000
  0
VERTEX
  8
20
 10
70.1000
 20
-0.7719
 30
0.0000
  0
SEQEND
  8
0
  0
POLYLINE
  8
20
 66
1
 10
0.0000
 20
0.0000
 30
0.0000
 40
0.1524
 41
0.1524
 70
0
  0
VERTEX
  8
20
 10
70.3982
 20
-1.0161
 30
0.0000
  0
VERTEX
  8
20
 10
70.3982
 20
-1.2872
 30
0.0000
  0
SEQEND
  8
0
  0
POLYLINE
  8
20
 66
1
 10
0.0000
 20
0.0000
 30
0.0000
 40
0.0762
 41
0.0762
 70
0
  0
VERTEX
  8
20
 10
70.3601
 20
-1.2872
 30
0.0000
 42
1.0000
  0
VERTEX
  8
20
 10
70.4363
 20
-1.2872
 30
0.0000
  0
SEQEND
  8
0
  0
POLYLINE
  8
20
 66
1
 10
0.0000
 20
0.0000
 30
0.0000
 40
0.0762
 41
0.0762
 70
0
  0
VERTEX
  8
20
 10
70.4363
 20
-1.0161
 30
0.0000
 42
1.0000
  0
VERTEX
  8
20
 10
70.3601
 20
-1.0161
 30
0.0000
  0
SEQEND
  8
0
  0
POLYLINE
  8
20
 66
1
 10
0.0000
 20
0.0000
 30
0.0000
 40
0.1524
 41
0.1524
 70
0
  0
VERTEX
  8
20
 10
70.3982
 20
-1.2872
 30
0.0000
  0
VERTEX
  8
20
 10
70.1270
 20
-1.5584
 30
0.0000
  0
SEQEND
  8
0
  0
POLYLINE
  8
20
 66
1
 10
0.0000
 20
0.0000
 30
0.0000
 40
0.0762
 41
0.0762
 70
0
  0
VERTEX
  8
20
 10
70.1000
 20
-1.5315
 30
0.0000
 42
1.0000
  0
VERTEX
  8
20
 10
70.1539
 20
-1.5853
 30
0.0000
  0
SEQEND
  8
0
  0
POLYLINE
  8
20
 66
1
 10
0.0000
 20
0.0000
 30
0.0000
 40
0.0762
 41
0.0762
 70
0
  0
VERTEX
  8
20
 10
70.4251
 20
-1.3142
 30
0.0000
 42
1.0000
  0
VERTEX
  8
20
 10
70.3712
 20
-1.2603
 30
0.0000
  0
SEQEND
  8
0
  0
POLYLINE
  8
20
 66
1
 10
0.0000
 20
0.0000
 30
0.0000
 40
0.1524
 41
0.1524
 70
0
  0
VERTEX
  8
20
 10
70.1270
 20
-1.5584
 30
0.0000
  0
VERTEX
  8
20
 10
69.8558
 20
-1.5584
 30
0.0000
  0
SEQEND
  8
0
  0
POLYLINE
  8
20
 66
1
 10
0.0000
 20
0.0000
 30
0.0000
 40
0.0762
 41
0.0762
 70
0
  0
VERTEX
  8
20
 10
69.8558
 20
-1.5203
 30
0.0000
 42
1.0000
  0
VERTEX
  8
20
 10
69.8558
 20
-1.5965
 30
0.0000
  0
SEQEND
  8
0
  0
POLYLINE
  8
20
 66
1
 10
0.0000
 20
0.0000
 30
0.0000
 40
0.0762
 41
0.0762
 70
0
  0
VERTEX
  8
20
 10
70.1270
 20
-1.5965
 30
0.0000
 42
1.0000
  0
VERTEX
  8
20
 10
70.1270
 20
-1.5203
 30
0.0000
  0
SEQEND
  8
0
  0
POLYLINE
  8
20
 66
1
 10
0.0000
 20
0.0000
 30
0.0000
 40
0.1524
 41
0.1524
 70
0
  0
VERTEX
  8
20
 10
70.1270
 20
-1.5584
 30
0.0000
  0
VERTEX
  8
20
 10
70.3982
 20
-1.8296
 30
0.0000
  0
SEQEND
  8
0
  0
POLYLINE
  8
20
 66
1
 10
0.0000
 20
0.0000
 30
0.0000
 40
0.0762
 41
0.0762
 70
0
  0
VERTEX
  8
20
 10
70.3712
 20
-1.8565
 30
0.0000
 42
1.0000
  0
VERTEX
  8
20
 10
70.4251
 20
-1.8026
 30
0.0000
  0
SEQEND
  8
0
  0
POLYLINE
  8
20
 66
1
 10
0.0000
 20
0.0000
 30
0.0000
 40
0.0762
 41
0.0762
 70
0
  0
VERTEX
  8
20
 10
70.1539
 20
-1.5315
 30
0.0000
 42
1.0000
  0
VERTEX
  8
20
 10
70.1000
 20
-1.5853
 30
0.0000
  0
SEQEND
  8
0
  0
POLYLINE
  8
20
 66
1
 10
0.0000
 20
0.0000
 30
0.0000
 40
0.1524
 41
0.1524
 70
0
  0
VERTEX
  8
20
 10
70.3982
 20
-1.8296
 30
0.0000
  0
VERTEX
  8
20
 10
70.3982
 20
-2.1007
 30
0.0000
  0
SEQEND
  8
0
  0
POLYLINE
  8
20
 66
1
 10
0.0000
 20
0.0000
 30
0.0000
 40
0.0762
 41
0.0762
 70
0
  0
VERTEX
  8
20
 10
70.3601
 20
-2.1007
 30
0.0000
 42
1.0000
  0
VERTEX
  8
20
 10
70.4363
 20
-2.1007
 30
0.0000
  0
SEQEND
  8
0
  0
POLYLINE
  8
20
 66
1
 10
0.0000
 20
0.0000
 30
0.0000
 40
0.0762
 41
0.0762
 70
0
  0
VERTEX
  8
20
 10
70.4363
 20
-1.8296
 30
0.0000
 42
1.0000
  0
VERTEX
  8
20
 10
70.3601
 20
-1.8296
 30
0.0000
  0
SEQEND
  8
0
  0
POLYLINE
  8
20
 66
1
 10
0.0000
 20
0.0000
 30
0.0000
 40
0.1524
 41
0.1524
 70
0
  0
VERTEX
  8
20
 10
70.3982
 20
-2.1007
 30
0.0000
  0
VERTEX
  8
20
 10
70.1270
 20
-2.3719
 30
0.0000
  0
SEQEND
  8
0
  0
POLYLINE
  8
20
 66
1
 10
0.0000
 20
0.0000
 30
0.0000
 40
0.0762
 41
0.0762
 70
0
  0
VERTEX
  8
20
 10
70.1000
 20
-2.3450
 30
0.0000
 42
1.0000
  0
VERTEX
  8
20
 10
70.1539
 20
-2.3988
 30
0.0000
  0
SEQEND
  8
0
  0
POLYLINE
  8
20
 66
1
 10
0.0000
 20
0.0000
 30
0.0000
 40
0.0762
 41
0.0762
 70
0
  0
VERTEX
  8
20
 10
70.4251
 20
-2.1277
 30
0.0000
 42
1.0000
  0
VERTEX
  8
20
 10
70.3712
 20
-2.0738
 30
0.0000
  0
SEQEND
  8
0
  0
POLYLINE
  8
20
 66
1
 10
0.0000
 20
0.0000
 30
0.0000
 40
0.1524
 41
0.1524
 70
0
  0
VERTEX
  8
20
 10
70.1270
 20
-2.3719
 30
0.0000
  0
VERTEX
  8
20
 10
69.5847
 20
-2.3719
 30
0.0000
  0
SEQEND
  8
0
  0
POLYLINE
  8
20
 66
1
 10
0.0000
 20
0.0000
 30
0.0000
 40
0.0762
 41
0.0762
 70
0
  0
VERTEX
  8
20
 10
69.5847
 20
-2.3338
 30
0.0000
 42
1.0000
  0
VERTEX
  8
20
 10
69.5847
 20
-2.4100
 30
0.0000
  0
SEQEND
  8
0
  0
POLYLINE
  8
20
 66
1
 10
0.0000
 20
0.0000
 30
0.0000
 40
0.0762
 41
0.0762
 70
0
  0
VERTEX
  8
20
 10
70.1270
 20
-2.4100
 30
0.0000
 42
1.0000
  0
VERTEX
  8
20
 10
70.1270
 20
-2.3338
 30
0.0000
  0
SEQEND
  8
0
  0
POLYLINE
  8
20
 66
1
 10
0.0000
 20
0.0000
 30
0.0000
 40
0.1524
 41
0.1524
 70
0
  0
VERTEX
  8
20
 10
69.5847
 20
-2.3719
 30
0.0000
  0
VERTEX
  8
20
 10
69.3135
 20
-2.1007
 30
0.0000
  0
SEQEND
  8
0
  0
POLYLINE
  8
20
 66
1
 10
0.0000
 20
0.0000
 30
0.0000
 40
0.0762
 41
0.0762
 70
0
  0
VERTEX
  8
20
 10
69.3404
 20
-2.0738
 30
0.0000
 42
1.0000
  0
VERTEX
  8
20
 10
69.2866
 20
-2.1277
 30
0.0000
  0
SEQEND
  8
0
  0
POLYLINE
  8
20
 66
1
 10
0.0000
 20
0.0000
 30
0.0000
 40
0.0762
 41
0.0762
 70
0
  0
VERTEX
  8
20
 10
69.5577
 20
-2.3988
 30
0.0000
 42
1.0000
  0
VERTEX
  8
20
 10
69.6116
 20
-2.3450
 30
0.0000
  0
SEQEND
  8
0
  0
POLYLINE
  8
20
 66
1
 10
0.0000
 20
0.0000
 30
0.0000
 40
0.1524
 41
0.1524
 70
0
  0
VERTEX
  8
20
 10
70.9507
 20
-2.3719
 30
0.0000
  0
VERTEX
  8
20
 10
70.9507
 20
-2.1007
 30
0.0000
  0
SEQEND
  8
0
  0
POLYLINE
  8
20
 66
1
 10
0.0000
 20
0.0000
 30
0.0000
 40
0.0762
 41
0.0762
 70
0
  0
VERTEX
  8
20
 10
70.9888
 20
-2.1007
 30
0.0000
 42
1.0000
  0
VERTEX
  8
20
 10
70.9126
 20
-2.1007
 30
0.0000
  0
SEQEND
  8
0
  0
POLYLINE
  8
20
 66
1
 10
0.0000
 20
0.0000
 30
0.0000
 40
0.0762
 41
0.0762
 70
0
  0
VERTEX
  8
20
 10
70.9126
 20
-2.3719
 30
0.0000
 42
1.0000
  0
VERTEX
  8
20
 10
70.9888
 20
-2.3719
 30
0.0000
  0
SEQEND
  8
0
  0
POLYLINE
  8
20
 66
1
 10
0.0000
 20
0.0000
 30
0.0000
 40
0.1524
 41
0.1524
 70
0
  0
VERTEX
  8
20
 10
70.9507
 20
-2.1007
 30
0.0000
  0
VERTEX
  8
20
 10
71.2218
 20
-2.1007
 30
0.0000
  0
SEQEND
  8
0
  0
POLYLINE
  8
20
 66
1
 10
0.0000
 20
0.0000
 30
0.0000
 40
0.0762
 41
0.0762
 70
0
  0
VERTEX
  8
20
 10
71.2218
 20
-2.1388
 30
0.0000
 42
1.0000
  0
VERTEX
  8
20
 10
71.2218
 20
-2.0626
 30
0.0000
  0
SEQEND
  8
0
  0
POLYLINE
  8
20
 66
1
 10
0.0000
 20
0.0000
 30
0.0000
 40
0.0762
 41
0.0762
 70
0
  0
VERTEX
  8
20
 10
70.9507
 20
-2.0626
 30
0.0000
 42
1.0000
  0
VERTEX
  8
20
 10
70.9507
 20
-2.1388
 30
0.0000
  0
SEQEND
  8
0
  0
POLYLINE
  8
20
 66
1
 10
0.0000
 20
0.0000
 30
0.0000
 40
0.1524
 41
0.1524
 70
0
  0
VERTEX
  8
20
 10
71.2218
 20
-2.1007
 30
0.0000
  0
VERTEX
  8
20
 10
71.2218
 20
-2.3719
 30
0.0000
  0
SEQEND
  8
0
  0
POLYLINE
  8
20
 66
1
 10
0.0000
 20
0.0000
 30
0.0000
 40
0.0762
 41
0.0762
 70
0
  0
VERTEX
  8
20
 10
71.1837
 20
-2.3719
 30
0.0000
 42
1.0000
  0
VERTEX
  8
20
 10
71.2599
 20
-2.3719
 30
0.0000
  0
SEQEND
  8
0
  0
POLYLINE
  8
20
 66
1
 10
0.0000
 20
0.0000
 30
0.0000
 40
0.0762
 41
0.0762
 70
0
  0
VERTEX
  8
20
 10
71.2599
 20
-2.1007
 30
0.0000
 42
1.0000
  0
VERTEX
  8
20
 10
71.1837
 20
-2.1007
 30
0.0000
  0
SEQEND
  8
0
  0
POLYLINE
  8
20
 66
1
 10
0.0000
 20
0.0000
 30
0.0000
 40
0.1524
 41
0.1524
 70
0
  0
VERTEX
  8
20
 10
71.2218
 20
-2.3719
 30
0.0000
  0
VERTEX
  8
20
 10
70.9507
 20
-2.3719
 30
0.0000
  0
SEQEND
  8
0
  0
POLYLINE
  8
20
 66
1
 10
0.0000
 20
0.0000
 30
0.0000
 40
0.0762
 41
0.0762
 70
0
  0
VERTEX
  8
20
 10
70.9507
 20
-2.3338
 30
0.0000
 42
1.0000
  0
VERTEX
  8
20
 10
70.9507
 20
-2.4100
 30
0.0000
  0
SEQEND
  8
0
  0
POLYLINE
  8
20
 66
1
 10
0.0000
 20
0.0000
 30
0.0000
 40
0.0762
 41
0.0762
 70
0
  0
VERTEX
  8
20
 10
71.2218
 20
-2.4100
 30
0.0000
 42
1.0000
  0
VERTEX
  8
20
 10
71.2218
 20
-2.3338
 30
0.0000
  0
SEQEND
  8
0
  0
POLYLINE
  8
20
 66
1
 10
0.0000
 20
0.0000
 30
0.0000
 40
0.1524
 41
0.1524
 70
0
  0
VERTEX
  8
20
 10
71.7692
 20
-1.0161
 30
0.0000
  0
VERTEX
  8
20
 10
72.0404
 20
-0.7449
 30
0.0000
  0
SEQEND
  8
0
  0
POLYLINE
  8
20
 66
1
 10
0.0000
 20
0.0000
 30
0.0000
 40
0.0762
 41
0.0762
 70
0
  0
VERTEX
  8
20
 10
72.0673
 20
-0.7719
 30
0.0000
 42
1.0000
  0
VERTEX
  8
20
 10
72.0134
 20
-0.7180
 30
0.0000
  0
SEQEND
  8
0
  0
POLYLINE
  8
20
 66
1
 10
0.0000
 20
0.0000
 30
0.0000
 40
0.0762
 41
0.0762
 70
0
  0
VERTEX
  8
20
 10
71.7423
 20
-0.9891
 30
0.0000
 42
1.0000
  0
VERTEX
  8
20
 10
71.7962
 20
-1.0430
 30
0.0000
  0
SEQEND
  8
0
  0
POLYLINE
  8
20
 66
1
 10
0.0000
 20
0.0000
 30
0.0000
 40
0.1524
 41
0.1524
 70
0
  0
VERTEX
  8
20
 10
72.0404
 20
-0.7449
 30
0.0000
  0
VERTEX
  8
20
 10
72.5827
 20
-0.7449
 30
0.0000
  0
SEQEND
  8
0
  0
POLYLINE
  8
20
 66
1
 10
0.0000
 20
0.0000
 30
0.0000
 40
0.0762
 41
0.0762
 70
0
  0
VERTEX
  8
20
 10
72.5827
 20
-0.7830
 30
0.0000
 42
1.0000
  0
VERTEX
  8
20
 10
72.5827
 20
-0.7068
 30
0.0000
  0
SEQEND
  8
0
  0
POLYLINE
  8
20
 66
1
 10
0.0000
 20
0.0000
 30
0.0000
 40
0.0762
 41
0.0762
 70
0
  0
VERTEX
  8
20
 10
72.0404
 20
-0.7068
 30
0.0000
 42
1.0000
  0
VERTEX
  8
20
 10
72.0404
 20
-0.7830
 30
0.0000
  0
SEQEND
  8
0
  0
POLYLINE
  8
20
 66
1
 10
0.0000
 20
0.0000
 30
0.0000
 40
0.1524
 41
0.1524
 70
0
  0
VERTEX
  8
20
 10
72.5827
 20
-0.7449
 30
0.0000
  0
VERTEX
  8
20
 10
72.8539
 20
-1.0161
 30
0.0000
  0
SEQEND
  8
0
  0
POLYLINE
  8
20
 66
1
 10
0.0000
 20
0.0000
 30
0.0000
 40
0.0762
 41
0.0762
 70
0
  0
VERTEX
  8
20
 10
72.8269
 20
-1.0430
 30
0.0000
 42
1.0000
  0
VERTEX
  8
20
 10
72.8808
 20
-0.9891
 30
0.0000
  0
SEQEND
  8
0
  0
POLYLINE
  8
20
 66
1
 10
0.0000
 20
0.0000
 30
0.0000
 40
0.0762
 41
0.0762
 70
0
  0
VERTEX
  8
20
 10
72.6097
 20
-0.7180
 30
0.0000
 42
1.0000
  0
VERTEX
  8
20
 10
72.5558
 20
-0.7719
 30
0.0000
  0
SEQEND
  8
0
  0
POLYLINE
  8
20
 66
1
 10
0.0000
 20
0.0000
 30
0.0000
 40
0.1524
 41
0.1524
 70
0
  0
VERTEX
  8
20
 10
72.8539
 20
-1.0161
 30
0.0000
  0
VERTEX
  8
20
 10
72.8539
 20
-1.2872
 30
0.0000
  0
SEQEND
  8
0
  0
POLYLINE
  8
20
 66
1
 10
0.0000
 20
0.0000
 30
0.0000
 40
0.0762
 41
0.0762
 70
0
  0
VERTEX
  8
20
 10
72.8158
 20
-1.2872
 30
0.0000
 42
1.0000
  0
VERTEX
  8
20
 10
72.8920
 20
-1.2872
 30
0.0000
  0
SEQEND
  8
0
  0
POLYLINE
  8
20
 66
1
 10
0.0000
 20
0.0000
 30
0.0000
 40
0.0762
 41
0.0762
 70
0
  0
VERTEX
  8
20
 10
72.8920
 20
-1.0161
 30
0.0000
 42
1.0000
  0
VERTEX
  8
20
 10
72.8158
 20
-1.0161
 30
0.0000
  0
SEQEND
  8
0
  0
POLYLINE
  8
20
 66
1
 10
0.0000
 20
0.0000
 30
0.0000
 40
0.1524
 41
0.1524
 70
0
  0
VERTEX
  8
20
 10
72.8539
 20
-1.2872
 30
0.0000
  0
VERTEX
  8
20
 10
72.5827
 20
-1.5584
 30
0.0000
  0
SEQEND
  8
0
  0
POLYLINE
  8
20
 66
1
 10
0.0000
 20
0.0000
 30
0.0000
 40
0.0762
 41
0.0762
 70
0
  0
VERTEX
  8
20
 10
72.5558
 20
-1.5315
 30
0.0000
 42
1.0000
  0
VERTEX
  8
20
 10
72.6097
 20
-1.5853
 30
0.0000
  0
SEQEND
  8
0
  0
POLYLINE
  8
20
 66
1
 10
0.0000
 20
0.0000
 30
0.0000
 40
0.0762
 41
0.0762
 70
0
  0
VERTEX
  8
20
 10
72.8808
 20
-1.3142
 30
0.0000
 42
1.0000
  0
VERTEX
  8
20
 10
72.8269
 20
-1.2603
 30
0.0000
  0
SEQEND
  8
0
  0
POLYLINE
  8
20
 66
1
 10
0.0000
 20
0.0000
 30
0.0000
 40
0.1524
 41
0.1524
 70
0
  0
VERTEX
  8
20
 10
72.5827
 20
-1.5584
 30
0.0000
  0
VERTEX
  8
20
 10
72.8539
 20
-1.8296
 30
0.0000
  0
SEQEND
  8
0
  0
POLYLINE
  8
20
 66
1
 10
0.0000
 20
0.0000
 30
0.0000
 40
0.0762
 41
0.0762
 70
0
  0
VERTEX
  8
20
 10
72.8269
 20
-1.8565
 30
0.0000
 42
1.0000
  0
VERTEX
  8
20
 10
72.8808
 20
-1.8026
 30
0.0000
  0
SEQEND
  8
0
  0
POLYLINE
  8
20
 66
1
 10
0.0000
 20
0.0000
 30
0.0000
 40
0.0762
 41
0.0762
 70
0
  0
VERTEX
  8
20
 10
72.6097
 20
-1.5315
 30
0.0000
 42
1.0000
  0
VERTEX
  8
20
 10
72.5558
 20
-1.5853
 30
0.0000
  0
SEQEND
  8
0
  0
POLYLINE
  8
20
 66
1
 10
0.0000
 20
0.0000
 30
0.0000
 40
0.1524
 41
0.1524
 70
0
  0
VERTEX
  8
20
 10
72.8539
 20
-1.8296
 30
0.0000
  0
VERTEX
  8
20
 10
72.8539
 20
-2.1007
 30
0.0000
  0
SEQEND
  8
0
  0
POLYLINE
  8
20
 66
1
 10
0.0000
 20
0.0000
 30
0.0000
 40
0.0762
 41
0.0762
 70
0
  0
VERTEX
  8
20
 10
72.8158
 20
-2.1007
 30
0.0000
 42
1.0000
  0
VERTEX
  8
20
 10
72.8920
 20
-2.1007
 30
0.0000
  0
SEQEND
  8
0
  0
POLYLINE
  8
20
 66
1
 10
0.0000
 20
0.0000
 30
0.0000
 40
0.0762
 41
0.0762
 70
0
  0
VERTEX
  8
20
 10
72.8920
 20
-1.8296
 30
0.0000
 42
1.0000
  0
VERTEX
  8
20
 10
72.8158
 20
-1.8296
 30
0.0000
  0
SEQEND
  8
0
  0
POLYLINE
  8
20
 66
1
 10
0.0000
 20
0.0000
 30
0.0000
 40
0.1524
 41
0.1524
 70
0
  0
VERTEX
  8
20
 10
72.8539
 20
-2.1007
 30
0.0000
  0
VERTEX
  8
20
 10
72.5827
 20
-2.3719
 30
0.0000
  0
SEQEND
  8
0
  0
POLYLINE
  8
20
 66
1
 10
0.0000
 20
0.0000
 30
0.0000
 40
0.0762
 41
0.0762
 70
0
  0
VERTEX
  8
20
 10
72.5558
 20
-2.3450
 30
0.0000
 42
1.0000
  0
VERTEX
  8
20
 10
72.6097
 20
-2.3988
 30
0.0000
  0
SEQEND
  8
0
  0
POLYLINE
  8
20
 66
1
 10
0.0000
 20
0.0000
 30
0.0000
 40
0.0762
 41
0.0762
 70
0
  0
VERTEX
  8
20
 10
72.8808
 20
-2.1277
 30
0.0000
 42
1.0000
  0
VERTEX
  8
20
 10
72.8269
 20
-2.0738
 30
0.0000
  0
SEQEND
  8
0
  0
POLYLINE
  8
20
 66
1
 10
0.0000
 20
0.0000
 30
0.0000
 40
0.1524
 41
0.1524
 70
0
  0
VERTEX
  8
20
 10
72.5827
 20
-2.3719
 30
0.0000
  0
VERTEX
  8
20
 10
72.0404
 20
-2.3719
 30
0.0000
  0
SEQEND
  8
0
  0
POLYLINE
  8
20
 66
1
 10
0.0000
 20
0.0000
 30
0.0000
 40
0.0762
 41
0.0762
 70
0
  0
VERTEX
  8
20
 10
72.0404
 20
-2.3338
 30
0.0000
 42
1.0000
  0
VERTEX
  8
20
 10
72.0404
 20
-2.4100
 30
0.0000
  0
SEQEND
  8
0
  0
POLYLINE
  8
20
 66
1
 10
0.0000
 20
0.0000
 30
0.0000
 40
0.0762
 41
0.0762
 70
0
  0
VERTEX
  8
20
 10
72.5827
 20
-2.4100
 30
0.0000
 42
1.0000
  0
VERTEX
  8
20
 10
72.5827
 20
-2.3338
 30
0.0000
  0
SEQEND
  8
0
  0
POLYLINE
  8
20
 66
1
 10
0.0000
 20
0.0000
 30
0.0000
 40
0.1524
 41
0.1524
 70
0
  0
VERTEX
  8
20
 10
72.0404
 20
-2.3719
 30
0.0000
  0
VERTEX
  8
20
 10
71.7692
 20
-2.1007
 30
0.0000
  0
SEQEND
  8
0
  0
POLYLINE
  8
20
 66
1
 10
0.0000
 20
0.0000
 30
0.0000
 40
0.0762
 41
0.0762
 70
0
  0
VERTEX
  8
20
 10
71.7962
 20
-2.0738
 30
0.0000
 42
1.0000
  0
VERTEX
  8
20
 10
71.7423
 20
-2.1277
 30
0.0000
  0
SEQEND
  8
0
  0
POLYLINE
  8
20
 66
1
 10
0.0000
 20
0.0000
 30
0.0000
 40
0.0762
 41
0.0762
 70
0
  0
VERTEX
  8
20
 10
72.0134
 20
-2.3988
 30
0.0000
 42
1.0000
  0
VERTEX
  8
20
 10
72.0673
 20
-2.3450
 30
0.0000
  0
SEQEND
  8
0
  0
POLYLINE
  8
20
 66
1
 10
0.0000
 20
0.0000
 30
0.0000
 40
0.1524
 41
0.1524
 70
0
  0
VERTEX
  8
20
 10
71.7692
 20
-2.1007
 30
0.0000
  0
VERTEX
  8
20
 10
71.7692
 20
-1.8296
 30
0.0000
  0
SEQEND
  8
0
  0
POLYLINE
  8
20
 66
1
 10
0.0000
 20
0.0000
 30
0.0000
 40
0.0762
 41
0.0762
 70
0
  0
VERTEX
  8
20
 10
71.8073
 20
-1.8296
 30
0.0000
 42
1.0000
  0
VERTEX
  8
20
 10
71.7311
 20
-1.8296
 30
0.0000
  0
SEQEND
  8
0
  0
POLYLINE
  8
20
 66
1
 10
0.0000
 20
0.0000
 30
0.0000
 40
0.0762
 41
0.0762
 70
0
  0
VERTEX
  8
20
 10
71.7311
 20
-2.1007
 30
0.0000
 42
1.0000
  0
VERTEX
  8
20
 10
71.8073
 20
-2.1007
 30
0.0000
  0
SEQEND
  8
0
  0
POLYLINE
  8
20
 66
1
 10
0.0000
 20
0.0000
 30
0.0000
 40
0.1524
 41
0.1524
 70
0
  0
VERTEX
  8
20
 10
71.7692
 20
-1.8296
 30
0.0000
  0
VERTEX
  8
20
 10
72.0404
 20
-1.5584
 30
0.0000
  0
SEQEND
  8
0
  0
POLYLINE
  8
20
 66
1
 10
0.0000
 20
0.0000
 30
0.0000
 40
0.0762
 41
0.0762
 70
0
  0
VERTEX
  8
20
 10
72.0673
 20
-1.5853
 30
0.0000
 42
1.0000
  0
VERTEX
  8
20
 10
72.0134
 20
-1.5315
 30
0.0000
  0
SEQEND
  8
0
  0
POLYLINE
  8
20
 66
1
 10
0.0000
 20
0.0000
 30
0.0000
 40
0.0762
 41
0.0762
 70
0
  0
VERTEX
  8
20
 10
71.7423
 20
-1.8026
 30
0.0000
 42
1.0000
  0
VERTEX
  8
20
 10
71.7962
 20
-1.8565
 30
0.0000
  0
SEQEND
  8
0
  0
POLYLINE
  8
20
 66
1
 10
0.0000
 20
0.0000
 30
0.0000
 40
0.1524
 41
0.1524
 70
0
  0
VERTEX
  8
20
 10
72.0404
 20
-1.5584
 30
0.0000
  0
VERTEX
  8
20
 10
71.7692
 20
-1.2872
 30
0.0000
  0
SEQEND
  8
0
  0
POLYLINE
  8
20
 66
1
 10
0.0000
 20
0.0000
 30
0.0000
 40
0.0762
 41
0.0762
 70
0
  0
VERTEX
  8
20
 10
71.7962
 20
-1.2603
 30
0.0000
 42
1.0000
  0
VERTEX
  8
20
 10
71.7423
 20
-1.3142
 30
0.0000
  0
SEQEND
  8
0
  0
POLYLINE
  8
20
 66
1
 10
0.0000
 20
0.0000
 30
0.0000
 40
0.0762
 41
0.0762
 70
0
  0
VERTEX
  8
20
 10
72.0134
 20
-1.5853
 30
0.0000
 42
1.0000
  0
VERTEX
  8
20
 10
72.0673
 20
-1.5315
 30
0.0000
  0
SEQEND
  8
0
  0
POLYLINE
  8
20
 66
1
 10
0.0000
 20
0.0000
 30
0.0000
 40
0.1524
 41
0.1524
 70
0
  0
VERTEX
  8
20
 10
71.7692
 20
-1.2872
 30
0.0000
  0
VERTEX
  8
20
 10
71.7692
 20
-1.0161
 30
0.0000
  0
SEQEND
  8
0
  0
POLYLINE
  8
20
 66
1
 10
0.0000
 20
0.0000
 30
0.0000
 40
0.0762
 41
0.0762
 70
0
  0
VERTEX
  8
20
 10
71.8073
 20
-1.0161
 30
0.0000
 42
1.0000
  0
VERTEX
  8
20
 10
71.7311
 20
-1.0161
 30
0.0000
  0
SEQEND
  8
0
  0
POLYLINE
  8
20
 66
1
 10
0.0000
 20
0.0000
 30
0.0000
 40
0.0762
 41
0.0762
 70
0
  0
VERTEX
  8
20
 10
71.7311
 20
-1.2872
 30
0.0000
 42
1.0000
  0
VERTEX
  8
20
 10
71.8073
 20
-1.2872
 30
0.0000
  0
SEQEND
  8
0
  0
POLYLINE
  8
20
 66
1
 10
0.0000
 20
0.0000
 30
0.0000
 40
0.1524
 41
0.1524
 70
0
  0
VERTEX
  8
20
 10
72.0404
 20
-1.5584
 30
0.0000
  0
VERTEX
  8
20
 10
72.5827
 20
-1.5584
 30
0.0000
  0
SEQEND
  8
0
  0
POLYLINE
  8
20
 66
1
 10
0.0000
 20
0.0000
 30
0.0000
 40
0.0762
 41
0.0762
 70
0
  0
VERTEX
  8
20
 10
72.5827
 20
-1.5965
 30
0.0000
 42
1.0000
  0
VERTEX
  8
20
 10
72.5827
 20
-1.5203
 30
0.0000
  0
SEQEND
  8
0
  0
POLYLINE
  8
20
 66
1
 10
0.0000
 20
0.0000
 30
0.0000
 40
0.0762
 41
0.0762
 70
0
  0
VERTEX
  8
20
 10
72.0404
 20
-1.5203
 30
0.0000
 42
1.0000
  0
VERTEX
  8
20
 10
72.0404
 20
-1.5965
 30
0.0000
  0
SEQEND
  8
0
  0
POLYLINE
  8
20
 66
1
 10
0.0000
 20
0.0000
 30
0.0000
 40
0.1524
 41
0.1524
 70
0
  0
VERTEX
  8
20
 10
73.4064
 20
-0.7449
 30
0.0000
  0
VERTEX
  8
20
 10
74.4910
 20
-0.7449
 30
0.0000
  0
SEQEND
  8
0
  0
POLYLINE
  8
20
 66
1
 10
0.0000
 20
0.0000
 30
0.0000
 40
0.0762
 41
0.0762
 70
0
  0
VERTEX
  8
20
 10
74.4910
 20
-0.7830
 30
0.0000
 42
1.0000
  0
VERTEX
  8
20
 10
74.4910
 20
-0.7068
 30
0.0000
  0
SEQEND
  8
0
  0
POLYLINE
  8
20
 66
1
 10
0.0000
 20
0.0000
 30
0.0000
 40
0.0762
 41
0.0762
 70
0
  0
VERTEX
  8
20
 10
73.4064
 20
-0.7068
 30
0.0000
 42
1.0000
  0
VERTEX
  8
20
 10
73.4064
 20
-0.7830
 30
0.0000
  0
SEQEND
  8
0
  0
POLYLINE
  8
20
 66
1
 10
0.0000
 20
0.0000
 30
0.0000
 40
0.1524
 41
0.1524
 70
0
  0
VERTEX
  8
20
 10
74.4910
 20
-0.7449
 30
0.0000
  0
VERTEX
  8
20
 10
74.4910
 20
-1.0161
 30
0.0000
  0
SEQEND
  8
0
  0
POLYLINE
  8
20
 66
1
 10
0.0000
 20
0.0000
 30
0.0000
 40
0.0762
 41
0.0762
 70
0
  0
VERTEX
  8
20
 10
74.4529
 20
-1.0161
 30
0.0000
 42
1.0000
  0
VERTEX
  8
20
 10
74.5291
 20
-1.0161
 30
0.0000
  0
SEQEND
  8
0
  0
POLYLINE
  8
20
 66
1
 10
0.0000
 20
0.0000
 30
0.0000
 40
0.0762
 41
0.0762
 70
0
  0
VERTEX
  8
20
 10
74.5291
 20
-0.7449
 30
0.0000
 42
1.0000
  0
VERTEX
  8
20
 10
74.4529
 20
-0.7449
 30
0.0000
  0
SEQEND
  8
0
  0
POLYLINE
  8
20
 66
1
 10
0.0000
 20
0.0000
 30
0.0000
 40
0.1524
 41
0.1524
 70
0
  0
VERTEX
  8
20
 10
74.4910
 20
-1.0161
 30
0.0000
  0
VERTEX
  8
20
 10
73.4064
 20
-2.1007
 30
0.0000
  0
SEQEND
  8
0
  0
POLYLINE
  8
20
 66
1
 10
0.0000
 20
0.0000
 30
0.0000
 40
0.0762
 41
0.0762
 70
0
  0
VERTEX
  8
20
 10
73.3794
 20
-2.0738
 30
0.0000
 42
1.0000
  0
VERTEX
  8
20
 10
73.4333
 20
-2.1277
 30
0.0000
  0
SEQEND
  8
0
  0
POLYLINE
  8
20
 66
1
 10
0.0000
 20
0.0000
 30
0.0000
 40
0.0762
 41
0.0762
 70
0
  0
VERTEX
  8
20
 10
74.5180
 20
-1.0430
 30
0.0000
 42
1.0000
  0
VERTEX
  8
20
 10
74.4641
 20
-0.9891
 30
0.0000
  0
SEQEND
  8
0
  0
POLYLINE
  8
20
 66
1
 10
0.0000
 20
0.0000
 30
0.0000
 40
0.1524
 41
0.1524
 70
0
  0
VERTEX
  8
20
 10
73.4064
 20
-2.1007
 30
0.0000
  0
VERTEX
  8
20
 10
73.4064
 20
-2.3719
 30
0.0000
  0
SEQEND
  8
0
  0
POLYLINE
  8
20
 66
1
 10
0.0000
 20
0.0000
 30
0.0000
 40
0.0762
 41
0.0762
 70
0
  0
VERTEX
  8
20
 10
73.3683
 20
-2.3719
 30
0.0000
 42
1.0000
  0
VERTEX
  8
20
 10
73.4445
 20
-2.3719
 30
0.0000
  0
SEQEND
  8
0
  0
POLYLINE
  8
20
 66
1
 10
0.0000
 20
0.0000
 30
0.0000
 40
0.0762
 41
0.0762
 70
0
  0
VERTEX
  8
20
 10
73.4445
 20
-2.1007
 30
0.0000
 42
1.0000
  0
VERTEX
  8
20
 10
73.3683
 20
-2.1007
 30
0.0000
  0
SEQEND
  8
0
  0
CIRCLE
  8
20
 10
123.0000
 20
17.7800
 30
0.0000
 40
1.5000
  0
CIRCLE
  8
20
 10
18.0000
 20
17.2800
 30
0.0000
 40
1.5000
  0
CIRCLE
  8
20
 10
25.0000
 20
101.0000
 30
0.0000
 40
1.5000
  0
CIRCLE
  8
20
 10
70.0000
 20
140.0000
 30
0.0000
 40
1.5000
  0
CIRCLE
  8
20
 10
106.0000
 20
101.0000
 30
0.0000
 40
1.5000
  0
CIRCLE
  8
20
 10
22.3272
 20
28.4588
 30
0.0000
 40
1.5000
  0
CIRCLE
  8
20
 10
35.3272
 20
28.4588
 30
0.0000
 40
1.5000
  0
CIRCLE
  8
20
 10
12.3272
 20
69.9588
 30
0.0000
 40
1.5000
  0
CIRCLE
  8
20
 10
27.3272
 20
69.9588
 30
0.0000
 40
1.5000
  0
CIRCLE
  8
20
 10
115.4678
 20
70.3980
 30
0.0000
 40
1.5000
  0
CIRCLE
  8
20
 10
102.4678
 20
70.3980
 30
0.0000
 40
1.5000
  0
CIRCLE
  8
20
 10
125.4678
 20
28.8980
 30
0.0000
 40
1.5000
  0
CIRCLE
  8
20
 10
110.4678
 20
28.8980
 30
0.0000
 40
1.5000
  0
ENDSEC
  0
EOF
