G75*
%MOIN*%
%OFA0B0*%
%FSLAX25Y25*%
%IPPOS*%
%LPD*%
%AMOC8*
5,1,8,0,0,1.08239X$1,22.5*
%
%ADD10C,0.00600*%
%ADD11C,0.00100*%
%ADD12C,0.00400*%
%ADD13C,0.00300*%
%ADD14C,0.01000*%
%ADD15C,0.00500*%
%ADD16R,0.08268X0.01181*%
%ADD17C,0.00800*%
%ADD18R,0.01969X0.01969*%
D10*
X0153633Y0080160D02*
X0154701Y0079093D01*
X0156836Y0079093D01*
X0157904Y0080160D01*
X0157904Y0082295D01*
X0155768Y0082295D01*
X0153633Y0084430D02*
X0153633Y0080160D01*
X0153633Y0084430D02*
X0154701Y0085498D01*
X0156836Y0085498D01*
X0157904Y0084430D01*
X0160079Y0085498D02*
X0160079Y0079093D01*
X0164349Y0079093D01*
X0166524Y0079093D02*
X0166524Y0085498D01*
X0170795Y0079093D01*
X0170795Y0085498D01*
X0169727Y0089093D02*
X0170795Y0090160D01*
X0169727Y0089093D02*
X0167592Y0089093D01*
X0166524Y0090160D01*
X0166524Y0094430D01*
X0167592Y0095498D01*
X0169727Y0095498D01*
X0170795Y0094430D01*
X0164349Y0095498D02*
X0160079Y0095498D01*
X0160079Y0089093D01*
X0157904Y0089093D02*
X0155768Y0091228D01*
X0156836Y0091228D02*
X0153633Y0091228D01*
X0153633Y0089093D02*
X0153633Y0095498D01*
X0156836Y0095498D01*
X0157904Y0094430D01*
X0157904Y0092295D01*
X0156836Y0091228D01*
X0160079Y0092295D02*
X0162214Y0092295D01*
X0179415Y0090160D02*
X0180483Y0089093D01*
X0182618Y0089093D01*
X0183686Y0090160D01*
X0185861Y0090160D02*
X0186928Y0091228D01*
X0190131Y0091228D01*
X0190131Y0092295D02*
X0190131Y0089093D01*
X0186928Y0089093D01*
X0185861Y0090160D01*
X0186928Y0093363D02*
X0189064Y0093363D01*
X0190131Y0092295D01*
X0192306Y0093363D02*
X0193374Y0093363D01*
X0194441Y0092295D01*
X0195509Y0093363D01*
X0196577Y0092295D01*
X0196577Y0089093D01*
X0194441Y0089093D02*
X0194441Y0092295D01*
X0192306Y0093363D02*
X0192306Y0089093D01*
X0192306Y0085498D02*
X0195509Y0085498D01*
X0196577Y0084430D01*
X0196577Y0082295D01*
X0195509Y0081228D01*
X0192306Y0081228D01*
X0194441Y0081228D02*
X0196577Y0079093D01*
X0198752Y0079093D02*
X0203022Y0079093D01*
X0205197Y0081228D02*
X0207332Y0079093D01*
X0209468Y0081228D01*
X0209468Y0085498D01*
X0210569Y0089093D02*
X0212704Y0089093D01*
X0211636Y0089093D02*
X0211636Y0093363D01*
X0210569Y0093363D01*
X0208400Y0093363D02*
X0207332Y0093363D01*
X0205197Y0091228D01*
X0205197Y0089093D02*
X0205197Y0093363D01*
X0203022Y0092295D02*
X0201955Y0093363D01*
X0198752Y0093363D01*
X0198752Y0095498D02*
X0198752Y0089093D01*
X0201955Y0089093D01*
X0203022Y0090160D01*
X0203022Y0092295D01*
X0211636Y0095498D02*
X0211636Y0096566D01*
X0219136Y0095498D02*
X0219136Y0089093D01*
X0215933Y0089093D01*
X0214866Y0090160D01*
X0214866Y0092295D01*
X0215933Y0093363D01*
X0219136Y0093363D01*
X0221311Y0092295D02*
X0221311Y0090160D01*
X0222379Y0089093D01*
X0225581Y0089093D01*
X0225581Y0088025D02*
X0225581Y0093363D01*
X0222379Y0093363D01*
X0221311Y0092295D01*
X0227757Y0092295D02*
X0227757Y0090160D01*
X0228824Y0089093D01*
X0230959Y0089093D01*
X0232027Y0091228D02*
X0227757Y0091228D01*
X0227757Y0092295D02*
X0228824Y0093363D01*
X0230959Y0093363D01*
X0232027Y0092295D01*
X0232027Y0091228D01*
X0225581Y0088025D02*
X0224514Y0086957D01*
X0223446Y0086957D01*
X0220223Y0085498D02*
X0222359Y0083363D01*
X0222359Y0079093D01*
X0222359Y0082295D02*
X0218088Y0082295D01*
X0218088Y0083363D02*
X0218088Y0079093D01*
X0215913Y0078025D02*
X0211643Y0078025D01*
X0205197Y0081228D02*
X0205197Y0085498D01*
X0203022Y0085498D02*
X0198752Y0085498D01*
X0198752Y0079093D01*
X0198752Y0082295D02*
X0200887Y0082295D01*
X0192306Y0079093D02*
X0192306Y0085498D01*
X0183686Y0085498D02*
X0179415Y0085498D01*
X0179415Y0082295D01*
X0181550Y0083363D01*
X0182618Y0083363D01*
X0183686Y0082295D01*
X0183686Y0080160D01*
X0182618Y0079093D01*
X0180483Y0079093D01*
X0179415Y0080160D01*
X0177240Y0078025D02*
X0172970Y0078025D01*
X0162214Y0082295D02*
X0160079Y0082295D01*
X0160079Y0085498D02*
X0164349Y0085498D01*
X0179415Y0090160D02*
X0179415Y0094430D01*
X0180483Y0095498D01*
X0182618Y0095498D01*
X0183686Y0094430D01*
X0218088Y0083363D02*
X0220223Y0085498D01*
X0190131Y0078025D02*
X0185861Y0078025D01*
X0420971Y0124611D02*
X0420971Y0126974D01*
X0425696Y0126974D02*
X0425696Y0124611D01*
X0425696Y0152611D02*
X0425696Y0154974D01*
X0420971Y0154974D02*
X0420971Y0152611D01*
X0521471Y0137474D02*
X0521471Y0135111D01*
X0526196Y0135111D02*
X0526196Y0137474D01*
X0547152Y0144430D02*
X0549514Y0144430D01*
X0549514Y0149155D02*
X0547152Y0149155D01*
X0558152Y0150430D02*
X0560514Y0150430D01*
X0566971Y0150974D02*
X0566971Y0148611D01*
X0571696Y0148611D02*
X0571696Y0150974D01*
X0572971Y0150974D02*
X0572971Y0148611D01*
X0577696Y0148611D02*
X0577696Y0150974D01*
X0588971Y0150974D02*
X0588971Y0148611D01*
X0593696Y0148611D02*
X0593696Y0150974D01*
X0586696Y0158611D02*
X0586696Y0160974D01*
X0581971Y0160974D02*
X0581971Y0158611D01*
X0567514Y0157430D02*
X0565152Y0157430D01*
X0560514Y0155155D02*
X0558152Y0155155D01*
X0565152Y0162155D02*
X0567514Y0162155D01*
X0567514Y0186430D02*
X0565152Y0186430D01*
X0565152Y0191155D02*
X0567514Y0191155D01*
X0605971Y0126974D02*
X0605971Y0124611D01*
X0610696Y0124611D02*
X0610696Y0126974D01*
X0545514Y0104155D02*
X0543152Y0104155D01*
X0543152Y0099430D02*
X0545514Y0099430D01*
X0545514Y0098155D02*
X0543152Y0098155D01*
X0543152Y0093430D02*
X0545514Y0093430D01*
X0545514Y0092155D02*
X0543152Y0092155D01*
X0543152Y0087430D02*
X0545514Y0087430D01*
X0527014Y0081155D02*
X0524652Y0081155D01*
X0524652Y0076430D02*
X0527014Y0076430D01*
X0572971Y0075611D02*
X0572971Y0077974D01*
X0577696Y0077974D02*
X0577696Y0075611D01*
X0579971Y0075611D02*
X0579971Y0077974D01*
X0584696Y0077974D02*
X0584696Y0075611D01*
X0574514Y0089430D02*
X0572152Y0089430D01*
X0572152Y0094155D02*
X0574514Y0094155D01*
X0574514Y0095430D02*
X0572152Y0095430D01*
X0572152Y0100155D02*
X0574514Y0100155D01*
X0607152Y0102155D02*
X0609514Y0102155D01*
X0609514Y0097430D02*
X0607152Y0097430D01*
X0526514Y0106430D02*
X0524152Y0106430D01*
X0524152Y0111155D02*
X0526514Y0111155D01*
X0558261Y0054695D02*
X0558261Y0052332D01*
X0562986Y0052332D02*
X0562986Y0054695D01*
D11*
X0557323Y0052787D02*
X0557323Y0052287D01*
X0557073Y0052037D01*
X0557323Y0051564D02*
X0556823Y0051064D01*
X0556823Y0051314D02*
X0556823Y0050564D01*
X0557323Y0050564D02*
X0555822Y0050564D01*
X0555822Y0051314D01*
X0556072Y0051564D01*
X0556573Y0051564D01*
X0556823Y0051314D01*
X0556323Y0052037D02*
X0556573Y0052287D01*
X0556573Y0053038D01*
X0557073Y0053038D02*
X0556072Y0053038D01*
X0555822Y0052787D01*
X0555822Y0052287D01*
X0556072Y0052037D01*
X0556323Y0052037D01*
X0557323Y0052787D02*
X0557073Y0053038D01*
X0570532Y0073843D02*
X0570532Y0074593D01*
X0570782Y0074843D01*
X0571283Y0074843D01*
X0571533Y0074593D01*
X0571533Y0073843D01*
X0571533Y0074343D02*
X0572033Y0074843D01*
X0572033Y0075316D02*
X0571783Y0075316D01*
X0570782Y0076317D01*
X0570532Y0076317D01*
X0570532Y0075316D01*
X0570532Y0073843D02*
X0572033Y0073843D01*
X0577532Y0073843D02*
X0577532Y0074593D01*
X0577782Y0074843D01*
X0578283Y0074843D01*
X0578533Y0074593D01*
X0578533Y0073843D01*
X0578533Y0074343D02*
X0579033Y0074843D01*
X0578783Y0075316D02*
X0579033Y0075566D01*
X0579033Y0076066D01*
X0578783Y0076317D01*
X0578283Y0076317D01*
X0578032Y0076066D01*
X0578032Y0075816D01*
X0578283Y0075316D01*
X0577532Y0075316D01*
X0577532Y0076317D01*
X0577532Y0073843D02*
X0579033Y0073843D01*
X0528411Y0073993D02*
X0527410Y0073993D01*
X0528411Y0074993D01*
X0528411Y0075244D01*
X0528161Y0075494D01*
X0527660Y0075494D01*
X0527410Y0075244D01*
X0526437Y0075494D02*
X0526437Y0073993D01*
X0525937Y0073993D02*
X0526938Y0073993D01*
X0525937Y0074993D02*
X0526437Y0075494D01*
X0525464Y0075244D02*
X0525464Y0074743D01*
X0525214Y0074493D01*
X0524464Y0074493D01*
X0524964Y0074493D02*
X0525464Y0073993D01*
X0524464Y0073993D02*
X0524464Y0075494D01*
X0525214Y0075494D01*
X0525464Y0075244D01*
X0541383Y0093093D02*
X0541383Y0094594D01*
X0542134Y0094594D01*
X0542384Y0094344D01*
X0542384Y0093843D01*
X0542134Y0093593D01*
X0541383Y0093593D01*
X0541884Y0093593D02*
X0542384Y0093093D01*
X0542857Y0093343D02*
X0543107Y0093093D01*
X0543607Y0093093D01*
X0543857Y0093343D01*
X0543857Y0093593D01*
X0543607Y0093843D01*
X0543357Y0093843D01*
X0543607Y0093843D02*
X0543857Y0094093D01*
X0543857Y0094344D01*
X0543607Y0094594D01*
X0543107Y0094594D01*
X0542857Y0094344D01*
X0542857Y0099093D02*
X0543857Y0100093D01*
X0543857Y0100344D01*
X0543607Y0100594D01*
X0543107Y0100594D01*
X0542857Y0100344D01*
X0542384Y0100344D02*
X0542384Y0099843D01*
X0542134Y0099593D01*
X0541383Y0099593D01*
X0541383Y0099093D02*
X0541383Y0100594D01*
X0542134Y0100594D01*
X0542384Y0100344D01*
X0541884Y0099593D02*
X0542384Y0099093D01*
X0542857Y0099093D02*
X0543857Y0099093D01*
X0543607Y0105093D02*
X0543607Y0106594D01*
X0542857Y0105843D01*
X0543857Y0105843D01*
X0542384Y0105843D02*
X0542134Y0105593D01*
X0541383Y0105593D01*
X0541383Y0105093D02*
X0541383Y0106594D01*
X0542134Y0106594D01*
X0542384Y0106344D01*
X0542384Y0105843D01*
X0541884Y0105593D02*
X0542384Y0105093D01*
X0527911Y0105494D02*
X0527410Y0105244D01*
X0526910Y0104743D01*
X0527661Y0104743D01*
X0527911Y0104493D01*
X0527911Y0104243D01*
X0527661Y0103993D01*
X0527160Y0103993D01*
X0526910Y0104243D01*
X0526910Y0104743D01*
X0526438Y0104743D02*
X0526187Y0104493D01*
X0525437Y0104493D01*
X0525937Y0104493D02*
X0526438Y0103993D01*
X0526438Y0104743D02*
X0526438Y0105244D01*
X0526187Y0105494D01*
X0525437Y0105494D01*
X0525437Y0103993D01*
X0570383Y0096594D02*
X0570383Y0095093D01*
X0570383Y0095593D02*
X0571134Y0095593D01*
X0571384Y0095843D01*
X0571384Y0096344D01*
X0571134Y0096594D01*
X0570383Y0096594D01*
X0570884Y0095593D02*
X0571384Y0095093D01*
X0571857Y0095093D02*
X0572857Y0095093D01*
X0572357Y0095093D02*
X0572357Y0096594D01*
X0571857Y0096093D01*
X0573330Y0095843D02*
X0573830Y0096344D01*
X0574331Y0096594D01*
X0574080Y0095843D02*
X0573330Y0095843D01*
X0573330Y0095343D01*
X0573580Y0095093D01*
X0574080Y0095093D01*
X0574331Y0095343D01*
X0574331Y0095593D01*
X0574080Y0095843D01*
X0573937Y0094494D02*
X0573937Y0092993D01*
X0573437Y0092993D02*
X0574438Y0092993D01*
X0574910Y0092993D02*
X0574910Y0093243D01*
X0575911Y0094244D01*
X0575911Y0094494D01*
X0574910Y0094494D01*
X0573937Y0094494D02*
X0573437Y0093993D01*
X0572964Y0093743D02*
X0572714Y0093493D01*
X0571964Y0093493D01*
X0572464Y0093493D02*
X0572964Y0092993D01*
X0572964Y0093743D02*
X0572964Y0094244D01*
X0572714Y0094494D01*
X0571964Y0094494D01*
X0571964Y0092993D01*
X0587517Y0092743D02*
X0588518Y0092743D01*
X0588990Y0092743D02*
X0589991Y0092743D01*
X0590464Y0092743D02*
X0591214Y0092743D01*
X0591464Y0092993D01*
X0591464Y0093994D01*
X0591214Y0094244D01*
X0590464Y0094244D01*
X0590464Y0092743D01*
X0589491Y0093493D02*
X0588990Y0093493D01*
X0588990Y0092743D02*
X0588990Y0094244D01*
X0589991Y0094244D01*
X0591937Y0093743D02*
X0592437Y0094244D01*
X0592437Y0092743D01*
X0591937Y0092743D02*
X0592938Y0092743D01*
X0593410Y0092743D02*
X0594411Y0092743D01*
X0593910Y0092743D02*
X0593910Y0094244D01*
X0593410Y0093743D01*
X0587517Y0094244D02*
X0587517Y0092743D01*
X0605383Y0103093D02*
X0605383Y0104594D01*
X0606134Y0104594D01*
X0606384Y0104344D01*
X0606384Y0103843D01*
X0606134Y0103593D01*
X0605383Y0103593D01*
X0605884Y0103593D02*
X0606384Y0103093D01*
X0606857Y0103343D02*
X0607107Y0103093D01*
X0607607Y0103093D01*
X0607857Y0103343D01*
X0607857Y0104344D01*
X0607607Y0104594D01*
X0607107Y0104594D01*
X0606857Y0104344D01*
X0606857Y0104093D01*
X0607107Y0103843D01*
X0607857Y0103843D01*
X0608330Y0104093D02*
X0608580Y0103843D01*
X0609331Y0103843D01*
X0609331Y0103343D02*
X0609331Y0104344D01*
X0609080Y0104594D01*
X0608580Y0104594D01*
X0608330Y0104344D01*
X0608330Y0104093D01*
X0608330Y0103343D02*
X0608580Y0103093D01*
X0609080Y0103093D01*
X0609331Y0103343D01*
X0611632Y0122949D02*
X0611632Y0123700D01*
X0611882Y0123950D01*
X0612383Y0123950D01*
X0612633Y0123700D01*
X0612633Y0122949D01*
X0613133Y0122949D02*
X0611632Y0122949D01*
X0612633Y0123450D02*
X0613133Y0123950D01*
X0613133Y0124423D02*
X0613133Y0125424D01*
X0613133Y0124923D02*
X0611632Y0124923D01*
X0612132Y0124423D01*
X0611882Y0125896D02*
X0611632Y0126146D01*
X0611632Y0126647D01*
X0611882Y0126897D01*
X0612883Y0125896D01*
X0613133Y0126146D01*
X0613133Y0126647D01*
X0612883Y0126897D01*
X0611882Y0126897D01*
X0612132Y0127369D02*
X0611632Y0127870D01*
X0613133Y0127870D01*
X0613133Y0128370D02*
X0613133Y0127369D01*
X0612883Y0125896D02*
X0611882Y0125896D01*
X0609161Y0135743D02*
X0608660Y0135743D01*
X0608410Y0135993D01*
X0607938Y0135743D02*
X0606937Y0135743D01*
X0607437Y0135743D02*
X0607437Y0137244D01*
X0606937Y0136743D01*
X0606464Y0136994D02*
X0606214Y0137244D01*
X0605464Y0137244D01*
X0605464Y0135743D01*
X0606214Y0135743D01*
X0606464Y0135993D01*
X0606464Y0136994D01*
X0604991Y0137244D02*
X0603990Y0137244D01*
X0603990Y0135743D01*
X0604991Y0135743D01*
X0604491Y0136493D02*
X0603990Y0136493D01*
X0603518Y0135743D02*
X0602517Y0135743D01*
X0602517Y0137244D01*
X0608410Y0136994D02*
X0608660Y0137244D01*
X0609161Y0137244D01*
X0609411Y0136994D01*
X0609411Y0136743D01*
X0609161Y0136493D01*
X0609411Y0136243D01*
X0609411Y0135993D01*
X0609161Y0135743D01*
X0609161Y0136493D02*
X0608910Y0136493D01*
X0596133Y0146949D02*
X0594632Y0146949D01*
X0594632Y0147700D01*
X0594882Y0147950D01*
X0595383Y0147950D01*
X0595633Y0147700D01*
X0595633Y0146949D01*
X0595633Y0147450D02*
X0596133Y0147950D01*
X0596133Y0148423D02*
X0596133Y0149424D01*
X0596133Y0148923D02*
X0594632Y0148923D01*
X0595132Y0148423D01*
X0594882Y0149896D02*
X0594632Y0150146D01*
X0594632Y0150647D01*
X0594882Y0150897D01*
X0595883Y0149896D01*
X0596133Y0150146D01*
X0596133Y0150647D01*
X0595883Y0150897D01*
X0594882Y0150897D01*
X0594882Y0151369D02*
X0594632Y0151619D01*
X0594632Y0152120D01*
X0594882Y0152370D01*
X0595132Y0152370D01*
X0595383Y0152120D01*
X0595633Y0152370D01*
X0595883Y0152370D01*
X0596133Y0152120D01*
X0596133Y0151619D01*
X0595883Y0151369D01*
X0595383Y0151870D02*
X0595383Y0152120D01*
X0595883Y0149896D02*
X0594882Y0149896D01*
X0580133Y0149896D02*
X0580133Y0150897D01*
X0580133Y0151369D02*
X0579132Y0152370D01*
X0578882Y0152370D01*
X0578632Y0152120D01*
X0578632Y0151619D01*
X0578882Y0151369D01*
X0578632Y0150396D02*
X0580133Y0150396D01*
X0580133Y0151369D02*
X0580133Y0152370D01*
X0578632Y0150396D02*
X0579132Y0149896D01*
X0578882Y0149424D02*
X0578632Y0149173D01*
X0578632Y0148673D01*
X0578882Y0148423D01*
X0579883Y0148423D01*
X0580133Y0148673D01*
X0580133Y0149173D01*
X0579883Y0149424D01*
X0574133Y0150146D02*
X0574133Y0150647D01*
X0573883Y0150897D01*
X0573383Y0151369D02*
X0572632Y0152120D01*
X0574133Y0152120D01*
X0573383Y0152370D02*
X0573383Y0151369D01*
X0572882Y0150897D02*
X0572632Y0150647D01*
X0572632Y0150146D01*
X0572882Y0149896D01*
X0573883Y0149896D01*
X0574133Y0150146D01*
X0568911Y0155243D02*
X0568661Y0154993D01*
X0568160Y0154993D01*
X0567910Y0155243D01*
X0567438Y0154993D02*
X0566437Y0154993D01*
X0566937Y0154993D02*
X0566937Y0156494D01*
X0566437Y0155993D01*
X0565964Y0156244D02*
X0565714Y0156494D01*
X0565214Y0156494D01*
X0564964Y0156244D01*
X0564964Y0155243D01*
X0565214Y0154993D01*
X0565714Y0154993D01*
X0565964Y0155243D01*
X0567910Y0156244D02*
X0568160Y0156494D01*
X0568661Y0156494D01*
X0568911Y0156244D01*
X0568911Y0155993D01*
X0568661Y0155743D01*
X0568911Y0155493D01*
X0568911Y0155243D01*
X0568661Y0155743D02*
X0568410Y0155743D01*
X0561410Y0149494D02*
X0561410Y0147993D01*
X0560910Y0147993D02*
X0561911Y0147993D01*
X0560910Y0148993D02*
X0561410Y0149494D01*
X0560438Y0149244D02*
X0560187Y0149494D01*
X0559687Y0149494D01*
X0559437Y0149244D01*
X0559437Y0148243D01*
X0559687Y0147993D01*
X0560187Y0147993D01*
X0560438Y0148243D01*
X0547857Y0150343D02*
X0547857Y0150593D01*
X0547607Y0150843D01*
X0546857Y0150843D01*
X0546857Y0150343D01*
X0547107Y0150093D01*
X0547607Y0150093D01*
X0547857Y0150343D01*
X0547357Y0151344D02*
X0546857Y0150843D01*
X0546384Y0150343D02*
X0546134Y0150093D01*
X0545634Y0150093D01*
X0545383Y0150343D01*
X0545383Y0151344D01*
X0545634Y0151594D01*
X0546134Y0151594D01*
X0546384Y0151344D01*
X0547357Y0151344D02*
X0547857Y0151594D01*
X0575990Y0164743D02*
X0576991Y0164743D01*
X0577464Y0164743D02*
X0578464Y0164743D01*
X0578937Y0164743D02*
X0579687Y0164743D01*
X0579938Y0164993D01*
X0579938Y0165994D01*
X0579687Y0166244D01*
X0578937Y0166244D01*
X0578937Y0164743D01*
X0577964Y0165493D02*
X0577464Y0165493D01*
X0577464Y0164743D02*
X0577464Y0166244D01*
X0578464Y0166244D01*
X0580410Y0165994D02*
X0580410Y0165743D01*
X0580660Y0165493D01*
X0581411Y0165493D01*
X0581411Y0164993D02*
X0581411Y0165994D01*
X0581161Y0166244D01*
X0580660Y0166244D01*
X0580410Y0165994D01*
X0580410Y0164993D02*
X0580660Y0164743D01*
X0581161Y0164743D01*
X0581411Y0164993D01*
X0575990Y0164743D02*
X0575990Y0166244D01*
X0587632Y0161870D02*
X0589133Y0161870D01*
X0589133Y0162370D02*
X0589133Y0161369D01*
X0589133Y0160897D02*
X0588633Y0160396D01*
X0588633Y0160647D02*
X0588633Y0159896D01*
X0589133Y0159896D02*
X0587632Y0159896D01*
X0587632Y0160647D01*
X0587882Y0160897D01*
X0588383Y0160897D01*
X0588633Y0160647D01*
X0588132Y0161369D02*
X0587632Y0161870D01*
X0602883Y0160844D02*
X0602883Y0159343D01*
X0603884Y0159343D01*
X0604357Y0159343D02*
X0605357Y0159343D01*
X0605830Y0159343D02*
X0606580Y0159343D01*
X0606831Y0159593D01*
X0606831Y0160594D01*
X0606580Y0160844D01*
X0605830Y0160844D01*
X0605830Y0159343D01*
X0604857Y0160093D02*
X0604357Y0160093D01*
X0604357Y0159343D02*
X0604357Y0160844D01*
X0605357Y0160844D01*
X0607303Y0160343D02*
X0607804Y0160844D01*
X0607804Y0159343D01*
X0608304Y0159343D02*
X0607303Y0159343D01*
X0608776Y0159593D02*
X0609027Y0159343D01*
X0609527Y0159343D01*
X0609777Y0159593D01*
X0609777Y0160093D01*
X0609527Y0160343D01*
X0609277Y0160343D01*
X0608776Y0160093D01*
X0608776Y0160844D01*
X0609777Y0160844D01*
X0568911Y0184243D02*
X0568661Y0183993D01*
X0568160Y0183993D01*
X0567910Y0184243D01*
X0567910Y0184493D01*
X0568160Y0184743D01*
X0568661Y0184743D01*
X0568911Y0184493D01*
X0568911Y0184243D01*
X0568661Y0184743D02*
X0568911Y0184993D01*
X0568911Y0185244D01*
X0568661Y0185494D01*
X0568160Y0185494D01*
X0567910Y0185244D01*
X0567910Y0184993D01*
X0568160Y0184743D01*
X0567438Y0184243D02*
X0567187Y0183993D01*
X0566687Y0183993D01*
X0566437Y0184243D01*
X0566437Y0185244D01*
X0566687Y0185494D01*
X0567187Y0185494D01*
X0567438Y0185244D01*
X0520283Y0137290D02*
X0520533Y0137040D01*
X0520533Y0136539D01*
X0520283Y0136289D01*
X0520533Y0135817D02*
X0520533Y0134816D01*
X0520533Y0134343D02*
X0520033Y0133843D01*
X0520033Y0134093D02*
X0520033Y0133343D01*
X0520533Y0133343D02*
X0519032Y0133343D01*
X0519032Y0134093D01*
X0519282Y0134343D01*
X0519783Y0134343D01*
X0520033Y0134093D01*
X0519532Y0134816D02*
X0519032Y0135316D01*
X0520533Y0135316D01*
X0519282Y0136289D02*
X0519032Y0136539D01*
X0519032Y0137040D01*
X0519282Y0137290D01*
X0519532Y0137290D01*
X0519783Y0137040D01*
X0520033Y0137290D01*
X0520283Y0137290D01*
X0519783Y0137040D02*
X0519783Y0136789D01*
X0420033Y0126540D02*
X0420033Y0126039D01*
X0419783Y0125789D01*
X0418782Y0126790D01*
X0419783Y0126790D01*
X0420033Y0126540D01*
X0419783Y0125789D02*
X0418782Y0125789D01*
X0418532Y0126039D01*
X0418532Y0126540D01*
X0418782Y0126790D01*
X0420033Y0125317D02*
X0420033Y0124316D01*
X0420033Y0123843D02*
X0419533Y0123343D01*
X0419533Y0123593D02*
X0419533Y0122843D01*
X0420033Y0122843D02*
X0418532Y0122843D01*
X0418532Y0123593D01*
X0418782Y0123843D01*
X0419283Y0123843D01*
X0419533Y0123593D01*
X0419032Y0124316D02*
X0418532Y0124816D01*
X0420033Y0124816D01*
X0420033Y0150843D02*
X0418532Y0150843D01*
X0418532Y0151593D01*
X0418782Y0151843D01*
X0419283Y0151843D01*
X0419533Y0151593D01*
X0419533Y0150843D01*
X0419533Y0151343D02*
X0420033Y0151843D01*
X0419783Y0152316D02*
X0419533Y0152316D01*
X0419283Y0152566D01*
X0419283Y0153066D01*
X0419533Y0153317D01*
X0419783Y0153317D01*
X0420033Y0153066D01*
X0420033Y0152566D01*
X0419783Y0152316D01*
X0419283Y0152566D02*
X0419032Y0152316D01*
X0418782Y0152316D01*
X0418532Y0152566D01*
X0418532Y0153066D01*
X0418782Y0153317D01*
X0419032Y0153317D01*
X0419283Y0153066D01*
D12*
X0527144Y0167604D02*
X0527144Y0177052D01*
X0528718Y0177053D02*
X0528813Y0176770D01*
X0528915Y0176489D01*
X0529024Y0176212D01*
X0529139Y0175936D01*
X0529261Y0175664D01*
X0529390Y0175395D01*
X0529525Y0175129D01*
X0529667Y0174867D01*
X0529815Y0174608D01*
X0529969Y0174352D01*
X0530130Y0174101D01*
X0530297Y0173853D01*
X0530469Y0173610D01*
X0530648Y0173371D01*
X0530832Y0173136D01*
X0531022Y0172906D01*
X0531218Y0172681D01*
X0531419Y0172461D01*
X0531625Y0172245D01*
X0531837Y0172035D01*
X0532053Y0171830D01*
X0532275Y0171630D01*
X0532502Y0171436D01*
X0532733Y0171247D01*
X0532968Y0171064D01*
X0533208Y0170887D01*
X0533453Y0170716D01*
X0533701Y0170551D01*
X0533954Y0170392D01*
X0534210Y0170239D01*
X0534470Y0170092D01*
X0534733Y0169952D01*
X0535000Y0169818D01*
X0535270Y0169691D01*
X0535543Y0169571D01*
X0535818Y0169457D01*
X0536097Y0169350D01*
X0536378Y0169250D01*
X0536661Y0169157D01*
X0536947Y0169070D01*
X0537235Y0168991D01*
X0537524Y0168919D01*
X0537815Y0168854D01*
X0538108Y0168796D01*
X0538402Y0168745D01*
X0538697Y0168701D01*
X0538993Y0168665D01*
X0539290Y0168636D01*
X0539588Y0168614D01*
X0539886Y0168599D01*
X0540184Y0168592D01*
X0540482Y0168592D01*
X0540780Y0168599D01*
X0541078Y0168614D01*
X0541376Y0168636D01*
X0541673Y0168665D01*
X0541969Y0168701D01*
X0542264Y0168745D01*
X0542558Y0168796D01*
X0542851Y0168854D01*
X0543142Y0168919D01*
X0543431Y0168991D01*
X0543719Y0169070D01*
X0544005Y0169157D01*
X0544288Y0169250D01*
X0544569Y0169350D01*
X0544848Y0169457D01*
X0545123Y0169571D01*
X0545396Y0169691D01*
X0545666Y0169818D01*
X0545933Y0169952D01*
X0546196Y0170092D01*
X0546456Y0170239D01*
X0546712Y0170392D01*
X0546965Y0170551D01*
X0547213Y0170716D01*
X0547458Y0170887D01*
X0547698Y0171064D01*
X0547933Y0171247D01*
X0548164Y0171436D01*
X0548391Y0171630D01*
X0548613Y0171830D01*
X0548829Y0172035D01*
X0549041Y0172245D01*
X0549247Y0172461D01*
X0549448Y0172681D01*
X0549644Y0172906D01*
X0549834Y0173136D01*
X0550018Y0173371D01*
X0550197Y0173610D01*
X0550369Y0173853D01*
X0550536Y0174101D01*
X0550697Y0174352D01*
X0550851Y0174608D01*
X0550999Y0174867D01*
X0551141Y0175129D01*
X0551276Y0175395D01*
X0551405Y0175664D01*
X0551527Y0175936D01*
X0551642Y0176212D01*
X0551751Y0176489D01*
X0551853Y0176770D01*
X0551948Y0177053D01*
X0553522Y0177052D02*
X0553522Y0174690D01*
X0546436Y0167604D01*
X0527144Y0167604D01*
X0528718Y0184533D02*
X0528813Y0184816D01*
X0528915Y0185097D01*
X0529024Y0185374D01*
X0529139Y0185650D01*
X0529261Y0185922D01*
X0529390Y0186191D01*
X0529525Y0186457D01*
X0529667Y0186719D01*
X0529815Y0186978D01*
X0529969Y0187234D01*
X0530130Y0187485D01*
X0530297Y0187733D01*
X0530469Y0187976D01*
X0530648Y0188215D01*
X0530832Y0188450D01*
X0531022Y0188680D01*
X0531218Y0188905D01*
X0531419Y0189125D01*
X0531625Y0189341D01*
X0531837Y0189551D01*
X0532053Y0189756D01*
X0532275Y0189956D01*
X0532502Y0190150D01*
X0532733Y0190339D01*
X0532968Y0190522D01*
X0533208Y0190699D01*
X0533453Y0190870D01*
X0533701Y0191035D01*
X0533954Y0191194D01*
X0534210Y0191347D01*
X0534470Y0191494D01*
X0534733Y0191634D01*
X0535000Y0191768D01*
X0535270Y0191895D01*
X0535543Y0192015D01*
X0535818Y0192129D01*
X0536097Y0192236D01*
X0536378Y0192336D01*
X0536661Y0192429D01*
X0536947Y0192516D01*
X0537235Y0192595D01*
X0537524Y0192667D01*
X0537815Y0192732D01*
X0538108Y0192790D01*
X0538402Y0192841D01*
X0538697Y0192885D01*
X0538993Y0192921D01*
X0539290Y0192950D01*
X0539588Y0192972D01*
X0539886Y0192987D01*
X0540184Y0192994D01*
X0540482Y0192994D01*
X0540780Y0192987D01*
X0541078Y0192972D01*
X0541376Y0192950D01*
X0541673Y0192921D01*
X0541969Y0192885D01*
X0542264Y0192841D01*
X0542558Y0192790D01*
X0542851Y0192732D01*
X0543142Y0192667D01*
X0543431Y0192595D01*
X0543719Y0192516D01*
X0544005Y0192429D01*
X0544288Y0192336D01*
X0544569Y0192236D01*
X0544848Y0192129D01*
X0545123Y0192015D01*
X0545396Y0191895D01*
X0545666Y0191768D01*
X0545933Y0191634D01*
X0546196Y0191494D01*
X0546456Y0191347D01*
X0546712Y0191194D01*
X0546965Y0191035D01*
X0547213Y0190870D01*
X0547458Y0190699D01*
X0547698Y0190522D01*
X0547933Y0190339D01*
X0548164Y0190150D01*
X0548391Y0189956D01*
X0548613Y0189756D01*
X0548829Y0189551D01*
X0549041Y0189341D01*
X0549247Y0189125D01*
X0549448Y0188905D01*
X0549644Y0188680D01*
X0549834Y0188450D01*
X0550018Y0188215D01*
X0550197Y0187976D01*
X0550369Y0187733D01*
X0550536Y0187485D01*
X0550697Y0187234D01*
X0550851Y0186978D01*
X0550999Y0186719D01*
X0551141Y0186457D01*
X0551276Y0186191D01*
X0551405Y0185922D01*
X0551527Y0185650D01*
X0551642Y0185374D01*
X0551751Y0185097D01*
X0551853Y0184816D01*
X0551948Y0184533D01*
X0553522Y0184533D02*
X0553522Y0186895D01*
X0546436Y0193981D01*
X0527144Y0193981D01*
X0527144Y0184533D01*
X0598144Y0184895D02*
X0598144Y0182533D01*
X0598144Y0184895D02*
X0605231Y0191981D01*
X0624522Y0191981D01*
X0624522Y0182533D01*
X0622948Y0182533D02*
X0622853Y0182816D01*
X0622751Y0183097D01*
X0622642Y0183374D01*
X0622527Y0183650D01*
X0622405Y0183922D01*
X0622276Y0184191D01*
X0622141Y0184457D01*
X0621999Y0184719D01*
X0621851Y0184978D01*
X0621697Y0185234D01*
X0621536Y0185485D01*
X0621369Y0185733D01*
X0621197Y0185976D01*
X0621018Y0186215D01*
X0620834Y0186450D01*
X0620644Y0186680D01*
X0620448Y0186905D01*
X0620247Y0187125D01*
X0620041Y0187341D01*
X0619829Y0187551D01*
X0619613Y0187756D01*
X0619391Y0187956D01*
X0619164Y0188150D01*
X0618933Y0188339D01*
X0618698Y0188522D01*
X0618458Y0188699D01*
X0618213Y0188870D01*
X0617965Y0189035D01*
X0617712Y0189194D01*
X0617456Y0189347D01*
X0617196Y0189494D01*
X0616933Y0189634D01*
X0616666Y0189768D01*
X0616396Y0189895D01*
X0616123Y0190015D01*
X0615848Y0190129D01*
X0615569Y0190236D01*
X0615288Y0190336D01*
X0615005Y0190429D01*
X0614719Y0190516D01*
X0614431Y0190595D01*
X0614142Y0190667D01*
X0613851Y0190732D01*
X0613558Y0190790D01*
X0613264Y0190841D01*
X0612969Y0190885D01*
X0612673Y0190921D01*
X0612376Y0190950D01*
X0612078Y0190972D01*
X0611780Y0190987D01*
X0611482Y0190994D01*
X0611184Y0190994D01*
X0610886Y0190987D01*
X0610588Y0190972D01*
X0610290Y0190950D01*
X0609993Y0190921D01*
X0609697Y0190885D01*
X0609402Y0190841D01*
X0609108Y0190790D01*
X0608815Y0190732D01*
X0608524Y0190667D01*
X0608235Y0190595D01*
X0607947Y0190516D01*
X0607661Y0190429D01*
X0607378Y0190336D01*
X0607097Y0190236D01*
X0606818Y0190129D01*
X0606543Y0190015D01*
X0606270Y0189895D01*
X0606000Y0189768D01*
X0605733Y0189634D01*
X0605470Y0189494D01*
X0605210Y0189347D01*
X0604954Y0189194D01*
X0604701Y0189035D01*
X0604453Y0188870D01*
X0604208Y0188699D01*
X0603968Y0188522D01*
X0603733Y0188339D01*
X0603502Y0188150D01*
X0603275Y0187956D01*
X0603053Y0187756D01*
X0602837Y0187551D01*
X0602625Y0187341D01*
X0602419Y0187125D01*
X0602218Y0186905D01*
X0602022Y0186680D01*
X0601832Y0186450D01*
X0601648Y0186215D01*
X0601469Y0185976D01*
X0601297Y0185733D01*
X0601130Y0185485D01*
X0600969Y0185234D01*
X0600815Y0184978D01*
X0600667Y0184719D01*
X0600525Y0184457D01*
X0600390Y0184191D01*
X0600261Y0183922D01*
X0600139Y0183650D01*
X0600024Y0183374D01*
X0599915Y0183097D01*
X0599813Y0182816D01*
X0599718Y0182533D01*
X0599718Y0175053D02*
X0599813Y0174770D01*
X0599915Y0174489D01*
X0600024Y0174212D01*
X0600139Y0173936D01*
X0600261Y0173664D01*
X0600390Y0173395D01*
X0600525Y0173129D01*
X0600667Y0172867D01*
X0600815Y0172608D01*
X0600969Y0172352D01*
X0601130Y0172101D01*
X0601297Y0171853D01*
X0601469Y0171610D01*
X0601648Y0171371D01*
X0601832Y0171136D01*
X0602022Y0170906D01*
X0602218Y0170681D01*
X0602419Y0170461D01*
X0602625Y0170245D01*
X0602837Y0170035D01*
X0603053Y0169830D01*
X0603275Y0169630D01*
X0603502Y0169436D01*
X0603733Y0169247D01*
X0603968Y0169064D01*
X0604208Y0168887D01*
X0604453Y0168716D01*
X0604701Y0168551D01*
X0604954Y0168392D01*
X0605210Y0168239D01*
X0605470Y0168092D01*
X0605733Y0167952D01*
X0606000Y0167818D01*
X0606270Y0167691D01*
X0606543Y0167571D01*
X0606818Y0167457D01*
X0607097Y0167350D01*
X0607378Y0167250D01*
X0607661Y0167157D01*
X0607947Y0167070D01*
X0608235Y0166991D01*
X0608524Y0166919D01*
X0608815Y0166854D01*
X0609108Y0166796D01*
X0609402Y0166745D01*
X0609697Y0166701D01*
X0609993Y0166665D01*
X0610290Y0166636D01*
X0610588Y0166614D01*
X0610886Y0166599D01*
X0611184Y0166592D01*
X0611482Y0166592D01*
X0611780Y0166599D01*
X0612078Y0166614D01*
X0612376Y0166636D01*
X0612673Y0166665D01*
X0612969Y0166701D01*
X0613264Y0166745D01*
X0613558Y0166796D01*
X0613851Y0166854D01*
X0614142Y0166919D01*
X0614431Y0166991D01*
X0614719Y0167070D01*
X0615005Y0167157D01*
X0615288Y0167250D01*
X0615569Y0167350D01*
X0615848Y0167457D01*
X0616123Y0167571D01*
X0616396Y0167691D01*
X0616666Y0167818D01*
X0616933Y0167952D01*
X0617196Y0168092D01*
X0617456Y0168239D01*
X0617712Y0168392D01*
X0617965Y0168551D01*
X0618213Y0168716D01*
X0618458Y0168887D01*
X0618698Y0169064D01*
X0618933Y0169247D01*
X0619164Y0169436D01*
X0619391Y0169630D01*
X0619613Y0169830D01*
X0619829Y0170035D01*
X0620041Y0170245D01*
X0620247Y0170461D01*
X0620448Y0170681D01*
X0620644Y0170906D01*
X0620834Y0171136D01*
X0621018Y0171371D01*
X0621197Y0171610D01*
X0621369Y0171853D01*
X0621536Y0172101D01*
X0621697Y0172352D01*
X0621851Y0172608D01*
X0621999Y0172867D01*
X0622141Y0173129D01*
X0622276Y0173395D01*
X0622405Y0173664D01*
X0622527Y0173936D01*
X0622642Y0174212D01*
X0622751Y0174489D01*
X0622853Y0174770D01*
X0622948Y0175053D01*
X0624522Y0175052D02*
X0624522Y0165604D01*
X0605231Y0165604D01*
X0598144Y0172690D01*
X0598144Y0175052D01*
X0570243Y0135702D02*
X0569062Y0135702D01*
X0570243Y0135702D02*
X0570243Y0134521D01*
X0547605Y0135702D02*
X0546424Y0135702D01*
X0546424Y0134521D01*
X0542425Y0124852D02*
X0542425Y0121783D01*
X0542425Y0123318D02*
X0537821Y0123318D01*
X0539355Y0121783D01*
X0538588Y0120248D02*
X0537821Y0119481D01*
X0537821Y0117946D01*
X0538588Y0117179D01*
X0539355Y0117179D01*
X0540123Y0117946D01*
X0540123Y0119481D01*
X0540890Y0120248D01*
X0541657Y0120248D01*
X0542425Y0119481D01*
X0542425Y0117946D01*
X0541657Y0117179D01*
X0541657Y0115644D02*
X0537821Y0115644D01*
X0537821Y0112575D02*
X0541657Y0112575D01*
X0542425Y0113343D01*
X0542425Y0114877D01*
X0541657Y0115644D01*
X0543192Y0118714D02*
X0537053Y0118714D01*
X0546424Y0113064D02*
X0546424Y0111883D01*
X0547605Y0111883D01*
X0569062Y0111883D02*
X0570243Y0111883D01*
X0570243Y0113064D01*
X0420810Y0070329D02*
X0420810Y0069562D01*
X0420043Y0068794D01*
X0418508Y0068794D01*
X0417741Y0069562D01*
X0417741Y0070329D01*
X0418508Y0071096D01*
X0420043Y0071096D01*
X0420810Y0070329D01*
X0420043Y0068794D02*
X0420810Y0068027D01*
X0420810Y0067260D01*
X0420043Y0066493D01*
X0418508Y0066493D01*
X0417741Y0067260D01*
X0417741Y0068027D01*
X0418508Y0068794D01*
X0416207Y0066493D02*
X0413137Y0066493D01*
X0411603Y0066493D02*
X0410068Y0068027D01*
X0410835Y0068027D02*
X0408533Y0068027D01*
X0408533Y0066493D02*
X0408533Y0071096D01*
X0410835Y0071096D01*
X0411603Y0070329D01*
X0411603Y0068794D01*
X0410835Y0068027D01*
X0413137Y0069562D02*
X0414672Y0071096D01*
X0414672Y0066493D01*
D13*
X0465219Y0070848D02*
X0465629Y0070439D01*
X0466448Y0070439D01*
X0466858Y0070848D01*
X0466858Y0072487D01*
X0466448Y0072897D01*
X0465629Y0072897D01*
X0465219Y0072487D01*
X0465219Y0070848D01*
X0466038Y0071258D02*
X0466858Y0070439D01*
X0467757Y0070848D02*
X0468166Y0070439D01*
X0468986Y0070439D01*
X0469395Y0070848D01*
X0469395Y0071668D01*
X0468986Y0072077D01*
X0468576Y0072077D01*
X0467757Y0071668D01*
X0467757Y0072897D01*
X0469395Y0072897D01*
X0469395Y0100439D02*
X0467757Y0100439D01*
X0469395Y0102077D01*
X0469395Y0102487D01*
X0468986Y0102897D01*
X0468166Y0102897D01*
X0467757Y0102487D01*
X0466858Y0102487D02*
X0466858Y0100848D01*
X0466448Y0100439D01*
X0465629Y0100439D01*
X0465219Y0100848D01*
X0465219Y0102487D01*
X0465629Y0102897D01*
X0466448Y0102897D01*
X0466858Y0102487D01*
X0466038Y0101258D02*
X0466858Y0100439D01*
X0476672Y0105100D02*
X0477082Y0104691D01*
X0477901Y0104691D01*
X0478311Y0105100D01*
X0478311Y0106739D01*
X0477901Y0107149D01*
X0477082Y0107149D01*
X0476672Y0106739D01*
X0476672Y0105100D01*
X0477492Y0105510D02*
X0478311Y0104691D01*
X0479210Y0105100D02*
X0479620Y0104691D01*
X0480439Y0104691D01*
X0480849Y0105100D01*
X0480849Y0105510D01*
X0480439Y0105920D01*
X0480029Y0105920D01*
X0480439Y0105920D02*
X0480849Y0106329D01*
X0480849Y0106739D01*
X0480439Y0107149D01*
X0479620Y0107149D01*
X0479210Y0106739D01*
X0469395Y0130439D02*
X0467757Y0130439D01*
X0468576Y0130439D02*
X0468576Y0132897D01*
X0467757Y0132077D01*
X0466858Y0132487D02*
X0466858Y0130848D01*
X0466448Y0130439D01*
X0465629Y0130439D01*
X0465219Y0130848D01*
X0465219Y0132487D01*
X0465629Y0132897D01*
X0466448Y0132897D01*
X0466858Y0132487D01*
X0466038Y0131258D02*
X0466858Y0130439D01*
X0476672Y0135100D02*
X0477082Y0134691D01*
X0477901Y0134691D01*
X0478311Y0135100D01*
X0478311Y0136739D01*
X0477901Y0137149D01*
X0477082Y0137149D01*
X0476672Y0136739D01*
X0476672Y0135100D01*
X0477492Y0135510D02*
X0478311Y0134691D01*
X0479210Y0135100D02*
X0479620Y0134691D01*
X0480439Y0134691D01*
X0480849Y0135100D01*
X0480849Y0135510D01*
X0480439Y0135920D01*
X0479210Y0135920D01*
X0479210Y0135100D01*
X0479210Y0135920D02*
X0480029Y0136739D01*
X0480849Y0137149D01*
X0480439Y0164691D02*
X0480439Y0167149D01*
X0479210Y0165920D01*
X0480849Y0165920D01*
X0478311Y0166739D02*
X0478311Y0165100D01*
X0477901Y0164691D01*
X0477082Y0164691D01*
X0476672Y0165100D01*
X0476672Y0166739D01*
X0477082Y0167149D01*
X0477901Y0167149D01*
X0478311Y0166739D01*
X0477492Y0165510D02*
X0478311Y0164691D01*
X0529657Y0185497D02*
X0530274Y0184880D01*
X0531508Y0184880D01*
X0532125Y0185497D01*
X0533340Y0185497D02*
X0533340Y0184880D01*
X0533340Y0185497D02*
X0535808Y0187965D01*
X0535808Y0188583D01*
X0533340Y0188583D01*
X0532125Y0187965D02*
X0531508Y0188583D01*
X0530274Y0188583D01*
X0529657Y0187965D01*
X0529657Y0185497D01*
X0614944Y0174091D02*
X0614944Y0171623D01*
X0615561Y0171006D01*
X0616795Y0171006D01*
X0617413Y0171623D01*
X0618627Y0171006D02*
X0621096Y0173474D01*
X0621096Y0174091D01*
X0620479Y0174709D01*
X0619244Y0174709D01*
X0618627Y0174091D01*
X0617413Y0174091D02*
X0616795Y0174709D01*
X0615561Y0174709D01*
X0614944Y0174091D01*
X0618627Y0171006D02*
X0621096Y0171006D01*
D14*
X0623333Y0113942D02*
X0620577Y0109808D01*
X0626286Y0109808D01*
X0623333Y0113942D01*
D15*
X0253333Y0063793D02*
X0148333Y0063793D01*
X0148333Y0098793D01*
X0253333Y0098793D01*
X0253333Y0063793D01*
X0441798Y0077769D02*
X0444948Y0077769D01*
X0444948Y0075407D01*
X0471719Y0075407D01*
X0471719Y0102178D01*
X0444948Y0102178D01*
X0444948Y0099816D01*
X0441798Y0099816D01*
X0441798Y0095879D02*
X0444948Y0095879D01*
X0444948Y0081706D01*
X0441798Y0081706D01*
X0474948Y0075407D02*
X0474948Y0102178D01*
X0501719Y0102178D01*
X0501719Y0099816D01*
X0504869Y0099816D01*
X0504869Y0095879D02*
X0501719Y0095879D01*
X0501719Y0081706D01*
X0504869Y0081706D01*
X0504869Y0077769D02*
X0501719Y0077769D01*
X0501719Y0075407D01*
X0474948Y0075407D01*
X0474948Y0105407D02*
X0474948Y0132178D01*
X0501719Y0132178D01*
X0501719Y0129816D01*
X0504869Y0129816D01*
X0504869Y0125879D02*
X0501719Y0125879D01*
X0501719Y0111706D01*
X0504869Y0111706D01*
X0504869Y0107769D02*
X0501719Y0107769D01*
X0501719Y0105407D01*
X0474948Y0105407D01*
X0471719Y0105407D02*
X0444948Y0105407D01*
X0444948Y0107769D01*
X0441798Y0107769D01*
X0441798Y0111706D02*
X0444948Y0111706D01*
X0444948Y0125879D01*
X0441798Y0125879D01*
X0441798Y0129816D02*
X0444948Y0129816D01*
X0444948Y0132178D01*
X0471719Y0132178D01*
X0471719Y0105407D01*
X0471719Y0135407D02*
X0444948Y0135407D01*
X0444948Y0137769D01*
X0441798Y0137769D01*
X0441798Y0141706D02*
X0444948Y0141706D01*
X0444948Y0155879D01*
X0441798Y0155879D01*
X0441798Y0159816D02*
X0444948Y0159816D01*
X0444948Y0162178D01*
X0471719Y0162178D01*
X0471719Y0135407D01*
X0474948Y0135407D02*
X0474948Y0162178D01*
X0501719Y0162178D01*
X0501719Y0159816D01*
X0504869Y0159816D01*
X0504869Y0155879D02*
X0501719Y0155879D01*
X0501719Y0141706D01*
X0504869Y0141706D01*
X0504869Y0137769D02*
X0501719Y0137769D01*
X0501719Y0135407D01*
X0474948Y0135407D01*
X0628642Y0119835D02*
X0628642Y0116832D01*
X0630894Y0116832D01*
X0630144Y0118334D01*
X0630144Y0119084D01*
X0630894Y0119835D01*
X0632396Y0119835D01*
X0633146Y0119084D01*
X0633146Y0117583D01*
X0632396Y0116832D01*
X0632396Y0115231D02*
X0629393Y0115231D01*
X0628642Y0114480D01*
X0628642Y0112228D01*
X0633146Y0112228D01*
X0633146Y0114480D01*
X0632396Y0115231D01*
D16*
X0623333Y0114139D03*
D17*
X0600782Y0103730D02*
X0595270Y0103730D01*
X0592514Y0102155D02*
X0590152Y0099793D01*
X0592514Y0097430D01*
X0592514Y0102155D01*
X0590152Y0102548D02*
X0590152Y0099793D01*
X0590152Y0097037D01*
X0587396Y0095856D02*
X0581885Y0095856D01*
X0581885Y0103730D01*
X0587396Y0103730D01*
X0600782Y0103730D02*
X0600782Y0095856D01*
X0595270Y0095856D01*
X0596885Y0138856D02*
X0596885Y0146730D01*
X0602396Y0146730D01*
X0605152Y0145548D02*
X0605152Y0142793D01*
X0607514Y0145155D01*
X0607514Y0140430D01*
X0605152Y0142793D01*
X0605152Y0140037D01*
X0602396Y0138856D02*
X0596885Y0138856D01*
X0610270Y0138856D02*
X0615782Y0138856D01*
X0615782Y0146730D01*
X0610270Y0146730D01*
X0610270Y0149856D02*
X0615782Y0149856D01*
X0615782Y0157730D01*
X0610270Y0157730D01*
X0607514Y0156548D02*
X0607514Y0153793D01*
X0605152Y0151430D01*
X0605152Y0156155D01*
X0607514Y0153793D01*
X0607514Y0151037D01*
X0602396Y0149856D02*
X0596885Y0149856D01*
X0596885Y0157730D01*
X0602396Y0157730D01*
X0587782Y0167856D02*
X0582270Y0167856D01*
X0579514Y0169430D02*
X0579514Y0174155D01*
X0577152Y0171793D01*
X0579514Y0169430D01*
X0577152Y0169037D02*
X0577152Y0171793D01*
X0577152Y0174548D01*
X0574396Y0175730D02*
X0568885Y0175730D01*
X0568885Y0167856D01*
X0574396Y0167856D01*
X0587782Y0167856D02*
X0587782Y0175730D01*
X0582270Y0175730D01*
X0628097Y0041509D02*
X0398570Y0041509D01*
X0398570Y0006076D01*
X0628097Y0006076D01*
X0628097Y0006470D02*
X0628097Y0041509D01*
X0610833Y0034718D02*
X0605833Y0034718D01*
X0521995Y0035604D02*
X0504672Y0035604D01*
X0504672Y0041509D01*
X0521995Y0041509D02*
X0521995Y0035604D01*
D18*
X0547507Y0112966D03*
M02*
