G75*
%MOIN*%
%OFA0B0*%
%FSLAX25Y25*%
%IPPOS*%
%LPD*%
%AMOC8*
5,1,8,0,0,1.08239X$1,22.5*
%
%ADD10R,0.04724X0.03150*%
%ADD11OC8,0.07400*%
%ADD12C,0.03962*%
%ADD13C,0.01000*%
%ADD14C,0.15024*%
%ADD15C,0.11000*%
%ADD16C,0.09449*%
%ADD17C,0.07000*%
%ADD18C,0.12661*%
D10*
X0409333Y0094249D03*
X0409333Y0101336D03*
D11*
X0418333Y0028793D03*
X0428333Y0028793D03*
X0438333Y0028793D03*
X0448333Y0028793D03*
X0458333Y0028793D03*
X0468333Y0028793D03*
X0478333Y0028793D03*
X0488333Y0028793D03*
X0498333Y0028793D03*
X0508333Y0028793D03*
X0518333Y0028793D03*
X0528333Y0028793D03*
X0538333Y0028793D03*
X0548333Y0028793D03*
X0558333Y0028793D03*
X0568333Y0028793D03*
X0578333Y0028793D03*
X0588333Y0028793D03*
X0598333Y0028793D03*
X0608333Y0028793D03*
X0608333Y0018793D03*
X0598333Y0018793D03*
X0588333Y0018793D03*
X0578333Y0018793D03*
X0568333Y0018793D03*
X0558333Y0018793D03*
X0548333Y0018793D03*
X0538333Y0018793D03*
X0528333Y0018793D03*
X0518333Y0018793D03*
X0508333Y0018793D03*
X0498333Y0018793D03*
X0488333Y0018793D03*
X0478333Y0018793D03*
X0468333Y0018793D03*
X0458333Y0018793D03*
X0448333Y0018793D03*
X0438333Y0018793D03*
X0428333Y0018793D03*
X0418333Y0018793D03*
D12*
X0547833Y0064793D03*
X0558333Y0063793D03*
X0571333Y0059793D03*
X0579333Y0051793D03*
X0600333Y0039793D03*
X0590333Y0010793D03*
X0573333Y0010043D03*
X0563333Y0010043D03*
X0535583Y0074793D03*
X0546333Y0075793D03*
X0542333Y0080793D03*
X0534333Y0080793D03*
X0557333Y0090793D03*
X0553333Y0101793D03*
X0533833Y0108793D03*
X0532833Y0120543D03*
X0559333Y0123793D03*
X0579583Y0134293D03*
X0588333Y0133793D03*
X0595333Y0133793D03*
X0578333Y0140793D03*
X0585333Y0142793D03*
X0581333Y0148793D03*
X0620333Y0130793D03*
X0586333Y0118793D03*
X0589333Y0108793D03*
X0575333Y0107793D03*
X0523333Y0152793D03*
X0516333Y0151793D03*
X0510333Y0151793D03*
X0530333Y0153793D03*
X0578333Y0186793D03*
X0434333Y0149793D03*
X0436333Y0121793D03*
X0429333Y0118543D03*
X0422333Y0097793D03*
D13*
X0397542Y0006725D02*
X0397827Y0194993D01*
X0502795Y0194993D01*
X0501538Y0194472D01*
X0487558Y0180493D01*
X0460095Y0180493D01*
X0460066Y0180504D01*
X0456600Y0180504D01*
X0453398Y0179178D01*
X0450948Y0176727D01*
X0449622Y0173525D01*
X0449622Y0170060D01*
X0450948Y0166858D01*
X0453398Y0164407D01*
X0456600Y0163081D01*
X0460066Y0163081D01*
X0463268Y0164407D01*
X0465719Y0166858D01*
X0465816Y0167093D01*
X0491666Y0167093D01*
X0494129Y0168113D01*
X0496013Y0169997D01*
X0496013Y0169997D01*
X0508109Y0182093D01*
X0573558Y0182093D01*
X0574538Y0181113D01*
X0615633Y0140017D01*
X0615633Y0045568D01*
X0602653Y0032588D01*
X0602306Y0031749D01*
X0600363Y0033693D01*
X0596637Y0033693D01*
X0599599Y0036654D01*
X0599701Y0036611D01*
X0600966Y0036611D01*
X0602135Y0037096D01*
X0603030Y0037991D01*
X0603514Y0039160D01*
X0603514Y0040425D01*
X0603030Y0041594D01*
X0602135Y0042489D01*
X0600966Y0042974D01*
X0599701Y0042974D01*
X0598531Y0042489D01*
X0597637Y0041594D01*
X0597152Y0040425D01*
X0597152Y0039160D01*
X0597194Y0039058D01*
X0592629Y0034493D01*
X0591633Y0033497D01*
X0591633Y0032422D01*
X0590363Y0033693D01*
X0586304Y0033693D01*
X0583433Y0030822D01*
X0583433Y0026763D01*
X0586304Y0023893D01*
X0590363Y0023893D01*
X0591633Y0025163D01*
X0591633Y0022422D01*
X0590363Y0023693D01*
X0586304Y0023693D01*
X0583433Y0020822D01*
X0583433Y0016763D01*
X0586304Y0013893D01*
X0589505Y0013893D01*
X0588531Y0013489D01*
X0587637Y0012594D01*
X0587152Y0011425D01*
X0587152Y0010160D01*
X0587637Y0008991D01*
X0588531Y0008096D01*
X0589701Y0007611D01*
X0590966Y0007611D01*
X0592135Y0008096D01*
X0593030Y0008991D01*
X0593514Y0010160D01*
X0593514Y0011425D01*
X0593472Y0011527D01*
X0595033Y0013088D01*
X0595033Y0015163D01*
X0596304Y0013893D01*
X0600363Y0013893D01*
X0603233Y0016763D01*
X0603233Y0020822D01*
X0600363Y0023693D01*
X0596304Y0023693D01*
X0595033Y0022422D01*
X0595033Y0025163D01*
X0596304Y0023893D01*
X0600363Y0023893D01*
X0602306Y0025836D01*
X0602653Y0024997D01*
X0604538Y0023113D01*
X0605376Y0022765D01*
X0603433Y0020822D01*
X0603433Y0016763D01*
X0606304Y0013893D01*
X0610363Y0013893D01*
X0613233Y0016763D01*
X0613233Y0020822D01*
X0611290Y0022765D01*
X0612129Y0023113D01*
X0626129Y0037113D01*
X0628013Y0038997D01*
X0628514Y0040205D01*
X0628463Y0006725D01*
X0397542Y0006725D01*
X0397542Y0006788D02*
X0628463Y0006788D01*
X0628465Y0007787D02*
X0591389Y0007787D01*
X0592825Y0008785D02*
X0628466Y0008785D01*
X0628468Y0009784D02*
X0593359Y0009784D01*
X0593514Y0010782D02*
X0628469Y0010782D01*
X0628471Y0011781D02*
X0593726Y0011781D01*
X0594724Y0012779D02*
X0628472Y0012779D01*
X0628474Y0013778D02*
X0595033Y0013778D01*
X0595033Y0014776D02*
X0595420Y0014776D01*
X0593333Y0013793D02*
X0590333Y0010793D01*
X0587152Y0010782D02*
X0576470Y0010782D01*
X0576514Y0010675D02*
X0576030Y0011844D01*
X0575135Y0012739D01*
X0575033Y0012782D01*
X0575033Y0015163D01*
X0576304Y0013893D01*
X0580363Y0013893D01*
X0583233Y0016763D01*
X0583233Y0020822D01*
X0580363Y0023693D01*
X0576304Y0023693D01*
X0575033Y0022422D01*
X0575033Y0025163D01*
X0576304Y0023893D01*
X0580363Y0023893D01*
X0583233Y0026763D01*
X0583233Y0030822D01*
X0583033Y0031022D01*
X0583033Y0032846D01*
X0583280Y0033093D01*
X0584666Y0033093D01*
X0587129Y0034113D01*
X0597013Y0043997D01*
X0598033Y0046460D01*
X0598033Y0055017D01*
X0609129Y0066113D01*
X0611013Y0067997D01*
X0612033Y0070460D01*
X0612033Y0139125D01*
X0611013Y0141588D01*
X0576013Y0176588D01*
X0574129Y0178472D01*
X0571666Y0179493D01*
X0517954Y0179493D01*
X0517268Y0180178D01*
X0514066Y0181504D01*
X0510600Y0181504D01*
X0507398Y0180178D01*
X0504948Y0177727D01*
X0503622Y0174525D01*
X0503622Y0171060D01*
X0504948Y0167858D01*
X0507398Y0165407D01*
X0510600Y0164081D01*
X0514066Y0164081D01*
X0517268Y0165407D01*
X0517954Y0166093D01*
X0543606Y0166093D01*
X0541398Y0165178D01*
X0538948Y0162727D01*
X0537622Y0159525D01*
X0537622Y0156060D01*
X0538948Y0152858D01*
X0539633Y0152172D01*
X0539633Y0150568D01*
X0518653Y0129588D01*
X0517633Y0127125D01*
X0517633Y0121091D01*
X0517013Y0122588D01*
X0515129Y0124472D01*
X0512666Y0125493D01*
X0510001Y0125493D01*
X0507538Y0124472D01*
X0505653Y0122588D01*
X0504633Y0120125D01*
X0504633Y0069413D01*
X0503948Y0068727D01*
X0502622Y0065525D01*
X0502622Y0062060D01*
X0503948Y0058858D01*
X0506398Y0056407D01*
X0508606Y0055493D01*
X0502109Y0055493D01*
X0495013Y0062588D01*
X0493129Y0064472D01*
X0490666Y0065493D01*
X0456954Y0065493D01*
X0456268Y0066178D01*
X0453066Y0067504D01*
X0449600Y0067504D01*
X0446398Y0066178D01*
X0443948Y0063727D01*
X0442622Y0060525D01*
X0442622Y0057060D01*
X0443948Y0053858D01*
X0446398Y0051407D01*
X0449600Y0050081D01*
X0453066Y0050081D01*
X0456268Y0051407D01*
X0456954Y0052093D01*
X0486558Y0052093D01*
X0495158Y0043493D01*
X0461629Y0043493D01*
X0452629Y0034493D01*
X0451633Y0033497D01*
X0451633Y0032846D01*
X0450487Y0033993D01*
X0448833Y0033993D01*
X0448833Y0029293D01*
X0447833Y0029293D01*
X0447833Y0033993D01*
X0446179Y0033993D01*
X0443333Y0031146D01*
X0440487Y0033993D01*
X0438833Y0033993D01*
X0438833Y0029293D01*
X0437833Y0029293D01*
X0437833Y0033993D01*
X0436179Y0033993D01*
X0433333Y0031146D01*
X0430487Y0033993D01*
X0428833Y0033993D01*
X0428833Y0029293D01*
X0427833Y0029293D01*
X0427833Y0033993D01*
X0426179Y0033993D01*
X0423333Y0031146D01*
X0420487Y0033993D01*
X0418833Y0033993D01*
X0418833Y0029293D01*
X0417833Y0029293D01*
X0417833Y0033993D01*
X0416179Y0033993D01*
X0413133Y0030946D01*
X0413133Y0029292D01*
X0417833Y0029292D01*
X0417833Y0028293D01*
X0413133Y0028293D01*
X0413133Y0026639D01*
X0415979Y0023793D01*
X0413133Y0020946D01*
X0413133Y0019292D01*
X0417833Y0019292D01*
X0417833Y0018293D01*
X0413133Y0018293D01*
X0413133Y0016639D01*
X0416179Y0013593D01*
X0417833Y0013593D01*
X0417833Y0018292D01*
X0418833Y0018292D01*
X0418833Y0013593D01*
X0420487Y0013593D01*
X0423333Y0016439D01*
X0426179Y0013593D01*
X0427833Y0013593D01*
X0427833Y0018292D01*
X0428833Y0018292D01*
X0428833Y0013593D01*
X0430487Y0013593D01*
X0433333Y0016439D01*
X0436179Y0013593D01*
X0437833Y0013593D01*
X0437833Y0018292D01*
X0438833Y0018292D01*
X0438833Y0013593D01*
X0440487Y0013593D01*
X0443333Y0016439D01*
X0446179Y0013593D01*
X0447833Y0013593D01*
X0447833Y0018292D01*
X0448833Y0018292D01*
X0448833Y0013593D01*
X0450487Y0013593D01*
X0451808Y0014913D01*
X0453633Y0013088D01*
X0454629Y0012093D01*
X0464037Y0012093D01*
X0466071Y0014126D01*
X0466304Y0013893D01*
X0470363Y0013893D01*
X0471633Y0015163D01*
X0471633Y0014088D01*
X0472629Y0013093D01*
X0476629Y0009093D01*
X0550037Y0009093D01*
X0551033Y0010088D01*
X0555033Y0014088D01*
X0555033Y0015163D01*
X0556304Y0013893D01*
X0560363Y0013893D01*
X0561633Y0015163D01*
X0561633Y0012782D01*
X0561531Y0012739D01*
X0560637Y0011844D01*
X0560152Y0010675D01*
X0560152Y0009410D01*
X0560637Y0008241D01*
X0561531Y0007346D01*
X0562701Y0006861D01*
X0563966Y0006861D01*
X0565135Y0007346D01*
X0566030Y0008241D01*
X0566514Y0009410D01*
X0566514Y0010675D01*
X0566030Y0011844D01*
X0565135Y0012739D01*
X0565033Y0012782D01*
X0565033Y0015163D01*
X0566304Y0013893D01*
X0570363Y0013893D01*
X0571633Y0015163D01*
X0571633Y0012782D01*
X0571531Y0012739D01*
X0570637Y0011844D01*
X0570152Y0010675D01*
X0570152Y0009410D01*
X0570637Y0008241D01*
X0571531Y0007346D01*
X0572701Y0006861D01*
X0573966Y0006861D01*
X0575135Y0007346D01*
X0576030Y0008241D01*
X0576514Y0009410D01*
X0576514Y0010675D01*
X0576514Y0009784D02*
X0587308Y0009784D01*
X0587842Y0008785D02*
X0576256Y0008785D01*
X0575576Y0007787D02*
X0589278Y0007787D01*
X0587299Y0011781D02*
X0576057Y0011781D01*
X0575039Y0012779D02*
X0587821Y0012779D01*
X0589227Y0013778D02*
X0575033Y0013778D01*
X0575033Y0014776D02*
X0575420Y0014776D01*
X0571633Y0014776D02*
X0571247Y0014776D01*
X0571633Y0013778D02*
X0565033Y0013778D01*
X0565033Y0014776D02*
X0565420Y0014776D01*
X0565039Y0012779D02*
X0571627Y0012779D01*
X0570610Y0011781D02*
X0566057Y0011781D01*
X0566470Y0010782D02*
X0570196Y0010782D01*
X0570152Y0009784D02*
X0566514Y0009784D01*
X0566256Y0008785D02*
X0570411Y0008785D01*
X0571091Y0007787D02*
X0565576Y0007787D01*
X0563333Y0010043D02*
X0563333Y0036793D01*
X0571333Y0044793D01*
X0571333Y0056793D01*
X0571333Y0059793D01*
X0571333Y0109793D01*
X0595333Y0133793D01*
X0598283Y0132600D02*
X0598633Y0132600D01*
X0598514Y0133160D02*
X0598030Y0131991D01*
X0597135Y0131096D01*
X0595966Y0130611D01*
X0594701Y0130611D01*
X0594599Y0130654D01*
X0585919Y0121974D01*
X0586966Y0121974D01*
X0588135Y0121489D01*
X0589030Y0120594D01*
X0589514Y0119425D01*
X0589514Y0118160D01*
X0589030Y0116991D01*
X0588135Y0116096D01*
X0586966Y0115611D01*
X0585701Y0115611D01*
X0585599Y0115654D01*
X0578472Y0108527D01*
X0578514Y0108425D01*
X0578514Y0107160D01*
X0578030Y0105991D01*
X0577135Y0105096D01*
X0577033Y0105053D01*
X0577033Y0053991D01*
X0577531Y0054489D01*
X0577633Y0054532D01*
X0577633Y0099497D01*
X0578629Y0100493D01*
X0586194Y0108058D01*
X0586152Y0108160D01*
X0586152Y0109425D01*
X0586637Y0110594D01*
X0587531Y0111489D01*
X0588701Y0111974D01*
X0589966Y0111974D01*
X0591135Y0111489D01*
X0592030Y0110594D01*
X0592514Y0109425D01*
X0592514Y0108160D01*
X0592030Y0106991D01*
X0591135Y0106096D01*
X0589966Y0105611D01*
X0588701Y0105611D01*
X0588599Y0105654D01*
X0581033Y0098088D01*
X0581033Y0054532D01*
X0581135Y0054489D01*
X0582030Y0053594D01*
X0582514Y0052425D01*
X0582514Y0051160D01*
X0582030Y0049991D01*
X0581135Y0049096D01*
X0579966Y0048611D01*
X0578701Y0048611D01*
X0577531Y0049096D01*
X0577033Y0049594D01*
X0577033Y0042091D01*
X0577653Y0043588D01*
X0584633Y0050568D01*
X0584633Y0059125D01*
X0585653Y0061588D01*
X0598633Y0074568D01*
X0598633Y0135017D01*
X0584514Y0149136D01*
X0584514Y0148160D01*
X0584030Y0146991D01*
X0583135Y0146096D01*
X0582640Y0145890D01*
X0583033Y0145497D01*
X0583286Y0145244D01*
X0583531Y0145489D01*
X0584701Y0145974D01*
X0585966Y0145974D01*
X0587135Y0145489D01*
X0588030Y0144594D01*
X0588514Y0143425D01*
X0588514Y0142160D01*
X0588030Y0140991D01*
X0587135Y0140096D01*
X0585966Y0139611D01*
X0584701Y0139611D01*
X0583531Y0140096D01*
X0582637Y0140991D01*
X0582570Y0141152D01*
X0580629Y0143093D01*
X0580532Y0143093D01*
X0581030Y0142594D01*
X0581514Y0141425D01*
X0581514Y0140160D01*
X0581030Y0138991D01*
X0580135Y0138096D01*
X0578966Y0137611D01*
X0577701Y0137611D01*
X0576531Y0138096D01*
X0575637Y0138991D01*
X0575594Y0139093D01*
X0572037Y0139093D01*
X0548033Y0115088D01*
X0548033Y0078532D01*
X0548135Y0078489D01*
X0549030Y0077594D01*
X0549514Y0076425D01*
X0549514Y0075160D01*
X0549030Y0073991D01*
X0548135Y0073096D01*
X0546966Y0072611D01*
X0545701Y0072611D01*
X0544531Y0073096D01*
X0544033Y0073594D01*
X0544033Y0068897D01*
X0551633Y0076497D01*
X0551633Y0099053D01*
X0551531Y0099096D01*
X0550637Y0099991D01*
X0550152Y0101160D01*
X0550152Y0102425D01*
X0550637Y0103594D01*
X0551531Y0104489D01*
X0552701Y0104974D01*
X0553966Y0104974D01*
X0555135Y0104489D01*
X0556030Y0103594D01*
X0556514Y0102425D01*
X0556514Y0101160D01*
X0556030Y0099991D01*
X0555135Y0099096D01*
X0555033Y0099053D01*
X0555033Y0092991D01*
X0555531Y0093489D01*
X0556701Y0093974D01*
X0557966Y0093974D01*
X0559135Y0093489D01*
X0560030Y0092594D01*
X0560514Y0091425D01*
X0560514Y0090160D01*
X0560030Y0088991D01*
X0559135Y0088096D01*
X0558033Y0087639D01*
X0558033Y0070088D01*
X0554033Y0066088D01*
X0554033Y0054492D01*
X0561633Y0062473D01*
X0561633Y0117786D01*
X0561628Y0118484D01*
X0561633Y0118489D01*
X0561633Y0118497D01*
X0562126Y0118990D01*
X0576453Y0133537D01*
X0576402Y0133660D01*
X0576402Y0134925D01*
X0576887Y0136094D01*
X0577781Y0136989D01*
X0578951Y0137474D01*
X0580216Y0137474D01*
X0581385Y0136989D01*
X0582280Y0136094D01*
X0582764Y0134925D01*
X0582764Y0133660D01*
X0582280Y0132491D01*
X0581385Y0131596D01*
X0580216Y0131111D01*
X0578951Y0131111D01*
X0578870Y0131145D01*
X0565033Y0117096D01*
X0565033Y0112897D01*
X0565629Y0113493D01*
X0585194Y0133058D01*
X0585152Y0133160D01*
X0585152Y0134425D01*
X0585637Y0135594D01*
X0586531Y0136489D01*
X0587701Y0136974D01*
X0588966Y0136974D01*
X0590135Y0136489D01*
X0591030Y0135594D01*
X0591514Y0134425D01*
X0591514Y0133160D01*
X0591030Y0131991D01*
X0590135Y0131096D01*
X0588966Y0130611D01*
X0587701Y0130611D01*
X0587599Y0130654D01*
X0568033Y0111088D01*
X0568033Y0045088D01*
X0556637Y0033693D01*
X0560363Y0033693D01*
X0561633Y0032422D01*
X0561633Y0037497D01*
X0569633Y0045497D01*
X0569633Y0057053D01*
X0569531Y0057096D01*
X0568637Y0057991D01*
X0568152Y0059160D01*
X0568152Y0060425D01*
X0568637Y0061594D01*
X0569531Y0062489D01*
X0569633Y0062532D01*
X0569633Y0110497D01*
X0570629Y0111493D01*
X0592194Y0133058D01*
X0592152Y0133160D01*
X0592152Y0134425D01*
X0592637Y0135594D01*
X0593531Y0136489D01*
X0594701Y0136974D01*
X0595966Y0136974D01*
X0597135Y0136489D01*
X0598030Y0135594D01*
X0598514Y0134425D01*
X0598514Y0133160D01*
X0598514Y0133599D02*
X0598633Y0133599D01*
X0598633Y0134598D02*
X0598443Y0134598D01*
X0598055Y0135596D02*
X0598029Y0135596D01*
X0597056Y0136595D02*
X0596881Y0136595D01*
X0596058Y0137593D02*
X0570538Y0137593D01*
X0569539Y0136595D02*
X0577387Y0136595D01*
X0576680Y0135596D02*
X0568541Y0135596D01*
X0567542Y0134598D02*
X0576402Y0134598D01*
X0576427Y0133599D02*
X0566544Y0133599D01*
X0565545Y0132600D02*
X0575531Y0132600D01*
X0574548Y0131602D02*
X0564547Y0131602D01*
X0563548Y0130603D02*
X0573564Y0130603D01*
X0572581Y0129605D02*
X0562550Y0129605D01*
X0561551Y0128606D02*
X0571597Y0128606D01*
X0570614Y0127608D02*
X0560553Y0127608D01*
X0559554Y0126609D02*
X0569631Y0126609D01*
X0568647Y0125611D02*
X0558556Y0125611D01*
X0557557Y0124612D02*
X0567664Y0124612D01*
X0566680Y0123614D02*
X0556559Y0123614D01*
X0555560Y0122615D02*
X0565697Y0122615D01*
X0564714Y0121617D02*
X0554562Y0121617D01*
X0553563Y0120618D02*
X0563730Y0120618D01*
X0562747Y0119620D02*
X0552565Y0119620D01*
X0551566Y0118621D02*
X0561758Y0118621D01*
X0561633Y0117623D02*
X0550568Y0117623D01*
X0549569Y0116624D02*
X0561633Y0116624D01*
X0561633Y0115626D02*
X0548571Y0115626D01*
X0548033Y0114627D02*
X0561633Y0114627D01*
X0561633Y0113629D02*
X0548033Y0113629D01*
X0548033Y0112630D02*
X0561633Y0112630D01*
X0561633Y0111632D02*
X0548033Y0111632D01*
X0548033Y0110633D02*
X0561633Y0110633D01*
X0561633Y0109635D02*
X0548033Y0109635D01*
X0548033Y0108636D02*
X0561633Y0108636D01*
X0561633Y0107638D02*
X0548033Y0107638D01*
X0548033Y0106639D02*
X0561633Y0106639D01*
X0561633Y0105641D02*
X0548033Y0105641D01*
X0548033Y0104642D02*
X0551900Y0104642D01*
X0550686Y0103644D02*
X0548033Y0103644D01*
X0548033Y0102645D02*
X0550243Y0102645D01*
X0550152Y0101647D02*
X0548033Y0101647D01*
X0548033Y0100648D02*
X0550364Y0100648D01*
X0550977Y0099650D02*
X0548033Y0099650D01*
X0548033Y0098651D02*
X0551633Y0098651D01*
X0551633Y0097653D02*
X0548033Y0097653D01*
X0548033Y0096654D02*
X0551633Y0096654D01*
X0551633Y0095656D02*
X0548033Y0095656D01*
X0548033Y0094657D02*
X0551633Y0094657D01*
X0551633Y0093659D02*
X0548033Y0093659D01*
X0548033Y0092660D02*
X0551633Y0092660D01*
X0551633Y0091662D02*
X0548033Y0091662D01*
X0548033Y0090663D02*
X0551633Y0090663D01*
X0551633Y0089664D02*
X0548033Y0089664D01*
X0548033Y0088666D02*
X0551633Y0088666D01*
X0551633Y0087667D02*
X0548033Y0087667D01*
X0548033Y0086669D02*
X0551633Y0086669D01*
X0551633Y0085670D02*
X0548033Y0085670D01*
X0548033Y0084672D02*
X0551633Y0084672D01*
X0551633Y0083673D02*
X0548033Y0083673D01*
X0548033Y0082675D02*
X0551633Y0082675D01*
X0551633Y0081676D02*
X0548033Y0081676D01*
X0548033Y0080678D02*
X0551633Y0080678D01*
X0551633Y0079679D02*
X0548033Y0079679D01*
X0548033Y0078681D02*
X0551633Y0078681D01*
X0551633Y0077682D02*
X0548942Y0077682D01*
X0549407Y0076684D02*
X0551633Y0076684D01*
X0550822Y0075685D02*
X0549514Y0075685D01*
X0549319Y0074687D02*
X0549823Y0074687D01*
X0548825Y0073688D02*
X0548728Y0073688D01*
X0547826Y0072690D02*
X0547155Y0072690D01*
X0546828Y0071691D02*
X0544033Y0071691D01*
X0544033Y0070693D02*
X0545829Y0070693D01*
X0544831Y0069694D02*
X0544033Y0069694D01*
X0542333Y0067793D02*
X0541833Y0067293D01*
X0541833Y0053793D01*
X0525333Y0037793D01*
X0507333Y0037793D01*
X0498333Y0028793D01*
X0488333Y0028793D02*
X0497333Y0039793D01*
X0524333Y0039793D01*
X0539333Y0054793D01*
X0539333Y0077793D01*
X0538333Y0078793D01*
X0538333Y0082793D01*
X0542333Y0086793D01*
X0542333Y0115793D01*
X0571333Y0144793D01*
X0581333Y0144793D01*
X0583333Y0142793D01*
X0585333Y0142793D01*
X0588277Y0141587D02*
X0592064Y0141587D01*
X0593062Y0140589D02*
X0587628Y0140589D01*
X0588514Y0142586D02*
X0591065Y0142586D01*
X0590067Y0143584D02*
X0588449Y0143584D01*
X0588035Y0144583D02*
X0589068Y0144583D01*
X0588069Y0145581D02*
X0586914Y0145581D01*
X0587071Y0146580D02*
X0583619Y0146580D01*
X0583753Y0145581D02*
X0582949Y0145581D01*
X0584274Y0147578D02*
X0586072Y0147578D01*
X0585074Y0148577D02*
X0584514Y0148577D01*
X0581333Y0148793D02*
X0566333Y0148793D01*
X0539333Y0121793D01*
X0539333Y0107793D01*
X0536333Y0104793D01*
X0536333Y0084793D01*
X0534333Y0082793D01*
X0534333Y0080793D01*
X0542333Y0080793D02*
X0542333Y0067793D01*
X0544333Y0066793D02*
X0544333Y0052793D01*
X0527333Y0035793D01*
X0515333Y0035793D01*
X0508333Y0028793D01*
X0518333Y0028793D02*
X0523333Y0033793D01*
X0528333Y0033793D01*
X0547833Y0053293D01*
X0547833Y0064793D01*
X0544333Y0066793D02*
X0553333Y0075793D01*
X0553333Y0101793D01*
X0556302Y0100648D02*
X0561633Y0100648D01*
X0561633Y0099650D02*
X0555689Y0099650D01*
X0555033Y0098651D02*
X0561633Y0098651D01*
X0561633Y0097653D02*
X0555033Y0097653D01*
X0555033Y0096654D02*
X0561633Y0096654D01*
X0561633Y0095656D02*
X0555033Y0095656D01*
X0555033Y0094657D02*
X0561633Y0094657D01*
X0561633Y0093659D02*
X0558727Y0093659D01*
X0559333Y0094793D02*
X0560833Y0093293D01*
X0560833Y0065293D01*
X0558333Y0063793D01*
X0561633Y0063703D02*
X0554033Y0063703D01*
X0554033Y0062705D02*
X0561633Y0062705D01*
X0560904Y0061706D02*
X0554033Y0061706D01*
X0554033Y0060708D02*
X0559953Y0060708D01*
X0559002Y0059709D02*
X0554033Y0059709D01*
X0554033Y0058711D02*
X0558051Y0058711D01*
X0557100Y0057712D02*
X0554033Y0057712D01*
X0554033Y0056714D02*
X0556149Y0056714D01*
X0555198Y0055715D02*
X0554033Y0055715D01*
X0554033Y0054717D02*
X0554247Y0054717D01*
X0552333Y0053793D02*
X0533333Y0034793D01*
X0533333Y0025793D01*
X0531333Y0023793D01*
X0523333Y0023793D01*
X0518333Y0018793D01*
X0540333Y0012793D02*
X0486333Y0012793D01*
X0483333Y0015793D01*
X0483333Y0023793D01*
X0478333Y0028793D01*
X0473333Y0023793D02*
X0468333Y0028793D01*
X0473333Y0023793D02*
X0473333Y0014793D01*
X0477333Y0010793D01*
X0549333Y0010793D01*
X0553333Y0014793D01*
X0553333Y0032793D01*
X0566333Y0045793D01*
X0566333Y0111793D01*
X0588333Y0133793D01*
X0591283Y0132600D02*
X0591737Y0132600D01*
X0591514Y0133599D02*
X0592152Y0133599D01*
X0592224Y0134598D02*
X0591443Y0134598D01*
X0591029Y0135596D02*
X0592638Y0135596D01*
X0593785Y0136595D02*
X0589881Y0136595D01*
X0586785Y0136595D02*
X0581780Y0136595D01*
X0582487Y0135596D02*
X0585638Y0135596D01*
X0585224Y0134598D02*
X0582764Y0134598D01*
X0582739Y0133599D02*
X0585152Y0133599D01*
X0584737Y0132600D02*
X0582326Y0132600D01*
X0581392Y0131602D02*
X0583739Y0131602D01*
X0582740Y0130603D02*
X0578336Y0130603D01*
X0577353Y0129605D02*
X0581742Y0129605D01*
X0580743Y0128606D02*
X0576369Y0128606D01*
X0575386Y0127608D02*
X0579745Y0127608D01*
X0578746Y0126609D02*
X0574403Y0126609D01*
X0573419Y0125611D02*
X0577748Y0125611D01*
X0576749Y0124612D02*
X0572436Y0124612D01*
X0571452Y0123614D02*
X0575751Y0123614D01*
X0574752Y0122615D02*
X0570469Y0122615D01*
X0569486Y0121617D02*
X0573754Y0121617D01*
X0572755Y0120618D02*
X0568502Y0120618D01*
X0567519Y0119620D02*
X0571756Y0119620D01*
X0570758Y0118621D02*
X0566536Y0118621D01*
X0565552Y0117623D02*
X0569759Y0117623D01*
X0568761Y0116624D02*
X0565033Y0116624D01*
X0565033Y0115626D02*
X0567762Y0115626D01*
X0566764Y0114627D02*
X0565033Y0114627D01*
X0565033Y0113629D02*
X0565765Y0113629D01*
X0568577Y0111632D02*
X0570768Y0111632D01*
X0569770Y0110633D02*
X0568033Y0110633D01*
X0568033Y0109635D02*
X0569633Y0109635D01*
X0569633Y0108636D02*
X0568033Y0108636D01*
X0568033Y0107638D02*
X0569633Y0107638D01*
X0569633Y0106639D02*
X0568033Y0106639D01*
X0568033Y0105641D02*
X0569633Y0105641D01*
X0569633Y0104642D02*
X0568033Y0104642D01*
X0568033Y0103644D02*
X0569633Y0103644D01*
X0569633Y0102645D02*
X0568033Y0102645D01*
X0568033Y0101647D02*
X0569633Y0101647D01*
X0569633Y0100648D02*
X0568033Y0100648D01*
X0568033Y0099650D02*
X0569633Y0099650D01*
X0569633Y0098651D02*
X0568033Y0098651D01*
X0568033Y0097653D02*
X0569633Y0097653D01*
X0569633Y0096654D02*
X0568033Y0096654D01*
X0568033Y0095656D02*
X0569633Y0095656D01*
X0569633Y0094657D02*
X0568033Y0094657D01*
X0568033Y0093659D02*
X0569633Y0093659D01*
X0569633Y0092660D02*
X0568033Y0092660D01*
X0568033Y0091662D02*
X0569633Y0091662D01*
X0569633Y0090663D02*
X0568033Y0090663D01*
X0568033Y0089664D02*
X0569633Y0089664D01*
X0569633Y0088666D02*
X0568033Y0088666D01*
X0568033Y0087667D02*
X0569633Y0087667D01*
X0569633Y0086669D02*
X0568033Y0086669D01*
X0568033Y0085670D02*
X0569633Y0085670D01*
X0569633Y0084672D02*
X0568033Y0084672D01*
X0568033Y0083673D02*
X0569633Y0083673D01*
X0569633Y0082675D02*
X0568033Y0082675D01*
X0568033Y0081676D02*
X0569633Y0081676D01*
X0569633Y0080678D02*
X0568033Y0080678D01*
X0568033Y0079679D02*
X0569633Y0079679D01*
X0569633Y0078681D02*
X0568033Y0078681D01*
X0568033Y0077682D02*
X0569633Y0077682D01*
X0569633Y0076684D02*
X0568033Y0076684D01*
X0568033Y0075685D02*
X0569633Y0075685D01*
X0569633Y0074687D02*
X0568033Y0074687D01*
X0568033Y0073688D02*
X0569633Y0073688D01*
X0569633Y0072690D02*
X0568033Y0072690D01*
X0568033Y0071691D02*
X0569633Y0071691D01*
X0569633Y0070693D02*
X0568033Y0070693D01*
X0568033Y0069694D02*
X0569633Y0069694D01*
X0569633Y0068696D02*
X0568033Y0068696D01*
X0568033Y0067697D02*
X0569633Y0067697D01*
X0569633Y0066699D02*
X0568033Y0066699D01*
X0568033Y0065700D02*
X0569633Y0065700D01*
X0569633Y0064702D02*
X0568033Y0064702D01*
X0568033Y0063703D02*
X0569633Y0063703D01*
X0569633Y0062705D02*
X0568033Y0062705D01*
X0568033Y0061706D02*
X0568748Y0061706D01*
X0568269Y0060708D02*
X0568033Y0060708D01*
X0568033Y0059709D02*
X0568152Y0059709D01*
X0568033Y0058711D02*
X0568338Y0058711D01*
X0568033Y0057712D02*
X0568915Y0057712D01*
X0569633Y0056714D02*
X0568033Y0056714D01*
X0568033Y0055715D02*
X0569633Y0055715D01*
X0569633Y0054717D02*
X0568033Y0054717D01*
X0568033Y0053718D02*
X0569633Y0053718D01*
X0569633Y0052720D02*
X0568033Y0052720D01*
X0568033Y0051721D02*
X0569633Y0051721D01*
X0569633Y0050723D02*
X0568033Y0050723D01*
X0568033Y0049724D02*
X0569633Y0049724D01*
X0569633Y0048726D02*
X0568033Y0048726D01*
X0568033Y0047727D02*
X0569633Y0047727D01*
X0569633Y0046729D02*
X0568033Y0046729D01*
X0568033Y0045730D02*
X0569633Y0045730D01*
X0568868Y0044731D02*
X0567676Y0044731D01*
X0567870Y0043733D02*
X0566678Y0043733D01*
X0566871Y0042734D02*
X0565679Y0042734D01*
X0565873Y0041736D02*
X0564681Y0041736D01*
X0564874Y0040737D02*
X0563682Y0040737D01*
X0563876Y0039739D02*
X0562684Y0039739D01*
X0562877Y0038740D02*
X0561685Y0038740D01*
X0561879Y0037742D02*
X0560687Y0037742D01*
X0561633Y0036743D02*
X0559688Y0036743D01*
X0558690Y0035745D02*
X0561633Y0035745D01*
X0561633Y0034746D02*
X0557691Y0034746D01*
X0556693Y0033748D02*
X0561633Y0033748D01*
X0561633Y0032749D02*
X0561306Y0032749D01*
X0572333Y0031793D02*
X0573333Y0030793D01*
X0573333Y0010043D01*
X0581247Y0014776D02*
X0585420Y0014776D01*
X0584422Y0015775D02*
X0582245Y0015775D01*
X0583233Y0016773D02*
X0583433Y0016773D01*
X0583433Y0017772D02*
X0583233Y0017772D01*
X0583233Y0018770D02*
X0583433Y0018770D01*
X0583433Y0019769D02*
X0583233Y0019769D01*
X0583233Y0020767D02*
X0583433Y0020767D01*
X0584377Y0021766D02*
X0582290Y0021766D01*
X0581291Y0022764D02*
X0585375Y0022764D01*
X0585435Y0024761D02*
X0581232Y0024761D01*
X0582230Y0025760D02*
X0584436Y0025760D01*
X0583438Y0026758D02*
X0583229Y0026758D01*
X0583233Y0027757D02*
X0583433Y0027757D01*
X0583433Y0028755D02*
X0583233Y0028755D01*
X0583233Y0029754D02*
X0583433Y0029754D01*
X0583433Y0030752D02*
X0583233Y0030752D01*
X0583033Y0031751D02*
X0584362Y0031751D01*
X0585361Y0032749D02*
X0583033Y0032749D01*
X0586248Y0033748D02*
X0591885Y0033748D01*
X0591633Y0032749D02*
X0591306Y0032749D01*
X0593333Y0032793D02*
X0593333Y0013793D01*
X0601247Y0014776D02*
X0605420Y0014776D01*
X0604422Y0015775D02*
X0602245Y0015775D01*
X0603233Y0016773D02*
X0603433Y0016773D01*
X0603433Y0017772D02*
X0603233Y0017772D01*
X0603233Y0018770D02*
X0603433Y0018770D01*
X0603433Y0019769D02*
X0603233Y0019769D01*
X0603233Y0020767D02*
X0603433Y0020767D01*
X0604377Y0021766D02*
X0602290Y0021766D01*
X0601291Y0022764D02*
X0605375Y0022764D01*
X0603888Y0023763D02*
X0595033Y0023763D01*
X0595033Y0024761D02*
X0595435Y0024761D01*
X0595375Y0022764D02*
X0595033Y0022764D01*
X0591633Y0022764D02*
X0591291Y0022764D01*
X0591633Y0023763D02*
X0575033Y0023763D01*
X0575033Y0024761D02*
X0575435Y0024761D01*
X0575375Y0022764D02*
X0575033Y0022764D01*
X0591232Y0024761D02*
X0591633Y0024761D01*
X0601232Y0024761D02*
X0602889Y0024761D01*
X0602338Y0025760D02*
X0602230Y0025760D01*
X0612779Y0023763D02*
X0628489Y0023763D01*
X0628490Y0024761D02*
X0613777Y0024761D01*
X0614776Y0025760D02*
X0628492Y0025760D01*
X0628493Y0026758D02*
X0615774Y0026758D01*
X0616773Y0027757D02*
X0628495Y0027757D01*
X0628496Y0028755D02*
X0617771Y0028755D01*
X0618770Y0029754D02*
X0628498Y0029754D01*
X0628499Y0030752D02*
X0619768Y0030752D01*
X0620767Y0031751D02*
X0628501Y0031751D01*
X0628502Y0032749D02*
X0621765Y0032749D01*
X0622764Y0033748D02*
X0628504Y0033748D01*
X0628505Y0034746D02*
X0623762Y0034746D01*
X0624761Y0035745D02*
X0628507Y0035745D01*
X0628508Y0036743D02*
X0625759Y0036743D01*
X0626758Y0037742D02*
X0628510Y0037742D01*
X0628511Y0038740D02*
X0627756Y0038740D01*
X0628320Y0039739D02*
X0628513Y0039739D01*
X0615633Y0045730D02*
X0597731Y0045730D01*
X0598033Y0046729D02*
X0615633Y0046729D01*
X0615633Y0047727D02*
X0598033Y0047727D01*
X0598033Y0048726D02*
X0615633Y0048726D01*
X0615633Y0049724D02*
X0598033Y0049724D01*
X0598033Y0050723D02*
X0615633Y0050723D01*
X0615633Y0051721D02*
X0598033Y0051721D01*
X0598033Y0052720D02*
X0615633Y0052720D01*
X0615633Y0053718D02*
X0598033Y0053718D01*
X0598033Y0054717D02*
X0615633Y0054717D01*
X0615633Y0055715D02*
X0598731Y0055715D01*
X0599730Y0056714D02*
X0615633Y0056714D01*
X0615633Y0057712D02*
X0600728Y0057712D01*
X0601727Y0058711D02*
X0615633Y0058711D01*
X0615633Y0059709D02*
X0602725Y0059709D01*
X0603724Y0060708D02*
X0615633Y0060708D01*
X0615633Y0061706D02*
X0604722Y0061706D01*
X0605721Y0062705D02*
X0615633Y0062705D01*
X0615633Y0063703D02*
X0606719Y0063703D01*
X0607718Y0064702D02*
X0615633Y0064702D01*
X0615633Y0065700D02*
X0608716Y0065700D01*
X0609715Y0066699D02*
X0615633Y0066699D01*
X0615633Y0067697D02*
X0610713Y0067697D01*
X0611303Y0068696D02*
X0615633Y0068696D01*
X0615633Y0069694D02*
X0611716Y0069694D01*
X0612033Y0070693D02*
X0615633Y0070693D01*
X0615633Y0071691D02*
X0612033Y0071691D01*
X0612033Y0072690D02*
X0615633Y0072690D01*
X0615633Y0073688D02*
X0612033Y0073688D01*
X0612033Y0074687D02*
X0615633Y0074687D01*
X0615633Y0075685D02*
X0612033Y0075685D01*
X0612033Y0076684D02*
X0615633Y0076684D01*
X0615633Y0077682D02*
X0612033Y0077682D01*
X0612033Y0078681D02*
X0615633Y0078681D01*
X0615633Y0079679D02*
X0612033Y0079679D01*
X0612033Y0080678D02*
X0615633Y0080678D01*
X0615633Y0081676D02*
X0612033Y0081676D01*
X0612033Y0082675D02*
X0615633Y0082675D01*
X0615633Y0083673D02*
X0612033Y0083673D01*
X0612033Y0084672D02*
X0615633Y0084672D01*
X0615633Y0085670D02*
X0612033Y0085670D01*
X0612033Y0086669D02*
X0615633Y0086669D01*
X0615633Y0087667D02*
X0612033Y0087667D01*
X0612033Y0088666D02*
X0615633Y0088666D01*
X0615633Y0089664D02*
X0612033Y0089664D01*
X0612033Y0090663D02*
X0615633Y0090663D01*
X0615633Y0091662D02*
X0612033Y0091662D01*
X0612033Y0092660D02*
X0615633Y0092660D01*
X0615633Y0093659D02*
X0612033Y0093659D01*
X0612033Y0094657D02*
X0615633Y0094657D01*
X0615633Y0095656D02*
X0612033Y0095656D01*
X0612033Y0096654D02*
X0615633Y0096654D01*
X0615633Y0097653D02*
X0612033Y0097653D01*
X0612033Y0098651D02*
X0615633Y0098651D01*
X0615633Y0099650D02*
X0612033Y0099650D01*
X0612033Y0100648D02*
X0615633Y0100648D01*
X0615633Y0101647D02*
X0612033Y0101647D01*
X0612033Y0102645D02*
X0615633Y0102645D01*
X0615633Y0103644D02*
X0612033Y0103644D01*
X0612033Y0104642D02*
X0615633Y0104642D01*
X0615633Y0105641D02*
X0612033Y0105641D01*
X0612033Y0106639D02*
X0615633Y0106639D01*
X0615633Y0107638D02*
X0612033Y0107638D01*
X0612033Y0108636D02*
X0615633Y0108636D01*
X0615633Y0109635D02*
X0612033Y0109635D01*
X0612033Y0110633D02*
X0615633Y0110633D01*
X0615633Y0111632D02*
X0612033Y0111632D01*
X0612033Y0112630D02*
X0615633Y0112630D01*
X0615633Y0113629D02*
X0612033Y0113629D01*
X0612033Y0114627D02*
X0615633Y0114627D01*
X0615633Y0115626D02*
X0612033Y0115626D01*
X0612033Y0116624D02*
X0615633Y0116624D01*
X0615633Y0117623D02*
X0612033Y0117623D01*
X0612033Y0118621D02*
X0615633Y0118621D01*
X0615633Y0119620D02*
X0612033Y0119620D01*
X0612033Y0120618D02*
X0615633Y0120618D01*
X0615633Y0121617D02*
X0612033Y0121617D01*
X0612033Y0122615D02*
X0615633Y0122615D01*
X0615633Y0123614D02*
X0612033Y0123614D01*
X0612033Y0124612D02*
X0615633Y0124612D01*
X0615633Y0125611D02*
X0612033Y0125611D01*
X0612033Y0126609D02*
X0615633Y0126609D01*
X0615633Y0127608D02*
X0612033Y0127608D01*
X0612033Y0128606D02*
X0615633Y0128606D01*
X0615633Y0129605D02*
X0612033Y0129605D01*
X0612033Y0130603D02*
X0615633Y0130603D01*
X0615633Y0131602D02*
X0612033Y0131602D01*
X0612033Y0132600D02*
X0615633Y0132600D01*
X0615633Y0133599D02*
X0612033Y0133599D01*
X0612033Y0134598D02*
X0615633Y0134598D01*
X0615633Y0135596D02*
X0612033Y0135596D01*
X0612033Y0136595D02*
X0615633Y0136595D01*
X0615633Y0137593D02*
X0612033Y0137593D01*
X0612033Y0138592D02*
X0615633Y0138592D01*
X0615633Y0139590D02*
X0611841Y0139590D01*
X0611427Y0140589D02*
X0615062Y0140589D01*
X0614064Y0141587D02*
X0611014Y0141587D01*
X0610015Y0142586D02*
X0613065Y0142586D01*
X0612067Y0143584D02*
X0609017Y0143584D01*
X0608018Y0144583D02*
X0611068Y0144583D01*
X0610069Y0145581D02*
X0607020Y0145581D01*
X0606021Y0146580D02*
X0609071Y0146580D01*
X0608072Y0147578D02*
X0605023Y0147578D01*
X0604024Y0148577D02*
X0607074Y0148577D01*
X0606075Y0149575D02*
X0603026Y0149575D01*
X0602027Y0150574D02*
X0605077Y0150574D01*
X0604078Y0151572D02*
X0601029Y0151572D01*
X0600030Y0152571D02*
X0603080Y0152571D01*
X0602081Y0153569D02*
X0599032Y0153569D01*
X0598033Y0154568D02*
X0601083Y0154568D01*
X0600084Y0155566D02*
X0597035Y0155566D01*
X0596036Y0156565D02*
X0599086Y0156565D01*
X0598087Y0157563D02*
X0595038Y0157563D01*
X0594039Y0158562D02*
X0597089Y0158562D01*
X0596090Y0159560D02*
X0593041Y0159560D01*
X0592042Y0160559D02*
X0595092Y0160559D01*
X0594093Y0161557D02*
X0591044Y0161557D01*
X0590045Y0162556D02*
X0593095Y0162556D01*
X0592096Y0163554D02*
X0589047Y0163554D01*
X0588048Y0164553D02*
X0591098Y0164553D01*
X0590099Y0165551D02*
X0587050Y0165551D01*
X0586051Y0166550D02*
X0589101Y0166550D01*
X0588102Y0167548D02*
X0585053Y0167548D01*
X0584054Y0168547D02*
X0587104Y0168547D01*
X0586105Y0169545D02*
X0583056Y0169545D01*
X0582057Y0170544D02*
X0585107Y0170544D01*
X0584108Y0171542D02*
X0581059Y0171542D01*
X0580060Y0172541D02*
X0583110Y0172541D01*
X0582111Y0173539D02*
X0579062Y0173539D01*
X0578063Y0174538D02*
X0581113Y0174538D01*
X0580114Y0175536D02*
X0577065Y0175536D01*
X0576066Y0176535D02*
X0579116Y0176535D01*
X0578117Y0177533D02*
X0575068Y0177533D01*
X0573985Y0178532D02*
X0577119Y0178532D01*
X0576120Y0179531D02*
X0517916Y0179531D01*
X0516421Y0180529D02*
X0575122Y0180529D01*
X0574123Y0181528D02*
X0507544Y0181528D01*
X0508246Y0180529D02*
X0506545Y0180529D01*
X0506751Y0179531D02*
X0505547Y0179531D01*
X0505752Y0178532D02*
X0504548Y0178532D01*
X0504868Y0177533D02*
X0503550Y0177533D01*
X0504454Y0176535D02*
X0502551Y0176535D01*
X0501552Y0175536D02*
X0504040Y0175536D01*
X0503627Y0174538D02*
X0500554Y0174538D01*
X0499555Y0173539D02*
X0503622Y0173539D01*
X0503622Y0172541D02*
X0498557Y0172541D01*
X0497558Y0171542D02*
X0503622Y0171542D01*
X0503835Y0170544D02*
X0496560Y0170544D01*
X0495561Y0169545D02*
X0504249Y0169545D01*
X0504662Y0168547D02*
X0494563Y0168547D01*
X0492767Y0167548D02*
X0505257Y0167548D01*
X0506256Y0166550D02*
X0465411Y0166550D01*
X0464413Y0165551D02*
X0507254Y0165551D01*
X0509461Y0164553D02*
X0463414Y0164553D01*
X0461210Y0163554D02*
X0539775Y0163554D01*
X0538877Y0162556D02*
X0397777Y0162556D01*
X0397779Y0163554D02*
X0455457Y0163554D01*
X0453253Y0164553D02*
X0397780Y0164553D01*
X0397782Y0165551D02*
X0452254Y0165551D01*
X0451256Y0166550D02*
X0397783Y0166550D01*
X0397785Y0167548D02*
X0450662Y0167548D01*
X0450248Y0168547D02*
X0397787Y0168547D01*
X0397788Y0169545D02*
X0449835Y0169545D01*
X0449622Y0170544D02*
X0397790Y0170544D01*
X0397791Y0171542D02*
X0449622Y0171542D01*
X0449622Y0172541D02*
X0397793Y0172541D01*
X0397794Y0173539D02*
X0449627Y0173539D01*
X0450041Y0174538D02*
X0397796Y0174538D01*
X0397797Y0175536D02*
X0450455Y0175536D01*
X0450868Y0176535D02*
X0397799Y0176535D01*
X0397800Y0177533D02*
X0451754Y0177533D01*
X0452752Y0178532D02*
X0397802Y0178532D01*
X0397803Y0179531D02*
X0454249Y0179531D01*
X0487595Y0180529D02*
X0397805Y0180529D01*
X0397806Y0181528D02*
X0488593Y0181528D01*
X0489592Y0182526D02*
X0397808Y0182526D01*
X0397809Y0183525D02*
X0490590Y0183525D01*
X0491589Y0184523D02*
X0397811Y0184523D01*
X0397812Y0185522D02*
X0492587Y0185522D01*
X0493586Y0186520D02*
X0397814Y0186520D01*
X0397815Y0187519D02*
X0494584Y0187519D01*
X0495583Y0188517D02*
X0397817Y0188517D01*
X0397818Y0189516D02*
X0496581Y0189516D01*
X0497580Y0190514D02*
X0397820Y0190514D01*
X0397821Y0191513D02*
X0498578Y0191513D01*
X0499577Y0192511D02*
X0397823Y0192511D01*
X0397824Y0193510D02*
X0500575Y0193510D01*
X0501624Y0194508D02*
X0397826Y0194508D01*
X0397776Y0161557D02*
X0538463Y0161557D01*
X0538050Y0160559D02*
X0397774Y0160559D01*
X0397773Y0159560D02*
X0537636Y0159560D01*
X0537622Y0158562D02*
X0397771Y0158562D01*
X0397770Y0157563D02*
X0537622Y0157563D01*
X0537622Y0156565D02*
X0531953Y0156565D01*
X0532135Y0156489D02*
X0530966Y0156974D01*
X0529701Y0156974D01*
X0528531Y0156489D01*
X0527637Y0155594D01*
X0527152Y0154425D01*
X0527152Y0153160D01*
X0527487Y0152351D01*
X0507629Y0132493D01*
X0504437Y0132493D01*
X0504533Y0132588D01*
X0514037Y0142093D01*
X0515037Y0142093D01*
X0522599Y0149654D01*
X0522701Y0149611D01*
X0523966Y0149611D01*
X0525135Y0150096D01*
X0526030Y0150991D01*
X0526514Y0152160D01*
X0526514Y0153425D01*
X0526030Y0154594D01*
X0525135Y0155489D01*
X0523966Y0155974D01*
X0522701Y0155974D01*
X0521531Y0155489D01*
X0520637Y0154594D01*
X0520152Y0153425D01*
X0520152Y0152160D01*
X0520194Y0152058D01*
X0519514Y0151378D01*
X0519514Y0152425D01*
X0519030Y0153594D01*
X0518135Y0154489D01*
X0516966Y0154974D01*
X0515701Y0154974D01*
X0514531Y0154489D01*
X0513637Y0153594D01*
X0513333Y0152862D01*
X0513030Y0153594D01*
X0512135Y0154489D01*
X0510966Y0154974D01*
X0509701Y0154974D01*
X0508531Y0154489D01*
X0507637Y0153594D01*
X0507594Y0153493D01*
X0435629Y0153493D01*
X0435068Y0152931D01*
X0434966Y0152974D01*
X0433701Y0152974D01*
X0432531Y0152489D01*
X0431637Y0151594D01*
X0431152Y0150425D01*
X0431152Y0149160D01*
X0431637Y0147991D01*
X0432531Y0147096D01*
X0433701Y0146611D01*
X0434966Y0146611D01*
X0436135Y0147096D01*
X0437030Y0147991D01*
X0437514Y0149160D01*
X0437514Y0150093D01*
X0507594Y0150093D01*
X0507637Y0149991D01*
X0508531Y0149096D01*
X0509701Y0148611D01*
X0510748Y0148611D01*
X0499129Y0136993D01*
X0431129Y0136993D01*
X0430133Y0135997D01*
X0403629Y0109493D01*
X0402633Y0108497D01*
X0402633Y0096088D01*
X0405177Y0093545D01*
X0405771Y0092951D01*
X0405771Y0092177D01*
X0406474Y0091474D01*
X0412193Y0091474D01*
X0412896Y0092177D01*
X0412896Y0096321D01*
X0412193Y0097024D01*
X0406506Y0097024D01*
X0406033Y0097497D01*
X0406033Y0099002D01*
X0406474Y0098561D01*
X0412193Y0098561D01*
X0412896Y0099264D01*
X0412896Y0099636D01*
X0418086Y0099636D01*
X0419194Y0098527D01*
X0419152Y0098425D01*
X0419152Y0097160D01*
X0419637Y0095991D01*
X0420531Y0095096D01*
X0421701Y0094611D01*
X0422966Y0094611D01*
X0424135Y0095096D01*
X0425030Y0095991D01*
X0425514Y0097160D01*
X0425514Y0098425D01*
X0425030Y0099594D01*
X0424135Y0100489D01*
X0422966Y0100974D01*
X0421701Y0100974D01*
X0421599Y0100931D01*
X0419494Y0103036D01*
X0412896Y0103036D01*
X0412896Y0103408D01*
X0412193Y0104111D01*
X0406474Y0104111D01*
X0406033Y0103670D01*
X0406033Y0107088D01*
X0432537Y0133593D01*
X0439729Y0133593D01*
X0427633Y0121497D01*
X0427633Y0121282D01*
X0427531Y0121239D01*
X0426637Y0120344D01*
X0426152Y0119175D01*
X0426152Y0117910D01*
X0426637Y0116741D01*
X0427531Y0115846D01*
X0428701Y0115361D01*
X0429966Y0115361D01*
X0431135Y0115846D01*
X0432030Y0116741D01*
X0432514Y0117910D01*
X0432514Y0119175D01*
X0432030Y0120344D01*
X0431660Y0120715D01*
X0433152Y0122207D01*
X0433152Y0121160D01*
X0433637Y0119991D01*
X0434531Y0119096D01*
X0435701Y0118611D01*
X0436966Y0118611D01*
X0438135Y0119096D01*
X0439030Y0119991D01*
X0439514Y0121160D01*
X0439514Y0122425D01*
X0439472Y0122527D01*
X0446037Y0129093D01*
X0509037Y0129093D01*
X0530556Y0150611D01*
X0530966Y0150611D01*
X0532135Y0151096D01*
X0533030Y0151991D01*
X0533514Y0153160D01*
X0533514Y0154425D01*
X0533030Y0155594D01*
X0532135Y0156489D01*
X0533042Y0155566D02*
X0537826Y0155566D01*
X0538239Y0154568D02*
X0533455Y0154568D01*
X0533514Y0153569D02*
X0538653Y0153569D01*
X0539235Y0152571D02*
X0533270Y0152571D01*
X0532612Y0151572D02*
X0539633Y0151572D01*
X0539633Y0150574D02*
X0530519Y0150574D01*
X0529520Y0149575D02*
X0538641Y0149575D01*
X0537642Y0148577D02*
X0528522Y0148577D01*
X0527523Y0147578D02*
X0536644Y0147578D01*
X0535645Y0146580D02*
X0526525Y0146580D01*
X0525526Y0145581D02*
X0534647Y0145581D01*
X0533648Y0144583D02*
X0524528Y0144583D01*
X0523529Y0143584D02*
X0532650Y0143584D01*
X0531651Y0142586D02*
X0522531Y0142586D01*
X0521532Y0141587D02*
X0530653Y0141587D01*
X0529654Y0140589D02*
X0520534Y0140589D01*
X0519535Y0139590D02*
X0528656Y0139590D01*
X0527657Y0138592D02*
X0518537Y0138592D01*
X0517538Y0137593D02*
X0526659Y0137593D01*
X0525660Y0136595D02*
X0516539Y0136595D01*
X0515541Y0135596D02*
X0524662Y0135596D01*
X0523663Y0134598D02*
X0514542Y0134598D01*
X0513544Y0133599D02*
X0522665Y0133599D01*
X0521666Y0132600D02*
X0512545Y0132600D01*
X0511547Y0131602D02*
X0520668Y0131602D01*
X0519669Y0130603D02*
X0510548Y0130603D01*
X0509550Y0129605D02*
X0518671Y0129605D01*
X0518247Y0128606D02*
X0445551Y0128606D01*
X0444553Y0127608D02*
X0517833Y0127608D01*
X0517633Y0126609D02*
X0443554Y0126609D01*
X0442556Y0125611D02*
X0517633Y0125611D01*
X0517633Y0124612D02*
X0514791Y0124612D01*
X0515987Y0123614D02*
X0517633Y0123614D01*
X0517633Y0122615D02*
X0516986Y0122615D01*
X0517415Y0121617D02*
X0517633Y0121617D01*
X0507876Y0124612D02*
X0441557Y0124612D01*
X0440559Y0123614D02*
X0506679Y0123614D01*
X0505681Y0122615D02*
X0439560Y0122615D01*
X0439514Y0121617D02*
X0505251Y0121617D01*
X0504838Y0120618D02*
X0439290Y0120618D01*
X0438659Y0119620D02*
X0504633Y0119620D01*
X0504633Y0118621D02*
X0436990Y0118621D01*
X0435677Y0118621D02*
X0432514Y0118621D01*
X0432396Y0117623D02*
X0504633Y0117623D01*
X0504633Y0116624D02*
X0431914Y0116624D01*
X0430604Y0115626D02*
X0504633Y0115626D01*
X0504633Y0114627D02*
X0413572Y0114627D01*
X0412574Y0113629D02*
X0504633Y0113629D01*
X0504633Y0112630D02*
X0411575Y0112630D01*
X0410577Y0111632D02*
X0504633Y0111632D01*
X0504633Y0110633D02*
X0409578Y0110633D01*
X0408580Y0109635D02*
X0504633Y0109635D01*
X0504633Y0108636D02*
X0407581Y0108636D01*
X0406583Y0107638D02*
X0504633Y0107638D01*
X0504633Y0106639D02*
X0406033Y0106639D01*
X0406033Y0105641D02*
X0504633Y0105641D01*
X0504633Y0104642D02*
X0406033Y0104642D01*
X0402633Y0104642D02*
X0397690Y0104642D01*
X0397688Y0103644D02*
X0402633Y0103644D01*
X0402633Y0102645D02*
X0397687Y0102645D01*
X0397685Y0101647D02*
X0402633Y0101647D01*
X0402633Y0100648D02*
X0397684Y0100648D01*
X0397682Y0099650D02*
X0402633Y0099650D01*
X0402633Y0098651D02*
X0397681Y0098651D01*
X0397679Y0097653D02*
X0402633Y0097653D01*
X0402633Y0096654D02*
X0397678Y0096654D01*
X0397676Y0095656D02*
X0403066Y0095656D01*
X0404065Y0094657D02*
X0397675Y0094657D01*
X0397673Y0093659D02*
X0405063Y0093659D01*
X0405771Y0092660D02*
X0397672Y0092660D01*
X0397670Y0091662D02*
X0406287Y0091662D01*
X0406877Y0094249D02*
X0409333Y0094249D01*
X0406877Y0094249D02*
X0404333Y0096793D01*
X0404333Y0107793D01*
X0431833Y0135293D01*
X0499833Y0135293D01*
X0516333Y0151793D01*
X0519514Y0151572D02*
X0519709Y0151572D01*
X0519454Y0152571D02*
X0520152Y0152571D01*
X0520212Y0153569D02*
X0519041Y0153569D01*
X0517946Y0154568D02*
X0520625Y0154568D01*
X0521717Y0155566D02*
X0397767Y0155566D01*
X0397765Y0154568D02*
X0508721Y0154568D01*
X0507626Y0153569D02*
X0397764Y0153569D01*
X0397762Y0152571D02*
X0432728Y0152571D01*
X0431627Y0151572D02*
X0397761Y0151572D01*
X0397759Y0150574D02*
X0431214Y0150574D01*
X0431152Y0149575D02*
X0397758Y0149575D01*
X0397756Y0148577D02*
X0431394Y0148577D01*
X0432049Y0147578D02*
X0397755Y0147578D01*
X0397753Y0146580D02*
X0508716Y0146580D01*
X0509715Y0147578D02*
X0436618Y0147578D01*
X0437273Y0148577D02*
X0510713Y0148577D01*
X0508052Y0149575D02*
X0437514Y0149575D01*
X0436333Y0151793D02*
X0434333Y0149793D01*
X0436333Y0151793D02*
X0510333Y0151793D01*
X0511946Y0154568D02*
X0514721Y0154568D01*
X0513626Y0153569D02*
X0513041Y0153569D01*
X0514333Y0143793D02*
X0523333Y0152793D01*
X0526271Y0151572D02*
X0526709Y0151572D01*
X0526514Y0152571D02*
X0527396Y0152571D01*
X0527152Y0153569D02*
X0526455Y0153569D01*
X0526041Y0154568D02*
X0527211Y0154568D01*
X0527625Y0155566D02*
X0524950Y0155566D01*
X0528713Y0156565D02*
X0397768Y0156565D01*
X0397752Y0145581D02*
X0507718Y0145581D01*
X0506719Y0144583D02*
X0397750Y0144583D01*
X0397749Y0143584D02*
X0505721Y0143584D01*
X0504722Y0142586D02*
X0397747Y0142586D01*
X0397746Y0141587D02*
X0503724Y0141587D01*
X0502725Y0140589D02*
X0397744Y0140589D01*
X0397743Y0139590D02*
X0501727Y0139590D01*
X0500728Y0138592D02*
X0397741Y0138592D01*
X0397740Y0137593D02*
X0499730Y0137593D01*
X0502833Y0133293D02*
X0513333Y0143793D01*
X0514333Y0143793D01*
X0515531Y0142586D02*
X0517722Y0142586D01*
X0518721Y0143584D02*
X0516529Y0143584D01*
X0517528Y0144583D02*
X0519719Y0144583D01*
X0520718Y0145581D02*
X0518526Y0145581D01*
X0519525Y0146580D02*
X0521716Y0146580D01*
X0522715Y0147578D02*
X0520523Y0147578D01*
X0521522Y0148577D02*
X0523713Y0148577D01*
X0524712Y0149575D02*
X0522520Y0149575D01*
X0525613Y0150574D02*
X0525710Y0150574D01*
X0530333Y0152793D02*
X0530333Y0153793D01*
X0530333Y0152793D02*
X0508333Y0130793D01*
X0445333Y0130793D01*
X0436333Y0121793D01*
X0433376Y0120618D02*
X0431756Y0120618D01*
X0432330Y0119620D02*
X0434007Y0119620D01*
X0433152Y0121617D02*
X0432562Y0121617D01*
X0429333Y0120793D02*
X0441833Y0133293D01*
X0502833Y0133293D01*
X0504533Y0132588D02*
X0504533Y0132588D01*
X0504545Y0132600D02*
X0507737Y0132600D01*
X0508736Y0133599D02*
X0505544Y0133599D01*
X0506542Y0134598D02*
X0509734Y0134598D01*
X0510733Y0135596D02*
X0507541Y0135596D01*
X0508539Y0136595D02*
X0511731Y0136595D01*
X0512730Y0137593D02*
X0509538Y0137593D01*
X0510537Y0138592D02*
X0513728Y0138592D01*
X0514727Y0139590D02*
X0511535Y0139590D01*
X0512534Y0140589D02*
X0515725Y0140589D01*
X0516724Y0141587D02*
X0513532Y0141587D01*
X0559333Y0123793D02*
X0559333Y0094793D01*
X0559965Y0092660D02*
X0561633Y0092660D01*
X0561633Y0091662D02*
X0560417Y0091662D01*
X0560514Y0090663D02*
X0561633Y0090663D01*
X0561633Y0089664D02*
X0560309Y0089664D01*
X0559706Y0088666D02*
X0561633Y0088666D01*
X0561633Y0087667D02*
X0558101Y0087667D01*
X0558033Y0086669D02*
X0561633Y0086669D01*
X0561633Y0085670D02*
X0558033Y0085670D01*
X0558033Y0084672D02*
X0561633Y0084672D01*
X0561633Y0083673D02*
X0558033Y0083673D01*
X0558033Y0082675D02*
X0561633Y0082675D01*
X0561633Y0081676D02*
X0558033Y0081676D01*
X0558033Y0080678D02*
X0561633Y0080678D01*
X0561633Y0079679D02*
X0558033Y0079679D01*
X0558033Y0078681D02*
X0561633Y0078681D01*
X0561633Y0077682D02*
X0558033Y0077682D01*
X0558033Y0076684D02*
X0561633Y0076684D01*
X0561633Y0075685D02*
X0558033Y0075685D01*
X0558033Y0074687D02*
X0561633Y0074687D01*
X0561633Y0073688D02*
X0558033Y0073688D01*
X0558033Y0072690D02*
X0561633Y0072690D01*
X0561633Y0071691D02*
X0558033Y0071691D01*
X0558033Y0070693D02*
X0561633Y0070693D01*
X0561633Y0069694D02*
X0557639Y0069694D01*
X0556641Y0068696D02*
X0561633Y0068696D01*
X0561633Y0067697D02*
X0555642Y0067697D01*
X0554644Y0066699D02*
X0561633Y0066699D01*
X0561633Y0065700D02*
X0554033Y0065700D01*
X0554033Y0064702D02*
X0561633Y0064702D01*
X0563333Y0061793D02*
X0543333Y0040793D01*
X0543333Y0015793D01*
X0540333Y0012793D01*
X0550729Y0009784D02*
X0560152Y0009784D01*
X0560196Y0010782D02*
X0551727Y0010782D01*
X0552726Y0011781D02*
X0560610Y0011781D01*
X0561627Y0012779D02*
X0553724Y0012779D01*
X0554723Y0013778D02*
X0561633Y0013778D01*
X0561633Y0014776D02*
X0561247Y0014776D01*
X0555420Y0014776D02*
X0555033Y0014776D01*
X0560411Y0008785D02*
X0397545Y0008785D01*
X0397543Y0007787D02*
X0561091Y0007787D01*
X0611247Y0014776D02*
X0628475Y0014776D01*
X0628477Y0015775D02*
X0612245Y0015775D01*
X0613233Y0016773D02*
X0628478Y0016773D01*
X0628480Y0017772D02*
X0613233Y0017772D01*
X0613233Y0018770D02*
X0628481Y0018770D01*
X0628483Y0019769D02*
X0613233Y0019769D01*
X0613233Y0020767D02*
X0628484Y0020767D01*
X0628486Y0021766D02*
X0612290Y0021766D01*
X0611291Y0022764D02*
X0628487Y0022764D01*
X0602307Y0031751D02*
X0602305Y0031751D01*
X0602815Y0032749D02*
X0601306Y0032749D01*
X0603813Y0033748D02*
X0596693Y0033748D01*
X0597691Y0034746D02*
X0604812Y0034746D01*
X0605810Y0035745D02*
X0598690Y0035745D01*
X0601285Y0036743D02*
X0606809Y0036743D01*
X0607807Y0037742D02*
X0602781Y0037742D01*
X0603341Y0038740D02*
X0608806Y0038740D01*
X0609805Y0039739D02*
X0603514Y0039739D01*
X0603385Y0040737D02*
X0610803Y0040737D01*
X0611802Y0041736D02*
X0602889Y0041736D01*
X0601543Y0042734D02*
X0612800Y0042734D01*
X0613799Y0043733D02*
X0596749Y0043733D01*
X0597317Y0044731D02*
X0614797Y0044731D01*
X0600333Y0039793D02*
X0593333Y0032793D01*
X0592883Y0034746D02*
X0587762Y0034746D01*
X0588761Y0035745D02*
X0593882Y0035745D01*
X0594880Y0036743D02*
X0589759Y0036743D01*
X0590758Y0037742D02*
X0595879Y0037742D01*
X0596877Y0038740D02*
X0591756Y0038740D01*
X0592755Y0039739D02*
X0597152Y0039739D01*
X0597282Y0040737D02*
X0593753Y0040737D01*
X0594752Y0041736D02*
X0597778Y0041736D01*
X0599123Y0042734D02*
X0595750Y0042734D01*
X0581793Y0047727D02*
X0577033Y0047727D01*
X0577033Y0046729D02*
X0580794Y0046729D01*
X0579796Y0045730D02*
X0577033Y0045730D01*
X0577033Y0044731D02*
X0578797Y0044731D01*
X0577799Y0043733D02*
X0577033Y0043733D01*
X0577033Y0042734D02*
X0577300Y0042734D01*
X0575333Y0041793D02*
X0572333Y0038793D01*
X0572333Y0031793D01*
X0575333Y0041793D02*
X0575333Y0107793D01*
X0586333Y0118793D01*
X0589292Y0117623D02*
X0598633Y0117623D01*
X0598633Y0118621D02*
X0589514Y0118621D01*
X0589434Y0119620D02*
X0598633Y0119620D01*
X0598633Y0120618D02*
X0589006Y0120618D01*
X0587827Y0121617D02*
X0598633Y0121617D01*
X0598633Y0122615D02*
X0586560Y0122615D01*
X0587559Y0123614D02*
X0598633Y0123614D01*
X0598633Y0124612D02*
X0588557Y0124612D01*
X0589556Y0125611D02*
X0598633Y0125611D01*
X0598633Y0126609D02*
X0590554Y0126609D01*
X0591553Y0127608D02*
X0598633Y0127608D01*
X0598633Y0128606D02*
X0592551Y0128606D01*
X0593550Y0129605D02*
X0598633Y0129605D01*
X0598633Y0130603D02*
X0594548Y0130603D01*
X0597642Y0131602D02*
X0598633Y0131602D01*
X0590739Y0131602D02*
X0590642Y0131602D01*
X0589740Y0130603D02*
X0587548Y0130603D01*
X0586550Y0129605D02*
X0588742Y0129605D01*
X0587743Y0128606D02*
X0585551Y0128606D01*
X0584553Y0127608D02*
X0586745Y0127608D01*
X0585746Y0126609D02*
X0583554Y0126609D01*
X0582556Y0125611D02*
X0584748Y0125611D01*
X0583749Y0124612D02*
X0581557Y0124612D01*
X0580559Y0123614D02*
X0582751Y0123614D01*
X0581752Y0122615D02*
X0579560Y0122615D01*
X0578562Y0121617D02*
X0580754Y0121617D01*
X0579755Y0120618D02*
X0577563Y0120618D01*
X0576565Y0119620D02*
X0578756Y0119620D01*
X0577758Y0118621D02*
X0575566Y0118621D01*
X0574568Y0117623D02*
X0576759Y0117623D01*
X0575761Y0116624D02*
X0573569Y0116624D01*
X0572571Y0115626D02*
X0574762Y0115626D01*
X0573764Y0114627D02*
X0571572Y0114627D01*
X0570574Y0113629D02*
X0572765Y0113629D01*
X0571767Y0112630D02*
X0569575Y0112630D01*
X0563333Y0117793D02*
X0563333Y0061793D01*
X0577033Y0061706D02*
X0577633Y0061706D01*
X0577633Y0060708D02*
X0577033Y0060708D01*
X0577033Y0059709D02*
X0577633Y0059709D01*
X0577633Y0058711D02*
X0577033Y0058711D01*
X0577033Y0057712D02*
X0577633Y0057712D01*
X0577633Y0056714D02*
X0577033Y0056714D01*
X0577033Y0055715D02*
X0577633Y0055715D01*
X0577633Y0054717D02*
X0577033Y0054717D01*
X0579333Y0051793D02*
X0579333Y0098793D01*
X0589333Y0108793D01*
X0592298Y0107638D02*
X0598633Y0107638D01*
X0598633Y0108636D02*
X0592514Y0108636D01*
X0592428Y0109635D02*
X0598633Y0109635D01*
X0598633Y0110633D02*
X0591991Y0110633D01*
X0590791Y0111632D02*
X0598633Y0111632D01*
X0598633Y0112630D02*
X0582575Y0112630D01*
X0581577Y0111632D02*
X0587875Y0111632D01*
X0586675Y0110633D02*
X0580578Y0110633D01*
X0579580Y0109635D02*
X0586239Y0109635D01*
X0586152Y0108636D02*
X0578581Y0108636D01*
X0578514Y0107638D02*
X0585774Y0107638D01*
X0584776Y0106639D02*
X0578299Y0106639D01*
X0577680Y0105641D02*
X0583777Y0105641D01*
X0582779Y0104642D02*
X0577033Y0104642D01*
X0577033Y0103644D02*
X0581780Y0103644D01*
X0580782Y0102645D02*
X0577033Y0102645D01*
X0577033Y0101647D02*
X0579783Y0101647D01*
X0578785Y0100648D02*
X0577033Y0100648D01*
X0577033Y0099650D02*
X0577786Y0099650D01*
X0577633Y0098651D02*
X0577033Y0098651D01*
X0577033Y0097653D02*
X0577633Y0097653D01*
X0577633Y0096654D02*
X0577033Y0096654D01*
X0577033Y0095656D02*
X0577633Y0095656D01*
X0577633Y0094657D02*
X0577033Y0094657D01*
X0577033Y0093659D02*
X0577633Y0093659D01*
X0577633Y0092660D02*
X0577033Y0092660D01*
X0577033Y0091662D02*
X0577633Y0091662D01*
X0577633Y0090663D02*
X0577033Y0090663D01*
X0577033Y0089664D02*
X0577633Y0089664D01*
X0577633Y0088666D02*
X0577033Y0088666D01*
X0577033Y0087667D02*
X0577633Y0087667D01*
X0577633Y0086669D02*
X0577033Y0086669D01*
X0577033Y0085670D02*
X0577633Y0085670D01*
X0577633Y0084672D02*
X0577033Y0084672D01*
X0577033Y0083673D02*
X0577633Y0083673D01*
X0577633Y0082675D02*
X0577033Y0082675D01*
X0577033Y0081676D02*
X0577633Y0081676D01*
X0577633Y0080678D02*
X0577033Y0080678D01*
X0577033Y0079679D02*
X0577633Y0079679D01*
X0577633Y0078681D02*
X0577033Y0078681D01*
X0577033Y0077682D02*
X0577633Y0077682D01*
X0577633Y0076684D02*
X0577033Y0076684D01*
X0577033Y0075685D02*
X0577633Y0075685D01*
X0577633Y0074687D02*
X0577033Y0074687D01*
X0577033Y0073688D02*
X0577633Y0073688D01*
X0577633Y0072690D02*
X0577033Y0072690D01*
X0577033Y0071691D02*
X0577633Y0071691D01*
X0577633Y0070693D02*
X0577033Y0070693D01*
X0577033Y0069694D02*
X0577633Y0069694D01*
X0577633Y0068696D02*
X0577033Y0068696D01*
X0577033Y0067697D02*
X0577633Y0067697D01*
X0577633Y0066699D02*
X0577033Y0066699D01*
X0577033Y0065700D02*
X0577633Y0065700D01*
X0577633Y0064702D02*
X0577033Y0064702D01*
X0577033Y0063703D02*
X0577633Y0063703D01*
X0577633Y0062705D02*
X0577033Y0062705D01*
X0581033Y0062705D02*
X0586770Y0062705D01*
X0587769Y0063703D02*
X0581033Y0063703D01*
X0581033Y0064702D02*
X0588767Y0064702D01*
X0589766Y0065700D02*
X0581033Y0065700D01*
X0581033Y0066699D02*
X0590764Y0066699D01*
X0591763Y0067697D02*
X0581033Y0067697D01*
X0581033Y0068696D02*
X0592761Y0068696D01*
X0593760Y0069694D02*
X0581033Y0069694D01*
X0581033Y0070693D02*
X0594758Y0070693D01*
X0595757Y0071691D02*
X0581033Y0071691D01*
X0581033Y0072690D02*
X0596755Y0072690D01*
X0597754Y0073688D02*
X0581033Y0073688D01*
X0581033Y0074687D02*
X0598633Y0074687D01*
X0598633Y0075685D02*
X0581033Y0075685D01*
X0581033Y0076684D02*
X0598633Y0076684D01*
X0598633Y0077682D02*
X0581033Y0077682D01*
X0581033Y0078681D02*
X0598633Y0078681D01*
X0598633Y0079679D02*
X0581033Y0079679D01*
X0581033Y0080678D02*
X0598633Y0080678D01*
X0598633Y0081676D02*
X0581033Y0081676D01*
X0581033Y0082675D02*
X0598633Y0082675D01*
X0598633Y0083673D02*
X0581033Y0083673D01*
X0581033Y0084672D02*
X0598633Y0084672D01*
X0598633Y0085670D02*
X0581033Y0085670D01*
X0581033Y0086669D02*
X0598633Y0086669D01*
X0598633Y0087667D02*
X0581033Y0087667D01*
X0581033Y0088666D02*
X0598633Y0088666D01*
X0598633Y0089664D02*
X0581033Y0089664D01*
X0581033Y0090663D02*
X0598633Y0090663D01*
X0598633Y0091662D02*
X0581033Y0091662D01*
X0581033Y0092660D02*
X0598633Y0092660D01*
X0598633Y0093659D02*
X0581033Y0093659D01*
X0581033Y0094657D02*
X0598633Y0094657D01*
X0598633Y0095656D02*
X0581033Y0095656D01*
X0581033Y0096654D02*
X0598633Y0096654D01*
X0598633Y0097653D02*
X0581033Y0097653D01*
X0581596Y0098651D02*
X0598633Y0098651D01*
X0598633Y0099650D02*
X0582595Y0099650D01*
X0583593Y0100648D02*
X0598633Y0100648D01*
X0598633Y0101647D02*
X0584592Y0101647D01*
X0585590Y0102645D02*
X0598633Y0102645D01*
X0598633Y0103644D02*
X0586589Y0103644D01*
X0587587Y0104642D02*
X0598633Y0104642D01*
X0598633Y0105641D02*
X0590037Y0105641D01*
X0588630Y0105641D02*
X0588586Y0105641D01*
X0591679Y0106639D02*
X0598633Y0106639D01*
X0598633Y0113629D02*
X0583574Y0113629D01*
X0584572Y0114627D02*
X0598633Y0114627D01*
X0598633Y0115626D02*
X0587001Y0115626D01*
X0585666Y0115626D02*
X0585571Y0115626D01*
X0588664Y0116624D02*
X0598633Y0116624D01*
X0579583Y0134293D02*
X0563333Y0117793D01*
X0546333Y0115793D02*
X0546333Y0075793D01*
X0535583Y0074793D02*
X0535583Y0054043D01*
X0523333Y0041793D01*
X0462333Y0041793D01*
X0453333Y0032793D01*
X0453333Y0015793D01*
X0455333Y0013793D01*
X0463333Y0013793D01*
X0468333Y0018793D01*
X0471247Y0014776D02*
X0471633Y0014776D01*
X0471944Y0013778D02*
X0465723Y0013778D01*
X0464724Y0012779D02*
X0472943Y0012779D01*
X0473941Y0011781D02*
X0397549Y0011781D01*
X0397551Y0012779D02*
X0453943Y0012779D01*
X0452944Y0013778D02*
X0450672Y0013778D01*
X0451671Y0014776D02*
X0451946Y0014776D01*
X0448833Y0014776D02*
X0447833Y0014776D01*
X0447833Y0013778D02*
X0448833Y0013778D01*
X0448833Y0015775D02*
X0447833Y0015775D01*
X0447833Y0016773D02*
X0448833Y0016773D01*
X0448833Y0017772D02*
X0447833Y0017772D01*
X0447833Y0018293D02*
X0438833Y0018293D01*
X0438833Y0019292D01*
X0443533Y0019292D01*
X0447833Y0019292D01*
X0447833Y0018293D01*
X0447833Y0018770D02*
X0438833Y0018770D01*
X0438833Y0019293D02*
X0437833Y0019293D01*
X0437833Y0023993D01*
X0437833Y0028292D01*
X0438833Y0028292D01*
X0438833Y0019293D01*
X0438833Y0019769D02*
X0437833Y0019769D01*
X0437833Y0019292D02*
X0437833Y0018293D01*
X0428833Y0018293D01*
X0428833Y0019292D01*
X0433533Y0019292D01*
X0437833Y0019292D01*
X0437833Y0018770D02*
X0428833Y0018770D01*
X0428833Y0019293D02*
X0427833Y0019293D01*
X0427833Y0023993D01*
X0427833Y0028292D01*
X0428833Y0028292D01*
X0428833Y0019293D01*
X0428833Y0019769D02*
X0427833Y0019769D01*
X0427833Y0019292D02*
X0427833Y0018293D01*
X0418833Y0018293D01*
X0418833Y0019292D01*
X0423133Y0019292D01*
X0427833Y0019292D01*
X0427833Y0018770D02*
X0418833Y0018770D01*
X0418833Y0019293D02*
X0417833Y0019293D01*
X0417833Y0023593D01*
X0417833Y0028292D01*
X0418833Y0028292D01*
X0418833Y0019293D01*
X0418833Y0019769D02*
X0417833Y0019769D01*
X0417833Y0020767D02*
X0418833Y0020767D01*
X0418833Y0021766D02*
X0417833Y0021766D01*
X0417833Y0022764D02*
X0418833Y0022764D01*
X0418833Y0023763D02*
X0417833Y0023763D01*
X0417833Y0024761D02*
X0418833Y0024761D01*
X0418833Y0025760D02*
X0417833Y0025760D01*
X0417833Y0026758D02*
X0418833Y0026758D01*
X0418833Y0027757D02*
X0417833Y0027757D01*
X0417833Y0028755D02*
X0397575Y0028755D01*
X0397574Y0027757D02*
X0413133Y0027757D01*
X0413133Y0026758D02*
X0397572Y0026758D01*
X0397571Y0025760D02*
X0414012Y0025760D01*
X0415011Y0024761D02*
X0397569Y0024761D01*
X0397567Y0023763D02*
X0415950Y0023763D01*
X0414951Y0022764D02*
X0397566Y0022764D01*
X0397564Y0021766D02*
X0413953Y0021766D01*
X0413133Y0020767D02*
X0397563Y0020767D01*
X0397561Y0019769D02*
X0413133Y0019769D01*
X0413133Y0017772D02*
X0397558Y0017772D01*
X0397560Y0018770D02*
X0417833Y0018770D01*
X0417833Y0017772D02*
X0418833Y0017772D01*
X0418833Y0016773D02*
X0417833Y0016773D01*
X0417833Y0015775D02*
X0418833Y0015775D01*
X0418833Y0014776D02*
X0417833Y0014776D01*
X0417833Y0013778D02*
X0418833Y0013778D01*
X0420672Y0013778D02*
X0425994Y0013778D01*
X0424996Y0014776D02*
X0421671Y0014776D01*
X0422669Y0015775D02*
X0423997Y0015775D01*
X0427833Y0015775D02*
X0428833Y0015775D01*
X0428833Y0016773D02*
X0427833Y0016773D01*
X0427833Y0017772D02*
X0428833Y0017772D01*
X0428833Y0014776D02*
X0427833Y0014776D01*
X0427833Y0013778D02*
X0428833Y0013778D01*
X0430672Y0013778D02*
X0435994Y0013778D01*
X0434996Y0014776D02*
X0431671Y0014776D01*
X0432669Y0015775D02*
X0433997Y0015775D01*
X0437833Y0015775D02*
X0438833Y0015775D01*
X0438833Y0016773D02*
X0437833Y0016773D01*
X0437833Y0017772D02*
X0438833Y0017772D01*
X0438833Y0014776D02*
X0437833Y0014776D01*
X0437833Y0013778D02*
X0438833Y0013778D01*
X0440672Y0013778D02*
X0445994Y0013778D01*
X0444996Y0014776D02*
X0441671Y0014776D01*
X0442669Y0015775D02*
X0443997Y0015775D01*
X0447833Y0019293D02*
X0447833Y0023993D01*
X0447833Y0028292D01*
X0448833Y0028292D01*
X0448833Y0019293D01*
X0447833Y0019293D01*
X0447833Y0019769D02*
X0448833Y0019769D01*
X0448833Y0020767D02*
X0447833Y0020767D01*
X0447833Y0021766D02*
X0448833Y0021766D01*
X0448833Y0022764D02*
X0447833Y0022764D01*
X0447833Y0023763D02*
X0448833Y0023763D01*
X0448833Y0024761D02*
X0447833Y0024761D01*
X0447833Y0025760D02*
X0448833Y0025760D01*
X0448833Y0026758D02*
X0447833Y0026758D01*
X0447833Y0027757D02*
X0448833Y0027757D01*
X0447833Y0028293D02*
X0438833Y0028293D01*
X0438833Y0029292D01*
X0443533Y0029292D01*
X0447833Y0029292D01*
X0447833Y0028293D01*
X0447833Y0028755D02*
X0438833Y0028755D01*
X0438833Y0027757D02*
X0437833Y0027757D01*
X0437833Y0028293D02*
X0428833Y0028293D01*
X0428833Y0029292D01*
X0433533Y0029292D01*
X0437833Y0029292D01*
X0437833Y0028293D01*
X0437833Y0028755D02*
X0428833Y0028755D01*
X0428833Y0027757D02*
X0427833Y0027757D01*
X0427833Y0028293D02*
X0418833Y0028293D01*
X0418833Y0029292D01*
X0423133Y0029292D01*
X0427833Y0029292D01*
X0427833Y0028293D01*
X0427833Y0028755D02*
X0418833Y0028755D01*
X0418833Y0029754D02*
X0417833Y0029754D01*
X0417833Y0030752D02*
X0418833Y0030752D01*
X0418833Y0031751D02*
X0417833Y0031751D01*
X0417833Y0032749D02*
X0418833Y0032749D01*
X0418833Y0033748D02*
X0417833Y0033748D01*
X0415935Y0033748D02*
X0397583Y0033748D01*
X0397584Y0034746D02*
X0452883Y0034746D01*
X0451885Y0033748D02*
X0450732Y0033748D01*
X0448833Y0033748D02*
X0447833Y0033748D01*
X0447833Y0032749D02*
X0448833Y0032749D01*
X0448833Y0031751D02*
X0447833Y0031751D01*
X0447833Y0030752D02*
X0448833Y0030752D01*
X0448833Y0029754D02*
X0447833Y0029754D01*
X0443938Y0031751D02*
X0442729Y0031751D01*
X0441730Y0032749D02*
X0444936Y0032749D01*
X0445935Y0033748D02*
X0440732Y0033748D01*
X0438833Y0033748D02*
X0437833Y0033748D01*
X0437833Y0032749D02*
X0438833Y0032749D01*
X0438833Y0031751D02*
X0437833Y0031751D01*
X0437833Y0030752D02*
X0438833Y0030752D01*
X0438833Y0029754D02*
X0437833Y0029754D01*
X0437833Y0026758D02*
X0438833Y0026758D01*
X0438833Y0025760D02*
X0437833Y0025760D01*
X0437833Y0024761D02*
X0438833Y0024761D01*
X0438833Y0023763D02*
X0437833Y0023763D01*
X0437833Y0022764D02*
X0438833Y0022764D01*
X0438833Y0021766D02*
X0437833Y0021766D01*
X0437833Y0020767D02*
X0438833Y0020767D01*
X0428833Y0020767D02*
X0427833Y0020767D01*
X0427833Y0021766D02*
X0428833Y0021766D01*
X0428833Y0022764D02*
X0427833Y0022764D01*
X0427833Y0023763D02*
X0428833Y0023763D01*
X0428833Y0024761D02*
X0427833Y0024761D01*
X0427833Y0025760D02*
X0428833Y0025760D01*
X0428833Y0026758D02*
X0427833Y0026758D01*
X0427833Y0029754D02*
X0428833Y0029754D01*
X0428833Y0030752D02*
X0427833Y0030752D01*
X0427833Y0031751D02*
X0428833Y0031751D01*
X0428833Y0032749D02*
X0427833Y0032749D01*
X0427833Y0033748D02*
X0428833Y0033748D01*
X0430732Y0033748D02*
X0435935Y0033748D01*
X0434936Y0032749D02*
X0431730Y0032749D01*
X0432729Y0031751D02*
X0433938Y0031751D01*
X0425935Y0033748D02*
X0420732Y0033748D01*
X0421730Y0032749D02*
X0424936Y0032749D01*
X0423938Y0031751D02*
X0422729Y0031751D01*
X0414936Y0032749D02*
X0397581Y0032749D01*
X0397580Y0031751D02*
X0413938Y0031751D01*
X0413133Y0030752D02*
X0397578Y0030752D01*
X0397577Y0029754D02*
X0413133Y0029754D01*
X0397586Y0035745D02*
X0453882Y0035745D01*
X0454880Y0036743D02*
X0397587Y0036743D01*
X0397589Y0037742D02*
X0455879Y0037742D01*
X0456877Y0038740D02*
X0397590Y0038740D01*
X0397592Y0039739D02*
X0457876Y0039739D01*
X0458874Y0040737D02*
X0397593Y0040737D01*
X0397595Y0041736D02*
X0459873Y0041736D01*
X0460871Y0042734D02*
X0397596Y0042734D01*
X0397598Y0043733D02*
X0494918Y0043733D01*
X0493919Y0044731D02*
X0397599Y0044731D01*
X0397601Y0045730D02*
X0492921Y0045730D01*
X0491922Y0046729D02*
X0397602Y0046729D01*
X0397604Y0047727D02*
X0490924Y0047727D01*
X0489925Y0048726D02*
X0397605Y0048726D01*
X0397607Y0049724D02*
X0488927Y0049724D01*
X0487928Y0050723D02*
X0454616Y0050723D01*
X0456582Y0051721D02*
X0486930Y0051721D01*
X0500887Y0056714D02*
X0506092Y0056714D01*
X0505093Y0057712D02*
X0499889Y0057712D01*
X0498890Y0058711D02*
X0504095Y0058711D01*
X0503595Y0059709D02*
X0497892Y0059709D01*
X0496893Y0060708D02*
X0503182Y0060708D01*
X0502768Y0061706D02*
X0495895Y0061706D01*
X0494896Y0062705D02*
X0502622Y0062705D01*
X0502622Y0063703D02*
X0493898Y0063703D01*
X0492575Y0064702D02*
X0502622Y0064702D01*
X0502694Y0065700D02*
X0456746Y0065700D01*
X0455011Y0066699D02*
X0503108Y0066699D01*
X0503521Y0067697D02*
X0397634Y0067697D01*
X0397632Y0066699D02*
X0447656Y0066699D01*
X0445921Y0065700D02*
X0397631Y0065700D01*
X0397629Y0064702D02*
X0444922Y0064702D01*
X0443938Y0063703D02*
X0397628Y0063703D01*
X0397626Y0062705D02*
X0443524Y0062705D01*
X0443111Y0061706D02*
X0397625Y0061706D01*
X0397623Y0060708D02*
X0442697Y0060708D01*
X0442622Y0059709D02*
X0397622Y0059709D01*
X0397620Y0058711D02*
X0442622Y0058711D01*
X0442622Y0057712D02*
X0397619Y0057712D01*
X0397617Y0056714D02*
X0442765Y0056714D01*
X0443178Y0055715D02*
X0397616Y0055715D01*
X0397614Y0054717D02*
X0443592Y0054717D01*
X0444087Y0053718D02*
X0397613Y0053718D01*
X0397611Y0052720D02*
X0445086Y0052720D01*
X0446084Y0051721D02*
X0397610Y0051721D01*
X0397608Y0050723D02*
X0448051Y0050723D01*
X0397635Y0068696D02*
X0503935Y0068696D01*
X0504633Y0069694D02*
X0397637Y0069694D01*
X0397638Y0070693D02*
X0504633Y0070693D01*
X0504633Y0071691D02*
X0397640Y0071691D01*
X0397641Y0072690D02*
X0504633Y0072690D01*
X0504633Y0073688D02*
X0397643Y0073688D01*
X0397645Y0074687D02*
X0504633Y0074687D01*
X0504633Y0075685D02*
X0397646Y0075685D01*
X0397648Y0076684D02*
X0504633Y0076684D01*
X0504633Y0077682D02*
X0397649Y0077682D01*
X0397651Y0078681D02*
X0504633Y0078681D01*
X0504633Y0079679D02*
X0397652Y0079679D01*
X0397654Y0080678D02*
X0504633Y0080678D01*
X0504633Y0081676D02*
X0397655Y0081676D01*
X0397657Y0082675D02*
X0504633Y0082675D01*
X0504633Y0083673D02*
X0397658Y0083673D01*
X0397660Y0084672D02*
X0504633Y0084672D01*
X0504633Y0085670D02*
X0397661Y0085670D01*
X0397663Y0086669D02*
X0504633Y0086669D01*
X0504633Y0087667D02*
X0397664Y0087667D01*
X0397666Y0088666D02*
X0504633Y0088666D01*
X0504633Y0089664D02*
X0397667Y0089664D01*
X0397669Y0090663D02*
X0504633Y0090663D01*
X0504633Y0091662D02*
X0412380Y0091662D01*
X0412896Y0092660D02*
X0504633Y0092660D01*
X0504633Y0093659D02*
X0412896Y0093659D01*
X0412896Y0094657D02*
X0421590Y0094657D01*
X0423076Y0094657D02*
X0504633Y0094657D01*
X0504633Y0095656D02*
X0424695Y0095656D01*
X0425305Y0096654D02*
X0504633Y0096654D01*
X0504633Y0097653D02*
X0425514Y0097653D01*
X0425421Y0098651D02*
X0504633Y0098651D01*
X0504633Y0099650D02*
X0424975Y0099650D01*
X0423752Y0100648D02*
X0504633Y0100648D01*
X0504633Y0101647D02*
X0420883Y0101647D01*
X0419885Y0102645D02*
X0504633Y0102645D01*
X0504633Y0103644D02*
X0412660Y0103644D01*
X0409333Y0101336D02*
X0418790Y0101336D01*
X0422333Y0097793D01*
X0419362Y0096654D02*
X0412563Y0096654D01*
X0412896Y0095656D02*
X0419972Y0095656D01*
X0419152Y0097653D02*
X0406033Y0097653D01*
X0406033Y0098651D02*
X0406384Y0098651D01*
X0412283Y0098651D02*
X0419071Y0098651D01*
X0402633Y0105641D02*
X0397691Y0105641D01*
X0397693Y0106639D02*
X0402633Y0106639D01*
X0402633Y0107638D02*
X0397694Y0107638D01*
X0397696Y0108636D02*
X0402773Y0108636D01*
X0403771Y0109635D02*
X0397697Y0109635D01*
X0397699Y0110633D02*
X0404770Y0110633D01*
X0405768Y0111632D02*
X0397700Y0111632D01*
X0397702Y0112630D02*
X0406767Y0112630D01*
X0407765Y0113629D02*
X0397703Y0113629D01*
X0397705Y0114627D02*
X0408764Y0114627D01*
X0409762Y0115626D02*
X0397706Y0115626D01*
X0397708Y0116624D02*
X0410761Y0116624D01*
X0411759Y0117623D02*
X0397709Y0117623D01*
X0397711Y0118621D02*
X0412758Y0118621D01*
X0413756Y0119620D02*
X0397712Y0119620D01*
X0397714Y0120618D02*
X0414755Y0120618D01*
X0415754Y0121617D02*
X0397716Y0121617D01*
X0397717Y0122615D02*
X0416752Y0122615D01*
X0417751Y0123614D02*
X0397719Y0123614D01*
X0397720Y0124612D02*
X0418749Y0124612D01*
X0419748Y0125611D02*
X0397722Y0125611D01*
X0397723Y0126609D02*
X0420746Y0126609D01*
X0421745Y0127608D02*
X0397725Y0127608D01*
X0397726Y0128606D02*
X0422743Y0128606D01*
X0423742Y0129605D02*
X0397728Y0129605D01*
X0397729Y0130603D02*
X0424740Y0130603D01*
X0425739Y0131602D02*
X0397731Y0131602D01*
X0397732Y0132600D02*
X0426737Y0132600D01*
X0427736Y0133599D02*
X0397734Y0133599D01*
X0397735Y0134598D02*
X0428734Y0134598D01*
X0429733Y0135596D02*
X0397737Y0135596D01*
X0397738Y0136595D02*
X0430731Y0136595D01*
X0431545Y0132600D02*
X0438737Y0132600D01*
X0437739Y0131602D02*
X0430547Y0131602D01*
X0429548Y0130603D02*
X0436740Y0130603D01*
X0435742Y0129605D02*
X0428550Y0129605D01*
X0427551Y0128606D02*
X0434743Y0128606D01*
X0433745Y0127608D02*
X0426553Y0127608D01*
X0425554Y0126609D02*
X0432746Y0126609D01*
X0431748Y0125611D02*
X0424556Y0125611D01*
X0423557Y0124612D02*
X0430749Y0124612D01*
X0429751Y0123614D02*
X0422559Y0123614D01*
X0421560Y0122615D02*
X0428752Y0122615D01*
X0427754Y0121617D02*
X0420562Y0121617D01*
X0419563Y0120618D02*
X0426910Y0120618D01*
X0426336Y0119620D02*
X0418565Y0119620D01*
X0417566Y0118621D02*
X0426152Y0118621D01*
X0426271Y0117623D02*
X0416568Y0117623D01*
X0415569Y0116624D02*
X0426753Y0116624D01*
X0428062Y0115626D02*
X0414571Y0115626D01*
X0429333Y0118543D02*
X0429333Y0120793D01*
X0532833Y0120543D02*
X0533833Y0119293D01*
X0533833Y0108793D01*
X0546333Y0115793D02*
X0571333Y0140793D01*
X0578333Y0140793D01*
X0581278Y0139590D02*
X0594061Y0139590D01*
X0595059Y0138592D02*
X0580631Y0138592D01*
X0581514Y0140589D02*
X0583039Y0140589D01*
X0582135Y0141587D02*
X0581447Y0141587D01*
X0581136Y0142586D02*
X0581034Y0142586D01*
X0576036Y0138592D02*
X0571537Y0138592D01*
X0620333Y0138793D02*
X0620333Y0130793D01*
X0620333Y0138793D02*
X0622333Y0140793D01*
X0542300Y0165551D02*
X0517413Y0165551D01*
X0515206Y0164553D02*
X0540773Y0164553D01*
X0554766Y0104642D02*
X0561633Y0104642D01*
X0561633Y0103644D02*
X0555981Y0103644D01*
X0556423Y0102645D02*
X0561633Y0102645D01*
X0561633Y0101647D02*
X0556514Y0101647D01*
X0555940Y0093659D02*
X0555033Y0093659D01*
X0557333Y0090793D02*
X0556333Y0089793D01*
X0556333Y0070793D01*
X0552333Y0066793D01*
X0552333Y0053793D01*
X0577033Y0048726D02*
X0578425Y0048726D01*
X0580242Y0048726D02*
X0582791Y0048726D01*
X0583790Y0049724D02*
X0581764Y0049724D01*
X0582333Y0050723D02*
X0584633Y0050723D01*
X0584633Y0051721D02*
X0582514Y0051721D01*
X0582393Y0052720D02*
X0584633Y0052720D01*
X0584633Y0053718D02*
X0581907Y0053718D01*
X0581033Y0054717D02*
X0584633Y0054717D01*
X0584633Y0055715D02*
X0581033Y0055715D01*
X0581033Y0056714D02*
X0584633Y0056714D01*
X0584633Y0057712D02*
X0581033Y0057712D01*
X0581033Y0058711D02*
X0584633Y0058711D01*
X0584875Y0059709D02*
X0581033Y0059709D01*
X0581033Y0060708D02*
X0585289Y0060708D01*
X0585772Y0061706D02*
X0581033Y0061706D01*
X0545511Y0072690D02*
X0544033Y0072690D01*
X0508069Y0055715D02*
X0501886Y0055715D01*
X0413133Y0016773D02*
X0397557Y0016773D01*
X0397555Y0015775D02*
X0413997Y0015775D01*
X0414996Y0014776D02*
X0397554Y0014776D01*
X0397552Y0013778D02*
X0415994Y0013778D01*
X0397548Y0010782D02*
X0474940Y0010782D01*
X0475938Y0009784D02*
X0397546Y0009784D01*
D14*
X0451333Y0058793D03*
X0511333Y0063793D03*
X0546333Y0157793D03*
X0512333Y0172793D03*
X0458333Y0171793D03*
D15*
X0460333Y0173793D01*
X0490333Y0173793D01*
X0505333Y0188793D01*
X0576333Y0188793D01*
X0578333Y0186793D01*
X0622333Y0142793D01*
X0622333Y0140793D01*
X0622333Y0042793D01*
X0608333Y0028793D01*
X0591333Y0047793D02*
X0583333Y0039793D01*
X0591333Y0047793D02*
X0591333Y0057793D01*
X0605333Y0071793D01*
X0605333Y0137793D01*
X0570333Y0172793D01*
X0512333Y0172793D01*
X0546333Y0157793D02*
X0546333Y0147793D01*
X0524333Y0125793D01*
X0524333Y0096793D01*
X0525333Y0095793D01*
X0525333Y0071793D01*
X0527333Y0069793D01*
X0527333Y0056793D01*
X0519333Y0048793D01*
X0499333Y0048793D01*
X0489333Y0058793D01*
X0451333Y0058793D01*
X0511333Y0063793D02*
X0511333Y0118793D01*
D16*
X0511333Y0118793D03*
D17*
X0583333Y0039793D02*
X0578333Y0034793D01*
X0578333Y0028793D01*
D18*
X0525333Y0095793D03*
M02*
