G75*
G70*
%OFA0B0*%
%FSLAX24Y24*%
%IPPOS*%
%LPD*%
%AMOC8*
5,1,8,0,0,1.08239X$1,22.5*
%
%ADD10R,0.0515X0.0515*%
%ADD11O,0.1040X0.0520*%
%ADD12R,0.0591X0.0197*%
%ADD13R,0.0197X0.0591*%
%ADD14R,0.1000X0.2000*%
%ADD15R,0.0250X0.0500*%
%ADD16R,0.0866X0.0236*%
%ADD17O,0.0520X0.1040*%
%ADD18C,0.0750*%
%ADD19OC8,0.0750*%
%ADD20O,0.0600X0.1200*%
%ADD21OC8,0.0600*%
%ADD22R,0.0710X0.0630*%
%ADD23C,0.1000*%
%ADD24OC8,0.1000*%
%ADD25R,0.0709X0.0630*%
%ADD26C,0.0520*%
%ADD27C,0.0240*%
%ADD28C,0.0100*%
%ADD29C,0.0160*%
%ADD30C,0.0396*%
%ADD31C,0.0200*%
%ADD32C,0.0400*%
%ADD33R,0.0396X0.0396*%
D10*
X031621Y003590D03*
X031621Y004590D03*
X031621Y005590D03*
X031621Y006590D03*
X031621Y007590D03*
X031621Y008590D03*
X031621Y009590D03*
X031621Y010590D03*
X031621Y011590D03*
X031621Y012590D03*
X031621Y013590D03*
X031621Y014590D03*
X031621Y015590D03*
X031621Y016590D03*
X031621Y017590D03*
X031621Y018590D03*
X031621Y019590D03*
X031621Y020590D03*
D11*
X028121Y014590D03*
X028121Y013590D03*
X028121Y012590D03*
X028121Y011590D03*
D12*
X022904Y011720D03*
X022904Y011405D03*
X022904Y011090D03*
X022904Y010775D03*
X022904Y010460D03*
X022904Y010145D03*
X022904Y009830D03*
X022904Y009515D03*
X022904Y012035D03*
X022904Y012350D03*
X022904Y012665D03*
X018337Y012665D03*
X018337Y012350D03*
X018337Y012035D03*
X018337Y011720D03*
X018337Y011405D03*
X018337Y011090D03*
X018337Y010775D03*
X018337Y010460D03*
X018337Y010145D03*
X018337Y009830D03*
X018337Y009515D03*
D13*
X019046Y008807D03*
X019361Y008807D03*
X019676Y008807D03*
X019991Y008807D03*
X020306Y008807D03*
X020621Y008807D03*
X020936Y008807D03*
X021251Y008807D03*
X021566Y008807D03*
X021881Y008807D03*
X022196Y008807D03*
X022196Y013374D03*
X021881Y013374D03*
X021566Y013374D03*
X021251Y013374D03*
X020936Y013374D03*
X020621Y013374D03*
X020306Y013374D03*
X019991Y013374D03*
X019676Y013374D03*
X019361Y013374D03*
X019046Y013374D03*
D14*
X018121Y017590D03*
X020121Y017590D03*
X022121Y017590D03*
X024121Y017590D03*
X026121Y017590D03*
X028121Y017590D03*
D15*
X008121Y013590D03*
X007621Y013590D03*
X007121Y013590D03*
X006621Y013590D03*
X006121Y013590D03*
X005621Y013590D03*
X005121Y013590D03*
X004621Y013590D03*
X004121Y013590D03*
X003621Y013590D03*
X003621Y007590D03*
X004121Y007590D03*
X004621Y007590D03*
X005121Y007590D03*
X005621Y007590D03*
X006121Y007590D03*
X006621Y007590D03*
X007121Y007590D03*
X007621Y007590D03*
X008121Y007590D03*
D16*
X010035Y008403D03*
X010035Y008903D03*
X010035Y009403D03*
X010035Y009903D03*
X010035Y010403D03*
X010035Y010903D03*
X010035Y011403D03*
X012082Y011403D03*
X012082Y010903D03*
X012082Y010403D03*
X012082Y009903D03*
X012082Y009403D03*
X012082Y008903D03*
X012082Y008403D03*
D17*
X010621Y015590D03*
X009621Y015590D03*
X008621Y015590D03*
X007621Y015590D03*
X006621Y015590D03*
X005621Y015590D03*
X004621Y015590D03*
X003621Y015590D03*
X003621Y018590D03*
X004621Y018590D03*
X005621Y018590D03*
X006621Y018590D03*
X007621Y018590D03*
X008621Y018590D03*
X009621Y018590D03*
X010621Y018590D03*
D18*
X012621Y016590D03*
X014621Y016590D03*
X006121Y021090D03*
X005121Y021090D03*
D19*
X003121Y021090D03*
X008121Y021090D03*
X012621Y018590D03*
X014621Y018590D03*
D20*
X014621Y020590D03*
X013621Y020590D03*
X015621Y020590D03*
X016621Y020590D03*
X011621Y020590D03*
X010621Y020590D03*
X009621Y020590D03*
X021871Y015153D03*
X022871Y015153D03*
X023871Y015153D03*
D21*
X023621Y005090D03*
X024621Y005090D03*
X025621Y005090D03*
X026621Y005090D03*
X026621Y004090D03*
X025621Y004090D03*
X024621Y004090D03*
X023621Y004090D03*
X022621Y004090D03*
X021621Y004090D03*
X020621Y004090D03*
X019621Y004090D03*
X018621Y004090D03*
X017621Y004090D03*
X016621Y004090D03*
X015621Y004090D03*
X014621Y004090D03*
X013621Y004090D03*
X012621Y004090D03*
X011621Y004090D03*
X010621Y004090D03*
X009621Y004090D03*
X008621Y004090D03*
X007621Y004090D03*
X007621Y005090D03*
X008621Y005090D03*
X009621Y005090D03*
X010621Y005090D03*
X011621Y005090D03*
X012621Y005090D03*
X013621Y005090D03*
X014621Y005090D03*
X015621Y005090D03*
X016621Y005090D03*
X017621Y005090D03*
X018621Y005090D03*
X019621Y005090D03*
X020621Y005090D03*
X021621Y005090D03*
X022621Y005090D03*
D22*
X028371Y005525D03*
X028371Y004405D03*
X028308Y006780D03*
X028308Y007900D03*
X016496Y017030D03*
X016496Y018150D03*
D23*
X013621Y013090D03*
X004621Y005590D03*
D24*
X004621Y003590D03*
X013621Y015090D03*
D25*
X025121Y011641D03*
X025121Y010539D03*
D26*
X016058Y010390D03*
X016058Y012290D03*
D27*
X004558Y003590D02*
X003621Y004528D01*
X003621Y007528D01*
X003621Y012715D01*
X003621Y012840D02*
X008121Y012840D01*
X008121Y012903D01*
X008121Y013590D01*
X003621Y013590D02*
X003621Y012840D01*
X003621Y007590D02*
X003621Y007528D01*
X005621Y007590D02*
X005621Y005590D01*
X004621Y005590D01*
X004621Y003590D02*
X004558Y003590D01*
X006121Y003215D02*
X006121Y007590D01*
X006621Y007590D02*
X006621Y003153D01*
X006621Y002715D01*
X007621Y005090D02*
X007621Y007090D01*
X008121Y007090D01*
X008121Y007590D01*
X007621Y007590D02*
X007621Y007090D01*
X013058Y008215D02*
X014621Y008653D01*
X018121Y016278D02*
X018121Y017590D01*
X020121Y017590D02*
X020121Y016278D01*
X022121Y016278D02*
X022246Y016278D01*
X022121Y016278D02*
X022121Y017590D01*
X022058Y017528D01*
X022121Y017590D02*
X022121Y017590D01*
X024058Y017590D02*
X024058Y016278D01*
X024121Y017528D02*
X024183Y017590D01*
X024121Y017590D02*
X024058Y017590D01*
X024121Y017590D02*
X024121Y017528D01*
X026058Y017528D02*
X026183Y017528D01*
X026246Y017528D01*
X026183Y017528D02*
X026183Y017590D01*
X026183Y017528D02*
X026183Y016215D01*
D28*
X026746Y015278D02*
X025808Y014340D01*
X025808Y010528D01*
X025121Y010528D01*
X025121Y010539D01*
X024235Y010539D01*
X023996Y010778D01*
X022933Y010778D01*
X022931Y010775D01*
X022904Y010775D01*
X019873Y010775D01*
X019558Y011090D01*
X018308Y011090D01*
X015058Y011090D01*
X015058Y011028D01*
X015058Y011090D02*
X015058Y012278D01*
X014246Y013090D01*
X013558Y013090D01*
X013496Y013028D01*
X013558Y013090D02*
X013621Y013090D01*
X011371Y013090D01*
X010371Y014090D01*
X010183Y014090D01*
X010183Y017528D01*
X010621Y017965D01*
X010621Y018590D01*
X012558Y018590D02*
X012621Y018590D01*
X013183Y018590D01*
X013621Y018153D01*
X013621Y016590D01*
X013621Y015090D01*
X014371Y014340D01*
X014371Y013528D01*
X015371Y012528D01*
X015371Y011465D01*
X015433Y011403D01*
X018335Y011403D01*
X018337Y011405D01*
X018368Y011405D01*
X018371Y011403D01*
X019746Y011403D01*
X020058Y011090D01*
X022904Y011090D01*
X022904Y011124D01*
X022933Y011153D01*
X022996Y011090D01*
X023933Y011090D01*
X024485Y011641D01*
X025121Y011641D01*
X024246Y011840D02*
X023808Y011403D01*
X022933Y011403D01*
X022904Y011432D01*
X022904Y011405D01*
X022904Y011432D02*
X022871Y011465D01*
X022909Y011715D02*
X023433Y011715D01*
X023496Y011778D01*
X023496Y012153D01*
X023621Y012340D01*
X024121Y011965D02*
X024246Y011840D01*
X022909Y011715D02*
X022904Y011720D01*
X022904Y012035D02*
X022441Y012035D01*
X021871Y011465D01*
X020183Y011465D01*
X019746Y011903D01*
X019246Y011903D01*
X018337Y012035D02*
X018330Y012028D01*
X017808Y012028D01*
X017558Y012278D01*
X017496Y011715D02*
X018333Y011715D01*
X018337Y011720D01*
X018308Y011090D02*
X018337Y011090D01*
X018371Y010778D02*
X017621Y010778D01*
X017558Y010715D01*
X017496Y010715D01*
X016808Y010028D01*
X016808Y008153D01*
X016996Y007715D02*
X017308Y008028D01*
X017308Y010153D01*
X017616Y010460D01*
X018337Y010460D01*
X018337Y010775D02*
X018368Y010775D01*
X018371Y010778D01*
X018337Y010145D02*
X017808Y010145D01*
X017808Y010090D01*
X017621Y010090D01*
X017621Y007965D01*
X017121Y007465D01*
X014371Y007465D01*
X013496Y006590D01*
X011121Y006590D01*
X010558Y006028D01*
X009621Y006028D01*
X009121Y005590D01*
X009121Y004653D01*
X008621Y004090D01*
X008621Y004090D01*
X008121Y004528D02*
X007683Y004090D01*
X007621Y004090D01*
X008121Y004528D02*
X008121Y005340D01*
X009058Y006278D01*
X010371Y006278D01*
X010996Y006903D01*
X013433Y006903D01*
X014246Y007715D01*
X016996Y007715D01*
X017246Y007153D02*
X014433Y007153D01*
X013621Y006340D01*
X011433Y006340D01*
X010683Y005653D01*
X010121Y005653D01*
X010121Y004090D01*
X009621Y004090D01*
X009558Y004090D01*
X010621Y004090D02*
X011121Y004090D01*
X011121Y005465D01*
X011746Y006090D01*
X013746Y006090D01*
X014621Y006903D01*
X017496Y006903D01*
X017496Y006965D01*
X018371Y007903D01*
X018371Y009482D01*
X018337Y009515D01*
X018337Y009830D02*
X018328Y009840D01*
X017933Y009840D01*
X017871Y009778D01*
X017871Y009278D01*
X017871Y008715D01*
X017871Y008465D01*
X017871Y007840D01*
X017246Y007153D01*
X017621Y006653D02*
X014683Y006653D01*
X013933Y005903D01*
X012121Y005903D01*
X012121Y004278D01*
X011871Y004090D01*
X011621Y004090D01*
X011558Y004090D01*
X012621Y004090D02*
X012871Y004090D01*
X013121Y004278D01*
X013121Y005653D01*
X013996Y005653D01*
X014746Y006403D01*
X017746Y006403D01*
X019371Y008028D01*
X019371Y008754D01*
X019361Y008807D01*
X019058Y008794D02*
X019058Y008090D01*
X017621Y006653D01*
X017933Y006153D02*
X014808Y006153D01*
X014121Y005465D01*
X014121Y004278D01*
X013871Y004090D01*
X013621Y004090D01*
X014621Y004090D02*
X014871Y004090D01*
X015121Y004340D01*
X015121Y005778D01*
X015246Y005903D01*
X018121Y005903D01*
X019996Y007778D01*
X019996Y008802D01*
X019991Y008807D01*
X019683Y008799D02*
X019683Y007903D01*
X017933Y006153D01*
X017121Y005528D02*
X017121Y004278D01*
X016933Y004090D01*
X016621Y004090D01*
X016058Y004528D02*
X015621Y004090D01*
X016058Y004528D02*
X016058Y005403D01*
X016246Y005590D01*
X016121Y005528D01*
X017621Y004090D02*
X017933Y003778D01*
X017933Y002965D01*
X029683Y002965D01*
X029808Y003090D01*
X029808Y006278D01*
X029308Y006778D01*
X028308Y006778D01*
X028308Y006780D01*
X028308Y006780D01*
X028371Y006090D02*
X028371Y005525D01*
X028371Y005403D01*
X028371Y006090D02*
X027683Y006090D01*
X027496Y006278D01*
X027496Y008653D01*
X027371Y008778D01*
X027121Y009090D02*
X027308Y009278D01*
X027308Y010090D01*
X027058Y010340D01*
X027121Y010340D01*
X026933Y009528D02*
X025746Y008590D01*
X025746Y006340D01*
X025621Y006215D01*
X025621Y005090D01*
X026058Y005653D02*
X026058Y008403D01*
X026746Y009090D01*
X027121Y009090D01*
X026558Y009590D02*
X026558Y012153D01*
X026996Y012590D01*
X028121Y012590D01*
X028121Y013590D02*
X028121Y013590D01*
X026683Y013590D01*
X026308Y013215D01*
X026308Y009653D01*
X025183Y008840D01*
X025183Y006715D01*
X024871Y006403D01*
X024871Y006403D01*
X024371Y005903D01*
X022121Y005903D01*
X022121Y005528D01*
X022121Y004778D01*
X021871Y004528D01*
X021246Y004528D01*
X020808Y004090D01*
X020621Y004090D01*
X020808Y004590D02*
X021058Y004840D01*
X021058Y005715D01*
X021621Y006153D01*
X024246Y006153D01*
X024933Y006840D01*
X024933Y008965D01*
X026058Y009778D01*
X026058Y013965D01*
X026683Y014590D01*
X028121Y014590D01*
X028183Y014590D01*
X028183Y013653D02*
X028121Y013590D01*
X028121Y013590D01*
X026746Y015278D02*
X031308Y015278D01*
X031621Y015590D01*
X031621Y015653D01*
X031371Y015653D01*
X030996Y016028D01*
X030996Y018528D01*
X031558Y018528D01*
X031621Y018590D01*
X029808Y018215D02*
X029808Y020153D01*
X030183Y020528D01*
X031558Y020528D01*
X031621Y020590D01*
X028121Y015778D02*
X023871Y015778D01*
X023871Y015153D01*
X022871Y015153D02*
X022871Y012699D01*
X022904Y012665D01*
X022196Y013374D02*
X022183Y013386D01*
X022183Y013965D01*
X021933Y014215D01*
X015496Y014215D01*
X014933Y014778D01*
X014933Y015090D01*
X015371Y015153D02*
X015371Y015590D01*
X015371Y015153D02*
X016058Y014465D01*
X021183Y014465D01*
X021871Y015153D01*
X019991Y013970D02*
X019871Y014028D01*
X015121Y014028D01*
X015558Y013653D02*
X015746Y013840D01*
X019683Y013840D01*
X019676Y013833D01*
X019676Y013374D01*
X019991Y013374D02*
X019991Y013970D01*
X020933Y013371D02*
X020933Y012715D01*
X021121Y012528D01*
X020996Y012653D01*
X021246Y012903D02*
X021683Y012465D01*
X021683Y012278D01*
X021433Y012028D01*
X021246Y012028D01*
X021183Y011965D01*
X021246Y012903D02*
X021246Y013369D01*
X021251Y013374D01*
X020936Y013374D02*
X020933Y013371D01*
X022904Y010460D02*
X023688Y010460D01*
X024558Y009590D01*
X024558Y006965D01*
X023996Y006403D01*
X021308Y006403D01*
X020621Y005840D01*
X020621Y005153D01*
X020558Y005090D01*
X020621Y005090D01*
X020808Y004590D02*
X019996Y004590D01*
X019621Y004215D01*
X019621Y004090D01*
X019183Y003215D02*
X018621Y003778D01*
X018621Y004090D01*
X018621Y004153D01*
X019183Y003215D02*
X028308Y003215D01*
X028371Y003278D01*
X028371Y004405D01*
X026621Y005090D02*
X026058Y005653D01*
X025433Y006403D02*
X025433Y008653D01*
X026558Y009590D01*
X027933Y009153D02*
X028308Y008778D01*
X028308Y007900D01*
X028308Y007900D01*
X025433Y006403D02*
X024621Y005590D01*
X023121Y005590D01*
X023121Y004778D01*
X022871Y004528D01*
X022246Y004528D01*
X021808Y004090D01*
X021621Y004090D01*
X019621Y005090D02*
X019621Y005903D01*
X020621Y006653D01*
X023746Y006653D01*
X024246Y007153D01*
X024246Y009528D01*
X023621Y010153D01*
X022871Y010153D01*
X022878Y010145D01*
X022904Y010145D01*
X022904Y009830D02*
X023506Y009830D01*
X023933Y009403D01*
X023933Y007403D01*
X023558Y007028D01*
X022621Y007028D01*
X022621Y007028D01*
X023308Y007403D02*
X021808Y007403D01*
X021621Y007340D01*
X021433Y007840D02*
X021433Y007903D01*
X021246Y008090D01*
X021246Y008778D01*
X021251Y008783D01*
X021251Y008807D01*
X021558Y008778D02*
X021558Y008278D01*
X021933Y007903D01*
X022996Y007903D01*
X023308Y007403D02*
X023621Y007715D01*
X023621Y009215D01*
X023321Y009515D01*
X022904Y009515D01*
X021566Y008807D02*
X021566Y008785D01*
X021558Y008778D01*
X020936Y008807D02*
X020936Y009525D01*
X020933Y009528D01*
X020308Y009590D02*
X020306Y009588D01*
X020306Y008807D01*
X020621Y008807D02*
X020621Y010153D01*
X019676Y008807D02*
X019683Y008799D01*
X019058Y008794D02*
X019046Y008807D01*
X014058Y008028D02*
X013933Y007840D01*
X013308Y007215D01*
X010808Y007215D01*
X010183Y006590D01*
X009183Y006590D01*
X009058Y006715D01*
X010035Y008403D02*
X010558Y008403D01*
X010746Y008590D01*
X011183Y008590D01*
X011058Y008903D02*
X011058Y009465D01*
X011058Y009403D01*
X010035Y009403D01*
X011058Y009403D01*
X011058Y009465D01*
X011058Y009903D01*
X012082Y009903D01*
X012933Y009715D02*
X014183Y010965D01*
X014183Y012278D01*
X012082Y010903D02*
X011058Y010903D01*
X011058Y010403D01*
X011058Y009903D01*
X011058Y010403D02*
X010035Y010403D01*
X011058Y010903D02*
X011058Y011403D01*
X010035Y011403D01*
X008121Y011403D01*
X008121Y012840D01*
X008121Y012090D01*
X010183Y014090D02*
X004121Y014090D01*
X004121Y013590D01*
X005058Y014715D02*
X005121Y014778D01*
X005121Y017653D01*
X005621Y018153D01*
X005621Y018590D01*
X006621Y018590D02*
X006621Y016965D01*
X006058Y016403D01*
X006058Y014528D01*
X005996Y014465D01*
X005558Y015528D02*
X005621Y015590D01*
X005621Y015590D01*
X005621Y015590D01*
X005621Y016403D01*
X006121Y016903D01*
X006121Y021090D01*
X008121Y021090D02*
X008621Y020590D01*
X009621Y020590D01*
X006621Y018653D02*
X006621Y018590D01*
X013558Y020590D02*
X013621Y020528D01*
X013621Y019903D01*
X014183Y019340D01*
X015621Y019340D01*
X016621Y019840D02*
X016621Y020590D01*
X016621Y020590D01*
X016683Y020653D01*
X016621Y019840D02*
X017308Y019153D01*
X017308Y017153D01*
X017186Y017030D01*
X016496Y017030D01*
X016436Y017030D01*
X016433Y017028D01*
X016496Y016965D01*
X016496Y015528D01*
X015808Y017840D02*
X016118Y018150D01*
X016496Y018150D01*
X013621Y020590D02*
X013558Y020590D01*
X013621Y008840D02*
X012933Y008840D01*
X012496Y008403D01*
X012082Y008403D01*
X012082Y008903D02*
X011058Y008903D01*
X010035Y008903D02*
X004621Y008903D01*
X004121Y008403D01*
X004121Y007590D01*
X004621Y007590D02*
X004683Y007653D01*
X004621Y007590D02*
X004621Y006715D01*
X004621Y007590D02*
X004621Y007590D01*
X005121Y007590D02*
X005121Y007653D01*
X005183Y007715D01*
X005183Y008153D01*
X005371Y008340D01*
X005433Y008340D01*
X005496Y008403D01*
X010035Y008403D01*
X006621Y007653D02*
X006621Y007590D01*
D29*
X011058Y009465D02*
X011058Y009465D01*
X008121Y012903D02*
X003683Y012903D01*
X003683Y012715D01*
X003621Y012715D01*
X028121Y017528D02*
X028121Y017590D01*
X030371Y017590D01*
X030371Y003590D01*
X031621Y003590D01*
D30*
X027371Y008778D03*
X027933Y009153D03*
X026933Y009528D03*
X024121Y011965D03*
X023621Y012340D03*
X021183Y011965D03*
X020996Y012653D03*
X019246Y011903D03*
X017558Y012278D03*
X017496Y011715D03*
X015558Y013653D03*
X015121Y014028D03*
X014933Y015090D03*
X015371Y015590D03*
X016496Y015528D03*
X018121Y016278D03*
X020121Y016278D03*
X022183Y016278D03*
X024058Y016278D03*
X026183Y016215D03*
X028121Y015778D03*
X029808Y018215D03*
X020621Y010153D03*
X020308Y009590D03*
X020933Y009528D03*
X021433Y007840D03*
X021621Y007340D03*
X022621Y007028D03*
X022996Y007903D03*
X017121Y005528D03*
X016121Y005528D03*
X014058Y008028D03*
X014621Y008653D03*
X013621Y008840D03*
X013058Y008215D03*
X011183Y008590D03*
X012933Y009715D03*
X014183Y012278D03*
X016808Y008153D03*
X009058Y006715D03*
X004621Y006715D03*
X005996Y014465D03*
X005058Y014715D03*
X015621Y019340D03*
D31*
X016121Y019090D02*
X013621Y016590D01*
X013621Y015090D02*
X012121Y013590D01*
X018121Y017590D02*
X020121Y017590D01*
X022121Y017590D01*
X024121Y017590D01*
X026121Y017590D02*
X026183Y017528D01*
X025121Y013090D02*
X025121Y011641D01*
X025121Y011590D01*
X031621Y010590D02*
X031621Y009590D01*
X031621Y008590D01*
X031621Y007590D01*
X031621Y006590D01*
X031621Y005590D01*
X031621Y004590D01*
X012621Y018590D02*
X012621Y019590D01*
X009621Y019590D01*
X009621Y020590D01*
X009621Y019590D02*
X009621Y018590D01*
X015621Y020090D02*
X015621Y020590D01*
X015621Y020090D02*
X016121Y019590D01*
X016121Y019090D01*
D32*
X012121Y013590D03*
X025121Y013090D03*
D33*
X027121Y010340D03*
X015808Y017840D03*
X006121Y003215D03*
X006621Y002715D03*
M02*
