G75*
G70*
%OFA0B0*%
%FSLAX24Y24*%
%IPPOS*%
%LPD*%
%AMOC8*
5,1,8,0,0,1.08239X$1,22.5*
%
%ADD10R,0.0595X0.0595*%
%ADD11O,0.1120X0.0600*%
%ADD12O,0.0600X0.1120*%
%ADD13C,0.0830*%
%ADD14OC8,0.0830*%
%ADD15O,0.0680X0.1280*%
%ADD16OC8,0.0680*%
%ADD17C,0.1080*%
%ADD18OC8,0.1080*%
%ADD19C,0.0600*%
%ADD20C,0.0476*%
%ADD21C,0.0480*%
%ADD22R,0.0476X0.0476*%
D10*
X031621Y003590D03*
X031621Y004590D03*
X031621Y005590D03*
X031621Y006590D03*
X031621Y007590D03*
X031621Y008590D03*
X031621Y009590D03*
X031621Y010590D03*
X031621Y011590D03*
X031621Y012590D03*
X031621Y013590D03*
X031621Y014590D03*
X031621Y015590D03*
X031621Y016590D03*
X031621Y017590D03*
X031621Y018590D03*
X031621Y019590D03*
X031621Y020590D03*
D11*
X028121Y014590D03*
X028121Y013590D03*
X028121Y012590D03*
X028121Y011590D03*
D12*
X010621Y015590D03*
X009621Y015590D03*
X008621Y015590D03*
X007621Y015590D03*
X006621Y015590D03*
X005621Y015590D03*
X004621Y015590D03*
X003621Y015590D03*
X003621Y018590D03*
X004621Y018590D03*
X005621Y018590D03*
X006621Y018590D03*
X007621Y018590D03*
X008621Y018590D03*
X009621Y018590D03*
X010621Y018590D03*
D13*
X012621Y016590D03*
X014621Y016590D03*
X006121Y021090D03*
X005121Y021090D03*
D14*
X003121Y021090D03*
X008121Y021090D03*
X012621Y018590D03*
X014621Y018590D03*
D15*
X014621Y020590D03*
X013621Y020590D03*
X015621Y020590D03*
X016621Y020590D03*
X011621Y020590D03*
X010621Y020590D03*
X009621Y020590D03*
X021871Y015153D03*
X022871Y015153D03*
X023871Y015153D03*
D16*
X023621Y005090D03*
X024621Y005090D03*
X025621Y005090D03*
X026621Y005090D03*
X026621Y004090D03*
X025621Y004090D03*
X024621Y004090D03*
X023621Y004090D03*
X022621Y004090D03*
X021621Y004090D03*
X020621Y004090D03*
X019621Y004090D03*
X018621Y004090D03*
X017621Y004090D03*
X016621Y004090D03*
X015621Y004090D03*
X014621Y004090D03*
X013621Y004090D03*
X012621Y004090D03*
X011621Y004090D03*
X010621Y004090D03*
X009621Y004090D03*
X008621Y004090D03*
X007621Y004090D03*
X007621Y005090D03*
X008621Y005090D03*
X009621Y005090D03*
X010621Y005090D03*
X011621Y005090D03*
X012621Y005090D03*
X013621Y005090D03*
X014621Y005090D03*
X015621Y005090D03*
X016621Y005090D03*
X017621Y005090D03*
X018621Y005090D03*
X019621Y005090D03*
X020621Y005090D03*
X021621Y005090D03*
X022621Y005090D03*
D17*
X013621Y013090D03*
X004621Y005590D03*
D18*
X004621Y003590D03*
X013621Y015090D03*
D19*
X016058Y012290D03*
X016058Y010390D03*
D20*
X017496Y011715D03*
X017558Y012278D03*
X019246Y011903D03*
X020996Y012653D03*
X021183Y011965D03*
X023621Y012340D03*
X024121Y011965D03*
X026933Y009528D03*
X027371Y008778D03*
X027933Y009153D03*
X022996Y007903D03*
X022621Y007028D03*
X021621Y007340D03*
X021433Y007840D03*
X020933Y009528D03*
X020308Y009590D03*
X020621Y010153D03*
X016808Y008153D03*
X014621Y008653D03*
X013621Y008840D03*
X013058Y008215D03*
X014058Y008028D03*
X012933Y009715D03*
X011183Y008590D03*
X009058Y006715D03*
X004621Y006715D03*
X014183Y012278D03*
X015558Y013653D03*
X015121Y014028D03*
X014933Y015090D03*
X015371Y015590D03*
X016496Y015528D03*
X018121Y016278D03*
X020121Y016278D03*
X022183Y016278D03*
X024058Y016278D03*
X026183Y016215D03*
X028121Y015778D03*
X029808Y018215D03*
X015621Y019340D03*
X005996Y014465D03*
X005058Y014715D03*
X016121Y005528D03*
X017121Y005528D03*
D21*
X025121Y013090D03*
X012121Y013590D03*
D22*
X015808Y017840D03*
X027121Y010340D03*
X006621Y002715D03*
X006121Y003215D03*
M02*
