G75*
G70*
%OFA0B0*%
%FSLAX24Y24*%
%IPPOS*%
%LPD*%
%AMOC8*
5,1,8,0,0,1.08239X$1,22.5*
%
%ADD10R,0.0515X0.0515*%
%ADD11O,0.1040X0.0520*%
%ADD12O,0.0520X0.1040*%
%ADD13C,0.0750*%
%ADD14OC8,0.0750*%
%ADD15O,0.0600X0.1200*%
%ADD16OC8,0.0600*%
%ADD17C,0.1000*%
%ADD18OC8,0.1000*%
%ADD19C,0.0520*%
%ADD20C,0.0240*%
%ADD21C,0.0100*%
%ADD22C,0.0396*%
%ADD23C,0.0200*%
%ADD24C,0.0400*%
%ADD25C,0.0160*%
%ADD26R,0.0396X0.0396*%
D10*
X031621Y003590D03*
X031621Y004590D03*
X031621Y005590D03*
X031621Y006590D03*
X031621Y007590D03*
X031621Y008590D03*
X031621Y009590D03*
X031621Y010590D03*
X031621Y011590D03*
X031621Y012590D03*
X031621Y013590D03*
X031621Y014590D03*
X031621Y015590D03*
X031621Y016590D03*
X031621Y017590D03*
X031621Y018590D03*
X031621Y019590D03*
X031621Y020590D03*
D11*
X028121Y014590D03*
X028121Y013590D03*
X028121Y012590D03*
X028121Y011590D03*
D12*
X010621Y015590D03*
X009621Y015590D03*
X008621Y015590D03*
X007621Y015590D03*
X006621Y015590D03*
X005621Y015590D03*
X004621Y015590D03*
X003621Y015590D03*
X003621Y018590D03*
X004621Y018590D03*
X005621Y018590D03*
X006621Y018590D03*
X007621Y018590D03*
X008621Y018590D03*
X009621Y018590D03*
X010621Y018590D03*
D13*
X012621Y016590D03*
X014621Y016590D03*
X006121Y021090D03*
X005121Y021090D03*
D14*
X003121Y021090D03*
X008121Y021090D03*
X012621Y018590D03*
X014621Y018590D03*
D15*
X014621Y020590D03*
X013621Y020590D03*
X015621Y020590D03*
X016621Y020590D03*
X011621Y020590D03*
X010621Y020590D03*
X009621Y020590D03*
X021871Y015153D03*
X022871Y015153D03*
X023871Y015153D03*
D16*
X023621Y005090D03*
X024621Y005090D03*
X025621Y005090D03*
X026621Y005090D03*
X026621Y004090D03*
X025621Y004090D03*
X024621Y004090D03*
X023621Y004090D03*
X022621Y004090D03*
X021621Y004090D03*
X020621Y004090D03*
X019621Y004090D03*
X018621Y004090D03*
X017621Y004090D03*
X016621Y004090D03*
X015621Y004090D03*
X014621Y004090D03*
X013621Y004090D03*
X012621Y004090D03*
X011621Y004090D03*
X010621Y004090D03*
X009621Y004090D03*
X008621Y004090D03*
X007621Y004090D03*
X007621Y005090D03*
X008621Y005090D03*
X009621Y005090D03*
X010621Y005090D03*
X011621Y005090D03*
X012621Y005090D03*
X013621Y005090D03*
X014621Y005090D03*
X015621Y005090D03*
X016621Y005090D03*
X017621Y005090D03*
X018621Y005090D03*
X019621Y005090D03*
X020621Y005090D03*
X021621Y005090D03*
X022621Y005090D03*
D17*
X013621Y013090D03*
X004621Y005590D03*
D18*
X004621Y003590D03*
X013621Y015090D03*
D19*
X016058Y012290D03*
X016058Y010390D03*
D20*
X014621Y008653D02*
X014621Y005090D01*
X015621Y005090D01*
X016621Y005090D01*
X017121Y004590D02*
X017621Y005090D01*
X018121Y004590D02*
X018121Y002715D01*
X006621Y002715D01*
X006121Y003215D02*
X017121Y003215D01*
X017121Y003278D02*
X017121Y004528D01*
X018121Y004590D02*
X018621Y005090D01*
X013621Y005090D02*
X013621Y008840D01*
X013621Y009153D01*
X013621Y013090D01*
X013621Y013153D01*
X013058Y008215D02*
X004058Y008215D01*
X003496Y007653D01*
X003496Y005590D01*
X004621Y005590D01*
X004621Y003590D02*
X005621Y003590D01*
X007621Y005090D01*
X008621Y005090D01*
X009621Y005090D01*
X010621Y005090D01*
X011621Y005090D02*
X012621Y005090D01*
X013621Y005090D01*
X024058Y016215D02*
X026183Y016215D01*
X024058Y016215D02*
X024058Y016278D01*
D21*
X028121Y015778D02*
X029121Y015778D01*
X029808Y016465D01*
X029808Y018215D01*
X024871Y012403D02*
X023621Y012340D01*
X024121Y011965D02*
X026558Y009653D01*
X026933Y009528D01*
X027121Y010340D02*
X024871Y012403D01*
X028121Y011590D02*
X030621Y011590D01*
X031621Y010590D01*
X027933Y009153D02*
X024558Y009153D01*
X020996Y012653D01*
X021183Y011965D02*
X024371Y008778D01*
X027371Y008778D01*
X024621Y006965D02*
X023308Y008278D01*
X022058Y008278D01*
X021433Y007840D01*
X021621Y007340D02*
X021621Y005090D01*
X021621Y005028D01*
X022558Y005028D02*
X022621Y005090D01*
X022621Y005090D01*
X022621Y005090D01*
X022621Y007028D01*
X022996Y007903D02*
X023621Y007153D01*
X023621Y005090D01*
X024621Y005090D02*
X024621Y006965D01*
X020933Y009528D02*
X020933Y011653D01*
X017433Y015153D01*
X017433Y017528D01*
X015621Y019340D01*
X014621Y019715D02*
X014621Y020528D01*
X014558Y020590D01*
X014621Y020590D01*
X014621Y019715D02*
X017121Y017215D01*
X017121Y015028D01*
X020621Y011528D01*
X020621Y010153D01*
X020308Y009590D02*
X020308Y011340D01*
X016496Y015153D01*
X016496Y015528D01*
X015808Y015278D02*
X013621Y013090D01*
X014183Y012590D02*
X014183Y012278D01*
X014621Y012403D02*
X014621Y009278D01*
X014121Y008778D01*
X014121Y007965D01*
X014058Y008028D01*
X013621Y008840D02*
X013621Y009090D01*
X013558Y009153D01*
X013621Y009153D01*
X012933Y009715D02*
X012308Y009715D01*
X011183Y008590D01*
X009058Y006715D02*
X004621Y006715D01*
X014183Y012590D02*
X015121Y013528D01*
X015121Y014028D01*
X015558Y013653D02*
X015558Y013340D01*
X014621Y012403D01*
X016058Y012290D02*
X016058Y012278D01*
X017558Y012278D01*
X017496Y011715D02*
X016058Y010465D01*
X016058Y010390D01*
X016496Y009215D02*
X016496Y005840D01*
X016121Y005528D01*
X017121Y005528D02*
X017121Y007840D01*
X016808Y008153D01*
X016496Y009215D02*
X019183Y011903D01*
X019246Y011903D01*
X014933Y015090D02*
X014058Y014215D01*
X004996Y014215D01*
X005058Y014278D01*
X005058Y014715D01*
X005996Y014465D02*
X011433Y014465D01*
X012683Y015715D01*
X013246Y015715D01*
X013433Y015903D01*
X015058Y015903D01*
X015371Y015590D01*
X015808Y015278D02*
X015808Y017840D01*
X014621Y018590D02*
X013933Y018590D01*
X012621Y017278D01*
X009808Y017278D01*
X008621Y016090D01*
X008621Y015590D01*
X008621Y015528D01*
X009621Y015590D02*
X009683Y015590D01*
X009621Y015653D01*
X009621Y016090D01*
X010121Y016590D01*
X012621Y016590D01*
X012996Y015965D02*
X010933Y015965D01*
X010558Y015590D01*
X010621Y015590D01*
X012996Y015965D02*
X013621Y016590D01*
X014621Y016590D01*
X011621Y019653D02*
X008621Y019653D01*
X008621Y018590D01*
X008621Y018528D01*
X007621Y018590D02*
X007621Y019965D01*
X008933Y019965D01*
X008933Y021403D01*
X010621Y021403D01*
X010621Y020590D01*
X011621Y020590D02*
X011621Y019653D01*
X007621Y016590D02*
X007621Y015715D01*
X007558Y015653D01*
X007621Y015590D01*
X006621Y015590D02*
X006621Y016715D01*
X006558Y016778D01*
X003433Y016778D01*
X002808Y017403D01*
X002808Y020715D01*
X003121Y021028D01*
X003121Y021090D01*
X005121Y021090D02*
X006058Y020153D01*
X006058Y017278D01*
X006121Y017215D01*
X006996Y017215D01*
X007621Y016590D01*
X017121Y004590D02*
X017121Y004528D01*
X017121Y003278D02*
X017121Y003215D01*
D22*
X017121Y005528D03*
X016121Y005528D03*
X014058Y008028D03*
X014621Y008653D03*
X013621Y008840D03*
X013058Y008215D03*
X011183Y008590D03*
X012933Y009715D03*
X014183Y012278D03*
X015558Y013653D03*
X015121Y014028D03*
X014933Y015090D03*
X015371Y015590D03*
X016496Y015528D03*
X018121Y016278D03*
X020121Y016278D03*
X022183Y016278D03*
X024058Y016278D03*
X026183Y016215D03*
X028121Y015778D03*
X029808Y018215D03*
X023621Y012340D03*
X024121Y011965D03*
X021183Y011965D03*
X020996Y012653D03*
X019246Y011903D03*
X017558Y012278D03*
X017496Y011715D03*
X020621Y010153D03*
X020308Y009590D03*
X020933Y009528D03*
X021433Y007840D03*
X021621Y007340D03*
X022621Y007028D03*
X022996Y007903D03*
X026933Y009528D03*
X027371Y008778D03*
X027933Y009153D03*
X016808Y008153D03*
X009058Y006715D03*
X004621Y006715D03*
X005996Y014465D03*
X005058Y014715D03*
X015621Y019340D03*
D23*
X012121Y013590D02*
X003121Y013590D01*
X003121Y005090D01*
X003621Y004590D01*
X004621Y004590D01*
X005621Y005590D01*
X008121Y005590D01*
X008621Y005090D01*
X025121Y013090D02*
X027121Y013090D01*
X027121Y012090D01*
X027621Y011590D01*
X028121Y011590D01*
X027121Y013090D02*
X027121Y015090D01*
X026121Y016090D01*
X026183Y016215D01*
X027121Y015090D02*
X029121Y015090D01*
X031621Y017590D01*
D24*
X025121Y013090D03*
X012121Y013590D03*
D25*
X006263Y002822D02*
X002416Y002822D01*
X002416Y021608D01*
X002882Y021608D01*
X002586Y021312D01*
X002586Y020869D01*
X002625Y020829D01*
X002598Y020802D01*
X002598Y020628D01*
X002598Y017316D01*
X002721Y017193D01*
X002721Y017193D01*
X003346Y016568D01*
X003520Y016568D01*
X006411Y016568D01*
X006411Y016234D01*
X006201Y016024D01*
X006201Y015156D01*
X006447Y014910D01*
X006795Y014910D01*
X007041Y015156D01*
X007041Y016024D01*
X006831Y016234D01*
X006831Y016628D01*
X006831Y016802D01*
X006768Y016865D01*
X006768Y016865D01*
X006645Y016988D01*
X003520Y016988D01*
X003018Y017490D01*
X003018Y020555D01*
X003343Y020555D01*
X003656Y020869D01*
X003656Y021312D01*
X003359Y021608D01*
X004974Y021608D01*
X004818Y021544D01*
X004667Y021393D01*
X004586Y021197D01*
X004586Y020984D01*
X004667Y020787D01*
X004818Y020637D01*
X005014Y020555D01*
X005227Y020555D01*
X005320Y020594D01*
X005848Y020066D01*
X005848Y019217D01*
X005795Y019270D01*
X005447Y019270D01*
X005201Y019024D01*
X005201Y018156D01*
X005447Y017910D01*
X005795Y017910D01*
X005848Y017964D01*
X005848Y017365D01*
X005848Y017191D01*
X005911Y017128D01*
X006034Y017005D01*
X006909Y017005D01*
X007411Y016503D01*
X007411Y016234D01*
X007201Y016024D01*
X007201Y015156D01*
X007447Y014910D01*
X007795Y014910D01*
X008041Y015156D01*
X008041Y016024D01*
X007831Y016234D01*
X007831Y016677D01*
X007708Y016800D01*
X007083Y017425D01*
X006909Y017425D01*
X006268Y017425D01*
X006268Y018089D01*
X006447Y017910D01*
X006795Y017910D01*
X007041Y018156D01*
X007041Y019024D01*
X006795Y019270D01*
X006447Y019270D01*
X006268Y019092D01*
X006268Y020240D01*
X006145Y020363D01*
X005909Y020599D01*
X006014Y020555D01*
X006227Y020555D01*
X006424Y020637D01*
X006574Y020787D01*
X006656Y020984D01*
X006656Y021197D01*
X006574Y021393D01*
X006424Y021544D01*
X006268Y021608D01*
X007854Y021608D01*
X007566Y021320D01*
X007566Y021090D01*
X008121Y021090D01*
X008121Y021090D01*
X008121Y020535D01*
X008351Y020535D01*
X008676Y020860D01*
X008676Y021090D01*
X008121Y021090D01*
X008121Y020535D01*
X007891Y020535D01*
X007566Y020860D01*
X007566Y021090D01*
X008121Y021090D01*
X008121Y021090D01*
X008121Y021090D01*
X008676Y021090D01*
X008676Y021320D01*
X008388Y021608D01*
X008842Y021608D01*
X008723Y021490D01*
X008723Y020175D01*
X007708Y020175D01*
X007534Y020175D01*
X007411Y020052D01*
X007411Y019234D01*
X007201Y019024D01*
X007201Y018156D01*
X007447Y017910D01*
X007795Y017910D01*
X008041Y018156D01*
X008041Y019024D01*
X007831Y019234D01*
X007831Y019755D01*
X008426Y019755D01*
X008411Y019740D01*
X008411Y019234D01*
X008201Y019024D01*
X008201Y018156D01*
X008447Y017910D01*
X008795Y017910D01*
X009041Y018156D01*
X009041Y019024D01*
X008831Y019234D01*
X008831Y019443D01*
X011708Y019443D01*
X011831Y019566D01*
X011831Y019740D01*
X011831Y019850D01*
X012081Y020100D01*
X012081Y021081D01*
X011811Y021350D01*
X011430Y021350D01*
X011161Y021081D01*
X011161Y020100D01*
X011398Y019863D01*
X010844Y019863D01*
X011081Y020100D01*
X011081Y021081D01*
X010831Y021331D01*
X010831Y021490D01*
X010712Y021608D01*
X031826Y021608D01*
X031826Y021008D01*
X031297Y021008D01*
X031203Y020914D01*
X031203Y020266D01*
X031297Y020173D01*
X031826Y020173D01*
X031826Y020008D01*
X031297Y020008D01*
X031203Y019914D01*
X031203Y019266D01*
X031297Y019173D01*
X031826Y019173D01*
X031826Y019008D01*
X031297Y019008D01*
X031203Y018914D01*
X031203Y018266D01*
X031297Y018173D01*
X031826Y018173D01*
X031826Y018028D01*
X031621Y018028D01*
X031621Y017591D01*
X031621Y017591D01*
X031621Y018028D01*
X031289Y018028D01*
X031183Y017922D01*
X031183Y017590D01*
X031621Y017590D01*
X031621Y017590D01*
X031621Y017153D01*
X031826Y017153D01*
X031826Y017008D01*
X031297Y017008D01*
X031203Y016914D01*
X031203Y016266D01*
X031297Y016173D01*
X031826Y016173D01*
X031826Y016008D01*
X031297Y016008D01*
X031203Y015914D01*
X031203Y015266D01*
X031297Y015173D01*
X031826Y015173D01*
X031826Y015008D01*
X031297Y015008D01*
X031203Y014914D01*
X031203Y014830D01*
X028735Y014830D01*
X028555Y015010D01*
X027687Y015010D01*
X027441Y014764D01*
X027441Y014416D01*
X027687Y014170D01*
X028555Y014170D01*
X028735Y014350D01*
X031203Y014350D01*
X031203Y014266D01*
X031297Y014173D01*
X031826Y014173D01*
X031826Y014008D01*
X031297Y014008D01*
X031203Y013914D01*
X031203Y013830D01*
X028735Y013830D01*
X028555Y014010D01*
X027687Y014010D01*
X027441Y013764D01*
X027441Y013416D01*
X027687Y013170D01*
X028555Y013170D01*
X028735Y013350D01*
X031203Y013350D01*
X031203Y013266D01*
X031297Y013173D01*
X031826Y013173D01*
X031826Y013008D01*
X031297Y013008D01*
X031203Y012914D01*
X031203Y012830D01*
X028735Y012830D01*
X028555Y013010D01*
X027687Y013010D01*
X027441Y012764D01*
X027441Y012416D01*
X027687Y012170D01*
X028555Y012170D01*
X028735Y012350D01*
X031203Y012350D01*
X031203Y012266D01*
X031297Y012173D01*
X031826Y012173D01*
X031826Y012008D01*
X031297Y012008D01*
X031203Y011914D01*
X031203Y011266D01*
X031297Y011173D01*
X031826Y011173D01*
X031826Y011028D01*
X031621Y011028D01*
X031621Y010591D01*
X031621Y010591D01*
X031621Y011028D01*
X031289Y011028D01*
X031183Y010922D01*
X031183Y010590D01*
X031621Y010590D01*
X031621Y010590D01*
X031621Y010153D01*
X031826Y010153D01*
X031826Y010028D01*
X031621Y010028D01*
X031621Y009591D01*
X031621Y009591D01*
X031621Y010028D01*
X031289Y010028D01*
X031183Y009922D01*
X031183Y009590D01*
X031621Y009590D01*
X031621Y009590D01*
X031621Y009153D01*
X031826Y009153D01*
X031826Y009028D01*
X031621Y009028D01*
X031621Y008591D01*
X031621Y008591D01*
X031621Y009028D01*
X031289Y009028D01*
X031183Y008922D01*
X031183Y008590D01*
X031621Y008590D01*
X031621Y008590D01*
X031621Y008153D01*
X031826Y008153D01*
X031826Y008028D01*
X031621Y008028D01*
X031621Y007591D01*
X031621Y007591D01*
X031621Y008028D01*
X031289Y008028D01*
X031183Y007922D01*
X031183Y007590D01*
X031621Y007590D01*
X031621Y007590D01*
X031621Y007153D01*
X031826Y007153D01*
X031826Y007028D01*
X031621Y007028D01*
X031621Y006591D01*
X031621Y006591D01*
X031621Y007028D01*
X031289Y007028D01*
X031183Y006922D01*
X031183Y006590D01*
X031621Y006590D01*
X031621Y006590D01*
X031621Y006153D01*
X031826Y006153D01*
X031826Y006028D01*
X031621Y006028D01*
X031621Y005591D01*
X031621Y005591D01*
X031621Y006028D01*
X031289Y006028D01*
X031183Y005922D01*
X031183Y005590D01*
X031621Y005590D01*
X031621Y005590D01*
X031621Y005153D01*
X031826Y005153D01*
X031826Y005028D01*
X031621Y005028D01*
X031621Y004591D01*
X031621Y004591D01*
X031621Y005028D01*
X031289Y005028D01*
X031183Y004922D01*
X031183Y004590D01*
X031621Y004590D01*
X031621Y004590D01*
X031621Y004153D01*
X031826Y004153D01*
X031826Y004008D01*
X031297Y004008D01*
X031203Y003914D01*
X031203Y003266D01*
X031297Y003173D01*
X031826Y003173D01*
X031826Y002822D01*
X018401Y002822D01*
X018401Y002831D01*
X018401Y003660D01*
X018430Y003630D01*
X018811Y003630D01*
X019081Y003900D01*
X019081Y004281D01*
X018811Y004550D01*
X018477Y004550D01*
X018557Y004630D01*
X018811Y004630D01*
X019081Y004900D01*
X019081Y005281D01*
X018811Y005550D01*
X018430Y005550D01*
X018161Y005281D01*
X018161Y005026D01*
X018081Y004946D01*
X018081Y005281D01*
X017811Y005550D01*
X017479Y005550D01*
X017479Y005599D01*
X017424Y005731D01*
X017331Y005824D01*
X017331Y007753D01*
X017331Y007927D01*
X017166Y008092D01*
X017166Y008224D01*
X017112Y008356D01*
X017011Y008456D01*
X021940Y008456D01*
X021923Y008439D02*
X021971Y008488D01*
X021992Y008488D01*
X022145Y008488D01*
X023395Y008488D01*
X023518Y008365D01*
X024831Y007052D01*
X024831Y006878D01*
X024831Y005531D01*
X025081Y005281D01*
X025081Y004900D01*
X024811Y004630D01*
X024430Y004630D01*
X024161Y004900D01*
X024161Y005281D01*
X024411Y005531D01*
X024411Y006878D01*
X023354Y007935D01*
X023354Y007831D01*
X023346Y007811D01*
X023776Y007295D01*
X023831Y007240D01*
X023831Y007229D01*
X023831Y007066D01*
X023831Y005531D01*
X024081Y005281D01*
X024081Y004900D01*
X023811Y004630D01*
X023430Y004630D01*
X023161Y004900D01*
X023161Y005281D01*
X023411Y005531D01*
X023411Y007077D01*
X023021Y007545D01*
X022925Y007545D01*
X022793Y007599D01*
X022692Y007700D01*
X022638Y007831D01*
X022638Y007974D01*
X022677Y008068D01*
X022125Y008068D01*
X021791Y007835D01*
X021791Y007769D01*
X021752Y007674D01*
X021824Y007644D01*
X021924Y007543D01*
X021979Y007411D01*
X021979Y007269D01*
X021924Y007137D01*
X021831Y007044D01*
X021831Y005531D01*
X022081Y005281D01*
X022081Y004900D01*
X021811Y004630D01*
X021430Y004630D01*
X021161Y004900D01*
X021161Y005281D01*
X021411Y005531D01*
X021411Y007044D01*
X021317Y007137D01*
X021263Y007269D01*
X021263Y007411D01*
X021302Y007507D01*
X021231Y007537D01*
X021130Y007637D01*
X021075Y007769D01*
X021075Y007911D01*
X021130Y008043D01*
X021231Y008144D01*
X021362Y008198D01*
X021505Y008198D01*
X021551Y008179D01*
X021923Y008439D01*
X021721Y008298D02*
X017136Y008298D01*
X017166Y008139D02*
X021226Y008139D01*
X021104Y007981D02*
X017277Y007981D01*
X017331Y007822D02*
X021075Y007822D01*
X021119Y007664D02*
X017331Y007664D01*
X017331Y007505D02*
X021302Y007505D01*
X021263Y007347D02*
X017331Y007347D01*
X017331Y007188D02*
X021296Y007188D01*
X021411Y007029D02*
X017331Y007029D01*
X017331Y006871D02*
X021411Y006871D01*
X021411Y006712D02*
X017331Y006712D01*
X017331Y006554D02*
X021411Y006554D01*
X021411Y006395D02*
X017331Y006395D01*
X017331Y006237D02*
X021411Y006237D01*
X021411Y006078D02*
X017331Y006078D01*
X017331Y005920D02*
X021411Y005920D01*
X021411Y005761D02*
X017394Y005761D01*
X017478Y005603D02*
X021411Y005603D01*
X021324Y005444D02*
X020918Y005444D01*
X020811Y005550D02*
X021081Y005281D01*
X021081Y004900D01*
X020811Y004630D01*
X020430Y004630D01*
X020161Y004900D01*
X020161Y005281D01*
X020430Y005550D01*
X020811Y005550D01*
X021076Y005285D02*
X021166Y005285D01*
X021161Y005127D02*
X021081Y005127D01*
X021081Y004968D02*
X021161Y004968D01*
X021251Y004810D02*
X020991Y004810D01*
X020833Y004651D02*
X021409Y004651D01*
X021430Y004550D02*
X021811Y004550D01*
X022081Y004281D01*
X022081Y003900D01*
X021811Y003630D01*
X021430Y003630D01*
X021161Y003900D01*
X021161Y004281D01*
X021430Y004550D01*
X021373Y004493D02*
X020869Y004493D01*
X020811Y004550D02*
X021081Y004281D01*
X021081Y003900D01*
X020811Y003630D01*
X020430Y003630D01*
X020161Y003900D01*
X020161Y004281D01*
X020430Y004550D01*
X020811Y004550D01*
X021027Y004334D02*
X021214Y004334D01*
X021161Y004176D02*
X021081Y004176D01*
X021081Y004017D02*
X021161Y004017D01*
X021202Y003859D02*
X021040Y003859D01*
X020881Y003700D02*
X021361Y003700D01*
X021881Y003700D02*
X022361Y003700D01*
X022430Y003630D02*
X022161Y003900D01*
X022161Y004281D01*
X022430Y004550D01*
X022811Y004550D01*
X023081Y004281D01*
X023081Y003900D01*
X022811Y003630D01*
X022430Y003630D01*
X022202Y003859D02*
X022040Y003859D01*
X022081Y004017D02*
X022161Y004017D01*
X022161Y004176D02*
X022081Y004176D01*
X022027Y004334D02*
X022214Y004334D01*
X022373Y004493D02*
X021869Y004493D01*
X021833Y004651D02*
X022409Y004651D01*
X022430Y004630D02*
X022161Y004900D01*
X022161Y005281D01*
X022411Y005531D01*
X022411Y006731D01*
X022317Y006825D01*
X022263Y006956D01*
X022263Y007099D01*
X022317Y007231D01*
X022418Y007331D01*
X022550Y007386D01*
X022692Y007386D01*
X022824Y007331D01*
X022924Y007231D01*
X022979Y007099D01*
X022979Y006956D01*
X022924Y006825D01*
X022831Y006731D01*
X022831Y005531D01*
X023081Y005281D01*
X023081Y004900D01*
X022811Y004630D01*
X022430Y004630D01*
X022251Y004810D02*
X021991Y004810D01*
X022081Y004968D02*
X022161Y004968D01*
X022161Y005127D02*
X022081Y005127D01*
X022076Y005285D02*
X022166Y005285D01*
X022324Y005444D02*
X021918Y005444D01*
X021831Y005603D02*
X022411Y005603D01*
X022411Y005761D02*
X021831Y005761D01*
X021831Y005920D02*
X022411Y005920D01*
X022411Y006078D02*
X021831Y006078D01*
X021831Y006237D02*
X022411Y006237D01*
X022411Y006395D02*
X021831Y006395D01*
X021831Y006554D02*
X022411Y006554D01*
X022411Y006712D02*
X021831Y006712D01*
X021831Y006871D02*
X022298Y006871D01*
X022263Y007029D02*
X021831Y007029D01*
X021945Y007188D02*
X022300Y007188D01*
X022455Y007347D02*
X021979Y007347D01*
X021940Y007505D02*
X023054Y007505D01*
X023186Y007347D02*
X022787Y007347D01*
X022942Y007188D02*
X023318Y007188D01*
X023411Y007029D02*
X022979Y007029D01*
X022944Y006871D02*
X023411Y006871D01*
X023411Y006712D02*
X022831Y006712D01*
X022831Y006554D02*
X023411Y006554D01*
X023411Y006395D02*
X022831Y006395D01*
X022831Y006237D02*
X023411Y006237D01*
X023411Y006078D02*
X022831Y006078D01*
X022831Y005920D02*
X023411Y005920D01*
X023411Y005761D02*
X022831Y005761D01*
X022831Y005603D02*
X023411Y005603D01*
X023324Y005444D02*
X022918Y005444D01*
X023076Y005285D02*
X023166Y005285D01*
X023161Y005127D02*
X023081Y005127D01*
X023081Y004968D02*
X023161Y004968D01*
X023251Y004810D02*
X022991Y004810D01*
X022833Y004651D02*
X023409Y004651D01*
X023430Y004550D02*
X023811Y004550D01*
X024081Y004281D01*
X024081Y003900D01*
X023811Y003630D01*
X023430Y003630D01*
X023161Y003900D01*
X023161Y004281D01*
X023430Y004550D01*
X023373Y004493D02*
X022869Y004493D01*
X023027Y004334D02*
X023214Y004334D01*
X023161Y004176D02*
X023081Y004176D01*
X023081Y004017D02*
X023161Y004017D01*
X023202Y003859D02*
X023040Y003859D01*
X022881Y003700D02*
X023361Y003700D01*
X023881Y003700D02*
X024361Y003700D01*
X024430Y003630D02*
X024161Y003900D01*
X024161Y004281D01*
X024430Y004550D01*
X024811Y004550D01*
X025081Y004281D01*
X025081Y003900D01*
X024811Y003630D01*
X024430Y003630D01*
X024202Y003859D02*
X024040Y003859D01*
X024081Y004017D02*
X024161Y004017D01*
X024161Y004176D02*
X024081Y004176D01*
X024027Y004334D02*
X024214Y004334D01*
X024373Y004493D02*
X023869Y004493D01*
X023833Y004651D02*
X024409Y004651D01*
X024251Y004810D02*
X023991Y004810D01*
X024081Y004968D02*
X024161Y004968D01*
X024161Y005127D02*
X024081Y005127D01*
X024076Y005285D02*
X024166Y005285D01*
X024324Y005444D02*
X023918Y005444D01*
X023831Y005603D02*
X024411Y005603D01*
X024411Y005761D02*
X023831Y005761D01*
X023831Y005920D02*
X024411Y005920D01*
X024411Y006078D02*
X023831Y006078D01*
X023831Y006237D02*
X024411Y006237D01*
X024411Y006395D02*
X023831Y006395D01*
X023831Y006554D02*
X024411Y006554D01*
X024411Y006712D02*
X023831Y006712D01*
X023831Y006871D02*
X024411Y006871D01*
X024260Y007029D02*
X023831Y007029D01*
X023831Y007188D02*
X024101Y007188D01*
X023943Y007347D02*
X023733Y007347D01*
X023784Y007505D02*
X023601Y007505D01*
X023626Y007664D02*
X023468Y007664D01*
X023467Y007822D02*
X023350Y007822D01*
X023744Y008139D02*
X031826Y008139D01*
X031621Y008153D02*
X031289Y008153D01*
X031183Y008258D01*
X031183Y008590D01*
X031621Y008590D01*
X031621Y008153D01*
X031621Y008298D02*
X031621Y008298D01*
X031621Y008456D02*
X031621Y008456D01*
X031621Y008590D02*
X031621Y008590D01*
X031621Y008615D02*
X031621Y008615D01*
X031621Y008773D02*
X031621Y008773D01*
X031621Y008932D02*
X031621Y008932D01*
X031621Y009153D02*
X031289Y009153D01*
X031183Y009258D01*
X031183Y009590D01*
X031621Y009590D01*
X031621Y009153D01*
X031621Y009249D02*
X031621Y009249D01*
X031621Y009408D02*
X031621Y009408D01*
X031621Y009566D02*
X031621Y009566D01*
X031621Y009590D02*
X031621Y009590D01*
X031621Y009725D02*
X031621Y009725D01*
X031621Y009883D02*
X031621Y009883D01*
X031826Y010042D02*
X027445Y010042D01*
X027479Y010076D02*
X027385Y009982D01*
X026856Y009982D01*
X026763Y010076D01*
X026763Y010384D01*
X024794Y012189D01*
X024422Y012170D01*
X024424Y012168D01*
X024479Y012036D01*
X024479Y011915D01*
X026669Y009837D01*
X026720Y009820D01*
X026731Y009831D01*
X026862Y009886D01*
X027005Y009886D01*
X027136Y009831D01*
X027237Y009731D01*
X027291Y009599D01*
X027291Y009456D01*
X027253Y009363D01*
X027637Y009363D01*
X027731Y009456D01*
X027862Y009511D01*
X028005Y009511D01*
X028136Y009456D01*
X028237Y009356D01*
X028291Y009224D01*
X028291Y009081D01*
X028237Y008950D01*
X028136Y008849D01*
X028005Y008795D01*
X027862Y008795D01*
X027731Y008849D01*
X027728Y008852D01*
X027729Y008849D01*
X027729Y008706D01*
X027674Y008575D01*
X027574Y008474D01*
X027442Y008420D01*
X027300Y008420D01*
X027168Y008474D01*
X027074Y008568D01*
X024284Y008568D01*
X024161Y008691D01*
X021245Y011607D01*
X021143Y011607D01*
X021143Y011566D01*
X021143Y009824D01*
X021237Y009731D01*
X021291Y009599D01*
X021291Y009456D01*
X021237Y009325D01*
X021136Y009224D01*
X021005Y009170D01*
X020862Y009170D01*
X020731Y009224D01*
X020630Y009325D01*
X020606Y009382D01*
X020511Y009287D01*
X020380Y009232D01*
X020237Y009232D01*
X020106Y009287D01*
X020005Y009387D01*
X019950Y009519D01*
X019950Y009661D01*
X020005Y009793D01*
X020098Y009887D01*
X020098Y011253D01*
X019579Y011772D01*
X019549Y011700D01*
X019449Y011599D01*
X019317Y011545D01*
X019175Y011545D01*
X019138Y011560D01*
X016706Y009128D01*
X016706Y008498D01*
X016737Y008511D01*
X016880Y008511D01*
X017011Y008456D01*
X016706Y008615D02*
X024237Y008615D01*
X024078Y008773D02*
X016706Y008773D01*
X016706Y008932D02*
X023920Y008932D01*
X023761Y009091D02*
X016706Y009091D01*
X016827Y009249D02*
X020196Y009249D01*
X020421Y009249D02*
X020706Y009249D01*
X021161Y009249D02*
X023603Y009249D01*
X023444Y009408D02*
X021271Y009408D01*
X021291Y009566D02*
X023286Y009566D01*
X023127Y009725D02*
X021239Y009725D01*
X021143Y009883D02*
X022968Y009883D01*
X022810Y010042D02*
X021143Y010042D01*
X021143Y010200D02*
X022651Y010200D01*
X022493Y010359D02*
X021143Y010359D01*
X021143Y010517D02*
X022334Y010517D01*
X022176Y010676D02*
X021143Y010676D01*
X021143Y010834D02*
X022017Y010834D01*
X021859Y010993D02*
X021143Y010993D01*
X021143Y011152D02*
X021700Y011152D01*
X021542Y011310D02*
X021143Y011310D01*
X021143Y011469D02*
X021383Y011469D01*
X022017Y011944D02*
X023763Y011944D01*
X023763Y011894D02*
X023763Y012011D01*
X023692Y011982D01*
X023550Y011982D01*
X023418Y012037D01*
X023317Y012137D01*
X023263Y012269D01*
X023263Y012411D01*
X023317Y012543D01*
X023418Y012644D01*
X023550Y012698D01*
X023692Y012698D01*
X023824Y012644D01*
X023903Y012565D01*
X024780Y012608D01*
X024784Y012613D01*
X024866Y012613D01*
X024958Y012613D01*
X025016Y012554D01*
X027041Y010698D01*
X027385Y010698D01*
X027479Y010605D01*
X027479Y010076D01*
X027479Y010200D02*
X031241Y010200D01*
X031289Y010153D02*
X031183Y010258D01*
X031183Y010590D01*
X031621Y010590D01*
X031621Y010153D01*
X031289Y010153D01*
X031183Y010359D02*
X027479Y010359D01*
X027479Y010517D02*
X031183Y010517D01*
X031183Y010676D02*
X027408Y010676D01*
X026892Y010834D02*
X031183Y010834D01*
X031254Y010993D02*
X026719Y010993D01*
X026546Y011152D02*
X027677Y011152D01*
X027679Y011150D02*
X027421Y011408D01*
X027421Y011590D01*
X028121Y011590D01*
X028121Y011590D01*
X028121Y011150D01*
X028563Y011150D01*
X028821Y011408D01*
X028821Y011590D01*
X028121Y011590D01*
X028121Y011150D01*
X027679Y011150D01*
X027519Y011310D02*
X026374Y011310D01*
X026201Y011469D02*
X027421Y011469D01*
X027421Y011590D02*
X027421Y011772D01*
X027679Y012030D01*
X028121Y012030D01*
X028563Y012030D01*
X028821Y011772D01*
X028821Y011590D01*
X028121Y011590D01*
X028121Y011590D01*
X028121Y011590D01*
X027421Y011590D01*
X027421Y011627D02*
X026028Y011627D01*
X025855Y011786D02*
X027434Y011786D01*
X027593Y011944D02*
X025682Y011944D01*
X025509Y012103D02*
X031826Y012103D01*
X031621Y012590D02*
X028121Y012590D01*
X028646Y012261D02*
X031209Y012261D01*
X031234Y011944D02*
X028649Y011944D01*
X028808Y011786D02*
X031203Y011786D01*
X031203Y011627D02*
X028821Y011627D01*
X028821Y011469D02*
X031203Y011469D01*
X031203Y011310D02*
X028723Y011310D01*
X028564Y011152D02*
X031826Y011152D01*
X031621Y010993D02*
X031621Y010993D01*
X031621Y010834D02*
X031621Y010834D01*
X031621Y010676D02*
X031621Y010676D01*
X031621Y010590D02*
X031621Y010590D01*
X031621Y010517D02*
X031621Y010517D01*
X031621Y010359D02*
X031621Y010359D01*
X031621Y010200D02*
X031621Y010200D01*
X031183Y009883D02*
X027011Y009883D01*
X026856Y009883D02*
X026621Y009883D01*
X026453Y010042D02*
X026797Y010042D01*
X026763Y010200D02*
X026286Y010200D01*
X026119Y010359D02*
X026763Y010359D01*
X026617Y010517D02*
X025952Y010517D01*
X025785Y010676D02*
X026444Y010676D01*
X026271Y010834D02*
X025618Y010834D01*
X025451Y010993D02*
X026098Y010993D01*
X025925Y011152D02*
X025284Y011152D01*
X025116Y011310D02*
X025752Y011310D01*
X025579Y011469D02*
X024949Y011469D01*
X024782Y011627D02*
X025406Y011627D01*
X025233Y011786D02*
X024615Y011786D01*
X024479Y011944D02*
X025060Y011944D01*
X024887Y012103D02*
X024451Y012103D01*
X024181Y012578D02*
X023889Y012578D01*
X023353Y012578D02*
X021371Y012578D01*
X021354Y012595D02*
X024644Y009363D01*
X026614Y009363D01*
X026590Y009421D01*
X026524Y009443D01*
X026475Y009443D01*
X026448Y009468D01*
X026445Y009469D01*
X026412Y009502D01*
X024193Y011607D01*
X024192Y011607D01*
X024050Y011607D01*
X023918Y011662D01*
X023817Y011762D01*
X023763Y011894D01*
X023808Y011786D02*
X022178Y011786D01*
X022339Y011627D02*
X024001Y011627D01*
X024339Y011469D02*
X022501Y011469D01*
X022662Y011310D02*
X024506Y011310D01*
X024674Y011152D02*
X022823Y011152D01*
X022985Y010993D02*
X024841Y010993D01*
X025008Y010834D02*
X023146Y010834D01*
X023308Y010676D02*
X025175Y010676D01*
X025342Y010517D02*
X023469Y010517D01*
X023630Y010359D02*
X025509Y010359D01*
X025676Y010200D02*
X023792Y010200D01*
X023953Y010042D02*
X025843Y010042D01*
X026010Y009883D02*
X024114Y009883D01*
X024276Y009725D02*
X026178Y009725D01*
X026345Y009566D02*
X024437Y009566D01*
X024599Y009408D02*
X026596Y009408D01*
X027271Y009408D02*
X027682Y009408D01*
X027291Y009566D02*
X031183Y009566D01*
X031183Y009408D02*
X028185Y009408D01*
X028281Y009249D02*
X031193Y009249D01*
X031193Y008932D02*
X028219Y008932D01*
X028291Y009091D02*
X031826Y009091D01*
X031183Y008773D02*
X027729Y008773D01*
X027691Y008615D02*
X031183Y008615D01*
X031183Y008456D02*
X027531Y008456D01*
X027211Y008456D02*
X023427Y008456D01*
X023585Y008298D02*
X031183Y008298D01*
X031242Y007981D02*
X023902Y007981D01*
X024061Y007822D02*
X031183Y007822D01*
X031183Y007664D02*
X024219Y007664D01*
X024378Y007505D02*
X031183Y007505D01*
X031183Y007590D02*
X031183Y007258D01*
X031289Y007153D01*
X031621Y007153D01*
X031621Y007590D01*
X031621Y007590D01*
X031183Y007590D01*
X031183Y007347D02*
X024537Y007347D01*
X024695Y007188D02*
X031254Y007188D01*
X031183Y006871D02*
X024831Y006871D01*
X024831Y007029D02*
X031826Y007029D01*
X031621Y006871D02*
X031621Y006871D01*
X031621Y006712D02*
X031621Y006712D01*
X031621Y006590D02*
X031183Y006590D01*
X031183Y006258D01*
X031289Y006153D01*
X031621Y006153D01*
X031621Y006590D01*
X031621Y006590D01*
X031621Y006554D02*
X031621Y006554D01*
X031621Y006395D02*
X031621Y006395D01*
X031621Y006237D02*
X031621Y006237D01*
X031826Y006078D02*
X024831Y006078D01*
X024831Y005920D02*
X031183Y005920D01*
X031183Y005761D02*
X024831Y005761D01*
X024831Y005603D02*
X031183Y005603D01*
X031183Y005590D02*
X031621Y005590D01*
X031621Y005153D01*
X031289Y005153D01*
X031183Y005258D01*
X031183Y005590D01*
X031183Y005444D02*
X026918Y005444D01*
X026811Y005550D02*
X027081Y005281D01*
X027081Y004900D01*
X026811Y004630D01*
X026430Y004630D01*
X026161Y004900D01*
X026161Y005281D01*
X026430Y005550D01*
X026811Y005550D01*
X027076Y005285D02*
X031183Y005285D01*
X031230Y004968D02*
X027081Y004968D01*
X027081Y005127D02*
X031826Y005127D01*
X031621Y005285D02*
X031621Y005285D01*
X031621Y005444D02*
X031621Y005444D01*
X031621Y005590D02*
X031621Y005590D01*
X031621Y005603D02*
X031621Y005603D01*
X031621Y005761D02*
X031621Y005761D01*
X031621Y005920D02*
X031621Y005920D01*
X031205Y006237D02*
X024831Y006237D01*
X024831Y006395D02*
X031183Y006395D01*
X031183Y006554D02*
X024831Y006554D01*
X024831Y006712D02*
X031183Y006712D01*
X031621Y007188D02*
X031621Y007188D01*
X031621Y007347D02*
X031621Y007347D01*
X031621Y007505D02*
X031621Y007505D01*
X031621Y007664D02*
X031621Y007664D01*
X031621Y007822D02*
X031621Y007822D01*
X031621Y007981D02*
X031621Y007981D01*
X031183Y009725D02*
X027239Y009725D01*
X028121Y011152D02*
X028121Y011152D01*
X028121Y011310D02*
X028121Y011310D01*
X028121Y011469D02*
X028121Y011469D01*
X028121Y011591D02*
X028121Y012030D01*
X028121Y011591D01*
X028121Y011591D01*
X028121Y011627D02*
X028121Y011627D01*
X028121Y011786D02*
X028121Y011786D01*
X028121Y011944D02*
X028121Y011944D01*
X027596Y012261D02*
X025336Y012261D01*
X025163Y012420D02*
X027441Y012420D01*
X027441Y012578D02*
X024992Y012578D01*
X023352Y012103D02*
X021855Y012103D01*
X021694Y012261D02*
X023266Y012261D01*
X023266Y012420D02*
X021532Y012420D01*
X021354Y012595D02*
X021354Y012724D01*
X021299Y012856D01*
X021199Y012956D01*
X021067Y013011D01*
X020925Y013011D01*
X020793Y012956D01*
X020692Y012856D01*
X020638Y012724D01*
X020638Y012581D01*
X020692Y012450D01*
X020793Y012349D01*
X020925Y012295D01*
X021043Y012295D01*
X020981Y012269D01*
X020880Y012168D01*
X020832Y012052D01*
X017643Y015240D01*
X017643Y017441D01*
X017643Y017615D01*
X015979Y019279D01*
X015979Y019411D01*
X015924Y019543D01*
X015824Y019644D01*
X015692Y019698D01*
X015550Y019698D01*
X015418Y019644D01*
X015317Y019543D01*
X015263Y019411D01*
X015263Y019370D01*
X014831Y019802D01*
X014831Y019850D01*
X015081Y020100D01*
X015081Y021081D01*
X014811Y021350D01*
X014430Y021350D01*
X014161Y021081D01*
X014161Y020100D01*
X014411Y019850D01*
X014411Y019628D01*
X014534Y019505D01*
X015841Y018198D01*
X015544Y018198D01*
X015450Y018105D01*
X015450Y017576D01*
X015544Y017482D01*
X015598Y017482D01*
X015598Y015869D01*
X015574Y015894D01*
X015442Y015948D01*
X015310Y015948D01*
X015268Y015990D01*
X015145Y016113D01*
X014866Y016113D01*
X014924Y016137D01*
X015074Y016287D01*
X015156Y016484D01*
X015156Y016697D01*
X015074Y016893D01*
X014924Y017044D01*
X014727Y017125D01*
X014514Y017125D01*
X014318Y017044D01*
X014167Y016893D01*
X014129Y016800D01*
X013708Y016800D01*
X013534Y016800D01*
X013112Y016379D01*
X013156Y016484D01*
X013156Y016697D01*
X013074Y016893D01*
X012924Y017044D01*
X012754Y017114D01*
X012831Y017191D01*
X014020Y018380D01*
X014086Y018380D01*
X014086Y018369D01*
X014399Y018055D01*
X014843Y018055D01*
X015156Y018369D01*
X015156Y018812D01*
X014843Y019125D01*
X014399Y019125D01*
X014086Y018812D01*
X014086Y018800D01*
X014020Y018800D01*
X013846Y018800D01*
X012534Y017488D01*
X009895Y017488D01*
X009721Y017488D01*
X008534Y016300D01*
X008504Y016270D01*
X008447Y016270D01*
X008201Y016024D01*
X008201Y015156D01*
X008447Y014910D01*
X008795Y014910D01*
X009041Y015156D01*
X009041Y016024D01*
X008946Y016119D01*
X009895Y017068D01*
X012376Y017068D01*
X012318Y017044D01*
X012167Y016893D01*
X012129Y016800D01*
X010208Y016800D01*
X010034Y016800D01*
X009534Y016300D01*
X009504Y016270D01*
X009447Y016270D01*
X009201Y016024D01*
X009201Y015156D01*
X009447Y014910D01*
X009795Y014910D01*
X010041Y015156D01*
X010041Y016024D01*
X009946Y016119D01*
X010208Y016380D01*
X012129Y016380D01*
X012167Y016287D01*
X012279Y016175D01*
X011020Y016175D01*
X010890Y016175D01*
X010795Y016270D01*
X010447Y016270D01*
X010201Y016024D01*
X010201Y015156D01*
X010447Y014910D01*
X010795Y014910D01*
X011041Y015156D01*
X011041Y015755D01*
X012426Y015755D01*
X011346Y014675D01*
X006292Y014675D01*
X006199Y014769D01*
X006067Y014823D01*
X005925Y014823D01*
X005793Y014769D01*
X005692Y014668D01*
X005638Y014536D01*
X005638Y014425D01*
X005275Y014425D01*
X005362Y014512D01*
X005416Y014644D01*
X005416Y014786D01*
X005362Y014918D01*
X005261Y015019D01*
X005130Y015073D01*
X004987Y015073D01*
X004937Y015053D01*
X005041Y015156D01*
X005041Y016024D01*
X004795Y016270D01*
X004447Y016270D01*
X004201Y016024D01*
X004201Y015156D01*
X004447Y014910D01*
X004752Y014910D01*
X004700Y014786D01*
X004700Y014644D01*
X004755Y014512D01*
X004848Y014419D01*
X004848Y014365D01*
X004786Y014302D01*
X004786Y014128D01*
X004909Y014005D01*
X005083Y014005D01*
X014145Y014005D01*
X014268Y014128D01*
X014872Y014732D01*
X014966Y014732D01*
X013916Y013682D01*
X013752Y013750D01*
X013490Y013750D01*
X013247Y013650D01*
X013061Y013464D01*
X012961Y013221D01*
X012961Y012959D01*
X013061Y012716D01*
X013247Y012531D01*
X013341Y012492D01*
X013341Y009269D01*
X013341Y009067D01*
X013317Y009043D01*
X013263Y008911D01*
X013263Y008769D01*
X013317Y008637D01*
X013341Y008614D01*
X013341Y008439D01*
X013261Y008519D01*
X013130Y008573D01*
X012987Y008573D01*
X012856Y008519D01*
X012832Y008495D01*
X011532Y008495D01*
X011541Y008519D01*
X011541Y008651D01*
X012395Y009505D01*
X012637Y009505D01*
X012731Y009412D01*
X012862Y009357D01*
X013005Y009357D01*
X013136Y009412D01*
X013237Y009512D01*
X013291Y009644D01*
X013291Y009786D01*
X013237Y009918D01*
X013136Y010019D01*
X013005Y010073D01*
X012862Y010073D01*
X012731Y010019D01*
X012637Y009925D01*
X012395Y009925D01*
X012221Y009925D01*
X011245Y008948D01*
X011112Y008948D01*
X010981Y008894D01*
X010880Y008793D01*
X010825Y008661D01*
X010825Y008519D01*
X010835Y008495D01*
X004174Y008495D01*
X003942Y008495D01*
X003380Y007933D01*
X003216Y007769D01*
X003216Y005706D01*
X003216Y005474D01*
X003380Y005310D01*
X004023Y005310D01*
X004061Y005216D01*
X004247Y005031D01*
X004490Y004930D01*
X004752Y004930D01*
X004995Y005031D01*
X005180Y005216D01*
X005281Y005459D01*
X005281Y005721D01*
X005180Y005964D01*
X004995Y006150D01*
X004752Y006250D01*
X004490Y006250D01*
X004247Y006150D01*
X004061Y005964D01*
X004023Y005870D01*
X003776Y005870D01*
X003776Y007537D01*
X004174Y007935D01*
X012832Y007935D01*
X012856Y007912D01*
X012987Y007857D01*
X013130Y007857D01*
X013261Y007912D01*
X013341Y007991D01*
X013341Y005461D01*
X013250Y005370D01*
X012991Y005370D01*
X012811Y005550D01*
X012430Y005550D01*
X012250Y005370D01*
X011991Y005370D01*
X011811Y005550D01*
X011430Y005550D01*
X011161Y005281D01*
X011161Y004900D01*
X011430Y004630D01*
X011811Y004630D01*
X011991Y004810D01*
X012251Y004810D01*
X012250Y004810D02*
X011991Y004810D01*
X011833Y004651D02*
X012409Y004651D01*
X012430Y004630D02*
X012250Y004810D01*
X012430Y004630D02*
X012811Y004630D01*
X012991Y004810D01*
X013251Y004810D01*
X013250Y004810D02*
X012991Y004810D01*
X012833Y004651D02*
X013409Y004651D01*
X013430Y004630D02*
X013250Y004810D01*
X013430Y004630D02*
X013811Y004630D01*
X014081Y004900D01*
X014081Y005281D01*
X013901Y005461D01*
X013901Y007705D01*
X013987Y007670D01*
X014130Y007670D01*
X014261Y007724D01*
X014341Y007804D01*
X014341Y005461D01*
X014161Y005281D01*
X014161Y004900D01*
X014430Y004630D01*
X014811Y004630D01*
X014991Y004810D01*
X015251Y004810D01*
X015250Y004810D02*
X014991Y004810D01*
X014833Y004651D02*
X015409Y004651D01*
X015430Y004630D02*
X015250Y004810D01*
X015430Y004630D02*
X015811Y004630D01*
X015991Y004810D01*
X016251Y004810D01*
X016250Y004810D02*
X015991Y004810D01*
X015833Y004651D02*
X016409Y004651D01*
X016430Y004630D02*
X016250Y004810D01*
X016430Y004630D02*
X016811Y004630D01*
X016841Y004660D01*
X016841Y004644D01*
X016841Y004644D01*
X016841Y004521D01*
X016811Y004550D01*
X016430Y004550D01*
X016161Y004281D01*
X016161Y003900D01*
X016430Y003630D01*
X016811Y003630D01*
X016841Y003660D01*
X016841Y003495D01*
X006463Y003495D01*
X006385Y003573D01*
X005857Y003573D01*
X005763Y003480D01*
X005763Y002951D01*
X005857Y002857D01*
X006263Y002857D01*
X006263Y002822D01*
X005806Y002907D02*
X002416Y002907D01*
X002416Y003066D02*
X004184Y003066D01*
X004339Y002910D02*
X003941Y003309D01*
X003941Y003570D01*
X004601Y003570D01*
X004601Y002910D01*
X004339Y002910D01*
X004641Y002910D02*
X004641Y003570D01*
X004601Y003570D01*
X004601Y003610D01*
X003941Y003610D01*
X003941Y003872D01*
X004339Y004270D01*
X004601Y004270D01*
X004601Y003610D01*
X004641Y003610D01*
X004641Y003570D01*
X005301Y003570D01*
X005301Y003309D01*
X004903Y002910D01*
X004641Y002910D01*
X004641Y003066D02*
X004601Y003066D01*
X004601Y003224D02*
X004641Y003224D01*
X004641Y003383D02*
X004601Y003383D01*
X004601Y003541D02*
X004641Y003541D01*
X004641Y003610D02*
X005301Y003610D01*
X005301Y003872D01*
X004903Y004270D01*
X004641Y004270D01*
X004641Y003610D01*
X004641Y003700D02*
X004601Y003700D01*
X004601Y003859D02*
X004641Y003859D01*
X004641Y004017D02*
X004601Y004017D01*
X004601Y004176D02*
X004641Y004176D01*
X004997Y004176D02*
X007161Y004176D01*
X007161Y004281D02*
X007161Y003900D01*
X007430Y003630D01*
X007811Y003630D01*
X008081Y003900D01*
X008081Y004281D01*
X007811Y004550D01*
X007430Y004550D01*
X007161Y004281D01*
X007214Y004334D02*
X002416Y004334D01*
X002416Y004176D02*
X004245Y004176D01*
X004086Y004017D02*
X002416Y004017D01*
X002416Y003859D02*
X003941Y003859D01*
X003941Y003700D02*
X002416Y003700D01*
X002416Y003541D02*
X003941Y003541D01*
X003941Y003383D02*
X002416Y003383D01*
X002416Y003224D02*
X004025Y003224D01*
X005058Y003066D02*
X005763Y003066D01*
X005763Y003224D02*
X005217Y003224D01*
X005301Y003383D02*
X005763Y003383D01*
X005825Y003541D02*
X005301Y003541D01*
X005301Y003700D02*
X007361Y003700D01*
X007202Y003859D02*
X005301Y003859D01*
X005156Y004017D02*
X007161Y004017D01*
X007373Y004493D02*
X002416Y004493D01*
X002416Y004651D02*
X007381Y004651D01*
X007422Y004610D02*
X007141Y004891D01*
X007141Y005070D01*
X007601Y005070D01*
X007601Y004610D01*
X007422Y004610D01*
X007601Y004651D02*
X007641Y004651D01*
X007641Y004610D02*
X007641Y005070D01*
X007601Y005070D01*
X007601Y005110D01*
X007141Y005110D01*
X007141Y005289D01*
X007422Y005570D01*
X007601Y005570D01*
X007601Y005110D01*
X007641Y005110D01*
X007641Y005070D01*
X008101Y005070D01*
X008101Y004891D01*
X007820Y004610D01*
X007641Y004610D01*
X007641Y004810D02*
X007601Y004810D01*
X007601Y004968D02*
X007641Y004968D01*
X007641Y005110D02*
X008101Y005110D01*
X008101Y005289D01*
X007820Y005570D01*
X007641Y005570D01*
X007641Y005110D01*
X007641Y005127D02*
X007601Y005127D01*
X007601Y005285D02*
X007641Y005285D01*
X007641Y005444D02*
X007601Y005444D01*
X007296Y005444D02*
X005275Y005444D01*
X005281Y005603D02*
X013341Y005603D01*
X013341Y005761D02*
X005264Y005761D01*
X005199Y005920D02*
X013341Y005920D01*
X013341Y006078D02*
X005066Y006078D01*
X004785Y006237D02*
X013341Y006237D01*
X013341Y006395D02*
X009222Y006395D01*
X009261Y006412D02*
X009130Y006357D01*
X008987Y006357D01*
X008856Y006412D01*
X008762Y006505D01*
X004917Y006505D01*
X004824Y006412D01*
X004692Y006357D01*
X004550Y006357D01*
X004418Y006412D01*
X004317Y006512D01*
X004263Y006644D01*
X004263Y006786D01*
X004317Y006918D01*
X004418Y007019D01*
X004550Y007073D01*
X004692Y007073D01*
X004824Y007019D01*
X004917Y006925D01*
X008762Y006925D01*
X008856Y007019D01*
X008987Y007073D01*
X009130Y007073D01*
X009261Y007019D01*
X009362Y006918D01*
X009416Y006786D01*
X009416Y006644D01*
X009362Y006512D01*
X009261Y006412D01*
X009379Y006554D02*
X013341Y006554D01*
X013341Y006712D02*
X009416Y006712D01*
X009381Y006871D02*
X013341Y006871D01*
X013341Y007029D02*
X009235Y007029D01*
X008881Y007029D02*
X004798Y007029D01*
X004444Y007029D02*
X003776Y007029D01*
X003776Y006871D02*
X004298Y006871D01*
X004263Y006712D02*
X003776Y006712D01*
X003776Y006554D02*
X004300Y006554D01*
X004458Y006395D02*
X003776Y006395D01*
X003776Y006237D02*
X004457Y006237D01*
X004176Y006078D02*
X003776Y006078D01*
X003776Y005920D02*
X004043Y005920D01*
X003216Y005920D02*
X002416Y005920D01*
X002416Y006078D02*
X003216Y006078D01*
X003216Y006237D02*
X002416Y006237D01*
X002416Y006395D02*
X003216Y006395D01*
X003216Y006554D02*
X002416Y006554D01*
X002416Y006712D02*
X003216Y006712D01*
X003216Y006871D02*
X002416Y006871D01*
X002416Y007029D02*
X003216Y007029D01*
X003216Y007188D02*
X002416Y007188D01*
X002416Y007347D02*
X003216Y007347D01*
X003216Y007505D02*
X002416Y007505D01*
X002416Y007664D02*
X003216Y007664D01*
X003269Y007822D02*
X002416Y007822D01*
X002416Y007981D02*
X003428Y007981D01*
X003587Y008139D02*
X002416Y008139D01*
X002416Y008298D02*
X003745Y008298D01*
X003904Y008456D02*
X002416Y008456D01*
X002416Y008615D02*
X010825Y008615D01*
X010872Y008773D02*
X002416Y008773D01*
X002416Y008932D02*
X011073Y008932D01*
X011387Y009091D02*
X002416Y009091D01*
X002416Y009249D02*
X011545Y009249D01*
X011704Y009408D02*
X002416Y009408D01*
X002416Y009566D02*
X011862Y009566D01*
X012021Y009725D02*
X002416Y009725D01*
X002416Y009883D02*
X012179Y009883D01*
X012298Y009408D02*
X012740Y009408D01*
X013126Y009408D02*
X013341Y009408D01*
X013341Y009566D02*
X013259Y009566D01*
X013291Y009725D02*
X013341Y009725D01*
X013341Y009883D02*
X013251Y009883D01*
X013341Y010042D02*
X013081Y010042D01*
X012786Y010042D02*
X002416Y010042D01*
X002416Y010200D02*
X013341Y010200D01*
X013341Y010359D02*
X002416Y010359D01*
X002416Y010517D02*
X013341Y010517D01*
X013341Y010676D02*
X002416Y010676D01*
X002416Y010834D02*
X013341Y010834D01*
X013341Y010993D02*
X002416Y010993D01*
X002416Y011152D02*
X013341Y011152D01*
X013341Y011310D02*
X002416Y011310D01*
X002416Y011469D02*
X013341Y011469D01*
X013341Y011627D02*
X002416Y011627D01*
X002416Y011786D02*
X013341Y011786D01*
X013341Y011944D02*
X002416Y011944D01*
X002416Y012103D02*
X013341Y012103D01*
X013341Y012261D02*
X002416Y012261D01*
X002416Y012420D02*
X013341Y012420D01*
X013199Y012578D02*
X002416Y012578D01*
X002416Y012737D02*
X013053Y012737D01*
X012987Y012896D02*
X002416Y012896D01*
X002416Y013054D02*
X012961Y013054D01*
X012961Y013213D02*
X002416Y013213D01*
X002416Y013371D02*
X013023Y013371D01*
X013127Y013530D02*
X002416Y013530D01*
X002416Y013688D02*
X013340Y013688D01*
X013902Y013688D02*
X013922Y013688D01*
X014081Y013847D02*
X002416Y013847D01*
X002416Y014005D02*
X004909Y014005D01*
X004786Y014164D02*
X002416Y014164D01*
X002416Y014322D02*
X004806Y014322D01*
X004786Y014481D02*
X002416Y014481D01*
X002416Y014640D02*
X004702Y014640D01*
X004705Y014798D02*
X002416Y014798D01*
X002416Y014957D02*
X003401Y014957D01*
X003447Y014910D02*
X003201Y015156D01*
X003201Y016024D01*
X003447Y016270D01*
X003795Y016270D01*
X004041Y016024D01*
X004041Y015156D01*
X003795Y014910D01*
X003447Y014910D01*
X003242Y015115D02*
X002416Y015115D01*
X002416Y015274D02*
X003201Y015274D01*
X003201Y015432D02*
X002416Y015432D01*
X002416Y015591D02*
X003201Y015591D01*
X003201Y015749D02*
X002416Y015749D01*
X002416Y015908D02*
X003201Y015908D01*
X003243Y016066D02*
X002416Y016066D01*
X002416Y016225D02*
X003402Y016225D01*
X003840Y016225D02*
X004402Y016225D01*
X004243Y016066D02*
X003999Y016066D01*
X004041Y015908D02*
X004201Y015908D01*
X004201Y015749D02*
X004041Y015749D01*
X004041Y015591D02*
X004201Y015591D01*
X004201Y015432D02*
X004041Y015432D01*
X004041Y015274D02*
X004201Y015274D01*
X004242Y015115D02*
X004000Y015115D01*
X003841Y014957D02*
X004401Y014957D01*
X005000Y015115D02*
X005242Y015115D01*
X005201Y015156D02*
X005447Y014910D01*
X005795Y014910D01*
X006041Y015156D01*
X006041Y016024D01*
X005795Y016270D01*
X005447Y016270D01*
X005201Y016024D01*
X005201Y015156D01*
X005201Y015274D02*
X005041Y015274D01*
X005041Y015432D02*
X005201Y015432D01*
X005201Y015591D02*
X005041Y015591D01*
X005041Y015749D02*
X005201Y015749D01*
X005201Y015908D02*
X005041Y015908D01*
X004999Y016066D02*
X005243Y016066D01*
X005402Y016225D02*
X004840Y016225D01*
X005840Y016225D02*
X006402Y016225D01*
X006411Y016384D02*
X002416Y016384D01*
X002416Y016542D02*
X006411Y016542D01*
X006831Y016542D02*
X007372Y016542D01*
X007411Y016384D02*
X006831Y016384D01*
X006840Y016225D02*
X007402Y016225D01*
X007243Y016066D02*
X006999Y016066D01*
X007041Y015908D02*
X007201Y015908D01*
X007201Y015749D02*
X007041Y015749D01*
X007041Y015591D02*
X007201Y015591D01*
X007201Y015432D02*
X007041Y015432D01*
X007041Y015274D02*
X007201Y015274D01*
X007242Y015115D02*
X007000Y015115D01*
X006841Y014957D02*
X007401Y014957D01*
X007841Y014957D02*
X008401Y014957D01*
X008242Y015115D02*
X008000Y015115D01*
X008041Y015274D02*
X008201Y015274D01*
X008201Y015432D02*
X008041Y015432D01*
X008041Y015591D02*
X008201Y015591D01*
X008201Y015749D02*
X008041Y015749D01*
X008041Y015908D02*
X008201Y015908D01*
X008243Y016066D02*
X007999Y016066D01*
X007840Y016225D02*
X008402Y016225D01*
X008617Y016384D02*
X007831Y016384D01*
X007831Y016542D02*
X008776Y016542D01*
X008934Y016701D02*
X007808Y016701D01*
X007649Y016859D02*
X009093Y016859D01*
X009251Y017018D02*
X007490Y017018D01*
X007332Y017176D02*
X009410Y017176D01*
X009569Y017335D02*
X007173Y017335D01*
X007055Y016859D02*
X006774Y016859D01*
X006831Y016701D02*
X007214Y016701D01*
X006243Y016066D02*
X005999Y016066D01*
X006041Y015908D02*
X006201Y015908D01*
X006201Y015749D02*
X006041Y015749D01*
X006041Y015591D02*
X006201Y015591D01*
X006201Y015432D02*
X006041Y015432D01*
X006041Y015274D02*
X006201Y015274D01*
X006242Y015115D02*
X006000Y015115D01*
X005841Y014957D02*
X006401Y014957D01*
X006128Y014798D02*
X011469Y014798D01*
X011628Y014957D02*
X010841Y014957D01*
X011000Y015115D02*
X011786Y015115D01*
X011945Y015274D02*
X011041Y015274D01*
X011041Y015432D02*
X012103Y015432D01*
X012262Y015591D02*
X011041Y015591D01*
X011041Y015749D02*
X012421Y015749D01*
X012697Y015432D02*
X013001Y015432D01*
X012941Y015372D02*
X013074Y015505D01*
X012770Y015505D01*
X011690Y014425D01*
X013324Y014425D01*
X012941Y014809D01*
X012941Y015070D01*
X013601Y015070D01*
X013601Y015110D01*
X012941Y015110D01*
X012941Y015372D01*
X012941Y015274D02*
X012539Y015274D01*
X012380Y015115D02*
X012941Y015115D01*
X012941Y014957D02*
X012222Y014957D01*
X012063Y014798D02*
X012951Y014798D01*
X013110Y014640D02*
X011905Y014640D01*
X011746Y014481D02*
X013269Y014481D01*
X013917Y014425D02*
X013971Y014425D01*
X014575Y015029D01*
X014575Y015161D01*
X014630Y015293D01*
X014731Y015394D01*
X014862Y015448D01*
X015005Y015448D01*
X015050Y015430D01*
X015013Y015519D01*
X015013Y015651D01*
X014971Y015693D01*
X013980Y015693D01*
X014301Y015372D01*
X014301Y015110D01*
X013641Y015110D01*
X013641Y015070D01*
X014301Y015070D01*
X014301Y014809D01*
X013917Y014425D01*
X013973Y014481D02*
X014027Y014481D01*
X014132Y014640D02*
X014186Y014640D01*
X014290Y014798D02*
X014344Y014798D01*
X014301Y014957D02*
X014503Y014957D01*
X014575Y015115D02*
X014301Y015115D01*
X014301Y015274D02*
X014622Y015274D01*
X014823Y015432D02*
X014240Y015432D01*
X014082Y015591D02*
X015013Y015591D01*
X015043Y015432D02*
X015049Y015432D01*
X015192Y016066D02*
X015598Y016066D01*
X015598Y015908D02*
X015540Y015908D01*
X015598Y016225D02*
X015012Y016225D01*
X015114Y016384D02*
X015598Y016384D01*
X015598Y016542D02*
X015156Y016542D01*
X015154Y016701D02*
X015598Y016701D01*
X015598Y016859D02*
X015089Y016859D01*
X014950Y017018D02*
X015598Y017018D01*
X015598Y017176D02*
X012816Y017176D01*
X012950Y017018D02*
X014292Y017018D01*
X014153Y016859D02*
X013089Y016859D01*
X013154Y016701D02*
X013434Y016701D01*
X013276Y016542D02*
X013156Y016542D01*
X013117Y016384D02*
X013114Y016384D01*
X012292Y017018D02*
X009845Y017018D01*
X009687Y016859D02*
X012153Y016859D01*
X012540Y017493D02*
X006268Y017493D01*
X006268Y017652D02*
X012698Y017652D01*
X012857Y017810D02*
X006268Y017810D01*
X006268Y017969D02*
X006388Y017969D01*
X005848Y017810D02*
X003018Y017810D01*
X003018Y017652D02*
X005848Y017652D01*
X005848Y017493D02*
X003018Y017493D01*
X003173Y017335D02*
X005848Y017335D01*
X005863Y017176D02*
X003332Y017176D01*
X003490Y017018D02*
X006021Y017018D01*
X005388Y017969D02*
X004854Y017969D01*
X004795Y017910D02*
X004447Y017910D01*
X004201Y018156D01*
X004201Y019024D01*
X004447Y019270D01*
X004795Y019270D01*
X005041Y019024D01*
X005041Y018156D01*
X004795Y017910D01*
X005012Y018127D02*
X005230Y018127D01*
X005201Y018286D02*
X005041Y018286D01*
X005041Y018445D02*
X005201Y018445D01*
X005201Y018603D02*
X005041Y018603D01*
X005041Y018762D02*
X005201Y018762D01*
X005201Y018920D02*
X005041Y018920D01*
X004986Y019079D02*
X005256Y019079D01*
X005414Y019237D02*
X004828Y019237D01*
X004414Y019237D02*
X003828Y019237D01*
X003795Y019270D02*
X004041Y019024D01*
X004041Y018156D01*
X003795Y017910D01*
X003447Y017910D01*
X003201Y018156D01*
X003201Y019024D01*
X003447Y019270D01*
X003795Y019270D01*
X003986Y019079D02*
X004256Y019079D01*
X004201Y018920D02*
X004041Y018920D01*
X004041Y018762D02*
X004201Y018762D01*
X004201Y018603D02*
X004041Y018603D01*
X004041Y018445D02*
X004201Y018445D01*
X004201Y018286D02*
X004041Y018286D01*
X004012Y018127D02*
X004230Y018127D01*
X004388Y017969D02*
X003854Y017969D01*
X003388Y017969D02*
X003018Y017969D01*
X003018Y018127D02*
X003230Y018127D01*
X003201Y018286D02*
X003018Y018286D01*
X003018Y018445D02*
X003201Y018445D01*
X003201Y018603D02*
X003018Y018603D01*
X003018Y018762D02*
X003201Y018762D01*
X003201Y018920D02*
X003018Y018920D01*
X003018Y019079D02*
X003256Y019079D01*
X003414Y019237D02*
X003018Y019237D01*
X003018Y019396D02*
X005848Y019396D01*
X005848Y019554D02*
X003018Y019554D01*
X003018Y019713D02*
X005848Y019713D01*
X005848Y019871D02*
X003018Y019871D01*
X003018Y020030D02*
X005848Y020030D01*
X005726Y020189D02*
X003018Y020189D01*
X003018Y020347D02*
X005567Y020347D01*
X005409Y020506D02*
X003018Y020506D01*
X002598Y020506D02*
X002416Y020506D01*
X002416Y020664D02*
X002598Y020664D01*
X002619Y020823D02*
X002416Y020823D01*
X002416Y020981D02*
X002586Y020981D01*
X002586Y021140D02*
X002416Y021140D01*
X002416Y021298D02*
X002586Y021298D01*
X002731Y021457D02*
X002416Y021457D01*
X003511Y021457D02*
X004731Y021457D01*
X004628Y021298D02*
X003656Y021298D01*
X003656Y021140D02*
X004586Y021140D01*
X004587Y020981D02*
X003656Y020981D01*
X003610Y020823D02*
X004653Y020823D01*
X004790Y020664D02*
X003451Y020664D01*
X002598Y020347D02*
X002416Y020347D01*
X002416Y020189D02*
X002598Y020189D01*
X002598Y020030D02*
X002416Y020030D01*
X002416Y019871D02*
X002598Y019871D01*
X002598Y019713D02*
X002416Y019713D01*
X002416Y019554D02*
X002598Y019554D01*
X002598Y019396D02*
X002416Y019396D01*
X002416Y019237D02*
X002598Y019237D01*
X002598Y019079D02*
X002416Y019079D01*
X002416Y018920D02*
X002598Y018920D01*
X002598Y018762D02*
X002416Y018762D01*
X002416Y018603D02*
X002598Y018603D01*
X002598Y018445D02*
X002416Y018445D01*
X002416Y018286D02*
X002598Y018286D01*
X002598Y018127D02*
X002416Y018127D01*
X002416Y017969D02*
X002598Y017969D01*
X002598Y017810D02*
X002416Y017810D01*
X002416Y017652D02*
X002598Y017652D01*
X002598Y017493D02*
X002416Y017493D01*
X002416Y017335D02*
X002598Y017335D01*
X002738Y017176D02*
X002416Y017176D01*
X002416Y017018D02*
X002897Y017018D01*
X003055Y016859D02*
X002416Y016859D01*
X002416Y016701D02*
X003214Y016701D01*
X005323Y014957D02*
X005401Y014957D01*
X005412Y014798D02*
X005864Y014798D01*
X005681Y014640D02*
X005415Y014640D01*
X005331Y014481D02*
X005638Y014481D01*
X008841Y014957D02*
X009401Y014957D01*
X009242Y015115D02*
X009000Y015115D01*
X009041Y015274D02*
X009201Y015274D01*
X009201Y015432D02*
X009041Y015432D01*
X009041Y015591D02*
X009201Y015591D01*
X009201Y015749D02*
X009041Y015749D01*
X009041Y015908D02*
X009201Y015908D01*
X009243Y016066D02*
X008999Y016066D01*
X009053Y016225D02*
X009402Y016225D01*
X009211Y016384D02*
X009617Y016384D01*
X009776Y016542D02*
X009370Y016542D01*
X009528Y016701D02*
X009934Y016701D01*
X010053Y016225D02*
X010402Y016225D01*
X010243Y016066D02*
X009999Y016066D01*
X010041Y015908D02*
X010201Y015908D01*
X010201Y015749D02*
X010041Y015749D01*
X010041Y015591D02*
X010201Y015591D01*
X010201Y015432D02*
X010041Y015432D01*
X010041Y015274D02*
X010201Y015274D01*
X010242Y015115D02*
X010000Y015115D01*
X009841Y014957D02*
X010401Y014957D01*
X010840Y016225D02*
X012230Y016225D01*
X012975Y017335D02*
X015598Y017335D01*
X015533Y017493D02*
X013133Y017493D01*
X013292Y017652D02*
X015450Y017652D01*
X015450Y017810D02*
X013451Y017810D01*
X013609Y017969D02*
X015450Y017969D01*
X015473Y018127D02*
X014915Y018127D01*
X015073Y018286D02*
X015753Y018286D01*
X015595Y018445D02*
X015156Y018445D01*
X015156Y018603D02*
X015436Y018603D01*
X015278Y018762D02*
X015156Y018762D01*
X015119Y018920D02*
X015048Y018920D01*
X014960Y019079D02*
X014889Y019079D01*
X014802Y019237D02*
X010828Y019237D01*
X010795Y019270D02*
X011041Y019024D01*
X011041Y018156D01*
X010795Y017910D01*
X010447Y017910D01*
X010201Y018156D01*
X010201Y019024D01*
X010447Y019270D01*
X010795Y019270D01*
X010986Y019079D02*
X012325Y019079D01*
X012391Y019145D02*
X012621Y019145D01*
X012851Y019145D01*
X013176Y018820D01*
X013176Y018590D01*
X013176Y018360D01*
X012851Y018035D01*
X012621Y018035D01*
X012621Y018590D01*
X012621Y018590D01*
X012621Y018035D01*
X012391Y018035D01*
X012066Y018360D01*
X012066Y018590D01*
X012621Y018590D01*
X013176Y018590D01*
X012621Y018590D01*
X012621Y018590D01*
X012621Y018590D01*
X012066Y018590D01*
X012066Y018820D01*
X012391Y019145D01*
X012621Y019145D02*
X012621Y018591D01*
X012621Y019145D01*
X012621Y019079D02*
X012621Y019079D01*
X012621Y018920D02*
X012621Y018920D01*
X012621Y018762D02*
X012621Y018762D01*
X012621Y018603D02*
X012621Y018603D01*
X012621Y018591D02*
X012621Y018591D01*
X012621Y018445D02*
X012621Y018445D01*
X012621Y018286D02*
X012621Y018286D01*
X012621Y018127D02*
X012621Y018127D01*
X012943Y018127D02*
X013174Y018127D01*
X013102Y018286D02*
X013332Y018286D01*
X013176Y018445D02*
X013491Y018445D01*
X013649Y018603D02*
X013176Y018603D01*
X013176Y018762D02*
X013808Y018762D01*
X014194Y018920D02*
X013076Y018920D01*
X012917Y019079D02*
X014353Y019079D01*
X014643Y019396D02*
X008831Y019396D01*
X008831Y019237D02*
X009386Y019237D01*
X009439Y019290D02*
X009621Y019290D01*
X009803Y019290D01*
X010061Y019032D01*
X010061Y018590D01*
X010061Y018148D01*
X009803Y017890D01*
X009621Y017890D01*
X009621Y018590D01*
X009621Y018590D01*
X009621Y017890D01*
X009439Y017890D01*
X009181Y018148D01*
X009181Y018590D01*
X009621Y018590D01*
X010061Y018590D01*
X009621Y018590D01*
X009621Y018590D01*
X009621Y018590D01*
X009181Y018590D01*
X009181Y019032D01*
X009439Y019290D01*
X009621Y019290D02*
X009621Y018591D01*
X009621Y019290D01*
X009621Y019237D02*
X009621Y019237D01*
X009621Y019079D02*
X009621Y019079D01*
X009621Y018920D02*
X009621Y018920D01*
X009621Y018762D02*
X009621Y018762D01*
X009621Y018603D02*
X009621Y018603D01*
X009621Y018591D02*
X009621Y018591D01*
X009621Y018445D02*
X009621Y018445D01*
X009621Y018286D02*
X009621Y018286D01*
X009621Y018127D02*
X009621Y018127D01*
X009621Y017969D02*
X009621Y017969D01*
X009882Y017969D02*
X010388Y017969D01*
X010230Y018127D02*
X010040Y018127D01*
X010061Y018286D02*
X010201Y018286D01*
X010201Y018445D02*
X010061Y018445D01*
X010061Y018603D02*
X010201Y018603D01*
X010201Y018762D02*
X010061Y018762D01*
X010061Y018920D02*
X010201Y018920D01*
X010256Y019079D02*
X010015Y019079D01*
X009856Y019237D02*
X010414Y019237D01*
X010398Y019863D02*
X010161Y020100D01*
X010161Y021081D01*
X010273Y021193D01*
X009997Y021193D01*
X010101Y021089D01*
X010101Y020610D01*
X009641Y020610D01*
X009641Y020570D01*
X010101Y020570D01*
X010101Y020091D01*
X009872Y019863D01*
X010398Y019863D01*
X010389Y019871D02*
X009881Y019871D01*
X010039Y020030D02*
X010231Y020030D01*
X010161Y020189D02*
X010101Y020189D01*
X010101Y020347D02*
X010161Y020347D01*
X010161Y020506D02*
X010101Y020506D01*
X010101Y020664D02*
X010161Y020664D01*
X010161Y020823D02*
X010101Y020823D01*
X010101Y020981D02*
X010161Y020981D01*
X010220Y021140D02*
X010050Y021140D01*
X010863Y021298D02*
X011379Y021298D01*
X011220Y021140D02*
X011022Y021140D01*
X011081Y020981D02*
X011161Y020981D01*
X011161Y020823D02*
X011081Y020823D01*
X011081Y020664D02*
X011161Y020664D01*
X011161Y020506D02*
X011081Y020506D01*
X011081Y020347D02*
X011161Y020347D01*
X011161Y020189D02*
X011081Y020189D01*
X011011Y020030D02*
X011231Y020030D01*
X011389Y019871D02*
X010853Y019871D01*
X011831Y019713D02*
X014411Y019713D01*
X014389Y019871D02*
X013853Y019871D01*
X013811Y019830D02*
X013430Y019830D01*
X013161Y020100D01*
X013161Y021081D01*
X013430Y021350D01*
X013811Y021350D01*
X014081Y021081D01*
X014081Y020100D01*
X013811Y019830D01*
X014011Y020030D02*
X014231Y020030D01*
X014161Y020189D02*
X014081Y020189D01*
X014081Y020347D02*
X014161Y020347D01*
X014161Y020506D02*
X014081Y020506D01*
X014081Y020664D02*
X014161Y020664D01*
X014161Y020823D02*
X014081Y020823D01*
X014081Y020981D02*
X014161Y020981D01*
X014220Y021140D02*
X014022Y021140D01*
X013863Y021298D02*
X014379Y021298D01*
X014863Y021298D02*
X015350Y021298D01*
X015422Y021370D02*
X015601Y021370D01*
X015601Y020610D01*
X015141Y020610D01*
X015141Y021089D01*
X015422Y021370D01*
X015601Y021298D02*
X015641Y021298D01*
X015641Y021370D02*
X015820Y021370D01*
X016101Y021089D01*
X016101Y020610D01*
X015641Y020610D01*
X015641Y020570D01*
X015601Y020570D01*
X015601Y019810D01*
X015422Y019810D01*
X015141Y020091D01*
X015141Y020570D01*
X015601Y020570D01*
X015601Y020610D01*
X015641Y020610D01*
X015641Y021370D01*
X015641Y021140D02*
X015601Y021140D01*
X015601Y020981D02*
X015641Y020981D01*
X015641Y020823D02*
X015601Y020823D01*
X015601Y020664D02*
X015641Y020664D01*
X015641Y020570D02*
X016101Y020570D01*
X016101Y020091D01*
X015820Y019810D01*
X015641Y019810D01*
X015641Y020570D01*
X015641Y020506D02*
X015601Y020506D01*
X015601Y020347D02*
X015641Y020347D01*
X015641Y020189D02*
X015601Y020189D01*
X015601Y020030D02*
X015641Y020030D01*
X015641Y019871D02*
X015601Y019871D01*
X015361Y019871D02*
X014853Y019871D01*
X014920Y019713D02*
X031203Y019713D01*
X031203Y019871D02*
X016853Y019871D01*
X016811Y019830D02*
X016430Y019830D01*
X016161Y020100D01*
X016161Y021081D01*
X016430Y021350D01*
X016811Y021350D01*
X017081Y021081D01*
X017081Y020100D01*
X016811Y019830D01*
X017011Y020030D02*
X031826Y020030D01*
X031281Y020189D02*
X017081Y020189D01*
X017081Y020347D02*
X031203Y020347D01*
X031203Y020506D02*
X017081Y020506D01*
X017081Y020664D02*
X031203Y020664D01*
X031203Y020823D02*
X017081Y020823D01*
X017081Y020981D02*
X031271Y020981D01*
X031826Y021140D02*
X017022Y021140D01*
X016863Y021298D02*
X031826Y021298D01*
X031826Y021457D02*
X010831Y021457D01*
X011863Y021298D02*
X013379Y021298D01*
X013220Y021140D02*
X012022Y021140D01*
X012081Y020981D02*
X013161Y020981D01*
X013161Y020823D02*
X012081Y020823D01*
X012081Y020664D02*
X013161Y020664D01*
X013161Y020506D02*
X012081Y020506D01*
X012081Y020347D02*
X013161Y020347D01*
X013161Y020189D02*
X012081Y020189D01*
X012011Y020030D02*
X013231Y020030D01*
X013389Y019871D02*
X011853Y019871D01*
X011820Y019554D02*
X014485Y019554D01*
X015079Y019554D02*
X015329Y019554D01*
X015263Y019396D02*
X015237Y019396D01*
X015202Y020030D02*
X015011Y020030D01*
X015081Y020189D02*
X015141Y020189D01*
X015141Y020347D02*
X015081Y020347D01*
X015081Y020506D02*
X015141Y020506D01*
X015141Y020664D02*
X015081Y020664D01*
X015081Y020823D02*
X015141Y020823D01*
X015141Y020981D02*
X015081Y020981D01*
X015022Y021140D02*
X015192Y021140D01*
X015892Y021298D02*
X016379Y021298D01*
X016220Y021140D02*
X016050Y021140D01*
X016101Y020981D02*
X016161Y020981D01*
X016161Y020823D02*
X016101Y020823D01*
X016101Y020664D02*
X016161Y020664D01*
X016161Y020506D02*
X016101Y020506D01*
X016101Y020347D02*
X016161Y020347D01*
X016161Y020189D02*
X016101Y020189D01*
X016039Y020030D02*
X016231Y020030D01*
X016389Y019871D02*
X015881Y019871D01*
X015913Y019554D02*
X031203Y019554D01*
X031203Y019396D02*
X015979Y019396D01*
X016021Y019237D02*
X031233Y019237D01*
X031210Y018920D02*
X016338Y018920D01*
X016496Y018762D02*
X031203Y018762D01*
X031203Y018603D02*
X016655Y018603D01*
X016814Y018445D02*
X029531Y018445D01*
X029505Y018418D02*
X029606Y018519D01*
X029737Y018573D01*
X029880Y018573D01*
X030011Y018519D01*
X030112Y018418D01*
X030166Y018286D01*
X031203Y018286D01*
X031203Y018445D02*
X030085Y018445D01*
X030166Y018286D02*
X030166Y018144D01*
X030112Y018012D01*
X030018Y017919D01*
X030018Y016552D01*
X030018Y016378D01*
X029331Y015691D01*
X029208Y015568D01*
X028417Y015568D01*
X028324Y015474D01*
X028192Y015420D01*
X028050Y015420D01*
X027918Y015474D01*
X027817Y015575D01*
X027763Y015706D01*
X027763Y015849D01*
X027817Y015981D01*
X027918Y016081D01*
X028050Y016136D01*
X028192Y016136D01*
X028324Y016081D01*
X028417Y015988D01*
X029034Y015988D01*
X029598Y016552D01*
X029598Y017919D01*
X029505Y018012D01*
X029450Y018144D01*
X029450Y018286D01*
X016972Y018286D01*
X017131Y018127D02*
X029457Y018127D01*
X029450Y018286D02*
X029505Y018418D01*
X029548Y017969D02*
X017289Y017969D01*
X017448Y017810D02*
X029598Y017810D01*
X029598Y017652D02*
X017606Y017652D01*
X017643Y017493D02*
X029598Y017493D01*
X029598Y017335D02*
X017643Y017335D01*
X017643Y017176D02*
X029598Y017176D01*
X029598Y017018D02*
X017643Y017018D01*
X017643Y016859D02*
X029598Y016859D01*
X029598Y016701D02*
X017643Y016701D01*
X017643Y016542D02*
X017879Y016542D01*
X017918Y016581D02*
X017817Y016481D01*
X017763Y016349D01*
X017763Y016206D01*
X017817Y016075D01*
X017918Y015974D01*
X018050Y015920D01*
X018192Y015920D01*
X018324Y015974D01*
X018424Y016075D01*
X018479Y016206D01*
X018479Y016349D01*
X018424Y016481D01*
X018324Y016581D01*
X018192Y016636D01*
X018050Y016636D01*
X017918Y016581D01*
X017777Y016384D02*
X017643Y016384D01*
X017643Y016225D02*
X017763Y016225D01*
X017826Y016066D02*
X017643Y016066D01*
X017643Y015908D02*
X021676Y015908D01*
X021680Y015913D02*
X022061Y015913D01*
X022331Y015643D01*
X022331Y014662D01*
X022061Y014393D01*
X021680Y014393D01*
X021411Y014662D01*
X021411Y015643D01*
X021680Y015913D01*
X021517Y015749D02*
X017643Y015749D01*
X017643Y015591D02*
X021411Y015591D01*
X021411Y015432D02*
X017643Y015432D01*
X017643Y015274D02*
X021411Y015274D01*
X021411Y015115D02*
X017768Y015115D01*
X017926Y014957D02*
X021411Y014957D01*
X021411Y014798D02*
X018085Y014798D01*
X018244Y014640D02*
X021434Y014640D01*
X021592Y014481D02*
X018402Y014481D01*
X018561Y014322D02*
X027535Y014322D01*
X027441Y014481D02*
X024150Y014481D01*
X024061Y014393D02*
X024331Y014662D01*
X024331Y015643D01*
X024061Y015913D01*
X023680Y015913D01*
X023411Y015643D01*
X023411Y014662D01*
X023680Y014393D01*
X024061Y014393D01*
X024308Y014640D02*
X027441Y014640D01*
X027475Y014798D02*
X024331Y014798D01*
X024331Y014957D02*
X027633Y014957D01*
X028121Y014653D02*
X028121Y014590D01*
X031621Y014590D01*
X031203Y014322D02*
X028707Y014322D01*
X028560Y014005D02*
X031295Y014005D01*
X031203Y013847D02*
X028718Y013847D01*
X028121Y013590D02*
X027996Y013590D01*
X027996Y013465D01*
X027996Y013590D02*
X031621Y013590D01*
X031257Y013213D02*
X028597Y013213D01*
X028670Y012896D02*
X031203Y012896D01*
X031826Y013054D02*
X019829Y013054D01*
X019988Y012896D02*
X020732Y012896D01*
X020643Y012737D02*
X020146Y012737D01*
X020305Y012578D02*
X020639Y012578D01*
X020722Y012420D02*
X020463Y012420D01*
X020622Y012261D02*
X020973Y012261D01*
X020853Y012103D02*
X020780Y012103D01*
X021349Y012737D02*
X027441Y012737D01*
X027572Y012896D02*
X021260Y012896D01*
X019670Y013213D02*
X027645Y013213D01*
X027486Y013371D02*
X019512Y013371D01*
X019353Y013530D02*
X027441Y013530D01*
X027441Y013688D02*
X019195Y013688D01*
X019036Y013847D02*
X027524Y013847D01*
X027682Y014005D02*
X018878Y014005D01*
X018719Y014164D02*
X031826Y014164D01*
X031826Y015115D02*
X024331Y015115D01*
X024331Y015274D02*
X031203Y015274D01*
X031203Y015432D02*
X028223Y015432D01*
X028019Y015432D02*
X024331Y015432D01*
X024331Y015591D02*
X027811Y015591D01*
X027763Y015749D02*
X024225Y015749D01*
X024066Y015908D02*
X027787Y015908D01*
X027903Y016066D02*
X022479Y016066D01*
X022487Y016075D02*
X022386Y015974D01*
X022255Y015920D01*
X022112Y015920D01*
X021981Y015974D01*
X021880Y016075D01*
X021825Y016206D01*
X021825Y016349D01*
X021880Y016481D01*
X021981Y016581D01*
X022112Y016636D01*
X022255Y016636D01*
X022386Y016581D01*
X022487Y016481D01*
X022541Y016349D01*
X022541Y016206D01*
X022487Y016075D01*
X022541Y016225D02*
X029271Y016225D01*
X029113Y016066D02*
X028339Y016066D01*
X029231Y015591D02*
X031203Y015591D01*
X031203Y015749D02*
X029389Y015749D01*
X029548Y015908D02*
X031203Y015908D01*
X031245Y016225D02*
X029865Y016225D01*
X030018Y016384D02*
X031203Y016384D01*
X031203Y016542D02*
X030018Y016542D01*
X030018Y016701D02*
X031203Y016701D01*
X031203Y016859D02*
X030018Y016859D01*
X030018Y017018D02*
X031826Y017018D01*
X031621Y017153D02*
X031289Y017153D01*
X031183Y017258D01*
X031183Y017590D01*
X031621Y017590D01*
X031621Y017153D01*
X031621Y017176D02*
X031621Y017176D01*
X031621Y017335D02*
X031621Y017335D01*
X031621Y017493D02*
X031621Y017493D01*
X031621Y017590D02*
X031621Y017590D01*
X031621Y017652D02*
X031621Y017652D01*
X031621Y017810D02*
X031621Y017810D01*
X031621Y017969D02*
X031621Y017969D01*
X031826Y018127D02*
X030160Y018127D01*
X030069Y017969D02*
X031230Y017969D01*
X031183Y017810D02*
X030018Y017810D01*
X030018Y017652D02*
X031183Y017652D01*
X031183Y017493D02*
X030018Y017493D01*
X030018Y017335D02*
X031183Y017335D01*
X031265Y017176D02*
X030018Y017176D01*
X029588Y016542D02*
X022426Y016542D01*
X022527Y016384D02*
X029430Y016384D01*
X029707Y016066D02*
X031826Y016066D01*
X031246Y014957D02*
X028608Y014957D01*
X023676Y015908D02*
X023066Y015908D01*
X023061Y015913D02*
X023331Y015643D01*
X023331Y014662D01*
X023061Y014393D01*
X022680Y014393D01*
X022411Y014662D01*
X022411Y015643D01*
X022680Y015913D01*
X023061Y015913D01*
X023225Y015749D02*
X023517Y015749D01*
X023411Y015591D02*
X023331Y015591D01*
X023331Y015432D02*
X023411Y015432D01*
X023411Y015274D02*
X023331Y015274D01*
X023331Y015115D02*
X023411Y015115D01*
X023411Y014957D02*
X023331Y014957D01*
X023331Y014798D02*
X023411Y014798D01*
X023434Y014640D02*
X023308Y014640D01*
X023150Y014481D02*
X023592Y014481D01*
X022592Y014481D02*
X022150Y014481D01*
X022308Y014640D02*
X022434Y014640D01*
X022411Y014798D02*
X022331Y014798D01*
X022331Y014957D02*
X022411Y014957D01*
X022411Y015115D02*
X022331Y015115D01*
X022331Y015274D02*
X022411Y015274D01*
X022411Y015432D02*
X022331Y015432D01*
X022331Y015591D02*
X022411Y015591D01*
X022517Y015749D02*
X022225Y015749D01*
X022066Y015908D02*
X022676Y015908D01*
X021888Y016066D02*
X020416Y016066D01*
X020424Y016075D02*
X020324Y015974D01*
X020192Y015920D01*
X020050Y015920D01*
X019918Y015974D01*
X019817Y016075D01*
X019763Y016206D01*
X019763Y016349D01*
X019817Y016481D01*
X019918Y016581D01*
X020050Y016636D01*
X020192Y016636D01*
X020324Y016581D01*
X020424Y016481D01*
X020479Y016349D01*
X020479Y016206D01*
X020424Y016075D01*
X020479Y016225D02*
X021825Y016225D01*
X021840Y016384D02*
X020465Y016384D01*
X020363Y016542D02*
X021941Y016542D01*
X019879Y016542D02*
X018363Y016542D01*
X018465Y016384D02*
X019777Y016384D01*
X019763Y016225D02*
X018479Y016225D01*
X018416Y016066D02*
X019826Y016066D01*
X016179Y019079D02*
X031826Y019079D01*
X020098Y011152D02*
X018729Y011152D01*
X018888Y011310D02*
X020042Y011310D01*
X019883Y011469D02*
X019046Y011469D01*
X019477Y011627D02*
X019725Y011627D01*
X020098Y010993D02*
X018571Y010993D01*
X018412Y010834D02*
X020098Y010834D01*
X020098Y010676D02*
X018254Y010676D01*
X018095Y010517D02*
X020098Y010517D01*
X020098Y010359D02*
X017937Y010359D01*
X017778Y010200D02*
X020098Y010200D01*
X020098Y010042D02*
X017619Y010042D01*
X017461Y009883D02*
X020095Y009883D01*
X019976Y009725D02*
X017302Y009725D01*
X017144Y009566D02*
X019950Y009566D01*
X019996Y009408D02*
X016985Y009408D01*
X014341Y007664D02*
X013901Y007664D01*
X013901Y007505D02*
X014341Y007505D01*
X014341Y007347D02*
X013901Y007347D01*
X013901Y007188D02*
X014341Y007188D01*
X014341Y007029D02*
X013901Y007029D01*
X013901Y006871D02*
X014341Y006871D01*
X014341Y006712D02*
X013901Y006712D01*
X013901Y006554D02*
X014341Y006554D01*
X014341Y006395D02*
X013901Y006395D01*
X013901Y006237D02*
X014341Y006237D01*
X014341Y006078D02*
X013901Y006078D01*
X013901Y005920D02*
X014341Y005920D01*
X014341Y005761D02*
X013901Y005761D01*
X013901Y005603D02*
X014341Y005603D01*
X014324Y005444D02*
X013918Y005444D01*
X014076Y005285D02*
X014166Y005285D01*
X014161Y005127D02*
X014081Y005127D01*
X014081Y004968D02*
X014161Y004968D01*
X014251Y004810D02*
X013991Y004810D01*
X013833Y004651D02*
X014409Y004651D01*
X014430Y004550D02*
X014811Y004550D01*
X015081Y004281D01*
X015081Y003900D01*
X014811Y003630D01*
X014430Y003630D01*
X014161Y003900D01*
X014161Y004281D01*
X014430Y004550D01*
X014373Y004493D02*
X013869Y004493D01*
X013811Y004550D02*
X014081Y004281D01*
X014081Y003900D01*
X013811Y003630D01*
X013430Y003630D01*
X013161Y003900D01*
X013161Y004281D01*
X013430Y004550D01*
X013811Y004550D01*
X014027Y004334D02*
X014214Y004334D01*
X014161Y004176D02*
X014081Y004176D01*
X014081Y004017D02*
X014161Y004017D01*
X014202Y003859D02*
X014040Y003859D01*
X013881Y003700D02*
X014361Y003700D01*
X014881Y003700D02*
X015361Y003700D01*
X015430Y003630D02*
X015161Y003900D01*
X015161Y004281D01*
X015430Y004550D01*
X015811Y004550D01*
X016081Y004281D01*
X016081Y003900D01*
X015811Y003630D01*
X015430Y003630D01*
X015202Y003859D02*
X015040Y003859D01*
X015081Y004017D02*
X015161Y004017D01*
X015161Y004176D02*
X015081Y004176D01*
X015027Y004334D02*
X015214Y004334D01*
X015373Y004493D02*
X014869Y004493D01*
X015869Y004493D02*
X016373Y004493D01*
X016214Y004334D02*
X016027Y004334D01*
X016081Y004176D02*
X016161Y004176D01*
X016161Y004017D02*
X016081Y004017D01*
X016040Y003859D02*
X016202Y003859D01*
X016361Y003700D02*
X015881Y003700D01*
X016841Y003541D02*
X006417Y003541D01*
X007881Y003700D02*
X008361Y003700D01*
X008430Y003630D02*
X008161Y003900D01*
X008161Y004281D01*
X008430Y004550D01*
X008811Y004550D01*
X009081Y004281D01*
X009081Y003900D01*
X008811Y003630D01*
X008430Y003630D01*
X008202Y003859D02*
X008040Y003859D01*
X008081Y004017D02*
X008161Y004017D01*
X008161Y004176D02*
X008081Y004176D01*
X008027Y004334D02*
X008214Y004334D01*
X008373Y004493D02*
X007869Y004493D01*
X007861Y004651D02*
X008381Y004651D01*
X008422Y004610D02*
X008141Y004891D01*
X008141Y005070D01*
X008601Y005070D01*
X008601Y004610D01*
X008422Y004610D01*
X008601Y004651D02*
X008641Y004651D01*
X008641Y004610D02*
X008641Y005070D01*
X008601Y005070D01*
X008601Y005110D01*
X008141Y005110D01*
X008141Y005289D01*
X008422Y005570D01*
X008601Y005570D01*
X008601Y005110D01*
X008641Y005110D01*
X008641Y005070D01*
X009101Y005070D01*
X009101Y004891D01*
X008820Y004610D01*
X008641Y004610D01*
X008641Y004810D02*
X008601Y004810D01*
X008601Y004968D02*
X008641Y004968D01*
X008641Y005110D02*
X009101Y005110D01*
X009101Y005289D01*
X008820Y005570D01*
X008641Y005570D01*
X008641Y005110D01*
X008641Y005127D02*
X008601Y005127D01*
X008601Y005285D02*
X008641Y005285D01*
X008641Y005444D02*
X008601Y005444D01*
X008296Y005444D02*
X007946Y005444D01*
X008101Y005285D02*
X008141Y005285D01*
X008141Y005127D02*
X008101Y005127D01*
X008101Y004968D02*
X008141Y004968D01*
X008223Y004810D02*
X008019Y004810D01*
X007223Y004810D02*
X002416Y004810D01*
X002416Y004968D02*
X004398Y004968D01*
X004151Y005127D02*
X002416Y005127D01*
X002416Y005285D02*
X004033Y005285D01*
X003246Y005444D02*
X002416Y005444D01*
X002416Y005603D02*
X003216Y005603D01*
X003216Y005761D02*
X002416Y005761D01*
X003776Y007188D02*
X013341Y007188D01*
X013341Y007347D02*
X003776Y007347D01*
X003776Y007505D02*
X013341Y007505D01*
X013341Y007664D02*
X003903Y007664D01*
X004061Y007822D02*
X013341Y007822D01*
X013341Y007981D02*
X013330Y007981D01*
X013341Y008456D02*
X013324Y008456D01*
X013340Y008615D02*
X011541Y008615D01*
X011664Y008773D02*
X013263Y008773D01*
X013271Y008932D02*
X011822Y008932D01*
X011981Y009091D02*
X013341Y009091D01*
X013341Y009249D02*
X012139Y009249D01*
X008895Y006395D02*
X004784Y006395D01*
X005209Y005285D02*
X007141Y005285D01*
X007141Y005127D02*
X005091Y005127D01*
X004844Y004968D02*
X007141Y004968D01*
X008861Y004651D02*
X009381Y004651D01*
X009422Y004610D02*
X009141Y004891D01*
X009141Y005070D01*
X009601Y005070D01*
X009601Y004610D01*
X009422Y004610D01*
X009430Y004550D02*
X009811Y004550D01*
X010081Y004281D01*
X010081Y003900D01*
X009811Y003630D01*
X009430Y003630D01*
X009161Y003900D01*
X009161Y004281D01*
X009430Y004550D01*
X009373Y004493D02*
X008869Y004493D01*
X009027Y004334D02*
X009214Y004334D01*
X009161Y004176D02*
X009081Y004176D01*
X009081Y004017D02*
X009161Y004017D01*
X009202Y003859D02*
X009040Y003859D01*
X008881Y003700D02*
X009361Y003700D01*
X009881Y003700D02*
X010361Y003700D01*
X010430Y003630D02*
X010161Y003900D01*
X010161Y004281D01*
X010430Y004550D01*
X010811Y004550D01*
X011081Y004281D01*
X011081Y003900D01*
X010811Y003630D01*
X010430Y003630D01*
X010202Y003859D02*
X010040Y003859D01*
X010081Y004017D02*
X010161Y004017D01*
X010161Y004176D02*
X010081Y004176D01*
X010027Y004334D02*
X010214Y004334D01*
X010373Y004493D02*
X009869Y004493D01*
X009820Y004610D02*
X009641Y004610D01*
X009641Y005070D01*
X009601Y005070D01*
X009601Y005110D01*
X009141Y005110D01*
X009141Y005289D01*
X009422Y005570D01*
X009601Y005570D01*
X009601Y005110D01*
X009641Y005110D01*
X009641Y005070D01*
X010101Y005070D01*
X010101Y004891D01*
X009820Y004610D01*
X009861Y004651D02*
X010381Y004651D01*
X010422Y004610D02*
X010141Y004891D01*
X010141Y005070D01*
X010601Y005070D01*
X010601Y004610D01*
X010422Y004610D01*
X010601Y004651D02*
X010641Y004651D01*
X010641Y004610D02*
X010641Y005070D01*
X010601Y005070D01*
X010601Y005110D01*
X010141Y005110D01*
X010141Y005289D01*
X010422Y005570D01*
X010601Y005570D01*
X010601Y005110D01*
X010641Y005110D01*
X010641Y005070D01*
X011101Y005070D01*
X011101Y004891D01*
X010820Y004610D01*
X010641Y004610D01*
X010641Y004810D02*
X010601Y004810D01*
X010601Y004968D02*
X010641Y004968D01*
X010641Y005110D02*
X011101Y005110D01*
X011101Y005289D01*
X010820Y005570D01*
X010641Y005570D01*
X010641Y005110D01*
X010641Y005127D02*
X010601Y005127D01*
X010601Y005285D02*
X010641Y005285D01*
X010641Y005444D02*
X010601Y005444D01*
X010296Y005444D02*
X009946Y005444D01*
X009820Y005570D02*
X010101Y005289D01*
X010101Y005110D01*
X009641Y005110D01*
X009641Y005570D01*
X009820Y005570D01*
X009641Y005444D02*
X009601Y005444D01*
X009601Y005285D02*
X009641Y005285D01*
X009641Y005127D02*
X009601Y005127D01*
X009601Y004968D02*
X009641Y004968D01*
X009641Y004810D02*
X009601Y004810D01*
X009601Y004651D02*
X009641Y004651D01*
X010019Y004810D02*
X010223Y004810D01*
X010141Y004968D02*
X010101Y004968D01*
X010101Y005127D02*
X010141Y005127D01*
X010141Y005285D02*
X010101Y005285D01*
X009296Y005444D02*
X008946Y005444D01*
X009101Y005285D02*
X009141Y005285D01*
X009141Y005127D02*
X009101Y005127D01*
X009101Y004968D02*
X009141Y004968D01*
X009223Y004810D02*
X009019Y004810D01*
X010861Y004651D02*
X011409Y004651D01*
X011430Y004550D02*
X011811Y004550D01*
X012081Y004281D01*
X012081Y003900D01*
X011811Y003630D01*
X011430Y003630D01*
X011161Y003900D01*
X011161Y004281D01*
X011430Y004550D01*
X011373Y004493D02*
X010869Y004493D01*
X011027Y004334D02*
X011214Y004334D01*
X011161Y004176D02*
X011081Y004176D01*
X011081Y004017D02*
X011161Y004017D01*
X011202Y003859D02*
X011040Y003859D01*
X010881Y003700D02*
X011361Y003700D01*
X011881Y003700D02*
X012361Y003700D01*
X012430Y003630D02*
X012161Y003900D01*
X012161Y004281D01*
X012430Y004550D01*
X012811Y004550D01*
X013081Y004281D01*
X013081Y003900D01*
X012811Y003630D01*
X012430Y003630D01*
X012202Y003859D02*
X012040Y003859D01*
X012081Y004017D02*
X012161Y004017D01*
X012161Y004176D02*
X012081Y004176D01*
X012027Y004334D02*
X012214Y004334D01*
X012373Y004493D02*
X011869Y004493D01*
X011251Y004810D02*
X011019Y004810D01*
X011101Y004968D02*
X011161Y004968D01*
X011161Y005127D02*
X011101Y005127D01*
X011101Y005285D02*
X011166Y005285D01*
X011324Y005444D02*
X010946Y005444D01*
X011918Y005444D02*
X012324Y005444D01*
X012918Y005444D02*
X013324Y005444D01*
X013373Y004493D02*
X012869Y004493D01*
X013027Y004334D02*
X013214Y004334D01*
X013161Y004176D02*
X013081Y004176D01*
X013081Y004017D02*
X013161Y004017D01*
X013202Y003859D02*
X013040Y003859D01*
X012881Y003700D02*
X013361Y003700D01*
X016833Y004651D02*
X016841Y004651D01*
X018081Y004968D02*
X018103Y004968D01*
X018081Y005127D02*
X018161Y005127D01*
X018166Y005285D02*
X018076Y005285D01*
X017918Y005444D02*
X018324Y005444D01*
X018918Y005444D02*
X019324Y005444D01*
X019430Y005550D02*
X019161Y005281D01*
X019161Y004900D01*
X019430Y004630D01*
X019811Y004630D01*
X020081Y004900D01*
X020081Y005281D01*
X019811Y005550D01*
X019430Y005550D01*
X019166Y005285D02*
X019076Y005285D01*
X019081Y005127D02*
X019161Y005127D01*
X019161Y004968D02*
X019081Y004968D01*
X018991Y004810D02*
X019251Y004810D01*
X019409Y004651D02*
X018833Y004651D01*
X018869Y004493D02*
X019373Y004493D01*
X019430Y004550D02*
X019161Y004281D01*
X019161Y003900D01*
X019430Y003630D01*
X019811Y003630D01*
X020081Y003900D01*
X020081Y004281D01*
X019811Y004550D01*
X019430Y004550D01*
X019214Y004334D02*
X019027Y004334D01*
X019081Y004176D02*
X019161Y004176D01*
X019161Y004017D02*
X019081Y004017D01*
X019040Y003859D02*
X019202Y003859D01*
X019361Y003700D02*
X018881Y003700D01*
X018401Y003541D02*
X031203Y003541D01*
X031203Y003383D02*
X018401Y003383D01*
X018401Y003224D02*
X031246Y003224D01*
X031203Y003700D02*
X026881Y003700D01*
X026811Y003630D02*
X026430Y003630D01*
X026161Y003900D01*
X026161Y004281D01*
X026430Y004550D01*
X026811Y004550D01*
X027081Y004281D01*
X027081Y003900D01*
X026811Y003630D01*
X027040Y003859D02*
X031203Y003859D01*
X031289Y004153D02*
X031621Y004153D01*
X031621Y004590D01*
X031621Y004590D01*
X031183Y004590D01*
X031183Y004258D01*
X031289Y004153D01*
X031266Y004176D02*
X027081Y004176D01*
X027081Y004017D02*
X031826Y004017D01*
X031621Y004176D02*
X031621Y004176D01*
X031621Y004334D02*
X031621Y004334D01*
X031621Y004493D02*
X031621Y004493D01*
X031621Y004651D02*
X031621Y004651D01*
X031621Y004810D02*
X031621Y004810D01*
X031621Y004968D02*
X031621Y004968D01*
X031183Y004810D02*
X026991Y004810D01*
X026833Y004651D02*
X031183Y004651D01*
X031183Y004493D02*
X026869Y004493D01*
X027027Y004334D02*
X031183Y004334D01*
X031826Y003066D02*
X018401Y003066D01*
X018401Y002907D02*
X031826Y002907D01*
X026361Y003700D02*
X025881Y003700D01*
X025811Y003630D02*
X026081Y003900D01*
X026081Y004281D01*
X025811Y004550D01*
X025430Y004550D01*
X025161Y004281D01*
X025161Y003900D01*
X025430Y003630D01*
X025811Y003630D01*
X026040Y003859D02*
X026202Y003859D01*
X026161Y004017D02*
X026081Y004017D01*
X026081Y004176D02*
X026161Y004176D01*
X026214Y004334D02*
X026027Y004334D01*
X025869Y004493D02*
X026373Y004493D01*
X026409Y004651D02*
X025833Y004651D01*
X025811Y004630D02*
X025430Y004630D01*
X025161Y004900D01*
X025161Y005281D01*
X025430Y005550D01*
X025811Y005550D01*
X026081Y005281D01*
X026081Y004900D01*
X025811Y004630D01*
X025991Y004810D02*
X026251Y004810D01*
X026161Y004968D02*
X026081Y004968D01*
X026081Y005127D02*
X026161Y005127D01*
X026166Y005285D02*
X026076Y005285D01*
X025918Y005444D02*
X026324Y005444D01*
X025324Y005444D02*
X024918Y005444D01*
X025076Y005285D02*
X025166Y005285D01*
X025161Y005127D02*
X025081Y005127D01*
X025081Y004968D02*
X025161Y004968D01*
X025251Y004810D02*
X024991Y004810D01*
X024833Y004651D02*
X025409Y004651D01*
X025373Y004493D02*
X024869Y004493D01*
X025027Y004334D02*
X025214Y004334D01*
X025161Y004176D02*
X025081Y004176D01*
X025081Y004017D02*
X025161Y004017D01*
X025202Y003859D02*
X025040Y003859D01*
X024881Y003700D02*
X025361Y003700D01*
X020361Y003700D02*
X019881Y003700D01*
X020040Y003859D02*
X020202Y003859D01*
X020161Y004017D02*
X020081Y004017D01*
X020081Y004176D02*
X020161Y004176D01*
X020214Y004334D02*
X020027Y004334D01*
X019869Y004493D02*
X020373Y004493D01*
X020409Y004651D02*
X019833Y004651D01*
X019991Y004810D02*
X020251Y004810D01*
X020161Y004968D02*
X020081Y004968D01*
X020081Y005127D02*
X020161Y005127D01*
X020166Y005285D02*
X020076Y005285D01*
X019918Y005444D02*
X020324Y005444D01*
X021776Y007664D02*
X022729Y007664D01*
X022642Y007822D02*
X021791Y007822D01*
X022000Y007981D02*
X022641Y007981D01*
X014398Y014164D02*
X014304Y014164D01*
X014239Y014005D02*
X014146Y014005D01*
X014463Y014322D02*
X014556Y014322D01*
X014621Y014481D02*
X014715Y014481D01*
X014780Y014640D02*
X014873Y014640D01*
X013015Y017969D02*
X010854Y017969D01*
X011012Y018127D02*
X012299Y018127D01*
X012140Y018286D02*
X011041Y018286D01*
X011041Y018445D02*
X012066Y018445D01*
X012066Y018603D02*
X011041Y018603D01*
X011041Y018762D02*
X012066Y018762D01*
X012166Y018920D02*
X011041Y018920D01*
X009227Y019079D02*
X008986Y019079D01*
X009041Y018920D02*
X009181Y018920D01*
X009181Y018762D02*
X009041Y018762D01*
X009041Y018603D02*
X009181Y018603D01*
X009181Y018445D02*
X009041Y018445D01*
X009041Y018286D02*
X009181Y018286D01*
X009201Y018127D02*
X009012Y018127D01*
X008854Y017969D02*
X009360Y017969D01*
X008388Y017969D02*
X007854Y017969D01*
X008012Y018127D02*
X008230Y018127D01*
X008201Y018286D02*
X008041Y018286D01*
X008041Y018445D02*
X008201Y018445D01*
X008201Y018603D02*
X008041Y018603D01*
X008041Y018762D02*
X008201Y018762D01*
X008201Y018920D02*
X008041Y018920D01*
X007986Y019079D02*
X008256Y019079D01*
X008411Y019237D02*
X007831Y019237D01*
X007831Y019396D02*
X008411Y019396D01*
X008411Y019554D02*
X007831Y019554D01*
X007831Y019713D02*
X008411Y019713D01*
X008723Y020189D02*
X006268Y020189D01*
X006268Y020030D02*
X007411Y020030D01*
X007411Y019871D02*
X006268Y019871D01*
X006268Y019713D02*
X007411Y019713D01*
X007411Y019554D02*
X006268Y019554D01*
X006268Y019396D02*
X007411Y019396D01*
X007411Y019237D02*
X006828Y019237D01*
X006986Y019079D02*
X007256Y019079D01*
X007201Y018920D02*
X007041Y018920D01*
X007041Y018762D02*
X007201Y018762D01*
X007201Y018603D02*
X007041Y018603D01*
X007041Y018445D02*
X007201Y018445D01*
X007201Y018286D02*
X007041Y018286D01*
X007012Y018127D02*
X007230Y018127D01*
X007388Y017969D02*
X006854Y017969D01*
X006414Y019237D02*
X006268Y019237D01*
X005848Y019237D02*
X005828Y019237D01*
X006161Y020347D02*
X008723Y020347D01*
X008723Y020506D02*
X006002Y020506D01*
X006451Y020664D02*
X007762Y020664D01*
X007604Y020823D02*
X006589Y020823D01*
X006655Y020981D02*
X007566Y020981D01*
X007566Y021140D02*
X006656Y021140D01*
X006614Y021298D02*
X007566Y021298D01*
X007703Y021457D02*
X006511Y021457D01*
X008121Y020981D02*
X008121Y020981D01*
X008121Y020823D02*
X008121Y020823D01*
X008121Y020664D02*
X008121Y020664D01*
X008480Y020664D02*
X008723Y020664D01*
X008723Y020823D02*
X008638Y020823D01*
X008676Y020981D02*
X008723Y020981D01*
X008723Y021140D02*
X008676Y021140D01*
X008676Y021298D02*
X008723Y021298D01*
X008723Y021457D02*
X008539Y021457D01*
X013768Y018127D02*
X014327Y018127D01*
X014169Y018286D02*
X013926Y018286D01*
D26*
X015808Y017840D03*
X027121Y010340D03*
X006621Y002715D03*
X006121Y003215D03*
M02*
