%
M48
M72
T01C0.0236
T02C0.0240
T03C0.0315
T04C0.0320
T05C0.0400
%
T01
X6121Y3215
X6621Y2715
X4621Y6715
X9058Y6715
X11183Y8590
X12933Y9715
X13621Y8840
X14621Y8653
X14058Y8028
X13058Y8215
X16808Y8153
X20308Y9590
X20933Y9528
X20621Y10153
X21183Y11965
X20996Y12653
X19246Y11903
X17558Y12278
X17496Y11715
X15558Y13653
X15121Y14028
X14933Y15090
X15371Y15590
X16496Y15528
X18121Y16278
X20121Y16278
X22183Y16278
X24058Y16278
X26183Y16215
X28121Y15778
X29808Y18215
X23621Y12340
X24121Y11965
X27121Y10340
X26933Y9528
X27371Y8778
X27933Y9153
X22996Y7903
X22621Y7028
X21621Y7340
X21433Y7840
X17121Y5528
X16121Y5528
X14183Y12278
X15808Y17840
X15621Y19340
X5996Y14465
X5058Y14715
T02
X12121Y13590
X25121Y13090
T03
X31621Y12590
X31621Y11590
X31621Y10590
X31621Y9590
X31621Y8590
X31621Y7590
X31621Y6590
X31621Y5590
X31621Y4590
X31621Y3590
X31621Y13590
X31621Y14590
X31621Y15590
X31621Y16590
X31621Y17590
X31621Y18590
X31621Y19590
X31621Y20590
T04
X28121Y14590
X28121Y13590
X28121Y12590
X28121Y11590
X16058Y12290
X16058Y10390
X10621Y15590
X9621Y15590
X8621Y15590
X7621Y15590
X6621Y15590
X5621Y15590
X4621Y15590
X3621Y15590
X3621Y18590
X4621Y18590
X5621Y18590
X6621Y18590
X7621Y18590
X8621Y18590
X9621Y18590
X10621Y18590
X12621Y18590
X14621Y18590
X14621Y16590
X12621Y16590
X8121Y21090
X6121Y21090
X5121Y21090
X3121Y21090
T05
X4621Y3590
X4621Y5590
X7621Y5090
X8621Y5090
X9621Y5090
X10621Y5090
X11621Y5090
X12621Y5090
X13621Y5090
X14621Y5090
X15621Y5090
X16621Y5090
X17621Y5090
X18621Y5090
X19621Y5090
X20621Y5090
X21621Y5090
X22621Y5090
X23621Y5090
X24621Y5090
X25621Y5090
X26621Y5090
X26621Y4090
X25621Y4090
X24621Y4090
X23621Y4090
X22621Y4090
X21621Y4090
X20621Y4090
X19621Y4090
X18621Y4090
X17621Y4090
X16621Y4090
X15621Y4090
X14621Y4090
X13621Y4090
X12621Y4090
X11621Y4090
X10621Y4090
X9621Y4090
X8621Y4090
X7621Y4090
X13621Y13090
X13621Y15090
X13621Y20590
X14621Y20590
X15621Y20590
X16621Y20590
X11621Y20590
X10621Y20590
X9621Y20590
X21871Y15153
X22871Y15153
X23871Y15153
M30
