%
M48
M72
T01C0.0236
T02C0.0240
T03C0.0315
T04C0.0320
T05C0.0360
T06C0.0400
T07C0.0440
T08C0.0520
T09C0.0710
T10C0.1100
T11C0.1260
T12C0.1300
%
T01
X9556Y9589
X13181Y13589
X19181Y13589
X25181Y13589
X31181Y13589
X35181Y17214
X32556Y18589
X37306Y9589
X36168Y2032
X32625Y2032
X32444Y30145
X35987Y30145
T02
X30621Y28949
X28841Y27809
X28051Y27599
X27271Y27379
X25981Y24509
X23501Y22309
X22661Y20859
X20341Y22309
X21001Y23539
X20341Y24549
X21001Y25479
X19681Y26799
X20731Y27639
X22781Y28359
X16611Y25979
X17151Y24349
X13021Y28949
X11051Y28949
X15121Y29239
X17721Y19479
X18381Y18649
X20341Y17699
X21501Y17699
X20771Y16589
X20491Y15099
X23301Y16939
X24391Y14119
X20161Y12829
X16361Y9829
X12021Y6929
X12201Y6279
X11871Y5349
X12721Y5109
X12391Y4039
X10881Y3609
X10491Y3969
X21501Y9059
X21831Y8179
X26571Y3439
X27361Y3359
X39071Y16679
X30241Y18199
X29711Y16939
X14651Y16589
X11041Y18569
T03
X33625Y28570
X34806Y28570
X34806Y29751
X33625Y29751
X33806Y3607
X34987Y3607
X34987Y2426
X33806Y2426
T04
X31181Y6589
X31181Y7589
X31181Y8589
X31181Y9589
X31181Y10589
X31181Y11589
X31181Y12589
X31181Y13589
X31181Y14589
X31181Y15589
X31181Y16589
X31181Y17589
X31181Y18589
X31181Y19589
X31181Y20589
X31181Y21589
X31181Y22589
X31181Y23589
X31181Y24589
X31181Y25589
X25181Y25589
X25181Y24589
X25181Y23589
X25181Y22589
X25181Y21589
X25181Y20589
X25181Y19589
X25181Y18589
X25181Y17589
X25181Y16589
X25181Y15589
X25181Y14589
X25181Y13589
X25181Y12589
X25181Y11589
X25181Y10589
X25181Y9589
X25181Y8589
X25181Y7589
X25181Y6589
X19181Y6589
X19181Y7589
X19181Y8589
X19181Y9589
X19181Y10589
X19181Y11589
X19181Y12589
X19181Y13589
X19181Y14589
X19181Y15589
X19181Y16589
X19181Y17589
X19181Y18589
X19181Y19589
X19181Y20589
X19181Y21589
X19181Y22589
X19181Y23589
X19181Y24589
X19181Y25589
X13181Y25589
X13181Y24589
X13181Y23589
X13181Y22589
X13181Y21589
X13181Y20589
X13181Y19589
X13181Y18589
X13181Y17589
X13181Y16589
X13181Y15589
X13181Y14589
X13181Y13589
X13181Y12589
X13181Y11589
X13181Y10589
X13181Y9589
X13181Y8589
X13181Y7589
X13181Y6589
X5681Y6589
X5681Y7589
X5681Y8589
X5681Y9589
X5681Y10589
X5681Y11589
X5681Y12589
X5681Y13589
X5681Y14589
X5681Y15589
X5681Y16589
X5681Y17589
X5681Y18589
X5681Y19589
X5681Y20589
X5681Y21589
X5681Y22589
X5681Y23589
X5681Y24589
X5681Y25589
X39931Y21964
X39931Y20964
X39931Y19964
X39931Y18089
X39931Y17089
X39931Y16089
X42931Y16089
X42931Y17089
X42931Y18089
X42931Y19964
X42931Y20964
X42931Y21964
T05
X38306Y21589
X37306Y21589
X37306Y22589
X38306Y22589
X38306Y23589
X37306Y23589
X37306Y24589
X38306Y24589
X38306Y25589
X37306Y25589
X37306Y20589
X38306Y20589
X38306Y19589
X37306Y19589
X37306Y18589
X38306Y18589
X38306Y17589
X37306Y17589
X37306Y16589
X38306Y16589
X38306Y15589
X37306Y15589
X37306Y14589
X38306Y14589
X38306Y13589
X37306Y13589
X37306Y12589
X38306Y12589
X38306Y11589
X37306Y11589
X37306Y10589
X38306Y10589
X38306Y9589
X37306Y9589
X37306Y8589
X38306Y8589
X38306Y7589
X37306Y7589
X37306Y6589
X38306Y6589
T06
X24181Y2964
X23181Y2964
X22181Y2964
X21181Y2964
X19181Y2964
X18181Y2964
X17181Y2964
X16181Y2964
X16181Y29089
X17181Y29089
X18181Y29089
X19181Y29089
X21181Y29089
X22181Y29089
X23181Y29089
X24181Y29089
T07
X10556Y12464
X9556Y12464
X8556Y12464
T08
X34556Y13589
X34556Y7589
T09
X41431Y6064
X41431Y4214
X41431Y2364
T10
X34556Y10589
T11
X7181Y3089
X38181Y3089
X38181Y29089
X7181Y29089
T12
X9556Y6564
M30
