G75*
G70*
%OFA0B0*%
%FSLAX24Y24*%
%IPPOS*%
%LPD*%
%AMOC8*
5,1,8,0,0,1.08239X$1,22.5*
%
%ADD10C,0.1340*%
%ADD11C,0.0640*%
%ADD12OC8,0.0640*%
%ADD13O,0.1120X0.0600*%
%ADD14O,0.0740X0.1400*%
%ADD15C,0.1380*%
%ADD16O,0.2210X0.1145*%
%ADD17O,0.0680X0.1280*%
%ADD18O,0.2080X0.1080*%
%ADD19C,0.1180*%
%ADD20C,0.0595*%
%ADD21C,0.0316*%
%ADD22R,0.0476X0.0476*%
%ADD23C,0.0480*%
D10*
X007181Y003089D03*
X038181Y003089D03*
X038181Y029089D03*
X007181Y029089D03*
D11*
X038306Y006589D03*
D12*
X037306Y006589D03*
X037306Y007589D03*
X038306Y007589D03*
X038306Y008589D03*
X037306Y008589D03*
X037306Y009589D03*
X038306Y009589D03*
X038306Y010589D03*
X037306Y010589D03*
X037306Y011589D03*
X038306Y011589D03*
X038306Y012589D03*
X037306Y012589D03*
X037306Y013589D03*
X038306Y013589D03*
X038306Y014589D03*
X037306Y014589D03*
X037306Y015589D03*
X038306Y015589D03*
X038306Y016589D03*
X037306Y016589D03*
X037306Y017589D03*
X038306Y017589D03*
X038306Y018589D03*
X037306Y018589D03*
X037306Y019589D03*
X038306Y019589D03*
X038306Y020589D03*
X037306Y020589D03*
X037306Y021589D03*
X038306Y021589D03*
X038306Y022589D03*
X037306Y022589D03*
X037306Y023589D03*
X038306Y023589D03*
X038306Y024589D03*
X037306Y024589D03*
X037306Y025589D03*
X038306Y025589D03*
D13*
X039931Y021964D03*
X039931Y020964D03*
X039931Y019964D03*
X039931Y018089D03*
X039931Y017089D03*
X039931Y016089D03*
X042931Y016089D03*
X042931Y017089D03*
X042931Y018089D03*
X042931Y019964D03*
X042931Y020964D03*
X042931Y021964D03*
X031181Y021589D03*
X031181Y022589D03*
X031181Y023589D03*
X031181Y024589D03*
X031181Y025589D03*
X025181Y025589D03*
X025181Y024589D03*
X025181Y023589D03*
X025181Y022589D03*
X025181Y021589D03*
X025181Y020589D03*
X025181Y019589D03*
X025181Y018589D03*
X025181Y017589D03*
X025181Y016589D03*
X025181Y015589D03*
X025181Y014589D03*
X025181Y013589D03*
X025181Y012589D03*
X025181Y011589D03*
X025181Y010589D03*
X025181Y009589D03*
X025181Y008589D03*
X025181Y007589D03*
X025181Y006589D03*
X019181Y006589D03*
X019181Y007589D03*
X019181Y008589D03*
X019181Y009589D03*
X019181Y010589D03*
X019181Y011589D03*
X019181Y012589D03*
X019181Y013589D03*
X019181Y014589D03*
X019181Y015589D03*
X019181Y016589D03*
X019181Y017589D03*
X019181Y018589D03*
X019181Y019589D03*
X019181Y020589D03*
X019181Y021589D03*
X019181Y022589D03*
X019181Y023589D03*
X019181Y024589D03*
X019181Y025589D03*
X013181Y025589D03*
X013181Y024589D03*
X013181Y023589D03*
X013181Y022589D03*
X013181Y021589D03*
X013181Y020589D03*
X013181Y019589D03*
X013181Y018589D03*
X013181Y017589D03*
X013181Y016589D03*
X013181Y015589D03*
X013181Y014589D03*
X013181Y013589D03*
X013181Y012589D03*
X013181Y011589D03*
X013181Y010589D03*
X013181Y009589D03*
X013181Y008589D03*
X013181Y007589D03*
X013181Y006589D03*
X005681Y006589D03*
X005681Y007589D03*
X005681Y008589D03*
X005681Y009589D03*
X005681Y010589D03*
X005681Y011589D03*
X005681Y012589D03*
X005681Y013589D03*
X005681Y014589D03*
X005681Y015589D03*
X005681Y016589D03*
X005681Y017589D03*
X005681Y018589D03*
X005681Y019589D03*
X005681Y020589D03*
X005681Y021589D03*
X005681Y022589D03*
X005681Y023589D03*
X005681Y024589D03*
X005681Y025589D03*
X031181Y020589D03*
X031181Y019589D03*
X031181Y018589D03*
X031181Y017589D03*
X031181Y016589D03*
X031181Y015589D03*
X031181Y014589D03*
X031181Y013589D03*
X031181Y012589D03*
X031181Y011589D03*
X031181Y010589D03*
X031181Y009589D03*
X031181Y008589D03*
X031181Y007589D03*
X031181Y006589D03*
D14*
X010556Y012464D03*
X009556Y012464D03*
X008556Y012464D03*
D15*
X009556Y006564D03*
D16*
X041431Y006064D03*
X041431Y004214D03*
X041431Y002364D03*
D17*
X024181Y002964D03*
X023181Y002964D03*
X022181Y002964D03*
X021181Y002964D03*
X019181Y002964D03*
X018181Y002964D03*
X017181Y002964D03*
X016181Y002964D03*
X016181Y029089D03*
X017181Y029089D03*
X018181Y029089D03*
X019181Y029089D03*
X021181Y029089D03*
X022181Y029089D03*
X023181Y029089D03*
X024181Y029089D03*
D18*
X034556Y013589D03*
X034556Y007589D03*
D19*
X034556Y010589D03*
D20*
X034987Y003607D03*
X033806Y003607D03*
X033806Y002426D03*
X034987Y002426D03*
X034806Y028570D03*
X033625Y028570D03*
X033625Y029751D03*
X034806Y029751D03*
D21*
X035987Y030145D03*
X032444Y030145D03*
X032625Y002032D03*
X036168Y002032D03*
D22*
X037306Y009589D03*
X031181Y013589D03*
X035181Y017214D03*
X032556Y018589D03*
X025181Y013589D03*
X019181Y013589D03*
X013181Y013589D03*
X009556Y009589D03*
D23*
X012021Y006929D03*
X012201Y006279D03*
X011871Y005349D03*
X012721Y005109D03*
X012391Y004039D03*
X010881Y003609D03*
X010491Y003969D03*
X016361Y009829D03*
X020161Y012829D03*
X020491Y015099D03*
X020771Y016589D03*
X020341Y017699D03*
X021501Y017699D03*
X023301Y016939D03*
X024391Y014119D03*
X029711Y016939D03*
X030241Y018199D03*
X023501Y022309D03*
X022661Y020859D03*
X020341Y022309D03*
X021001Y023539D03*
X020341Y024549D03*
X021001Y025479D03*
X019681Y026799D03*
X020731Y027639D03*
X022781Y028359D03*
X027271Y027379D03*
X028051Y027599D03*
X028841Y027809D03*
X030621Y028949D03*
X025981Y024509D03*
X017721Y019479D03*
X018381Y018649D03*
X014651Y016589D03*
X011041Y018569D03*
X017151Y024349D03*
X016611Y025979D03*
X013021Y028949D03*
X011051Y028949D03*
X015121Y029239D03*
X039071Y016679D03*
X021831Y008179D03*
X021501Y009059D03*
X026571Y003439D03*
X027361Y003359D03*
M02*
