G75*
G70*
%OFA0B0*%
%FSLAX24Y24*%
%IPPOS*%
%LPD*%
%AMOC8*
5,1,8,0,0,1.08239X$1,22.5*
%
%ADD10C,0.0560*%
%ADD11OC8,0.0560*%
%ADD12O,0.1040X0.0520*%
%ADD13O,0.0660X0.1320*%
%ADD14O,0.2130X0.1065*%
%ADD15O,0.0600X0.1200*%
%ADD16O,0.2000X0.1000*%
%ADD17C,0.0515*%
%ADD18C,0.0500*%
%ADD19R,0.0396X0.0396*%
%ADD20C,0.0100*%
%ADD21C,0.0400*%
%ADD22C,0.0160*%
D10*
X038306Y006589D03*
D11*
X037306Y006589D03*
X037306Y007589D03*
X038306Y007589D03*
X038306Y008589D03*
X037306Y008589D03*
X037306Y009589D03*
X038306Y009589D03*
X038306Y010589D03*
X037306Y010589D03*
X037306Y011589D03*
X038306Y011589D03*
X038306Y012589D03*
X037306Y012589D03*
X037306Y013589D03*
X038306Y013589D03*
X038306Y014589D03*
X037306Y014589D03*
X037306Y015589D03*
X038306Y015589D03*
X038306Y016589D03*
X037306Y016589D03*
X037306Y017589D03*
X038306Y017589D03*
X038306Y018589D03*
X037306Y018589D03*
X037306Y019589D03*
X038306Y019589D03*
X038306Y020589D03*
X037306Y020589D03*
X037306Y021589D03*
X038306Y021589D03*
X038306Y022589D03*
X037306Y022589D03*
X037306Y023589D03*
X038306Y023589D03*
X038306Y024589D03*
X037306Y024589D03*
X037306Y025589D03*
X038306Y025589D03*
D12*
X039931Y021964D03*
X039931Y020964D03*
X039931Y019964D03*
X039931Y018089D03*
X039931Y017089D03*
X039931Y016089D03*
X042931Y016089D03*
X042931Y017089D03*
X042931Y018089D03*
X042931Y019964D03*
X042931Y020964D03*
X042931Y021964D03*
X031181Y021589D03*
X031181Y022589D03*
X031181Y023589D03*
X031181Y024589D03*
X031181Y025589D03*
X025181Y025589D03*
X025181Y024589D03*
X025181Y023589D03*
X025181Y022589D03*
X025181Y021589D03*
X025181Y020589D03*
X025181Y019589D03*
X025181Y018589D03*
X025181Y017589D03*
X025181Y016589D03*
X025181Y015589D03*
X025181Y014589D03*
X025181Y013589D03*
X025181Y012589D03*
X025181Y011589D03*
X025181Y010589D03*
X025181Y009589D03*
X025181Y008589D03*
X025181Y007589D03*
X025181Y006589D03*
X019181Y006589D03*
X019181Y007589D03*
X019181Y008589D03*
X019181Y009589D03*
X019181Y010589D03*
X019181Y011589D03*
X019181Y012589D03*
X019181Y013589D03*
X019181Y014589D03*
X019181Y015589D03*
X019181Y016589D03*
X019181Y017589D03*
X019181Y018589D03*
X019181Y019589D03*
X019181Y020589D03*
X019181Y021589D03*
X019181Y022589D03*
X019181Y023589D03*
X019181Y024589D03*
X019181Y025589D03*
X013181Y025589D03*
X013181Y024589D03*
X013181Y023589D03*
X013181Y022589D03*
X013181Y021589D03*
X013181Y020589D03*
X013181Y019589D03*
X013181Y018589D03*
X013181Y017589D03*
X013181Y016589D03*
X013181Y015589D03*
X013181Y014589D03*
X013181Y013589D03*
X013181Y012589D03*
X013181Y011589D03*
X013181Y010589D03*
X013181Y009589D03*
X013181Y008589D03*
X013181Y007589D03*
X013181Y006589D03*
X005681Y006589D03*
X005681Y007589D03*
X005681Y008589D03*
X005681Y009589D03*
X005681Y010589D03*
X005681Y011589D03*
X005681Y012589D03*
X005681Y013589D03*
X005681Y014589D03*
X005681Y015589D03*
X005681Y016589D03*
X005681Y017589D03*
X005681Y018589D03*
X005681Y019589D03*
X005681Y020589D03*
X005681Y021589D03*
X005681Y022589D03*
X005681Y023589D03*
X005681Y024589D03*
X005681Y025589D03*
X031181Y020589D03*
X031181Y019589D03*
X031181Y018589D03*
X031181Y017589D03*
X031181Y016589D03*
X031181Y015589D03*
X031181Y014589D03*
X031181Y013589D03*
X031181Y012589D03*
X031181Y011589D03*
X031181Y010589D03*
X031181Y009589D03*
X031181Y008589D03*
X031181Y007589D03*
X031181Y006589D03*
D13*
X010556Y012464D03*
X009556Y012464D03*
X008556Y012464D03*
D14*
X041431Y006064D03*
X041431Y004214D03*
X041431Y002364D03*
D15*
X024181Y002964D03*
X023181Y002964D03*
X022181Y002964D03*
X021181Y002964D03*
X019181Y002964D03*
X018181Y002964D03*
X017181Y002964D03*
X016181Y002964D03*
X016181Y029089D03*
X017181Y029089D03*
X018181Y029089D03*
X019181Y029089D03*
X021181Y029089D03*
X022181Y029089D03*
X023181Y029089D03*
X024181Y029089D03*
D16*
X034556Y013589D03*
X034556Y007589D03*
D17*
X034987Y003607D03*
X033806Y003607D03*
X033806Y002426D03*
X034987Y002426D03*
X034806Y028570D03*
X033625Y028570D03*
X033625Y029751D03*
X034806Y029751D03*
D18*
X037306Y015589D02*
X037306Y014589D01*
X037306Y013589D01*
X034556Y013589D01*
X031181Y013589D01*
X025181Y013589D01*
X019181Y013589D01*
X013181Y013589D01*
X008556Y013589D01*
X005681Y013589D01*
X005556Y013589D01*
X005681Y013589D02*
X005681Y014589D01*
X005681Y015589D01*
X008556Y013589D02*
X008556Y012464D01*
X007681Y012589D02*
X007681Y010964D01*
X010556Y010964D01*
X010556Y012464D01*
X012931Y012464D01*
X013056Y012589D01*
X013181Y012589D01*
X019181Y012589D01*
X020161Y012589D01*
X025181Y012589D01*
X031181Y012589D01*
X037306Y012589D01*
X037306Y011589D01*
X037306Y010589D01*
X037181Y009714D02*
X037306Y009589D01*
X035931Y009589D01*
X035556Y009214D01*
X033306Y009214D01*
X032931Y009589D01*
X031181Y009589D01*
X025181Y009589D01*
X025181Y006589D01*
X025181Y009464D01*
X025306Y009589D01*
X019181Y009589D01*
X016361Y009589D01*
X013181Y009589D01*
X009556Y009589D01*
X005681Y009589D01*
X005681Y008589D01*
X005681Y009589D01*
X005681Y008589D01*
X005681Y006589D01*
X005681Y007589D01*
X005681Y008589D01*
X005681Y010589D02*
X005681Y011589D01*
X005681Y012589D01*
X007681Y012589D01*
X013181Y012589D02*
X013181Y011589D01*
X013181Y010589D01*
X013181Y009589D02*
X013181Y006589D01*
X013181Y007589D01*
X013181Y008589D01*
X013181Y009589D01*
X013181Y013589D02*
X013181Y015589D01*
X013181Y014589D01*
X013181Y013589D01*
X019181Y013589D02*
X019181Y015589D01*
X019181Y014589D01*
X019181Y013589D01*
X019181Y012589D02*
X019181Y011589D01*
X019181Y010589D01*
X019181Y009589D02*
X019181Y006589D01*
X019181Y009589D01*
X019181Y008589D01*
X019181Y007589D01*
X019181Y006589D01*
X025181Y006589D02*
X025181Y007589D01*
X025181Y008589D01*
X025181Y009589D01*
X025181Y010589D02*
X025181Y011589D01*
X025181Y012589D01*
X025181Y013589D02*
X025181Y015589D01*
X025181Y014589D01*
X025181Y013589D01*
X031181Y013589D02*
X031181Y015589D01*
X031181Y014589D01*
X031181Y013589D01*
X031181Y012589D02*
X031181Y011589D01*
X031181Y010589D01*
X031181Y009589D02*
X031181Y006589D01*
X032181Y006589D01*
X033806Y004964D01*
X033806Y003607D01*
X033806Y002426D01*
X034931Y003589D02*
X036431Y003589D01*
X038906Y006064D01*
X041431Y006064D01*
X037306Y006589D02*
X037306Y009589D01*
X037306Y008589D01*
X037306Y007589D01*
X037306Y006589D01*
X037306Y007589D02*
X037181Y007714D01*
X037306Y008589D02*
X037181Y008714D01*
X037306Y012589D02*
X037181Y012714D01*
X037306Y013464D02*
X037306Y013589D01*
X031181Y009589D02*
X031181Y008589D01*
X031181Y007589D01*
X031181Y006589D01*
X034931Y003589D02*
X034950Y003607D01*
X034987Y003607D01*
D19*
X037306Y009589D03*
X031181Y013589D03*
X035181Y017214D03*
X032556Y018589D03*
X025181Y013589D03*
X019181Y013589D03*
X013181Y013589D03*
X009556Y009589D03*
D20*
X012021Y006929D02*
X012751Y006199D01*
X013051Y006199D01*
X013051Y004699D01*
X012391Y004039D01*
X012531Y003709D02*
X013231Y004409D01*
X013231Y006339D01*
X013181Y006589D01*
X012201Y006279D02*
X012201Y005629D01*
X012721Y005109D01*
X011871Y005349D02*
X010491Y003969D01*
X010881Y003609D02*
X010981Y003709D01*
X012531Y003709D01*
X016181Y002964D02*
X016471Y003389D01*
X016781Y003699D01*
X020581Y003699D01*
X020891Y003389D01*
X021181Y002964D01*
X021831Y008179D02*
X026571Y003439D01*
X027361Y003359D02*
X021661Y009059D01*
X021501Y009059D01*
X020161Y012589D02*
X020161Y012829D01*
X020491Y015099D02*
X019391Y016199D01*
X018751Y016199D01*
X017721Y017229D01*
X017721Y019479D01*
X018051Y020019D02*
X018211Y020019D01*
X018671Y020479D01*
X019181Y020589D01*
X018051Y020019D02*
X018051Y018509D01*
X018361Y018199D01*
X020311Y018199D01*
X024391Y014119D01*
X020771Y016589D02*
X019181Y016589D01*
X019181Y017589D02*
X019691Y017699D01*
X020341Y017699D01*
X021501Y017699D02*
X022781Y018979D01*
X032441Y018979D01*
X036901Y023439D01*
X036941Y023469D01*
X037031Y023469D01*
X037306Y023589D01*
X036991Y024439D02*
X037031Y024469D01*
X037306Y024589D01*
X036991Y024439D02*
X036201Y023649D01*
X034321Y023649D01*
X031651Y020979D01*
X030721Y020979D01*
X028931Y019189D01*
X028891Y019159D01*
X018891Y019159D01*
X018381Y018649D01*
X017191Y021199D02*
X031611Y021199D01*
X034241Y023829D01*
X035381Y023829D01*
X036991Y025439D01*
X037031Y025469D01*
X037306Y025589D01*
X037306Y022589D02*
X036431Y022589D01*
X032556Y018714D01*
X032556Y018589D01*
X031831Y017839D02*
X035401Y017839D01*
X037031Y019469D01*
X037306Y019589D01*
X037891Y019409D02*
X037891Y020319D01*
X038181Y020319D01*
X038306Y020589D01*
X037306Y020589D02*
X037031Y020469D01*
X034581Y018019D01*
X030791Y018019D01*
X029711Y016939D01*
X030381Y017869D02*
X030711Y018199D01*
X033761Y018199D01*
X037031Y021469D01*
X037306Y021589D01*
X037891Y019409D02*
X038121Y019179D01*
X038481Y019179D01*
X039441Y018219D01*
X039931Y018089D01*
X039071Y016679D02*
X038431Y017319D01*
X038306Y017589D01*
X037891Y017409D02*
X038171Y017129D01*
X038361Y017129D01*
X038721Y016769D01*
X038721Y016559D01*
X038931Y016349D01*
X039271Y016349D01*
X039421Y016199D01*
X039931Y016089D01*
X037891Y017409D02*
X037891Y018319D01*
X038181Y018319D01*
X038306Y018589D01*
X037306Y018589D02*
X036556Y018589D01*
X035181Y017214D01*
X031831Y017839D02*
X031691Y017699D01*
X031181Y017589D01*
X030381Y017869D02*
X025861Y017869D01*
X025691Y017699D01*
X025181Y017589D01*
X024561Y018199D02*
X030241Y018199D01*
X025181Y019589D02*
X024671Y019699D01*
X023511Y020859D01*
X022661Y020859D01*
X023641Y021699D02*
X024671Y021699D01*
X025181Y021589D01*
X025181Y022589D02*
X024671Y022699D01*
X023981Y023389D01*
X022621Y023389D01*
X020031Y025979D01*
X016611Y025979D01*
X017151Y024349D02*
X017441Y024059D01*
X017891Y024059D01*
X018971Y022979D01*
X022361Y022979D01*
X023641Y021699D01*
X023501Y022309D02*
X022601Y023209D01*
X019961Y023209D01*
X019691Y023479D01*
X019181Y023589D01*
X019951Y024219D02*
X019691Y024479D01*
X019181Y024589D01*
X019551Y025339D02*
X019181Y025589D01*
X019551Y025339D02*
X020341Y024549D01*
X020321Y024219D02*
X019951Y024219D01*
X020321Y024219D02*
X021001Y023539D01*
X020171Y022479D02*
X020341Y022309D01*
X020171Y022479D02*
X019691Y022479D01*
X019181Y022589D01*
X013181Y022589D01*
X013181Y020589D02*
X012811Y020339D01*
X011041Y018569D01*
X013181Y017589D02*
X013691Y017699D01*
X017191Y021199D01*
X023301Y016939D02*
X024561Y018199D01*
X030811Y023839D02*
X031181Y023589D01*
X030811Y023839D02*
X027271Y027379D01*
X028051Y027599D02*
X030811Y024839D01*
X031181Y024589D01*
X031181Y025589D02*
X030811Y025839D01*
X028841Y027809D01*
X030621Y028949D02*
X024471Y028949D01*
X024181Y029089D01*
X023471Y028659D02*
X023181Y029089D01*
X023471Y028659D02*
X023771Y028359D01*
X025981Y028359D01*
X025981Y024509D01*
X025181Y024589D02*
X024671Y024699D01*
X022241Y027129D01*
X012871Y027129D01*
X011051Y028949D01*
X013021Y028949D02*
X014331Y027639D01*
X020731Y027639D01*
X019771Y028359D02*
X022781Y028359D01*
X022181Y029089D02*
X021891Y029519D01*
X021591Y029819D01*
X017771Y029819D01*
X017471Y029519D01*
X017181Y029089D01*
X016001Y028359D02*
X018591Y028359D01*
X018891Y028659D01*
X019181Y029089D01*
X019471Y028659D01*
X019771Y028359D01*
X019681Y026799D02*
X021001Y025479D01*
X016001Y028359D02*
X015121Y029239D01*
X014651Y016589D02*
X013181Y016589D01*
X016361Y009829D02*
X016361Y009589D01*
D21*
X016361Y009829D03*
X020161Y012829D03*
X020491Y015099D03*
X020771Y016589D03*
X020341Y017699D03*
X021501Y017699D03*
X023301Y016939D03*
X024391Y014119D03*
X029711Y016939D03*
X030241Y018199D03*
X023501Y022309D03*
X022661Y020859D03*
X020341Y022309D03*
X021001Y023539D03*
X020341Y024549D03*
X021001Y025479D03*
X019681Y026799D03*
X020731Y027639D03*
X022781Y028359D03*
X027271Y027379D03*
X028051Y027599D03*
X028841Y027809D03*
X030621Y028949D03*
X025981Y024509D03*
X017721Y019479D03*
X018381Y018649D03*
X014651Y016589D03*
X011041Y018569D03*
X017151Y024349D03*
X016611Y025979D03*
X013021Y028949D03*
X011051Y028949D03*
X015121Y029239D03*
X039071Y016679D03*
X021831Y008179D03*
X021501Y009059D03*
X026571Y003439D03*
X027361Y003359D03*
X012721Y005109D03*
X011871Y005349D03*
X012201Y006279D03*
X012021Y006929D03*
X012391Y004039D03*
X010881Y003609D03*
X010491Y003969D03*
D22*
X003976Y001320D02*
X043386Y001320D01*
X043386Y015661D01*
X043373Y015649D01*
X042931Y015649D01*
X042489Y015649D01*
X042231Y015906D01*
X042231Y016088D01*
X042931Y016088D01*
X042931Y015649D01*
X042931Y016088D01*
X042931Y016088D01*
X042931Y016089D01*
X042931Y016089D01*
X042931Y016528D01*
X042489Y016528D01*
X042231Y016271D01*
X042231Y016089D01*
X042931Y016089D01*
X042931Y016528D01*
X043373Y016528D01*
X043386Y016516D01*
X043386Y016661D01*
X043373Y016649D01*
X042931Y016649D01*
X042489Y016649D01*
X042231Y016906D01*
X042231Y017088D01*
X042931Y017088D01*
X042931Y016649D01*
X042931Y017088D01*
X042931Y017088D01*
X042931Y017089D01*
X042931Y017089D01*
X042931Y017528D01*
X042489Y017528D01*
X042231Y017271D01*
X042231Y017089D01*
X042931Y017089D01*
X042931Y017528D01*
X043373Y017528D01*
X043386Y017516D01*
X043386Y017661D01*
X043373Y017649D01*
X042931Y017649D01*
X042489Y017649D01*
X042231Y017906D01*
X042231Y018088D01*
X042931Y018088D01*
X042931Y017649D01*
X042931Y018088D01*
X042931Y018088D01*
X042931Y018089D01*
X042931Y018089D01*
X042931Y018528D01*
X042931Y018528D01*
X042489Y018528D01*
X039428Y018528D01*
X039473Y018484D02*
X039497Y018508D01*
X040365Y018508D01*
X040611Y018262D01*
X040611Y017915D01*
X040365Y017669D01*
X039497Y017669D01*
X039251Y017915D01*
X039251Y018111D01*
X039231Y018131D01*
X039231Y018132D01*
X038746Y018617D01*
X038746Y018406D01*
X038488Y018149D01*
X038308Y018149D01*
X038268Y018109D01*
X038101Y018109D01*
X038101Y018006D01*
X038124Y018028D01*
X038488Y018028D01*
X038746Y017771D01*
X038746Y017406D01*
X038693Y017353D01*
X039008Y017038D01*
X039143Y017038D01*
X039251Y016994D01*
X039251Y017262D01*
X039497Y017508D01*
X040365Y017508D01*
X040611Y017262D01*
X040611Y016915D01*
X040365Y016669D01*
X039497Y016669D01*
X039431Y016735D01*
X039431Y016607D01*
X039396Y016521D01*
X039453Y016464D01*
X039497Y016508D01*
X040365Y016508D01*
X040611Y016262D01*
X040611Y015915D01*
X040365Y015669D01*
X039497Y015669D01*
X039251Y015915D01*
X039251Y016071D01*
X039211Y016111D01*
X039211Y016112D01*
X039184Y016139D01*
X039018Y016139D01*
X038844Y016139D01*
X038661Y016321D01*
X038488Y016149D01*
X038124Y016149D01*
X037866Y016406D01*
X037866Y016771D01*
X038049Y016954D01*
X037804Y017199D01*
X037681Y017321D01*
X037681Y017341D01*
X037488Y017149D01*
X037124Y017149D01*
X036866Y017406D01*
X036866Y017771D01*
X037124Y018028D01*
X037488Y018028D01*
X037681Y017836D01*
X037681Y018231D01*
X037681Y018341D01*
X037488Y018149D01*
X037124Y018149D01*
X036894Y018379D01*
X036643Y018379D01*
X035539Y017275D01*
X035539Y016949D01*
X035446Y016855D01*
X034917Y016855D01*
X034823Y016949D01*
X034823Y017478D01*
X034917Y017572D01*
X035242Y017572D01*
X035299Y017629D01*
X031918Y017629D01*
X031901Y017611D01*
X031861Y017571D01*
X031861Y017415D01*
X031615Y017169D01*
X030747Y017169D01*
X030501Y017415D01*
X030501Y017432D01*
X030071Y017001D01*
X030071Y016867D01*
X030016Y016735D01*
X029915Y016633D01*
X029783Y016579D01*
X029640Y016579D01*
X029507Y016633D01*
X029406Y016735D01*
X029351Y016867D01*
X029351Y017010D01*
X029406Y017142D01*
X029507Y017244D01*
X029640Y017298D01*
X029774Y017298D01*
X030134Y017659D01*
X025948Y017659D01*
X025901Y017612D01*
X025901Y017611D01*
X025861Y017572D01*
X025861Y017415D01*
X025615Y017169D01*
X024747Y017169D01*
X024501Y017415D01*
X024501Y017762D01*
X024727Y017989D01*
X024648Y017989D01*
X023661Y017001D01*
X023661Y016867D01*
X023606Y016735D01*
X023505Y016633D01*
X023373Y016579D01*
X023230Y016579D01*
X023097Y016633D01*
X022996Y016735D01*
X022941Y016867D01*
X022941Y017010D01*
X022996Y017142D01*
X023097Y017244D01*
X023230Y017298D01*
X023364Y017298D01*
X024351Y018285D01*
X024474Y018408D01*
X024507Y018408D01*
X024501Y018415D01*
X024501Y018762D01*
X024507Y018769D01*
X022868Y018769D01*
X021861Y017761D01*
X021861Y017627D01*
X021806Y017495D01*
X021705Y017393D01*
X021573Y017339D01*
X021468Y017339D01*
X024328Y014478D01*
X024463Y014478D01*
X024501Y014463D01*
X024501Y014762D01*
X024747Y015008D01*
X024771Y015008D01*
X024771Y015169D01*
X024747Y015169D01*
X024501Y015415D01*
X024501Y015762D01*
X024747Y016008D01*
X025615Y016008D01*
X025861Y015762D01*
X025861Y015415D01*
X025615Y015169D01*
X025591Y015169D01*
X025591Y015008D01*
X025615Y015008D01*
X025861Y014762D01*
X025861Y014415D01*
X025615Y014169D01*
X025591Y014169D01*
X025591Y014008D01*
X025615Y014008D01*
X025625Y013998D01*
X030737Y013998D01*
X030747Y014008D01*
X030771Y014008D01*
X030771Y014169D01*
X030747Y014169D01*
X030501Y014415D01*
X030501Y014762D01*
X030747Y015008D01*
X030771Y015008D01*
X030771Y015169D01*
X030747Y015169D01*
X030501Y015415D01*
X030501Y015762D01*
X030747Y016008D01*
X031615Y016008D01*
X031861Y015762D01*
X031861Y015415D01*
X031615Y015169D01*
X031591Y015169D01*
X031591Y015008D01*
X031615Y015008D01*
X031861Y014762D01*
X031861Y014415D01*
X031615Y014169D01*
X031591Y014169D01*
X031591Y014008D01*
X031615Y014008D01*
X031625Y013998D01*
X033533Y013998D01*
X033783Y014248D01*
X035330Y014248D01*
X036896Y014248D01*
X036896Y014376D02*
X036866Y014406D01*
X036866Y014771D01*
X036896Y014801D01*
X036896Y015376D01*
X036866Y015406D01*
X036866Y015771D01*
X037124Y016028D01*
X037488Y016028D01*
X037746Y015771D01*
X037746Y015406D01*
X037716Y015376D01*
X037716Y014801D01*
X037746Y014771D01*
X037746Y014406D01*
X037866Y014406D01*
X038124Y014149D01*
X038488Y014149D01*
X038746Y014406D01*
X043386Y014406D01*
X043386Y014248D02*
X038588Y014248D01*
X038746Y014406D02*
X038746Y014771D01*
X038488Y015028D01*
X038124Y015028D01*
X037866Y014771D01*
X037866Y014406D01*
X037746Y014406D02*
X037716Y014376D01*
X037716Y013801D01*
X037746Y013771D01*
X037746Y013406D01*
X037716Y013376D01*
X037716Y013294D01*
X037476Y013054D01*
X037421Y013054D01*
X037446Y013028D01*
X037488Y013028D01*
X037746Y012771D01*
X037746Y012406D01*
X037716Y012376D01*
X037716Y011801D01*
X037746Y011771D01*
X037746Y011406D01*
X037716Y011376D01*
X037716Y010801D01*
X037746Y010771D01*
X037746Y010406D01*
X037488Y010149D01*
X037124Y010149D01*
X036866Y010406D01*
X036866Y010771D01*
X036896Y010801D01*
X036896Y011376D01*
X036866Y011406D01*
X036866Y011771D01*
X036896Y011801D01*
X036896Y012179D01*
X031625Y012179D01*
X031615Y012169D01*
X031591Y012169D01*
X031591Y012008D01*
X031615Y012008D01*
X031861Y011762D01*
X031861Y011415D01*
X031615Y011169D01*
X031591Y011169D01*
X031591Y011008D01*
X031615Y011008D01*
X031861Y010762D01*
X031861Y010415D01*
X031615Y010169D01*
X030747Y010169D01*
X030501Y010415D01*
X030501Y010762D01*
X030747Y011008D01*
X030771Y011008D01*
X030771Y011169D01*
X030747Y011169D01*
X030501Y011415D01*
X030501Y011762D01*
X030747Y012008D01*
X030771Y012008D01*
X030771Y012169D01*
X030747Y012169D01*
X030737Y012179D01*
X025625Y012179D01*
X025615Y012169D01*
X025591Y012169D01*
X025591Y012008D01*
X025615Y012008D01*
X025861Y011762D01*
X025861Y011415D01*
X025615Y011169D01*
X025591Y011169D01*
X025591Y011008D01*
X025615Y011008D01*
X025861Y010762D01*
X025861Y010415D01*
X025615Y010169D01*
X024747Y010169D01*
X024501Y010415D01*
X024501Y010762D01*
X024747Y011008D01*
X024771Y011008D01*
X024771Y011169D01*
X024747Y011169D01*
X024501Y011415D01*
X024501Y011762D01*
X024747Y012008D01*
X024771Y012008D01*
X024771Y012169D01*
X024747Y012169D01*
X024737Y012179D01*
X020331Y012179D01*
X019625Y012179D01*
X019615Y012169D01*
X019591Y012169D01*
X019591Y012008D01*
X019615Y012008D01*
X019861Y011762D01*
X019861Y011415D01*
X019615Y011169D01*
X019591Y011169D01*
X019591Y011008D01*
X019615Y011008D01*
X019861Y010762D01*
X019861Y010415D01*
X019615Y010169D01*
X018747Y010169D01*
X018501Y010415D01*
X018501Y010762D01*
X018747Y011008D01*
X018771Y011008D01*
X018771Y011169D01*
X018747Y011169D01*
X018501Y011415D01*
X018501Y011762D01*
X018747Y012008D01*
X018771Y012008D01*
X018771Y012169D01*
X018747Y012169D01*
X018737Y012179D01*
X013625Y012179D01*
X013615Y012169D01*
X013591Y012169D01*
X013591Y012008D01*
X013615Y012008D01*
X013861Y011762D01*
X013861Y011415D01*
X013615Y011169D01*
X013591Y011169D01*
X013591Y011008D01*
X013615Y011008D01*
X013861Y010762D01*
X013861Y010415D01*
X013615Y010169D01*
X012747Y010169D01*
X012501Y010415D01*
X012501Y010762D01*
X012747Y011008D01*
X012771Y011008D01*
X012771Y011169D01*
X012747Y011169D01*
X012501Y011415D01*
X012501Y011762D01*
X012747Y012008D01*
X012771Y012008D01*
X012771Y012054D01*
X012761Y012054D01*
X011046Y012054D01*
X011046Y011931D01*
X010966Y011851D01*
X010966Y010794D01*
X010726Y010554D01*
X010386Y010554D01*
X007511Y010554D01*
X007271Y010794D01*
X007271Y011133D01*
X007271Y012179D01*
X006125Y012179D01*
X006115Y012169D01*
X006091Y012169D01*
X006091Y012008D01*
X006115Y012008D01*
X006361Y011762D01*
X006361Y011415D01*
X006115Y011169D01*
X006091Y011169D01*
X006091Y011008D01*
X006115Y011008D01*
X006361Y010762D01*
X006361Y010415D01*
X006115Y010169D01*
X005247Y010169D01*
X005001Y010415D01*
X005001Y010762D01*
X005247Y011008D01*
X005271Y011008D01*
X005271Y011169D01*
X005247Y011169D01*
X005001Y011415D01*
X005001Y011762D01*
X005247Y012008D01*
X005271Y012008D01*
X005271Y012169D01*
X005247Y012169D01*
X005001Y012415D01*
X005001Y012762D01*
X005247Y013008D01*
X006115Y013008D01*
X006125Y012998D01*
X007511Y012998D01*
X007851Y012998D01*
X008066Y012783D01*
X008066Y012996D01*
X008146Y013076D01*
X008146Y013179D01*
X006125Y013179D01*
X006115Y013169D01*
X005247Y013169D01*
X005001Y013415D01*
X005001Y013762D01*
X005247Y014008D01*
X005271Y014008D01*
X005271Y014169D01*
X005247Y014169D01*
X005001Y014415D01*
X005001Y014762D01*
X005247Y015008D01*
X005271Y015008D01*
X005271Y015169D01*
X005247Y015169D01*
X005001Y015415D01*
X005001Y015762D01*
X005247Y016008D01*
X006115Y016008D01*
X006361Y015762D01*
X006361Y015415D01*
X006115Y015169D01*
X006091Y015169D01*
X006091Y015008D01*
X006115Y015008D01*
X006361Y014762D01*
X006361Y014415D01*
X006115Y014169D01*
X006091Y014169D01*
X006091Y014008D01*
X006115Y014008D01*
X006125Y013998D01*
X008726Y013998D01*
X012737Y013998D01*
X012747Y014008D01*
X012771Y014008D01*
X012771Y014169D01*
X012747Y014169D01*
X012501Y014415D01*
X012501Y014762D01*
X012747Y015008D01*
X012771Y015008D01*
X012771Y015169D01*
X012747Y015169D01*
X012501Y015415D01*
X012501Y015762D01*
X012747Y016008D01*
X013615Y016008D01*
X013861Y015762D01*
X013861Y015415D01*
X013615Y015169D01*
X013591Y015169D01*
X013591Y015008D01*
X013615Y015008D01*
X013861Y014762D01*
X013861Y014415D01*
X013615Y014169D01*
X013591Y014169D01*
X013591Y014008D01*
X013615Y014008D01*
X013625Y013998D01*
X018737Y013998D01*
X018747Y014008D01*
X018771Y014008D01*
X018771Y014169D01*
X018747Y014169D01*
X018501Y014415D01*
X018501Y014762D01*
X018747Y015008D01*
X018771Y015008D01*
X018771Y015169D01*
X018747Y015169D01*
X018501Y015415D01*
X018501Y015762D01*
X018727Y015989D01*
X018664Y015989D01*
X017511Y017141D01*
X017511Y017315D01*
X017511Y019179D01*
X017416Y019275D01*
X017361Y019407D01*
X017361Y019550D01*
X017416Y019682D01*
X017517Y019784D01*
X017650Y019838D01*
X017793Y019838D01*
X017841Y019818D01*
X017841Y019931D01*
X017841Y020105D01*
X017964Y020228D01*
X018124Y020228D01*
X018461Y020565D01*
X018501Y020605D01*
X018501Y020762D01*
X018727Y020989D01*
X017278Y020989D01*
X013901Y017611D01*
X013861Y017571D01*
X013861Y017415D01*
X013615Y017169D01*
X012747Y017169D01*
X012501Y017415D01*
X012501Y017762D01*
X012747Y018008D01*
X013615Y018008D01*
X013660Y017964D01*
X016981Y021285D01*
X017104Y021408D01*
X018507Y021408D01*
X018501Y021415D01*
X018501Y021762D01*
X018747Y022008D01*
X019615Y022008D01*
X019861Y021762D01*
X019861Y021415D01*
X019855Y021408D01*
X024507Y021408D01*
X024501Y021415D01*
X024501Y021489D01*
X023554Y021489D01*
X023431Y021611D01*
X022274Y022769D01*
X019855Y022769D01*
X019861Y022762D01*
X019861Y022688D01*
X020258Y022688D01*
X020278Y022668D01*
X020413Y022668D01*
X020545Y022614D01*
X020646Y022512D01*
X020701Y022380D01*
X020701Y022237D01*
X020646Y022105D01*
X020545Y022003D01*
X020413Y021949D01*
X020270Y021949D01*
X020137Y022003D01*
X020036Y022105D01*
X019981Y022237D01*
X019981Y022269D01*
X019778Y022269D01*
X019715Y022269D01*
X019615Y022169D01*
X018747Y022169D01*
X018537Y022379D01*
X013825Y022379D01*
X013615Y022169D01*
X012747Y022169D01*
X012501Y022415D01*
X012501Y022762D01*
X012747Y023008D01*
X013615Y023008D01*
X013825Y022798D01*
X018537Y022798D01*
X018696Y022957D01*
X017804Y023849D01*
X017354Y023849D01*
X017231Y023971D01*
X017231Y023972D01*
X017214Y023989D01*
X017080Y023989D01*
X016947Y024043D01*
X016846Y024145D01*
X016791Y024277D01*
X016791Y024420D01*
X016846Y024552D01*
X016947Y024654D01*
X017080Y024708D01*
X017223Y024708D01*
X017355Y024654D01*
X017456Y024552D01*
X017511Y024420D01*
X017511Y024285D01*
X017528Y024268D01*
X017804Y024268D01*
X017978Y024268D01*
X018501Y023745D01*
X018501Y023762D01*
X018747Y024008D01*
X019615Y024008D01*
X019861Y023762D01*
X019861Y023605D01*
X019901Y023565D01*
X020048Y023418D01*
X020661Y023418D01*
X020641Y023467D01*
X020641Y023601D01*
X020234Y024009D01*
X020038Y024009D01*
X019864Y024009D01*
X019660Y024213D01*
X019615Y024169D01*
X018747Y024169D01*
X018501Y024415D01*
X018501Y024762D01*
X018747Y025008D01*
X019584Y025008D01*
X019424Y025169D01*
X018747Y025169D01*
X018501Y025415D01*
X018501Y025762D01*
X018507Y025769D01*
X016910Y025769D01*
X016815Y025673D01*
X016683Y025619D01*
X016540Y025619D01*
X016407Y025673D01*
X016306Y025775D01*
X016251Y025907D01*
X016251Y026050D01*
X016306Y026182D01*
X016407Y026284D01*
X016540Y026338D01*
X016683Y026338D01*
X016815Y026284D01*
X016910Y026188D01*
X019944Y026188D01*
X019994Y026188D01*
X019744Y026439D01*
X019610Y026439D01*
X019477Y026493D01*
X019376Y026595D01*
X019321Y026727D01*
X019321Y026870D01*
X019341Y026919D01*
X012784Y026919D01*
X012661Y027041D01*
X011114Y028589D01*
X010980Y028589D01*
X010847Y028643D01*
X010746Y028745D01*
X010691Y028877D01*
X010691Y029020D01*
X010746Y029152D01*
X010847Y029254D01*
X010980Y029308D01*
X011123Y029308D01*
X011255Y029254D01*
X011356Y029152D01*
X011411Y029020D01*
X011411Y028885D01*
X012958Y027338D01*
X020522Y027338D01*
X020432Y027429D01*
X014244Y027429D01*
X014121Y027551D01*
X013084Y028589D01*
X012950Y028589D01*
X012817Y028643D01*
X012716Y028745D01*
X012661Y028877D01*
X012661Y029020D01*
X012716Y029152D01*
X012817Y029254D01*
X012950Y029308D01*
X013093Y029308D01*
X013225Y029254D01*
X013326Y029152D01*
X013381Y029020D01*
X013381Y028885D01*
X014418Y027848D01*
X020432Y027848D01*
X020527Y027944D01*
X020660Y027998D01*
X020803Y027998D01*
X020935Y027944D01*
X021036Y027842D01*
X021091Y027710D01*
X021091Y027567D01*
X021036Y027435D01*
X020940Y027338D01*
X022154Y027338D01*
X022328Y027338D01*
X024703Y024964D01*
X024747Y025008D01*
X025615Y025008D01*
X025771Y024852D01*
X025771Y025325D01*
X025615Y025169D01*
X024747Y025169D01*
X024501Y025415D01*
X024501Y025762D01*
X024747Y026008D01*
X025615Y026008D01*
X025771Y025852D01*
X025771Y028149D01*
X023858Y028149D01*
X023684Y028149D01*
X023438Y028395D01*
X023372Y028329D01*
X023141Y028329D01*
X023141Y028287D01*
X023086Y028155D01*
X022985Y028053D01*
X022853Y027999D01*
X022710Y027999D01*
X022577Y028053D01*
X022482Y028149D01*
X019684Y028149D01*
X019561Y028271D01*
X019438Y028395D01*
X019372Y028329D01*
X018991Y028329D01*
X018924Y028395D01*
X018678Y028149D01*
X018504Y028149D01*
X015914Y028149D01*
X015791Y028271D01*
X015184Y028879D01*
X015050Y028879D01*
X014917Y028933D01*
X014816Y029035D01*
X014761Y029167D01*
X014761Y029310D01*
X014816Y029442D01*
X014917Y029544D01*
X015050Y029598D01*
X015193Y029598D01*
X015325Y029544D01*
X015426Y029442D01*
X015481Y029310D01*
X015481Y029175D01*
X015721Y028935D01*
X015721Y029579D01*
X015991Y029848D01*
X016372Y029848D01*
X016641Y029579D01*
X016641Y028598D01*
X016612Y028568D01*
X016723Y028568D01*
X016701Y028590D01*
X016701Y029068D01*
X017161Y029068D01*
X017161Y029109D01*
X017201Y029109D01*
X017201Y029868D01*
X017380Y029868D01*
X017661Y029587D01*
X017661Y029109D01*
X017201Y029109D01*
X017201Y029068D01*
X017661Y029068D01*
X017661Y028590D01*
X017640Y028568D01*
X017751Y028568D01*
X017721Y028598D01*
X017721Y029579D01*
X017991Y029848D01*
X018372Y029848D01*
X018641Y029579D01*
X018641Y028705D01*
X018721Y028785D01*
X018721Y029579D01*
X018991Y029848D01*
X019372Y029848D01*
X019641Y029579D01*
X019641Y028785D01*
X019858Y028568D01*
X020751Y028568D01*
X020721Y028598D01*
X020721Y029579D01*
X020991Y029848D01*
X021372Y029848D01*
X021641Y029579D01*
X021641Y028598D01*
X021612Y028568D01*
X021723Y028568D01*
X021701Y028590D01*
X021701Y029068D01*
X022161Y029068D01*
X022161Y029109D01*
X022201Y029109D01*
X022201Y029868D01*
X022380Y029868D01*
X022661Y029587D01*
X022661Y029109D01*
X022201Y029109D01*
X022201Y029068D01*
X022661Y029068D01*
X022661Y028698D01*
X022710Y028718D01*
X022721Y028718D01*
X022721Y029579D01*
X022991Y029848D01*
X023372Y029848D01*
X023641Y029579D01*
X023641Y028785D01*
X023721Y028705D01*
X023721Y029579D01*
X023991Y029848D01*
X024372Y029848D01*
X024641Y029579D01*
X024641Y029158D01*
X030322Y029158D01*
X030417Y029254D01*
X030550Y029308D01*
X030693Y029308D01*
X030825Y029254D01*
X030926Y029152D01*
X030981Y029020D01*
X030981Y028877D01*
X030926Y028745D01*
X030825Y028643D01*
X030693Y028589D01*
X030550Y028589D01*
X030417Y028643D01*
X030322Y028739D01*
X024641Y028739D01*
X024641Y028598D01*
X024612Y028568D01*
X026068Y028568D01*
X026191Y028445D01*
X026191Y028271D01*
X026191Y024808D01*
X026286Y024712D01*
X026341Y024580D01*
X026341Y024437D01*
X026286Y024305D01*
X026185Y024203D01*
X026053Y024149D01*
X025910Y024149D01*
X025777Y024203D01*
X025714Y024267D01*
X025615Y024169D01*
X024747Y024169D01*
X024501Y024415D01*
X024501Y024571D01*
X024461Y024611D01*
X022154Y026919D01*
X020021Y026919D01*
X020041Y026870D01*
X020041Y026735D01*
X020938Y025838D01*
X021073Y025838D01*
X021205Y025784D01*
X021306Y025682D01*
X021361Y025550D01*
X021361Y025407D01*
X021306Y025275D01*
X021205Y025173D01*
X021154Y025152D01*
X022708Y023598D01*
X023894Y023598D01*
X024068Y023598D01*
X024703Y022964D01*
X024747Y023008D01*
X025615Y023008D01*
X025861Y022762D01*
X025861Y022415D01*
X025615Y022169D01*
X024747Y022169D01*
X024501Y022415D01*
X024501Y022571D01*
X024461Y022611D01*
X023894Y023179D01*
X022928Y023179D01*
X023438Y022668D01*
X023573Y022668D01*
X023705Y022614D01*
X023806Y022512D01*
X023861Y022380D01*
X023861Y022237D01*
X023806Y022105D01*
X023705Y022003D01*
X023654Y021982D01*
X023728Y021908D01*
X024584Y021908D01*
X024647Y021908D01*
X024747Y022008D01*
X025615Y022008D01*
X025861Y021762D01*
X025861Y021415D01*
X025855Y021408D01*
X030507Y021408D01*
X030501Y021415D01*
X030501Y021762D01*
X030747Y022008D01*
X031615Y022008D01*
X031861Y021762D01*
X031861Y021745D01*
X034154Y024038D01*
X034328Y024038D01*
X035294Y024038D01*
X036781Y025525D01*
X036853Y025597D01*
X036853Y025597D01*
X036866Y025610D01*
X036866Y025771D01*
X037124Y026028D01*
X037488Y026028D01*
X037746Y025771D01*
X037746Y025406D01*
X037488Y025149D01*
X037124Y025149D01*
X037061Y025211D01*
X035708Y023858D01*
X036114Y023858D01*
X036781Y024525D01*
X036853Y024597D01*
X036853Y024597D01*
X036866Y024610D01*
X036866Y024771D01*
X037124Y025028D01*
X037488Y025028D01*
X037746Y024771D01*
X037746Y024406D01*
X037488Y024149D01*
X037124Y024149D01*
X037061Y024211D01*
X036411Y023561D01*
X036288Y023439D01*
X034408Y023439D01*
X031861Y020891D01*
X031797Y020827D01*
X031861Y020762D01*
X031861Y020415D01*
X031615Y020169D01*
X030747Y020169D01*
X030501Y020415D01*
X030501Y020462D01*
X029228Y019188D01*
X030727Y019188D01*
X030501Y019415D01*
X030501Y019762D01*
X030747Y020008D01*
X031615Y020008D01*
X031861Y019762D01*
X031861Y019415D01*
X031635Y019188D01*
X032354Y019188D01*
X036691Y023525D01*
X036763Y023597D01*
X036763Y023597D01*
X036814Y023648D01*
X036824Y023648D01*
X036854Y023678D01*
X036866Y023678D01*
X036866Y023771D01*
X037124Y024028D01*
X037488Y024028D01*
X037746Y023771D01*
X037746Y023406D01*
X037488Y023149D01*
X037124Y023149D01*
X037016Y023256D01*
X036558Y022798D01*
X036894Y022798D01*
X037124Y023028D01*
X037488Y023028D01*
X037746Y022771D01*
X037746Y022406D01*
X037488Y022149D01*
X037124Y022149D01*
X036894Y022379D01*
X036518Y022379D01*
X032914Y018775D01*
X032914Y018408D01*
X033674Y018408D01*
X036821Y021555D01*
X036866Y021600D01*
X036866Y021771D01*
X037124Y022028D01*
X037488Y022028D01*
X037746Y021771D01*
X037746Y021406D01*
X037488Y021149D01*
X037124Y021149D01*
X037066Y021206D01*
X034088Y018228D01*
X034494Y018228D01*
X036821Y020555D01*
X036866Y020600D01*
X036866Y020771D01*
X037124Y021028D01*
X037488Y021028D01*
X037746Y020771D01*
X037746Y020470D01*
X037804Y020528D01*
X037866Y020528D01*
X037866Y020771D01*
X038124Y021028D01*
X038488Y021028D01*
X038746Y020771D01*
X038746Y020406D01*
X038488Y020149D01*
X038308Y020149D01*
X038268Y020109D01*
X038101Y020109D01*
X038101Y020006D01*
X038124Y020028D01*
X038488Y020028D01*
X038746Y019771D01*
X038746Y019406D01*
X038648Y019308D01*
X038691Y019265D01*
X039473Y018484D01*
X039270Y018687D02*
X043386Y018687D01*
X043386Y018845D02*
X039111Y018845D01*
X038953Y019004D02*
X043386Y019004D01*
X043386Y019162D02*
X038794Y019162D01*
X038661Y019321D02*
X043386Y019321D01*
X043386Y019480D02*
X038746Y019480D01*
X038746Y019638D02*
X039403Y019638D01*
X039497Y019544D02*
X039251Y019790D01*
X039251Y020137D01*
X039497Y020383D01*
X040365Y020383D01*
X040611Y020137D01*
X040611Y019790D01*
X040365Y019544D01*
X039497Y019544D01*
X039251Y019797D02*
X038720Y019797D01*
X038562Y019955D02*
X039251Y019955D01*
X039251Y020114D02*
X038273Y020114D01*
X038612Y020272D02*
X039386Y020272D01*
X039497Y020544D02*
X039251Y020790D01*
X039251Y021137D01*
X039497Y021383D01*
X040365Y021383D01*
X040611Y021137D01*
X040611Y020790D01*
X040365Y020544D01*
X039497Y020544D01*
X039451Y020589D02*
X038746Y020589D01*
X038746Y020431D02*
X043386Y020431D01*
X043373Y020403D02*
X043386Y020391D01*
X043386Y020536D01*
X043373Y020524D01*
X042931Y020524D01*
X042489Y020524D01*
X042231Y020781D01*
X042231Y020963D01*
X042931Y020963D01*
X042931Y020524D01*
X042931Y020963D01*
X042931Y020963D01*
X042931Y020964D01*
X042931Y020964D01*
X042931Y021403D01*
X042489Y021403D01*
X042231Y021146D01*
X042231Y020964D01*
X042931Y020964D01*
X042931Y021403D01*
X043373Y021403D01*
X043386Y021391D01*
X043386Y021536D01*
X043373Y021524D01*
X042931Y021524D01*
X042489Y021524D01*
X042231Y021781D01*
X042231Y021963D01*
X042931Y021963D01*
X042931Y021524D01*
X042931Y021963D01*
X042931Y021963D01*
X042931Y021964D01*
X042931Y021964D01*
X042931Y022403D01*
X042489Y022403D01*
X042231Y022146D01*
X042231Y021964D01*
X042931Y021964D01*
X042931Y022403D01*
X043373Y022403D01*
X043386Y022391D01*
X043386Y030857D01*
X003976Y030857D01*
X003976Y001320D01*
X003976Y001406D02*
X043386Y001406D01*
X043386Y001564D02*
X036546Y001564D01*
X036507Y001525D02*
X036287Y001434D01*
X036049Y001434D01*
X035830Y001525D01*
X035661Y001694D01*
X035570Y001913D01*
X035570Y002151D01*
X035661Y002371D01*
X035830Y002539D01*
X036049Y002630D01*
X036287Y002630D01*
X036507Y002539D01*
X036675Y002371D01*
X036767Y002151D01*
X036767Y001913D01*
X036675Y001694D01*
X036507Y001525D01*
X036688Y001723D02*
X040560Y001723D01*
X040612Y001671D02*
X040206Y002077D01*
X040206Y002650D01*
X040612Y003056D01*
X042251Y003056D01*
X042656Y002650D01*
X042656Y002077D01*
X042251Y001671D01*
X040612Y001671D01*
X040402Y001881D02*
X036753Y001881D01*
X036767Y002040D02*
X037813Y002040D01*
X037960Y001979D02*
X037553Y002148D01*
X037240Y002460D01*
X037071Y002868D01*
X037071Y003309D01*
X037240Y003717D01*
X037553Y004029D01*
X037960Y004198D01*
X038402Y004198D01*
X038810Y004029D01*
X039122Y003717D01*
X039291Y003309D01*
X039291Y002868D01*
X039122Y002460D01*
X038810Y002148D01*
X038402Y001979D01*
X037960Y001979D01*
X037502Y002198D02*
X036747Y002198D01*
X036681Y002357D02*
X037343Y002357D01*
X037217Y002515D02*
X036531Y002515D01*
X037086Y002832D02*
X035097Y002832D01*
X035070Y002844D02*
X035224Y002780D01*
X035341Y002663D01*
X035405Y002509D01*
X035405Y002343D01*
X035341Y002190D01*
X035224Y002072D01*
X035070Y002009D01*
X034904Y002009D01*
X034751Y002072D01*
X034633Y002190D01*
X034570Y002343D01*
X034570Y002509D01*
X034633Y002663D01*
X034751Y002780D01*
X034904Y002844D01*
X035070Y002844D01*
X034878Y002832D02*
X033968Y002832D01*
X033893Y002864D02*
X034054Y002797D01*
X034177Y002674D01*
X034645Y002674D01*
X034572Y002515D02*
X034243Y002515D01*
X034244Y002513D02*
X034244Y002426D01*
X034244Y002339D01*
X034177Y002178D01*
X034054Y002055D01*
X033893Y001989D01*
X033806Y001989D01*
X033719Y001989D01*
X033558Y002055D01*
X033435Y002178D01*
X033369Y002339D01*
X033369Y002426D01*
X033806Y002426D01*
X033806Y002426D01*
X033369Y002426D01*
X033369Y002513D01*
X033435Y002674D01*
X033558Y002797D01*
X033719Y002864D01*
X033806Y002864D01*
X033806Y002426D01*
X033806Y001989D01*
X033806Y002426D01*
X033806Y002426D01*
X033806Y002426D01*
X033807Y002426D02*
X034244Y002426D01*
X033807Y002426D01*
X033807Y002426D01*
X033806Y002426D02*
X033806Y002864D01*
X033893Y002864D01*
X033806Y002832D02*
X033806Y002832D01*
X033806Y002674D02*
X033806Y002674D01*
X033806Y002515D02*
X033806Y002515D01*
X033806Y002357D02*
X033806Y002357D01*
X033806Y002198D02*
X033806Y002198D01*
X033806Y002040D02*
X033806Y002040D01*
X033596Y002040D02*
X033223Y002040D01*
X033223Y002151D02*
X033132Y002371D01*
X032964Y002539D01*
X032744Y002630D01*
X032506Y002630D01*
X032286Y002539D01*
X032118Y002371D01*
X032027Y002151D01*
X032027Y001913D01*
X032118Y001694D01*
X032286Y001525D01*
X032506Y001434D01*
X032744Y001434D01*
X032964Y001525D01*
X033132Y001694D01*
X033223Y001913D01*
X033223Y002151D01*
X033204Y002198D02*
X033427Y002198D01*
X033369Y002357D02*
X033138Y002357D01*
X032988Y002515D02*
X033370Y002515D01*
X033435Y002674D02*
X024641Y002674D01*
X024641Y002832D02*
X033644Y002832D01*
X033719Y003170D02*
X033558Y003236D01*
X033435Y003359D01*
X033369Y003520D01*
X033369Y003607D01*
X033806Y003607D01*
X033806Y003607D01*
X033806Y003170D01*
X033719Y003170D01*
X033806Y003170D02*
X033893Y003170D01*
X034054Y003236D01*
X034177Y003359D01*
X034244Y003520D01*
X034244Y003607D01*
X033807Y003607D01*
X033807Y003607D01*
X034244Y003607D01*
X034244Y003694D01*
X034177Y003855D01*
X034054Y003978D01*
X033893Y004045D01*
X033806Y004045D01*
X033806Y003608D01*
X033806Y003608D01*
X033806Y004045D01*
X033719Y004045D01*
X033558Y003978D01*
X033435Y003855D01*
X033369Y003694D01*
X033369Y003607D01*
X033806Y003607D01*
X033806Y003607D01*
X033806Y003170D01*
X033806Y003308D02*
X033806Y003308D01*
X033806Y003467D02*
X033806Y003467D01*
X033806Y003625D02*
X033806Y003625D01*
X033806Y003784D02*
X033806Y003784D01*
X033806Y003942D02*
X033806Y003942D01*
X033523Y003942D02*
X027074Y003942D01*
X026916Y004101D02*
X036364Y004101D01*
X036261Y003998D02*
X038424Y006161D01*
X038394Y006149D01*
X038219Y006149D01*
X038057Y006215D01*
X037933Y006339D01*
X037866Y006501D01*
X037866Y006676D01*
X037933Y006838D01*
X038057Y006961D01*
X038219Y007028D01*
X038394Y007028D01*
X038555Y006961D01*
X038679Y006838D01*
X038746Y006676D01*
X038746Y006501D01*
X038734Y006471D01*
X038736Y006473D01*
X039076Y006473D01*
X040329Y006473D01*
X040612Y006756D01*
X042251Y006756D01*
X042656Y006350D01*
X042656Y005777D01*
X042251Y005371D01*
X040612Y005371D01*
X040329Y005654D01*
X039076Y005654D01*
X036841Y003419D01*
X036601Y003179D01*
X034761Y003179D01*
X034521Y003419D01*
X034521Y003758D01*
X034761Y003998D01*
X034780Y004017D01*
X034886Y004017D01*
X034904Y004025D01*
X035070Y004025D01*
X035088Y004017D01*
X035157Y004017D01*
X035176Y003998D01*
X036261Y003998D01*
X036522Y004259D02*
X026757Y004259D01*
X026599Y004418D02*
X036681Y004418D01*
X036839Y004576D02*
X026440Y004576D01*
X026282Y004735D02*
X036998Y004735D01*
X037157Y004894D02*
X026123Y004894D01*
X025965Y005052D02*
X037315Y005052D01*
X037474Y005211D02*
X025806Y005211D01*
X025647Y005369D02*
X037632Y005369D01*
X037791Y005528D02*
X025489Y005528D01*
X025330Y005686D02*
X037949Y005686D01*
X038108Y005845D02*
X025172Y005845D01*
X025013Y006003D02*
X038266Y006003D01*
X038186Y006162D02*
X037530Y006162D01*
X037497Y006129D02*
X037766Y006398D01*
X037766Y006578D01*
X037316Y006578D01*
X037296Y006578D01*
X037296Y006129D01*
X037116Y006129D01*
X036846Y006398D01*
X036846Y006578D01*
X037296Y006578D01*
X037296Y006599D01*
X037316Y006599D01*
X037316Y007048D01*
X037497Y007048D01*
X037766Y006779D01*
X037766Y006599D01*
X037316Y006599D01*
X037316Y006578D01*
X037316Y006129D01*
X037497Y006129D01*
X037316Y006162D02*
X037296Y006162D01*
X037296Y006320D02*
X037316Y006320D01*
X037316Y006479D02*
X037296Y006479D01*
X037296Y006599D02*
X036846Y006599D01*
X036846Y006779D01*
X037116Y007048D01*
X037296Y007048D01*
X037296Y006599D01*
X037296Y006638D02*
X037316Y006638D01*
X037316Y006796D02*
X037296Y006796D01*
X037296Y006955D02*
X037316Y006955D01*
X037316Y007129D02*
X037316Y007578D01*
X037296Y007578D01*
X037296Y007129D01*
X037116Y007129D01*
X036846Y007398D01*
X036846Y007578D01*
X037296Y007578D01*
X037296Y007599D01*
X037316Y007599D01*
X037316Y008048D01*
X037497Y008048D01*
X037766Y007779D01*
X037766Y007599D01*
X037316Y007599D01*
X037316Y007578D01*
X037766Y007578D01*
X037766Y007398D01*
X037497Y007129D01*
X037316Y007129D01*
X037316Y007272D02*
X037296Y007272D01*
X037296Y007430D02*
X037316Y007430D01*
X037316Y007589D02*
X037866Y007589D01*
X037866Y007747D02*
X037766Y007747D01*
X037866Y007771D02*
X038124Y008028D01*
X038488Y008028D01*
X038746Y007771D01*
X038746Y007406D01*
X038488Y007149D01*
X038124Y007149D01*
X037866Y007406D01*
X037866Y007771D01*
X038001Y007906D02*
X037639Y007906D01*
X037497Y008129D02*
X037766Y008398D01*
X037766Y008578D01*
X037316Y008578D01*
X037296Y008578D01*
X037296Y008129D01*
X037116Y008129D01*
X036846Y008398D01*
X036846Y008578D01*
X037296Y008578D01*
X037296Y008599D01*
X037316Y008599D01*
X037316Y009048D01*
X037497Y009048D01*
X037766Y008779D01*
X037766Y008599D01*
X037316Y008599D01*
X037316Y008578D01*
X037316Y008129D01*
X037497Y008129D01*
X037591Y008223D02*
X038050Y008223D01*
X038124Y008149D02*
X037866Y008406D01*
X037866Y008771D01*
X038124Y009028D01*
X038488Y009028D01*
X038746Y008771D01*
X038746Y008406D01*
X038488Y008149D01*
X038124Y008149D01*
X037891Y008381D02*
X037750Y008381D01*
X037766Y008540D02*
X037866Y008540D01*
X037866Y008699D02*
X037766Y008699D01*
X037688Y008857D02*
X037953Y008857D01*
X038111Y009016D02*
X037530Y009016D01*
X037497Y009129D02*
X037766Y009398D01*
X037766Y009578D01*
X037316Y009578D01*
X037296Y009578D01*
X037296Y009129D01*
X037116Y009129D01*
X036846Y009398D01*
X036846Y009578D01*
X037296Y009578D01*
X037296Y009599D01*
X037316Y009599D01*
X037316Y010048D01*
X037497Y010048D01*
X037766Y009779D01*
X037766Y009599D01*
X037316Y009599D01*
X037316Y009578D01*
X037316Y009129D01*
X037497Y009129D01*
X037542Y009174D02*
X038098Y009174D01*
X038124Y009149D02*
X037866Y009406D01*
X037866Y009771D01*
X038124Y010028D01*
X038488Y010028D01*
X038746Y009771D01*
X038746Y009406D01*
X038488Y009149D01*
X038124Y009149D01*
X037940Y009333D02*
X037701Y009333D01*
X037766Y009491D02*
X037866Y009491D01*
X037866Y009650D02*
X037766Y009650D01*
X037737Y009808D02*
X037904Y009808D01*
X038062Y009967D02*
X037578Y009967D01*
X037316Y009967D02*
X037296Y009967D01*
X037296Y010048D02*
X037296Y009599D01*
X036846Y009599D01*
X036846Y009779D01*
X037116Y010048D01*
X037296Y010048D01*
X037316Y009808D02*
X037296Y009808D01*
X037296Y009650D02*
X037316Y009650D01*
X037316Y009491D02*
X037296Y009491D01*
X037296Y009333D02*
X037316Y009333D01*
X037316Y009174D02*
X037296Y009174D01*
X037296Y009048D02*
X037296Y008599D01*
X036846Y008599D01*
X036846Y008779D01*
X037116Y009048D01*
X037296Y009048D01*
X037296Y009016D02*
X037316Y009016D01*
X037316Y008857D02*
X037296Y008857D01*
X037296Y008699D02*
X037316Y008699D01*
X037316Y008540D02*
X037296Y008540D01*
X037296Y008381D02*
X037316Y008381D01*
X037316Y008223D02*
X037296Y008223D01*
X037296Y008048D02*
X037296Y007599D01*
X036846Y007599D01*
X036846Y007779D01*
X037116Y008048D01*
X037296Y008048D01*
X037296Y007906D02*
X037316Y007906D01*
X037316Y007747D02*
X037296Y007747D01*
X037296Y007589D02*
X035716Y007589D01*
X035716Y007747D02*
X036846Y007747D01*
X036973Y007906D02*
X035672Y007906D01*
X035716Y007862D02*
X035330Y008248D01*
X033783Y008248D01*
X033396Y007862D01*
X033396Y007315D01*
X033783Y006929D01*
X035330Y006929D01*
X035716Y007315D01*
X035716Y007862D01*
X035514Y008064D02*
X043386Y008064D01*
X043386Y007906D02*
X038611Y007906D01*
X038746Y007747D02*
X043386Y007747D01*
X043386Y007589D02*
X038746Y007589D01*
X038746Y007430D02*
X043386Y007430D01*
X043386Y007272D02*
X038612Y007272D01*
X038562Y006955D02*
X043386Y006955D01*
X043386Y007113D02*
X035514Y007113D01*
X035356Y006955D02*
X037022Y006955D01*
X036863Y006796D02*
X031856Y006796D01*
X031881Y006771D02*
X031881Y006589D01*
X031182Y006589D01*
X031182Y006588D01*
X031881Y006588D01*
X031881Y006406D01*
X031623Y006149D01*
X031181Y006149D01*
X030739Y006149D01*
X030481Y006406D01*
X030481Y006588D01*
X031181Y006588D01*
X031181Y006149D01*
X031181Y006588D01*
X031181Y006588D01*
X031181Y006589D01*
X031181Y006589D01*
X031181Y007028D01*
X030739Y007028D01*
X030481Y006771D01*
X030481Y006589D01*
X031181Y006589D01*
X031181Y007028D01*
X031623Y007028D01*
X031881Y006771D01*
X031881Y006638D02*
X036846Y006638D01*
X036846Y006479D02*
X031881Y006479D01*
X031795Y006320D02*
X036924Y006320D01*
X037082Y006162D02*
X031637Y006162D01*
X031181Y006162D02*
X031181Y006162D01*
X031181Y006320D02*
X031181Y006320D01*
X031181Y006479D02*
X031181Y006479D01*
X031181Y006638D02*
X031181Y006638D01*
X031181Y006796D02*
X031181Y006796D01*
X031181Y006955D02*
X031181Y006955D01*
X031181Y007149D02*
X031623Y007149D01*
X031881Y007406D01*
X031881Y007588D01*
X031182Y007588D01*
X031182Y007589D01*
X031881Y007589D01*
X033396Y007589D01*
X033396Y007747D02*
X031881Y007747D01*
X031881Y007771D02*
X031881Y007589D01*
X031881Y007430D02*
X033396Y007430D01*
X033440Y007272D02*
X031747Y007272D01*
X031697Y006955D02*
X033757Y006955D01*
X033598Y007113D02*
X023904Y007113D01*
X024062Y006955D02*
X024665Y006955D01*
X024739Y007028D02*
X025181Y007028D01*
X025181Y006589D01*
X025181Y006589D01*
X024481Y006589D01*
X024481Y006771D01*
X024739Y007028D01*
X024739Y007149D02*
X025181Y007149D01*
X025181Y007588D01*
X025181Y007588D01*
X025181Y007589D01*
X025181Y007589D01*
X025181Y008028D01*
X024739Y008028D01*
X024481Y007771D01*
X024481Y007589D01*
X023428Y007589D01*
X023269Y007747D02*
X024481Y007747D01*
X024481Y007589D02*
X025181Y007589D01*
X025181Y008028D01*
X025623Y008028D01*
X025881Y007771D01*
X025881Y007589D01*
X030481Y007589D01*
X030481Y007771D01*
X030739Y008028D01*
X031181Y008028D01*
X031181Y007589D01*
X031181Y007589D01*
X030481Y007589D01*
X030481Y007588D02*
X031181Y007588D01*
X031181Y007149D01*
X030739Y007149D01*
X030481Y007406D01*
X030481Y007588D01*
X030481Y007430D02*
X025881Y007430D01*
X025881Y007406D02*
X025623Y007149D01*
X025181Y007149D01*
X025181Y007588D01*
X024481Y007588D01*
X024481Y007406D01*
X024739Y007149D01*
X024616Y007272D02*
X023745Y007272D01*
X023586Y007430D02*
X024481Y007430D01*
X024616Y007906D02*
X023111Y007906D01*
X022952Y008064D02*
X033599Y008064D01*
X033440Y007906D02*
X031746Y007906D01*
X031623Y008028D02*
X031881Y007771D01*
X031623Y008028D02*
X031181Y008028D01*
X031181Y007589D01*
X031181Y007588D01*
X031181Y007588D01*
X031181Y007149D01*
X031181Y007272D02*
X031181Y007272D01*
X031181Y007430D02*
X031181Y007430D01*
X031181Y007747D02*
X031181Y007747D01*
X031181Y007906D02*
X031181Y007906D01*
X031181Y008149D02*
X031623Y008149D01*
X031881Y008406D01*
X031881Y008588D01*
X031182Y008588D01*
X031182Y008589D01*
X031881Y008589D01*
X031881Y008771D01*
X031623Y009028D01*
X031181Y009028D01*
X031181Y008589D01*
X031181Y008589D01*
X030481Y008589D01*
X030481Y008771D01*
X030739Y009028D01*
X031181Y009028D01*
X031181Y008589D01*
X031181Y008588D01*
X031181Y008149D01*
X030739Y008149D01*
X030481Y008406D01*
X030481Y008588D01*
X031181Y008588D01*
X031181Y008588D01*
X031181Y008149D01*
X031181Y008223D02*
X031181Y008223D01*
X031181Y008381D02*
X031181Y008381D01*
X031181Y008540D02*
X031181Y008540D01*
X031181Y008699D02*
X031181Y008699D01*
X031181Y008857D02*
X031181Y008857D01*
X031181Y009016D02*
X031181Y009016D01*
X031181Y009149D02*
X031623Y009149D01*
X031881Y009406D01*
X031881Y009588D01*
X031182Y009588D01*
X031182Y009589D01*
X031881Y009589D01*
X031881Y009771D01*
X031623Y010028D01*
X031181Y010028D01*
X031181Y009589D01*
X031181Y009589D01*
X030481Y009589D01*
X030481Y009771D01*
X030739Y010028D01*
X031181Y010028D01*
X031181Y009589D01*
X031181Y009588D01*
X031181Y009149D01*
X030739Y009149D01*
X030481Y009406D01*
X030481Y009588D01*
X031181Y009588D01*
X031181Y009588D01*
X031181Y009149D01*
X031181Y009174D02*
X031181Y009174D01*
X031181Y009333D02*
X031181Y009333D01*
X031181Y009491D02*
X031181Y009491D01*
X031181Y009650D02*
X031181Y009650D01*
X031181Y009808D02*
X031181Y009808D01*
X031181Y009967D02*
X031181Y009967D01*
X030677Y009967D02*
X025685Y009967D01*
X025623Y010028D02*
X025881Y009771D01*
X025881Y009589D01*
X025182Y009589D01*
X025182Y009588D01*
X025881Y009588D01*
X025881Y009406D01*
X025623Y009149D01*
X025181Y009149D01*
X024739Y009149D01*
X024481Y009406D01*
X024481Y009588D01*
X025181Y009588D01*
X025181Y009149D01*
X025181Y009588D01*
X025181Y009588D01*
X025181Y009589D01*
X025181Y009589D01*
X025181Y010028D01*
X024739Y010028D01*
X024481Y009771D01*
X024481Y009589D01*
X025181Y009589D01*
X025181Y010028D01*
X025623Y010028D01*
X025731Y010284D02*
X030632Y010284D01*
X030501Y010443D02*
X025861Y010443D01*
X025861Y010601D02*
X030501Y010601D01*
X030501Y010760D02*
X025861Y010760D01*
X025705Y010918D02*
X030657Y010918D01*
X030771Y011077D02*
X025591Y011077D01*
X025682Y011235D02*
X030681Y011235D01*
X030522Y011394D02*
X025841Y011394D01*
X025861Y011552D02*
X030501Y011552D01*
X030501Y011711D02*
X025861Y011711D01*
X025754Y011869D02*
X030608Y011869D01*
X030771Y012028D02*
X025591Y012028D01*
X024771Y012028D02*
X019591Y012028D01*
X019754Y011869D02*
X024608Y011869D01*
X024501Y011711D02*
X019861Y011711D01*
X019861Y011552D02*
X024501Y011552D01*
X024522Y011394D02*
X019841Y011394D01*
X019682Y011235D02*
X024681Y011235D01*
X024771Y011077D02*
X019591Y011077D01*
X019705Y010918D02*
X024657Y010918D01*
X024501Y010760D02*
X019861Y010760D01*
X019861Y010601D02*
X024501Y010601D01*
X024501Y010443D02*
X019861Y010443D01*
X019731Y010284D02*
X024632Y010284D01*
X024677Y009967D02*
X019685Y009967D01*
X019623Y010028D02*
X019881Y009771D01*
X019881Y009589D01*
X019182Y009589D01*
X019182Y009588D01*
X019881Y009588D01*
X019881Y009406D01*
X019623Y009149D01*
X019181Y009149D01*
X018739Y009149D01*
X018481Y009406D01*
X018481Y009588D01*
X019181Y009588D01*
X019181Y009149D01*
X019181Y009588D01*
X019181Y009588D01*
X019181Y009589D01*
X019181Y009589D01*
X019181Y010028D01*
X018739Y010028D01*
X018481Y009771D01*
X018481Y009589D01*
X019181Y009589D01*
X019181Y010028D01*
X019623Y010028D01*
X019844Y009808D02*
X024519Y009808D01*
X024481Y009650D02*
X019881Y009650D01*
X019881Y009491D02*
X024481Y009491D01*
X024555Y009333D02*
X021736Y009333D01*
X021705Y009364D02*
X021806Y009262D01*
X021843Y009173D01*
X021871Y009145D01*
X024481Y006535D01*
X024481Y006588D01*
X025181Y006588D01*
X025181Y006149D01*
X024868Y006149D01*
X027298Y003718D01*
X027433Y003718D01*
X027565Y003664D01*
X027666Y003562D01*
X027721Y003430D01*
X027721Y003287D01*
X027666Y003155D01*
X027565Y003053D01*
X027433Y002999D01*
X027290Y002999D01*
X027157Y003053D01*
X027056Y003155D01*
X027001Y003287D01*
X027001Y003421D01*
X026931Y003492D01*
X026931Y003367D01*
X026876Y003235D01*
X026775Y003133D01*
X026643Y003079D01*
X026500Y003079D01*
X026367Y003133D01*
X026266Y003235D01*
X026211Y003367D01*
X026211Y003502D01*
X021894Y007819D01*
X021760Y007819D01*
X021627Y007873D01*
X021526Y007975D01*
X021471Y008107D01*
X021471Y008250D01*
X021526Y008382D01*
X021627Y008484D01*
X021760Y008538D01*
X021884Y008538D01*
X021680Y008743D01*
X021573Y008699D01*
X021724Y008699D01*
X021573Y008699D02*
X021430Y008699D01*
X021297Y008753D01*
X021196Y008855D01*
X021141Y008987D01*
X021141Y009130D01*
X021196Y009262D01*
X021297Y009364D01*
X021430Y009418D01*
X021573Y009418D01*
X021705Y009364D01*
X021843Y009174D02*
X024713Y009174D01*
X024739Y009028D02*
X025181Y009028D01*
X025181Y008589D01*
X025181Y008589D01*
X024481Y008589D01*
X024481Y008771D01*
X024739Y009028D01*
X024726Y009016D02*
X022001Y009016D01*
X022160Y008857D02*
X024568Y008857D01*
X024481Y008699D02*
X022318Y008699D01*
X022477Y008540D02*
X024481Y008540D01*
X024481Y008588D02*
X025181Y008588D01*
X025181Y008149D01*
X024739Y008149D01*
X024481Y008406D01*
X024481Y008588D01*
X024506Y008381D02*
X022635Y008381D01*
X022794Y008223D02*
X024665Y008223D01*
X025181Y008223D02*
X025181Y008223D01*
X025181Y008149D02*
X025623Y008149D01*
X025881Y008406D01*
X025881Y008588D01*
X025182Y008588D01*
X025182Y008589D01*
X025881Y008589D01*
X025881Y008771D01*
X025623Y009028D01*
X025181Y009028D01*
X025181Y008589D01*
X025181Y008588D01*
X025181Y008588D01*
X025181Y008149D01*
X025181Y008381D02*
X025181Y008381D01*
X025181Y008540D02*
X025181Y008540D01*
X025181Y008699D02*
X025181Y008699D01*
X025181Y008857D02*
X025181Y008857D01*
X025181Y009016D02*
X025181Y009016D01*
X025181Y009174D02*
X025181Y009174D01*
X025181Y009333D02*
X025181Y009333D01*
X025181Y009491D02*
X025181Y009491D01*
X025181Y009650D02*
X025181Y009650D01*
X025181Y009808D02*
X025181Y009808D01*
X025181Y009967D02*
X025181Y009967D01*
X025844Y009808D02*
X030519Y009808D01*
X030481Y009650D02*
X025881Y009650D01*
X025881Y009491D02*
X030481Y009491D01*
X030555Y009333D02*
X025808Y009333D01*
X025649Y009174D02*
X030713Y009174D01*
X030726Y009016D02*
X025636Y009016D01*
X025795Y008857D02*
X030568Y008857D01*
X030481Y008699D02*
X025881Y008699D01*
X025881Y008540D02*
X030481Y008540D01*
X030506Y008381D02*
X025856Y008381D01*
X025698Y008223D02*
X030665Y008223D01*
X030616Y007906D02*
X025746Y007906D01*
X025881Y007747D02*
X030481Y007747D01*
X030616Y007272D02*
X025747Y007272D01*
X025881Y007406D02*
X025881Y007588D01*
X025182Y007588D01*
X025182Y007589D01*
X025881Y007589D01*
X025623Y007028D02*
X025881Y006771D01*
X025881Y006589D01*
X025182Y006589D01*
X025182Y006588D01*
X025881Y006588D01*
X025881Y006406D01*
X025623Y006149D01*
X025181Y006149D01*
X025181Y006588D01*
X025181Y006588D01*
X025181Y006589D01*
X025181Y007028D01*
X025623Y007028D01*
X025697Y006955D02*
X030665Y006955D01*
X030507Y006796D02*
X025856Y006796D01*
X025881Y006638D02*
X030481Y006638D01*
X030481Y006479D02*
X025881Y006479D01*
X025795Y006320D02*
X030567Y006320D01*
X030726Y006162D02*
X025637Y006162D01*
X025181Y006162D02*
X025181Y006162D01*
X025181Y006320D02*
X025181Y006320D01*
X025181Y006479D02*
X025181Y006479D01*
X025181Y006638D02*
X025181Y006638D01*
X025181Y006796D02*
X025181Y006796D01*
X025181Y006955D02*
X025181Y006955D01*
X025181Y007272D02*
X025181Y007272D01*
X025181Y007430D02*
X025181Y007430D01*
X025181Y007747D02*
X025181Y007747D01*
X025181Y007906D02*
X025181Y007906D01*
X024507Y006796D02*
X024221Y006796D01*
X024379Y006638D02*
X024481Y006638D01*
X023709Y006003D02*
X013261Y006003D01*
X013261Y006111D02*
X013261Y004611D01*
X013138Y004489D01*
X012751Y004101D01*
X025612Y004101D01*
X025453Y004259D02*
X012909Y004259D01*
X012751Y004101D02*
X012751Y003967D01*
X012696Y003835D01*
X012595Y003733D01*
X012463Y003679D01*
X012320Y003679D01*
X012187Y003733D01*
X012086Y003835D01*
X012031Y003967D01*
X012031Y004110D01*
X012086Y004242D01*
X012187Y004344D01*
X012320Y004398D01*
X012454Y004398D01*
X012812Y004757D01*
X012793Y004749D01*
X012650Y004749D01*
X012517Y004803D01*
X012416Y004905D01*
X012361Y005037D01*
X012361Y005171D01*
X012231Y005302D01*
X012231Y005277D01*
X012176Y005145D01*
X012075Y005043D01*
X011943Y004989D01*
X011808Y004989D01*
X010851Y004031D01*
X010851Y003897D01*
X010796Y003765D01*
X010695Y003663D01*
X010563Y003609D01*
X010420Y003609D01*
X010287Y003663D01*
X010186Y003765D01*
X010131Y003897D01*
X010131Y004040D01*
X010186Y004172D01*
X010287Y004274D01*
X010420Y004328D01*
X010554Y004328D01*
X011511Y005285D01*
X011511Y005420D01*
X011566Y005552D01*
X011667Y005654D01*
X011800Y005708D01*
X011943Y005708D01*
X011991Y005688D01*
X011991Y005979D01*
X011896Y006075D01*
X011841Y006207D01*
X011841Y006350D01*
X011896Y006482D01*
X011982Y006569D01*
X011950Y006569D01*
X011817Y006623D01*
X011716Y006725D01*
X011661Y006857D01*
X011661Y007000D01*
X011716Y007132D01*
X011817Y007234D01*
X011950Y007288D01*
X012093Y007288D01*
X012225Y007234D01*
X012326Y007132D01*
X012381Y007000D01*
X012381Y006865D01*
X012481Y006765D01*
X012481Y006771D01*
X012739Y007028D01*
X013181Y007028D01*
X013181Y006589D01*
X013181Y006589D01*
X013181Y007028D01*
X013623Y007028D01*
X013881Y006771D01*
X013881Y006589D01*
X013182Y006589D01*
X013182Y006588D01*
X013881Y006588D01*
X013881Y006406D01*
X013623Y006149D01*
X013261Y006149D01*
X013261Y006111D01*
X013261Y005845D02*
X023868Y005845D01*
X024027Y005686D02*
X013261Y005686D01*
X013261Y005528D02*
X024185Y005528D01*
X024344Y005369D02*
X013261Y005369D01*
X013261Y005211D02*
X024502Y005211D01*
X024661Y005052D02*
X013261Y005052D01*
X013261Y004894D02*
X024819Y004894D01*
X024978Y004735D02*
X013261Y004735D01*
X013226Y004576D02*
X025136Y004576D01*
X025295Y004418D02*
X013068Y004418D01*
X012791Y004735D02*
X011555Y004735D01*
X011713Y004894D02*
X012427Y004894D01*
X012361Y005052D02*
X012084Y005052D01*
X012204Y005211D02*
X012322Y005211D01*
X011746Y005686D02*
X010277Y005686D01*
X010196Y005606D02*
X009781Y005434D01*
X009331Y005434D01*
X008916Y005606D01*
X008598Y005923D01*
X008426Y006339D01*
X008426Y006788D01*
X008598Y007204D01*
X008916Y007521D01*
X009331Y007693D01*
X009781Y007693D01*
X010196Y007521D01*
X010514Y007204D01*
X010686Y006788D01*
X010686Y006339D01*
X010514Y005923D01*
X010196Y005606D01*
X010009Y005528D02*
X011556Y005528D01*
X011511Y005369D02*
X003976Y005369D01*
X003976Y005211D02*
X011436Y005211D01*
X011278Y005052D02*
X003976Y005052D01*
X003976Y004894D02*
X011119Y004894D01*
X010961Y004735D02*
X003976Y004735D01*
X003976Y004576D02*
X010802Y004576D01*
X010644Y004418D02*
X003976Y004418D01*
X003976Y004259D02*
X010273Y004259D01*
X010156Y004101D02*
X007638Y004101D01*
X007810Y004029D02*
X008122Y003717D01*
X008291Y003309D01*
X008291Y002868D01*
X008122Y002460D01*
X007810Y002148D01*
X007402Y001979D01*
X006960Y001979D01*
X006553Y002148D01*
X006240Y002460D01*
X006071Y002868D01*
X006071Y003309D01*
X006240Y003717D01*
X006553Y004029D01*
X006960Y004198D01*
X007402Y004198D01*
X007810Y004029D01*
X007897Y003942D02*
X010131Y003942D01*
X010178Y003784D02*
X008056Y003784D01*
X008160Y003625D02*
X010379Y003625D01*
X010603Y003625D02*
X015892Y003625D01*
X015991Y003723D02*
X016372Y003723D01*
X016441Y003655D01*
X016694Y003908D01*
X016868Y003908D01*
X020668Y003908D01*
X020791Y003785D01*
X020922Y003655D01*
X020991Y003723D01*
X021372Y003723D01*
X021641Y003454D01*
X021641Y002473D01*
X021372Y002204D01*
X020991Y002204D01*
X020721Y002473D01*
X020721Y003262D01*
X020494Y003489D01*
X019607Y003489D01*
X019641Y003454D01*
X019641Y002473D01*
X019372Y002204D01*
X018991Y002204D01*
X018721Y002473D01*
X018721Y003454D01*
X018756Y003489D01*
X018635Y003489D01*
X018661Y003462D01*
X018661Y002984D01*
X018201Y002984D01*
X018201Y002943D01*
X018161Y002943D01*
X018161Y002184D01*
X017982Y002184D01*
X017701Y002465D01*
X017701Y002943D01*
X018161Y002943D01*
X018161Y002984D01*
X017701Y002984D01*
X017701Y003462D01*
X017728Y003489D01*
X017607Y003489D01*
X017641Y003454D01*
X017641Y002473D01*
X017372Y002204D01*
X016991Y002204D01*
X016721Y002473D01*
X016721Y003342D01*
X016641Y003262D01*
X016641Y002473D01*
X016372Y002204D01*
X015991Y002204D01*
X015721Y002473D01*
X015721Y003454D01*
X015991Y003723D01*
X015734Y003467D02*
X008226Y003467D01*
X008291Y003308D02*
X015721Y003308D01*
X015721Y003150D02*
X008291Y003150D01*
X008291Y002991D02*
X015721Y002991D01*
X015721Y002832D02*
X008277Y002832D01*
X008211Y002674D02*
X015721Y002674D01*
X015721Y002515D02*
X008145Y002515D01*
X008019Y002357D02*
X015837Y002357D01*
X016525Y002357D02*
X016837Y002357D01*
X016721Y002515D02*
X016641Y002515D01*
X016641Y002674D02*
X016721Y002674D01*
X016721Y002832D02*
X016641Y002832D01*
X016641Y002991D02*
X016721Y002991D01*
X016721Y003150D02*
X016641Y003150D01*
X016688Y003308D02*
X016721Y003308D01*
X016570Y003784D02*
X012646Y003784D01*
X012741Y003942D02*
X025771Y003942D01*
X025929Y003784D02*
X020793Y003784D01*
X020516Y003467D02*
X019629Y003467D01*
X019641Y003308D02*
X020675Y003308D01*
X020721Y003150D02*
X019641Y003150D01*
X019641Y002991D02*
X020721Y002991D01*
X020721Y002832D02*
X019641Y002832D01*
X019641Y002674D02*
X020721Y002674D01*
X020721Y002515D02*
X019641Y002515D01*
X019525Y002357D02*
X020837Y002357D01*
X021525Y002357D02*
X021837Y002357D01*
X021721Y002473D02*
X021721Y003454D01*
X021991Y003723D01*
X022372Y003723D01*
X022641Y003454D01*
X022641Y002473D01*
X022372Y002204D01*
X021991Y002204D01*
X021721Y002473D01*
X021721Y002515D02*
X021641Y002515D01*
X021641Y002674D02*
X021721Y002674D01*
X021721Y002832D02*
X021641Y002832D01*
X021641Y002991D02*
X021721Y002991D01*
X021721Y003150D02*
X021641Y003150D01*
X021641Y003308D02*
X021721Y003308D01*
X021734Y003467D02*
X021629Y003467D01*
X021470Y003625D02*
X021892Y003625D01*
X022470Y003625D02*
X022864Y003625D01*
X022982Y003743D02*
X022701Y003462D01*
X022701Y002984D01*
X023161Y002984D01*
X023201Y002984D01*
X023201Y003743D01*
X023380Y003743D01*
X023661Y003462D01*
X023661Y002984D01*
X023201Y002984D01*
X023201Y002943D01*
X023161Y002943D01*
X023161Y002184D01*
X022982Y002184D01*
X022701Y002465D01*
X022701Y002943D01*
X023161Y002943D01*
X023161Y002984D01*
X023161Y003743D01*
X022982Y003743D01*
X023161Y003625D02*
X023201Y003625D01*
X023201Y003467D02*
X023161Y003467D01*
X023161Y003308D02*
X023201Y003308D01*
X023201Y003150D02*
X023161Y003150D01*
X023161Y002991D02*
X023201Y002991D01*
X023201Y002943D02*
X023661Y002943D01*
X023661Y002465D01*
X023380Y002184D01*
X023201Y002184D01*
X023201Y002943D01*
X023201Y002832D02*
X023161Y002832D01*
X023161Y002674D02*
X023201Y002674D01*
X023201Y002515D02*
X023161Y002515D01*
X023161Y002357D02*
X023201Y002357D01*
X023201Y002198D02*
X023161Y002198D01*
X022968Y002198D02*
X018395Y002198D01*
X018380Y002184D02*
X018201Y002184D01*
X018201Y002943D01*
X018661Y002943D01*
X018661Y002465D01*
X018380Y002184D01*
X018201Y002198D02*
X018161Y002198D01*
X018161Y002357D02*
X018201Y002357D01*
X018201Y002515D02*
X018161Y002515D01*
X018161Y002674D02*
X018201Y002674D01*
X018201Y002832D02*
X018161Y002832D01*
X017701Y002832D02*
X017641Y002832D01*
X017641Y002674D02*
X017701Y002674D01*
X017701Y002515D02*
X017641Y002515D01*
X017525Y002357D02*
X017809Y002357D01*
X017968Y002198D02*
X007861Y002198D01*
X007550Y002040D02*
X032027Y002040D01*
X032040Y001881D02*
X003976Y001881D01*
X003976Y001723D02*
X032106Y001723D01*
X032248Y001564D02*
X003976Y001564D01*
X003976Y002040D02*
X006813Y002040D01*
X006502Y002198D02*
X003976Y002198D01*
X003976Y002357D02*
X006343Y002357D01*
X006217Y002515D02*
X003976Y002515D01*
X003976Y002674D02*
X006152Y002674D01*
X006086Y002832D02*
X003976Y002832D01*
X003976Y002991D02*
X006071Y002991D01*
X006071Y003150D02*
X003976Y003150D01*
X003976Y003308D02*
X006071Y003308D01*
X006136Y003467D02*
X003976Y003467D01*
X003976Y003625D02*
X006202Y003625D01*
X006307Y003784D02*
X003976Y003784D01*
X003976Y003942D02*
X006465Y003942D01*
X006725Y004101D02*
X003976Y004101D01*
X003976Y005528D02*
X009104Y005528D01*
X008835Y005686D02*
X003976Y005686D01*
X003976Y005845D02*
X008677Y005845D01*
X008565Y006003D02*
X003976Y006003D01*
X003976Y006162D02*
X005226Y006162D01*
X005239Y006149D02*
X004981Y006406D01*
X004981Y006588D01*
X005681Y006588D01*
X005681Y006149D01*
X005239Y006149D01*
X005067Y006320D02*
X003976Y006320D01*
X003976Y006479D02*
X004981Y006479D01*
X004981Y006589D02*
X004981Y006771D01*
X005239Y007028D01*
X005681Y007028D01*
X005681Y006589D01*
X005681Y006589D01*
X004981Y006589D01*
X004981Y006638D02*
X003976Y006638D01*
X003976Y006796D02*
X005007Y006796D01*
X005165Y006955D02*
X003976Y006955D01*
X003976Y007113D02*
X008561Y007113D01*
X008495Y006955D02*
X006197Y006955D01*
X006123Y007028D02*
X006381Y006771D01*
X006381Y006589D01*
X005682Y006589D01*
X005682Y006588D01*
X006381Y006588D01*
X006381Y006406D01*
X006123Y006149D01*
X005681Y006149D01*
X005681Y006588D01*
X005681Y006588D01*
X005681Y006589D01*
X005681Y007028D01*
X006123Y007028D01*
X006123Y007149D02*
X005681Y007149D01*
X005239Y007149D01*
X004981Y007406D01*
X004981Y007588D01*
X005681Y007588D01*
X005681Y007149D01*
X005681Y007588D01*
X005681Y007588D01*
X005681Y007589D01*
X005681Y007589D01*
X005681Y008028D01*
X005239Y008028D01*
X004981Y007771D01*
X004981Y007589D01*
X003976Y007589D01*
X003976Y007747D02*
X004981Y007747D01*
X004981Y007589D02*
X005681Y007589D01*
X005681Y008028D01*
X006123Y008028D01*
X006381Y007771D01*
X006381Y007589D01*
X009079Y007589D01*
X008825Y007430D02*
X006381Y007430D01*
X006381Y007406D02*
X006123Y007149D01*
X006247Y007272D02*
X008666Y007272D01*
X008429Y006796D02*
X006356Y006796D01*
X006381Y006638D02*
X008426Y006638D01*
X008426Y006479D02*
X006381Y006479D01*
X006295Y006320D02*
X008434Y006320D01*
X008500Y006162D02*
X006137Y006162D01*
X005681Y006162D02*
X005681Y006162D01*
X005681Y006320D02*
X005681Y006320D01*
X005681Y006479D02*
X005681Y006479D01*
X005681Y006638D02*
X005681Y006638D01*
X005681Y006796D02*
X005681Y006796D01*
X005681Y006955D02*
X005681Y006955D01*
X005681Y007272D02*
X005681Y007272D01*
X005681Y007430D02*
X005681Y007430D01*
X005682Y007588D02*
X006381Y007588D01*
X006381Y007406D01*
X006381Y007589D02*
X005682Y007589D01*
X005682Y007588D01*
X005681Y007747D02*
X005681Y007747D01*
X005681Y007906D02*
X005681Y007906D01*
X005681Y008149D02*
X006123Y008149D01*
X006381Y008406D01*
X006381Y008588D01*
X005682Y008588D01*
X005682Y008589D01*
X006381Y008589D01*
X006381Y008771D01*
X006123Y009028D01*
X005681Y009028D01*
X005681Y008589D01*
X005681Y008589D01*
X004981Y008589D01*
X004981Y008771D01*
X005239Y009028D01*
X005681Y009028D01*
X005681Y008589D01*
X005681Y008588D01*
X005681Y008149D01*
X005239Y008149D01*
X004981Y008406D01*
X004981Y008588D01*
X005681Y008588D01*
X005681Y008588D01*
X005681Y008149D01*
X005681Y008223D02*
X005681Y008223D01*
X005681Y008381D02*
X005681Y008381D01*
X005681Y008540D02*
X005681Y008540D01*
X005681Y008699D02*
X005681Y008699D01*
X005681Y008857D02*
X005681Y008857D01*
X005681Y009016D02*
X005681Y009016D01*
X005681Y009149D02*
X006123Y009149D01*
X006381Y009406D01*
X006381Y009588D01*
X005682Y009588D01*
X005682Y009589D01*
X006381Y009589D01*
X006381Y009771D01*
X006123Y010028D01*
X005681Y010028D01*
X005681Y009589D01*
X005681Y009589D01*
X004981Y009589D01*
X004981Y009771D01*
X005239Y010028D01*
X005681Y010028D01*
X005681Y009589D01*
X005681Y009588D01*
X005681Y009149D01*
X005239Y009149D01*
X004981Y009406D01*
X004981Y009588D01*
X005681Y009588D01*
X005681Y009588D01*
X005681Y009149D01*
X005681Y009174D02*
X005681Y009174D01*
X005681Y009333D02*
X005681Y009333D01*
X005681Y009491D02*
X005681Y009491D01*
X005681Y009650D02*
X005681Y009650D01*
X005681Y009808D02*
X005681Y009808D01*
X005681Y009967D02*
X005681Y009967D01*
X005177Y009967D02*
X003976Y009967D01*
X003976Y010125D02*
X033633Y010125D01*
X033683Y010005D02*
X033526Y010384D01*
X033526Y010793D01*
X033683Y011172D01*
X033973Y011462D01*
X034351Y011618D01*
X034761Y011618D01*
X035140Y011462D01*
X035429Y011172D01*
X035586Y010793D01*
X035586Y010384D01*
X035429Y010005D01*
X035140Y009715D01*
X034761Y009559D01*
X034351Y009559D01*
X033973Y009715D01*
X033683Y010005D01*
X033721Y009967D02*
X031685Y009967D01*
X031844Y009808D02*
X033880Y009808D01*
X034131Y009650D02*
X031881Y009650D01*
X031881Y009491D02*
X036846Y009491D01*
X036846Y009650D02*
X034982Y009650D01*
X035233Y009808D02*
X036876Y009808D01*
X037034Y009967D02*
X035391Y009967D01*
X035479Y010125D02*
X043386Y010125D01*
X043386Y009967D02*
X038550Y009967D01*
X038488Y010149D02*
X038124Y010149D01*
X037866Y010406D01*
X037866Y010771D01*
X038124Y011028D01*
X038488Y011028D01*
X038746Y010771D01*
X038746Y010406D01*
X038488Y010149D01*
X038624Y010284D02*
X043386Y010284D01*
X043386Y010443D02*
X038746Y010443D01*
X038746Y010601D02*
X043386Y010601D01*
X043386Y010760D02*
X038746Y010760D01*
X038599Y010918D02*
X043386Y010918D01*
X043386Y011077D02*
X037716Y011077D01*
X037716Y011235D02*
X038037Y011235D01*
X038124Y011149D02*
X037866Y011406D01*
X037866Y011771D01*
X038124Y012028D01*
X037716Y012028D01*
X037716Y012187D02*
X038086Y012187D01*
X038124Y012149D02*
X037866Y012406D01*
X037866Y012771D01*
X038124Y013028D01*
X038488Y013028D01*
X038746Y012771D01*
X038746Y012406D01*
X038488Y012149D01*
X038124Y012149D01*
X038124Y012028D02*
X038488Y012028D01*
X038746Y011771D01*
X038746Y011406D01*
X038488Y011149D01*
X038124Y011149D01*
X038014Y010918D02*
X037716Y010918D01*
X037746Y010760D02*
X037866Y010760D01*
X037866Y010601D02*
X037746Y010601D01*
X037746Y010443D02*
X037866Y010443D01*
X037989Y010284D02*
X037624Y010284D01*
X036989Y010284D02*
X035545Y010284D01*
X035586Y010443D02*
X036866Y010443D01*
X036866Y010601D02*
X035586Y010601D01*
X035586Y010760D02*
X036866Y010760D01*
X036896Y010918D02*
X035534Y010918D01*
X035469Y011077D02*
X036896Y011077D01*
X036896Y011235D02*
X035366Y011235D01*
X035208Y011394D02*
X036879Y011394D01*
X036866Y011552D02*
X034921Y011552D01*
X034192Y011552D02*
X031861Y011552D01*
X031861Y011711D02*
X036866Y011711D01*
X036896Y011869D02*
X031754Y011869D01*
X031591Y012028D02*
X036896Y012028D01*
X037716Y011869D02*
X037965Y011869D01*
X037866Y011711D02*
X037746Y011711D01*
X037746Y011552D02*
X037866Y011552D01*
X037879Y011394D02*
X037734Y011394D01*
X038575Y011235D02*
X043386Y011235D01*
X043386Y011394D02*
X038734Y011394D01*
X038746Y011552D02*
X043386Y011552D01*
X043386Y011711D02*
X038746Y011711D01*
X038647Y011869D02*
X043386Y011869D01*
X043386Y012028D02*
X038489Y012028D01*
X038526Y012187D02*
X043386Y012187D01*
X043386Y012345D02*
X038685Y012345D01*
X038746Y012504D02*
X043386Y012504D01*
X043386Y012662D02*
X038746Y012662D01*
X038696Y012821D02*
X043386Y012821D01*
X043386Y012979D02*
X038538Y012979D01*
X038488Y013149D02*
X038746Y013406D01*
X038746Y013771D01*
X038488Y014028D01*
X038124Y014028D01*
X037866Y013771D01*
X037866Y013406D01*
X038124Y013149D01*
X038488Y013149D01*
X038636Y013296D02*
X043386Y013296D01*
X043386Y013138D02*
X037560Y013138D01*
X037538Y012979D02*
X038075Y012979D01*
X037916Y012821D02*
X037696Y012821D01*
X037746Y012662D02*
X037866Y012662D01*
X037866Y012504D02*
X037746Y012504D01*
X037716Y012345D02*
X037927Y012345D01*
X037976Y013296D02*
X037716Y013296D01*
X037746Y013455D02*
X037866Y013455D01*
X037866Y013613D02*
X037746Y013613D01*
X037745Y013772D02*
X037868Y013772D01*
X037716Y013931D02*
X038026Y013931D01*
X038025Y014248D02*
X037716Y014248D01*
X037716Y014089D02*
X043386Y014089D01*
X043386Y013931D02*
X038586Y013931D01*
X038745Y013772D02*
X043386Y013772D01*
X043386Y013613D02*
X038746Y013613D01*
X038746Y013455D02*
X043386Y013455D01*
X043386Y014565D02*
X038746Y014565D01*
X038746Y014723D02*
X043386Y014723D01*
X043386Y014882D02*
X038635Y014882D01*
X038488Y015149D02*
X038746Y015406D01*
X038746Y015771D01*
X038488Y016028D01*
X038124Y016028D01*
X037866Y015771D01*
X037866Y015406D01*
X038124Y015149D01*
X038488Y015149D01*
X038539Y015199D02*
X043386Y015199D01*
X043386Y015357D02*
X038697Y015357D01*
X038746Y015516D02*
X043386Y015516D01*
X042931Y015674D02*
X042931Y015674D01*
X042931Y015833D02*
X042931Y015833D01*
X042931Y015992D02*
X042931Y015992D01*
X042931Y016150D02*
X042931Y016150D01*
X042931Y016309D02*
X042931Y016309D01*
X042931Y016467D02*
X042931Y016467D01*
X042931Y016784D02*
X042931Y016784D01*
X042931Y016943D02*
X042931Y016943D01*
X042931Y017101D02*
X042931Y017101D01*
X042931Y017260D02*
X042931Y017260D01*
X042931Y017418D02*
X042931Y017418D01*
X042931Y017736D02*
X042931Y017736D01*
X042931Y017894D02*
X042931Y017894D01*
X042931Y018053D02*
X042931Y018053D01*
X042931Y018089D02*
X042231Y018089D01*
X042231Y018271D01*
X042489Y018528D01*
X042330Y018370D02*
X040504Y018370D01*
X040611Y018211D02*
X042231Y018211D01*
X042231Y018053D02*
X040611Y018053D01*
X040591Y017894D02*
X042243Y017894D01*
X042402Y017736D02*
X040432Y017736D01*
X040455Y017418D02*
X042379Y017418D01*
X042231Y017260D02*
X040611Y017260D01*
X040611Y017101D02*
X042231Y017101D01*
X042231Y016943D02*
X040611Y016943D01*
X040481Y016784D02*
X042353Y016784D01*
X042428Y016467D02*
X040406Y016467D01*
X040565Y016309D02*
X042269Y016309D01*
X042231Y016150D02*
X040611Y016150D01*
X040611Y015992D02*
X042231Y015992D01*
X042304Y015833D02*
X040530Y015833D01*
X040371Y015674D02*
X042463Y015674D01*
X043386Y015040D02*
X037716Y015040D01*
X037716Y014882D02*
X037977Y014882D01*
X037866Y014723D02*
X037746Y014723D01*
X037746Y014565D02*
X037866Y014565D01*
X037716Y015199D02*
X038074Y015199D01*
X037915Y015357D02*
X037716Y015357D01*
X037746Y015516D02*
X037866Y015516D01*
X037866Y015674D02*
X037746Y015674D01*
X037684Y015833D02*
X037929Y015833D01*
X038087Y015992D02*
X037525Y015992D01*
X037488Y016149D02*
X037746Y016406D01*
X037746Y016771D01*
X037488Y017028D01*
X037124Y017028D01*
X036866Y016771D01*
X036866Y016406D01*
X037124Y016149D01*
X037488Y016149D01*
X037490Y016150D02*
X038122Y016150D01*
X037964Y016309D02*
X037649Y016309D01*
X037746Y016467D02*
X037866Y016467D01*
X037866Y016626D02*
X037746Y016626D01*
X037733Y016784D02*
X037880Y016784D01*
X038038Y016943D02*
X037574Y016943D01*
X037600Y017260D02*
X037743Y017260D01*
X037901Y017101D02*
X035539Y017101D01*
X035533Y016943D02*
X037038Y016943D01*
X036880Y016784D02*
X031839Y016784D01*
X031861Y016762D02*
X031615Y017008D01*
X030747Y017008D01*
X030501Y016762D01*
X030501Y016415D01*
X030747Y016169D01*
X031615Y016169D01*
X031861Y016415D01*
X031861Y016762D01*
X031861Y016626D02*
X036866Y016626D01*
X036866Y016467D02*
X031861Y016467D01*
X031755Y016309D02*
X036964Y016309D01*
X037122Y016150D02*
X022657Y016150D01*
X022815Y015992D02*
X024730Y015992D01*
X024747Y016169D02*
X024501Y016415D01*
X024501Y016762D01*
X024747Y017008D01*
X025615Y017008D01*
X025861Y016762D01*
X025861Y016415D01*
X025615Y016169D01*
X024747Y016169D01*
X024607Y016309D02*
X022498Y016309D01*
X022339Y016467D02*
X024501Y016467D01*
X024501Y016626D02*
X023487Y016626D01*
X023627Y016784D02*
X024523Y016784D01*
X024682Y016943D02*
X023661Y016943D01*
X023761Y017101D02*
X029389Y017101D01*
X029351Y016943D02*
X025681Y016943D01*
X025839Y016784D02*
X029385Y016784D01*
X029526Y016626D02*
X025861Y016626D01*
X025861Y016467D02*
X030501Y016467D01*
X030501Y016626D02*
X029897Y016626D01*
X030037Y016784D02*
X030523Y016784D01*
X030682Y016943D02*
X030071Y016943D01*
X030171Y017101D02*
X034823Y017101D01*
X034829Y016943D02*
X031681Y016943D01*
X031707Y017260D02*
X034823Y017260D01*
X034823Y017418D02*
X031861Y017418D01*
X031867Y017577D02*
X035248Y017577D01*
X035539Y017260D02*
X037013Y017260D01*
X036866Y017418D02*
X035683Y017418D01*
X035842Y017577D02*
X036866Y017577D01*
X036866Y017736D02*
X036000Y017736D01*
X036159Y017894D02*
X036990Y017894D01*
X037061Y018211D02*
X036476Y018211D01*
X036317Y018053D02*
X037681Y018053D01*
X037681Y018211D02*
X037551Y018211D01*
X037623Y017894D02*
X037681Y017894D01*
X038101Y018053D02*
X039251Y018053D01*
X039272Y017894D02*
X038623Y017894D01*
X038746Y017736D02*
X039430Y017736D01*
X039407Y017418D02*
X038746Y017418D01*
X038746Y017577D02*
X043386Y017577D01*
X042931Y018089D02*
X042931Y018528D01*
X043373Y018528D01*
X043386Y018516D01*
X043386Y019536D01*
X043373Y019524D01*
X042931Y019524D01*
X042489Y019524D01*
X042231Y019781D01*
X042231Y019963D01*
X042931Y019963D01*
X042931Y019524D01*
X042931Y019963D01*
X042931Y019963D01*
X042931Y019964D01*
X042931Y019964D01*
X042931Y020403D01*
X042489Y020403D01*
X042231Y020146D01*
X042231Y019964D01*
X042931Y019964D01*
X042931Y020403D01*
X043373Y020403D01*
X042931Y020272D02*
X042931Y020272D01*
X042931Y020114D02*
X042931Y020114D01*
X042931Y019955D02*
X042931Y019955D01*
X042931Y019797D02*
X042931Y019797D01*
X042931Y019638D02*
X042931Y019638D01*
X042374Y019638D02*
X040460Y019638D01*
X040611Y019797D02*
X042231Y019797D01*
X042231Y019955D02*
X040611Y019955D01*
X040611Y020114D02*
X042231Y020114D01*
X042358Y020272D02*
X040476Y020272D01*
X040411Y020589D02*
X042423Y020589D01*
X042265Y020748D02*
X040570Y020748D01*
X040611Y020906D02*
X042231Y020906D01*
X042231Y021065D02*
X040611Y021065D01*
X040525Y021224D02*
X042309Y021224D01*
X042468Y021382D02*
X040367Y021382D01*
X040365Y021544D02*
X039497Y021544D01*
X039251Y021790D01*
X039251Y022137D01*
X039497Y022383D01*
X040365Y022383D01*
X040611Y022137D01*
X040611Y021790D01*
X040365Y021544D01*
X040521Y021699D02*
X042313Y021699D01*
X042231Y021858D02*
X040611Y021858D01*
X040611Y022016D02*
X042231Y022016D01*
X042260Y022175D02*
X040574Y022175D01*
X040415Y022333D02*
X042419Y022333D01*
X042931Y022333D02*
X042931Y022333D01*
X042931Y022175D02*
X042931Y022175D01*
X042931Y022016D02*
X042931Y022016D01*
X042931Y021858D02*
X042931Y021858D01*
X042931Y021699D02*
X042931Y021699D01*
X042931Y021541D02*
X042931Y021541D01*
X042931Y021382D02*
X042931Y021382D01*
X042931Y021224D02*
X042931Y021224D01*
X042931Y021065D02*
X042931Y021065D01*
X042931Y020906D02*
X042931Y020906D01*
X042931Y020748D02*
X042931Y020748D01*
X042931Y020589D02*
X042931Y020589D01*
X042472Y021541D02*
X038746Y021541D01*
X038746Y021406D02*
X038488Y021149D01*
X038124Y021149D01*
X037866Y021406D01*
X037866Y021771D01*
X038124Y022028D01*
X038488Y022028D01*
X038746Y021771D01*
X038746Y021406D01*
X038722Y021382D02*
X039496Y021382D01*
X039337Y021224D02*
X038563Y021224D01*
X038611Y020906D02*
X039251Y020906D01*
X039251Y021065D02*
X036925Y021065D01*
X037002Y020906D02*
X036766Y020906D01*
X036866Y020748D02*
X036608Y020748D01*
X036449Y020589D02*
X036855Y020589D01*
X036697Y020431D02*
X036290Y020431D01*
X036132Y020272D02*
X036538Y020272D01*
X036379Y020114D02*
X035973Y020114D01*
X035815Y019955D02*
X036221Y019955D01*
X036062Y019797D02*
X035656Y019797D01*
X035498Y019638D02*
X035904Y019638D01*
X035745Y019480D02*
X035339Y019480D01*
X035181Y019321D02*
X035587Y019321D01*
X035428Y019162D02*
X035022Y019162D01*
X034864Y019004D02*
X035270Y019004D01*
X035111Y018845D02*
X034705Y018845D01*
X034546Y018687D02*
X034953Y018687D01*
X034794Y018528D02*
X034388Y018528D01*
X034229Y018370D02*
X034636Y018370D01*
X034111Y018845D02*
X032985Y018845D01*
X032914Y018687D02*
X033953Y018687D01*
X033794Y018528D02*
X032914Y018528D01*
X033144Y019004D02*
X034270Y019004D01*
X034428Y019162D02*
X033302Y019162D01*
X033461Y019321D02*
X034587Y019321D01*
X034745Y019480D02*
X033619Y019480D01*
X033778Y019638D02*
X034904Y019638D01*
X035062Y019797D02*
X033936Y019797D01*
X034095Y019955D02*
X035221Y019955D01*
X035379Y020114D02*
X034253Y020114D01*
X034412Y020272D02*
X035538Y020272D01*
X035697Y020431D02*
X034571Y020431D01*
X034729Y020589D02*
X035855Y020589D01*
X036014Y020748D02*
X034888Y020748D01*
X035046Y020906D02*
X036172Y020906D01*
X036331Y021065D02*
X035205Y021065D01*
X035363Y021224D02*
X036489Y021224D01*
X036648Y021382D02*
X035522Y021382D01*
X035680Y021541D02*
X036806Y021541D01*
X036866Y021699D02*
X035839Y021699D01*
X035997Y021858D02*
X036953Y021858D01*
X037112Y022016D02*
X036156Y022016D01*
X036314Y022175D02*
X037098Y022175D01*
X036939Y022333D02*
X036473Y022333D01*
X036569Y022809D02*
X036904Y022809D01*
X037063Y022967D02*
X036727Y022967D01*
X036886Y023126D02*
X043386Y023126D01*
X043386Y022967D02*
X038549Y022967D01*
X038488Y023028D02*
X038746Y022771D01*
X038746Y022406D01*
X038488Y022149D01*
X038124Y022149D01*
X037866Y022406D01*
X037866Y022771D01*
X038124Y023028D01*
X038488Y023028D01*
X038488Y023149D02*
X038124Y023149D01*
X037866Y023406D01*
X037866Y023771D01*
X038124Y024028D01*
X038488Y024028D01*
X038746Y023771D01*
X038746Y023406D01*
X038488Y023149D01*
X038625Y023285D02*
X043386Y023285D01*
X043386Y023443D02*
X038746Y023443D01*
X038746Y023602D02*
X043386Y023602D01*
X043386Y023760D02*
X038746Y023760D01*
X038598Y023919D02*
X043386Y023919D01*
X043386Y024077D02*
X036927Y024077D01*
X037014Y023919D02*
X036768Y023919D01*
X036866Y023760D02*
X036610Y023760D01*
X036767Y023602D02*
X036451Y023602D01*
X036609Y023443D02*
X036293Y023443D01*
X036450Y023285D02*
X034254Y023285D01*
X034096Y023126D02*
X036292Y023126D01*
X036133Y022967D02*
X033937Y022967D01*
X033779Y022809D02*
X035975Y022809D01*
X035816Y022650D02*
X033620Y022650D01*
X033462Y022492D02*
X035658Y022492D01*
X035499Y022333D02*
X033303Y022333D01*
X033144Y022175D02*
X035341Y022175D01*
X035182Y022016D02*
X032986Y022016D01*
X032827Y021858D02*
X035023Y021858D01*
X034865Y021699D02*
X032669Y021699D01*
X032510Y021541D02*
X034706Y021541D01*
X034548Y021382D02*
X032352Y021382D01*
X032193Y021224D02*
X034389Y021224D01*
X034231Y021065D02*
X032035Y021065D01*
X031876Y020906D02*
X034072Y020906D01*
X033914Y020748D02*
X031861Y020748D01*
X031861Y020589D02*
X033755Y020589D01*
X033597Y020431D02*
X031861Y020431D01*
X031719Y020272D02*
X033438Y020272D01*
X033279Y020114D02*
X030153Y020114D01*
X029995Y019955D02*
X030694Y019955D01*
X030535Y019797D02*
X029836Y019797D01*
X029678Y019638D02*
X030501Y019638D01*
X030501Y019480D02*
X029519Y019480D01*
X029361Y019321D02*
X030595Y019321D01*
X030644Y020272D02*
X030312Y020272D01*
X030470Y020431D02*
X030501Y020431D01*
X030501Y021541D02*
X025861Y021541D01*
X025861Y021699D02*
X030501Y021699D01*
X030596Y021858D02*
X025766Y021858D01*
X025621Y022175D02*
X030741Y022175D01*
X030747Y022169D02*
X030501Y022415D01*
X030501Y022762D01*
X030747Y023008D01*
X031615Y023008D01*
X031861Y022762D01*
X031861Y022415D01*
X031615Y022169D01*
X030747Y022169D01*
X030582Y022333D02*
X025780Y022333D01*
X025861Y022492D02*
X030501Y022492D01*
X030501Y022650D02*
X025861Y022650D01*
X025815Y022809D02*
X030548Y022809D01*
X030706Y022967D02*
X025656Y022967D01*
X025615Y023169D02*
X025861Y023415D01*
X025861Y023762D01*
X025615Y024008D01*
X024747Y024008D01*
X024501Y023762D01*
X024501Y023415D01*
X024747Y023169D01*
X025615Y023169D01*
X025731Y023285D02*
X030631Y023285D01*
X030747Y023169D02*
X030501Y023415D01*
X030501Y023762D01*
X030546Y023807D01*
X027334Y027019D01*
X027200Y027019D01*
X027067Y027073D01*
X026966Y027175D01*
X026911Y027307D01*
X026911Y027450D01*
X026966Y027582D01*
X027067Y027684D01*
X027200Y027738D01*
X027343Y027738D01*
X027475Y027684D01*
X027576Y027582D01*
X027631Y027450D01*
X027631Y027315D01*
X030501Y024445D01*
X030501Y024762D01*
X030546Y024807D01*
X028114Y027239D01*
X027980Y027239D01*
X027847Y027293D01*
X027746Y027395D01*
X027691Y027527D01*
X027691Y027670D01*
X027746Y027802D01*
X027847Y027904D01*
X027980Y027958D01*
X028123Y027958D01*
X028255Y027904D01*
X028356Y027802D01*
X028411Y027670D01*
X028411Y027535D01*
X030501Y025445D01*
X030501Y025762D01*
X030546Y025807D01*
X028904Y027449D01*
X028770Y027449D01*
X028637Y027503D01*
X028536Y027605D01*
X028481Y027737D01*
X028481Y027880D01*
X028536Y028012D01*
X028637Y028114D01*
X028770Y028168D01*
X028913Y028168D01*
X029045Y028114D01*
X029146Y028012D01*
X029201Y027880D01*
X029201Y027745D01*
X030938Y026008D01*
X031615Y026008D01*
X031861Y025762D01*
X031861Y025415D01*
X031615Y025169D01*
X030778Y025169D01*
X030938Y025008D01*
X031615Y025008D01*
X031861Y024762D01*
X031861Y024415D01*
X031615Y024169D01*
X030778Y024169D01*
X030938Y024008D01*
X031615Y024008D01*
X031861Y023762D01*
X031861Y023415D01*
X031615Y023169D01*
X030747Y023169D01*
X030501Y023443D02*
X025861Y023443D01*
X025861Y023602D02*
X030501Y023602D01*
X030501Y023760D02*
X025861Y023760D01*
X025705Y023919D02*
X030434Y023919D01*
X030276Y024077D02*
X022229Y024077D01*
X022071Y024236D02*
X024680Y024236D01*
X024521Y024394D02*
X021912Y024394D01*
X021754Y024553D02*
X024501Y024553D01*
X024361Y024711D02*
X021595Y024711D01*
X021437Y024870D02*
X024203Y024870D01*
X024044Y025029D02*
X021278Y025029D01*
X021219Y025187D02*
X023886Y025187D01*
X023727Y025346D02*
X021336Y025346D01*
X021361Y025504D02*
X023569Y025504D01*
X023410Y025663D02*
X021315Y025663D01*
X021114Y025821D02*
X023251Y025821D01*
X023093Y025980D02*
X020797Y025980D01*
X020638Y026138D02*
X022934Y026138D01*
X022776Y026297D02*
X020480Y026297D01*
X020321Y026455D02*
X022617Y026455D01*
X022459Y026614D02*
X020163Y026614D01*
X020041Y026773D02*
X022300Y026773D01*
X022577Y027090D02*
X025771Y027090D01*
X025771Y027248D02*
X022419Y027248D01*
X022736Y026931D02*
X025771Y026931D01*
X025771Y026773D02*
X022894Y026773D01*
X023053Y026614D02*
X025771Y026614D01*
X025771Y026455D02*
X023211Y026455D01*
X023370Y026297D02*
X025771Y026297D01*
X025771Y026138D02*
X023528Y026138D01*
X023687Y025980D02*
X024719Y025980D01*
X024560Y025821D02*
X023845Y025821D01*
X024004Y025663D02*
X024501Y025663D01*
X024501Y025504D02*
X024162Y025504D01*
X024321Y025346D02*
X024570Y025346D01*
X024480Y025187D02*
X024729Y025187D01*
X024638Y025029D02*
X025771Y025029D01*
X025771Y025187D02*
X025634Y025187D01*
X025754Y024870D02*
X025771Y024870D01*
X026191Y024870D02*
X029483Y024870D01*
X029641Y024711D02*
X026287Y024711D01*
X026341Y024553D02*
X029800Y024553D01*
X029958Y024394D02*
X026324Y024394D01*
X026218Y024236D02*
X030117Y024236D01*
X030394Y024553D02*
X030501Y024553D01*
X030501Y024711D02*
X030235Y024711D01*
X030077Y024870D02*
X030483Y024870D01*
X030324Y025029D02*
X029918Y025029D01*
X029760Y025187D02*
X030166Y025187D01*
X030007Y025346D02*
X029601Y025346D01*
X029442Y025504D02*
X029849Y025504D01*
X029690Y025663D02*
X029284Y025663D01*
X029125Y025821D02*
X029532Y025821D01*
X029373Y025980D02*
X028967Y025980D01*
X028808Y026138D02*
X029214Y026138D01*
X029056Y026297D02*
X028650Y026297D01*
X028491Y026455D02*
X028897Y026455D01*
X028739Y026614D02*
X028333Y026614D01*
X028174Y026773D02*
X028580Y026773D01*
X028422Y026931D02*
X028016Y026931D01*
X027857Y027090D02*
X028263Y027090D01*
X027956Y027248D02*
X027699Y027248D01*
X027741Y027407D02*
X027631Y027407D01*
X027584Y027565D02*
X027691Y027565D01*
X027713Y027724D02*
X027378Y027724D01*
X027164Y027724D02*
X026191Y027724D01*
X026191Y027882D02*
X027826Y027882D01*
X028276Y027882D02*
X028482Y027882D01*
X028487Y027724D02*
X028389Y027724D01*
X028411Y027565D02*
X028575Y027565D01*
X028540Y027407D02*
X028946Y027407D01*
X029105Y027248D02*
X028699Y027248D01*
X028857Y027090D02*
X029263Y027090D01*
X029422Y026931D02*
X029016Y026931D01*
X029174Y026773D02*
X029580Y026773D01*
X029739Y026614D02*
X029333Y026614D01*
X029491Y026455D02*
X029897Y026455D01*
X030056Y026297D02*
X029650Y026297D01*
X029808Y026138D02*
X030214Y026138D01*
X030373Y025980D02*
X029967Y025980D01*
X030125Y025821D02*
X030532Y025821D01*
X030501Y025663D02*
X030284Y025663D01*
X030442Y025504D02*
X030501Y025504D01*
X030918Y025029D02*
X036284Y025029D01*
X036443Y025187D02*
X031634Y025187D01*
X031792Y025346D02*
X036601Y025346D01*
X036760Y025504D02*
X031861Y025504D01*
X031861Y025663D02*
X036866Y025663D01*
X036917Y025821D02*
X031802Y025821D01*
X031644Y025980D02*
X037075Y025980D01*
X037537Y025980D02*
X038075Y025980D01*
X038124Y026028D02*
X038488Y026028D01*
X038746Y025771D01*
X038746Y025406D01*
X038488Y025149D01*
X038124Y025149D01*
X037866Y025406D01*
X037866Y025771D01*
X038124Y026028D01*
X037917Y025821D02*
X037696Y025821D01*
X037746Y025663D02*
X037866Y025663D01*
X037866Y025504D02*
X037746Y025504D01*
X037686Y025346D02*
X037927Y025346D01*
X038085Y025187D02*
X037527Y025187D01*
X037647Y024870D02*
X037966Y024870D01*
X037866Y024771D02*
X038124Y025028D01*
X038488Y025028D01*
X038746Y024771D01*
X038746Y024406D01*
X038488Y024149D01*
X038124Y024149D01*
X037866Y024406D01*
X037866Y024771D01*
X037866Y024711D02*
X037746Y024711D01*
X037746Y024553D02*
X037866Y024553D01*
X037878Y024394D02*
X037734Y024394D01*
X037576Y024236D02*
X038037Y024236D01*
X038014Y023919D02*
X037598Y023919D01*
X037746Y023760D02*
X037866Y023760D01*
X037866Y023602D02*
X037746Y023602D01*
X037746Y023443D02*
X037866Y023443D01*
X037988Y023285D02*
X037625Y023285D01*
X037549Y022967D02*
X038063Y022967D01*
X037904Y022809D02*
X037708Y022809D01*
X037746Y022650D02*
X037866Y022650D01*
X037866Y022492D02*
X037746Y022492D01*
X037673Y022333D02*
X037939Y022333D01*
X038098Y022175D02*
X037515Y022175D01*
X037501Y022016D02*
X038112Y022016D01*
X037953Y021858D02*
X037659Y021858D01*
X037746Y021699D02*
X037866Y021699D01*
X037866Y021541D02*
X037746Y021541D01*
X037722Y021382D02*
X037890Y021382D01*
X038049Y021224D02*
X037563Y021224D01*
X037611Y020906D02*
X038002Y020906D01*
X037866Y020748D02*
X037746Y020748D01*
X037746Y020589D02*
X037866Y020589D01*
X038746Y020748D02*
X039293Y020748D01*
X039342Y021699D02*
X038746Y021699D01*
X038659Y021858D02*
X039251Y021858D01*
X039251Y022016D02*
X038501Y022016D01*
X038515Y022175D02*
X039289Y022175D01*
X039447Y022333D02*
X038673Y022333D01*
X038746Y022492D02*
X043386Y022492D01*
X043386Y022650D02*
X038746Y022650D01*
X038708Y022809D02*
X043386Y022809D01*
X043386Y024236D02*
X038576Y024236D01*
X038734Y024394D02*
X043386Y024394D01*
X043386Y024553D02*
X038746Y024553D01*
X038746Y024711D02*
X043386Y024711D01*
X043386Y024870D02*
X038647Y024870D01*
X038527Y025187D02*
X043386Y025187D01*
X043386Y025029D02*
X036878Y025029D01*
X036966Y024870D02*
X036720Y024870D01*
X036866Y024711D02*
X036561Y024711D01*
X036403Y024553D02*
X036809Y024553D01*
X036650Y024394D02*
X036244Y024394D01*
X036086Y024236D02*
X036492Y024236D01*
X036333Y024077D02*
X035927Y024077D01*
X035768Y023919D02*
X036175Y023919D01*
X035650Y024394D02*
X031841Y024394D01*
X031861Y024553D02*
X035809Y024553D01*
X035967Y024711D02*
X031861Y024711D01*
X031754Y024870D02*
X036126Y024870D01*
X035492Y024236D02*
X031683Y024236D01*
X031705Y023919D02*
X034035Y023919D01*
X033876Y023760D02*
X031861Y023760D01*
X031861Y023602D02*
X033717Y023602D01*
X033559Y023443D02*
X031861Y023443D01*
X031731Y023285D02*
X033400Y023285D01*
X033242Y023126D02*
X024541Y023126D01*
X024631Y023285D02*
X024382Y023285D01*
X024501Y023443D02*
X024224Y023443D01*
X024501Y023602D02*
X022705Y023602D01*
X022546Y023760D02*
X024501Y023760D01*
X024658Y023919D02*
X022388Y023919D01*
X022981Y023126D02*
X023947Y023126D01*
X024105Y022967D02*
X023139Y022967D01*
X023298Y022809D02*
X024264Y022809D01*
X024422Y022650D02*
X023616Y022650D01*
X023815Y022492D02*
X024501Y022492D01*
X024582Y022333D02*
X023861Y022333D01*
X023836Y022175D02*
X024741Y022175D01*
X023718Y022016D02*
X032132Y022016D01*
X031973Y021858D02*
X031766Y021858D01*
X031621Y022175D02*
X032291Y022175D01*
X032449Y022333D02*
X031780Y022333D01*
X031861Y022492D02*
X032608Y022492D01*
X032766Y022650D02*
X031861Y022650D01*
X031815Y022809D02*
X032925Y022809D01*
X033083Y022967D02*
X031656Y022967D01*
X030869Y024077D02*
X035333Y024077D01*
X037037Y025187D02*
X037085Y025187D01*
X038686Y025346D02*
X043386Y025346D01*
X043386Y025504D02*
X038746Y025504D01*
X038746Y025663D02*
X043386Y025663D01*
X043386Y025821D02*
X038696Y025821D01*
X038537Y025980D02*
X043386Y025980D01*
X043386Y026138D02*
X030808Y026138D01*
X030650Y026297D02*
X043386Y026297D01*
X043386Y026455D02*
X030491Y026455D01*
X030333Y026614D02*
X043386Y026614D01*
X043386Y026773D02*
X030174Y026773D01*
X030016Y026931D02*
X043386Y026931D01*
X043386Y027090D02*
X029857Y027090D01*
X029699Y027248D02*
X043386Y027248D01*
X043386Y027407D02*
X029540Y027407D01*
X029381Y027565D02*
X043386Y027565D01*
X043386Y027724D02*
X029223Y027724D01*
X029200Y027882D02*
X043386Y027882D01*
X043386Y028041D02*
X038552Y028041D01*
X038402Y027979D02*
X038810Y028148D01*
X039122Y028460D01*
X039291Y028868D01*
X039291Y029309D01*
X043386Y029309D01*
X043386Y029151D02*
X039291Y029151D01*
X039291Y029309D02*
X039122Y029717D01*
X038810Y030029D01*
X038402Y030198D01*
X037960Y030198D01*
X037553Y030029D01*
X037240Y029717D01*
X037071Y029309D01*
X024641Y029309D01*
X024641Y029468D02*
X033318Y029468D01*
X033271Y029514D02*
X033208Y029668D01*
X033208Y029834D01*
X033271Y029987D01*
X033389Y030105D01*
X033542Y030168D01*
X033708Y030168D01*
X033862Y030105D01*
X033979Y029987D01*
X034043Y029834D01*
X034043Y029668D01*
X033979Y029514D01*
X033862Y029397D01*
X033708Y029333D01*
X033542Y029333D01*
X033389Y029397D01*
X033271Y029514D01*
X033225Y029626D02*
X032756Y029626D01*
X032783Y029638D02*
X032563Y029546D01*
X032325Y029546D01*
X032105Y029638D01*
X031937Y029806D01*
X031846Y030026D01*
X031846Y030264D01*
X031937Y030483D01*
X032105Y030652D01*
X032325Y030743D01*
X032563Y030743D01*
X032783Y030652D01*
X032951Y030483D01*
X033042Y030264D01*
X033042Y030026D01*
X032951Y029806D01*
X032783Y029638D01*
X032930Y029785D02*
X033208Y029785D01*
X033253Y029943D02*
X033008Y029943D01*
X033042Y030102D02*
X033386Y030102D01*
X033042Y030260D02*
X035389Y030260D01*
X035389Y030264D02*
X035480Y030483D01*
X035649Y030652D01*
X035868Y030743D01*
X036106Y030743D01*
X036326Y030652D01*
X036494Y030483D01*
X036585Y030264D01*
X036585Y030026D01*
X036494Y029806D01*
X036326Y029638D01*
X036106Y029546D01*
X035868Y029546D01*
X035649Y029638D01*
X035480Y029806D01*
X035389Y030026D01*
X035389Y030264D01*
X035389Y030102D02*
X035046Y030102D01*
X035043Y030105D02*
X035160Y029987D01*
X035224Y029834D01*
X035224Y029668D01*
X035160Y029514D01*
X035043Y029397D01*
X034889Y029333D01*
X034723Y029333D01*
X034570Y029397D01*
X034452Y029514D01*
X034389Y029668D01*
X034389Y029834D01*
X034452Y029987D01*
X034570Y030105D01*
X034723Y030168D01*
X034889Y030168D01*
X035043Y030105D01*
X035178Y029943D02*
X035423Y029943D01*
X035501Y029785D02*
X035224Y029785D01*
X035207Y029626D02*
X035676Y029626D01*
X035114Y029468D02*
X037137Y029468D01*
X037203Y029626D02*
X036299Y029626D01*
X036473Y029785D02*
X037308Y029785D01*
X037466Y029943D02*
X036551Y029943D01*
X036585Y030102D02*
X037728Y030102D01*
X038635Y030102D02*
X043386Y030102D01*
X043386Y030260D02*
X036585Y030260D01*
X036521Y030419D02*
X043386Y030419D01*
X043386Y030578D02*
X036400Y030578D01*
X036122Y030736D02*
X043386Y030736D01*
X043386Y029943D02*
X038896Y029943D01*
X039055Y029785D02*
X043386Y029785D01*
X043386Y029626D02*
X039160Y029626D01*
X039225Y029468D02*
X043386Y029468D01*
X043386Y028992D02*
X039291Y028992D01*
X039277Y028834D02*
X043386Y028834D01*
X043386Y028675D02*
X039211Y028675D01*
X039146Y028516D02*
X043386Y028516D01*
X043386Y028358D02*
X039020Y028358D01*
X038862Y028199D02*
X043386Y028199D01*
X038402Y027979D02*
X037960Y027979D01*
X037553Y028148D01*
X037240Y028460D01*
X037071Y028868D01*
X037071Y029309D01*
X037071Y029151D02*
X030927Y029151D01*
X030981Y028992D02*
X037071Y028992D01*
X037085Y028834D02*
X035133Y028834D01*
X035160Y028806D02*
X035224Y028653D01*
X035224Y028487D01*
X035160Y028333D01*
X035043Y028216D01*
X034889Y028152D01*
X034723Y028152D01*
X034570Y028216D01*
X034452Y028333D01*
X034389Y028487D01*
X034389Y028653D01*
X034452Y028806D01*
X034570Y028924D01*
X034723Y028987D01*
X034889Y028987D01*
X035043Y028924D01*
X035160Y028806D01*
X035214Y028675D02*
X037151Y028675D01*
X037217Y028516D02*
X035224Y028516D01*
X035170Y028358D02*
X037342Y028358D01*
X037501Y028199D02*
X035003Y028199D01*
X034610Y028199D02*
X033822Y028199D01*
X033862Y028216D02*
X033708Y028152D01*
X033542Y028152D01*
X033389Y028216D01*
X033271Y028333D01*
X033208Y028487D01*
X033208Y028653D01*
X033271Y028806D01*
X033389Y028924D01*
X033542Y028987D01*
X033708Y028987D01*
X033862Y028924D01*
X033979Y028806D01*
X034043Y028653D01*
X034043Y028487D01*
X033979Y028333D01*
X033862Y028216D01*
X033989Y028358D02*
X034442Y028358D01*
X034389Y028516D02*
X034043Y028516D01*
X034033Y028675D02*
X034398Y028675D01*
X034480Y028834D02*
X033952Y028834D01*
X033932Y029468D02*
X034499Y029468D01*
X034406Y029626D02*
X034025Y029626D01*
X034043Y029785D02*
X034389Y029785D01*
X034434Y029943D02*
X033997Y029943D01*
X033864Y030102D02*
X034567Y030102D01*
X035454Y030419D02*
X032978Y030419D01*
X032857Y030578D02*
X035574Y030578D01*
X035852Y030736D02*
X032579Y030736D01*
X032309Y030736D02*
X003976Y030736D01*
X003976Y030578D02*
X032031Y030578D01*
X031910Y030419D02*
X003976Y030419D01*
X003976Y030260D02*
X031846Y030260D01*
X031846Y030102D02*
X007635Y030102D01*
X007810Y030029D02*
X007402Y030198D01*
X006960Y030198D01*
X006553Y030029D01*
X006240Y029717D01*
X006071Y029309D01*
X003976Y029309D01*
X003976Y029151D02*
X006071Y029151D01*
X006071Y029309D02*
X006071Y028868D01*
X006240Y028460D01*
X006553Y028148D01*
X006960Y027979D01*
X007402Y027979D01*
X007810Y028148D01*
X008122Y028460D01*
X008291Y028868D01*
X008291Y029309D01*
X014761Y029309D01*
X014768Y029151D02*
X013327Y029151D01*
X013381Y028992D02*
X014859Y028992D01*
X015229Y028834D02*
X013433Y028834D01*
X013592Y028675D02*
X015388Y028675D01*
X015546Y028516D02*
X013750Y028516D01*
X013909Y028358D02*
X015705Y028358D01*
X015863Y028199D02*
X014067Y028199D01*
X014226Y028041D02*
X022607Y028041D01*
X022955Y028041D02*
X025771Y028041D01*
X025771Y027882D02*
X020996Y027882D01*
X021086Y027724D02*
X025771Y027724D01*
X025771Y027565D02*
X021091Y027565D01*
X021009Y027407D02*
X025771Y027407D01*
X026191Y027407D02*
X026911Y027407D01*
X026936Y027248D02*
X026191Y027248D01*
X026191Y027090D02*
X027051Y027090D01*
X027422Y026931D02*
X026191Y026931D01*
X026191Y026773D02*
X027580Y026773D01*
X027739Y026614D02*
X026191Y026614D01*
X026191Y026455D02*
X027897Y026455D01*
X028056Y026297D02*
X026191Y026297D01*
X026191Y026138D02*
X028214Y026138D01*
X028373Y025980D02*
X026191Y025980D01*
X026191Y025821D02*
X028532Y025821D01*
X028690Y025663D02*
X026191Y025663D01*
X026191Y025504D02*
X028849Y025504D01*
X029007Y025346D02*
X026191Y025346D01*
X026191Y025187D02*
X029166Y025187D01*
X029324Y025029D02*
X026191Y025029D01*
X025745Y024236D02*
X025683Y024236D01*
X024706Y022967D02*
X024699Y022967D01*
X023027Y022016D02*
X020558Y022016D01*
X020676Y022175D02*
X022868Y022175D01*
X022709Y022333D02*
X020701Y022333D01*
X020655Y022492D02*
X022551Y022492D01*
X022392Y022650D02*
X020456Y022650D01*
X020007Y022175D02*
X019621Y022175D01*
X019766Y021858D02*
X023185Y021858D01*
X023344Y021699D02*
X019861Y021699D01*
X019861Y021541D02*
X023502Y021541D01*
X020651Y023443D02*
X020024Y023443D01*
X019865Y023602D02*
X020641Y023602D01*
X020483Y023760D02*
X019861Y023760D01*
X019705Y023919D02*
X020324Y023919D01*
X019796Y024077D02*
X018169Y024077D01*
X018011Y024236D02*
X018680Y024236D01*
X018521Y024394D02*
X017511Y024394D01*
X017456Y024553D02*
X018501Y024553D01*
X018501Y024711D02*
X013861Y024711D01*
X013861Y024762D02*
X013615Y025008D01*
X012747Y025008D01*
X012501Y024762D01*
X012501Y024415D01*
X012747Y024169D01*
X013615Y024169D01*
X013861Y024415D01*
X013861Y024762D01*
X013754Y024870D02*
X018609Y024870D01*
X018729Y025187D02*
X013634Y025187D01*
X013615Y025169D02*
X012747Y025169D01*
X012501Y025415D01*
X012501Y025762D01*
X012747Y026008D01*
X013615Y026008D01*
X013861Y025762D01*
X013861Y025415D01*
X013615Y025169D01*
X013792Y025346D02*
X018570Y025346D01*
X018501Y025504D02*
X013861Y025504D01*
X013861Y025663D02*
X016433Y025663D01*
X016287Y025821D02*
X013802Y025821D01*
X013644Y025980D02*
X016251Y025980D01*
X016288Y026138D02*
X003976Y026138D01*
X003976Y025980D02*
X005219Y025980D01*
X005247Y026008D02*
X006115Y026008D01*
X006361Y025762D01*
X006361Y025415D01*
X006115Y025169D01*
X005247Y025169D01*
X005001Y025415D01*
X005001Y025762D01*
X005247Y026008D01*
X005060Y025821D02*
X003976Y025821D01*
X003976Y025663D02*
X005001Y025663D01*
X005001Y025504D02*
X003976Y025504D01*
X003976Y025346D02*
X005070Y025346D01*
X005229Y025187D02*
X003976Y025187D01*
X003976Y025029D02*
X019564Y025029D01*
X018501Y025663D02*
X016790Y025663D01*
X016783Y026297D02*
X019886Y026297D01*
X019569Y026455D02*
X003976Y026455D01*
X003976Y026297D02*
X016439Y026297D01*
X016847Y024553D02*
X013861Y024553D01*
X013841Y024394D02*
X016791Y024394D01*
X016808Y024236D02*
X013683Y024236D01*
X013615Y024008D02*
X013861Y023762D01*
X013861Y023415D01*
X013615Y023169D01*
X012747Y023169D01*
X012501Y023415D01*
X012501Y023762D01*
X012747Y024008D01*
X013615Y024008D01*
X013705Y023919D02*
X017284Y023919D01*
X016913Y024077D02*
X003976Y024077D01*
X003976Y023919D02*
X005158Y023919D01*
X005247Y024008D02*
X006115Y024008D01*
X006361Y023762D01*
X006361Y023415D01*
X006115Y023169D01*
X005247Y023169D01*
X005001Y023415D01*
X005001Y023762D01*
X005247Y024008D01*
X005247Y024169D02*
X005001Y024415D01*
X005001Y024762D01*
X005247Y025008D01*
X006115Y025008D01*
X006361Y024762D01*
X006361Y024415D01*
X006115Y024169D01*
X005247Y024169D01*
X005180Y024236D02*
X003976Y024236D01*
X003976Y024394D02*
X005021Y024394D01*
X005001Y024553D02*
X003976Y024553D01*
X003976Y024711D02*
X005001Y024711D01*
X005109Y024870D02*
X003976Y024870D01*
X003976Y023760D02*
X005001Y023760D01*
X005001Y023602D02*
X003976Y023602D01*
X003976Y023443D02*
X005001Y023443D01*
X005131Y023285D02*
X003976Y023285D01*
X003976Y023126D02*
X018527Y023126D01*
X018685Y022967D02*
X013656Y022967D01*
X013815Y022809D02*
X018548Y022809D01*
X018582Y022333D02*
X013780Y022333D01*
X013621Y022175D02*
X018741Y022175D01*
X018596Y021858D02*
X013766Y021858D01*
X013861Y021762D02*
X013615Y022008D01*
X012747Y022008D01*
X012501Y021762D01*
X012501Y021415D01*
X012747Y021169D01*
X013615Y021169D01*
X013861Y021415D01*
X013861Y021762D01*
X013861Y021699D02*
X018501Y021699D01*
X018501Y021541D02*
X013861Y021541D01*
X013829Y021382D02*
X017078Y021382D01*
X016919Y021224D02*
X013670Y021224D01*
X013615Y021008D02*
X013861Y020762D01*
X013861Y020415D01*
X013615Y020169D01*
X012938Y020169D01*
X012778Y020008D01*
X013615Y020008D01*
X013861Y019762D01*
X013861Y019415D01*
X013615Y019169D01*
X012747Y019169D01*
X012501Y019415D01*
X012501Y019732D01*
X011401Y018631D01*
X011401Y018497D01*
X011346Y018365D01*
X011245Y018263D01*
X011113Y018209D01*
X010970Y018209D01*
X010837Y018263D01*
X010736Y018365D01*
X010681Y018497D01*
X010681Y018640D01*
X010736Y018772D01*
X010837Y018874D01*
X010970Y018928D01*
X011104Y018928D01*
X012546Y020370D01*
X012501Y020415D01*
X012501Y020762D01*
X012747Y021008D01*
X013615Y021008D01*
X013717Y020906D02*
X016602Y020906D01*
X016444Y020748D02*
X013861Y020748D01*
X013861Y020589D02*
X016285Y020589D01*
X016127Y020431D02*
X013861Y020431D01*
X013719Y020272D02*
X015968Y020272D01*
X015809Y020114D02*
X012883Y020114D01*
X012448Y020272D02*
X006219Y020272D01*
X006115Y020169D02*
X006361Y020415D01*
X006361Y020762D01*
X006115Y021008D01*
X005247Y021008D01*
X005001Y020762D01*
X005001Y020415D01*
X005247Y020169D01*
X006115Y020169D01*
X006115Y020008D02*
X006361Y019762D01*
X006361Y019415D01*
X006115Y019169D01*
X005247Y019169D01*
X005001Y019415D01*
X005001Y019762D01*
X005247Y020008D01*
X006115Y020008D01*
X006169Y019955D02*
X012131Y019955D01*
X011972Y019797D02*
X006327Y019797D01*
X006361Y019638D02*
X011814Y019638D01*
X011655Y019480D02*
X006361Y019480D01*
X006268Y019321D02*
X011497Y019321D01*
X011338Y019162D02*
X003976Y019162D01*
X003976Y019004D02*
X005243Y019004D01*
X005247Y019008D02*
X006115Y019008D01*
X006361Y018762D01*
X006361Y018415D01*
X006115Y018169D01*
X005247Y018169D01*
X005001Y018415D01*
X005001Y018762D01*
X005247Y019008D01*
X005084Y018845D02*
X003976Y018845D01*
X003976Y018687D02*
X005001Y018687D01*
X005001Y018528D02*
X003976Y018528D01*
X003976Y018370D02*
X005046Y018370D01*
X005205Y018211D02*
X003976Y018211D01*
X003976Y018053D02*
X013748Y018053D01*
X013615Y018169D02*
X012747Y018169D01*
X012501Y018415D01*
X012501Y018762D01*
X012747Y019008D01*
X013615Y019008D01*
X013861Y018762D01*
X013861Y018415D01*
X013615Y018169D01*
X013658Y018211D02*
X013907Y018211D01*
X013816Y018370D02*
X014066Y018370D01*
X014224Y018528D02*
X013861Y018528D01*
X013861Y018687D02*
X014383Y018687D01*
X014541Y018845D02*
X013778Y018845D01*
X013620Y019004D02*
X014700Y019004D01*
X014858Y019162D02*
X011932Y019162D01*
X011774Y019004D02*
X012743Y019004D01*
X012584Y018845D02*
X011615Y018845D01*
X011457Y018687D02*
X012501Y018687D01*
X012501Y018528D02*
X011401Y018528D01*
X011349Y018370D02*
X012546Y018370D01*
X012705Y018211D02*
X011119Y018211D01*
X010963Y018211D02*
X006158Y018211D01*
X006115Y018008D02*
X006361Y017762D01*
X006361Y017415D01*
X006115Y017169D01*
X005247Y017169D01*
X005001Y017415D01*
X005001Y017762D01*
X005247Y018008D01*
X006115Y018008D01*
X006230Y017894D02*
X012633Y017894D01*
X012501Y017736D02*
X006361Y017736D01*
X006361Y017577D02*
X012501Y017577D01*
X012501Y017418D02*
X006361Y017418D01*
X006207Y017260D02*
X012656Y017260D01*
X012747Y017008D02*
X013615Y017008D01*
X013825Y016798D01*
X014352Y016798D01*
X014447Y016894D01*
X014580Y016948D01*
X014723Y016948D01*
X014855Y016894D01*
X014956Y016792D01*
X015011Y016660D01*
X015011Y016517D01*
X014956Y016385D01*
X014855Y016283D01*
X014723Y016229D01*
X014580Y016229D01*
X014447Y016283D01*
X014352Y016379D01*
X013825Y016379D01*
X013615Y016169D01*
X012747Y016169D01*
X012501Y016415D01*
X012501Y016762D01*
X012747Y017008D01*
X012682Y016943D02*
X006181Y016943D01*
X006115Y017008D02*
X006361Y016762D01*
X006361Y016415D01*
X006115Y016169D01*
X005247Y016169D01*
X005001Y016415D01*
X005001Y016762D01*
X005247Y017008D01*
X006115Y017008D01*
X006339Y016784D02*
X012523Y016784D01*
X012501Y016626D02*
X006361Y016626D01*
X006361Y016467D02*
X012501Y016467D01*
X012607Y016309D02*
X006255Y016309D01*
X006132Y015992D02*
X012730Y015992D01*
X012572Y015833D02*
X006291Y015833D01*
X006361Y015674D02*
X012501Y015674D01*
X012501Y015516D02*
X006361Y015516D01*
X006304Y015357D02*
X012558Y015357D01*
X012717Y015199D02*
X006146Y015199D01*
X006091Y015040D02*
X012771Y015040D01*
X012621Y014882D02*
X006242Y014882D01*
X006361Y014723D02*
X012501Y014723D01*
X012501Y014565D02*
X006361Y014565D01*
X006353Y014406D02*
X012510Y014406D01*
X012668Y014248D02*
X006194Y014248D01*
X006091Y014089D02*
X012771Y014089D01*
X013591Y014089D02*
X018771Y014089D01*
X018668Y014248D02*
X013694Y014248D01*
X013853Y014406D02*
X018510Y014406D01*
X018501Y014565D02*
X013861Y014565D01*
X013861Y014723D02*
X018501Y014723D01*
X018621Y014882D02*
X013742Y014882D01*
X013591Y015040D02*
X018771Y015040D01*
X018717Y015199D02*
X013646Y015199D01*
X013804Y015357D02*
X018558Y015357D01*
X018501Y015516D02*
X013861Y015516D01*
X013861Y015674D02*
X018501Y015674D01*
X018572Y015833D02*
X013791Y015833D01*
X013632Y015992D02*
X018661Y015992D01*
X018503Y016150D02*
X003976Y016150D01*
X003976Y015992D02*
X005230Y015992D01*
X005072Y015833D02*
X003976Y015833D01*
X003976Y015674D02*
X005001Y015674D01*
X005001Y015516D02*
X003976Y015516D01*
X003976Y015357D02*
X005058Y015357D01*
X005217Y015199D02*
X003976Y015199D01*
X003976Y015040D02*
X005271Y015040D01*
X005121Y014882D02*
X003976Y014882D01*
X003976Y014723D02*
X005001Y014723D01*
X005001Y014565D02*
X003976Y014565D01*
X003976Y014406D02*
X005010Y014406D01*
X005168Y014248D02*
X003976Y014248D01*
X003976Y014089D02*
X005271Y014089D01*
X005169Y013931D02*
X003976Y013931D01*
X003976Y013772D02*
X005011Y013772D01*
X005001Y013613D02*
X003976Y013613D01*
X003976Y013455D02*
X005001Y013455D01*
X005119Y013296D02*
X003976Y013296D01*
X003976Y013138D02*
X008146Y013138D01*
X008066Y012979D02*
X007870Y012979D01*
X008029Y012821D02*
X008066Y012821D01*
X008091Y011906D02*
X008091Y011373D01*
X010146Y011373D01*
X010146Y011851D01*
X010066Y011931D01*
X010066Y012996D01*
X010248Y013179D01*
X009892Y013179D01*
X010066Y013005D01*
X010066Y012494D01*
X009586Y012494D01*
X009586Y012433D01*
X009526Y012433D01*
X009526Y011624D01*
X009345Y011624D01*
X009046Y011922D01*
X009046Y012433D01*
X009526Y012433D01*
X009526Y012494D01*
X009046Y012494D01*
X009046Y013005D01*
X009220Y013179D01*
X008966Y013179D01*
X008966Y013076D01*
X009046Y012996D01*
X009046Y011931D01*
X008759Y011644D01*
X008353Y011644D01*
X008091Y011906D01*
X008091Y011869D02*
X008127Y011869D01*
X008091Y011711D02*
X008286Y011711D01*
X008091Y011552D02*
X010146Y011552D01*
X010146Y011394D02*
X008091Y011394D01*
X008827Y011711D02*
X009258Y011711D01*
X009099Y011869D02*
X008985Y011869D01*
X009046Y012028D02*
X009046Y012028D01*
X009046Y012187D02*
X009046Y012187D01*
X009046Y012345D02*
X009046Y012345D01*
X009046Y012504D02*
X009046Y012504D01*
X009046Y012662D02*
X009046Y012662D01*
X009046Y012821D02*
X009046Y012821D01*
X009046Y012979D02*
X009046Y012979D01*
X008966Y013138D02*
X009179Y013138D01*
X009933Y013138D02*
X010208Y013138D01*
X010066Y012979D02*
X010066Y012979D01*
X010066Y012821D02*
X010066Y012821D01*
X010066Y012662D02*
X010066Y012662D01*
X010066Y012504D02*
X010066Y012504D01*
X010066Y012433D02*
X010066Y011922D01*
X009767Y011624D01*
X009586Y011624D01*
X009586Y012433D01*
X010066Y012433D01*
X010066Y012345D02*
X010066Y012345D01*
X010066Y012187D02*
X010066Y012187D01*
X010066Y012028D02*
X010066Y012028D01*
X010013Y011869D02*
X010127Y011869D01*
X010146Y011711D02*
X009855Y011711D01*
X009586Y011711D02*
X009526Y011711D01*
X009526Y011869D02*
X009586Y011869D01*
X009586Y012028D02*
X009526Y012028D01*
X009526Y012187D02*
X009586Y012187D01*
X009586Y012345D02*
X009526Y012345D01*
X010985Y011869D02*
X012608Y011869D01*
X012501Y011711D02*
X010966Y011711D01*
X010966Y011552D02*
X012501Y011552D01*
X012522Y011394D02*
X010966Y011394D01*
X010966Y011235D02*
X012681Y011235D01*
X012771Y011077D02*
X010966Y011077D01*
X010966Y010918D02*
X012657Y010918D01*
X012501Y010760D02*
X010932Y010760D01*
X010774Y010601D02*
X012501Y010601D01*
X012501Y010443D02*
X006361Y010443D01*
X006361Y010601D02*
X007464Y010601D01*
X007305Y010760D02*
X006361Y010760D01*
X006205Y010918D02*
X007271Y010918D01*
X007271Y011077D02*
X006091Y011077D01*
X006182Y011235D02*
X007271Y011235D01*
X007271Y011394D02*
X006341Y011394D01*
X006361Y011552D02*
X007271Y011552D01*
X007271Y011711D02*
X006361Y011711D01*
X006254Y011869D02*
X007271Y011869D01*
X007271Y012028D02*
X006091Y012028D01*
X005271Y012028D02*
X003976Y012028D01*
X003976Y012187D02*
X005229Y012187D01*
X005071Y012345D02*
X003976Y012345D01*
X003976Y012504D02*
X005001Y012504D01*
X005001Y012662D02*
X003976Y012662D01*
X003976Y012821D02*
X005060Y012821D01*
X005218Y012979D02*
X003976Y012979D01*
X003976Y011869D02*
X005108Y011869D01*
X005001Y011711D02*
X003976Y011711D01*
X003976Y011552D02*
X005001Y011552D01*
X005022Y011394D02*
X003976Y011394D01*
X003976Y011235D02*
X005181Y011235D01*
X005271Y011077D02*
X003976Y011077D01*
X003976Y010918D02*
X005157Y010918D01*
X005001Y010760D02*
X003976Y010760D01*
X003976Y010601D02*
X005001Y010601D01*
X005001Y010443D02*
X003976Y010443D01*
X003976Y010284D02*
X005132Y010284D01*
X005019Y009808D02*
X003976Y009808D01*
X003976Y009650D02*
X004981Y009650D01*
X004981Y009491D02*
X003976Y009491D01*
X003976Y009333D02*
X005055Y009333D01*
X005213Y009174D02*
X003976Y009174D01*
X003976Y009016D02*
X005226Y009016D01*
X005068Y008857D02*
X003976Y008857D01*
X003976Y008699D02*
X004981Y008699D01*
X004981Y008540D02*
X003976Y008540D01*
X003976Y008381D02*
X005006Y008381D01*
X005165Y008223D02*
X003976Y008223D01*
X003976Y008064D02*
X021489Y008064D01*
X021471Y008223D02*
X019698Y008223D01*
X019623Y008149D02*
X019181Y008149D01*
X018739Y008149D01*
X018481Y008406D01*
X018481Y008588D01*
X019181Y008588D01*
X019181Y008149D01*
X019181Y008588D01*
X019181Y008588D01*
X019181Y008589D01*
X019181Y008589D01*
X019181Y009028D01*
X018739Y009028D01*
X018481Y008771D01*
X018481Y008589D01*
X019181Y008589D01*
X019181Y009028D01*
X019623Y009028D01*
X019881Y008771D01*
X019881Y008589D01*
X019182Y008589D01*
X019182Y008588D01*
X019881Y008588D01*
X019881Y008406D01*
X019623Y008149D01*
X019623Y008028D02*
X019881Y007771D01*
X019881Y007589D01*
X022124Y007589D01*
X021965Y007747D02*
X019881Y007747D01*
X019881Y007589D02*
X019182Y007589D01*
X019182Y007588D01*
X019881Y007588D01*
X019881Y007406D01*
X019623Y007149D01*
X019181Y007149D01*
X018739Y007149D01*
X018481Y007406D01*
X018481Y007588D01*
X019181Y007588D01*
X019181Y007149D01*
X019181Y007588D01*
X019181Y007588D01*
X019181Y007589D01*
X019181Y007589D01*
X019181Y008028D01*
X018739Y008028D01*
X018481Y007771D01*
X018481Y007589D01*
X013881Y007589D01*
X013182Y007589D01*
X013182Y007588D01*
X013881Y007588D01*
X013881Y007406D01*
X013623Y007149D01*
X013181Y007149D01*
X012739Y007149D01*
X012481Y007406D01*
X012481Y007588D01*
X013181Y007588D01*
X013181Y007149D01*
X013181Y007588D01*
X013181Y007588D01*
X013181Y007589D01*
X013181Y007589D01*
X013181Y008028D01*
X012739Y008028D01*
X012481Y007771D01*
X012481Y007589D01*
X010034Y007589D01*
X010288Y007430D02*
X012481Y007430D01*
X012481Y007589D02*
X013181Y007589D01*
X013181Y008028D01*
X013623Y008028D01*
X013881Y007771D01*
X013881Y007589D01*
X013881Y007747D02*
X018481Y007747D01*
X018481Y007589D02*
X019181Y007589D01*
X019181Y008028D01*
X019623Y008028D01*
X019746Y007906D02*
X021595Y007906D01*
X022283Y007430D02*
X019881Y007430D01*
X019747Y007272D02*
X022441Y007272D01*
X022600Y007113D02*
X012334Y007113D01*
X012381Y006955D02*
X012665Y006955D01*
X012507Y006796D02*
X012451Y006796D01*
X012616Y007272D02*
X012133Y007272D01*
X011909Y007272D02*
X010446Y007272D01*
X010552Y007113D02*
X011708Y007113D01*
X011661Y006955D02*
X010617Y006955D01*
X010683Y006796D02*
X011686Y006796D01*
X011803Y006638D02*
X010686Y006638D01*
X010686Y006479D02*
X011895Y006479D01*
X011841Y006320D02*
X010679Y006320D01*
X010613Y006162D02*
X011860Y006162D01*
X011967Y006003D02*
X010547Y006003D01*
X010436Y005845D02*
X011991Y005845D01*
X013181Y006638D02*
X013181Y006638D01*
X013181Y006796D02*
X013181Y006796D01*
X013181Y006955D02*
X013181Y006955D01*
X013181Y007272D02*
X013181Y007272D01*
X013181Y007430D02*
X013181Y007430D01*
X013181Y007747D02*
X013181Y007747D01*
X013181Y007906D02*
X013181Y007906D01*
X013181Y008149D02*
X013623Y008149D01*
X013881Y008406D01*
X013881Y008588D01*
X013182Y008588D01*
X013182Y008589D01*
X013881Y008589D01*
X013881Y008771D01*
X013623Y009028D01*
X013181Y009028D01*
X013181Y008589D01*
X013181Y008589D01*
X012481Y008589D01*
X012481Y008771D01*
X012739Y009028D01*
X013181Y009028D01*
X013181Y008589D01*
X013181Y008588D01*
X013181Y008149D01*
X012739Y008149D01*
X012481Y008406D01*
X012481Y008588D01*
X013181Y008588D01*
X013181Y008588D01*
X013181Y008149D01*
X013181Y008223D02*
X013181Y008223D01*
X013181Y008381D02*
X013181Y008381D01*
X013181Y008540D02*
X013181Y008540D01*
X013181Y008699D02*
X013181Y008699D01*
X013181Y008857D02*
X013181Y008857D01*
X013181Y009016D02*
X013181Y009016D01*
X013181Y009149D02*
X013623Y009149D01*
X013881Y009406D01*
X013881Y009588D01*
X013182Y009588D01*
X013182Y009589D01*
X013881Y009589D01*
X013881Y009771D01*
X013623Y010028D01*
X013181Y010028D01*
X013181Y009589D01*
X013181Y009589D01*
X012481Y009589D01*
X012481Y009771D01*
X012739Y010028D01*
X013181Y010028D01*
X013181Y009589D01*
X013181Y009588D01*
X013181Y009149D01*
X012739Y009149D01*
X012481Y009406D01*
X012481Y009588D01*
X013181Y009588D01*
X013181Y009588D01*
X013181Y009149D01*
X013181Y009174D02*
X013181Y009174D01*
X013181Y009333D02*
X013181Y009333D01*
X013181Y009491D02*
X013181Y009491D01*
X013181Y009650D02*
X013181Y009650D01*
X013181Y009808D02*
X013181Y009808D01*
X013181Y009967D02*
X013181Y009967D01*
X012677Y009967D02*
X006185Y009967D01*
X006344Y009808D02*
X012519Y009808D01*
X012481Y009650D02*
X006381Y009650D01*
X006381Y009491D02*
X012481Y009491D01*
X012555Y009333D02*
X006308Y009333D01*
X006149Y009174D02*
X012713Y009174D01*
X012726Y009016D02*
X006136Y009016D01*
X006295Y008857D02*
X012568Y008857D01*
X012481Y008699D02*
X006381Y008699D01*
X006381Y008540D02*
X012481Y008540D01*
X012506Y008381D02*
X006356Y008381D01*
X006198Y008223D02*
X012665Y008223D01*
X012616Y007906D02*
X006246Y007906D01*
X006381Y007747D02*
X012481Y007747D01*
X013746Y007906D02*
X018616Y007906D01*
X018665Y008223D02*
X013698Y008223D01*
X013856Y008381D02*
X018506Y008381D01*
X018481Y008540D02*
X013881Y008540D01*
X013881Y008699D02*
X018481Y008699D01*
X018568Y008857D02*
X013795Y008857D01*
X013636Y009016D02*
X018726Y009016D01*
X018713Y009174D02*
X013649Y009174D01*
X013808Y009333D02*
X018555Y009333D01*
X018481Y009491D02*
X013881Y009491D01*
X013881Y009650D02*
X018481Y009650D01*
X018519Y009808D02*
X013844Y009808D01*
X013685Y009967D02*
X018677Y009967D01*
X018632Y010284D02*
X013731Y010284D01*
X013861Y010443D02*
X018501Y010443D01*
X018501Y010601D02*
X013861Y010601D01*
X013861Y010760D02*
X018501Y010760D01*
X018657Y010918D02*
X013705Y010918D01*
X013591Y011077D02*
X018771Y011077D01*
X018681Y011235D02*
X013682Y011235D01*
X013841Y011394D02*
X018522Y011394D01*
X018501Y011552D02*
X013861Y011552D01*
X013861Y011711D02*
X018501Y011711D01*
X018608Y011869D02*
X013754Y011869D01*
X013591Y012028D02*
X018771Y012028D01*
X019181Y009967D02*
X019181Y009967D01*
X019181Y009808D02*
X019181Y009808D01*
X019181Y009650D02*
X019181Y009650D01*
X019181Y009491D02*
X019181Y009491D01*
X019181Y009333D02*
X019181Y009333D01*
X019181Y009174D02*
X019181Y009174D01*
X019181Y009016D02*
X019181Y009016D01*
X019181Y008857D02*
X019181Y008857D01*
X019181Y008699D02*
X019181Y008699D01*
X019181Y008540D02*
X019181Y008540D01*
X019181Y008381D02*
X019181Y008381D01*
X019181Y008223D02*
X019181Y008223D01*
X019181Y007906D02*
X019181Y007906D01*
X019181Y007747D02*
X019181Y007747D01*
X019181Y007430D02*
X019181Y007430D01*
X019181Y007272D02*
X019181Y007272D01*
X019181Y007028D02*
X019623Y007028D01*
X019881Y006771D01*
X019881Y006589D01*
X019182Y006589D01*
X019182Y006588D01*
X019881Y006588D01*
X019881Y006406D01*
X019623Y006149D01*
X019181Y006149D01*
X018739Y006149D01*
X018481Y006406D01*
X018481Y006588D01*
X019181Y006588D01*
X019181Y006149D01*
X019181Y006588D01*
X019181Y006588D01*
X019181Y006589D01*
X019181Y006589D01*
X019181Y007028D01*
X018739Y007028D01*
X018481Y006771D01*
X018481Y006589D01*
X019181Y006589D01*
X019181Y007028D01*
X019181Y006955D02*
X019181Y006955D01*
X019181Y006796D02*
X019181Y006796D01*
X019181Y006638D02*
X019181Y006638D01*
X019181Y006479D02*
X019181Y006479D01*
X019181Y006320D02*
X019181Y006320D01*
X019181Y006162D02*
X019181Y006162D01*
X018726Y006162D02*
X013637Y006162D01*
X013795Y006320D02*
X018567Y006320D01*
X018481Y006479D02*
X013881Y006479D01*
X013881Y006638D02*
X018481Y006638D01*
X018507Y006796D02*
X013856Y006796D01*
X013697Y006955D02*
X018665Y006955D01*
X018616Y007272D02*
X013747Y007272D01*
X013881Y007430D02*
X018481Y007430D01*
X019697Y006955D02*
X022758Y006955D01*
X022917Y006796D02*
X019856Y006796D01*
X019881Y006638D02*
X023075Y006638D01*
X023234Y006479D02*
X019881Y006479D01*
X019795Y006320D02*
X023392Y006320D01*
X023551Y006162D02*
X019637Y006162D01*
X019856Y008381D02*
X021526Y008381D01*
X021429Y008699D02*
X019881Y008699D01*
X019881Y008540D02*
X021883Y008540D01*
X021195Y008857D02*
X019795Y008857D01*
X019636Y009016D02*
X021141Y009016D01*
X021160Y009174D02*
X019649Y009174D01*
X019808Y009333D02*
X021266Y009333D01*
X025591Y014089D02*
X030771Y014089D01*
X030668Y014248D02*
X025694Y014248D01*
X025853Y014406D02*
X030510Y014406D01*
X030501Y014565D02*
X025861Y014565D01*
X025861Y014723D02*
X030501Y014723D01*
X030621Y014882D02*
X025742Y014882D01*
X025591Y015040D02*
X030771Y015040D01*
X030717Y015199D02*
X025646Y015199D01*
X025804Y015357D02*
X030558Y015357D01*
X030501Y015516D02*
X025861Y015516D01*
X025861Y015674D02*
X030501Y015674D01*
X030572Y015833D02*
X025791Y015833D01*
X025632Y015992D02*
X030730Y015992D01*
X030607Y016309D02*
X025755Y016309D01*
X025707Y017260D02*
X029547Y017260D01*
X029894Y017418D02*
X025861Y017418D01*
X025867Y017577D02*
X030053Y017577D01*
X030330Y017260D02*
X030656Y017260D01*
X030501Y017418D02*
X030488Y017418D01*
X031632Y015992D02*
X037087Y015992D01*
X036929Y015833D02*
X031791Y015833D01*
X031861Y015674D02*
X036866Y015674D01*
X036866Y015516D02*
X031861Y015516D01*
X031804Y015357D02*
X036896Y015357D01*
X036896Y015199D02*
X031646Y015199D01*
X031591Y015040D02*
X036896Y015040D01*
X036896Y014882D02*
X031742Y014882D01*
X031861Y014723D02*
X036866Y014723D01*
X036866Y014565D02*
X031861Y014565D01*
X031853Y014406D02*
X036866Y014406D01*
X036896Y014376D02*
X036896Y013998D01*
X035580Y013998D01*
X035330Y014248D01*
X035489Y014089D02*
X036896Y014089D01*
X038746Y015674D02*
X039491Y015674D01*
X039333Y015833D02*
X038684Y015833D01*
X038525Y015992D02*
X039251Y015992D01*
X038833Y016150D02*
X038490Y016150D01*
X038649Y016309D02*
X038674Y016309D01*
X039431Y016626D02*
X043386Y016626D01*
X042931Y018211D02*
X042931Y018211D01*
X042931Y018370D02*
X042931Y018370D01*
X043374Y018528D02*
X043386Y018528D01*
X039456Y016467D02*
X039449Y016467D01*
X039251Y017101D02*
X038945Y017101D01*
X038787Y017260D02*
X039251Y017260D01*
X039152Y018211D02*
X038551Y018211D01*
X038710Y018370D02*
X038993Y018370D01*
X038835Y018528D02*
X038746Y018528D01*
X036903Y018370D02*
X036634Y018370D01*
X033121Y019955D02*
X031669Y019955D01*
X031827Y019797D02*
X032962Y019797D01*
X032804Y019638D02*
X031861Y019638D01*
X031861Y019480D02*
X032645Y019480D01*
X032487Y019321D02*
X031768Y019321D01*
X024771Y015040D02*
X023766Y015040D01*
X023608Y015199D02*
X024717Y015199D01*
X024558Y015357D02*
X023449Y015357D01*
X023291Y015516D02*
X024501Y015516D01*
X024501Y015674D02*
X023132Y015674D01*
X022974Y015833D02*
X024572Y015833D01*
X024621Y014882D02*
X023925Y014882D01*
X024083Y014723D02*
X024501Y014723D01*
X024501Y014565D02*
X024242Y014565D01*
X023116Y016626D02*
X022181Y016626D01*
X022022Y016784D02*
X022975Y016784D01*
X022941Y016943D02*
X021864Y016943D01*
X021705Y017101D02*
X022979Y017101D01*
X023137Y017260D02*
X021547Y017260D01*
X021730Y017418D02*
X023484Y017418D01*
X023643Y017577D02*
X021841Y017577D01*
X021861Y017736D02*
X023801Y017736D01*
X023960Y017894D02*
X021994Y017894D01*
X022152Y018053D02*
X024118Y018053D01*
X024277Y018211D02*
X022311Y018211D01*
X022469Y018370D02*
X024436Y018370D01*
X024501Y018528D02*
X022628Y018528D01*
X022787Y018687D02*
X024501Y018687D01*
X024554Y017894D02*
X024633Y017894D01*
X024501Y017736D02*
X024395Y017736D01*
X024501Y017577D02*
X024237Y017577D01*
X024078Y017418D02*
X024501Y017418D01*
X024656Y017260D02*
X023920Y017260D01*
X018485Y020589D02*
X016879Y020589D01*
X016721Y020431D02*
X018327Y020431D01*
X018168Y020272D02*
X016562Y020272D01*
X016403Y020114D02*
X017849Y020114D01*
X017841Y019955D02*
X016245Y019955D01*
X016086Y019797D02*
X017549Y019797D01*
X017398Y019638D02*
X015928Y019638D01*
X015769Y019480D02*
X017361Y019480D01*
X017397Y019321D02*
X015611Y019321D01*
X015452Y019162D02*
X017511Y019162D01*
X017511Y019004D02*
X015294Y019004D01*
X015135Y018845D02*
X017511Y018845D01*
X017511Y018687D02*
X014977Y018687D01*
X014818Y018528D02*
X017511Y018528D01*
X017511Y018370D02*
X014659Y018370D01*
X014501Y018211D02*
X017511Y018211D01*
X017511Y018053D02*
X014342Y018053D01*
X014184Y017894D02*
X017511Y017894D01*
X017511Y017736D02*
X014025Y017736D01*
X013867Y017577D02*
X017511Y017577D01*
X017511Y017418D02*
X013861Y017418D01*
X013707Y017260D02*
X017511Y017260D01*
X017551Y017101D02*
X003976Y017101D01*
X003976Y016943D02*
X005182Y016943D01*
X005023Y016784D02*
X003976Y016784D01*
X003976Y016626D02*
X005001Y016626D01*
X005001Y016467D02*
X003976Y016467D01*
X003976Y016309D02*
X005107Y016309D01*
X005156Y017260D02*
X003976Y017260D01*
X003976Y017418D02*
X005001Y017418D01*
X005001Y017577D02*
X003976Y017577D01*
X003976Y017736D02*
X005001Y017736D01*
X005133Y017894D02*
X003976Y017894D01*
X003976Y019321D02*
X005095Y019321D01*
X005001Y019480D02*
X003976Y019480D01*
X003976Y019638D02*
X005001Y019638D01*
X005035Y019797D02*
X003976Y019797D01*
X003976Y019955D02*
X005194Y019955D01*
X005144Y020272D02*
X003976Y020272D01*
X003976Y020114D02*
X012289Y020114D01*
X012501Y020431D02*
X006361Y020431D01*
X006361Y020589D02*
X012501Y020589D01*
X012501Y020748D02*
X006361Y020748D01*
X006217Y020906D02*
X012645Y020906D01*
X012692Y021224D02*
X006170Y021224D01*
X006115Y021169D02*
X005247Y021169D01*
X005001Y021415D01*
X005001Y021762D01*
X005247Y022008D01*
X006115Y022008D01*
X006361Y021762D01*
X006361Y021415D01*
X006115Y021169D01*
X006329Y021382D02*
X012534Y021382D01*
X012501Y021541D02*
X006361Y021541D01*
X006361Y021699D02*
X012501Y021699D01*
X012596Y021858D02*
X006266Y021858D01*
X006115Y022169D02*
X005247Y022169D01*
X005001Y022415D01*
X005001Y022762D01*
X005247Y023008D01*
X006115Y023008D01*
X006361Y022762D01*
X006361Y022415D01*
X006115Y022169D01*
X006121Y022175D02*
X012741Y022175D01*
X012582Y022333D02*
X006280Y022333D01*
X006361Y022492D02*
X012501Y022492D01*
X012501Y022650D02*
X006361Y022650D01*
X006315Y022809D02*
X012548Y022809D01*
X012706Y022967D02*
X006156Y022967D01*
X006231Y023285D02*
X012631Y023285D01*
X012501Y023443D02*
X006361Y023443D01*
X006361Y023602D02*
X012501Y023602D01*
X012501Y023760D02*
X006361Y023760D01*
X006205Y023919D02*
X012658Y023919D01*
X012680Y024236D02*
X006183Y024236D01*
X006341Y024394D02*
X012521Y024394D01*
X012501Y024553D02*
X006361Y024553D01*
X006361Y024711D02*
X012501Y024711D01*
X012609Y024870D02*
X006254Y024870D01*
X006134Y025187D02*
X012729Y025187D01*
X012570Y025346D02*
X006292Y025346D01*
X006361Y025504D02*
X012501Y025504D01*
X012501Y025663D02*
X006361Y025663D01*
X006302Y025821D02*
X012560Y025821D01*
X012719Y025980D02*
X006144Y025980D01*
X003976Y026614D02*
X019368Y026614D01*
X019321Y026773D02*
X003976Y026773D01*
X003976Y026931D02*
X012772Y026931D01*
X012613Y027090D02*
X003976Y027090D01*
X003976Y027248D02*
X012455Y027248D01*
X012296Y027407D02*
X003976Y027407D01*
X003976Y027565D02*
X012138Y027565D01*
X011979Y027724D02*
X003976Y027724D01*
X003976Y027882D02*
X011820Y027882D01*
X011662Y028041D02*
X007552Y028041D01*
X007862Y028199D02*
X011503Y028199D01*
X011345Y028358D02*
X008020Y028358D01*
X008146Y028516D02*
X011186Y028516D01*
X010816Y028675D02*
X008211Y028675D01*
X008277Y028834D02*
X010709Y028834D01*
X010691Y028992D02*
X008291Y028992D01*
X008291Y029151D02*
X010745Y029151D01*
X011357Y029151D02*
X012715Y029151D01*
X012661Y028992D02*
X011411Y028992D01*
X011463Y028834D02*
X012679Y028834D01*
X012786Y028675D02*
X011622Y028675D01*
X011780Y028516D02*
X013156Y028516D01*
X013315Y028358D02*
X011939Y028358D01*
X012097Y028199D02*
X013473Y028199D01*
X013632Y028041D02*
X012256Y028041D01*
X012414Y027882D02*
X013790Y027882D01*
X013949Y027724D02*
X012573Y027724D01*
X012731Y027565D02*
X014108Y027565D01*
X014384Y027882D02*
X020466Y027882D01*
X020454Y027407D02*
X012890Y027407D01*
X015506Y029151D02*
X015721Y029151D01*
X015721Y029309D02*
X015481Y029309D01*
X015401Y029468D02*
X015721Y029468D01*
X015769Y029626D02*
X008160Y029626D01*
X008122Y029717D02*
X008291Y029309D01*
X008225Y029468D02*
X014841Y029468D01*
X015665Y028992D02*
X015721Y028992D01*
X015927Y029785D02*
X008055Y029785D01*
X008122Y029717D02*
X007810Y030029D01*
X007896Y029943D02*
X031880Y029943D01*
X031958Y029785D02*
X024435Y029785D01*
X024594Y029626D02*
X032132Y029626D01*
X033299Y028834D02*
X030963Y028834D01*
X030857Y028675D02*
X033217Y028675D01*
X033208Y028516D02*
X026120Y028516D01*
X026191Y028358D02*
X033261Y028358D01*
X033428Y028199D02*
X026191Y028199D01*
X026191Y028041D02*
X028565Y028041D01*
X029118Y028041D02*
X037810Y028041D01*
X030386Y028675D02*
X024641Y028675D01*
X023721Y028834D02*
X023641Y028834D01*
X023641Y028992D02*
X023721Y028992D01*
X023721Y029151D02*
X023641Y029151D01*
X023641Y029309D02*
X023721Y029309D01*
X023721Y029468D02*
X023641Y029468D01*
X023594Y029626D02*
X023769Y029626D01*
X023927Y029785D02*
X023435Y029785D01*
X022927Y029785D02*
X022464Y029785D01*
X022622Y029626D02*
X022769Y029626D01*
X022721Y029468D02*
X022661Y029468D01*
X022661Y029309D02*
X022721Y029309D01*
X022721Y029151D02*
X022661Y029151D01*
X022661Y028992D02*
X022721Y028992D01*
X022721Y028834D02*
X022661Y028834D01*
X022201Y029151D02*
X022161Y029151D01*
X022161Y029109D02*
X022161Y029868D01*
X021982Y029868D01*
X021701Y029587D01*
X021701Y029109D01*
X022161Y029109D01*
X022161Y029309D02*
X022201Y029309D01*
X022201Y029468D02*
X022161Y029468D01*
X022161Y029626D02*
X022201Y029626D01*
X022201Y029785D02*
X022161Y029785D01*
X021899Y029785D02*
X021435Y029785D01*
X021594Y029626D02*
X021740Y029626D01*
X021701Y029468D02*
X021641Y029468D01*
X021641Y029309D02*
X021701Y029309D01*
X021701Y029151D02*
X021641Y029151D01*
X021641Y028992D02*
X021701Y028992D01*
X021701Y028834D02*
X021641Y028834D01*
X021641Y028675D02*
X021701Y028675D01*
X020721Y028675D02*
X019752Y028675D01*
X019641Y028834D02*
X020721Y028834D01*
X020721Y028992D02*
X019641Y028992D01*
X019641Y029151D02*
X020721Y029151D01*
X020721Y029309D02*
X019641Y029309D01*
X019641Y029468D02*
X020721Y029468D01*
X020769Y029626D02*
X019594Y029626D01*
X019435Y029785D02*
X020927Y029785D01*
X018927Y029785D02*
X018435Y029785D01*
X018594Y029626D02*
X018769Y029626D01*
X018721Y029468D02*
X018641Y029468D01*
X018641Y029309D02*
X018721Y029309D01*
X018721Y029151D02*
X018641Y029151D01*
X018641Y028992D02*
X018721Y028992D01*
X018721Y028834D02*
X018641Y028834D01*
X018888Y028358D02*
X018961Y028358D01*
X018729Y028199D02*
X019633Y028199D01*
X019475Y028358D02*
X019401Y028358D01*
X017721Y028675D02*
X017661Y028675D01*
X017661Y028834D02*
X017721Y028834D01*
X017721Y028992D02*
X017661Y028992D01*
X017661Y029151D02*
X017721Y029151D01*
X017721Y029309D02*
X017661Y029309D01*
X017661Y029468D02*
X017721Y029468D01*
X017769Y029626D02*
X017622Y029626D01*
X017464Y029785D02*
X017927Y029785D01*
X017201Y029785D02*
X017161Y029785D01*
X017161Y029868D02*
X017161Y029109D01*
X016701Y029109D01*
X016701Y029587D01*
X016982Y029868D01*
X017161Y029868D01*
X017161Y029626D02*
X017201Y029626D01*
X017201Y029468D02*
X017161Y029468D01*
X017161Y029309D02*
X017201Y029309D01*
X017201Y029151D02*
X017161Y029151D01*
X016701Y029151D02*
X016641Y029151D01*
X016641Y029309D02*
X016701Y029309D01*
X016701Y029468D02*
X016641Y029468D01*
X016594Y029626D02*
X016740Y029626D01*
X016899Y029785D02*
X016435Y029785D01*
X016641Y028992D02*
X016701Y028992D01*
X016701Y028834D02*
X016641Y028834D01*
X016641Y028675D02*
X016701Y028675D01*
X023105Y028199D02*
X023633Y028199D01*
X023475Y028358D02*
X023401Y028358D01*
X026191Y027565D02*
X026959Y027565D01*
X025771Y025980D02*
X025644Y025980D01*
X020124Y022016D02*
X003976Y022016D01*
X003976Y021858D02*
X005096Y021858D01*
X005001Y021699D02*
X003976Y021699D01*
X003976Y021541D02*
X005001Y021541D01*
X005034Y021382D02*
X003976Y021382D01*
X003976Y021224D02*
X005192Y021224D01*
X005145Y020906D02*
X003976Y020906D01*
X003976Y020748D02*
X005001Y020748D01*
X005001Y020589D02*
X003976Y020589D01*
X003976Y020431D02*
X005001Y020431D01*
X003976Y021065D02*
X016761Y021065D01*
X017038Y020748D02*
X018501Y020748D01*
X018645Y020906D02*
X017196Y020906D01*
X015651Y019955D02*
X013669Y019955D01*
X013827Y019797D02*
X015492Y019797D01*
X015334Y019638D02*
X013861Y019638D01*
X013861Y019480D02*
X015175Y019480D01*
X015017Y019321D02*
X013768Y019321D01*
X012595Y019321D02*
X012091Y019321D01*
X012249Y019480D02*
X012501Y019480D01*
X012501Y019638D02*
X012408Y019638D01*
X011180Y019004D02*
X006120Y019004D01*
X006278Y018845D02*
X010809Y018845D01*
X010701Y018687D02*
X006361Y018687D01*
X006361Y018528D02*
X010681Y018528D01*
X010734Y018370D02*
X006316Y018370D01*
X005241Y022175D02*
X003976Y022175D01*
X003976Y022333D02*
X005082Y022333D01*
X005001Y022492D02*
X003976Y022492D01*
X003976Y022650D02*
X005001Y022650D01*
X005048Y022809D02*
X003976Y022809D01*
X003976Y022967D02*
X005206Y022967D01*
X003976Y028041D02*
X006810Y028041D01*
X006501Y028199D02*
X003976Y028199D01*
X003976Y028358D02*
X006342Y028358D01*
X006217Y028516D02*
X003976Y028516D01*
X003976Y028675D02*
X006151Y028675D01*
X006085Y028834D02*
X003976Y028834D01*
X003976Y028992D02*
X006071Y028992D01*
X006137Y029468D02*
X003976Y029468D01*
X003976Y029626D02*
X006203Y029626D01*
X006308Y029785D02*
X003976Y029785D01*
X003976Y029943D02*
X006466Y029943D01*
X006728Y030102D02*
X003976Y030102D01*
X013731Y023285D02*
X018368Y023285D01*
X018210Y023443D02*
X013861Y023443D01*
X013861Y023602D02*
X018051Y023602D01*
X017893Y023760D02*
X013861Y023760D01*
X018328Y023919D02*
X018658Y023919D01*
X018501Y023760D02*
X018486Y023760D01*
X017710Y016943D02*
X014736Y016943D01*
X014566Y016943D02*
X013681Y016943D01*
X013755Y016309D02*
X014422Y016309D01*
X014881Y016309D02*
X018344Y016309D01*
X018186Y016467D02*
X014991Y016467D01*
X015011Y016626D02*
X018027Y016626D01*
X017868Y016784D02*
X014960Y016784D01*
X012771Y012028D02*
X011046Y012028D01*
X012632Y010284D02*
X006231Y010284D01*
X005116Y007906D02*
X003976Y007906D01*
X003976Y007430D02*
X004981Y007430D01*
X005116Y007272D02*
X003976Y007272D01*
X010921Y004101D02*
X012031Y004101D01*
X012041Y003942D02*
X010851Y003942D01*
X010804Y003784D02*
X012137Y003784D01*
X012103Y004259D02*
X011079Y004259D01*
X011238Y004418D02*
X012474Y004418D01*
X012632Y004576D02*
X011396Y004576D01*
X017629Y003467D02*
X017706Y003467D01*
X017701Y003308D02*
X017641Y003308D01*
X017641Y003150D02*
X017701Y003150D01*
X017701Y002991D02*
X017641Y002991D01*
X018661Y002991D02*
X018721Y002991D01*
X018721Y002832D02*
X018661Y002832D01*
X018661Y002674D02*
X018721Y002674D01*
X018721Y002515D02*
X018661Y002515D01*
X018553Y002357D02*
X018837Y002357D01*
X018721Y003150D02*
X018661Y003150D01*
X018661Y003308D02*
X018721Y003308D01*
X018734Y003467D02*
X018657Y003467D01*
X022629Y003467D02*
X022706Y003467D01*
X022701Y003308D02*
X022641Y003308D01*
X022641Y003150D02*
X022701Y003150D01*
X022701Y002991D02*
X022641Y002991D01*
X022641Y002832D02*
X022701Y002832D01*
X022701Y002674D02*
X022641Y002674D01*
X022641Y002515D02*
X022701Y002515D01*
X022809Y002357D02*
X022525Y002357D01*
X023395Y002198D02*
X032046Y002198D01*
X032112Y002357D02*
X024525Y002357D01*
X024641Y002473D02*
X024372Y002204D01*
X023991Y002204D01*
X023721Y002473D01*
X023721Y003454D01*
X023991Y003723D01*
X024372Y003723D01*
X024641Y003454D01*
X024641Y002473D01*
X024641Y002515D02*
X032262Y002515D01*
X033210Y001881D02*
X035584Y001881D01*
X035570Y002040D02*
X035146Y002040D01*
X035345Y002198D02*
X035590Y002198D01*
X035655Y002357D02*
X035405Y002357D01*
X035402Y002515D02*
X035806Y002515D01*
X035330Y002674D02*
X037152Y002674D01*
X037071Y002991D02*
X024641Y002991D01*
X024641Y003150D02*
X026351Y003150D01*
X026236Y003308D02*
X024641Y003308D01*
X024629Y003467D02*
X026211Y003467D01*
X026088Y003625D02*
X024470Y003625D01*
X023892Y003625D02*
X023498Y003625D01*
X023657Y003467D02*
X023734Y003467D01*
X023721Y003308D02*
X023661Y003308D01*
X023661Y003150D02*
X023721Y003150D01*
X023721Y002991D02*
X023661Y002991D01*
X023661Y002832D02*
X023721Y002832D01*
X023721Y002674D02*
X023661Y002674D01*
X023661Y002515D02*
X023721Y002515D01*
X023837Y002357D02*
X023553Y002357D01*
X026791Y003150D02*
X027061Y003150D01*
X027001Y003308D02*
X026907Y003308D01*
X026931Y003467D02*
X026956Y003467D01*
X027233Y003784D02*
X033406Y003784D01*
X033369Y003625D02*
X027604Y003625D01*
X027706Y003467D02*
X033391Y003467D01*
X033487Y003308D02*
X027721Y003308D01*
X027661Y003150D02*
X037071Y003150D01*
X037071Y003308D02*
X036731Y003308D01*
X036841Y003419D02*
X036841Y003419D01*
X036889Y003467D02*
X037136Y003467D01*
X037202Y003625D02*
X037048Y003625D01*
X037206Y003784D02*
X037307Y003784D01*
X037365Y003942D02*
X037465Y003942D01*
X037523Y004101D02*
X037725Y004101D01*
X037682Y004259D02*
X040206Y004259D01*
X040206Y004101D02*
X038638Y004101D01*
X038897Y003942D02*
X040206Y003942D01*
X040206Y003927D02*
X040612Y003521D01*
X042251Y003521D01*
X042656Y003927D01*
X042656Y004500D01*
X042251Y004906D01*
X040612Y004906D01*
X040206Y004500D01*
X040206Y003927D01*
X040349Y003784D02*
X039056Y003784D01*
X039160Y003625D02*
X040508Y003625D01*
X040547Y002991D02*
X039291Y002991D01*
X039291Y003150D02*
X043386Y003150D01*
X043386Y003308D02*
X039291Y003308D01*
X039226Y003467D02*
X043386Y003467D01*
X043386Y003625D02*
X042355Y003625D01*
X042513Y003784D02*
X043386Y003784D01*
X043386Y003942D02*
X042656Y003942D01*
X042656Y004101D02*
X043386Y004101D01*
X043386Y004259D02*
X042656Y004259D01*
X042656Y004418D02*
X043386Y004418D01*
X043386Y004576D02*
X042580Y004576D01*
X042422Y004735D02*
X043386Y004735D01*
X043386Y004894D02*
X042263Y004894D01*
X042407Y005528D02*
X043386Y005528D01*
X043386Y005686D02*
X042566Y005686D01*
X042656Y005845D02*
X043386Y005845D01*
X043386Y006003D02*
X042656Y006003D01*
X042656Y006162D02*
X043386Y006162D01*
X043386Y006320D02*
X042656Y006320D01*
X042528Y006479D02*
X043386Y006479D01*
X043386Y006638D02*
X042369Y006638D01*
X043386Y006796D02*
X038696Y006796D01*
X038746Y006638D02*
X040493Y006638D01*
X040335Y006479D02*
X038737Y006479D01*
X037952Y006320D02*
X037689Y006320D01*
X037766Y006479D02*
X037875Y006479D01*
X037866Y006638D02*
X037766Y006638D01*
X037749Y006796D02*
X037916Y006796D01*
X038050Y006955D02*
X037591Y006955D01*
X037640Y007272D02*
X038001Y007272D01*
X037866Y007430D02*
X037766Y007430D01*
X036973Y007272D02*
X035673Y007272D01*
X035716Y007430D02*
X036846Y007430D01*
X037021Y008223D02*
X035355Y008223D01*
X036863Y008381D02*
X031856Y008381D01*
X031881Y008540D02*
X036846Y008540D01*
X036846Y008699D02*
X031881Y008699D01*
X031795Y008857D02*
X036924Y008857D01*
X037083Y009016D02*
X031636Y009016D01*
X031649Y009174D02*
X037070Y009174D01*
X036911Y009333D02*
X031808Y009333D01*
X031731Y010284D02*
X033568Y010284D01*
X033526Y010443D02*
X031861Y010443D01*
X031861Y010601D02*
X033526Y010601D01*
X033526Y010760D02*
X031861Y010760D01*
X031705Y010918D02*
X033578Y010918D01*
X033644Y011077D02*
X031591Y011077D01*
X031682Y011235D02*
X033746Y011235D01*
X033905Y011394D02*
X031841Y011394D01*
X031591Y014089D02*
X033623Y014089D01*
X033782Y014248D02*
X031694Y014248D01*
X038709Y009808D02*
X043386Y009808D01*
X043386Y009650D02*
X038746Y009650D01*
X038746Y009491D02*
X043386Y009491D01*
X043386Y009333D02*
X038673Y009333D01*
X038514Y009174D02*
X043386Y009174D01*
X043386Y009016D02*
X038501Y009016D01*
X038660Y008857D02*
X043386Y008857D01*
X043386Y008699D02*
X038746Y008699D01*
X038746Y008540D02*
X043386Y008540D01*
X043386Y008381D02*
X038721Y008381D01*
X038563Y008223D02*
X043386Y008223D01*
X040455Y005528D02*
X038950Y005528D01*
X038792Y005369D02*
X043386Y005369D01*
X043386Y005211D02*
X038633Y005211D01*
X038475Y005052D02*
X043386Y005052D01*
X043386Y002991D02*
X042316Y002991D01*
X042474Y002832D02*
X043386Y002832D01*
X043386Y002674D02*
X042633Y002674D01*
X042656Y002515D02*
X043386Y002515D01*
X043386Y002357D02*
X042656Y002357D01*
X042656Y002198D02*
X043386Y002198D01*
X043386Y002040D02*
X042619Y002040D01*
X042461Y001881D02*
X043386Y001881D01*
X043386Y001723D02*
X042302Y001723D01*
X040388Y002832D02*
X039277Y002832D01*
X039211Y002674D02*
X040230Y002674D01*
X040206Y002515D02*
X039145Y002515D01*
X039019Y002357D02*
X040206Y002357D01*
X040206Y002198D02*
X038861Y002198D01*
X038550Y002040D02*
X040243Y002040D01*
X040206Y004418D02*
X037840Y004418D01*
X037999Y004576D02*
X040282Y004576D01*
X040441Y004735D02*
X038158Y004735D01*
X038316Y004894D02*
X040599Y004894D01*
X035791Y001564D02*
X033003Y001564D01*
X033144Y001723D02*
X035649Y001723D01*
X034829Y002040D02*
X034017Y002040D01*
X034185Y002198D02*
X034630Y002198D01*
X034570Y002357D02*
X034244Y002357D01*
X034244Y002513D02*
X034177Y002674D01*
X034126Y003308D02*
X034632Y003308D01*
X034521Y003467D02*
X034222Y003467D01*
X034244Y003625D02*
X034521Y003625D01*
X034547Y003784D02*
X034207Y003784D01*
X034090Y003942D02*
X034705Y003942D01*
X033757Y008223D02*
X031698Y008223D01*
M02*
