G75*
%MOIN*%
%OFA0B0*%
%FSLAX25Y25*%
%IPPOS*%
%LPD*%
%AMOC8*
5,1,8,0,0,1.08239X$1,22.5*
%
%ADD10C,0.05150*%
%ADD11R,0.16300X0.03900*%
%ADD12OC8,0.07400*%
%ADD13C,0.06000*%
%ADD14C,0.03962*%
%ADD15C,0.01200*%
%ADD16C,0.01600*%
%ADD17C,0.02000*%
%ADD18C,0.02400*%
D10*
X0617759Y0021372D03*
X0653562Y0195868D03*
X0653483Y0204506D03*
D11*
X0597990Y0205191D03*
X0597990Y0215191D03*
X0597990Y0225191D03*
X0569890Y0225191D03*
X0569890Y0215191D03*
X0569890Y0205191D03*
X0569890Y0195191D03*
X0569890Y0185191D03*
X0569890Y0175191D03*
X0569890Y0165191D03*
X0569890Y0155191D03*
X0569890Y0145191D03*
X0569890Y0135191D03*
X0569890Y0125191D03*
X0569890Y0115191D03*
X0569890Y0105191D03*
X0569890Y0095191D03*
X0569890Y0085191D03*
X0569890Y0075191D03*
X0569890Y0065191D03*
X0569890Y0055191D03*
X0569890Y0045191D03*
X0569890Y0035191D03*
X0597990Y0035191D03*
X0597990Y0045191D03*
X0597990Y0055191D03*
X0597990Y0065191D03*
X0597990Y0075191D03*
X0597990Y0085191D03*
X0597990Y0095191D03*
X0597990Y0105191D03*
X0597990Y0115191D03*
X0597990Y0125191D03*
X0597990Y0135191D03*
X0597990Y0145191D03*
X0597990Y0155191D03*
X0597990Y0165191D03*
X0597990Y0175191D03*
X0597990Y0185191D03*
X0597990Y0195191D03*
D12*
X0525554Y0108734D03*
X0515554Y0108734D03*
X0515554Y0098734D03*
X0525554Y0098734D03*
X0525554Y0088734D03*
X0515554Y0088734D03*
D13*
X0541026Y0188655D03*
X0541026Y0196529D03*
X0541026Y0204403D03*
X0541026Y0212277D03*
X0541026Y0220151D03*
X0541026Y0228025D03*
X0541026Y0235899D03*
X0541026Y0243773D03*
X0541026Y0251647D03*
X0541026Y0259521D03*
X0627640Y0259521D03*
X0627640Y0251647D03*
X0627640Y0243773D03*
X0627640Y0235899D03*
X0627640Y0228025D03*
X0627640Y0220151D03*
X0627640Y0212277D03*
X0627640Y0204403D03*
X0627640Y0196529D03*
X0627640Y0188655D03*
D14*
X0620105Y0191364D03*
X0611050Y0191757D03*
X0618530Y0177978D03*
X0636640Y0189002D03*
X0620105Y0208687D03*
X0610656Y0209080D03*
X0610262Y0215773D03*
X0581522Y0205143D03*
X0581916Y0196088D03*
X0587034Y0190970D03*
X0554751Y0176009D03*
X0554751Y0164198D03*
X0555538Y0157112D03*
X0550026Y0153569D03*
X0555538Y0150419D03*
X0550814Y0147269D03*
X0551207Y0140183D03*
X0558688Y0140576D03*
X0551995Y0133883D03*
X0537428Y0131521D03*
X0529554Y0125616D03*
X0522861Y0127978D03*
X0514987Y0131128D03*
X0498058Y0135065D03*
X0523255Y0116167D03*
X0542940Y0120104D03*
X0557113Y0119317D03*
X0573648Y0121285D03*
X0577192Y0130340D03*
X0583491Y0135852D03*
X0579160Y0139789D03*
X0572467Y0140183D03*
X0571286Y0150025D03*
X0581129Y0152387D03*
X0599239Y0150813D03*
X0622861Y0163411D03*
X0630735Y0160261D03*
X0609081Y0164986D03*
X0627979Y0148844D03*
X0625617Y0140576D03*
X0639396Y0142545D03*
X0653176Y0147269D03*
X0615538Y0128254D03*
X0617349Y0121679D03*
X0632310Y0114986D03*
X0615774Y0110261D03*
X0583491Y0109080D03*
X0562231Y0110261D03*
X0546089Y0109080D03*
X0537428Y0100419D03*
X0557900Y0098450D03*
X0555538Y0087427D03*
X0545696Y0076403D03*
X0527192Y0079946D03*
X0503963Y0088608D03*
X0572073Y0079946D03*
X0583885Y0094513D03*
X0630341Y0088608D03*
X0653963Y0098450D03*
X0653570Y0072072D03*
X0627979Y0058293D03*
X0611837Y0059474D03*
X0554751Y0039395D03*
X0537428Y0030340D03*
X0530341Y0030734D03*
X0516955Y0038214D03*
X0510656Y0032309D03*
X0502388Y0028372D03*
X0529948Y0019710D03*
X0544121Y0012230D03*
X0558688Y0027584D03*
X0610262Y0019317D03*
X0614199Y0013805D03*
X0626798Y0011443D03*
X0653570Y0127584D03*
X0589790Y0130340D03*
X0511444Y0167348D03*
X0527192Y0180734D03*
X0548845Y0192545D03*
X0557900Y0214986D03*
X0550420Y0217742D03*
D15*
X0494009Y0261161D02*
X0494009Y0008181D01*
X0665886Y0008181D01*
X0665886Y0261161D01*
X0631944Y0261161D01*
X0632127Y0260598D01*
X0632240Y0259883D01*
X0632240Y0259709D01*
X0627828Y0259709D01*
X0627828Y0259334D01*
X0632240Y0259334D01*
X0632240Y0259159D01*
X0632127Y0258444D01*
X0631903Y0257755D01*
X0631575Y0257110D01*
X0631149Y0256525D01*
X0630637Y0256013D01*
X0630051Y0255587D01*
X0629861Y0255490D01*
X0630133Y0255377D01*
X0631371Y0254140D01*
X0632040Y0252522D01*
X0632040Y0250772D01*
X0631371Y0249155D01*
X0630133Y0247917D01*
X0629633Y0247710D01*
X0630133Y0247503D01*
X0631371Y0246266D01*
X0632040Y0244648D01*
X0632040Y0242898D01*
X0631371Y0241281D01*
X0630133Y0240043D01*
X0629633Y0239836D01*
X0630133Y0239629D01*
X0631371Y0238392D01*
X0632040Y0236774D01*
X0632040Y0235024D01*
X0631371Y0233407D01*
X0630133Y0232169D01*
X0629633Y0231962D01*
X0630133Y0231755D01*
X0631371Y0230518D01*
X0632040Y0228900D01*
X0632040Y0227150D01*
X0631371Y0225533D01*
X0630133Y0224295D01*
X0629633Y0224088D01*
X0630133Y0223881D01*
X0631371Y0222644D01*
X0632040Y0221026D01*
X0632040Y0219276D01*
X0631371Y0217659D01*
X0630133Y0216421D01*
X0629633Y0216214D01*
X0630133Y0216007D01*
X0631371Y0214770D01*
X0632040Y0213152D01*
X0632040Y0211402D01*
X0631371Y0209785D01*
X0630133Y0208547D01*
X0629633Y0208340D01*
X0630133Y0208133D01*
X0631371Y0206896D01*
X0632040Y0205278D01*
X0632040Y0203528D01*
X0631371Y0201911D01*
X0630133Y0200673D01*
X0629633Y0200466D01*
X0630133Y0200259D01*
X0631371Y0199022D01*
X0632040Y0197404D01*
X0632040Y0195654D01*
X0631371Y0194037D01*
X0630133Y0192799D01*
X0629633Y0192592D01*
X0630133Y0192385D01*
X0631371Y0191148D01*
X0632040Y0189530D01*
X0632040Y0187780D01*
X0631371Y0186163D01*
X0630133Y0184925D01*
X0628516Y0184255D01*
X0626765Y0184255D01*
X0625148Y0184925D01*
X0623910Y0186163D01*
X0623240Y0187780D01*
X0623240Y0189530D01*
X0623910Y0191148D01*
X0625148Y0192385D01*
X0625647Y0192592D01*
X0625148Y0192799D01*
X0623910Y0194037D01*
X0623240Y0195654D01*
X0623240Y0197404D01*
X0623910Y0199022D01*
X0625148Y0200259D01*
X0625647Y0200466D01*
X0625148Y0200673D01*
X0623910Y0201911D01*
X0623240Y0203528D01*
X0623240Y0205278D01*
X0623910Y0206896D01*
X0625148Y0208133D01*
X0625647Y0208340D01*
X0625148Y0208547D01*
X0623910Y0209785D01*
X0623240Y0211402D01*
X0623240Y0213152D01*
X0623910Y0214770D01*
X0625148Y0216007D01*
X0625647Y0216214D01*
X0625148Y0216421D01*
X0623910Y0217659D01*
X0623240Y0219276D01*
X0623240Y0221026D01*
X0623910Y0222644D01*
X0625148Y0223881D01*
X0625647Y0224088D01*
X0625148Y0224295D01*
X0623910Y0225533D01*
X0623240Y0227150D01*
X0623240Y0228900D01*
X0623910Y0230518D01*
X0625148Y0231755D01*
X0625647Y0231962D01*
X0625148Y0232169D01*
X0623910Y0233407D01*
X0623240Y0235024D01*
X0623240Y0236774D01*
X0623910Y0238392D01*
X0625148Y0239629D01*
X0625647Y0239836D01*
X0625148Y0240043D01*
X0623910Y0241281D01*
X0623240Y0242898D01*
X0623240Y0244648D01*
X0623910Y0246266D01*
X0625148Y0247503D01*
X0625647Y0247710D01*
X0625148Y0247917D01*
X0623910Y0249155D01*
X0623240Y0250772D01*
X0623240Y0252522D01*
X0623910Y0254140D01*
X0625148Y0255377D01*
X0625420Y0255490D01*
X0625229Y0255587D01*
X0624644Y0256013D01*
X0624132Y0256525D01*
X0623706Y0257110D01*
X0623377Y0257755D01*
X0623154Y0258444D01*
X0623040Y0259159D01*
X0623040Y0259334D01*
X0627453Y0259334D01*
X0627453Y0259709D01*
X0623040Y0259709D01*
X0623040Y0259883D01*
X0623154Y0260598D01*
X0623336Y0261161D01*
X0545110Y0261161D01*
X0545426Y0260396D01*
X0545426Y0258646D01*
X0544756Y0257029D01*
X0543519Y0255791D01*
X0543019Y0255584D01*
X0543519Y0255377D01*
X0544756Y0254140D01*
X0545426Y0252522D01*
X0545426Y0250772D01*
X0544756Y0249155D01*
X0543519Y0247917D01*
X0543019Y0247710D01*
X0543519Y0247503D01*
X0544756Y0246266D01*
X0545426Y0244648D01*
X0545426Y0242898D01*
X0544756Y0241281D01*
X0543519Y0240043D01*
X0543019Y0239836D01*
X0543519Y0239629D01*
X0544756Y0238392D01*
X0545426Y0236774D01*
X0545426Y0235024D01*
X0544756Y0233407D01*
X0543519Y0232169D01*
X0543019Y0231962D01*
X0543519Y0231755D01*
X0544756Y0230518D01*
X0545426Y0228900D01*
X0545426Y0227150D01*
X0544756Y0225533D01*
X0543519Y0224295D01*
X0543019Y0224088D01*
X0543519Y0223881D01*
X0544756Y0222644D01*
X0545426Y0221026D01*
X0545426Y0219276D01*
X0544756Y0217659D01*
X0543519Y0216421D01*
X0543019Y0216214D01*
X0543519Y0216007D01*
X0544756Y0214770D01*
X0545426Y0213152D01*
X0545426Y0211402D01*
X0544756Y0209785D01*
X0543519Y0208547D01*
X0543019Y0208340D01*
X0543519Y0208133D01*
X0544756Y0206896D01*
X0545426Y0205278D01*
X0545426Y0203528D01*
X0544756Y0201911D01*
X0543519Y0200673D01*
X0543019Y0200466D01*
X0543519Y0200259D01*
X0544756Y0199022D01*
X0545426Y0197404D01*
X0545426Y0195654D01*
X0544756Y0194037D01*
X0543519Y0192799D01*
X0543019Y0192592D01*
X0543519Y0192385D01*
X0544756Y0191148D01*
X0545426Y0189530D01*
X0545426Y0187780D01*
X0544756Y0186163D01*
X0543519Y0184925D01*
X0541901Y0184255D01*
X0540151Y0184255D01*
X0538534Y0184925D01*
X0537296Y0186163D01*
X0536626Y0187780D01*
X0536626Y0189530D01*
X0537296Y0191148D01*
X0538534Y0192385D01*
X0539033Y0192592D01*
X0538534Y0192799D01*
X0537296Y0194037D01*
X0536626Y0195654D01*
X0536626Y0197404D01*
X0537296Y0199022D01*
X0538534Y0200259D01*
X0539033Y0200466D01*
X0538534Y0200673D01*
X0537296Y0201911D01*
X0536626Y0203528D01*
X0536626Y0205278D01*
X0537296Y0206896D01*
X0538534Y0208133D01*
X0539033Y0208340D01*
X0538534Y0208547D01*
X0537296Y0209785D01*
X0536626Y0211402D01*
X0536626Y0213152D01*
X0537296Y0214770D01*
X0538534Y0216007D01*
X0539033Y0216214D01*
X0538534Y0216421D01*
X0537296Y0217659D01*
X0536626Y0219276D01*
X0536626Y0221026D01*
X0537296Y0222644D01*
X0538534Y0223881D01*
X0539033Y0224088D01*
X0538534Y0224295D01*
X0537296Y0225533D01*
X0536626Y0227150D01*
X0536626Y0228900D01*
X0537296Y0230518D01*
X0538534Y0231755D01*
X0539033Y0231962D01*
X0538534Y0232169D01*
X0537296Y0233407D01*
X0536626Y0235024D01*
X0536626Y0236774D01*
X0537296Y0238392D01*
X0538534Y0239629D01*
X0539033Y0239836D01*
X0538534Y0240043D01*
X0537296Y0241281D01*
X0536626Y0242898D01*
X0536626Y0244648D01*
X0537296Y0246266D01*
X0538534Y0247503D01*
X0539033Y0247710D01*
X0538534Y0247917D01*
X0537296Y0249155D01*
X0536626Y0250772D01*
X0536626Y0252522D01*
X0537296Y0254140D01*
X0538534Y0255377D01*
X0539033Y0255584D01*
X0538534Y0255791D01*
X0537296Y0257029D01*
X0536626Y0258646D01*
X0536626Y0260396D01*
X0536943Y0261161D01*
X0494009Y0261161D01*
X0494009Y0260820D02*
X0536802Y0260820D01*
X0536626Y0259621D02*
X0494009Y0259621D01*
X0494009Y0258423D02*
X0536719Y0258423D01*
X0537215Y0257224D02*
X0494009Y0257224D01*
X0494009Y0256026D02*
X0538299Y0256026D01*
X0537984Y0254827D02*
X0494009Y0254827D01*
X0494009Y0253629D02*
X0537085Y0253629D01*
X0536626Y0252430D02*
X0494009Y0252430D01*
X0494009Y0251232D02*
X0536626Y0251232D01*
X0536932Y0250033D02*
X0494009Y0250033D01*
X0494009Y0248835D02*
X0537616Y0248835D01*
X0538855Y0247636D02*
X0494009Y0247636D01*
X0494009Y0246438D02*
X0537468Y0246438D01*
X0536871Y0245239D02*
X0494009Y0245239D01*
X0494009Y0244041D02*
X0536626Y0244041D01*
X0536649Y0242842D02*
X0494009Y0242842D01*
X0494009Y0241644D02*
X0537146Y0241644D01*
X0538132Y0240445D02*
X0494009Y0240445D01*
X0494009Y0239247D02*
X0538151Y0239247D01*
X0537154Y0238048D02*
X0494009Y0238048D01*
X0494009Y0236850D02*
X0536657Y0236850D01*
X0536626Y0235651D02*
X0494009Y0235651D01*
X0494009Y0234453D02*
X0536863Y0234453D01*
X0537449Y0233254D02*
X0494009Y0233254D01*
X0494009Y0232056D02*
X0538808Y0232056D01*
X0537636Y0230857D02*
X0494009Y0230857D01*
X0494009Y0229659D02*
X0536940Y0229659D01*
X0536626Y0228460D02*
X0494009Y0228460D01*
X0494009Y0227262D02*
X0536626Y0227262D01*
X0537076Y0226063D02*
X0494009Y0226063D01*
X0494009Y0224865D02*
X0537964Y0224865D01*
X0538319Y0223666D02*
X0494009Y0223666D01*
X0494009Y0222468D02*
X0537223Y0222468D01*
X0536727Y0221269D02*
X0494009Y0221269D01*
X0494009Y0220071D02*
X0536626Y0220071D01*
X0536794Y0218872D02*
X0494009Y0218872D01*
X0494009Y0217674D02*
X0537290Y0217674D01*
X0538480Y0216475D02*
X0494009Y0216475D01*
X0494009Y0215276D02*
X0537803Y0215276D01*
X0537010Y0214078D02*
X0494009Y0214078D01*
X0494009Y0212879D02*
X0536626Y0212879D01*
X0536626Y0211681D02*
X0494009Y0211681D01*
X0494009Y0210482D02*
X0537007Y0210482D01*
X0537797Y0209284D02*
X0494009Y0209284D01*
X0494009Y0208085D02*
X0538486Y0208085D01*
X0537293Y0206887D02*
X0494009Y0206887D01*
X0494009Y0205688D02*
X0536796Y0205688D01*
X0536626Y0204490D02*
X0494009Y0204490D01*
X0494009Y0203291D02*
X0536724Y0203291D01*
X0537221Y0202093D02*
X0494009Y0202093D01*
X0494009Y0200894D02*
X0538312Y0200894D01*
X0537970Y0199696D02*
X0494009Y0199696D01*
X0494009Y0198497D02*
X0537079Y0198497D01*
X0536626Y0197299D02*
X0494009Y0197299D01*
X0494009Y0196100D02*
X0536626Y0196100D01*
X0536938Y0194902D02*
X0494009Y0194902D01*
X0494009Y0193703D02*
X0537630Y0193703D01*
X0538822Y0192505D02*
X0494009Y0192505D01*
X0494009Y0191306D02*
X0537455Y0191306D01*
X0536865Y0190108D02*
X0494009Y0190108D01*
X0494009Y0188909D02*
X0536626Y0188909D01*
X0536655Y0187711D02*
X0494009Y0187711D01*
X0494009Y0186512D02*
X0537151Y0186512D01*
X0538145Y0185314D02*
X0494009Y0185314D01*
X0494009Y0184115D02*
X0546392Y0184115D01*
X0546845Y0184468D02*
X0544616Y0182734D01*
X0529973Y0182734D01*
X0529107Y0183600D01*
X0527864Y0184115D01*
X0526519Y0184115D01*
X0525276Y0183600D01*
X0524325Y0182649D01*
X0523810Y0181406D01*
X0523810Y0180061D01*
X0524325Y0178819D01*
X0525276Y0177867D01*
X0526519Y0177353D01*
X0527864Y0177353D01*
X0529107Y0177867D01*
X0529973Y0178734D01*
X0545177Y0178734D01*
X0545876Y0178647D01*
X0545988Y0178734D01*
X0546130Y0178734D01*
X0546628Y0179232D01*
X0549531Y0181490D01*
X0549674Y0181490D01*
X0550171Y0181988D01*
X0550727Y0182420D01*
X0550745Y0182561D01*
X0550845Y0182661D01*
X0550845Y0183365D01*
X0550932Y0184064D01*
X0550845Y0184176D01*
X0550845Y0189763D01*
X0551711Y0190630D01*
X0552226Y0191872D01*
X0552226Y0193217D01*
X0551711Y0194460D01*
X0550760Y0195411D01*
X0549518Y0195926D01*
X0548173Y0195926D01*
X0546930Y0195411D01*
X0545979Y0194460D01*
X0545464Y0193217D01*
X0545464Y0191872D01*
X0545979Y0190630D01*
X0546845Y0189763D01*
X0546845Y0184468D01*
X0546845Y0185314D02*
X0543907Y0185314D01*
X0544901Y0186512D02*
X0546845Y0186512D01*
X0546845Y0187711D02*
X0545398Y0187711D01*
X0545426Y0188909D02*
X0546845Y0188909D01*
X0546501Y0190108D02*
X0545187Y0190108D01*
X0545698Y0191306D02*
X0544598Y0191306D01*
X0545464Y0192505D02*
X0543230Y0192505D01*
X0544423Y0193703D02*
X0545665Y0193703D01*
X0545115Y0194902D02*
X0546420Y0194902D01*
X0545426Y0196100D02*
X0552751Y0196100D01*
X0552751Y0194902D02*
X0551270Y0194902D01*
X0552025Y0193703D02*
X0552751Y0193703D01*
X0552751Y0192505D02*
X0552226Y0192505D01*
X0551992Y0191306D02*
X0552751Y0191306D01*
X0552751Y0190108D02*
X0551190Y0190108D01*
X0550845Y0188909D02*
X0552751Y0188909D01*
X0552751Y0187711D02*
X0550845Y0187711D01*
X0550845Y0186512D02*
X0552751Y0186512D01*
X0552751Y0185314D02*
X0550845Y0185314D01*
X0550892Y0184115D02*
X0552751Y0184115D01*
X0552751Y0182917D02*
X0550845Y0182917D01*
X0549902Y0181718D02*
X0552751Y0181718D01*
X0552751Y0180520D02*
X0548284Y0180520D01*
X0546743Y0179321D02*
X0552751Y0179321D01*
X0552751Y0178791D02*
X0551884Y0177925D01*
X0551370Y0176682D01*
X0551370Y0175337D01*
X0551884Y0174094D01*
X0552835Y0173143D01*
X0554078Y0172628D01*
X0555423Y0172628D01*
X0556488Y0173069D01*
X0556488Y0172304D01*
X0543997Y0172304D01*
X0542708Y0171015D01*
X0541241Y0169548D01*
X0514025Y0169548D01*
X0513359Y0170214D01*
X0512116Y0170729D01*
X0510771Y0170729D01*
X0509528Y0170214D01*
X0508577Y0169263D01*
X0508062Y0168021D01*
X0508062Y0166675D01*
X0508577Y0165433D01*
X0509528Y0164482D01*
X0510771Y0163967D01*
X0512116Y0163967D01*
X0513359Y0164482D01*
X0514025Y0165148D01*
X0543063Y0165148D01*
X0545819Y0167904D01*
X0558812Y0167904D01*
X0559599Y0168691D01*
X0560888Y0169980D01*
X0560888Y0172113D01*
X0561160Y0171841D01*
X0578620Y0171841D01*
X0579440Y0172661D01*
X0579440Y0177720D01*
X0578620Y0178541D01*
X0561160Y0178541D01*
X0560888Y0178268D01*
X0560888Y0182113D01*
X0561160Y0181841D01*
X0578620Y0181841D01*
X0579440Y0182661D01*
X0579440Y0187720D01*
X0578620Y0188541D01*
X0561160Y0188541D01*
X0560888Y0188268D01*
X0560888Y0192113D01*
X0561160Y0191841D01*
X0578620Y0191841D01*
X0579440Y0192661D01*
X0579440Y0193783D01*
X0580001Y0193222D01*
X0581243Y0192707D01*
X0582589Y0192707D01*
X0583831Y0193222D01*
X0584679Y0194069D01*
X0585664Y0194062D01*
X0585119Y0193836D01*
X0584168Y0192885D01*
X0583653Y0191643D01*
X0583653Y0190298D01*
X0584168Y0189055D01*
X0585119Y0188104D01*
X0586362Y0187589D01*
X0587707Y0187589D01*
X0588189Y0187789D01*
X0588508Y0187789D01*
X0588440Y0187720D01*
X0588440Y0187065D01*
X0583843Y0187065D01*
X0582672Y0185893D01*
X0582672Y0150262D01*
X0579440Y0145644D01*
X0579440Y0147720D01*
X0578620Y0148541D01*
X0574331Y0148541D01*
X0574667Y0149353D01*
X0574667Y0150698D01*
X0574194Y0151841D01*
X0578620Y0151841D01*
X0579440Y0152661D01*
X0579440Y0157720D01*
X0578620Y0158541D01*
X0561160Y0158541D01*
X0560340Y0157720D01*
X0560340Y0157107D01*
X0560303Y0157143D01*
X0559947Y0157143D01*
X0558919Y0157657D01*
X0558919Y0157784D01*
X0558404Y0159027D01*
X0557453Y0159978D01*
X0556211Y0160493D01*
X0554866Y0160493D01*
X0553623Y0159978D01*
X0552672Y0159027D01*
X0552157Y0157784D01*
X0552157Y0156439D01*
X0552312Y0156064D01*
X0551941Y0156435D01*
X0550699Y0156950D01*
X0549354Y0156950D01*
X0548111Y0156435D01*
X0547245Y0155568D01*
X0536599Y0155568D01*
X0515540Y0134509D01*
X0514314Y0134509D01*
X0513072Y0133994D01*
X0512121Y0133043D01*
X0511606Y0131800D01*
X0511606Y0130455D01*
X0512121Y0129212D01*
X0513072Y0128261D01*
X0514314Y0127746D01*
X0515659Y0127746D01*
X0516902Y0128261D01*
X0517318Y0128677D01*
X0517318Y0124476D01*
X0503135Y0110293D01*
X0501963Y0109121D01*
X0501963Y0091389D01*
X0501097Y0090523D01*
X0500582Y0089280D01*
X0500582Y0087935D01*
X0501097Y0086693D01*
X0502048Y0085742D01*
X0503291Y0085227D01*
X0504636Y0085227D01*
X0505878Y0085742D01*
X0506830Y0086693D01*
X0507344Y0087935D01*
X0507344Y0089280D01*
X0506830Y0090523D01*
X0505963Y0091389D01*
X0505963Y0107464D01*
X0521318Y0122819D01*
X0521318Y0124958D01*
X0522188Y0124597D01*
X0523533Y0124597D01*
X0524776Y0125112D01*
X0525727Y0126063D01*
X0526242Y0127305D01*
X0526242Y0128531D01*
X0542981Y0145269D01*
X0548032Y0145269D01*
X0548898Y0144403D01*
X0550141Y0143888D01*
X0551486Y0143888D01*
X0552729Y0144403D01*
X0553680Y0145354D01*
X0554195Y0146597D01*
X0554195Y0147316D01*
X0554866Y0147038D01*
X0556132Y0147038D01*
X0552014Y0143508D01*
X0551880Y0143564D01*
X0550535Y0143564D01*
X0549292Y0143049D01*
X0548341Y0142098D01*
X0547826Y0140855D01*
X0547826Y0139510D01*
X0548026Y0139027D01*
X0548026Y0138173D01*
X0549198Y0137002D01*
X0550052Y0137002D01*
X0550370Y0136870D01*
X0550080Y0136750D01*
X0549128Y0135799D01*
X0548614Y0134556D01*
X0548614Y0133211D01*
X0549128Y0131968D01*
X0549601Y0131496D01*
X0549601Y0110696D01*
X0549232Y0110327D01*
X0548956Y0110996D01*
X0548004Y0111947D01*
X0546762Y0112461D01*
X0545417Y0112461D01*
X0544174Y0111947D01*
X0543223Y0110996D01*
X0542708Y0109753D01*
X0542708Y0108528D01*
X0537980Y0103800D01*
X0536755Y0103800D01*
X0535513Y0103285D01*
X0534561Y0102334D01*
X0534047Y0101091D01*
X0534047Y0099746D01*
X0534561Y0098504D01*
X0535513Y0097553D01*
X0536755Y0097038D01*
X0538100Y0097038D01*
X0539343Y0097553D01*
X0539759Y0097968D01*
X0539759Y0083531D01*
X0508656Y0052428D01*
X0508656Y0035090D01*
X0507790Y0034224D01*
X0507275Y0032981D01*
X0507275Y0031636D01*
X0507790Y0030393D01*
X0508741Y0029442D01*
X0509984Y0028928D01*
X0511329Y0028928D01*
X0512571Y0029442D01*
X0513523Y0030393D01*
X0514037Y0031636D01*
X0514037Y0032981D01*
X0513523Y0034224D01*
X0512656Y0035090D01*
X0512656Y0050772D01*
X0542587Y0080702D01*
X0543759Y0081874D01*
X0543759Y0099197D01*
X0552429Y0107868D01*
X0552429Y0107868D01*
X0553601Y0109039D01*
X0553601Y0130889D01*
X0553910Y0131017D01*
X0554861Y0131968D01*
X0555376Y0133211D01*
X0555376Y0134556D01*
X0554861Y0135799D01*
X0553910Y0136750D01*
X0552832Y0137196D01*
X0553123Y0137316D01*
X0554074Y0138267D01*
X0554588Y0139510D01*
X0554588Y0140447D01*
X0560215Y0145269D01*
X0560303Y0145269D01*
X0560340Y0145305D01*
X0560340Y0142661D01*
X0561160Y0141841D01*
X0569494Y0141841D01*
X0569086Y0140855D01*
X0569086Y0139510D01*
X0569488Y0138541D01*
X0561160Y0138541D01*
X0560340Y0137720D01*
X0560340Y0132661D01*
X0561160Y0131841D01*
X0568105Y0131841D01*
X0568105Y0129512D01*
X0569076Y0128541D01*
X0561160Y0128541D01*
X0560340Y0127720D01*
X0560340Y0122661D01*
X0561160Y0121841D01*
X0570267Y0121841D01*
X0570267Y0120612D01*
X0570782Y0119370D01*
X0571611Y0118541D01*
X0561160Y0118541D01*
X0560340Y0117720D01*
X0560340Y0113138D01*
X0560316Y0113128D01*
X0559365Y0112177D01*
X0559113Y0111569D01*
X0559113Y0116535D01*
X0559979Y0117401D01*
X0560494Y0118644D01*
X0560494Y0119989D01*
X0559979Y0121232D01*
X0559028Y0122183D01*
X0557785Y0122698D01*
X0556440Y0122698D01*
X0555198Y0122183D01*
X0554246Y0121232D01*
X0553732Y0119989D01*
X0553732Y0118644D01*
X0554246Y0117401D01*
X0555113Y0116535D01*
X0555113Y0105102D01*
X0557466Y0102750D01*
X0560340Y0102750D01*
X0560340Y0102661D01*
X0561160Y0101841D01*
X0578620Y0101841D01*
X0579440Y0102661D01*
X0579440Y0107720D01*
X0578620Y0108541D01*
X0565178Y0108541D01*
X0565612Y0109589D01*
X0565612Y0110814D01*
X0566639Y0111841D01*
X0578620Y0111841D01*
X0579440Y0112661D01*
X0579440Y0117720D01*
X0578620Y0118541D01*
X0575685Y0118541D01*
X0576515Y0119370D01*
X0577029Y0120612D01*
X0577029Y0121841D01*
X0578620Y0121841D01*
X0579440Y0122661D01*
X0579440Y0127720D01*
X0579397Y0127764D01*
X0580058Y0128425D01*
X0580573Y0129668D01*
X0580573Y0131013D01*
X0580058Y0132255D01*
X0579440Y0132874D01*
X0579440Y0136408D01*
X0579833Y0136408D01*
X0580110Y0136523D01*
X0580110Y0135179D01*
X0580624Y0133937D01*
X0581576Y0132986D01*
X0582818Y0132471D01*
X0584163Y0132471D01*
X0585406Y0132986D01*
X0586357Y0133937D01*
X0586872Y0135179D01*
X0586872Y0136405D01*
X0589437Y0138970D01*
X0598886Y0138970D01*
X0600058Y0140142D01*
X0600058Y0141841D01*
X0606720Y0141841D01*
X0607540Y0142661D01*
X0607540Y0147720D01*
X0606720Y0148541D01*
X0601748Y0148541D01*
X0602105Y0148897D01*
X0602620Y0150140D01*
X0602620Y0151485D01*
X0602473Y0151841D01*
X0606720Y0151841D01*
X0607540Y0152661D01*
X0607540Y0157720D01*
X0606720Y0158541D01*
X0589260Y0158541D01*
X0588440Y0157720D01*
X0588440Y0152661D01*
X0589260Y0151841D01*
X0596005Y0151841D01*
X0595858Y0151485D01*
X0595858Y0150140D01*
X0596372Y0148897D01*
X0596729Y0148541D01*
X0589260Y0148541D01*
X0588440Y0147720D01*
X0588440Y0142970D01*
X0587780Y0142970D01*
X0586609Y0141798D01*
X0584043Y0139233D01*
X0582818Y0139233D01*
X0582541Y0139118D01*
X0582541Y0140462D01*
X0582026Y0141704D01*
X0581754Y0141976D01*
X0586210Y0148341D01*
X0586672Y0148803D01*
X0586672Y0149001D01*
X0586785Y0149163D01*
X0586672Y0149807D01*
X0586672Y0183065D01*
X0588440Y0183065D01*
X0588440Y0182661D01*
X0589260Y0181841D01*
X0606720Y0181841D01*
X0607540Y0182661D01*
X0607540Y0186140D01*
X0615149Y0178531D01*
X0615149Y0177305D01*
X0615664Y0176063D01*
X0616615Y0175112D01*
X0617858Y0174597D01*
X0619203Y0174597D01*
X0620445Y0175112D01*
X0621397Y0176063D01*
X0621911Y0177305D01*
X0621911Y0178650D01*
X0621397Y0179893D01*
X0620445Y0180844D01*
X0619203Y0181359D01*
X0617977Y0181359D01*
X0610960Y0188376D01*
X0611722Y0188376D01*
X0612965Y0188891D01*
X0613916Y0189842D01*
X0614431Y0191085D01*
X0614431Y0192430D01*
X0613916Y0193673D01*
X0613050Y0194539D01*
X0613050Y0206692D01*
X0613523Y0207165D01*
X0614037Y0208408D01*
X0614037Y0209753D01*
X0613523Y0210996D01*
X0612571Y0211947D01*
X0611329Y0212461D01*
X0609984Y0212461D01*
X0608741Y0211947D01*
X0607790Y0210996D01*
X0607275Y0209753D01*
X0607275Y0208408D01*
X0607790Y0207165D01*
X0608741Y0206214D01*
X0609050Y0206086D01*
X0609050Y0194539D01*
X0608184Y0193673D01*
X0607669Y0192430D01*
X0607669Y0191668D01*
X0607548Y0191789D01*
X0590355Y0191789D01*
X0590333Y0191841D01*
X0606720Y0191841D01*
X0607540Y0192661D01*
X0607540Y0197720D01*
X0606720Y0198541D01*
X0589260Y0198541D01*
X0588760Y0198041D01*
X0584717Y0198069D01*
X0583831Y0198955D01*
X0582589Y0199469D01*
X0581243Y0199469D01*
X0580001Y0198955D01*
X0579103Y0198057D01*
X0578620Y0198541D01*
X0561160Y0198541D01*
X0560888Y0198268D01*
X0560888Y0202113D01*
X0561160Y0201841D01*
X0578620Y0201841D01*
X0579331Y0202553D01*
X0579607Y0202277D01*
X0580850Y0201762D01*
X0582195Y0201762D01*
X0583438Y0202277D01*
X0584389Y0203228D01*
X0584903Y0204471D01*
X0584903Y0205816D01*
X0584389Y0207059D01*
X0583438Y0208010D01*
X0582195Y0208524D01*
X0580850Y0208524D01*
X0579607Y0208010D01*
X0579379Y0207781D01*
X0578620Y0208541D01*
X0572290Y0208541D01*
X0572290Y0211841D01*
X0578620Y0211841D01*
X0579440Y0212661D01*
X0579440Y0217720D01*
X0578620Y0218541D01*
X0572290Y0218541D01*
X0572290Y0221841D01*
X0578620Y0221841D01*
X0579440Y0222661D01*
X0579440Y0222791D01*
X0588440Y0222791D01*
X0588440Y0222661D01*
X0589260Y0221841D01*
X0595590Y0221841D01*
X0595590Y0218541D01*
X0589260Y0218541D01*
X0588440Y0217720D01*
X0588440Y0212661D01*
X0589260Y0211841D01*
X0595590Y0211841D01*
X0595590Y0208541D01*
X0589260Y0208541D01*
X0588440Y0207720D01*
X0588440Y0202661D01*
X0589260Y0201841D01*
X0606720Y0201841D01*
X0607540Y0202661D01*
X0607540Y0207720D01*
X0606720Y0208541D01*
X0600390Y0208541D01*
X0600390Y0211841D01*
X0606720Y0211841D01*
X0607540Y0212661D01*
X0607540Y0217720D01*
X0606720Y0218541D01*
X0600390Y0218541D01*
X0600390Y0221841D01*
X0606720Y0221841D01*
X0607540Y0222661D01*
X0607540Y0227720D01*
X0606720Y0228541D01*
X0589260Y0228541D01*
X0588440Y0227720D01*
X0588440Y0227591D01*
X0579440Y0227591D01*
X0579440Y0227720D01*
X0578620Y0228541D01*
X0561160Y0228541D01*
X0560340Y0227720D01*
X0560340Y0222661D01*
X0561160Y0221841D01*
X0567490Y0221841D01*
X0567490Y0218541D01*
X0561160Y0218541D01*
X0560340Y0217720D01*
X0560340Y0212661D01*
X0561160Y0211841D01*
X0567490Y0211841D01*
X0567490Y0208541D01*
X0561160Y0208541D01*
X0560340Y0207720D01*
X0560340Y0207343D01*
X0558564Y0207343D01*
X0557776Y0206556D01*
X0556751Y0205530D01*
X0556751Y0214239D01*
X0555579Y0215411D01*
X0553801Y0217189D01*
X0553801Y0218414D01*
X0553286Y0219657D01*
X0552335Y0220608D01*
X0551092Y0221123D01*
X0549747Y0221123D01*
X0548505Y0220608D01*
X0547554Y0219657D01*
X0547039Y0218414D01*
X0547039Y0217069D01*
X0547554Y0215826D01*
X0548505Y0214875D01*
X0549747Y0214361D01*
X0550973Y0214361D01*
X0552751Y0212583D01*
X0552751Y0178791D01*
X0552082Y0178123D02*
X0529362Y0178123D01*
X0527192Y0180734D02*
X0545302Y0180734D01*
X0548845Y0183490D01*
X0548845Y0192545D01*
X0545426Y0197299D02*
X0552751Y0197299D01*
X0552751Y0198497D02*
X0544974Y0198497D01*
X0544082Y0199696D02*
X0552751Y0199696D01*
X0552751Y0200894D02*
X0543740Y0200894D01*
X0544832Y0202093D02*
X0552751Y0202093D01*
X0552751Y0203291D02*
X0545328Y0203291D01*
X0545426Y0204490D02*
X0552751Y0204490D01*
X0552751Y0205688D02*
X0545256Y0205688D01*
X0544760Y0206887D02*
X0552751Y0206887D01*
X0552751Y0208085D02*
X0543566Y0208085D01*
X0544256Y0209284D02*
X0552751Y0209284D01*
X0552751Y0210482D02*
X0545045Y0210482D01*
X0545426Y0211681D02*
X0552751Y0211681D01*
X0552454Y0212879D02*
X0545426Y0212879D01*
X0545043Y0214078D02*
X0551255Y0214078D01*
X0548104Y0215276D02*
X0544249Y0215276D01*
X0543573Y0216475D02*
X0547285Y0216475D01*
X0547039Y0217674D02*
X0544762Y0217674D01*
X0545259Y0218872D02*
X0547228Y0218872D01*
X0547967Y0220071D02*
X0545426Y0220071D01*
X0545326Y0221269D02*
X0567490Y0221269D01*
X0567490Y0220071D02*
X0552873Y0220071D01*
X0553611Y0218872D02*
X0567490Y0218872D01*
X0572290Y0218872D02*
X0595590Y0218872D01*
X0595590Y0220071D02*
X0572290Y0220071D01*
X0572290Y0221269D02*
X0595590Y0221269D01*
X0600390Y0221269D02*
X0623341Y0221269D01*
X0623240Y0220071D02*
X0600390Y0220071D01*
X0600390Y0218872D02*
X0623408Y0218872D01*
X0623904Y0217674D02*
X0607540Y0217674D01*
X0607540Y0216475D02*
X0625094Y0216475D01*
X0624417Y0215276D02*
X0607540Y0215276D01*
X0607540Y0214078D02*
X0623624Y0214078D01*
X0623240Y0212879D02*
X0607540Y0212879D01*
X0608475Y0211681D02*
X0600390Y0211681D01*
X0600390Y0210482D02*
X0607577Y0210482D01*
X0607275Y0209284D02*
X0600390Y0209284D01*
X0595590Y0209284D02*
X0572290Y0209284D01*
X0572290Y0210482D02*
X0595590Y0210482D01*
X0595590Y0211681D02*
X0572290Y0211681D01*
X0567490Y0211681D02*
X0556751Y0211681D01*
X0556751Y0212879D02*
X0560340Y0212879D01*
X0560340Y0214078D02*
X0556751Y0214078D01*
X0557507Y0214986D02*
X0557900Y0214592D01*
X0557900Y0214986D02*
X0557507Y0214986D01*
X0555714Y0215276D02*
X0560340Y0215276D01*
X0560340Y0216475D02*
X0554515Y0216475D01*
X0553801Y0217674D02*
X0560340Y0217674D01*
X0560533Y0222468D02*
X0544829Y0222468D01*
X0543734Y0223666D02*
X0560340Y0223666D01*
X0560340Y0224865D02*
X0544088Y0224865D01*
X0544976Y0226063D02*
X0560340Y0226063D01*
X0560340Y0227262D02*
X0545426Y0227262D01*
X0545426Y0228460D02*
X0561079Y0228460D01*
X0545112Y0229659D02*
X0623554Y0229659D01*
X0623240Y0228460D02*
X0606800Y0228460D01*
X0607540Y0227262D02*
X0623240Y0227262D01*
X0623691Y0226063D02*
X0607540Y0226063D01*
X0607540Y0224865D02*
X0624578Y0224865D01*
X0624933Y0223666D02*
X0607540Y0223666D01*
X0607347Y0222468D02*
X0623837Y0222468D01*
X0630348Y0223666D02*
X0665886Y0223666D01*
X0665886Y0222468D02*
X0631443Y0222468D01*
X0631940Y0221269D02*
X0665886Y0221269D01*
X0665886Y0220071D02*
X0632040Y0220071D01*
X0631873Y0218872D02*
X0665886Y0218872D01*
X0665886Y0217674D02*
X0631377Y0217674D01*
X0630187Y0216475D02*
X0665886Y0216475D01*
X0665886Y0215276D02*
X0630864Y0215276D01*
X0631657Y0214078D02*
X0665886Y0214078D01*
X0665886Y0212879D02*
X0632040Y0212879D01*
X0632040Y0211681D02*
X0665886Y0211681D01*
X0665886Y0210482D02*
X0631660Y0210482D01*
X0630870Y0209284D02*
X0665886Y0209284D01*
X0665886Y0208085D02*
X0655227Y0208085D01*
X0655734Y0207875D02*
X0654274Y0208480D01*
X0652692Y0208480D01*
X0651231Y0207875D01*
X0650113Y0206757D01*
X0649508Y0205296D01*
X0649508Y0203715D01*
X0650113Y0202254D01*
X0651231Y0201136D01*
X0652692Y0200531D01*
X0654274Y0200531D01*
X0655734Y0201136D01*
X0656853Y0202254D01*
X0657458Y0203715D01*
X0657458Y0205296D01*
X0656853Y0206757D01*
X0655734Y0207875D01*
X0656723Y0206887D02*
X0665886Y0206887D01*
X0665886Y0205688D02*
X0657295Y0205688D01*
X0657458Y0204490D02*
X0665886Y0204490D01*
X0665886Y0203291D02*
X0657282Y0203291D01*
X0656691Y0202093D02*
X0665886Y0202093D01*
X0665886Y0200894D02*
X0655151Y0200894D01*
X0654706Y0199696D02*
X0665886Y0199696D01*
X0665886Y0198497D02*
X0656553Y0198497D01*
X0656931Y0198119D02*
X0655813Y0199237D01*
X0654352Y0199843D01*
X0652771Y0199843D01*
X0651310Y0199237D01*
X0650192Y0198119D01*
X0649587Y0196658D01*
X0649587Y0195077D01*
X0650192Y0193616D01*
X0651310Y0192498D01*
X0652771Y0191893D01*
X0654352Y0191893D01*
X0655813Y0192498D01*
X0656931Y0193616D01*
X0657536Y0195077D01*
X0657536Y0196658D01*
X0656931Y0198119D01*
X0657271Y0197299D02*
X0665886Y0197299D01*
X0665886Y0196100D02*
X0657536Y0196100D01*
X0657464Y0194902D02*
X0665886Y0194902D01*
X0665886Y0193703D02*
X0656967Y0193703D01*
X0655820Y0192505D02*
X0665886Y0192505D01*
X0665886Y0191306D02*
X0639117Y0191306D01*
X0639507Y0190917D02*
X0638556Y0191868D01*
X0637313Y0192383D01*
X0635968Y0192383D01*
X0634725Y0191868D01*
X0633774Y0190917D01*
X0633259Y0189674D01*
X0633259Y0188329D01*
X0633774Y0187086D01*
X0634725Y0186135D01*
X0635968Y0185620D01*
X0637193Y0185620D01*
X0637396Y0185417D01*
X0637396Y0145326D01*
X0636530Y0144460D01*
X0636015Y0143217D01*
X0636015Y0141872D01*
X0636530Y0140630D01*
X0637481Y0139679D01*
X0638724Y0139164D01*
X0640069Y0139164D01*
X0641312Y0139679D01*
X0642263Y0140630D01*
X0642777Y0141872D01*
X0642777Y0143217D01*
X0642263Y0144460D01*
X0641396Y0145326D01*
X0641396Y0187074D01*
X0640022Y0188449D01*
X0640022Y0189674D01*
X0639507Y0190917D01*
X0639842Y0190108D02*
X0665886Y0190108D01*
X0665886Y0188909D02*
X0640022Y0188909D01*
X0640760Y0187711D02*
X0665886Y0187711D01*
X0665886Y0186512D02*
X0641396Y0186512D01*
X0641396Y0185314D02*
X0665886Y0185314D01*
X0665886Y0184115D02*
X0641396Y0184115D01*
X0641396Y0182917D02*
X0665886Y0182917D01*
X0665886Y0181718D02*
X0641396Y0181718D01*
X0641396Y0180520D02*
X0665886Y0180520D01*
X0665886Y0179321D02*
X0641396Y0179321D01*
X0641396Y0178123D02*
X0665886Y0178123D01*
X0665886Y0176924D02*
X0641396Y0176924D01*
X0641396Y0175726D02*
X0665886Y0175726D01*
X0665886Y0174527D02*
X0641396Y0174527D01*
X0641396Y0173329D02*
X0665886Y0173329D01*
X0665886Y0172130D02*
X0641396Y0172130D01*
X0641396Y0170932D02*
X0665886Y0170932D01*
X0665886Y0169733D02*
X0641396Y0169733D01*
X0641396Y0168535D02*
X0665886Y0168535D01*
X0665886Y0167336D02*
X0641396Y0167336D01*
X0641396Y0166138D02*
X0665886Y0166138D01*
X0665886Y0164939D02*
X0641396Y0164939D01*
X0641396Y0163741D02*
X0665886Y0163741D01*
X0665886Y0162542D02*
X0641396Y0162542D01*
X0641396Y0161343D02*
X0665886Y0161343D01*
X0665886Y0160145D02*
X0641396Y0160145D01*
X0641396Y0158946D02*
X0665886Y0158946D01*
X0665886Y0157748D02*
X0641396Y0157748D01*
X0641396Y0156549D02*
X0665886Y0156549D01*
X0665886Y0155351D02*
X0641396Y0155351D01*
X0641396Y0154152D02*
X0665886Y0154152D01*
X0665886Y0152954D02*
X0641396Y0152954D01*
X0641396Y0151755D02*
X0665886Y0151755D01*
X0665886Y0150557D02*
X0641396Y0150557D01*
X0641396Y0149358D02*
X0665886Y0149358D01*
X0665886Y0148160D02*
X0641396Y0148160D01*
X0641396Y0146961D02*
X0665886Y0146961D01*
X0665886Y0145763D02*
X0641396Y0145763D01*
X0642158Y0144564D02*
X0665886Y0144564D01*
X0665886Y0143366D02*
X0642716Y0143366D01*
X0642777Y0142167D02*
X0665886Y0142167D01*
X0665886Y0140969D02*
X0642403Y0140969D01*
X0641403Y0139770D02*
X0665886Y0139770D01*
X0665886Y0138572D02*
X0624073Y0138572D01*
X0624073Y0139770D02*
X0637389Y0139770D01*
X0636389Y0140969D02*
X0624073Y0140969D01*
X0624073Y0142167D02*
X0636015Y0142167D01*
X0636077Y0143366D02*
X0624073Y0143366D01*
X0624073Y0144564D02*
X0636634Y0144564D01*
X0637396Y0145763D02*
X0629375Y0145763D01*
X0629894Y0145978D02*
X0628652Y0145463D01*
X0627306Y0145463D01*
X0626064Y0145978D01*
X0625113Y0146929D01*
X0624598Y0148172D01*
X0624598Y0149517D01*
X0625113Y0150759D01*
X0625979Y0151626D01*
X0625979Y0158670D01*
X0625814Y0159054D01*
X0625979Y0159465D01*
X0625979Y0159909D01*
X0626275Y0160204D01*
X0626430Y0160592D01*
X0626837Y0160767D01*
X0627151Y0161080D01*
X0627414Y0161080D01*
X0627869Y0162177D01*
X0628820Y0163128D01*
X0630062Y0163643D01*
X0631407Y0163643D01*
X0632650Y0163128D01*
X0633601Y0162177D01*
X0634116Y0160934D01*
X0634116Y0159589D01*
X0633601Y0158346D01*
X0632650Y0157395D01*
X0631407Y0156880D01*
X0630062Y0156880D01*
X0629979Y0156915D01*
X0629979Y0151626D01*
X0630845Y0150759D01*
X0631360Y0149517D01*
X0631360Y0148172D01*
X0630845Y0146929D01*
X0629894Y0145978D01*
X0630859Y0146961D02*
X0637396Y0146961D01*
X0637396Y0148160D02*
X0631355Y0148160D01*
X0631360Y0149358D02*
X0637396Y0149358D01*
X0637396Y0150557D02*
X0630929Y0150557D01*
X0629979Y0151755D02*
X0637396Y0151755D01*
X0637396Y0152954D02*
X0629979Y0152954D01*
X0629979Y0154152D02*
X0637396Y0154152D01*
X0637396Y0155351D02*
X0629979Y0155351D01*
X0629979Y0156549D02*
X0637396Y0156549D01*
X0637396Y0157748D02*
X0633003Y0157748D01*
X0633850Y0158946D02*
X0637396Y0158946D01*
X0637396Y0160145D02*
X0634116Y0160145D01*
X0633946Y0161343D02*
X0637396Y0161343D01*
X0637396Y0162542D02*
X0633236Y0162542D01*
X0630735Y0160261D02*
X0627979Y0159080D01*
X0627979Y0148844D01*
X0626583Y0145763D02*
X0624073Y0145763D01*
X0624073Y0146961D02*
X0625099Y0146961D01*
X0624603Y0148160D02*
X0624073Y0148160D01*
X0624073Y0149358D02*
X0624598Y0149358D01*
X0625029Y0150557D02*
X0624073Y0150557D01*
X0624073Y0151755D02*
X0625979Y0151755D01*
X0625979Y0152954D02*
X0624073Y0152954D01*
X0624073Y0154152D02*
X0625979Y0154152D01*
X0625979Y0155351D02*
X0624073Y0155351D01*
X0624073Y0156549D02*
X0625979Y0156549D01*
X0625979Y0157748D02*
X0624073Y0157748D01*
X0624073Y0158946D02*
X0625860Y0158946D01*
X0626215Y0160145D02*
X0624073Y0160145D01*
X0624073Y0160254D02*
X0624776Y0160545D01*
X0625727Y0161496D01*
X0626242Y0162738D01*
X0626242Y0164084D01*
X0625727Y0165326D01*
X0624776Y0166277D01*
X0623533Y0166792D01*
X0622188Y0166792D01*
X0620946Y0166277D01*
X0619995Y0165326D01*
X0619480Y0164084D01*
X0619480Y0162738D01*
X0619995Y0161496D01*
X0620073Y0161417D01*
X0620073Y0125263D01*
X0619310Y0124499D01*
X0619264Y0124545D01*
X0618022Y0125060D01*
X0616677Y0125060D01*
X0615434Y0124545D01*
X0614483Y0123594D01*
X0613968Y0122351D01*
X0613968Y0121006D01*
X0614483Y0119763D01*
X0615434Y0118812D01*
X0616677Y0118298D01*
X0618022Y0118298D01*
X0619264Y0118812D01*
X0620131Y0119679D01*
X0620146Y0119679D01*
X0622902Y0122435D01*
X0624073Y0123606D01*
X0624073Y0160254D01*
X0625575Y0161343D02*
X0627523Y0161343D01*
X0628234Y0162542D02*
X0626161Y0162542D01*
X0626242Y0163741D02*
X0637396Y0163741D01*
X0637396Y0164939D02*
X0625888Y0164939D01*
X0624916Y0166138D02*
X0637396Y0166138D01*
X0637396Y0167336D02*
X0616788Y0167336D01*
X0616979Y0167005D02*
X0611496Y0176509D01*
X0611505Y0176761D01*
X0611095Y0177204D01*
X0610793Y0177726D01*
X0610550Y0177792D01*
X0610379Y0177976D01*
X0609776Y0177999D01*
X0609193Y0178156D01*
X0608975Y0178030D01*
X0607160Y0178100D01*
X0606720Y0178541D01*
X0589260Y0178541D01*
X0588440Y0177720D01*
X0588440Y0172661D01*
X0589260Y0171841D01*
X0606720Y0171841D01*
X0607540Y0172661D01*
X0607540Y0174082D01*
X0608295Y0174053D01*
X0613383Y0165234D01*
X0613526Y0131023D01*
X0612672Y0130169D01*
X0612157Y0128926D01*
X0612157Y0127581D01*
X0612672Y0126338D01*
X0613623Y0125387D01*
X0614866Y0124872D01*
X0616211Y0124872D01*
X0617453Y0125387D01*
X0618404Y0126338D01*
X0618919Y0127581D01*
X0618919Y0128926D01*
X0618404Y0130169D01*
X0617526Y0131047D01*
X0617382Y0165514D01*
X0617527Y0166055D01*
X0617378Y0166313D01*
X0617377Y0166610D01*
X0616979Y0167005D01*
X0617479Y0166138D02*
X0620806Y0166138D01*
X0619834Y0164939D02*
X0617384Y0164939D01*
X0617389Y0163741D02*
X0619480Y0163741D01*
X0619561Y0162542D02*
X0617394Y0162542D01*
X0617399Y0161343D02*
X0620073Y0161343D01*
X0620073Y0160145D02*
X0617404Y0160145D01*
X0617409Y0158946D02*
X0620073Y0158946D01*
X0620073Y0157748D02*
X0617414Y0157748D01*
X0617419Y0156549D02*
X0620073Y0156549D01*
X0620073Y0155351D02*
X0617424Y0155351D01*
X0617429Y0154152D02*
X0620073Y0154152D01*
X0620073Y0152954D02*
X0617434Y0152954D01*
X0617439Y0151755D02*
X0620073Y0151755D01*
X0620073Y0150557D02*
X0617444Y0150557D01*
X0617449Y0149358D02*
X0620073Y0149358D01*
X0620073Y0148160D02*
X0617455Y0148160D01*
X0617460Y0146961D02*
X0620073Y0146961D01*
X0620073Y0145763D02*
X0617465Y0145763D01*
X0617470Y0144564D02*
X0620073Y0144564D01*
X0620073Y0143366D02*
X0617475Y0143366D01*
X0617480Y0142167D02*
X0620073Y0142167D01*
X0620073Y0140969D02*
X0617485Y0140969D01*
X0617490Y0139770D02*
X0620073Y0139770D01*
X0620073Y0138572D02*
X0617495Y0138572D01*
X0617500Y0137373D02*
X0620073Y0137373D01*
X0620073Y0136175D02*
X0617505Y0136175D01*
X0617510Y0134976D02*
X0620073Y0134976D01*
X0620073Y0133778D02*
X0617515Y0133778D01*
X0617520Y0132579D02*
X0620073Y0132579D01*
X0620073Y0131381D02*
X0617525Y0131381D01*
X0618391Y0130182D02*
X0620073Y0130182D01*
X0620073Y0128984D02*
X0618895Y0128984D01*
X0618919Y0127785D02*
X0620073Y0127785D01*
X0620073Y0126587D02*
X0618507Y0126587D01*
X0617454Y0125388D02*
X0620073Y0125388D01*
X0622073Y0124435D02*
X0619318Y0121679D01*
X0617349Y0121679D01*
X0614233Y0122991D02*
X0607540Y0122991D01*
X0607540Y0122661D02*
X0607540Y0127720D01*
X0606720Y0128541D01*
X0599018Y0128541D01*
X0599990Y0129512D01*
X0599990Y0131841D01*
X0606720Y0131841D01*
X0607540Y0132661D01*
X0607540Y0137720D01*
X0606720Y0138541D01*
X0589260Y0138541D01*
X0588440Y0137720D01*
X0588440Y0133440D01*
X0587875Y0133207D01*
X0586924Y0132255D01*
X0586409Y0131013D01*
X0586409Y0129668D01*
X0586924Y0128425D01*
X0587875Y0127474D01*
X0588440Y0127240D01*
X0588440Y0122661D01*
X0589260Y0121841D01*
X0606720Y0121841D01*
X0607540Y0122661D01*
X0607540Y0124190D02*
X0615078Y0124190D01*
X0613622Y0125388D02*
X0607540Y0125388D01*
X0607540Y0126587D02*
X0612569Y0126587D01*
X0612157Y0127785D02*
X0607475Y0127785D01*
X0612181Y0128984D02*
X0599462Y0128984D01*
X0599990Y0130182D02*
X0612685Y0130182D01*
X0613525Y0131381D02*
X0599990Y0131381D01*
X0597990Y0130340D02*
X0597990Y0135191D01*
X0597990Y0130340D02*
X0589790Y0130340D01*
X0586692Y0128984D02*
X0580289Y0128984D01*
X0580573Y0130182D02*
X0586409Y0130182D01*
X0586561Y0131381D02*
X0580420Y0131381D01*
X0579734Y0132579D02*
X0582557Y0132579D01*
X0584425Y0132579D02*
X0587247Y0132579D01*
X0586198Y0133778D02*
X0588440Y0133778D01*
X0588440Y0134976D02*
X0586788Y0134976D01*
X0586872Y0136175D02*
X0588440Y0136175D01*
X0588440Y0137373D02*
X0587841Y0137373D01*
X0589039Y0138572D02*
X0613495Y0138572D01*
X0613490Y0139770D02*
X0599686Y0139770D01*
X0600058Y0140969D02*
X0613485Y0140969D01*
X0613480Y0142167D02*
X0607046Y0142167D01*
X0607540Y0143366D02*
X0613475Y0143366D01*
X0613470Y0144564D02*
X0607540Y0144564D01*
X0607540Y0145763D02*
X0613465Y0145763D01*
X0613460Y0146961D02*
X0607540Y0146961D01*
X0607100Y0148160D02*
X0613454Y0148160D01*
X0613449Y0149358D02*
X0602296Y0149358D01*
X0602620Y0150557D02*
X0613444Y0150557D01*
X0613439Y0151755D02*
X0602508Y0151755D01*
X0599239Y0150813D02*
X0599239Y0153941D01*
X0597990Y0155191D01*
X0595970Y0151755D02*
X0586672Y0151755D01*
X0586672Y0150557D02*
X0595858Y0150557D01*
X0596182Y0149358D02*
X0586751Y0149358D01*
X0586083Y0148160D02*
X0588879Y0148160D01*
X0588440Y0146961D02*
X0585244Y0146961D01*
X0584405Y0145763D02*
X0588440Y0145763D01*
X0588440Y0144564D02*
X0583566Y0144564D01*
X0582727Y0143366D02*
X0588440Y0143366D01*
X0586978Y0142167D02*
X0581888Y0142167D01*
X0582331Y0140969D02*
X0585779Y0140969D01*
X0584581Y0139770D02*
X0582541Y0139770D01*
X0579160Y0139789D02*
X0579160Y0141757D01*
X0584672Y0149631D01*
X0584672Y0185065D01*
X0597864Y0185065D01*
X0597990Y0185191D01*
X0588440Y0182917D02*
X0586672Y0182917D01*
X0586672Y0181718D02*
X0611962Y0181718D01*
X0613160Y0180520D02*
X0586672Y0180520D01*
X0586672Y0179321D02*
X0614359Y0179321D01*
X0615149Y0178123D02*
X0609317Y0178123D01*
X0609136Y0178123D02*
X0607137Y0178123D01*
X0609475Y0176009D02*
X0615381Y0165773D01*
X0615538Y0128254D01*
X0613520Y0132579D02*
X0607458Y0132579D01*
X0607540Y0133778D02*
X0613515Y0133778D01*
X0613510Y0134976D02*
X0607540Y0134976D01*
X0607540Y0136175D02*
X0613505Y0136175D01*
X0613500Y0137373D02*
X0607540Y0137373D01*
X0598058Y0140970D02*
X0598058Y0145122D01*
X0597990Y0145191D01*
X0598058Y0140970D02*
X0588609Y0140970D01*
X0583491Y0135852D01*
X0580110Y0136175D02*
X0579440Y0136175D01*
X0579440Y0134976D02*
X0580194Y0134976D01*
X0580783Y0133778D02*
X0579440Y0133778D01*
X0577192Y0130340D02*
X0570105Y0130340D01*
X0570105Y0134975D01*
X0569890Y0135191D01*
X0569475Y0138572D02*
X0554200Y0138572D01*
X0554588Y0139770D02*
X0569086Y0139770D01*
X0569133Y0140969D02*
X0555198Y0140969D01*
X0556596Y0142167D02*
X0560833Y0142167D01*
X0560340Y0143366D02*
X0557994Y0143366D01*
X0559392Y0144564D02*
X0560340Y0144564D01*
X0559475Y0147269D02*
X0551207Y0140183D01*
X0550026Y0139002D01*
X0548826Y0137373D02*
X0535085Y0137373D01*
X0536283Y0138572D02*
X0548026Y0138572D01*
X0547826Y0139770D02*
X0537482Y0139770D01*
X0538680Y0140969D02*
X0547873Y0140969D01*
X0548410Y0142167D02*
X0539879Y0142167D01*
X0541077Y0143366D02*
X0550057Y0143366D01*
X0548737Y0144564D02*
X0542276Y0144564D01*
X0542152Y0147269D02*
X0522861Y0127978D01*
X0525944Y0126587D02*
X0526296Y0126587D01*
X0526173Y0126288D02*
X0526173Y0124943D01*
X0526687Y0123701D01*
X0527639Y0122749D01*
X0528881Y0122235D01*
X0530226Y0122235D01*
X0531469Y0122749D01*
X0532420Y0123701D01*
X0532935Y0124943D01*
X0532935Y0126288D01*
X0532788Y0126644D01*
X0534791Y0129376D01*
X0535513Y0128655D01*
X0536755Y0128140D01*
X0538100Y0128140D01*
X0539343Y0128655D01*
X0540294Y0129606D01*
X0540809Y0130849D01*
X0540809Y0132194D01*
X0540294Y0133436D01*
X0539343Y0134388D01*
X0538100Y0134902D01*
X0536755Y0134902D01*
X0535513Y0134388D01*
X0534646Y0133521D01*
X0534539Y0133521D01*
X0534399Y0133624D01*
X0533732Y0133521D01*
X0533056Y0133521D01*
X0532933Y0133398D01*
X0532762Y0133372D01*
X0532362Y0132827D01*
X0531885Y0132350D01*
X0531885Y0132176D01*
X0529553Y0128997D01*
X0528881Y0128997D01*
X0527639Y0128482D01*
X0526687Y0127531D01*
X0526173Y0126288D01*
X0526173Y0125388D02*
X0525053Y0125388D01*
X0526485Y0124190D02*
X0521318Y0124190D01*
X0521318Y0122991D02*
X0527397Y0122991D01*
X0526363Y0122104D02*
X0523807Y0119548D01*
X0522582Y0119548D01*
X0521339Y0119033D01*
X0520388Y0118082D01*
X0519873Y0116839D01*
X0519873Y0115494D01*
X0520388Y0114252D01*
X0521339Y0113301D01*
X0522449Y0112841D01*
X0520554Y0110946D01*
X0517666Y0113834D01*
X0513441Y0113834D01*
X0510454Y0110846D01*
X0510454Y0106621D01*
X0513341Y0103734D01*
X0510454Y0100846D01*
X0510454Y0096621D01*
X0513341Y0093734D01*
X0510454Y0090846D01*
X0510454Y0086621D01*
X0513441Y0083634D01*
X0517666Y0083634D01*
X0520412Y0086380D01*
X0523358Y0083434D01*
X0525154Y0083434D01*
X0525154Y0088334D01*
X0525954Y0088334D01*
X0525954Y0089134D01*
X0530854Y0089134D01*
X0530854Y0090929D01*
X0527908Y0093875D01*
X0530654Y0096621D01*
X0530654Y0100846D01*
X0527766Y0103734D01*
X0530654Y0106621D01*
X0530654Y0110846D01*
X0527666Y0113834D01*
X0525703Y0113834D01*
X0526121Y0114252D01*
X0526636Y0115494D01*
X0526636Y0116720D01*
X0528020Y0118104D01*
X0540158Y0118104D01*
X0541024Y0117238D01*
X0542267Y0116723D01*
X0543612Y0116723D01*
X0544855Y0117238D01*
X0545806Y0118189D01*
X0546321Y0119431D01*
X0546321Y0120776D01*
X0545806Y0122019D01*
X0544855Y0122970D01*
X0543612Y0123485D01*
X0542267Y0123485D01*
X0541024Y0122970D01*
X0540158Y0122104D01*
X0526363Y0122104D01*
X0526052Y0121793D02*
X0520291Y0121793D01*
X0519093Y0120594D02*
X0524853Y0120594D01*
X0527192Y0120104D02*
X0523255Y0116167D01*
X0522214Y0119396D02*
X0517894Y0119396D01*
X0516696Y0118197D02*
X0520503Y0118197D01*
X0519939Y0116999D02*
X0515497Y0116999D01*
X0514299Y0115800D02*
X0519873Y0115800D01*
X0520243Y0114602D02*
X0513100Y0114602D01*
X0513010Y0113403D02*
X0511902Y0113403D01*
X0511812Y0112205D02*
X0510703Y0112205D01*
X0510613Y0111006D02*
X0509505Y0111006D01*
X0510454Y0109807D02*
X0508306Y0109807D01*
X0507108Y0108609D02*
X0510454Y0108609D01*
X0510454Y0107410D02*
X0505963Y0107410D01*
X0505963Y0106212D02*
X0510863Y0106212D01*
X0512062Y0105013D02*
X0505963Y0105013D01*
X0505963Y0103815D02*
X0513260Y0103815D01*
X0512224Y0102616D02*
X0505963Y0102616D01*
X0505963Y0101418D02*
X0511025Y0101418D01*
X0510454Y0100219D02*
X0505963Y0100219D01*
X0505963Y0099021D02*
X0510454Y0099021D01*
X0510454Y0097822D02*
X0505963Y0097822D01*
X0505963Y0096624D02*
X0510454Y0096624D01*
X0511650Y0095425D02*
X0505963Y0095425D01*
X0505963Y0094227D02*
X0512848Y0094227D01*
X0512636Y0093028D02*
X0505963Y0093028D01*
X0505963Y0091830D02*
X0511437Y0091830D01*
X0510454Y0090631D02*
X0506721Y0090631D01*
X0507281Y0089433D02*
X0510454Y0089433D01*
X0510454Y0088234D02*
X0507344Y0088234D01*
X0506972Y0087036D02*
X0510454Y0087036D01*
X0511238Y0085837D02*
X0505974Y0085837D01*
X0503963Y0088608D02*
X0503963Y0108293D01*
X0519318Y0123647D01*
X0519318Y0129553D01*
X0540184Y0150419D01*
X0555538Y0150419D01*
X0556043Y0146961D02*
X0554195Y0146961D01*
X0553849Y0145763D02*
X0554644Y0145763D01*
X0553246Y0144564D02*
X0552890Y0144564D01*
X0550814Y0147269D02*
X0542152Y0147269D01*
X0537428Y0153569D02*
X0514987Y0131128D01*
X0511928Y0132579D02*
X0494009Y0132579D01*
X0494009Y0131381D02*
X0511606Y0131381D01*
X0511719Y0130182D02*
X0494009Y0130182D01*
X0494009Y0128984D02*
X0512349Y0128984D01*
X0514221Y0127785D02*
X0494009Y0127785D01*
X0494009Y0126587D02*
X0517318Y0126587D01*
X0517318Y0127785D02*
X0515753Y0127785D01*
X0517318Y0125388D02*
X0494009Y0125388D01*
X0494009Y0124190D02*
X0517032Y0124190D01*
X0515833Y0122991D02*
X0494009Y0122991D01*
X0494009Y0121793D02*
X0514635Y0121793D01*
X0513436Y0120594D02*
X0494009Y0120594D01*
X0494009Y0119396D02*
X0512237Y0119396D01*
X0511039Y0118197D02*
X0494009Y0118197D01*
X0494009Y0116999D02*
X0509840Y0116999D01*
X0508642Y0115800D02*
X0494009Y0115800D01*
X0494009Y0114602D02*
X0507443Y0114602D01*
X0506245Y0113403D02*
X0494009Y0113403D01*
X0494009Y0112205D02*
X0505046Y0112205D01*
X0503848Y0111006D02*
X0494009Y0111006D01*
X0494009Y0109807D02*
X0502649Y0109807D01*
X0501963Y0108609D02*
X0494009Y0108609D01*
X0494009Y0107410D02*
X0501963Y0107410D01*
X0501963Y0106212D02*
X0494009Y0106212D01*
X0494009Y0105013D02*
X0501963Y0105013D01*
X0501963Y0103815D02*
X0494009Y0103815D01*
X0494009Y0102616D02*
X0501963Y0102616D01*
X0501963Y0101418D02*
X0494009Y0101418D01*
X0494009Y0100219D02*
X0501963Y0100219D01*
X0501963Y0099021D02*
X0494009Y0099021D01*
X0494009Y0097822D02*
X0501963Y0097822D01*
X0501963Y0096624D02*
X0494009Y0096624D01*
X0494009Y0095425D02*
X0501963Y0095425D01*
X0501963Y0094227D02*
X0494009Y0094227D01*
X0494009Y0093028D02*
X0501963Y0093028D01*
X0501963Y0091830D02*
X0494009Y0091830D01*
X0494009Y0090631D02*
X0501205Y0090631D01*
X0500645Y0089433D02*
X0494009Y0089433D01*
X0494009Y0088234D02*
X0500582Y0088234D01*
X0500955Y0087036D02*
X0494009Y0087036D01*
X0494009Y0085837D02*
X0501952Y0085837D01*
X0494009Y0084639D02*
X0512436Y0084639D01*
X0518671Y0084639D02*
X0522154Y0084639D01*
X0523352Y0083440D02*
X0494009Y0083440D01*
X0494009Y0082242D02*
X0538469Y0082242D01*
X0537271Y0081043D02*
X0494009Y0081043D01*
X0494009Y0079845D02*
X0536072Y0079845D01*
X0534874Y0078646D02*
X0494009Y0078646D01*
X0494009Y0077448D02*
X0533675Y0077448D01*
X0532477Y0076249D02*
X0494009Y0076249D01*
X0494009Y0075051D02*
X0531278Y0075051D01*
X0530080Y0073852D02*
X0494009Y0073852D01*
X0494009Y0072654D02*
X0528881Y0072654D01*
X0527683Y0071455D02*
X0494009Y0071455D01*
X0494009Y0070257D02*
X0526484Y0070257D01*
X0525286Y0069058D02*
X0494009Y0069058D01*
X0494009Y0067860D02*
X0524087Y0067860D01*
X0522889Y0066661D02*
X0494009Y0066661D01*
X0494009Y0065463D02*
X0521690Y0065463D01*
X0520492Y0064264D02*
X0494009Y0064264D01*
X0494009Y0063066D02*
X0519293Y0063066D01*
X0518095Y0061867D02*
X0494009Y0061867D01*
X0494009Y0060669D02*
X0516896Y0060669D01*
X0515698Y0059470D02*
X0494009Y0059470D01*
X0494009Y0058272D02*
X0514499Y0058272D01*
X0513301Y0057073D02*
X0494009Y0057073D01*
X0494009Y0055874D02*
X0512102Y0055874D01*
X0510904Y0054676D02*
X0494009Y0054676D01*
X0494009Y0053477D02*
X0509705Y0053477D01*
X0508656Y0052279D02*
X0494009Y0052279D01*
X0494009Y0051080D02*
X0508656Y0051080D01*
X0508656Y0049882D02*
X0494009Y0049882D01*
X0494009Y0048683D02*
X0508656Y0048683D01*
X0508656Y0047485D02*
X0494009Y0047485D01*
X0494009Y0046286D02*
X0508656Y0046286D01*
X0508656Y0045088D02*
X0494009Y0045088D01*
X0494009Y0043889D02*
X0508656Y0043889D01*
X0508656Y0042691D02*
X0494009Y0042691D01*
X0494009Y0041492D02*
X0508656Y0041492D01*
X0508656Y0040294D02*
X0494009Y0040294D01*
X0494009Y0039095D02*
X0508656Y0039095D01*
X0508656Y0037897D02*
X0494009Y0037897D01*
X0494009Y0036698D02*
X0508656Y0036698D01*
X0508656Y0035500D02*
X0494009Y0035500D01*
X0494009Y0034301D02*
X0507867Y0034301D01*
X0507325Y0033103D02*
X0494009Y0033103D01*
X0494009Y0031904D02*
X0507275Y0031904D01*
X0507660Y0030706D02*
X0504836Y0030706D01*
X0505255Y0030287D02*
X0504304Y0031238D01*
X0503061Y0031753D01*
X0501716Y0031753D01*
X0500473Y0031238D01*
X0499522Y0030287D01*
X0499007Y0029044D01*
X0499007Y0027699D01*
X0499522Y0026456D01*
X0500473Y0025505D01*
X0501716Y0024991D01*
X0502279Y0024991D01*
X0504147Y0023329D01*
X0504459Y0023018D01*
X0504532Y0022988D01*
X0504591Y0022935D01*
X0505007Y0022791D01*
X0505415Y0022622D01*
X0505494Y0022622D01*
X0505568Y0022596D01*
X0506008Y0022622D01*
X0545032Y0022622D01*
X0545987Y0023018D01*
X0546719Y0023749D01*
X0556955Y0033985D01*
X0557351Y0034941D01*
X0557351Y0037214D01*
X0557617Y0037480D01*
X0558132Y0038723D01*
X0558132Y0040068D01*
X0557617Y0041311D01*
X0556666Y0042262D01*
X0555423Y0042776D01*
X0554078Y0042776D01*
X0552835Y0042262D01*
X0551884Y0041311D01*
X0551370Y0040068D01*
X0551370Y0038723D01*
X0551884Y0037480D01*
X0552151Y0037214D01*
X0552151Y0036535D01*
X0543437Y0027822D01*
X0539691Y0027822D01*
X0540294Y0028425D01*
X0540809Y0029668D01*
X0540809Y0031013D01*
X0540294Y0032255D01*
X0539343Y0033207D01*
X0538100Y0033721D01*
X0536755Y0033721D01*
X0535513Y0033207D01*
X0535040Y0032734D01*
X0533123Y0032734D01*
X0532256Y0033600D01*
X0531014Y0034115D01*
X0529669Y0034115D01*
X0528426Y0033600D01*
X0527475Y0032649D01*
X0526960Y0031406D01*
X0526960Y0030061D01*
X0527475Y0028819D01*
X0528426Y0027867D01*
X0528536Y0027822D01*
X0506920Y0027822D01*
X0505770Y0028845D01*
X0505770Y0029044D01*
X0505255Y0030287D01*
X0505578Y0029507D02*
X0508676Y0029507D01*
X0506373Y0028309D02*
X0527985Y0028309D01*
X0527190Y0029507D02*
X0512636Y0029507D01*
X0513652Y0030706D02*
X0526960Y0030706D01*
X0527166Y0031904D02*
X0514037Y0031904D01*
X0513987Y0033103D02*
X0527929Y0033103D01*
X0530341Y0030734D02*
X0537034Y0030734D01*
X0537428Y0030340D01*
X0540440Y0031904D02*
X0547520Y0031904D01*
X0548718Y0033103D02*
X0539447Y0033103D01*
X0540809Y0030706D02*
X0546321Y0030706D01*
X0545123Y0029507D02*
X0540742Y0029507D01*
X0540178Y0028309D02*
X0543924Y0028309D01*
X0547683Y0024713D02*
X0556784Y0024713D01*
X0556772Y0024718D02*
X0558015Y0024203D01*
X0559360Y0024203D01*
X0560603Y0024718D01*
X0561469Y0025584D01*
X0568965Y0025584D01*
X0570540Y0027159D01*
X0571711Y0028331D01*
X0571711Y0031841D01*
X0578620Y0031841D01*
X0579440Y0032661D01*
X0579440Y0037720D01*
X0578620Y0038541D01*
X0571890Y0038541D01*
X0571890Y0041841D01*
X0578620Y0041841D01*
X0579440Y0042661D01*
X0579440Y0047720D01*
X0578620Y0048541D01*
X0571890Y0048541D01*
X0571890Y0051841D01*
X0578620Y0051841D01*
X0579440Y0052661D01*
X0579440Y0053191D01*
X0588440Y0053191D01*
X0588440Y0052661D01*
X0589260Y0051841D01*
X0595990Y0051841D01*
X0595990Y0048541D01*
X0589260Y0048541D01*
X0588440Y0047720D01*
X0588440Y0042661D01*
X0589260Y0041841D01*
X0595990Y0041841D01*
X0595990Y0038541D01*
X0589260Y0038541D01*
X0588440Y0037720D01*
X0588440Y0032661D01*
X0589260Y0031841D01*
X0595990Y0031841D01*
X0595990Y0028331D01*
X0597161Y0027159D01*
X0607859Y0027159D01*
X0608262Y0026756D01*
X0608262Y0022098D01*
X0607396Y0021232D01*
X0606881Y0019989D01*
X0606881Y0018644D01*
X0607396Y0017401D01*
X0608347Y0016450D01*
X0609590Y0015935D01*
X0610935Y0015935D01*
X0611982Y0016369D01*
X0611333Y0015720D01*
X0610999Y0014912D01*
X0608781Y0014230D01*
X0546902Y0014230D01*
X0546036Y0015096D01*
X0544793Y0015611D01*
X0543448Y0015611D01*
X0542205Y0015096D01*
X0541254Y0014145D01*
X0540740Y0012902D01*
X0540740Y0011557D01*
X0541254Y0010315D01*
X0542205Y0009364D01*
X0543448Y0008849D01*
X0544793Y0008849D01*
X0546036Y0009364D01*
X0546902Y0010230D01*
X0608585Y0010230D01*
X0608878Y0010075D01*
X0609382Y0010230D01*
X0609910Y0010230D01*
X0610144Y0010464D01*
X0612143Y0011079D01*
X0612284Y0010938D01*
X0613527Y0010424D01*
X0614872Y0010424D01*
X0616115Y0010938D01*
X0617066Y0011889D01*
X0617581Y0013132D01*
X0617581Y0014477D01*
X0617066Y0015720D01*
X0616115Y0016671D01*
X0614872Y0017186D01*
X0613527Y0017186D01*
X0612479Y0016752D01*
X0613129Y0017401D01*
X0613644Y0018644D01*
X0613644Y0019989D01*
X0613129Y0021232D01*
X0612262Y0022098D01*
X0612262Y0028413D01*
X0610688Y0029987D01*
X0609516Y0031159D01*
X0599990Y0031159D01*
X0599990Y0031841D01*
X0606720Y0031841D01*
X0607540Y0032661D01*
X0607540Y0037720D01*
X0606720Y0038541D01*
X0599990Y0038541D01*
X0599990Y0041841D01*
X0606720Y0041841D01*
X0607540Y0042661D01*
X0607540Y0047720D01*
X0606720Y0048541D01*
X0599990Y0048541D01*
X0599990Y0051841D01*
X0606720Y0051841D01*
X0607540Y0052661D01*
X0607540Y0053191D01*
X0612666Y0053191D01*
X0613837Y0054362D01*
X0613837Y0056692D01*
X0614704Y0057559D01*
X0615218Y0058801D01*
X0615218Y0060147D01*
X0614704Y0061389D01*
X0613752Y0062340D01*
X0612510Y0062855D01*
X0611165Y0062855D01*
X0609922Y0062340D01*
X0608971Y0061389D01*
X0608456Y0060147D01*
X0608456Y0058801D01*
X0608971Y0057559D01*
X0609339Y0057191D01*
X0607540Y0057191D01*
X0607540Y0057720D01*
X0606720Y0058541D01*
X0589260Y0058541D01*
X0588440Y0057720D01*
X0588440Y0057191D01*
X0579440Y0057191D01*
X0579440Y0057720D01*
X0578620Y0058541D01*
X0561160Y0058541D01*
X0560340Y0057720D01*
X0560340Y0052661D01*
X0561160Y0051841D01*
X0567890Y0051841D01*
X0567890Y0048541D01*
X0561160Y0048541D01*
X0560340Y0047720D01*
X0560340Y0042661D01*
X0561160Y0041841D01*
X0567890Y0041841D01*
X0567890Y0038541D01*
X0561160Y0038541D01*
X0560340Y0037720D01*
X0560340Y0032661D01*
X0561160Y0031841D01*
X0567711Y0031841D01*
X0567711Y0029987D01*
X0567308Y0029584D01*
X0561469Y0029584D01*
X0560603Y0030451D01*
X0559360Y0030965D01*
X0558015Y0030965D01*
X0556772Y0030451D01*
X0555821Y0029499D01*
X0555307Y0028257D01*
X0555307Y0026912D01*
X0555821Y0025669D01*
X0556772Y0024718D01*
X0555721Y0025912D02*
X0548881Y0025912D01*
X0550080Y0027110D02*
X0555307Y0027110D01*
X0555328Y0028309D02*
X0551278Y0028309D01*
X0552477Y0029507D02*
X0555829Y0029507D01*
X0557388Y0030706D02*
X0553675Y0030706D01*
X0554874Y0031904D02*
X0561096Y0031904D01*
X0560340Y0033103D02*
X0556072Y0033103D01*
X0557086Y0034301D02*
X0560340Y0034301D01*
X0560340Y0035500D02*
X0557351Y0035500D01*
X0557351Y0036698D02*
X0560340Y0036698D01*
X0560516Y0037897D02*
X0557790Y0037897D01*
X0558132Y0039095D02*
X0567890Y0039095D01*
X0567890Y0040294D02*
X0558038Y0040294D01*
X0557435Y0041492D02*
X0567890Y0041492D01*
X0571890Y0041492D02*
X0595990Y0041492D01*
X0595990Y0040294D02*
X0571890Y0040294D01*
X0571890Y0039095D02*
X0595990Y0039095D01*
X0599990Y0039095D02*
X0665886Y0039095D01*
X0665886Y0037897D02*
X0607363Y0037897D01*
X0607540Y0036698D02*
X0665886Y0036698D01*
X0665886Y0035500D02*
X0607540Y0035500D01*
X0607540Y0034301D02*
X0665886Y0034301D01*
X0665886Y0033103D02*
X0607540Y0033103D01*
X0606783Y0031904D02*
X0665886Y0031904D01*
X0665886Y0030706D02*
X0609969Y0030706D01*
X0611168Y0029507D02*
X0665886Y0029507D01*
X0665886Y0028309D02*
X0612262Y0028309D01*
X0612262Y0027110D02*
X0665886Y0027110D01*
X0665886Y0025912D02*
X0612262Y0025912D01*
X0612262Y0024713D02*
X0615479Y0024713D01*
X0615507Y0024741D02*
X0614389Y0023623D01*
X0613784Y0022162D01*
X0613784Y0020581D01*
X0614389Y0019120D01*
X0615507Y0018002D01*
X0616968Y0017397D01*
X0618549Y0017397D01*
X0620010Y0018002D01*
X0621128Y0019120D01*
X0621733Y0020581D01*
X0621733Y0022162D01*
X0621128Y0023623D01*
X0620010Y0024741D01*
X0618549Y0025346D01*
X0616968Y0025346D01*
X0615507Y0024741D01*
X0614344Y0023515D02*
X0612262Y0023515D01*
X0612262Y0022316D02*
X0613847Y0022316D01*
X0613784Y0021118D02*
X0613176Y0021118D01*
X0613644Y0019919D02*
X0614058Y0019919D01*
X0613644Y0018721D02*
X0614788Y0018721D01*
X0613179Y0017522D02*
X0616665Y0017522D01*
X0616462Y0016324D02*
X0665886Y0016324D01*
X0665886Y0017522D02*
X0618852Y0017522D01*
X0620729Y0018721D02*
X0665886Y0018721D01*
X0665886Y0019919D02*
X0621459Y0019919D01*
X0621733Y0021118D02*
X0665886Y0021118D01*
X0665886Y0022316D02*
X0621670Y0022316D01*
X0621173Y0023515D02*
X0665886Y0023515D01*
X0665886Y0024713D02*
X0620038Y0024713D01*
X0610262Y0027584D02*
X0610262Y0019317D01*
X0608653Y0016324D02*
X0494009Y0016324D01*
X0494009Y0017522D02*
X0607346Y0017522D01*
X0606881Y0018721D02*
X0494009Y0018721D01*
X0494009Y0019919D02*
X0606881Y0019919D01*
X0607349Y0021118D02*
X0494009Y0021118D01*
X0494009Y0022316D02*
X0608262Y0022316D01*
X0608262Y0023515D02*
X0546484Y0023515D01*
X0545966Y0015125D02*
X0611087Y0015125D01*
X0611872Y0016324D02*
X0611937Y0016324D01*
X0614199Y0013805D02*
X0609081Y0012230D01*
X0544121Y0012230D01*
X0545478Y0009133D02*
X0665886Y0009133D01*
X0665886Y0010331D02*
X0610011Y0010331D01*
X0616706Y0011530D02*
X0665886Y0011530D01*
X0665886Y0012728D02*
X0617413Y0012728D01*
X0617581Y0013927D02*
X0665886Y0013927D01*
X0665886Y0015125D02*
X0617312Y0015125D01*
X0626010Y0013805D02*
X0626798Y0011443D01*
X0608262Y0024713D02*
X0560592Y0024713D01*
X0558688Y0027584D02*
X0568136Y0027584D01*
X0569711Y0029159D01*
X0569711Y0035012D01*
X0569890Y0035191D01*
X0569890Y0045191D01*
X0569890Y0055191D01*
X0597990Y0055191D01*
X0611837Y0055191D01*
X0611837Y0059474D01*
X0608456Y0059470D02*
X0521355Y0059470D01*
X0522553Y0060669D02*
X0608672Y0060669D01*
X0609449Y0061867D02*
X0606961Y0061867D01*
X0607122Y0061960D02*
X0607420Y0062258D01*
X0607631Y0062623D01*
X0607740Y0063030D01*
X0607740Y0064816D01*
X0598365Y0064816D01*
X0598365Y0065566D01*
X0597615Y0065566D01*
X0597615Y0068741D01*
X0589629Y0068741D01*
X0589222Y0068632D01*
X0588857Y0068421D01*
X0588559Y0068123D01*
X0588349Y0067758D01*
X0588240Y0067351D01*
X0588240Y0065566D01*
X0597615Y0065566D01*
X0597615Y0064816D01*
X0588240Y0064816D01*
X0588240Y0063030D01*
X0588349Y0062623D01*
X0588559Y0062258D01*
X0588857Y0061960D01*
X0589222Y0061750D01*
X0589629Y0061641D01*
X0597615Y0061641D01*
X0597615Y0064815D01*
X0598365Y0064815D01*
X0598365Y0061641D01*
X0606350Y0061641D01*
X0606757Y0061750D01*
X0607122Y0061960D01*
X0607740Y0063066D02*
X0665886Y0063066D01*
X0665886Y0064264D02*
X0607740Y0064264D01*
X0607740Y0065566D02*
X0607740Y0067351D01*
X0607631Y0067758D01*
X0607420Y0068123D01*
X0607122Y0068421D01*
X0606757Y0068632D01*
X0606350Y0068741D01*
X0598365Y0068741D01*
X0598365Y0065566D01*
X0607740Y0065566D01*
X0607740Y0066661D02*
X0665886Y0066661D01*
X0665886Y0065463D02*
X0598365Y0065463D01*
X0597615Y0065463D02*
X0570265Y0065463D01*
X0570265Y0065566D02*
X0579640Y0065566D01*
X0579640Y0067351D01*
X0579531Y0067758D01*
X0579320Y0068123D01*
X0579022Y0068421D01*
X0578657Y0068632D01*
X0578250Y0068741D01*
X0570265Y0068741D01*
X0570265Y0065566D01*
X0569515Y0065566D01*
X0569515Y0068741D01*
X0561529Y0068741D01*
X0561122Y0068632D01*
X0560757Y0068421D01*
X0560459Y0068123D01*
X0560249Y0067758D01*
X0560140Y0067351D01*
X0560140Y0065566D01*
X0569515Y0065566D01*
X0569515Y0064816D01*
X0560140Y0064816D01*
X0560140Y0063030D01*
X0560249Y0062623D01*
X0560459Y0062258D01*
X0560757Y0061960D01*
X0561122Y0061750D01*
X0561529Y0061641D01*
X0569515Y0061641D01*
X0569515Y0064815D01*
X0570265Y0064815D01*
X0570265Y0061641D01*
X0578250Y0061641D01*
X0578657Y0061750D01*
X0579022Y0061960D01*
X0579320Y0062258D01*
X0579531Y0062623D01*
X0579640Y0063030D01*
X0579640Y0064816D01*
X0570265Y0064816D01*
X0570265Y0065566D01*
X0569515Y0065463D02*
X0527347Y0065463D01*
X0528546Y0066661D02*
X0560140Y0066661D01*
X0560307Y0067860D02*
X0529744Y0067860D01*
X0530943Y0069058D02*
X0665886Y0069058D01*
X0665886Y0067860D02*
X0607572Y0067860D01*
X0606720Y0071841D02*
X0607540Y0072661D01*
X0607540Y0077720D01*
X0606720Y0078541D01*
X0589260Y0078541D01*
X0588440Y0077720D01*
X0588440Y0072661D01*
X0589260Y0071841D01*
X0606720Y0071841D01*
X0607533Y0072654D02*
X0665886Y0072654D01*
X0665886Y0073852D02*
X0607540Y0073852D01*
X0607540Y0075051D02*
X0665886Y0075051D01*
X0665886Y0076249D02*
X0607540Y0076249D01*
X0607540Y0077448D02*
X0665886Y0077448D01*
X0665886Y0078646D02*
X0575195Y0078646D01*
X0575151Y0078541D02*
X0575455Y0079274D01*
X0575455Y0080619D01*
X0574949Y0081841D01*
X0578620Y0081841D01*
X0579440Y0082661D01*
X0579440Y0087720D01*
X0578620Y0088541D01*
X0561160Y0088541D01*
X0560340Y0087720D01*
X0560340Y0082661D01*
X0561160Y0081841D01*
X0569198Y0081841D01*
X0568692Y0080619D01*
X0568692Y0079274D01*
X0568996Y0078541D01*
X0561160Y0078541D01*
X0561022Y0078403D01*
X0557941Y0078403D01*
X0557538Y0078806D01*
X0557538Y0084645D01*
X0558404Y0085512D01*
X0558919Y0086754D01*
X0558919Y0088099D01*
X0558404Y0089342D01*
X0557453Y0090293D01*
X0556211Y0090808D01*
X0554866Y0090808D01*
X0553623Y0090293D01*
X0552672Y0089342D01*
X0552157Y0088099D01*
X0552157Y0086754D01*
X0552672Y0085512D01*
X0553538Y0084645D01*
X0553538Y0077150D01*
X0555113Y0075575D01*
X0556284Y0074403D01*
X0560340Y0074403D01*
X0560340Y0072661D01*
X0561160Y0071841D01*
X0578620Y0071841D01*
X0579440Y0072661D01*
X0579440Y0077720D01*
X0578620Y0078541D01*
X0575151Y0078541D01*
X0575455Y0079845D02*
X0665886Y0079845D01*
X0665886Y0081043D02*
X0575279Y0081043D01*
X0572073Y0079946D02*
X0572073Y0083007D01*
X0569890Y0085191D01*
X0568868Y0081043D02*
X0557538Y0081043D01*
X0557538Y0079845D02*
X0568692Y0079845D01*
X0568952Y0078646D02*
X0557698Y0078646D01*
X0555538Y0077978D02*
X0557113Y0076403D01*
X0568677Y0076403D01*
X0569890Y0075191D01*
X0560340Y0073852D02*
X0535737Y0073852D01*
X0536935Y0075051D02*
X0555637Y0075051D01*
X0554438Y0076249D02*
X0538134Y0076249D01*
X0539332Y0077448D02*
X0553538Y0077448D01*
X0553538Y0078646D02*
X0540531Y0078646D01*
X0541729Y0079845D02*
X0553538Y0079845D01*
X0553538Y0081043D02*
X0542928Y0081043D01*
X0543759Y0082242D02*
X0553538Y0082242D01*
X0553538Y0083440D02*
X0543759Y0083440D01*
X0543759Y0084639D02*
X0553538Y0084639D01*
X0552537Y0085837D02*
X0543759Y0085837D01*
X0543759Y0087036D02*
X0552157Y0087036D01*
X0552213Y0088234D02*
X0543759Y0088234D01*
X0543759Y0089433D02*
X0552762Y0089433D01*
X0554439Y0090631D02*
X0543759Y0090631D01*
X0543759Y0091830D02*
X0581786Y0091830D01*
X0581969Y0091647D02*
X0583212Y0091132D01*
X0584557Y0091132D01*
X0585800Y0091647D01*
X0586751Y0092598D01*
X0587266Y0093841D01*
X0587266Y0095186D01*
X0586751Y0096429D01*
X0586729Y0096450D01*
X0588440Y0096450D01*
X0588440Y0092661D01*
X0589260Y0091841D01*
X0606720Y0091841D01*
X0607540Y0092661D01*
X0607540Y0096450D01*
X0619670Y0096450D01*
X0626960Y0089161D01*
X0626960Y0087935D01*
X0627475Y0086693D01*
X0628426Y0085742D01*
X0629669Y0085227D01*
X0631014Y0085227D01*
X0632256Y0085742D01*
X0633208Y0086693D01*
X0633722Y0087935D01*
X0633722Y0089280D01*
X0633208Y0090523D01*
X0632256Y0091474D01*
X0631014Y0091989D01*
X0629789Y0091989D01*
X0621327Y0100450D01*
X0560682Y0100450D01*
X0559815Y0101317D01*
X0558573Y0101831D01*
X0557228Y0101831D01*
X0555985Y0101317D01*
X0555034Y0100366D01*
X0554519Y0099123D01*
X0554519Y0097778D01*
X0555034Y0096535D01*
X0555985Y0095584D01*
X0557228Y0095069D01*
X0558573Y0095069D01*
X0559815Y0095584D01*
X0560340Y0096108D01*
X0560340Y0092661D01*
X0561160Y0091841D01*
X0578620Y0091841D01*
X0579292Y0092513D01*
X0581103Y0092513D01*
X0581969Y0091647D01*
X0583885Y0094513D02*
X0572756Y0094513D01*
X0569890Y0095191D01*
X0560340Y0095425D02*
X0559432Y0095425D01*
X0560340Y0094227D02*
X0543759Y0094227D01*
X0543759Y0095425D02*
X0556368Y0095425D01*
X0554997Y0096624D02*
X0543759Y0096624D01*
X0543759Y0097822D02*
X0554519Y0097822D01*
X0554519Y0099021D02*
X0543759Y0099021D01*
X0544781Y0100219D02*
X0554973Y0100219D01*
X0556229Y0101418D02*
X0545980Y0101418D01*
X0547178Y0102616D02*
X0560384Y0102616D01*
X0559571Y0101418D02*
X0665886Y0101418D01*
X0665886Y0102616D02*
X0607495Y0102616D01*
X0607540Y0102661D02*
X0607540Y0107720D01*
X0606720Y0108541D01*
X0589260Y0108541D01*
X0588440Y0107720D01*
X0588440Y0102661D01*
X0589260Y0101841D01*
X0606720Y0101841D01*
X0607540Y0102661D01*
X0607540Y0103815D02*
X0665886Y0103815D01*
X0665886Y0105013D02*
X0607540Y0105013D01*
X0607540Y0106212D02*
X0665886Y0106212D01*
X0665886Y0107410D02*
X0617705Y0107410D01*
X0617690Y0107395D02*
X0618556Y0108261D01*
X0628414Y0108261D01*
X0631757Y0111605D01*
X0632982Y0111605D01*
X0634225Y0112119D01*
X0635176Y0113071D01*
X0635691Y0114313D01*
X0635691Y0115658D01*
X0635176Y0116901D01*
X0634225Y0117852D01*
X0632982Y0118367D01*
X0631637Y0118367D01*
X0630394Y0117852D01*
X0629443Y0116901D01*
X0628929Y0115658D01*
X0628929Y0114433D01*
X0626757Y0112261D01*
X0618556Y0112261D01*
X0617690Y0113128D01*
X0616447Y0113643D01*
X0615102Y0113643D01*
X0613859Y0113128D01*
X0612908Y0112177D01*
X0612393Y0110934D01*
X0612393Y0109589D01*
X0612908Y0108346D01*
X0613859Y0107395D01*
X0615102Y0106880D01*
X0616447Y0106880D01*
X0617690Y0107395D01*
X0615774Y0110261D02*
X0627585Y0110261D01*
X0632310Y0114986D01*
X0633392Y0118197D02*
X0665886Y0118197D01*
X0665886Y0116999D02*
X0635079Y0116999D01*
X0635632Y0115800D02*
X0665886Y0115800D01*
X0665886Y0114602D02*
X0635691Y0114602D01*
X0635314Y0113403D02*
X0665886Y0113403D01*
X0665886Y0112205D02*
X0634310Y0112205D01*
X0631158Y0111006D02*
X0665886Y0111006D01*
X0665886Y0109807D02*
X0629960Y0109807D01*
X0628761Y0108609D02*
X0665886Y0108609D01*
X0665886Y0100219D02*
X0621558Y0100219D01*
X0622757Y0099021D02*
X0665886Y0099021D01*
X0665886Y0097822D02*
X0623955Y0097822D01*
X0625154Y0096624D02*
X0665886Y0096624D01*
X0665886Y0095425D02*
X0626352Y0095425D01*
X0627551Y0094227D02*
X0665886Y0094227D01*
X0665886Y0093028D02*
X0628749Y0093028D01*
X0631398Y0091830D02*
X0665886Y0091830D01*
X0665886Y0090631D02*
X0633099Y0090631D01*
X0633659Y0089433D02*
X0665886Y0089433D01*
X0665886Y0088234D02*
X0633722Y0088234D01*
X0633350Y0087036D02*
X0665886Y0087036D01*
X0665886Y0085837D02*
X0632352Y0085837D01*
X0630341Y0088608D02*
X0620499Y0098450D01*
X0557900Y0098450D01*
X0560340Y0093028D02*
X0543759Y0093028D01*
X0539759Y0093028D02*
X0528755Y0093028D01*
X0528259Y0094227D02*
X0539759Y0094227D01*
X0539759Y0095425D02*
X0529458Y0095425D01*
X0530654Y0096624D02*
X0539759Y0096624D01*
X0539759Y0097822D02*
X0539613Y0097822D01*
X0541759Y0100025D02*
X0551601Y0109868D01*
X0551601Y0133490D01*
X0551995Y0133883D01*
X0555114Y0132579D02*
X0560421Y0132579D01*
X0560340Y0133778D02*
X0555376Y0133778D01*
X0555202Y0134976D02*
X0560340Y0134976D01*
X0560340Y0136175D02*
X0554485Y0136175D01*
X0553180Y0137373D02*
X0560340Y0137373D01*
X0558688Y0140576D02*
X0557507Y0140576D01*
X0557113Y0140183D01*
X0549504Y0136175D02*
X0533886Y0136175D01*
X0532688Y0134976D02*
X0548788Y0134976D01*
X0548614Y0133778D02*
X0539953Y0133778D01*
X0540649Y0132579D02*
X0548875Y0132579D01*
X0549601Y0131381D02*
X0540809Y0131381D01*
X0540533Y0130182D02*
X0549601Y0130182D01*
X0549601Y0128984D02*
X0539672Y0128984D01*
X0537428Y0131521D02*
X0533885Y0131521D01*
X0529554Y0125616D01*
X0532623Y0124190D02*
X0549601Y0124190D01*
X0549601Y0125388D02*
X0532935Y0125388D01*
X0532811Y0126587D02*
X0549601Y0126587D01*
X0549601Y0127785D02*
X0533625Y0127785D01*
X0534504Y0128984D02*
X0535184Y0128984D01*
X0531301Y0131381D02*
X0529092Y0131381D01*
X0530291Y0132579D02*
X0532114Y0132579D01*
X0531489Y0133778D02*
X0534903Y0133778D01*
X0530422Y0130182D02*
X0527894Y0130182D01*
X0528849Y0128984D02*
X0526695Y0128984D01*
X0526942Y0127785D02*
X0526242Y0127785D01*
X0531711Y0122991D02*
X0541075Y0122991D01*
X0542940Y0120104D02*
X0527192Y0120104D01*
X0526915Y0116999D02*
X0541601Y0116999D01*
X0544278Y0116999D02*
X0549601Y0116999D01*
X0549601Y0118197D02*
X0545809Y0118197D01*
X0546306Y0119396D02*
X0549601Y0119396D01*
X0549601Y0120594D02*
X0546321Y0120594D01*
X0545900Y0121793D02*
X0549601Y0121793D01*
X0549601Y0122991D02*
X0544805Y0122991D01*
X0553601Y0122991D02*
X0560340Y0122991D01*
X0560340Y0124190D02*
X0553601Y0124190D01*
X0553601Y0125388D02*
X0560340Y0125388D01*
X0560340Y0126587D02*
X0553601Y0126587D01*
X0553601Y0127785D02*
X0560404Y0127785D01*
X0559418Y0121793D02*
X0570267Y0121793D01*
X0570275Y0120594D02*
X0560243Y0120594D01*
X0560494Y0119396D02*
X0570771Y0119396D01*
X0573648Y0121285D02*
X0571286Y0124828D01*
X0572073Y0125222D01*
X0569711Y0125012D01*
X0569890Y0125191D01*
X0568633Y0128984D02*
X0553601Y0128984D01*
X0553601Y0130182D02*
X0568105Y0130182D01*
X0568105Y0131381D02*
X0554274Y0131381D01*
X0554807Y0121793D02*
X0553601Y0121793D01*
X0553601Y0120594D02*
X0553982Y0120594D01*
X0553732Y0119396D02*
X0553601Y0119396D01*
X0553601Y0118197D02*
X0553917Y0118197D01*
X0553601Y0116999D02*
X0554649Y0116999D01*
X0555113Y0115800D02*
X0553601Y0115800D01*
X0553601Y0114602D02*
X0555113Y0114602D01*
X0555113Y0113403D02*
X0553601Y0113403D01*
X0553601Y0112205D02*
X0555113Y0112205D01*
X0555113Y0111006D02*
X0553601Y0111006D01*
X0553601Y0109807D02*
X0555113Y0109807D01*
X0555113Y0108609D02*
X0553171Y0108609D01*
X0551972Y0107410D02*
X0555113Y0107410D01*
X0555113Y0106212D02*
X0550774Y0106212D01*
X0549575Y0105013D02*
X0555202Y0105013D01*
X0556400Y0103815D02*
X0548377Y0103815D01*
X0546089Y0109080D02*
X0537428Y0100419D01*
X0534347Y0099021D02*
X0530654Y0099021D01*
X0530654Y0100219D02*
X0534047Y0100219D01*
X0534182Y0101418D02*
X0530082Y0101418D01*
X0528884Y0102616D02*
X0534844Y0102616D01*
X0537995Y0103815D02*
X0527847Y0103815D01*
X0529046Y0105013D02*
X0539194Y0105013D01*
X0540392Y0106212D02*
X0530244Y0106212D01*
X0530654Y0107410D02*
X0541591Y0107410D01*
X0542708Y0108609D02*
X0530654Y0108609D01*
X0530654Y0109807D02*
X0542731Y0109807D01*
X0543233Y0111006D02*
X0530494Y0111006D01*
X0529296Y0112205D02*
X0544797Y0112205D01*
X0547382Y0112205D02*
X0549601Y0112205D01*
X0549601Y0113403D02*
X0528097Y0113403D01*
X0526266Y0114602D02*
X0549601Y0114602D01*
X0549601Y0115800D02*
X0526636Y0115800D01*
X0521237Y0113403D02*
X0518097Y0113403D01*
X0519296Y0112205D02*
X0521812Y0112205D01*
X0520613Y0111006D02*
X0520494Y0111006D01*
X0541759Y0100025D02*
X0541759Y0082702D01*
X0510656Y0051600D01*
X0510656Y0032309D01*
X0513445Y0034301D02*
X0549917Y0034301D01*
X0551115Y0035500D02*
X0512656Y0035500D01*
X0512656Y0036698D02*
X0552151Y0036698D01*
X0551712Y0037897D02*
X0512656Y0037897D01*
X0512656Y0039095D02*
X0551370Y0039095D01*
X0551463Y0040294D02*
X0512656Y0040294D01*
X0512656Y0041492D02*
X0552066Y0041492D01*
X0553872Y0042691D02*
X0512656Y0042691D01*
X0512656Y0043889D02*
X0560340Y0043889D01*
X0560340Y0042691D02*
X0555630Y0042691D01*
X0560340Y0045088D02*
X0512656Y0045088D01*
X0512656Y0046286D02*
X0560340Y0046286D01*
X0560340Y0047485D02*
X0512656Y0047485D01*
X0512656Y0048683D02*
X0567890Y0048683D01*
X0567890Y0049882D02*
X0512656Y0049882D01*
X0512965Y0051080D02*
X0567890Y0051080D01*
X0571890Y0051080D02*
X0595990Y0051080D01*
X0595990Y0049882D02*
X0571890Y0049882D01*
X0571890Y0048683D02*
X0595990Y0048683D01*
X0599990Y0048683D02*
X0665886Y0048683D01*
X0665886Y0047485D02*
X0607540Y0047485D01*
X0607540Y0046286D02*
X0665886Y0046286D01*
X0665886Y0045088D02*
X0607540Y0045088D01*
X0607540Y0043889D02*
X0665886Y0043889D01*
X0665886Y0042691D02*
X0607540Y0042691D01*
X0599990Y0041492D02*
X0665886Y0041492D01*
X0665886Y0040294D02*
X0599990Y0040294D01*
X0597990Y0045191D02*
X0597990Y0055191D01*
X0599990Y0051080D02*
X0665886Y0051080D01*
X0665886Y0049882D02*
X0599990Y0049882D01*
X0607158Y0052279D02*
X0665886Y0052279D01*
X0665886Y0053477D02*
X0612953Y0053477D01*
X0613837Y0054676D02*
X0665886Y0054676D01*
X0665886Y0055874D02*
X0613837Y0055874D01*
X0614218Y0057073D02*
X0665886Y0057073D01*
X0665886Y0058272D02*
X0614999Y0058272D01*
X0615218Y0059470D02*
X0665886Y0059470D01*
X0665886Y0060669D02*
X0615002Y0060669D01*
X0614226Y0061867D02*
X0665886Y0061867D01*
X0665886Y0070257D02*
X0532141Y0070257D01*
X0533340Y0071455D02*
X0665886Y0071455D01*
X0654357Y0074828D02*
X0653570Y0074041D01*
X0653570Y0072072D01*
X0665886Y0082242D02*
X0607121Y0082242D01*
X0606720Y0081841D02*
X0607540Y0082661D01*
X0607540Y0087720D01*
X0606720Y0088541D01*
X0589260Y0088541D01*
X0588440Y0087720D01*
X0588440Y0082661D01*
X0589260Y0081841D01*
X0606720Y0081841D01*
X0607540Y0083440D02*
X0665886Y0083440D01*
X0665886Y0084639D02*
X0607540Y0084639D01*
X0607540Y0085837D02*
X0628330Y0085837D01*
X0627333Y0087036D02*
X0607540Y0087036D01*
X0607026Y0088234D02*
X0626960Y0088234D01*
X0626688Y0089433D02*
X0558314Y0089433D01*
X0558863Y0088234D02*
X0560853Y0088234D01*
X0560340Y0087036D02*
X0558919Y0087036D01*
X0558539Y0085837D02*
X0560340Y0085837D01*
X0560340Y0084639D02*
X0557538Y0084639D01*
X0557538Y0083440D02*
X0560340Y0083440D01*
X0560759Y0082242D02*
X0557538Y0082242D01*
X0555538Y0077978D02*
X0555538Y0087427D01*
X0556637Y0090631D02*
X0625489Y0090631D01*
X0624291Y0091830D02*
X0585983Y0091830D01*
X0586929Y0093028D02*
X0588440Y0093028D01*
X0588440Y0094227D02*
X0587266Y0094227D01*
X0587166Y0095425D02*
X0588440Y0095425D01*
X0588484Y0102616D02*
X0579395Y0102616D01*
X0579440Y0103815D02*
X0588440Y0103815D01*
X0588440Y0105013D02*
X0579440Y0105013D01*
X0579440Y0106212D02*
X0588440Y0106212D01*
X0588440Y0107410D02*
X0579440Y0107410D01*
X0582310Y0109080D02*
X0583491Y0109080D01*
X0578983Y0112205D02*
X0588896Y0112205D01*
X0589260Y0111841D02*
X0606720Y0111841D01*
X0607540Y0112661D01*
X0607540Y0117720D01*
X0606720Y0118541D01*
X0589260Y0118541D01*
X0588440Y0117720D01*
X0588440Y0112661D01*
X0589260Y0111841D01*
X0588440Y0113403D02*
X0579440Y0113403D01*
X0579440Y0114602D02*
X0588440Y0114602D01*
X0588440Y0115800D02*
X0579440Y0115800D01*
X0579440Y0116999D02*
X0588440Y0116999D01*
X0588916Y0118197D02*
X0578963Y0118197D01*
X0576525Y0119396D02*
X0614851Y0119396D01*
X0614139Y0120594D02*
X0577022Y0120594D01*
X0577029Y0121793D02*
X0613968Y0121793D01*
X0619848Y0119396D02*
X0665886Y0119396D01*
X0665886Y0120594D02*
X0621061Y0120594D01*
X0622260Y0121793D02*
X0665886Y0121793D01*
X0665886Y0122991D02*
X0623458Y0122991D01*
X0624073Y0124190D02*
X0665886Y0124190D01*
X0665886Y0125388D02*
X0624073Y0125388D01*
X0624073Y0126587D02*
X0665886Y0126587D01*
X0665886Y0127785D02*
X0624073Y0127785D01*
X0624073Y0128984D02*
X0665886Y0128984D01*
X0665886Y0130182D02*
X0624073Y0130182D01*
X0624073Y0131381D02*
X0665886Y0131381D01*
X0665886Y0132579D02*
X0624073Y0132579D01*
X0624073Y0133778D02*
X0665886Y0133778D01*
X0665886Y0134976D02*
X0624073Y0134976D01*
X0624073Y0136175D02*
X0665886Y0136175D01*
X0665886Y0137373D02*
X0624073Y0137373D01*
X0625617Y0140576D02*
X0627192Y0140576D01*
X0639396Y0142545D02*
X0639396Y0186246D01*
X0636640Y0189002D01*
X0633515Y0187711D02*
X0632012Y0187711D01*
X0632040Y0188909D02*
X0633259Y0188909D01*
X0633439Y0190108D02*
X0631801Y0190108D01*
X0631212Y0191306D02*
X0634164Y0191306D01*
X0631037Y0193703D02*
X0650156Y0193703D01*
X0649659Y0194902D02*
X0631729Y0194902D01*
X0632040Y0196100D02*
X0649587Y0196100D01*
X0649852Y0197299D02*
X0632040Y0197299D01*
X0631588Y0198497D02*
X0650570Y0198497D01*
X0652417Y0199696D02*
X0630696Y0199696D01*
X0630354Y0200894D02*
X0651814Y0200894D01*
X0650274Y0202093D02*
X0631446Y0202093D01*
X0631942Y0203291D02*
X0649684Y0203291D01*
X0649508Y0204490D02*
X0632040Y0204490D01*
X0631871Y0205688D02*
X0649671Y0205688D01*
X0650243Y0206887D02*
X0631374Y0206887D01*
X0630181Y0208085D02*
X0651739Y0208085D01*
X0651303Y0192505D02*
X0629844Y0192505D01*
X0625437Y0192505D02*
X0623292Y0192505D01*
X0623486Y0192036D02*
X0622971Y0193279D01*
X0622105Y0194145D01*
X0622105Y0205905D01*
X0622971Y0206771D01*
X0623486Y0208014D01*
X0623486Y0209359D01*
X0622971Y0210602D01*
X0622020Y0211553D01*
X0620778Y0212068D01*
X0619432Y0212068D01*
X0618190Y0211553D01*
X0617239Y0210602D01*
X0616724Y0209359D01*
X0616724Y0208014D01*
X0617239Y0206771D01*
X0618105Y0205905D01*
X0618105Y0194145D01*
X0617239Y0193279D01*
X0616724Y0192036D01*
X0616724Y0190691D01*
X0617239Y0189449D01*
X0618190Y0188497D01*
X0619432Y0187983D01*
X0620778Y0187983D01*
X0622020Y0188497D01*
X0622971Y0189449D01*
X0623486Y0190691D01*
X0623486Y0192036D01*
X0623486Y0191306D02*
X0624069Y0191306D01*
X0623480Y0190108D02*
X0623244Y0190108D01*
X0623240Y0188909D02*
X0622432Y0188909D01*
X0623269Y0187711D02*
X0611626Y0187711D01*
X0612824Y0186512D02*
X0623766Y0186512D01*
X0624759Y0185314D02*
X0614023Y0185314D01*
X0615221Y0184115D02*
X0637396Y0184115D01*
X0637396Y0182917D02*
X0616420Y0182917D01*
X0617618Y0181718D02*
X0637396Y0181718D01*
X0637396Y0180520D02*
X0620770Y0180520D01*
X0621633Y0179321D02*
X0637396Y0179321D01*
X0637396Y0178123D02*
X0621911Y0178123D01*
X0621753Y0176924D02*
X0637396Y0176924D01*
X0637396Y0175726D02*
X0621059Y0175726D01*
X0618530Y0177978D02*
X0606719Y0189789D01*
X0588215Y0189789D01*
X0587034Y0190970D01*
X0584010Y0192505D02*
X0579284Y0192505D01*
X0579440Y0193703D02*
X0579519Y0193703D01*
X0581916Y0196088D02*
X0597948Y0195978D01*
X0597990Y0195191D01*
X0589217Y0198497D02*
X0584288Y0198497D01*
X0582993Y0202093D02*
X0589007Y0202093D01*
X0588440Y0203291D02*
X0584415Y0203291D01*
X0584903Y0204490D02*
X0588440Y0204490D01*
X0588440Y0205688D02*
X0584903Y0205688D01*
X0584460Y0206887D02*
X0588440Y0206887D01*
X0588805Y0208085D02*
X0583255Y0208085D01*
X0579790Y0208085D02*
X0579075Y0208085D01*
X0579440Y0212879D02*
X0588440Y0212879D01*
X0588440Y0214078D02*
X0579440Y0214078D01*
X0579440Y0215276D02*
X0588440Y0215276D01*
X0588440Y0216475D02*
X0579440Y0216475D01*
X0579440Y0217674D02*
X0588440Y0217674D01*
X0588633Y0222468D02*
X0579247Y0222468D01*
X0578700Y0228460D02*
X0589179Y0228460D01*
X0610262Y0215773D02*
X0610656Y0215773D01*
X0611444Y0214986D01*
X0612837Y0211681D02*
X0618499Y0211681D01*
X0617189Y0210482D02*
X0613735Y0210482D01*
X0614037Y0209284D02*
X0616724Y0209284D01*
X0616724Y0208085D02*
X0613904Y0208085D01*
X0613244Y0206887D02*
X0617191Y0206887D01*
X0618105Y0205688D02*
X0613050Y0205688D01*
X0613050Y0204490D02*
X0618105Y0204490D01*
X0618105Y0203291D02*
X0613050Y0203291D01*
X0613050Y0202093D02*
X0618105Y0202093D01*
X0618105Y0200894D02*
X0613050Y0200894D01*
X0613050Y0199696D02*
X0618105Y0199696D01*
X0618105Y0198497D02*
X0613050Y0198497D01*
X0613050Y0197299D02*
X0618105Y0197299D01*
X0618105Y0196100D02*
X0613050Y0196100D01*
X0613050Y0194902D02*
X0618105Y0194902D01*
X0617663Y0193703D02*
X0613886Y0193703D01*
X0614400Y0192505D02*
X0616918Y0192505D01*
X0616724Y0191306D02*
X0614431Y0191306D01*
X0614026Y0190108D02*
X0616966Y0190108D01*
X0617778Y0188909D02*
X0612983Y0188909D01*
X0611050Y0191757D02*
X0611050Y0208687D01*
X0610656Y0209080D01*
X0608068Y0206887D02*
X0607540Y0206887D01*
X0607540Y0205688D02*
X0609050Y0205688D01*
X0609050Y0204490D02*
X0607540Y0204490D01*
X0607540Y0203291D02*
X0609050Y0203291D01*
X0609050Y0202093D02*
X0606972Y0202093D01*
X0609050Y0200894D02*
X0560888Y0200894D01*
X0560888Y0199696D02*
X0609050Y0199696D01*
X0609050Y0198497D02*
X0606763Y0198497D01*
X0607540Y0197299D02*
X0609050Y0197299D01*
X0609050Y0196100D02*
X0607540Y0196100D01*
X0607540Y0194902D02*
X0609050Y0194902D01*
X0608214Y0193703D02*
X0607540Y0193703D01*
X0607384Y0192505D02*
X0607700Y0192505D01*
X0620105Y0191364D02*
X0620105Y0208687D01*
X0621711Y0211681D02*
X0623240Y0211681D01*
X0623021Y0210482D02*
X0623621Y0210482D01*
X0623486Y0209284D02*
X0624411Y0209284D01*
X0625100Y0208085D02*
X0623486Y0208085D01*
X0623907Y0206887D02*
X0623019Y0206887D01*
X0623410Y0205688D02*
X0622105Y0205688D01*
X0622105Y0204490D02*
X0623240Y0204490D01*
X0623338Y0203291D02*
X0622105Y0203291D01*
X0622105Y0202093D02*
X0623835Y0202093D01*
X0624927Y0200894D02*
X0622105Y0200894D01*
X0622105Y0199696D02*
X0624585Y0199696D01*
X0623693Y0198497D02*
X0622105Y0198497D01*
X0622105Y0197299D02*
X0623240Y0197299D01*
X0623240Y0196100D02*
X0622105Y0196100D01*
X0622105Y0194902D02*
X0623552Y0194902D01*
X0624244Y0193703D02*
X0622547Y0193703D01*
X0631515Y0186512D02*
X0634348Y0186512D01*
X0637396Y0185314D02*
X0630522Y0185314D01*
X0637396Y0174527D02*
X0612639Y0174527D01*
X0611948Y0175726D02*
X0616001Y0175726D01*
X0615307Y0176924D02*
X0611354Y0176924D01*
X0609475Y0176009D02*
X0599202Y0176403D01*
X0597990Y0175191D01*
X0588970Y0172130D02*
X0586672Y0172130D01*
X0586672Y0170932D02*
X0610096Y0170932D01*
X0609404Y0172130D02*
X0607009Y0172130D01*
X0607540Y0173329D02*
X0608713Y0173329D01*
X0610787Y0169733D02*
X0586672Y0169733D01*
X0586672Y0168535D02*
X0589254Y0168535D01*
X0589260Y0168541D02*
X0588440Y0167720D01*
X0588440Y0162661D01*
X0589260Y0161841D01*
X0606720Y0161841D01*
X0607082Y0162203D01*
X0607166Y0162119D01*
X0608409Y0161605D01*
X0609754Y0161605D01*
X0610997Y0162119D01*
X0611948Y0163071D01*
X0612462Y0164313D01*
X0612462Y0165658D01*
X0611948Y0166901D01*
X0610997Y0167852D01*
X0609754Y0168367D01*
X0608409Y0168367D01*
X0607337Y0167923D01*
X0606720Y0168541D01*
X0589260Y0168541D01*
X0588440Y0167336D02*
X0586672Y0167336D01*
X0586672Y0166138D02*
X0588440Y0166138D01*
X0588440Y0164939D02*
X0586672Y0164939D01*
X0586672Y0163741D02*
X0588440Y0163741D01*
X0588558Y0162542D02*
X0586672Y0162542D01*
X0586672Y0161343D02*
X0613399Y0161343D01*
X0613404Y0160145D02*
X0586672Y0160145D01*
X0586672Y0158946D02*
X0613409Y0158946D01*
X0613414Y0157748D02*
X0607512Y0157748D01*
X0607540Y0156549D02*
X0613419Y0156549D01*
X0613424Y0155351D02*
X0607540Y0155351D01*
X0607540Y0154152D02*
X0613429Y0154152D01*
X0613434Y0152954D02*
X0607540Y0152954D01*
X0611419Y0162542D02*
X0613394Y0162542D01*
X0613389Y0163741D02*
X0612225Y0163741D01*
X0612462Y0164939D02*
X0613384Y0164939D01*
X0612861Y0166138D02*
X0612264Y0166138D01*
X0612170Y0167336D02*
X0611513Y0167336D01*
X0611479Y0168535D02*
X0606726Y0168535D01*
X0609081Y0164986D02*
X0598194Y0164986D01*
X0597990Y0165191D01*
X0588467Y0157748D02*
X0586672Y0157748D01*
X0586672Y0156549D02*
X0588440Y0156549D01*
X0588440Y0155351D02*
X0586672Y0155351D01*
X0586672Y0154152D02*
X0588440Y0154152D01*
X0588440Y0152954D02*
X0586672Y0152954D01*
X0582672Y0152954D02*
X0579440Y0152954D01*
X0579440Y0154152D02*
X0582672Y0154152D01*
X0582703Y0153569D02*
X0581129Y0152387D01*
X0582672Y0151755D02*
X0574229Y0151755D01*
X0574667Y0150557D02*
X0582672Y0150557D01*
X0582039Y0149358D02*
X0574667Y0149358D01*
X0571286Y0150025D02*
X0570892Y0150419D01*
X0570892Y0154188D01*
X0569890Y0155191D01*
X0560367Y0157748D02*
X0558919Y0157748D01*
X0558438Y0158946D02*
X0582672Y0158946D01*
X0582672Y0157748D02*
X0579412Y0157748D01*
X0579440Y0156549D02*
X0582672Y0156549D01*
X0582672Y0155351D02*
X0579440Y0155351D01*
X0582672Y0160145D02*
X0557051Y0160145D01*
X0556666Y0161332D02*
X0557617Y0162283D01*
X0557868Y0162889D01*
X0559129Y0163191D01*
X0560340Y0163191D01*
X0560340Y0162661D01*
X0561160Y0161841D01*
X0578620Y0161841D01*
X0579440Y0162661D01*
X0579440Y0167720D01*
X0578620Y0168541D01*
X0561160Y0168541D01*
X0560340Y0167720D01*
X0560340Y0167191D01*
X0559457Y0167191D01*
X0559232Y0167328D01*
X0558656Y0167191D01*
X0558064Y0167191D01*
X0557877Y0167004D01*
X0556949Y0166782D01*
X0556666Y0167065D01*
X0555423Y0167580D01*
X0554078Y0167580D01*
X0552835Y0167065D01*
X0551884Y0166114D01*
X0551370Y0164871D01*
X0551370Y0163526D01*
X0551884Y0162283D01*
X0552835Y0161332D01*
X0554078Y0160817D01*
X0555423Y0160817D01*
X0556666Y0161332D01*
X0556677Y0161343D02*
X0582672Y0161343D01*
X0582672Y0162542D02*
X0579321Y0162542D01*
X0579440Y0163741D02*
X0582672Y0163741D01*
X0582672Y0164939D02*
X0579440Y0164939D01*
X0579440Y0166138D02*
X0582672Y0166138D01*
X0582672Y0167336D02*
X0579440Y0167336D01*
X0578626Y0168535D02*
X0582672Y0168535D01*
X0582672Y0169733D02*
X0560641Y0169733D01*
X0560888Y0170932D02*
X0582672Y0170932D01*
X0582672Y0172130D02*
X0578909Y0172130D01*
X0579440Y0173329D02*
X0582672Y0173329D01*
X0582672Y0174527D02*
X0579440Y0174527D01*
X0579440Y0175726D02*
X0582672Y0175726D01*
X0582672Y0176924D02*
X0579440Y0176924D01*
X0579037Y0178123D02*
X0582672Y0178123D01*
X0582672Y0179321D02*
X0560888Y0179321D01*
X0560888Y0180520D02*
X0582672Y0180520D01*
X0582672Y0181718D02*
X0560888Y0181718D01*
X0560888Y0188909D02*
X0584313Y0188909D01*
X0583732Y0190108D02*
X0560888Y0190108D01*
X0560888Y0191306D02*
X0583653Y0191306D01*
X0584313Y0193703D02*
X0584986Y0193703D01*
X0579544Y0198497D02*
X0578663Y0198497D01*
X0578872Y0202093D02*
X0580051Y0202093D01*
X0567490Y0209284D02*
X0556751Y0209284D01*
X0556751Y0210482D02*
X0567490Y0210482D01*
X0560705Y0208085D02*
X0556751Y0208085D01*
X0556751Y0206887D02*
X0558107Y0206887D01*
X0557776Y0206556D02*
X0557776Y0206556D01*
X0556909Y0205688D02*
X0556751Y0205688D01*
X0560888Y0202093D02*
X0560907Y0202093D01*
X0560888Y0198497D02*
X0561117Y0198497D01*
X0579440Y0187711D02*
X0586068Y0187711D01*
X0588001Y0187711D02*
X0588440Y0187711D01*
X0583291Y0186512D02*
X0579440Y0186512D01*
X0579440Y0185314D02*
X0582672Y0185314D01*
X0582672Y0184115D02*
X0579440Y0184115D01*
X0579440Y0182917D02*
X0582672Y0182917D01*
X0586672Y0178123D02*
X0588842Y0178123D01*
X0588440Y0176924D02*
X0586672Y0176924D01*
X0586672Y0175726D02*
X0588440Y0175726D01*
X0588440Y0174527D02*
X0586672Y0174527D01*
X0586672Y0173329D02*
X0588440Y0173329D01*
X0569890Y0165191D02*
X0558892Y0165191D01*
X0554751Y0164198D01*
X0556011Y0167336D02*
X0560340Y0167336D01*
X0561154Y0168535D02*
X0559442Y0168535D01*
X0553490Y0167336D02*
X0545252Y0167336D01*
X0544053Y0166138D02*
X0551908Y0166138D01*
X0551398Y0164939D02*
X0513816Y0164939D01*
X0509071Y0164939D02*
X0494009Y0164939D01*
X0494009Y0163741D02*
X0551370Y0163741D01*
X0551777Y0162542D02*
X0494009Y0162542D01*
X0494009Y0161343D02*
X0552824Y0161343D01*
X0554026Y0160145D02*
X0494009Y0160145D01*
X0494009Y0158946D02*
X0552638Y0158946D01*
X0552157Y0157748D02*
X0494009Y0157748D01*
X0494009Y0156549D02*
X0548388Y0156549D01*
X0551665Y0156549D02*
X0552157Y0156549D01*
X0555538Y0157112D02*
X0559475Y0155143D01*
X0559475Y0147269D01*
X0569890Y0145191D02*
X0570173Y0144907D01*
X0572861Y0144907D01*
X0572467Y0144513D01*
X0572467Y0140183D01*
X0579440Y0145763D02*
X0579523Y0145763D01*
X0579440Y0146961D02*
X0580362Y0146961D01*
X0581200Y0148160D02*
X0579000Y0148160D01*
X0560458Y0162542D02*
X0557724Y0162542D01*
X0550026Y0153569D02*
X0537428Y0153569D01*
X0536382Y0155351D02*
X0494009Y0155351D01*
X0494009Y0154152D02*
X0535183Y0154152D01*
X0533985Y0152954D02*
X0494009Y0152954D01*
X0494009Y0151755D02*
X0532786Y0151755D01*
X0531588Y0150557D02*
X0494009Y0150557D01*
X0494009Y0149358D02*
X0530389Y0149358D01*
X0529191Y0148160D02*
X0494009Y0148160D01*
X0494009Y0146961D02*
X0527992Y0146961D01*
X0526794Y0145763D02*
X0494009Y0145763D01*
X0494009Y0144564D02*
X0525595Y0144564D01*
X0524397Y0143366D02*
X0494009Y0143366D01*
X0494009Y0142167D02*
X0523198Y0142167D01*
X0522000Y0140969D02*
X0494009Y0140969D01*
X0494009Y0139770D02*
X0520801Y0139770D01*
X0519603Y0138572D02*
X0494009Y0138572D01*
X0494009Y0137373D02*
X0518404Y0137373D01*
X0517206Y0136175D02*
X0494009Y0136175D01*
X0494009Y0134976D02*
X0516007Y0134976D01*
X0512855Y0133778D02*
X0494009Y0133778D01*
X0548945Y0111006D02*
X0549601Y0111006D01*
X0559113Y0112205D02*
X0559392Y0112205D01*
X0559113Y0113403D02*
X0560340Y0113403D01*
X0560340Y0114602D02*
X0559113Y0114602D01*
X0559113Y0115800D02*
X0560340Y0115800D01*
X0560340Y0116999D02*
X0559576Y0116999D01*
X0560309Y0118197D02*
X0560816Y0118197D01*
X0557113Y0119317D02*
X0557113Y0105931D01*
X0558294Y0104750D01*
X0569449Y0104750D01*
X0569890Y0105191D01*
X0565206Y0108609D02*
X0612799Y0108609D01*
X0612393Y0109807D02*
X0565612Y0109807D01*
X0565804Y0111006D02*
X0612423Y0111006D01*
X0612936Y0112205D02*
X0607083Y0112205D01*
X0607540Y0113403D02*
X0614524Y0113403D01*
X0617025Y0113403D02*
X0627898Y0113403D01*
X0628929Y0114602D02*
X0607540Y0114602D01*
X0607540Y0115800D02*
X0628987Y0115800D01*
X0629541Y0116999D02*
X0607540Y0116999D01*
X0607063Y0118197D02*
X0631227Y0118197D01*
X0622073Y0124435D02*
X0622073Y0161836D01*
X0622861Y0163411D01*
X0616096Y0168535D02*
X0637396Y0168535D01*
X0637396Y0169733D02*
X0615405Y0169733D01*
X0614714Y0170932D02*
X0637396Y0170932D01*
X0637396Y0172130D02*
X0614022Y0172130D01*
X0613331Y0173329D02*
X0637396Y0173329D01*
X0610763Y0182917D02*
X0607540Y0182917D01*
X0607540Y0184115D02*
X0609565Y0184115D01*
X0608366Y0185314D02*
X0607540Y0185314D01*
X0607409Y0208085D02*
X0607175Y0208085D01*
X0630702Y0224865D02*
X0665886Y0224865D01*
X0665886Y0226063D02*
X0631590Y0226063D01*
X0632040Y0227262D02*
X0665886Y0227262D01*
X0665886Y0228460D02*
X0632040Y0228460D01*
X0631726Y0229659D02*
X0665886Y0229659D01*
X0665886Y0230857D02*
X0631031Y0230857D01*
X0629859Y0232056D02*
X0665886Y0232056D01*
X0665886Y0233254D02*
X0631218Y0233254D01*
X0631804Y0234453D02*
X0665886Y0234453D01*
X0665886Y0235651D02*
X0632040Y0235651D01*
X0632009Y0236850D02*
X0665886Y0236850D01*
X0665886Y0238048D02*
X0631513Y0238048D01*
X0630515Y0239247D02*
X0665886Y0239247D01*
X0665886Y0240445D02*
X0630535Y0240445D01*
X0631521Y0241644D02*
X0665886Y0241644D01*
X0665886Y0242842D02*
X0632017Y0242842D01*
X0632040Y0244041D02*
X0665886Y0244041D01*
X0665886Y0245239D02*
X0631796Y0245239D01*
X0631198Y0246438D02*
X0665886Y0246438D01*
X0665886Y0247636D02*
X0629812Y0247636D01*
X0631051Y0248835D02*
X0665886Y0248835D01*
X0665886Y0250033D02*
X0631734Y0250033D01*
X0632040Y0251232D02*
X0665886Y0251232D01*
X0665886Y0252430D02*
X0632040Y0252430D01*
X0631582Y0253629D02*
X0665886Y0253629D01*
X0665886Y0254827D02*
X0630683Y0254827D01*
X0630650Y0256026D02*
X0665886Y0256026D01*
X0665886Y0257224D02*
X0631633Y0257224D01*
X0632120Y0258423D02*
X0665886Y0258423D01*
X0665886Y0259621D02*
X0627828Y0259621D01*
X0627453Y0259621D02*
X0545426Y0259621D01*
X0545334Y0258423D02*
X0623161Y0258423D01*
X0623648Y0257224D02*
X0544837Y0257224D01*
X0543753Y0256026D02*
X0624630Y0256026D01*
X0624598Y0254827D02*
X0544069Y0254827D01*
X0544968Y0253629D02*
X0623699Y0253629D01*
X0623240Y0252430D02*
X0545426Y0252430D01*
X0545426Y0251232D02*
X0623240Y0251232D01*
X0623546Y0250033D02*
X0545120Y0250033D01*
X0544436Y0248835D02*
X0624230Y0248835D01*
X0625469Y0247636D02*
X0543198Y0247636D01*
X0544584Y0246438D02*
X0624082Y0246438D01*
X0623485Y0245239D02*
X0545182Y0245239D01*
X0545426Y0244041D02*
X0623240Y0244041D01*
X0623264Y0242842D02*
X0545403Y0242842D01*
X0544907Y0241644D02*
X0623760Y0241644D01*
X0624746Y0240445D02*
X0543921Y0240445D01*
X0543901Y0239247D02*
X0624765Y0239247D01*
X0623768Y0238048D02*
X0544899Y0238048D01*
X0545395Y0236850D02*
X0623272Y0236850D01*
X0623240Y0235651D02*
X0545426Y0235651D01*
X0545190Y0234453D02*
X0623477Y0234453D01*
X0624063Y0233254D02*
X0544604Y0233254D01*
X0543245Y0232056D02*
X0625422Y0232056D01*
X0624250Y0230857D02*
X0544417Y0230857D01*
X0550420Y0217742D02*
X0554751Y0213411D01*
X0554751Y0176009D01*
X0551705Y0174527D02*
X0494009Y0174527D01*
X0494009Y0173329D02*
X0552650Y0173329D01*
X0551370Y0175726D02*
X0494009Y0175726D01*
X0494009Y0176924D02*
X0551470Y0176924D01*
X0543823Y0172130D02*
X0494009Y0172130D01*
X0494009Y0170932D02*
X0542624Y0170932D01*
X0541426Y0169733D02*
X0513840Y0169733D01*
X0509047Y0169733D02*
X0494009Y0169733D01*
X0494009Y0168535D02*
X0508275Y0168535D01*
X0508062Y0167336D02*
X0494009Y0167336D01*
X0494009Y0166138D02*
X0508285Y0166138D01*
X0494009Y0178123D02*
X0525021Y0178123D01*
X0524117Y0179321D02*
X0494009Y0179321D01*
X0494009Y0180520D02*
X0523810Y0180520D01*
X0523940Y0181718D02*
X0494009Y0181718D01*
X0494009Y0182917D02*
X0524593Y0182917D01*
X0529790Y0182917D02*
X0544851Y0182917D01*
X0555579Y0215411D02*
X0555579Y0215411D01*
X0545251Y0260820D02*
X0623226Y0260820D01*
X0632055Y0260820D02*
X0665886Y0260820D01*
X0653176Y0147269D02*
X0653176Y0144907D01*
X0653570Y0129553D02*
X0653570Y0127584D01*
X0613844Y0107410D02*
X0607540Y0107410D01*
X0607540Y0095425D02*
X0620695Y0095425D01*
X0621894Y0094227D02*
X0607540Y0094227D01*
X0607540Y0093028D02*
X0623092Y0093028D01*
X0653963Y0098450D02*
X0653570Y0100419D01*
X0598365Y0067860D02*
X0597615Y0067860D01*
X0597615Y0066661D02*
X0598365Y0066661D01*
X0598365Y0064264D02*
X0597615Y0064264D01*
X0597615Y0063066D02*
X0598365Y0063066D01*
X0598365Y0061867D02*
X0597615Y0061867D01*
X0589019Y0061867D02*
X0578861Y0061867D01*
X0579640Y0063066D02*
X0588240Y0063066D01*
X0588240Y0064264D02*
X0579640Y0064264D01*
X0579640Y0066661D02*
X0588240Y0066661D01*
X0588407Y0067860D02*
X0579472Y0067860D01*
X0579433Y0072654D02*
X0588447Y0072654D01*
X0588440Y0073852D02*
X0579440Y0073852D01*
X0579440Y0075051D02*
X0588440Y0075051D01*
X0588440Y0076249D02*
X0579440Y0076249D01*
X0579440Y0077448D02*
X0588440Y0077448D01*
X0588859Y0082242D02*
X0579021Y0082242D01*
X0579440Y0083440D02*
X0588440Y0083440D01*
X0588440Y0084639D02*
X0579440Y0084639D01*
X0579440Y0085837D02*
X0588440Y0085837D01*
X0588440Y0087036D02*
X0579440Y0087036D01*
X0578926Y0088234D02*
X0588953Y0088234D01*
X0560347Y0072654D02*
X0534538Y0072654D01*
X0545696Y0074435D02*
X0546483Y0075222D01*
X0545696Y0074435D02*
X0545696Y0076403D01*
X0539668Y0083440D02*
X0527756Y0083440D01*
X0527749Y0083434D02*
X0530854Y0086539D01*
X0530854Y0088334D01*
X0525954Y0088334D01*
X0525954Y0083434D01*
X0527749Y0083434D01*
X0528954Y0084639D02*
X0539759Y0084639D01*
X0539759Y0085837D02*
X0530153Y0085837D01*
X0530854Y0087036D02*
X0539759Y0087036D01*
X0539759Y0088234D02*
X0530854Y0088234D01*
X0530854Y0089433D02*
X0539759Y0089433D01*
X0539759Y0090631D02*
X0530854Y0090631D01*
X0529953Y0091830D02*
X0539759Y0091830D01*
X0535243Y0097822D02*
X0530654Y0097822D01*
X0525954Y0088234D02*
X0525154Y0088234D01*
X0525154Y0087036D02*
X0525954Y0087036D01*
X0525954Y0085837D02*
X0525154Y0085837D01*
X0525154Y0084639D02*
X0525954Y0084639D01*
X0525954Y0083440D02*
X0525154Y0083440D01*
X0527192Y0079946D02*
X0528373Y0079553D01*
X0529554Y0080734D01*
X0520955Y0085837D02*
X0519870Y0085837D01*
X0526149Y0064264D02*
X0560140Y0064264D01*
X0560140Y0063066D02*
X0524950Y0063066D01*
X0523752Y0061867D02*
X0560919Y0061867D01*
X0560891Y0058272D02*
X0520156Y0058272D01*
X0518958Y0057073D02*
X0560340Y0057073D01*
X0560340Y0055874D02*
X0517759Y0055874D01*
X0516561Y0054676D02*
X0560340Y0054676D01*
X0560340Y0053477D02*
X0515362Y0053477D01*
X0514164Y0052279D02*
X0560721Y0052279D01*
X0569515Y0061867D02*
X0570265Y0061867D01*
X0570265Y0063066D02*
X0569515Y0063066D01*
X0569515Y0064264D02*
X0570265Y0064264D01*
X0570265Y0066661D02*
X0569515Y0066661D01*
X0569515Y0067860D02*
X0570265Y0067860D01*
X0578889Y0058272D02*
X0588991Y0058272D01*
X0588821Y0052279D02*
X0579058Y0052279D01*
X0579440Y0047485D02*
X0588440Y0047485D01*
X0588440Y0046286D02*
X0579440Y0046286D01*
X0579440Y0045088D02*
X0588440Y0045088D01*
X0588440Y0043889D02*
X0579440Y0043889D01*
X0579440Y0042691D02*
X0588440Y0042691D01*
X0588616Y0037897D02*
X0579263Y0037897D01*
X0579440Y0036698D02*
X0588440Y0036698D01*
X0588440Y0035500D02*
X0579440Y0035500D01*
X0579440Y0034301D02*
X0588440Y0034301D01*
X0588440Y0033103D02*
X0579440Y0033103D01*
X0578683Y0031904D02*
X0589196Y0031904D01*
X0595990Y0030706D02*
X0571711Y0030706D01*
X0571711Y0029507D02*
X0595990Y0029507D01*
X0596012Y0028309D02*
X0571689Y0028309D01*
X0570491Y0027110D02*
X0607908Y0027110D01*
X0608262Y0025912D02*
X0569292Y0025912D01*
X0567711Y0030706D02*
X0559987Y0030706D01*
X0535409Y0033103D02*
X0532754Y0033103D01*
X0516955Y0038214D02*
X0516562Y0038214D01*
X0499941Y0030706D02*
X0494009Y0030706D01*
X0494009Y0029507D02*
X0499199Y0029507D01*
X0499007Y0028309D02*
X0494009Y0028309D01*
X0494009Y0027110D02*
X0499251Y0027110D01*
X0500067Y0025912D02*
X0494009Y0025912D01*
X0494009Y0024713D02*
X0502591Y0024713D01*
X0503939Y0023515D02*
X0494009Y0023515D01*
X0494009Y0015125D02*
X0542275Y0015125D01*
X0541164Y0013927D02*
X0494009Y0013927D01*
X0494009Y0012728D02*
X0540740Y0012728D01*
X0540751Y0011530D02*
X0494009Y0011530D01*
X0494009Y0010331D02*
X0541248Y0010331D01*
X0542763Y0009133D02*
X0494009Y0009133D01*
X0529948Y0018135D02*
X0530341Y0017742D01*
X0529948Y0018135D02*
X0529948Y0019710D01*
X0597990Y0029159D02*
X0597990Y0035191D01*
X0597990Y0045191D01*
X0606989Y0058272D02*
X0608676Y0058272D01*
X0627979Y0058293D02*
X0627979Y0059868D01*
X0628373Y0060261D01*
X0608688Y0029159D02*
X0597990Y0029159D01*
X0608688Y0029159D02*
X0610262Y0027584D01*
X0562231Y0110261D02*
X0567010Y0115041D01*
X0570845Y0115041D01*
X0570696Y0115191D01*
X0569890Y0115191D01*
X0579440Y0122991D02*
X0588440Y0122991D01*
X0588440Y0124190D02*
X0579440Y0124190D01*
X0579440Y0125388D02*
X0588440Y0125388D01*
X0588440Y0126587D02*
X0579440Y0126587D01*
X0579418Y0127785D02*
X0587563Y0127785D01*
D16*
X0557900Y0170104D02*
X0544908Y0170104D01*
X0542152Y0167348D01*
X0511444Y0167348D01*
X0557900Y0170104D02*
X0558688Y0170891D01*
X0558688Y0204356D01*
X0559475Y0205143D01*
X0569842Y0205143D01*
X0498058Y0135065D02*
X0498058Y0131521D01*
X0497270Y0130734D01*
D17*
X0569890Y0205143D02*
X0569890Y0205191D01*
X0569890Y0215191D01*
X0569890Y0225191D01*
X0597990Y0225191D01*
X0597990Y0215191D01*
X0597990Y0205191D01*
X0581522Y0205143D02*
X0569890Y0205143D01*
D18*
X0569842Y0205143D02*
X0569890Y0205191D01*
X0554751Y0039395D02*
X0554751Y0035458D01*
X0544514Y0025222D01*
X0505932Y0025222D01*
X0502388Y0028372D01*
M02*
