%
M48
M72
T01C0.02362
T02C0.03150
T03C0.04000
%
T01
X697388Y24635
X705656Y28572
X711955Y34477
X708829Y44076
X724948Y33690
X725341Y26997
X732428Y26603
X724948Y15973
X739121Y8493
X753688Y23847
X749751Y35658
X744987Y66052
X735833Y71800
X735833Y76800
X735833Y86800
X743333Y89300
X750538Y83690
X752900Y94713
X741089Y105343
X732428Y96682
X718255Y112430
X724554Y121879
X717861Y124241
X732428Y127784
X737940Y116367
X752113Y115580
X757231Y106524
X768648Y116923
X772192Y126603
X778491Y132115
X774160Y136052
X767467Y136446
X784790Y126603
X794239Y147076
X776129Y148650
X766286Y146288
X753688Y136839
X746207Y136446
X746995Y130146
X745814Y143532
X750538Y147932
X750538Y153375
X749751Y160461
X749751Y172272
X743845Y188808
X722192Y176997
X706444Y163611
X693058Y131328
X699357Y111249
X698963Y84871
X653963Y94713
X630341Y84871
X653570Y68335
X627979Y54556
X611837Y55737
X572073Y76209
X583333Y84300
X583885Y90776
X583491Y105343
X573648Y116923
X562231Y106524
X557113Y115580
X542940Y116367
X546089Y105343
X537428Y96682
X548333Y89300
X540833Y86800
X540833Y76800
X540833Y71800
X549987Y66052
X555538Y83690
X557900Y94713
X523255Y112430
X529554Y121879
X522861Y124241
X537428Y127784
X551995Y130146
X551207Y136446
X550814Y143532
X555538Y147932
X555538Y153375
X554751Y160461
X554751Y172272
X548845Y188808
X527192Y176997
X511444Y163611
X498058Y131328
X504357Y111249
X503963Y84871
X513829Y44076
X516955Y34477
X510656Y28572
X502388Y24635
X530341Y26997
X529948Y33690
X537428Y26603
X529948Y15973
X544121Y8493
X558688Y23847
X554751Y35658
X610262Y15580
X614199Y10068
X626798Y7706
X767073Y76209
X778333Y84300
X778885Y90776
X778491Y105343
X810774Y106524
X812349Y117942
X810538Y124517
X820617Y136839
X834396Y138808
X822979Y145107
X825735Y156524
X817861Y159674
X804081Y161249
X813530Y174241
X831640Y185265
X815105Y187627
X806050Y188020
X805656Y205343
X805262Y212036
X815105Y204950
X782034Y187233
X776916Y192351
X776522Y201406
X752900Y211249
X745420Y214005
X821798Y280206
X809199Y282568
X805262Y288080
X892388Y297135
X900656Y301072
X906955Y306977
X903829Y316576
X919948Y306190
X920341Y299497
X927428Y299103
X919948Y288473
X934121Y280993
X1016798Y280206
X1004199Y282568
X1000262Y288080
X948688Y296347
X944751Y308158
X939987Y338552
X930833Y344300
X930833Y349300
X930833Y359300
X938333Y361800
X945538Y356190
X947900Y367213
X952231Y379024
X936089Y377843
X927428Y369182
X913255Y384930
X894357Y383749
X912861Y396741
X919554Y394379
X927428Y400284
X941995Y402646
X941207Y408946
X940814Y416032
X945538Y420432
X945538Y425875
X944751Y432961
X944751Y444772
X938845Y461308
X917192Y449497
X901444Y436111
X888058Y403828
X848570Y396347
X834396Y411308
X822979Y417607
X820617Y409339
X810538Y397017
X812349Y390442
X827310Y383749
X810774Y379024
X825341Y357371
X848963Y367213
X848570Y340835
X822979Y327056
X806837Y328237
X767073Y348709
X778333Y356800
X778885Y363276
X778491Y377843
X768648Y389423
X772192Y399103
X778491Y404615
X774160Y408552
X767467Y408946
X766286Y418788
X776129Y421150
X794239Y419576
X804081Y433749
X817861Y432174
X825735Y429024
X848176Y416032
X813530Y446741
X815105Y460127
X806050Y460520
X782034Y459733
X776916Y464851
X776522Y473906
X805656Y477843
X805262Y484536
X815105Y477450
X831640Y457765
X940420Y486505
X947900Y483749
X971522Y473906
X971916Y464851
X977034Y459733
X1001050Y460520
X1010105Y460127
X1026640Y457765
X1008530Y446741
X1012861Y432174
X1020735Y429024
X1017979Y417607
X1015617Y409339
X1029396Y411308
X1043176Y416032
X1043570Y396347
X1022310Y383749
X1007349Y390442
X1005538Y397017
X979790Y399103
X973491Y404615
X969160Y408552
X962467Y408946
X948688Y409339
X961286Y418788
X971129Y421150
X989239Y419576
X999081Y433749
X967192Y399103
X963648Y389423
X947113Y388080
X932940Y388867
X973491Y377843
X973885Y363276
X973333Y356800
X962073Y348709
X1001837Y328237
X1017979Y327056
X1043570Y340835
X1020341Y357371
X1043963Y367213
X1005774Y379024
X893963Y357371
X784790Y399103
X753688Y409339
X746207Y408946
X746995Y402646
X745814Y416032
X750538Y420432
X750538Y425875
X749751Y432961
X749751Y444772
X743845Y461308
X722192Y449497
X706444Y436111
X693058Y403828
X717861Y396741
X724554Y394379
X732428Y400284
X737940Y388867
X752113Y388080
X757231Y379024
X752900Y367213
X743333Y361800
X735833Y359300
X750538Y356190
X735833Y349300
X735833Y344300
X744987Y338552
X708829Y316576
X711955Y306977
X705656Y301072
X697388Y297135
X725341Y299497
X732428Y299103
X724948Y288473
X739121Y280993
X753688Y296347
X749751Y308158
X724948Y306190
X653570Y340835
X627979Y327056
X611837Y328237
X572073Y348709
X583333Y356800
X583885Y363276
X583491Y377843
X573648Y389423
X577192Y399103
X583491Y404615
X579160Y408552
X572467Y408946
X558688Y409339
X551207Y408946
X551995Y402646
X537428Y400284
X529554Y394379
X522861Y396741
X523255Y384930
X504357Y383749
X498058Y403828
X511444Y436111
X527192Y449497
X548845Y461308
X554751Y444772
X554751Y432961
X555538Y425875
X555538Y420432
X550814Y416032
X571286Y418788
X581129Y421150
X599239Y419576
X609081Y433749
X622861Y432174
X630735Y429024
X627979Y417607
X625617Y409339
X639396Y411308
X653176Y416032
X653570Y396347
X632310Y383749
X617349Y390442
X615538Y397017
X589790Y399103
X615774Y379024
X630341Y357371
X653963Y367213
X698963Y357371
X732428Y369182
X741089Y377843
X718255Y384930
X699357Y383749
X618530Y446741
X620105Y460127
X611050Y460520
X587034Y459733
X581916Y464851
X581522Y473906
X557900Y483749
X550420Y486505
X610262Y484536
X610656Y477843
X620105Y477450
X636640Y457765
X557113Y388080
X542940Y388867
X546089Y377843
X537428Y369182
X540833Y359300
X548333Y361800
X555538Y356190
X557900Y367213
X562231Y379024
X540833Y349300
X540833Y344300
X549987Y338552
X513829Y316576
X516955Y306977
X510656Y301072
X502388Y297135
X530341Y299497
X537428Y299103
X529948Y288473
X544121Y280993
X558688Y296347
X554751Y308158
X529948Y306190
X626798Y280206
X614199Y282568
X610262Y288080
X503963Y357371
X550420Y214005
X557900Y211249
X581522Y201406
X581916Y192351
X587034Y187233
X611050Y188020
X620105Y187627
X636640Y185265
X618530Y174241
X622861Y159674
X630735Y156524
X627979Y145107
X639396Y138808
X653176Y143532
X653570Y123847
X632310Y111249
X617349Y117942
X615538Y124517
X625617Y136839
X599239Y147076
X609081Y161249
X581129Y148650
X571286Y146288
X572467Y136446
X579160Y136052
X583491Y132115
X589790Y126603
X577192Y126603
X558688Y136839
X615774Y106524
X620105Y204950
X610656Y205343
X610262Y212036
X827310Y111249
X848570Y123847
X848176Y143532
X888058Y131328
X912861Y124241
X919554Y121879
X927428Y127784
X941995Y130146
X941207Y136446
X940814Y143532
X945538Y147932
X945538Y153375
X944751Y160461
X944751Y172272
X917192Y176997
X901444Y163611
X938845Y188808
X947900Y211249
X940420Y214005
X971522Y201406
X971916Y192351
X977034Y187233
X1001050Y188020
X1010105Y187627
X1026640Y185265
X1008530Y174241
X1012861Y159674
X1020735Y156524
X1017979Y145107
X1029396Y138808
X1015617Y136839
X1005538Y124517
X1007349Y117942
X1005774Y106524
X1022310Y111249
X1043570Y123847
X1043176Y143532
X999081Y161249
X989239Y147076
X971129Y148650
X961286Y146288
X962467Y136446
X969160Y136052
X973491Y132115
X979790Y126603
X967192Y126603
X948688Y136839
X947113Y115580
X952231Y106524
X963648Y116923
X973491Y105343
X973885Y90776
X973333Y84300
X962073Y76209
X945538Y83690
X938333Y89300
X930833Y86800
X930833Y76800
X930833Y71800
X939987Y66052
X903829Y44076
X906955Y34477
X900656Y28572
X892388Y24635
X848570Y68335
X822979Y54556
X806837Y55737
X825341Y84871
X848963Y94713
X893963Y84871
X927428Y96682
X936089Y105343
X947900Y94713
X932940Y116367
X913255Y112430
X894357Y111249
X1001837Y55737
X1017979Y54556
X1043570Y68335
X1020341Y84871
X1043963Y94713
X944751Y35658
X927428Y26603
X920341Y26997
X919948Y33690
X919948Y15973
X934121Y8493
X948688Y23847
X1000262Y15580
X1004199Y10068
X1016798Y7706
X821798Y7706
X809199Y10068
X805262Y15580
X1000656Y205343
X1000262Y212036
X1010105Y204950
X1010105Y477450
X1000656Y477843
X1000262Y484536
X752900Y483749
X745420Y486505
T02
X617759Y17635
X812759Y17635
X1007759Y17635
X1017640Y184918
X1017640Y192792
X1017640Y200666
X1017640Y208540
X1017640Y216414
X1017640Y224288
X1017640Y232162
X1017640Y240036
X1017640Y247910
X1017640Y255784
X541026Y255784
X541026Y247910
X541026Y240036
X541026Y232162
X541026Y224288
X541026Y216414
X541026Y208540
X541026Y200666
X541026Y192792
X541026Y184918
X627640Y184918
X627640Y192792
X627640Y200666
X627640Y208540
X627640Y216414
X627640Y224288
X627640Y232162
X627640Y240036
X627640Y247910
X627640Y255784
X617759Y290135
X812759Y290135
X848483Y473269
X848562Y464631
X822640Y465292
X822640Y457418
X822640Y473166
X822640Y481040
X822640Y488914
X822640Y496788
X822640Y504662
X822640Y512536
X822640Y520410
X822640Y528284
X736026Y528284
X736026Y520410
X736026Y512536
X736026Y504662
X736026Y496788
X736026Y488914
X736026Y481040
X736026Y473166
X736026Y465292
X736026Y457418
X653562Y464631
X653483Y473269
X627640Y473166
X627640Y465292
X627640Y457418
X627640Y481040
X627640Y488914
X627640Y496788
X627640Y504662
X627640Y512536
X627640Y520410
X627640Y528284
X541026Y528284
X541026Y520410
X541026Y512536
X541026Y504662
X541026Y496788
X541026Y488914
X541026Y481040
X541026Y473166
X541026Y465292
X541026Y457418
X736026Y255784
X736026Y247910
X736026Y240036
X736026Y232162
X736026Y224288
X736026Y216414
X736026Y208540
X736026Y200666
X736026Y192792
X736026Y184918
X653562Y192131
X653483Y200769
X822640Y200666
X822640Y208540
X822640Y216414
X822640Y224288
X822640Y232162
X822640Y240036
X822640Y247910
X822640Y255784
X848483Y200769
X848562Y192131
X822640Y192792
X822640Y184918
X931026Y184918
X931026Y192792
X931026Y200666
X931026Y208540
X931026Y216414
X931026Y224288
X931026Y232162
X931026Y240036
X931026Y247910
X931026Y255784
X1007759Y290135
X1043483Y200769
X1043562Y192131
X1017640Y457418
X1017640Y465292
X1017640Y473166
X1017640Y481040
X1017640Y488914
X1017640Y496788
X1017640Y504662
X1017640Y512536
X1017640Y520410
X1017640Y528284
X931026Y528284
X931026Y520410
X931026Y512536
X931026Y504662
X931026Y496788
X931026Y488914
X931026Y481040
X931026Y473166
X931026Y465292
X931026Y457418
X1043562Y464631
X1043483Y473269
T03
X714042Y64871
X714042Y74871
X724042Y74871
X724042Y64871
X724042Y84871
X714042Y84871
X714042Y94871
X714042Y104871
X724042Y104871
X724042Y94871
X909042Y64871
X909042Y74871
X919042Y74871
X919042Y64871
X919042Y84871
X909042Y84871
X909042Y94871
X909042Y104871
X919042Y104871
X919042Y94871
X919042Y337371
X919042Y347371
X909042Y347371
X909042Y337371
X909042Y357371
X909042Y367371
X919042Y367371
X919042Y357371
X919042Y377371
X909042Y377371
X724042Y377371
X714042Y377371
X714042Y367371
X724042Y367371
X724042Y357371
X714042Y357371
X714042Y347371
X724042Y347371
X724042Y337371
X714042Y337371
X529042Y337371
X529042Y347371
X519042Y347371
X519042Y337371
X519042Y357371
X519042Y367371
X529042Y367371
X529042Y357371
X529042Y377371
X519042Y377371
X519042Y104871
X529042Y104871
X529042Y94871
X519042Y94871
X519042Y84871
X529042Y84871
X529042Y74871
X519042Y74871
X519042Y64871
X529042Y64871
M30
