G75*
%MOIN*%
%OFA0B0*%
%FSLAX25Y25*%
%IPPOS*%
%LPD*%
%AMOC8*
5,1,8,0,0,1.08239X$1,22.5*
%
%ADD10C,0.05950*%
%ADD11R,0.17100X0.04700*%
%ADD12OC8,0.08200*%
%ADD13C,0.06800*%
%ADD14C,0.04762*%
D10*
X0617759Y0021372D03*
X0653562Y0195868D03*
X0653483Y0204506D03*
D11*
X0597990Y0205191D03*
X0597990Y0215191D03*
X0597990Y0225191D03*
X0569890Y0225191D03*
X0569890Y0215191D03*
X0569890Y0205191D03*
X0569890Y0195191D03*
X0569890Y0185191D03*
X0569890Y0175191D03*
X0569890Y0165191D03*
X0569890Y0155191D03*
X0569890Y0145191D03*
X0569890Y0135191D03*
X0569890Y0125191D03*
X0569890Y0115191D03*
X0569890Y0105191D03*
X0569890Y0095191D03*
X0569890Y0085191D03*
X0569890Y0075191D03*
X0569890Y0065191D03*
X0569890Y0055191D03*
X0569890Y0045191D03*
X0569890Y0035191D03*
X0597990Y0035191D03*
X0597990Y0045191D03*
X0597990Y0055191D03*
X0597990Y0065191D03*
X0597990Y0075191D03*
X0597990Y0085191D03*
X0597990Y0095191D03*
X0597990Y0105191D03*
X0597990Y0115191D03*
X0597990Y0125191D03*
X0597990Y0135191D03*
X0597990Y0145191D03*
X0597990Y0155191D03*
X0597990Y0165191D03*
X0597990Y0175191D03*
X0597990Y0185191D03*
X0597990Y0195191D03*
D12*
X0525554Y0108734D03*
X0515554Y0108734D03*
X0515554Y0098734D03*
X0525554Y0098734D03*
X0525554Y0088734D03*
X0515554Y0088734D03*
D13*
X0541026Y0188655D03*
X0541026Y0196529D03*
X0541026Y0204403D03*
X0541026Y0212277D03*
X0541026Y0220151D03*
X0541026Y0228025D03*
X0541026Y0235899D03*
X0541026Y0243773D03*
X0541026Y0251647D03*
X0541026Y0259521D03*
X0627640Y0259521D03*
X0627640Y0251647D03*
X0627640Y0243773D03*
X0627640Y0235899D03*
X0627640Y0228025D03*
X0627640Y0220151D03*
X0627640Y0212277D03*
X0627640Y0204403D03*
X0627640Y0196529D03*
X0627640Y0188655D03*
D14*
X0498058Y0135065D03*
X0514987Y0131128D03*
X0522861Y0127978D03*
X0529554Y0125616D03*
X0537428Y0131521D03*
X0551995Y0133883D03*
X0551207Y0140183D03*
X0558688Y0140576D03*
X0550814Y0147269D03*
X0555538Y0150419D03*
X0550026Y0153569D03*
X0555538Y0157112D03*
X0554751Y0164198D03*
X0554751Y0176009D03*
X0527192Y0180734D03*
X0511444Y0167348D03*
X0548845Y0192545D03*
X0581916Y0196088D03*
X0587034Y0190970D03*
X0611050Y0191757D03*
X0620105Y0191364D03*
X0618530Y0177978D03*
X0636640Y0189002D03*
X0620105Y0208687D03*
X0610656Y0209080D03*
X0610262Y0215773D03*
X0581522Y0205143D03*
X0557900Y0214986D03*
X0550420Y0217742D03*
X0609081Y0164986D03*
X0622861Y0163411D03*
X0630735Y0160261D03*
X0627979Y0148844D03*
X0625617Y0140576D03*
X0639396Y0142545D03*
X0653176Y0147269D03*
X0615538Y0128254D03*
X0617349Y0121679D03*
X0632310Y0114986D03*
X0615774Y0110261D03*
X0583491Y0109080D03*
X0562231Y0110261D03*
X0546089Y0109080D03*
X0537428Y0100419D03*
X0557900Y0098450D03*
X0555538Y0087427D03*
X0545696Y0076403D03*
X0527192Y0079946D03*
X0503963Y0088608D03*
X0523255Y0116167D03*
X0542940Y0120104D03*
X0557113Y0119317D03*
X0573648Y0121285D03*
X0577192Y0130340D03*
X0583491Y0135852D03*
X0579160Y0139789D03*
X0572467Y0140183D03*
X0571286Y0150025D03*
X0581129Y0152387D03*
X0599239Y0150813D03*
X0589790Y0130340D03*
X0653570Y0127584D03*
X0653963Y0098450D03*
X0630341Y0088608D03*
X0653570Y0072072D03*
X0627979Y0058293D03*
X0611837Y0059474D03*
X0572073Y0079946D03*
X0583885Y0094513D03*
X0554751Y0039395D03*
X0537428Y0030340D03*
X0530341Y0030734D03*
X0516955Y0038214D03*
X0510656Y0032309D03*
X0502388Y0028372D03*
X0529948Y0019710D03*
X0544121Y0012230D03*
X0558688Y0027584D03*
X0610262Y0019317D03*
X0614199Y0013805D03*
X0626798Y0011443D03*
M02*
