G75*
G70*
%OFA0B0*%
%FSLAX24Y24*%
%IPPOS*%
%LPD*%
%AMOC8*
5,1,8,0,0,1.08239X$1,22.5*
%
%ADD10C,0.0000*%
%ADD11C,0.0040*%
%ADD12C,0.0060*%
%ADD13C,0.0100*%
%ADD14C,0.0080*%
%ADD15C,0.0160*%
%ADD16C,0.0050*%
%ADD17C,0.0120*%
%ADD18C,0.0010*%
%ADD19R,0.0827X0.0118*%
%ADD20R,0.0250X0.0900*%
%ADD21R,0.0260X0.0300*%
%ADD22C,0.0260*%
%ADD23R,0.0260X0.0260*%
%ADD24R,0.0128X0.0167*%
%ADD25R,0.0138X0.0138*%
%ADD26C,0.0200*%
%ADD27R,0.0300X0.4200*%
%ADD28R,0.0200X0.0750*%
%ADD29R,0.0200X0.0300*%
D10*
X002476Y002342D02*
X002476Y022838D01*
X032846Y022838D01*
X032846Y002342D01*
X002476Y002342D01*
D11*
X007310Y006160D02*
X007310Y006621D01*
X007540Y006621D01*
X007617Y006544D01*
X007617Y006390D01*
X007540Y006314D01*
X007310Y006314D01*
X007463Y006314D02*
X007617Y006160D01*
X007770Y006237D02*
X007770Y006390D01*
X008001Y006390D01*
X008077Y006314D01*
X008077Y006237D01*
X008001Y006160D01*
X007847Y006160D01*
X007770Y006237D01*
X007770Y006390D02*
X007924Y006544D01*
X008077Y006621D01*
X008257Y005571D02*
X008181Y005494D01*
X008181Y005187D01*
X008257Y005110D01*
X008411Y005110D01*
X008488Y005187D01*
X008641Y005187D02*
X008718Y005110D01*
X008871Y005110D01*
X008948Y005187D01*
X008948Y005494D01*
X008871Y005571D01*
X008718Y005571D01*
X008641Y005494D01*
X008641Y005187D01*
X008488Y005494D02*
X008411Y005571D01*
X008257Y005571D01*
X009101Y005571D02*
X009255Y005571D01*
X009178Y005571D02*
X009178Y005110D01*
X009101Y005110D02*
X009255Y005110D01*
X009408Y005110D02*
X009715Y005110D01*
X009869Y005187D02*
X009945Y005110D01*
X010099Y005110D01*
X010176Y005187D01*
X010176Y005264D01*
X010099Y005340D01*
X009945Y005340D01*
X009869Y005417D01*
X009869Y005494D01*
X009945Y005571D01*
X010099Y005571D01*
X010176Y005494D01*
X009408Y005571D02*
X009408Y005110D01*
X011181Y005110D02*
X011181Y005571D01*
X011181Y005340D02*
X011488Y005340D01*
X011641Y005340D02*
X011948Y005340D01*
X011948Y005417D02*
X011948Y005110D01*
X012101Y005110D02*
X012101Y005571D01*
X011948Y005417D02*
X011795Y005571D01*
X011641Y005417D01*
X011641Y005110D01*
X011488Y005110D02*
X011488Y005571D01*
X012101Y005110D02*
X012408Y005110D01*
X012562Y005110D02*
X012869Y005110D01*
X012562Y005110D02*
X012562Y005571D01*
X012485Y006110D02*
X012715Y006110D01*
X012792Y006187D01*
X012715Y006264D01*
X012562Y006264D01*
X012485Y006340D01*
X012562Y006417D01*
X012792Y006417D01*
X012945Y006340D02*
X013022Y006417D01*
X013176Y006417D01*
X013252Y006340D01*
X013252Y006110D01*
X013406Y006110D02*
X013559Y006110D01*
X013483Y006110D02*
X013483Y006571D01*
X013406Y006571D01*
X013713Y006340D02*
X013789Y006417D01*
X013943Y006417D01*
X014020Y006340D01*
X014020Y006264D01*
X013713Y006264D01*
X013713Y006340D02*
X013713Y006187D01*
X013789Y006110D01*
X013943Y006110D01*
X014173Y006110D02*
X014403Y006110D01*
X014480Y006187D01*
X014403Y006264D01*
X014250Y006264D01*
X014173Y006340D01*
X014250Y006417D01*
X014480Y006417D01*
X014633Y006340D02*
X014710Y006417D01*
X014940Y006417D01*
X014864Y006264D02*
X014710Y006264D01*
X014633Y006340D01*
X014633Y006110D02*
X014864Y006110D01*
X014940Y006187D01*
X014864Y006264D01*
X015554Y006110D02*
X015554Y006571D01*
X015784Y006571D01*
X015861Y006494D01*
X015861Y006187D01*
X015784Y006110D01*
X015554Y006110D01*
X016014Y006110D02*
X016014Y006417D01*
X016014Y006264D02*
X016168Y006417D01*
X016245Y006417D01*
X016398Y006417D02*
X016475Y006417D01*
X016475Y006110D01*
X016398Y006110D02*
X016552Y006110D01*
X016858Y006110D02*
X016705Y006417D01*
X016475Y006571D02*
X016475Y006647D01*
X017012Y006417D02*
X016858Y006110D01*
X017165Y006187D02*
X017165Y006340D01*
X017242Y006417D01*
X017396Y006417D01*
X017472Y006340D01*
X017472Y006264D01*
X017165Y006264D01*
X017165Y006187D02*
X017242Y006110D01*
X017396Y006110D01*
X017626Y006110D02*
X017626Y006417D01*
X017626Y006264D02*
X017779Y006417D01*
X017856Y006417D01*
X016908Y005494D02*
X016832Y005571D01*
X016601Y005571D01*
X016601Y005110D01*
X016832Y005110D01*
X016908Y005187D01*
X016908Y005494D01*
X016448Y005571D02*
X016448Y005110D01*
X016141Y005110D02*
X016141Y005571D01*
X016295Y005417D01*
X016448Y005571D01*
X015988Y005494D02*
X015911Y005571D01*
X015757Y005571D01*
X015681Y005494D01*
X015681Y005187D01*
X015757Y005110D01*
X015911Y005110D01*
X015988Y005187D01*
X014948Y005110D02*
X014641Y005110D01*
X014641Y005571D01*
X014948Y005571D01*
X014795Y005340D02*
X014641Y005340D01*
X014488Y005187D02*
X014488Y005494D01*
X014411Y005571D01*
X014257Y005571D01*
X014181Y005494D01*
X014181Y005187D01*
X014257Y005110D01*
X014411Y005110D01*
X014488Y005187D01*
X014488Y005110D02*
X014334Y005264D01*
X012945Y006110D02*
X012945Y006571D01*
X012332Y006417D02*
X012332Y006110D01*
X012101Y006110D01*
X012025Y006187D01*
X012025Y006417D01*
X011871Y006417D02*
X011795Y006417D01*
X011641Y006264D01*
X011641Y006417D02*
X011641Y006110D01*
X011488Y006187D02*
X011411Y006110D01*
X011181Y006110D01*
X011181Y006571D01*
X011411Y006571D01*
X011488Y006494D01*
X011488Y006417D01*
X011411Y006340D01*
X011181Y006340D01*
X011411Y006340D02*
X011488Y006264D01*
X011488Y006187D01*
X008996Y009623D02*
X008843Y009623D01*
X008766Y009699D01*
X008613Y009699D02*
X008536Y009623D01*
X008382Y009623D01*
X008306Y009699D01*
X008306Y010006D01*
X008382Y010083D01*
X008536Y010083D01*
X008613Y010006D01*
X008766Y010083D02*
X008766Y009853D01*
X008920Y009930D01*
X008996Y009930D01*
X009073Y009853D01*
X009073Y009699D01*
X008996Y009623D01*
X009073Y010083D02*
X008766Y010083D01*
X005577Y010737D02*
X005501Y010660D01*
X005347Y010660D01*
X005270Y010737D01*
X005270Y010890D02*
X005424Y010967D01*
X005501Y010967D01*
X005577Y010890D01*
X005577Y010737D01*
X005270Y010890D02*
X005270Y011121D01*
X005577Y011121D01*
X005117Y011044D02*
X005117Y010890D01*
X005040Y010814D01*
X004810Y010814D01*
X004963Y010814D02*
X005117Y010660D01*
X004810Y010660D02*
X004810Y011121D01*
X005040Y011121D01*
X005117Y011044D01*
X005117Y016660D02*
X004963Y016814D01*
X005040Y016814D02*
X004810Y016814D01*
X004810Y016660D02*
X004810Y017121D01*
X005040Y017121D01*
X005117Y017044D01*
X005117Y016890D01*
X005040Y016814D01*
X005270Y016890D02*
X005577Y016890D01*
X005501Y016660D02*
X005501Y017121D01*
X005270Y016890D01*
X006243Y018485D02*
X006703Y018485D01*
X006703Y018792D01*
X006703Y018946D02*
X006243Y018946D01*
X006243Y019252D01*
X006243Y019406D02*
X006243Y019636D01*
X006320Y019713D01*
X006627Y019713D01*
X006703Y019636D01*
X006703Y019406D01*
X006243Y019406D01*
X006473Y019099D02*
X006473Y018946D01*
X006703Y018946D02*
X006703Y019252D01*
X006703Y019866D02*
X006703Y020173D01*
X006703Y020020D02*
X006243Y020020D01*
X006396Y019866D01*
X007805Y019943D02*
X007882Y019866D01*
X007805Y019943D02*
X007805Y020096D01*
X007882Y020173D01*
X007959Y020173D01*
X008266Y019866D01*
X008266Y020173D01*
X008189Y019713D02*
X007882Y019713D01*
X007805Y019636D01*
X007805Y019406D01*
X008266Y019406D01*
X008266Y019636D01*
X008189Y019713D01*
X008266Y019252D02*
X008266Y018946D01*
X007805Y018946D01*
X007805Y019252D01*
X008036Y019099D02*
X008036Y018946D01*
X008266Y018792D02*
X008266Y018485D01*
X007805Y018485D01*
X012131Y022060D02*
X012131Y022521D01*
X012361Y022521D01*
X012438Y022444D01*
X012438Y022290D01*
X012361Y022214D01*
X012131Y022214D01*
X012284Y022214D02*
X012438Y022060D01*
X012591Y022060D02*
X012591Y022137D01*
X012898Y022444D01*
X012898Y022521D01*
X012591Y022521D01*
X019748Y016246D02*
X019978Y016246D01*
X020054Y016169D01*
X020054Y016015D01*
X019978Y015939D01*
X019748Y015939D01*
X019901Y015939D02*
X020054Y015785D01*
X020208Y015862D02*
X020208Y015939D01*
X020285Y016015D01*
X020438Y016015D01*
X020515Y015939D01*
X020515Y015862D01*
X020438Y015785D01*
X020285Y015785D01*
X020208Y015862D01*
X020285Y016015D02*
X020208Y016092D01*
X020208Y016169D01*
X020285Y016246D01*
X020438Y016246D01*
X020515Y016169D01*
X020515Y016092D01*
X020438Y016015D01*
X019748Y015785D02*
X019748Y016246D01*
X018637Y015571D02*
X018484Y015417D01*
X018637Y015571D02*
X018637Y015110D01*
X018484Y015110D02*
X018791Y015110D01*
X020680Y015130D02*
X020680Y014976D01*
X020757Y014900D01*
X020757Y014746D02*
X020680Y014670D01*
X020680Y014516D01*
X020757Y014439D01*
X021064Y014439D01*
X021141Y014516D01*
X021141Y014670D01*
X021064Y014746D01*
X021141Y014900D02*
X020834Y015207D01*
X020757Y015207D01*
X020680Y015130D01*
X021141Y015207D02*
X021141Y014900D01*
X021141Y014286D02*
X021141Y014133D01*
X021141Y014209D02*
X020680Y014209D01*
X020680Y014133D02*
X020680Y014286D01*
X017091Y011818D02*
X016630Y011818D01*
X016861Y011587D01*
X016861Y011894D01*
X017014Y011434D02*
X017091Y011357D01*
X017091Y011204D01*
X017014Y011127D01*
X016707Y011127D01*
X016630Y011204D01*
X016630Y011357D01*
X016707Y011434D01*
X019681Y007571D02*
X019911Y007571D01*
X019988Y007494D01*
X019988Y007340D01*
X019911Y007264D01*
X019681Y007264D01*
X019834Y007264D02*
X019988Y007110D01*
X020141Y007187D02*
X020141Y007340D01*
X020218Y007417D01*
X020371Y007417D01*
X020448Y007340D01*
X020448Y007264D01*
X020141Y007264D01*
X020141Y007187D02*
X020218Y007110D01*
X020371Y007110D01*
X020601Y007417D02*
X020755Y007110D01*
X020908Y007417D01*
X021062Y007187D02*
X021139Y007187D01*
X021139Y007110D01*
X021062Y007110D01*
X021062Y007187D01*
X021752Y007110D02*
X022059Y007110D01*
X021906Y007110D02*
X021906Y007571D01*
X021752Y007417D01*
X021752Y006571D02*
X021752Y006110D01*
X021522Y006110D01*
X021445Y006187D01*
X021445Y006340D01*
X021522Y006417D01*
X021752Y006417D01*
X021292Y006417D02*
X021215Y006417D01*
X021062Y006264D01*
X021062Y006417D02*
X021062Y006110D01*
X020908Y006110D02*
X020678Y006110D01*
X020601Y006187D01*
X020678Y006264D01*
X020908Y006264D01*
X020908Y006340D02*
X020908Y006110D01*
X020908Y006340D02*
X020832Y006417D01*
X020678Y006417D01*
X020448Y006340D02*
X020448Y006187D01*
X020371Y006110D01*
X020218Y006110D01*
X020141Y006187D01*
X020141Y006340D01*
X020218Y006417D01*
X020371Y006417D01*
X020448Y006340D01*
X019988Y006264D02*
X019988Y006187D01*
X019911Y006110D01*
X019681Y006110D01*
X019681Y006571D01*
X019911Y006571D01*
X019988Y006494D01*
X019988Y006417D01*
X019911Y006340D01*
X019681Y006340D01*
X019911Y006340D02*
X019988Y006264D01*
X020178Y005571D02*
X020101Y005494D01*
X020178Y005571D02*
X020332Y005571D01*
X020408Y005494D01*
X020408Y005417D01*
X020101Y005110D01*
X020408Y005110D01*
X020562Y005264D02*
X020562Y005571D01*
X020869Y005571D02*
X020869Y005264D01*
X020715Y005110D01*
X020562Y005264D01*
X019948Y005110D02*
X019641Y005110D01*
X019795Y005110D02*
X019795Y005571D01*
X019641Y005417D01*
X019488Y005340D02*
X019181Y005340D01*
X019334Y005187D02*
X019334Y005494D01*
X019681Y007110D02*
X019681Y007571D01*
X022366Y006034D02*
X022673Y006034D01*
X022827Y006034D02*
X023133Y006034D01*
X023287Y006034D02*
X023594Y006034D01*
X023601Y005571D02*
X023601Y005264D01*
X023755Y005110D01*
X023908Y005264D01*
X023908Y005571D01*
X023448Y005571D02*
X023141Y005571D01*
X023141Y005340D01*
X023295Y005417D01*
X023371Y005417D01*
X023448Y005340D01*
X023448Y005187D01*
X023371Y005110D01*
X023218Y005110D01*
X023141Y005187D01*
X022988Y005340D02*
X022681Y005340D01*
X022834Y005187D02*
X022834Y005494D01*
X025181Y005494D02*
X025181Y005187D01*
X025257Y005110D01*
X025411Y005110D01*
X025488Y005187D01*
X025488Y005340D01*
X025334Y005340D01*
X025181Y005494D02*
X025257Y005571D01*
X025411Y005571D01*
X025488Y005494D01*
X025641Y005571D02*
X025948Y005110D01*
X025948Y005571D01*
X026101Y005571D02*
X026332Y005571D01*
X026408Y005494D01*
X026408Y005187D01*
X026332Y005110D01*
X026101Y005110D01*
X026101Y005571D01*
X025641Y005571D02*
X025641Y005110D01*
X025707Y009189D02*
X026014Y009189D01*
X026091Y009266D01*
X026091Y009420D01*
X026014Y009496D01*
X026014Y009650D02*
X026091Y009727D01*
X026091Y009880D01*
X026014Y009957D01*
X025937Y009957D01*
X025861Y009880D01*
X025861Y009803D01*
X025861Y009880D02*
X025784Y009957D01*
X025707Y009957D01*
X025630Y009880D01*
X025630Y009727D01*
X025707Y009650D01*
X025707Y009496D02*
X025630Y009420D01*
X025630Y009266D01*
X025707Y009189D01*
X029631Y010810D02*
X029631Y011271D01*
X029861Y011271D01*
X029938Y011194D01*
X029938Y011040D01*
X029861Y010964D01*
X029631Y010964D01*
X029784Y010964D02*
X029938Y010810D01*
X030091Y010887D02*
X030168Y010810D01*
X030321Y010810D01*
X030398Y010887D01*
X030398Y010964D01*
X030321Y011040D01*
X030245Y011040D01*
X030321Y011040D02*
X030398Y011117D01*
X030398Y011194D01*
X030321Y011271D01*
X030168Y011271D01*
X030091Y011194D01*
X028191Y014060D02*
X027730Y014060D01*
X027730Y014290D01*
X027807Y014367D01*
X027961Y014367D01*
X028037Y014290D01*
X028037Y014060D01*
X028037Y014214D02*
X028191Y014367D01*
X028191Y014521D02*
X027884Y014827D01*
X027807Y014827D01*
X027730Y014751D01*
X027730Y014597D01*
X027807Y014521D01*
X028191Y014521D02*
X028191Y014827D01*
X026091Y015766D02*
X026091Y015920D01*
X026014Y015996D01*
X026091Y016150D02*
X025784Y016457D01*
X025707Y016457D01*
X025630Y016380D01*
X025630Y016227D01*
X025707Y016150D01*
X025707Y015996D02*
X025630Y015920D01*
X025630Y015766D01*
X025707Y015689D01*
X026014Y015689D01*
X026091Y015766D01*
X026091Y016150D02*
X026091Y016457D01*
X027730Y017060D02*
X027730Y017290D01*
X027807Y017367D01*
X027961Y017367D01*
X028037Y017290D01*
X028037Y017060D01*
X028037Y017214D02*
X028191Y017367D01*
X028191Y017521D02*
X028191Y017827D01*
X028191Y017674D02*
X027730Y017674D01*
X027884Y017521D01*
X027730Y017060D02*
X028191Y017060D01*
X026091Y013207D02*
X026091Y012900D01*
X026091Y013053D02*
X025630Y013053D01*
X025784Y012900D01*
X025707Y012746D02*
X025630Y012670D01*
X025630Y012516D01*
X025707Y012439D01*
X026014Y012439D01*
X026091Y012516D01*
X026091Y012670D01*
X026014Y012746D01*
D12*
X029961Y012240D02*
X029961Y015940D01*
X030061Y016040D01*
X031211Y016090D01*
X031211Y018090D02*
X030061Y018140D01*
X029961Y018240D01*
X029961Y021940D01*
X030061Y022040D01*
X031211Y022090D01*
X026561Y022740D02*
X026561Y018950D01*
X022761Y018950D01*
X022761Y022740D01*
X023161Y022740D01*
X023161Y022390D01*
X026161Y022390D01*
X026161Y022740D01*
X026561Y022740D01*
X022561Y022740D02*
X022161Y022740D01*
X022161Y022390D01*
X019161Y022390D01*
X019161Y022740D01*
X018761Y022740D01*
X018761Y018950D01*
X022561Y018950D01*
X022561Y022740D01*
X018561Y022740D02*
X018161Y022740D01*
X018161Y022390D01*
X015161Y022390D01*
X015161Y022740D01*
X014761Y022740D01*
X014761Y018950D01*
X018561Y018950D01*
X018561Y022740D01*
X010661Y021840D02*
X010661Y021340D01*
X010411Y021090D01*
X009911Y021090D01*
X009661Y021340D01*
X009411Y021090D01*
X008911Y021090D01*
X008661Y021340D01*
X008411Y021090D01*
X007911Y021090D01*
X007661Y021340D01*
X007411Y021090D01*
X006911Y021090D01*
X006661Y021340D01*
X006661Y021840D01*
X006911Y022090D01*
X007411Y022090D01*
X007661Y021840D01*
X007911Y022090D01*
X008411Y022090D01*
X008661Y021840D01*
X008911Y022090D01*
X009411Y022090D01*
X009661Y021840D01*
X009911Y022090D01*
X010411Y022090D01*
X010661Y021840D01*
X005361Y021940D02*
X005361Y018240D01*
X005261Y018140D01*
X004111Y018090D01*
X004111Y016590D02*
X005261Y016540D01*
X005361Y016440D01*
X005361Y012740D01*
X005261Y012640D01*
X004111Y012590D01*
X004111Y010590D02*
X005261Y010540D01*
X005361Y010440D01*
X005361Y006740D01*
X005261Y006640D01*
X004111Y006590D01*
X005261Y004978D02*
X005261Y004078D01*
X005511Y004078D01*
X005511Y004528D01*
X005511Y004978D01*
X005261Y004978D01*
X003411Y004528D02*
X003418Y004687D01*
X003440Y004845D01*
X003476Y005000D01*
X003526Y005151D01*
X003589Y005298D01*
X003666Y005437D01*
X003755Y005569D01*
X003855Y005693D01*
X003967Y005807D01*
X004088Y005910D01*
X004218Y006002D01*
X004356Y006082D01*
X004501Y006149D01*
X004651Y006202D01*
X004805Y006241D01*
X004962Y006267D01*
X005121Y006278D01*
X005280Y006274D01*
X005439Y006256D01*
X005595Y006223D01*
X005747Y006177D01*
X005895Y006117D01*
X006036Y006044D01*
X006170Y005958D01*
X006296Y005860D01*
X006412Y005751D01*
X006518Y005632D01*
X006613Y005504D01*
X006696Y005368D01*
X006766Y005225D01*
X006823Y005076D01*
X006866Y004923D01*
X006895Y004766D01*
X006909Y004608D01*
X006909Y004448D01*
X006895Y004290D01*
X006866Y004133D01*
X006823Y003980D01*
X006766Y003831D01*
X006696Y003688D01*
X006613Y003552D01*
X006518Y003424D01*
X006412Y003305D01*
X006296Y003196D01*
X006170Y003098D01*
X006036Y003012D01*
X005895Y002939D01*
X005747Y002879D01*
X005595Y002833D01*
X005439Y002800D01*
X005280Y002782D01*
X005121Y002778D01*
X004962Y002789D01*
X004805Y002815D01*
X004651Y002854D01*
X004501Y002907D01*
X004356Y002974D01*
X004218Y003054D01*
X004088Y003146D01*
X003967Y003249D01*
X003855Y003363D01*
X003755Y003487D01*
X003666Y003619D01*
X003589Y003758D01*
X003526Y003905D01*
X003476Y004056D01*
X003440Y004211D01*
X003418Y004369D01*
X003411Y004528D01*
X004711Y004528D02*
X004911Y004528D01*
X005511Y004528D02*
X005611Y004528D01*
X006311Y003878D02*
X006611Y003878D01*
X006461Y003728D02*
X006461Y004028D01*
X007661Y003490D02*
X007661Y002390D01*
X008661Y002390D01*
X009661Y002390D01*
X010661Y002390D01*
X011661Y002390D01*
X012661Y002390D01*
X013661Y002390D01*
X014661Y002390D01*
X015661Y002390D01*
X016661Y002390D01*
X017661Y002390D01*
X018661Y002390D01*
X019661Y002390D01*
X020661Y002390D01*
X021661Y002390D01*
X022661Y002390D01*
X023661Y002390D01*
X024661Y002390D01*
X025661Y002390D01*
X026661Y002390D01*
X027661Y002390D01*
X027661Y003490D01*
X026661Y003490D01*
X025661Y003490D01*
X025661Y002390D01*
X026661Y002390D02*
X026661Y003490D01*
X025661Y003490D02*
X024661Y003490D01*
X024661Y002390D01*
X023661Y002390D02*
X023661Y003490D01*
X024661Y003490D01*
X023661Y003490D02*
X022661Y003490D01*
X022661Y002390D01*
X021661Y002390D02*
X021661Y003490D01*
X022661Y003490D01*
X021661Y003490D02*
X020661Y003490D01*
X020661Y002390D01*
X019661Y002390D02*
X019661Y003490D01*
X020661Y003490D01*
X019661Y003490D02*
X018661Y003490D01*
X018661Y002390D01*
X017661Y002390D02*
X017661Y003490D01*
X018661Y003490D01*
X017661Y003490D02*
X016661Y003490D01*
X015661Y003490D01*
X015661Y002390D01*
X016661Y002390D02*
X016661Y003490D01*
X015661Y003490D02*
X014661Y003490D01*
X014661Y002390D01*
X013661Y002390D02*
X013661Y003490D01*
X014661Y003490D01*
X013661Y003490D02*
X012661Y003490D01*
X012661Y002390D01*
X011661Y002390D02*
X011661Y003490D01*
X012661Y003490D01*
X011661Y003490D02*
X010661Y003490D01*
X010661Y002390D01*
X009661Y002390D02*
X009661Y003490D01*
X010661Y003490D01*
X009661Y003490D02*
X008661Y003490D01*
X008661Y002390D01*
X008661Y003490D02*
X007661Y003490D01*
X010691Y007120D02*
X010691Y007821D01*
X011041Y007821D01*
X011158Y007704D01*
X011158Y007471D01*
X011041Y007354D01*
X010691Y007354D01*
X010924Y007354D02*
X011158Y007120D01*
X011391Y007120D02*
X011391Y007821D01*
X011858Y007821D01*
X012090Y007704D02*
X012090Y007237D01*
X012207Y007120D01*
X012441Y007120D01*
X012557Y007237D01*
X012557Y007704D02*
X012441Y007821D01*
X012207Y007821D01*
X012090Y007704D01*
X011624Y007471D02*
X011391Y007471D01*
X012322Y008720D02*
X012536Y008720D01*
X012429Y008720D02*
X012429Y009361D01*
X012322Y009361D02*
X012536Y009361D01*
X012752Y009254D02*
X012752Y008827D01*
X012858Y008720D01*
X013072Y008720D01*
X013179Y008827D01*
X013396Y008720D02*
X013823Y008720D01*
X013610Y008720D02*
X013610Y009361D01*
X013396Y009147D01*
X013179Y009254D02*
X013072Y009361D01*
X012858Y009361D01*
X012752Y009254D01*
X013607Y007821D02*
X013490Y007704D01*
X013490Y007237D01*
X013607Y007120D01*
X013840Y007120D01*
X013957Y007237D01*
X014190Y007237D02*
X014306Y007354D01*
X014657Y007354D01*
X014657Y007471D02*
X014657Y007120D01*
X014306Y007120D01*
X014190Y007237D01*
X014540Y007587D02*
X014657Y007471D01*
X014540Y007587D02*
X014306Y007587D01*
X013957Y007704D02*
X013840Y007821D01*
X013607Y007821D01*
X014889Y007587D02*
X014889Y007120D01*
X015123Y007120D02*
X015123Y007471D01*
X015240Y007587D01*
X015356Y007471D01*
X015356Y007120D01*
X015589Y007120D02*
X015939Y007120D01*
X016056Y007237D01*
X016056Y007471D01*
X015939Y007587D01*
X015589Y007587D01*
X015589Y007821D02*
X015589Y007120D01*
X015123Y007471D02*
X015006Y007587D01*
X014889Y007587D01*
X016289Y007587D02*
X016289Y007120D01*
X016289Y007354D02*
X016522Y007587D01*
X016639Y007587D01*
X016872Y007587D02*
X016989Y007587D01*
X016989Y007120D01*
X016872Y007120D02*
X017106Y007120D01*
X017339Y007237D02*
X017339Y007471D01*
X017455Y007587D01*
X017806Y007587D01*
X017806Y007821D02*
X017806Y007120D01*
X017455Y007120D01*
X017339Y007237D01*
X018038Y007237D02*
X018155Y007120D01*
X018505Y007120D01*
X018505Y007004D02*
X018505Y007587D01*
X018155Y007587D01*
X018038Y007471D01*
X018038Y007237D01*
X018272Y006887D02*
X018389Y006887D01*
X018505Y007004D01*
X018738Y007237D02*
X018738Y007471D01*
X018855Y007587D01*
X019088Y007587D01*
X019205Y007471D01*
X019205Y007354D01*
X018738Y007354D01*
X018738Y007237D02*
X018855Y007120D01*
X019088Y007120D01*
X016989Y007821D02*
X016989Y007938D01*
X008473Y011578D02*
X008423Y011528D01*
X007023Y011528D01*
X006973Y011578D01*
X006973Y014978D01*
X007023Y015028D01*
X008423Y015028D01*
X008473Y014978D01*
X008473Y011578D01*
X007723Y012678D02*
X007723Y012908D01*
X007723Y013648D02*
X007723Y013878D01*
X005361Y021940D02*
X005261Y022040D01*
X004111Y022090D01*
X029961Y012240D02*
X030061Y012140D01*
X031211Y012090D01*
X031211Y010590D02*
X030061Y010540D01*
X029961Y010440D01*
X029961Y006740D01*
X030061Y006640D01*
X031211Y006590D01*
X030511Y005040D02*
X030261Y005040D01*
X030261Y004140D01*
X030511Y004140D01*
X030511Y004590D01*
X030511Y005040D01*
X030511Y004590D02*
X030611Y004590D01*
X028411Y004590D02*
X028418Y004749D01*
X028440Y004907D01*
X028476Y005062D01*
X028526Y005213D01*
X028589Y005360D01*
X028666Y005499D01*
X028755Y005631D01*
X028855Y005755D01*
X028967Y005869D01*
X029088Y005972D01*
X029218Y006064D01*
X029356Y006144D01*
X029501Y006211D01*
X029651Y006264D01*
X029805Y006303D01*
X029962Y006329D01*
X030121Y006340D01*
X030280Y006336D01*
X030439Y006318D01*
X030595Y006285D01*
X030747Y006239D01*
X030895Y006179D01*
X031036Y006106D01*
X031170Y006020D01*
X031296Y005922D01*
X031412Y005813D01*
X031518Y005694D01*
X031613Y005566D01*
X031696Y005430D01*
X031766Y005287D01*
X031823Y005138D01*
X031866Y004985D01*
X031895Y004828D01*
X031909Y004670D01*
X031909Y004510D01*
X031895Y004352D01*
X031866Y004195D01*
X031823Y004042D01*
X031766Y003893D01*
X031696Y003750D01*
X031613Y003614D01*
X031518Y003486D01*
X031412Y003367D01*
X031296Y003258D01*
X031170Y003160D01*
X031036Y003074D01*
X030895Y003001D01*
X030747Y002941D01*
X030595Y002895D01*
X030439Y002862D01*
X030280Y002844D01*
X030121Y002840D01*
X029962Y002851D01*
X029805Y002877D01*
X029651Y002916D01*
X029501Y002969D01*
X029356Y003036D01*
X029218Y003116D01*
X029088Y003208D01*
X028967Y003311D01*
X028855Y003425D01*
X028755Y003549D01*
X028666Y003681D01*
X028589Y003820D01*
X028526Y003967D01*
X028476Y004118D01*
X028440Y004273D01*
X028418Y004431D01*
X028411Y004590D01*
X029711Y004590D02*
X029911Y004590D01*
X031311Y003940D02*
X031611Y003940D01*
X031461Y003790D02*
X031461Y004090D01*
D13*
X026956Y009492D02*
X026385Y009492D01*
X026661Y009905D01*
X026956Y009492D01*
X026956Y012742D02*
X026385Y012742D01*
X026661Y013155D01*
X026956Y012742D01*
X026956Y015992D02*
X026385Y015992D01*
X026661Y016405D01*
X026956Y015992D01*
X024661Y020090D02*
X024911Y020590D01*
X024811Y020590D01*
X024791Y020590D01*
X024761Y020590D01*
X024791Y020590D02*
X024791Y021460D01*
X024541Y021460D01*
X024541Y020590D01*
X024561Y020590D01*
X024541Y020590D02*
X024511Y020590D01*
X024411Y020590D01*
X024661Y020090D01*
X024711Y020240D02*
X024611Y020240D01*
X024611Y021440D01*
X024661Y021440D02*
X024711Y021440D01*
X024711Y020240D01*
X024811Y020440D02*
X024811Y020590D01*
X024511Y020590D02*
X024511Y020440D01*
X020911Y020590D02*
X020811Y020590D01*
X020791Y020590D01*
X020761Y020590D01*
X020791Y020590D02*
X020791Y021460D01*
X020541Y021460D01*
X020541Y020590D01*
X020561Y020590D01*
X020541Y020590D02*
X020511Y020590D01*
X020411Y020590D01*
X020661Y020090D01*
X020911Y020590D01*
X020811Y020590D02*
X020811Y020440D01*
X020711Y020240D02*
X020611Y020240D01*
X020611Y021440D01*
X020661Y021440D02*
X020711Y021440D01*
X020711Y020240D01*
X020511Y020440D02*
X020511Y020590D01*
X016911Y020590D02*
X016661Y020090D01*
X016411Y020590D01*
X016511Y020590D01*
X016511Y020440D01*
X016511Y020590D02*
X016541Y020590D01*
X016561Y020590D01*
X016541Y020590D02*
X016541Y021460D01*
X016791Y021460D01*
X016791Y020590D01*
X016811Y020590D01*
X016811Y020440D01*
X016811Y020590D02*
X016911Y020590D01*
X016791Y020590D02*
X016761Y020590D01*
X016711Y020240D02*
X016611Y020240D01*
X016611Y021440D01*
X016661Y021440D02*
X016711Y021440D01*
X016711Y020240D01*
X013875Y010515D02*
X013877Y010536D01*
X013883Y010556D01*
X013893Y010575D01*
X013906Y010592D01*
X013922Y010605D01*
X013940Y010616D01*
X013960Y010623D01*
X013981Y010626D01*
X014002Y010625D01*
X014022Y010620D01*
X014041Y010611D01*
X014059Y010599D01*
X014073Y010584D01*
X014085Y010566D01*
X014093Y010546D01*
X014096Y010526D01*
X014096Y010504D01*
X014093Y010484D01*
X014085Y010464D01*
X014073Y010446D01*
X014059Y010431D01*
X014042Y010419D01*
X014022Y010410D01*
X014002Y010405D01*
X013981Y010404D01*
X013960Y010407D01*
X013940Y010414D01*
X013922Y010425D01*
X013906Y010438D01*
X013893Y010455D01*
X013883Y010474D01*
X013877Y010494D01*
X013875Y010515D01*
D14*
X014143Y010200D02*
X010679Y010200D01*
X010521Y010358D01*
X010521Y013823D01*
X010679Y013980D01*
X014143Y013980D01*
X014301Y013823D01*
X014301Y010358D01*
X014143Y010200D01*
D15*
X008723Y011528D02*
X008723Y015028D01*
X008721Y015058D01*
X008716Y015088D01*
X008707Y015117D01*
X008694Y015144D01*
X008679Y015170D01*
X008660Y015194D01*
X008639Y015215D01*
X008615Y015234D01*
X008589Y015249D01*
X008562Y015262D01*
X008533Y015271D01*
X008503Y015276D01*
X008473Y015278D01*
X006973Y015278D01*
X006943Y015276D01*
X006913Y015271D01*
X006884Y015262D01*
X006857Y015249D01*
X006831Y015234D01*
X006807Y015215D01*
X006786Y015194D01*
X006767Y015170D01*
X006752Y015144D01*
X006739Y015117D01*
X006730Y015088D01*
X006725Y015058D01*
X006723Y015028D01*
X006723Y011528D01*
X006725Y011498D01*
X006730Y011468D01*
X006739Y011439D01*
X006752Y011412D01*
X006767Y011386D01*
X006786Y011362D01*
X006807Y011341D01*
X006831Y011322D01*
X006857Y011307D01*
X006884Y011294D01*
X006913Y011285D01*
X006943Y011280D01*
X006973Y011278D01*
X008473Y011278D01*
X008503Y011280D01*
X008533Y011285D01*
X008562Y011294D01*
X008589Y011307D01*
X008615Y011322D01*
X008639Y011341D01*
X008660Y011362D01*
X008679Y011386D01*
X008694Y011412D01*
X008707Y011439D01*
X008716Y011468D01*
X008721Y011498D01*
X008723Y011528D01*
D16*
X006408Y011613D02*
X005958Y011313D01*
X005958Y011613D02*
X006408Y011313D01*
X005958Y011773D02*
X005958Y012073D01*
X005958Y011923D02*
X006408Y011923D01*
X006408Y012233D02*
X006108Y012233D01*
X005958Y012384D01*
X006108Y012534D01*
X006408Y012534D01*
X006408Y012694D02*
X006408Y012994D01*
X006408Y013154D02*
X006408Y013454D01*
X006408Y013304D02*
X005958Y013304D01*
X006108Y013154D01*
X006016Y013076D02*
X005716Y013376D01*
X005640Y013376D01*
X005565Y013301D01*
X005565Y013151D01*
X005640Y013076D01*
X005640Y012915D02*
X005941Y012915D01*
X006016Y012840D01*
X006016Y012690D01*
X005941Y012615D01*
X005640Y012615D01*
X005565Y012690D01*
X005565Y012840D01*
X005640Y012915D01*
X005866Y012765D02*
X006016Y012915D01*
X006016Y013076D02*
X006016Y013376D01*
X005958Y012694D02*
X006408Y012694D01*
X006183Y012534D02*
X006183Y012233D01*
X005941Y007376D02*
X006016Y007301D01*
X006016Y007151D01*
X005941Y007076D01*
X005941Y006915D02*
X005640Y006915D01*
X005565Y006840D01*
X005565Y006690D01*
X005640Y006615D01*
X005941Y006615D01*
X006016Y006690D01*
X006016Y006840D01*
X005941Y006915D01*
X006016Y006915D02*
X005866Y006765D01*
X005640Y007076D02*
X005565Y007151D01*
X005565Y007301D01*
X005640Y007376D01*
X005716Y007376D01*
X005791Y007301D01*
X005866Y007376D01*
X005941Y007376D01*
X005791Y007301D02*
X005791Y007226D01*
X003396Y003603D02*
X003246Y003528D01*
X003095Y003378D01*
X003321Y003378D01*
X003396Y003303D01*
X003396Y003228D01*
X003321Y003153D01*
X003170Y003153D01*
X003095Y003228D01*
X003095Y003378D01*
X002935Y003528D02*
X002860Y003603D01*
X002710Y003603D01*
X002635Y003528D01*
X002635Y003228D01*
X002710Y003153D01*
X002860Y003153D01*
X002935Y003228D01*
X007935Y003180D02*
X007935Y003030D01*
X008010Y002955D01*
X008311Y002955D01*
X008010Y003255D01*
X008311Y003255D01*
X008386Y003180D01*
X008386Y003030D01*
X008311Y002955D01*
X008386Y002795D02*
X008386Y002494D01*
X008086Y002795D01*
X008010Y002795D01*
X007935Y002720D01*
X007935Y002570D01*
X008010Y002494D01*
X007935Y003180D02*
X008010Y003255D01*
X008935Y003130D02*
X008935Y002980D01*
X009010Y002905D01*
X009086Y002905D01*
X009161Y002980D01*
X009161Y003205D01*
X009311Y003205D02*
X009010Y003205D01*
X008935Y003130D01*
X009311Y003205D02*
X009386Y003130D01*
X009386Y002980D01*
X009311Y002905D01*
X009386Y002745D02*
X009386Y002444D01*
X009386Y002595D02*
X008935Y002595D01*
X009086Y002444D01*
X009935Y002595D02*
X010386Y002595D01*
X010386Y002745D02*
X010386Y002444D01*
X010086Y002444D02*
X009935Y002595D01*
X010010Y002905D02*
X010086Y002905D01*
X010161Y002980D01*
X010161Y003130D01*
X010236Y003205D01*
X010311Y003205D01*
X010386Y003130D01*
X010386Y002980D01*
X010311Y002905D01*
X010236Y002905D01*
X010161Y002980D01*
X010161Y003130D02*
X010086Y003205D01*
X010010Y003205D01*
X009935Y003130D01*
X009935Y002980D01*
X010010Y002905D01*
X010935Y002905D02*
X010935Y003205D01*
X011010Y003205D01*
X011311Y002905D01*
X011386Y002905D01*
X011386Y002745D02*
X011386Y002444D01*
X011386Y002595D02*
X010935Y002595D01*
X011086Y002444D01*
X011935Y002595D02*
X012386Y002595D01*
X012386Y002745D02*
X012386Y002444D01*
X012086Y002444D02*
X011935Y002595D01*
X012161Y002905D02*
X012161Y003130D01*
X012236Y003205D01*
X012311Y003205D01*
X012386Y003130D01*
X012386Y002980D01*
X012311Y002905D01*
X012161Y002905D01*
X012010Y003055D01*
X011935Y003205D01*
X012935Y003205D02*
X012935Y002905D01*
X013161Y002905D01*
X013086Y003055D01*
X013086Y003130D01*
X013161Y003205D01*
X013311Y003205D01*
X013386Y003130D01*
X013386Y002980D01*
X013311Y002905D01*
X013386Y002745D02*
X013386Y002444D01*
X013386Y002595D02*
X012935Y002595D01*
X013086Y002444D01*
X013935Y002595D02*
X014386Y002595D01*
X014386Y002745D02*
X014386Y002444D01*
X014086Y002444D02*
X013935Y002595D01*
X014161Y002905D02*
X014161Y003205D01*
X014386Y003130D02*
X013935Y003130D01*
X014161Y002905D01*
X014935Y002930D02*
X015010Y002855D01*
X014935Y002930D02*
X014935Y003080D01*
X015010Y003155D01*
X015086Y003155D01*
X015161Y003080D01*
X015236Y003155D01*
X015311Y003155D01*
X015386Y003080D01*
X015386Y002930D01*
X015311Y002855D01*
X015386Y002695D02*
X015386Y002394D01*
X015386Y002545D02*
X014935Y002545D01*
X015086Y002394D01*
X015161Y003005D02*
X015161Y003080D01*
X015935Y003130D02*
X015935Y002980D01*
X016010Y002905D01*
X015935Y003130D02*
X016010Y003205D01*
X016086Y003205D01*
X016386Y002905D01*
X016386Y003205D01*
X016935Y003005D02*
X017386Y003005D01*
X017386Y002855D02*
X017386Y003155D01*
X017935Y003130D02*
X018010Y003205D01*
X018311Y002905D01*
X018386Y002980D01*
X018386Y003130D01*
X018311Y003205D01*
X018010Y003205D01*
X017935Y003130D02*
X017935Y002980D01*
X018010Y002905D01*
X018311Y002905D01*
X018386Y002745D02*
X018386Y002444D01*
X018386Y002595D02*
X017935Y002595D01*
X018086Y002444D01*
X017386Y002394D02*
X017386Y002695D01*
X017386Y002545D02*
X016935Y002545D01*
X017086Y002394D01*
X017086Y002855D02*
X016935Y003005D01*
X016386Y002745D02*
X016386Y002444D01*
X016386Y002595D02*
X015935Y002595D01*
X016086Y002444D01*
X018935Y002930D02*
X019010Y002855D01*
X019086Y002855D01*
X019161Y002930D01*
X019161Y003155D01*
X019311Y003155D02*
X019010Y003155D01*
X018935Y003080D01*
X018935Y002930D01*
X019311Y002855D02*
X019386Y002930D01*
X019386Y003080D01*
X019311Y003155D01*
X019935Y003080D02*
X020010Y003155D01*
X020086Y003155D01*
X020161Y003080D01*
X020161Y002930D01*
X020086Y002855D01*
X020010Y002855D01*
X019935Y002930D01*
X019935Y003080D01*
X020161Y003080D02*
X020236Y003155D01*
X020311Y003155D01*
X020386Y003080D01*
X020386Y002930D01*
X020311Y002855D01*
X020236Y002855D01*
X020161Y002930D01*
X020935Y002855D02*
X020935Y003155D01*
X021010Y003155D01*
X021311Y002855D01*
X021386Y002855D01*
X021935Y003155D02*
X022010Y003005D01*
X022161Y002855D01*
X022161Y003080D01*
X022236Y003155D01*
X022311Y003155D01*
X022386Y003080D01*
X022386Y002930D01*
X022311Y002855D01*
X022161Y002855D01*
X022935Y002855D02*
X022935Y003155D01*
X023086Y003080D02*
X023161Y003155D01*
X023311Y003155D01*
X023386Y003080D01*
X023386Y002930D01*
X023311Y002855D01*
X023161Y002855D02*
X023086Y003005D01*
X023086Y003080D01*
X023161Y002855D02*
X022935Y002855D01*
X023935Y003080D02*
X024161Y002855D01*
X024161Y003155D01*
X024386Y003080D02*
X023935Y003080D01*
X024935Y003080D02*
X025010Y003155D01*
X025086Y003155D01*
X025161Y003080D01*
X025236Y003155D01*
X025311Y003155D01*
X025386Y003080D01*
X025386Y002930D01*
X025311Y002855D01*
X025161Y003005D02*
X025161Y003080D01*
X024935Y003080D02*
X024935Y002930D01*
X025010Y002855D01*
X025935Y002930D02*
X026010Y002855D01*
X025935Y002930D02*
X025935Y003080D01*
X026010Y003155D01*
X026086Y003155D01*
X026386Y002855D01*
X026386Y003155D01*
X026935Y003005D02*
X027086Y002855D01*
X026935Y003005D02*
X027386Y003005D01*
X027386Y002855D02*
X027386Y003155D01*
X027635Y003290D02*
X027635Y003591D01*
X027710Y003666D01*
X027860Y003666D01*
X027935Y003591D01*
X028095Y003666D02*
X028396Y003666D01*
X028396Y003591D01*
X028095Y003290D01*
X028095Y003215D01*
X027935Y003290D02*
X027860Y003215D01*
X027710Y003215D01*
X027635Y003290D01*
X027526Y004615D02*
X027225Y004615D01*
X027526Y004915D01*
X027526Y004991D01*
X027451Y005066D01*
X027300Y005066D01*
X027225Y004991D01*
X027065Y005066D02*
X027065Y004765D01*
X026915Y004615D01*
X026765Y004765D01*
X026765Y005066D01*
X026605Y004991D02*
X026530Y005066D01*
X026380Y005066D01*
X026305Y004991D01*
X026305Y004915D01*
X026380Y004840D01*
X026530Y004840D01*
X026605Y004765D01*
X026605Y004690D01*
X026530Y004615D01*
X026380Y004615D01*
X026305Y004690D01*
X029380Y009694D02*
X029305Y009770D01*
X029305Y009920D01*
X029380Y009995D01*
X029681Y009995D01*
X029756Y009920D01*
X029756Y009770D01*
X029681Y009694D01*
X029380Y009694D01*
X029606Y009845D02*
X029756Y009995D01*
X029756Y010155D02*
X029681Y010155D01*
X029380Y010455D01*
X029305Y010455D01*
X029305Y010155D01*
X027642Y010269D02*
X027567Y010194D01*
X027642Y010269D02*
X027642Y010419D01*
X027567Y010494D01*
X027492Y010494D01*
X027417Y010419D01*
X027417Y010344D01*
X027417Y010419D02*
X027342Y010494D01*
X027267Y010494D01*
X027192Y010419D01*
X027192Y010269D01*
X027267Y010194D01*
X027267Y010034D02*
X027192Y009959D01*
X027192Y009734D01*
X027642Y009734D01*
X027642Y009959D01*
X027567Y010034D01*
X027267Y010034D01*
X027192Y012984D02*
X027192Y013209D01*
X027267Y013284D01*
X027567Y013284D01*
X027642Y013209D01*
X027642Y012984D01*
X027192Y012984D01*
X027267Y013444D02*
X027192Y013519D01*
X027192Y013669D01*
X027267Y013744D01*
X027342Y013744D01*
X027642Y013444D01*
X027642Y013744D01*
X029305Y015270D02*
X029305Y015420D01*
X029380Y015495D01*
X029681Y015495D01*
X029756Y015420D01*
X029756Y015270D01*
X029681Y015194D01*
X029380Y015194D01*
X029305Y015270D01*
X029606Y015345D02*
X029756Y015495D01*
X029681Y015655D02*
X029756Y015730D01*
X029756Y015880D01*
X029681Y015955D01*
X029380Y015955D01*
X029305Y015880D01*
X029305Y015730D01*
X029380Y015655D01*
X029456Y015655D01*
X029531Y015730D01*
X029531Y015955D01*
X027642Y016234D02*
X027642Y016459D01*
X027567Y016534D01*
X027267Y016534D01*
X027192Y016459D01*
X027192Y016234D01*
X027642Y016234D01*
X027642Y016694D02*
X027642Y016994D01*
X027642Y016844D02*
X027192Y016844D01*
X027342Y016694D01*
X026351Y018315D02*
X026426Y018390D01*
X026426Y018691D01*
X026351Y018766D01*
X026200Y018766D01*
X026125Y018691D01*
X026125Y018615D01*
X026200Y018540D01*
X026426Y018540D01*
X026351Y018315D02*
X026200Y018315D01*
X026125Y018390D01*
X025965Y018315D02*
X025815Y018465D01*
X025890Y018465D02*
X025665Y018465D01*
X025665Y018315D02*
X025665Y018766D01*
X025890Y018766D01*
X025965Y018691D01*
X025965Y018540D01*
X025890Y018465D01*
X022426Y018390D02*
X022351Y018315D01*
X022200Y018315D01*
X022125Y018390D01*
X022426Y018691D01*
X022426Y018390D01*
X022125Y018390D02*
X022125Y018691D01*
X022200Y018766D01*
X022351Y018766D01*
X022426Y018691D01*
X021965Y018315D02*
X021665Y018315D01*
X021815Y018315D02*
X021815Y018766D01*
X021665Y018615D01*
X021505Y018540D02*
X021505Y018691D01*
X021430Y018766D01*
X021205Y018766D01*
X021205Y018315D01*
X021205Y018465D02*
X021430Y018465D01*
X021505Y018540D01*
X021355Y018465D02*
X021505Y018315D01*
X018426Y018315D02*
X018125Y018315D01*
X018275Y018315D02*
X018275Y018766D01*
X018125Y018615D01*
X017965Y018315D02*
X017665Y018315D01*
X017815Y018315D02*
X017815Y018766D01*
X017665Y018615D01*
X017505Y018540D02*
X017505Y018691D01*
X017430Y018766D01*
X017205Y018766D01*
X017205Y018315D01*
X017205Y018465D02*
X017430Y018465D01*
X017505Y018540D01*
X017355Y018465D02*
X017505Y018315D01*
X017875Y021765D02*
X018176Y021765D01*
X018026Y021765D02*
X018026Y022216D01*
X017875Y022065D01*
X018925Y022141D02*
X019000Y022216D01*
X019151Y022216D01*
X019226Y022141D01*
X019226Y022065D01*
X019151Y021990D01*
X019226Y021915D01*
X019226Y021840D01*
X019151Y021765D01*
X019000Y021765D01*
X018925Y021840D01*
X019076Y021990D02*
X019151Y021990D01*
X021875Y022065D02*
X022026Y022216D01*
X022026Y021765D01*
X022176Y021765D02*
X021875Y021765D01*
X022925Y021840D02*
X023000Y021765D01*
X023151Y021765D01*
X023226Y021840D01*
X023226Y021915D01*
X023151Y021990D01*
X023076Y021990D01*
X023151Y021990D02*
X023226Y022065D01*
X023226Y022141D01*
X023151Y022216D01*
X023000Y022216D01*
X022925Y022141D01*
X025875Y022065D02*
X026026Y022216D01*
X026026Y021765D01*
X026176Y021765D02*
X025875Y021765D01*
X029305Y021730D02*
X029305Y021880D01*
X029380Y021955D01*
X029456Y021955D01*
X029531Y021880D01*
X029531Y021730D01*
X029456Y021655D01*
X029380Y021655D01*
X029305Y021730D01*
X029531Y021730D02*
X029606Y021655D01*
X029681Y021655D01*
X029756Y021730D01*
X029756Y021880D01*
X029681Y021955D01*
X029606Y021955D01*
X029531Y021880D01*
X029380Y021495D02*
X029681Y021495D01*
X029756Y021420D01*
X029756Y021270D01*
X029681Y021194D01*
X029380Y021194D01*
X029305Y021270D01*
X029305Y021420D01*
X029380Y021495D01*
X029606Y021345D02*
X029756Y021495D01*
X015226Y021840D02*
X015151Y021765D01*
X015000Y021765D01*
X014925Y021840D01*
X015076Y021990D02*
X015151Y021990D01*
X015226Y021915D01*
X015226Y021840D01*
X015151Y021990D02*
X015226Y022065D01*
X015226Y022141D01*
X015151Y022216D01*
X015000Y022216D01*
X014925Y022141D01*
X011086Y021590D02*
X010786Y021590D01*
X011011Y021816D01*
X011011Y021365D01*
X007907Y022265D02*
X007606Y022265D01*
X007757Y022265D02*
X007757Y022716D01*
X007606Y022565D01*
X007446Y022415D02*
X007446Y022716D01*
X007146Y022716D02*
X007146Y022415D01*
X007296Y022265D01*
X007446Y022415D01*
X006986Y022415D02*
X006986Y022340D01*
X006911Y022265D01*
X006761Y022265D01*
X006686Y022340D01*
X006761Y022490D02*
X006686Y022565D01*
X006686Y022641D01*
X006761Y022716D01*
X006911Y022716D01*
X006986Y022641D01*
X006911Y022490D02*
X006986Y022415D01*
X006911Y022490D02*
X006761Y022490D01*
X006386Y021816D02*
X006236Y021665D01*
X006386Y021816D02*
X006386Y021365D01*
X006236Y021365D02*
X006536Y021365D01*
X006016Y018876D02*
X006016Y018576D01*
X006016Y018726D02*
X005565Y018726D01*
X005716Y018576D01*
X005640Y018415D02*
X005941Y018415D01*
X006016Y018340D01*
X006016Y018190D01*
X005941Y018115D01*
X005640Y018115D01*
X005565Y018190D01*
X005565Y018340D01*
X005640Y018415D01*
X005866Y018265D02*
X006016Y018415D01*
D17*
X007223Y013648D02*
X007723Y013648D01*
X008223Y013648D01*
X008223Y013398D02*
X007223Y013398D01*
X007223Y013148D01*
X008223Y013148D01*
X008223Y013398D01*
X008223Y012908D02*
X007723Y012908D01*
X007223Y012908D01*
D18*
X017900Y020138D02*
X017857Y020163D01*
X017857Y020162D02*
X017892Y020227D01*
X017923Y020294D01*
X017950Y020362D01*
X017974Y020431D01*
X017994Y020502D01*
X018010Y020573D01*
X018022Y020646D01*
X018031Y020719D01*
X018035Y020792D01*
X018036Y020865D01*
X018032Y020939D01*
X018025Y021012D01*
X018014Y021084D01*
X017999Y021156D01*
X017980Y021227D01*
X017958Y021297D01*
X017932Y021366D01*
X017902Y021433D01*
X017868Y021498D01*
X017831Y021562D01*
X017791Y021623D01*
X017748Y021682D01*
X017701Y021739D01*
X017652Y021793D01*
X017600Y021845D01*
X017545Y021894D01*
X017487Y021939D01*
X017427Y021982D01*
X017365Y022021D01*
X017301Y022057D01*
X017235Y022089D01*
X017168Y022118D01*
X017099Y022143D01*
X017029Y022165D01*
X016957Y022183D01*
X016885Y022197D01*
X016813Y022207D01*
X016739Y022213D01*
X016666Y022215D01*
X016665Y022264D01*
X016666Y022265D01*
X016740Y022263D01*
X016814Y022257D01*
X016888Y022247D01*
X016961Y022233D01*
X017033Y022216D01*
X017104Y022194D01*
X017174Y022170D01*
X017242Y022141D01*
X017309Y022109D01*
X017374Y022074D01*
X017438Y022035D01*
X017499Y021993D01*
X017558Y021948D01*
X017614Y021899D01*
X017668Y021848D01*
X017719Y021795D01*
X017767Y021738D01*
X017812Y021680D01*
X017855Y021618D01*
X017893Y021555D01*
X017929Y021490D01*
X017961Y021423D01*
X017990Y021355D01*
X018015Y021285D01*
X018036Y021214D01*
X018054Y021142D01*
X018067Y021069D01*
X018078Y020995D01*
X018084Y020921D01*
X018086Y020847D01*
X018084Y020773D01*
X018079Y020699D01*
X018070Y020625D01*
X018057Y020552D01*
X018040Y020480D01*
X018019Y020409D01*
X017995Y020339D01*
X017967Y020270D01*
X017936Y020203D01*
X017901Y020137D01*
X017893Y020142D01*
X017928Y020207D01*
X017959Y020274D01*
X017987Y020342D01*
X018011Y020412D01*
X018031Y020482D01*
X018048Y020554D01*
X018061Y020627D01*
X018070Y020700D01*
X018075Y020774D01*
X018077Y020847D01*
X018075Y020921D01*
X018069Y020994D01*
X018059Y021067D01*
X018045Y021140D01*
X018027Y021212D01*
X018006Y021282D01*
X017981Y021352D01*
X017953Y021420D01*
X017921Y021486D01*
X017886Y021551D01*
X017847Y021614D01*
X017805Y021674D01*
X017760Y021733D01*
X017712Y021789D01*
X017661Y021842D01*
X017608Y021893D01*
X017552Y021941D01*
X017493Y021986D01*
X017433Y022027D01*
X017370Y022066D01*
X017305Y022101D01*
X017239Y022133D01*
X017170Y022161D01*
X017101Y022186D01*
X017030Y022207D01*
X016959Y022224D01*
X016886Y022238D01*
X016813Y022248D01*
X016740Y022254D01*
X016666Y022256D01*
X016666Y022247D01*
X016741Y022245D01*
X016816Y022238D01*
X016890Y022228D01*
X016964Y022214D01*
X017037Y022196D01*
X017109Y022174D01*
X017179Y022148D01*
X017249Y022118D01*
X017316Y022085D01*
X017382Y022049D01*
X017445Y022008D01*
X017506Y021965D01*
X017565Y021918D01*
X017621Y021868D01*
X017675Y021816D01*
X017725Y021760D01*
X017773Y021702D01*
X017818Y021641D01*
X017859Y021578D01*
X017896Y021513D01*
X017931Y021447D01*
X017961Y021378D01*
X017988Y021308D01*
X018011Y021236D01*
X018030Y021164D01*
X018046Y021090D01*
X018057Y021016D01*
X018064Y020941D01*
X018068Y020866D01*
X018067Y020791D01*
X018063Y020716D01*
X018054Y020641D01*
X018041Y020567D01*
X018025Y020494D01*
X018004Y020422D01*
X017980Y020350D01*
X017952Y020281D01*
X017920Y020213D01*
X017885Y020146D01*
X017877Y020151D01*
X017912Y020217D01*
X017944Y020284D01*
X017972Y020354D01*
X017996Y020424D01*
X018016Y020496D01*
X018032Y020569D01*
X018045Y020643D01*
X018054Y020717D01*
X018058Y020791D01*
X018059Y020866D01*
X018055Y020940D01*
X018048Y021015D01*
X018037Y021089D01*
X018022Y021162D01*
X018002Y021234D01*
X017979Y021305D01*
X017953Y021375D01*
X017922Y021443D01*
X017888Y021509D01*
X017851Y021574D01*
X017810Y021636D01*
X017766Y021696D01*
X017719Y021754D01*
X017668Y021809D01*
X017615Y021862D01*
X017559Y021911D01*
X017501Y021958D01*
X017440Y022001D01*
X017377Y022041D01*
X017312Y022077D01*
X017245Y022110D01*
X017176Y022140D01*
X017106Y022165D01*
X017035Y022187D01*
X016962Y022205D01*
X016889Y022219D01*
X016815Y022229D01*
X016741Y022236D01*
X016666Y022238D01*
X016666Y022229D01*
X016740Y022227D01*
X016814Y022221D01*
X016888Y022210D01*
X016960Y022196D01*
X017032Y022178D01*
X017103Y022157D01*
X017173Y022131D01*
X017241Y022102D01*
X017308Y022069D01*
X017372Y022033D01*
X017435Y021993D01*
X017495Y021950D01*
X017554Y021904D01*
X017609Y021855D01*
X017662Y021803D01*
X017712Y021748D01*
X017759Y021691D01*
X017803Y021631D01*
X017843Y021569D01*
X017881Y021505D01*
X017914Y021439D01*
X017944Y021371D01*
X017971Y021302D01*
X017994Y021231D01*
X018013Y021160D01*
X018028Y021087D01*
X018039Y021014D01*
X018046Y020940D01*
X018050Y020866D01*
X018049Y020792D01*
X018045Y020718D01*
X018036Y020644D01*
X018024Y020571D01*
X018007Y020498D01*
X017987Y020427D01*
X017963Y020357D01*
X017936Y020288D01*
X017904Y020221D01*
X017869Y020155D01*
X017862Y020160D01*
X017896Y020225D01*
X017927Y020292D01*
X017955Y020360D01*
X017979Y020430D01*
X017999Y020501D01*
X018015Y020572D01*
X018027Y020645D01*
X018036Y020718D01*
X018040Y020792D01*
X018041Y020866D01*
X018037Y020939D01*
X018030Y021012D01*
X018019Y021085D01*
X018004Y021157D01*
X017985Y021229D01*
X017962Y021299D01*
X017936Y021368D01*
X017906Y021435D01*
X017873Y021501D01*
X017836Y021564D01*
X017795Y021626D01*
X017752Y021685D01*
X017705Y021742D01*
X017655Y021797D01*
X017603Y021849D01*
X017548Y021897D01*
X017490Y021943D01*
X017430Y021986D01*
X017368Y022025D01*
X017303Y022061D01*
X017237Y022094D01*
X017170Y022123D01*
X017100Y022148D01*
X017030Y022170D01*
X016958Y022188D01*
X016886Y022202D01*
X016813Y022212D01*
X016740Y022218D01*
X016666Y022220D01*
X016657Y022264D02*
X016657Y022214D01*
X016656Y022215D02*
X016582Y022213D01*
X016508Y022206D01*
X016435Y022196D01*
X016362Y022182D01*
X016290Y022164D01*
X016219Y022142D01*
X016149Y022116D01*
X016081Y022087D01*
X016015Y022054D01*
X015950Y022017D01*
X015888Y021977D01*
X015828Y021934D01*
X015770Y021887D01*
X015715Y021838D01*
X015662Y021785D01*
X015613Y021730D01*
X015566Y021672D01*
X015523Y021612D01*
X015483Y021549D01*
X015447Y021485D01*
X015414Y021419D01*
X015384Y021350D01*
X015359Y021281D01*
X015337Y021210D01*
X015319Y021138D01*
X015305Y021065D01*
X015294Y020992D01*
X015288Y020918D01*
X015286Y020844D01*
X015288Y020770D01*
X015294Y020696D01*
X015303Y020622D01*
X015317Y020549D01*
X015335Y020477D01*
X015356Y020406D01*
X015382Y020336D01*
X015411Y020268D01*
X015443Y020202D01*
X015479Y020137D01*
X015437Y020112D01*
X015436Y020111D01*
X015400Y020177D01*
X015367Y020244D01*
X015337Y020313D01*
X015311Y020383D01*
X015289Y020455D01*
X015271Y020527D01*
X015256Y020601D01*
X015246Y020675D01*
X015239Y020750D01*
X015236Y020825D01*
X015237Y020899D01*
X015242Y020974D01*
X015251Y021049D01*
X015264Y021123D01*
X015281Y021196D01*
X015302Y021268D01*
X015326Y021339D01*
X015354Y021408D01*
X015386Y021476D01*
X015421Y021542D01*
X015460Y021606D01*
X015502Y021668D01*
X015547Y021728D01*
X015595Y021786D01*
X015646Y021840D01*
X015700Y021892D01*
X015757Y021941D01*
X015816Y021987D01*
X015877Y022030D01*
X015941Y022070D01*
X016007Y022106D01*
X016074Y022139D01*
X016143Y022168D01*
X016214Y022193D01*
X016286Y022215D01*
X016358Y022233D01*
X016432Y022246D01*
X016506Y022257D01*
X016581Y022263D01*
X016656Y022265D01*
X016656Y022256D01*
X016582Y022254D01*
X016507Y022248D01*
X016434Y022238D01*
X016360Y022224D01*
X016288Y022206D01*
X016217Y022184D01*
X016147Y022159D01*
X016078Y022130D01*
X016011Y022098D01*
X015946Y022062D01*
X015882Y022023D01*
X015821Y021980D01*
X015763Y021934D01*
X015706Y021886D01*
X015653Y021834D01*
X015602Y021780D01*
X015554Y021723D01*
X015509Y021663D01*
X015467Y021601D01*
X015429Y021538D01*
X015394Y021472D01*
X015362Y021404D01*
X015334Y021335D01*
X015310Y021265D01*
X015290Y021193D01*
X015273Y021121D01*
X015260Y021047D01*
X015251Y020973D01*
X015246Y020899D01*
X015245Y020825D01*
X015248Y020750D01*
X015255Y020676D01*
X015265Y020602D01*
X015280Y020529D01*
X015298Y020457D01*
X015320Y020386D01*
X015346Y020316D01*
X015375Y020248D01*
X015408Y020181D01*
X015444Y020116D01*
X015452Y020120D01*
X015416Y020185D01*
X015383Y020251D01*
X015354Y020319D01*
X015328Y020389D01*
X015306Y020460D01*
X015288Y020531D01*
X015274Y020604D01*
X015263Y020677D01*
X015257Y020751D01*
X015254Y020825D01*
X015255Y020899D01*
X015260Y020973D01*
X015269Y021046D01*
X015282Y021119D01*
X015299Y021191D01*
X015319Y021262D01*
X015343Y021332D01*
X015371Y021401D01*
X015402Y021468D01*
X015437Y021533D01*
X015475Y021597D01*
X015516Y021658D01*
X015561Y021717D01*
X015608Y021774D01*
X015659Y021828D01*
X015712Y021879D01*
X015768Y021927D01*
X015827Y021973D01*
X015887Y022015D01*
X015950Y022054D01*
X016015Y022090D01*
X016082Y022122D01*
X016150Y022151D01*
X016220Y022176D01*
X016290Y022197D01*
X016362Y022215D01*
X016435Y022229D01*
X016508Y022239D01*
X016582Y022245D01*
X016656Y022247D01*
X016656Y022238D01*
X016583Y022236D01*
X016509Y022230D01*
X016436Y022220D01*
X016364Y022206D01*
X016293Y022189D01*
X016222Y022167D01*
X016153Y022142D01*
X016085Y022114D01*
X016019Y022082D01*
X015955Y022046D01*
X015892Y022008D01*
X015832Y021966D01*
X015774Y021921D01*
X015718Y021872D01*
X015665Y021821D01*
X015615Y021768D01*
X015568Y021711D01*
X015524Y021653D01*
X015482Y021592D01*
X015444Y021529D01*
X015410Y021464D01*
X015379Y021397D01*
X015351Y021329D01*
X015327Y021260D01*
X015307Y021189D01*
X015291Y021117D01*
X015278Y021045D01*
X015269Y020972D01*
X015264Y020898D01*
X015263Y020825D01*
X015266Y020751D01*
X015272Y020678D01*
X015283Y020605D01*
X015297Y020533D01*
X015315Y020462D01*
X015337Y020392D01*
X015362Y020323D01*
X015391Y020255D01*
X015424Y020189D01*
X015460Y020125D01*
X015467Y020130D01*
X015432Y020193D01*
X015399Y020259D01*
X015371Y020326D01*
X015345Y020395D01*
X015324Y020464D01*
X015306Y020535D01*
X015292Y020607D01*
X015281Y020679D01*
X015275Y020752D01*
X015272Y020825D01*
X015273Y020898D01*
X015278Y020971D01*
X015287Y021043D01*
X015300Y021115D01*
X015316Y021187D01*
X015336Y021257D01*
X015360Y021326D01*
X015387Y021394D01*
X015418Y021460D01*
X015452Y021524D01*
X015490Y021587D01*
X015531Y021648D01*
X015575Y021706D01*
X015622Y021762D01*
X015672Y021815D01*
X015724Y021866D01*
X015780Y021914D01*
X015837Y021958D01*
X015897Y022000D01*
X015959Y022039D01*
X016023Y022074D01*
X016089Y022106D01*
X016156Y022134D01*
X016225Y022159D01*
X016295Y022180D01*
X016366Y022197D01*
X016438Y022211D01*
X016510Y022221D01*
X016583Y022227D01*
X016656Y022229D01*
X016656Y022220D01*
X016582Y022218D01*
X016507Y022211D01*
X016434Y022201D01*
X016361Y022187D01*
X016288Y022169D01*
X016217Y022147D01*
X016148Y022121D01*
X016079Y022091D01*
X016013Y022058D01*
X015948Y022021D01*
X015885Y021981D01*
X015825Y021938D01*
X015767Y021891D01*
X015711Y021841D01*
X015659Y021789D01*
X015609Y021733D01*
X015562Y021675D01*
X015519Y021615D01*
X015479Y021552D01*
X015442Y021487D01*
X015409Y021421D01*
X015380Y021352D01*
X015354Y021282D01*
X015332Y021211D01*
X015314Y021139D01*
X015300Y021066D01*
X015289Y020992D01*
X015283Y020918D01*
X015281Y020844D01*
X015283Y020769D01*
X015289Y020695D01*
X015298Y020621D01*
X015312Y020548D01*
X015330Y020476D01*
X015351Y020405D01*
X015377Y020335D01*
X015406Y020266D01*
X015439Y020199D01*
X015475Y020134D01*
X016666Y019416D02*
X016666Y019466D01*
X016666Y019465D02*
X016739Y019467D01*
X016812Y019473D01*
X016885Y019483D01*
X016957Y019497D01*
X017028Y019515D01*
X017098Y019536D01*
X017167Y019561D01*
X017234Y019590D01*
X017300Y019623D01*
X017364Y019658D01*
X017389Y019616D01*
X017390Y019616D01*
X017330Y019582D01*
X017268Y019551D01*
X017205Y019523D01*
X017140Y019498D01*
X017075Y019476D01*
X017008Y019458D01*
X016941Y019443D01*
X016873Y019431D01*
X016804Y019422D01*
X016735Y019417D01*
X016666Y019415D01*
X016666Y019424D01*
X016735Y019426D01*
X016803Y019431D01*
X016871Y019440D01*
X016939Y019452D01*
X017006Y019467D01*
X017072Y019485D01*
X017137Y019506D01*
X017201Y019531D01*
X017264Y019559D01*
X017325Y019590D01*
X017385Y019623D01*
X017381Y019631D01*
X017315Y019594D01*
X017248Y019561D01*
X017179Y019532D01*
X017108Y019506D01*
X017037Y019484D01*
X016964Y019466D01*
X016890Y019452D01*
X016816Y019442D01*
X016741Y019435D01*
X016666Y019433D01*
X016666Y019442D01*
X016741Y019444D01*
X016815Y019450D01*
X016889Y019461D01*
X016962Y019475D01*
X017034Y019493D01*
X017105Y019515D01*
X017176Y019540D01*
X017244Y019569D01*
X017311Y019602D01*
X017376Y019639D01*
X017371Y019646D01*
X017307Y019610D01*
X017240Y019578D01*
X017172Y019548D01*
X017103Y019523D01*
X017032Y019501D01*
X016960Y019484D01*
X016887Y019470D01*
X016814Y019459D01*
X016740Y019453D01*
X016666Y019451D01*
X016666Y019460D01*
X016740Y019462D01*
X016813Y019468D01*
X016886Y019478D01*
X016958Y019492D01*
X017029Y019510D01*
X017100Y019532D01*
X017169Y019557D01*
X017237Y019586D01*
X017303Y019618D01*
X017367Y019654D01*
X016343Y021676D02*
X016374Y021591D01*
X016374Y021592D02*
X016322Y021570D01*
X016273Y021545D01*
X016225Y021517D01*
X016179Y021485D01*
X016135Y021450D01*
X016095Y021412D01*
X016056Y021371D01*
X016021Y021328D01*
X015989Y021283D01*
X015960Y021235D01*
X015934Y021186D01*
X015912Y021135D01*
X015893Y021082D01*
X015878Y021028D01*
X015867Y020974D01*
X015860Y020918D01*
X015856Y020863D01*
X015857Y020807D01*
X015861Y020752D01*
X015869Y020696D01*
X015881Y020642D01*
X015896Y020588D01*
X015916Y020536D01*
X015938Y020485D01*
X015965Y020436D01*
X015994Y020389D01*
X016027Y020344D01*
X016063Y020301D01*
X016102Y020261D01*
X016143Y020224D01*
X016187Y020189D01*
X016233Y020158D01*
X016281Y020130D01*
X016331Y020106D01*
X016383Y020084D01*
X016436Y020067D01*
X016490Y020053D01*
X016545Y020043D01*
X016600Y020037D01*
X016656Y020035D01*
X016657Y019946D01*
X016656Y019945D01*
X016597Y019947D01*
X016538Y019953D01*
X016480Y019963D01*
X016423Y019977D01*
X016366Y019995D01*
X016311Y020016D01*
X016258Y020041D01*
X016206Y020069D01*
X016156Y020101D01*
X016108Y020136D01*
X016063Y020174D01*
X016021Y020215D01*
X015981Y020258D01*
X015944Y020305D01*
X015910Y020353D01*
X015880Y020404D01*
X015853Y020456D01*
X015829Y020510D01*
X015809Y020566D01*
X015793Y020623D01*
X015780Y020680D01*
X015772Y020739D01*
X015767Y020798D01*
X015766Y020857D01*
X015769Y020916D01*
X015776Y020974D01*
X015787Y021032D01*
X015801Y021090D01*
X015820Y021146D01*
X015842Y021200D01*
X015867Y021254D01*
X015896Y021305D01*
X015929Y021355D01*
X015964Y021402D01*
X016003Y021446D01*
X016044Y021489D01*
X016088Y021528D01*
X016135Y021564D01*
X016184Y021597D01*
X016235Y021627D01*
X016288Y021653D01*
X016342Y021676D01*
X016345Y021668D01*
X016291Y021645D01*
X016239Y021619D01*
X016189Y021590D01*
X016140Y021557D01*
X016094Y021521D01*
X016050Y021482D01*
X016009Y021440D01*
X015971Y021396D01*
X015936Y021349D01*
X015904Y021300D01*
X015875Y021250D01*
X015850Y021197D01*
X015828Y021143D01*
X015810Y021087D01*
X015796Y021030D01*
X015785Y020973D01*
X015778Y020915D01*
X015775Y020856D01*
X015776Y020798D01*
X015781Y020740D01*
X015789Y020682D01*
X015802Y020625D01*
X015818Y020569D01*
X015837Y020514D01*
X015861Y020460D01*
X015887Y020408D01*
X015918Y020358D01*
X015951Y020310D01*
X015988Y020264D01*
X016027Y020221D01*
X016069Y020181D01*
X016114Y020143D01*
X016161Y020109D01*
X016210Y020077D01*
X016262Y020049D01*
X016315Y020024D01*
X016369Y020003D01*
X016425Y019986D01*
X016482Y019972D01*
X016539Y019962D01*
X016598Y019956D01*
X016656Y019954D01*
X016656Y019963D01*
X016598Y019965D01*
X016541Y019971D01*
X016484Y019981D01*
X016427Y019995D01*
X016372Y020012D01*
X016318Y020033D01*
X016266Y020057D01*
X016215Y020085D01*
X016166Y020116D01*
X016119Y020150D01*
X016075Y020187D01*
X016033Y020227D01*
X015994Y020270D01*
X015958Y020315D01*
X015925Y020363D01*
X015895Y020412D01*
X015869Y020464D01*
X015846Y020517D01*
X015826Y020571D01*
X015810Y020627D01*
X015798Y020684D01*
X015790Y020741D01*
X015785Y020798D01*
X015784Y020856D01*
X015787Y020914D01*
X015794Y020972D01*
X015804Y021028D01*
X015819Y021084D01*
X015837Y021139D01*
X015858Y021193D01*
X015883Y021245D01*
X015912Y021296D01*
X015943Y021344D01*
X015978Y021390D01*
X016016Y021434D01*
X016057Y021475D01*
X016100Y021514D01*
X016145Y021549D01*
X016193Y021582D01*
X016243Y021611D01*
X016295Y021637D01*
X016348Y021659D01*
X016352Y021651D01*
X016297Y021628D01*
X016245Y021602D01*
X016195Y021572D01*
X016146Y021539D01*
X016100Y021502D01*
X016057Y021463D01*
X016016Y021421D01*
X015978Y021376D01*
X015944Y021329D01*
X015912Y021279D01*
X015884Y021227D01*
X015860Y021174D01*
X015839Y021119D01*
X015822Y021063D01*
X015809Y021006D01*
X015800Y020948D01*
X015794Y020890D01*
X015793Y020831D01*
X015796Y020772D01*
X015802Y020714D01*
X015813Y020656D01*
X015827Y020599D01*
X015845Y020544D01*
X015867Y020489D01*
X015893Y020436D01*
X015922Y020385D01*
X015954Y020337D01*
X015990Y020290D01*
X016028Y020246D01*
X016070Y020204D01*
X016114Y020166D01*
X016161Y020131D01*
X016210Y020098D01*
X016261Y020070D01*
X016314Y020044D01*
X016368Y020023D01*
X016424Y020005D01*
X016481Y019991D01*
X016539Y019981D01*
X016597Y019974D01*
X016656Y019972D01*
X016656Y019981D01*
X016598Y019983D01*
X016540Y019990D01*
X016483Y020000D01*
X016427Y020014D01*
X016371Y020031D01*
X016318Y020053D01*
X016265Y020078D01*
X016215Y020106D01*
X016166Y020138D01*
X016120Y020173D01*
X016076Y020211D01*
X016035Y020252D01*
X015996Y020296D01*
X015961Y020342D01*
X015929Y020390D01*
X015900Y020441D01*
X015875Y020493D01*
X015854Y020547D01*
X015836Y020602D01*
X015821Y020658D01*
X015811Y020715D01*
X015805Y020773D01*
X015802Y020831D01*
X015803Y020889D01*
X015809Y020947D01*
X015818Y021004D01*
X015831Y021061D01*
X015848Y021116D01*
X015868Y021171D01*
X015892Y021223D01*
X015920Y021274D01*
X015951Y021324D01*
X015985Y021370D01*
X016023Y021415D01*
X016063Y021457D01*
X016106Y021496D01*
X016151Y021532D01*
X016199Y021564D01*
X016249Y021594D01*
X016301Y021620D01*
X016355Y021643D01*
X016358Y021634D01*
X016305Y021612D01*
X016254Y021586D01*
X016204Y021557D01*
X016157Y021524D01*
X016112Y021489D01*
X016069Y021450D01*
X016029Y021409D01*
X015992Y021365D01*
X015958Y021318D01*
X015928Y021270D01*
X015900Y021219D01*
X015876Y021167D01*
X015856Y021113D01*
X015840Y021058D01*
X015827Y021002D01*
X015818Y020946D01*
X015812Y020889D01*
X015811Y020831D01*
X015814Y020774D01*
X015820Y020717D01*
X015830Y020660D01*
X015844Y020604D01*
X015862Y020550D01*
X015883Y020497D01*
X015908Y020445D01*
X015937Y020395D01*
X015969Y020347D01*
X016003Y020301D01*
X016041Y020258D01*
X016082Y020218D01*
X016125Y020180D01*
X016171Y020145D01*
X016219Y020114D01*
X016269Y020086D01*
X016321Y020061D01*
X016374Y020040D01*
X016429Y020022D01*
X016485Y020008D01*
X016542Y019998D01*
X016599Y019992D01*
X016656Y019990D01*
X016656Y019999D01*
X016599Y020001D01*
X016543Y020007D01*
X016487Y020017D01*
X016432Y020031D01*
X016377Y020048D01*
X016325Y020069D01*
X016273Y020094D01*
X016224Y020122D01*
X016176Y020153D01*
X016131Y020187D01*
X016088Y020224D01*
X016048Y020264D01*
X016010Y020307D01*
X015976Y020352D01*
X015945Y020400D01*
X015916Y020449D01*
X015892Y020500D01*
X015871Y020553D01*
X015853Y020607D01*
X015839Y020662D01*
X015829Y020718D01*
X015823Y020774D01*
X015820Y020831D01*
X015821Y020888D01*
X015827Y020945D01*
X015836Y021001D01*
X015848Y021056D01*
X015865Y021111D01*
X015885Y021164D01*
X015908Y021215D01*
X015935Y021265D01*
X015966Y021313D01*
X015999Y021359D01*
X016036Y021403D01*
X016075Y021444D01*
X016118Y021482D01*
X016162Y021517D01*
X016209Y021549D01*
X016258Y021578D01*
X016309Y021604D01*
X016361Y021626D01*
X016364Y021617D01*
X016311Y021595D01*
X016260Y021569D01*
X016210Y021539D01*
X016163Y021506D01*
X016118Y021470D01*
X016076Y021431D01*
X016036Y021389D01*
X016000Y021345D01*
X015966Y021298D01*
X015936Y021249D01*
X015910Y021197D01*
X015887Y021145D01*
X015868Y021090D01*
X015852Y021035D01*
X015841Y020978D01*
X015833Y020921D01*
X015829Y020864D01*
X015830Y020806D01*
X015834Y020749D01*
X015842Y020692D01*
X015855Y020635D01*
X015871Y020580D01*
X015891Y020526D01*
X015914Y020473D01*
X015941Y020422D01*
X015972Y020374D01*
X016006Y020327D01*
X016043Y020283D01*
X016083Y020242D01*
X016126Y020203D01*
X016171Y020167D01*
X016219Y020135D01*
X016269Y020106D01*
X016321Y020081D01*
X016374Y020059D01*
X016429Y020041D01*
X016484Y020027D01*
X016541Y020017D01*
X016598Y020010D01*
X016656Y020008D01*
X016656Y020017D01*
X016599Y020019D01*
X016542Y020026D01*
X016486Y020036D01*
X016431Y020050D01*
X016377Y020068D01*
X016324Y020089D01*
X016273Y020114D01*
X016224Y020143D01*
X016176Y020175D01*
X016132Y020210D01*
X016089Y020248D01*
X016050Y020289D01*
X016013Y020333D01*
X015979Y020379D01*
X015949Y020427D01*
X015922Y020477D01*
X015899Y020529D01*
X015879Y020583D01*
X015863Y020637D01*
X015851Y020693D01*
X015843Y020750D01*
X015839Y020806D01*
X015838Y020863D01*
X015842Y020920D01*
X015849Y020977D01*
X015861Y021033D01*
X015876Y021088D01*
X015895Y021141D01*
X015918Y021194D01*
X015944Y021244D01*
X015974Y021293D01*
X016007Y021339D01*
X016043Y021383D01*
X016082Y021425D01*
X016124Y021463D01*
X016168Y021499D01*
X016215Y021532D01*
X016264Y021561D01*
X016315Y021587D01*
X016367Y021609D01*
X016370Y021600D01*
X016319Y021578D01*
X016268Y021553D01*
X016220Y021524D01*
X016174Y021492D01*
X016130Y021457D01*
X016088Y021418D01*
X016050Y021377D01*
X016014Y021334D01*
X015981Y021288D01*
X015952Y021240D01*
X015926Y021190D01*
X015903Y021138D01*
X015885Y021085D01*
X015870Y021030D01*
X015858Y020975D01*
X015851Y020919D01*
X015847Y020863D01*
X015848Y020807D01*
X015852Y020751D01*
X015860Y020695D01*
X015872Y020640D01*
X015888Y020586D01*
X015907Y020533D01*
X015930Y020481D01*
X015957Y020432D01*
X015987Y020384D01*
X016020Y020338D01*
X016056Y020295D01*
X016095Y020255D01*
X016137Y020217D01*
X016182Y020182D01*
X016228Y020150D01*
X016277Y020122D01*
X016328Y020097D01*
X016380Y020076D01*
X016434Y020058D01*
X016488Y020045D01*
X016544Y020035D01*
X016600Y020028D01*
X016656Y020026D01*
X015923Y019622D02*
X015949Y019665D01*
X015948Y019664D02*
X016013Y019627D01*
X016080Y019594D01*
X016148Y019564D01*
X016218Y019538D01*
X016289Y019516D01*
X016361Y019498D01*
X016434Y019484D01*
X016508Y019474D01*
X016582Y019467D01*
X016656Y019465D01*
X016657Y019416D01*
X016656Y019415D01*
X016586Y019417D01*
X016516Y019422D01*
X016446Y019431D01*
X016377Y019444D01*
X016309Y019459D01*
X016241Y019478D01*
X016175Y019500D01*
X016110Y019526D01*
X016046Y019555D01*
X015983Y019587D01*
X015922Y019621D01*
X015927Y019629D01*
X015987Y019594D01*
X016050Y019563D01*
X016113Y019534D01*
X016178Y019509D01*
X016244Y019487D01*
X016311Y019468D01*
X016379Y019452D01*
X016448Y019440D01*
X016517Y019431D01*
X016586Y019426D01*
X016656Y019424D01*
X016656Y019433D01*
X016587Y019435D01*
X016518Y019440D01*
X016449Y019449D01*
X016381Y019461D01*
X016313Y019477D01*
X016247Y019495D01*
X016181Y019517D01*
X016117Y019543D01*
X016053Y019571D01*
X015992Y019602D01*
X015932Y019637D01*
X015936Y019644D01*
X015996Y019610D01*
X016057Y019579D01*
X016120Y019551D01*
X016184Y019526D01*
X016249Y019504D01*
X016316Y019485D01*
X016383Y019470D01*
X016450Y019458D01*
X016519Y019449D01*
X016587Y019444D01*
X016656Y019442D01*
X016656Y019451D01*
X016588Y019453D01*
X016520Y019458D01*
X016452Y019467D01*
X016384Y019479D01*
X016318Y019494D01*
X016252Y019513D01*
X016187Y019534D01*
X016124Y019559D01*
X016061Y019587D01*
X016000Y019618D01*
X015941Y019652D01*
X015946Y019660D01*
X016011Y019623D01*
X016077Y019589D01*
X016146Y019560D01*
X016216Y019534D01*
X016287Y019512D01*
X016360Y019493D01*
X016433Y019479D01*
X016507Y019469D01*
X016581Y019462D01*
X016656Y019460D01*
X016665Y019946D02*
X016665Y020036D01*
X016666Y020035D02*
X016722Y020037D01*
X016777Y020043D01*
X016832Y020053D01*
X016886Y020067D01*
X016939Y020084D01*
X016991Y020106D01*
X017041Y020130D01*
X017089Y020158D01*
X017135Y020189D01*
X017179Y020224D01*
X017220Y020261D01*
X017259Y020301D01*
X017295Y020344D01*
X017328Y020389D01*
X017357Y020436D01*
X017384Y020485D01*
X017406Y020536D01*
X017426Y020588D01*
X017441Y020642D01*
X017453Y020696D01*
X017461Y020752D01*
X017465Y020807D01*
X017466Y020863D01*
X017462Y020918D01*
X017455Y020974D01*
X017444Y021028D01*
X017429Y021082D01*
X017410Y021135D01*
X017388Y021186D01*
X017362Y021235D01*
X017333Y021283D01*
X017301Y021328D01*
X017266Y021371D01*
X017227Y021412D01*
X017187Y021450D01*
X017143Y021485D01*
X017097Y021517D01*
X017049Y021545D01*
X017000Y021570D01*
X016948Y021592D01*
X016979Y021676D01*
X016980Y021676D01*
X017034Y021653D01*
X017087Y021627D01*
X017138Y021597D01*
X017187Y021564D01*
X017234Y021528D01*
X017278Y021489D01*
X017319Y021446D01*
X017358Y021402D01*
X017393Y021355D01*
X017426Y021305D01*
X017455Y021254D01*
X017480Y021200D01*
X017502Y021146D01*
X017521Y021090D01*
X017535Y021032D01*
X017546Y020974D01*
X017553Y020916D01*
X017556Y020857D01*
X017555Y020798D01*
X017550Y020739D01*
X017542Y020680D01*
X017529Y020623D01*
X017513Y020566D01*
X017493Y020510D01*
X017469Y020456D01*
X017442Y020404D01*
X017412Y020353D01*
X017378Y020305D01*
X017341Y020258D01*
X017301Y020215D01*
X017259Y020174D01*
X017214Y020136D01*
X017166Y020101D01*
X017116Y020069D01*
X017064Y020041D01*
X017011Y020016D01*
X016956Y019995D01*
X016899Y019977D01*
X016842Y019963D01*
X016784Y019953D01*
X016725Y019947D01*
X016666Y019945D01*
X016666Y019954D01*
X016724Y019956D01*
X016783Y019962D01*
X016840Y019972D01*
X016897Y019986D01*
X016953Y020003D01*
X017007Y020024D01*
X017060Y020049D01*
X017112Y020077D01*
X017161Y020109D01*
X017208Y020143D01*
X017253Y020181D01*
X017295Y020221D01*
X017334Y020264D01*
X017371Y020310D01*
X017404Y020358D01*
X017435Y020408D01*
X017461Y020460D01*
X017485Y020514D01*
X017504Y020569D01*
X017520Y020625D01*
X017533Y020682D01*
X017541Y020740D01*
X017546Y020798D01*
X017547Y020856D01*
X017544Y020915D01*
X017537Y020973D01*
X017526Y021030D01*
X017512Y021087D01*
X017494Y021143D01*
X017472Y021197D01*
X017447Y021250D01*
X017418Y021300D01*
X017386Y021349D01*
X017351Y021396D01*
X017313Y021440D01*
X017272Y021482D01*
X017228Y021521D01*
X017182Y021557D01*
X017133Y021590D01*
X017083Y021619D01*
X017031Y021645D01*
X016977Y021668D01*
X016974Y021659D01*
X017027Y021637D01*
X017079Y021611D01*
X017129Y021582D01*
X017177Y021549D01*
X017222Y021514D01*
X017265Y021475D01*
X017306Y021434D01*
X017344Y021390D01*
X017379Y021344D01*
X017410Y021296D01*
X017439Y021245D01*
X017464Y021193D01*
X017485Y021139D01*
X017503Y021084D01*
X017518Y021028D01*
X017528Y020972D01*
X017535Y020914D01*
X017538Y020856D01*
X017537Y020798D01*
X017532Y020741D01*
X017524Y020684D01*
X017512Y020627D01*
X017496Y020571D01*
X017476Y020517D01*
X017453Y020464D01*
X017427Y020412D01*
X017397Y020363D01*
X017364Y020315D01*
X017328Y020270D01*
X017289Y020227D01*
X017247Y020187D01*
X017203Y020150D01*
X017156Y020116D01*
X017107Y020085D01*
X017056Y020057D01*
X017004Y020033D01*
X016950Y020012D01*
X016895Y019995D01*
X016838Y019981D01*
X016781Y019971D01*
X016724Y019965D01*
X016666Y019963D01*
X016666Y019972D01*
X016725Y019974D01*
X016783Y019981D01*
X016841Y019991D01*
X016898Y020005D01*
X016954Y020023D01*
X017008Y020044D01*
X017061Y020070D01*
X017112Y020098D01*
X017161Y020131D01*
X017208Y020166D01*
X017252Y020204D01*
X017294Y020246D01*
X017332Y020290D01*
X017368Y020337D01*
X017400Y020385D01*
X017429Y020436D01*
X017455Y020489D01*
X017477Y020544D01*
X017495Y020599D01*
X017509Y020656D01*
X017520Y020714D01*
X017526Y020772D01*
X017529Y020831D01*
X017528Y020890D01*
X017522Y020948D01*
X017513Y021006D01*
X017500Y021063D01*
X017483Y021119D01*
X017462Y021174D01*
X017438Y021227D01*
X017410Y021279D01*
X017378Y021329D01*
X017344Y021376D01*
X017306Y021421D01*
X017265Y021463D01*
X017222Y021502D01*
X017176Y021539D01*
X017127Y021572D01*
X017077Y021602D01*
X017025Y021628D01*
X016970Y021651D01*
X016967Y021643D01*
X017021Y021620D01*
X017073Y021594D01*
X017123Y021564D01*
X017171Y021532D01*
X017216Y021496D01*
X017259Y021457D01*
X017299Y021415D01*
X017337Y021370D01*
X017371Y021324D01*
X017402Y021274D01*
X017430Y021223D01*
X017454Y021171D01*
X017474Y021116D01*
X017491Y021061D01*
X017504Y021004D01*
X017513Y020947D01*
X017519Y020889D01*
X017520Y020831D01*
X017517Y020773D01*
X017511Y020715D01*
X017501Y020658D01*
X017486Y020602D01*
X017468Y020547D01*
X017447Y020493D01*
X017422Y020441D01*
X017393Y020390D01*
X017361Y020342D01*
X017326Y020296D01*
X017287Y020252D01*
X017246Y020211D01*
X017202Y020173D01*
X017156Y020138D01*
X017107Y020106D01*
X017057Y020078D01*
X017004Y020053D01*
X016951Y020031D01*
X016895Y020014D01*
X016839Y020000D01*
X016782Y019990D01*
X016724Y019983D01*
X016666Y019981D01*
X016666Y019990D01*
X016723Y019992D01*
X016780Y019998D01*
X016837Y020008D01*
X016893Y020022D01*
X016948Y020040D01*
X017001Y020061D01*
X017053Y020086D01*
X017103Y020114D01*
X017151Y020145D01*
X017197Y020180D01*
X017240Y020218D01*
X017281Y020258D01*
X017319Y020301D01*
X017353Y020347D01*
X017385Y020395D01*
X017414Y020445D01*
X017439Y020497D01*
X017460Y020550D01*
X017478Y020604D01*
X017492Y020660D01*
X017502Y020717D01*
X017508Y020774D01*
X017511Y020831D01*
X017510Y020889D01*
X017504Y020946D01*
X017495Y021002D01*
X017482Y021058D01*
X017466Y021113D01*
X017446Y021167D01*
X017422Y021219D01*
X017394Y021270D01*
X017364Y021318D01*
X017330Y021365D01*
X017293Y021409D01*
X017253Y021450D01*
X017210Y021489D01*
X017165Y021524D01*
X017118Y021557D01*
X017068Y021586D01*
X017017Y021612D01*
X016964Y021634D01*
X016961Y021626D01*
X017013Y021604D01*
X017064Y021578D01*
X017113Y021549D01*
X017160Y021517D01*
X017204Y021482D01*
X017247Y021444D01*
X017286Y021403D01*
X017323Y021359D01*
X017356Y021313D01*
X017387Y021265D01*
X017414Y021215D01*
X017437Y021164D01*
X017457Y021111D01*
X017474Y021056D01*
X017486Y021001D01*
X017495Y020945D01*
X017501Y020888D01*
X017502Y020831D01*
X017499Y020774D01*
X017493Y020718D01*
X017483Y020662D01*
X017469Y020607D01*
X017451Y020553D01*
X017430Y020500D01*
X017406Y020449D01*
X017377Y020400D01*
X017346Y020352D01*
X017312Y020307D01*
X017274Y020264D01*
X017234Y020224D01*
X017191Y020187D01*
X017146Y020153D01*
X017098Y020122D01*
X017049Y020094D01*
X016997Y020069D01*
X016945Y020048D01*
X016890Y020031D01*
X016835Y020017D01*
X016779Y020007D01*
X016723Y020001D01*
X016666Y019999D01*
X016666Y020008D01*
X016724Y020010D01*
X016781Y020017D01*
X016838Y020027D01*
X016893Y020041D01*
X016948Y020059D01*
X017001Y020081D01*
X017053Y020106D01*
X017103Y020135D01*
X017151Y020167D01*
X017196Y020203D01*
X017239Y020242D01*
X017279Y020283D01*
X017316Y020327D01*
X017350Y020374D01*
X017381Y020422D01*
X017408Y020473D01*
X017431Y020526D01*
X017451Y020580D01*
X017467Y020635D01*
X017480Y020692D01*
X017488Y020749D01*
X017492Y020806D01*
X017493Y020864D01*
X017489Y020921D01*
X017481Y020978D01*
X017470Y021035D01*
X017454Y021090D01*
X017435Y021145D01*
X017412Y021197D01*
X017386Y021249D01*
X017356Y021298D01*
X017322Y021345D01*
X017286Y021389D01*
X017246Y021431D01*
X017204Y021470D01*
X017159Y021506D01*
X017112Y021539D01*
X017062Y021569D01*
X017011Y021595D01*
X016958Y021617D01*
X016955Y021609D01*
X017007Y021587D01*
X017058Y021561D01*
X017107Y021532D01*
X017154Y021499D01*
X017198Y021463D01*
X017240Y021425D01*
X017279Y021383D01*
X017315Y021339D01*
X017348Y021293D01*
X017378Y021244D01*
X017404Y021194D01*
X017427Y021141D01*
X017446Y021088D01*
X017461Y021033D01*
X017473Y020977D01*
X017480Y020920D01*
X017484Y020863D01*
X017483Y020806D01*
X017479Y020750D01*
X017471Y020693D01*
X017459Y020637D01*
X017443Y020583D01*
X017423Y020529D01*
X017400Y020477D01*
X017373Y020427D01*
X017343Y020379D01*
X017309Y020333D01*
X017272Y020289D01*
X017233Y020248D01*
X017190Y020210D01*
X017146Y020175D01*
X017098Y020143D01*
X017049Y020114D01*
X016998Y020089D01*
X016945Y020068D01*
X016891Y020050D01*
X016836Y020036D01*
X016780Y020026D01*
X016723Y020019D01*
X016666Y020017D01*
X016666Y020026D01*
X016722Y020028D01*
X016778Y020035D01*
X016834Y020045D01*
X016888Y020058D01*
X016942Y020076D01*
X016994Y020097D01*
X017045Y020122D01*
X017094Y020150D01*
X017140Y020182D01*
X017185Y020217D01*
X017227Y020255D01*
X017266Y020295D01*
X017302Y020338D01*
X017335Y020384D01*
X017365Y020432D01*
X017392Y020481D01*
X017415Y020533D01*
X017434Y020586D01*
X017450Y020640D01*
X017462Y020695D01*
X017470Y020751D01*
X017474Y020807D01*
X017475Y020863D01*
X017471Y020919D01*
X017464Y020975D01*
X017452Y021030D01*
X017437Y021085D01*
X017419Y021138D01*
X017396Y021190D01*
X017370Y021240D01*
X017341Y021288D01*
X017308Y021334D01*
X017272Y021377D01*
X017234Y021418D01*
X017192Y021457D01*
X017148Y021492D01*
X017102Y021524D01*
X017054Y021553D01*
X017003Y021578D01*
X016952Y021600D01*
X020666Y019416D02*
X020666Y019466D01*
X020666Y019465D02*
X020739Y019467D01*
X020812Y019473D01*
X020885Y019483D01*
X020957Y019497D01*
X021028Y019515D01*
X021098Y019536D01*
X021167Y019561D01*
X021234Y019590D01*
X021300Y019623D01*
X021364Y019658D01*
X021389Y019616D01*
X021390Y019616D01*
X021330Y019582D01*
X021268Y019551D01*
X021205Y019523D01*
X021140Y019498D01*
X021075Y019476D01*
X021008Y019458D01*
X020941Y019443D01*
X020873Y019431D01*
X020804Y019422D01*
X020735Y019417D01*
X020666Y019415D01*
X020666Y019424D01*
X020735Y019426D01*
X020803Y019431D01*
X020871Y019440D01*
X020939Y019452D01*
X021006Y019467D01*
X021072Y019485D01*
X021137Y019506D01*
X021201Y019531D01*
X021264Y019559D01*
X021325Y019590D01*
X021385Y019623D01*
X021381Y019631D01*
X021315Y019594D01*
X021248Y019561D01*
X021179Y019532D01*
X021108Y019506D01*
X021037Y019484D01*
X020964Y019466D01*
X020890Y019452D01*
X020816Y019442D01*
X020741Y019435D01*
X020666Y019433D01*
X020666Y019442D01*
X020741Y019444D01*
X020815Y019450D01*
X020889Y019461D01*
X020962Y019475D01*
X021034Y019493D01*
X021105Y019515D01*
X021176Y019540D01*
X021244Y019569D01*
X021311Y019602D01*
X021376Y019639D01*
X021371Y019646D01*
X021307Y019610D01*
X021240Y019578D01*
X021172Y019548D01*
X021103Y019523D01*
X021032Y019501D01*
X020960Y019484D01*
X020887Y019470D01*
X020814Y019459D01*
X020740Y019453D01*
X020666Y019451D01*
X020666Y019460D01*
X020740Y019462D01*
X020813Y019468D01*
X020886Y019478D01*
X020958Y019492D01*
X021029Y019510D01*
X021100Y019532D01*
X021169Y019557D01*
X021237Y019586D01*
X021303Y019618D01*
X021367Y019654D01*
X021900Y020138D02*
X021857Y020163D01*
X021857Y020162D02*
X021892Y020227D01*
X021923Y020294D01*
X021950Y020362D01*
X021974Y020431D01*
X021994Y020502D01*
X022010Y020573D01*
X022022Y020646D01*
X022031Y020719D01*
X022035Y020792D01*
X022036Y020865D01*
X022032Y020939D01*
X022025Y021012D01*
X022014Y021084D01*
X021999Y021156D01*
X021980Y021227D01*
X021958Y021297D01*
X021932Y021366D01*
X021902Y021433D01*
X021868Y021498D01*
X021831Y021562D01*
X021791Y021623D01*
X021748Y021682D01*
X021701Y021739D01*
X021652Y021793D01*
X021600Y021845D01*
X021545Y021894D01*
X021487Y021939D01*
X021427Y021982D01*
X021365Y022021D01*
X021301Y022057D01*
X021235Y022089D01*
X021168Y022118D01*
X021099Y022143D01*
X021029Y022165D01*
X020957Y022183D01*
X020885Y022197D01*
X020813Y022207D01*
X020739Y022213D01*
X020666Y022215D01*
X020665Y022264D01*
X020666Y022265D01*
X020740Y022263D01*
X020814Y022257D01*
X020888Y022247D01*
X020961Y022233D01*
X021033Y022216D01*
X021104Y022194D01*
X021174Y022170D01*
X021242Y022141D01*
X021309Y022109D01*
X021374Y022074D01*
X021438Y022035D01*
X021499Y021993D01*
X021558Y021948D01*
X021614Y021899D01*
X021668Y021848D01*
X021719Y021795D01*
X021767Y021738D01*
X021812Y021680D01*
X021855Y021618D01*
X021893Y021555D01*
X021929Y021490D01*
X021961Y021423D01*
X021990Y021355D01*
X022015Y021285D01*
X022036Y021214D01*
X022054Y021142D01*
X022067Y021069D01*
X022078Y020995D01*
X022084Y020921D01*
X022086Y020847D01*
X022084Y020773D01*
X022079Y020699D01*
X022070Y020625D01*
X022057Y020552D01*
X022040Y020480D01*
X022019Y020409D01*
X021995Y020339D01*
X021967Y020270D01*
X021936Y020203D01*
X021901Y020137D01*
X021893Y020142D01*
X021928Y020207D01*
X021959Y020274D01*
X021987Y020342D01*
X022011Y020412D01*
X022031Y020482D01*
X022048Y020554D01*
X022061Y020627D01*
X022070Y020700D01*
X022075Y020774D01*
X022077Y020847D01*
X022075Y020921D01*
X022069Y020994D01*
X022059Y021067D01*
X022045Y021140D01*
X022027Y021212D01*
X022006Y021282D01*
X021981Y021352D01*
X021953Y021420D01*
X021921Y021486D01*
X021886Y021551D01*
X021847Y021614D01*
X021805Y021674D01*
X021760Y021733D01*
X021712Y021789D01*
X021661Y021842D01*
X021608Y021893D01*
X021552Y021941D01*
X021493Y021986D01*
X021433Y022027D01*
X021370Y022066D01*
X021305Y022101D01*
X021239Y022133D01*
X021170Y022161D01*
X021101Y022186D01*
X021030Y022207D01*
X020959Y022224D01*
X020886Y022238D01*
X020813Y022248D01*
X020740Y022254D01*
X020666Y022256D01*
X020666Y022247D01*
X020741Y022245D01*
X020816Y022238D01*
X020890Y022228D01*
X020964Y022214D01*
X021037Y022196D01*
X021109Y022174D01*
X021179Y022148D01*
X021249Y022118D01*
X021316Y022085D01*
X021382Y022049D01*
X021445Y022008D01*
X021506Y021965D01*
X021565Y021918D01*
X021621Y021868D01*
X021675Y021816D01*
X021725Y021760D01*
X021773Y021702D01*
X021818Y021641D01*
X021859Y021578D01*
X021896Y021513D01*
X021931Y021447D01*
X021961Y021378D01*
X021988Y021308D01*
X022011Y021236D01*
X022030Y021164D01*
X022046Y021090D01*
X022057Y021016D01*
X022064Y020941D01*
X022068Y020866D01*
X022067Y020791D01*
X022063Y020716D01*
X022054Y020641D01*
X022041Y020567D01*
X022025Y020494D01*
X022004Y020422D01*
X021980Y020350D01*
X021952Y020281D01*
X021920Y020213D01*
X021885Y020146D01*
X021877Y020151D01*
X021912Y020217D01*
X021944Y020284D01*
X021972Y020354D01*
X021996Y020424D01*
X022016Y020496D01*
X022032Y020569D01*
X022045Y020643D01*
X022054Y020717D01*
X022058Y020791D01*
X022059Y020866D01*
X022055Y020940D01*
X022048Y021015D01*
X022037Y021089D01*
X022022Y021162D01*
X022002Y021234D01*
X021979Y021305D01*
X021953Y021375D01*
X021922Y021443D01*
X021888Y021509D01*
X021851Y021574D01*
X021810Y021636D01*
X021766Y021696D01*
X021719Y021754D01*
X021668Y021809D01*
X021615Y021862D01*
X021559Y021911D01*
X021501Y021958D01*
X021440Y022001D01*
X021377Y022041D01*
X021312Y022077D01*
X021245Y022110D01*
X021176Y022140D01*
X021106Y022165D01*
X021035Y022187D01*
X020962Y022205D01*
X020889Y022219D01*
X020815Y022229D01*
X020741Y022236D01*
X020666Y022238D01*
X020666Y022229D01*
X020740Y022227D01*
X020814Y022221D01*
X020888Y022210D01*
X020960Y022196D01*
X021032Y022178D01*
X021103Y022157D01*
X021173Y022131D01*
X021241Y022102D01*
X021308Y022069D01*
X021372Y022033D01*
X021435Y021993D01*
X021495Y021950D01*
X021554Y021904D01*
X021609Y021855D01*
X021662Y021803D01*
X021712Y021748D01*
X021759Y021691D01*
X021803Y021631D01*
X021843Y021569D01*
X021881Y021505D01*
X021914Y021439D01*
X021944Y021371D01*
X021971Y021302D01*
X021994Y021231D01*
X022013Y021160D01*
X022028Y021087D01*
X022039Y021014D01*
X022046Y020940D01*
X022050Y020866D01*
X022049Y020792D01*
X022045Y020718D01*
X022036Y020644D01*
X022024Y020571D01*
X022007Y020498D01*
X021987Y020427D01*
X021963Y020357D01*
X021936Y020288D01*
X021904Y020221D01*
X021869Y020155D01*
X021862Y020160D01*
X021896Y020225D01*
X021927Y020292D01*
X021955Y020360D01*
X021979Y020430D01*
X021999Y020501D01*
X022015Y020572D01*
X022027Y020645D01*
X022036Y020718D01*
X022040Y020792D01*
X022041Y020866D01*
X022037Y020939D01*
X022030Y021012D01*
X022019Y021085D01*
X022004Y021157D01*
X021985Y021229D01*
X021962Y021299D01*
X021936Y021368D01*
X021906Y021435D01*
X021873Y021501D01*
X021836Y021564D01*
X021795Y021626D01*
X021752Y021685D01*
X021705Y021742D01*
X021655Y021797D01*
X021603Y021849D01*
X021548Y021897D01*
X021490Y021943D01*
X021430Y021986D01*
X021368Y022025D01*
X021303Y022061D01*
X021237Y022094D01*
X021170Y022123D01*
X021100Y022148D01*
X021030Y022170D01*
X020958Y022188D01*
X020886Y022202D01*
X020813Y022212D01*
X020740Y022218D01*
X020666Y022220D01*
X020657Y022264D02*
X020657Y022214D01*
X020656Y022215D02*
X020582Y022213D01*
X020508Y022206D01*
X020435Y022196D01*
X020362Y022182D01*
X020290Y022164D01*
X020219Y022142D01*
X020149Y022116D01*
X020081Y022087D01*
X020015Y022054D01*
X019950Y022017D01*
X019888Y021977D01*
X019828Y021934D01*
X019770Y021887D01*
X019715Y021838D01*
X019662Y021785D01*
X019613Y021730D01*
X019566Y021672D01*
X019523Y021612D01*
X019483Y021549D01*
X019447Y021485D01*
X019414Y021419D01*
X019384Y021350D01*
X019359Y021281D01*
X019337Y021210D01*
X019319Y021138D01*
X019305Y021065D01*
X019294Y020992D01*
X019288Y020918D01*
X019286Y020844D01*
X019288Y020770D01*
X019294Y020696D01*
X019303Y020622D01*
X019317Y020549D01*
X019335Y020477D01*
X019356Y020406D01*
X019382Y020336D01*
X019411Y020268D01*
X019443Y020202D01*
X019479Y020137D01*
X019437Y020112D01*
X019436Y020111D01*
X019400Y020177D01*
X019367Y020244D01*
X019337Y020313D01*
X019311Y020383D01*
X019289Y020455D01*
X019271Y020527D01*
X019256Y020601D01*
X019246Y020675D01*
X019239Y020750D01*
X019236Y020825D01*
X019237Y020899D01*
X019242Y020974D01*
X019251Y021049D01*
X019264Y021123D01*
X019281Y021196D01*
X019302Y021268D01*
X019326Y021339D01*
X019354Y021408D01*
X019386Y021476D01*
X019421Y021542D01*
X019460Y021606D01*
X019502Y021668D01*
X019547Y021728D01*
X019595Y021786D01*
X019646Y021840D01*
X019700Y021892D01*
X019757Y021941D01*
X019816Y021987D01*
X019877Y022030D01*
X019941Y022070D01*
X020007Y022106D01*
X020074Y022139D01*
X020143Y022168D01*
X020214Y022193D01*
X020286Y022215D01*
X020358Y022233D01*
X020432Y022246D01*
X020506Y022257D01*
X020581Y022263D01*
X020656Y022265D01*
X020656Y022256D01*
X020582Y022254D01*
X020507Y022248D01*
X020434Y022238D01*
X020360Y022224D01*
X020288Y022206D01*
X020217Y022184D01*
X020147Y022159D01*
X020078Y022130D01*
X020011Y022098D01*
X019946Y022062D01*
X019882Y022023D01*
X019821Y021980D01*
X019763Y021934D01*
X019706Y021886D01*
X019653Y021834D01*
X019602Y021780D01*
X019554Y021723D01*
X019509Y021663D01*
X019467Y021601D01*
X019429Y021538D01*
X019394Y021472D01*
X019362Y021404D01*
X019334Y021335D01*
X019310Y021265D01*
X019290Y021193D01*
X019273Y021121D01*
X019260Y021047D01*
X019251Y020973D01*
X019246Y020899D01*
X019245Y020825D01*
X019248Y020750D01*
X019255Y020676D01*
X019265Y020602D01*
X019280Y020529D01*
X019298Y020457D01*
X019320Y020386D01*
X019346Y020316D01*
X019375Y020248D01*
X019408Y020181D01*
X019444Y020116D01*
X019452Y020120D01*
X019416Y020185D01*
X019383Y020251D01*
X019354Y020319D01*
X019328Y020389D01*
X019306Y020460D01*
X019288Y020531D01*
X019274Y020604D01*
X019263Y020677D01*
X019257Y020751D01*
X019254Y020825D01*
X019255Y020899D01*
X019260Y020973D01*
X019269Y021046D01*
X019282Y021119D01*
X019299Y021191D01*
X019319Y021262D01*
X019343Y021332D01*
X019371Y021401D01*
X019402Y021468D01*
X019437Y021533D01*
X019475Y021597D01*
X019516Y021658D01*
X019561Y021717D01*
X019608Y021774D01*
X019659Y021828D01*
X019712Y021879D01*
X019768Y021927D01*
X019827Y021973D01*
X019887Y022015D01*
X019950Y022054D01*
X020015Y022090D01*
X020082Y022122D01*
X020150Y022151D01*
X020220Y022176D01*
X020290Y022197D01*
X020362Y022215D01*
X020435Y022229D01*
X020508Y022239D01*
X020582Y022245D01*
X020656Y022247D01*
X020656Y022238D01*
X020583Y022236D01*
X020509Y022230D01*
X020436Y022220D01*
X020364Y022206D01*
X020293Y022189D01*
X020222Y022167D01*
X020153Y022142D01*
X020085Y022114D01*
X020019Y022082D01*
X019955Y022046D01*
X019892Y022008D01*
X019832Y021966D01*
X019774Y021921D01*
X019718Y021872D01*
X019665Y021821D01*
X019615Y021768D01*
X019568Y021711D01*
X019524Y021653D01*
X019482Y021592D01*
X019444Y021529D01*
X019410Y021464D01*
X019379Y021397D01*
X019351Y021329D01*
X019327Y021260D01*
X019307Y021189D01*
X019291Y021117D01*
X019278Y021045D01*
X019269Y020972D01*
X019264Y020898D01*
X019263Y020825D01*
X019266Y020751D01*
X019272Y020678D01*
X019283Y020605D01*
X019297Y020533D01*
X019315Y020462D01*
X019337Y020392D01*
X019362Y020323D01*
X019391Y020255D01*
X019424Y020189D01*
X019460Y020125D01*
X019467Y020130D01*
X019432Y020193D01*
X019399Y020259D01*
X019371Y020326D01*
X019345Y020395D01*
X019324Y020464D01*
X019306Y020535D01*
X019292Y020607D01*
X019281Y020679D01*
X019275Y020752D01*
X019272Y020825D01*
X019273Y020898D01*
X019278Y020971D01*
X019287Y021043D01*
X019300Y021115D01*
X019316Y021187D01*
X019336Y021257D01*
X019360Y021326D01*
X019387Y021394D01*
X019418Y021460D01*
X019452Y021524D01*
X019490Y021587D01*
X019531Y021648D01*
X019575Y021706D01*
X019622Y021762D01*
X019672Y021815D01*
X019724Y021866D01*
X019780Y021914D01*
X019837Y021958D01*
X019897Y022000D01*
X019959Y022039D01*
X020023Y022074D01*
X020089Y022106D01*
X020156Y022134D01*
X020225Y022159D01*
X020295Y022180D01*
X020366Y022197D01*
X020438Y022211D01*
X020510Y022221D01*
X020583Y022227D01*
X020656Y022229D01*
X020656Y022220D01*
X020582Y022218D01*
X020507Y022211D01*
X020434Y022201D01*
X020361Y022187D01*
X020288Y022169D01*
X020217Y022147D01*
X020148Y022121D01*
X020079Y022091D01*
X020013Y022058D01*
X019948Y022021D01*
X019885Y021981D01*
X019825Y021938D01*
X019767Y021891D01*
X019711Y021841D01*
X019659Y021789D01*
X019609Y021733D01*
X019562Y021675D01*
X019519Y021615D01*
X019479Y021552D01*
X019442Y021487D01*
X019409Y021421D01*
X019380Y021352D01*
X019354Y021282D01*
X019332Y021211D01*
X019314Y021139D01*
X019300Y021066D01*
X019289Y020992D01*
X019283Y020918D01*
X019281Y020844D01*
X019283Y020769D01*
X019289Y020695D01*
X019298Y020621D01*
X019312Y020548D01*
X019330Y020476D01*
X019351Y020405D01*
X019377Y020335D01*
X019406Y020266D01*
X019439Y020199D01*
X019475Y020134D01*
X019923Y019622D02*
X019949Y019665D01*
X019948Y019664D02*
X020013Y019627D01*
X020080Y019594D01*
X020148Y019564D01*
X020218Y019538D01*
X020289Y019516D01*
X020361Y019498D01*
X020434Y019484D01*
X020508Y019474D01*
X020582Y019467D01*
X020656Y019465D01*
X020657Y019416D01*
X020656Y019415D01*
X020586Y019417D01*
X020516Y019422D01*
X020446Y019431D01*
X020377Y019444D01*
X020309Y019459D01*
X020241Y019478D01*
X020175Y019500D01*
X020110Y019526D01*
X020046Y019555D01*
X019983Y019587D01*
X019922Y019621D01*
X019927Y019629D01*
X019987Y019594D01*
X020050Y019563D01*
X020113Y019534D01*
X020178Y019509D01*
X020244Y019487D01*
X020311Y019468D01*
X020379Y019452D01*
X020448Y019440D01*
X020517Y019431D01*
X020586Y019426D01*
X020656Y019424D01*
X020656Y019433D01*
X020587Y019435D01*
X020518Y019440D01*
X020449Y019449D01*
X020381Y019461D01*
X020313Y019477D01*
X020247Y019495D01*
X020181Y019517D01*
X020117Y019543D01*
X020053Y019571D01*
X019992Y019602D01*
X019932Y019637D01*
X019936Y019644D01*
X019996Y019610D01*
X020057Y019579D01*
X020120Y019551D01*
X020184Y019526D01*
X020249Y019504D01*
X020316Y019485D01*
X020383Y019470D01*
X020450Y019458D01*
X020519Y019449D01*
X020587Y019444D01*
X020656Y019442D01*
X020656Y019451D01*
X020588Y019453D01*
X020520Y019458D01*
X020452Y019467D01*
X020384Y019479D01*
X020318Y019494D01*
X020252Y019513D01*
X020187Y019534D01*
X020124Y019559D01*
X020061Y019587D01*
X020000Y019618D01*
X019941Y019652D01*
X019946Y019660D01*
X020011Y019623D01*
X020077Y019589D01*
X020146Y019560D01*
X020216Y019534D01*
X020287Y019512D01*
X020360Y019493D01*
X020433Y019479D01*
X020507Y019469D01*
X020581Y019462D01*
X020656Y019460D01*
X020343Y021676D02*
X020374Y021591D01*
X020374Y021592D02*
X020322Y021570D01*
X020273Y021545D01*
X020225Y021517D01*
X020179Y021485D01*
X020135Y021450D01*
X020095Y021412D01*
X020056Y021371D01*
X020021Y021328D01*
X019989Y021283D01*
X019960Y021235D01*
X019934Y021186D01*
X019912Y021135D01*
X019893Y021082D01*
X019878Y021028D01*
X019867Y020974D01*
X019860Y020918D01*
X019856Y020863D01*
X019857Y020807D01*
X019861Y020752D01*
X019869Y020696D01*
X019881Y020642D01*
X019896Y020588D01*
X019916Y020536D01*
X019938Y020485D01*
X019965Y020436D01*
X019994Y020389D01*
X020027Y020344D01*
X020063Y020301D01*
X020102Y020261D01*
X020143Y020224D01*
X020187Y020189D01*
X020233Y020158D01*
X020281Y020130D01*
X020331Y020106D01*
X020383Y020084D01*
X020436Y020067D01*
X020490Y020053D01*
X020545Y020043D01*
X020600Y020037D01*
X020656Y020035D01*
X020657Y019946D01*
X020656Y019945D01*
X020597Y019947D01*
X020538Y019953D01*
X020480Y019963D01*
X020423Y019977D01*
X020366Y019995D01*
X020311Y020016D01*
X020258Y020041D01*
X020206Y020069D01*
X020156Y020101D01*
X020108Y020136D01*
X020063Y020174D01*
X020021Y020215D01*
X019981Y020258D01*
X019944Y020305D01*
X019910Y020353D01*
X019880Y020404D01*
X019853Y020456D01*
X019829Y020510D01*
X019809Y020566D01*
X019793Y020623D01*
X019780Y020680D01*
X019772Y020739D01*
X019767Y020798D01*
X019766Y020857D01*
X019769Y020916D01*
X019776Y020974D01*
X019787Y021032D01*
X019801Y021090D01*
X019820Y021146D01*
X019842Y021200D01*
X019867Y021254D01*
X019896Y021305D01*
X019929Y021355D01*
X019964Y021402D01*
X020003Y021446D01*
X020044Y021489D01*
X020088Y021528D01*
X020135Y021564D01*
X020184Y021597D01*
X020235Y021627D01*
X020288Y021653D01*
X020342Y021676D01*
X020345Y021668D01*
X020291Y021645D01*
X020239Y021619D01*
X020189Y021590D01*
X020140Y021557D01*
X020094Y021521D01*
X020050Y021482D01*
X020009Y021440D01*
X019971Y021396D01*
X019936Y021349D01*
X019904Y021300D01*
X019875Y021250D01*
X019850Y021197D01*
X019828Y021143D01*
X019810Y021087D01*
X019796Y021030D01*
X019785Y020973D01*
X019778Y020915D01*
X019775Y020856D01*
X019776Y020798D01*
X019781Y020740D01*
X019789Y020682D01*
X019802Y020625D01*
X019818Y020569D01*
X019837Y020514D01*
X019861Y020460D01*
X019887Y020408D01*
X019918Y020358D01*
X019951Y020310D01*
X019988Y020264D01*
X020027Y020221D01*
X020069Y020181D01*
X020114Y020143D01*
X020161Y020109D01*
X020210Y020077D01*
X020262Y020049D01*
X020315Y020024D01*
X020369Y020003D01*
X020425Y019986D01*
X020482Y019972D01*
X020539Y019962D01*
X020598Y019956D01*
X020656Y019954D01*
X020656Y019963D01*
X020598Y019965D01*
X020541Y019971D01*
X020484Y019981D01*
X020427Y019995D01*
X020372Y020012D01*
X020318Y020033D01*
X020266Y020057D01*
X020215Y020085D01*
X020166Y020116D01*
X020119Y020150D01*
X020075Y020187D01*
X020033Y020227D01*
X019994Y020270D01*
X019958Y020315D01*
X019925Y020363D01*
X019895Y020412D01*
X019869Y020464D01*
X019846Y020517D01*
X019826Y020571D01*
X019810Y020627D01*
X019798Y020684D01*
X019790Y020741D01*
X019785Y020798D01*
X019784Y020856D01*
X019787Y020914D01*
X019794Y020972D01*
X019804Y021028D01*
X019819Y021084D01*
X019837Y021139D01*
X019858Y021193D01*
X019883Y021245D01*
X019912Y021296D01*
X019943Y021344D01*
X019978Y021390D01*
X020016Y021434D01*
X020057Y021475D01*
X020100Y021514D01*
X020145Y021549D01*
X020193Y021582D01*
X020243Y021611D01*
X020295Y021637D01*
X020348Y021659D01*
X020352Y021651D01*
X020297Y021628D01*
X020245Y021602D01*
X020195Y021572D01*
X020146Y021539D01*
X020100Y021502D01*
X020057Y021463D01*
X020016Y021421D01*
X019978Y021376D01*
X019944Y021329D01*
X019912Y021279D01*
X019884Y021227D01*
X019860Y021174D01*
X019839Y021119D01*
X019822Y021063D01*
X019809Y021006D01*
X019800Y020948D01*
X019794Y020890D01*
X019793Y020831D01*
X019796Y020772D01*
X019802Y020714D01*
X019813Y020656D01*
X019827Y020599D01*
X019845Y020544D01*
X019867Y020489D01*
X019893Y020436D01*
X019922Y020385D01*
X019954Y020337D01*
X019990Y020290D01*
X020028Y020246D01*
X020070Y020204D01*
X020114Y020166D01*
X020161Y020131D01*
X020210Y020098D01*
X020261Y020070D01*
X020314Y020044D01*
X020368Y020023D01*
X020424Y020005D01*
X020481Y019991D01*
X020539Y019981D01*
X020597Y019974D01*
X020656Y019972D01*
X020656Y019981D01*
X020598Y019983D01*
X020540Y019990D01*
X020483Y020000D01*
X020427Y020014D01*
X020371Y020031D01*
X020318Y020053D01*
X020265Y020078D01*
X020215Y020106D01*
X020166Y020138D01*
X020120Y020173D01*
X020076Y020211D01*
X020035Y020252D01*
X019996Y020296D01*
X019961Y020342D01*
X019929Y020390D01*
X019900Y020441D01*
X019875Y020493D01*
X019854Y020547D01*
X019836Y020602D01*
X019821Y020658D01*
X019811Y020715D01*
X019805Y020773D01*
X019802Y020831D01*
X019803Y020889D01*
X019809Y020947D01*
X019818Y021004D01*
X019831Y021061D01*
X019848Y021116D01*
X019868Y021171D01*
X019892Y021223D01*
X019920Y021274D01*
X019951Y021324D01*
X019985Y021370D01*
X020023Y021415D01*
X020063Y021457D01*
X020106Y021496D01*
X020151Y021532D01*
X020199Y021564D01*
X020249Y021594D01*
X020301Y021620D01*
X020355Y021643D01*
X020358Y021634D01*
X020305Y021612D01*
X020254Y021586D01*
X020204Y021557D01*
X020157Y021524D01*
X020112Y021489D01*
X020069Y021450D01*
X020029Y021409D01*
X019992Y021365D01*
X019958Y021318D01*
X019928Y021270D01*
X019900Y021219D01*
X019876Y021167D01*
X019856Y021113D01*
X019840Y021058D01*
X019827Y021002D01*
X019818Y020946D01*
X019812Y020889D01*
X019811Y020831D01*
X019814Y020774D01*
X019820Y020717D01*
X019830Y020660D01*
X019844Y020604D01*
X019862Y020550D01*
X019883Y020497D01*
X019908Y020445D01*
X019937Y020395D01*
X019969Y020347D01*
X020003Y020301D01*
X020041Y020258D01*
X020082Y020218D01*
X020125Y020180D01*
X020171Y020145D01*
X020219Y020114D01*
X020269Y020086D01*
X020321Y020061D01*
X020374Y020040D01*
X020429Y020022D01*
X020485Y020008D01*
X020542Y019998D01*
X020599Y019992D01*
X020656Y019990D01*
X020656Y019999D01*
X020599Y020001D01*
X020543Y020007D01*
X020487Y020017D01*
X020432Y020031D01*
X020377Y020048D01*
X020325Y020069D01*
X020273Y020094D01*
X020224Y020122D01*
X020176Y020153D01*
X020131Y020187D01*
X020088Y020224D01*
X020048Y020264D01*
X020010Y020307D01*
X019976Y020352D01*
X019945Y020400D01*
X019916Y020449D01*
X019892Y020500D01*
X019871Y020553D01*
X019853Y020607D01*
X019839Y020662D01*
X019829Y020718D01*
X019823Y020774D01*
X019820Y020831D01*
X019821Y020888D01*
X019827Y020945D01*
X019836Y021001D01*
X019848Y021056D01*
X019865Y021111D01*
X019885Y021164D01*
X019908Y021215D01*
X019935Y021265D01*
X019966Y021313D01*
X019999Y021359D01*
X020036Y021403D01*
X020075Y021444D01*
X020118Y021482D01*
X020162Y021517D01*
X020209Y021549D01*
X020258Y021578D01*
X020309Y021604D01*
X020361Y021626D01*
X020364Y021617D01*
X020311Y021595D01*
X020260Y021569D01*
X020210Y021539D01*
X020163Y021506D01*
X020118Y021470D01*
X020076Y021431D01*
X020036Y021389D01*
X020000Y021345D01*
X019966Y021298D01*
X019936Y021249D01*
X019910Y021197D01*
X019887Y021145D01*
X019868Y021090D01*
X019852Y021035D01*
X019841Y020978D01*
X019833Y020921D01*
X019829Y020864D01*
X019830Y020806D01*
X019834Y020749D01*
X019842Y020692D01*
X019855Y020635D01*
X019871Y020580D01*
X019891Y020526D01*
X019914Y020473D01*
X019941Y020422D01*
X019972Y020374D01*
X020006Y020327D01*
X020043Y020283D01*
X020083Y020242D01*
X020126Y020203D01*
X020171Y020167D01*
X020219Y020135D01*
X020269Y020106D01*
X020321Y020081D01*
X020374Y020059D01*
X020429Y020041D01*
X020484Y020027D01*
X020541Y020017D01*
X020598Y020010D01*
X020656Y020008D01*
X020656Y020017D01*
X020599Y020019D01*
X020542Y020026D01*
X020486Y020036D01*
X020431Y020050D01*
X020377Y020068D01*
X020324Y020089D01*
X020273Y020114D01*
X020224Y020143D01*
X020176Y020175D01*
X020132Y020210D01*
X020089Y020248D01*
X020050Y020289D01*
X020013Y020333D01*
X019979Y020379D01*
X019949Y020427D01*
X019922Y020477D01*
X019899Y020529D01*
X019879Y020583D01*
X019863Y020637D01*
X019851Y020693D01*
X019843Y020750D01*
X019839Y020806D01*
X019838Y020863D01*
X019842Y020920D01*
X019849Y020977D01*
X019861Y021033D01*
X019876Y021088D01*
X019895Y021141D01*
X019918Y021194D01*
X019944Y021244D01*
X019974Y021293D01*
X020007Y021339D01*
X020043Y021383D01*
X020082Y021425D01*
X020124Y021463D01*
X020168Y021499D01*
X020215Y021532D01*
X020264Y021561D01*
X020315Y021587D01*
X020367Y021609D01*
X020370Y021600D01*
X020319Y021578D01*
X020268Y021553D01*
X020220Y021524D01*
X020174Y021492D01*
X020130Y021457D01*
X020088Y021418D01*
X020050Y021377D01*
X020014Y021334D01*
X019981Y021288D01*
X019952Y021240D01*
X019926Y021190D01*
X019903Y021138D01*
X019885Y021085D01*
X019870Y021030D01*
X019858Y020975D01*
X019851Y020919D01*
X019847Y020863D01*
X019848Y020807D01*
X019852Y020751D01*
X019860Y020695D01*
X019872Y020640D01*
X019888Y020586D01*
X019907Y020533D01*
X019930Y020481D01*
X019957Y020432D01*
X019987Y020384D01*
X020020Y020338D01*
X020056Y020295D01*
X020095Y020255D01*
X020137Y020217D01*
X020182Y020182D01*
X020228Y020150D01*
X020277Y020122D01*
X020328Y020097D01*
X020380Y020076D01*
X020434Y020058D01*
X020488Y020045D01*
X020544Y020035D01*
X020600Y020028D01*
X020656Y020026D01*
X020665Y019946D02*
X020665Y020036D01*
X020666Y020035D02*
X020722Y020037D01*
X020777Y020043D01*
X020832Y020053D01*
X020886Y020067D01*
X020939Y020084D01*
X020991Y020106D01*
X021041Y020130D01*
X021089Y020158D01*
X021135Y020189D01*
X021179Y020224D01*
X021220Y020261D01*
X021259Y020301D01*
X021295Y020344D01*
X021328Y020389D01*
X021357Y020436D01*
X021384Y020485D01*
X021406Y020536D01*
X021426Y020588D01*
X021441Y020642D01*
X021453Y020696D01*
X021461Y020752D01*
X021465Y020807D01*
X021466Y020863D01*
X021462Y020918D01*
X021455Y020974D01*
X021444Y021028D01*
X021429Y021082D01*
X021410Y021135D01*
X021388Y021186D01*
X021362Y021235D01*
X021333Y021283D01*
X021301Y021328D01*
X021266Y021371D01*
X021227Y021412D01*
X021187Y021450D01*
X021143Y021485D01*
X021097Y021517D01*
X021049Y021545D01*
X021000Y021570D01*
X020948Y021592D01*
X020979Y021676D01*
X020980Y021676D01*
X021034Y021653D01*
X021087Y021627D01*
X021138Y021597D01*
X021187Y021564D01*
X021234Y021528D01*
X021278Y021489D01*
X021319Y021446D01*
X021358Y021402D01*
X021393Y021355D01*
X021426Y021305D01*
X021455Y021254D01*
X021480Y021200D01*
X021502Y021146D01*
X021521Y021090D01*
X021535Y021032D01*
X021546Y020974D01*
X021553Y020916D01*
X021556Y020857D01*
X021555Y020798D01*
X021550Y020739D01*
X021542Y020680D01*
X021529Y020623D01*
X021513Y020566D01*
X021493Y020510D01*
X021469Y020456D01*
X021442Y020404D01*
X021412Y020353D01*
X021378Y020305D01*
X021341Y020258D01*
X021301Y020215D01*
X021259Y020174D01*
X021214Y020136D01*
X021166Y020101D01*
X021116Y020069D01*
X021064Y020041D01*
X021011Y020016D01*
X020956Y019995D01*
X020899Y019977D01*
X020842Y019963D01*
X020784Y019953D01*
X020725Y019947D01*
X020666Y019945D01*
X020666Y019954D01*
X020724Y019956D01*
X020783Y019962D01*
X020840Y019972D01*
X020897Y019986D01*
X020953Y020003D01*
X021007Y020024D01*
X021060Y020049D01*
X021112Y020077D01*
X021161Y020109D01*
X021208Y020143D01*
X021253Y020181D01*
X021295Y020221D01*
X021334Y020264D01*
X021371Y020310D01*
X021404Y020358D01*
X021435Y020408D01*
X021461Y020460D01*
X021485Y020514D01*
X021504Y020569D01*
X021520Y020625D01*
X021533Y020682D01*
X021541Y020740D01*
X021546Y020798D01*
X021547Y020856D01*
X021544Y020915D01*
X021537Y020973D01*
X021526Y021030D01*
X021512Y021087D01*
X021494Y021143D01*
X021472Y021197D01*
X021447Y021250D01*
X021418Y021300D01*
X021386Y021349D01*
X021351Y021396D01*
X021313Y021440D01*
X021272Y021482D01*
X021228Y021521D01*
X021182Y021557D01*
X021133Y021590D01*
X021083Y021619D01*
X021031Y021645D01*
X020977Y021668D01*
X020974Y021659D01*
X021027Y021637D01*
X021079Y021611D01*
X021129Y021582D01*
X021177Y021549D01*
X021222Y021514D01*
X021265Y021475D01*
X021306Y021434D01*
X021344Y021390D01*
X021379Y021344D01*
X021410Y021296D01*
X021439Y021245D01*
X021464Y021193D01*
X021485Y021139D01*
X021503Y021084D01*
X021518Y021028D01*
X021528Y020972D01*
X021535Y020914D01*
X021538Y020856D01*
X021537Y020798D01*
X021532Y020741D01*
X021524Y020684D01*
X021512Y020627D01*
X021496Y020571D01*
X021476Y020517D01*
X021453Y020464D01*
X021427Y020412D01*
X021397Y020363D01*
X021364Y020315D01*
X021328Y020270D01*
X021289Y020227D01*
X021247Y020187D01*
X021203Y020150D01*
X021156Y020116D01*
X021107Y020085D01*
X021056Y020057D01*
X021004Y020033D01*
X020950Y020012D01*
X020895Y019995D01*
X020838Y019981D01*
X020781Y019971D01*
X020724Y019965D01*
X020666Y019963D01*
X020666Y019972D01*
X020725Y019974D01*
X020783Y019981D01*
X020841Y019991D01*
X020898Y020005D01*
X020954Y020023D01*
X021008Y020044D01*
X021061Y020070D01*
X021112Y020098D01*
X021161Y020131D01*
X021208Y020166D01*
X021252Y020204D01*
X021294Y020246D01*
X021332Y020290D01*
X021368Y020337D01*
X021400Y020385D01*
X021429Y020436D01*
X021455Y020489D01*
X021477Y020544D01*
X021495Y020599D01*
X021509Y020656D01*
X021520Y020714D01*
X021526Y020772D01*
X021529Y020831D01*
X021528Y020890D01*
X021522Y020948D01*
X021513Y021006D01*
X021500Y021063D01*
X021483Y021119D01*
X021462Y021174D01*
X021438Y021227D01*
X021410Y021279D01*
X021378Y021329D01*
X021344Y021376D01*
X021306Y021421D01*
X021265Y021463D01*
X021222Y021502D01*
X021176Y021539D01*
X021127Y021572D01*
X021077Y021602D01*
X021025Y021628D01*
X020970Y021651D01*
X020967Y021643D01*
X021021Y021620D01*
X021073Y021594D01*
X021123Y021564D01*
X021171Y021532D01*
X021216Y021496D01*
X021259Y021457D01*
X021299Y021415D01*
X021337Y021370D01*
X021371Y021324D01*
X021402Y021274D01*
X021430Y021223D01*
X021454Y021171D01*
X021474Y021116D01*
X021491Y021061D01*
X021504Y021004D01*
X021513Y020947D01*
X021519Y020889D01*
X021520Y020831D01*
X021517Y020773D01*
X021511Y020715D01*
X021501Y020658D01*
X021486Y020602D01*
X021468Y020547D01*
X021447Y020493D01*
X021422Y020441D01*
X021393Y020390D01*
X021361Y020342D01*
X021326Y020296D01*
X021287Y020252D01*
X021246Y020211D01*
X021202Y020173D01*
X021156Y020138D01*
X021107Y020106D01*
X021057Y020078D01*
X021004Y020053D01*
X020951Y020031D01*
X020895Y020014D01*
X020839Y020000D01*
X020782Y019990D01*
X020724Y019983D01*
X020666Y019981D01*
X020666Y019990D01*
X020723Y019992D01*
X020780Y019998D01*
X020837Y020008D01*
X020893Y020022D01*
X020948Y020040D01*
X021001Y020061D01*
X021053Y020086D01*
X021103Y020114D01*
X021151Y020145D01*
X021197Y020180D01*
X021240Y020218D01*
X021281Y020258D01*
X021319Y020301D01*
X021353Y020347D01*
X021385Y020395D01*
X021414Y020445D01*
X021439Y020497D01*
X021460Y020550D01*
X021478Y020604D01*
X021492Y020660D01*
X021502Y020717D01*
X021508Y020774D01*
X021511Y020831D01*
X021510Y020889D01*
X021504Y020946D01*
X021495Y021002D01*
X021482Y021058D01*
X021466Y021113D01*
X021446Y021167D01*
X021422Y021219D01*
X021394Y021270D01*
X021364Y021318D01*
X021330Y021365D01*
X021293Y021409D01*
X021253Y021450D01*
X021210Y021489D01*
X021165Y021524D01*
X021118Y021557D01*
X021068Y021586D01*
X021017Y021612D01*
X020964Y021634D01*
X020961Y021626D01*
X021013Y021604D01*
X021064Y021578D01*
X021113Y021549D01*
X021160Y021517D01*
X021204Y021482D01*
X021247Y021444D01*
X021286Y021403D01*
X021323Y021359D01*
X021356Y021313D01*
X021387Y021265D01*
X021414Y021215D01*
X021437Y021164D01*
X021457Y021111D01*
X021474Y021056D01*
X021486Y021001D01*
X021495Y020945D01*
X021501Y020888D01*
X021502Y020831D01*
X021499Y020774D01*
X021493Y020718D01*
X021483Y020662D01*
X021469Y020607D01*
X021451Y020553D01*
X021430Y020500D01*
X021406Y020449D01*
X021377Y020400D01*
X021346Y020352D01*
X021312Y020307D01*
X021274Y020264D01*
X021234Y020224D01*
X021191Y020187D01*
X021146Y020153D01*
X021098Y020122D01*
X021049Y020094D01*
X020997Y020069D01*
X020945Y020048D01*
X020890Y020031D01*
X020835Y020017D01*
X020779Y020007D01*
X020723Y020001D01*
X020666Y019999D01*
X020666Y020008D01*
X020724Y020010D01*
X020781Y020017D01*
X020838Y020027D01*
X020893Y020041D01*
X020948Y020059D01*
X021001Y020081D01*
X021053Y020106D01*
X021103Y020135D01*
X021151Y020167D01*
X021196Y020203D01*
X021239Y020242D01*
X021279Y020283D01*
X021316Y020327D01*
X021350Y020374D01*
X021381Y020422D01*
X021408Y020473D01*
X021431Y020526D01*
X021451Y020580D01*
X021467Y020635D01*
X021480Y020692D01*
X021488Y020749D01*
X021492Y020806D01*
X021493Y020864D01*
X021489Y020921D01*
X021481Y020978D01*
X021470Y021035D01*
X021454Y021090D01*
X021435Y021145D01*
X021412Y021197D01*
X021386Y021249D01*
X021356Y021298D01*
X021322Y021345D01*
X021286Y021389D01*
X021246Y021431D01*
X021204Y021470D01*
X021159Y021506D01*
X021112Y021539D01*
X021062Y021569D01*
X021011Y021595D01*
X020958Y021617D01*
X020955Y021609D01*
X021007Y021587D01*
X021058Y021561D01*
X021107Y021532D01*
X021154Y021499D01*
X021198Y021463D01*
X021240Y021425D01*
X021279Y021383D01*
X021315Y021339D01*
X021348Y021293D01*
X021378Y021244D01*
X021404Y021194D01*
X021427Y021141D01*
X021446Y021088D01*
X021461Y021033D01*
X021473Y020977D01*
X021480Y020920D01*
X021484Y020863D01*
X021483Y020806D01*
X021479Y020750D01*
X021471Y020693D01*
X021459Y020637D01*
X021443Y020583D01*
X021423Y020529D01*
X021400Y020477D01*
X021373Y020427D01*
X021343Y020379D01*
X021309Y020333D01*
X021272Y020289D01*
X021233Y020248D01*
X021190Y020210D01*
X021146Y020175D01*
X021098Y020143D01*
X021049Y020114D01*
X020998Y020089D01*
X020945Y020068D01*
X020891Y020050D01*
X020836Y020036D01*
X020780Y020026D01*
X020723Y020019D01*
X020666Y020017D01*
X020666Y020026D01*
X020722Y020028D01*
X020778Y020035D01*
X020834Y020045D01*
X020888Y020058D01*
X020942Y020076D01*
X020994Y020097D01*
X021045Y020122D01*
X021094Y020150D01*
X021140Y020182D01*
X021185Y020217D01*
X021227Y020255D01*
X021266Y020295D01*
X021302Y020338D01*
X021335Y020384D01*
X021365Y020432D01*
X021392Y020481D01*
X021415Y020533D01*
X021434Y020586D01*
X021450Y020640D01*
X021462Y020695D01*
X021470Y020751D01*
X021474Y020807D01*
X021475Y020863D01*
X021471Y020919D01*
X021464Y020975D01*
X021452Y021030D01*
X021437Y021085D01*
X021419Y021138D01*
X021396Y021190D01*
X021370Y021240D01*
X021341Y021288D01*
X021308Y021334D01*
X021272Y021377D01*
X021234Y021418D01*
X021192Y021457D01*
X021148Y021492D01*
X021102Y021524D01*
X021054Y021553D01*
X021003Y021578D01*
X020952Y021600D01*
X024666Y019416D02*
X024666Y019466D01*
X024666Y019465D02*
X024739Y019467D01*
X024812Y019473D01*
X024885Y019483D01*
X024957Y019497D01*
X025028Y019515D01*
X025098Y019536D01*
X025167Y019561D01*
X025234Y019590D01*
X025300Y019623D01*
X025364Y019658D01*
X025389Y019616D01*
X025390Y019616D01*
X025330Y019582D01*
X025268Y019551D01*
X025205Y019523D01*
X025140Y019498D01*
X025075Y019476D01*
X025008Y019458D01*
X024941Y019443D01*
X024873Y019431D01*
X024804Y019422D01*
X024735Y019417D01*
X024666Y019415D01*
X024666Y019424D01*
X024735Y019426D01*
X024803Y019431D01*
X024871Y019440D01*
X024939Y019452D01*
X025006Y019467D01*
X025072Y019485D01*
X025137Y019506D01*
X025201Y019531D01*
X025264Y019559D01*
X025325Y019590D01*
X025385Y019623D01*
X025381Y019631D01*
X025315Y019594D01*
X025248Y019561D01*
X025179Y019532D01*
X025108Y019506D01*
X025037Y019484D01*
X024964Y019466D01*
X024890Y019452D01*
X024816Y019442D01*
X024741Y019435D01*
X024666Y019433D01*
X024666Y019442D01*
X024741Y019444D01*
X024815Y019450D01*
X024889Y019461D01*
X024962Y019475D01*
X025034Y019493D01*
X025105Y019515D01*
X025176Y019540D01*
X025244Y019569D01*
X025311Y019602D01*
X025376Y019639D01*
X025371Y019646D01*
X025307Y019610D01*
X025240Y019578D01*
X025172Y019548D01*
X025103Y019523D01*
X025032Y019501D01*
X024960Y019484D01*
X024887Y019470D01*
X024814Y019459D01*
X024740Y019453D01*
X024666Y019451D01*
X024666Y019460D01*
X024740Y019462D01*
X024813Y019468D01*
X024886Y019478D01*
X024958Y019492D01*
X025029Y019510D01*
X025100Y019532D01*
X025169Y019557D01*
X025237Y019586D01*
X025303Y019618D01*
X025367Y019654D01*
X025900Y020138D02*
X025857Y020163D01*
X025857Y020162D02*
X025892Y020227D01*
X025923Y020294D01*
X025950Y020362D01*
X025974Y020431D01*
X025994Y020502D01*
X026010Y020573D01*
X026022Y020646D01*
X026031Y020719D01*
X026035Y020792D01*
X026036Y020865D01*
X026032Y020939D01*
X026025Y021012D01*
X026014Y021084D01*
X025999Y021156D01*
X025980Y021227D01*
X025958Y021297D01*
X025932Y021366D01*
X025902Y021433D01*
X025868Y021498D01*
X025831Y021562D01*
X025791Y021623D01*
X025748Y021682D01*
X025701Y021739D01*
X025652Y021793D01*
X025600Y021845D01*
X025545Y021894D01*
X025487Y021939D01*
X025427Y021982D01*
X025365Y022021D01*
X025301Y022057D01*
X025235Y022089D01*
X025168Y022118D01*
X025099Y022143D01*
X025029Y022165D01*
X024957Y022183D01*
X024885Y022197D01*
X024813Y022207D01*
X024739Y022213D01*
X024666Y022215D01*
X024665Y022264D01*
X024666Y022265D01*
X024740Y022263D01*
X024814Y022257D01*
X024888Y022247D01*
X024961Y022233D01*
X025033Y022216D01*
X025104Y022194D01*
X025174Y022170D01*
X025242Y022141D01*
X025309Y022109D01*
X025374Y022074D01*
X025438Y022035D01*
X025499Y021993D01*
X025558Y021948D01*
X025614Y021899D01*
X025668Y021848D01*
X025719Y021795D01*
X025767Y021738D01*
X025812Y021680D01*
X025855Y021618D01*
X025893Y021555D01*
X025929Y021490D01*
X025961Y021423D01*
X025990Y021355D01*
X026015Y021285D01*
X026036Y021214D01*
X026054Y021142D01*
X026067Y021069D01*
X026078Y020995D01*
X026084Y020921D01*
X026086Y020847D01*
X026084Y020773D01*
X026079Y020699D01*
X026070Y020625D01*
X026057Y020552D01*
X026040Y020480D01*
X026019Y020409D01*
X025995Y020339D01*
X025967Y020270D01*
X025936Y020203D01*
X025901Y020137D01*
X025893Y020142D01*
X025928Y020207D01*
X025959Y020274D01*
X025987Y020342D01*
X026011Y020412D01*
X026031Y020482D01*
X026048Y020554D01*
X026061Y020627D01*
X026070Y020700D01*
X026075Y020774D01*
X026077Y020847D01*
X026075Y020921D01*
X026069Y020994D01*
X026059Y021067D01*
X026045Y021140D01*
X026027Y021212D01*
X026006Y021282D01*
X025981Y021352D01*
X025953Y021420D01*
X025921Y021486D01*
X025886Y021551D01*
X025847Y021614D01*
X025805Y021674D01*
X025760Y021733D01*
X025712Y021789D01*
X025661Y021842D01*
X025608Y021893D01*
X025552Y021941D01*
X025493Y021986D01*
X025433Y022027D01*
X025370Y022066D01*
X025305Y022101D01*
X025239Y022133D01*
X025170Y022161D01*
X025101Y022186D01*
X025030Y022207D01*
X024959Y022224D01*
X024886Y022238D01*
X024813Y022248D01*
X024740Y022254D01*
X024666Y022256D01*
X024666Y022247D01*
X024741Y022245D01*
X024816Y022238D01*
X024890Y022228D01*
X024964Y022214D01*
X025037Y022196D01*
X025109Y022174D01*
X025179Y022148D01*
X025249Y022118D01*
X025316Y022085D01*
X025382Y022049D01*
X025445Y022008D01*
X025506Y021965D01*
X025565Y021918D01*
X025621Y021868D01*
X025675Y021816D01*
X025725Y021760D01*
X025773Y021702D01*
X025818Y021641D01*
X025859Y021578D01*
X025896Y021513D01*
X025931Y021447D01*
X025961Y021378D01*
X025988Y021308D01*
X026011Y021236D01*
X026030Y021164D01*
X026046Y021090D01*
X026057Y021016D01*
X026064Y020941D01*
X026068Y020866D01*
X026067Y020791D01*
X026063Y020716D01*
X026054Y020641D01*
X026041Y020567D01*
X026025Y020494D01*
X026004Y020422D01*
X025980Y020350D01*
X025952Y020281D01*
X025920Y020213D01*
X025885Y020146D01*
X025877Y020151D01*
X025912Y020217D01*
X025944Y020284D01*
X025972Y020354D01*
X025996Y020424D01*
X026016Y020496D01*
X026032Y020569D01*
X026045Y020643D01*
X026054Y020717D01*
X026058Y020791D01*
X026059Y020866D01*
X026055Y020940D01*
X026048Y021015D01*
X026037Y021089D01*
X026022Y021162D01*
X026002Y021234D01*
X025979Y021305D01*
X025953Y021375D01*
X025922Y021443D01*
X025888Y021509D01*
X025851Y021574D01*
X025810Y021636D01*
X025766Y021696D01*
X025719Y021754D01*
X025668Y021809D01*
X025615Y021862D01*
X025559Y021911D01*
X025501Y021958D01*
X025440Y022001D01*
X025377Y022041D01*
X025312Y022077D01*
X025245Y022110D01*
X025176Y022140D01*
X025106Y022165D01*
X025035Y022187D01*
X024962Y022205D01*
X024889Y022219D01*
X024815Y022229D01*
X024741Y022236D01*
X024666Y022238D01*
X024666Y022229D01*
X024740Y022227D01*
X024814Y022221D01*
X024888Y022210D01*
X024960Y022196D01*
X025032Y022178D01*
X025103Y022157D01*
X025173Y022131D01*
X025241Y022102D01*
X025308Y022069D01*
X025372Y022033D01*
X025435Y021993D01*
X025495Y021950D01*
X025554Y021904D01*
X025609Y021855D01*
X025662Y021803D01*
X025712Y021748D01*
X025759Y021691D01*
X025803Y021631D01*
X025843Y021569D01*
X025881Y021505D01*
X025914Y021439D01*
X025944Y021371D01*
X025971Y021302D01*
X025994Y021231D01*
X026013Y021160D01*
X026028Y021087D01*
X026039Y021014D01*
X026046Y020940D01*
X026050Y020866D01*
X026049Y020792D01*
X026045Y020718D01*
X026036Y020644D01*
X026024Y020571D01*
X026007Y020498D01*
X025987Y020427D01*
X025963Y020357D01*
X025936Y020288D01*
X025904Y020221D01*
X025869Y020155D01*
X025862Y020160D01*
X025896Y020225D01*
X025927Y020292D01*
X025955Y020360D01*
X025979Y020430D01*
X025999Y020501D01*
X026015Y020572D01*
X026027Y020645D01*
X026036Y020718D01*
X026040Y020792D01*
X026041Y020866D01*
X026037Y020939D01*
X026030Y021012D01*
X026019Y021085D01*
X026004Y021157D01*
X025985Y021229D01*
X025962Y021299D01*
X025936Y021368D01*
X025906Y021435D01*
X025873Y021501D01*
X025836Y021564D01*
X025795Y021626D01*
X025752Y021685D01*
X025705Y021742D01*
X025655Y021797D01*
X025603Y021849D01*
X025548Y021897D01*
X025490Y021943D01*
X025430Y021986D01*
X025368Y022025D01*
X025303Y022061D01*
X025237Y022094D01*
X025170Y022123D01*
X025100Y022148D01*
X025030Y022170D01*
X024958Y022188D01*
X024886Y022202D01*
X024813Y022212D01*
X024740Y022218D01*
X024666Y022220D01*
X024657Y022264D02*
X024657Y022214D01*
X024656Y022215D02*
X024582Y022213D01*
X024508Y022206D01*
X024435Y022196D01*
X024362Y022182D01*
X024290Y022164D01*
X024219Y022142D01*
X024149Y022116D01*
X024081Y022087D01*
X024015Y022054D01*
X023950Y022017D01*
X023888Y021977D01*
X023828Y021934D01*
X023770Y021887D01*
X023715Y021838D01*
X023662Y021785D01*
X023613Y021730D01*
X023566Y021672D01*
X023523Y021612D01*
X023483Y021549D01*
X023447Y021485D01*
X023414Y021419D01*
X023384Y021350D01*
X023359Y021281D01*
X023337Y021210D01*
X023319Y021138D01*
X023305Y021065D01*
X023294Y020992D01*
X023288Y020918D01*
X023286Y020844D01*
X023288Y020770D01*
X023294Y020696D01*
X023303Y020622D01*
X023317Y020549D01*
X023335Y020477D01*
X023356Y020406D01*
X023382Y020336D01*
X023411Y020268D01*
X023443Y020202D01*
X023479Y020137D01*
X023437Y020112D01*
X023436Y020111D01*
X023400Y020177D01*
X023367Y020244D01*
X023337Y020313D01*
X023311Y020383D01*
X023289Y020455D01*
X023271Y020527D01*
X023256Y020601D01*
X023246Y020675D01*
X023239Y020750D01*
X023236Y020825D01*
X023237Y020899D01*
X023242Y020974D01*
X023251Y021049D01*
X023264Y021123D01*
X023281Y021196D01*
X023302Y021268D01*
X023326Y021339D01*
X023354Y021408D01*
X023386Y021476D01*
X023421Y021542D01*
X023460Y021606D01*
X023502Y021668D01*
X023547Y021728D01*
X023595Y021786D01*
X023646Y021840D01*
X023700Y021892D01*
X023757Y021941D01*
X023816Y021987D01*
X023877Y022030D01*
X023941Y022070D01*
X024007Y022106D01*
X024074Y022139D01*
X024143Y022168D01*
X024214Y022193D01*
X024286Y022215D01*
X024358Y022233D01*
X024432Y022246D01*
X024506Y022257D01*
X024581Y022263D01*
X024656Y022265D01*
X024656Y022256D01*
X024582Y022254D01*
X024507Y022248D01*
X024434Y022238D01*
X024360Y022224D01*
X024288Y022206D01*
X024217Y022184D01*
X024147Y022159D01*
X024078Y022130D01*
X024011Y022098D01*
X023946Y022062D01*
X023882Y022023D01*
X023821Y021980D01*
X023763Y021934D01*
X023706Y021886D01*
X023653Y021834D01*
X023602Y021780D01*
X023554Y021723D01*
X023509Y021663D01*
X023467Y021601D01*
X023429Y021538D01*
X023394Y021472D01*
X023362Y021404D01*
X023334Y021335D01*
X023310Y021265D01*
X023290Y021193D01*
X023273Y021121D01*
X023260Y021047D01*
X023251Y020973D01*
X023246Y020899D01*
X023245Y020825D01*
X023248Y020750D01*
X023255Y020676D01*
X023265Y020602D01*
X023280Y020529D01*
X023298Y020457D01*
X023320Y020386D01*
X023346Y020316D01*
X023375Y020248D01*
X023408Y020181D01*
X023444Y020116D01*
X023452Y020120D01*
X023416Y020185D01*
X023383Y020251D01*
X023354Y020319D01*
X023328Y020389D01*
X023306Y020460D01*
X023288Y020531D01*
X023274Y020604D01*
X023263Y020677D01*
X023257Y020751D01*
X023254Y020825D01*
X023255Y020899D01*
X023260Y020973D01*
X023269Y021046D01*
X023282Y021119D01*
X023299Y021191D01*
X023319Y021262D01*
X023343Y021332D01*
X023371Y021401D01*
X023402Y021468D01*
X023437Y021533D01*
X023475Y021597D01*
X023516Y021658D01*
X023561Y021717D01*
X023608Y021774D01*
X023659Y021828D01*
X023712Y021879D01*
X023768Y021927D01*
X023827Y021973D01*
X023887Y022015D01*
X023950Y022054D01*
X024015Y022090D01*
X024082Y022122D01*
X024150Y022151D01*
X024220Y022176D01*
X024290Y022197D01*
X024362Y022215D01*
X024435Y022229D01*
X024508Y022239D01*
X024582Y022245D01*
X024656Y022247D01*
X024656Y022238D01*
X024583Y022236D01*
X024509Y022230D01*
X024436Y022220D01*
X024364Y022206D01*
X024293Y022189D01*
X024222Y022167D01*
X024153Y022142D01*
X024085Y022114D01*
X024019Y022082D01*
X023955Y022046D01*
X023892Y022008D01*
X023832Y021966D01*
X023774Y021921D01*
X023718Y021872D01*
X023665Y021821D01*
X023615Y021768D01*
X023568Y021711D01*
X023524Y021653D01*
X023482Y021592D01*
X023444Y021529D01*
X023410Y021464D01*
X023379Y021397D01*
X023351Y021329D01*
X023327Y021260D01*
X023307Y021189D01*
X023291Y021117D01*
X023278Y021045D01*
X023269Y020972D01*
X023264Y020898D01*
X023263Y020825D01*
X023266Y020751D01*
X023272Y020678D01*
X023283Y020605D01*
X023297Y020533D01*
X023315Y020462D01*
X023337Y020392D01*
X023362Y020323D01*
X023391Y020255D01*
X023424Y020189D01*
X023460Y020125D01*
X023467Y020130D01*
X023432Y020193D01*
X023399Y020259D01*
X023371Y020326D01*
X023345Y020395D01*
X023324Y020464D01*
X023306Y020535D01*
X023292Y020607D01*
X023281Y020679D01*
X023275Y020752D01*
X023272Y020825D01*
X023273Y020898D01*
X023278Y020971D01*
X023287Y021043D01*
X023300Y021115D01*
X023316Y021187D01*
X023336Y021257D01*
X023360Y021326D01*
X023387Y021394D01*
X023418Y021460D01*
X023452Y021524D01*
X023490Y021587D01*
X023531Y021648D01*
X023575Y021706D01*
X023622Y021762D01*
X023672Y021815D01*
X023724Y021866D01*
X023780Y021914D01*
X023837Y021958D01*
X023897Y022000D01*
X023959Y022039D01*
X024023Y022074D01*
X024089Y022106D01*
X024156Y022134D01*
X024225Y022159D01*
X024295Y022180D01*
X024366Y022197D01*
X024438Y022211D01*
X024510Y022221D01*
X024583Y022227D01*
X024656Y022229D01*
X024656Y022220D01*
X024582Y022218D01*
X024507Y022211D01*
X024434Y022201D01*
X024361Y022187D01*
X024288Y022169D01*
X024217Y022147D01*
X024148Y022121D01*
X024079Y022091D01*
X024013Y022058D01*
X023948Y022021D01*
X023885Y021981D01*
X023825Y021938D01*
X023767Y021891D01*
X023711Y021841D01*
X023659Y021789D01*
X023609Y021733D01*
X023562Y021675D01*
X023519Y021615D01*
X023479Y021552D01*
X023442Y021487D01*
X023409Y021421D01*
X023380Y021352D01*
X023354Y021282D01*
X023332Y021211D01*
X023314Y021139D01*
X023300Y021066D01*
X023289Y020992D01*
X023283Y020918D01*
X023281Y020844D01*
X023283Y020769D01*
X023289Y020695D01*
X023298Y020621D01*
X023312Y020548D01*
X023330Y020476D01*
X023351Y020405D01*
X023377Y020335D01*
X023406Y020266D01*
X023439Y020199D01*
X023475Y020134D01*
X023923Y019622D02*
X023949Y019665D01*
X023948Y019664D02*
X024013Y019627D01*
X024080Y019594D01*
X024148Y019564D01*
X024218Y019538D01*
X024289Y019516D01*
X024361Y019498D01*
X024434Y019484D01*
X024508Y019474D01*
X024582Y019467D01*
X024656Y019465D01*
X024657Y019416D01*
X024656Y019415D01*
X024586Y019417D01*
X024516Y019422D01*
X024446Y019431D01*
X024377Y019444D01*
X024309Y019459D01*
X024241Y019478D01*
X024175Y019500D01*
X024110Y019526D01*
X024046Y019555D01*
X023983Y019587D01*
X023922Y019621D01*
X023927Y019629D01*
X023987Y019594D01*
X024050Y019563D01*
X024113Y019534D01*
X024178Y019509D01*
X024244Y019487D01*
X024311Y019468D01*
X024379Y019452D01*
X024448Y019440D01*
X024517Y019431D01*
X024586Y019426D01*
X024656Y019424D01*
X024656Y019433D01*
X024587Y019435D01*
X024518Y019440D01*
X024449Y019449D01*
X024381Y019461D01*
X024313Y019477D01*
X024247Y019495D01*
X024181Y019517D01*
X024117Y019543D01*
X024053Y019571D01*
X023992Y019602D01*
X023932Y019637D01*
X023936Y019644D01*
X023996Y019610D01*
X024057Y019579D01*
X024120Y019551D01*
X024184Y019526D01*
X024249Y019504D01*
X024316Y019485D01*
X024383Y019470D01*
X024450Y019458D01*
X024519Y019449D01*
X024587Y019444D01*
X024656Y019442D01*
X024656Y019451D01*
X024588Y019453D01*
X024520Y019458D01*
X024452Y019467D01*
X024384Y019479D01*
X024318Y019494D01*
X024252Y019513D01*
X024187Y019534D01*
X024124Y019559D01*
X024061Y019587D01*
X024000Y019618D01*
X023941Y019652D01*
X023946Y019660D01*
X024011Y019623D01*
X024077Y019589D01*
X024146Y019560D01*
X024216Y019534D01*
X024287Y019512D01*
X024360Y019493D01*
X024433Y019479D01*
X024507Y019469D01*
X024581Y019462D01*
X024656Y019460D01*
X024343Y021676D02*
X024374Y021591D01*
X024374Y021592D02*
X024322Y021570D01*
X024273Y021545D01*
X024225Y021517D01*
X024179Y021485D01*
X024135Y021450D01*
X024095Y021412D01*
X024056Y021371D01*
X024021Y021328D01*
X023989Y021283D01*
X023960Y021235D01*
X023934Y021186D01*
X023912Y021135D01*
X023893Y021082D01*
X023878Y021028D01*
X023867Y020974D01*
X023860Y020918D01*
X023856Y020863D01*
X023857Y020807D01*
X023861Y020752D01*
X023869Y020696D01*
X023881Y020642D01*
X023896Y020588D01*
X023916Y020536D01*
X023938Y020485D01*
X023965Y020436D01*
X023994Y020389D01*
X024027Y020344D01*
X024063Y020301D01*
X024102Y020261D01*
X024143Y020224D01*
X024187Y020189D01*
X024233Y020158D01*
X024281Y020130D01*
X024331Y020106D01*
X024383Y020084D01*
X024436Y020067D01*
X024490Y020053D01*
X024545Y020043D01*
X024600Y020037D01*
X024656Y020035D01*
X024657Y019946D01*
X024656Y019945D01*
X024597Y019947D01*
X024538Y019953D01*
X024480Y019963D01*
X024423Y019977D01*
X024366Y019995D01*
X024311Y020016D01*
X024258Y020041D01*
X024206Y020069D01*
X024156Y020101D01*
X024108Y020136D01*
X024063Y020174D01*
X024021Y020215D01*
X023981Y020258D01*
X023944Y020305D01*
X023910Y020353D01*
X023880Y020404D01*
X023853Y020456D01*
X023829Y020510D01*
X023809Y020566D01*
X023793Y020623D01*
X023780Y020680D01*
X023772Y020739D01*
X023767Y020798D01*
X023766Y020857D01*
X023769Y020916D01*
X023776Y020974D01*
X023787Y021032D01*
X023801Y021090D01*
X023820Y021146D01*
X023842Y021200D01*
X023867Y021254D01*
X023896Y021305D01*
X023929Y021355D01*
X023964Y021402D01*
X024003Y021446D01*
X024044Y021489D01*
X024088Y021528D01*
X024135Y021564D01*
X024184Y021597D01*
X024235Y021627D01*
X024288Y021653D01*
X024342Y021676D01*
X024345Y021668D01*
X024291Y021645D01*
X024239Y021619D01*
X024189Y021590D01*
X024140Y021557D01*
X024094Y021521D01*
X024050Y021482D01*
X024009Y021440D01*
X023971Y021396D01*
X023936Y021349D01*
X023904Y021300D01*
X023875Y021250D01*
X023850Y021197D01*
X023828Y021143D01*
X023810Y021087D01*
X023796Y021030D01*
X023785Y020973D01*
X023778Y020915D01*
X023775Y020856D01*
X023776Y020798D01*
X023781Y020740D01*
X023789Y020682D01*
X023802Y020625D01*
X023818Y020569D01*
X023837Y020514D01*
X023861Y020460D01*
X023887Y020408D01*
X023918Y020358D01*
X023951Y020310D01*
X023988Y020264D01*
X024027Y020221D01*
X024069Y020181D01*
X024114Y020143D01*
X024161Y020109D01*
X024210Y020077D01*
X024262Y020049D01*
X024315Y020024D01*
X024369Y020003D01*
X024425Y019986D01*
X024482Y019972D01*
X024539Y019962D01*
X024598Y019956D01*
X024656Y019954D01*
X024656Y019963D01*
X024598Y019965D01*
X024541Y019971D01*
X024484Y019981D01*
X024427Y019995D01*
X024372Y020012D01*
X024318Y020033D01*
X024266Y020057D01*
X024215Y020085D01*
X024166Y020116D01*
X024119Y020150D01*
X024075Y020187D01*
X024033Y020227D01*
X023994Y020270D01*
X023958Y020315D01*
X023925Y020363D01*
X023895Y020412D01*
X023869Y020464D01*
X023846Y020517D01*
X023826Y020571D01*
X023810Y020627D01*
X023798Y020684D01*
X023790Y020741D01*
X023785Y020798D01*
X023784Y020856D01*
X023787Y020914D01*
X023794Y020972D01*
X023804Y021028D01*
X023819Y021084D01*
X023837Y021139D01*
X023858Y021193D01*
X023883Y021245D01*
X023912Y021296D01*
X023943Y021344D01*
X023978Y021390D01*
X024016Y021434D01*
X024057Y021475D01*
X024100Y021514D01*
X024145Y021549D01*
X024193Y021582D01*
X024243Y021611D01*
X024295Y021637D01*
X024348Y021659D01*
X024352Y021651D01*
X024297Y021628D01*
X024245Y021602D01*
X024195Y021572D01*
X024146Y021539D01*
X024100Y021502D01*
X024057Y021463D01*
X024016Y021421D01*
X023978Y021376D01*
X023944Y021329D01*
X023912Y021279D01*
X023884Y021227D01*
X023860Y021174D01*
X023839Y021119D01*
X023822Y021063D01*
X023809Y021006D01*
X023800Y020948D01*
X023794Y020890D01*
X023793Y020831D01*
X023796Y020772D01*
X023802Y020714D01*
X023813Y020656D01*
X023827Y020599D01*
X023845Y020544D01*
X023867Y020489D01*
X023893Y020436D01*
X023922Y020385D01*
X023954Y020337D01*
X023990Y020290D01*
X024028Y020246D01*
X024070Y020204D01*
X024114Y020166D01*
X024161Y020131D01*
X024210Y020098D01*
X024261Y020070D01*
X024314Y020044D01*
X024368Y020023D01*
X024424Y020005D01*
X024481Y019991D01*
X024539Y019981D01*
X024597Y019974D01*
X024656Y019972D01*
X024656Y019981D01*
X024598Y019983D01*
X024540Y019990D01*
X024483Y020000D01*
X024427Y020014D01*
X024371Y020031D01*
X024318Y020053D01*
X024265Y020078D01*
X024215Y020106D01*
X024166Y020138D01*
X024120Y020173D01*
X024076Y020211D01*
X024035Y020252D01*
X023996Y020296D01*
X023961Y020342D01*
X023929Y020390D01*
X023900Y020441D01*
X023875Y020493D01*
X023854Y020547D01*
X023836Y020602D01*
X023821Y020658D01*
X023811Y020715D01*
X023805Y020773D01*
X023802Y020831D01*
X023803Y020889D01*
X023809Y020947D01*
X023818Y021004D01*
X023831Y021061D01*
X023848Y021116D01*
X023868Y021171D01*
X023892Y021223D01*
X023920Y021274D01*
X023951Y021324D01*
X023985Y021370D01*
X024023Y021415D01*
X024063Y021457D01*
X024106Y021496D01*
X024151Y021532D01*
X024199Y021564D01*
X024249Y021594D01*
X024301Y021620D01*
X024355Y021643D01*
X024358Y021634D01*
X024305Y021612D01*
X024254Y021586D01*
X024204Y021557D01*
X024157Y021524D01*
X024112Y021489D01*
X024069Y021450D01*
X024029Y021409D01*
X023992Y021365D01*
X023958Y021318D01*
X023928Y021270D01*
X023900Y021219D01*
X023876Y021167D01*
X023856Y021113D01*
X023840Y021058D01*
X023827Y021002D01*
X023818Y020946D01*
X023812Y020889D01*
X023811Y020831D01*
X023814Y020774D01*
X023820Y020717D01*
X023830Y020660D01*
X023844Y020604D01*
X023862Y020550D01*
X023883Y020497D01*
X023908Y020445D01*
X023937Y020395D01*
X023969Y020347D01*
X024003Y020301D01*
X024041Y020258D01*
X024082Y020218D01*
X024125Y020180D01*
X024171Y020145D01*
X024219Y020114D01*
X024269Y020086D01*
X024321Y020061D01*
X024374Y020040D01*
X024429Y020022D01*
X024485Y020008D01*
X024542Y019998D01*
X024599Y019992D01*
X024656Y019990D01*
X024656Y019999D01*
X024599Y020001D01*
X024543Y020007D01*
X024487Y020017D01*
X024432Y020031D01*
X024377Y020048D01*
X024325Y020069D01*
X024273Y020094D01*
X024224Y020122D01*
X024176Y020153D01*
X024131Y020187D01*
X024088Y020224D01*
X024048Y020264D01*
X024010Y020307D01*
X023976Y020352D01*
X023945Y020400D01*
X023916Y020449D01*
X023892Y020500D01*
X023871Y020553D01*
X023853Y020607D01*
X023839Y020662D01*
X023829Y020718D01*
X023823Y020774D01*
X023820Y020831D01*
X023821Y020888D01*
X023827Y020945D01*
X023836Y021001D01*
X023848Y021056D01*
X023865Y021111D01*
X023885Y021164D01*
X023908Y021215D01*
X023935Y021265D01*
X023966Y021313D01*
X023999Y021359D01*
X024036Y021403D01*
X024075Y021444D01*
X024118Y021482D01*
X024162Y021517D01*
X024209Y021549D01*
X024258Y021578D01*
X024309Y021604D01*
X024361Y021626D01*
X024364Y021617D01*
X024311Y021595D01*
X024260Y021569D01*
X024210Y021539D01*
X024163Y021506D01*
X024118Y021470D01*
X024076Y021431D01*
X024036Y021389D01*
X024000Y021345D01*
X023966Y021298D01*
X023936Y021249D01*
X023910Y021197D01*
X023887Y021145D01*
X023868Y021090D01*
X023852Y021035D01*
X023841Y020978D01*
X023833Y020921D01*
X023829Y020864D01*
X023830Y020806D01*
X023834Y020749D01*
X023842Y020692D01*
X023855Y020635D01*
X023871Y020580D01*
X023891Y020526D01*
X023914Y020473D01*
X023941Y020422D01*
X023972Y020374D01*
X024006Y020327D01*
X024043Y020283D01*
X024083Y020242D01*
X024126Y020203D01*
X024171Y020167D01*
X024219Y020135D01*
X024269Y020106D01*
X024321Y020081D01*
X024374Y020059D01*
X024429Y020041D01*
X024484Y020027D01*
X024541Y020017D01*
X024598Y020010D01*
X024656Y020008D01*
X024656Y020017D01*
X024599Y020019D01*
X024542Y020026D01*
X024486Y020036D01*
X024431Y020050D01*
X024377Y020068D01*
X024324Y020089D01*
X024273Y020114D01*
X024224Y020143D01*
X024176Y020175D01*
X024132Y020210D01*
X024089Y020248D01*
X024050Y020289D01*
X024013Y020333D01*
X023979Y020379D01*
X023949Y020427D01*
X023922Y020477D01*
X023899Y020529D01*
X023879Y020583D01*
X023863Y020637D01*
X023851Y020693D01*
X023843Y020750D01*
X023839Y020806D01*
X023838Y020863D01*
X023842Y020920D01*
X023849Y020977D01*
X023861Y021033D01*
X023876Y021088D01*
X023895Y021141D01*
X023918Y021194D01*
X023944Y021244D01*
X023974Y021293D01*
X024007Y021339D01*
X024043Y021383D01*
X024082Y021425D01*
X024124Y021463D01*
X024168Y021499D01*
X024215Y021532D01*
X024264Y021561D01*
X024315Y021587D01*
X024367Y021609D01*
X024370Y021600D01*
X024319Y021578D01*
X024268Y021553D01*
X024220Y021524D01*
X024174Y021492D01*
X024130Y021457D01*
X024088Y021418D01*
X024050Y021377D01*
X024014Y021334D01*
X023981Y021288D01*
X023952Y021240D01*
X023926Y021190D01*
X023903Y021138D01*
X023885Y021085D01*
X023870Y021030D01*
X023858Y020975D01*
X023851Y020919D01*
X023847Y020863D01*
X023848Y020807D01*
X023852Y020751D01*
X023860Y020695D01*
X023872Y020640D01*
X023888Y020586D01*
X023907Y020533D01*
X023930Y020481D01*
X023957Y020432D01*
X023987Y020384D01*
X024020Y020338D01*
X024056Y020295D01*
X024095Y020255D01*
X024137Y020217D01*
X024182Y020182D01*
X024228Y020150D01*
X024277Y020122D01*
X024328Y020097D01*
X024380Y020076D01*
X024434Y020058D01*
X024488Y020045D01*
X024544Y020035D01*
X024600Y020028D01*
X024656Y020026D01*
X024665Y019946D02*
X024665Y020036D01*
X024666Y020035D02*
X024722Y020037D01*
X024777Y020043D01*
X024832Y020053D01*
X024886Y020067D01*
X024939Y020084D01*
X024991Y020106D01*
X025041Y020130D01*
X025089Y020158D01*
X025135Y020189D01*
X025179Y020224D01*
X025220Y020261D01*
X025259Y020301D01*
X025295Y020344D01*
X025328Y020389D01*
X025357Y020436D01*
X025384Y020485D01*
X025406Y020536D01*
X025426Y020588D01*
X025441Y020642D01*
X025453Y020696D01*
X025461Y020752D01*
X025465Y020807D01*
X025466Y020863D01*
X025462Y020918D01*
X025455Y020974D01*
X025444Y021028D01*
X025429Y021082D01*
X025410Y021135D01*
X025388Y021186D01*
X025362Y021235D01*
X025333Y021283D01*
X025301Y021328D01*
X025266Y021371D01*
X025227Y021412D01*
X025187Y021450D01*
X025143Y021485D01*
X025097Y021517D01*
X025049Y021545D01*
X025000Y021570D01*
X024948Y021592D01*
X024979Y021676D01*
X024980Y021676D01*
X025034Y021653D01*
X025087Y021627D01*
X025138Y021597D01*
X025187Y021564D01*
X025234Y021528D01*
X025278Y021489D01*
X025319Y021446D01*
X025358Y021402D01*
X025393Y021355D01*
X025426Y021305D01*
X025455Y021254D01*
X025480Y021200D01*
X025502Y021146D01*
X025521Y021090D01*
X025535Y021032D01*
X025546Y020974D01*
X025553Y020916D01*
X025556Y020857D01*
X025555Y020798D01*
X025550Y020739D01*
X025542Y020680D01*
X025529Y020623D01*
X025513Y020566D01*
X025493Y020510D01*
X025469Y020456D01*
X025442Y020404D01*
X025412Y020353D01*
X025378Y020305D01*
X025341Y020258D01*
X025301Y020215D01*
X025259Y020174D01*
X025214Y020136D01*
X025166Y020101D01*
X025116Y020069D01*
X025064Y020041D01*
X025011Y020016D01*
X024956Y019995D01*
X024899Y019977D01*
X024842Y019963D01*
X024784Y019953D01*
X024725Y019947D01*
X024666Y019945D01*
X024666Y019954D01*
X024724Y019956D01*
X024783Y019962D01*
X024840Y019972D01*
X024897Y019986D01*
X024953Y020003D01*
X025007Y020024D01*
X025060Y020049D01*
X025112Y020077D01*
X025161Y020109D01*
X025208Y020143D01*
X025253Y020181D01*
X025295Y020221D01*
X025334Y020264D01*
X025371Y020310D01*
X025404Y020358D01*
X025435Y020408D01*
X025461Y020460D01*
X025485Y020514D01*
X025504Y020569D01*
X025520Y020625D01*
X025533Y020682D01*
X025541Y020740D01*
X025546Y020798D01*
X025547Y020856D01*
X025544Y020915D01*
X025537Y020973D01*
X025526Y021030D01*
X025512Y021087D01*
X025494Y021143D01*
X025472Y021197D01*
X025447Y021250D01*
X025418Y021300D01*
X025386Y021349D01*
X025351Y021396D01*
X025313Y021440D01*
X025272Y021482D01*
X025228Y021521D01*
X025182Y021557D01*
X025133Y021590D01*
X025083Y021619D01*
X025031Y021645D01*
X024977Y021668D01*
X024974Y021659D01*
X025027Y021637D01*
X025079Y021611D01*
X025129Y021582D01*
X025177Y021549D01*
X025222Y021514D01*
X025265Y021475D01*
X025306Y021434D01*
X025344Y021390D01*
X025379Y021344D01*
X025410Y021296D01*
X025439Y021245D01*
X025464Y021193D01*
X025485Y021139D01*
X025503Y021084D01*
X025518Y021028D01*
X025528Y020972D01*
X025535Y020914D01*
X025538Y020856D01*
X025537Y020798D01*
X025532Y020741D01*
X025524Y020684D01*
X025512Y020627D01*
X025496Y020571D01*
X025476Y020517D01*
X025453Y020464D01*
X025427Y020412D01*
X025397Y020363D01*
X025364Y020315D01*
X025328Y020270D01*
X025289Y020227D01*
X025247Y020187D01*
X025203Y020150D01*
X025156Y020116D01*
X025107Y020085D01*
X025056Y020057D01*
X025004Y020033D01*
X024950Y020012D01*
X024895Y019995D01*
X024838Y019981D01*
X024781Y019971D01*
X024724Y019965D01*
X024666Y019963D01*
X024666Y019972D01*
X024725Y019974D01*
X024783Y019981D01*
X024841Y019991D01*
X024898Y020005D01*
X024954Y020023D01*
X025008Y020044D01*
X025061Y020070D01*
X025112Y020098D01*
X025161Y020131D01*
X025208Y020166D01*
X025252Y020204D01*
X025294Y020246D01*
X025332Y020290D01*
X025368Y020337D01*
X025400Y020385D01*
X025429Y020436D01*
X025455Y020489D01*
X025477Y020544D01*
X025495Y020599D01*
X025509Y020656D01*
X025520Y020714D01*
X025526Y020772D01*
X025529Y020831D01*
X025528Y020890D01*
X025522Y020948D01*
X025513Y021006D01*
X025500Y021063D01*
X025483Y021119D01*
X025462Y021174D01*
X025438Y021227D01*
X025410Y021279D01*
X025378Y021329D01*
X025344Y021376D01*
X025306Y021421D01*
X025265Y021463D01*
X025222Y021502D01*
X025176Y021539D01*
X025127Y021572D01*
X025077Y021602D01*
X025025Y021628D01*
X024970Y021651D01*
X024967Y021643D01*
X025021Y021620D01*
X025073Y021594D01*
X025123Y021564D01*
X025171Y021532D01*
X025216Y021496D01*
X025259Y021457D01*
X025299Y021415D01*
X025337Y021370D01*
X025371Y021324D01*
X025402Y021274D01*
X025430Y021223D01*
X025454Y021171D01*
X025474Y021116D01*
X025491Y021061D01*
X025504Y021004D01*
X025513Y020947D01*
X025519Y020889D01*
X025520Y020831D01*
X025517Y020773D01*
X025511Y020715D01*
X025501Y020658D01*
X025486Y020602D01*
X025468Y020547D01*
X025447Y020493D01*
X025422Y020441D01*
X025393Y020390D01*
X025361Y020342D01*
X025326Y020296D01*
X025287Y020252D01*
X025246Y020211D01*
X025202Y020173D01*
X025156Y020138D01*
X025107Y020106D01*
X025057Y020078D01*
X025004Y020053D01*
X024951Y020031D01*
X024895Y020014D01*
X024839Y020000D01*
X024782Y019990D01*
X024724Y019983D01*
X024666Y019981D01*
X024666Y019990D01*
X024723Y019992D01*
X024780Y019998D01*
X024837Y020008D01*
X024893Y020022D01*
X024948Y020040D01*
X025001Y020061D01*
X025053Y020086D01*
X025103Y020114D01*
X025151Y020145D01*
X025197Y020180D01*
X025240Y020218D01*
X025281Y020258D01*
X025319Y020301D01*
X025353Y020347D01*
X025385Y020395D01*
X025414Y020445D01*
X025439Y020497D01*
X025460Y020550D01*
X025478Y020604D01*
X025492Y020660D01*
X025502Y020717D01*
X025508Y020774D01*
X025511Y020831D01*
X025510Y020889D01*
X025504Y020946D01*
X025495Y021002D01*
X025482Y021058D01*
X025466Y021113D01*
X025446Y021167D01*
X025422Y021219D01*
X025394Y021270D01*
X025364Y021318D01*
X025330Y021365D01*
X025293Y021409D01*
X025253Y021450D01*
X025210Y021489D01*
X025165Y021524D01*
X025118Y021557D01*
X025068Y021586D01*
X025017Y021612D01*
X024964Y021634D01*
X024961Y021626D01*
X025013Y021604D01*
X025064Y021578D01*
X025113Y021549D01*
X025160Y021517D01*
X025204Y021482D01*
X025247Y021444D01*
X025286Y021403D01*
X025323Y021359D01*
X025356Y021313D01*
X025387Y021265D01*
X025414Y021215D01*
X025437Y021164D01*
X025457Y021111D01*
X025474Y021056D01*
X025486Y021001D01*
X025495Y020945D01*
X025501Y020888D01*
X025502Y020831D01*
X025499Y020774D01*
X025493Y020718D01*
X025483Y020662D01*
X025469Y020607D01*
X025451Y020553D01*
X025430Y020500D01*
X025406Y020449D01*
X025377Y020400D01*
X025346Y020352D01*
X025312Y020307D01*
X025274Y020264D01*
X025234Y020224D01*
X025191Y020187D01*
X025146Y020153D01*
X025098Y020122D01*
X025049Y020094D01*
X024997Y020069D01*
X024945Y020048D01*
X024890Y020031D01*
X024835Y020017D01*
X024779Y020007D01*
X024723Y020001D01*
X024666Y019999D01*
X024666Y020008D01*
X024724Y020010D01*
X024781Y020017D01*
X024838Y020027D01*
X024893Y020041D01*
X024948Y020059D01*
X025001Y020081D01*
X025053Y020106D01*
X025103Y020135D01*
X025151Y020167D01*
X025196Y020203D01*
X025239Y020242D01*
X025279Y020283D01*
X025316Y020327D01*
X025350Y020374D01*
X025381Y020422D01*
X025408Y020473D01*
X025431Y020526D01*
X025451Y020580D01*
X025467Y020635D01*
X025480Y020692D01*
X025488Y020749D01*
X025492Y020806D01*
X025493Y020864D01*
X025489Y020921D01*
X025481Y020978D01*
X025470Y021035D01*
X025454Y021090D01*
X025435Y021145D01*
X025412Y021197D01*
X025386Y021249D01*
X025356Y021298D01*
X025322Y021345D01*
X025286Y021389D01*
X025246Y021431D01*
X025204Y021470D01*
X025159Y021506D01*
X025112Y021539D01*
X025062Y021569D01*
X025011Y021595D01*
X024958Y021617D01*
X024955Y021609D01*
X025007Y021587D01*
X025058Y021561D01*
X025107Y021532D01*
X025154Y021499D01*
X025198Y021463D01*
X025240Y021425D01*
X025279Y021383D01*
X025315Y021339D01*
X025348Y021293D01*
X025378Y021244D01*
X025404Y021194D01*
X025427Y021141D01*
X025446Y021088D01*
X025461Y021033D01*
X025473Y020977D01*
X025480Y020920D01*
X025484Y020863D01*
X025483Y020806D01*
X025479Y020750D01*
X025471Y020693D01*
X025459Y020637D01*
X025443Y020583D01*
X025423Y020529D01*
X025400Y020477D01*
X025373Y020427D01*
X025343Y020379D01*
X025309Y020333D01*
X025272Y020289D01*
X025233Y020248D01*
X025190Y020210D01*
X025146Y020175D01*
X025098Y020143D01*
X025049Y020114D01*
X024998Y020089D01*
X024945Y020068D01*
X024891Y020050D01*
X024836Y020036D01*
X024780Y020026D01*
X024723Y020019D01*
X024666Y020017D01*
X024666Y020026D01*
X024722Y020028D01*
X024778Y020035D01*
X024834Y020045D01*
X024888Y020058D01*
X024942Y020076D01*
X024994Y020097D01*
X025045Y020122D01*
X025094Y020150D01*
X025140Y020182D01*
X025185Y020217D01*
X025227Y020255D01*
X025266Y020295D01*
X025302Y020338D01*
X025335Y020384D01*
X025365Y020432D01*
X025392Y020481D01*
X025415Y020533D01*
X025434Y020586D01*
X025450Y020640D01*
X025462Y020695D01*
X025470Y020751D01*
X025474Y020807D01*
X025475Y020863D01*
X025471Y020919D01*
X025464Y020975D01*
X025452Y021030D01*
X025437Y021085D01*
X025419Y021138D01*
X025396Y021190D01*
X025370Y021240D01*
X025341Y021288D01*
X025308Y021334D01*
X025272Y021377D01*
X025234Y021418D01*
X025192Y021457D01*
X025148Y021492D01*
X025102Y021524D01*
X025054Y021553D01*
X025003Y021578D01*
X024952Y021600D01*
D19*
X026661Y016425D03*
X026661Y013175D03*
X026661Y009925D03*
D20*
X029936Y004590D03*
X004936Y004528D03*
D21*
X008161Y002240D03*
X009161Y002240D03*
X010161Y002240D03*
X011161Y002240D03*
X012161Y002240D03*
X013161Y002240D03*
X014161Y002240D03*
X015161Y002240D03*
X016161Y002240D03*
X017161Y002240D03*
X018161Y002240D03*
X019161Y002240D03*
X020161Y002240D03*
X021161Y002240D03*
X022161Y002240D03*
X023161Y002240D03*
X024161Y002240D03*
X025161Y002240D03*
X026161Y002240D03*
X027161Y002240D03*
D22*
X027161Y002090D02*
X027161Y000240D01*
X026161Y000240D02*
X026161Y002090D01*
X025161Y002090D02*
X025161Y000240D01*
X024161Y000240D02*
X024161Y002090D01*
X023161Y002090D02*
X023161Y000240D01*
X022161Y000240D02*
X022161Y002090D01*
X021161Y002090D02*
X021161Y000240D01*
X020161Y000240D02*
X020161Y002090D01*
X019161Y002090D02*
X019161Y000240D01*
X018161Y000240D02*
X018161Y002090D01*
X017161Y002090D02*
X017161Y000240D01*
X016161Y000240D02*
X016161Y002090D01*
X015161Y002090D02*
X015161Y000240D01*
X014161Y000240D02*
X014161Y002090D01*
X013161Y002090D02*
X013161Y000240D01*
X012161Y000240D02*
X012161Y002090D01*
X011161Y002090D02*
X011161Y000240D01*
X010161Y000240D02*
X010161Y002090D01*
X009161Y002090D02*
X009161Y000240D01*
X008161Y000240D02*
X008161Y002090D01*
D23*
X008161Y003620D03*
X009161Y003620D03*
X010161Y003620D03*
X011161Y003620D03*
X012161Y003620D03*
X013161Y003620D03*
X014161Y003620D03*
X015161Y003620D03*
X016161Y003620D03*
X017161Y003620D03*
X018161Y003620D03*
X019161Y003620D03*
X020161Y003620D03*
X021161Y003620D03*
X022161Y003620D03*
X023161Y003620D03*
X024161Y003620D03*
X025161Y003620D03*
X026161Y003620D03*
X027161Y003620D03*
D24*
X009056Y019187D03*
X008515Y019187D03*
X007494Y019187D03*
X006953Y019187D03*
D25*
X007223Y019034D03*
X008786Y019034D03*
D26*
X005121Y018320D03*
X005121Y012820D03*
X005121Y006820D03*
X030201Y010360D03*
X030201Y015860D03*
X030201Y021860D03*
D27*
X031511Y020090D03*
X031511Y014090D03*
X031511Y008590D03*
X003811Y008590D03*
X003811Y014590D03*
X003811Y020090D03*
D28*
X004061Y018365D03*
X004061Y016315D03*
X004061Y012865D03*
X004061Y010315D03*
X004061Y006865D03*
X004061Y021815D03*
X031261Y021815D03*
X031261Y018365D03*
X031261Y015815D03*
X031261Y012365D03*
X031261Y010315D03*
X031261Y006865D03*
D29*
X031261Y008090D03*
X031261Y009090D03*
X031261Y013590D03*
X031261Y014590D03*
X031261Y019590D03*
X031261Y020590D03*
X004061Y020590D03*
X004061Y019590D03*
X004061Y015090D03*
X004061Y014090D03*
X004061Y009090D03*
X004061Y008090D03*
M02*
