%
M48
M72
T01C0.0236
T02C0.0320
T03C0.0400
%
T01
X8161Y5590
X9161Y6090
X10161Y6590
X10411Y8090
X11098Y8465
X12161Y8465
X13161Y8653
X14161Y8590
X14973Y8653
X15848Y9590
X16098Y10090
X16848Y10028
X17911Y8090
X21473Y5028
X24161Y5028
X25911Y5590
X24161Y7090
X23161Y7590
X27411Y8840
X28661Y8840
X29661Y11340
X27411Y12090
X29661Y14590
X27411Y15340
X32161Y17590
X16911Y16090
X16161Y16090
X15473Y15965
X14536Y15840
X14536Y14965
X14723Y14215
X11786Y13403
X11098Y12090
X11098Y10778
X11786Y10778
X10098Y9278
X8598Y10653
X7661Y10090
X9348Y11903
X10036Y15090
X10848Y15590
X9286Y15965
X8786Y16590
X8286Y17278
X9411Y17715
X10848Y18653
X11161Y19340
X12536Y19903
X12911Y20528
X13973Y18965
X14973Y18590
X6161Y16340
T02
X7723Y14278
X7723Y12278
X15661Y19840
X17661Y19840
X19661Y19840
X21661Y19840
X23661Y19840
X25661Y19840
X24661Y21840
X20661Y21840
X16661Y21840
T03
X4161Y4528
X6161Y4528
X8161Y4090
X9161Y4090
X10161Y4090
X11161Y4090
X12161Y4090
X13161Y4090
X14161Y4090
X15161Y4090
X16161Y4090
X17161Y4090
X18161Y4090
X19161Y4090
X20161Y4090
X21161Y4090
X22161Y4090
X23161Y4090
X24161Y4090
X25161Y4090
X26161Y4090
X27161Y4090
X29161Y4590
X31161Y4590
X30661Y7590
X30661Y8590
X30661Y9590
X30661Y13090
X30661Y14090
X30661Y15090
X30661Y19090
X30661Y20090
X30661Y21090
X10161Y21590
X9161Y21590
X8161Y21590
X7161Y21590
X4661Y21090
X4661Y20090
X4661Y19090
X4661Y15590
X4661Y14590
X4661Y13590
X4661Y9590
X4661Y8590
X4661Y7590
M30
