%
M48
M72
T01C0.0236
T02C0.0320
T03C0.0400
T04C0.0440
T05C0.1300
%
T01
X13416Y5590
X15166Y5028
X17854Y5028
X15166Y7090
X16166Y7590
X11916Y8840
X10666Y8840
X9666Y11340
X11916Y12090
X9666Y14590
X11916Y15340
X7166Y17590
X22416Y16090
X23166Y16090
X23854Y15965
X24791Y15840
X24791Y14965
X24604Y14215
X27541Y13403
X28229Y12090
X29979Y11903
X28229Y10778
X27541Y10778
X29229Y9278
X28229Y8465
X28916Y8090
X27166Y8465
X26166Y8653
X25166Y8590
X24354Y8653
X23479Y9590
X23229Y10090
X22479Y10028
X21416Y8090
X29166Y6590
X30166Y6090
X31166Y5590
X31666Y10090
X30729Y10653
X29291Y15090
X28479Y15590
X30041Y15965
X30541Y16590
X31041Y17278
X29916Y17715
X28479Y18653
X28166Y19340
X26791Y19903
X26416Y20528
X25354Y18965
X24354Y18590
X33166Y16340
T02
X31604Y14278
X31604Y12278
X23666Y19840
X21666Y19840
X19666Y19840
X17666Y19840
X15666Y19840
X13666Y19840
X14666Y21840
X18666Y21840
X22666Y21840
T03
X8166Y4590
X10166Y4590
X12166Y4090
X13166Y4090
X14166Y4090
X15166Y4090
X16166Y4090
X17166Y4090
X18166Y4090
X19166Y4090
X20166Y4090
X21166Y4090
X22166Y4090
X23166Y4090
X24166Y4090
X25166Y4090
X26166Y4090
X27166Y4090
X28166Y4090
X29166Y4090
X30166Y4090
X31166Y4090
X33166Y4528
X35166Y4528
X32166Y21590
X31166Y21590
X30166Y21590
X29166Y21590
T04
X34666Y21090
X34666Y20090
X34666Y19090
X34666Y15090
X34666Y14090
X34666Y13090
X34666Y9090
X34666Y8090
X34666Y7090
X8666Y7090
X8666Y8090
X8666Y9090
X8666Y13090
X8666Y14090
X8666Y15090
X8666Y19090
X8666Y20090
X8666Y21090
T05
X1766Y20090
X1766Y14090
X1766Y8090
X41566Y8090
X41566Y14090
X41566Y20090
M30
