G75*
G70*
%OFA0B0*%
%FSLAX24Y24*%
%IPPOS*%
%LPD*%
%AMOC8*
5,1,8,0,0,1.08239X$1,22.5*
%
%ADD10R,0.0671X0.0277*%
%ADD11R,0.0277X0.0671*%
%ADD12C,0.0600*%
%ADD13R,0.0946X0.0316*%
%ADD14R,0.0790X0.0710*%
%ADD15R,0.0710X0.0790*%
%ADD16R,0.0710X0.0789*%
%ADD17O,0.0600X0.1120*%
%ADD18R,0.0749X0.0789*%
%ADD19C,0.1080*%
%ADD20OC8,0.1080*%
%ADD21R,0.0789X0.0710*%
%ADD22O,0.0680X0.1280*%
%ADD23R,0.0671X0.0671*%
%ADD24O,0.1280X0.0680*%
%ADD25C,0.0476*%
%ADD26R,0.0476X0.0476*%
D10*
X010127Y010515D03*
X010127Y010830D03*
X010127Y011145D03*
X010127Y011460D03*
X010127Y011775D03*
X010127Y012090D03*
X010127Y012405D03*
X010127Y012720D03*
X010127Y013035D03*
X010127Y013350D03*
X010127Y013665D03*
X014694Y013665D03*
X014694Y013350D03*
X014694Y013035D03*
X014694Y012720D03*
X014694Y012405D03*
X014694Y012090D03*
X014694Y011775D03*
X014694Y011460D03*
X014694Y011145D03*
X014694Y010830D03*
X014694Y010515D03*
D11*
X013986Y009807D03*
X013671Y009807D03*
X013356Y009807D03*
X013041Y009807D03*
X012726Y009807D03*
X012411Y009807D03*
X012096Y009807D03*
X011781Y009807D03*
X011466Y009807D03*
X011151Y009807D03*
X010836Y009807D03*
X010836Y014374D03*
X011151Y014374D03*
X011466Y014374D03*
X011781Y014374D03*
X012096Y014374D03*
X012411Y014374D03*
X012726Y014374D03*
X013041Y014374D03*
X013356Y014374D03*
X013671Y014374D03*
X013986Y014374D03*
D12*
X007723Y014278D03*
X007723Y012278D03*
D13*
X017995Y012340D03*
X017995Y011840D03*
X017995Y011340D03*
X017995Y010840D03*
X017995Y010340D03*
X017995Y009840D03*
X017995Y009340D03*
X017995Y008840D03*
X022326Y008840D03*
X022326Y009340D03*
X022326Y009840D03*
X022326Y010340D03*
X022326Y010840D03*
X022326Y011340D03*
X022326Y011840D03*
X022326Y012340D03*
X022326Y012840D03*
X022326Y013340D03*
X022326Y013840D03*
X022326Y014340D03*
X022326Y014840D03*
X022326Y015340D03*
X017995Y015340D03*
X017995Y014840D03*
X017995Y014340D03*
X017995Y013840D03*
X017995Y013340D03*
X017995Y012840D03*
D14*
X028661Y014030D03*
X028661Y015150D03*
X028661Y017030D03*
X028661Y018150D03*
D15*
X020658Y016715D03*
X019539Y016715D03*
X013221Y021590D03*
X012101Y021590D03*
X005721Y017590D03*
X004601Y017590D03*
X004601Y011590D03*
X005721Y011590D03*
X007101Y007090D03*
X008221Y007090D03*
X029601Y010340D03*
X030721Y010340D03*
D16*
X009337Y009153D03*
X008235Y009153D03*
D17*
X015661Y019840D03*
X017661Y019840D03*
X019661Y019840D03*
X021661Y019840D03*
X023661Y019840D03*
X025661Y019840D03*
X024661Y021840D03*
X020661Y021840D03*
X016661Y021840D03*
D18*
X026661Y016897D03*
X026661Y015283D03*
X026661Y013647D03*
X026661Y012033D03*
X026661Y010397D03*
X026661Y008783D03*
D19*
X031161Y004590D03*
X006161Y004528D03*
D20*
X004161Y004528D03*
X029161Y004590D03*
D21*
X025161Y009039D03*
X025161Y010141D03*
X025161Y012289D03*
X025161Y013391D03*
X025161Y015539D03*
X025161Y016641D03*
X016161Y012079D03*
X016161Y010977D03*
D22*
X016161Y004090D03*
X017161Y004090D03*
X018161Y004090D03*
X019161Y004090D03*
X020161Y004090D03*
X021161Y004090D03*
X022161Y004090D03*
X023161Y004090D03*
X024161Y004090D03*
X025161Y004090D03*
X026161Y004090D03*
X027161Y004090D03*
X015161Y004090D03*
X014161Y004090D03*
X013161Y004090D03*
X012161Y004090D03*
X011161Y004090D03*
X010161Y004090D03*
X009161Y004090D03*
X008161Y004090D03*
X008161Y021590D03*
X009161Y021590D03*
X010161Y021590D03*
X007161Y021590D03*
D23*
X007223Y019654D03*
X008786Y019654D03*
X008786Y018276D03*
X007223Y018276D03*
D24*
X004661Y019090D03*
X004661Y020090D03*
X004661Y021090D03*
X004661Y015590D03*
X004661Y014590D03*
X004661Y013590D03*
X004661Y009590D03*
X004661Y008590D03*
X004661Y007590D03*
X030661Y007590D03*
X030661Y008590D03*
X030661Y009590D03*
X030661Y013090D03*
X030661Y014090D03*
X030661Y015090D03*
X030661Y019090D03*
X030661Y020090D03*
X030661Y021090D03*
D25*
X032161Y017590D03*
X029661Y014590D03*
X027411Y015340D03*
X027411Y012090D03*
X029661Y011340D03*
X028661Y008840D03*
X027411Y008840D03*
X024161Y007090D03*
X023161Y007590D03*
X025911Y005590D03*
X024161Y005028D03*
X021473Y005028D03*
X017911Y008090D03*
X015848Y009590D03*
X016098Y010090D03*
X016848Y010028D03*
X014973Y008653D03*
X014161Y008590D03*
X013161Y008653D03*
X012161Y008465D03*
X011098Y008465D03*
X010411Y008090D03*
X010098Y009278D03*
X008598Y010653D03*
X007661Y010090D03*
X011098Y010778D03*
X011786Y010778D03*
X011098Y012090D03*
X011786Y013403D03*
X010036Y015090D03*
X010848Y015590D03*
X009286Y015965D03*
X008786Y016590D03*
X008286Y017278D03*
X009411Y017715D03*
X010848Y018653D03*
X011161Y019340D03*
X012536Y019903D03*
X012911Y020528D03*
X013973Y018965D03*
X014973Y018590D03*
X016161Y016090D03*
X015473Y015965D03*
X014536Y015840D03*
X014536Y014965D03*
X014723Y014215D03*
X016911Y016090D03*
X006161Y016340D03*
X010161Y006590D03*
X009161Y006090D03*
X008161Y005590D03*
D26*
X009348Y011903D03*
M02*
