G75*
G70*
%OFA0B0*%
%FSLAX24Y24*%
%IPPOS*%
%LPD*%
%AMOC8*
5,1,8,0,0,1.08239X$1,22.5*
%
%ADD10R,0.0591X0.0197*%
%ADD11R,0.0197X0.0591*%
%ADD12C,0.0520*%
%ADD13O,0.1320X0.0660*%
%ADD14R,0.0866X0.0236*%
%ADD15R,0.0710X0.0630*%
%ADD16R,0.0630X0.0710*%
%ADD17R,0.0630X0.0709*%
%ADD18O,0.0520X0.1040*%
%ADD19R,0.0669X0.0709*%
%ADD20C,0.1000*%
%ADD21OC8,0.1000*%
%ADD22R,0.0709X0.0630*%
%ADD23O,0.0600X0.1200*%
%ADD24R,0.0591X0.0591*%
%ADD25C,0.0240*%
%ADD26C,0.0396*%
%ADD27C,0.0100*%
%ADD28R,0.0396X0.0396*%
D10*
X024633Y010515D03*
X024633Y010830D03*
X024633Y011145D03*
X024633Y011460D03*
X024633Y011775D03*
X024633Y012090D03*
X024633Y012405D03*
X024633Y012720D03*
X024633Y013035D03*
X024633Y013350D03*
X024633Y013665D03*
X029200Y013665D03*
X029200Y013350D03*
X029200Y013035D03*
X029200Y012720D03*
X029200Y012405D03*
X029200Y012090D03*
X029200Y011775D03*
X029200Y011460D03*
X029200Y011145D03*
X029200Y010830D03*
X029200Y010515D03*
D11*
X028491Y009807D03*
X028176Y009807D03*
X027861Y009807D03*
X027546Y009807D03*
X027231Y009807D03*
X026916Y009807D03*
X026601Y009807D03*
X026286Y009807D03*
X025972Y009807D03*
X025657Y009807D03*
X025342Y009807D03*
X025342Y014374D03*
X025657Y014374D03*
X025972Y014374D03*
X026286Y014374D03*
X026601Y014374D03*
X026916Y014374D03*
X027231Y014374D03*
X027546Y014374D03*
X027861Y014374D03*
X028176Y014374D03*
X028491Y014374D03*
D12*
X031604Y014278D03*
X031604Y012278D03*
D13*
X034666Y013090D03*
X034666Y014090D03*
X034666Y015090D03*
X034666Y019090D03*
X034666Y020090D03*
X034666Y021090D03*
X034666Y009090D03*
X034666Y008090D03*
X034666Y007090D03*
X008666Y007090D03*
X008666Y008090D03*
X008666Y009090D03*
X008666Y013090D03*
X008666Y014090D03*
X008666Y015090D03*
X008666Y019090D03*
X008666Y020090D03*
X008666Y021090D03*
D14*
X017001Y015340D03*
X017001Y014840D03*
X017001Y014340D03*
X017001Y013840D03*
X017001Y013340D03*
X017001Y012840D03*
X017001Y012340D03*
X017001Y011840D03*
X017001Y011340D03*
X017001Y010840D03*
X017001Y010340D03*
X017001Y009840D03*
X017001Y009340D03*
X017001Y008840D03*
X021332Y008840D03*
X021332Y009340D03*
X021332Y009840D03*
X021332Y010340D03*
X021332Y010840D03*
X021332Y011340D03*
X021332Y011840D03*
X021332Y012340D03*
X021332Y012840D03*
X021332Y013340D03*
X021332Y013840D03*
X021332Y014340D03*
X021332Y014840D03*
X021332Y015340D03*
D15*
X010666Y015150D03*
X010666Y014030D03*
X010666Y017030D03*
X010666Y018150D03*
D16*
X018669Y016715D03*
X019789Y016715D03*
X026107Y021590D03*
X027226Y021590D03*
X033607Y017590D03*
X034726Y017590D03*
X034726Y011590D03*
X033607Y011590D03*
X032226Y007090D03*
X031107Y007090D03*
X009726Y010340D03*
X008607Y010340D03*
D17*
X029990Y009153D03*
X031093Y009153D03*
D18*
X023666Y019840D03*
X021666Y019840D03*
X019666Y019840D03*
X017666Y019840D03*
X015666Y019840D03*
X013666Y019840D03*
X014666Y021840D03*
X018666Y021840D03*
X022666Y021840D03*
D19*
X012666Y016897D03*
X012666Y015283D03*
X012666Y013647D03*
X012666Y012033D03*
X012666Y010397D03*
X012666Y008783D03*
D20*
X008166Y004590D03*
X033166Y004528D03*
D21*
X035166Y004528D03*
X010166Y004590D03*
D22*
X014166Y009039D03*
X014166Y010141D03*
X014166Y012289D03*
X014166Y013391D03*
X014166Y015539D03*
X014166Y016641D03*
X023166Y012079D03*
X023166Y010977D03*
D23*
X023166Y004090D03*
X022166Y004090D03*
X021166Y004090D03*
X020166Y004090D03*
X019166Y004090D03*
X018166Y004090D03*
X017166Y004090D03*
X016166Y004090D03*
X015166Y004090D03*
X014166Y004090D03*
X013166Y004090D03*
X012166Y004090D03*
X024166Y004090D03*
X025166Y004090D03*
X026166Y004090D03*
X027166Y004090D03*
X028166Y004090D03*
X029166Y004090D03*
X030166Y004090D03*
X031166Y004090D03*
X031166Y021590D03*
X030166Y021590D03*
X029166Y021590D03*
X032166Y021590D03*
D24*
X032104Y019654D03*
X030541Y019654D03*
X030541Y018276D03*
X032104Y018276D03*
D25*
X021332Y015340D02*
X020791Y015340D01*
X020791Y016715D01*
X020791Y017590D01*
X007166Y017590D01*
X020104Y010590D02*
X020104Y009840D01*
X020104Y009340D01*
X020104Y005965D01*
X019166Y005028D01*
X017854Y005028D01*
X019166Y004090D02*
X019166Y003590D01*
X018666Y003090D01*
X009666Y003090D01*
X008166Y004590D01*
X015166Y005028D02*
X015166Y004090D01*
X020104Y010590D02*
X020729Y011340D01*
X021332Y011340D01*
X029166Y006590D02*
X029166Y004090D01*
X030166Y004090D02*
X030166Y006090D01*
X031166Y005590D02*
X031166Y004090D01*
D26*
X031166Y005590D03*
X030166Y006090D03*
X029166Y006590D03*
X028916Y008090D03*
X028229Y008465D03*
X027166Y008465D03*
X026166Y008653D03*
X025166Y008590D03*
X024354Y008653D03*
X023479Y009590D03*
X023229Y010090D03*
X022479Y010028D03*
X021416Y008090D03*
X016166Y007590D03*
X015166Y007090D03*
X013416Y005590D03*
X015166Y005028D03*
X017854Y005028D03*
X011916Y008840D03*
X010666Y008840D03*
X009666Y011340D03*
X011916Y012090D03*
X009666Y014590D03*
X011916Y015340D03*
X007166Y017590D03*
X022416Y016090D03*
X023166Y016090D03*
X023854Y015965D03*
X024791Y015840D03*
X024791Y014965D03*
X024604Y014215D03*
X027541Y013403D03*
X028229Y012090D03*
X028229Y010778D03*
X027541Y010778D03*
X029229Y009278D03*
X030729Y010653D03*
X031666Y010090D03*
X029291Y015090D03*
X028479Y015590D03*
X030041Y015965D03*
X030541Y016590D03*
X031041Y017278D03*
X029916Y017715D03*
X028479Y018653D03*
X028166Y019340D03*
X026791Y019903D03*
X026416Y020528D03*
X025354Y018965D03*
X024354Y018590D03*
X033166Y016340D03*
D27*
X033166Y017590D01*
X033607Y017590D01*
X033666Y017590D01*
X034726Y017590D02*
X034726Y019030D01*
X034666Y019090D01*
X033540Y021090D02*
X032104Y019654D01*
X032105Y019653D01*
X030543Y019653D01*
X030541Y019654D01*
X029916Y019340D02*
X030354Y018903D01*
X031666Y018903D01*
X032104Y018465D01*
X032104Y018276D01*
X031041Y017278D02*
X031041Y016340D01*
X030854Y016153D01*
X030854Y013778D01*
X029796Y012720D01*
X029200Y012720D01*
X029200Y013035D02*
X029736Y013035D01*
X030479Y013778D01*
X030479Y016528D01*
X030541Y016590D01*
X030041Y015965D02*
X030041Y013778D01*
X029614Y013350D01*
X029200Y013350D01*
X029200Y013665D02*
X029279Y013665D01*
X029291Y013653D01*
X028416Y013653D01*
X027916Y012903D01*
X026791Y012903D01*
X026104Y013590D01*
X025479Y013590D01*
X024854Y014215D01*
X024604Y014215D01*
X024633Y013665D02*
X024645Y013653D01*
X022354Y013653D01*
X022166Y013840D01*
X021332Y013840D01*
X021332Y014340D02*
X022291Y014340D01*
X022916Y014965D01*
X024791Y014965D01*
X025916Y015340D02*
X025916Y014340D01*
X025938Y014340D01*
X025972Y014374D01*
X026286Y014374D02*
X026291Y014379D01*
X026291Y015590D01*
X026041Y015840D01*
X024791Y015840D01*
X023854Y015965D02*
X023854Y017465D01*
X025354Y018965D01*
X024354Y018590D02*
X023166Y017403D01*
X023166Y016090D01*
X022416Y016090D02*
X022416Y017403D01*
X021666Y018153D01*
X021666Y019090D01*
X017666Y019090D01*
X014166Y019090D01*
X013666Y019590D01*
X013666Y019840D01*
X015666Y019840D02*
X015666Y020090D01*
X016166Y020590D01*
X019666Y020590D01*
X019666Y019840D01*
X019666Y020590D02*
X023166Y020590D01*
X023666Y020090D01*
X023666Y019840D01*
X023604Y019840D01*
X023729Y019965D01*
X023729Y021590D01*
X026107Y021590D01*
X027226Y021590D02*
X027226Y020718D01*
X027229Y020715D01*
X031916Y020715D01*
X032166Y020965D01*
X032166Y021590D01*
X032166Y021653D01*
X033540Y021090D02*
X034666Y021090D01*
X032166Y019653D02*
X032105Y019653D01*
X030541Y018276D02*
X030541Y018215D01*
X030104Y018653D01*
X028479Y018653D01*
X028166Y019340D02*
X029916Y019340D01*
X029916Y017715D02*
X029229Y016840D01*
X029229Y015778D01*
X029229Y015153D01*
X029291Y015090D01*
X028479Y015590D02*
X028479Y014278D01*
X028491Y014265D01*
X028491Y014374D01*
X028491Y014265D02*
X028541Y014215D01*
X027604Y014403D02*
X027575Y014374D01*
X027541Y014340D01*
X027541Y013403D01*
X027575Y014374D02*
X027546Y014374D01*
X027231Y014374D02*
X027231Y021530D01*
X027291Y021590D01*
X027226Y021590D01*
X026416Y020528D02*
X026414Y019713D01*
X026479Y019650D01*
X026604Y019528D01*
X026601Y014374D01*
X026916Y014374D02*
X026916Y019528D01*
X026791Y019903D01*
X021666Y019840D02*
X021666Y019090D01*
X020791Y016715D02*
X019789Y016715D01*
X020791Y016715D02*
X020791Y016715D01*
X018669Y016715D02*
X018666Y016713D01*
X018666Y011840D01*
X021332Y011840D01*
X021354Y011840D01*
X021332Y011340D02*
X022229Y011340D01*
X022604Y010965D01*
X023041Y010965D01*
X022479Y010403D01*
X022479Y010028D01*
X023229Y010090D02*
X023229Y010278D01*
X023979Y010278D01*
X023979Y011145D01*
X024633Y011145D01*
X024633Y010830D02*
X024166Y010830D01*
X024166Y010028D01*
X023916Y010028D01*
X023479Y009590D01*
X024229Y009715D02*
X024479Y009715D01*
X025541Y010778D01*
X027541Y010778D01*
X028229Y010778D02*
X028979Y010028D01*
X030541Y010028D01*
X031093Y009477D01*
X031093Y009204D01*
X031093Y009153D01*
X031093Y009204D02*
X031104Y009215D01*
X031604Y008715D01*
X031604Y004590D01*
X033166Y004528D01*
X032226Y007090D02*
X034666Y007090D01*
X032226Y007090D02*
X032166Y007090D01*
X031107Y007090D02*
X029916Y007090D01*
X028916Y008090D01*
X028229Y008465D02*
X028166Y008590D01*
X028166Y009797D01*
X028176Y009807D01*
X027861Y009807D02*
X027854Y009799D01*
X027854Y007903D01*
X028166Y007590D01*
X028166Y004090D01*
X027166Y004090D02*
X027166Y008465D01*
X026166Y008653D02*
X026166Y004090D01*
X025166Y004090D02*
X025166Y008590D01*
X024354Y008653D02*
X024166Y008465D01*
X024166Y004090D01*
X023166Y004090D02*
X023166Y007528D01*
X023166Y008278D01*
X024041Y009153D01*
X026916Y009153D01*
X026916Y009807D01*
X029229Y009278D02*
X029354Y009153D01*
X029990Y009153D01*
X031666Y010090D02*
X033166Y010090D01*
X033666Y010590D01*
X033666Y011590D01*
X033607Y011590D01*
X034726Y011590D02*
X034726Y013030D01*
X034666Y013090D01*
X031604Y012278D02*
X031541Y012278D01*
X030409Y011145D01*
X029200Y011145D01*
X029166Y010840D02*
X030166Y010840D01*
X030354Y010653D01*
X030729Y010653D01*
X029200Y010830D02*
X029176Y010830D01*
X029166Y010840D01*
X029200Y011460D02*
X030286Y011460D01*
X031104Y012278D01*
X031104Y013778D01*
X031604Y014278D01*
X031604Y014278D01*
X029916Y012028D02*
X029666Y011778D01*
X029229Y011778D01*
X029200Y011749D01*
X029200Y011775D01*
X029200Y011811D01*
X029166Y011778D01*
X028666Y011778D01*
X028541Y011653D01*
X025916Y011653D01*
X025479Y012090D01*
X024633Y012090D01*
X023979Y012090D01*
X023729Y011903D01*
X023729Y010965D01*
X023178Y010965D01*
X023166Y010977D01*
X023053Y010977D01*
X023041Y010965D01*
X023155Y010965D01*
X023166Y010977D01*
X023166Y012079D02*
X023166Y012465D01*
X024573Y012465D01*
X024633Y012405D01*
X024726Y012405D01*
X024729Y012403D01*
X025541Y012403D01*
X026041Y012090D01*
X028229Y012090D01*
X028604Y012090D01*
X029229Y012090D01*
X029200Y012090D01*
X029229Y012090D02*
X029291Y012090D01*
X029229Y011840D02*
X029200Y011811D01*
X029200Y011749D02*
X029166Y011715D01*
X029916Y012028D02*
X029979Y011903D01*
X024633Y012720D02*
X024628Y012715D01*
X022479Y012715D01*
X022104Y012340D01*
X021332Y012340D01*
X021332Y012840D02*
X022104Y012840D01*
X022354Y013028D01*
X024578Y013028D01*
X024633Y013035D01*
X024623Y013340D02*
X021332Y013340D01*
X021291Y014340D02*
X021332Y014340D01*
X021332Y014840D02*
X022166Y014840D01*
X022666Y015340D01*
X025916Y015340D01*
X024666Y013653D02*
X024645Y013653D01*
X024633Y013350D02*
X024623Y013340D01*
X024229Y009715D02*
X022166Y007653D01*
X022166Y004090D01*
X023166Y007528D02*
X023166Y007590D01*
X021416Y008090D02*
X021416Y008840D01*
X021332Y008840D01*
X021332Y009340D02*
X020104Y009340D01*
X020104Y009340D01*
X020104Y009840D02*
X021332Y009840D01*
X017001Y009340D02*
X015916Y009340D01*
X015166Y008590D01*
X015166Y007090D01*
X015666Y007590D02*
X016166Y007590D01*
X015666Y007590D02*
X015666Y008340D01*
X016166Y008840D01*
X017001Y008840D01*
X016166Y010340D02*
X014916Y009090D01*
X014166Y009090D01*
X014166Y009039D01*
X013865Y009039D01*
X013416Y008590D01*
X013416Y005590D01*
X010416Y008840D02*
X009666Y008090D01*
X008666Y008090D01*
X008666Y009090D02*
X008607Y009150D01*
X008607Y010340D01*
X009726Y010340D02*
X010416Y010340D01*
X011166Y009590D01*
X014666Y009590D01*
X015916Y010840D01*
X017001Y010840D01*
X017001Y010340D02*
X016166Y010340D01*
X015916Y011340D02*
X017001Y011340D01*
X015916Y011340D02*
X014666Y010090D01*
X014166Y010090D01*
X014166Y010141D01*
X012865Y010141D01*
X012666Y010340D01*
X012666Y010397D01*
X013666Y011340D02*
X009666Y011340D01*
X011916Y012090D02*
X012666Y012090D01*
X012666Y012033D01*
X013666Y011340D02*
X014166Y011840D01*
X014166Y012289D01*
X014166Y012340D01*
X017001Y012340D01*
X017001Y012840D02*
X010666Y012840D01*
X010666Y014030D01*
X010666Y014090D01*
X009666Y014590D02*
X013666Y014590D01*
X014166Y015090D01*
X014166Y015539D01*
X014166Y015590D01*
X014916Y015590D01*
X016166Y014340D01*
X017001Y014340D01*
X017001Y014840D02*
X016166Y014840D01*
X014916Y016090D01*
X011416Y016090D01*
X010916Y016590D01*
X010666Y017030D01*
X010666Y018150D02*
X010666Y020340D01*
X009916Y021090D01*
X008666Y021090D01*
X008726Y021150D01*
X012666Y016897D02*
X012666Y016590D01*
X012416Y016590D01*
X012666Y016590D02*
X014166Y016590D01*
X014916Y016590D01*
X016166Y015340D01*
X017001Y015340D01*
X014166Y016590D02*
X014166Y016641D01*
X012666Y015340D02*
X011916Y015340D01*
X012666Y015340D02*
X012666Y015283D01*
X010666Y015150D02*
X008666Y015150D01*
X008666Y015090D01*
X012416Y013340D02*
X014166Y013340D01*
X017001Y013340D01*
X014166Y013340D02*
X014166Y013391D01*
X012666Y013647D02*
X012416Y013340D01*
X011916Y008840D02*
X011974Y008783D01*
X012666Y008783D01*
X010666Y008840D02*
X010416Y008840D01*
X017666Y019090D02*
X017666Y019840D01*
D28*
X029979Y011903D03*
M02*
