G75*
G70*
%OFA0B0*%
%FSLAX24Y24*%
%IPPOS*%
%LPD*%
%AMOC8*
5,1,8,0,0,1.08239X$1,22.5*
%
%ADD10R,0.0671X0.0277*%
%ADD11R,0.0277X0.0671*%
%ADD12C,0.0600*%
%ADD13O,0.1400X0.0740*%
%ADD14C,0.1380*%
%ADD15R,0.0946X0.0316*%
%ADD16R,0.0790X0.0710*%
%ADD17R,0.0710X0.0790*%
%ADD18R,0.0710X0.0789*%
%ADD19O,0.0600X0.1120*%
%ADD20R,0.0749X0.0789*%
%ADD21C,0.1080*%
%ADD22OC8,0.1080*%
%ADD23R,0.0789X0.0710*%
%ADD24O,0.0680X0.1280*%
%ADD25R,0.0671X0.0671*%
%ADD26C,0.0476*%
%ADD27R,0.0476X0.0476*%
D10*
X024633Y010515D03*
X024633Y010830D03*
X024633Y011145D03*
X024633Y011460D03*
X024633Y011775D03*
X024633Y012090D03*
X024633Y012405D03*
X024633Y012720D03*
X024633Y013035D03*
X024633Y013350D03*
X024633Y013665D03*
X029200Y013665D03*
X029200Y013350D03*
X029200Y013035D03*
X029200Y012720D03*
X029200Y012405D03*
X029200Y012090D03*
X029200Y011775D03*
X029200Y011460D03*
X029200Y011145D03*
X029200Y010830D03*
X029200Y010515D03*
D11*
X028491Y009807D03*
X028176Y009807D03*
X027861Y009807D03*
X027546Y009807D03*
X027231Y009807D03*
X026916Y009807D03*
X026601Y009807D03*
X026286Y009807D03*
X025972Y009807D03*
X025657Y009807D03*
X025342Y009807D03*
X025342Y014374D03*
X025657Y014374D03*
X025972Y014374D03*
X026286Y014374D03*
X026601Y014374D03*
X026916Y014374D03*
X027231Y014374D03*
X027546Y014374D03*
X027861Y014374D03*
X028176Y014374D03*
X028491Y014374D03*
D12*
X031604Y014278D03*
X031604Y012278D03*
D13*
X034666Y013090D03*
X034666Y014090D03*
X034666Y015090D03*
X034666Y019090D03*
X034666Y020090D03*
X034666Y021090D03*
X034666Y009090D03*
X034666Y008090D03*
X034666Y007090D03*
X008666Y007090D03*
X008666Y008090D03*
X008666Y009090D03*
X008666Y013090D03*
X008666Y014090D03*
X008666Y015090D03*
X008666Y019090D03*
X008666Y020090D03*
X008666Y021090D03*
D14*
X001766Y020090D03*
X001766Y014090D03*
X001766Y008090D03*
X041566Y008090D03*
X041566Y014090D03*
X041566Y020090D03*
D15*
X021332Y015340D03*
X021332Y014840D03*
X021332Y014340D03*
X021332Y013840D03*
X021332Y013340D03*
X021332Y012840D03*
X021332Y012340D03*
X021332Y011840D03*
X021332Y011340D03*
X021332Y010840D03*
X021332Y010340D03*
X021332Y009840D03*
X021332Y009340D03*
X021332Y008840D03*
X017001Y008840D03*
X017001Y009340D03*
X017001Y009840D03*
X017001Y010340D03*
X017001Y010840D03*
X017001Y011340D03*
X017001Y011840D03*
X017001Y012340D03*
X017001Y012840D03*
X017001Y013340D03*
X017001Y013840D03*
X017001Y014340D03*
X017001Y014840D03*
X017001Y015340D03*
D16*
X010666Y015150D03*
X010666Y014030D03*
X010666Y017030D03*
X010666Y018150D03*
D17*
X018669Y016715D03*
X019789Y016715D03*
X026107Y021590D03*
X027226Y021590D03*
X033607Y017590D03*
X034726Y017590D03*
X034726Y011590D03*
X033607Y011590D03*
X032226Y007090D03*
X031107Y007090D03*
X009726Y010340D03*
X008607Y010340D03*
D18*
X029990Y009153D03*
X031093Y009153D03*
D19*
X023666Y019840D03*
X021666Y019840D03*
X019666Y019840D03*
X017666Y019840D03*
X015666Y019840D03*
X013666Y019840D03*
X014666Y021840D03*
X018666Y021840D03*
X022666Y021840D03*
D20*
X012666Y016897D03*
X012666Y015283D03*
X012666Y013647D03*
X012666Y012033D03*
X012666Y010397D03*
X012666Y008783D03*
D21*
X008166Y004590D03*
X033166Y004528D03*
D22*
X035166Y004528D03*
X010166Y004590D03*
D23*
X014166Y009039D03*
X014166Y010141D03*
X014166Y012289D03*
X014166Y013391D03*
X014166Y015539D03*
X014166Y016641D03*
X023166Y012079D03*
X023166Y010977D03*
D24*
X023166Y004090D03*
X022166Y004090D03*
X021166Y004090D03*
X020166Y004090D03*
X019166Y004090D03*
X018166Y004090D03*
X017166Y004090D03*
X016166Y004090D03*
X015166Y004090D03*
X014166Y004090D03*
X013166Y004090D03*
X012166Y004090D03*
X024166Y004090D03*
X025166Y004090D03*
X026166Y004090D03*
X027166Y004090D03*
X028166Y004090D03*
X029166Y004090D03*
X030166Y004090D03*
X031166Y004090D03*
X031166Y021590D03*
X030166Y021590D03*
X029166Y021590D03*
X032166Y021590D03*
D25*
X032104Y019654D03*
X030541Y019654D03*
X030541Y018276D03*
X032104Y018276D03*
D26*
X031041Y017278D03*
X029916Y017715D03*
X030541Y016590D03*
X030041Y015965D03*
X029291Y015090D03*
X028479Y015590D03*
X024791Y015840D03*
X023854Y015965D03*
X023166Y016090D03*
X022416Y016090D03*
X024791Y014965D03*
X024604Y014215D03*
X027541Y013403D03*
X028229Y012090D03*
X028229Y010778D03*
X027541Y010778D03*
X029229Y009278D03*
X028229Y008465D03*
X028916Y008090D03*
X027166Y008465D03*
X026166Y008653D03*
X025166Y008590D03*
X024354Y008653D03*
X023479Y009590D03*
X023229Y010090D03*
X022479Y010028D03*
X021416Y008090D03*
X016166Y007590D03*
X015166Y007090D03*
X013416Y005590D03*
X015166Y005028D03*
X017854Y005028D03*
X011916Y008840D03*
X010666Y008840D03*
X009666Y011340D03*
X011916Y012090D03*
X009666Y014590D03*
X011916Y015340D03*
X007166Y017590D03*
X024354Y018590D03*
X025354Y018965D03*
X026791Y019903D03*
X026416Y020528D03*
X028166Y019340D03*
X028479Y018653D03*
X033166Y016340D03*
X030729Y010653D03*
X031666Y010090D03*
X029166Y006590D03*
X030166Y006090D03*
X031166Y005590D03*
D27*
X029979Y011903D03*
M02*
