G75*
G70*
%OFA0B0*%
%FSLAX24Y24*%
%IPPOS*%
%LPD*%
%AMOC8*
5,1,8,0,0,1.08239X$1,22.5*
%
%ADD10C,0.0000*%
%ADD11C,0.0040*%
%ADD12C,0.0060*%
%ADD13C,0.0100*%
%ADD14C,0.0080*%
%ADD15C,0.0160*%
%ADD16C,0.0050*%
%ADD17C,0.0120*%
%ADD18C,0.0070*%
%ADD19C,0.0020*%
%ADD20R,0.0250X0.0300*%
%ADD21R,0.1100X0.0500*%
%ADD22C,0.0010*%
%ADD23R,0.0827X0.0118*%
%ADD24R,0.0250X0.0900*%
%ADD25R,0.0260X0.0300*%
%ADD26C,0.0260*%
%ADD27R,0.0260X0.0260*%
%ADD28R,0.0128X0.0167*%
%ADD29R,0.0138X0.0138*%
D10*
X006481Y002342D02*
X006481Y022838D01*
X036851Y022838D01*
X036851Y002342D01*
X006481Y002342D01*
X001116Y008090D02*
X001119Y008149D01*
X001127Y008208D01*
X001140Y008265D01*
X001159Y008322D01*
X001182Y008376D01*
X001211Y008428D01*
X001244Y008477D01*
X001281Y008523D01*
X001322Y008565D01*
X001367Y008603D01*
X001416Y008638D01*
X001467Y008667D01*
X001521Y008692D01*
X001576Y008712D01*
X001634Y008726D01*
X001692Y008736D01*
X001751Y008740D01*
X001810Y008738D01*
X001869Y008732D01*
X001927Y008720D01*
X001984Y008702D01*
X002038Y008680D01*
X002091Y008653D01*
X002141Y008621D01*
X002188Y008585D01*
X002231Y008544D01*
X002270Y008500D01*
X002305Y008453D01*
X002336Y008402D01*
X002362Y008349D01*
X002383Y008294D01*
X002399Y008237D01*
X002410Y008179D01*
X002415Y008120D01*
X002415Y008060D01*
X002410Y008001D01*
X002399Y007943D01*
X002383Y007886D01*
X002362Y007831D01*
X002336Y007778D01*
X002305Y007727D01*
X002270Y007680D01*
X002231Y007636D01*
X002188Y007595D01*
X002141Y007559D01*
X002091Y007527D01*
X002038Y007500D01*
X001984Y007478D01*
X001927Y007460D01*
X001869Y007448D01*
X001810Y007442D01*
X001751Y007440D01*
X001692Y007444D01*
X001634Y007454D01*
X001576Y007468D01*
X001521Y007488D01*
X001467Y007513D01*
X001416Y007542D01*
X001367Y007577D01*
X001322Y007615D01*
X001281Y007657D01*
X001244Y007703D01*
X001211Y007752D01*
X001182Y007804D01*
X001159Y007858D01*
X001140Y007915D01*
X001127Y007972D01*
X001119Y008031D01*
X001116Y008090D01*
X001116Y014090D02*
X001119Y014149D01*
X001127Y014208D01*
X001140Y014265D01*
X001159Y014322D01*
X001182Y014376D01*
X001211Y014428D01*
X001244Y014477D01*
X001281Y014523D01*
X001322Y014565D01*
X001367Y014603D01*
X001416Y014638D01*
X001467Y014667D01*
X001521Y014692D01*
X001576Y014712D01*
X001634Y014726D01*
X001692Y014736D01*
X001751Y014740D01*
X001810Y014738D01*
X001869Y014732D01*
X001927Y014720D01*
X001984Y014702D01*
X002038Y014680D01*
X002091Y014653D01*
X002141Y014621D01*
X002188Y014585D01*
X002231Y014544D01*
X002270Y014500D01*
X002305Y014453D01*
X002336Y014402D01*
X002362Y014349D01*
X002383Y014294D01*
X002399Y014237D01*
X002410Y014179D01*
X002415Y014120D01*
X002415Y014060D01*
X002410Y014001D01*
X002399Y013943D01*
X002383Y013886D01*
X002362Y013831D01*
X002336Y013778D01*
X002305Y013727D01*
X002270Y013680D01*
X002231Y013636D01*
X002188Y013595D01*
X002141Y013559D01*
X002091Y013527D01*
X002038Y013500D01*
X001984Y013478D01*
X001927Y013460D01*
X001869Y013448D01*
X001810Y013442D01*
X001751Y013440D01*
X001692Y013444D01*
X001634Y013454D01*
X001576Y013468D01*
X001521Y013488D01*
X001467Y013513D01*
X001416Y013542D01*
X001367Y013577D01*
X001322Y013615D01*
X001281Y013657D01*
X001244Y013703D01*
X001211Y013752D01*
X001182Y013804D01*
X001159Y013858D01*
X001140Y013915D01*
X001127Y013972D01*
X001119Y014031D01*
X001116Y014090D01*
X001116Y020090D02*
X001119Y020149D01*
X001127Y020208D01*
X001140Y020265D01*
X001159Y020322D01*
X001182Y020376D01*
X001211Y020428D01*
X001244Y020477D01*
X001281Y020523D01*
X001322Y020565D01*
X001367Y020603D01*
X001416Y020638D01*
X001467Y020667D01*
X001521Y020692D01*
X001576Y020712D01*
X001634Y020726D01*
X001692Y020736D01*
X001751Y020740D01*
X001810Y020738D01*
X001869Y020732D01*
X001927Y020720D01*
X001984Y020702D01*
X002038Y020680D01*
X002091Y020653D01*
X002141Y020621D01*
X002188Y020585D01*
X002231Y020544D01*
X002270Y020500D01*
X002305Y020453D01*
X002336Y020402D01*
X002362Y020349D01*
X002383Y020294D01*
X002399Y020237D01*
X002410Y020179D01*
X002415Y020120D01*
X002415Y020060D01*
X002410Y020001D01*
X002399Y019943D01*
X002383Y019886D01*
X002362Y019831D01*
X002336Y019778D01*
X002305Y019727D01*
X002270Y019680D01*
X002231Y019636D01*
X002188Y019595D01*
X002141Y019559D01*
X002091Y019527D01*
X002038Y019500D01*
X001984Y019478D01*
X001927Y019460D01*
X001869Y019448D01*
X001810Y019442D01*
X001751Y019440D01*
X001692Y019444D01*
X001634Y019454D01*
X001576Y019468D01*
X001521Y019488D01*
X001467Y019513D01*
X001416Y019542D01*
X001367Y019577D01*
X001322Y019615D01*
X001281Y019657D01*
X001244Y019703D01*
X001211Y019752D01*
X001182Y019804D01*
X001159Y019858D01*
X001140Y019915D01*
X001127Y019972D01*
X001119Y020031D01*
X001116Y020090D01*
X040916Y020090D02*
X040919Y020149D01*
X040927Y020208D01*
X040940Y020265D01*
X040959Y020322D01*
X040982Y020376D01*
X041011Y020428D01*
X041044Y020477D01*
X041081Y020523D01*
X041122Y020565D01*
X041167Y020603D01*
X041216Y020638D01*
X041267Y020667D01*
X041321Y020692D01*
X041376Y020712D01*
X041434Y020726D01*
X041492Y020736D01*
X041551Y020740D01*
X041610Y020738D01*
X041669Y020732D01*
X041727Y020720D01*
X041784Y020702D01*
X041838Y020680D01*
X041891Y020653D01*
X041941Y020621D01*
X041988Y020585D01*
X042031Y020544D01*
X042070Y020500D01*
X042105Y020453D01*
X042136Y020402D01*
X042162Y020349D01*
X042183Y020294D01*
X042199Y020237D01*
X042210Y020179D01*
X042215Y020120D01*
X042215Y020060D01*
X042210Y020001D01*
X042199Y019943D01*
X042183Y019886D01*
X042162Y019831D01*
X042136Y019778D01*
X042105Y019727D01*
X042070Y019680D01*
X042031Y019636D01*
X041988Y019595D01*
X041941Y019559D01*
X041891Y019527D01*
X041838Y019500D01*
X041784Y019478D01*
X041727Y019460D01*
X041669Y019448D01*
X041610Y019442D01*
X041551Y019440D01*
X041492Y019444D01*
X041434Y019454D01*
X041376Y019468D01*
X041321Y019488D01*
X041267Y019513D01*
X041216Y019542D01*
X041167Y019577D01*
X041122Y019615D01*
X041081Y019657D01*
X041044Y019703D01*
X041011Y019752D01*
X040982Y019804D01*
X040959Y019858D01*
X040940Y019915D01*
X040927Y019972D01*
X040919Y020031D01*
X040916Y020090D01*
X040916Y014090D02*
X040919Y014149D01*
X040927Y014208D01*
X040940Y014265D01*
X040959Y014322D01*
X040982Y014376D01*
X041011Y014428D01*
X041044Y014477D01*
X041081Y014523D01*
X041122Y014565D01*
X041167Y014603D01*
X041216Y014638D01*
X041267Y014667D01*
X041321Y014692D01*
X041376Y014712D01*
X041434Y014726D01*
X041492Y014736D01*
X041551Y014740D01*
X041610Y014738D01*
X041669Y014732D01*
X041727Y014720D01*
X041784Y014702D01*
X041838Y014680D01*
X041891Y014653D01*
X041941Y014621D01*
X041988Y014585D01*
X042031Y014544D01*
X042070Y014500D01*
X042105Y014453D01*
X042136Y014402D01*
X042162Y014349D01*
X042183Y014294D01*
X042199Y014237D01*
X042210Y014179D01*
X042215Y014120D01*
X042215Y014060D01*
X042210Y014001D01*
X042199Y013943D01*
X042183Y013886D01*
X042162Y013831D01*
X042136Y013778D01*
X042105Y013727D01*
X042070Y013680D01*
X042031Y013636D01*
X041988Y013595D01*
X041941Y013559D01*
X041891Y013527D01*
X041838Y013500D01*
X041784Y013478D01*
X041727Y013460D01*
X041669Y013448D01*
X041610Y013442D01*
X041551Y013440D01*
X041492Y013444D01*
X041434Y013454D01*
X041376Y013468D01*
X041321Y013488D01*
X041267Y013513D01*
X041216Y013542D01*
X041167Y013577D01*
X041122Y013615D01*
X041081Y013657D01*
X041044Y013703D01*
X041011Y013752D01*
X040982Y013804D01*
X040959Y013858D01*
X040940Y013915D01*
X040927Y013972D01*
X040919Y014031D01*
X040916Y014090D01*
X040916Y008090D02*
X040919Y008149D01*
X040927Y008208D01*
X040940Y008265D01*
X040959Y008322D01*
X040982Y008376D01*
X041011Y008428D01*
X041044Y008477D01*
X041081Y008523D01*
X041122Y008565D01*
X041167Y008603D01*
X041216Y008638D01*
X041267Y008667D01*
X041321Y008692D01*
X041376Y008712D01*
X041434Y008726D01*
X041492Y008736D01*
X041551Y008740D01*
X041610Y008738D01*
X041669Y008732D01*
X041727Y008720D01*
X041784Y008702D01*
X041838Y008680D01*
X041891Y008653D01*
X041941Y008621D01*
X041988Y008585D01*
X042031Y008544D01*
X042070Y008500D01*
X042105Y008453D01*
X042136Y008402D01*
X042162Y008349D01*
X042183Y008294D01*
X042199Y008237D01*
X042210Y008179D01*
X042215Y008120D01*
X042215Y008060D01*
X042210Y008001D01*
X042199Y007943D01*
X042183Y007886D01*
X042162Y007831D01*
X042136Y007778D01*
X042105Y007727D01*
X042070Y007680D01*
X042031Y007636D01*
X041988Y007595D01*
X041941Y007559D01*
X041891Y007527D01*
X041838Y007500D01*
X041784Y007478D01*
X041727Y007460D01*
X041669Y007448D01*
X041610Y007442D01*
X041551Y007440D01*
X041492Y007444D01*
X041434Y007454D01*
X041376Y007468D01*
X041321Y007488D01*
X041267Y007513D01*
X041216Y007542D01*
X041167Y007577D01*
X041122Y007615D01*
X041081Y007657D01*
X041044Y007703D01*
X041011Y007752D01*
X040982Y007804D01*
X040959Y007858D01*
X040940Y007915D01*
X040927Y007972D01*
X040919Y008031D01*
X040916Y008090D01*
D11*
X034517Y010660D02*
X034517Y011121D01*
X034287Y011121D01*
X034210Y011044D01*
X034210Y010890D01*
X034287Y010814D01*
X034517Y010814D01*
X034364Y010814D02*
X034210Y010660D01*
X034057Y010737D02*
X033980Y010660D01*
X033827Y010660D01*
X033750Y010737D01*
X033750Y010890D01*
X033827Y010967D01*
X033903Y010967D01*
X034057Y010890D01*
X034057Y011121D01*
X033750Y011121D01*
X031021Y010006D02*
X031021Y009699D01*
X030945Y009623D01*
X030791Y009623D01*
X030715Y009699D01*
X030561Y009699D02*
X030484Y009623D01*
X030331Y009623D01*
X030254Y009699D01*
X030254Y009853D01*
X030331Y009930D01*
X030408Y009930D01*
X030561Y009853D01*
X030561Y010083D01*
X030254Y010083D01*
X030715Y010006D02*
X030791Y010083D01*
X030945Y010083D01*
X031021Y010006D01*
X031250Y006621D02*
X031403Y006544D01*
X031557Y006390D01*
X031327Y006390D01*
X031250Y006314D01*
X031250Y006237D01*
X031327Y006160D01*
X031480Y006160D01*
X031557Y006237D01*
X031557Y006390D01*
X031710Y006390D02*
X031787Y006314D01*
X032017Y006314D01*
X031864Y006314D02*
X031710Y006160D01*
X031710Y006390D02*
X031710Y006544D01*
X031787Y006621D01*
X032017Y006621D01*
X032017Y006160D01*
X031146Y005494D02*
X031146Y005187D01*
X031070Y005110D01*
X030916Y005110D01*
X030840Y005187D01*
X030686Y005187D02*
X030686Y005494D01*
X030609Y005571D01*
X030456Y005571D01*
X030379Y005494D01*
X030379Y005187D01*
X030456Y005110D01*
X030609Y005110D01*
X030686Y005187D01*
X030840Y005494D02*
X030916Y005571D01*
X031070Y005571D01*
X031146Y005494D01*
X030226Y005571D02*
X030072Y005571D01*
X030149Y005571D02*
X030149Y005110D01*
X030226Y005110D02*
X030072Y005110D01*
X029919Y005110D02*
X029612Y005110D01*
X029458Y005187D02*
X029382Y005110D01*
X029228Y005110D01*
X029152Y005187D01*
X029152Y005264D01*
X029228Y005340D01*
X029382Y005340D01*
X029458Y005417D01*
X029458Y005494D01*
X029382Y005571D01*
X029228Y005571D01*
X029152Y005494D01*
X029919Y005571D02*
X029919Y005110D01*
X028146Y005110D02*
X028146Y005571D01*
X028146Y005340D02*
X027840Y005340D01*
X027686Y005340D02*
X027379Y005340D01*
X027379Y005417D02*
X027379Y005110D01*
X027226Y005110D02*
X027226Y005571D01*
X027379Y005417D02*
X027533Y005571D01*
X027686Y005417D01*
X027686Y005110D01*
X027840Y005110D02*
X027840Y005571D01*
X027226Y005110D02*
X026919Y005110D01*
X026765Y005110D02*
X026765Y005571D01*
X026765Y005110D02*
X026458Y005110D01*
X025146Y005187D02*
X025070Y005110D01*
X024916Y005110D01*
X024840Y005187D01*
X024840Y005494D01*
X024916Y005571D01*
X025070Y005571D01*
X025146Y005494D01*
X025146Y005187D01*
X024993Y005264D02*
X024840Y005110D01*
X024686Y005110D02*
X024686Y005571D01*
X024379Y005571D01*
X024533Y005340D02*
X024686Y005340D01*
X024686Y005110D02*
X024379Y005110D01*
X023646Y005187D02*
X023570Y005110D01*
X023416Y005110D01*
X023340Y005187D01*
X023186Y005110D02*
X023186Y005571D01*
X023033Y005417D01*
X022879Y005571D01*
X022879Y005110D01*
X022726Y005110D02*
X022496Y005110D01*
X022419Y005187D01*
X022419Y005494D01*
X022496Y005571D01*
X022726Y005571D01*
X022726Y005110D01*
X023340Y005494D02*
X023416Y005571D01*
X023570Y005571D01*
X023646Y005494D01*
X023646Y005187D01*
X023543Y006110D02*
X023466Y006187D01*
X023466Y006494D01*
X023543Y006571D01*
X023773Y006571D01*
X023773Y006110D01*
X023543Y006110D01*
X023313Y006110D02*
X023313Y006417D01*
X023313Y006264D02*
X023159Y006417D01*
X023083Y006417D01*
X022929Y006417D02*
X022852Y006417D01*
X022852Y006110D01*
X022776Y006110D02*
X022929Y006110D01*
X022622Y006417D02*
X022469Y006110D01*
X022315Y006417D01*
X022162Y006340D02*
X022085Y006417D01*
X021932Y006417D01*
X021855Y006340D01*
X021855Y006264D01*
X022162Y006264D01*
X022162Y006340D02*
X022162Y006187D01*
X022085Y006110D01*
X021932Y006110D01*
X021701Y006110D02*
X021701Y006417D01*
X021701Y006264D02*
X021548Y006417D01*
X021471Y006417D01*
X022852Y006571D02*
X022852Y006647D01*
X024387Y006417D02*
X024617Y006417D01*
X024694Y006340D01*
X024617Y006264D01*
X024464Y006264D01*
X024387Y006187D01*
X024464Y006110D01*
X024694Y006110D01*
X024847Y006187D02*
X024924Y006264D01*
X025077Y006264D01*
X025154Y006340D01*
X025077Y006417D01*
X024847Y006417D01*
X024847Y006187D02*
X024924Y006110D01*
X025154Y006110D01*
X025308Y006264D02*
X025614Y006264D01*
X025614Y006340D02*
X025614Y006187D01*
X025538Y006110D01*
X025384Y006110D01*
X025308Y006264D02*
X025308Y006340D01*
X025384Y006417D01*
X025538Y006417D01*
X025614Y006340D01*
X025768Y006110D02*
X025921Y006110D01*
X025845Y006110D02*
X025845Y006571D01*
X025921Y006571D01*
X026075Y006340D02*
X026075Y006110D01*
X026075Y006340D02*
X026152Y006417D01*
X026305Y006417D01*
X026382Y006340D01*
X026535Y006417D02*
X026765Y006417D01*
X026842Y006340D01*
X026765Y006264D01*
X026612Y006264D01*
X026535Y006187D01*
X026612Y006110D01*
X026842Y006110D01*
X026996Y006110D02*
X026996Y006417D01*
X027302Y006417D02*
X027302Y006187D01*
X027226Y006110D01*
X026996Y006110D01*
X027456Y006417D02*
X027533Y006417D01*
X027686Y006264D01*
X027686Y006417D02*
X027686Y006110D01*
X027840Y006187D02*
X027916Y006110D01*
X028146Y006110D01*
X028146Y006571D01*
X027916Y006571D01*
X027840Y006494D01*
X027840Y006417D01*
X027916Y006340D01*
X028146Y006340D01*
X027916Y006340D02*
X027840Y006264D01*
X027840Y006187D01*
X026382Y006110D02*
X026382Y006571D01*
X020146Y005340D02*
X019840Y005340D01*
X019686Y005417D02*
X019533Y005571D01*
X019533Y005110D01*
X019686Y005110D02*
X019379Y005110D01*
X019226Y005110D02*
X018919Y005417D01*
X018919Y005494D01*
X018996Y005571D01*
X019149Y005571D01*
X019226Y005494D01*
X019226Y005110D02*
X018919Y005110D01*
X018765Y005264D02*
X018612Y005110D01*
X018458Y005264D01*
X018458Y005571D01*
X018765Y005571D02*
X018765Y005264D01*
X019993Y005187D02*
X019993Y005494D01*
X019646Y006110D02*
X019416Y006110D01*
X019340Y006187D01*
X019340Y006264D01*
X019416Y006340D01*
X019646Y006340D01*
X019416Y006340D02*
X019340Y006417D01*
X019340Y006494D01*
X019416Y006571D01*
X019646Y006571D01*
X019646Y006110D01*
X019186Y006187D02*
X019186Y006340D01*
X019109Y006417D01*
X018956Y006417D01*
X018879Y006340D01*
X018879Y006187D01*
X018956Y006110D01*
X019109Y006110D01*
X019186Y006187D01*
X018726Y006187D02*
X018649Y006264D01*
X018419Y006264D01*
X018419Y006340D02*
X018419Y006110D01*
X018649Y006110D01*
X018726Y006187D01*
X018649Y006417D02*
X018496Y006417D01*
X018419Y006340D01*
X018265Y006264D02*
X018112Y006417D01*
X018035Y006417D01*
X017882Y006340D02*
X017805Y006417D01*
X017575Y006417D01*
X017575Y006571D02*
X017575Y006110D01*
X017805Y006110D01*
X017882Y006187D01*
X017882Y006340D01*
X018265Y006417D02*
X018265Y006110D01*
X016961Y006034D02*
X016654Y006034D01*
X016501Y006034D02*
X016194Y006034D01*
X016040Y006034D02*
X015733Y006034D01*
X015726Y005571D02*
X015726Y005264D01*
X015572Y005110D01*
X015419Y005264D01*
X015419Y005571D01*
X015879Y005571D02*
X016186Y005571D01*
X016186Y005340D01*
X016033Y005417D01*
X015956Y005417D01*
X015879Y005340D01*
X015879Y005187D01*
X015956Y005110D01*
X016109Y005110D01*
X016186Y005187D01*
X016340Y005340D02*
X016646Y005340D01*
X016493Y005187D02*
X016493Y005494D01*
X014146Y005494D02*
X014146Y005187D01*
X014070Y005110D01*
X013916Y005110D01*
X013840Y005187D01*
X013840Y005340D01*
X013993Y005340D01*
X014146Y005494D02*
X014070Y005571D01*
X013916Y005571D01*
X013840Y005494D01*
X013686Y005571D02*
X013379Y005110D01*
X013379Y005571D01*
X013226Y005571D02*
X012996Y005571D01*
X012919Y005494D01*
X012919Y005187D01*
X012996Y005110D01*
X013226Y005110D01*
X013226Y005571D01*
X013686Y005571D02*
X013686Y005110D01*
X017268Y007110D02*
X017575Y007110D01*
X017421Y007110D02*
X017421Y007571D01*
X017575Y007417D01*
X018189Y007187D02*
X018189Y007110D01*
X018265Y007110D01*
X018265Y007187D01*
X018189Y007187D01*
X018419Y007417D02*
X018572Y007110D01*
X018726Y007417D01*
X018879Y007340D02*
X018879Y007264D01*
X019186Y007264D01*
X019186Y007340D02*
X019186Y007187D01*
X019109Y007110D01*
X018956Y007110D01*
X018879Y007340D02*
X018956Y007417D01*
X019109Y007417D01*
X019186Y007340D01*
X019340Y007340D02*
X019416Y007264D01*
X019646Y007264D01*
X019493Y007264D02*
X019340Y007110D01*
X019340Y007340D02*
X019340Y007494D01*
X019416Y007571D01*
X019646Y007571D01*
X019646Y007110D01*
X013697Y009266D02*
X013620Y009189D01*
X013313Y009189D01*
X013236Y009266D01*
X013236Y009420D01*
X013313Y009496D01*
X013313Y009650D02*
X013236Y009727D01*
X013236Y009880D01*
X013313Y009957D01*
X013390Y009957D01*
X013467Y009880D01*
X013467Y009803D01*
X013467Y009880D02*
X013543Y009957D01*
X013620Y009957D01*
X013697Y009880D01*
X013697Y009727D01*
X013620Y009650D01*
X013620Y009496D02*
X013697Y009420D01*
X013697Y009266D01*
X009696Y010810D02*
X009696Y011271D01*
X009466Y011271D01*
X009390Y011194D01*
X009390Y011040D01*
X009466Y010964D01*
X009696Y010964D01*
X009543Y010964D02*
X009390Y010810D01*
X009236Y010887D02*
X009159Y010810D01*
X009006Y010810D01*
X008929Y010887D01*
X008929Y010964D01*
X009006Y011040D01*
X009083Y011040D01*
X009006Y011040D02*
X008929Y011117D01*
X008929Y011194D01*
X009006Y011271D01*
X009159Y011271D01*
X009236Y011194D01*
X013236Y012516D02*
X013236Y012670D01*
X013313Y012746D01*
X013236Y012900D02*
X013236Y013207D01*
X013236Y013053D02*
X013697Y013053D01*
X013543Y012900D01*
X013620Y012746D02*
X013697Y012670D01*
X013697Y012516D01*
X013620Y012439D01*
X013313Y012439D01*
X013236Y012516D01*
X011597Y014060D02*
X011597Y014290D01*
X011520Y014367D01*
X011367Y014367D01*
X011290Y014290D01*
X011290Y014060D01*
X011136Y014060D02*
X011597Y014060D01*
X011290Y014214D02*
X011136Y014367D01*
X011136Y014521D02*
X011443Y014827D01*
X011520Y014827D01*
X011597Y014751D01*
X011597Y014597D01*
X011520Y014521D01*
X011136Y014521D02*
X011136Y014827D01*
X013236Y015766D02*
X013236Y015920D01*
X013313Y015996D01*
X013236Y016150D02*
X013543Y016457D01*
X013620Y016457D01*
X013697Y016380D01*
X013697Y016227D01*
X013620Y016150D01*
X013620Y015996D02*
X013697Y015920D01*
X013697Y015766D01*
X013620Y015689D01*
X013313Y015689D01*
X013236Y015766D01*
X013236Y016150D02*
X013236Y016457D01*
X011597Y017060D02*
X011597Y017290D01*
X011520Y017367D01*
X011367Y017367D01*
X011290Y017290D01*
X011290Y017060D01*
X011136Y017060D02*
X011597Y017060D01*
X011290Y017214D02*
X011136Y017367D01*
X011136Y017521D02*
X011136Y017827D01*
X011136Y017674D02*
X011597Y017674D01*
X011443Y017521D01*
X018186Y015207D02*
X018186Y014900D01*
X018493Y015207D01*
X018570Y015207D01*
X018647Y015130D01*
X018647Y014976D01*
X018570Y014900D01*
X018570Y014746D02*
X018647Y014670D01*
X018647Y014516D01*
X018570Y014439D01*
X018263Y014439D01*
X018186Y014516D01*
X018186Y014670D01*
X018263Y014746D01*
X018186Y014286D02*
X018186Y014133D01*
X018186Y014209D02*
X018647Y014209D01*
X018647Y014133D02*
X018647Y014286D01*
X020536Y015110D02*
X020843Y015110D01*
X020690Y015110D02*
X020690Y015571D01*
X020843Y015417D01*
X019580Y015785D02*
X019580Y016246D01*
X019349Y016246D01*
X019273Y016169D01*
X019273Y016015D01*
X019349Y015939D01*
X019580Y015939D01*
X019426Y015939D02*
X019273Y015785D01*
X019119Y015862D02*
X019119Y015939D01*
X019043Y016015D01*
X018889Y016015D01*
X018812Y015939D01*
X018812Y015862D01*
X018889Y015785D01*
X019043Y015785D01*
X019119Y015862D01*
X019043Y016015D02*
X019119Y016092D01*
X019119Y016169D01*
X019043Y016246D01*
X018889Y016246D01*
X018812Y016169D01*
X018812Y016092D01*
X018889Y016015D01*
X022467Y011894D02*
X022467Y011587D01*
X022697Y011818D01*
X022236Y011818D01*
X022313Y011434D02*
X022236Y011357D01*
X022236Y011204D01*
X022313Y011127D01*
X022620Y011127D01*
X022697Y011204D01*
X022697Y011357D01*
X022620Y011434D01*
X033750Y016890D02*
X034057Y016890D01*
X033827Y017121D01*
X033827Y016660D01*
X034210Y016660D02*
X034364Y016814D01*
X034287Y016814D02*
X034517Y016814D01*
X034517Y016660D02*
X034517Y017121D01*
X034287Y017121D01*
X034210Y017044D01*
X034210Y016890D01*
X034287Y016814D01*
X033084Y018485D02*
X032624Y018485D01*
X032624Y018792D01*
X032624Y018946D02*
X033084Y018946D01*
X033084Y019252D01*
X033084Y019406D02*
X033084Y019636D01*
X033008Y019713D01*
X032701Y019713D01*
X032624Y019636D01*
X032624Y019406D01*
X033084Y019406D01*
X032854Y019099D02*
X032854Y018946D01*
X032624Y018946D02*
X032624Y019252D01*
X032624Y019866D02*
X032624Y020173D01*
X032624Y020020D02*
X033084Y020020D01*
X032931Y019866D01*
X031522Y019943D02*
X031445Y019866D01*
X031522Y019943D02*
X031522Y020096D01*
X031445Y020173D01*
X031368Y020173D01*
X031061Y019866D01*
X031061Y020173D01*
X031138Y019713D02*
X031445Y019713D01*
X031522Y019636D01*
X031522Y019406D01*
X031061Y019406D01*
X031061Y019636D01*
X031138Y019713D01*
X031061Y019252D02*
X031061Y018946D01*
X031522Y018946D01*
X031522Y019252D01*
X031292Y019099D02*
X031292Y018946D01*
X031061Y018792D02*
X031061Y018485D01*
X031522Y018485D01*
X027196Y022060D02*
X027196Y022521D01*
X026966Y022521D01*
X026890Y022444D01*
X026890Y022290D01*
X026966Y022214D01*
X027196Y022214D01*
X027043Y022214D02*
X026890Y022060D01*
X026736Y022060D02*
X026736Y022137D01*
X026429Y022444D01*
X026429Y022521D01*
X026736Y022521D01*
D12*
X028666Y021840D02*
X028666Y021340D01*
X028916Y021090D01*
X029416Y021090D01*
X029666Y021340D01*
X029916Y021090D01*
X030416Y021090D01*
X030666Y021340D01*
X030916Y021090D01*
X031416Y021090D01*
X031666Y021340D01*
X031916Y021090D01*
X032416Y021090D01*
X032666Y021340D01*
X032666Y021840D01*
X032416Y022090D01*
X031916Y022090D01*
X031666Y021840D01*
X031416Y022090D01*
X030916Y022090D01*
X030666Y021840D01*
X030416Y022090D01*
X029916Y022090D01*
X029666Y021840D01*
X029416Y022090D01*
X028916Y022090D01*
X028666Y021840D01*
X024566Y022740D02*
X024166Y022740D01*
X024166Y022390D01*
X021166Y022390D01*
X021166Y022740D01*
X020766Y022740D01*
X020766Y018950D01*
X024566Y018950D01*
X024566Y022740D01*
X020566Y022740D02*
X020166Y022740D01*
X020166Y022390D01*
X017166Y022390D01*
X017166Y022740D01*
X016766Y022740D01*
X016766Y018950D01*
X020566Y018950D01*
X020566Y022740D01*
X016566Y022740D02*
X016166Y022740D01*
X016166Y022390D01*
X013166Y022390D01*
X013166Y022740D01*
X012766Y022740D01*
X012766Y018950D01*
X016566Y018950D01*
X016566Y022740D01*
X030854Y014978D02*
X030904Y015028D01*
X032304Y015028D01*
X032354Y014978D01*
X032354Y011578D01*
X032304Y011528D01*
X030904Y011528D01*
X030854Y011578D01*
X030854Y014978D01*
X031604Y013878D02*
X031604Y013648D01*
X031604Y012908D02*
X031604Y012678D01*
X027005Y009361D02*
X026792Y009361D01*
X026898Y009361D02*
X026898Y008720D01*
X026792Y008720D02*
X027005Y008720D01*
X026576Y008827D02*
X026469Y008720D01*
X026255Y008720D01*
X026149Y008827D01*
X025931Y008720D02*
X025504Y008720D01*
X025717Y008720D02*
X025717Y009361D01*
X025931Y009147D01*
X026149Y009254D02*
X026255Y009361D01*
X026469Y009361D01*
X026576Y009254D01*
X026576Y008827D01*
X026887Y007821D02*
X027120Y007821D01*
X027237Y007704D01*
X027237Y007237D01*
X027120Y007120D01*
X026887Y007120D01*
X026770Y007237D01*
X026770Y007704D02*
X026887Y007821D01*
X027470Y007821D02*
X027937Y007821D01*
X027937Y007120D01*
X028169Y007120D02*
X028403Y007354D01*
X028286Y007354D02*
X028636Y007354D01*
X028636Y007120D02*
X028636Y007821D01*
X028286Y007821D01*
X028169Y007704D01*
X028169Y007471D01*
X028286Y007354D01*
X027937Y007471D02*
X027703Y007471D01*
X025837Y007704D02*
X025837Y007237D01*
X025721Y007120D01*
X025487Y007120D01*
X025370Y007237D01*
X025138Y007237D02*
X025021Y007354D01*
X024671Y007354D01*
X024671Y007471D02*
X024671Y007120D01*
X025021Y007120D01*
X025138Y007237D01*
X025021Y007587D02*
X024787Y007587D01*
X024671Y007471D01*
X024438Y007587D02*
X024438Y007120D01*
X024204Y007120D02*
X024204Y007471D01*
X024088Y007587D01*
X023971Y007471D01*
X023971Y007120D01*
X023738Y007120D02*
X023388Y007120D01*
X023271Y007237D01*
X023271Y007471D01*
X023388Y007587D01*
X023738Y007587D01*
X023738Y007821D02*
X023738Y007120D01*
X024204Y007471D02*
X024321Y007587D01*
X024438Y007587D01*
X025370Y007704D02*
X025487Y007821D01*
X025721Y007821D01*
X025837Y007704D01*
X023038Y007587D02*
X023038Y007120D01*
X023038Y007354D02*
X022805Y007587D01*
X022688Y007587D01*
X022455Y007587D02*
X022338Y007587D01*
X022338Y007120D01*
X022222Y007120D02*
X022455Y007120D01*
X021989Y007237D02*
X021989Y007471D01*
X021872Y007587D01*
X021522Y007587D01*
X021522Y007821D02*
X021522Y007120D01*
X021872Y007120D01*
X021989Y007237D01*
X021289Y007237D02*
X021289Y007471D01*
X021172Y007587D01*
X020822Y007587D01*
X020822Y007004D01*
X020939Y006887D01*
X021055Y006887D01*
X021172Y007120D02*
X021289Y007237D01*
X021172Y007120D02*
X020822Y007120D01*
X020589Y007237D02*
X020589Y007471D01*
X020472Y007587D01*
X020239Y007587D01*
X020122Y007471D01*
X020122Y007354D01*
X020589Y007354D01*
X020589Y007237D02*
X020472Y007120D01*
X020239Y007120D01*
X022338Y007821D02*
X022338Y007938D01*
X022666Y003490D02*
X023666Y003490D01*
X023666Y002390D01*
X022666Y002390D01*
X021666Y002390D01*
X020666Y002390D01*
X019666Y002390D01*
X018666Y002390D01*
X017666Y002390D01*
X016666Y002390D01*
X015666Y002390D01*
X014666Y002390D01*
X013666Y002390D01*
X012666Y002390D01*
X011666Y002390D01*
X011666Y003490D01*
X012666Y003490D01*
X013666Y003490D01*
X013666Y002390D01*
X012666Y002390D02*
X012666Y003490D01*
X013666Y003490D02*
X014666Y003490D01*
X014666Y002390D01*
X015666Y002390D02*
X015666Y003490D01*
X014666Y003490D01*
X015666Y003490D02*
X016666Y003490D01*
X016666Y002390D01*
X017666Y002390D02*
X017666Y003490D01*
X016666Y003490D01*
X017666Y003490D02*
X018666Y003490D01*
X018666Y002390D01*
X019666Y002390D02*
X019666Y003490D01*
X018666Y003490D01*
X019666Y003490D02*
X020666Y003490D01*
X020666Y002390D01*
X021666Y002390D02*
X021666Y003490D01*
X020666Y003490D01*
X021666Y003490D02*
X022666Y003490D01*
X022666Y002390D01*
X023666Y002390D02*
X024666Y002390D01*
X025666Y002390D01*
X026666Y002390D01*
X026666Y003490D01*
X025666Y003490D01*
X024666Y003490D01*
X023666Y003490D01*
X024666Y003490D02*
X024666Y002390D01*
X025666Y002390D02*
X025666Y003490D01*
X026666Y003490D02*
X027666Y003490D01*
X028666Y003490D01*
X028666Y002390D01*
X027666Y002390D01*
X026666Y002390D01*
X027666Y002390D02*
X027666Y003490D01*
X028666Y003490D02*
X029666Y003490D01*
X029666Y002390D01*
X028666Y002390D01*
X029666Y002390D02*
X030666Y002390D01*
X031666Y002390D01*
X031666Y003490D01*
X030666Y003490D01*
X029666Y003490D01*
X030666Y003490D02*
X030666Y002390D01*
X032716Y003878D02*
X033016Y003878D01*
X032866Y003728D02*
X032866Y004028D01*
X033716Y004528D02*
X033816Y004528D01*
X033816Y004078D01*
X034066Y004078D01*
X034066Y004978D01*
X033816Y004978D01*
X033816Y004528D01*
X032416Y004528D02*
X032423Y004687D01*
X032445Y004845D01*
X032481Y005000D01*
X032531Y005151D01*
X032594Y005298D01*
X032671Y005437D01*
X032760Y005569D01*
X032860Y005693D01*
X032972Y005807D01*
X033093Y005910D01*
X033223Y006002D01*
X033361Y006082D01*
X033506Y006149D01*
X033656Y006202D01*
X033810Y006241D01*
X033967Y006267D01*
X034126Y006278D01*
X034285Y006274D01*
X034444Y006256D01*
X034600Y006223D01*
X034752Y006177D01*
X034900Y006117D01*
X035041Y006044D01*
X035175Y005958D01*
X035301Y005860D01*
X035417Y005751D01*
X035523Y005632D01*
X035618Y005504D01*
X035701Y005368D01*
X035771Y005225D01*
X035828Y005076D01*
X035871Y004923D01*
X035900Y004766D01*
X035914Y004608D01*
X035914Y004448D01*
X035900Y004290D01*
X035871Y004133D01*
X035828Y003980D01*
X035771Y003831D01*
X035701Y003688D01*
X035618Y003552D01*
X035523Y003424D01*
X035417Y003305D01*
X035301Y003196D01*
X035175Y003098D01*
X035041Y003012D01*
X034900Y002939D01*
X034752Y002879D01*
X034600Y002833D01*
X034444Y002800D01*
X034285Y002782D01*
X034126Y002778D01*
X033967Y002789D01*
X033810Y002815D01*
X033656Y002854D01*
X033506Y002907D01*
X033361Y002974D01*
X033223Y003054D01*
X033093Y003146D01*
X032972Y003249D01*
X032860Y003363D01*
X032760Y003487D01*
X032671Y003619D01*
X032594Y003758D01*
X032531Y003905D01*
X032481Y004056D01*
X032445Y004211D01*
X032423Y004369D01*
X032416Y004528D01*
X034416Y004528D02*
X034616Y004528D01*
X009616Y004590D02*
X009416Y004590D01*
X007416Y004590D02*
X007423Y004749D01*
X007445Y004907D01*
X007481Y005062D01*
X007531Y005213D01*
X007594Y005360D01*
X007671Y005499D01*
X007760Y005631D01*
X007860Y005755D01*
X007972Y005869D01*
X008093Y005972D01*
X008223Y006064D01*
X008361Y006144D01*
X008506Y006211D01*
X008656Y006264D01*
X008810Y006303D01*
X008967Y006329D01*
X009126Y006340D01*
X009285Y006336D01*
X009444Y006318D01*
X009600Y006285D01*
X009752Y006239D01*
X009900Y006179D01*
X010041Y006106D01*
X010175Y006020D01*
X010301Y005922D01*
X010417Y005813D01*
X010523Y005694D01*
X010618Y005566D01*
X010701Y005430D01*
X010771Y005287D01*
X010828Y005138D01*
X010871Y004985D01*
X010900Y004828D01*
X010914Y004670D01*
X010914Y004510D01*
X010900Y004352D01*
X010871Y004195D01*
X010828Y004042D01*
X010771Y003893D01*
X010701Y003750D01*
X010618Y003614D01*
X010523Y003486D01*
X010417Y003367D01*
X010301Y003258D01*
X010175Y003160D01*
X010041Y003074D01*
X009900Y003001D01*
X009752Y002941D01*
X009600Y002895D01*
X009444Y002862D01*
X009285Y002844D01*
X009126Y002840D01*
X008967Y002851D01*
X008810Y002877D01*
X008656Y002916D01*
X008506Y002969D01*
X008361Y003036D01*
X008223Y003116D01*
X008093Y003208D01*
X007972Y003311D01*
X007860Y003425D01*
X007760Y003549D01*
X007671Y003681D01*
X007594Y003820D01*
X007531Y003967D01*
X007481Y004118D01*
X007445Y004273D01*
X007423Y004431D01*
X007416Y004590D01*
X007866Y004090D02*
X007866Y003790D01*
X007716Y003940D02*
X008016Y003940D01*
X008816Y004140D02*
X008816Y004590D01*
X008816Y005040D01*
X009066Y005040D01*
X009066Y004140D01*
X008816Y004140D01*
X008816Y004590D02*
X008716Y004590D01*
D13*
X012371Y009492D02*
X012942Y009492D01*
X012666Y009905D01*
X012371Y009492D01*
X012371Y012742D02*
X012942Y012742D01*
X012666Y013155D01*
X012371Y012742D01*
X012371Y015992D02*
X012942Y015992D01*
X012666Y016405D01*
X012371Y015992D01*
X014666Y020090D02*
X014416Y020590D01*
X014516Y020590D01*
X014536Y020590D01*
X014566Y020590D01*
X014536Y020590D02*
X014536Y021460D01*
X014786Y021460D01*
X014786Y020590D01*
X014766Y020590D01*
X014786Y020590D02*
X014816Y020590D01*
X014916Y020590D01*
X014666Y020090D01*
X014616Y020240D02*
X014716Y020240D01*
X014716Y021440D01*
X014666Y021440D02*
X014616Y021440D01*
X014616Y020240D01*
X014516Y020440D02*
X014516Y020590D01*
X014816Y020590D02*
X014816Y020440D01*
X018416Y020590D02*
X018516Y020590D01*
X018536Y020590D01*
X018566Y020590D01*
X018536Y020590D02*
X018536Y021460D01*
X018786Y021460D01*
X018786Y020590D01*
X018766Y020590D01*
X018786Y020590D02*
X018816Y020590D01*
X018916Y020590D01*
X018666Y020090D01*
X018416Y020590D01*
X018516Y020590D02*
X018516Y020440D01*
X018616Y020240D02*
X018716Y020240D01*
X018716Y021440D01*
X018666Y021440D02*
X018616Y021440D01*
X018616Y020240D01*
X018816Y020440D02*
X018816Y020590D01*
X022416Y020590D02*
X022516Y020590D01*
X022536Y020590D01*
X022566Y020590D01*
X022536Y020590D02*
X022536Y021460D01*
X022786Y021460D01*
X022786Y020590D01*
X022766Y020590D01*
X022786Y020590D02*
X022816Y020590D01*
X022916Y020590D01*
X022666Y020090D01*
X022416Y020590D01*
X022516Y020590D02*
X022516Y020440D01*
X022616Y020240D02*
X022716Y020240D01*
X022716Y021440D01*
X022666Y021440D02*
X022616Y021440D01*
X022616Y020240D01*
X022816Y020440D02*
X022816Y020590D01*
X025231Y010515D02*
X025233Y010536D01*
X025239Y010556D01*
X025249Y010575D01*
X025262Y010592D01*
X025278Y010605D01*
X025296Y010616D01*
X025316Y010623D01*
X025337Y010626D01*
X025358Y010625D01*
X025378Y010620D01*
X025397Y010611D01*
X025415Y010599D01*
X025429Y010584D01*
X025441Y010566D01*
X025449Y010546D01*
X025452Y010526D01*
X025452Y010504D01*
X025449Y010484D01*
X025441Y010464D01*
X025429Y010446D01*
X025415Y010431D01*
X025398Y010419D01*
X025378Y010410D01*
X025358Y010405D01*
X025337Y010404D01*
X025316Y010407D01*
X025296Y010414D01*
X025278Y010425D01*
X025262Y010438D01*
X025249Y010455D01*
X025239Y010474D01*
X025233Y010494D01*
X025231Y010515D01*
D14*
X025027Y010358D02*
X025184Y010200D01*
X028649Y010200D01*
X028806Y010358D01*
X028806Y013823D01*
X028649Y013980D01*
X025184Y013980D01*
X025027Y013823D01*
X025027Y010358D01*
D15*
X030604Y011528D02*
X030604Y015028D01*
X030606Y015058D01*
X030611Y015088D01*
X030620Y015117D01*
X030633Y015144D01*
X030648Y015170D01*
X030667Y015194D01*
X030688Y015215D01*
X030712Y015234D01*
X030738Y015249D01*
X030765Y015262D01*
X030794Y015271D01*
X030824Y015276D01*
X030854Y015278D01*
X032354Y015278D01*
X032384Y015276D01*
X032414Y015271D01*
X032443Y015262D01*
X032470Y015249D01*
X032496Y015234D01*
X032520Y015215D01*
X032541Y015194D01*
X032560Y015170D01*
X032575Y015144D01*
X032588Y015117D01*
X032597Y015088D01*
X032602Y015058D01*
X032604Y015028D01*
X032604Y011528D01*
X032602Y011498D01*
X032597Y011468D01*
X032588Y011439D01*
X032575Y011412D01*
X032560Y011386D01*
X032541Y011362D01*
X032520Y011341D01*
X032496Y011322D01*
X032470Y011307D01*
X032443Y011294D01*
X032414Y011285D01*
X032384Y011280D01*
X032354Y011278D01*
X030854Y011278D01*
X030824Y011280D01*
X030794Y011285D01*
X030765Y011294D01*
X030738Y011307D01*
X030712Y011322D01*
X030688Y011341D01*
X030667Y011362D01*
X030648Y011386D01*
X030633Y011412D01*
X030620Y011439D01*
X030611Y011468D01*
X030606Y011498D01*
X030604Y011528D01*
D16*
X032919Y011613D02*
X033369Y011313D01*
X033369Y011613D02*
X032919Y011313D01*
X033369Y011773D02*
X033369Y012073D01*
X033369Y011923D02*
X032919Y011923D01*
X032919Y012233D02*
X033219Y012233D01*
X033369Y012384D01*
X033219Y012534D01*
X032919Y012534D01*
X032919Y012694D02*
X032919Y012994D01*
X032919Y013154D02*
X032919Y013454D01*
X032919Y013304D02*
X033369Y013304D01*
X033219Y013154D01*
X033369Y012694D02*
X032919Y012694D01*
X033144Y012534D02*
X033144Y012233D01*
X036666Y012040D02*
X041566Y012040D01*
X041566Y012390D01*
X042166Y012390D01*
X042166Y012040D01*
X042916Y012040D01*
X042916Y016140D01*
X042166Y016140D01*
X042166Y015790D01*
X041566Y015790D01*
X041566Y016140D01*
X036666Y016140D01*
X036666Y012040D01*
X036666Y010140D02*
X041566Y010140D01*
X041566Y009790D01*
X042166Y009790D01*
X042166Y010140D01*
X042916Y010140D01*
X042916Y006040D01*
X042166Y006040D01*
X042166Y006390D01*
X041566Y006390D01*
X041566Y006040D01*
X036666Y006040D01*
X036666Y010140D01*
X040291Y008627D02*
X040462Y008627D01*
X040518Y008570D01*
X040462Y008514D01*
X040291Y008514D01*
X040291Y008400D02*
X040518Y008400D01*
X040518Y008457D01*
X040462Y008514D01*
X040462Y008268D02*
X040291Y008268D01*
X040291Y008154D02*
X040462Y008154D01*
X040518Y008211D01*
X040462Y008268D01*
X040462Y008154D02*
X040518Y008098D01*
X040518Y008041D01*
X040291Y008041D01*
X040348Y007909D02*
X040291Y007852D01*
X040291Y007739D01*
X040348Y007682D01*
X040462Y007682D02*
X040518Y007795D01*
X040518Y007852D01*
X040462Y007909D01*
X040348Y007909D01*
X040462Y007682D02*
X040632Y007682D01*
X040632Y007909D01*
X040348Y007556D02*
X040348Y007499D01*
X040291Y007499D01*
X040291Y007556D01*
X040348Y007556D01*
X040291Y007556D02*
X040178Y007443D01*
X040291Y007083D02*
X040348Y007083D01*
X040575Y007310D01*
X040632Y007310D01*
X040632Y007083D01*
X040632Y006838D02*
X040291Y006838D01*
X040291Y006951D02*
X040291Y006724D01*
X040291Y006592D02*
X040518Y006592D01*
X040632Y006479D01*
X040518Y006365D01*
X040291Y006365D01*
X040462Y006365D02*
X040462Y006592D01*
X040518Y006724D02*
X040632Y006838D01*
X040856Y008090D02*
X040859Y008155D01*
X040868Y008219D01*
X040882Y008282D01*
X040903Y008343D01*
X040928Y008402D01*
X040959Y008459D01*
X040995Y008513D01*
X041036Y008563D01*
X041081Y008609D01*
X041131Y008651D01*
X041183Y008688D01*
X041239Y008720D01*
X041298Y008747D01*
X041359Y008769D01*
X041422Y008785D01*
X041485Y008795D01*
X041550Y008800D01*
X041614Y008798D01*
X041679Y008791D01*
X041742Y008778D01*
X041804Y008759D01*
X041864Y008735D01*
X041921Y008705D01*
X041975Y008670D01*
X042026Y008630D01*
X042074Y008586D01*
X042117Y008538D01*
X042155Y008486D01*
X042189Y008431D01*
X042217Y008373D01*
X042240Y008312D01*
X042258Y008250D01*
X042269Y008187D01*
X042275Y008122D01*
X042275Y008058D01*
X042269Y007993D01*
X042258Y007930D01*
X042240Y007868D01*
X042217Y007807D01*
X042189Y007749D01*
X042155Y007694D01*
X042117Y007642D01*
X042074Y007594D01*
X042026Y007550D01*
X041975Y007510D01*
X041921Y007475D01*
X041864Y007445D01*
X041804Y007421D01*
X041742Y007402D01*
X041679Y007389D01*
X041614Y007382D01*
X041550Y007380D01*
X041485Y007385D01*
X041422Y007395D01*
X041359Y007411D01*
X041298Y007433D01*
X041239Y007460D01*
X041183Y007492D01*
X041131Y007529D01*
X041081Y007571D01*
X041036Y007617D01*
X040995Y007667D01*
X040959Y007721D01*
X040928Y007778D01*
X040903Y007837D01*
X040882Y007898D01*
X040868Y007961D01*
X040859Y008025D01*
X040856Y008090D01*
X040518Y012365D02*
X040632Y012479D01*
X040518Y012592D01*
X040291Y012592D01*
X040291Y012724D02*
X040291Y012951D01*
X040291Y012838D02*
X040632Y012838D01*
X040518Y012724D01*
X040462Y012592D02*
X040462Y012365D01*
X040518Y012365D02*
X040291Y012365D01*
X040291Y013083D02*
X040348Y013083D01*
X040575Y013310D01*
X040632Y013310D01*
X040632Y013083D01*
X040348Y013499D02*
X040291Y013499D01*
X040291Y013556D01*
X040348Y013556D01*
X040348Y013499D01*
X040291Y013556D02*
X040178Y013443D01*
X040348Y013682D02*
X040291Y013739D01*
X040291Y013852D01*
X040348Y013909D01*
X040462Y013909D01*
X040518Y013852D01*
X040518Y013795D01*
X040462Y013682D01*
X040632Y013682D01*
X040632Y013909D01*
X040518Y014041D02*
X040518Y014098D01*
X040462Y014154D01*
X040518Y014211D01*
X040462Y014268D01*
X040291Y014268D01*
X040291Y014154D02*
X040462Y014154D01*
X040518Y014041D02*
X040291Y014041D01*
X040291Y014400D02*
X040518Y014400D01*
X040518Y014457D01*
X040462Y014514D01*
X040518Y014570D01*
X040462Y014627D01*
X040291Y014627D01*
X040291Y014514D02*
X040462Y014514D01*
X040856Y014090D02*
X040859Y014155D01*
X040868Y014219D01*
X040882Y014282D01*
X040903Y014343D01*
X040928Y014402D01*
X040959Y014459D01*
X040995Y014513D01*
X041036Y014563D01*
X041081Y014609D01*
X041131Y014651D01*
X041183Y014688D01*
X041239Y014720D01*
X041298Y014747D01*
X041359Y014769D01*
X041422Y014785D01*
X041485Y014795D01*
X041550Y014800D01*
X041614Y014798D01*
X041679Y014791D01*
X041742Y014778D01*
X041804Y014759D01*
X041864Y014735D01*
X041921Y014705D01*
X041975Y014670D01*
X042026Y014630D01*
X042074Y014586D01*
X042117Y014538D01*
X042155Y014486D01*
X042189Y014431D01*
X042217Y014373D01*
X042240Y014312D01*
X042258Y014250D01*
X042269Y014187D01*
X042275Y014122D01*
X042275Y014058D01*
X042269Y013993D01*
X042258Y013930D01*
X042240Y013868D01*
X042217Y013807D01*
X042189Y013749D01*
X042155Y013694D01*
X042117Y013642D01*
X042074Y013594D01*
X042026Y013550D01*
X041975Y013510D01*
X041921Y013475D01*
X041864Y013445D01*
X041804Y013421D01*
X041742Y013402D01*
X041679Y013389D01*
X041614Y013382D01*
X041550Y013380D01*
X041485Y013385D01*
X041422Y013395D01*
X041359Y013411D01*
X041298Y013433D01*
X041239Y013460D01*
X041183Y013492D01*
X041131Y013529D01*
X041081Y013571D01*
X041036Y013617D01*
X040995Y013667D01*
X040959Y013721D01*
X040928Y013778D01*
X040903Y013837D01*
X040882Y013898D01*
X040868Y013961D01*
X040859Y014025D01*
X040856Y014090D01*
X041566Y018040D02*
X041566Y018390D01*
X042166Y018390D01*
X042166Y018040D01*
X042916Y018040D01*
X042916Y022140D01*
X042166Y022140D01*
X042166Y021790D01*
X041566Y021790D01*
X041566Y022140D01*
X036666Y022140D01*
X036666Y018040D01*
X041566Y018040D01*
X040632Y018479D02*
X040518Y018592D01*
X040291Y018592D01*
X040291Y018724D02*
X040291Y018951D01*
X040291Y018838D02*
X040632Y018838D01*
X040518Y018724D01*
X040462Y018592D02*
X040462Y018365D01*
X040518Y018365D02*
X040632Y018479D01*
X040518Y018365D02*
X040291Y018365D01*
X040291Y019083D02*
X040348Y019083D01*
X040575Y019310D01*
X040632Y019310D01*
X040632Y019083D01*
X040348Y019499D02*
X040291Y019499D01*
X040291Y019556D01*
X040348Y019556D01*
X040348Y019499D01*
X040291Y019556D02*
X040178Y019443D01*
X040348Y019682D02*
X040291Y019739D01*
X040291Y019852D01*
X040348Y019909D01*
X040462Y019909D01*
X040518Y019852D01*
X040518Y019795D01*
X040462Y019682D01*
X040632Y019682D01*
X040632Y019909D01*
X040518Y020041D02*
X040518Y020098D01*
X040462Y020154D01*
X040518Y020211D01*
X040462Y020268D01*
X040291Y020268D01*
X040291Y020154D02*
X040462Y020154D01*
X040518Y020041D02*
X040291Y020041D01*
X040291Y020400D02*
X040518Y020400D01*
X040518Y020457D01*
X040462Y020514D01*
X040518Y020570D01*
X040462Y020627D01*
X040291Y020627D01*
X040291Y020514D02*
X040462Y020514D01*
X040856Y020090D02*
X040859Y020155D01*
X040868Y020219D01*
X040882Y020282D01*
X040903Y020343D01*
X040928Y020402D01*
X040959Y020459D01*
X040995Y020513D01*
X041036Y020563D01*
X041081Y020609D01*
X041131Y020651D01*
X041183Y020688D01*
X041239Y020720D01*
X041298Y020747D01*
X041359Y020769D01*
X041422Y020785D01*
X041485Y020795D01*
X041550Y020800D01*
X041614Y020798D01*
X041679Y020791D01*
X041742Y020778D01*
X041804Y020759D01*
X041864Y020735D01*
X041921Y020705D01*
X041975Y020670D01*
X042026Y020630D01*
X042074Y020586D01*
X042117Y020538D01*
X042155Y020486D01*
X042189Y020431D01*
X042217Y020373D01*
X042240Y020312D01*
X042258Y020250D01*
X042269Y020187D01*
X042275Y020122D01*
X042275Y020058D01*
X042269Y019993D01*
X042258Y019930D01*
X042240Y019868D01*
X042217Y019807D01*
X042189Y019749D01*
X042155Y019694D01*
X042117Y019642D01*
X042074Y019594D01*
X042026Y019550D01*
X041975Y019510D01*
X041921Y019475D01*
X041864Y019445D01*
X041804Y019421D01*
X041742Y019402D01*
X041679Y019389D01*
X041614Y019382D01*
X041550Y019380D01*
X041485Y019385D01*
X041422Y019395D01*
X041359Y019411D01*
X041298Y019433D01*
X041239Y019460D01*
X041183Y019492D01*
X041131Y019529D01*
X041081Y019571D01*
X041036Y019617D01*
X040995Y019667D01*
X040959Y019721D01*
X040928Y019778D01*
X040903Y019837D01*
X040882Y019898D01*
X040868Y019961D01*
X040859Y020025D01*
X040856Y020090D01*
X033091Y021365D02*
X032791Y021365D01*
X032941Y021365D02*
X032941Y021816D01*
X033091Y021665D01*
X032566Y022265D02*
X032641Y022340D01*
X032566Y022265D02*
X032416Y022265D01*
X032341Y022340D01*
X032341Y022415D01*
X032416Y022490D01*
X032566Y022490D01*
X032641Y022565D01*
X032641Y022641D01*
X032566Y022716D01*
X032416Y022716D01*
X032341Y022641D01*
X032181Y022716D02*
X032181Y022415D01*
X032031Y022265D01*
X031881Y022415D01*
X031881Y022716D01*
X031721Y022565D02*
X031571Y022716D01*
X031571Y022265D01*
X031721Y022265D02*
X031420Y022265D01*
X028541Y021590D02*
X028241Y021590D01*
X028316Y021365D02*
X028316Y021816D01*
X028541Y021590D01*
X024402Y021840D02*
X024327Y021765D01*
X024177Y021765D01*
X024102Y021840D01*
X024102Y021915D01*
X024177Y021990D01*
X024252Y021990D01*
X024177Y021990D02*
X024102Y022065D01*
X024102Y022141D01*
X024177Y022216D01*
X024327Y022216D01*
X024402Y022141D01*
X021452Y022065D02*
X021302Y022216D01*
X021302Y021765D01*
X021452Y021765D02*
X021152Y021765D01*
X020402Y021840D02*
X020327Y021765D01*
X020177Y021765D01*
X020102Y021840D01*
X020102Y021915D01*
X020177Y021990D01*
X020252Y021990D01*
X020177Y021990D02*
X020102Y022065D01*
X020102Y022141D01*
X020177Y022216D01*
X020327Y022216D01*
X020402Y022141D01*
X017452Y022065D02*
X017302Y022216D01*
X017302Y021765D01*
X017452Y021765D02*
X017152Y021765D01*
X016402Y021840D02*
X016327Y021765D01*
X016177Y021765D01*
X016102Y021840D01*
X016102Y021915D01*
X016177Y021990D01*
X016252Y021990D01*
X016177Y021990D02*
X016102Y022065D01*
X016102Y022141D01*
X016177Y022216D01*
X016327Y022216D01*
X016402Y022141D01*
X013452Y022065D02*
X013302Y022216D01*
X013302Y021765D01*
X013452Y021765D02*
X013152Y021765D01*
X013127Y018766D02*
X013202Y018691D01*
X013202Y018615D01*
X013127Y018540D01*
X012902Y018540D01*
X012902Y018390D02*
X012902Y018691D01*
X012977Y018766D01*
X013127Y018766D01*
X013362Y018691D02*
X013362Y018540D01*
X013437Y018465D01*
X013662Y018465D01*
X013662Y018315D02*
X013662Y018766D01*
X013437Y018766D01*
X013362Y018691D01*
X013512Y018465D02*
X013362Y018315D01*
X013202Y018390D02*
X013127Y018315D01*
X012977Y018315D01*
X012902Y018390D01*
X011685Y016994D02*
X011685Y016694D01*
X011685Y016844D02*
X012135Y016844D01*
X011985Y016694D01*
X012060Y016534D02*
X012135Y016459D01*
X012135Y016234D01*
X011685Y016234D01*
X011685Y016459D01*
X011760Y016534D01*
X012060Y016534D01*
X012060Y013744D02*
X012135Y013669D01*
X012135Y013519D01*
X012060Y013444D01*
X012060Y013284D02*
X012135Y013209D01*
X012135Y012984D01*
X011685Y012984D01*
X011685Y013209D01*
X011760Y013284D01*
X012060Y013284D01*
X011685Y013444D02*
X011985Y013744D01*
X012060Y013744D01*
X011685Y013744D02*
X011685Y013444D01*
X006666Y012040D02*
X006666Y016140D01*
X001766Y016140D01*
X001766Y015790D01*
X001166Y015790D01*
X001166Y016140D01*
X000416Y016140D01*
X000416Y012040D01*
X001166Y012040D01*
X001166Y012390D01*
X001766Y012390D01*
X001766Y012040D01*
X006666Y012040D01*
X006666Y010140D02*
X001766Y010140D01*
X001766Y009790D01*
X001166Y009790D01*
X001166Y010140D01*
X000416Y010140D01*
X000416Y006040D01*
X001166Y006040D01*
X001166Y006390D01*
X001766Y006390D01*
X001766Y006040D01*
X006666Y006040D01*
X006666Y010140D01*
X003042Y009015D02*
X003042Y008788D01*
X002872Y008788D01*
X002928Y008901D01*
X002928Y008958D01*
X002872Y009015D01*
X002758Y009015D01*
X002701Y008958D01*
X002701Y008845D01*
X002758Y008788D01*
X002758Y008662D02*
X002758Y008605D01*
X002701Y008605D01*
X002701Y008662D01*
X002758Y008662D01*
X002701Y008662D02*
X002588Y008549D01*
X002758Y008189D02*
X002985Y008416D01*
X003042Y008416D01*
X003042Y008189D01*
X003042Y007944D02*
X002701Y007944D01*
X002701Y008057D02*
X002701Y007830D01*
X002701Y007698D02*
X002928Y007698D01*
X003042Y007585D01*
X002928Y007471D01*
X002701Y007471D01*
X002872Y007471D02*
X002872Y007698D01*
X002928Y007830D02*
X003042Y007944D01*
X002758Y008189D02*
X002701Y008189D01*
X001056Y008090D02*
X001059Y008155D01*
X001068Y008219D01*
X001082Y008282D01*
X001103Y008343D01*
X001128Y008402D01*
X001159Y008459D01*
X001195Y008513D01*
X001236Y008563D01*
X001281Y008609D01*
X001331Y008651D01*
X001383Y008688D01*
X001439Y008720D01*
X001498Y008747D01*
X001559Y008769D01*
X001622Y008785D01*
X001685Y008795D01*
X001750Y008800D01*
X001814Y008798D01*
X001879Y008791D01*
X001942Y008778D01*
X002004Y008759D01*
X002064Y008735D01*
X002121Y008705D01*
X002175Y008670D01*
X002226Y008630D01*
X002274Y008586D01*
X002317Y008538D01*
X002355Y008486D01*
X002389Y008431D01*
X002417Y008373D01*
X002440Y008312D01*
X002458Y008250D01*
X002469Y008187D01*
X002475Y008122D01*
X002475Y008058D01*
X002469Y007993D01*
X002458Y007930D01*
X002440Y007868D01*
X002417Y007807D01*
X002389Y007749D01*
X002355Y007694D01*
X002317Y007642D01*
X002274Y007594D01*
X002226Y007550D01*
X002175Y007510D01*
X002121Y007475D01*
X002064Y007445D01*
X002004Y007421D01*
X001942Y007402D01*
X001879Y007389D01*
X001814Y007382D01*
X001750Y007380D01*
X001685Y007385D01*
X001622Y007395D01*
X001559Y007411D01*
X001498Y007433D01*
X001439Y007460D01*
X001383Y007492D01*
X001331Y007529D01*
X001281Y007571D01*
X001236Y007617D01*
X001195Y007667D01*
X001159Y007721D01*
X001128Y007778D01*
X001103Y007837D01*
X001082Y007898D01*
X001068Y007961D01*
X001059Y008025D01*
X001056Y008090D01*
X002701Y009147D02*
X002928Y009147D01*
X002928Y009204D01*
X002872Y009260D01*
X002928Y009317D01*
X002872Y009374D01*
X002701Y009374D01*
X002701Y009260D02*
X002872Y009260D01*
X002928Y009506D02*
X002928Y009563D01*
X002872Y009619D01*
X002928Y009676D01*
X002872Y009733D01*
X002701Y009733D01*
X002701Y009619D02*
X002872Y009619D01*
X002928Y009506D02*
X002701Y009506D01*
X002701Y013471D02*
X002928Y013471D01*
X003042Y013585D01*
X002928Y013698D01*
X002701Y013698D01*
X002701Y013830D02*
X002701Y014057D01*
X002701Y013944D02*
X003042Y013944D01*
X002928Y013830D01*
X002872Y013698D02*
X002872Y013471D01*
X002758Y014189D02*
X002701Y014189D01*
X002758Y014189D02*
X002985Y014416D01*
X003042Y014416D01*
X003042Y014189D01*
X002758Y014605D02*
X002701Y014605D01*
X002701Y014662D01*
X002758Y014662D01*
X002758Y014605D01*
X002701Y014662D02*
X002588Y014549D01*
X002758Y014788D02*
X002701Y014845D01*
X002701Y014958D01*
X002758Y015015D01*
X002872Y015015D01*
X002928Y014958D01*
X002928Y014901D01*
X002872Y014788D01*
X003042Y014788D01*
X003042Y015015D01*
X002928Y015147D02*
X002928Y015204D01*
X002872Y015260D01*
X002928Y015317D01*
X002872Y015374D01*
X002701Y015374D01*
X002701Y015260D02*
X002872Y015260D01*
X002928Y015147D02*
X002701Y015147D01*
X002701Y015506D02*
X002928Y015506D01*
X002928Y015563D01*
X002872Y015619D01*
X002928Y015676D01*
X002872Y015733D01*
X002701Y015733D01*
X002701Y015619D02*
X002872Y015619D01*
X001056Y014090D02*
X001059Y014155D01*
X001068Y014219D01*
X001082Y014282D01*
X001103Y014343D01*
X001128Y014402D01*
X001159Y014459D01*
X001195Y014513D01*
X001236Y014563D01*
X001281Y014609D01*
X001331Y014651D01*
X001383Y014688D01*
X001439Y014720D01*
X001498Y014747D01*
X001559Y014769D01*
X001622Y014785D01*
X001685Y014795D01*
X001750Y014800D01*
X001814Y014798D01*
X001879Y014791D01*
X001942Y014778D01*
X002004Y014759D01*
X002064Y014735D01*
X002121Y014705D01*
X002175Y014670D01*
X002226Y014630D01*
X002274Y014586D01*
X002317Y014538D01*
X002355Y014486D01*
X002389Y014431D01*
X002417Y014373D01*
X002440Y014312D01*
X002458Y014250D01*
X002469Y014187D01*
X002475Y014122D01*
X002475Y014058D01*
X002469Y013993D01*
X002458Y013930D01*
X002440Y013868D01*
X002417Y013807D01*
X002389Y013749D01*
X002355Y013694D01*
X002317Y013642D01*
X002274Y013594D01*
X002226Y013550D01*
X002175Y013510D01*
X002121Y013475D01*
X002064Y013445D01*
X002004Y013421D01*
X001942Y013402D01*
X001879Y013389D01*
X001814Y013382D01*
X001750Y013380D01*
X001685Y013385D01*
X001622Y013395D01*
X001559Y013411D01*
X001498Y013433D01*
X001439Y013460D01*
X001383Y013492D01*
X001331Y013529D01*
X001281Y013571D01*
X001236Y013617D01*
X001195Y013667D01*
X001159Y013721D01*
X001128Y013778D01*
X001103Y013837D01*
X001082Y013898D01*
X001068Y013961D01*
X001059Y014025D01*
X001056Y014090D01*
X001166Y018040D02*
X000416Y018040D01*
X000416Y022140D01*
X001166Y022140D01*
X001166Y021790D01*
X001766Y021790D01*
X001766Y022140D01*
X006666Y022140D01*
X006666Y018040D01*
X001766Y018040D01*
X001766Y018390D01*
X001166Y018390D01*
X001166Y018040D01*
X002701Y019471D02*
X002928Y019471D01*
X003042Y019585D01*
X002928Y019698D01*
X002701Y019698D01*
X002701Y019830D02*
X002701Y020057D01*
X002701Y019944D02*
X003042Y019944D01*
X002928Y019830D01*
X002872Y019698D02*
X002872Y019471D01*
X001056Y020090D02*
X001059Y020155D01*
X001068Y020219D01*
X001082Y020282D01*
X001103Y020343D01*
X001128Y020402D01*
X001159Y020459D01*
X001195Y020513D01*
X001236Y020563D01*
X001281Y020609D01*
X001331Y020651D01*
X001383Y020688D01*
X001439Y020720D01*
X001498Y020747D01*
X001559Y020769D01*
X001622Y020785D01*
X001685Y020795D01*
X001750Y020800D01*
X001814Y020798D01*
X001879Y020791D01*
X001942Y020778D01*
X002004Y020759D01*
X002064Y020735D01*
X002121Y020705D01*
X002175Y020670D01*
X002226Y020630D01*
X002274Y020586D01*
X002317Y020538D01*
X002355Y020486D01*
X002389Y020431D01*
X002417Y020373D01*
X002440Y020312D01*
X002458Y020250D01*
X002469Y020187D01*
X002475Y020122D01*
X002475Y020058D01*
X002469Y019993D01*
X002458Y019930D01*
X002440Y019868D01*
X002417Y019807D01*
X002389Y019749D01*
X002355Y019694D01*
X002317Y019642D01*
X002274Y019594D01*
X002226Y019550D01*
X002175Y019510D01*
X002121Y019475D01*
X002064Y019445D01*
X002004Y019421D01*
X001942Y019402D01*
X001879Y019389D01*
X001814Y019382D01*
X001750Y019380D01*
X001685Y019385D01*
X001622Y019395D01*
X001559Y019411D01*
X001498Y019433D01*
X001439Y019460D01*
X001383Y019492D01*
X001331Y019529D01*
X001281Y019571D01*
X001236Y019617D01*
X001195Y019667D01*
X001159Y019721D01*
X001128Y019778D01*
X001103Y019837D01*
X001082Y019898D01*
X001068Y019961D01*
X001059Y020025D01*
X001056Y020090D01*
X002588Y020549D02*
X002701Y020662D01*
X002701Y020605D01*
X002758Y020605D01*
X002758Y020662D01*
X002701Y020662D01*
X002758Y020788D02*
X002701Y020845D01*
X002701Y020958D01*
X002758Y021015D01*
X002872Y021015D01*
X002928Y020958D01*
X002928Y020901D01*
X002872Y020788D01*
X003042Y020788D01*
X003042Y021015D01*
X002928Y021147D02*
X002928Y021204D01*
X002872Y021260D01*
X002928Y021317D01*
X002872Y021374D01*
X002701Y021374D01*
X002701Y021260D02*
X002872Y021260D01*
X002928Y021147D02*
X002701Y021147D01*
X002701Y021506D02*
X002928Y021506D01*
X002928Y021563D01*
X002872Y021619D01*
X002928Y021676D01*
X002872Y021733D01*
X002701Y021733D01*
X002701Y021619D02*
X002872Y021619D01*
X002985Y020416D02*
X003042Y020416D01*
X003042Y020189D01*
X002985Y020416D02*
X002758Y020189D01*
X002701Y020189D01*
X016902Y018691D02*
X017202Y018390D01*
X017127Y018315D01*
X016977Y018315D01*
X016902Y018390D01*
X016902Y018691D01*
X016977Y018766D01*
X017127Y018766D01*
X017202Y018691D01*
X017202Y018390D01*
X017362Y018315D02*
X017662Y018315D01*
X017512Y018315D02*
X017512Y018766D01*
X017662Y018615D01*
X017822Y018540D02*
X017822Y018691D01*
X017897Y018766D01*
X018123Y018766D01*
X018123Y018315D01*
X018123Y018465D02*
X017897Y018465D01*
X017822Y018540D01*
X017972Y018465D02*
X017822Y018315D01*
X020902Y018315D02*
X021202Y018315D01*
X021052Y018315D02*
X021052Y018766D01*
X021202Y018615D01*
X021362Y018315D02*
X021662Y018315D01*
X021512Y018315D02*
X021512Y018766D01*
X021662Y018615D01*
X021822Y018540D02*
X021822Y018691D01*
X021897Y018766D01*
X022123Y018766D01*
X022123Y018315D01*
X022123Y018465D02*
X021897Y018465D01*
X021822Y018540D01*
X021972Y018465D02*
X021822Y018315D01*
X012135Y010419D02*
X012060Y010494D01*
X011985Y010494D01*
X011910Y010419D01*
X011835Y010494D01*
X011760Y010494D01*
X011685Y010419D01*
X011685Y010269D01*
X011760Y010194D01*
X011760Y010034D02*
X012060Y010034D01*
X012135Y009959D01*
X012135Y009734D01*
X011685Y009734D01*
X011685Y009959D01*
X011760Y010034D01*
X012060Y010194D02*
X012135Y010269D01*
X012135Y010419D01*
X011910Y010419D02*
X011910Y010344D01*
X011877Y005066D02*
X012027Y005066D01*
X012102Y004991D01*
X012262Y005066D02*
X012262Y004765D01*
X012412Y004615D01*
X012562Y004765D01*
X012562Y005066D01*
X012722Y004991D02*
X012797Y005066D01*
X012948Y005066D01*
X013023Y004991D01*
X013023Y004915D01*
X012948Y004840D01*
X012797Y004840D01*
X012722Y004765D01*
X012722Y004690D01*
X012797Y004615D01*
X012948Y004615D01*
X013023Y004690D01*
X012102Y004615D02*
X011802Y004915D01*
X011802Y004991D01*
X011877Y005066D01*
X011802Y004615D02*
X012102Y004615D01*
X011617Y003666D02*
X011692Y003591D01*
X011692Y003290D01*
X011617Y003215D01*
X011467Y003215D01*
X011392Y003290D01*
X011232Y003290D02*
X010932Y003591D01*
X010932Y003666D01*
X011232Y003666D01*
X011392Y003591D02*
X011467Y003666D01*
X011617Y003666D01*
X011232Y003290D02*
X011232Y003215D01*
X011941Y003155D02*
X011941Y002855D01*
X011941Y003005D02*
X012392Y003005D01*
X012242Y002855D01*
X012941Y002855D02*
X013242Y003155D01*
X013317Y003155D01*
X013392Y003080D01*
X013392Y002930D01*
X013317Y002855D01*
X012941Y002855D02*
X012941Y003155D01*
X013941Y003080D02*
X013941Y002930D01*
X014016Y002855D01*
X014167Y003005D02*
X014167Y003080D01*
X014092Y003155D01*
X014016Y003155D01*
X013941Y003080D01*
X014167Y003080D02*
X014242Y003155D01*
X014317Y003155D01*
X014392Y003080D01*
X014392Y002930D01*
X014317Y002855D01*
X014941Y003080D02*
X015392Y003080D01*
X015167Y002855D01*
X015167Y003155D01*
X015941Y003080D02*
X015941Y002930D01*
X016016Y002855D01*
X016167Y002855D02*
X016242Y003005D01*
X016242Y003080D01*
X016167Y003155D01*
X016016Y003155D01*
X015941Y003080D01*
X016167Y002855D02*
X016392Y002855D01*
X016392Y003155D01*
X016941Y003080D02*
X017016Y003155D01*
X017092Y003155D01*
X017167Y003080D01*
X017167Y002855D01*
X017016Y002855D01*
X016941Y002930D01*
X016941Y003080D01*
X017167Y002855D02*
X017317Y003005D01*
X017392Y003155D01*
X017941Y002855D02*
X018016Y002855D01*
X018317Y003155D01*
X018392Y003155D01*
X018392Y002855D01*
X018941Y002930D02*
X019016Y002855D01*
X019092Y002855D01*
X019167Y002930D01*
X019167Y003080D01*
X019092Y003155D01*
X019016Y003155D01*
X018941Y003080D01*
X018941Y002930D01*
X019167Y002930D02*
X019242Y002855D01*
X019317Y002855D01*
X019392Y002930D01*
X019392Y003080D01*
X019317Y003155D01*
X019242Y003155D01*
X019167Y003080D01*
X019941Y003080D02*
X020016Y003155D01*
X020317Y003155D01*
X020392Y003080D01*
X020392Y002930D01*
X020317Y002855D01*
X020242Y002855D01*
X020167Y002930D01*
X020167Y003155D01*
X019941Y003080D02*
X019941Y002930D01*
X020016Y002855D01*
X020941Y002745D02*
X020941Y002444D01*
X020941Y002595D02*
X021392Y002595D01*
X021242Y002444D01*
X021317Y002905D02*
X021392Y002980D01*
X021392Y003130D01*
X021317Y003205D01*
X021016Y002905D01*
X020941Y002980D01*
X020941Y003130D01*
X021016Y003205D01*
X021317Y003205D01*
X021941Y003155D02*
X021941Y002855D01*
X021941Y003005D02*
X022392Y003005D01*
X022242Y002855D01*
X021941Y002695D02*
X021941Y002394D01*
X021941Y002545D02*
X022392Y002545D01*
X022242Y002394D01*
X022941Y002444D02*
X022941Y002745D01*
X022941Y002595D02*
X023392Y002595D01*
X023242Y002444D01*
X023317Y002905D02*
X023392Y002980D01*
X023392Y003130D01*
X023317Y003205D01*
X023242Y003205D01*
X022941Y002905D01*
X022941Y003205D01*
X023941Y003080D02*
X023941Y002930D01*
X024016Y002855D01*
X023941Y002695D02*
X023941Y002394D01*
X023941Y002545D02*
X024392Y002545D01*
X024242Y002394D01*
X024317Y002855D02*
X024392Y002930D01*
X024392Y003080D01*
X024317Y003155D01*
X024242Y003155D01*
X024167Y003080D01*
X024092Y003155D01*
X024016Y003155D01*
X023941Y003080D01*
X024167Y003080D02*
X024167Y003005D01*
X024941Y003130D02*
X025392Y003130D01*
X025167Y002905D01*
X025167Y003205D01*
X025941Y003130D02*
X025941Y002980D01*
X026016Y002905D01*
X026167Y002905D02*
X026242Y003055D01*
X026242Y003130D01*
X026167Y003205D01*
X026016Y003205D01*
X025941Y003130D01*
X026167Y002905D02*
X026392Y002905D01*
X026392Y003205D01*
X026941Y003130D02*
X027016Y003205D01*
X027092Y003205D01*
X027167Y003130D01*
X027167Y002905D01*
X027016Y002905D01*
X026941Y002980D01*
X026941Y003130D01*
X027167Y002905D02*
X027317Y003055D01*
X027392Y003205D01*
X027941Y002905D02*
X028016Y002905D01*
X028317Y003205D01*
X028392Y003205D01*
X028392Y002905D01*
X028392Y002595D02*
X027941Y002595D01*
X027941Y002745D02*
X027941Y002444D01*
X028242Y002444D02*
X028392Y002595D01*
X028941Y002595D02*
X029392Y002595D01*
X029242Y002444D01*
X028941Y002444D02*
X028941Y002745D01*
X029016Y002905D02*
X029092Y002905D01*
X029167Y002980D01*
X029167Y003130D01*
X029092Y003205D01*
X029016Y003205D01*
X028941Y003130D01*
X028941Y002980D01*
X029016Y002905D01*
X029167Y002980D02*
X029242Y002905D01*
X029317Y002905D01*
X029392Y002980D01*
X029392Y003130D01*
X029317Y003205D01*
X029242Y003205D01*
X029167Y003130D01*
X029941Y003130D02*
X030016Y003205D01*
X030317Y003205D01*
X030392Y003130D01*
X030392Y002980D01*
X030317Y002905D01*
X030242Y002905D01*
X030167Y002980D01*
X030167Y003205D01*
X029941Y003130D02*
X029941Y002980D01*
X030016Y002905D01*
X029941Y002745D02*
X029941Y002444D01*
X029941Y002595D02*
X030392Y002595D01*
X030242Y002444D01*
X030941Y002494D02*
X031242Y002795D01*
X031317Y002795D01*
X031392Y002720D01*
X031392Y002570D01*
X031317Y002494D01*
X030941Y002494D02*
X030941Y002795D01*
X031016Y002955D02*
X031317Y002955D01*
X031392Y003030D01*
X031392Y003180D01*
X031317Y003255D01*
X031016Y002955D01*
X030941Y003030D01*
X030941Y003180D01*
X031016Y003255D01*
X031317Y003255D01*
X027392Y002595D02*
X026941Y002595D01*
X026941Y002745D02*
X026941Y002444D01*
X027242Y002444D02*
X027392Y002595D01*
X026392Y002595D02*
X025941Y002595D01*
X025941Y002745D02*
X025941Y002444D01*
X026242Y002444D02*
X026392Y002595D01*
X025392Y002595D02*
X024941Y002595D01*
X024941Y002745D02*
X024941Y002444D01*
X025242Y002444D02*
X025392Y002595D01*
X021317Y002905D02*
X021016Y002905D01*
X035932Y003228D02*
X035932Y003303D01*
X036007Y003378D01*
X036232Y003378D01*
X036232Y003228D01*
X036157Y003153D01*
X036007Y003153D01*
X035932Y003228D01*
X036082Y003528D02*
X036232Y003378D01*
X036082Y003528D02*
X035932Y003603D01*
X036392Y003528D02*
X036467Y003603D01*
X036617Y003603D01*
X036692Y003528D01*
X036692Y003228D01*
X036617Y003153D01*
X036467Y003153D01*
X036392Y003228D01*
D17*
X032104Y012908D02*
X031604Y012908D01*
X031104Y012908D01*
X031104Y013148D02*
X031104Y013398D01*
X032104Y013398D01*
X032104Y013148D01*
X031104Y013148D01*
X031104Y013648D02*
X031604Y013648D01*
X032104Y013648D01*
D18*
X039251Y013585D02*
X039251Y013375D01*
X039356Y013270D01*
X039567Y013270D02*
X039672Y013480D01*
X039672Y013585D01*
X039567Y013690D01*
X039356Y013690D01*
X039251Y013585D01*
X039567Y013270D02*
X039882Y013270D01*
X039882Y013690D01*
X039777Y013046D02*
X039882Y012940D01*
X039882Y012730D01*
X039777Y012625D01*
X039356Y012625D01*
X039251Y012730D01*
X039251Y012940D01*
X039356Y013046D01*
X039777Y013046D01*
X039462Y012835D02*
X039251Y013046D01*
X039356Y007690D02*
X039462Y007690D01*
X039567Y007585D01*
X039567Y007270D01*
X039356Y007270D01*
X039251Y007375D01*
X039251Y007585D01*
X039356Y007690D01*
X039777Y007480D02*
X039567Y007270D01*
X039777Y007480D02*
X039882Y007690D01*
X039777Y007046D02*
X039356Y007046D01*
X039251Y006940D01*
X039251Y006730D01*
X039356Y006625D01*
X039777Y006625D01*
X039882Y006730D01*
X039882Y006940D01*
X039777Y007046D01*
X039462Y006835D02*
X039251Y007046D01*
X039356Y018625D02*
X039777Y018625D01*
X039882Y018730D01*
X039882Y018940D01*
X039777Y019046D01*
X039356Y019046D01*
X039251Y018940D01*
X039251Y018730D01*
X039356Y018625D01*
X039462Y018835D02*
X039251Y019046D01*
X039567Y019270D02*
X039567Y019690D01*
X039882Y019585D02*
X039567Y019270D01*
X039882Y019585D02*
X039251Y019585D01*
X004082Y020441D02*
X003977Y020336D01*
X003556Y020336D01*
X003451Y020441D01*
X003451Y020651D01*
X003556Y020756D01*
X003977Y020756D01*
X004082Y020651D01*
X004082Y020441D01*
X003662Y020546D02*
X003451Y020756D01*
X003451Y020981D02*
X003451Y021401D01*
X003451Y021191D02*
X004082Y021191D01*
X003872Y020981D01*
X003872Y015401D02*
X003977Y015401D01*
X004082Y015296D01*
X004082Y015086D01*
X003977Y014981D01*
X003977Y014756D02*
X003556Y014756D01*
X003451Y014651D01*
X003451Y014441D01*
X003556Y014336D01*
X003977Y014336D01*
X004082Y014441D01*
X004082Y014651D01*
X003977Y014756D01*
X003662Y014546D02*
X003451Y014756D01*
X003451Y014981D02*
X003872Y015401D01*
X003451Y015401D02*
X003451Y014981D01*
X003556Y009401D02*
X003451Y009296D01*
X003451Y009086D01*
X003556Y008981D01*
X003556Y008756D02*
X003977Y008756D01*
X004082Y008651D01*
X004082Y008441D01*
X003977Y008336D01*
X003556Y008336D01*
X003451Y008441D01*
X003451Y008651D01*
X003556Y008756D01*
X003451Y008756D02*
X003662Y008546D01*
X003977Y008981D02*
X004082Y009086D01*
X004082Y009296D01*
X003977Y009401D01*
X003872Y009401D01*
X003767Y009296D01*
X003662Y009401D01*
X003556Y009401D01*
X003767Y009296D02*
X003767Y009191D01*
D19*
X003166Y009890D02*
X006416Y009890D01*
X006416Y006290D01*
X003166Y006290D01*
X003166Y009890D01*
X003166Y012290D02*
X006416Y012290D01*
X006416Y015890D01*
X003166Y015890D01*
X003166Y012290D01*
X003166Y018290D02*
X006416Y018290D01*
X006416Y021890D01*
X003166Y021890D01*
X003166Y018290D01*
X036916Y018290D02*
X040166Y018290D01*
X040166Y021890D01*
X036916Y021890D01*
X036916Y018290D01*
X036916Y015890D02*
X040166Y015890D01*
X040166Y012290D01*
X036916Y012290D01*
X036916Y015890D01*
X036916Y009890D02*
X040166Y009890D01*
X040166Y006290D01*
X036916Y006290D01*
X036916Y009890D01*
D20*
X035441Y009090D03*
X035441Y008090D03*
X035441Y007090D03*
X035441Y013090D03*
X035441Y014090D03*
X035441Y015090D03*
X035441Y019090D03*
X035441Y020090D03*
X035441Y021090D03*
X007891Y021090D03*
X007891Y020090D03*
X007891Y019090D03*
X007891Y015090D03*
X007891Y014090D03*
X007891Y013090D03*
X007891Y009090D03*
X007891Y008090D03*
X007891Y007090D03*
D21*
X007216Y007090D03*
X007216Y008090D03*
X007216Y009090D03*
X007216Y013090D03*
X007216Y014090D03*
X007216Y015090D03*
X007216Y019090D03*
X007216Y020090D03*
X007216Y021090D03*
X036116Y021090D03*
X036116Y020090D03*
X036116Y019090D03*
X036116Y015090D03*
X036116Y014090D03*
X036116Y013090D03*
X036116Y009090D03*
X036116Y008090D03*
X036116Y007090D03*
D22*
X022662Y022264D02*
X022662Y022214D01*
X022661Y022215D02*
X022588Y022213D01*
X022514Y022207D01*
X022442Y022197D01*
X022370Y022183D01*
X022298Y022165D01*
X022228Y022143D01*
X022159Y022118D01*
X022092Y022089D01*
X022026Y022057D01*
X021962Y022021D01*
X021900Y021982D01*
X021840Y021939D01*
X021782Y021894D01*
X021727Y021845D01*
X021675Y021793D01*
X021626Y021739D01*
X021579Y021682D01*
X021536Y021623D01*
X021496Y021562D01*
X021459Y021498D01*
X021425Y021433D01*
X021395Y021366D01*
X021369Y021297D01*
X021347Y021227D01*
X021328Y021156D01*
X021313Y021084D01*
X021302Y021012D01*
X021295Y020939D01*
X021291Y020865D01*
X021292Y020792D01*
X021296Y020719D01*
X021305Y020646D01*
X021317Y020573D01*
X021333Y020502D01*
X021353Y020431D01*
X021377Y020362D01*
X021404Y020294D01*
X021435Y020227D01*
X021470Y020162D01*
X021427Y020138D01*
X021426Y020137D01*
X021391Y020203D01*
X021360Y020270D01*
X021332Y020339D01*
X021308Y020409D01*
X021287Y020480D01*
X021270Y020552D01*
X021257Y020625D01*
X021248Y020699D01*
X021243Y020773D01*
X021241Y020847D01*
X021243Y020921D01*
X021249Y020995D01*
X021260Y021069D01*
X021273Y021142D01*
X021291Y021214D01*
X021312Y021285D01*
X021337Y021355D01*
X021366Y021423D01*
X021398Y021490D01*
X021434Y021555D01*
X021472Y021618D01*
X021515Y021680D01*
X021560Y021738D01*
X021608Y021795D01*
X021659Y021848D01*
X021713Y021899D01*
X021769Y021948D01*
X021828Y021993D01*
X021889Y022035D01*
X021953Y022074D01*
X022018Y022109D01*
X022085Y022141D01*
X022153Y022170D01*
X022223Y022194D01*
X022294Y022216D01*
X022366Y022233D01*
X022439Y022247D01*
X022513Y022257D01*
X022587Y022263D01*
X022661Y022265D01*
X022661Y022256D01*
X022587Y022254D01*
X022514Y022248D01*
X022441Y022238D01*
X022368Y022224D01*
X022297Y022207D01*
X022226Y022186D01*
X022157Y022161D01*
X022088Y022133D01*
X022022Y022101D01*
X021957Y022066D01*
X021894Y022027D01*
X021834Y021986D01*
X021775Y021941D01*
X021719Y021893D01*
X021666Y021842D01*
X021615Y021789D01*
X021567Y021733D01*
X021522Y021674D01*
X021480Y021614D01*
X021441Y021551D01*
X021406Y021486D01*
X021374Y021420D01*
X021346Y021352D01*
X021321Y021282D01*
X021300Y021212D01*
X021282Y021140D01*
X021268Y021067D01*
X021258Y020994D01*
X021252Y020921D01*
X021250Y020847D01*
X021252Y020774D01*
X021257Y020700D01*
X021266Y020627D01*
X021279Y020554D01*
X021296Y020482D01*
X021316Y020412D01*
X021340Y020342D01*
X021368Y020274D01*
X021399Y020207D01*
X021434Y020142D01*
X021442Y020146D01*
X021407Y020213D01*
X021375Y020281D01*
X021347Y020350D01*
X021323Y020422D01*
X021302Y020494D01*
X021286Y020567D01*
X021273Y020641D01*
X021264Y020716D01*
X021260Y020791D01*
X021259Y020866D01*
X021263Y020941D01*
X021270Y021016D01*
X021281Y021090D01*
X021297Y021164D01*
X021316Y021236D01*
X021339Y021308D01*
X021366Y021378D01*
X021396Y021447D01*
X021431Y021513D01*
X021468Y021578D01*
X021509Y021641D01*
X021554Y021702D01*
X021602Y021760D01*
X021652Y021816D01*
X021706Y021868D01*
X021762Y021918D01*
X021821Y021965D01*
X021882Y022008D01*
X021945Y022049D01*
X022011Y022085D01*
X022078Y022118D01*
X022148Y022148D01*
X022218Y022174D01*
X022290Y022196D01*
X022363Y022214D01*
X022437Y022228D01*
X022511Y022238D01*
X022586Y022245D01*
X022661Y022247D01*
X022661Y022238D01*
X022586Y022236D01*
X022512Y022229D01*
X022438Y022219D01*
X022365Y022205D01*
X022292Y022187D01*
X022221Y022165D01*
X022151Y022140D01*
X022082Y022110D01*
X022015Y022077D01*
X021950Y022041D01*
X021887Y022001D01*
X021826Y021958D01*
X021768Y021911D01*
X021712Y021862D01*
X021659Y021809D01*
X021608Y021754D01*
X021561Y021696D01*
X021517Y021636D01*
X021476Y021574D01*
X021439Y021509D01*
X021405Y021443D01*
X021374Y021375D01*
X021348Y021305D01*
X021325Y021234D01*
X021305Y021162D01*
X021290Y021089D01*
X021279Y021015D01*
X021272Y020940D01*
X021268Y020866D01*
X021269Y020791D01*
X021273Y020717D01*
X021282Y020643D01*
X021295Y020569D01*
X021311Y020496D01*
X021331Y020424D01*
X021355Y020354D01*
X021383Y020284D01*
X021415Y020217D01*
X021450Y020151D01*
X021458Y020155D01*
X021423Y020221D01*
X021391Y020288D01*
X021364Y020357D01*
X021340Y020427D01*
X021320Y020498D01*
X021303Y020571D01*
X021291Y020644D01*
X021282Y020718D01*
X021278Y020792D01*
X021277Y020866D01*
X021281Y020940D01*
X021288Y021014D01*
X021299Y021087D01*
X021314Y021160D01*
X021333Y021231D01*
X021356Y021302D01*
X021383Y021371D01*
X021413Y021439D01*
X021446Y021505D01*
X021484Y021569D01*
X021524Y021631D01*
X021568Y021691D01*
X021615Y021748D01*
X021665Y021803D01*
X021718Y021855D01*
X021773Y021904D01*
X021832Y021950D01*
X021892Y021993D01*
X021955Y022033D01*
X022019Y022069D01*
X022086Y022102D01*
X022154Y022131D01*
X022224Y022157D01*
X022295Y022178D01*
X022367Y022196D01*
X022439Y022210D01*
X022513Y022221D01*
X022587Y022227D01*
X022661Y022229D01*
X022661Y022220D01*
X022587Y022218D01*
X022514Y022212D01*
X022441Y022202D01*
X022369Y022188D01*
X022297Y022170D01*
X022227Y022148D01*
X022157Y022123D01*
X022090Y022094D01*
X022024Y022061D01*
X021959Y022025D01*
X021897Y021986D01*
X021837Y021943D01*
X021779Y021897D01*
X021724Y021849D01*
X021672Y021797D01*
X021622Y021742D01*
X021575Y021685D01*
X021532Y021626D01*
X021491Y021564D01*
X021454Y021501D01*
X021421Y021435D01*
X021391Y021368D01*
X021365Y021299D01*
X021342Y021229D01*
X021323Y021157D01*
X021308Y021085D01*
X021297Y021012D01*
X021290Y020939D01*
X021286Y020866D01*
X021287Y020792D01*
X021291Y020718D01*
X021300Y020645D01*
X021312Y020572D01*
X021328Y020501D01*
X021348Y020430D01*
X021372Y020360D01*
X021400Y020292D01*
X021431Y020225D01*
X021465Y020160D01*
X023890Y020112D02*
X023847Y020137D01*
X023848Y020137D02*
X023884Y020202D01*
X023916Y020268D01*
X023945Y020336D01*
X023971Y020406D01*
X023992Y020477D01*
X024010Y020549D01*
X024024Y020622D01*
X024033Y020696D01*
X024039Y020770D01*
X024041Y020844D01*
X024039Y020918D01*
X024033Y020992D01*
X024022Y021065D01*
X024008Y021138D01*
X023990Y021210D01*
X023968Y021281D01*
X023943Y021350D01*
X023913Y021419D01*
X023880Y021485D01*
X023844Y021549D01*
X023804Y021612D01*
X023761Y021672D01*
X023714Y021730D01*
X023665Y021785D01*
X023612Y021838D01*
X023557Y021887D01*
X023499Y021934D01*
X023439Y021977D01*
X023377Y022017D01*
X023312Y022054D01*
X023246Y022087D01*
X023178Y022116D01*
X023108Y022142D01*
X023037Y022164D01*
X022965Y022182D01*
X022892Y022196D01*
X022819Y022206D01*
X022745Y022213D01*
X022671Y022215D01*
X022670Y022264D01*
X022671Y022265D01*
X022746Y022263D01*
X022821Y022257D01*
X022895Y022246D01*
X022969Y022233D01*
X023041Y022215D01*
X023113Y022193D01*
X023184Y022168D01*
X023253Y022139D01*
X023320Y022106D01*
X023386Y022070D01*
X023450Y022030D01*
X023511Y021987D01*
X023570Y021941D01*
X023627Y021892D01*
X023681Y021840D01*
X023732Y021786D01*
X023780Y021728D01*
X023825Y021668D01*
X023867Y021606D01*
X023906Y021542D01*
X023941Y021476D01*
X023973Y021408D01*
X024001Y021339D01*
X024025Y021268D01*
X024046Y021196D01*
X024063Y021123D01*
X024076Y021049D01*
X024085Y020974D01*
X024090Y020899D01*
X024091Y020825D01*
X024088Y020750D01*
X024081Y020675D01*
X024071Y020601D01*
X024056Y020527D01*
X024038Y020455D01*
X024016Y020383D01*
X023990Y020313D01*
X023960Y020244D01*
X023927Y020177D01*
X023891Y020111D01*
X023883Y020116D01*
X023919Y020181D01*
X023952Y020248D01*
X023981Y020316D01*
X024007Y020386D01*
X024029Y020457D01*
X024047Y020529D01*
X024062Y020602D01*
X024072Y020676D01*
X024079Y020750D01*
X024082Y020825D01*
X024081Y020899D01*
X024076Y020973D01*
X024067Y021047D01*
X024054Y021121D01*
X024037Y021193D01*
X024017Y021265D01*
X023993Y021335D01*
X023965Y021404D01*
X023933Y021472D01*
X023898Y021538D01*
X023860Y021601D01*
X023818Y021663D01*
X023773Y021723D01*
X023725Y021780D01*
X023674Y021834D01*
X023621Y021886D01*
X023564Y021934D01*
X023506Y021980D01*
X023445Y022023D01*
X023381Y022062D01*
X023316Y022098D01*
X023249Y022130D01*
X023180Y022159D01*
X023110Y022184D01*
X023039Y022206D01*
X022967Y022224D01*
X022893Y022238D01*
X022820Y022248D01*
X022745Y022254D01*
X022671Y022256D01*
X022671Y022247D01*
X022745Y022245D01*
X022819Y022239D01*
X022892Y022229D01*
X022965Y022215D01*
X023037Y022197D01*
X023107Y022176D01*
X023177Y022151D01*
X023245Y022122D01*
X023312Y022090D01*
X023377Y022054D01*
X023440Y022015D01*
X023500Y021973D01*
X023559Y021927D01*
X023615Y021879D01*
X023668Y021828D01*
X023719Y021774D01*
X023766Y021717D01*
X023811Y021658D01*
X023852Y021597D01*
X023890Y021533D01*
X023925Y021468D01*
X023956Y021401D01*
X023984Y021332D01*
X024008Y021262D01*
X024028Y021191D01*
X024045Y021119D01*
X024058Y021046D01*
X024067Y020973D01*
X024072Y020899D01*
X024073Y020825D01*
X024070Y020751D01*
X024064Y020677D01*
X024053Y020604D01*
X024039Y020531D01*
X024021Y020460D01*
X023999Y020389D01*
X023973Y020319D01*
X023944Y020251D01*
X023911Y020185D01*
X023875Y020120D01*
X023867Y020125D01*
X023903Y020189D01*
X023936Y020255D01*
X023965Y020323D01*
X023990Y020392D01*
X024012Y020462D01*
X024030Y020533D01*
X024044Y020605D01*
X024055Y020678D01*
X024061Y020751D01*
X024064Y020825D01*
X024063Y020898D01*
X024058Y020972D01*
X024049Y021045D01*
X024036Y021117D01*
X024020Y021189D01*
X024000Y021260D01*
X023976Y021329D01*
X023948Y021397D01*
X023917Y021464D01*
X023883Y021529D01*
X023845Y021592D01*
X023803Y021653D01*
X023759Y021711D01*
X023712Y021768D01*
X023662Y021821D01*
X023609Y021872D01*
X023553Y021921D01*
X023495Y021966D01*
X023435Y022008D01*
X023372Y022046D01*
X023308Y022082D01*
X023242Y022114D01*
X023174Y022142D01*
X023105Y022167D01*
X023034Y022189D01*
X022963Y022206D01*
X022891Y022220D01*
X022818Y022230D01*
X022744Y022236D01*
X022671Y022238D01*
X022671Y022229D01*
X022744Y022227D01*
X022817Y022221D01*
X022889Y022211D01*
X022961Y022197D01*
X023032Y022180D01*
X023102Y022159D01*
X023171Y022134D01*
X023238Y022106D01*
X023304Y022074D01*
X023368Y022039D01*
X023430Y022000D01*
X023490Y021958D01*
X023547Y021914D01*
X023603Y021866D01*
X023655Y021815D01*
X023705Y021762D01*
X023752Y021706D01*
X023796Y021648D01*
X023837Y021587D01*
X023875Y021524D01*
X023909Y021460D01*
X023940Y021394D01*
X023967Y021326D01*
X023991Y021257D01*
X024011Y021187D01*
X024027Y021115D01*
X024040Y021043D01*
X024049Y020971D01*
X024054Y020898D01*
X024055Y020825D01*
X024052Y020752D01*
X024046Y020679D01*
X024035Y020607D01*
X024021Y020535D01*
X024003Y020464D01*
X023982Y020395D01*
X023956Y020326D01*
X023928Y020259D01*
X023895Y020193D01*
X023860Y020130D01*
X023852Y020134D01*
X023888Y020199D01*
X023921Y020266D01*
X023950Y020335D01*
X023976Y020405D01*
X023997Y020476D01*
X024015Y020548D01*
X024029Y020621D01*
X024038Y020695D01*
X024044Y020769D01*
X024046Y020844D01*
X024044Y020918D01*
X024038Y020992D01*
X024027Y021066D01*
X024013Y021139D01*
X023995Y021211D01*
X023973Y021282D01*
X023947Y021352D01*
X023918Y021421D01*
X023885Y021487D01*
X023848Y021552D01*
X023808Y021615D01*
X023765Y021675D01*
X023718Y021733D01*
X023668Y021789D01*
X023616Y021841D01*
X023560Y021891D01*
X023502Y021938D01*
X023442Y021981D01*
X023379Y022021D01*
X023314Y022058D01*
X023248Y022091D01*
X023179Y022121D01*
X023110Y022147D01*
X023039Y022169D01*
X022966Y022187D01*
X022893Y022201D01*
X022820Y022211D01*
X022745Y022218D01*
X022671Y022220D01*
X021938Y019616D02*
X021963Y019659D01*
X021963Y019658D02*
X022027Y019623D01*
X022093Y019590D01*
X022160Y019561D01*
X022229Y019536D01*
X022299Y019515D01*
X022370Y019497D01*
X022442Y019483D01*
X022515Y019473D01*
X022588Y019467D01*
X022661Y019465D01*
X022661Y019416D01*
X022661Y019415D01*
X022592Y019417D01*
X022523Y019422D01*
X022454Y019431D01*
X022386Y019443D01*
X022319Y019458D01*
X022252Y019476D01*
X022187Y019498D01*
X022122Y019523D01*
X022059Y019551D01*
X021997Y019582D01*
X021937Y019616D01*
X021942Y019623D01*
X022002Y019590D01*
X022063Y019559D01*
X022126Y019531D01*
X022190Y019506D01*
X022255Y019485D01*
X022321Y019467D01*
X022388Y019452D01*
X022456Y019440D01*
X022524Y019431D01*
X022592Y019426D01*
X022661Y019424D01*
X022661Y019433D01*
X022586Y019435D01*
X022511Y019442D01*
X022437Y019452D01*
X022363Y019466D01*
X022290Y019484D01*
X022219Y019506D01*
X022148Y019532D01*
X022079Y019561D01*
X022012Y019594D01*
X021946Y019631D01*
X021951Y019639D01*
X022016Y019602D01*
X022083Y019569D01*
X022151Y019540D01*
X022222Y019515D01*
X022293Y019493D01*
X022365Y019475D01*
X022438Y019461D01*
X022512Y019450D01*
X022586Y019444D01*
X022661Y019442D01*
X022661Y019451D01*
X022587Y019453D01*
X022513Y019459D01*
X022440Y019470D01*
X022367Y019484D01*
X022295Y019501D01*
X022224Y019523D01*
X022155Y019548D01*
X022087Y019578D01*
X022020Y019610D01*
X021956Y019646D01*
X021960Y019654D01*
X022024Y019618D01*
X022090Y019586D01*
X022158Y019557D01*
X022227Y019532D01*
X022298Y019510D01*
X022369Y019492D01*
X022441Y019478D01*
X022514Y019468D01*
X022587Y019462D01*
X022661Y019460D01*
X022670Y019416D02*
X022670Y019466D01*
X022671Y019465D02*
X022745Y019467D01*
X022819Y019474D01*
X022893Y019484D01*
X022966Y019498D01*
X023038Y019516D01*
X023109Y019538D01*
X023179Y019564D01*
X023247Y019594D01*
X023314Y019627D01*
X023379Y019664D01*
X023404Y019622D01*
X023405Y019621D01*
X023344Y019587D01*
X023281Y019555D01*
X023217Y019526D01*
X023152Y019500D01*
X023086Y019478D01*
X023018Y019459D01*
X022950Y019444D01*
X022881Y019431D01*
X022811Y019422D01*
X022741Y019417D01*
X022671Y019415D01*
X022671Y019424D01*
X022741Y019426D01*
X022810Y019431D01*
X022879Y019440D01*
X022948Y019452D01*
X023016Y019468D01*
X023083Y019487D01*
X023149Y019509D01*
X023214Y019534D01*
X023277Y019563D01*
X023340Y019594D01*
X023400Y019629D01*
X023395Y019637D01*
X023335Y019602D01*
X023274Y019571D01*
X023210Y019543D01*
X023146Y019517D01*
X023080Y019495D01*
X023014Y019477D01*
X022946Y019461D01*
X022878Y019449D01*
X022809Y019440D01*
X022740Y019435D01*
X022671Y019433D01*
X022671Y019442D01*
X022740Y019444D01*
X022808Y019449D01*
X022877Y019458D01*
X022944Y019470D01*
X023011Y019485D01*
X023078Y019504D01*
X023143Y019526D01*
X023207Y019551D01*
X023270Y019579D01*
X023331Y019610D01*
X023391Y019644D01*
X023386Y019652D01*
X023327Y019618D01*
X023266Y019587D01*
X023203Y019559D01*
X023140Y019534D01*
X023075Y019513D01*
X023009Y019494D01*
X022943Y019479D01*
X022875Y019467D01*
X022807Y019458D01*
X022739Y019453D01*
X022671Y019451D01*
X022671Y019460D01*
X022746Y019462D01*
X022820Y019469D01*
X022894Y019479D01*
X022967Y019493D01*
X023040Y019512D01*
X023111Y019534D01*
X023181Y019560D01*
X023250Y019589D01*
X023316Y019623D01*
X023381Y019660D01*
X022670Y019946D02*
X022670Y020036D01*
X022671Y020035D02*
X022727Y020037D01*
X022782Y020043D01*
X022837Y020053D01*
X022891Y020067D01*
X022944Y020084D01*
X022996Y020106D01*
X023046Y020130D01*
X023094Y020158D01*
X023140Y020189D01*
X023184Y020224D01*
X023225Y020261D01*
X023264Y020301D01*
X023300Y020344D01*
X023333Y020389D01*
X023362Y020436D01*
X023389Y020485D01*
X023411Y020536D01*
X023431Y020588D01*
X023446Y020642D01*
X023458Y020696D01*
X023466Y020752D01*
X023470Y020807D01*
X023471Y020863D01*
X023467Y020918D01*
X023460Y020974D01*
X023449Y021028D01*
X023434Y021082D01*
X023415Y021135D01*
X023393Y021186D01*
X023367Y021235D01*
X023338Y021283D01*
X023306Y021328D01*
X023271Y021371D01*
X023232Y021412D01*
X023192Y021450D01*
X023148Y021485D01*
X023102Y021517D01*
X023054Y021545D01*
X023005Y021570D01*
X022953Y021592D01*
X022984Y021676D01*
X022985Y021676D01*
X023039Y021653D01*
X023092Y021627D01*
X023143Y021597D01*
X023192Y021564D01*
X023239Y021528D01*
X023283Y021489D01*
X023324Y021446D01*
X023363Y021402D01*
X023398Y021355D01*
X023431Y021305D01*
X023460Y021254D01*
X023485Y021200D01*
X023507Y021146D01*
X023526Y021090D01*
X023540Y021032D01*
X023551Y020974D01*
X023558Y020916D01*
X023561Y020857D01*
X023560Y020798D01*
X023555Y020739D01*
X023547Y020680D01*
X023534Y020623D01*
X023518Y020566D01*
X023498Y020510D01*
X023474Y020456D01*
X023447Y020404D01*
X023417Y020353D01*
X023383Y020305D01*
X023346Y020258D01*
X023306Y020215D01*
X023264Y020174D01*
X023219Y020136D01*
X023171Y020101D01*
X023121Y020069D01*
X023069Y020041D01*
X023016Y020016D01*
X022961Y019995D01*
X022904Y019977D01*
X022847Y019963D01*
X022789Y019953D01*
X022730Y019947D01*
X022671Y019945D01*
X022671Y019954D01*
X022729Y019956D01*
X022788Y019962D01*
X022845Y019972D01*
X022902Y019986D01*
X022958Y020003D01*
X023012Y020024D01*
X023065Y020049D01*
X023117Y020077D01*
X023166Y020109D01*
X023213Y020143D01*
X023258Y020181D01*
X023300Y020221D01*
X023339Y020264D01*
X023376Y020310D01*
X023409Y020358D01*
X023440Y020408D01*
X023466Y020460D01*
X023490Y020514D01*
X023509Y020569D01*
X023525Y020625D01*
X023538Y020682D01*
X023546Y020740D01*
X023551Y020798D01*
X023552Y020856D01*
X023549Y020915D01*
X023542Y020973D01*
X023531Y021030D01*
X023517Y021087D01*
X023499Y021143D01*
X023477Y021197D01*
X023452Y021250D01*
X023423Y021300D01*
X023391Y021349D01*
X023356Y021396D01*
X023318Y021440D01*
X023277Y021482D01*
X023233Y021521D01*
X023187Y021557D01*
X023138Y021590D01*
X023088Y021619D01*
X023036Y021645D01*
X022982Y021668D01*
X022979Y021659D01*
X023032Y021637D01*
X023084Y021611D01*
X023134Y021582D01*
X023182Y021549D01*
X023227Y021514D01*
X023270Y021475D01*
X023311Y021434D01*
X023349Y021390D01*
X023384Y021344D01*
X023415Y021296D01*
X023444Y021245D01*
X023469Y021193D01*
X023490Y021139D01*
X023508Y021084D01*
X023523Y021028D01*
X023533Y020972D01*
X023540Y020914D01*
X023543Y020856D01*
X023542Y020798D01*
X023537Y020741D01*
X023529Y020684D01*
X023517Y020627D01*
X023501Y020571D01*
X023481Y020517D01*
X023458Y020464D01*
X023432Y020412D01*
X023402Y020363D01*
X023369Y020315D01*
X023333Y020270D01*
X023294Y020227D01*
X023252Y020187D01*
X023208Y020150D01*
X023161Y020116D01*
X023112Y020085D01*
X023061Y020057D01*
X023009Y020033D01*
X022955Y020012D01*
X022900Y019995D01*
X022843Y019981D01*
X022786Y019971D01*
X022729Y019965D01*
X022671Y019963D01*
X022671Y019972D01*
X022730Y019974D01*
X022788Y019981D01*
X022846Y019991D01*
X022903Y020005D01*
X022959Y020023D01*
X023013Y020044D01*
X023066Y020070D01*
X023117Y020098D01*
X023166Y020131D01*
X023213Y020166D01*
X023257Y020204D01*
X023299Y020246D01*
X023337Y020290D01*
X023373Y020337D01*
X023405Y020385D01*
X023434Y020436D01*
X023460Y020489D01*
X023482Y020544D01*
X023500Y020599D01*
X023514Y020656D01*
X023525Y020714D01*
X023531Y020772D01*
X023534Y020831D01*
X023533Y020890D01*
X023527Y020948D01*
X023518Y021006D01*
X023505Y021063D01*
X023488Y021119D01*
X023467Y021174D01*
X023443Y021227D01*
X023415Y021279D01*
X023383Y021329D01*
X023349Y021376D01*
X023311Y021421D01*
X023270Y021463D01*
X023227Y021502D01*
X023181Y021539D01*
X023132Y021572D01*
X023082Y021602D01*
X023030Y021628D01*
X022975Y021651D01*
X022972Y021643D01*
X023026Y021620D01*
X023078Y021594D01*
X023128Y021564D01*
X023176Y021532D01*
X023221Y021496D01*
X023264Y021457D01*
X023304Y021415D01*
X023342Y021370D01*
X023376Y021324D01*
X023407Y021274D01*
X023435Y021223D01*
X023459Y021171D01*
X023479Y021116D01*
X023496Y021061D01*
X023509Y021004D01*
X023518Y020947D01*
X023524Y020889D01*
X023525Y020831D01*
X023522Y020773D01*
X023516Y020715D01*
X023506Y020658D01*
X023491Y020602D01*
X023473Y020547D01*
X023452Y020493D01*
X023427Y020441D01*
X023398Y020390D01*
X023366Y020342D01*
X023331Y020296D01*
X023292Y020252D01*
X023251Y020211D01*
X023207Y020173D01*
X023161Y020138D01*
X023112Y020106D01*
X023062Y020078D01*
X023009Y020053D01*
X022956Y020031D01*
X022900Y020014D01*
X022844Y020000D01*
X022787Y019990D01*
X022729Y019983D01*
X022671Y019981D01*
X022671Y019990D01*
X022728Y019992D01*
X022785Y019998D01*
X022842Y020008D01*
X022898Y020022D01*
X022953Y020040D01*
X023006Y020061D01*
X023058Y020086D01*
X023108Y020114D01*
X023156Y020145D01*
X023202Y020180D01*
X023245Y020218D01*
X023286Y020258D01*
X023324Y020301D01*
X023358Y020347D01*
X023390Y020395D01*
X023419Y020445D01*
X023444Y020497D01*
X023465Y020550D01*
X023483Y020604D01*
X023497Y020660D01*
X023507Y020717D01*
X023513Y020774D01*
X023516Y020831D01*
X023515Y020889D01*
X023509Y020946D01*
X023500Y021002D01*
X023487Y021058D01*
X023471Y021113D01*
X023451Y021167D01*
X023427Y021219D01*
X023399Y021270D01*
X023369Y021318D01*
X023335Y021365D01*
X023298Y021409D01*
X023258Y021450D01*
X023215Y021489D01*
X023170Y021524D01*
X023123Y021557D01*
X023073Y021586D01*
X023022Y021612D01*
X022969Y021634D01*
X022966Y021626D01*
X023018Y021604D01*
X023069Y021578D01*
X023118Y021549D01*
X023165Y021517D01*
X023209Y021482D01*
X023252Y021444D01*
X023291Y021403D01*
X023328Y021359D01*
X023361Y021313D01*
X023392Y021265D01*
X023419Y021215D01*
X023442Y021164D01*
X023462Y021111D01*
X023479Y021056D01*
X023491Y021001D01*
X023500Y020945D01*
X023506Y020888D01*
X023507Y020831D01*
X023504Y020774D01*
X023498Y020718D01*
X023488Y020662D01*
X023474Y020607D01*
X023456Y020553D01*
X023435Y020500D01*
X023411Y020449D01*
X023382Y020400D01*
X023351Y020352D01*
X023317Y020307D01*
X023279Y020264D01*
X023239Y020224D01*
X023196Y020187D01*
X023151Y020153D01*
X023103Y020122D01*
X023054Y020094D01*
X023002Y020069D01*
X022950Y020048D01*
X022895Y020031D01*
X022840Y020017D01*
X022784Y020007D01*
X022728Y020001D01*
X022671Y019999D01*
X022671Y020008D01*
X022729Y020010D01*
X022786Y020017D01*
X022843Y020027D01*
X022898Y020041D01*
X022953Y020059D01*
X023006Y020081D01*
X023058Y020106D01*
X023108Y020135D01*
X023156Y020167D01*
X023201Y020203D01*
X023244Y020242D01*
X023284Y020283D01*
X023321Y020327D01*
X023355Y020374D01*
X023386Y020422D01*
X023413Y020473D01*
X023436Y020526D01*
X023456Y020580D01*
X023472Y020635D01*
X023485Y020692D01*
X023493Y020749D01*
X023497Y020806D01*
X023498Y020864D01*
X023494Y020921D01*
X023486Y020978D01*
X023475Y021035D01*
X023459Y021090D01*
X023440Y021145D01*
X023417Y021197D01*
X023391Y021249D01*
X023361Y021298D01*
X023327Y021345D01*
X023291Y021389D01*
X023251Y021431D01*
X023209Y021470D01*
X023164Y021506D01*
X023117Y021539D01*
X023067Y021569D01*
X023016Y021595D01*
X022963Y021617D01*
X022960Y021609D01*
X023012Y021587D01*
X023063Y021561D01*
X023112Y021532D01*
X023159Y021499D01*
X023203Y021463D01*
X023245Y021425D01*
X023284Y021383D01*
X023320Y021339D01*
X023353Y021293D01*
X023383Y021244D01*
X023409Y021194D01*
X023432Y021141D01*
X023451Y021088D01*
X023466Y021033D01*
X023478Y020977D01*
X023485Y020920D01*
X023489Y020863D01*
X023488Y020806D01*
X023484Y020750D01*
X023476Y020693D01*
X023464Y020637D01*
X023448Y020583D01*
X023428Y020529D01*
X023405Y020477D01*
X023378Y020427D01*
X023348Y020379D01*
X023314Y020333D01*
X023277Y020289D01*
X023238Y020248D01*
X023195Y020210D01*
X023151Y020175D01*
X023103Y020143D01*
X023054Y020114D01*
X023003Y020089D01*
X022950Y020068D01*
X022896Y020050D01*
X022841Y020036D01*
X022785Y020026D01*
X022728Y020019D01*
X022671Y020017D01*
X022671Y020026D01*
X022727Y020028D01*
X022783Y020035D01*
X022839Y020045D01*
X022893Y020058D01*
X022947Y020076D01*
X022999Y020097D01*
X023050Y020122D01*
X023099Y020150D01*
X023145Y020182D01*
X023190Y020217D01*
X023232Y020255D01*
X023271Y020295D01*
X023307Y020338D01*
X023340Y020384D01*
X023370Y020432D01*
X023397Y020481D01*
X023420Y020533D01*
X023439Y020586D01*
X023455Y020640D01*
X023467Y020695D01*
X023475Y020751D01*
X023479Y020807D01*
X023480Y020863D01*
X023476Y020919D01*
X023469Y020975D01*
X023457Y021030D01*
X023442Y021085D01*
X023424Y021138D01*
X023401Y021190D01*
X023375Y021240D01*
X023346Y021288D01*
X023313Y021334D01*
X023277Y021377D01*
X023239Y021418D01*
X023197Y021457D01*
X023153Y021492D01*
X023107Y021524D01*
X023059Y021553D01*
X023008Y021578D01*
X022957Y021600D01*
X022348Y021676D02*
X022379Y021591D01*
X022379Y021592D02*
X022327Y021570D01*
X022278Y021545D01*
X022230Y021517D01*
X022184Y021485D01*
X022140Y021450D01*
X022100Y021412D01*
X022061Y021371D01*
X022026Y021328D01*
X021994Y021283D01*
X021965Y021235D01*
X021939Y021186D01*
X021917Y021135D01*
X021898Y021082D01*
X021883Y021028D01*
X021872Y020974D01*
X021865Y020918D01*
X021861Y020863D01*
X021862Y020807D01*
X021866Y020752D01*
X021874Y020696D01*
X021886Y020642D01*
X021901Y020588D01*
X021921Y020536D01*
X021943Y020485D01*
X021970Y020436D01*
X021999Y020389D01*
X022032Y020344D01*
X022068Y020301D01*
X022107Y020261D01*
X022148Y020224D01*
X022192Y020189D01*
X022238Y020158D01*
X022286Y020130D01*
X022336Y020106D01*
X022388Y020084D01*
X022441Y020067D01*
X022495Y020053D01*
X022550Y020043D01*
X022605Y020037D01*
X022661Y020035D01*
X022662Y019946D01*
X022661Y019945D01*
X022602Y019947D01*
X022543Y019953D01*
X022485Y019963D01*
X022428Y019977D01*
X022371Y019995D01*
X022316Y020016D01*
X022263Y020041D01*
X022211Y020069D01*
X022161Y020101D01*
X022113Y020136D01*
X022068Y020174D01*
X022026Y020215D01*
X021986Y020258D01*
X021949Y020305D01*
X021915Y020353D01*
X021885Y020404D01*
X021858Y020456D01*
X021834Y020510D01*
X021814Y020566D01*
X021798Y020623D01*
X021785Y020680D01*
X021777Y020739D01*
X021772Y020798D01*
X021771Y020857D01*
X021774Y020916D01*
X021781Y020974D01*
X021792Y021032D01*
X021806Y021090D01*
X021825Y021146D01*
X021847Y021200D01*
X021872Y021254D01*
X021901Y021305D01*
X021934Y021355D01*
X021969Y021402D01*
X022008Y021446D01*
X022049Y021489D01*
X022093Y021528D01*
X022140Y021564D01*
X022189Y021597D01*
X022240Y021627D01*
X022293Y021653D01*
X022347Y021676D01*
X022350Y021668D01*
X022296Y021645D01*
X022244Y021619D01*
X022194Y021590D01*
X022145Y021557D01*
X022099Y021521D01*
X022055Y021482D01*
X022014Y021440D01*
X021976Y021396D01*
X021941Y021349D01*
X021909Y021300D01*
X021880Y021250D01*
X021855Y021197D01*
X021833Y021143D01*
X021815Y021087D01*
X021801Y021030D01*
X021790Y020973D01*
X021783Y020915D01*
X021780Y020856D01*
X021781Y020798D01*
X021786Y020740D01*
X021794Y020682D01*
X021807Y020625D01*
X021823Y020569D01*
X021842Y020514D01*
X021866Y020460D01*
X021892Y020408D01*
X021923Y020358D01*
X021956Y020310D01*
X021993Y020264D01*
X022032Y020221D01*
X022074Y020181D01*
X022119Y020143D01*
X022166Y020109D01*
X022215Y020077D01*
X022267Y020049D01*
X022320Y020024D01*
X022374Y020003D01*
X022430Y019986D01*
X022487Y019972D01*
X022544Y019962D01*
X022603Y019956D01*
X022661Y019954D01*
X022661Y019963D01*
X022603Y019965D01*
X022546Y019971D01*
X022489Y019981D01*
X022432Y019995D01*
X022377Y020012D01*
X022323Y020033D01*
X022271Y020057D01*
X022220Y020085D01*
X022171Y020116D01*
X022124Y020150D01*
X022080Y020187D01*
X022038Y020227D01*
X021999Y020270D01*
X021963Y020315D01*
X021930Y020363D01*
X021900Y020412D01*
X021874Y020464D01*
X021851Y020517D01*
X021831Y020571D01*
X021815Y020627D01*
X021803Y020684D01*
X021795Y020741D01*
X021790Y020798D01*
X021789Y020856D01*
X021792Y020914D01*
X021799Y020972D01*
X021809Y021028D01*
X021824Y021084D01*
X021842Y021139D01*
X021863Y021193D01*
X021888Y021245D01*
X021917Y021296D01*
X021948Y021344D01*
X021983Y021390D01*
X022021Y021434D01*
X022062Y021475D01*
X022105Y021514D01*
X022150Y021549D01*
X022198Y021582D01*
X022248Y021611D01*
X022300Y021637D01*
X022353Y021659D01*
X022357Y021651D01*
X022302Y021628D01*
X022250Y021602D01*
X022200Y021572D01*
X022151Y021539D01*
X022105Y021502D01*
X022062Y021463D01*
X022021Y021421D01*
X021983Y021376D01*
X021949Y021329D01*
X021917Y021279D01*
X021889Y021227D01*
X021865Y021174D01*
X021844Y021119D01*
X021827Y021063D01*
X021814Y021006D01*
X021805Y020948D01*
X021799Y020890D01*
X021798Y020831D01*
X021801Y020772D01*
X021807Y020714D01*
X021818Y020656D01*
X021832Y020599D01*
X021850Y020544D01*
X021872Y020489D01*
X021898Y020436D01*
X021927Y020385D01*
X021959Y020337D01*
X021995Y020290D01*
X022033Y020246D01*
X022075Y020204D01*
X022119Y020166D01*
X022166Y020131D01*
X022215Y020098D01*
X022266Y020070D01*
X022319Y020044D01*
X022373Y020023D01*
X022429Y020005D01*
X022486Y019991D01*
X022544Y019981D01*
X022602Y019974D01*
X022661Y019972D01*
X022661Y019981D01*
X022603Y019983D01*
X022545Y019990D01*
X022488Y020000D01*
X022432Y020014D01*
X022376Y020031D01*
X022323Y020053D01*
X022270Y020078D01*
X022220Y020106D01*
X022171Y020138D01*
X022125Y020173D01*
X022081Y020211D01*
X022040Y020252D01*
X022001Y020296D01*
X021966Y020342D01*
X021934Y020390D01*
X021905Y020441D01*
X021880Y020493D01*
X021859Y020547D01*
X021841Y020602D01*
X021826Y020658D01*
X021816Y020715D01*
X021810Y020773D01*
X021807Y020831D01*
X021808Y020889D01*
X021814Y020947D01*
X021823Y021004D01*
X021836Y021061D01*
X021853Y021116D01*
X021873Y021171D01*
X021897Y021223D01*
X021925Y021274D01*
X021956Y021324D01*
X021990Y021370D01*
X022028Y021415D01*
X022068Y021457D01*
X022111Y021496D01*
X022156Y021532D01*
X022204Y021564D01*
X022254Y021594D01*
X022306Y021620D01*
X022360Y021643D01*
X022363Y021634D01*
X022310Y021612D01*
X022259Y021586D01*
X022209Y021557D01*
X022162Y021524D01*
X022117Y021489D01*
X022074Y021450D01*
X022034Y021409D01*
X021997Y021365D01*
X021963Y021318D01*
X021933Y021270D01*
X021905Y021219D01*
X021881Y021167D01*
X021861Y021113D01*
X021845Y021058D01*
X021832Y021002D01*
X021823Y020946D01*
X021817Y020889D01*
X021816Y020831D01*
X021819Y020774D01*
X021825Y020717D01*
X021835Y020660D01*
X021849Y020604D01*
X021867Y020550D01*
X021888Y020497D01*
X021913Y020445D01*
X021942Y020395D01*
X021974Y020347D01*
X022008Y020301D01*
X022046Y020258D01*
X022087Y020218D01*
X022130Y020180D01*
X022176Y020145D01*
X022224Y020114D01*
X022274Y020086D01*
X022326Y020061D01*
X022379Y020040D01*
X022434Y020022D01*
X022490Y020008D01*
X022547Y019998D01*
X022604Y019992D01*
X022661Y019990D01*
X022661Y019999D01*
X022604Y020001D01*
X022548Y020007D01*
X022492Y020017D01*
X022437Y020031D01*
X022382Y020048D01*
X022330Y020069D01*
X022278Y020094D01*
X022229Y020122D01*
X022181Y020153D01*
X022136Y020187D01*
X022093Y020224D01*
X022053Y020264D01*
X022015Y020307D01*
X021981Y020352D01*
X021950Y020400D01*
X021921Y020449D01*
X021897Y020500D01*
X021876Y020553D01*
X021858Y020607D01*
X021844Y020662D01*
X021834Y020718D01*
X021828Y020774D01*
X021825Y020831D01*
X021826Y020888D01*
X021832Y020945D01*
X021841Y021001D01*
X021853Y021056D01*
X021870Y021111D01*
X021890Y021164D01*
X021913Y021215D01*
X021940Y021265D01*
X021971Y021313D01*
X022004Y021359D01*
X022041Y021403D01*
X022080Y021444D01*
X022123Y021482D01*
X022167Y021517D01*
X022214Y021549D01*
X022263Y021578D01*
X022314Y021604D01*
X022366Y021626D01*
X022369Y021617D01*
X022316Y021595D01*
X022265Y021569D01*
X022215Y021539D01*
X022168Y021506D01*
X022123Y021470D01*
X022081Y021431D01*
X022041Y021389D01*
X022005Y021345D01*
X021971Y021298D01*
X021941Y021249D01*
X021915Y021197D01*
X021892Y021145D01*
X021873Y021090D01*
X021857Y021035D01*
X021846Y020978D01*
X021838Y020921D01*
X021834Y020864D01*
X021835Y020806D01*
X021839Y020749D01*
X021847Y020692D01*
X021860Y020635D01*
X021876Y020580D01*
X021896Y020526D01*
X021919Y020473D01*
X021946Y020422D01*
X021977Y020374D01*
X022011Y020327D01*
X022048Y020283D01*
X022088Y020242D01*
X022131Y020203D01*
X022176Y020167D01*
X022224Y020135D01*
X022274Y020106D01*
X022326Y020081D01*
X022379Y020059D01*
X022434Y020041D01*
X022489Y020027D01*
X022546Y020017D01*
X022603Y020010D01*
X022661Y020008D01*
X022661Y020017D01*
X022604Y020019D01*
X022547Y020026D01*
X022491Y020036D01*
X022436Y020050D01*
X022382Y020068D01*
X022329Y020089D01*
X022278Y020114D01*
X022229Y020143D01*
X022181Y020175D01*
X022137Y020210D01*
X022094Y020248D01*
X022055Y020289D01*
X022018Y020333D01*
X021984Y020379D01*
X021954Y020427D01*
X021927Y020477D01*
X021904Y020529D01*
X021884Y020583D01*
X021868Y020637D01*
X021856Y020693D01*
X021848Y020750D01*
X021844Y020806D01*
X021843Y020863D01*
X021847Y020920D01*
X021854Y020977D01*
X021866Y021033D01*
X021881Y021088D01*
X021900Y021141D01*
X021923Y021194D01*
X021949Y021244D01*
X021979Y021293D01*
X022012Y021339D01*
X022048Y021383D01*
X022087Y021425D01*
X022129Y021463D01*
X022173Y021499D01*
X022220Y021532D01*
X022269Y021561D01*
X022320Y021587D01*
X022372Y021609D01*
X022375Y021600D01*
X022324Y021578D01*
X022273Y021553D01*
X022225Y021524D01*
X022179Y021492D01*
X022135Y021457D01*
X022093Y021418D01*
X022055Y021377D01*
X022019Y021334D01*
X021986Y021288D01*
X021957Y021240D01*
X021931Y021190D01*
X021908Y021138D01*
X021890Y021085D01*
X021875Y021030D01*
X021863Y020975D01*
X021856Y020919D01*
X021852Y020863D01*
X021853Y020807D01*
X021857Y020751D01*
X021865Y020695D01*
X021877Y020640D01*
X021893Y020586D01*
X021912Y020533D01*
X021935Y020481D01*
X021962Y020432D01*
X021992Y020384D01*
X022025Y020338D01*
X022061Y020295D01*
X022100Y020255D01*
X022142Y020217D01*
X022187Y020182D01*
X022233Y020150D01*
X022282Y020122D01*
X022333Y020097D01*
X022385Y020076D01*
X022439Y020058D01*
X022493Y020045D01*
X022549Y020035D01*
X022605Y020028D01*
X022661Y020026D01*
X017938Y019616D02*
X017963Y019659D01*
X017963Y019658D02*
X018027Y019623D01*
X018093Y019590D01*
X018160Y019561D01*
X018229Y019536D01*
X018299Y019515D01*
X018370Y019497D01*
X018442Y019483D01*
X018515Y019473D01*
X018588Y019467D01*
X018661Y019465D01*
X018661Y019416D01*
X018661Y019415D01*
X018592Y019417D01*
X018523Y019422D01*
X018454Y019431D01*
X018386Y019443D01*
X018319Y019458D01*
X018252Y019476D01*
X018187Y019498D01*
X018122Y019523D01*
X018059Y019551D01*
X017997Y019582D01*
X017937Y019616D01*
X017942Y019623D01*
X018002Y019590D01*
X018063Y019559D01*
X018126Y019531D01*
X018190Y019506D01*
X018255Y019485D01*
X018321Y019467D01*
X018388Y019452D01*
X018456Y019440D01*
X018524Y019431D01*
X018592Y019426D01*
X018661Y019424D01*
X018661Y019433D01*
X018586Y019435D01*
X018511Y019442D01*
X018437Y019452D01*
X018363Y019466D01*
X018290Y019484D01*
X018219Y019506D01*
X018148Y019532D01*
X018079Y019561D01*
X018012Y019594D01*
X017946Y019631D01*
X017951Y019639D01*
X018016Y019602D01*
X018083Y019569D01*
X018151Y019540D01*
X018222Y019515D01*
X018293Y019493D01*
X018365Y019475D01*
X018438Y019461D01*
X018512Y019450D01*
X018586Y019444D01*
X018661Y019442D01*
X018661Y019451D01*
X018587Y019453D01*
X018513Y019459D01*
X018440Y019470D01*
X018367Y019484D01*
X018295Y019501D01*
X018224Y019523D01*
X018155Y019548D01*
X018087Y019578D01*
X018020Y019610D01*
X017956Y019646D01*
X017960Y019654D01*
X018024Y019618D01*
X018090Y019586D01*
X018158Y019557D01*
X018227Y019532D01*
X018298Y019510D01*
X018369Y019492D01*
X018441Y019478D01*
X018514Y019468D01*
X018587Y019462D01*
X018661Y019460D01*
X018662Y022264D02*
X018662Y022214D01*
X018661Y022215D02*
X018588Y022213D01*
X018514Y022207D01*
X018442Y022197D01*
X018370Y022183D01*
X018298Y022165D01*
X018228Y022143D01*
X018159Y022118D01*
X018092Y022089D01*
X018026Y022057D01*
X017962Y022021D01*
X017900Y021982D01*
X017840Y021939D01*
X017782Y021894D01*
X017727Y021845D01*
X017675Y021793D01*
X017626Y021739D01*
X017579Y021682D01*
X017536Y021623D01*
X017496Y021562D01*
X017459Y021498D01*
X017425Y021433D01*
X017395Y021366D01*
X017369Y021297D01*
X017347Y021227D01*
X017328Y021156D01*
X017313Y021084D01*
X017302Y021012D01*
X017295Y020939D01*
X017291Y020865D01*
X017292Y020792D01*
X017296Y020719D01*
X017305Y020646D01*
X017317Y020573D01*
X017333Y020502D01*
X017353Y020431D01*
X017377Y020362D01*
X017404Y020294D01*
X017435Y020227D01*
X017470Y020162D01*
X017427Y020138D01*
X017426Y020137D01*
X017391Y020203D01*
X017360Y020270D01*
X017332Y020339D01*
X017308Y020409D01*
X017287Y020480D01*
X017270Y020552D01*
X017257Y020625D01*
X017248Y020699D01*
X017243Y020773D01*
X017241Y020847D01*
X017243Y020921D01*
X017249Y020995D01*
X017260Y021069D01*
X017273Y021142D01*
X017291Y021214D01*
X017312Y021285D01*
X017337Y021355D01*
X017366Y021423D01*
X017398Y021490D01*
X017434Y021555D01*
X017472Y021618D01*
X017515Y021680D01*
X017560Y021738D01*
X017608Y021795D01*
X017659Y021848D01*
X017713Y021899D01*
X017769Y021948D01*
X017828Y021993D01*
X017889Y022035D01*
X017953Y022074D01*
X018018Y022109D01*
X018085Y022141D01*
X018153Y022170D01*
X018223Y022194D01*
X018294Y022216D01*
X018366Y022233D01*
X018439Y022247D01*
X018513Y022257D01*
X018587Y022263D01*
X018661Y022265D01*
X018661Y022256D01*
X018587Y022254D01*
X018514Y022248D01*
X018441Y022238D01*
X018368Y022224D01*
X018297Y022207D01*
X018226Y022186D01*
X018157Y022161D01*
X018088Y022133D01*
X018022Y022101D01*
X017957Y022066D01*
X017894Y022027D01*
X017834Y021986D01*
X017775Y021941D01*
X017719Y021893D01*
X017666Y021842D01*
X017615Y021789D01*
X017567Y021733D01*
X017522Y021674D01*
X017480Y021614D01*
X017441Y021551D01*
X017406Y021486D01*
X017374Y021420D01*
X017346Y021352D01*
X017321Y021282D01*
X017300Y021212D01*
X017282Y021140D01*
X017268Y021067D01*
X017258Y020994D01*
X017252Y020921D01*
X017250Y020847D01*
X017252Y020774D01*
X017257Y020700D01*
X017266Y020627D01*
X017279Y020554D01*
X017296Y020482D01*
X017316Y020412D01*
X017340Y020342D01*
X017368Y020274D01*
X017399Y020207D01*
X017434Y020142D01*
X017442Y020146D01*
X017407Y020213D01*
X017375Y020281D01*
X017347Y020350D01*
X017323Y020422D01*
X017302Y020494D01*
X017286Y020567D01*
X017273Y020641D01*
X017264Y020716D01*
X017260Y020791D01*
X017259Y020866D01*
X017263Y020941D01*
X017270Y021016D01*
X017281Y021090D01*
X017297Y021164D01*
X017316Y021236D01*
X017339Y021308D01*
X017366Y021378D01*
X017396Y021447D01*
X017431Y021513D01*
X017468Y021578D01*
X017509Y021641D01*
X017554Y021702D01*
X017602Y021760D01*
X017652Y021816D01*
X017706Y021868D01*
X017762Y021918D01*
X017821Y021965D01*
X017882Y022008D01*
X017945Y022049D01*
X018011Y022085D01*
X018078Y022118D01*
X018148Y022148D01*
X018218Y022174D01*
X018290Y022196D01*
X018363Y022214D01*
X018437Y022228D01*
X018511Y022238D01*
X018586Y022245D01*
X018661Y022247D01*
X018661Y022238D01*
X018586Y022236D01*
X018512Y022229D01*
X018438Y022219D01*
X018365Y022205D01*
X018292Y022187D01*
X018221Y022165D01*
X018151Y022140D01*
X018082Y022110D01*
X018015Y022077D01*
X017950Y022041D01*
X017887Y022001D01*
X017826Y021958D01*
X017768Y021911D01*
X017712Y021862D01*
X017659Y021809D01*
X017608Y021754D01*
X017561Y021696D01*
X017517Y021636D01*
X017476Y021574D01*
X017439Y021509D01*
X017405Y021443D01*
X017374Y021375D01*
X017348Y021305D01*
X017325Y021234D01*
X017305Y021162D01*
X017290Y021089D01*
X017279Y021015D01*
X017272Y020940D01*
X017268Y020866D01*
X017269Y020791D01*
X017273Y020717D01*
X017282Y020643D01*
X017295Y020569D01*
X017311Y020496D01*
X017331Y020424D01*
X017355Y020354D01*
X017383Y020284D01*
X017415Y020217D01*
X017450Y020151D01*
X017458Y020155D01*
X017423Y020221D01*
X017391Y020288D01*
X017364Y020357D01*
X017340Y020427D01*
X017320Y020498D01*
X017303Y020571D01*
X017291Y020644D01*
X017282Y020718D01*
X017278Y020792D01*
X017277Y020866D01*
X017281Y020940D01*
X017288Y021014D01*
X017299Y021087D01*
X017314Y021160D01*
X017333Y021231D01*
X017356Y021302D01*
X017383Y021371D01*
X017413Y021439D01*
X017446Y021505D01*
X017484Y021569D01*
X017524Y021631D01*
X017568Y021691D01*
X017615Y021748D01*
X017665Y021803D01*
X017718Y021855D01*
X017773Y021904D01*
X017832Y021950D01*
X017892Y021993D01*
X017955Y022033D01*
X018019Y022069D01*
X018086Y022102D01*
X018154Y022131D01*
X018224Y022157D01*
X018295Y022178D01*
X018367Y022196D01*
X018439Y022210D01*
X018513Y022221D01*
X018587Y022227D01*
X018661Y022229D01*
X018661Y022220D01*
X018587Y022218D01*
X018514Y022212D01*
X018441Y022202D01*
X018369Y022188D01*
X018297Y022170D01*
X018227Y022148D01*
X018157Y022123D01*
X018090Y022094D01*
X018024Y022061D01*
X017959Y022025D01*
X017897Y021986D01*
X017837Y021943D01*
X017779Y021897D01*
X017724Y021849D01*
X017672Y021797D01*
X017622Y021742D01*
X017575Y021685D01*
X017532Y021626D01*
X017491Y021564D01*
X017454Y021501D01*
X017421Y021435D01*
X017391Y021368D01*
X017365Y021299D01*
X017342Y021229D01*
X017323Y021157D01*
X017308Y021085D01*
X017297Y021012D01*
X017290Y020939D01*
X017286Y020866D01*
X017287Y020792D01*
X017291Y020718D01*
X017300Y020645D01*
X017312Y020572D01*
X017328Y020501D01*
X017348Y020430D01*
X017372Y020360D01*
X017400Y020292D01*
X017431Y020225D01*
X017465Y020160D01*
X019890Y020112D02*
X019847Y020137D01*
X019848Y020137D02*
X019884Y020202D01*
X019916Y020268D01*
X019945Y020336D01*
X019971Y020406D01*
X019992Y020477D01*
X020010Y020549D01*
X020024Y020622D01*
X020033Y020696D01*
X020039Y020770D01*
X020041Y020844D01*
X020039Y020918D01*
X020033Y020992D01*
X020022Y021065D01*
X020008Y021138D01*
X019990Y021210D01*
X019968Y021281D01*
X019943Y021350D01*
X019913Y021419D01*
X019880Y021485D01*
X019844Y021549D01*
X019804Y021612D01*
X019761Y021672D01*
X019714Y021730D01*
X019665Y021785D01*
X019612Y021838D01*
X019557Y021887D01*
X019499Y021934D01*
X019439Y021977D01*
X019377Y022017D01*
X019312Y022054D01*
X019246Y022087D01*
X019178Y022116D01*
X019108Y022142D01*
X019037Y022164D01*
X018965Y022182D01*
X018892Y022196D01*
X018819Y022206D01*
X018745Y022213D01*
X018671Y022215D01*
X018670Y022264D01*
X018671Y022265D01*
X018746Y022263D01*
X018821Y022257D01*
X018895Y022246D01*
X018969Y022233D01*
X019041Y022215D01*
X019113Y022193D01*
X019184Y022168D01*
X019253Y022139D01*
X019320Y022106D01*
X019386Y022070D01*
X019450Y022030D01*
X019511Y021987D01*
X019570Y021941D01*
X019627Y021892D01*
X019681Y021840D01*
X019732Y021786D01*
X019780Y021728D01*
X019825Y021668D01*
X019867Y021606D01*
X019906Y021542D01*
X019941Y021476D01*
X019973Y021408D01*
X020001Y021339D01*
X020025Y021268D01*
X020046Y021196D01*
X020063Y021123D01*
X020076Y021049D01*
X020085Y020974D01*
X020090Y020899D01*
X020091Y020825D01*
X020088Y020750D01*
X020081Y020675D01*
X020071Y020601D01*
X020056Y020527D01*
X020038Y020455D01*
X020016Y020383D01*
X019990Y020313D01*
X019960Y020244D01*
X019927Y020177D01*
X019891Y020111D01*
X019883Y020116D01*
X019919Y020181D01*
X019952Y020248D01*
X019981Y020316D01*
X020007Y020386D01*
X020029Y020457D01*
X020047Y020529D01*
X020062Y020602D01*
X020072Y020676D01*
X020079Y020750D01*
X020082Y020825D01*
X020081Y020899D01*
X020076Y020973D01*
X020067Y021047D01*
X020054Y021121D01*
X020037Y021193D01*
X020017Y021265D01*
X019993Y021335D01*
X019965Y021404D01*
X019933Y021472D01*
X019898Y021538D01*
X019860Y021601D01*
X019818Y021663D01*
X019773Y021723D01*
X019725Y021780D01*
X019674Y021834D01*
X019621Y021886D01*
X019564Y021934D01*
X019506Y021980D01*
X019445Y022023D01*
X019381Y022062D01*
X019316Y022098D01*
X019249Y022130D01*
X019180Y022159D01*
X019110Y022184D01*
X019039Y022206D01*
X018967Y022224D01*
X018893Y022238D01*
X018820Y022248D01*
X018745Y022254D01*
X018671Y022256D01*
X018671Y022247D01*
X018745Y022245D01*
X018819Y022239D01*
X018892Y022229D01*
X018965Y022215D01*
X019037Y022197D01*
X019107Y022176D01*
X019177Y022151D01*
X019245Y022122D01*
X019312Y022090D01*
X019377Y022054D01*
X019440Y022015D01*
X019500Y021973D01*
X019559Y021927D01*
X019615Y021879D01*
X019668Y021828D01*
X019719Y021774D01*
X019766Y021717D01*
X019811Y021658D01*
X019852Y021597D01*
X019890Y021533D01*
X019925Y021468D01*
X019956Y021401D01*
X019984Y021332D01*
X020008Y021262D01*
X020028Y021191D01*
X020045Y021119D01*
X020058Y021046D01*
X020067Y020973D01*
X020072Y020899D01*
X020073Y020825D01*
X020070Y020751D01*
X020064Y020677D01*
X020053Y020604D01*
X020039Y020531D01*
X020021Y020460D01*
X019999Y020389D01*
X019973Y020319D01*
X019944Y020251D01*
X019911Y020185D01*
X019875Y020120D01*
X019867Y020125D01*
X019903Y020189D01*
X019936Y020255D01*
X019965Y020323D01*
X019990Y020392D01*
X020012Y020462D01*
X020030Y020533D01*
X020044Y020605D01*
X020055Y020678D01*
X020061Y020751D01*
X020064Y020825D01*
X020063Y020898D01*
X020058Y020972D01*
X020049Y021045D01*
X020036Y021117D01*
X020020Y021189D01*
X020000Y021260D01*
X019976Y021329D01*
X019948Y021397D01*
X019917Y021464D01*
X019883Y021529D01*
X019845Y021592D01*
X019803Y021653D01*
X019759Y021711D01*
X019712Y021768D01*
X019662Y021821D01*
X019609Y021872D01*
X019553Y021921D01*
X019495Y021966D01*
X019435Y022008D01*
X019372Y022046D01*
X019308Y022082D01*
X019242Y022114D01*
X019174Y022142D01*
X019105Y022167D01*
X019034Y022189D01*
X018963Y022206D01*
X018891Y022220D01*
X018818Y022230D01*
X018744Y022236D01*
X018671Y022238D01*
X018671Y022229D01*
X018744Y022227D01*
X018817Y022221D01*
X018889Y022211D01*
X018961Y022197D01*
X019032Y022180D01*
X019102Y022159D01*
X019171Y022134D01*
X019238Y022106D01*
X019304Y022074D01*
X019368Y022039D01*
X019430Y022000D01*
X019490Y021958D01*
X019547Y021914D01*
X019603Y021866D01*
X019655Y021815D01*
X019705Y021762D01*
X019752Y021706D01*
X019796Y021648D01*
X019837Y021587D01*
X019875Y021524D01*
X019909Y021460D01*
X019940Y021394D01*
X019967Y021326D01*
X019991Y021257D01*
X020011Y021187D01*
X020027Y021115D01*
X020040Y021043D01*
X020049Y020971D01*
X020054Y020898D01*
X020055Y020825D01*
X020052Y020752D01*
X020046Y020679D01*
X020035Y020607D01*
X020021Y020535D01*
X020003Y020464D01*
X019982Y020395D01*
X019956Y020326D01*
X019928Y020259D01*
X019895Y020193D01*
X019860Y020130D01*
X019852Y020134D01*
X019888Y020199D01*
X019921Y020266D01*
X019950Y020335D01*
X019976Y020405D01*
X019997Y020476D01*
X020015Y020548D01*
X020029Y020621D01*
X020038Y020695D01*
X020044Y020769D01*
X020046Y020844D01*
X020044Y020918D01*
X020038Y020992D01*
X020027Y021066D01*
X020013Y021139D01*
X019995Y021211D01*
X019973Y021282D01*
X019947Y021352D01*
X019918Y021421D01*
X019885Y021487D01*
X019848Y021552D01*
X019808Y021615D01*
X019765Y021675D01*
X019718Y021733D01*
X019668Y021789D01*
X019616Y021841D01*
X019560Y021891D01*
X019502Y021938D01*
X019442Y021981D01*
X019379Y022021D01*
X019314Y022058D01*
X019248Y022091D01*
X019179Y022121D01*
X019110Y022147D01*
X019039Y022169D01*
X018966Y022187D01*
X018893Y022201D01*
X018820Y022211D01*
X018745Y022218D01*
X018671Y022220D01*
X018670Y019416D02*
X018670Y019466D01*
X018671Y019465D02*
X018745Y019467D01*
X018819Y019474D01*
X018893Y019484D01*
X018966Y019498D01*
X019038Y019516D01*
X019109Y019538D01*
X019179Y019564D01*
X019247Y019594D01*
X019314Y019627D01*
X019379Y019664D01*
X019404Y019622D01*
X019405Y019621D01*
X019344Y019587D01*
X019281Y019555D01*
X019217Y019526D01*
X019152Y019500D01*
X019086Y019478D01*
X019018Y019459D01*
X018950Y019444D01*
X018881Y019431D01*
X018811Y019422D01*
X018741Y019417D01*
X018671Y019415D01*
X018671Y019424D01*
X018741Y019426D01*
X018810Y019431D01*
X018879Y019440D01*
X018948Y019452D01*
X019016Y019468D01*
X019083Y019487D01*
X019149Y019509D01*
X019214Y019534D01*
X019277Y019563D01*
X019340Y019594D01*
X019400Y019629D01*
X019395Y019637D01*
X019335Y019602D01*
X019274Y019571D01*
X019210Y019543D01*
X019146Y019517D01*
X019080Y019495D01*
X019014Y019477D01*
X018946Y019461D01*
X018878Y019449D01*
X018809Y019440D01*
X018740Y019435D01*
X018671Y019433D01*
X018671Y019442D01*
X018740Y019444D01*
X018808Y019449D01*
X018877Y019458D01*
X018944Y019470D01*
X019011Y019485D01*
X019078Y019504D01*
X019143Y019526D01*
X019207Y019551D01*
X019270Y019579D01*
X019331Y019610D01*
X019391Y019644D01*
X019386Y019652D01*
X019327Y019618D01*
X019266Y019587D01*
X019203Y019559D01*
X019140Y019534D01*
X019075Y019513D01*
X019009Y019494D01*
X018943Y019479D01*
X018875Y019467D01*
X018807Y019458D01*
X018739Y019453D01*
X018671Y019451D01*
X018671Y019460D01*
X018746Y019462D01*
X018820Y019469D01*
X018894Y019479D01*
X018967Y019493D01*
X019040Y019512D01*
X019111Y019534D01*
X019181Y019560D01*
X019250Y019589D01*
X019316Y019623D01*
X019381Y019660D01*
X018670Y019946D02*
X018670Y020036D01*
X018671Y020035D02*
X018727Y020037D01*
X018782Y020043D01*
X018837Y020053D01*
X018891Y020067D01*
X018944Y020084D01*
X018996Y020106D01*
X019046Y020130D01*
X019094Y020158D01*
X019140Y020189D01*
X019184Y020224D01*
X019225Y020261D01*
X019264Y020301D01*
X019300Y020344D01*
X019333Y020389D01*
X019362Y020436D01*
X019389Y020485D01*
X019411Y020536D01*
X019431Y020588D01*
X019446Y020642D01*
X019458Y020696D01*
X019466Y020752D01*
X019470Y020807D01*
X019471Y020863D01*
X019467Y020918D01*
X019460Y020974D01*
X019449Y021028D01*
X019434Y021082D01*
X019415Y021135D01*
X019393Y021186D01*
X019367Y021235D01*
X019338Y021283D01*
X019306Y021328D01*
X019271Y021371D01*
X019232Y021412D01*
X019192Y021450D01*
X019148Y021485D01*
X019102Y021517D01*
X019054Y021545D01*
X019005Y021570D01*
X018953Y021592D01*
X018984Y021676D01*
X018985Y021676D01*
X019039Y021653D01*
X019092Y021627D01*
X019143Y021597D01*
X019192Y021564D01*
X019239Y021528D01*
X019283Y021489D01*
X019324Y021446D01*
X019363Y021402D01*
X019398Y021355D01*
X019431Y021305D01*
X019460Y021254D01*
X019485Y021200D01*
X019507Y021146D01*
X019526Y021090D01*
X019540Y021032D01*
X019551Y020974D01*
X019558Y020916D01*
X019561Y020857D01*
X019560Y020798D01*
X019555Y020739D01*
X019547Y020680D01*
X019534Y020623D01*
X019518Y020566D01*
X019498Y020510D01*
X019474Y020456D01*
X019447Y020404D01*
X019417Y020353D01*
X019383Y020305D01*
X019346Y020258D01*
X019306Y020215D01*
X019264Y020174D01*
X019219Y020136D01*
X019171Y020101D01*
X019121Y020069D01*
X019069Y020041D01*
X019016Y020016D01*
X018961Y019995D01*
X018904Y019977D01*
X018847Y019963D01*
X018789Y019953D01*
X018730Y019947D01*
X018671Y019945D01*
X018671Y019954D01*
X018729Y019956D01*
X018788Y019962D01*
X018845Y019972D01*
X018902Y019986D01*
X018958Y020003D01*
X019012Y020024D01*
X019065Y020049D01*
X019117Y020077D01*
X019166Y020109D01*
X019213Y020143D01*
X019258Y020181D01*
X019300Y020221D01*
X019339Y020264D01*
X019376Y020310D01*
X019409Y020358D01*
X019440Y020408D01*
X019466Y020460D01*
X019490Y020514D01*
X019509Y020569D01*
X019525Y020625D01*
X019538Y020682D01*
X019546Y020740D01*
X019551Y020798D01*
X019552Y020856D01*
X019549Y020915D01*
X019542Y020973D01*
X019531Y021030D01*
X019517Y021087D01*
X019499Y021143D01*
X019477Y021197D01*
X019452Y021250D01*
X019423Y021300D01*
X019391Y021349D01*
X019356Y021396D01*
X019318Y021440D01*
X019277Y021482D01*
X019233Y021521D01*
X019187Y021557D01*
X019138Y021590D01*
X019088Y021619D01*
X019036Y021645D01*
X018982Y021668D01*
X018979Y021659D01*
X019032Y021637D01*
X019084Y021611D01*
X019134Y021582D01*
X019182Y021549D01*
X019227Y021514D01*
X019270Y021475D01*
X019311Y021434D01*
X019349Y021390D01*
X019384Y021344D01*
X019415Y021296D01*
X019444Y021245D01*
X019469Y021193D01*
X019490Y021139D01*
X019508Y021084D01*
X019523Y021028D01*
X019533Y020972D01*
X019540Y020914D01*
X019543Y020856D01*
X019542Y020798D01*
X019537Y020741D01*
X019529Y020684D01*
X019517Y020627D01*
X019501Y020571D01*
X019481Y020517D01*
X019458Y020464D01*
X019432Y020412D01*
X019402Y020363D01*
X019369Y020315D01*
X019333Y020270D01*
X019294Y020227D01*
X019252Y020187D01*
X019208Y020150D01*
X019161Y020116D01*
X019112Y020085D01*
X019061Y020057D01*
X019009Y020033D01*
X018955Y020012D01*
X018900Y019995D01*
X018843Y019981D01*
X018786Y019971D01*
X018729Y019965D01*
X018671Y019963D01*
X018671Y019972D01*
X018730Y019974D01*
X018788Y019981D01*
X018846Y019991D01*
X018903Y020005D01*
X018959Y020023D01*
X019013Y020044D01*
X019066Y020070D01*
X019117Y020098D01*
X019166Y020131D01*
X019213Y020166D01*
X019257Y020204D01*
X019299Y020246D01*
X019337Y020290D01*
X019373Y020337D01*
X019405Y020385D01*
X019434Y020436D01*
X019460Y020489D01*
X019482Y020544D01*
X019500Y020599D01*
X019514Y020656D01*
X019525Y020714D01*
X019531Y020772D01*
X019534Y020831D01*
X019533Y020890D01*
X019527Y020948D01*
X019518Y021006D01*
X019505Y021063D01*
X019488Y021119D01*
X019467Y021174D01*
X019443Y021227D01*
X019415Y021279D01*
X019383Y021329D01*
X019349Y021376D01*
X019311Y021421D01*
X019270Y021463D01*
X019227Y021502D01*
X019181Y021539D01*
X019132Y021572D01*
X019082Y021602D01*
X019030Y021628D01*
X018975Y021651D01*
X018972Y021643D01*
X019026Y021620D01*
X019078Y021594D01*
X019128Y021564D01*
X019176Y021532D01*
X019221Y021496D01*
X019264Y021457D01*
X019304Y021415D01*
X019342Y021370D01*
X019376Y021324D01*
X019407Y021274D01*
X019435Y021223D01*
X019459Y021171D01*
X019479Y021116D01*
X019496Y021061D01*
X019509Y021004D01*
X019518Y020947D01*
X019524Y020889D01*
X019525Y020831D01*
X019522Y020773D01*
X019516Y020715D01*
X019506Y020658D01*
X019491Y020602D01*
X019473Y020547D01*
X019452Y020493D01*
X019427Y020441D01*
X019398Y020390D01*
X019366Y020342D01*
X019331Y020296D01*
X019292Y020252D01*
X019251Y020211D01*
X019207Y020173D01*
X019161Y020138D01*
X019112Y020106D01*
X019062Y020078D01*
X019009Y020053D01*
X018956Y020031D01*
X018900Y020014D01*
X018844Y020000D01*
X018787Y019990D01*
X018729Y019983D01*
X018671Y019981D01*
X018671Y019990D01*
X018728Y019992D01*
X018785Y019998D01*
X018842Y020008D01*
X018898Y020022D01*
X018953Y020040D01*
X019006Y020061D01*
X019058Y020086D01*
X019108Y020114D01*
X019156Y020145D01*
X019202Y020180D01*
X019245Y020218D01*
X019286Y020258D01*
X019324Y020301D01*
X019358Y020347D01*
X019390Y020395D01*
X019419Y020445D01*
X019444Y020497D01*
X019465Y020550D01*
X019483Y020604D01*
X019497Y020660D01*
X019507Y020717D01*
X019513Y020774D01*
X019516Y020831D01*
X019515Y020889D01*
X019509Y020946D01*
X019500Y021002D01*
X019487Y021058D01*
X019471Y021113D01*
X019451Y021167D01*
X019427Y021219D01*
X019399Y021270D01*
X019369Y021318D01*
X019335Y021365D01*
X019298Y021409D01*
X019258Y021450D01*
X019215Y021489D01*
X019170Y021524D01*
X019123Y021557D01*
X019073Y021586D01*
X019022Y021612D01*
X018969Y021634D01*
X018966Y021626D01*
X019018Y021604D01*
X019069Y021578D01*
X019118Y021549D01*
X019165Y021517D01*
X019209Y021482D01*
X019252Y021444D01*
X019291Y021403D01*
X019328Y021359D01*
X019361Y021313D01*
X019392Y021265D01*
X019419Y021215D01*
X019442Y021164D01*
X019462Y021111D01*
X019479Y021056D01*
X019491Y021001D01*
X019500Y020945D01*
X019506Y020888D01*
X019507Y020831D01*
X019504Y020774D01*
X019498Y020718D01*
X019488Y020662D01*
X019474Y020607D01*
X019456Y020553D01*
X019435Y020500D01*
X019411Y020449D01*
X019382Y020400D01*
X019351Y020352D01*
X019317Y020307D01*
X019279Y020264D01*
X019239Y020224D01*
X019196Y020187D01*
X019151Y020153D01*
X019103Y020122D01*
X019054Y020094D01*
X019002Y020069D01*
X018950Y020048D01*
X018895Y020031D01*
X018840Y020017D01*
X018784Y020007D01*
X018728Y020001D01*
X018671Y019999D01*
X018671Y020008D01*
X018729Y020010D01*
X018786Y020017D01*
X018843Y020027D01*
X018898Y020041D01*
X018953Y020059D01*
X019006Y020081D01*
X019058Y020106D01*
X019108Y020135D01*
X019156Y020167D01*
X019201Y020203D01*
X019244Y020242D01*
X019284Y020283D01*
X019321Y020327D01*
X019355Y020374D01*
X019386Y020422D01*
X019413Y020473D01*
X019436Y020526D01*
X019456Y020580D01*
X019472Y020635D01*
X019485Y020692D01*
X019493Y020749D01*
X019497Y020806D01*
X019498Y020864D01*
X019494Y020921D01*
X019486Y020978D01*
X019475Y021035D01*
X019459Y021090D01*
X019440Y021145D01*
X019417Y021197D01*
X019391Y021249D01*
X019361Y021298D01*
X019327Y021345D01*
X019291Y021389D01*
X019251Y021431D01*
X019209Y021470D01*
X019164Y021506D01*
X019117Y021539D01*
X019067Y021569D01*
X019016Y021595D01*
X018963Y021617D01*
X018960Y021609D01*
X019012Y021587D01*
X019063Y021561D01*
X019112Y021532D01*
X019159Y021499D01*
X019203Y021463D01*
X019245Y021425D01*
X019284Y021383D01*
X019320Y021339D01*
X019353Y021293D01*
X019383Y021244D01*
X019409Y021194D01*
X019432Y021141D01*
X019451Y021088D01*
X019466Y021033D01*
X019478Y020977D01*
X019485Y020920D01*
X019489Y020863D01*
X019488Y020806D01*
X019484Y020750D01*
X019476Y020693D01*
X019464Y020637D01*
X019448Y020583D01*
X019428Y020529D01*
X019405Y020477D01*
X019378Y020427D01*
X019348Y020379D01*
X019314Y020333D01*
X019277Y020289D01*
X019238Y020248D01*
X019195Y020210D01*
X019151Y020175D01*
X019103Y020143D01*
X019054Y020114D01*
X019003Y020089D01*
X018950Y020068D01*
X018896Y020050D01*
X018841Y020036D01*
X018785Y020026D01*
X018728Y020019D01*
X018671Y020017D01*
X018671Y020026D01*
X018727Y020028D01*
X018783Y020035D01*
X018839Y020045D01*
X018893Y020058D01*
X018947Y020076D01*
X018999Y020097D01*
X019050Y020122D01*
X019099Y020150D01*
X019145Y020182D01*
X019190Y020217D01*
X019232Y020255D01*
X019271Y020295D01*
X019307Y020338D01*
X019340Y020384D01*
X019370Y020432D01*
X019397Y020481D01*
X019420Y020533D01*
X019439Y020586D01*
X019455Y020640D01*
X019467Y020695D01*
X019475Y020751D01*
X019479Y020807D01*
X019480Y020863D01*
X019476Y020919D01*
X019469Y020975D01*
X019457Y021030D01*
X019442Y021085D01*
X019424Y021138D01*
X019401Y021190D01*
X019375Y021240D01*
X019346Y021288D01*
X019313Y021334D01*
X019277Y021377D01*
X019239Y021418D01*
X019197Y021457D01*
X019153Y021492D01*
X019107Y021524D01*
X019059Y021553D01*
X019008Y021578D01*
X018957Y021600D01*
X018348Y021676D02*
X018379Y021591D01*
X018379Y021592D02*
X018327Y021570D01*
X018278Y021545D01*
X018230Y021517D01*
X018184Y021485D01*
X018140Y021450D01*
X018100Y021412D01*
X018061Y021371D01*
X018026Y021328D01*
X017994Y021283D01*
X017965Y021235D01*
X017939Y021186D01*
X017917Y021135D01*
X017898Y021082D01*
X017883Y021028D01*
X017872Y020974D01*
X017865Y020918D01*
X017861Y020863D01*
X017862Y020807D01*
X017866Y020752D01*
X017874Y020696D01*
X017886Y020642D01*
X017901Y020588D01*
X017921Y020536D01*
X017943Y020485D01*
X017970Y020436D01*
X017999Y020389D01*
X018032Y020344D01*
X018068Y020301D01*
X018107Y020261D01*
X018148Y020224D01*
X018192Y020189D01*
X018238Y020158D01*
X018286Y020130D01*
X018336Y020106D01*
X018388Y020084D01*
X018441Y020067D01*
X018495Y020053D01*
X018550Y020043D01*
X018605Y020037D01*
X018661Y020035D01*
X018662Y019946D01*
X018661Y019945D01*
X018602Y019947D01*
X018543Y019953D01*
X018485Y019963D01*
X018428Y019977D01*
X018371Y019995D01*
X018316Y020016D01*
X018263Y020041D01*
X018211Y020069D01*
X018161Y020101D01*
X018113Y020136D01*
X018068Y020174D01*
X018026Y020215D01*
X017986Y020258D01*
X017949Y020305D01*
X017915Y020353D01*
X017885Y020404D01*
X017858Y020456D01*
X017834Y020510D01*
X017814Y020566D01*
X017798Y020623D01*
X017785Y020680D01*
X017777Y020739D01*
X017772Y020798D01*
X017771Y020857D01*
X017774Y020916D01*
X017781Y020974D01*
X017792Y021032D01*
X017806Y021090D01*
X017825Y021146D01*
X017847Y021200D01*
X017872Y021254D01*
X017901Y021305D01*
X017934Y021355D01*
X017969Y021402D01*
X018008Y021446D01*
X018049Y021489D01*
X018093Y021528D01*
X018140Y021564D01*
X018189Y021597D01*
X018240Y021627D01*
X018293Y021653D01*
X018347Y021676D01*
X018350Y021668D01*
X018296Y021645D01*
X018244Y021619D01*
X018194Y021590D01*
X018145Y021557D01*
X018099Y021521D01*
X018055Y021482D01*
X018014Y021440D01*
X017976Y021396D01*
X017941Y021349D01*
X017909Y021300D01*
X017880Y021250D01*
X017855Y021197D01*
X017833Y021143D01*
X017815Y021087D01*
X017801Y021030D01*
X017790Y020973D01*
X017783Y020915D01*
X017780Y020856D01*
X017781Y020798D01*
X017786Y020740D01*
X017794Y020682D01*
X017807Y020625D01*
X017823Y020569D01*
X017842Y020514D01*
X017866Y020460D01*
X017892Y020408D01*
X017923Y020358D01*
X017956Y020310D01*
X017993Y020264D01*
X018032Y020221D01*
X018074Y020181D01*
X018119Y020143D01*
X018166Y020109D01*
X018215Y020077D01*
X018267Y020049D01*
X018320Y020024D01*
X018374Y020003D01*
X018430Y019986D01*
X018487Y019972D01*
X018544Y019962D01*
X018603Y019956D01*
X018661Y019954D01*
X018661Y019963D01*
X018603Y019965D01*
X018546Y019971D01*
X018489Y019981D01*
X018432Y019995D01*
X018377Y020012D01*
X018323Y020033D01*
X018271Y020057D01*
X018220Y020085D01*
X018171Y020116D01*
X018124Y020150D01*
X018080Y020187D01*
X018038Y020227D01*
X017999Y020270D01*
X017963Y020315D01*
X017930Y020363D01*
X017900Y020412D01*
X017874Y020464D01*
X017851Y020517D01*
X017831Y020571D01*
X017815Y020627D01*
X017803Y020684D01*
X017795Y020741D01*
X017790Y020798D01*
X017789Y020856D01*
X017792Y020914D01*
X017799Y020972D01*
X017809Y021028D01*
X017824Y021084D01*
X017842Y021139D01*
X017863Y021193D01*
X017888Y021245D01*
X017917Y021296D01*
X017948Y021344D01*
X017983Y021390D01*
X018021Y021434D01*
X018062Y021475D01*
X018105Y021514D01*
X018150Y021549D01*
X018198Y021582D01*
X018248Y021611D01*
X018300Y021637D01*
X018353Y021659D01*
X018357Y021651D01*
X018302Y021628D01*
X018250Y021602D01*
X018200Y021572D01*
X018151Y021539D01*
X018105Y021502D01*
X018062Y021463D01*
X018021Y021421D01*
X017983Y021376D01*
X017949Y021329D01*
X017917Y021279D01*
X017889Y021227D01*
X017865Y021174D01*
X017844Y021119D01*
X017827Y021063D01*
X017814Y021006D01*
X017805Y020948D01*
X017799Y020890D01*
X017798Y020831D01*
X017801Y020772D01*
X017807Y020714D01*
X017818Y020656D01*
X017832Y020599D01*
X017850Y020544D01*
X017872Y020489D01*
X017898Y020436D01*
X017927Y020385D01*
X017959Y020337D01*
X017995Y020290D01*
X018033Y020246D01*
X018075Y020204D01*
X018119Y020166D01*
X018166Y020131D01*
X018215Y020098D01*
X018266Y020070D01*
X018319Y020044D01*
X018373Y020023D01*
X018429Y020005D01*
X018486Y019991D01*
X018544Y019981D01*
X018602Y019974D01*
X018661Y019972D01*
X018661Y019981D01*
X018603Y019983D01*
X018545Y019990D01*
X018488Y020000D01*
X018432Y020014D01*
X018376Y020031D01*
X018323Y020053D01*
X018270Y020078D01*
X018220Y020106D01*
X018171Y020138D01*
X018125Y020173D01*
X018081Y020211D01*
X018040Y020252D01*
X018001Y020296D01*
X017966Y020342D01*
X017934Y020390D01*
X017905Y020441D01*
X017880Y020493D01*
X017859Y020547D01*
X017841Y020602D01*
X017826Y020658D01*
X017816Y020715D01*
X017810Y020773D01*
X017807Y020831D01*
X017808Y020889D01*
X017814Y020947D01*
X017823Y021004D01*
X017836Y021061D01*
X017853Y021116D01*
X017873Y021171D01*
X017897Y021223D01*
X017925Y021274D01*
X017956Y021324D01*
X017990Y021370D01*
X018028Y021415D01*
X018068Y021457D01*
X018111Y021496D01*
X018156Y021532D01*
X018204Y021564D01*
X018254Y021594D01*
X018306Y021620D01*
X018360Y021643D01*
X018363Y021634D01*
X018310Y021612D01*
X018259Y021586D01*
X018209Y021557D01*
X018162Y021524D01*
X018117Y021489D01*
X018074Y021450D01*
X018034Y021409D01*
X017997Y021365D01*
X017963Y021318D01*
X017933Y021270D01*
X017905Y021219D01*
X017881Y021167D01*
X017861Y021113D01*
X017845Y021058D01*
X017832Y021002D01*
X017823Y020946D01*
X017817Y020889D01*
X017816Y020831D01*
X017819Y020774D01*
X017825Y020717D01*
X017835Y020660D01*
X017849Y020604D01*
X017867Y020550D01*
X017888Y020497D01*
X017913Y020445D01*
X017942Y020395D01*
X017974Y020347D01*
X018008Y020301D01*
X018046Y020258D01*
X018087Y020218D01*
X018130Y020180D01*
X018176Y020145D01*
X018224Y020114D01*
X018274Y020086D01*
X018326Y020061D01*
X018379Y020040D01*
X018434Y020022D01*
X018490Y020008D01*
X018547Y019998D01*
X018604Y019992D01*
X018661Y019990D01*
X018661Y019999D01*
X018604Y020001D01*
X018548Y020007D01*
X018492Y020017D01*
X018437Y020031D01*
X018382Y020048D01*
X018330Y020069D01*
X018278Y020094D01*
X018229Y020122D01*
X018181Y020153D01*
X018136Y020187D01*
X018093Y020224D01*
X018053Y020264D01*
X018015Y020307D01*
X017981Y020352D01*
X017950Y020400D01*
X017921Y020449D01*
X017897Y020500D01*
X017876Y020553D01*
X017858Y020607D01*
X017844Y020662D01*
X017834Y020718D01*
X017828Y020774D01*
X017825Y020831D01*
X017826Y020888D01*
X017832Y020945D01*
X017841Y021001D01*
X017853Y021056D01*
X017870Y021111D01*
X017890Y021164D01*
X017913Y021215D01*
X017940Y021265D01*
X017971Y021313D01*
X018004Y021359D01*
X018041Y021403D01*
X018080Y021444D01*
X018123Y021482D01*
X018167Y021517D01*
X018214Y021549D01*
X018263Y021578D01*
X018314Y021604D01*
X018366Y021626D01*
X018369Y021617D01*
X018316Y021595D01*
X018265Y021569D01*
X018215Y021539D01*
X018168Y021506D01*
X018123Y021470D01*
X018081Y021431D01*
X018041Y021389D01*
X018005Y021345D01*
X017971Y021298D01*
X017941Y021249D01*
X017915Y021197D01*
X017892Y021145D01*
X017873Y021090D01*
X017857Y021035D01*
X017846Y020978D01*
X017838Y020921D01*
X017834Y020864D01*
X017835Y020806D01*
X017839Y020749D01*
X017847Y020692D01*
X017860Y020635D01*
X017876Y020580D01*
X017896Y020526D01*
X017919Y020473D01*
X017946Y020422D01*
X017977Y020374D01*
X018011Y020327D01*
X018048Y020283D01*
X018088Y020242D01*
X018131Y020203D01*
X018176Y020167D01*
X018224Y020135D01*
X018274Y020106D01*
X018326Y020081D01*
X018379Y020059D01*
X018434Y020041D01*
X018489Y020027D01*
X018546Y020017D01*
X018603Y020010D01*
X018661Y020008D01*
X018661Y020017D01*
X018604Y020019D01*
X018547Y020026D01*
X018491Y020036D01*
X018436Y020050D01*
X018382Y020068D01*
X018329Y020089D01*
X018278Y020114D01*
X018229Y020143D01*
X018181Y020175D01*
X018137Y020210D01*
X018094Y020248D01*
X018055Y020289D01*
X018018Y020333D01*
X017984Y020379D01*
X017954Y020427D01*
X017927Y020477D01*
X017904Y020529D01*
X017884Y020583D01*
X017868Y020637D01*
X017856Y020693D01*
X017848Y020750D01*
X017844Y020806D01*
X017843Y020863D01*
X017847Y020920D01*
X017854Y020977D01*
X017866Y021033D01*
X017881Y021088D01*
X017900Y021141D01*
X017923Y021194D01*
X017949Y021244D01*
X017979Y021293D01*
X018012Y021339D01*
X018048Y021383D01*
X018087Y021425D01*
X018129Y021463D01*
X018173Y021499D01*
X018220Y021532D01*
X018269Y021561D01*
X018320Y021587D01*
X018372Y021609D01*
X018375Y021600D01*
X018324Y021578D01*
X018273Y021553D01*
X018225Y021524D01*
X018179Y021492D01*
X018135Y021457D01*
X018093Y021418D01*
X018055Y021377D01*
X018019Y021334D01*
X017986Y021288D01*
X017957Y021240D01*
X017931Y021190D01*
X017908Y021138D01*
X017890Y021085D01*
X017875Y021030D01*
X017863Y020975D01*
X017856Y020919D01*
X017852Y020863D01*
X017853Y020807D01*
X017857Y020751D01*
X017865Y020695D01*
X017877Y020640D01*
X017893Y020586D01*
X017912Y020533D01*
X017935Y020481D01*
X017962Y020432D01*
X017992Y020384D01*
X018025Y020338D01*
X018061Y020295D01*
X018100Y020255D01*
X018142Y020217D01*
X018187Y020182D01*
X018233Y020150D01*
X018282Y020122D01*
X018333Y020097D01*
X018385Y020076D01*
X018439Y020058D01*
X018493Y020045D01*
X018549Y020035D01*
X018605Y020028D01*
X018661Y020026D01*
X013938Y019616D02*
X013963Y019659D01*
X013963Y019658D02*
X014027Y019623D01*
X014093Y019590D01*
X014160Y019561D01*
X014229Y019536D01*
X014299Y019515D01*
X014370Y019497D01*
X014442Y019483D01*
X014515Y019473D01*
X014588Y019467D01*
X014661Y019465D01*
X014661Y019416D01*
X014661Y019415D01*
X014592Y019417D01*
X014523Y019422D01*
X014454Y019431D01*
X014386Y019443D01*
X014319Y019458D01*
X014252Y019476D01*
X014187Y019498D01*
X014122Y019523D01*
X014059Y019551D01*
X013997Y019582D01*
X013937Y019616D01*
X013942Y019623D01*
X014002Y019590D01*
X014063Y019559D01*
X014126Y019531D01*
X014190Y019506D01*
X014255Y019485D01*
X014321Y019467D01*
X014388Y019452D01*
X014456Y019440D01*
X014524Y019431D01*
X014592Y019426D01*
X014661Y019424D01*
X014661Y019433D01*
X014586Y019435D01*
X014511Y019442D01*
X014437Y019452D01*
X014363Y019466D01*
X014290Y019484D01*
X014219Y019506D01*
X014148Y019532D01*
X014079Y019561D01*
X014012Y019594D01*
X013946Y019631D01*
X013951Y019639D01*
X014016Y019602D01*
X014083Y019569D01*
X014151Y019540D01*
X014222Y019515D01*
X014293Y019493D01*
X014365Y019475D01*
X014438Y019461D01*
X014512Y019450D01*
X014586Y019444D01*
X014661Y019442D01*
X014661Y019451D01*
X014587Y019453D01*
X014513Y019459D01*
X014440Y019470D01*
X014367Y019484D01*
X014295Y019501D01*
X014224Y019523D01*
X014155Y019548D01*
X014087Y019578D01*
X014020Y019610D01*
X013956Y019646D01*
X013960Y019654D01*
X014024Y019618D01*
X014090Y019586D01*
X014158Y019557D01*
X014227Y019532D01*
X014298Y019510D01*
X014369Y019492D01*
X014441Y019478D01*
X014514Y019468D01*
X014587Y019462D01*
X014661Y019460D01*
X014662Y022264D02*
X014662Y022214D01*
X014661Y022215D02*
X014588Y022213D01*
X014514Y022207D01*
X014442Y022197D01*
X014370Y022183D01*
X014298Y022165D01*
X014228Y022143D01*
X014159Y022118D01*
X014092Y022089D01*
X014026Y022057D01*
X013962Y022021D01*
X013900Y021982D01*
X013840Y021939D01*
X013782Y021894D01*
X013727Y021845D01*
X013675Y021793D01*
X013626Y021739D01*
X013579Y021682D01*
X013536Y021623D01*
X013496Y021562D01*
X013459Y021498D01*
X013425Y021433D01*
X013395Y021366D01*
X013369Y021297D01*
X013347Y021227D01*
X013328Y021156D01*
X013313Y021084D01*
X013302Y021012D01*
X013295Y020939D01*
X013291Y020865D01*
X013292Y020792D01*
X013296Y020719D01*
X013305Y020646D01*
X013317Y020573D01*
X013333Y020502D01*
X013353Y020431D01*
X013377Y020362D01*
X013404Y020294D01*
X013435Y020227D01*
X013470Y020162D01*
X013427Y020138D01*
X013426Y020137D01*
X013391Y020203D01*
X013360Y020270D01*
X013332Y020339D01*
X013308Y020409D01*
X013287Y020480D01*
X013270Y020552D01*
X013257Y020625D01*
X013248Y020699D01*
X013243Y020773D01*
X013241Y020847D01*
X013243Y020921D01*
X013249Y020995D01*
X013260Y021069D01*
X013273Y021142D01*
X013291Y021214D01*
X013312Y021285D01*
X013337Y021355D01*
X013366Y021423D01*
X013398Y021490D01*
X013434Y021555D01*
X013472Y021618D01*
X013515Y021680D01*
X013560Y021738D01*
X013608Y021795D01*
X013659Y021848D01*
X013713Y021899D01*
X013769Y021948D01*
X013828Y021993D01*
X013889Y022035D01*
X013953Y022074D01*
X014018Y022109D01*
X014085Y022141D01*
X014153Y022170D01*
X014223Y022194D01*
X014294Y022216D01*
X014366Y022233D01*
X014439Y022247D01*
X014513Y022257D01*
X014587Y022263D01*
X014661Y022265D01*
X014661Y022256D01*
X014587Y022254D01*
X014514Y022248D01*
X014441Y022238D01*
X014368Y022224D01*
X014297Y022207D01*
X014226Y022186D01*
X014157Y022161D01*
X014088Y022133D01*
X014022Y022101D01*
X013957Y022066D01*
X013894Y022027D01*
X013834Y021986D01*
X013775Y021941D01*
X013719Y021893D01*
X013666Y021842D01*
X013615Y021789D01*
X013567Y021733D01*
X013522Y021674D01*
X013480Y021614D01*
X013441Y021551D01*
X013406Y021486D01*
X013374Y021420D01*
X013346Y021352D01*
X013321Y021282D01*
X013300Y021212D01*
X013282Y021140D01*
X013268Y021067D01*
X013258Y020994D01*
X013252Y020921D01*
X013250Y020847D01*
X013252Y020774D01*
X013257Y020700D01*
X013266Y020627D01*
X013279Y020554D01*
X013296Y020482D01*
X013316Y020412D01*
X013340Y020342D01*
X013368Y020274D01*
X013399Y020207D01*
X013434Y020142D01*
X013442Y020146D01*
X013407Y020213D01*
X013375Y020281D01*
X013347Y020350D01*
X013323Y020422D01*
X013302Y020494D01*
X013286Y020567D01*
X013273Y020641D01*
X013264Y020716D01*
X013260Y020791D01*
X013259Y020866D01*
X013263Y020941D01*
X013270Y021016D01*
X013281Y021090D01*
X013297Y021164D01*
X013316Y021236D01*
X013339Y021308D01*
X013366Y021378D01*
X013396Y021447D01*
X013431Y021513D01*
X013468Y021578D01*
X013509Y021641D01*
X013554Y021702D01*
X013602Y021760D01*
X013652Y021816D01*
X013706Y021868D01*
X013762Y021918D01*
X013821Y021965D01*
X013882Y022008D01*
X013945Y022049D01*
X014011Y022085D01*
X014078Y022118D01*
X014148Y022148D01*
X014218Y022174D01*
X014290Y022196D01*
X014363Y022214D01*
X014437Y022228D01*
X014511Y022238D01*
X014586Y022245D01*
X014661Y022247D01*
X014661Y022238D01*
X014586Y022236D01*
X014512Y022229D01*
X014438Y022219D01*
X014365Y022205D01*
X014292Y022187D01*
X014221Y022165D01*
X014151Y022140D01*
X014082Y022110D01*
X014015Y022077D01*
X013950Y022041D01*
X013887Y022001D01*
X013826Y021958D01*
X013768Y021911D01*
X013712Y021862D01*
X013659Y021809D01*
X013608Y021754D01*
X013561Y021696D01*
X013517Y021636D01*
X013476Y021574D01*
X013439Y021509D01*
X013405Y021443D01*
X013374Y021375D01*
X013348Y021305D01*
X013325Y021234D01*
X013305Y021162D01*
X013290Y021089D01*
X013279Y021015D01*
X013272Y020940D01*
X013268Y020866D01*
X013269Y020791D01*
X013273Y020717D01*
X013282Y020643D01*
X013295Y020569D01*
X013311Y020496D01*
X013331Y020424D01*
X013355Y020354D01*
X013383Y020284D01*
X013415Y020217D01*
X013450Y020151D01*
X013458Y020155D01*
X013423Y020221D01*
X013391Y020288D01*
X013364Y020357D01*
X013340Y020427D01*
X013320Y020498D01*
X013303Y020571D01*
X013291Y020644D01*
X013282Y020718D01*
X013278Y020792D01*
X013277Y020866D01*
X013281Y020940D01*
X013288Y021014D01*
X013299Y021087D01*
X013314Y021160D01*
X013333Y021231D01*
X013356Y021302D01*
X013383Y021371D01*
X013413Y021439D01*
X013446Y021505D01*
X013484Y021569D01*
X013524Y021631D01*
X013568Y021691D01*
X013615Y021748D01*
X013665Y021803D01*
X013718Y021855D01*
X013773Y021904D01*
X013832Y021950D01*
X013892Y021993D01*
X013955Y022033D01*
X014019Y022069D01*
X014086Y022102D01*
X014154Y022131D01*
X014224Y022157D01*
X014295Y022178D01*
X014367Y022196D01*
X014439Y022210D01*
X014513Y022221D01*
X014587Y022227D01*
X014661Y022229D01*
X014661Y022220D01*
X014587Y022218D01*
X014514Y022212D01*
X014441Y022202D01*
X014369Y022188D01*
X014297Y022170D01*
X014227Y022148D01*
X014157Y022123D01*
X014090Y022094D01*
X014024Y022061D01*
X013959Y022025D01*
X013897Y021986D01*
X013837Y021943D01*
X013779Y021897D01*
X013724Y021849D01*
X013672Y021797D01*
X013622Y021742D01*
X013575Y021685D01*
X013532Y021626D01*
X013491Y021564D01*
X013454Y021501D01*
X013421Y021435D01*
X013391Y021368D01*
X013365Y021299D01*
X013342Y021229D01*
X013323Y021157D01*
X013308Y021085D01*
X013297Y021012D01*
X013290Y020939D01*
X013286Y020866D01*
X013287Y020792D01*
X013291Y020718D01*
X013300Y020645D01*
X013312Y020572D01*
X013328Y020501D01*
X013348Y020430D01*
X013372Y020360D01*
X013400Y020292D01*
X013431Y020225D01*
X013465Y020160D01*
X015890Y020112D02*
X015847Y020137D01*
X015848Y020137D02*
X015884Y020202D01*
X015916Y020268D01*
X015945Y020336D01*
X015971Y020406D01*
X015992Y020477D01*
X016010Y020549D01*
X016024Y020622D01*
X016033Y020696D01*
X016039Y020770D01*
X016041Y020844D01*
X016039Y020918D01*
X016033Y020992D01*
X016022Y021065D01*
X016008Y021138D01*
X015990Y021210D01*
X015968Y021281D01*
X015943Y021350D01*
X015913Y021419D01*
X015880Y021485D01*
X015844Y021549D01*
X015804Y021612D01*
X015761Y021672D01*
X015714Y021730D01*
X015665Y021785D01*
X015612Y021838D01*
X015557Y021887D01*
X015499Y021934D01*
X015439Y021977D01*
X015377Y022017D01*
X015312Y022054D01*
X015246Y022087D01*
X015178Y022116D01*
X015108Y022142D01*
X015037Y022164D01*
X014965Y022182D01*
X014892Y022196D01*
X014819Y022206D01*
X014745Y022213D01*
X014671Y022215D01*
X014670Y022264D01*
X014671Y022265D01*
X014746Y022263D01*
X014821Y022257D01*
X014895Y022246D01*
X014969Y022233D01*
X015041Y022215D01*
X015113Y022193D01*
X015184Y022168D01*
X015253Y022139D01*
X015320Y022106D01*
X015386Y022070D01*
X015450Y022030D01*
X015511Y021987D01*
X015570Y021941D01*
X015627Y021892D01*
X015681Y021840D01*
X015732Y021786D01*
X015780Y021728D01*
X015825Y021668D01*
X015867Y021606D01*
X015906Y021542D01*
X015941Y021476D01*
X015973Y021408D01*
X016001Y021339D01*
X016025Y021268D01*
X016046Y021196D01*
X016063Y021123D01*
X016076Y021049D01*
X016085Y020974D01*
X016090Y020899D01*
X016091Y020825D01*
X016088Y020750D01*
X016081Y020675D01*
X016071Y020601D01*
X016056Y020527D01*
X016038Y020455D01*
X016016Y020383D01*
X015990Y020313D01*
X015960Y020244D01*
X015927Y020177D01*
X015891Y020111D01*
X015883Y020116D01*
X015919Y020181D01*
X015952Y020248D01*
X015981Y020316D01*
X016007Y020386D01*
X016029Y020457D01*
X016047Y020529D01*
X016062Y020602D01*
X016072Y020676D01*
X016079Y020750D01*
X016082Y020825D01*
X016081Y020899D01*
X016076Y020973D01*
X016067Y021047D01*
X016054Y021121D01*
X016037Y021193D01*
X016017Y021265D01*
X015993Y021335D01*
X015965Y021404D01*
X015933Y021472D01*
X015898Y021538D01*
X015860Y021601D01*
X015818Y021663D01*
X015773Y021723D01*
X015725Y021780D01*
X015674Y021834D01*
X015621Y021886D01*
X015564Y021934D01*
X015506Y021980D01*
X015445Y022023D01*
X015381Y022062D01*
X015316Y022098D01*
X015249Y022130D01*
X015180Y022159D01*
X015110Y022184D01*
X015039Y022206D01*
X014967Y022224D01*
X014893Y022238D01*
X014820Y022248D01*
X014745Y022254D01*
X014671Y022256D01*
X014671Y022247D01*
X014745Y022245D01*
X014819Y022239D01*
X014892Y022229D01*
X014965Y022215D01*
X015037Y022197D01*
X015107Y022176D01*
X015177Y022151D01*
X015245Y022122D01*
X015312Y022090D01*
X015377Y022054D01*
X015440Y022015D01*
X015500Y021973D01*
X015559Y021927D01*
X015615Y021879D01*
X015668Y021828D01*
X015719Y021774D01*
X015766Y021717D01*
X015811Y021658D01*
X015852Y021597D01*
X015890Y021533D01*
X015925Y021468D01*
X015956Y021401D01*
X015984Y021332D01*
X016008Y021262D01*
X016028Y021191D01*
X016045Y021119D01*
X016058Y021046D01*
X016067Y020973D01*
X016072Y020899D01*
X016073Y020825D01*
X016070Y020751D01*
X016064Y020677D01*
X016053Y020604D01*
X016039Y020531D01*
X016021Y020460D01*
X015999Y020389D01*
X015973Y020319D01*
X015944Y020251D01*
X015911Y020185D01*
X015875Y020120D01*
X015867Y020125D01*
X015903Y020189D01*
X015936Y020255D01*
X015965Y020323D01*
X015990Y020392D01*
X016012Y020462D01*
X016030Y020533D01*
X016044Y020605D01*
X016055Y020678D01*
X016061Y020751D01*
X016064Y020825D01*
X016063Y020898D01*
X016058Y020972D01*
X016049Y021045D01*
X016036Y021117D01*
X016020Y021189D01*
X016000Y021260D01*
X015976Y021329D01*
X015948Y021397D01*
X015917Y021464D01*
X015883Y021529D01*
X015845Y021592D01*
X015803Y021653D01*
X015759Y021711D01*
X015712Y021768D01*
X015662Y021821D01*
X015609Y021872D01*
X015553Y021921D01*
X015495Y021966D01*
X015435Y022008D01*
X015372Y022046D01*
X015308Y022082D01*
X015242Y022114D01*
X015174Y022142D01*
X015105Y022167D01*
X015034Y022189D01*
X014963Y022206D01*
X014891Y022220D01*
X014818Y022230D01*
X014744Y022236D01*
X014671Y022238D01*
X014671Y022229D01*
X014744Y022227D01*
X014817Y022221D01*
X014889Y022211D01*
X014961Y022197D01*
X015032Y022180D01*
X015102Y022159D01*
X015171Y022134D01*
X015238Y022106D01*
X015304Y022074D01*
X015368Y022039D01*
X015430Y022000D01*
X015490Y021958D01*
X015547Y021914D01*
X015603Y021866D01*
X015655Y021815D01*
X015705Y021762D01*
X015752Y021706D01*
X015796Y021648D01*
X015837Y021587D01*
X015875Y021524D01*
X015909Y021460D01*
X015940Y021394D01*
X015967Y021326D01*
X015991Y021257D01*
X016011Y021187D01*
X016027Y021115D01*
X016040Y021043D01*
X016049Y020971D01*
X016054Y020898D01*
X016055Y020825D01*
X016052Y020752D01*
X016046Y020679D01*
X016035Y020607D01*
X016021Y020535D01*
X016003Y020464D01*
X015982Y020395D01*
X015956Y020326D01*
X015928Y020259D01*
X015895Y020193D01*
X015860Y020130D01*
X015852Y020134D01*
X015888Y020199D01*
X015921Y020266D01*
X015950Y020335D01*
X015976Y020405D01*
X015997Y020476D01*
X016015Y020548D01*
X016029Y020621D01*
X016038Y020695D01*
X016044Y020769D01*
X016046Y020844D01*
X016044Y020918D01*
X016038Y020992D01*
X016027Y021066D01*
X016013Y021139D01*
X015995Y021211D01*
X015973Y021282D01*
X015947Y021352D01*
X015918Y021421D01*
X015885Y021487D01*
X015848Y021552D01*
X015808Y021615D01*
X015765Y021675D01*
X015718Y021733D01*
X015668Y021789D01*
X015616Y021841D01*
X015560Y021891D01*
X015502Y021938D01*
X015442Y021981D01*
X015379Y022021D01*
X015314Y022058D01*
X015248Y022091D01*
X015179Y022121D01*
X015110Y022147D01*
X015039Y022169D01*
X014966Y022187D01*
X014893Y022201D01*
X014820Y022211D01*
X014745Y022218D01*
X014671Y022220D01*
X014670Y019416D02*
X014670Y019466D01*
X014671Y019465D02*
X014745Y019467D01*
X014819Y019474D01*
X014893Y019484D01*
X014966Y019498D01*
X015038Y019516D01*
X015109Y019538D01*
X015179Y019564D01*
X015247Y019594D01*
X015314Y019627D01*
X015379Y019664D01*
X015404Y019622D01*
X015405Y019621D01*
X015344Y019587D01*
X015281Y019555D01*
X015217Y019526D01*
X015152Y019500D01*
X015086Y019478D01*
X015018Y019459D01*
X014950Y019444D01*
X014881Y019431D01*
X014811Y019422D01*
X014741Y019417D01*
X014671Y019415D01*
X014671Y019424D01*
X014741Y019426D01*
X014810Y019431D01*
X014879Y019440D01*
X014948Y019452D01*
X015016Y019468D01*
X015083Y019487D01*
X015149Y019509D01*
X015214Y019534D01*
X015277Y019563D01*
X015340Y019594D01*
X015400Y019629D01*
X015395Y019637D01*
X015335Y019602D01*
X015274Y019571D01*
X015210Y019543D01*
X015146Y019517D01*
X015080Y019495D01*
X015014Y019477D01*
X014946Y019461D01*
X014878Y019449D01*
X014809Y019440D01*
X014740Y019435D01*
X014671Y019433D01*
X014671Y019442D01*
X014740Y019444D01*
X014808Y019449D01*
X014877Y019458D01*
X014944Y019470D01*
X015011Y019485D01*
X015078Y019504D01*
X015143Y019526D01*
X015207Y019551D01*
X015270Y019579D01*
X015331Y019610D01*
X015391Y019644D01*
X015386Y019652D01*
X015327Y019618D01*
X015266Y019587D01*
X015203Y019559D01*
X015140Y019534D01*
X015075Y019513D01*
X015009Y019494D01*
X014943Y019479D01*
X014875Y019467D01*
X014807Y019458D01*
X014739Y019453D01*
X014671Y019451D01*
X014671Y019460D01*
X014746Y019462D01*
X014820Y019469D01*
X014894Y019479D01*
X014967Y019493D01*
X015040Y019512D01*
X015111Y019534D01*
X015181Y019560D01*
X015250Y019589D01*
X015316Y019623D01*
X015381Y019660D01*
X014670Y019946D02*
X014670Y020036D01*
X014671Y020035D02*
X014727Y020037D01*
X014782Y020043D01*
X014837Y020053D01*
X014891Y020067D01*
X014944Y020084D01*
X014996Y020106D01*
X015046Y020130D01*
X015094Y020158D01*
X015140Y020189D01*
X015184Y020224D01*
X015225Y020261D01*
X015264Y020301D01*
X015300Y020344D01*
X015333Y020389D01*
X015362Y020436D01*
X015389Y020485D01*
X015411Y020536D01*
X015431Y020588D01*
X015446Y020642D01*
X015458Y020696D01*
X015466Y020752D01*
X015470Y020807D01*
X015471Y020863D01*
X015467Y020918D01*
X015460Y020974D01*
X015449Y021028D01*
X015434Y021082D01*
X015415Y021135D01*
X015393Y021186D01*
X015367Y021235D01*
X015338Y021283D01*
X015306Y021328D01*
X015271Y021371D01*
X015232Y021412D01*
X015192Y021450D01*
X015148Y021485D01*
X015102Y021517D01*
X015054Y021545D01*
X015005Y021570D01*
X014953Y021592D01*
X014984Y021676D01*
X014985Y021676D01*
X015039Y021653D01*
X015092Y021627D01*
X015143Y021597D01*
X015192Y021564D01*
X015239Y021528D01*
X015283Y021489D01*
X015324Y021446D01*
X015363Y021402D01*
X015398Y021355D01*
X015431Y021305D01*
X015460Y021254D01*
X015485Y021200D01*
X015507Y021146D01*
X015526Y021090D01*
X015540Y021032D01*
X015551Y020974D01*
X015558Y020916D01*
X015561Y020857D01*
X015560Y020798D01*
X015555Y020739D01*
X015547Y020680D01*
X015534Y020623D01*
X015518Y020566D01*
X015498Y020510D01*
X015474Y020456D01*
X015447Y020404D01*
X015417Y020353D01*
X015383Y020305D01*
X015346Y020258D01*
X015306Y020215D01*
X015264Y020174D01*
X015219Y020136D01*
X015171Y020101D01*
X015121Y020069D01*
X015069Y020041D01*
X015016Y020016D01*
X014961Y019995D01*
X014904Y019977D01*
X014847Y019963D01*
X014789Y019953D01*
X014730Y019947D01*
X014671Y019945D01*
X014671Y019954D01*
X014729Y019956D01*
X014788Y019962D01*
X014845Y019972D01*
X014902Y019986D01*
X014958Y020003D01*
X015012Y020024D01*
X015065Y020049D01*
X015117Y020077D01*
X015166Y020109D01*
X015213Y020143D01*
X015258Y020181D01*
X015300Y020221D01*
X015339Y020264D01*
X015376Y020310D01*
X015409Y020358D01*
X015440Y020408D01*
X015466Y020460D01*
X015490Y020514D01*
X015509Y020569D01*
X015525Y020625D01*
X015538Y020682D01*
X015546Y020740D01*
X015551Y020798D01*
X015552Y020856D01*
X015549Y020915D01*
X015542Y020973D01*
X015531Y021030D01*
X015517Y021087D01*
X015499Y021143D01*
X015477Y021197D01*
X015452Y021250D01*
X015423Y021300D01*
X015391Y021349D01*
X015356Y021396D01*
X015318Y021440D01*
X015277Y021482D01*
X015233Y021521D01*
X015187Y021557D01*
X015138Y021590D01*
X015088Y021619D01*
X015036Y021645D01*
X014982Y021668D01*
X014979Y021659D01*
X015032Y021637D01*
X015084Y021611D01*
X015134Y021582D01*
X015182Y021549D01*
X015227Y021514D01*
X015270Y021475D01*
X015311Y021434D01*
X015349Y021390D01*
X015384Y021344D01*
X015415Y021296D01*
X015444Y021245D01*
X015469Y021193D01*
X015490Y021139D01*
X015508Y021084D01*
X015523Y021028D01*
X015533Y020972D01*
X015540Y020914D01*
X015543Y020856D01*
X015542Y020798D01*
X015537Y020741D01*
X015529Y020684D01*
X015517Y020627D01*
X015501Y020571D01*
X015481Y020517D01*
X015458Y020464D01*
X015432Y020412D01*
X015402Y020363D01*
X015369Y020315D01*
X015333Y020270D01*
X015294Y020227D01*
X015252Y020187D01*
X015208Y020150D01*
X015161Y020116D01*
X015112Y020085D01*
X015061Y020057D01*
X015009Y020033D01*
X014955Y020012D01*
X014900Y019995D01*
X014843Y019981D01*
X014786Y019971D01*
X014729Y019965D01*
X014671Y019963D01*
X014671Y019972D01*
X014730Y019974D01*
X014788Y019981D01*
X014846Y019991D01*
X014903Y020005D01*
X014959Y020023D01*
X015013Y020044D01*
X015066Y020070D01*
X015117Y020098D01*
X015166Y020131D01*
X015213Y020166D01*
X015257Y020204D01*
X015299Y020246D01*
X015337Y020290D01*
X015373Y020337D01*
X015405Y020385D01*
X015434Y020436D01*
X015460Y020489D01*
X015482Y020544D01*
X015500Y020599D01*
X015514Y020656D01*
X015525Y020714D01*
X015531Y020772D01*
X015534Y020831D01*
X015533Y020890D01*
X015527Y020948D01*
X015518Y021006D01*
X015505Y021063D01*
X015488Y021119D01*
X015467Y021174D01*
X015443Y021227D01*
X015415Y021279D01*
X015383Y021329D01*
X015349Y021376D01*
X015311Y021421D01*
X015270Y021463D01*
X015227Y021502D01*
X015181Y021539D01*
X015132Y021572D01*
X015082Y021602D01*
X015030Y021628D01*
X014975Y021651D01*
X014972Y021643D01*
X015026Y021620D01*
X015078Y021594D01*
X015128Y021564D01*
X015176Y021532D01*
X015221Y021496D01*
X015264Y021457D01*
X015304Y021415D01*
X015342Y021370D01*
X015376Y021324D01*
X015407Y021274D01*
X015435Y021223D01*
X015459Y021171D01*
X015479Y021116D01*
X015496Y021061D01*
X015509Y021004D01*
X015518Y020947D01*
X015524Y020889D01*
X015525Y020831D01*
X015522Y020773D01*
X015516Y020715D01*
X015506Y020658D01*
X015491Y020602D01*
X015473Y020547D01*
X015452Y020493D01*
X015427Y020441D01*
X015398Y020390D01*
X015366Y020342D01*
X015331Y020296D01*
X015292Y020252D01*
X015251Y020211D01*
X015207Y020173D01*
X015161Y020138D01*
X015112Y020106D01*
X015062Y020078D01*
X015009Y020053D01*
X014956Y020031D01*
X014900Y020014D01*
X014844Y020000D01*
X014787Y019990D01*
X014729Y019983D01*
X014671Y019981D01*
X014671Y019990D01*
X014728Y019992D01*
X014785Y019998D01*
X014842Y020008D01*
X014898Y020022D01*
X014953Y020040D01*
X015006Y020061D01*
X015058Y020086D01*
X015108Y020114D01*
X015156Y020145D01*
X015202Y020180D01*
X015245Y020218D01*
X015286Y020258D01*
X015324Y020301D01*
X015358Y020347D01*
X015390Y020395D01*
X015419Y020445D01*
X015444Y020497D01*
X015465Y020550D01*
X015483Y020604D01*
X015497Y020660D01*
X015507Y020717D01*
X015513Y020774D01*
X015516Y020831D01*
X015515Y020889D01*
X015509Y020946D01*
X015500Y021002D01*
X015487Y021058D01*
X015471Y021113D01*
X015451Y021167D01*
X015427Y021219D01*
X015399Y021270D01*
X015369Y021318D01*
X015335Y021365D01*
X015298Y021409D01*
X015258Y021450D01*
X015215Y021489D01*
X015170Y021524D01*
X015123Y021557D01*
X015073Y021586D01*
X015022Y021612D01*
X014969Y021634D01*
X014966Y021626D01*
X015018Y021604D01*
X015069Y021578D01*
X015118Y021549D01*
X015165Y021517D01*
X015209Y021482D01*
X015252Y021444D01*
X015291Y021403D01*
X015328Y021359D01*
X015361Y021313D01*
X015392Y021265D01*
X015419Y021215D01*
X015442Y021164D01*
X015462Y021111D01*
X015479Y021056D01*
X015491Y021001D01*
X015500Y020945D01*
X015506Y020888D01*
X015507Y020831D01*
X015504Y020774D01*
X015498Y020718D01*
X015488Y020662D01*
X015474Y020607D01*
X015456Y020553D01*
X015435Y020500D01*
X015411Y020449D01*
X015382Y020400D01*
X015351Y020352D01*
X015317Y020307D01*
X015279Y020264D01*
X015239Y020224D01*
X015196Y020187D01*
X015151Y020153D01*
X015103Y020122D01*
X015054Y020094D01*
X015002Y020069D01*
X014950Y020048D01*
X014895Y020031D01*
X014840Y020017D01*
X014784Y020007D01*
X014728Y020001D01*
X014671Y019999D01*
X014671Y020008D01*
X014729Y020010D01*
X014786Y020017D01*
X014843Y020027D01*
X014898Y020041D01*
X014953Y020059D01*
X015006Y020081D01*
X015058Y020106D01*
X015108Y020135D01*
X015156Y020167D01*
X015201Y020203D01*
X015244Y020242D01*
X015284Y020283D01*
X015321Y020327D01*
X015355Y020374D01*
X015386Y020422D01*
X015413Y020473D01*
X015436Y020526D01*
X015456Y020580D01*
X015472Y020635D01*
X015485Y020692D01*
X015493Y020749D01*
X015497Y020806D01*
X015498Y020864D01*
X015494Y020921D01*
X015486Y020978D01*
X015475Y021035D01*
X015459Y021090D01*
X015440Y021145D01*
X015417Y021197D01*
X015391Y021249D01*
X015361Y021298D01*
X015327Y021345D01*
X015291Y021389D01*
X015251Y021431D01*
X015209Y021470D01*
X015164Y021506D01*
X015117Y021539D01*
X015067Y021569D01*
X015016Y021595D01*
X014963Y021617D01*
X014960Y021609D01*
X015012Y021587D01*
X015063Y021561D01*
X015112Y021532D01*
X015159Y021499D01*
X015203Y021463D01*
X015245Y021425D01*
X015284Y021383D01*
X015320Y021339D01*
X015353Y021293D01*
X015383Y021244D01*
X015409Y021194D01*
X015432Y021141D01*
X015451Y021088D01*
X015466Y021033D01*
X015478Y020977D01*
X015485Y020920D01*
X015489Y020863D01*
X015488Y020806D01*
X015484Y020750D01*
X015476Y020693D01*
X015464Y020637D01*
X015448Y020583D01*
X015428Y020529D01*
X015405Y020477D01*
X015378Y020427D01*
X015348Y020379D01*
X015314Y020333D01*
X015277Y020289D01*
X015238Y020248D01*
X015195Y020210D01*
X015151Y020175D01*
X015103Y020143D01*
X015054Y020114D01*
X015003Y020089D01*
X014950Y020068D01*
X014896Y020050D01*
X014841Y020036D01*
X014785Y020026D01*
X014728Y020019D01*
X014671Y020017D01*
X014671Y020026D01*
X014727Y020028D01*
X014783Y020035D01*
X014839Y020045D01*
X014893Y020058D01*
X014947Y020076D01*
X014999Y020097D01*
X015050Y020122D01*
X015099Y020150D01*
X015145Y020182D01*
X015190Y020217D01*
X015232Y020255D01*
X015271Y020295D01*
X015307Y020338D01*
X015340Y020384D01*
X015370Y020432D01*
X015397Y020481D01*
X015420Y020533D01*
X015439Y020586D01*
X015455Y020640D01*
X015467Y020695D01*
X015475Y020751D01*
X015479Y020807D01*
X015480Y020863D01*
X015476Y020919D01*
X015469Y020975D01*
X015457Y021030D01*
X015442Y021085D01*
X015424Y021138D01*
X015401Y021190D01*
X015375Y021240D01*
X015346Y021288D01*
X015313Y021334D01*
X015277Y021377D01*
X015239Y021418D01*
X015197Y021457D01*
X015153Y021492D01*
X015107Y021524D01*
X015059Y021553D01*
X015008Y021578D01*
X014957Y021600D01*
X014348Y021676D02*
X014379Y021591D01*
X014379Y021592D02*
X014327Y021570D01*
X014278Y021545D01*
X014230Y021517D01*
X014184Y021485D01*
X014140Y021450D01*
X014100Y021412D01*
X014061Y021371D01*
X014026Y021328D01*
X013994Y021283D01*
X013965Y021235D01*
X013939Y021186D01*
X013917Y021135D01*
X013898Y021082D01*
X013883Y021028D01*
X013872Y020974D01*
X013865Y020918D01*
X013861Y020863D01*
X013862Y020807D01*
X013866Y020752D01*
X013874Y020696D01*
X013886Y020642D01*
X013901Y020588D01*
X013921Y020536D01*
X013943Y020485D01*
X013970Y020436D01*
X013999Y020389D01*
X014032Y020344D01*
X014068Y020301D01*
X014107Y020261D01*
X014148Y020224D01*
X014192Y020189D01*
X014238Y020158D01*
X014286Y020130D01*
X014336Y020106D01*
X014388Y020084D01*
X014441Y020067D01*
X014495Y020053D01*
X014550Y020043D01*
X014605Y020037D01*
X014661Y020035D01*
X014662Y019946D01*
X014661Y019945D01*
X014602Y019947D01*
X014543Y019953D01*
X014485Y019963D01*
X014428Y019977D01*
X014371Y019995D01*
X014316Y020016D01*
X014263Y020041D01*
X014211Y020069D01*
X014161Y020101D01*
X014113Y020136D01*
X014068Y020174D01*
X014026Y020215D01*
X013986Y020258D01*
X013949Y020305D01*
X013915Y020353D01*
X013885Y020404D01*
X013858Y020456D01*
X013834Y020510D01*
X013814Y020566D01*
X013798Y020623D01*
X013785Y020680D01*
X013777Y020739D01*
X013772Y020798D01*
X013771Y020857D01*
X013774Y020916D01*
X013781Y020974D01*
X013792Y021032D01*
X013806Y021090D01*
X013825Y021146D01*
X013847Y021200D01*
X013872Y021254D01*
X013901Y021305D01*
X013934Y021355D01*
X013969Y021402D01*
X014008Y021446D01*
X014049Y021489D01*
X014093Y021528D01*
X014140Y021564D01*
X014189Y021597D01*
X014240Y021627D01*
X014293Y021653D01*
X014347Y021676D01*
X014350Y021668D01*
X014296Y021645D01*
X014244Y021619D01*
X014194Y021590D01*
X014145Y021557D01*
X014099Y021521D01*
X014055Y021482D01*
X014014Y021440D01*
X013976Y021396D01*
X013941Y021349D01*
X013909Y021300D01*
X013880Y021250D01*
X013855Y021197D01*
X013833Y021143D01*
X013815Y021087D01*
X013801Y021030D01*
X013790Y020973D01*
X013783Y020915D01*
X013780Y020856D01*
X013781Y020798D01*
X013786Y020740D01*
X013794Y020682D01*
X013807Y020625D01*
X013823Y020569D01*
X013842Y020514D01*
X013866Y020460D01*
X013892Y020408D01*
X013923Y020358D01*
X013956Y020310D01*
X013993Y020264D01*
X014032Y020221D01*
X014074Y020181D01*
X014119Y020143D01*
X014166Y020109D01*
X014215Y020077D01*
X014267Y020049D01*
X014320Y020024D01*
X014374Y020003D01*
X014430Y019986D01*
X014487Y019972D01*
X014544Y019962D01*
X014603Y019956D01*
X014661Y019954D01*
X014661Y019963D01*
X014603Y019965D01*
X014546Y019971D01*
X014489Y019981D01*
X014432Y019995D01*
X014377Y020012D01*
X014323Y020033D01*
X014271Y020057D01*
X014220Y020085D01*
X014171Y020116D01*
X014124Y020150D01*
X014080Y020187D01*
X014038Y020227D01*
X013999Y020270D01*
X013963Y020315D01*
X013930Y020363D01*
X013900Y020412D01*
X013874Y020464D01*
X013851Y020517D01*
X013831Y020571D01*
X013815Y020627D01*
X013803Y020684D01*
X013795Y020741D01*
X013790Y020798D01*
X013789Y020856D01*
X013792Y020914D01*
X013799Y020972D01*
X013809Y021028D01*
X013824Y021084D01*
X013842Y021139D01*
X013863Y021193D01*
X013888Y021245D01*
X013917Y021296D01*
X013948Y021344D01*
X013983Y021390D01*
X014021Y021434D01*
X014062Y021475D01*
X014105Y021514D01*
X014150Y021549D01*
X014198Y021582D01*
X014248Y021611D01*
X014300Y021637D01*
X014353Y021659D01*
X014357Y021651D01*
X014302Y021628D01*
X014250Y021602D01*
X014200Y021572D01*
X014151Y021539D01*
X014105Y021502D01*
X014062Y021463D01*
X014021Y021421D01*
X013983Y021376D01*
X013949Y021329D01*
X013917Y021279D01*
X013889Y021227D01*
X013865Y021174D01*
X013844Y021119D01*
X013827Y021063D01*
X013814Y021006D01*
X013805Y020948D01*
X013799Y020890D01*
X013798Y020831D01*
X013801Y020772D01*
X013807Y020714D01*
X013818Y020656D01*
X013832Y020599D01*
X013850Y020544D01*
X013872Y020489D01*
X013898Y020436D01*
X013927Y020385D01*
X013959Y020337D01*
X013995Y020290D01*
X014033Y020246D01*
X014075Y020204D01*
X014119Y020166D01*
X014166Y020131D01*
X014215Y020098D01*
X014266Y020070D01*
X014319Y020044D01*
X014373Y020023D01*
X014429Y020005D01*
X014486Y019991D01*
X014544Y019981D01*
X014602Y019974D01*
X014661Y019972D01*
X014661Y019981D01*
X014603Y019983D01*
X014545Y019990D01*
X014488Y020000D01*
X014432Y020014D01*
X014376Y020031D01*
X014323Y020053D01*
X014270Y020078D01*
X014220Y020106D01*
X014171Y020138D01*
X014125Y020173D01*
X014081Y020211D01*
X014040Y020252D01*
X014001Y020296D01*
X013966Y020342D01*
X013934Y020390D01*
X013905Y020441D01*
X013880Y020493D01*
X013859Y020547D01*
X013841Y020602D01*
X013826Y020658D01*
X013816Y020715D01*
X013810Y020773D01*
X013807Y020831D01*
X013808Y020889D01*
X013814Y020947D01*
X013823Y021004D01*
X013836Y021061D01*
X013853Y021116D01*
X013873Y021171D01*
X013897Y021223D01*
X013925Y021274D01*
X013956Y021324D01*
X013990Y021370D01*
X014028Y021415D01*
X014068Y021457D01*
X014111Y021496D01*
X014156Y021532D01*
X014204Y021564D01*
X014254Y021594D01*
X014306Y021620D01*
X014360Y021643D01*
X014363Y021634D01*
X014310Y021612D01*
X014259Y021586D01*
X014209Y021557D01*
X014162Y021524D01*
X014117Y021489D01*
X014074Y021450D01*
X014034Y021409D01*
X013997Y021365D01*
X013963Y021318D01*
X013933Y021270D01*
X013905Y021219D01*
X013881Y021167D01*
X013861Y021113D01*
X013845Y021058D01*
X013832Y021002D01*
X013823Y020946D01*
X013817Y020889D01*
X013816Y020831D01*
X013819Y020774D01*
X013825Y020717D01*
X013835Y020660D01*
X013849Y020604D01*
X013867Y020550D01*
X013888Y020497D01*
X013913Y020445D01*
X013942Y020395D01*
X013974Y020347D01*
X014008Y020301D01*
X014046Y020258D01*
X014087Y020218D01*
X014130Y020180D01*
X014176Y020145D01*
X014224Y020114D01*
X014274Y020086D01*
X014326Y020061D01*
X014379Y020040D01*
X014434Y020022D01*
X014490Y020008D01*
X014547Y019998D01*
X014604Y019992D01*
X014661Y019990D01*
X014661Y019999D01*
X014604Y020001D01*
X014548Y020007D01*
X014492Y020017D01*
X014437Y020031D01*
X014382Y020048D01*
X014330Y020069D01*
X014278Y020094D01*
X014229Y020122D01*
X014181Y020153D01*
X014136Y020187D01*
X014093Y020224D01*
X014053Y020264D01*
X014015Y020307D01*
X013981Y020352D01*
X013950Y020400D01*
X013921Y020449D01*
X013897Y020500D01*
X013876Y020553D01*
X013858Y020607D01*
X013844Y020662D01*
X013834Y020718D01*
X013828Y020774D01*
X013825Y020831D01*
X013826Y020888D01*
X013832Y020945D01*
X013841Y021001D01*
X013853Y021056D01*
X013870Y021111D01*
X013890Y021164D01*
X013913Y021215D01*
X013940Y021265D01*
X013971Y021313D01*
X014004Y021359D01*
X014041Y021403D01*
X014080Y021444D01*
X014123Y021482D01*
X014167Y021517D01*
X014214Y021549D01*
X014263Y021578D01*
X014314Y021604D01*
X014366Y021626D01*
X014369Y021617D01*
X014316Y021595D01*
X014265Y021569D01*
X014215Y021539D01*
X014168Y021506D01*
X014123Y021470D01*
X014081Y021431D01*
X014041Y021389D01*
X014005Y021345D01*
X013971Y021298D01*
X013941Y021249D01*
X013915Y021197D01*
X013892Y021145D01*
X013873Y021090D01*
X013857Y021035D01*
X013846Y020978D01*
X013838Y020921D01*
X013834Y020864D01*
X013835Y020806D01*
X013839Y020749D01*
X013847Y020692D01*
X013860Y020635D01*
X013876Y020580D01*
X013896Y020526D01*
X013919Y020473D01*
X013946Y020422D01*
X013977Y020374D01*
X014011Y020327D01*
X014048Y020283D01*
X014088Y020242D01*
X014131Y020203D01*
X014176Y020167D01*
X014224Y020135D01*
X014274Y020106D01*
X014326Y020081D01*
X014379Y020059D01*
X014434Y020041D01*
X014489Y020027D01*
X014546Y020017D01*
X014603Y020010D01*
X014661Y020008D01*
X014661Y020017D01*
X014604Y020019D01*
X014547Y020026D01*
X014491Y020036D01*
X014436Y020050D01*
X014382Y020068D01*
X014329Y020089D01*
X014278Y020114D01*
X014229Y020143D01*
X014181Y020175D01*
X014137Y020210D01*
X014094Y020248D01*
X014055Y020289D01*
X014018Y020333D01*
X013984Y020379D01*
X013954Y020427D01*
X013927Y020477D01*
X013904Y020529D01*
X013884Y020583D01*
X013868Y020637D01*
X013856Y020693D01*
X013848Y020750D01*
X013844Y020806D01*
X013843Y020863D01*
X013847Y020920D01*
X013854Y020977D01*
X013866Y021033D01*
X013881Y021088D01*
X013900Y021141D01*
X013923Y021194D01*
X013949Y021244D01*
X013979Y021293D01*
X014012Y021339D01*
X014048Y021383D01*
X014087Y021425D01*
X014129Y021463D01*
X014173Y021499D01*
X014220Y021532D01*
X014269Y021561D01*
X014320Y021587D01*
X014372Y021609D01*
X014375Y021600D01*
X014324Y021578D01*
X014273Y021553D01*
X014225Y021524D01*
X014179Y021492D01*
X014135Y021457D01*
X014093Y021418D01*
X014055Y021377D01*
X014019Y021334D01*
X013986Y021288D01*
X013957Y021240D01*
X013931Y021190D01*
X013908Y021138D01*
X013890Y021085D01*
X013875Y021030D01*
X013863Y020975D01*
X013856Y020919D01*
X013852Y020863D01*
X013853Y020807D01*
X013857Y020751D01*
X013865Y020695D01*
X013877Y020640D01*
X013893Y020586D01*
X013912Y020533D01*
X013935Y020481D01*
X013962Y020432D01*
X013992Y020384D01*
X014025Y020338D01*
X014061Y020295D01*
X014100Y020255D01*
X014142Y020217D01*
X014187Y020182D01*
X014233Y020150D01*
X014282Y020122D01*
X014333Y020097D01*
X014385Y020076D01*
X014439Y020058D01*
X014493Y020045D01*
X014549Y020035D01*
X014605Y020028D01*
X014661Y020026D01*
D23*
X012666Y016425D03*
X012666Y013175D03*
X012666Y009925D03*
D24*
X009391Y004590D03*
X034391Y004528D03*
D25*
X031166Y002240D03*
X030166Y002240D03*
X029166Y002240D03*
X028166Y002240D03*
X027166Y002240D03*
X026166Y002240D03*
X025166Y002240D03*
X024166Y002240D03*
X023166Y002240D03*
X022166Y002240D03*
X021166Y002240D03*
X020166Y002240D03*
X019166Y002240D03*
X018166Y002240D03*
X017166Y002240D03*
X016166Y002240D03*
X015166Y002240D03*
X014166Y002240D03*
X013166Y002240D03*
X012166Y002240D03*
D26*
X012166Y002090D02*
X012166Y000240D01*
X013166Y000240D02*
X013166Y002090D01*
X014166Y002090D02*
X014166Y000240D01*
X015166Y000240D02*
X015166Y002090D01*
X016166Y002090D02*
X016166Y000240D01*
X017166Y000240D02*
X017166Y002090D01*
X018166Y002090D02*
X018166Y000240D01*
X019166Y000240D02*
X019166Y002090D01*
X020166Y002090D02*
X020166Y000240D01*
X021166Y000240D02*
X021166Y002090D01*
X022166Y002090D02*
X022166Y000240D01*
X023166Y000240D02*
X023166Y002090D01*
X024166Y002090D02*
X024166Y000240D01*
X025166Y000240D02*
X025166Y002090D01*
X026166Y002090D02*
X026166Y000240D01*
X027166Y000240D02*
X027166Y002090D01*
X028166Y002090D02*
X028166Y000240D01*
X029166Y000240D02*
X029166Y002090D01*
X030166Y002090D02*
X030166Y000240D01*
X031166Y000240D02*
X031166Y002090D01*
D27*
X031166Y003620D03*
X030166Y003620D03*
X029166Y003620D03*
X028166Y003620D03*
X027166Y003620D03*
X026166Y003620D03*
X025166Y003620D03*
X024166Y003620D03*
X023166Y003620D03*
X022166Y003620D03*
X021166Y003620D03*
X020166Y003620D03*
X019166Y003620D03*
X018166Y003620D03*
X017166Y003620D03*
X016166Y003620D03*
X015166Y003620D03*
X014166Y003620D03*
X013166Y003620D03*
X012166Y003620D03*
D28*
X030271Y019187D03*
X030812Y019187D03*
X031833Y019187D03*
X032375Y019187D03*
D29*
X032104Y019034D03*
X030541Y019034D03*
M02*
