G75*
G70*
%OFA0B0*%
%FSLAX24Y24*%
%IPPOS*%
%LPD*%
%AMOC8*
5,1,8,0,0,1.08239X$1,22.5*
%
%ADD10C,0.0520*%
%ADD11O,0.0520X0.1040*%
%ADD12C,0.1000*%
%ADD13OC8,0.1000*%
%ADD14O,0.0600X0.1200*%
%ADD15O,0.1200X0.0600*%
%ADD16C,0.0240*%
%ADD17C,0.0396*%
%ADD18C,0.0100*%
%ADD19R,0.0396X0.0396*%
D10*
X027593Y012278D03*
X027593Y014278D03*
D11*
X019655Y019840D03*
X017655Y019840D03*
X015655Y019840D03*
X013655Y019840D03*
X011655Y019840D03*
X009655Y019840D03*
X010655Y021840D03*
X014655Y021840D03*
X018655Y021840D03*
D12*
X029155Y004528D03*
X004155Y004590D03*
D13*
X006155Y004590D03*
X031155Y004528D03*
D14*
X027155Y004090D03*
X026155Y004090D03*
X025155Y004090D03*
X024155Y004090D03*
X023155Y004090D03*
X022155Y004090D03*
X021155Y004090D03*
X020155Y004090D03*
X019155Y004090D03*
X018155Y004090D03*
X017155Y004090D03*
X016155Y004090D03*
X015155Y004090D03*
X014155Y004090D03*
X013155Y004090D03*
X012155Y004090D03*
X011155Y004090D03*
X010155Y004090D03*
X009155Y004090D03*
X008155Y004090D03*
X025155Y021590D03*
X026155Y021590D03*
X027155Y021590D03*
X028155Y021590D03*
D15*
X030655Y021090D03*
X030655Y020090D03*
X030655Y019090D03*
X030655Y015590D03*
X030655Y014590D03*
X030655Y013590D03*
X030655Y009590D03*
X030655Y008590D03*
X030655Y007590D03*
X004655Y007590D03*
X004655Y008590D03*
X004655Y009590D03*
X004655Y013090D03*
X004655Y014090D03*
X004655Y015090D03*
X004655Y019090D03*
X004655Y020090D03*
X004655Y021090D03*
D16*
X004655Y020090D02*
X003155Y020090D01*
X003155Y017590D01*
X003155Y014090D01*
X004655Y014090D01*
X005655Y013590D02*
X005655Y014590D01*
X005655Y018340D01*
X005155Y019090D01*
X004655Y019090D01*
X003155Y014090D02*
X003155Y008590D01*
X004655Y008590D01*
X005655Y008090D02*
X005655Y011340D01*
X005655Y012590D01*
X005155Y013090D01*
X004655Y013090D01*
X005655Y013590D02*
X006155Y013090D01*
X006155Y008590D01*
X008155Y006590D01*
X025155Y006590D01*
X025655Y006590D01*
X028655Y009590D01*
X028655Y014090D01*
X029155Y014590D01*
X029655Y014590D01*
X029655Y019590D01*
X030155Y020090D01*
X030655Y020090D01*
X030655Y021090D02*
X032155Y021090D01*
X032155Y015590D01*
X030655Y015590D01*
X030655Y014590D02*
X030155Y014590D01*
X029155Y013590D01*
X029155Y009090D01*
X026155Y006090D01*
X007655Y006090D01*
X005655Y008090D01*
X005155Y007590D02*
X007155Y005590D01*
X009405Y005590D01*
X027155Y005590D01*
X030155Y008590D01*
X030655Y008590D01*
X030655Y009590D02*
X032155Y009590D01*
X032155Y015590D01*
X032155Y015090D01*
X032155Y009590D02*
X032155Y006090D01*
X031155Y005590D01*
X031155Y004528D01*
X031155Y004090D01*
X030155Y003090D01*
X011155Y003090D01*
X011155Y004090D01*
X010155Y004090D01*
X009155Y004090D01*
X008155Y004090D01*
X006655Y004090D01*
X006155Y004590D01*
X004155Y004590D02*
X003155Y004590D01*
X003155Y008590D01*
X004655Y007590D02*
X005155Y007590D01*
X011155Y005028D02*
X013843Y005028D01*
X014155Y004403D02*
X014780Y005028D01*
X028718Y005028D01*
X028905Y004840D01*
X029218Y004528D01*
X029280Y004528D01*
X029218Y004528D02*
X029155Y004528D01*
X029218Y004528D02*
X029155Y004715D01*
X017155Y004090D02*
X016155Y004090D01*
X015155Y004090D01*
X014155Y004090D02*
X014155Y004403D01*
X014155Y004090D02*
X013155Y004090D01*
X012155Y004090D01*
D17*
X011155Y005028D03*
X009405Y005590D03*
X011155Y007090D03*
X012155Y007590D03*
X013843Y005028D03*
X017405Y008090D03*
X019468Y009590D03*
X019218Y010090D03*
X018468Y010028D03*
X020343Y008653D03*
X021155Y008590D03*
X022155Y008653D03*
X023155Y008465D03*
X024218Y008465D03*
X024905Y008090D03*
X025218Y009278D03*
X026718Y010653D03*
X027655Y010090D03*
X024218Y010778D03*
X023530Y010778D03*
X024218Y012090D03*
X023530Y013403D03*
X025280Y015090D03*
X024468Y015590D03*
X026030Y015965D03*
X026530Y016590D03*
X027030Y017278D03*
X025905Y017715D03*
X024468Y018653D03*
X024155Y019340D03*
X022780Y019903D03*
X022405Y020528D03*
X021343Y018965D03*
X020343Y018590D03*
X019155Y016090D03*
X019843Y015965D03*
X020780Y015840D03*
X020780Y014965D03*
X020593Y014215D03*
X018405Y016090D03*
X007905Y015340D03*
X005655Y014590D03*
X007905Y012090D03*
X005655Y011340D03*
X006655Y008840D03*
X007905Y008840D03*
X003155Y017590D03*
X025155Y006590D03*
X026155Y006090D03*
X027155Y005590D03*
X029155Y016340D03*
D18*
X032390Y002792D02*
X002920Y002792D01*
X002920Y004472D01*
X003052Y004340D01*
X003259Y004340D01*
X003577Y004340D01*
X003621Y004233D01*
X003798Y004056D01*
X004030Y003960D01*
X004280Y003960D01*
X004512Y004056D01*
X004689Y004233D01*
X004785Y004465D01*
X004785Y004716D01*
X004689Y004947D01*
X004512Y005124D01*
X004280Y005220D01*
X004030Y005220D01*
X003798Y005124D01*
X003621Y004947D01*
X003577Y004840D01*
X003405Y004840D01*
X003405Y008340D01*
X003997Y008340D01*
X004177Y008160D01*
X005133Y008160D01*
X005385Y008412D01*
X005385Y008768D01*
X005133Y009020D01*
X004177Y009020D01*
X003997Y008840D01*
X003405Y008840D01*
X003405Y013840D01*
X003997Y013840D01*
X004177Y013660D01*
X005133Y013660D01*
X005385Y013912D01*
X005385Y014268D01*
X005133Y014520D01*
X004177Y014520D01*
X003997Y014340D01*
X003405Y014340D01*
X003405Y017376D01*
X003433Y017404D01*
X003483Y017525D01*
X003483Y017656D01*
X003433Y017776D01*
X003405Y017804D01*
X003405Y019840D01*
X003997Y019840D01*
X004177Y019660D01*
X005133Y019660D01*
X005385Y019912D01*
X005385Y020268D01*
X005133Y020520D01*
X004177Y020520D01*
X003997Y020340D01*
X003052Y020340D01*
X002920Y020209D01*
X002920Y022388D01*
X010392Y022388D01*
X010265Y022262D01*
X010265Y021419D01*
X010475Y021209D01*
X010475Y017266D01*
X010581Y017160D01*
X011393Y016348D01*
X011542Y016348D01*
X018949Y016348D01*
X018877Y016276D01*
X018827Y016156D01*
X018827Y016025D01*
X018877Y015904D01*
X018969Y015812D01*
X018975Y015810D01*
X018975Y010312D01*
X018939Y010276D01*
X018889Y010156D01*
X018889Y010025D01*
X018939Y009904D01*
X019032Y009812D01*
X019152Y009762D01*
X019184Y009762D01*
X019139Y009656D01*
X019139Y009525D01*
X019189Y009404D01*
X019282Y009312D01*
X019402Y009262D01*
X019533Y009262D01*
X019653Y009312D01*
X019746Y009404D01*
X019796Y009525D01*
X019796Y009656D01*
X019775Y009706D01*
X019792Y009723D01*
X019898Y009828D01*
X019898Y015637D01*
X019908Y015637D01*
X020028Y015687D01*
X020121Y015779D01*
X020171Y015900D01*
X020171Y016031D01*
X020121Y016151D01*
X020028Y016243D01*
X019908Y016293D01*
X019777Y016293D01*
X019657Y016243D01*
X019564Y016151D01*
X019514Y016031D01*
X019514Y015900D01*
X019538Y015844D01*
X019538Y015766D01*
X019538Y010175D01*
X019496Y010276D01*
X019403Y010368D01*
X019335Y010397D01*
X019335Y015810D01*
X019341Y015812D01*
X019433Y015904D01*
X019483Y016025D01*
X019483Y016156D01*
X019433Y016276D01*
X019361Y016348D01*
X021643Y016348D01*
X022206Y015785D01*
X022355Y015785D01*
X024199Y015785D01*
X024189Y015776D01*
X024161Y015708D01*
X021643Y015708D01*
X021538Y015602D01*
X021066Y015131D01*
X021058Y015151D01*
X020966Y015243D01*
X020960Y015246D01*
X020960Y015560D01*
X020966Y015562D01*
X021058Y015654D01*
X021108Y015775D01*
X021108Y015906D01*
X021058Y016026D01*
X020966Y016118D01*
X020845Y016168D01*
X020715Y016168D01*
X020594Y016118D01*
X020502Y016026D01*
X020452Y015906D01*
X020452Y015775D01*
X020502Y015654D01*
X020594Y015562D01*
X020600Y015560D01*
X020600Y015246D01*
X020594Y015243D01*
X020502Y015151D01*
X020452Y015031D01*
X020452Y014900D01*
X020502Y014779D01*
X020594Y014687D01*
X020715Y014637D01*
X020845Y014637D01*
X020966Y014687D01*
X020975Y014696D01*
X020975Y008871D01*
X020969Y008868D01*
X020877Y008776D01*
X020827Y008656D01*
X020827Y008525D01*
X020877Y008404D01*
X020558Y008404D01*
X020528Y008375D02*
X020408Y008325D01*
X020277Y008325D01*
X020157Y008375D01*
X020064Y008467D01*
X020014Y008587D01*
X020014Y008718D01*
X020064Y008839D01*
X020157Y008931D01*
X020163Y008933D01*
X020163Y013891D01*
X020163Y014040D01*
X020267Y014144D01*
X020264Y014150D01*
X020264Y014281D01*
X020314Y014401D01*
X020407Y014493D01*
X020527Y014543D01*
X020658Y014543D01*
X020778Y014493D01*
X020871Y014401D01*
X020921Y014281D01*
X020921Y014150D01*
X020871Y014029D01*
X020778Y013937D01*
X020658Y013887D01*
X020527Y013887D01*
X020523Y013889D01*
X020523Y008933D01*
X020528Y008931D01*
X020621Y008839D01*
X020671Y008718D01*
X020671Y008587D01*
X020621Y008467D01*
X020528Y008375D01*
X020636Y008503D02*
X020836Y008503D01*
X020827Y008601D02*
X020671Y008601D01*
X020671Y008700D02*
X020845Y008700D01*
X020899Y008798D02*
X020637Y008798D01*
X020562Y008897D02*
X020975Y008897D01*
X020975Y008996D02*
X020523Y008996D01*
X020523Y009094D02*
X020975Y009094D01*
X020975Y009193D02*
X020523Y009193D01*
X020523Y009291D02*
X020975Y009291D01*
X020975Y009390D02*
X020523Y009390D01*
X020523Y009488D02*
X020975Y009488D01*
X020975Y009587D02*
X020523Y009587D01*
X020523Y009685D02*
X020975Y009685D01*
X020975Y009784D02*
X020523Y009784D01*
X020523Y009882D02*
X020975Y009882D01*
X020975Y009981D02*
X020523Y009981D01*
X020523Y010080D02*
X020975Y010080D01*
X020975Y010178D02*
X020523Y010178D01*
X020523Y010277D02*
X020975Y010277D01*
X020975Y010375D02*
X020523Y010375D01*
X020523Y010474D02*
X020975Y010474D01*
X020975Y010572D02*
X020523Y010572D01*
X020523Y010671D02*
X020975Y010671D01*
X020975Y010769D02*
X020523Y010769D01*
X020523Y010868D02*
X020975Y010868D01*
X020975Y010966D02*
X020523Y010966D01*
X020523Y011065D02*
X020975Y011065D01*
X020975Y011164D02*
X020523Y011164D01*
X020523Y011262D02*
X020975Y011262D01*
X020975Y011361D02*
X020523Y011361D01*
X020523Y011459D02*
X020975Y011459D01*
X020975Y011558D02*
X020523Y011558D01*
X020523Y011656D02*
X020975Y011656D01*
X020975Y011755D02*
X020523Y011755D01*
X020523Y011853D02*
X020975Y011853D01*
X020975Y011952D02*
X020523Y011952D01*
X020523Y012050D02*
X020975Y012050D01*
X020975Y012149D02*
X020523Y012149D01*
X020523Y012247D02*
X020975Y012247D01*
X020975Y012346D02*
X020523Y012346D01*
X020523Y012445D02*
X020975Y012445D01*
X020975Y012543D02*
X020523Y012543D01*
X020523Y012642D02*
X020975Y012642D01*
X020975Y012740D02*
X020523Y012740D01*
X020523Y012839D02*
X020975Y012839D01*
X020975Y012937D02*
X020523Y012937D01*
X020523Y013036D02*
X020975Y013036D01*
X020975Y013134D02*
X020523Y013134D01*
X020523Y013233D02*
X020975Y013233D01*
X020975Y013331D02*
X020523Y013331D01*
X020523Y013430D02*
X020975Y013430D01*
X020975Y013529D02*
X020523Y013529D01*
X020523Y013627D02*
X020975Y013627D01*
X020975Y013726D02*
X020523Y013726D01*
X020523Y013824D02*
X020975Y013824D01*
X020975Y013923D02*
X020744Y013923D01*
X020863Y014021D02*
X020975Y014021D01*
X020975Y014120D02*
X020908Y014120D01*
X020921Y014218D02*
X020975Y014218D01*
X020975Y014317D02*
X020906Y014317D01*
X020856Y014415D02*
X020975Y014415D01*
X020975Y014514D02*
X020729Y014514D01*
X020570Y014711D02*
X019898Y014711D01*
X019898Y014613D02*
X020975Y014613D01*
X021335Y014613D02*
X025100Y014613D01*
X025100Y014711D02*
X021335Y014711D01*
X021335Y014810D02*
X025100Y014810D01*
X025094Y014812D01*
X025002Y014904D01*
X024952Y015025D01*
X024952Y015156D01*
X025002Y015276D01*
X025094Y015368D01*
X025215Y015418D01*
X025345Y015418D01*
X025466Y015368D01*
X025558Y015276D01*
X025608Y015156D01*
X025608Y015025D01*
X025558Y014904D01*
X025466Y014812D01*
X025460Y014810D01*
X025460Y013227D01*
X025460Y013078D01*
X024543Y012161D01*
X024546Y012156D01*
X024546Y012025D01*
X024496Y011904D01*
X024403Y011812D01*
X024398Y011810D01*
X024398Y011058D01*
X024403Y011056D01*
X024496Y010964D01*
X024546Y010843D01*
X024546Y010712D01*
X024496Y010592D01*
X024403Y010500D01*
X024283Y010450D01*
X024152Y010450D01*
X024032Y010500D01*
X023939Y010592D01*
X023889Y010712D01*
X023889Y010843D01*
X023939Y010964D01*
X024032Y011056D01*
X024038Y011058D01*
X024038Y011810D01*
X024032Y011812D01*
X023939Y011904D01*
X023890Y012025D01*
X023890Y012156D01*
X023939Y012276D01*
X024032Y012368D01*
X024152Y012418D01*
X024283Y012418D01*
X024289Y012416D01*
X025100Y013227D01*
X025100Y014810D01*
X025000Y014908D02*
X021353Y014908D01*
X021335Y014891D02*
X021335Y008871D01*
X021341Y008868D01*
X021433Y008776D01*
X021483Y008656D01*
X021483Y008525D01*
X021433Y008404D01*
X021940Y008404D01*
X021969Y008375D02*
X021877Y008467D01*
X021827Y008587D01*
X021827Y008718D01*
X021877Y008839D01*
X021969Y008931D01*
X022090Y008981D01*
X022220Y008981D01*
X022226Y008978D01*
X022268Y009020D01*
X025706Y009020D01*
X026538Y009852D01*
X026538Y010372D01*
X026532Y010375D01*
X026439Y010467D01*
X026389Y010587D01*
X026389Y010718D01*
X026439Y010839D01*
X026532Y010931D01*
X026652Y010981D01*
X026783Y010981D01*
X026903Y010931D01*
X026996Y010839D01*
X027046Y010718D01*
X027046Y010587D01*
X026996Y010467D01*
X026903Y010375D01*
X026898Y010372D01*
X026898Y009703D01*
X026792Y009598D01*
X025855Y008660D01*
X025706Y008660D01*
X024486Y008660D01*
X024496Y008651D01*
X024546Y008531D01*
X024546Y008400D01*
X024496Y008279D01*
X024486Y008270D01*
X024625Y008270D01*
X024627Y008276D01*
X024719Y008368D01*
X024840Y008418D01*
X024970Y008418D01*
X025091Y008368D01*
X025183Y008276D01*
X025233Y008156D01*
X025233Y008025D01*
X025183Y007904D01*
X025091Y007812D01*
X024990Y007770D01*
X025081Y007770D01*
X027329Y010019D01*
X027327Y010025D01*
X027327Y010156D01*
X027377Y010276D01*
X027469Y010368D01*
X027590Y010418D01*
X027720Y010418D01*
X027841Y010368D01*
X027933Y010276D01*
X027975Y010175D01*
X027975Y012182D01*
X027923Y012057D01*
X027814Y011947D01*
X027670Y011888D01*
X027515Y011888D01*
X027372Y011947D01*
X027262Y012057D01*
X027203Y012200D01*
X027203Y012355D01*
X027262Y012499D01*
X027372Y012608D01*
X027515Y012668D01*
X027670Y012668D01*
X027814Y012608D01*
X027923Y012499D01*
X027975Y012373D01*
X027975Y014182D01*
X027923Y014057D01*
X027814Y013947D01*
X027670Y013888D01*
X027515Y013888D01*
X027372Y013947D01*
X027262Y014057D01*
X027203Y014200D01*
X027203Y014355D01*
X027262Y014499D01*
X027372Y014608D01*
X027515Y014668D01*
X027670Y014668D01*
X027814Y014608D01*
X027923Y014499D01*
X027975Y014373D01*
X027975Y014415D01*
X028725Y015165D01*
X028831Y015270D01*
X028975Y015270D01*
X028975Y016060D01*
X028969Y016062D01*
X028877Y016154D01*
X028827Y016275D01*
X028827Y016406D01*
X028877Y016526D01*
X028969Y016618D01*
X029090Y016668D01*
X029220Y016668D01*
X029341Y016618D01*
X029405Y016554D01*
X029405Y019694D01*
X029552Y019840D01*
X029905Y020194D01*
X029925Y020214D01*
X029925Y020268D01*
X030177Y020520D01*
X031133Y020520D01*
X031385Y020268D01*
X031385Y019912D01*
X031133Y019660D01*
X030177Y019660D01*
X030128Y019709D01*
X029905Y019487D01*
X029905Y014694D01*
X029905Y014694D01*
X029925Y014714D01*
X029925Y014768D01*
X030177Y015020D01*
X031133Y015020D01*
X031385Y014768D01*
X031385Y014412D01*
X031133Y014160D01*
X030177Y014160D01*
X030128Y014209D01*
X029405Y013487D01*
X029405Y009194D01*
X029405Y008987D01*
X026483Y006065D01*
X026483Y006025D01*
X026433Y005904D01*
X026369Y005840D01*
X026941Y005840D01*
X026969Y005868D01*
X027090Y005918D01*
X027130Y005918D01*
X029925Y008714D01*
X029925Y008768D01*
X030177Y009020D01*
X031133Y009020D01*
X031385Y008768D01*
X031385Y008412D01*
X031133Y008160D01*
X030177Y008160D01*
X030128Y008209D01*
X027483Y005565D01*
X027483Y005525D01*
X027433Y005404D01*
X027341Y005312D01*
X027258Y005278D01*
X028614Y005278D01*
X028821Y005278D01*
X028967Y005132D01*
X029030Y005158D01*
X029280Y005158D01*
X029512Y005062D01*
X029689Y004885D01*
X029785Y004653D01*
X029785Y004402D01*
X029689Y004171D01*
X029512Y003994D01*
X029280Y003898D01*
X029030Y003898D01*
X028798Y003994D01*
X028621Y004171D01*
X028525Y004402D01*
X028525Y004653D01*
X028577Y004778D01*
X027376Y004778D01*
X027585Y004568D01*
X027585Y003612D01*
X027333Y003360D01*
X026977Y003360D01*
X026725Y003612D01*
X026725Y004568D01*
X026935Y004778D01*
X026376Y004778D01*
X026585Y004568D01*
X026585Y003612D01*
X026333Y003360D01*
X025977Y003360D01*
X025725Y003612D01*
X025725Y004568D01*
X025935Y004778D01*
X025376Y004778D01*
X025585Y004568D01*
X025585Y003612D01*
X025333Y003360D01*
X024977Y003360D01*
X024725Y003612D01*
X024725Y004568D01*
X024935Y004778D01*
X024376Y004778D01*
X024585Y004568D01*
X024585Y003612D01*
X024333Y003360D01*
X023977Y003360D01*
X023725Y003612D01*
X023725Y004568D01*
X023935Y004778D01*
X023376Y004778D01*
X023585Y004568D01*
X023585Y003612D01*
X023333Y003360D01*
X022977Y003360D01*
X022725Y003612D01*
X022725Y004568D01*
X022935Y004778D01*
X022376Y004778D01*
X022585Y004568D01*
X022585Y003612D01*
X022333Y003360D01*
X021977Y003360D01*
X021725Y003612D01*
X021725Y004568D01*
X021935Y004778D01*
X021376Y004778D01*
X021585Y004568D01*
X021585Y003612D01*
X021333Y003360D01*
X020977Y003360D01*
X020725Y003612D01*
X020725Y004568D01*
X020935Y004778D01*
X020376Y004778D01*
X020585Y004568D01*
X020585Y003612D01*
X020333Y003360D01*
X019977Y003360D01*
X019725Y003612D01*
X019725Y004568D01*
X019935Y004778D01*
X019376Y004778D01*
X019585Y004568D01*
X019585Y003612D01*
X019333Y003360D01*
X018977Y003360D01*
X018725Y003612D01*
X018725Y004568D01*
X018935Y004778D01*
X018376Y004778D01*
X018585Y004568D01*
X018585Y003612D01*
X018333Y003360D01*
X017977Y003360D01*
X017725Y003612D01*
X017725Y004568D01*
X017935Y004778D01*
X017376Y004778D01*
X017585Y004568D01*
X017585Y003612D01*
X017333Y003360D01*
X016977Y003360D01*
X016725Y003612D01*
X016725Y003840D01*
X016585Y003840D01*
X016585Y003612D01*
X016333Y003360D01*
X015977Y003360D01*
X015725Y003612D01*
X015725Y003840D01*
X015585Y003840D01*
X015585Y003612D01*
X015333Y003360D01*
X014977Y003360D01*
X014725Y003612D01*
X014725Y004568D01*
X014935Y004778D01*
X014884Y004778D01*
X014585Y004479D01*
X014585Y003612D01*
X014333Y003360D01*
X013977Y003360D01*
X013725Y003612D01*
X013725Y003840D01*
X013585Y003840D01*
X013585Y003612D01*
X013333Y003360D01*
X012977Y003360D01*
X012725Y003612D01*
X012725Y003840D01*
X012585Y003840D01*
X012585Y003612D01*
X012333Y003360D01*
X011977Y003360D01*
X011725Y003612D01*
X011725Y004568D01*
X011977Y004820D01*
X012333Y004820D01*
X012585Y004568D01*
X012585Y004340D01*
X012725Y004340D01*
X012725Y004568D01*
X012977Y004820D01*
X013333Y004820D01*
X013585Y004568D01*
X013585Y004340D01*
X013725Y004340D01*
X013725Y004568D01*
X013977Y004820D01*
X014219Y004820D01*
X014530Y005131D01*
X014677Y005278D01*
X027052Y005278D01*
X026969Y005312D01*
X026941Y005340D01*
X009619Y005340D01*
X009591Y005312D01*
X009470Y005262D01*
X009340Y005262D01*
X009219Y005312D01*
X009191Y005340D01*
X007259Y005340D01*
X007052Y005340D01*
X005182Y007209D01*
X005133Y007160D01*
X004177Y007160D01*
X003925Y007412D01*
X003925Y007768D01*
X004177Y008020D01*
X005133Y008020D01*
X005385Y007768D01*
X005385Y007714D01*
X007259Y005840D01*
X009191Y005840D01*
X009191Y005840D01*
X007759Y005840D01*
X007552Y005840D01*
X005552Y007840D01*
X005405Y007987D01*
X005405Y011126D01*
X005377Y011154D01*
X005327Y011275D01*
X005327Y011406D01*
X005377Y011526D01*
X005405Y011554D01*
X005405Y012487D01*
X005182Y012709D01*
X005133Y012660D01*
X004177Y012660D01*
X003925Y012912D01*
X003925Y013268D01*
X004177Y013520D01*
X005133Y013520D01*
X005385Y013268D01*
X005385Y013214D01*
X005405Y013194D01*
X005905Y012694D01*
X005905Y012487D01*
X005905Y011554D01*
X005905Y012987D01*
X005552Y013340D01*
X005405Y013487D01*
X005405Y014376D01*
X005377Y014404D01*
X005327Y014525D01*
X005327Y014656D01*
X005377Y014776D01*
X005405Y014804D01*
X005405Y018265D01*
X005138Y018665D01*
X005133Y018660D01*
X004177Y018660D01*
X003925Y018912D01*
X003925Y019268D01*
X004177Y019520D01*
X005133Y019520D01*
X005385Y019268D01*
X005385Y019214D01*
X005405Y019194D01*
X005405Y019166D01*
X005849Y018499D01*
X005905Y018444D01*
X005905Y018416D01*
X005905Y018237D01*
X005905Y014804D01*
X005933Y014776D01*
X005983Y014656D01*
X005983Y014525D01*
X005933Y014404D01*
X005905Y014376D01*
X005905Y013694D01*
X006405Y013194D01*
X006405Y012987D01*
X006405Y009054D01*
X006469Y009118D01*
X006475Y009121D01*
X006475Y012016D01*
X006475Y015266D01*
X006475Y015415D01*
X006581Y015520D01*
X007625Y015520D01*
X007627Y015526D01*
X007719Y015618D01*
X007840Y015668D01*
X007970Y015668D01*
X008091Y015618D01*
X008183Y015526D01*
X008233Y015406D01*
X008233Y015275D01*
X008183Y015154D01*
X008091Y015062D01*
X007970Y015012D01*
X007840Y015012D01*
X007719Y015062D01*
X007627Y015154D01*
X007625Y015160D01*
X006835Y015160D01*
X006835Y012270D01*
X007625Y012270D01*
X007627Y012276D01*
X007719Y012368D01*
X007840Y012418D01*
X007970Y012418D01*
X008091Y012368D01*
X008183Y012276D01*
X008233Y012156D01*
X008233Y012025D01*
X008183Y011904D01*
X008091Y011812D01*
X007970Y011762D01*
X007840Y011762D01*
X007719Y011812D01*
X007627Y011904D01*
X007625Y011910D01*
X006835Y011910D01*
X006835Y009121D01*
X006841Y009118D01*
X006933Y009026D01*
X006936Y009020D01*
X007625Y009020D01*
X007627Y009026D01*
X007719Y009118D01*
X007840Y009168D01*
X007970Y009168D01*
X008091Y009118D01*
X008183Y009026D01*
X008233Y008906D01*
X008233Y008775D01*
X008183Y008654D01*
X008091Y008562D01*
X007970Y008512D01*
X007840Y008512D01*
X007719Y008562D01*
X007627Y008654D01*
X007625Y008660D01*
X006936Y008660D01*
X006933Y008654D01*
X006841Y008562D01*
X006720Y008512D01*
X006590Y008512D01*
X006584Y008514D01*
X008259Y006840D01*
X010941Y006840D01*
X010877Y006904D01*
X010827Y007025D01*
X010827Y007156D01*
X010877Y007276D01*
X010969Y007368D01*
X011090Y007418D01*
X011220Y007418D01*
X011341Y007368D01*
X011433Y007276D01*
X011436Y007270D01*
X012070Y007270D01*
X011969Y007312D01*
X011877Y007404D01*
X011827Y007525D01*
X011827Y007656D01*
X011877Y007776D01*
X011969Y007868D01*
X012090Y007918D01*
X012220Y007918D01*
X012341Y007868D01*
X012433Y007776D01*
X012436Y007770D01*
X017320Y007770D01*
X017219Y007812D01*
X017127Y007904D01*
X017077Y008025D01*
X017077Y008156D01*
X017127Y008276D01*
X017219Y008368D01*
X017340Y008418D01*
X017470Y008418D01*
X017591Y008368D01*
X017683Y008276D01*
X017686Y008270D01*
X021070Y008270D01*
X020969Y008312D01*
X020877Y008404D01*
X020985Y008306D02*
X017654Y008306D01*
X017504Y008404D02*
X020127Y008404D01*
X020050Y008503D02*
X006596Y008503D01*
X006694Y008404D02*
X017306Y008404D01*
X017157Y008306D02*
X006793Y008306D01*
X006892Y008207D02*
X017098Y008207D01*
X017077Y008109D02*
X006990Y008109D01*
X007089Y008010D02*
X017083Y008010D01*
X017124Y007912D02*
X012237Y007912D01*
X012074Y007912D02*
X007187Y007912D01*
X007286Y007813D02*
X011914Y007813D01*
X011851Y007714D02*
X007384Y007714D01*
X007483Y007616D02*
X011827Y007616D01*
X011830Y007517D02*
X007581Y007517D01*
X007680Y007419D02*
X011871Y007419D01*
X011961Y007320D02*
X011389Y007320D01*
X011155Y007090D02*
X025405Y007090D01*
X028155Y009840D01*
X028155Y014340D01*
X028905Y015090D01*
X029155Y015090D01*
X029155Y016340D01*
X028934Y016583D02*
X026858Y016583D01*
X026858Y016525D02*
X026808Y016404D01*
X026716Y016312D01*
X026595Y016262D01*
X026465Y016262D01*
X026344Y016312D01*
X026252Y016404D01*
X026250Y016410D01*
X022480Y016410D01*
X022331Y016410D01*
X021893Y016848D01*
X015667Y016848D01*
X015518Y016848D01*
X014581Y017785D01*
X014475Y017891D01*
X014475Y021209D01*
X014265Y021419D01*
X014265Y022262D01*
X014392Y022388D01*
X010919Y022388D01*
X011045Y022262D01*
X011045Y021419D01*
X010835Y021209D01*
X010835Y017415D01*
X011542Y016708D01*
X021792Y016708D01*
X021898Y016602D01*
X022355Y016145D01*
X025750Y016145D01*
X025752Y016151D01*
X025844Y016243D01*
X025965Y016293D01*
X026095Y016293D01*
X026216Y016243D01*
X026308Y016151D01*
X026358Y016031D01*
X026358Y015900D01*
X026308Y015779D01*
X026216Y015687D01*
X026095Y015637D01*
X025965Y015637D01*
X025844Y015687D01*
X025752Y015779D01*
X025750Y015785D01*
X024736Y015785D01*
X024746Y015776D01*
X024796Y015656D01*
X024796Y015525D01*
X024746Y015404D01*
X024653Y015312D01*
X024533Y015262D01*
X024402Y015262D01*
X024282Y015312D01*
X024246Y015348D01*
X021792Y015348D01*
X021335Y014891D01*
X021451Y015007D02*
X024960Y015007D01*
X024952Y015105D02*
X021550Y015105D01*
X021648Y015204D02*
X024972Y015204D01*
X025028Y015302D02*
X024630Y015302D01*
X024742Y015401D02*
X025173Y015401D01*
X025387Y015401D02*
X028975Y015401D01*
X028975Y015499D02*
X024785Y015499D01*
X024796Y015598D02*
X028975Y015598D01*
X028975Y015696D02*
X026225Y015696D01*
X026315Y015795D02*
X028975Y015795D01*
X028975Y015894D02*
X026356Y015894D01*
X026358Y015992D02*
X028975Y015992D01*
X028941Y016091D02*
X026333Y016091D01*
X026270Y016189D02*
X028863Y016189D01*
X028827Y016288D02*
X026657Y016288D01*
X026790Y016386D02*
X028827Y016386D01*
X028860Y016485D02*
X026842Y016485D01*
X026858Y016525D02*
X026858Y016656D01*
X026808Y016776D01*
X026716Y016868D01*
X026595Y016918D01*
X026465Y016918D01*
X026344Y016868D01*
X026252Y016776D01*
X026250Y016770D01*
X022480Y016770D01*
X022148Y017102D01*
X022042Y017208D01*
X015667Y017208D01*
X014835Y018040D01*
X014835Y021209D01*
X015045Y021419D01*
X015045Y022262D01*
X014919Y022388D01*
X018392Y022388D01*
X018265Y022262D01*
X018265Y021419D01*
X018475Y021209D01*
X018475Y018102D01*
X018475Y017953D01*
X018956Y017473D01*
X019105Y017473D01*
X022018Y017473D01*
X022393Y017098D01*
X022542Y017098D01*
X026750Y017098D01*
X026752Y017092D01*
X026844Y017000D01*
X026965Y016950D01*
X027095Y016950D01*
X027216Y017000D01*
X027308Y017092D01*
X027358Y017212D01*
X027358Y017343D01*
X027308Y017464D01*
X027216Y017556D01*
X027095Y017606D01*
X026965Y017606D01*
X026844Y017556D01*
X026752Y017464D01*
X026750Y017458D01*
X026112Y017458D01*
X026183Y017529D01*
X026233Y017650D01*
X026233Y017781D01*
X026183Y017901D01*
X026091Y017993D01*
X025970Y018043D01*
X025840Y018043D01*
X025719Y017993D01*
X025627Y017901D01*
X025625Y017895D01*
X022835Y017895D01*
X022520Y018105D01*
X022480Y018145D01*
X022460Y018145D01*
X022424Y018145D01*
X022405Y018145D01*
X022404Y018145D01*
X022331Y018145D01*
X022331Y018145D01*
X022303Y018145D01*
X020292Y018145D01*
X019835Y018602D01*
X019835Y019209D01*
X020045Y019419D01*
X020045Y020262D01*
X019817Y020490D01*
X019494Y020490D01*
X019265Y020262D01*
X019265Y019419D01*
X019475Y019209D01*
X019475Y018602D01*
X019475Y018453D01*
X020038Y017891D01*
X020096Y017833D01*
X019105Y017833D01*
X018835Y018102D01*
X018835Y021209D01*
X019045Y021419D01*
X019045Y022262D01*
X018919Y022388D01*
X032390Y022388D01*
X032390Y002792D01*
X032390Y002886D02*
X002920Y002886D01*
X002920Y002984D02*
X032390Y002984D01*
X032390Y003083D02*
X002920Y003083D01*
X002920Y003181D02*
X032390Y003181D01*
X032390Y003280D02*
X002920Y003280D01*
X002920Y003379D02*
X007930Y003379D01*
X007969Y003340D02*
X007705Y003604D01*
X007705Y004040D01*
X008105Y004040D01*
X008105Y003340D01*
X007969Y003340D01*
X008105Y003379D02*
X008205Y003379D01*
X008205Y003340D02*
X008205Y004040D01*
X008105Y004040D01*
X008105Y004140D01*
X007705Y004140D01*
X007705Y004577D01*
X007969Y004840D01*
X008105Y004840D01*
X008105Y004140D01*
X008205Y004140D01*
X008205Y004040D01*
X008605Y004040D01*
X008605Y003604D01*
X008341Y003340D01*
X008205Y003340D01*
X008205Y003477D02*
X008105Y003477D01*
X008105Y003576D02*
X008205Y003576D01*
X008205Y003674D02*
X008105Y003674D01*
X008105Y003773D02*
X008205Y003773D01*
X008205Y003871D02*
X008105Y003871D01*
X008105Y003970D02*
X008205Y003970D01*
X008205Y004068D02*
X009105Y004068D01*
X009105Y004040D02*
X009105Y004140D01*
X008705Y004140D01*
X008705Y004577D01*
X008969Y004840D01*
X009105Y004840D01*
X009105Y004140D01*
X009205Y004140D01*
X009205Y004040D01*
X009105Y004040D01*
X009105Y003340D01*
X008969Y003340D01*
X008705Y003604D01*
X008705Y004040D01*
X009105Y004040D01*
X009105Y003970D02*
X009205Y003970D01*
X009205Y004040D02*
X009205Y003340D01*
X009341Y003340D01*
X009605Y003604D01*
X009605Y004040D01*
X009205Y004040D01*
X009205Y004068D02*
X010105Y004068D01*
X010105Y004040D02*
X010105Y004140D01*
X009705Y004140D01*
X009705Y004577D01*
X009969Y004840D01*
X010105Y004840D01*
X010105Y004140D01*
X010205Y004140D01*
X010205Y004040D01*
X010105Y004040D01*
X010105Y003340D01*
X009969Y003340D01*
X009705Y003604D01*
X009705Y004040D01*
X010105Y004040D01*
X010105Y003970D02*
X010205Y003970D01*
X010205Y004040D02*
X010205Y003340D01*
X010341Y003340D01*
X010605Y003604D01*
X010605Y004040D01*
X010205Y004040D01*
X010205Y004068D02*
X011105Y004068D01*
X011105Y004040D02*
X011105Y004140D01*
X010705Y004140D01*
X010705Y004577D01*
X010969Y004840D01*
X011105Y004840D01*
X011105Y004140D01*
X011205Y004140D01*
X011205Y004040D01*
X011105Y004040D01*
X011105Y003340D01*
X010969Y003340D01*
X010705Y003604D01*
X010705Y004040D01*
X011105Y004040D01*
X011105Y003970D02*
X011205Y003970D01*
X011205Y004040D02*
X011205Y003340D01*
X011341Y003340D01*
X011605Y003604D01*
X011605Y004040D01*
X011205Y004040D01*
X011205Y004068D02*
X011725Y004068D01*
X011725Y003970D02*
X011605Y003970D01*
X011605Y003871D02*
X011725Y003871D01*
X011725Y003773D02*
X011605Y003773D01*
X011605Y003674D02*
X011725Y003674D01*
X011762Y003576D02*
X011577Y003576D01*
X011478Y003477D02*
X011860Y003477D01*
X011959Y003379D02*
X011380Y003379D01*
X011205Y003379D02*
X011105Y003379D01*
X011105Y003477D02*
X011205Y003477D01*
X011205Y003576D02*
X011105Y003576D01*
X011105Y003674D02*
X011205Y003674D01*
X011205Y003773D02*
X011105Y003773D01*
X011105Y003871D02*
X011205Y003871D01*
X010705Y003871D02*
X010605Y003871D01*
X010605Y003773D02*
X010705Y003773D01*
X010705Y003674D02*
X010605Y003674D01*
X010577Y003576D02*
X010733Y003576D01*
X010832Y003477D02*
X010478Y003477D01*
X010380Y003379D02*
X010930Y003379D01*
X010205Y003379D02*
X010105Y003379D01*
X010105Y003477D02*
X010205Y003477D01*
X010205Y003576D02*
X010105Y003576D01*
X010105Y003674D02*
X010205Y003674D01*
X010205Y003773D02*
X010105Y003773D01*
X010105Y003871D02*
X010205Y003871D01*
X009705Y003871D02*
X009605Y003871D01*
X009605Y003773D02*
X009705Y003773D01*
X009705Y003674D02*
X009605Y003674D01*
X009577Y003576D02*
X009733Y003576D01*
X009832Y003477D02*
X009478Y003477D01*
X009380Y003379D02*
X009930Y003379D01*
X009205Y003379D02*
X009105Y003379D01*
X009105Y003477D02*
X009205Y003477D01*
X009205Y003576D02*
X009105Y003576D01*
X009105Y003674D02*
X009205Y003674D01*
X009205Y003773D02*
X009105Y003773D01*
X009105Y003871D02*
X009205Y003871D01*
X009605Y003970D02*
X009705Y003970D01*
X009705Y004167D02*
X009605Y004167D01*
X009605Y004140D02*
X009205Y004140D01*
X009205Y004840D01*
X009341Y004840D01*
X009605Y004577D01*
X009605Y004140D01*
X009605Y004265D02*
X009705Y004265D01*
X009705Y004364D02*
X009605Y004364D01*
X009605Y004463D02*
X009705Y004463D01*
X009705Y004561D02*
X009605Y004561D01*
X009522Y004660D02*
X009788Y004660D01*
X009887Y004758D02*
X009424Y004758D01*
X009205Y004758D02*
X009105Y004758D01*
X009105Y004660D02*
X009205Y004660D01*
X009205Y004561D02*
X009105Y004561D01*
X009105Y004463D02*
X009205Y004463D01*
X009205Y004364D02*
X009105Y004364D01*
X009105Y004265D02*
X009205Y004265D01*
X009205Y004167D02*
X009105Y004167D01*
X008705Y004167D02*
X008605Y004167D01*
X008605Y004140D02*
X008205Y004140D01*
X008205Y004840D01*
X008341Y004840D01*
X008605Y004577D01*
X008605Y004140D01*
X008605Y004265D02*
X008705Y004265D01*
X008705Y004364D02*
X008605Y004364D01*
X008605Y004463D02*
X008705Y004463D01*
X008705Y004561D02*
X008605Y004561D01*
X008522Y004660D02*
X008788Y004660D01*
X008887Y004758D02*
X008424Y004758D01*
X008205Y004758D02*
X008105Y004758D01*
X008105Y004660D02*
X008205Y004660D01*
X008205Y004561D02*
X008105Y004561D01*
X008105Y004463D02*
X008205Y004463D01*
X008205Y004364D02*
X008105Y004364D01*
X008105Y004265D02*
X008205Y004265D01*
X008205Y004167D02*
X008105Y004167D01*
X008105Y004068D02*
X006552Y004068D01*
X006454Y003970D02*
X007705Y003970D01*
X007705Y003871D02*
X002920Y003871D01*
X002920Y003773D02*
X007705Y003773D01*
X007705Y003674D02*
X002920Y003674D01*
X002920Y003576D02*
X007733Y003576D01*
X007832Y003477D02*
X002920Y003477D01*
X002920Y003970D02*
X004007Y003970D01*
X003786Y004068D02*
X002920Y004068D01*
X002920Y004167D02*
X003687Y004167D01*
X003608Y004265D02*
X002920Y004265D01*
X002920Y004364D02*
X003028Y004364D01*
X002929Y004463D02*
X002920Y004463D01*
X003405Y004857D02*
X003584Y004857D01*
X003629Y004955D02*
X003405Y004955D01*
X003405Y005054D02*
X003728Y005054D01*
X003866Y005152D02*
X003405Y005152D01*
X003405Y005251D02*
X014650Y005251D01*
X014551Y005152D02*
X006512Y005152D01*
X006424Y005240D02*
X006805Y004859D01*
X006805Y004640D01*
X006205Y004640D01*
X006205Y004540D01*
X006105Y004540D01*
X006105Y003940D01*
X005886Y003940D01*
X005505Y004321D01*
X005505Y004540D01*
X006105Y004540D01*
X006105Y004640D01*
X005505Y004640D01*
X005505Y004859D01*
X005886Y005240D01*
X006105Y005240D01*
X006105Y004640D01*
X006205Y004640D01*
X006205Y005240D01*
X006424Y005240D01*
X006205Y005152D02*
X006105Y005152D01*
X006105Y005054D02*
X006205Y005054D01*
X006205Y004955D02*
X006105Y004955D01*
X006105Y004857D02*
X006205Y004857D01*
X006205Y004758D02*
X006105Y004758D01*
X006105Y004660D02*
X006205Y004660D01*
X006205Y004561D02*
X007705Y004561D01*
X007705Y004463D02*
X006805Y004463D01*
X006805Y004540D02*
X006805Y004321D01*
X006424Y003940D01*
X006205Y003940D01*
X006205Y004540D01*
X006805Y004540D01*
X006805Y004660D02*
X007788Y004660D01*
X007887Y004758D02*
X006805Y004758D01*
X006805Y004857D02*
X014256Y004857D01*
X014354Y004955D02*
X006709Y004955D01*
X006611Y005054D02*
X014453Y005054D01*
X014766Y004660D02*
X014816Y004660D01*
X014864Y004758D02*
X014915Y004758D01*
X014725Y004561D02*
X014667Y004561D01*
X014725Y004463D02*
X014585Y004463D01*
X014585Y004364D02*
X014725Y004364D01*
X014725Y004265D02*
X014585Y004265D01*
X014585Y004167D02*
X014725Y004167D01*
X014725Y004068D02*
X014585Y004068D01*
X014585Y003970D02*
X014725Y003970D01*
X014725Y003871D02*
X014585Y003871D01*
X014585Y003773D02*
X014725Y003773D01*
X014725Y003674D02*
X014585Y003674D01*
X014549Y003576D02*
X014762Y003576D01*
X014860Y003477D02*
X014450Y003477D01*
X014352Y003379D02*
X014959Y003379D01*
X015352Y003379D02*
X015959Y003379D01*
X015860Y003477D02*
X015450Y003477D01*
X015549Y003576D02*
X015762Y003576D01*
X015725Y003674D02*
X015585Y003674D01*
X015585Y003773D02*
X015725Y003773D01*
X016352Y003379D02*
X016959Y003379D01*
X016860Y003477D02*
X016450Y003477D01*
X016549Y003576D02*
X016762Y003576D01*
X016725Y003674D02*
X016585Y003674D01*
X016585Y003773D02*
X016725Y003773D01*
X017352Y003379D02*
X017959Y003379D01*
X017860Y003477D02*
X017450Y003477D01*
X017549Y003576D02*
X017762Y003576D01*
X017725Y003674D02*
X017585Y003674D01*
X017585Y003773D02*
X017725Y003773D01*
X017725Y003871D02*
X017585Y003871D01*
X017585Y003970D02*
X017725Y003970D01*
X017725Y004068D02*
X017585Y004068D01*
X017585Y004167D02*
X017725Y004167D01*
X017725Y004265D02*
X017585Y004265D01*
X017585Y004364D02*
X017725Y004364D01*
X017725Y004463D02*
X017585Y004463D01*
X017585Y004561D02*
X017725Y004561D01*
X017816Y004660D02*
X017494Y004660D01*
X017395Y004758D02*
X017915Y004758D01*
X018395Y004758D02*
X018915Y004758D01*
X018816Y004660D02*
X018494Y004660D01*
X018585Y004561D02*
X018725Y004561D01*
X018725Y004463D02*
X018585Y004463D01*
X018585Y004364D02*
X018725Y004364D01*
X018725Y004265D02*
X018585Y004265D01*
X018585Y004167D02*
X018725Y004167D01*
X018725Y004068D02*
X018585Y004068D01*
X018585Y003970D02*
X018725Y003970D01*
X018725Y003871D02*
X018585Y003871D01*
X018585Y003773D02*
X018725Y003773D01*
X018725Y003674D02*
X018585Y003674D01*
X018549Y003576D02*
X018762Y003576D01*
X018860Y003477D02*
X018450Y003477D01*
X018352Y003379D02*
X018959Y003379D01*
X019352Y003379D02*
X019959Y003379D01*
X019860Y003477D02*
X019450Y003477D01*
X019549Y003576D02*
X019762Y003576D01*
X019725Y003674D02*
X019585Y003674D01*
X019585Y003773D02*
X019725Y003773D01*
X019725Y003871D02*
X019585Y003871D01*
X019585Y003970D02*
X019725Y003970D01*
X019725Y004068D02*
X019585Y004068D01*
X019585Y004167D02*
X019725Y004167D01*
X019725Y004265D02*
X019585Y004265D01*
X019585Y004364D02*
X019725Y004364D01*
X019725Y004463D02*
X019585Y004463D01*
X019585Y004561D02*
X019725Y004561D01*
X019816Y004660D02*
X019494Y004660D01*
X019395Y004758D02*
X019915Y004758D01*
X020395Y004758D02*
X020915Y004758D01*
X020816Y004660D02*
X020494Y004660D01*
X020585Y004561D02*
X020725Y004561D01*
X020725Y004463D02*
X020585Y004463D01*
X020585Y004364D02*
X020725Y004364D01*
X020725Y004265D02*
X020585Y004265D01*
X020585Y004167D02*
X020725Y004167D01*
X020725Y004068D02*
X020585Y004068D01*
X020585Y003970D02*
X020725Y003970D01*
X020725Y003871D02*
X020585Y003871D01*
X020585Y003773D02*
X020725Y003773D01*
X020725Y003674D02*
X020585Y003674D01*
X020549Y003576D02*
X020762Y003576D01*
X020860Y003477D02*
X020450Y003477D01*
X020352Y003379D02*
X020959Y003379D01*
X021352Y003379D02*
X021959Y003379D01*
X021860Y003477D02*
X021450Y003477D01*
X021549Y003576D02*
X021762Y003576D01*
X021725Y003674D02*
X021585Y003674D01*
X021585Y003773D02*
X021725Y003773D01*
X021725Y003871D02*
X021585Y003871D01*
X021585Y003970D02*
X021725Y003970D01*
X021725Y004068D02*
X021585Y004068D01*
X021585Y004167D02*
X021725Y004167D01*
X021725Y004265D02*
X021585Y004265D01*
X021585Y004364D02*
X021725Y004364D01*
X021725Y004463D02*
X021585Y004463D01*
X021585Y004561D02*
X021725Y004561D01*
X021816Y004660D02*
X021494Y004660D01*
X021395Y004758D02*
X021915Y004758D01*
X022395Y004758D02*
X022915Y004758D01*
X022816Y004660D02*
X022494Y004660D01*
X022585Y004561D02*
X022725Y004561D01*
X022725Y004463D02*
X022585Y004463D01*
X022585Y004364D02*
X022725Y004364D01*
X022725Y004265D02*
X022585Y004265D01*
X022585Y004167D02*
X022725Y004167D01*
X022725Y004068D02*
X022585Y004068D01*
X022585Y003970D02*
X022725Y003970D01*
X022725Y003871D02*
X022585Y003871D01*
X022585Y003773D02*
X022725Y003773D01*
X022725Y003674D02*
X022585Y003674D01*
X022549Y003576D02*
X022762Y003576D01*
X022860Y003477D02*
X022450Y003477D01*
X022352Y003379D02*
X022959Y003379D01*
X023352Y003379D02*
X023959Y003379D01*
X023860Y003477D02*
X023450Y003477D01*
X023549Y003576D02*
X023762Y003576D01*
X023725Y003674D02*
X023585Y003674D01*
X023585Y003773D02*
X023725Y003773D01*
X023725Y003871D02*
X023585Y003871D01*
X023585Y003970D02*
X023725Y003970D01*
X023725Y004068D02*
X023585Y004068D01*
X023585Y004167D02*
X023725Y004167D01*
X023725Y004265D02*
X023585Y004265D01*
X023585Y004364D02*
X023725Y004364D01*
X023725Y004463D02*
X023585Y004463D01*
X023585Y004561D02*
X023725Y004561D01*
X023816Y004660D02*
X023494Y004660D01*
X023395Y004758D02*
X023915Y004758D01*
X024395Y004758D02*
X024915Y004758D01*
X024816Y004660D02*
X024494Y004660D01*
X024585Y004561D02*
X024725Y004561D01*
X024725Y004463D02*
X024585Y004463D01*
X024585Y004364D02*
X024725Y004364D01*
X024725Y004265D02*
X024585Y004265D01*
X024585Y004167D02*
X024725Y004167D01*
X024725Y004068D02*
X024585Y004068D01*
X024585Y003970D02*
X024725Y003970D01*
X024725Y003871D02*
X024585Y003871D01*
X024585Y003773D02*
X024725Y003773D01*
X024725Y003674D02*
X024585Y003674D01*
X024549Y003576D02*
X024762Y003576D01*
X024860Y003477D02*
X024450Y003477D01*
X024352Y003379D02*
X024959Y003379D01*
X025352Y003379D02*
X025959Y003379D01*
X025860Y003477D02*
X025450Y003477D01*
X025549Y003576D02*
X025762Y003576D01*
X025725Y003674D02*
X025585Y003674D01*
X025585Y003773D02*
X025725Y003773D01*
X025725Y003871D02*
X025585Y003871D01*
X025585Y003970D02*
X025725Y003970D01*
X025725Y004068D02*
X025585Y004068D01*
X025585Y004167D02*
X025725Y004167D01*
X025725Y004265D02*
X025585Y004265D01*
X025585Y004364D02*
X025725Y004364D01*
X025725Y004463D02*
X025585Y004463D01*
X025585Y004561D02*
X025725Y004561D01*
X025816Y004660D02*
X025494Y004660D01*
X025395Y004758D02*
X025915Y004758D01*
X026395Y004758D02*
X026915Y004758D01*
X026816Y004660D02*
X026494Y004660D01*
X026585Y004561D02*
X026725Y004561D01*
X026725Y004463D02*
X026585Y004463D01*
X026585Y004364D02*
X026725Y004364D01*
X026725Y004265D02*
X026585Y004265D01*
X026585Y004167D02*
X026725Y004167D01*
X026725Y004068D02*
X026585Y004068D01*
X026585Y003970D02*
X026725Y003970D01*
X026725Y003871D02*
X026585Y003871D01*
X026585Y003773D02*
X026725Y003773D01*
X026725Y003674D02*
X026585Y003674D01*
X026549Y003576D02*
X026762Y003576D01*
X026860Y003477D02*
X026450Y003477D01*
X026352Y003379D02*
X026959Y003379D01*
X027352Y003379D02*
X032390Y003379D01*
X032390Y003477D02*
X027450Y003477D01*
X027549Y003576D02*
X032390Y003576D01*
X032390Y003674D02*
X027585Y003674D01*
X027585Y003773D02*
X032390Y003773D01*
X032390Y003871D02*
X027585Y003871D01*
X027585Y003970D02*
X028856Y003970D01*
X028723Y004068D02*
X027585Y004068D01*
X027585Y004167D02*
X028625Y004167D01*
X028582Y004265D02*
X027585Y004265D01*
X027585Y004364D02*
X028541Y004364D01*
X028525Y004463D02*
X027585Y004463D01*
X027585Y004561D02*
X028525Y004561D01*
X028528Y004660D02*
X027494Y004660D01*
X027395Y004758D02*
X028569Y004758D01*
X028946Y005152D02*
X029017Y005152D01*
X028848Y005251D02*
X032390Y005251D01*
X032390Y005349D02*
X027378Y005349D01*
X027451Y005448D02*
X032390Y005448D01*
X032390Y005547D02*
X027483Y005547D01*
X027563Y005645D02*
X032390Y005645D01*
X032390Y005744D02*
X027662Y005744D01*
X027761Y005842D02*
X032390Y005842D01*
X032390Y005941D02*
X027859Y005941D01*
X027958Y006039D02*
X032390Y006039D01*
X032390Y006138D02*
X028056Y006138D01*
X028155Y006236D02*
X032390Y006236D01*
X032390Y006335D02*
X028253Y006335D01*
X028352Y006433D02*
X032390Y006433D01*
X032390Y006532D02*
X028450Y006532D01*
X028549Y006631D02*
X032390Y006631D01*
X032390Y006729D02*
X028647Y006729D01*
X028746Y006828D02*
X032390Y006828D01*
X032390Y006926D02*
X028844Y006926D01*
X028943Y007025D02*
X032390Y007025D01*
X032390Y007123D02*
X029042Y007123D01*
X029140Y007222D02*
X030115Y007222D01*
X030177Y007160D02*
X029925Y007412D01*
X029925Y007768D01*
X030177Y008020D01*
X031133Y008020D01*
X031385Y007768D01*
X031385Y007412D01*
X031133Y007160D01*
X030177Y007160D01*
X030017Y007320D02*
X029239Y007320D01*
X029337Y007419D02*
X029925Y007419D01*
X029925Y007517D02*
X029436Y007517D01*
X029534Y007616D02*
X029925Y007616D01*
X029925Y007714D02*
X029633Y007714D01*
X029731Y007813D02*
X029970Y007813D01*
X030068Y007912D02*
X029830Y007912D01*
X029928Y008010D02*
X030167Y008010D01*
X030027Y008109D02*
X032390Y008109D01*
X032390Y008207D02*
X031180Y008207D01*
X031279Y008306D02*
X032390Y008306D01*
X032390Y008404D02*
X031377Y008404D01*
X031385Y008503D02*
X032390Y008503D01*
X032390Y008601D02*
X031385Y008601D01*
X031385Y008700D02*
X032390Y008700D01*
X032390Y008798D02*
X031355Y008798D01*
X031256Y008897D02*
X032390Y008897D01*
X032390Y008996D02*
X031158Y008996D01*
X031141Y009140D02*
X030705Y009140D01*
X030705Y009540D01*
X030605Y009540D01*
X030605Y009140D01*
X030169Y009140D01*
X029905Y009404D01*
X029905Y009540D01*
X030605Y009540D01*
X030605Y009640D01*
X029905Y009640D01*
X029905Y009777D01*
X030169Y010040D01*
X030605Y010040D01*
X030605Y009640D01*
X030705Y009640D01*
X030705Y009540D01*
X031405Y009540D01*
X031405Y009404D01*
X031141Y009140D01*
X031194Y009193D02*
X032390Y009193D01*
X032390Y009291D02*
X031292Y009291D01*
X031391Y009390D02*
X032390Y009390D01*
X032390Y009488D02*
X031405Y009488D01*
X031405Y009640D02*
X030705Y009640D01*
X030705Y010040D01*
X031141Y010040D01*
X031405Y009777D01*
X031405Y009640D01*
X031405Y009685D02*
X032390Y009685D01*
X032390Y009587D02*
X030705Y009587D01*
X030705Y009685D02*
X030605Y009685D01*
X030605Y009587D02*
X029405Y009587D01*
X029405Y009685D02*
X029905Y009685D01*
X029912Y009784D02*
X029405Y009784D01*
X029405Y009882D02*
X030011Y009882D01*
X030109Y009981D02*
X029405Y009981D01*
X029405Y010080D02*
X032390Y010080D01*
X032390Y010178D02*
X029405Y010178D01*
X029405Y010277D02*
X032390Y010277D01*
X032390Y010375D02*
X029405Y010375D01*
X029405Y010474D02*
X032390Y010474D01*
X032390Y010572D02*
X029405Y010572D01*
X029405Y010671D02*
X032390Y010671D01*
X032390Y010769D02*
X029405Y010769D01*
X029405Y010868D02*
X032390Y010868D01*
X032390Y010966D02*
X029405Y010966D01*
X029405Y011065D02*
X032390Y011065D01*
X032390Y011164D02*
X029405Y011164D01*
X029405Y011262D02*
X032390Y011262D01*
X032390Y011361D02*
X029405Y011361D01*
X029405Y011459D02*
X032390Y011459D01*
X032390Y011558D02*
X029405Y011558D01*
X029405Y011656D02*
X032390Y011656D01*
X032390Y011755D02*
X029405Y011755D01*
X029405Y011853D02*
X032390Y011853D01*
X032390Y011952D02*
X029405Y011952D01*
X029405Y012050D02*
X032390Y012050D01*
X032390Y012149D02*
X029405Y012149D01*
X029405Y012247D02*
X032390Y012247D01*
X032390Y012346D02*
X029405Y012346D01*
X029405Y012445D02*
X032390Y012445D01*
X032390Y012543D02*
X029405Y012543D01*
X029405Y012642D02*
X032390Y012642D01*
X032390Y012740D02*
X029405Y012740D01*
X029405Y012839D02*
X032390Y012839D01*
X032390Y012937D02*
X029405Y012937D01*
X029405Y013036D02*
X032390Y013036D01*
X032390Y013134D02*
X029405Y013134D01*
X029405Y013233D02*
X030104Y013233D01*
X030177Y013160D02*
X029925Y013412D01*
X029925Y013768D01*
X030177Y014020D01*
X031133Y014020D01*
X031385Y013768D01*
X031385Y013412D01*
X031133Y013160D01*
X030177Y013160D01*
X030006Y013331D02*
X029405Y013331D01*
X029405Y013430D02*
X029925Y013430D01*
X029925Y013529D02*
X029447Y013529D01*
X029545Y013627D02*
X029925Y013627D01*
X029925Y013726D02*
X029644Y013726D01*
X029743Y013824D02*
X029981Y013824D01*
X030080Y013923D02*
X029841Y013923D01*
X029940Y014021D02*
X032390Y014021D01*
X032390Y013923D02*
X031231Y013923D01*
X031329Y013824D02*
X032390Y013824D01*
X032390Y013726D02*
X031385Y013726D01*
X031385Y013627D02*
X032390Y013627D01*
X032390Y013529D02*
X031385Y013529D01*
X031385Y013430D02*
X032390Y013430D01*
X032390Y013331D02*
X031304Y013331D01*
X031206Y013233D02*
X032390Y013233D01*
X032390Y014120D02*
X030038Y014120D01*
X029922Y014711D02*
X029905Y014711D01*
X029905Y014810D02*
X029966Y014810D01*
X029905Y014908D02*
X030065Y014908D01*
X030164Y015007D02*
X029905Y015007D01*
X029905Y015105D02*
X032390Y015105D01*
X032390Y015007D02*
X031147Y015007D01*
X031141Y015140D02*
X030705Y015140D01*
X030705Y015540D01*
X030605Y015540D01*
X030605Y015140D01*
X030169Y015140D01*
X029905Y015404D01*
X029905Y015540D01*
X030605Y015540D01*
X030605Y015640D01*
X029905Y015640D01*
X029905Y015777D01*
X030169Y016040D01*
X030605Y016040D01*
X030605Y015640D01*
X030705Y015640D01*
X030705Y015540D01*
X031405Y015540D01*
X031405Y015404D01*
X031141Y015140D01*
X031205Y015204D02*
X032390Y015204D01*
X032390Y015302D02*
X031304Y015302D01*
X031402Y015401D02*
X032390Y015401D01*
X032390Y015499D02*
X031405Y015499D01*
X031405Y015640D02*
X030705Y015640D01*
X030705Y016040D01*
X031141Y016040D01*
X031405Y015777D01*
X031405Y015640D01*
X031405Y015696D02*
X032390Y015696D01*
X032390Y015598D02*
X030705Y015598D01*
X030705Y015696D02*
X030605Y015696D01*
X030605Y015598D02*
X029905Y015598D01*
X029905Y015696D02*
X029905Y015696D01*
X029905Y015795D02*
X029924Y015795D01*
X029905Y015894D02*
X030022Y015894D01*
X030121Y015992D02*
X029905Y015992D01*
X029905Y016091D02*
X032390Y016091D01*
X032390Y016189D02*
X029905Y016189D01*
X029905Y016288D02*
X032390Y016288D01*
X032390Y016386D02*
X029905Y016386D01*
X029905Y016485D02*
X032390Y016485D01*
X032390Y016583D02*
X029905Y016583D01*
X029905Y016682D02*
X032390Y016682D01*
X032390Y016780D02*
X029905Y016780D01*
X029905Y016879D02*
X032390Y016879D01*
X032390Y016978D02*
X029905Y016978D01*
X029905Y017076D02*
X032390Y017076D01*
X032390Y017175D02*
X029905Y017175D01*
X029905Y017273D02*
X032390Y017273D01*
X032390Y017372D02*
X029905Y017372D01*
X029905Y017470D02*
X032390Y017470D01*
X032390Y017569D02*
X029905Y017569D01*
X029905Y017667D02*
X032390Y017667D01*
X032390Y017766D02*
X029905Y017766D01*
X029905Y017864D02*
X032390Y017864D01*
X032390Y017963D02*
X029905Y017963D01*
X029905Y018062D02*
X032390Y018062D01*
X032390Y018160D02*
X029905Y018160D01*
X029905Y018259D02*
X032390Y018259D01*
X032390Y018357D02*
X029905Y018357D01*
X029905Y018456D02*
X032390Y018456D01*
X032390Y018554D02*
X029905Y018554D01*
X029905Y018653D02*
X032390Y018653D01*
X032390Y018751D02*
X031224Y018751D01*
X031133Y018660D02*
X031385Y018912D01*
X031385Y019268D01*
X031133Y019520D01*
X030177Y019520D01*
X029925Y019268D01*
X029925Y018912D01*
X030177Y018660D01*
X031133Y018660D01*
X031323Y018850D02*
X032390Y018850D01*
X032390Y018948D02*
X031385Y018948D01*
X031385Y019047D02*
X032390Y019047D01*
X032390Y019146D02*
X031385Y019146D01*
X031385Y019244D02*
X032390Y019244D01*
X032390Y019343D02*
X031311Y019343D01*
X031212Y019441D02*
X032390Y019441D01*
X032390Y019540D02*
X029958Y019540D01*
X029905Y019441D02*
X030098Y019441D01*
X029999Y019343D02*
X029905Y019343D01*
X029905Y019244D02*
X029925Y019244D01*
X029925Y019146D02*
X029905Y019146D01*
X029905Y019047D02*
X029925Y019047D01*
X029925Y018948D02*
X029905Y018948D01*
X029905Y018850D02*
X029987Y018850D01*
X029905Y018751D02*
X030086Y018751D01*
X029405Y018751D02*
X024782Y018751D01*
X024796Y018718D02*
X024796Y018587D01*
X024746Y018467D01*
X024653Y018375D01*
X024533Y018325D01*
X024402Y018325D01*
X024282Y018375D01*
X024246Y018410D01*
X020623Y018410D01*
X020621Y018404D01*
X020528Y018312D01*
X020408Y018262D01*
X020277Y018262D01*
X020157Y018312D01*
X020064Y018404D01*
X020014Y018525D01*
X020014Y018656D01*
X020064Y018776D01*
X020157Y018868D01*
X020277Y018918D01*
X020408Y018918D01*
X020528Y018868D01*
X020621Y018776D01*
X020623Y018770D01*
X021074Y018770D01*
X021064Y018779D01*
X021014Y018900D01*
X021014Y019031D01*
X021064Y019151D01*
X021157Y019243D01*
X021277Y019293D01*
X021408Y019293D01*
X021528Y019243D01*
X021621Y019151D01*
X021623Y019145D01*
X023706Y019145D01*
X023829Y019269D01*
X023827Y019275D01*
X023827Y019406D01*
X023877Y019526D01*
X023969Y019618D01*
X024090Y019668D01*
X024220Y019668D01*
X024341Y019618D01*
X024433Y019526D01*
X024483Y019406D01*
X024483Y019275D01*
X024433Y019154D01*
X024341Y019062D01*
X024220Y019012D01*
X024090Y019012D01*
X024084Y019015D01*
X023855Y018785D01*
X023706Y018785D01*
X021623Y018785D01*
X021621Y018779D01*
X021611Y018770D01*
X024161Y018770D01*
X024189Y018839D01*
X024282Y018931D01*
X024402Y018981D01*
X024533Y018981D01*
X024653Y018931D01*
X024746Y018839D01*
X024796Y018718D01*
X024796Y018653D02*
X029405Y018653D01*
X029405Y018554D02*
X024782Y018554D01*
X024735Y018456D02*
X029405Y018456D01*
X029405Y018357D02*
X024611Y018357D01*
X024324Y018357D02*
X020574Y018357D01*
X020343Y018590D02*
X024405Y018590D01*
X024468Y018653D01*
X024734Y018850D02*
X029405Y018850D01*
X029405Y018948D02*
X024611Y018948D01*
X024424Y019146D02*
X029405Y019146D01*
X029405Y019244D02*
X024470Y019244D01*
X024483Y019343D02*
X029405Y019343D01*
X029405Y019441D02*
X024468Y019441D01*
X024420Y019540D02*
X029405Y019540D01*
X029405Y019638D02*
X024293Y019638D01*
X024017Y019638D02*
X022980Y019638D01*
X022966Y019625D02*
X022845Y019575D01*
X022715Y019575D01*
X022594Y019625D01*
X022502Y019717D01*
X022452Y019837D01*
X022452Y019968D01*
X022502Y020089D01*
X022594Y020181D01*
X022715Y020231D01*
X022845Y020231D01*
X022966Y020181D01*
X023058Y020089D01*
X023061Y020083D01*
X025143Y020083D01*
X025913Y020852D01*
X025913Y020925D01*
X025725Y021112D01*
X025725Y022068D01*
X025977Y022320D01*
X026333Y022320D01*
X026585Y022068D01*
X026585Y021112D01*
X026333Y020860D01*
X026273Y020860D01*
X026273Y020703D01*
X026167Y020598D01*
X025292Y019723D01*
X025143Y019723D01*
X023061Y019723D01*
X023058Y019717D01*
X022966Y019625D01*
X022780Y019903D02*
X025218Y019903D01*
X026093Y020778D01*
X026093Y021528D01*
X026155Y021590D01*
X026585Y021609D02*
X027105Y021609D01*
X027105Y021640D02*
X026705Y021640D01*
X026705Y022077D01*
X026969Y022340D01*
X027105Y022340D01*
X027105Y021640D01*
X027105Y021540D01*
X027105Y020840D01*
X026969Y020840D01*
X026705Y021104D01*
X026705Y021540D01*
X027105Y021540D01*
X027205Y021540D01*
X027205Y020840D01*
X027341Y020840D01*
X027605Y021104D01*
X027605Y021540D01*
X027205Y021540D01*
X027205Y021640D01*
X027605Y021640D01*
X027605Y022077D01*
X027341Y022340D01*
X027205Y022340D01*
X027205Y021640D01*
X027105Y021640D01*
X027105Y021708D02*
X027205Y021708D01*
X027218Y021653D02*
X027155Y021590D01*
X027155Y021590D01*
X027155Y020903D01*
X027405Y020653D01*
X028718Y020653D01*
X029155Y021090D01*
X030655Y021090D01*
X030605Y021116D02*
X028585Y021116D01*
X028585Y021112D02*
X028333Y020860D01*
X027977Y020860D01*
X027725Y021112D01*
X027725Y022068D01*
X027977Y022320D01*
X028333Y022320D01*
X028585Y022068D01*
X028585Y021112D01*
X028585Y021215D02*
X029905Y021215D01*
X029905Y021277D02*
X030169Y021540D01*
X030605Y021540D01*
X030605Y021140D01*
X029905Y021140D01*
X029905Y021277D01*
X029942Y021313D02*
X028585Y021313D01*
X028585Y021412D02*
X030041Y021412D01*
X030139Y021511D02*
X028585Y021511D01*
X028585Y021609D02*
X032390Y021609D01*
X032390Y021511D02*
X031171Y021511D01*
X031141Y021540D02*
X031405Y021277D01*
X031405Y021140D01*
X030705Y021140D01*
X030705Y021040D01*
X030605Y021040D01*
X030605Y020640D01*
X030169Y020640D01*
X029905Y020904D01*
X029905Y021040D01*
X030605Y021040D01*
X030605Y021140D01*
X030705Y021140D01*
X030705Y021540D01*
X031141Y021540D01*
X031270Y021412D02*
X032390Y021412D01*
X032390Y021313D02*
X031368Y021313D01*
X031405Y021215D02*
X032390Y021215D01*
X032390Y021116D02*
X030705Y021116D01*
X030705Y021040D02*
X031405Y021040D01*
X031405Y020904D01*
X031141Y020640D01*
X030705Y020640D01*
X030705Y021040D01*
X030705Y021018D02*
X030605Y021018D01*
X030605Y020919D02*
X030705Y020919D01*
X030705Y020821D02*
X030605Y020821D01*
X030605Y020722D02*
X030705Y020722D01*
X030087Y020722D02*
X026273Y020722D01*
X026273Y020821D02*
X029988Y020821D01*
X029905Y020919D02*
X028392Y020919D01*
X028491Y021018D02*
X029905Y021018D01*
X030083Y020427D02*
X025996Y020427D01*
X026094Y020525D02*
X032390Y020525D01*
X032390Y020427D02*
X031227Y020427D01*
X031325Y020328D02*
X032390Y020328D01*
X032390Y020229D02*
X031385Y020229D01*
X031385Y020131D02*
X032390Y020131D01*
X032390Y020032D02*
X031385Y020032D01*
X031385Y019934D02*
X032390Y019934D01*
X032390Y019835D02*
X031308Y019835D01*
X031210Y019737D02*
X032390Y019737D01*
X032390Y019638D02*
X030057Y019638D01*
X029744Y020032D02*
X025602Y020032D01*
X025503Y019934D02*
X029645Y019934D01*
X029547Y019835D02*
X025405Y019835D01*
X025306Y019737D02*
X029448Y019737D01*
X029842Y020131D02*
X025700Y020131D01*
X025799Y020229D02*
X029925Y020229D01*
X029905Y020194D02*
X029905Y020194D01*
X029985Y020328D02*
X025897Y020328D01*
X025684Y020624D02*
X024943Y020624D01*
X025042Y020722D02*
X025783Y020722D01*
X025881Y020821D02*
X025140Y020821D01*
X025105Y020785D02*
X024667Y020348D01*
X024518Y020348D01*
X022686Y020348D01*
X022683Y020342D01*
X022591Y020250D01*
X022470Y020200D01*
X022340Y020200D01*
X022219Y020250D01*
X022127Y020342D01*
X022077Y020462D01*
X022077Y020593D01*
X022127Y020714D01*
X022219Y020806D01*
X022340Y020856D01*
X022470Y020856D01*
X022591Y020806D01*
X022683Y020714D01*
X022686Y020708D01*
X024518Y020708D01*
X024824Y021013D01*
X024725Y021112D01*
X024725Y022068D01*
X024977Y022320D01*
X025333Y022320D01*
X025585Y022068D01*
X025585Y021112D01*
X025333Y020860D01*
X025180Y020860D01*
X025105Y020785D01*
X025030Y020965D02*
X025030Y021465D01*
X025155Y021590D01*
X024725Y021609D02*
X019045Y021609D01*
X019045Y021511D02*
X024725Y021511D01*
X024725Y021412D02*
X019038Y021412D01*
X018940Y021313D02*
X024725Y021313D01*
X024725Y021215D02*
X018841Y021215D01*
X018835Y021116D02*
X024725Y021116D01*
X024819Y021018D02*
X018835Y021018D01*
X018835Y020919D02*
X024730Y020919D01*
X024631Y020821D02*
X022555Y020821D01*
X022675Y020722D02*
X024533Y020722D01*
X024593Y020528D02*
X025030Y020965D01*
X025392Y020919D02*
X025913Y020919D01*
X025819Y021018D02*
X025491Y021018D01*
X025585Y021116D02*
X025725Y021116D01*
X025725Y021215D02*
X025585Y021215D01*
X025585Y021313D02*
X025725Y021313D01*
X025725Y021412D02*
X025585Y021412D01*
X025585Y021511D02*
X025725Y021511D01*
X025725Y021609D02*
X025585Y021609D01*
X025585Y021708D02*
X025725Y021708D01*
X025725Y021806D02*
X025585Y021806D01*
X025585Y021905D02*
X025725Y021905D01*
X025725Y022003D02*
X025585Y022003D01*
X025552Y022102D02*
X025759Y022102D01*
X025857Y022200D02*
X025453Y022200D01*
X025354Y022299D02*
X025956Y022299D01*
X026354Y022299D02*
X026927Y022299D01*
X026829Y022200D02*
X026453Y022200D01*
X026552Y022102D02*
X026730Y022102D01*
X026705Y022003D02*
X026585Y022003D01*
X026585Y021905D02*
X026705Y021905D01*
X026705Y021806D02*
X026585Y021806D01*
X026585Y021708D02*
X026705Y021708D01*
X026705Y021511D02*
X026585Y021511D01*
X026585Y021412D02*
X026705Y021412D01*
X026705Y021313D02*
X026585Y021313D01*
X026585Y021215D02*
X026705Y021215D01*
X026705Y021116D02*
X026585Y021116D01*
X026491Y021018D02*
X026791Y021018D01*
X026890Y020919D02*
X026392Y020919D01*
X026193Y020624D02*
X032390Y020624D01*
X032390Y020722D02*
X031223Y020722D01*
X031322Y020821D02*
X032390Y020821D01*
X032390Y020919D02*
X031405Y020919D01*
X031405Y021018D02*
X032390Y021018D01*
X032390Y021708D02*
X028585Y021708D01*
X028585Y021806D02*
X032390Y021806D01*
X032390Y021905D02*
X028585Y021905D01*
X028585Y022003D02*
X032390Y022003D01*
X032390Y022102D02*
X028552Y022102D01*
X028453Y022200D02*
X032390Y022200D01*
X032390Y022299D02*
X028354Y022299D01*
X027956Y022299D02*
X027383Y022299D01*
X027481Y022200D02*
X027857Y022200D01*
X027759Y022102D02*
X027580Y022102D01*
X027605Y022003D02*
X027725Y022003D01*
X027725Y021905D02*
X027605Y021905D01*
X027605Y021806D02*
X027725Y021806D01*
X027725Y021708D02*
X027605Y021708D01*
X027725Y021609D02*
X027205Y021609D01*
X027205Y021511D02*
X027105Y021511D01*
X027105Y021412D02*
X027205Y021412D01*
X027205Y021313D02*
X027105Y021313D01*
X027105Y021215D02*
X027205Y021215D01*
X027205Y021116D02*
X027105Y021116D01*
X027105Y021018D02*
X027205Y021018D01*
X027205Y020919D02*
X027105Y020919D01*
X027421Y020919D02*
X027918Y020919D01*
X027819Y021018D02*
X027519Y021018D01*
X027605Y021116D02*
X027725Y021116D01*
X027725Y021215D02*
X027605Y021215D01*
X027605Y021313D02*
X027725Y021313D01*
X027725Y021412D02*
X027605Y021412D01*
X027605Y021511D02*
X027725Y021511D01*
X027205Y021806D02*
X027105Y021806D01*
X027105Y021905D02*
X027205Y021905D01*
X027205Y022003D02*
X027105Y022003D01*
X027105Y022102D02*
X027205Y022102D01*
X027205Y022200D02*
X027105Y022200D01*
X027105Y022299D02*
X027205Y022299D01*
X024956Y022299D02*
X019008Y022299D01*
X019045Y022200D02*
X024857Y022200D01*
X024759Y022102D02*
X019045Y022102D01*
X019045Y022003D02*
X024725Y022003D01*
X024725Y021905D02*
X019045Y021905D01*
X019045Y021806D02*
X024725Y021806D01*
X024725Y021708D02*
X019045Y021708D01*
X018655Y021778D02*
X018593Y021840D01*
X018655Y021840D01*
X018655Y021778D02*
X018655Y018028D01*
X019030Y017653D01*
X022093Y017653D01*
X022468Y017278D01*
X027030Y017278D01*
X027358Y017273D02*
X029405Y017273D01*
X029405Y017175D02*
X027343Y017175D01*
X027292Y017076D02*
X029405Y017076D01*
X029405Y016978D02*
X027163Y016978D01*
X026897Y016978D02*
X022272Y016978D01*
X022174Y017076D02*
X026768Y017076D01*
X026690Y016879D02*
X029405Y016879D01*
X029405Y016780D02*
X026804Y016780D01*
X026847Y016682D02*
X029405Y016682D01*
X029405Y016583D02*
X029376Y016583D01*
X029405Y017372D02*
X027346Y017372D01*
X027302Y017470D02*
X029405Y017470D01*
X029405Y017569D02*
X027185Y017569D01*
X026875Y017569D02*
X026200Y017569D01*
X026233Y017667D02*
X029405Y017667D01*
X029405Y017766D02*
X026233Y017766D01*
X026198Y017864D02*
X029405Y017864D01*
X029405Y017963D02*
X026121Y017963D01*
X025689Y017963D02*
X022733Y017963D01*
X022585Y018062D02*
X029405Y018062D01*
X029405Y018160D02*
X020277Y018160D01*
X020179Y018259D02*
X029405Y018259D01*
X029405Y019047D02*
X024304Y019047D01*
X024324Y018948D02*
X024018Y018948D01*
X023919Y018850D02*
X024201Y018850D01*
X023780Y018965D02*
X024155Y019340D01*
X023827Y019343D02*
X019969Y019343D01*
X020045Y019441D02*
X023842Y019441D01*
X023891Y019540D02*
X020045Y019540D01*
X020045Y019638D02*
X022581Y019638D01*
X022494Y019737D02*
X020045Y019737D01*
X020045Y019835D02*
X022453Y019835D01*
X022452Y019934D02*
X020045Y019934D01*
X020045Y020032D02*
X022479Y020032D01*
X022544Y020131D02*
X020045Y020131D01*
X020045Y020229D02*
X022268Y020229D01*
X022141Y020328D02*
X019979Y020328D01*
X019880Y020427D02*
X022092Y020427D01*
X022077Y020525D02*
X018835Y020525D01*
X018835Y020427D02*
X019430Y020427D01*
X019331Y020328D02*
X018835Y020328D01*
X018835Y020229D02*
X019265Y020229D01*
X019265Y020131D02*
X018835Y020131D01*
X018835Y020032D02*
X019265Y020032D01*
X019265Y019934D02*
X018835Y019934D01*
X018835Y019835D02*
X019265Y019835D01*
X019265Y019737D02*
X018835Y019737D01*
X018835Y019638D02*
X019265Y019638D01*
X019265Y019540D02*
X018835Y019540D01*
X018835Y019441D02*
X019265Y019441D01*
X019341Y019343D02*
X018835Y019343D01*
X018835Y019244D02*
X019440Y019244D01*
X019475Y019146D02*
X018835Y019146D01*
X018835Y019047D02*
X019475Y019047D01*
X019475Y018948D02*
X018835Y018948D01*
X018835Y018850D02*
X019475Y018850D01*
X019475Y018751D02*
X018835Y018751D01*
X018835Y018653D02*
X019475Y018653D01*
X019475Y018554D02*
X018835Y018554D01*
X018835Y018456D02*
X019475Y018456D01*
X019571Y018357D02*
X018835Y018357D01*
X018835Y018259D02*
X019670Y018259D01*
X019768Y018160D02*
X018835Y018160D01*
X018876Y018062D02*
X019867Y018062D01*
X019965Y017963D02*
X018974Y017963D01*
X019073Y017864D02*
X020064Y017864D01*
X020218Y017965D02*
X022280Y017965D01*
X022405Y017965D01*
X022780Y017715D01*
X025905Y017715D01*
X026124Y017470D02*
X026759Y017470D01*
X026370Y016879D02*
X022371Y016879D01*
X022469Y016780D02*
X026256Y016780D01*
X026530Y016590D02*
X022405Y016590D01*
X021968Y017028D01*
X015593Y017028D01*
X014655Y017965D01*
X014655Y021840D01*
X014265Y021806D02*
X011045Y021806D01*
X011045Y021708D02*
X014265Y021708D01*
X014265Y021609D02*
X011045Y021609D01*
X011045Y021511D02*
X014265Y021511D01*
X014272Y021412D02*
X011038Y021412D01*
X010940Y021313D02*
X014370Y021313D01*
X014469Y021215D02*
X010841Y021215D01*
X010835Y021116D02*
X014475Y021116D01*
X014475Y021018D02*
X010835Y021018D01*
X010835Y020919D02*
X014475Y020919D01*
X014475Y020821D02*
X010835Y020821D01*
X010835Y020722D02*
X014475Y020722D01*
X014475Y020624D02*
X010835Y020624D01*
X010835Y020525D02*
X014475Y020525D01*
X014475Y020427D02*
X013909Y020427D01*
X013825Y020510D02*
X014065Y020270D01*
X014065Y019870D01*
X013685Y019870D01*
X013685Y019810D01*
X013625Y019810D01*
X013625Y019170D01*
X013485Y019170D01*
X013245Y019410D01*
X013245Y019810D01*
X013625Y019810D01*
X013625Y019870D01*
X013245Y019870D01*
X013245Y020270D01*
X013485Y020510D01*
X013625Y020510D01*
X013625Y019870D01*
X013685Y019870D01*
X013685Y020510D01*
X013825Y020510D01*
X013685Y020427D02*
X013625Y020427D01*
X013625Y020328D02*
X013685Y020328D01*
X013685Y020229D02*
X013625Y020229D01*
X013625Y020131D02*
X013685Y020131D01*
X013685Y020032D02*
X013625Y020032D01*
X013625Y019934D02*
X013685Y019934D01*
X013685Y019835D02*
X014475Y019835D01*
X014475Y019737D02*
X014065Y019737D01*
X014065Y019810D02*
X014065Y019410D01*
X013825Y019170D01*
X013685Y019170D01*
X013685Y019810D01*
X014065Y019810D01*
X014065Y019934D02*
X014475Y019934D01*
X014475Y020032D02*
X014065Y020032D01*
X014065Y020131D02*
X014475Y020131D01*
X014475Y020229D02*
X014065Y020229D01*
X014007Y020328D02*
X014475Y020328D01*
X014835Y020328D02*
X015331Y020328D01*
X015265Y020262D02*
X015494Y020490D01*
X015817Y020490D01*
X016045Y020262D01*
X016045Y019419D01*
X015817Y019190D01*
X015494Y019190D01*
X015265Y019419D01*
X015265Y020262D01*
X015265Y020229D02*
X014835Y020229D01*
X014835Y020131D02*
X015265Y020131D01*
X015265Y020032D02*
X014835Y020032D01*
X014835Y019934D02*
X015265Y019934D01*
X015265Y019835D02*
X014835Y019835D01*
X014835Y019737D02*
X015265Y019737D01*
X015265Y019638D02*
X014835Y019638D01*
X014835Y019540D02*
X015265Y019540D01*
X015265Y019441D02*
X014835Y019441D01*
X014835Y019343D02*
X015341Y019343D01*
X015440Y019244D02*
X014835Y019244D01*
X014835Y019146D02*
X018475Y019146D01*
X018475Y019244D02*
X017899Y019244D01*
X017825Y019170D02*
X017685Y019170D01*
X017685Y019810D01*
X017625Y019810D01*
X017625Y019170D01*
X017485Y019170D01*
X017245Y019410D01*
X017245Y019810D01*
X017625Y019810D01*
X017625Y019870D01*
X017245Y019870D01*
X017245Y020270D01*
X017485Y020510D01*
X017625Y020510D01*
X017625Y019870D01*
X017685Y019870D01*
X017685Y019810D01*
X018065Y019810D01*
X018065Y019410D01*
X017825Y019170D01*
X017685Y019244D02*
X017625Y019244D01*
X017625Y019343D02*
X017685Y019343D01*
X017685Y019441D02*
X017625Y019441D01*
X017625Y019540D02*
X017685Y019540D01*
X017685Y019638D02*
X017625Y019638D01*
X017625Y019737D02*
X017685Y019737D01*
X017685Y019835D02*
X018475Y019835D01*
X018475Y019737D02*
X018065Y019737D01*
X018065Y019638D02*
X018475Y019638D01*
X018475Y019540D02*
X018065Y019540D01*
X018065Y019441D02*
X018475Y019441D01*
X018475Y019343D02*
X017997Y019343D01*
X017411Y019244D02*
X015870Y019244D01*
X015969Y019343D02*
X017313Y019343D01*
X017245Y019441D02*
X016045Y019441D01*
X016045Y019540D02*
X017245Y019540D01*
X017245Y019638D02*
X016045Y019638D01*
X016045Y019737D02*
X017245Y019737D01*
X017245Y019934D02*
X016045Y019934D01*
X016045Y020032D02*
X017245Y020032D01*
X017245Y020131D02*
X016045Y020131D01*
X016045Y020229D02*
X017245Y020229D01*
X017303Y020328D02*
X015979Y020328D01*
X015880Y020427D02*
X017402Y020427D01*
X017625Y020427D02*
X017685Y020427D01*
X017685Y020510D02*
X017825Y020510D01*
X018065Y020270D01*
X018065Y019870D01*
X017685Y019870D01*
X017685Y020510D01*
X017685Y020328D02*
X017625Y020328D01*
X017625Y020229D02*
X017685Y020229D01*
X017685Y020131D02*
X017625Y020131D01*
X017625Y020032D02*
X017685Y020032D01*
X017685Y019934D02*
X017625Y019934D01*
X017625Y019835D02*
X016045Y019835D01*
X015430Y020427D02*
X014835Y020427D01*
X014835Y020525D02*
X018475Y020525D01*
X018475Y020427D02*
X017909Y020427D01*
X018007Y020328D02*
X018475Y020328D01*
X018475Y020229D02*
X018065Y020229D01*
X018065Y020131D02*
X018475Y020131D01*
X018475Y020032D02*
X018065Y020032D01*
X018065Y019934D02*
X018475Y019934D01*
X018475Y020624D02*
X014835Y020624D01*
X014835Y020722D02*
X018475Y020722D01*
X018475Y020821D02*
X014835Y020821D01*
X014835Y020919D02*
X018475Y020919D01*
X018475Y021018D02*
X014835Y021018D01*
X014835Y021116D02*
X018475Y021116D01*
X018469Y021215D02*
X014841Y021215D01*
X014940Y021313D02*
X018370Y021313D01*
X018272Y021412D02*
X015038Y021412D01*
X015045Y021511D02*
X018265Y021511D01*
X018265Y021609D02*
X015045Y021609D01*
X015045Y021708D02*
X018265Y021708D01*
X018265Y021806D02*
X015045Y021806D01*
X015045Y021905D02*
X018265Y021905D01*
X018265Y022003D02*
X015045Y022003D01*
X015045Y022102D02*
X018265Y022102D01*
X018265Y022200D02*
X015045Y022200D01*
X015008Y022299D02*
X018302Y022299D01*
X018835Y020821D02*
X022255Y020821D01*
X022136Y020722D02*
X018835Y020722D01*
X018835Y020624D02*
X022090Y020624D01*
X022405Y020528D02*
X024593Y020528D01*
X024746Y020427D02*
X025487Y020427D01*
X025585Y020525D02*
X024845Y020525D01*
X025290Y020229D02*
X022849Y020229D01*
X022712Y020229D02*
X022542Y020229D01*
X022669Y020328D02*
X025388Y020328D01*
X025191Y020131D02*
X023016Y020131D01*
X023804Y019244D02*
X021527Y019244D01*
X021623Y019146D02*
X023706Y019146D01*
X023780Y018965D02*
X021343Y018965D01*
X021035Y018850D02*
X020547Y018850D01*
X020138Y018850D02*
X019835Y018850D01*
X019835Y018948D02*
X021014Y018948D01*
X021021Y019047D02*
X019835Y019047D01*
X019835Y019146D02*
X021062Y019146D01*
X021158Y019244D02*
X019870Y019244D01*
X019835Y018751D02*
X020054Y018751D01*
X020014Y018653D02*
X019835Y018653D01*
X019883Y018554D02*
X020014Y018554D01*
X020043Y018456D02*
X019982Y018456D01*
X020080Y018357D02*
X020112Y018357D01*
X020218Y017965D02*
X019655Y018528D01*
X019655Y019840D01*
X018475Y019047D02*
X014835Y019047D01*
X014835Y018948D02*
X018475Y018948D01*
X018475Y018850D02*
X014835Y018850D01*
X014835Y018751D02*
X018475Y018751D01*
X018475Y018653D02*
X014835Y018653D01*
X014835Y018554D02*
X018475Y018554D01*
X018475Y018456D02*
X014835Y018456D01*
X014835Y018357D02*
X018475Y018357D01*
X018475Y018259D02*
X014835Y018259D01*
X014835Y018160D02*
X018475Y018160D01*
X018475Y018062D02*
X014835Y018062D01*
X014912Y017963D02*
X018475Y017963D01*
X018564Y017864D02*
X015010Y017864D01*
X015109Y017766D02*
X018662Y017766D01*
X018761Y017667D02*
X015207Y017667D01*
X015306Y017569D02*
X018859Y017569D01*
X018889Y016288D02*
X005905Y016288D01*
X005905Y016386D02*
X011354Y016386D01*
X011256Y016485D02*
X005905Y016485D01*
X005905Y016583D02*
X011157Y016583D01*
X011059Y016682D02*
X005905Y016682D01*
X005905Y016780D02*
X010960Y016780D01*
X010862Y016879D02*
X005905Y016879D01*
X005905Y016978D02*
X010763Y016978D01*
X010665Y017076D02*
X005905Y017076D01*
X005905Y017175D02*
X010566Y017175D01*
X010475Y017273D02*
X005905Y017273D01*
X005905Y017372D02*
X010475Y017372D01*
X010475Y017470D02*
X005905Y017470D01*
X005905Y017569D02*
X010475Y017569D01*
X010475Y017667D02*
X005905Y017667D01*
X005905Y017766D02*
X010475Y017766D01*
X010475Y017864D02*
X005905Y017864D01*
X005905Y017963D02*
X010475Y017963D01*
X010475Y018062D02*
X005905Y018062D01*
X005905Y018160D02*
X010475Y018160D01*
X010475Y018259D02*
X005905Y018259D01*
X005905Y018357D02*
X010475Y018357D01*
X010475Y018456D02*
X005893Y018456D01*
X005813Y018554D02*
X010475Y018554D01*
X010475Y018653D02*
X005747Y018653D01*
X005681Y018751D02*
X010475Y018751D01*
X010475Y018850D02*
X005616Y018850D01*
X005550Y018948D02*
X010475Y018948D01*
X010475Y019047D02*
X005484Y019047D01*
X005419Y019146D02*
X010475Y019146D01*
X010475Y019244D02*
X009899Y019244D01*
X009825Y019170D02*
X010065Y019410D01*
X010065Y019810D01*
X009685Y019810D01*
X009625Y019810D01*
X009625Y019170D01*
X009485Y019170D01*
X009245Y019410D01*
X009245Y019810D01*
X009625Y019810D01*
X009625Y019870D01*
X009245Y019870D01*
X009245Y020270D01*
X009485Y020510D01*
X009625Y020510D01*
X009625Y019870D01*
X009685Y019870D01*
X009685Y019810D01*
X009685Y019170D01*
X009825Y019170D01*
X009685Y019244D02*
X009625Y019244D01*
X009625Y019343D02*
X009685Y019343D01*
X009685Y019441D02*
X009625Y019441D01*
X009625Y019540D02*
X009685Y019540D01*
X009685Y019638D02*
X009625Y019638D01*
X009625Y019737D02*
X009685Y019737D01*
X009685Y019835D02*
X010475Y019835D01*
X010475Y019737D02*
X010065Y019737D01*
X010065Y019638D02*
X010475Y019638D01*
X010475Y019540D02*
X010065Y019540D01*
X010065Y019441D02*
X010475Y019441D01*
X010475Y019343D02*
X009997Y019343D01*
X010065Y019870D02*
X009685Y019870D01*
X009685Y020510D01*
X009825Y020510D01*
X010065Y020270D01*
X010065Y019870D01*
X010065Y019934D02*
X010475Y019934D01*
X010475Y020032D02*
X010065Y020032D01*
X010065Y020131D02*
X010475Y020131D01*
X010475Y020229D02*
X010065Y020229D01*
X010007Y020328D02*
X010475Y020328D01*
X010475Y020427D02*
X009909Y020427D01*
X009685Y020427D02*
X009625Y020427D01*
X009625Y020328D02*
X009685Y020328D01*
X009685Y020229D02*
X009625Y020229D01*
X009625Y020131D02*
X009685Y020131D01*
X009685Y020032D02*
X009625Y020032D01*
X009625Y019934D02*
X009685Y019934D01*
X009625Y019835D02*
X005308Y019835D01*
X005385Y019934D02*
X009245Y019934D01*
X009245Y020032D02*
X005385Y020032D01*
X005385Y020131D02*
X009245Y020131D01*
X009245Y020229D02*
X005385Y020229D01*
X005325Y020328D02*
X009303Y020328D01*
X009402Y020427D02*
X005227Y020427D01*
X005133Y020660D02*
X004177Y020660D01*
X003925Y020912D01*
X003925Y021268D01*
X004177Y021520D01*
X005133Y021520D01*
X005385Y021268D01*
X005385Y020912D01*
X005133Y020660D01*
X005195Y020722D02*
X010475Y020722D01*
X010475Y020624D02*
X002920Y020624D01*
X002920Y020722D02*
X004115Y020722D01*
X004016Y020821D02*
X002920Y020821D01*
X002920Y020919D02*
X003925Y020919D01*
X003925Y021018D02*
X002920Y021018D01*
X002920Y021116D02*
X003925Y021116D01*
X003925Y021215D02*
X002920Y021215D01*
X002920Y021313D02*
X003970Y021313D01*
X004069Y021412D02*
X002920Y021412D01*
X002920Y021511D02*
X004167Y021511D01*
X005143Y021511D02*
X010265Y021511D01*
X010265Y021609D02*
X002920Y021609D01*
X002920Y021708D02*
X010265Y021708D01*
X010265Y021806D02*
X002920Y021806D01*
X002920Y021905D02*
X010265Y021905D01*
X010265Y022003D02*
X002920Y022003D01*
X002920Y022102D02*
X010265Y022102D01*
X010265Y022200D02*
X002920Y022200D01*
X002920Y022299D02*
X010302Y022299D01*
X010655Y021840D02*
X010655Y017340D01*
X011468Y016528D01*
X021718Y016528D01*
X022280Y015965D01*
X026030Y015965D01*
X025790Y016189D02*
X022311Y016189D01*
X022212Y016288D02*
X025951Y016288D01*
X026109Y016288D02*
X026403Y016288D01*
X026270Y016386D02*
X022114Y016386D01*
X022015Y016485D02*
X022256Y016485D01*
X022157Y016583D02*
X021916Y016583D01*
X021818Y016682D02*
X022059Y016682D01*
X021960Y016780D02*
X011469Y016780D01*
X011371Y016879D02*
X015487Y016879D01*
X015388Y016978D02*
X011272Y016978D01*
X011174Y017076D02*
X015290Y017076D01*
X015191Y017175D02*
X011075Y017175D01*
X010977Y017273D02*
X015093Y017273D01*
X014994Y017372D02*
X010878Y017372D01*
X010835Y017470D02*
X014896Y017470D01*
X014797Y017569D02*
X010835Y017569D01*
X010835Y017667D02*
X014698Y017667D01*
X014600Y017766D02*
X010835Y017766D01*
X010835Y017864D02*
X014501Y017864D01*
X014475Y017963D02*
X010835Y017963D01*
X010835Y018062D02*
X014475Y018062D01*
X014475Y018160D02*
X010835Y018160D01*
X010835Y018259D02*
X014475Y018259D01*
X014475Y018357D02*
X010835Y018357D01*
X010835Y018456D02*
X014475Y018456D01*
X014475Y018554D02*
X010835Y018554D01*
X010835Y018653D02*
X014475Y018653D01*
X014475Y018751D02*
X010835Y018751D01*
X010835Y018850D02*
X014475Y018850D01*
X014475Y018948D02*
X010835Y018948D01*
X010835Y019047D02*
X014475Y019047D01*
X014475Y019146D02*
X010835Y019146D01*
X010835Y019244D02*
X011440Y019244D01*
X011494Y019190D02*
X011265Y019419D01*
X011265Y020262D01*
X011494Y020490D01*
X011817Y020490D01*
X012045Y020262D01*
X012045Y019419D01*
X011817Y019190D01*
X011494Y019190D01*
X011341Y019343D02*
X010835Y019343D01*
X010835Y019441D02*
X011265Y019441D01*
X011265Y019540D02*
X010835Y019540D01*
X010835Y019638D02*
X011265Y019638D01*
X011265Y019737D02*
X010835Y019737D01*
X010835Y019835D02*
X011265Y019835D01*
X011265Y019934D02*
X010835Y019934D01*
X010835Y020032D02*
X011265Y020032D01*
X011265Y020131D02*
X010835Y020131D01*
X010835Y020229D02*
X011265Y020229D01*
X011331Y020328D02*
X010835Y020328D01*
X010835Y020427D02*
X011430Y020427D01*
X011880Y020427D02*
X013402Y020427D01*
X013303Y020328D02*
X011979Y020328D01*
X012045Y020229D02*
X013245Y020229D01*
X013245Y020131D02*
X012045Y020131D01*
X012045Y020032D02*
X013245Y020032D01*
X013245Y019934D02*
X012045Y019934D01*
X012045Y019835D02*
X013625Y019835D01*
X013625Y019737D02*
X013685Y019737D01*
X013685Y019638D02*
X013625Y019638D01*
X013625Y019540D02*
X013685Y019540D01*
X013685Y019441D02*
X013625Y019441D01*
X013625Y019343D02*
X013685Y019343D01*
X013685Y019244D02*
X013625Y019244D01*
X013411Y019244D02*
X011870Y019244D01*
X011969Y019343D02*
X013313Y019343D01*
X013245Y019441D02*
X012045Y019441D01*
X012045Y019540D02*
X013245Y019540D01*
X013245Y019638D02*
X012045Y019638D01*
X012045Y019737D02*
X013245Y019737D01*
X013899Y019244D02*
X014475Y019244D01*
X014475Y019343D02*
X013997Y019343D01*
X014065Y019441D02*
X014475Y019441D01*
X014475Y019540D02*
X014065Y019540D01*
X014065Y019638D02*
X014475Y019638D01*
X015405Y017470D02*
X022021Y017470D01*
X022119Y017372D02*
X015503Y017372D01*
X015602Y017273D02*
X022218Y017273D01*
X022316Y017175D02*
X022075Y017175D01*
X021703Y016288D02*
X019921Y016288D01*
X019764Y016288D02*
X019421Y016288D01*
X019469Y016189D02*
X019603Y016189D01*
X019539Y016091D02*
X019483Y016091D01*
X019470Y015992D02*
X019514Y015992D01*
X019517Y015894D02*
X019422Y015894D01*
X019335Y015795D02*
X019538Y015795D01*
X019538Y015696D02*
X019335Y015696D01*
X019335Y015598D02*
X019538Y015598D01*
X019538Y015499D02*
X019335Y015499D01*
X019335Y015401D02*
X019538Y015401D01*
X019538Y015302D02*
X019335Y015302D01*
X019335Y015204D02*
X019538Y015204D01*
X019538Y015105D02*
X019335Y015105D01*
X019335Y015007D02*
X019538Y015007D01*
X019538Y014908D02*
X019335Y014908D01*
X019335Y014810D02*
X019538Y014810D01*
X019538Y014711D02*
X019335Y014711D01*
X019335Y014613D02*
X019538Y014613D01*
X019538Y014514D02*
X019335Y014514D01*
X019335Y014415D02*
X019538Y014415D01*
X019538Y014317D02*
X019335Y014317D01*
X019335Y014218D02*
X019538Y014218D01*
X019538Y014120D02*
X019335Y014120D01*
X019335Y014021D02*
X019538Y014021D01*
X019538Y013923D02*
X019335Y013923D01*
X019335Y013824D02*
X019538Y013824D01*
X019538Y013726D02*
X019335Y013726D01*
X019335Y013627D02*
X019538Y013627D01*
X019538Y013529D02*
X019335Y013529D01*
X019335Y013430D02*
X019538Y013430D01*
X019538Y013331D02*
X019335Y013331D01*
X019335Y013233D02*
X019538Y013233D01*
X019538Y013134D02*
X019335Y013134D01*
X019335Y013036D02*
X019538Y013036D01*
X019538Y012937D02*
X019335Y012937D01*
X019335Y012839D02*
X019538Y012839D01*
X019538Y012740D02*
X019335Y012740D01*
X019335Y012642D02*
X019538Y012642D01*
X019538Y012543D02*
X019335Y012543D01*
X019335Y012445D02*
X019538Y012445D01*
X019538Y012346D02*
X019335Y012346D01*
X019335Y012247D02*
X019538Y012247D01*
X019538Y012149D02*
X019335Y012149D01*
X019335Y012050D02*
X019538Y012050D01*
X019538Y011952D02*
X019335Y011952D01*
X019335Y011853D02*
X019538Y011853D01*
X019538Y011755D02*
X019335Y011755D01*
X019335Y011656D02*
X019538Y011656D01*
X019538Y011558D02*
X019335Y011558D01*
X019335Y011459D02*
X019538Y011459D01*
X019538Y011361D02*
X019335Y011361D01*
X019335Y011262D02*
X019538Y011262D01*
X019538Y011164D02*
X019335Y011164D01*
X019335Y011065D02*
X019538Y011065D01*
X019538Y010966D02*
X019335Y010966D01*
X019335Y010868D02*
X019538Y010868D01*
X019538Y010769D02*
X019335Y010769D01*
X019335Y010671D02*
X019538Y010671D01*
X019538Y010572D02*
X019335Y010572D01*
X019335Y010474D02*
X019538Y010474D01*
X019538Y010375D02*
X019387Y010375D01*
X019495Y010277D02*
X019538Y010277D01*
X019538Y010178D02*
X019536Y010178D01*
X019718Y009903D02*
X019718Y015840D01*
X019843Y015965D01*
X020146Y016091D02*
X020567Y016091D01*
X020488Y015992D02*
X020171Y015992D01*
X020168Y015894D02*
X020452Y015894D01*
X020452Y015795D02*
X020127Y015795D01*
X020038Y015696D02*
X020485Y015696D01*
X020558Y015598D02*
X019898Y015598D01*
X019898Y015499D02*
X020600Y015499D01*
X020600Y015401D02*
X019898Y015401D01*
X019898Y015302D02*
X020600Y015302D01*
X020555Y015204D02*
X019898Y015204D01*
X019898Y015105D02*
X020483Y015105D01*
X020452Y015007D02*
X019898Y015007D01*
X019898Y014908D02*
X020452Y014908D01*
X020489Y014810D02*
X019898Y014810D01*
X019898Y014514D02*
X020456Y014514D01*
X020329Y014415D02*
X019898Y014415D01*
X019898Y014317D02*
X020280Y014317D01*
X020264Y014218D02*
X019898Y014218D01*
X019898Y014120D02*
X020243Y014120D01*
X020163Y014021D02*
X019898Y014021D01*
X019898Y013923D02*
X020163Y013923D01*
X020163Y013824D02*
X019898Y013824D01*
X019898Y013726D02*
X020163Y013726D01*
X020163Y013627D02*
X019898Y013627D01*
X019898Y013529D02*
X020163Y013529D01*
X020163Y013430D02*
X019898Y013430D01*
X019898Y013331D02*
X020163Y013331D01*
X020163Y013233D02*
X019898Y013233D01*
X019898Y013134D02*
X020163Y013134D01*
X020163Y013036D02*
X019898Y013036D01*
X019898Y012937D02*
X020163Y012937D01*
X020163Y012839D02*
X019898Y012839D01*
X019898Y012740D02*
X020163Y012740D01*
X020163Y012642D02*
X019898Y012642D01*
X019898Y012543D02*
X020163Y012543D01*
X020163Y012445D02*
X019898Y012445D01*
X019898Y012346D02*
X020163Y012346D01*
X020163Y012247D02*
X019898Y012247D01*
X019898Y012149D02*
X020163Y012149D01*
X020163Y012050D02*
X019898Y012050D01*
X019898Y011952D02*
X020163Y011952D01*
X020163Y011853D02*
X019898Y011853D01*
X019898Y011755D02*
X020163Y011755D01*
X020163Y011656D02*
X019898Y011656D01*
X019898Y011558D02*
X020163Y011558D01*
X020163Y011459D02*
X019898Y011459D01*
X019898Y011361D02*
X020163Y011361D01*
X020163Y011262D02*
X019898Y011262D01*
X019898Y011164D02*
X020163Y011164D01*
X020163Y011065D02*
X019898Y011065D01*
X019898Y010966D02*
X020163Y010966D01*
X020163Y010868D02*
X019898Y010868D01*
X019898Y010769D02*
X020163Y010769D01*
X020163Y010671D02*
X019898Y010671D01*
X019898Y010572D02*
X020163Y010572D01*
X020163Y010474D02*
X019898Y010474D01*
X019898Y010375D02*
X020163Y010375D01*
X020163Y010277D02*
X019898Y010277D01*
X019898Y010178D02*
X020163Y010178D01*
X020163Y010080D02*
X019898Y010080D01*
X019898Y009981D02*
X020163Y009981D01*
X020163Y009882D02*
X019898Y009882D01*
X019853Y009784D02*
X020163Y009784D01*
X020163Y009685D02*
X019783Y009685D01*
X019796Y009587D02*
X020163Y009587D01*
X020163Y009488D02*
X019781Y009488D01*
X019731Y009390D02*
X020163Y009390D01*
X020163Y009291D02*
X019603Y009291D01*
X019332Y009291D02*
X006835Y009291D01*
X006835Y009193D02*
X020163Y009193D01*
X020163Y009094D02*
X008115Y009094D01*
X008196Y008996D02*
X020163Y008996D01*
X020123Y008897D02*
X008233Y008897D01*
X008233Y008798D02*
X020048Y008798D01*
X020014Y008700D02*
X008202Y008700D01*
X008130Y008601D02*
X020014Y008601D01*
X020343Y008653D02*
X020343Y013965D01*
X020593Y014215D01*
X021335Y014218D02*
X025100Y014218D01*
X025100Y014120D02*
X021335Y014120D01*
X021335Y014021D02*
X025100Y014021D01*
X025100Y013923D02*
X021335Y013923D01*
X021335Y013824D02*
X025100Y013824D01*
X025100Y013726D02*
X023608Y013726D01*
X023595Y013731D02*
X023716Y013681D01*
X023808Y013589D01*
X023858Y013468D01*
X023858Y013337D01*
X023808Y013217D01*
X023716Y013125D01*
X023710Y013122D01*
X023710Y011058D01*
X023716Y011056D01*
X023808Y010964D01*
X023858Y010843D01*
X023858Y010712D01*
X023808Y010592D01*
X023716Y010500D01*
X023595Y010450D01*
X023465Y010450D01*
X023344Y010500D01*
X023252Y010592D01*
X023202Y010712D01*
X023202Y010843D01*
X023252Y010964D01*
X023344Y011056D01*
X023350Y011058D01*
X023350Y013122D01*
X023344Y013125D01*
X023252Y013217D01*
X023202Y013337D01*
X023202Y013468D01*
X023252Y013589D01*
X023344Y013681D01*
X023465Y013731D01*
X023595Y013731D01*
X023452Y013726D02*
X021335Y013726D01*
X021335Y013627D02*
X023290Y013627D01*
X023227Y013529D02*
X021335Y013529D01*
X021335Y013430D02*
X023202Y013430D01*
X023204Y013331D02*
X021335Y013331D01*
X021335Y013233D02*
X023245Y013233D01*
X023334Y013134D02*
X021335Y013134D01*
X021335Y013036D02*
X023350Y013036D01*
X023350Y012937D02*
X021335Y012937D01*
X021335Y012839D02*
X023350Y012839D01*
X023350Y012740D02*
X021335Y012740D01*
X021335Y012642D02*
X023350Y012642D01*
X023350Y012543D02*
X021335Y012543D01*
X021335Y012445D02*
X023350Y012445D01*
X023350Y012346D02*
X021335Y012346D01*
X021335Y012247D02*
X023350Y012247D01*
X023350Y012149D02*
X021335Y012149D01*
X021335Y012050D02*
X023350Y012050D01*
X023350Y011952D02*
X021335Y011952D01*
X021335Y011853D02*
X023350Y011853D01*
X023350Y011755D02*
X021335Y011755D01*
X021335Y011656D02*
X023350Y011656D01*
X023350Y011558D02*
X021335Y011558D01*
X021335Y011459D02*
X023350Y011459D01*
X023350Y011361D02*
X021335Y011361D01*
X021335Y011262D02*
X023350Y011262D01*
X023350Y011164D02*
X021335Y011164D01*
X021335Y011065D02*
X023350Y011065D01*
X023255Y010966D02*
X021335Y010966D01*
X021335Y010868D02*
X023212Y010868D01*
X023202Y010769D02*
X021335Y010769D01*
X021335Y010671D02*
X023219Y010671D01*
X023272Y010572D02*
X021335Y010572D01*
X021335Y010474D02*
X023407Y010474D01*
X023653Y010474D02*
X024094Y010474D01*
X023959Y010572D02*
X023789Y010572D01*
X023841Y010671D02*
X023907Y010671D01*
X023889Y010769D02*
X023858Y010769D01*
X023848Y010868D02*
X023900Y010868D01*
X023942Y010966D02*
X023805Y010966D01*
X023710Y011065D02*
X024038Y011065D01*
X024038Y011164D02*
X023710Y011164D01*
X023710Y011262D02*
X024038Y011262D01*
X024038Y011361D02*
X023710Y011361D01*
X023710Y011459D02*
X024038Y011459D01*
X024038Y011558D02*
X023710Y011558D01*
X023710Y011656D02*
X024038Y011656D01*
X024038Y011755D02*
X023710Y011755D01*
X023710Y011853D02*
X023991Y011853D01*
X023920Y011952D02*
X023710Y011952D01*
X023710Y012050D02*
X023890Y012050D01*
X023890Y012149D02*
X023710Y012149D01*
X023710Y012247D02*
X023928Y012247D01*
X024009Y012346D02*
X023710Y012346D01*
X023710Y012445D02*
X024317Y012445D01*
X024416Y012543D02*
X023710Y012543D01*
X023710Y012642D02*
X024514Y012642D01*
X024613Y012740D02*
X023710Y012740D01*
X023710Y012839D02*
X024712Y012839D01*
X024810Y012937D02*
X023710Y012937D01*
X023710Y013036D02*
X024909Y013036D01*
X025007Y013134D02*
X023726Y013134D01*
X023815Y013233D02*
X025100Y013233D01*
X025100Y013331D02*
X023856Y013331D01*
X023858Y013430D02*
X025100Y013430D01*
X025100Y013529D02*
X023833Y013529D01*
X023770Y013627D02*
X025100Y013627D01*
X025460Y013627D02*
X027975Y013627D01*
X027975Y013529D02*
X025460Y013529D01*
X025460Y013430D02*
X027975Y013430D01*
X027975Y013331D02*
X025460Y013331D01*
X025460Y013233D02*
X027975Y013233D01*
X027975Y013134D02*
X025460Y013134D01*
X025418Y013036D02*
X027975Y013036D01*
X027975Y012937D02*
X025319Y012937D01*
X025221Y012839D02*
X027975Y012839D01*
X027975Y012740D02*
X025122Y012740D01*
X025024Y012642D02*
X027452Y012642D01*
X027306Y012543D02*
X024925Y012543D01*
X024826Y012445D02*
X027240Y012445D01*
X027203Y012346D02*
X024728Y012346D01*
X024629Y012247D02*
X027203Y012247D01*
X027224Y012149D02*
X024546Y012149D01*
X024546Y012050D02*
X027268Y012050D01*
X027367Y011952D02*
X024515Y011952D01*
X024445Y011853D02*
X027975Y011853D01*
X027975Y011755D02*
X024398Y011755D01*
X024398Y011656D02*
X027975Y011656D01*
X027975Y011558D02*
X024398Y011558D01*
X024398Y011459D02*
X027975Y011459D01*
X027975Y011361D02*
X024398Y011361D01*
X024398Y011262D02*
X027975Y011262D01*
X027975Y011164D02*
X024398Y011164D01*
X024398Y011065D02*
X027975Y011065D01*
X027975Y010966D02*
X026818Y010966D01*
X026966Y010868D02*
X027975Y010868D01*
X027975Y010769D02*
X027024Y010769D01*
X027046Y010671D02*
X027975Y010671D01*
X027975Y010572D02*
X027039Y010572D01*
X026999Y010474D02*
X027975Y010474D01*
X027975Y010375D02*
X027824Y010375D01*
X027933Y010277D02*
X027975Y010277D01*
X027975Y010178D02*
X027974Y010178D01*
X027655Y010090D02*
X025155Y007590D01*
X012155Y007590D01*
X012396Y007813D02*
X017218Y007813D01*
X017405Y008090D02*
X024905Y008090D01*
X025212Y008207D02*
X025518Y008207D01*
X025616Y008306D02*
X025154Y008306D01*
X025004Y008404D02*
X025715Y008404D01*
X025813Y008503D02*
X024546Y008503D01*
X024546Y008404D02*
X024806Y008404D01*
X024657Y008306D02*
X024507Y008306D01*
X024516Y008601D02*
X025912Y008601D01*
X025894Y008700D02*
X026010Y008700D01*
X025993Y008798D02*
X026109Y008798D01*
X026091Y008897D02*
X026207Y008897D01*
X026190Y008996D02*
X026306Y008996D01*
X026288Y009094D02*
X026404Y009094D01*
X026387Y009193D02*
X026503Y009193D01*
X026486Y009291D02*
X026602Y009291D01*
X026584Y009390D02*
X026700Y009390D01*
X026683Y009488D02*
X026799Y009488D01*
X026781Y009587D02*
X026897Y009587D01*
X026880Y009685D02*
X026996Y009685D01*
X027094Y009784D02*
X026898Y009784D01*
X026898Y009882D02*
X027193Y009882D01*
X027291Y009981D02*
X026898Y009981D01*
X026898Y010080D02*
X027327Y010080D01*
X027336Y010178D02*
X026898Y010178D01*
X026898Y010277D02*
X027378Y010277D01*
X027486Y010375D02*
X026904Y010375D01*
X026718Y010653D02*
X026718Y009778D01*
X025780Y008840D01*
X022343Y008840D01*
X022155Y008653D01*
X021935Y008897D02*
X021335Y008897D01*
X021335Y008996D02*
X022243Y008996D01*
X021860Y008798D02*
X021411Y008798D01*
X021465Y008700D02*
X021827Y008700D01*
X021827Y008601D02*
X021483Y008601D01*
X021474Y008503D02*
X021862Y008503D01*
X021969Y008375D02*
X022090Y008325D01*
X022220Y008325D01*
X022341Y008375D01*
X022433Y008467D01*
X022483Y008587D01*
X022483Y008660D01*
X022886Y008660D01*
X022877Y008651D01*
X022827Y008531D01*
X022827Y008400D01*
X022877Y008279D01*
X022886Y008270D01*
X021240Y008270D01*
X021341Y008312D01*
X021433Y008404D01*
X021326Y008306D02*
X022866Y008306D01*
X022827Y008404D02*
X022371Y008404D01*
X022448Y008503D02*
X022827Y008503D01*
X022856Y008601D02*
X022483Y008601D01*
X023155Y008465D02*
X023218Y008465D01*
X024218Y008465D01*
X025233Y008109D02*
X025419Y008109D01*
X025321Y008010D02*
X025227Y008010D01*
X025222Y007912D02*
X025186Y007912D01*
X025123Y007813D02*
X025092Y007813D01*
X025779Y009094D02*
X021335Y009094D01*
X021335Y009193D02*
X025878Y009193D01*
X025976Y009291D02*
X021335Y009291D01*
X021335Y009390D02*
X026075Y009390D01*
X026174Y009488D02*
X021335Y009488D01*
X021335Y009587D02*
X026272Y009587D01*
X026371Y009685D02*
X021335Y009685D01*
X021335Y009784D02*
X026469Y009784D01*
X026538Y009882D02*
X021335Y009882D01*
X021335Y009981D02*
X026538Y009981D01*
X026538Y010080D02*
X021335Y010080D01*
X021335Y010178D02*
X026538Y010178D01*
X026538Y010277D02*
X021335Y010277D01*
X021335Y010375D02*
X026531Y010375D01*
X026437Y010474D02*
X024341Y010474D01*
X024476Y010572D02*
X026396Y010572D01*
X026389Y010671D02*
X024528Y010671D01*
X024546Y010769D02*
X026411Y010769D01*
X026469Y010868D02*
X024535Y010868D01*
X024493Y010966D02*
X026617Y010966D01*
X025968Y011903D02*
X025968Y009778D01*
X025468Y009278D01*
X025218Y009278D01*
X024218Y010778D02*
X024218Y012090D01*
X024218Y012090D01*
X025280Y013153D01*
X025280Y015090D01*
X025588Y015204D02*
X028764Y015204D01*
X028666Y015105D02*
X025608Y015105D01*
X025601Y015007D02*
X028567Y015007D01*
X028469Y014908D02*
X025560Y014908D01*
X025460Y014810D02*
X028370Y014810D01*
X028271Y014711D02*
X025460Y014711D01*
X025460Y014613D02*
X027382Y014613D01*
X027277Y014514D02*
X025460Y014514D01*
X025460Y014415D02*
X027228Y014415D01*
X027203Y014317D02*
X025460Y014317D01*
X025460Y014218D02*
X027203Y014218D01*
X027236Y014120D02*
X025460Y014120D01*
X025460Y014021D02*
X027298Y014021D01*
X027431Y013923D02*
X025460Y013923D01*
X025460Y013824D02*
X027975Y013824D01*
X027975Y013726D02*
X025460Y013726D01*
X025100Y014317D02*
X021335Y014317D01*
X021335Y014415D02*
X025100Y014415D01*
X025100Y014514D02*
X021335Y014514D01*
X021155Y014965D02*
X021718Y015528D01*
X024405Y015528D01*
X024468Y015590D01*
X024779Y015696D02*
X025835Y015696D01*
X025532Y015302D02*
X028975Y015302D01*
X029905Y015302D02*
X030007Y015302D01*
X030105Y015204D02*
X029905Y015204D01*
X029908Y015401D02*
X029905Y015401D01*
X029905Y015499D02*
X029905Y015499D01*
X030605Y015499D02*
X030705Y015499D01*
X030705Y015401D02*
X030605Y015401D01*
X030605Y015302D02*
X030705Y015302D01*
X030705Y015204D02*
X030605Y015204D01*
X031245Y014908D02*
X032390Y014908D01*
X032390Y014810D02*
X031344Y014810D01*
X031385Y014711D02*
X032390Y014711D01*
X032390Y014613D02*
X031385Y014613D01*
X031385Y014514D02*
X032390Y014514D01*
X032390Y014415D02*
X031385Y014415D01*
X031290Y014317D02*
X032390Y014317D01*
X032390Y014218D02*
X031191Y014218D01*
X031387Y015795D02*
X032390Y015795D01*
X032390Y015894D02*
X031288Y015894D01*
X031190Y015992D02*
X032390Y015992D01*
X030705Y015992D02*
X030605Y015992D01*
X030605Y015894D02*
X030705Y015894D01*
X030705Y015795D02*
X030605Y015795D01*
X028173Y014613D02*
X027803Y014613D01*
X027908Y014514D02*
X028074Y014514D01*
X027976Y014415D02*
X027958Y014415D01*
X027975Y014120D02*
X027949Y014120D01*
X027975Y014021D02*
X027888Y014021D01*
X027975Y013923D02*
X027755Y013923D01*
X027733Y012642D02*
X027975Y012642D01*
X027975Y012543D02*
X027879Y012543D01*
X027946Y012445D02*
X027975Y012445D01*
X027975Y012149D02*
X027961Y012149D01*
X027975Y012050D02*
X027917Y012050D01*
X027975Y011952D02*
X027818Y011952D01*
X030605Y009981D02*
X030705Y009981D01*
X030705Y009882D02*
X030605Y009882D01*
X030605Y009784D02*
X030705Y009784D01*
X030705Y009488D02*
X030605Y009488D01*
X030605Y009390D02*
X030705Y009390D01*
X030705Y009291D02*
X030605Y009291D01*
X030605Y009193D02*
X030705Y009193D01*
X030152Y008996D02*
X029405Y008996D01*
X029405Y009094D02*
X032390Y009094D01*
X032390Y009784D02*
X031398Y009784D01*
X031299Y009882D02*
X032390Y009882D01*
X032390Y009981D02*
X031201Y009981D01*
X030116Y009193D02*
X029405Y009193D01*
X029405Y009291D02*
X030018Y009291D01*
X029919Y009390D02*
X029405Y009390D01*
X029405Y009488D02*
X029905Y009488D01*
X030054Y008897D02*
X029315Y008897D01*
X029217Y008798D02*
X029955Y008798D01*
X029911Y008700D02*
X029118Y008700D01*
X029020Y008601D02*
X029813Y008601D01*
X029714Y008503D02*
X028921Y008503D01*
X028823Y008404D02*
X029616Y008404D01*
X029517Y008306D02*
X028724Y008306D01*
X028626Y008207D02*
X029419Y008207D01*
X029320Y008109D02*
X028527Y008109D01*
X028429Y008010D02*
X029222Y008010D01*
X029123Y007912D02*
X028330Y007912D01*
X028231Y007813D02*
X029024Y007813D01*
X028926Y007714D02*
X028133Y007714D01*
X028034Y007616D02*
X028827Y007616D01*
X028729Y007517D02*
X027936Y007517D01*
X027837Y007419D02*
X028630Y007419D01*
X028532Y007320D02*
X027739Y007320D01*
X027640Y007222D02*
X028433Y007222D01*
X028335Y007123D02*
X027542Y007123D01*
X027443Y007025D02*
X028236Y007025D01*
X028138Y006926D02*
X027345Y006926D01*
X027246Y006828D02*
X028039Y006828D01*
X027940Y006729D02*
X027147Y006729D01*
X027049Y006631D02*
X027842Y006631D01*
X027743Y006532D02*
X026950Y006532D01*
X026852Y006433D02*
X027645Y006433D01*
X027546Y006335D02*
X026753Y006335D01*
X026655Y006236D02*
X027448Y006236D01*
X027349Y006138D02*
X026556Y006138D01*
X026483Y006039D02*
X027251Y006039D01*
X027152Y005941D02*
X026448Y005941D01*
X026371Y005842D02*
X026943Y005842D01*
X029293Y005152D02*
X030861Y005152D01*
X030886Y005178D02*
X031105Y005178D01*
X031105Y004578D01*
X031205Y004578D01*
X031205Y005178D01*
X031424Y005178D01*
X031805Y004797D01*
X031805Y004578D01*
X031205Y004578D01*
X031205Y004478D01*
X031805Y004478D01*
X031805Y004258D01*
X031424Y003878D01*
X031205Y003878D01*
X031205Y004478D01*
X031105Y004478D01*
X031105Y004578D01*
X030505Y004578D01*
X030505Y004797D01*
X030886Y005178D01*
X030762Y005054D02*
X029520Y005054D01*
X029618Y004955D02*
X030663Y004955D01*
X030565Y004857D02*
X029701Y004857D01*
X029741Y004758D02*
X030505Y004758D01*
X030505Y004660D02*
X029782Y004660D01*
X029785Y004561D02*
X031105Y004561D01*
X031105Y004478D02*
X030505Y004478D01*
X030505Y004258D01*
X030886Y003878D01*
X031105Y003878D01*
X031105Y004478D01*
X031105Y004463D02*
X031205Y004463D01*
X031205Y004561D02*
X032390Y004561D01*
X032390Y004463D02*
X031805Y004463D01*
X031805Y004364D02*
X032390Y004364D01*
X032390Y004265D02*
X031805Y004265D01*
X031714Y004167D02*
X032390Y004167D01*
X032390Y004068D02*
X031615Y004068D01*
X031516Y003970D02*
X032390Y003970D01*
X032390Y004660D02*
X031805Y004660D01*
X031805Y004758D02*
X032390Y004758D01*
X032390Y004857D02*
X031745Y004857D01*
X031647Y004955D02*
X032390Y004955D01*
X032390Y005054D02*
X031548Y005054D01*
X031450Y005152D02*
X032390Y005152D01*
X031205Y005152D02*
X031105Y005152D01*
X031105Y005054D02*
X031205Y005054D01*
X031205Y004955D02*
X031105Y004955D01*
X031105Y004857D02*
X031205Y004857D01*
X031205Y004758D02*
X031105Y004758D01*
X031105Y004660D02*
X031205Y004660D01*
X031205Y004364D02*
X031105Y004364D01*
X031105Y004265D02*
X031205Y004265D01*
X031205Y004167D02*
X031105Y004167D01*
X031105Y004068D02*
X031205Y004068D01*
X031205Y003970D02*
X031105Y003970D01*
X030794Y003970D02*
X029455Y003970D01*
X029587Y004068D02*
X030695Y004068D01*
X030597Y004167D02*
X029685Y004167D01*
X029728Y004265D02*
X030505Y004265D01*
X030505Y004364D02*
X029769Y004364D01*
X029785Y004463D02*
X030505Y004463D01*
X031195Y007222D02*
X032390Y007222D01*
X032390Y007320D02*
X031293Y007320D01*
X031385Y007419D02*
X032390Y007419D01*
X032390Y007517D02*
X031385Y007517D01*
X031385Y007616D02*
X032390Y007616D01*
X032390Y007714D02*
X031385Y007714D01*
X031340Y007813D02*
X032390Y007813D01*
X032390Y007912D02*
X031242Y007912D01*
X031143Y008010D02*
X032390Y008010D01*
X030130Y008207D02*
X030126Y008207D01*
X023530Y010778D02*
X023530Y013403D01*
X021155Y014965D02*
X021155Y008590D01*
X019718Y009903D02*
X019468Y009653D01*
X019468Y009590D01*
X019139Y009587D02*
X006835Y009587D01*
X006835Y009685D02*
X019152Y009685D01*
X019100Y009784D02*
X006835Y009784D01*
X006835Y009882D02*
X018961Y009882D01*
X018908Y009981D02*
X006835Y009981D01*
X006835Y010080D02*
X018889Y010080D01*
X018899Y010178D02*
X006835Y010178D01*
X006835Y010277D02*
X018940Y010277D01*
X018975Y010375D02*
X006835Y010375D01*
X006835Y010474D02*
X018975Y010474D01*
X018975Y010572D02*
X006835Y010572D01*
X006835Y010671D02*
X018975Y010671D01*
X018975Y010769D02*
X006835Y010769D01*
X006835Y010868D02*
X018975Y010868D01*
X018975Y010966D02*
X006835Y010966D01*
X006835Y011065D02*
X018975Y011065D01*
X018975Y011164D02*
X006835Y011164D01*
X006835Y011262D02*
X018975Y011262D01*
X018975Y011361D02*
X006835Y011361D01*
X006835Y011459D02*
X018975Y011459D01*
X018975Y011558D02*
X006835Y011558D01*
X006835Y011656D02*
X018975Y011656D01*
X018975Y011755D02*
X006835Y011755D01*
X006835Y011853D02*
X007678Y011853D01*
X007905Y012090D02*
X006655Y012090D01*
X006655Y015340D01*
X007905Y015340D01*
X007676Y015105D02*
X006835Y015105D01*
X006835Y015007D02*
X018975Y015007D01*
X018975Y015105D02*
X008134Y015105D01*
X008204Y015204D02*
X018975Y015204D01*
X018975Y015302D02*
X008233Y015302D01*
X008233Y015401D02*
X018975Y015401D01*
X018975Y015499D02*
X008194Y015499D01*
X008111Y015598D02*
X018975Y015598D01*
X018975Y015696D02*
X005905Y015696D01*
X005905Y015598D02*
X007699Y015598D01*
X006835Y014908D02*
X018975Y014908D01*
X018975Y014810D02*
X006835Y014810D01*
X006835Y014711D02*
X018975Y014711D01*
X018975Y014613D02*
X006835Y014613D01*
X006835Y014514D02*
X018975Y014514D01*
X018975Y014415D02*
X006835Y014415D01*
X006835Y014317D02*
X018975Y014317D01*
X018975Y014218D02*
X006835Y014218D01*
X006835Y014120D02*
X018975Y014120D01*
X018975Y014021D02*
X006835Y014021D01*
X006835Y013923D02*
X018975Y013923D01*
X018975Y013824D02*
X006835Y013824D01*
X006835Y013726D02*
X018975Y013726D01*
X018975Y013627D02*
X006835Y013627D01*
X006835Y013529D02*
X018975Y013529D01*
X018975Y013430D02*
X006835Y013430D01*
X006835Y013331D02*
X018975Y013331D01*
X018975Y013233D02*
X006835Y013233D01*
X006835Y013134D02*
X018975Y013134D01*
X018975Y013036D02*
X006835Y013036D01*
X006835Y012937D02*
X018975Y012937D01*
X018975Y012839D02*
X006835Y012839D01*
X006835Y012740D02*
X018975Y012740D01*
X018975Y012642D02*
X006835Y012642D01*
X006835Y012543D02*
X018975Y012543D01*
X018975Y012445D02*
X006835Y012445D01*
X006835Y012346D02*
X007697Y012346D01*
X008113Y012346D02*
X018975Y012346D01*
X018975Y012247D02*
X008195Y012247D01*
X008233Y012149D02*
X018975Y012149D01*
X018975Y012050D02*
X008233Y012050D01*
X008203Y011952D02*
X018975Y011952D01*
X018975Y011853D02*
X008132Y011853D01*
X006655Y012090D02*
X006655Y008840D01*
X007905Y008840D01*
X007680Y008601D02*
X006880Y008601D01*
X006865Y009094D02*
X007695Y009094D01*
X006835Y009390D02*
X019204Y009390D01*
X019155Y009488D02*
X006835Y009488D01*
X006475Y009488D02*
X006405Y009488D01*
X006405Y009390D02*
X006475Y009390D01*
X006475Y009291D02*
X006405Y009291D01*
X006405Y009193D02*
X006475Y009193D01*
X006445Y009094D02*
X006405Y009094D01*
X006405Y009587D02*
X006475Y009587D01*
X006475Y009685D02*
X006405Y009685D01*
X006405Y009784D02*
X006475Y009784D01*
X006475Y009882D02*
X006405Y009882D01*
X006405Y009981D02*
X006475Y009981D01*
X006475Y010080D02*
X006405Y010080D01*
X006405Y010178D02*
X006475Y010178D01*
X006475Y010277D02*
X006405Y010277D01*
X006405Y010375D02*
X006475Y010375D01*
X006475Y010474D02*
X006405Y010474D01*
X006405Y010572D02*
X006475Y010572D01*
X006475Y010671D02*
X006405Y010671D01*
X006405Y010769D02*
X006475Y010769D01*
X006475Y010868D02*
X006405Y010868D01*
X006405Y010966D02*
X006475Y010966D01*
X006475Y011065D02*
X006405Y011065D01*
X006405Y011164D02*
X006475Y011164D01*
X006475Y011262D02*
X006405Y011262D01*
X006405Y011361D02*
X006475Y011361D01*
X006475Y011459D02*
X006405Y011459D01*
X006405Y011558D02*
X006475Y011558D01*
X006475Y011656D02*
X006405Y011656D01*
X006405Y011755D02*
X006475Y011755D01*
X006475Y011853D02*
X006405Y011853D01*
X006405Y011952D02*
X006475Y011952D01*
X006475Y012050D02*
X006405Y012050D01*
X006405Y012149D02*
X006475Y012149D01*
X006475Y012247D02*
X006405Y012247D01*
X006405Y012346D02*
X006475Y012346D01*
X006475Y012445D02*
X006405Y012445D01*
X006405Y012543D02*
X006475Y012543D01*
X006475Y012642D02*
X006405Y012642D01*
X006405Y012740D02*
X006475Y012740D01*
X006475Y012839D02*
X006405Y012839D01*
X006405Y012937D02*
X006475Y012937D01*
X006475Y013036D02*
X006405Y013036D01*
X006405Y013134D02*
X006475Y013134D01*
X006475Y013233D02*
X006366Y013233D01*
X006267Y013331D02*
X006475Y013331D01*
X006475Y013430D02*
X006169Y013430D01*
X006070Y013529D02*
X006475Y013529D01*
X006475Y013627D02*
X005972Y013627D01*
X005905Y013726D02*
X006475Y013726D01*
X006475Y013824D02*
X005905Y013824D01*
X005905Y013923D02*
X006475Y013923D01*
X006475Y014021D02*
X005905Y014021D01*
X005905Y014120D02*
X006475Y014120D01*
X006475Y014218D02*
X005905Y014218D01*
X005905Y014317D02*
X006475Y014317D01*
X006475Y014415D02*
X005938Y014415D01*
X005979Y014514D02*
X006475Y014514D01*
X006475Y014613D02*
X005983Y014613D01*
X005960Y014711D02*
X006475Y014711D01*
X006475Y014810D02*
X005905Y014810D01*
X005905Y014908D02*
X006475Y014908D01*
X006475Y015007D02*
X005905Y015007D01*
X005905Y015105D02*
X006475Y015105D01*
X006475Y015204D02*
X005905Y015204D01*
X005905Y015302D02*
X006475Y015302D01*
X006475Y015401D02*
X005905Y015401D01*
X005905Y015499D02*
X006560Y015499D01*
X005905Y015795D02*
X018975Y015795D01*
X018888Y015894D02*
X005905Y015894D01*
X005905Y015992D02*
X018841Y015992D01*
X018827Y016091D02*
X005905Y016091D01*
X005905Y016189D02*
X018841Y016189D01*
X019155Y016090D02*
X019155Y010090D01*
X019218Y010090D01*
X018468Y010028D02*
X018405Y010090D01*
X018405Y016090D01*
X020083Y016189D02*
X021802Y016189D01*
X021900Y016091D02*
X020994Y016091D01*
X021072Y015992D02*
X021999Y015992D01*
X022097Y015894D02*
X021108Y015894D01*
X021108Y015795D02*
X022196Y015795D01*
X021632Y015696D02*
X021076Y015696D01*
X021002Y015598D02*
X021533Y015598D01*
X021435Y015499D02*
X020960Y015499D01*
X020960Y015401D02*
X021336Y015401D01*
X021238Y015302D02*
X020960Y015302D01*
X021006Y015204D02*
X021139Y015204D01*
X020780Y014965D02*
X020780Y015840D01*
X021747Y015302D02*
X024305Y015302D01*
X030605Y021215D02*
X030705Y021215D01*
X030705Y021313D02*
X030605Y021313D01*
X030605Y021412D02*
X030705Y021412D01*
X030705Y021511D02*
X030605Y021511D01*
X014302Y022299D02*
X011008Y022299D01*
X011045Y022200D02*
X014265Y022200D01*
X014265Y022102D02*
X011045Y022102D01*
X011045Y022003D02*
X014265Y022003D01*
X014265Y021905D02*
X011045Y021905D01*
X010272Y021412D02*
X005241Y021412D01*
X005340Y021313D02*
X010370Y021313D01*
X010469Y021215D02*
X005385Y021215D01*
X005385Y021116D02*
X010475Y021116D01*
X010475Y021018D02*
X005385Y021018D01*
X005385Y020919D02*
X010475Y020919D01*
X010475Y020821D02*
X005294Y020821D01*
X004083Y020427D02*
X002920Y020427D01*
X002920Y020525D02*
X010475Y020525D01*
X009245Y019737D02*
X005210Y019737D01*
X005212Y019441D02*
X009245Y019441D01*
X009245Y019540D02*
X003405Y019540D01*
X003405Y019638D02*
X009245Y019638D01*
X009313Y019343D02*
X005311Y019343D01*
X005385Y019244D02*
X009411Y019244D01*
X005405Y018259D02*
X003405Y018259D01*
X003405Y018357D02*
X005343Y018357D01*
X005278Y018456D02*
X003405Y018456D01*
X003405Y018554D02*
X005212Y018554D01*
X005146Y018653D02*
X003405Y018653D01*
X003405Y018751D02*
X004086Y018751D01*
X003987Y018850D02*
X003405Y018850D01*
X003405Y018948D02*
X003925Y018948D01*
X003925Y019047D02*
X003405Y019047D01*
X003405Y019146D02*
X003925Y019146D01*
X003925Y019244D02*
X003405Y019244D01*
X003405Y019343D02*
X003999Y019343D01*
X004098Y019441D02*
X003405Y019441D01*
X003405Y019737D02*
X004101Y019737D01*
X004002Y019835D02*
X003405Y019835D01*
X002941Y020229D02*
X002920Y020229D01*
X002920Y020328D02*
X003039Y020328D01*
X003405Y018160D02*
X005405Y018160D01*
X005405Y018062D02*
X003405Y018062D01*
X003405Y017963D02*
X005405Y017963D01*
X005405Y017864D02*
X003405Y017864D01*
X003437Y017766D02*
X005405Y017766D01*
X005405Y017667D02*
X003478Y017667D01*
X003483Y017569D02*
X005405Y017569D01*
X005405Y017470D02*
X003461Y017470D01*
X003405Y017372D02*
X005405Y017372D01*
X005405Y017273D02*
X003405Y017273D01*
X003405Y017175D02*
X005405Y017175D01*
X005405Y017076D02*
X003405Y017076D01*
X003405Y016978D02*
X005405Y016978D01*
X005405Y016879D02*
X003405Y016879D01*
X003405Y016780D02*
X005405Y016780D01*
X005405Y016682D02*
X003405Y016682D01*
X003405Y016583D02*
X005405Y016583D01*
X005405Y016485D02*
X003405Y016485D01*
X003405Y016386D02*
X005405Y016386D01*
X005405Y016288D02*
X003405Y016288D01*
X003405Y016189D02*
X005405Y016189D01*
X005405Y016091D02*
X003405Y016091D01*
X003405Y015992D02*
X005405Y015992D01*
X005405Y015894D02*
X003405Y015894D01*
X003405Y015795D02*
X005405Y015795D01*
X005405Y015696D02*
X003405Y015696D01*
X003405Y015598D02*
X005405Y015598D01*
X005405Y015499D02*
X005154Y015499D01*
X005133Y015520D02*
X005385Y015268D01*
X005385Y014912D01*
X005133Y014660D01*
X004177Y014660D01*
X003925Y014912D01*
X003925Y015268D01*
X004177Y015520D01*
X005133Y015520D01*
X005253Y015401D02*
X005405Y015401D01*
X005405Y015302D02*
X005351Y015302D01*
X005385Y015204D02*
X005405Y015204D01*
X005405Y015105D02*
X005385Y015105D01*
X005385Y015007D02*
X005405Y015007D01*
X005405Y014908D02*
X005381Y014908D01*
X005405Y014810D02*
X005283Y014810D01*
X005350Y014711D02*
X005184Y014711D01*
X005327Y014613D02*
X003405Y014613D01*
X003405Y014711D02*
X004126Y014711D01*
X004028Y014810D02*
X003405Y014810D01*
X003405Y014908D02*
X003929Y014908D01*
X003925Y015007D02*
X003405Y015007D01*
X003405Y015105D02*
X003925Y015105D01*
X003925Y015204D02*
X003405Y015204D01*
X003405Y015302D02*
X003959Y015302D01*
X004058Y015401D02*
X003405Y015401D01*
X003405Y015499D02*
X004156Y015499D01*
X004171Y014514D02*
X003405Y014514D01*
X003405Y014415D02*
X004072Y014415D01*
X004013Y013824D02*
X003405Y013824D01*
X003405Y013726D02*
X004112Y013726D01*
X004087Y013430D02*
X003405Y013430D01*
X003405Y013529D02*
X005405Y013529D01*
X005405Y013627D02*
X003405Y013627D01*
X003405Y013331D02*
X003988Y013331D01*
X003925Y013233D02*
X003405Y013233D01*
X003405Y013134D02*
X003925Y013134D01*
X003925Y013036D02*
X003405Y013036D01*
X003405Y012937D02*
X003925Y012937D01*
X003999Y012839D02*
X003405Y012839D01*
X003405Y012740D02*
X004097Y012740D01*
X003405Y012642D02*
X005250Y012642D01*
X005349Y012543D02*
X003405Y012543D01*
X003405Y012445D02*
X005405Y012445D01*
X005405Y012346D02*
X003405Y012346D01*
X003405Y012247D02*
X005405Y012247D01*
X005405Y012149D02*
X003405Y012149D01*
X003405Y012050D02*
X005405Y012050D01*
X005405Y011952D02*
X003405Y011952D01*
X003405Y011853D02*
X005405Y011853D01*
X005405Y011755D02*
X003405Y011755D01*
X003405Y011656D02*
X005405Y011656D01*
X005405Y011558D02*
X003405Y011558D01*
X003405Y011459D02*
X005349Y011459D01*
X005327Y011361D02*
X003405Y011361D01*
X003405Y011262D02*
X005332Y011262D01*
X005373Y011164D02*
X003405Y011164D01*
X003405Y011065D02*
X005405Y011065D01*
X005405Y010966D02*
X003405Y010966D01*
X003405Y010868D02*
X005405Y010868D01*
X005405Y010769D02*
X003405Y010769D01*
X003405Y010671D02*
X005405Y010671D01*
X005405Y010572D02*
X003405Y010572D01*
X003405Y010474D02*
X005405Y010474D01*
X005405Y010375D02*
X003405Y010375D01*
X003405Y010277D02*
X005405Y010277D01*
X005405Y010178D02*
X003405Y010178D01*
X003405Y010080D02*
X005405Y010080D01*
X005405Y009981D02*
X005172Y009981D01*
X005133Y010020D02*
X005385Y009768D01*
X005385Y009412D01*
X005133Y009160D01*
X004177Y009160D01*
X003925Y009412D01*
X003925Y009768D01*
X004177Y010020D01*
X005133Y010020D01*
X005271Y009882D02*
X005405Y009882D01*
X005405Y009784D02*
X005369Y009784D01*
X005385Y009685D02*
X005405Y009685D01*
X005405Y009587D02*
X005385Y009587D01*
X005385Y009488D02*
X005405Y009488D01*
X005405Y009390D02*
X005363Y009390D01*
X005405Y009291D02*
X005264Y009291D01*
X005166Y009193D02*
X005405Y009193D01*
X005405Y009094D02*
X003405Y009094D01*
X003405Y008996D02*
X004152Y008996D01*
X004054Y008897D02*
X003405Y008897D01*
X003405Y009193D02*
X004145Y009193D01*
X004046Y009291D02*
X003405Y009291D01*
X003405Y009390D02*
X003948Y009390D01*
X003925Y009488D02*
X003405Y009488D01*
X003405Y009587D02*
X003925Y009587D01*
X003925Y009685D02*
X003405Y009685D01*
X003405Y009784D02*
X003941Y009784D01*
X004039Y009882D02*
X003405Y009882D01*
X003405Y009981D02*
X004138Y009981D01*
X005158Y008996D02*
X005405Y008996D01*
X005405Y008897D02*
X005256Y008897D01*
X005355Y008798D02*
X005405Y008798D01*
X005405Y008700D02*
X005385Y008700D01*
X005385Y008601D02*
X005405Y008601D01*
X005405Y008503D02*
X005385Y008503D01*
X005377Y008404D02*
X005405Y008404D01*
X005405Y008306D02*
X005279Y008306D01*
X005180Y008207D02*
X005405Y008207D01*
X005405Y008109D02*
X003405Y008109D01*
X003405Y008207D02*
X004130Y008207D01*
X004032Y008306D02*
X003405Y008306D01*
X003405Y008010D02*
X004167Y008010D01*
X004068Y007912D02*
X003405Y007912D01*
X003405Y007813D02*
X003970Y007813D01*
X003925Y007714D02*
X003405Y007714D01*
X003405Y007616D02*
X003925Y007616D01*
X003925Y007517D02*
X003405Y007517D01*
X003405Y007419D02*
X003925Y007419D01*
X004017Y007320D02*
X003405Y007320D01*
X003405Y007222D02*
X004115Y007222D01*
X003405Y007123D02*
X005269Y007123D01*
X005367Y007025D02*
X003405Y007025D01*
X003405Y006926D02*
X005466Y006926D01*
X005564Y006828D02*
X003405Y006828D01*
X003405Y006729D02*
X005663Y006729D01*
X005761Y006631D02*
X003405Y006631D01*
X003405Y006532D02*
X005860Y006532D01*
X005958Y006433D02*
X003405Y006433D01*
X003405Y006335D02*
X006057Y006335D01*
X006156Y006236D02*
X003405Y006236D01*
X003405Y006138D02*
X006254Y006138D01*
X006353Y006039D02*
X003405Y006039D01*
X003405Y005941D02*
X006451Y005941D01*
X006550Y005842D02*
X003405Y005842D01*
X003405Y005744D02*
X006648Y005744D01*
X006747Y005645D02*
X003405Y005645D01*
X003405Y005547D02*
X006845Y005547D01*
X006944Y005448D02*
X003405Y005448D01*
X003405Y005349D02*
X007042Y005349D01*
X007257Y005842D02*
X007550Y005842D01*
X007451Y005941D02*
X007158Y005941D01*
X007060Y006039D02*
X007353Y006039D01*
X007254Y006138D02*
X006961Y006138D01*
X006862Y006236D02*
X007155Y006236D01*
X007057Y006335D02*
X006764Y006335D01*
X006665Y006433D02*
X006958Y006433D01*
X006860Y006532D02*
X006567Y006532D01*
X006468Y006631D02*
X006761Y006631D01*
X006663Y006729D02*
X006370Y006729D01*
X006271Y006828D02*
X006564Y006828D01*
X006466Y006926D02*
X006173Y006926D01*
X006074Y007025D02*
X006367Y007025D01*
X006269Y007123D02*
X005976Y007123D01*
X005877Y007222D02*
X006170Y007222D01*
X006071Y007320D02*
X005778Y007320D01*
X005680Y007419D02*
X005973Y007419D01*
X005874Y007517D02*
X005581Y007517D01*
X005483Y007616D02*
X005776Y007616D01*
X005677Y007714D02*
X005385Y007714D01*
X005340Y007813D02*
X005579Y007813D01*
X005480Y007912D02*
X005242Y007912D01*
X005143Y008010D02*
X005405Y008010D01*
X007778Y007320D02*
X010921Y007320D01*
X010854Y007222D02*
X007877Y007222D01*
X007976Y007123D02*
X010827Y007123D01*
X010827Y007025D02*
X008074Y007025D01*
X008173Y006926D02*
X010868Y006926D01*
X011205Y004840D02*
X011341Y004840D01*
X011605Y004577D01*
X011605Y004140D01*
X011205Y004140D01*
X011205Y004840D01*
X011205Y004758D02*
X011105Y004758D01*
X011105Y004660D02*
X011205Y004660D01*
X011205Y004561D02*
X011105Y004561D01*
X011105Y004463D02*
X011205Y004463D01*
X011205Y004364D02*
X011105Y004364D01*
X011105Y004265D02*
X011205Y004265D01*
X011205Y004167D02*
X011105Y004167D01*
X010705Y004167D02*
X010605Y004167D01*
X010605Y004140D02*
X010205Y004140D01*
X010205Y004840D01*
X010341Y004840D01*
X010605Y004577D01*
X010605Y004140D01*
X010605Y004265D02*
X010705Y004265D01*
X010705Y004364D02*
X010605Y004364D01*
X010605Y004463D02*
X010705Y004463D01*
X010705Y004561D02*
X010605Y004561D01*
X010522Y004660D02*
X010788Y004660D01*
X010887Y004758D02*
X010424Y004758D01*
X010205Y004758D02*
X010105Y004758D01*
X010105Y004660D02*
X010205Y004660D01*
X010205Y004561D02*
X010105Y004561D01*
X010105Y004463D02*
X010205Y004463D01*
X010205Y004364D02*
X010105Y004364D01*
X010105Y004265D02*
X010205Y004265D01*
X010205Y004167D02*
X010105Y004167D01*
X010605Y003970D02*
X010705Y003970D01*
X011605Y004167D02*
X011725Y004167D01*
X011725Y004265D02*
X011605Y004265D01*
X011605Y004364D02*
X011725Y004364D01*
X011725Y004463D02*
X011605Y004463D01*
X011605Y004561D02*
X011725Y004561D01*
X011816Y004660D02*
X011522Y004660D01*
X011424Y004758D02*
X011915Y004758D01*
X012395Y004758D02*
X012915Y004758D01*
X012816Y004660D02*
X012494Y004660D01*
X012585Y004561D02*
X012725Y004561D01*
X012725Y004463D02*
X012585Y004463D01*
X012585Y004364D02*
X012725Y004364D01*
X012725Y003773D02*
X012585Y003773D01*
X012585Y003674D02*
X012725Y003674D01*
X012762Y003576D02*
X012549Y003576D01*
X012450Y003477D02*
X012860Y003477D01*
X012959Y003379D02*
X012352Y003379D01*
X013352Y003379D02*
X013959Y003379D01*
X013860Y003477D02*
X013450Y003477D01*
X013549Y003576D02*
X013762Y003576D01*
X013725Y003674D02*
X013585Y003674D01*
X013585Y003773D02*
X013725Y003773D01*
X013725Y004364D02*
X013585Y004364D01*
X013585Y004463D02*
X013725Y004463D01*
X013725Y004561D02*
X013585Y004561D01*
X013494Y004660D02*
X013816Y004660D01*
X013915Y004758D02*
X013395Y004758D01*
X008930Y003379D02*
X008380Y003379D01*
X008478Y003477D02*
X008832Y003477D01*
X008733Y003576D02*
X008577Y003576D01*
X008605Y003674D02*
X008705Y003674D01*
X008705Y003773D02*
X008605Y003773D01*
X008605Y003871D02*
X008705Y003871D01*
X008705Y003970D02*
X008605Y003970D01*
X007705Y004167D02*
X006651Y004167D01*
X006750Y004265D02*
X007705Y004265D01*
X007705Y004364D02*
X006805Y004364D01*
X006205Y004364D02*
X006105Y004364D01*
X006105Y004265D02*
X006205Y004265D01*
X006205Y004167D02*
X006105Y004167D01*
X006105Y004068D02*
X006205Y004068D01*
X006205Y003970D02*
X006105Y003970D01*
X005856Y003970D02*
X004304Y003970D01*
X004524Y004068D02*
X005758Y004068D01*
X005659Y004167D02*
X004623Y004167D01*
X004702Y004265D02*
X005561Y004265D01*
X005505Y004364D02*
X004743Y004364D01*
X004784Y004463D02*
X005505Y004463D01*
X005505Y004660D02*
X004785Y004660D01*
X004785Y004561D02*
X006105Y004561D01*
X006105Y004463D02*
X006205Y004463D01*
X005505Y004758D02*
X004767Y004758D01*
X004727Y004857D02*
X005505Y004857D01*
X005601Y004955D02*
X004681Y004955D01*
X004582Y005054D02*
X005699Y005054D01*
X005798Y005152D02*
X004444Y005152D01*
X005905Y011554D02*
X005905Y011554D01*
X005905Y011558D02*
X005905Y011558D01*
X005905Y011656D02*
X005905Y011656D01*
X005905Y011755D02*
X005905Y011755D01*
X005905Y011853D02*
X005905Y011853D01*
X005905Y011952D02*
X005905Y011952D01*
X005905Y012050D02*
X005905Y012050D01*
X005905Y012149D02*
X005905Y012149D01*
X005905Y012247D02*
X005905Y012247D01*
X005905Y012346D02*
X005905Y012346D01*
X005905Y012445D02*
X005905Y012445D01*
X005905Y012543D02*
X005905Y012543D01*
X005905Y012642D02*
X005905Y012642D01*
X005905Y012740D02*
X005859Y012740D01*
X005905Y012839D02*
X005760Y012839D01*
X005662Y012937D02*
X005905Y012937D01*
X005856Y013036D02*
X005563Y013036D01*
X005464Y013134D02*
X005757Y013134D01*
X005659Y013233D02*
X005385Y013233D01*
X005322Y013331D02*
X005560Y013331D01*
X005462Y013430D02*
X005223Y013430D01*
X005199Y013726D02*
X005405Y013726D01*
X005405Y013824D02*
X005297Y013824D01*
X005385Y013923D02*
X005405Y013923D01*
X005405Y014021D02*
X005385Y014021D01*
X005385Y014120D02*
X005405Y014120D01*
X005405Y014218D02*
X005385Y014218D01*
X005405Y014317D02*
X005336Y014317D01*
X005372Y014415D02*
X005238Y014415D01*
X005332Y014514D02*
X005139Y014514D01*
D19*
X025968Y011903D03*
M02*
